<svg xmlns="http://www.w3.org/2000/svg" viewBox="0 0 368.38 551.76"><defs><style>.cls-1{fill:#fff;}</style></defs><g id="Layer_2" data-name="Layer 2"><g id="Layer_1-2" data-name="Layer 1"><path class="cls-1" d="M113.76,101.53c-2.62.59-3.15-1.93-4.46-3.12a23.59,23.59,0,0,1-3.64-4.74c-.6-.91-2.28-1.59-1.41-2.92a3.6,3.6,0,0,1,2.83-1.9c3.58-.34,7.28.79,10.75-.94,1.38-.69,2.54-1.57,2.6-3.07a4.53,4.53,0,0,1,1.19-3.32,4.93,4.93,0,0,0,1.43-4.2c0-.43.37-.91.6-1.35.62-1.22,1.67-2.39,1.8-3.66.33-3.23.51-3.82,3.65-4.81a5.5,5.5,0,0,0,3.8-5c.15-2.12-1-4.34-1.59-6.49-.28-.92-.77-1.78-1.14-2.68-.66-1.64-1.71-3.25-1.85-4.94-.17-2.17.42-4.41.64-6.62a2.83,2.83,0,0,0-.18-1,11.53,11.53,0,0,1-.52-1.84,69.93,69.93,0,0,0-1.1-9.7c-.7-3-2.31-5.55-3-8.47a8,8,0,0,0-1.37-2.65,53.49,53.49,0,0,0-3.54-4.53,43,43,0,0,0-5.67-5.85c-2.57-1.95-5-4.27-8.16-5.32C103.16,1.68,101,.8,98.73.2c-2.87-.77-5.41.94-8.12,1.4A8.6,8.6,0,0,0,87.24,3a96.77,96.77,0,0,0-8.08,6c-2.35,2-4.72,4.05-5.84,7.16-.39,1.08-1.51,1.88-2.09,2.93-1,1.83-3.24,3.06-2.93,5.6a1.45,1.45,0,0,1-.21.66c-.71,1.8-1.9,3.56-2.06,5.4a114.92,114.92,0,0,0,1.08,24.58,1,1,0,0,0,.07.35,18.78,18.78,0,0,1,2.63,8.17c0,.36.49.68.52,1a6.58,6.58,0,0,1,0,2.5c-.53,1.77-1.26,3.46-1.92,5.19-.59,1.57-.92,3.34-1.86,4.68a83,83,0,0,1-5.91,7.24c-1.82,2-3.81,4-5.72,6a30.34,30.34,0,0,0-2.82,3c-1.58,2.17-3,4.42-4.48,6.7-2,3.17-4.07,6.32-5.82,9.63a70.74,70.74,0,0,0-2.91,7.33,35.22,35.22,0,0,1-1.39,3.35c-.63,1.21-1.69,2.28-2.05,3.55-.72,2.51-1.09,5.12-1.59,7.69-.07.35-.07.72-.16,1.07-.68,2.54-1.54,5.06-2,7.64-.58,3.11-.37,6.28-1.13,9.46a60.3,60.3,0,0,0-1.21,13.31c-.06,6.1-.4,12.14.55,18.34,1.11,7.26.33,14.82.36,22.25a2,2,0,0,1-.14.88,21,21,0,0,0-2.48,9.55c0,1.56.13,3.12.07,4.68a3.06,3.06,0,0,1-.59,2,6.5,6.5,0,0,0-1.94,5.53c.08,1.12.3,2.73-.3,3.28-1.27,1.17-1.08,2.46-1.08,3.76,0,3.4.1,6.81.17,10.22,0,.36-.06.84.14,1,1.69,1.74.92,3.93,1.18,5.94a9.28,9.28,0,0,0,.78,2.55c.46,1,1.34,2,1.52,3.08.26,1.45,1.33,2.07,2.17,3s2,1.93,1.56,3.58a23,23,0,0,0-.91,5c-.14,6.72-.11,13.43-.17,20.15a17,17,0,0,1-.19,2.68c-.31,1.72-.76,3.41-1.06,5.12-.21,1.24-.12,2.53-.4,3.74-.63,2.7-1.73,5.33-2,8.06a92.23,92.23,0,0,0-.22,10.78c0,3.67,1.6,5.36,5.24,5.87a2.27,2.27,0,0,1,2.21,2.26q.15,7.19.09,14.38a27.85,27.85,0,0,1-.7,2.87,11.36,11.36,0,0,0,0,3c.11.76.68,1.48.7,2.23.19,8,.24,15.94.48,23.91.13,4.36.55,8.72.83,13.08a5.2,5.2,0,0,1-.09,1.42c-.74,3.34-1.49,6.66-2.27,10-.5,2.13-1.06,4.25-1.6,6.37a.94.94,0,0,1-.17.31,12.78,12.78,0,0,0-3.43,7.53,2.56,2.56,0,0,1-.38,1c-1.11,2.08-2.32,4.12-3.34,6.24s-1.88,4.38-2.81,6.56c-.4.93-.8,1.85-1.24,2.76-.72,1.5-1.62,2.93-2.19,4.49-.66,1.76-.93,3.66-1.57,5.43s-1.93,3.22-2.14,4.92c-.33,2.67-.84,5.27-1.36,7.9-.77,3.87-1.06,7.83-1.56,11.76a3.33,3.33,0,0,1-.16.51,41,41,0,0,0-2.26,11.12,20.57,20.57,0,0,1-.27,3c-.7,4-1.5,7.93-2.18,11.9-.56,3.27-1,6.55-1.48,9.82,0,.12-.06.23-.09.35-.76,2.64-1.69,5.26-2.25,7.95-.64,3.1-.94,6.27-1.43,9.4-.07.44-.57.82-.61,1.26-.14,1.42-.59,3-.12,4.24A42.94,42.94,0,0,0,3.54,528c1,1.78,1.76,3.84,3.14,5.3a64.86,64.86,0,0,0,7.82,7,23,23,0,0,1,6.53,8c1.1,2.26,3,2,4.43,3.11.39.3,1.56-.57,2.41-.66a15.88,15.88,0,0,1,3.71,0c.87.11,1.68.84,2.53.87,2.5.09,5,0,7.52-.09a2.71,2.71,0,0,0,1.4-.55,4.72,4.72,0,0,1,4.9.12,3.22,3.22,0,0,0,2.76-.08c1.12-.65,2.55-.91,3.5,0a2.82,2.82,0,0,0,3.74.25,6.15,6.15,0,0,0,2.91-5.51,16.71,16.71,0,0,0-1.14-6.32c-1-2.14-2.5-3.75-3.75-5.61a14.51,14.51,0,0,0-3-3.15,54.08,54.08,0,0,0-6.38-4.51c-2-1.14-3.12-3.22-2.06-4.67a10.22,10.22,0,0,0,1.11-1.81c.54-1.18,1-2.42,1.51-3.61,1.08-2.43,2.23-4.82,3.32-7.24.94-2.1,1.57-4.41,2.85-6.28a6.84,6.84,0,0,0,1.2-3.12,4,4,0,0,1,.45-.93c.67-1.56,1.38-3.12,2-4.71s1.05-3,1.6-4.55c.76-2.07,1.56-4.13,2.32-6.2.12-.33,0-.73.18-1.05,1.11-2.61,2.39-5.15,3.32-7.82A66.44,66.44,0,0,0,66,467.33a4,4,0,0,1,.12-.52c.74-1.92,1.61-3.79,2.21-5.75s.94-4.11,1.45-6.15c.38-1.5.87-3,1.31-4.45.05-.17.19-.3.24-.46.72-2.12,1.47-4.22,2.13-6.36.59-1.94,1-3.93,1.62-5.88a15.62,15.62,0,0,1,1.18-3.21c1.22-2.19,2.34-4.38,2.32-7a3.47,3.47,0,0,1,.19-1.05,57,57,0,0,0,2.1-6.86c.42-2.42.61-4.84,1.26-7.27a82.71,82.71,0,0,1,2.55-8.73c1-2.62,1.58-5.46,2.59-8.15a43.08,43.08,0,0,0,1.46-6.95c0-.24,0-.58.09-.7,1.59-1.33,1-3.2,1.23-4.86a10.07,10.07,0,0,1,.24-1.57c.71-2.29,1.58-4.54,2.17-6.86.64-2.57,1-5.2,1.55-7.8a3.59,3.59,0,0,1,.08-.35c.74-2.48,1.56-4.93,2.19-7.43.59-2.33,1-4.71,1.45-7.05.05-.24.3-.44.46-.66l.6.08a49.66,49.66,0,0,1,0,5.59c-.12,1.32-1,2.58-1,3.9-.32,5.22-.54,10.44-1.1,15.67-.93,8.76,0,17.63-1.46,26.42-.89,5.3.41,10.78-1.09,16.16-.94,3.35-.33,6.95-1.28,10.48-1.13,4.18-.11,8.72-1.21,13.09-1,3.92-.59,8.07-1.25,12.14-.74,4.56-1.26,9.24-1.8,13.88a5.06,5.06,0,0,1-2.84,4,72.15,72.15,0,0,1-8,3.65c-2.67,1.06-5.42,1.9-8.12,2.86a3.43,3.43,0,0,0-1.07.6,25.88,25.88,0,0,0-3.7,3.29,11.36,11.36,0,0,0-2.36,4.33c-.38,1.65,2.14,4.25,3.94,4.42a25.64,25.64,0,0,0,5,.09c2.92-.31,5.8-1.07,8.72-1.26,3.76-.25,7.55-.1,11.33-.16.7,0,1.65.11,2.07-.28,1.21-1.14,2.48-.82,3.8-.66.37,3.05,2.78,4.08,5,5.38-.25.49-.65.94-.67,1.4-.18,3.95-.45,7.9-.35,11.84.08,2.85,1.33,3.83,4.18,4a48.94,48.94,0,0,0,6.29.07c2.36-.21,4.74.29,7.11-.94,1.48-.76,3.38.16,5.13.56,3.9.88,7.95,1.1,11.93,1.64,3,.41,5.93.91,8.89,1.38a2,2,0,0,1,.51.17c1.73.66,3.42,1.69,5.21,1.92a34.88,34.88,0,0,0,13.89-1,1.47,1.47,0,0,0,.54-.41,6.15,6.15,0,0,0,.78-6.38c-1.62-2.65-3.27-5.13-6.48-6.32s-6.12-3.06-9.25-4.43c-2.58-1.13-5.28-2-8-3,.06-.81.11-1.49.13-1.68,1-.69,2-1,2.21-1.59a23.61,23.61,0,0,0,1.25-5.1c.4-3.08-.06-6.2,1.31-9.24.8-1.76.58-3.95,1.1-6,1-3.85,1.15-7.93,1.58-11.92.15-1.43.08-2.87.14-4.31a6.23,6.23,0,0,1,.25-1.41c.7-2.46,1.59-4.89,2.08-7.39.58-3,.07-6,1.09-9.11s.38-6.42,1.39-9.63c.72-2.3.23-4.82,1-7.3a43.57,43.57,0,0,0,1.53-9.77q.75-8.3,1.14-16.63c.22-4.78.21-9.58.28-14.38,0-1.6,0-3.21,0-4.88,1.77-.58,3.45-1,5-1.69s2.89-2,4.41-2.13a12,12,0,0,0,6.29-2.83,24.39,24.39,0,0,0,4.47-4.38c1.78-2.23,3.34-4.65,4.91-7a25.38,25.38,0,0,0,2.65-4.7c.56-1.48,1.39-2,2.8-1.74,1.7.36,3.34,1,5.05,1.26,3.74.53,7.49.88,11.24,1.27,1.16.12,2.35-.05,2.88,1.45a8.16,8.16,0,0,0,1.46,2.36c1.67,2,4.24,3.28,4.89,6.11,0,.13.29.19.41.31,1.08,1.09,2.16,2.18,3.22,3.29,1.4,1.45,2.75,2.94,4.17,4.37,2.34,2.36,4.78,4.63,7,7.05,1.58,1.68,2.88,3.62,4.42,5.34s3,3,4.46,4.55c1.73,1.92,3.39,3.9,5,5.91s2.87,3.83,4.36,5.68a21.3,21.3,0,0,1,2.78,4.39,37.45,37.45,0,0,0,3.2,4.66,22.44,22.44,0,0,1,1.35,2.4c.73,1.42,1.38,2.88,2.14,4.28,1,1.79,1.94,3.58,3,5.31s2.37,3.47,3.49,5.24c1,1.54,1.94,3.09,2.76,4.71,1.07,2.14,1.85,4.42,3,6.51,1.84,3.35,3.93,6.56,5.8,9.9,1.1,2,2,4.07,2.94,6.11.48,1,.94,2,1.51,3,1.5,2.52,3.06,5,4.57,7.51.79,1.32,1.5,2.68,2.26,4,.88,1.57,1.75,3.15,2.68,4.7,1.12,1.86,2.23,3.75,3.49,5.52.83,1.18,2,2.12,2.85,3.28,2.3,3.06,4.38,6.31,6.82,9.26,2.26,2.73,5,5.09,7.34,7.74a33.59,33.59,0,0,0,5.91,5c1.79,1.26,3.64,2.45,5.48,3.63,1.3.83,2.48,2.4,4.24.57.26-.27,1.47,0,1.9.35a8.84,8.84,0,0,1,2.63,6.42c.25,4.61.06,9.24.29,13.85a10.45,10.45,0,0,0,1.39,4.33,14.81,14.81,0,0,0,2.68,2.94c.87.88,3.78,1.56,4.42.82,1.06-1.26,2.31-.92,3.58-1,2-.07,4.11.64,5.78-1.13a1,1,0,0,1,.92.17c1,1.75,2.7,1.19,3.76.62,1.72-.94,3.12-1.59,4.72,0,.25.25.79.21,1.19.33l2.6.73c.78-.22,1.57-.46,2.36-.67.61-.17,1.49-.1,1.82-.5,1.76-2.09,3.3-4.35,2.84-7.3-.42-2.72-.93-5.42-1.41-8.13a3.37,3.37,0,0,0-.2-.49c-.73-2.12-1.55-4.22-2.15-6.37s-1.06-4.56-1.58-6.84a5.21,5.21,0,0,0-.2-.5c-.69-1.83-1.49-3.62-2-5.49-.6-2.05-.94-4.18-1.46-6.26a4,4,0,0,0-.71-1.21,3.69,3.69,0,0,1,.41-4.27c1-1.11,2.2-2.24,1.62-4a19.78,19.78,0,0,0-1.1-2c-.58-1.21-1.08-2.45-1.67-3.66-.7-1.43-1.88-2.77-2.1-4.26a16.88,16.88,0,0,0-2.5-6.8c-.57-.88-.87-1.94-1.37-2.88-1-1.89-1-4.24-2.61-5.88a6.24,6.24,0,0,1-1.12-1.68,60.61,60.61,0,0,0-3-6.22c-2-3.11-4.39-6-6.5-9a39.16,39.16,0,0,1-3.12-5.3c-1.12-2.3-2-4.7-3-7.06a16.66,16.66,0,0,0-1.3-2.88c-1.91-2.84-4.21-5.46-5.8-8.46-1.16-2.2-2.58-4.24-3.72-6.39-1.69-3.17-4.61-5.24-6.37-8.27-.78-1.34-1.88-2.5-2.78-3.78-1.17-1.66-2.13-3.48-3.44-5-2.09-2.45-4.53-4.62-6.57-7.12a77.11,77.11,0,0,1-4.5-6.72c-1.17-1.79-2.33-3.58-3.44-5.4-1-1.65-1.95-3.34-2.92-5a31.4,31.4,0,0,1-2.08-3.76c-.62-1.53-.92-3.19-1.44-4.77-.45-1.37-1-2.7-1.51-4.05a59.22,59.22,0,0,1-2.1-5.56c-.66-2.46-1-5-1.54-7.52,0-.11-.08-.22-.12-.34a53.4,53.4,0,0,1-2-5.26,78.1,78.1,0,0,1-2.45-10.29c-.44-3.14-1.67-6-2.51-8.94-.72-2.54-2-5-1.68-7.83a1.69,1.69,0,0,0-.2-1c-1.6-2.54-.84-5.33-.82-8a1.19,1.19,0,0,1,1.76-1.16c1.75,1.15,3.62,2,5.42,3.07,2.12,1.19,4,2.31,6.67,1.59.13-.95.18-2,.4-2.94.63-2.87,1.53-5.69,1.93-8.59a23.91,23.91,0,0,0-.05-6.81,12,12,0,0,0-1.93-4.22,32.19,32.19,0,0,0-2.76-3.55,52.92,52.92,0,0,0-4.4-5.25c-2.62-2.47-5.47-4.71-8.23-7-2.36-2-4.71-3.95-7.1-5.88-1.52-1.23-3.1-2.39-4.65-3.58-1.13-.86-2.19-2.35-3.41-2.48-3-.34-4.22-2.62-5.28-4.72-1.36-2.7-3.44-4.71-5.28-7a4.55,4.55,0,0,1-1.12-1.75c-.57-2.6-.91-5.26-1.5-7.86a18.68,18.68,0,0,0-1.5-4.08c-1-2.07-2.25-4-3.35-6.07a43,43,0,0,0-2.86-5.43c-2-2.67-4-5.54-6.56-7.51-2.34-1.77-2.92-4.33-4.44-6.42a8.88,8.88,0,0,1-1.29-2.81c-.62-2.26-1.11-4.56-1.66-6.84a1,1,0,0,0-.12-.33c-.69-1.37-1.4-2.73-2.07-4.1-.45-.91-.84-1.85-1.28-2.76-1-2.05-1.92-4.12-3-6.13a14.75,14.75,0,0,0-1.83-2.54c-1.77-2.07-3.72-4-5.35-6.18-1.19-1.58-1.78-3.61-3-5.14-2.39-3-5-5.74-7.6-8.54-.53-.59-1.47-.8-2-1.38-1.51-1.63-2.91-3.35-4.33-5-2.42-2.88-4.88-5.73-7.21-8.68-1.69-2.12-3-4.45-5.2-6.26-2.58-2.16-5.1-4-8.65-3.52-1.84.24-2.87-.44-2.93-2.4,0-.43-.43-.83-.51-1.28a9.73,9.73,0,0,1-.2-2.15,21,21,0,0,1,.28-2.22c0-1,.45-2,.41-2.9-.18-4,.68-8-.86-12-1.21-3.14-1.83-6.44-4-9.2-2.33-3-4.43-6.14-6.63-9.23s-5.2-4.85-8.21-6.59a14,14,0,0,0-6.92-1.41c-3.23,0-6.71.11-9.6,1.32a103.93,103.93,0,0,1-9.79,3.83,1.37,1.37,0,0,0-.47.23C117.34,93.5,115.36,97.3,113.76,101.53Z"/><path d="M113.76,101.53c1.6-4.23,3.58-8,7.09-10.82a1.37,1.37,0,0,1,.47-.23,103.93,103.93,0,0,0,9.79-3.83c2.89-1.21,6.37-1.28,9.6-1.32a14,14,0,0,1,6.92,1.41c3,1.74,6.09,3.63,8.21,6.59s4.3,6.25,6.63,9.23c2.17,2.76,2.79,6.06,4,9.2,1.54,4,.68,8,.86,12,0,.93-.42,1.89-.41,2.9a21,21,0,0,0-.28,2.22,9.73,9.73,0,0,0,.2,2.15c.08.45.49.85.51,1.28.06,2,1.09,2.64,2.93,2.4,3.55-.46,6.07,1.36,8.65,3.52,2.17,1.81,3.51,4.14,5.2,6.26,2.33,2.95,4.79,5.8,7.21,8.68,1.42,1.69,2.82,3.41,4.33,5,.54.58,1.48.79,2,1.38,2.59,2.8,5.21,5.58,7.6,8.54,1.23,1.53,1.82,3.56,3,5.14,1.63,2.17,3.58,4.11,5.35,6.18a14.75,14.75,0,0,1,1.83,2.54c1.06,2,2,4.08,3,6.13.44.91.83,1.85,1.28,2.76.67,1.37,1.38,2.73,2.07,4.1a1,1,0,0,1,.12.33c.55,2.28,1,4.58,1.66,6.84a8.88,8.88,0,0,0,1.29,2.81c1.52,2.09,2.1,4.65,4.44,6.42,2.6,2,4.57,4.84,6.56,7.51a43,43,0,0,1,2.86,5.43c1.1,2,2.32,4,3.35,6.07a18.68,18.68,0,0,1,1.5,4.08c.59,2.6.93,5.26,1.5,7.86a4.55,4.55,0,0,0,1.12,1.75c1.84,2.26,3.92,4.27,5.28,7,1.06,2.1,2.23,4.38,5.28,4.72,1.22.13,2.28,1.62,3.41,2.48,1.55,1.19,3.13,2.35,4.65,3.58,2.39,1.93,4.74,3.9,7.1,5.88,2.76,2.32,5.61,4.56,8.23,7a52.92,52.92,0,0,1,4.4,5.25,32.19,32.19,0,0,1,2.76,3.55,12,12,0,0,1,1.93,4.22,23.91,23.91,0,0,1,.05,6.81c-.4,2.9-1.3,5.72-1.93,8.59-.22,1-.27,2-.4,2.94-2.64.72-4.55-.4-6.67-1.59-1.8-1-3.67-1.92-5.42-3.07a1.19,1.19,0,0,0-1.76,1.16c0,2.69-.78,5.48.82,8a1.69,1.69,0,0,1,.2,1c-.36,2.81,1,5.29,1.68,7.83.84,3,2.07,5.8,2.51,8.94a78.1,78.1,0,0,0,2.45,10.29,53.4,53.4,0,0,0,2,5.26c0,.12.09.23.12.34.5,2.51.88,5.06,1.54,7.52a59.22,59.22,0,0,0,2.1,5.56c.51,1.35,1.06,2.68,1.51,4.05.52,1.58.82,3.24,1.44,4.77A31.4,31.4,0,0,0,291.6,370c1,1.68,1.91,3.37,2.92,5,1.11,1.82,2.27,3.61,3.44,5.4a77.11,77.11,0,0,0,4.5,6.72c2,2.5,4.48,4.67,6.57,7.12,1.31,1.53,2.27,3.35,3.44,5,.9,1.28,2,2.44,2.78,3.78,1.76,3,4.68,5.1,6.37,8.27,1.14,2.15,2.56,4.19,3.72,6.39,1.59,3,3.89,5.62,5.8,8.46a16.66,16.66,0,0,1,1.3,2.88c1,2.36,1.89,4.76,3,7.06a39.16,39.16,0,0,0,3.12,5.3c2.11,3.05,4.48,5.92,6.5,9a60.61,60.61,0,0,1,3,6.22,6.24,6.24,0,0,0,1.12,1.68c1.63,1.64,1.58,4,2.61,5.88.5.94.8,2,1.37,2.88a16.88,16.88,0,0,1,2.5,6.8c.22,1.49,1.4,2.83,2.1,4.26.59,1.21,1.09,2.45,1.67,3.66a19.78,19.78,0,0,1,1.1,2c.58,1.74-.65,2.87-1.62,4a3.69,3.69,0,0,0-.41,4.27,4,4,0,0,1,.71,1.21c.52,2.08.86,4.21,1.46,6.26.55,1.87,1.35,3.66,2,5.49a5.21,5.21,0,0,1,.2.5c.52,2.28.95,4.59,1.58,6.84s1.42,4.25,2.15,6.37a3.37,3.37,0,0,1,.2.49c.48,2.71,1,5.41,1.41,8.13.46,2.95-1.08,5.21-2.84,7.3-.33.4-1.21.33-1.82.5-.79.21-1.58.45-2.36.67l-2.6-.73c-.4-.12-.94-.08-1.19-.33-1.6-1.63-3-1-4.72,0-1.06.57-2.75,1.13-3.76-.62a1,1,0,0,0-.92-.17c-1.67,1.77-3.81,1.06-5.78,1.13-1.27.05-2.52-.29-3.58,1-.64.74-3.55.06-4.42-.82a14.81,14.81,0,0,1-2.68-2.94,10.45,10.45,0,0,1-1.39-4.33c-.23-4.61,0-9.24-.29-13.85a8.84,8.84,0,0,0-2.63-6.42c-.43-.38-1.64-.62-1.9-.35-1.76,1.83-2.94.26-4.24-.57-1.84-1.18-3.69-2.37-5.48-3.63a33.59,33.59,0,0,1-5.91-5c-2.37-2.65-5.08-5-7.34-7.74-2.44-2.95-4.52-6.2-6.82-9.26-.86-1.16-2-2.1-2.85-3.28-1.26-1.77-2.37-3.66-3.49-5.52-.93-1.55-1.8-3.13-2.68-4.7-.76-1.33-1.47-2.69-2.26-4-1.51-2.51-3.07-5-4.57-7.51-.57-1-1-2-1.51-3-1-2-1.84-4.14-2.94-6.11-1.87-3.34-4-6.55-5.8-9.9-1.15-2.09-1.93-4.37-3-6.51-.82-1.62-1.79-3.17-2.76-4.71-1.12-1.77-2.38-3.46-3.49-5.24s-2-3.52-3-5.31c-.76-1.4-1.41-2.86-2.14-4.28a22.44,22.44,0,0,0-1.35-2.4,37.45,37.45,0,0,1-3.2-4.66,21.3,21.3,0,0,0-2.78-4.39c-1.49-1.85-2.86-3.82-4.36-5.68s-3.28-4-5-5.91c-1.43-1.57-3-3-4.46-4.55s-2.84-3.66-4.42-5.34c-2.27-2.42-4.71-4.69-7-7.05-1.42-1.43-2.77-2.92-4.17-4.37-1.06-1.11-2.14-2.2-3.22-3.29-.12-.12-.38-.18-.41-.31-.65-2.83-3.22-4.11-4.89-6.11a8.16,8.16,0,0,1-1.46-2.36c-.53-1.5-1.72-1.33-2.88-1.45-3.75-.39-7.5-.74-11.24-1.27-1.71-.24-3.35-.9-5.05-1.26-1.41-.29-2.24.26-2.8,1.74a25.38,25.38,0,0,1-2.65,4.7c-1.57,2.39-3.13,4.81-4.91,7a24.39,24.39,0,0,1-4.47,4.38,12,12,0,0,1-6.29,2.83c-1.52.13-2.9,1.5-4.41,2.13s-3.27,1.11-5,1.69c0,1.67,0,3.28,0,4.88-.07,4.8-.06,9.6-.28,14.38q-.39,8.33-1.14,16.63a43.57,43.57,0,0,1-1.53,9.77c-.82,2.48-.33,5-1,7.3-1,3.21-.4,6.63-1.39,9.63s-.51,6.13-1.09,9.11c-.49,2.5-1.38,4.93-2.08,7.39a6.23,6.23,0,0,0-.25,1.41c-.06,1.44,0,2.88-.14,4.31-.43,4-.58,8.07-1.58,11.92-.52,2-.3,4.21-1.1,6-1.37,3-.91,6.16-1.31,9.24a23.61,23.61,0,0,1-1.25,5.1c-.22.59-1.2.9-2.21,1.59,0,.19-.07.87-.13,1.68,2.74,1,5.44,1.84,8,3,3.13,1.37,6.06,3.24,9.25,4.43s4.86,3.67,6.48,6.32a6.15,6.15,0,0,1-.78,6.38,1.47,1.47,0,0,1-.54.41,34.88,34.88,0,0,1-13.89,1c-1.79-.23-3.48-1.26-5.21-1.92a2,2,0,0,0-.51-.17c-3-.47-5.92-1-8.89-1.38-4-.54-8-.76-11.93-1.64-1.75-.4-3.65-1.32-5.13-.56-2.37,1.23-4.75.73-7.11.94a48.94,48.94,0,0,1-6.29-.07c-2.85-.13-4.1-1.11-4.18-4-.1-3.94.17-7.89.35-11.84,0-.46.42-.91.67-1.4-2.2-1.3-4.61-2.33-5-5.38-1.32-.16-2.59-.48-3.8.66-.42.39-1.37.27-2.07.28-3.78.06-7.57-.09-11.33.16-2.92.19-5.8,1-8.72,1.26a25.64,25.64,0,0,1-5-.09c-1.8-.17-4.32-2.77-3.94-4.42a11.36,11.36,0,0,1,2.36-4.33,25.88,25.88,0,0,1,3.7-3.29,3.43,3.43,0,0,1,1.07-.6c2.7-1,5.45-1.8,8.12-2.86a72.15,72.15,0,0,0,8-3.65,5.06,5.06,0,0,0,2.84-4c.54-4.64,1.06-9.32,1.8-13.88.66-4.07.25-8.22,1.25-12.14,1.1-4.37.08-8.91,1.21-13.09,1-3.53.34-7.13,1.28-10.48,1.5-5.38.2-10.86,1.09-16.16,1.49-8.79.53-17.66,1.46-26.42.56-5.23.78-10.45,1.1-15.67.08-1.32.92-2.58,1-3.9a49.66,49.66,0,0,0,0-5.59l-.6-.08c-.16.22-.41.42-.46.66-.49,2.34-.86,4.72-1.45,7.05-.63,2.5-1.45,4.95-2.19,7.43a3.59,3.59,0,0,0-.08.35c-.51,2.6-.91,5.23-1.55,7.8-.59,2.32-1.46,4.57-2.17,6.86a10.07,10.07,0,0,0-.24,1.57c-.23,1.66.36,3.53-1.23,4.86-.13.12,0,.46-.09.7a43.08,43.08,0,0,1-1.46,6.95c-1,2.69-1.58,5.53-2.59,8.15a82.71,82.71,0,0,0-2.55,8.73c-.65,2.43-.84,4.85-1.26,7.27a57,57,0,0,1-2.1,6.86,3.47,3.47,0,0,0-.19,1.05c0,2.6-1.1,4.79-2.32,7a15.62,15.62,0,0,0-1.18,3.21c-.58,1.95-1,3.94-1.62,5.88-.66,2.14-1.41,4.24-2.13,6.36,0,.16-.19.29-.24.46-.44,1.48-.93,3-1.31,4.45-.51,2-.84,4.14-1.45,6.15s-1.47,3.83-2.21,5.75a4,4,0,0,0-.12.52,66.44,66.44,0,0,1-1.65,6.75c-.93,2.67-2.21,5.21-3.32,7.82-.14.32-.06.72-.18,1.05-.76,2.07-1.56,4.13-2.32,6.2-.55,1.51-1,3.05-1.6,4.55s-1.33,3.15-2,4.71a4,4,0,0,0-.45.93,6.84,6.84,0,0,1-1.2,3.12c-1.28,1.87-1.91,4.18-2.85,6.28-1.09,2.42-2.24,4.81-3.32,7.24-.54,1.19-1,2.43-1.51,3.61a10.22,10.22,0,0,1-1.11,1.81c-1.06,1.45.06,3.53,2.06,4.67a54.08,54.08,0,0,1,6.38,4.51,14.51,14.51,0,0,1,3,3.15c1.25,1.86,2.77,3.47,3.75,5.61a16.71,16.71,0,0,1,1.14,6.32,6.15,6.15,0,0,1-2.91,5.51,2.82,2.82,0,0,1-3.74-.25c-.95-.93-2.38-.67-3.5,0a3.22,3.22,0,0,1-2.76.08,4.72,4.72,0,0,0-4.9-.12,2.71,2.71,0,0,1-1.4.55c-2.5.09-5,.18-7.52.09-.85,0-1.66-.76-2.53-.87a15.88,15.88,0,0,0-3.71,0c-.85.09-2,1-2.41.66-1.4-1.08-3.33-.85-4.43-3.11a23,23,0,0,0-6.53-8,64.86,64.86,0,0,1-7.82-7c-1.38-1.46-2.11-3.52-3.14-5.3A42.94,42.94,0,0,1,.21,522.1c-.47-1.23,0-2.82.12-4.24,0-.44.54-.82.61-1.26.49-3.13.79-6.3,1.43-9.4.56-2.69,1.49-5.31,2.25-7.95,0-.12.07-.23.09-.35.49-3.27.92-6.55,1.48-9.82.68-4,1.48-7.93,2.18-11.9a20.57,20.57,0,0,0,.27-3A41,41,0,0,1,10.9,463a3.33,3.33,0,0,0,.16-.51c.5-3.93.79-7.89,1.56-11.76.52-2.63,1-5.23,1.36-7.9.21-1.7,1.53-3.24,2.14-4.92s.91-3.67,1.57-5.43c.57-1.56,1.47-3,2.19-4.49.44-.91.84-1.83,1.24-2.76.93-2.18,1.78-4.42,2.81-6.56s2.23-4.16,3.34-6.24a2.56,2.56,0,0,0,.38-1,12.78,12.78,0,0,1,3.43-7.53.94.94,0,0,0,.17-.31c.54-2.12,1.1-4.24,1.6-6.37.78-3.33,1.53-6.65,2.27-10a5.2,5.2,0,0,0,.09-1.42c-.28-4.36-.7-8.72-.83-13.08-.24-8-.29-15.94-.48-23.91,0-.75-.59-1.47-.7-2.23a11.36,11.36,0,0,1,0-3,27.85,27.85,0,0,0,.7-2.87q.06-7.18-.09-14.38a2.27,2.27,0,0,0-2.21-2.26c-3.64-.51-5.21-2.2-5.24-5.87a92.23,92.23,0,0,1,.22-10.78c.3-2.73,1.4-5.36,2-8.06.28-1.21.19-2.5.4-3.74.3-1.71.75-3.4,1.06-5.12a17,17,0,0,0,.19-2.68c.06-6.72,0-13.43.17-20.15a23,23,0,0,1,.91-5c.4-1.65-.61-2.57-1.56-3.58s-1.91-1.51-2.17-3c-.18-1.08-1.06-2-1.52-3.08a9.28,9.28,0,0,1-.78-2.55c-.26-2,.51-4.2-1.18-5.94-.2-.21-.13-.69-.14-1-.07-3.41-.18-6.82-.17-10.22,0-1.3-.19-2.59,1.08-3.76.6-.55.38-2.16.3-3.28a6.5,6.5,0,0,1,1.94-5.53,3.06,3.06,0,0,0,.59-2c.06-1.56,0-3.12-.07-4.68a21,21,0,0,1,2.48-9.55,2,2,0,0,0,.14-.88c0-7.43.75-15-.36-22.25-.95-6.2-.61-12.24-.55-18.34a60.3,60.3,0,0,1,1.21-13.31c.76-3.18.55-6.35,1.13-9.46.48-2.58,1.34-5.1,2-7.64.09-.35.09-.72.16-1.07.5-2.57.87-5.18,1.59-7.69.36-1.27,1.42-2.34,2.05-3.55a35.22,35.22,0,0,0,1.39-3.35,70.74,70.74,0,0,1,2.91-7.33c1.75-3.31,3.82-6.46,5.82-9.63,1.43-2.28,2.9-4.53,4.48-6.7a30.34,30.34,0,0,1,2.82-3c1.91-2,3.9-3.9,5.72-6a83,83,0,0,0,5.91-7.24c.94-1.34,1.27-3.11,1.86-4.68.66-1.73,1.39-3.42,1.92-5.19a6.58,6.58,0,0,0,0-2.5c0-.36-.48-.68-.52-1a18.78,18.78,0,0,0-2.63-8.17,1,1,0,0,1-.07-.35A114.92,114.92,0,0,1,66,30.75c.16-1.84,1.35-3.6,2.06-5.4a1.45,1.45,0,0,0,.21-.66c-.31-2.54,1.9-3.77,2.93-5.6.58-1.05,1.7-1.85,2.09-2.93C74.44,13.05,76.81,11,79.16,9a96.77,96.77,0,0,1,8.08-6A8.6,8.6,0,0,1,90.61,1.6c2.71-.46,5.25-2.17,8.12-1.4,2.25.6,4.43,1.48,6.66,2.2,3.19,1.05,5.59,3.37,8.16,5.32a43,43,0,0,1,5.67,5.85,53.49,53.49,0,0,1,3.54,4.53,8,8,0,0,1,1.37,2.65c.72,2.92,2.33,5.46,3,8.47a69.93,69.93,0,0,1,1.1,9.7,11.53,11.53,0,0,0,.52,1.84,2.83,2.83,0,0,1,.18,1c-.22,2.21-.81,4.45-.64,6.62.14,1.69,1.19,3.3,1.85,4.94.37.9.86,1.76,1.14,2.68.63,2.15,1.74,4.37,1.59,6.49a5.5,5.5,0,0,1-3.8,5c-3.14,1-3.32,1.58-3.65,4.81-.13,1.27-1.18,2.44-1.8,3.66-.23.44-.64.92-.6,1.35a4.93,4.93,0,0,1-1.43,4.2,4.53,4.53,0,0,0-1.19,3.32c-.06,1.5-1.22,2.38-2.6,3.07-3.47,1.73-7.17.6-10.75.94a3.6,3.6,0,0,0-2.83,1.9c-.87,1.33.81,2,1.41,2.92a23.59,23.59,0,0,0,3.64,4.74C110.61,99.6,111.14,102.12,113.76,101.53Zm-15.17,237c.17.89.39,1.71.48,2.55a21.07,21.07,0,0,0,.21,3.2c.6,2.27,1.52,4.44,2.09,6.71.62,2.42,1,4.91,1.46,7.36a1.2,1.2,0,0,0,.13.33,23.16,23.16,0,0,1,2.34,9.05,2.65,2.65,0,0,0,.25,1.22c1.64,2.93,1.7,6.39,3.26,9.41a15.56,15.56,0,0,1,1.33,6.66c.19,11.8,1.19,23.62-.93,35.36a36,36,0,0,1-1.16,6.06c-.93,2.65-.23,5.66-1.34,8.49-.81,2.05-.36,4.42-1.22,6.72-1.08,2.9-1.07,6.22-1.39,9.38-.24,2.32-.13,4.67-.37,7s-.76,4.78-1.12,7.17c-.29,1.94-.11,3.85-.83,5.86-.93,2.58-.63,5.51-1.42,8.31s-.41,6-.13,8.93a5.22,5.22,0,0,0,2.06,3.38c1.92,1.3,4.26,1.48,6.62,1.45,9.3-.15,18.61.37,27.86-1.05,1.24-.2,2.53-.13,3.75-.38a2.25,2.25,0,0,0,1.41-1.12,19.71,19.71,0,0,0,1.28-4.33c.39-2.67.41-5.32,1.19-8,1.12-3.85,1.12-8,1.6-12.06a3.24,3.24,0,0,1,.21-1.23c1.31-2.14.82-4.51,1-6.81a23.23,23.23,0,0,1,.37-3.74c.64-2.82,1.55-5.58,2.1-8.42.46-2.34.14-4.72,1-7.14,1-3,1.09-6.36,1.54-9.56.38-2.78.11-5.54,1-8.38,1.06-3.3.71-7,1.39-10.49,1.08-5.68-.07-11.58,1.23-17.39.74-3.32.36-6.92.3-10.4A47.47,47.47,0,0,0,155,371.84c-.87-3.56.29-7.39-1.17-11.06-.9-2.27-.63-4.91-1.23-7.4-.72-3-.7-6.24-1.47-9.34-.68-2.77-1-5.62-1.51-8.43a4.53,4.53,0,0,0-.34-.83c-.7-1.88-1.41-3.75-2.08-5.64-.56-1.58-1-3.19-1.62-4.77a60.83,60.83,0,0,1-2.12-5.83c-.47-1.93-1.24-2.38-2.93-1.26-2.28,1.51-4.6,3-6.93,4.41a28.79,28.79,0,0,1-2.9,1.55c-1.58.74-3.19,1.41-4.77,2.15s-3.81.82-4.25,3.21c0,.24-.32.45-.52.64a4.77,4.77,0,0,1-5.74.43,18.23,18.23,0,0,0-4-1.64,4.13,4.13,0,0,0-2,.44c-.37.13-.67.52-1,.6a47.76,47.76,0,0,1-6.56,1.18,88,88,0,0,1-10.77,0c-1.21-.08-3-.94-3.38-1.88A37.38,37.38,0,0,1,86.17,321c-.21-1.36,0-2.79-.34-4.11-.59-2.45-1.54-4.82-2.14-7.28s-1-4.9-1.41-7.36a1.82,1.82,0,0,0-.14-.52c-.93-1.79-1.88-3.58-2.89-5.5a8.6,8.6,0,0,0-1.43,0c-2.2.34-4.41.68-6.59,1.12a1.87,1.87,0,0,0-1.26.86c-1,2.26-1.89,4.56-2.74,6.88-.58,1.58-.66,3.47-1.61,4.76-1.93,2.63-1,5.77-2,8.6-1.16,3.34-1.14,7.08-1.66,10.77-2-.1-3.7.35-5.52-1-1.4-1.06-3.64-1.17-5.54-1.35-3.16-.3-6.34-.3-9.52-.46a10.54,10.54,0,0,1-1.91-.36c-.8-.19-1.6-.44-2.49-.68a12.7,12.7,0,0,0-.42,2.09c-.06,6.29-.23,12.59,0,18.88.11,3.78,1,7.54,1.13,11.32.2,9.53.13,19.06.15,28.6a8.86,8.86,0,0,1-.16,1.78c-.74,3.43-1.47,6.86-2.28,10.27-.44,1.86-1,3.71-1.58,5.53a17.21,17.21,0,0,1-1.35,2.72,38.78,38.78,0,0,0-2,3.6c-.66,1.59-1,3.31-1.61,4.93a22.68,22.68,0,0,1-1.41,2.89c-.67,1.25-1.42,2.46-2.1,3.71s-1.47,2.77-2.14,4.2-1.21,2.64-1.7,4c-.64,1.79-1,3.69-1.78,5.43-.85,2-2,3.82-2.13,6a7.67,7.67,0,0,1-.28,1.22c-.72,3-1.6,6-2.12,9.09-.64,3.84-1,7.72-1.49,11.58a3,3,0,0,1-.11.52c-.74,2.94-1.71,5.83-2.19,8.81-.7,4.43-1.05,8.91-1.56,13.38,0,.23-.11.46-.16.69-.31,1.22-.68,2.44-.9,3.68-.52,2.89-1,5.79-1.44,8.69,0,.06,0,.14,0,.17C5.43,501,5.86,503.61,5,505.81,4,508.69,3.93,512,3.44,515a2.11,2.11,0,0,1-.25.85c-1.43,2-.75,4.1-.83,6.23,1.31.13,2.46.13,2.74,1.63a1.45,1.45,0,0,0,1,.85A81.34,81.34,0,0,0,14.72,526a68.75,68.75,0,0,0,9.52.07A35.86,35.86,0,0,0,30,524.87c2-.46,4-1,6-1.44.15,0,.26-.24.41-.32,1.4-.68,2.81-1.34,4.19-2.05.8-.42,1.92-.75,2.26-1.43,1.48-3,2.74-6.11,4.06-9.19.57-1.35,1-2.75,1.65-4.07,1.09-2.33,2.28-4.6,3.38-6.92.57-1.2,1-2.47,1.56-3.68.67-1.48,1.5-2.89,2.1-4.4.69-1.74,1.19-3.56,1.82-5.32.69-1.91,1.43-3.8,2.15-5.7.12-.33.27-.64.41-1a47.56,47.56,0,0,0,1.94-4.68c.66-2.18,1.09-4.43,1.63-6.64a2.3,2.3,0,0,1,.15-.32c.71-1.88,1.53-3.74,2.08-5.67.63-2.16,1-4.4,1.5-6.61,0-.11.07-.22.1-.34.8-2.49,1.59-5,2.38-7.46.11-.34.18-.7.3-1,.69-1.91,1.45-3.8,2.06-5.74s1-3.77,1.52-5.65a.86.86,0,0,1,.15-.32,11.15,11.15,0,0,0,2.31-6.78,5.39,5.39,0,0,1,.27-1.57c.73-3,1.53-6,2.19-9,.59-2.64,1-5.32,1.55-8a25.52,25.52,0,0,1,1.17-3.82c.67-1.73,1.61-3.38,2.16-5.14.69-2.22,1.1-4.53,1.63-6.8.06-.23.11-.46.18-.69.73-2.4,1.59-4.77,2.15-7.21.64-2.84,1-5.74,1.5-8.61,0-.24.14-.46.2-.69.71-2.47,1.54-4.92,2.1-7.42.62-2.75,1-5.56,1.48-8.34a1.84,1.84,0,0,1,.19-.51,19.19,19.19,0,0,0,2.22-8c0-1.68-.47-3.67.27-4.95,1.06-1.85.84-3.65,1-5.48C96.39,340.53,96.37,339.13,98.59,338.48ZM207.45,191.9c-1,4-2.21,7.79-2.86,11.66a43.53,43.53,0,0,1-2.47,8,30.7,30.7,0,0,1-4,7.4c-2.58,3.59-6,6.07-9.57,8.54-1.46,1-3,1.86-4.49,2.91-2,1.44-3.8,3.15-5.86,4.47-1.88,1.21-4.07,1.87-5.61,3.68a12.25,12.25,0,0,1-2.63,1.74c-1.67,1.13-3.36,2.23-5,3.43-1.11.82-2,1.87-3.16,2.68-1.44,1-3.18,1.74-4.43,3-2.47,2.41-4.69,5.08-7,7.63-.7.76-.9,1.39,0,2.21,1.19,1.05,2.25,2.25,3.36,3.4,1.35,1.39,2.5,3.1,4.08,4.11,2.22,1.42,4.09,3.29,6.7,4.26s5.08,2.25,7.95,2.3a3.81,3.81,0,0,1,1.06.14c2.68.74,5.31,1.85,8,2.17,5.31.63,10.72,0,16,1.35,3.18.82,6.53.94,9.81,1.37a1.08,1.08,0,0,1,.52.13c1.21.93,2,0,2.87-.64a21.94,21.94,0,0,0,4.74-4.54,33,33,0,0,1,2.81-3.33c1.32-1.43,2.66-2.85,4.05-4.2,1.94-1.89,4.12-3.55,5.86-5.59,2.9-3.4,5.47-7.07,8.29-10.54,1.34-1.63,3-3,4.38-4.6a6.08,6.08,0,0,0,1.52-2.65c.54-3.12-.62-6.09-1.64-8.89-1.14-3.16-3.19-6-4.56-9.07a26,26,0,0,0-3.91-6c-2.11-2.54-4.43-4.92-6.47-7.51a18.35,18.35,0,0,1-3.92-7.77,6,6,0,0,0-.26-.82c-.71-2.06-1.44-4.11-2.15-6.16-.55-1.63-1-3.27-1.63-4.88a19.8,19.8,0,0,0-1.19-2.76,36.08,36.08,0,0,0-2.27-3.71c-1-1.46-2.2-2.82-3.31-4.23-1.84-2.34-3.78-4.61-5.49-7-1.16-1.66-1.8-3.69-3-5.28a56.21,56.21,0,0,0-5.17-5.42c-1.87-1.84-4-3.43-5.66-5.46-2.24-2.82-5.5-4.83-6.78-8.43,0,0-.11-.05-.14-.09-1.55-2-3.15-3.85-4.63-5.84a14.42,14.42,0,0,0-4.66-4.37c-1.3-.71-2.55-1.5-3.61-2.13l-2.77,1.07c-1.19,2.08-2.37,4-3.38,6a28.64,28.64,0,0,0-2.07,4.92c-.68,2.33-1.09,4.74-1.66,7.11-.06.25-.4.43-.51.69s-.38.83-.25,1.11a1.14,1.14,0,0,0,1,.39,28.78,28.78,0,0,0,3.13-.93c1.46-.5,2.87-1.16,4.35-1.54s3.12-.56,4.85-.85c.43.9.74,1.88-.73,2.4a32.09,32.09,0,0,1-3.19.89A9.54,9.54,0,0,0,169,158c-1.26.62-2.44,1.94-3.67,2-3,0-4.86,2.31-7.46,3a10.59,10.59,0,0,0-3.36,2.31c-.9.73-1.58,1.75-2.53,2.39a11.59,11.59,0,0,0-4.91,7.69,8.38,8.38,0,0,1-.46,1,47.76,47.76,0,0,0-1.93,5.24c-.63,2.48-.84,5.07-1.5,7.53a43.06,43.06,0,0,1-2.35,6.21,19.46,19.46,0,0,1-2.4,4.06c-.64.81-1.8,1.17-2.59,1.89-1.89,1.68-3.73,3.43-5.54,5.21-2.72,2.7-6.33,3.53-9.81,4.26-3.72.78-7.72-.36-11.37,1.5-1.52.78-3.23,1.19-4.79,1.9-2.19,1-4.25,2.75-6.5,3-4.19.5-8.58,1.46-12.67-.8a2.16,2.16,0,0,0-1.38-.22,24.2,24.2,0,0,0-5,1.53A35.58,35.58,0,0,0,73,221.45a9.64,9.64,0,0,0-3.14,3.61c-1.17,3.1.63,6,1.45,8.88a24.58,24.58,0,0,0,1.4,3.56c.59,1.29,1.29,2.53,1.94,3.79,1.15,2.2,2.25,4.44,3.49,6.59.84,1.46,2,2.75,2.82,4.2,1.38,2.3,2.56,4.72,4,7,2.29,3.69,5.61,6.4,9.06,8.94a5.7,5.7,0,0,0,3,1.4c1.94-.06,3.86-.83,5.81-1a39,39,0,0,1,6.2.14c1,.08,1.91.88,2.81.79,2.77-.29,5.52-.85,8.27-1.31a.75.75,0,0,0,.32-.13,19.24,19.24,0,0,1,8.08-3.79,10.59,10.59,0,0,0,3.56-1.54,21.54,21.54,0,0,1,9.4-3.34,10.75,10.75,0,0,0,6.87-3.62c1.17-1.17,2.13-2.56,3.32-3.7,1.74-1.64,3.57-3.19,5.41-4.71,2.38-2,4.77-3.89,7.22-5.75,1.44-1.08,3-1.95,4.51-3,2-1.42,3.83-3,5.81-4.38,1.79-1.28,3.69-2.4,5.51-3.64,2-1.35,3.92-2.76,5.89-4.14,2.66-1.87,5.47-3.57,7.94-5.67a12.49,12.49,0,0,0,4.21-6.31,7.15,7.15,0,0,1,1.35-3c1.51-1.61,1.41-3.79,2.15-5.64,1-2.42,1-5.22,1.49-7.86,0-.11,0-.26.06-.35,2-2.62.85-5.95,2-8.83.54-1.34.82-2.08,2.28-1.89.58.07,1.15.16,1.62.23L211,194.8a1.28,1.28,0,0,0,.08.35c1.61,2.28.85,4.85.78,7.29a2.16,2.16,0,0,1-2.49,2.12C209.51,200.17,210,195.92,207.45,191.9Zm41.87,90.49a3.23,3.23,0,0,0-.32.67c-.5,2.42-1,4.83-1.46,7.25-.09.47-.15.94-.28,1.4-.74,2.61-1.45,5.23-2.26,7.82-.44,1.42-1,2.81-1.59,4.19a9.92,9.92,0,0,1-1.21,2.36,5.66,5.66,0,0,0-.71,4.94,10.54,10.54,0,0,1,1,3.34,72.94,72.94,0,0,1,0,7.54,9.32,9.32,0,0,1-.85,2.4c-.31.91-.93,1.67.47,2.51,2.15,1.28,4,3,6.06,4.46a2,2,0,0,1,.45,2.88c-1,1.94-2.63,3.61-3.36,5.62-1.07,3-3.48,4.73-5.48,6.86-.83.87-2.93.33-3.71-.69a14.2,14.2,0,0,0-2.21-2.54c-2.48-2-5.19-3.76-7.54-5.9a3,3,0,0,0-3.85-.39c-2.55,1.7-5.19.93-7.7.62s-4.72-1.42-7.08-2.14c-1.77-.55-3.57-1-5.33-1.57-1.07-.36-2.06-.92-3.1-1.38q-2.47-1.11-5-2.18a10.05,10.05,0,0,0-2.56-.95c-1.94-.23-3.34-2-5.52-1.68a39.44,39.44,0,0,1-5.75,0,3.64,3.64,0,0,1-1.24-.09c-1.7-.67-3.12,0-4.45.92s-2.58,2.13-4,3c-2.12,1.3-4.36,2.42-6.63,3.66A25.27,25.27,0,0,1,153.3,323h-5a17.7,17.7,0,0,0,.57,3c.55,1.41,1.52,2.68,1.91,4.12.69,2.52,2,4.92,1.62,7.68a2.68,2.68,0,0,0,.25,1c.7,2.35,1.57,4.67,2.06,7.07s.25,4.59,1,6.95c1.05,3.38,1.21,7.06,1.56,10.62.23,2.32.05,4.68.21,7a2.31,2.31,0,0,0,1,1.68c.45.22,1.23-.18,1.85-.37s.95-.47,1.44-.62c1.7-.54,3.41-1,5.1-1.56a13.31,13.31,0,0,0,3.14-1.19,31.27,31.27,0,0,0,4.73-3.5,28.8,28.8,0,0,0,4-4.64c1.18-1.72,2-3.72,3-5.52s2.18-3.26,3.2-4.93c.19-.31.12-1.18-.05-1.25-1.43-.6-.8-1.62-.7-3.13l6,1.81c2.42.74,4.79,1.95,7.26,2.17,4.16.38,8.38.12,12.57.19a2.17,2.17,0,0,1,1.65.7c.19.36-.43,1.1-.46,1.68a4.24,4.24,0,0,0,.27,2.47c1.28,1.71,2.93,3.15,4.22,4.87a50.93,50.93,0,0,0,6,6.76c2.44,2.26,4.51,4.91,6.84,7.3,1.47,1.52,3.14,2.83,4.67,4.29,1,.94,2.25,1.84,2.64,3,.68,2.06,2.39,3.06,3.63,4.52s2.8,3.05,4.15,4.62c1.48,1.72,2.77,3.63,4.37,5.23a31.37,31.37,0,0,1,4.71,7c.88,1.56,2.31,2.72,2.82,4.6.34,1.28,1.41,2.35,2.06,3.57s1.07,2.56,1.77,3.74c1.51,2.52,3.14,5,4.72,7.46q1.38,2.14,2.73,4.3a41.36,41.36,0,0,1,2.18,3.59c.58,1.17.9,2.47,1.44,3.66.22.48.84.77,1.09,1.25,1,1.87,1.87,3.81,2.91,5.66s2.39,3.68,3.38,5.62c1.09,2.13,1.89,4.41,2.88,6.59a26.43,26.43,0,0,0,1.5,2.7c1.55,2.57,3.16,5.12,4.65,7.73.64,1.13.95,2.45,1.59,3.58,1.12,2,2.31,4,3.58,5.87s2.82,4.06,4.35,6c2.2,2.8,4.48,5.53,6.76,8.25,1.63,1.95,3.31,3.87,5,5.78,1.41,1.59,2.84,3.18,4.31,4.71a25.14,25.14,0,0,0,3,2.7,50.47,50.47,0,0,0,5.07,3.41c1.51.86,2.83,2.24,4.91,1.88a38.63,38.63,0,0,1,4.31-.16,3.84,3.84,0,0,0,1.51-.42,20.44,20.44,0,0,1,3.48-1.9c2.8-.79,4.75-2.76,6.85-4.52,2.3-1.93,4.53-3.94,6.85-5.83.78-.63,1.81-.94,2.62-1.54s1.3-1.39,2-2c1.52-1.18,3.11-2.26,5-3.61-.85-1.68-1.85-3.59-2.8-5.54-.76-1.55-2-3.1-2.07-4.7-.15-3-2-5.15-2.94-7.74a49.36,49.36,0,0,0-3.6-6.91c-.34-.63-1-1.2-1.06-1.85-.36-2.82-2.41-4.66-3.79-6.88-.76-1.21-1.9-2.2-2.67-3.41-1.07-1.66-1.94-3.46-2.92-5.18-1.11-1.94-2.38-3.8-3.35-5.8-1.44-3-2.51-6.12-4-9-1.29-2.44-3.06-4.62-4.54-7-1.06-1.69-2-3.46-3-5.21a24.06,24.06,0,0,0-1.84-3.4c-1.62-2.06-3.78-3.63-5-6.14a42.64,42.64,0,0,0-3.61-5.29,25.64,25.64,0,0,0-1.7-2.66c-1.87-2.07-3.86-4-5.77-6.05-1.18-1.26-2-2.92-3.1-4.09a42.41,42.41,0,0,1-5.82-7.76c-.95-1.64-1.95-3.25-2.91-4.87-1.16-2-2.38-3.88-3.42-5.89-.68-1.33-1.06-2.82-1.61-4.22-.71-1.79-1.53-3.55-2.18-5.36-.59-1.62-1-3.3-1.48-4.95-.76-2.67-1.53-5.33-2.25-8-.55-2-1-4.05-1.56-6.07-.76-2.9-1.58-5.78-2.31-8.68-.58-2.31-.94-4.69-1.64-7-1-3.21-2.5-6.29-3.25-9.54a89.59,89.59,0,0,1-1.47-10.87c-.14-1.36.2-2.76.1-4.13a3.14,3.14,0,0,0-.92-2c-1.56-1.34-3.26-2.55-4.92-3.77-1.37-1-2.85-1.86-4.13-3-1.61-1.4-3-3.09-4.61-4.45C253.85,285.64,251.6,284.09,249.32,282.39ZM89.84,131.1a9.47,9.47,0,0,0,.43,2.08c.65,1.34,1.68,2.54,2.07,3.93.61,2.2.74,4.52,1.2,6.76.84,4-1.34,7.78-1.17,11.76,0,.15-.16.3-.23.46a44.28,44.28,0,0,0-2,5.23c-.69,2.73-1.09,5.53-1.61,8.3a1.36,1.36,0,0,1-.07.35,26.43,26.43,0,0,0-2.26,9.62c-.19,9.83-.2,19.67-.29,29.5a4.1,4.1,0,0,1-.22,1.57A3.18,3.18,0,0,0,88,214.85c1.68.27,3.34.61,5,.89a2.35,2.35,0,0,0,.84-.16c.85-.21,1.69-.49,2.55-.63,1.37-.23,2.81,0,3.93-1.27a7,7,0,0,1,2.58-1.35c1.43-.61,2.86-1.21,4.33-1.71,2.26-.78,4.53-1.58,6.85-2.13,1.26-.3,2.65,0,3.94-.15a69.49,69.49,0,0,0,7-1.32,7.82,7.82,0,0,0,3-1.58c1.68-1.41,3.21-3,4.81-4.51,2-1.86,4-3.67,5.89-5.58.62-.61,1.24-1.43,0-2.17-.23-.13-.26-.61-.42-.9-.76-1.39-1.52-2.79-2.32-4.17s-1.89-3-2.66-4.53a41.46,41.46,0,0,1-1.54-4.12c-.77-2.13-1.61-4.24-2.32-6.39-.58-1.8-1-3.64-1.51-5.46a2.75,2.75,0,0,0-.34-.63c-1-1.67-2.12-3.32-3.1-5-1.39-2.45-2.69-5-4.07-7.42-.29-.53-.83-.93-1.1-1.47a38.32,38.32,0,0,1-1.76-3.93c-.78-2.07-1.53-4.16-2.16-6.29-.55-1.81-.81-3.72-1.39-5.52-.65-2-1.75-3.91-2.2-6-.55-2.45-.45-5-1.11-7.5a23.79,23.79,0,0,1-.18-8.75c.34-2.63,1.14-5.18,1.28-7.9.1-2.07-.87-3.12-2.14-4.3a12.41,12.41,0,0,1-2.9-3.13c-1.7-3.45-4.62-5.76-7.25-8.34-1.32-1.3-3-2.29-4.4-3.47-1.66-1.36-3.29-2.78-4.92-4.2-1.81-1.58-3.54-3.24-5.4-4.76-1.71-1.4-3.5-2.7-5.33-3.93-1.49-1-3.08-1.86-4.64-2.76-.7-.41-1.84-1.28-2-1.1A9.14,9.14,0,0,0,71,73.79c-1.09,2-2,4.17-3.24,6a57.79,57.79,0,0,1-4.12,4.63c-2.35,2.74-4.62,5.56-7,8.28s-5,5.23-7.16,8.06a39.73,39.73,0,0,0-3.89,6.54A57.92,57.92,0,0,0,42,115.27c-1.2,3.56-3.47,6.63-4.3,10.35-.57,2.58-1.64,5.06-2.2,7.65-.46,2.08-.39,4.19-1.09,6.33-1,3.19-1.14,6.69-1.52,10.08-.42,3.82-.29,7.63-.87,11.5A65.54,65.54,0,0,0,32,178c.29,2.59.62,5.23.86,7.86a1.6,1.6,0,0,0,.18.84,9.48,9.48,0,0,1,2.37,7,4.58,4.58,0,0,0,.18,1.42c.73,3,1.56,5.93,2.21,8.92s1.05,5.87,1.57,8.8c0,.12.06.23.09.35.74,2.6,1.43,5.22,2.25,7.8.26.83.67,2,1.33,2.25a16.5,16.5,0,0,0,5.43,1.54,13.77,13.77,0,0,0,6.72-.76c2-.85,4.48-.27,6.73-.53s4.66-.82,7-1.25a.32.32,0,0,0,.17-.06,15.78,15.78,0,0,1,5.37-4.06c2.35-1,4-3.34,6.88-3.51a1.37,1.37,0,0,0,.91-.9,59.74,59.74,0,0,0,1.19-8.35c.15-6.71,0-13.43,0-20.14A50.37,50.37,0,0,1,85,171.12a4.82,4.82,0,0,1,.11-.52c.76-2.42,1.63-4.81,2.28-7.26s1-4.85,1.57-7.28a2.3,2.3,0,0,1,.1-.35c1-3,2.12-6.05,1.93-9.29a28.64,28.64,0,0,0-1-4.23q-.78-3.49-1.54-7a.61.61,0,0,0-.16-.31c-1.46-1-.8-2.4-.66-3.79Zm-61,180.5c0,1.89,0,3.26,0,4.64A7.6,7.6,0,0,0,29,318a6.56,6.56,0,0,0,.79,2.1c1.51,2.15,4.2,2.17,6.29,2.59,4.61.93,9.4.94,14.1,1.47,2.13.24,4.22.82,6.32,1.26.16,0,.28.21.44.25.89.24,1.89.81,2.65.58.53-.15.94-1.37,1.05-2.16.56-3.91,1-7.83,1.49-11.75a2.67,2.67,0,0,1,.16-.69c.78-1.95,1.54-3.91,2.36-5.84.68-1.6,1.45-3.17,2.14-4.77A37.63,37.63,0,0,0,68.31,297a2.16,2.16,0,0,0-.32-1.69c-.9-1.21-2-2.24-2.94-3.46-1.09-1.47-2-3-3-4.59-.73-1.21-1.32-2.52-2-3.73-.93-1.56-2.07-3-2.89-4.62a35,35,0,0,1-1.59-4.37,24.79,24.79,0,0,0-1.34-3.74c-1-1.94-2.54-3.66-3.45-5.65a69.57,69.57,0,0,1-2.81-7.88c-.56-1.76-2.22-2.47-3.64-1.55-1.88,1.22-3.85,2.29-5.79,3.4a12.35,12.35,0,0,1-2.55,1.32c-2.52.76-3,1.31-3.06,4-.05,7.25-.06,14.51-.1,21.76,0,1,.29,2.28-.19,3-1.29,2-.87,4.14-1.1,6.23a16.89,16.89,0,0,1-.25,2.14c-.67,2.63-1.55,5.21-2,7.87A48.41,48.41,0,0,0,28.79,311.6Zm135.3-171.7c.67-.56,1.25-.81,1.41-1.23.3-.77.77-1.89.45-2.41a12.31,12.31,0,0,1-2.13-7.1,30.9,30.9,0,0,1,.84-5.48c1-4.41-.15-8.84-1.14-13.18a11.89,11.89,0,0,0-1.4-3.51,44.41,44.41,0,0,0-3.33-4.54c-2.4-3-4.81-5.89-7.3-8.77-1.4-1.64-2.87-3.16-5.18-3.7A44,44,0,0,1,141.55,88a3.55,3.55,0,0,0-1.74.17,19.43,19.43,0,0,1-2.53.62c-1.67.13-3.35.09-5,.15a3.54,3.54,0,0,0-1.38.28c-2.4,1.15-4.7,2.53-7.16,3.5a9.83,9.83,0,0,0-5.94,5.41,30.22,30.22,0,0,1-1.29,3.33c-1.41,2.51-1.85,5.27-2.35,8-.4,2.22.53,4.6-1,6.72-.31.43.23,1.49.44,2.24.12.45.53.89.48,1.28-.23,1.75,1,2.72,1.88,3.88a3.31,3.31,0,0,1,.63,1.22c.49,2,3.48,4.67,5.48,4.71,3.83.08,7.66,0,11.49.11a37.61,37.61,0,0,0,9.09-1.21c3-.61,6-1,8.94-1.53.25,0,.46-.31.68-.48,1.87-1.48,6.39-.87,7.37,1.13A66.84,66.84,0,0,1,162.3,134C163,135.83,163.44,137.72,164.09,139.9ZM129.3,64.37a13,13,0,0,0-1.61-9.27c-1-1.83-2-3.63-2-5.76,0-2.76.06-5.51,0-8.27,0-1.49-.93-1.77-2.27-1.22a25.77,25.77,0,0,1-6.59,2,84.58,84.58,0,0,1-9.69.1c-1.52,0-2,.81-1.82,2.15a32.29,32.29,0,0,0,.82,3.66c.84,3.09.35,5.94-3.92,5.61-1.31-.1-2.64,0-4-.08-.55,0-1.4-.29-1.54-.66-.56-1.49-1.88-2.62-1.76-4.47.11-1.61-2.09-2.89-3.48-2.28-2.77,1.24-3.88,6.59-2.08,9.06a9,9,0,0,1,1.59,4c.25,2-1.34,3.16-2.65,4.32-.91.81-8.7.62-9.72,0a23.66,23.66,0,0,0-2.42-1c-.53-.24-1-.6-1.54-.81s-1.32-.35-2-.52a4.17,4.17,0,0,0-.35,1.56c.26,1.36.82,2.68,1,4A2.24,2.24,0,0,0,75,68.75a3.69,3.69,0,0,1,.94.63c.9.66,1.76,1.38,2.7,2,1.56,1,3.39,1.64,4.74,2.85,2.33,2.11,4.75,4.1,7.18,6.1,3.08,2.53,5.76,5.53,9.18,7.73,1,.68,1.75,1.15,2.81.74.6-.23,1-.92,1.61-1.2a32.45,32.45,0,0,0,3.43-1.41,4.84,4.84,0,0,1,5.13-.22c2.36,1.53,4.86.31,5.11-2.5.06-.64,0-1.71.32-1.85,1.33-.58,1.17-1.76,1.17-2.71a5,5,0,0,1,2-4.07c.83-.7,1-2.26,1.34-3.46s.1-2.87.83-3.5C125.09,66.46,127.14,65.6,129.3,64.37Zm-14.78,64-.61.28c.46,1.31,1,2.61,1.36,3.94.55,1.9,1,3.83,1.52,5.73.73,2.49,1.52,5,2.33,7.42a24.41,24.41,0,0,0,1.88,5c1.6,2.6,3.64,4.88,4.8,7.8a38.7,38.7,0,0,0,3.47,6.08c1.28,2.05,1.82,4.43,3.77,6.22,2.41,2.21,6.63,2.65,9,.24a7.13,7.13,0,0,1,3.2-2.12,10.78,10.78,0,0,0,3.26-2c1.79-1.36,3.45-2.9,5.27-4.23,1.58-1.14,4.06-1.41,3.73-4.23a.88.88,0,0,1,.21-.49c1.19-1.72,2.34-3.45,2.21-5.7a2.45,2.45,0,0,1,.23-1c.72-1.83,1.56-3.62,2.17-5.48.88-2.68-.75-5-1.5-7.33-.6-1.9-1.51-3.7-2.27-5.55-.52-1.26-1-2.55-1.57-3.78a1.28,1.28,0,0,0-1-.52c-3.19.37-6.41.67-9.55,1.29-2.52.5-4.92,1.91-7.42,2.05-5.84.34-11.71.19-17.57.15a5.31,5.31,0,0,1-2.39-.85C117.48,130.36,116,129.34,114.52,128.37Zm-12,149.05c0-1.26,1.09-3.45-1.21-4.7a11.41,11.41,0,0,0-3.65-.76c-1-.14-2.17.13-2.94-.33-2.33-1.41-4.51-3.06-6.71-4.67a12.55,12.55,0,0,1-1.19-1.32,23.54,23.54,0,0,1-3-3,52.63,52.63,0,0,1-3.13-5.47c-1.14-2.14-2.31-4.27-3.29-6.48-.7-1.57-1.48-2-3.15-1.28a6.7,6.7,0,0,1-2.33.64c-5.45.16-10.91.13-16.35.41A14.26,14.26,0,0,0,50.6,252a2,2,0,0,0-1.24,2.61,49,49,0,0,1,2.42,6.24c.59,2.51,2.43,4.18,3.5,6.34.63,1.28,1.14,2.63,1.65,4,.57,1.49.93,3.07,1.64,4.48,1,2,2.25,4,3.44,5.94s2.45,3.82,3.65,5.75a46.93,46.93,0,0,0,2.87,4.66c1.18,1.48,2.34,3.36,4.75,2.79a31.33,31.33,0,0,0,4.8-1.46A16.08,16.08,0,0,0,81,291.32c2.57-1.8,5.1-3.65,7.7-5.4,2.08-1.4,4.23-2.68,6.37-4C97.41,280.49,99.78,279.08,102.52,277.42Zm138.53,25.75q.8-2.82,1.59-5.69c.07-.22.07-.47.14-.7.77-2.63,1.63-5.23,2.3-7.89.59-2.32.92-4.7,1.47-7a6.26,6.26,0,0,1,1.07-2.22c.56-.77,1.32-1.28,2.28-.46s2.11,1.85,3.22,2.72c3,2.36,6.11,4.68,9.15,7,2.6,2,5.14,4.09,7.78,6,2.33,1.71,4.78,3.27,7.18,4.89a18.28,18.28,0,0,0,1.83,1.23c1.6.82,3.23,1.58,4.92,2.4.43-.51,1.24-1.06,1.41-1.76a46.71,46.71,0,0,0,1.38-7.56,23,23,0,0,0-.7-6.38c-.73-3.4-3.53-5.08-4.94-7.82-.82-1.59-2.72-2.63-4.16-3.88-4.17-3.61-7.62-8-12.52-10.84-3.08-1.81-5.59-4.58-8.44-6.82-.63-.5-1.59-1-2.28.21a9.16,9.16,0,0,1-1.42,1.8c-1.91,1.88-4,3.57-5.76,5.6-3.2,3.77-6.17,7.72-9.26,11.59-.34.43-.85.73-1.14,1.18-1.38,2.17-2.61,4.45-4.8,6a6.7,6.7,0,0,0-1.44,1.56c-.83,1.08-.16,2.37.9,3.53a64.25,64.25,0,0,1,5.25,6.7,15.69,15.69,0,0,1,2.41,4.48A2.49,2.49,0,0,0,241.05,303.17ZM60.4,247.78v-.14c.9,0,1.8.07,2.69,0,3.37-.32,6.74-.64,10.1-1,1.25-.15,1.53-1.16.89-2.28a39.86,39.86,0,0,1-1.91-3.88,29,29,0,0,0-1.47-3.78,17.12,17.12,0,0,1-2.55-7.31,6.16,6.16,0,0,0-.77-2.34,1.88,1.88,0,0,0-1.42-.91c-3.83.68-7.7-.29-11.63,1.11-4.44,1.59-9-.56-13.59-1.15-.05,0-.1-.05-.16-.07-2.12-.77-4.25-1.52-6.36-2.3a7.8,7.8,0,0,1-1.69-.76,3.72,3.72,0,0,0-4,.38c-1.41,1.11-.54,2.54-.74,3.81-.15,1,.11,2.18-.38,2.89-1.31,1.9-1.43,5.79-.19,7.63a2.78,2.78,0,0,1,0,2.51,3,3,0,0,0,0,4,12,12,0,0,1,1.48,3.33,1.8,1.8,0,0,1-.33,1.46,1.84,1.84,0,0,0,.09,2.89,10.06,10.06,0,0,1,1.71,3.28A4.3,4.3,0,0,0,34.15,258a4.86,4.86,0,0,0,3.12-1.08,75.75,75.75,0,0,1,7.6-4.23c1.76-.95,3.47-2,5.26-2.85a20.71,20.71,0,0,1,4.9-2A28.26,28.26,0,0,1,60.4,247.78ZM354.89,490.36c-.71.5-1.57,1.08-2.4,1.7-2.78,2.11-5.85,3.94-8.23,6.43s-5.38,4.16-8.22,6a5.94,5.94,0,0,1-2.49,1.18c-2.14.15-2.37,1.36-2.09,3,.37,2.25.85,4.49,1.08,6.76a40.22,40.22,0,0,1,0,5c-.1,3.74.22,7.33,2.45,10.57a3.44,3.44,0,0,0,5.19.71,1.87,1.87,0,0,1,3,0,2.21,2.21,0,0,0,1.75.61,33.31,33.31,0,0,0,4-1.75,5.6,5.6,0,0,0,5.77-.14,3.08,3.08,0,0,1,1.94,0c.65.14,1.25.5,1.89.7A17.4,17.4,0,0,0,361,532c1.2.19,2.43,1,3.54-.48s1.54-6.18.71-7.87a28.19,28.19,0,0,1-2-5.43c-.65-2.53-1.06-5.11-1.58-7.66a2.38,2.38,0,0,0-.15-.52c-.68-1.78-1.49-3.51-2-5.33-.65-2.24-1.07-4.54-1.59-6.81a1.89,1.89,0,0,0-.09-.34C356.93,495.3,356,493.09,354.89,490.36ZM101.24,362.3l-.65,0a2.94,2.94,0,0,0-.33.91c-.35,6.21.13,12.46-1.21,18.61a19.31,19.31,0,0,0-.09,3.41c-.24,7,.05,14-1.18,20.9-.92,5.17.34,10.49-1.12,15.75-1.1,4-1.09,8.29-1.58,12.45-.45,3.81,0,7.61-.85,11.5-1.15,5.09-1.15,10.44-1.72,15.68a21.13,21.13,0,0,1-1,4.58c-1,2.83-.18,4.15,2.8,4.19,1.08,0,2.16-.09,3.24-.11a2.34,2.34,0,0,0,2.36-2.36c.59-5.6,1-11.21,1.58-16.81.34-3.39.85-6.75,1.29-10.13a2.19,2.19,0,0,1,.1-.34c.72-3.19,1.57-6.35,2.13-9.56.43-2.49.29-5,1.18-7.51a26.73,26.73,0,0,0,1.3-9.09c-.12-10.68,1.61-21.42-.91-32-.57-2.39-1-4.8-1.57-7.19,0-.11-.14-.2-.17-.31-.72-2.14-1.51-4.25-2.14-6.42C102.14,366.43,101.73,364.35,101.24,362.3ZM39.91,523.84a6.15,6.15,0,0,1-1.38.84c-2.06.55-4.15,1-6.22,1.53-.22,0-.44.14-.67.21-2.22.71-4.43,1.92-6.69,2-3.27.16-6.57.76-9.92-.71-2-.88-4.59-.49-6.92-.54-.29,0-.95.95-.84,1.17a10.49,10.49,0,0,0,1.88,2.9c2.87,2.82,5.93,5.44,8.77,8.29,2.31,2.33,4.39,4.89,6.62,7.32a3.52,3.52,0,0,0,4.45.32c.9-.75,1.51-.57,2.47.06,1.3.86,2.86,2.35,4.43,1.25,2.3-1.63,4.3-.68,6.68-.12a8.47,8.47,0,0,1,2.24-1.59c.87-.28,2.41-.37,2.81.13a2.87,2.87,0,0,0,3.85.6c1.6-.81,2.68.21,3.79.64,1.44.56,2.85.21,2.92-1.41.07-2.07.27-4-.93-6.13A41.53,41.53,0,0,0,53.18,535,14.15,14.15,0,0,0,51,533.18c-1.4-1.16-2.76-2.37-4.2-3.48-.72-.56-1.68-.82-2.35-1.42C42.87,526.85,41.4,525.31,39.91,523.84ZM144.82,261.07a.9.9,0,0,0,0,.43c1.13,2.44,2.28,4.86,3.42,7.29a16.89,16.89,0,0,1,1.36,3.09,7.87,7.87,0,0,0,1.27,3.28c.85,1.13.71,3,1.57,4.14a61.1,61.1,0,0,0,6.76,7.69,58,58,0,0,0,6.95,5c2.65,1.81,5.77,2.31,8.82,2.66,1.48.17,3.08-.89,4.61-.86,3.48.07,6.14-1.9,9-3.3,2.67-1.29,5.09-3.15,7.83-4.24a34.22,34.22,0,0,0,8.13-4,12.38,12.38,0,0,0,1-.93,5.86,5.86,0,0,0-1.53-.62c-1-.12-2.24.27-3-.18-2.41-1.46-5.19-1.1-7.75-1.77s-5.37-.18-8.05-.43c-3.39-.32-6.76-.88-10.13-1.35a5.77,5.77,0,0,1-.84-.32l-6.78-2c-1.95-.57-4.14-.77-5.78-1.82-2.74-1.76-5.51-3.54-7.58-6.27a86.91,86.91,0,0,0-6.35-6.94Zm18.87,252a7.27,7.27,0,0,0-1.08-4.12,7,7,0,0,0-3.49-3.07,54.24,54.24,0,0,0-7.36-2.93c-1-.39-2-.78-3-1.24-1.47-.69-2.91-1.42-4.35-2.15-1.27-.63-2.58-1.21-3.78-1.95-2.49-1.53-4.8-3.46-8-3.13s-6.48.93-9.73,1c-5.51.16-11,.05-16.53,0-1.54,0-2.26.48-2.24,2.17,0,2.69-.17,5.39-.3,8.08-.08,1.43.13,2.83,1.47,3.5a6.33,6.33,0,0,0,3,.37,40.24,40.24,0,0,0,8.33-.87,18.69,18.69,0,0,1,11.25.58c2.51,1,5.4.57,8.15,1.17,4.09.88,8.18,1.71,12.26,2.72a54.53,54.53,0,0,0,11.09,1.09C160.66,514.33,162.05,513.53,163.69,513ZM119.25,320.51c-1.26-.16-2.5,0-3.34-.49-1.66-1-3.07-2.4-4.65-3.55-1.85-1.34-3.82-2.53-5.61-3.93-.39-.3-.28-1.26-.33-1.92,0-.05.8-.29.86-.2.95,1.42,2.39,2,3.87,2.73,1.21.57,1.88,2,3.47,2.21a4.91,4.91,0,0,1,2.89,1.47c1.47,1.77,3.27.69,4.91.89.13,0,.42-.41.44-.64s-.16-.66-.35-.73c-1.21-.41-2.46-.72-3.67-1.13a28.53,28.53,0,0,1-4.55-1.7c-1.75-.95-3.3-2.26-5-3.35-1.93-1.26-2.27-2.27-1.67-3,.89.5,1.88,1.1,2.91,1.61,2.75,1.36,5.72,2.4,8.23,4.11,1.83,1.25,3.06,1.07,4.48-.17.36-.31.81-1,.68-1.28-.19-.47-.87-1.1-1.27-1-4.38.53-7.15-2.87-10.7-4.33-.88-.36-1.06-3.9-.39-4.56s5.23-.41,6,.34c1.16,1.12,2.32,2.15,4.15,2,.7,0,1.41.48,2.14.6s2,.44,2.39.05c.61-.62.62-1.49-.55-2.28s-1.81-2.37-2.83-3.47a64.79,64.79,0,0,0-5.21-5.14,13.78,13.78,0,0,0-5.87-2.68c-1.1-.28-2-1.46-3-2.11a9.76,9.76,0,0,0-3.13-1.52c-2.29-.41-4-1.87-5.49-3.3a2.07,2.07,0,0,0-2.8-.29c-1.12.59-2.13,1.4-3.19,2.1l-7,4.7c3.41,1.06,4.83,3.69,6.31,6.06,1.29,2.06,1.85,4.58,2.86,6.84,1.12,2.55,2.3,5.07,3.6,7.52a32.32,32.32,0,0,0,3.32,5.2c1.8,2.2,3.82,4.23,5.83,6.24a20.81,20.81,0,0,0,3.48,2.88,17.36,17.36,0,0,0,4.28,2.1c.94.3,2.48.35,3.05-.21,1.07-1.06-.24-2-1-2.71-.26-.25-.8-.2-1.18-.36a21.28,21.28,0,0,1-3.77-1.67c-2.23-1.45-4.39-3-6.47-4.71-1.13-.9-2.88-1.61-2.08-4,2.9,1,4.32,3.84,6.8,5.13s5.11,2.51,7.9,3.88C119.09,322,119.17,321.25,119.25,320.51Zm59.26,4.64a8.37,8.37,0,0,0,1.34.16c3.79-.56,7.3,1.06,11,1.47a1.52,1.52,0,0,1,.53.11,32.63,32.63,0,0,0,9.38,3.66,2.48,2.48,0,0,1,.65.27,24.3,24.3,0,0,0,3.76,1.93c2.25.68,4.59,1.07,6.89,1.58.29.07.64,0,.87.17,2.6,1.76,5.48.93,8.26.86.86,0,1.28-1.67.61-2.22-1.16-1-2.43-1.8-3.57-2.79q-3.23-2.82-6.32-5.75c-2-1.88-3.88-3.87-5.9-5.72-1.66-1.53-3.59-2.8-5.14-4.43a9.71,9.71,0,0,0-9.13-3.14,10.9,10.9,0,0,0-6.12,3.55,59.26,59.26,0,0,0-5.15,6.88C179.75,322.71,179.26,323.81,178.51,325.15ZM227,289.52c-.95.85-1.38,1.29-1.86,1.65-.95.71-1.91,1.41-2.9,2.07-2.28,1.49-4.18,3.54-7,4.28a4.29,4.29,0,0,0-2,1.83c-.15.21.48,1.15.93,1.55,2.27,2,4.63,3.94,6.88,6,1.5,1.36,2.82,2.92,4.33,4.26,1.81,1.6,3.83,3,5.61,4.6,1.93,1.77,3.68,3.74,5.52,5.62.39.41.78,1,1.26,1.11a5.07,5.07,0,0,0,2-.12,60.48,60.48,0,0,0-.23-8.94,46.81,46.81,0,0,0-2.13-7.28,26.14,26.14,0,0,0-1.59-4.53,48.58,48.58,0,0,0-3.76-5.79C230.49,293.66,228.72,291.64,227,289.52ZM123.13,324.2c1.19-.55,2-1,2.89-1.33,1.44-.57,2.91-1,4.35-1.6a15.5,15.5,0,0,0,2.55-1.26c1.79-1.16,3.48-2.49,5.31-3.58,1.17-.69,1.35-1.33.54-2.39a4,4,0,0,1-.5-1.25c-.34-1-.64-2.06-1-3.08-.49-1.39-1.1-2.75-1.52-4.17-.59-2-1-4.05-1.57-6.07a2.57,2.57,0,0,0-.34-.6,21.38,21.38,0,0,1-1.89-3.26c-.92-2.5-1.64-5.07-2.44-7.61-1-3.24-2-6.48-3.08-9.8a1.91,1.91,0,0,0-2.12,1.92q-.63,4.61-1.41,9.2c-.1.56-.64,1-.74,1.6-.21,1.2-.79,2.75-.29,3.6a27,27,0,0,0,4.41,5.22,5.33,5.33,0,0,1,1.85,5.23,2.11,2.11,0,0,1-.81,1.18c-1,.71-2.08,1.3-3.21,2,1.39,1,2.06,3.27,1.11,4.09-1.15,1-.83,2.1-.9,3.24s.21,2.71-.4,3.49C122.66,320.56,123.28,322.12,123.13,324.2ZM81.67,294.36A34.13,34.13,0,0,0,83.92,300c.92,1.54.85,3.14,1.25,4.72.59,2.3,1.7,4.49,2.14,6.81.69,3.58,1,7.23,1.47,10.85.06.47,0,1,.1,1.43.37,2.92,1.52,4,4.42,4.07,4.6.09,9.21.17,13.67-1.24a4,4,0,0,0,1-.63l-.75-.81c-1.9-2-3.9-3.89-5.69-6A25,25,0,0,1,97,313c-.91-2.14-2.14-4.13-3.12-6.24-.62-1.33-.94-2.81-1.58-4.13a72.58,72.58,0,0,0-3.82-7.19,8.51,8.51,0,0,0-3.12-3C83.69,291.6,82.39,292.58,81.67,294.36ZM99.17,473c-3.16,0-5.72,0-8.29,0-.28,0-.54.37-.84.52-2.12,1.08-3.82,2.9-6.43,3.12-1.25.11-2.44,1-3.66,1.48-.93.41-1.84.84-2.76,1.25-1.62.73-3.18,1.82-4.87,2.1-2.88.48-4.51,2.48-6.27,4.36-.78.83-.22,3.18.65,3.21,2.56.1,5.32.56,7.64-.21a20.44,20.44,0,0,1,4.93-.87c1.36-.12,2.73-.17,4.09-.33,1.62-.18,3.23-.51,4.85-.64.5,0,1.06.59,1.55.53,1.75-.2,3.49-.53,5.22-.89.51-.1,1.33-.37,1.41-.7.5-2.14.84-4.32,1.22-6.48.1-.53.08-1.07.21-1.58C98.22,476.33,98.67,474.78,99.17,473ZM147.8,320.4c2.37,0,5.06.07,7.74,0a3.78,3.78,0,0,0,1.79-1.06,37.58,37.58,0,0,0,3.35-3,31.18,31.18,0,0,0,3.86-4.45,2.88,2.88,0,0,0-.09-2.74c-.79-.8-2.15-1-3.23-1.53-1.44-.69-2.81-1.54-4.28-2.13a16.11,16.11,0,0,0-3.06-.62,16.67,16.67,0,0,1-.45,2.34c-.3,1-.51,2.14-1.19,2.7-1.71,1.42-4.12,1.92-5.44,3.88a3.39,3.39,0,0,0-.72,2.2A30.93,30.93,0,0,0,147.8,320.4Zm1.68-29.55c.11-1.25.19-2.24.29-3.22,0-.47,0-1.19.23-1.37,1.32-.87.95-2.16.79-3.25a13.45,13.45,0,0,0-1.3-4.8,30.54,30.54,0,0,1-2.9-6c-.47-1.46-1.48-2.77-1.87-4.24-.33-1.23-.85-1.26-1.77-.91-1.93.73-3,4.17-1.92,5.93a33.05,33.05,0,0,1,2.13,4.09c.91,2.13,1.69,4.32,2.55,6.47.44,1.09,1.26,2.13,1.33,3.23A4.75,4.75,0,0,0,149.48,290.85Zm-115.55-90-.76.09c-.08.25-.18.51-.25.77-.4,1.51-.74,3-1.19,4.55s-1.23,2.71-1.33,4.1c-.21,2.79-.08,5.61,0,8.42a1.39,1.39,0,0,0,.79,1c2.42.75,4.87,1.41,7.85,2.25-.24-1-.39-1.64-.59-2.29a10.72,10.72,0,0,1-.46-1.13,26,26,0,0,0-1-4.5c-.87-2.47-.36-5.31-1.57-7.87A31,31,0,0,1,33.93,200.82Zm106.53-11.29c.56-2.39,1.06-4.59,1.6-6.78.29-1.17.6-2.33,1-3.47.52-1.63,1.16-3.23,1.64-4.88.13-.44-.07-1.41-.23-1.43a2.79,2.79,0,0,0-1.86.21,11.33,11.33,0,0,1-7.15,2.13c-.69-.05-1.38,0-2.56,0C135,180.43,136.54,185.42,140.46,189.53ZM110.52,274c-.09-1.26-.28-2.14-1.73-2.14-.32,0-.63-.29-1-.39-.73-.2-1.48-.36-2.22-.54-.13.67-.59,1.55-.32,2,1,1.71.22,3.31,0,4.95a2.14,2.14,0,0,1-1.51,1.95,3.55,3.55,0,0,0-2.1,1.68c-.72,2.43,2.49,1.44,2.9,3,.56-.19,1.44-.22,1.61-.59.66-1.39,1.07-2.9,1.61-4.36.18-.47.46-.9.68-1.35C109.17,276.76,109.84,275.35,110.52,274Zm11,32.49-3.43-.18C118.36,307.92,119.81,308.09,121.47,306.44Z"/><path class="cls-1" d="M98.59,338.48c-2.22.65-2.2,2-2.3,3.51-.12,1.83.1,3.63-1,5.48-.74,1.28-.27,3.27-.27,4.95a19.19,19.19,0,0,1-2.22,8,1.84,1.84,0,0,0-.19.51c-.49,2.78-.86,5.59-1.48,8.34-.56,2.5-1.39,4.95-2.1,7.42-.06.23-.16.45-.2.69-.5,2.87-.86,5.77-1.5,8.61-.56,2.44-1.42,4.81-2.15,7.21-.07.23-.12.46-.18.69-.53,2.27-.94,4.58-1.63,6.8-.55,1.76-1.49,3.41-2.16,5.14a25.52,25.52,0,0,0-1.17,3.82c-.57,2.64-1,5.32-1.55,8-.66,3-1.46,6-2.19,9a5.39,5.39,0,0,0-.27,1.57,11.15,11.15,0,0,1-2.31,6.78.86.86,0,0,0-.15.32c-.5,1.88-.93,3.79-1.52,5.65s-1.37,3.83-2.06,5.74c-.12.34-.19.7-.3,1-.79,2.49-1.58,5-2.38,7.46,0,.12-.08.23-.1.34-.49,2.21-.87,4.45-1.5,6.61-.55,1.93-1.37,3.79-2.08,5.67a2.3,2.3,0,0,0-.15.32c-.54,2.21-1,4.46-1.63,6.64A47.56,47.56,0,0,1,60,479.38c-.14.33-.29.64-.41,1-.72,1.9-1.46,3.79-2.15,5.7-.63,1.76-1.13,3.58-1.82,5.32-.6,1.51-1.43,2.92-2.1,4.4-.56,1.21-1,2.48-1.56,3.68-1.1,2.32-2.29,4.59-3.38,6.92-.62,1.32-1.08,2.72-1.65,4.07-1.32,3.08-2.58,6.19-4.06,9.19-.34.68-1.46,1-2.26,1.43-1.38.71-2.79,1.37-4.19,2.05-.15.08-.26.28-.41.32-2,.49-4,1-6,1.44a35.86,35.86,0,0,1-5.73,1.21,68.75,68.75,0,0,1-9.52-.07,81.34,81.34,0,0,1-8.59-1.41,1.45,1.45,0,0,1-1-.85c-.28-1.5-1.43-1.5-2.74-1.63.08-2.13-.6-4.28.83-6.23a2.11,2.11,0,0,0,.25-.85c.49-3.09.53-6.35,1.6-9.23.82-2.2.39-4.81,2.19-6.66,0,0,0-.11,0-.17.47-2.9.92-5.8,1.44-8.69.22-1.24.59-2.46.9-3.68.05-.23.13-.46.16-.69.51-4.47.86-8.95,1.56-13.38.48-3,1.45-5.87,2.19-8.81a3,3,0,0,0,.11-.52c.49-3.86.85-7.74,1.49-11.58.52-3.06,1.4-6.06,2.12-9.09a7.67,7.67,0,0,0,.28-1.22c.13-2.22,1.28-4.06,2.13-6,.75-1.74,1.14-3.64,1.78-5.43.49-1.37,1.08-2.7,1.7-4s1.4-2.82,2.14-4.2,1.43-2.46,2.1-3.71A22.68,22.68,0,0,0,28.77,415c.59-1.62.95-3.34,1.61-4.93a38.78,38.78,0,0,1,2-3.6,17.21,17.21,0,0,0,1.35-2.72c.6-1.82,1.14-3.67,1.58-5.53.81-3.41,1.54-6.84,2.28-10.27a8.86,8.86,0,0,0,.16-1.78c0-9.54,0-19.07-.15-28.6-.08-3.78-1-7.54-1.13-11.32-.18-6.29,0-12.59,0-18.88a12.7,12.7,0,0,1,.42-2.09c.89.24,1.69.49,2.49.68a10.54,10.54,0,0,0,1.91.36c3.18.16,6.36.16,9.52.46,1.9.18,4.14.29,5.54,1.35,1.82,1.38,3.48.93,5.52,1,.52-3.69.5-7.43,1.66-10.77,1-2.83.09-6,2-8.6.95-1.29,1-3.18,1.61-4.76.85-2.32,1.76-4.62,2.74-6.88a1.87,1.87,0,0,1,1.26-.86c2.18-.44,4.39-.78,6.59-1.12a8.6,8.6,0,0,1,1.43,0c1,1.92,2,3.71,2.89,5.5a1.82,1.82,0,0,1,.14.52c.46,2.46.81,4.94,1.41,7.36s1.55,4.83,2.14,7.28c.32,1.32.13,2.75.34,4.11a37.38,37.38,0,0,0,1.48,7.42c.35.94,2.17,1.8,3.38,1.88a88,88,0,0,0,10.77,0,47.76,47.76,0,0,0,6.56-1.18c.37-.08.67-.47,1-.6a4.13,4.13,0,0,1,2-.44,18.23,18.23,0,0,1,4,1.64,4.77,4.77,0,0,0,5.74-.43c.2-.19.48-.4.52-.64.44-2.39,2.63-2.44,4.25-3.21s3.19-1.41,4.77-2.15a28.79,28.79,0,0,0,2.9-1.55c2.33-1.44,4.65-2.9,6.93-4.41,1.69-1.12,2.46-.67,2.93,1.26a60.83,60.83,0,0,0,2.12,5.83c.57,1.58,1.06,3.19,1.62,4.77.67,1.89,1.38,3.76,2.08,5.64a4.53,4.53,0,0,1,.34.83c.5,2.81.83,5.66,1.51,8.43.77,3.1.75,6.34,1.47,9.34.6,2.49.33,5.13,1.23,7.4,1.46,3.67.3,7.5,1.17,11.06a47.47,47.47,0,0,1,1.11,10.71c.06,3.48.44,7.08-.3,10.4-1.3,5.81-.15,11.71-1.23,17.39-.68,3.53-.33,7.19-1.39,10.49-.92,2.84-.65,5.6-1,8.38-.45,3.2-.52,6.54-1.54,9.56-.81,2.42-.49,4.8-1,7.14-.55,2.84-1.46,5.6-2.1,8.42a23.23,23.23,0,0,0-.37,3.74c-.14,2.3.35,4.67-1,6.81a3.24,3.24,0,0,0-.21,1.23c-.48,4-.48,8.21-1.6,12.06-.78,2.7-.8,5.35-1.19,8a19.71,19.71,0,0,1-1.28,4.33,2.25,2.25,0,0,1-1.41,1.12c-1.22.25-2.51.18-3.75.38-9.25,1.42-18.56.9-27.86,1.05-2.36,0-4.7-.15-6.62-1.45a5.22,5.22,0,0,1-2.06-3.38c-.28-3-.66-6.15.13-8.93s.49-5.73,1.42-8.31c.72-2,.54-3.92.83-5.86.36-2.39.87-4.77,1.12-7.17s.13-4.67.37-7c.32-3.16.31-6.48,1.39-9.38.86-2.3.41-4.67,1.22-6.72,1.11-2.83.41-5.84,1.34-8.49a36,36,0,0,0,1.16-6.06c2.12-11.74,1.12-23.56.93-35.36a15.56,15.56,0,0,0-1.33-6.66c-1.56-3-1.62-6.48-3.26-9.41a2.65,2.65,0,0,1-.25-1.22,23.16,23.16,0,0,0-2.34-9.05,1.2,1.2,0,0,1-.13-.33c-.48-2.45-.84-4.94-1.46-7.36-.57-2.27-1.49-4.44-2.09-6.71a21.07,21.07,0,0,1-.21-3.2C99,340.19,98.76,339.37,98.59,338.48Zm32.67,79.66-.69.21v3.37c0,2.75,0,5.5,0,8.26a7.14,7.14,0,0,1-.2,1.59c-.72,2.67-1.59,5.31-2.18,8s-1,5.66-1.48,8.5c0,.11,0,.27-.11.33-1.8,1.29-.86,3.16-.88,4.76,0,.53,1,1.08,1.61,1.63.23-.29.7-.61.66-.85-.38-2.78.74-5.31,1.47-7.84a31.56,31.56,0,0,0,1.32-8.88,3.07,3.07,0,0,1,.2-.68,53.69,53.69,0,0,0,2-7.47,57.53,57.53,0,0,0,0-7.88C133.05,419.75,132.12,419,131.26,418.14ZM56.62,434a23.82,23.82,0,0,0-3,1.89,14.93,14.93,0,0,0-1.84,2.31l3,.15a.47.47,0,0,0,.17,0c1.68-.82,3.38-1.58,5-2.5a2.08,2.08,0,0,0,.9-1.47,2.47,2.47,0,0,0-.55-1.93c-1.47-1.05-3.19-1.75-4.66-2.8-1.79-1.29-3.8-2.52-5-4.27-1.8-2.54-3-5.52-4.6-8.6-.21.07-1.14.13-1.39.57s.09,1.31.31,1.93a31,31,0,0,0,1.86,4.48,21.73,21.73,0,0,0,3.27,4.59C52.1,430.29,54.39,432,56.62,434Zm60.9-97.76a12.16,12.16,0,0,0,1.23,2c1.45,1.62,3,3.17,4.5,4.74a27.08,27.08,0,0,0,3.78,3.79c2.54,1.77,5.65,2.66,7.91,4.95a1.58,1.58,0,0,0,1.57-.21,1.66,1.66,0,0,0,0-1.62c-1.46-1.07-3-2-4.61-2.92a27.76,27.76,0,0,1-3.57-2.16c-1.76-1.49-3.38-3.16-5-4.82-1.33-1.37-2.58-2.83-3.85-4.27-.37-.42-.7-.88-1-1.32ZM32.33,455.1a30.32,30.32,0,0,0-2.17,2.26,30.69,30.69,0,0,0-2.77,4.9c-1,1.82-2.14,3.45-2.28,5.59,0,.32-.11.79-.34.93-1.73,1.06-.76,2.21-.33,3.58.77-.59,1.62-.91,1.86-1.48,1-2.51,1.81-5.13,2.88-7.62a14.88,14.88,0,0,1,2.67-4.48C32.9,457.68,32.82,456.79,32.33,455.1ZM19,505.11c.66,1.23,2.85,1.4,4.42.2.93-.7,1.85-1.69,2.91-1.89a10.37,10.37,0,0,0,5.59-2.76c.43-.42.48-1.22.71-1.84a10.08,10.08,0,0,0-2.12-.07,6.16,6.16,0,0,0-1.48.73c-1.46.71-3,1.31-4.37,2.11C22.71,502.69,20.87,503.93,19,505.11ZM52.32,358.43A4.67,4.67,0,0,0,52,359.5c0,3.87-.15,7.74,0,11.6,0,.88,1.17,1.71,1.8,2.57l.59-.26c-.05-1.14.3-2.53-.23-3.38a9.8,9.8,0,0,1-.54-8.4C54.26,359.68,53.4,359.46,52.32,358.43Zm73.73,11.38c-1.33,2.71-.3,5.13-.14,7.5a13.46,13.46,0,0,0,.89,3.3c.08.23.52.41.81.44.12,0,.38-.41.42-.65A16.51,16.51,0,0,0,126.05,369.81Z"/><path class="cls-1" d="M207.45,191.9c2.51,4,2.06,8.27,1.88,12.66a2.16,2.16,0,0,0,2.49-2.12c.07-2.44.83-5-.78-7.29a1.28,1.28,0,0,1-.08-.35L209.15,187c-.47-.07-1-.16-1.62-.23-1.46-.19-1.74.55-2.28,1.89-1.18,2.88-.05,6.21-2,8.83-.06.09,0,.24-.06.35-.45,2.64-.51,5.44-1.49,7.86-.74,1.85-.64,4-2.15,5.64a7.15,7.15,0,0,0-1.35,3,12.49,12.49,0,0,1-4.21,6.31c-2.47,2.1-5.28,3.8-7.94,5.67-2,1.38-3.91,2.79-5.89,4.14-1.82,1.24-3.72,2.36-5.51,3.64-2,1.4-3.84,3-5.81,4.38-1.46,1.05-3.07,1.92-4.51,3-2.45,1.86-4.84,3.79-7.22,5.75-1.84,1.52-3.67,3.07-5.41,4.71-1.19,1.14-2.15,2.53-3.32,3.7a10.75,10.75,0,0,1-6.87,3.62,21.54,21.54,0,0,0-9.4,3.34,10.59,10.59,0,0,1-3.56,1.54,19.24,19.24,0,0,0-8.08,3.79.75.75,0,0,1-.32.13c-2.75.46-5.5,1-8.27,1.31-.9.09-1.85-.71-2.81-.79a39,39,0,0,0-6.2-.14c-2,.16-3.87.93-5.81,1a5.7,5.7,0,0,1-3-1.4c-3.45-2.54-6.77-5.25-9.06-8.94-1.42-2.28-2.6-4.7-4-7-.86-1.45-2-2.74-2.82-4.2-1.24-2.15-2.34-4.39-3.49-6.59-.65-1.26-1.35-2.5-1.94-3.79a24.58,24.58,0,0,1-1.4-3.56c-.82-2.91-2.62-5.78-1.45-8.88A9.64,9.64,0,0,1,73,221.45a35.58,35.58,0,0,1,5.83-3.84,24.2,24.2,0,0,1,5-1.53,2.16,2.16,0,0,1,1.38.22c4.09,2.26,8.48,1.3,12.67.8,2.25-.26,4.31-2,6.5-3,1.56-.71,3.27-1.12,4.79-1.9,3.65-1.86,7.65-.72,11.37-1.5,3.48-.73,7.09-1.56,9.81-4.26,1.81-1.78,3.65-3.53,5.54-5.21.79-.72,1.95-1.08,2.59-1.89a19.46,19.46,0,0,0,2.4-4.06,43.06,43.06,0,0,0,2.35-6.21c.66-2.46.87-5.05,1.5-7.53a47.76,47.76,0,0,1,1.93-5.24,8.38,8.38,0,0,0,.46-1,11.59,11.59,0,0,1,4.91-7.69c.95-.64,1.63-1.66,2.53-2.39a10.59,10.59,0,0,1,3.36-2.31c2.6-.73,4.48-3,7.46-3,1.23,0,2.41-1.33,3.67-2a9.54,9.54,0,0,1,1.75-.29,32.09,32.09,0,0,0,3.19-.89c1.47-.52,1.16-1.5.73-2.4-1.73.29-3.32.45-4.85.85s-2.89,1-4.35,1.54a28.78,28.78,0,0,1-3.13.93,1.14,1.14,0,0,1-1-.39c-.13-.28.09-.76.25-1.11s.45-.44.51-.69c.57-2.37,1-4.78,1.66-7.11a28.64,28.64,0,0,1,2.07-4.92c1-2,2.19-3.89,3.38-6l2.77-1.07c1.06.63,2.31,1.42,3.61,2.13a14.42,14.42,0,0,1,4.66,4.37c1.48,2,3.08,3.89,4.63,5.84,0,0,.13,0,.14.09,1.28,3.6,4.54,5.61,6.78,8.43,1.62,2,3.79,3.62,5.66,5.46a56.21,56.21,0,0,1,5.17,5.42c1.23,1.59,1.87,3.62,3,5.28,1.71,2.43,3.65,4.7,5.49,7,1.11,1.41,2.27,2.77,3.31,4.23a36.08,36.08,0,0,1,2.27,3.71,19.8,19.8,0,0,1,1.19,2.76c.58,1.61,1.08,3.25,1.63,4.88.71,2.05,1.44,4.1,2.15,6.16a6,6,0,0,1,.26.82,18.35,18.35,0,0,0,3.92,7.77c2,2.59,4.36,5,6.47,7.51a26,26,0,0,1,3.91,6c1.37,3.09,3.42,5.91,4.56,9.07,1,2.8,2.18,5.77,1.64,8.89A6.08,6.08,0,0,1,241,245c-1.39,1.6-3,3-4.38,4.6-2.82,3.47-5.39,7.14-8.29,10.54-1.74,2-3.92,3.7-5.86,5.59-1.39,1.35-2.73,2.77-4.05,4.2a33,33,0,0,0-2.81,3.33,21.94,21.94,0,0,1-4.74,4.54c-.82.64-1.66,1.57-2.87.64a1.08,1.08,0,0,0-.52-.13c-3.28-.43-6.63-.55-9.81-1.37-5.31-1.37-10.72-.72-16-1.35-2.73-.32-5.36-1.43-8-2.17a3.81,3.81,0,0,0-1.06-.14c-2.87,0-5.33-1.32-7.95-2.3s-4.48-2.84-6.7-4.26c-1.58-1-2.73-2.72-4.08-4.11-1.11-1.15-2.17-2.35-3.36-3.4-.92-.82-.72-1.45,0-2.21,2.34-2.55,4.56-5.22,7-7.63,1.25-1.22,3-1.92,4.43-3,1.11-.81,2.05-1.86,3.16-2.68,1.61-1.2,3.3-2.3,5-3.43a12.25,12.25,0,0,0,2.63-1.74c1.54-1.81,3.73-2.47,5.61-3.68,2.06-1.32,3.87-3,5.86-4.47,1.44-1.05,3-1.89,4.49-2.91,3.52-2.47,7-5,9.57-8.54a30.7,30.7,0,0,0,4-7.4,43.53,43.53,0,0,0,2.47-8C205.24,199.69,206.44,195.91,207.45,191.9ZM95,239.16c.1,1.08-.21,2.62.38,3.16a25.63,25.63,0,0,0,5,3.16c1.09.6,2.31,1,3.43,1.52,2.13,1.06,4.16,2.35,6.36,3.23a41.1,41.1,0,0,0,5.65,1.47c.23.06.44.14.66.21a14.93,14.93,0,0,0,3.21,1c2.09.14,2.21-.12,1.83-2C112.1,248.53,103.27,245.08,95,239.16Zm104.39,6.14c-.3,1.56.05,2.41,1.6,2.45a7.09,7.09,0,0,1,1.78.26c2.53.75,5,1.61,7.59,2.28,2.25.6,4.56,1,6.84,1.5a2.79,2.79,0,0,1,.82.34,4.47,4.47,0,0,0,5.6-.24,8.62,8.62,0,0,0,1-1,6,6,0,0,0-1.47-.55c-1.12-.12-2.61.33-3.31-.24-1.81-1.48-4.05-1.36-6-2-2.67-.93-5.6-1.09-8.42-1.59-.17,0-.41,0-.51-.13C203.27,244.49,201.29,245.46,199.41,245.3Zm-37-48.76a2.17,2.17,0,0,0,.69.28c3.53,0,7.07.24,10.58,0a8.21,8.21,0,0,0,4-2,38.69,38.69,0,0,0,4.29-4.39,3.18,3.18,0,0,0,.74-1.66c0-.19-.81-.71-1.19-.66a2.17,2.17,0,0,0-1.38.88c-2.13,3.45-4.8,5.91-9.24,5.49-1.19-.12-2.39,0-3.59,0C165.5,194.36,163.61,194.28,162.44,196.54ZM173.78,165l-.24-.66a9.43,9.43,0,0,0-3,.06,24,24,0,0,0-3.83,2.06c-1.26.73-2.5,1.49-3.73,2.26s-.83,1.53-.22,2.49c2.36-1.32,4.33-3.1,7-3.71C171.23,167.16,172.46,165.84,173.78,165Z"/><path class="cls-1" d="M249.32,282.39c2.28,1.7,4.53,3.25,6.63,5,1.63,1.36,3,3.05,4.61,4.45,1.28,1.1,2.76,2,4.13,3,1.66,1.22,3.36,2.43,4.92,3.77a3.14,3.14,0,0,1,.92,2c.1,1.37-.24,2.77-.1,4.13a89.59,89.59,0,0,0,1.47,10.87c.75,3.25,2.26,6.33,3.25,9.54.7,2.27,1.06,4.65,1.64,7,.73,2.9,1.55,5.78,2.31,8.68.53,2,1,4,1.56,6.07.72,2.67,1.49,5.33,2.25,8,.47,1.65.89,3.33,1.48,4.95.65,1.81,1.47,3.57,2.18,5.36.55,1.4.93,2.89,1.61,4.22,1,2,2.26,3.93,3.42,5.89,1,1.62,2,3.23,2.91,4.87a42.41,42.41,0,0,0,5.82,7.76c1.09,1.17,1.92,2.83,3.1,4.09,1.91,2,3.9,4,5.77,6.05a25.64,25.64,0,0,1,1.7,2.66,42.64,42.64,0,0,1,3.61,5.29c1.18,2.51,3.34,4.08,5,6.14a24.06,24.06,0,0,1,1.84,3.4c1,1.75,1.9,3.52,3,5.21,1.48,2.36,3.25,4.54,4.54,7,1.53,2.91,2.6,6.06,4,9,1,2,2.24,3.86,3.35,5.8,1,1.72,1.85,3.52,2.92,5.18.77,1.21,1.91,2.2,2.67,3.41,1.38,2.22,3.43,4.06,3.79,6.88.08.65.72,1.22,1.06,1.85a49.36,49.36,0,0,1,3.6,6.91c.91,2.59,2.79,4.76,2.94,7.74.09,1.6,1.31,3.15,2.07,4.7.95,1.95,1.95,3.86,2.8,5.54-1.87,1.35-3.46,2.43-5,3.61-.74.57-1.29,1.4-2,2s-1.84.91-2.62,1.54c-2.32,1.89-4.55,3.9-6.85,5.83-2.1,1.76-4.05,3.73-6.85,4.52a20.44,20.44,0,0,0-3.48,1.9,3.84,3.84,0,0,1-1.51.42,38.63,38.63,0,0,0-4.31.16c-2.08.36-3.4-1-4.91-1.88a50.47,50.47,0,0,1-5.07-3.41,25.14,25.14,0,0,1-3-2.7c-1.47-1.53-2.9-3.12-4.31-4.71-1.68-1.91-3.36-3.83-5-5.78-2.28-2.72-4.56-5.45-6.76-8.25-1.53-1.94-3-3.95-4.35-6s-2.46-3.87-3.58-5.87c-.64-1.13-1-2.45-1.59-3.58-1.49-2.61-3.1-5.16-4.65-7.73a26.43,26.43,0,0,1-1.5-2.7c-1-2.18-1.79-4.46-2.88-6.59-1-1.94-2.31-3.71-3.38-5.62s-1.91-3.79-2.91-5.66c-.25-.48-.87-.77-1.09-1.25-.54-1.19-.86-2.49-1.44-3.66a41.36,41.36,0,0,0-2.18-3.59q-1.35-2.16-2.73-4.3c-1.58-2.49-3.21-4.94-4.72-7.46-.7-1.18-1.13-2.52-1.77-3.74s-1.72-2.29-2.06-3.57c-.51-1.88-1.94-3-2.82-4.6a31.37,31.37,0,0,0-4.71-7c-1.6-1.6-2.89-3.51-4.37-5.23-1.35-1.57-2.81-3-4.15-4.62s-2.95-2.46-3.63-4.52c-.39-1.17-1.67-2.07-2.64-3-1.53-1.46-3.2-2.77-4.67-4.29-2.33-2.39-4.4-5-6.84-7.3a50.93,50.93,0,0,1-6-6.76c-1.29-1.72-2.94-3.16-4.22-4.87a4.24,4.24,0,0,1-.27-2.47c0-.58.65-1.32.46-1.68a2.17,2.17,0,0,0-1.65-.7c-4.19-.07-8.41.19-12.57-.19-2.47-.22-4.84-1.43-7.26-2.17l-6-1.81c-.1,1.51-.73,2.53.7,3.13.17.07.24.94.05,1.25-1,1.67-2.2,3.24-3.2,4.93s-1.85,3.8-3,5.52a28.8,28.8,0,0,1-4,4.64,31.27,31.27,0,0,1-4.73,3.5,13.31,13.31,0,0,1-3.14,1.19c-1.69.54-3.4,1-5.1,1.56-.49.15-.94.46-1.44.62s-1.4.59-1.85.37a2.31,2.31,0,0,1-1-1.68c-.16-2.33,0-4.69-.21-7-.35-3.56-.51-7.24-1.56-10.62-.74-2.36-.53-4.67-1-6.95s-1.36-4.72-2.06-7.07a2.68,2.68,0,0,1-.25-1c.42-2.76-.93-5.16-1.62-7.68-.39-1.44-1.36-2.71-1.91-4.12a17.7,17.7,0,0,1-.57-3h5a25.27,25.27,0,0,0,10.79,12.32c2.27-1.24,4.51-2.36,6.63-3.66,1.42-.87,2.64-2,4-3s2.75-1.59,4.45-.92a3.64,3.64,0,0,0,1.24.09,39.44,39.44,0,0,0,5.75,0c2.18-.29,3.58,1.45,5.52,1.68a10.05,10.05,0,0,1,2.56.95q2.49,1.07,5,2.18c1,.46,2,1,3.1,1.38,1.76.59,3.56,1,5.33,1.57,2.36.72,4.67,1.85,7.08,2.14s5.15,1.08,7.7-.62a3,3,0,0,1,3.85.39c2.35,2.14,5.06,3.89,7.54,5.9a14.2,14.2,0,0,1,2.21,2.54c.78,1,2.88,1.56,3.71.69,2-2.13,4.41-3.86,5.48-6.86.73-2,2.35-3.68,3.36-5.62a2,2,0,0,0-.45-2.88c-2-1.47-3.91-3.18-6.06-4.46-1.4-.84-.78-1.6-.47-2.51a9.32,9.32,0,0,0,.85-2.4,72.94,72.94,0,0,0,0-7.54,10.54,10.54,0,0,0-1-3.34,5.66,5.66,0,0,1,.71-4.94,9.92,9.92,0,0,0,1.21-2.36c.58-1.38,1.15-2.77,1.59-4.19.81-2.59,1.52-5.21,2.26-7.82.13-.46.19-.93.28-1.4.49-2.42,1-4.83,1.46-7.25A3.23,3.23,0,0,1,249.32,282.39Zm-5.61,85.43c2.07,1.46,3.7,2.68,5.41,3.79,2.41,1.57,4.85,3.11,7.32,4.58,1.12.67,2.4,1.08,3.52,1.75,1.66,1,3.24,2.12,4.88,3.14a20.37,20.37,0,0,0,2.66,1.39c1.29.55,3,.66,3.86,1.59,1.26,1.39,2.48.87,3.78.84.78-2.2-.88-2-2.08-2.56-2.84-1.39-5.5-3.15-8.28-4.69-1.74-1-3.6-1.7-5.32-2.69-1.92-1.13-3.74-2.43-5.61-3.66-1.38-.89-2.73-1.84-4.14-2.67-1.12-.65-2.31-1.18-3.49-1.73-.58-.27-1.38-.8-1.75-.6S243.89,367.43,243.71,367.82ZM274,415.15a82.84,82.84,0,0,0,7.75,4c3.08,1.2,6.34,1.95,9.52,2.91a4,4,0,0,1,.95.46,4.25,4.25,0,0,0,4.55,0,13.17,13.17,0,0,1,4.39-1.61c1.64-.17,2.61-.64,2.92-2.5a6,6,0,0,0-1.89-.2c-2.15.49-4.27,1.11-6.4,1.67a2.58,2.58,0,0,1-1.29.17c-3.14-1-6.4-1.44-9.39-3.06-2.39-1.3-5.32-1.65-7.65-3C275.67,412.87,275.2,413.76,274,415.15Zm38.3,62.27a39.41,39.41,0,0,0,5.71,2.85c2.42.74,5,1,7.49,1.47,1.37.28,2.69.83,4.06,1.09,3.43.65,6.61-.81,9.9-1.39.41-.07.76-1,.94-1.62,0-.15-.72-.8-1.07-.76-1.92.19-3.83.55-5.75.8a6.25,6.25,0,0,1-1.93,0c-3.76-.64-7.53-1.31-11.28-2a6.18,6.18,0,0,1-2.09-.76A6,6,0,0,0,312.32,477.42Z"/><path class="cls-1" d="M89.84,131.1H87.71c-.14,1.39-.8,2.75.66,3.79a.61.61,0,0,1,.16.31q.77,3.5,1.54,7a28.64,28.64,0,0,1,1,4.23c.19,3.24-.89,6.27-1.93,9.29a2.3,2.3,0,0,0-.1.35c-.52,2.43-.94,4.89-1.57,7.28s-1.52,4.84-2.28,7.26a4.82,4.82,0,0,0-.11.52,50.37,50.37,0,0,0-1.62,14.14c0,6.71.16,13.43,0,20.14a59.74,59.74,0,0,1-1.19,8.35,1.37,1.37,0,0,1-.91.9c-2.84.17-4.53,2.5-6.88,3.51a15.78,15.78,0,0,0-5.37,4.06.32.32,0,0,1-.17.06c-2.33.43-4.64,1-7,1.25s-4.78-.32-6.73.53a13.77,13.77,0,0,1-6.72.76A16.5,16.5,0,0,1,43,223.28C42.37,223,42,221.86,41.7,221c-.82-2.58-1.51-5.2-2.25-7.8,0-.12-.07-.23-.09-.35-.52-2.93-1-5.89-1.57-8.8s-1.48-5.94-2.21-8.92a4.58,4.58,0,0,1-.18-1.42,9.48,9.48,0,0,0-2.37-7,1.6,1.6,0,0,1-.18-.84c-.24-2.63-.57-5.27-.86-7.86a65.54,65.54,0,0,1,0-16.85c.58-3.87.45-7.68.87-11.5.38-3.39.49-6.89,1.52-10.08.7-2.14.63-4.25,1.09-6.33.56-2.59,1.63-5.07,2.2-7.65.83-3.72,3.1-6.79,4.3-10.35a57.92,57.92,0,0,1,3.58-7.92,39.73,39.73,0,0,1,3.89-6.54c2.21-2.83,4.8-5.35,7.16-8.06s4.64-5.54,7-8.28a57.79,57.79,0,0,0,4.12-4.63c1.28-1.88,2.15-4,3.24-6a9.14,9.14,0,0,1,1.75-2.56c.21-.18,1.35.69,2,1.1,1.56.9,3.15,1.75,4.64,2.76C81.25,76.32,83,77.62,84.75,79c1.86,1.52,3.59,3.18,5.4,4.76,1.63,1.42,3.26,2.84,4.92,4.2,1.45,1.18,3.08,2.17,4.4,3.47,2.63,2.58,5.55,4.89,7.25,8.34a12.41,12.41,0,0,0,2.9,3.13c1.27,1.18,2.24,2.23,2.14,4.3-.14,2.72-.94,5.27-1.28,7.9a23.79,23.79,0,0,0,.18,8.75c.66,2.53.56,5,1.11,7.5.45,2,1.55,3.94,2.2,6,.58,1.8.84,3.71,1.39,5.52.63,2.13,1.38,4.22,2.16,6.29a38.32,38.32,0,0,0,1.76,3.93c.27.54.81.94,1.1,1.47,1.38,2.46,2.68,5,4.07,7.42,1,1.7,2.06,3.35,3.1,5a2.75,2.75,0,0,1,.34.63c.51,1.82.93,3.66,1.51,5.46.71,2.15,1.55,4.26,2.32,6.39a41.46,41.46,0,0,0,1.54,4.12c.77,1.57,1.78,3,2.66,4.53s1.56,2.78,2.32,4.17c.16.29.19.77.42.9,1.28.74.66,1.56,0,2.17-1.92,1.91-3.92,3.72-5.89,5.58-1.6,1.51-3.13,3.1-4.81,4.51a7.82,7.82,0,0,1-3,1.58,69.49,69.49,0,0,1-7,1.32c-1.29.18-2.68-.15-3.94.15-2.32.55-4.59,1.35-6.85,2.13-1.47.5-2.9,1.1-4.33,1.71a7,7,0,0,0-2.58,1.35c-1.12,1.31-2.56,1-3.93,1.27-.86.14-1.7.42-2.55.63a2.35,2.35,0,0,1-.84.16c-1.68-.28-3.34-.62-5-.89a3.18,3.18,0,0,1-2.27-4.19,4.1,4.1,0,0,0,.22-1.57c.09-9.83.1-19.67.29-29.5A26.43,26.43,0,0,1,88.46,170a1.36,1.36,0,0,0,.07-.35c.52-2.77.92-5.57,1.61-8.3a44.28,44.28,0,0,1,2-5.23c.07-.16.24-.31.23-.46-.17-4,2-7.71,1.17-11.76-.46-2.24-.59-4.56-1.2-6.76-.39-1.39-1.42-2.59-2.07-3.93A9.47,9.47,0,0,1,89.84,131.1Zm18.75-14,.58-.33c-.12-1.11.16-2.5-.42-3.26a54.07,54.07,0,0,0-5.08-5.42c-2-2-4.19-3.81-6.09-5.89s-2.68-2.37-5-1.11ZM61.7,180.56a35.3,35.3,0,0,1,.79-3.54c.59-1.77,1.27-3.52,2-5.25a43.78,43.78,0,0,1,2.32-5.12,31,31,0,0,1,2.69-3.55c-1.71-.72-1.62-.61-2.68.32a11.24,11.24,0,0,0-2.65,3.65c-1.42,2.86-3.13,5.56-3.53,8.82,0,.35-.57.62-.63,1a18.09,18.09,0,0,0-.31,3.43A11.68,11.68,0,0,0,61.7,180.56Zm56.4,2a5.85,5.85,0,0,0-.56-1.43,62.83,62.83,0,0,0-5.1-5.7c-2.39-2.16-3.2-5.18-4.8-7.76a4.14,4.14,0,0,0-1.45-1.23c-.15-.09-.82.25-.82.38a4.32,4.32,0,0,0,.32,1.87c.6,1.18,1.37,2.28,2,3.43s1.11,2.17,1.81,3.15c1.47,2.08,3.81,3.43,4.8,6,.32.84,1.63,1.35,2.57,1.86C117.14,183.24,117.69,182.77,118.1,182.56ZM70,83.61c1,.62,1.91,1.2,2.82,1.83s1.53,1.09,2.25,1.68c1.61,1.33,3.12,2.79,4.82,4,.58.41,1.61.17,2.43.23-.13-.77,0-1.84-.45-2.26-1.21-1.12-2.7-1.93-4-2.93-2.11-1.59-4.17-3.23-6.3-4.89ZM78.7,123.2h2.46c-.4-1.37.58-2.75-1-3.81-1.76-1.19-3.27-2.75-5-4a12.79,12.79,0,0,0-2.53-1.12c-.47,2.27,0,2.71,1.8,3.91S78.52,120.24,78.7,123.2ZM56,197.15c-.23,1-.43,2-.71,3.06-.37,1.38-.8,2.74-1.21,4.12l.78.39c.31-.34.76-.62.91-1a39.07,39.07,0,0,1,1.55-4.21C58.25,197.74,58.14,197.32,56,197.15Z"/><path class="cls-1" d="M28.79,311.6a48.41,48.41,0,0,1,.42-6.12c.48-2.66,1.36-5.24,2-7.87a16.89,16.89,0,0,0,.25-2.14c.23-2.09-.19-4.25,1.1-6.23.48-.73.18-2,.19-3,0-7.25,0-14.51.1-21.76,0-2.7.54-3.25,3.06-4a12.35,12.35,0,0,0,2.55-1.32c1.94-1.11,3.91-2.18,5.79-3.4,1.42-.92,3.08-.21,3.64,1.55a69.57,69.57,0,0,0,2.81,7.88c.91,2,2.4,3.71,3.45,5.65a24.79,24.79,0,0,1,1.34,3.74,35,35,0,0,0,1.59,4.37c.82,1.61,2,3.06,2.89,4.62.73,1.21,1.32,2.52,2,3.73,1,1.56,1.91,3.12,3,4.59.89,1.22,2,2.25,2.94,3.46a2.16,2.16,0,0,1,.32,1.69,37.63,37.63,0,0,1-1.57,4.05c-.69,1.6-1.46,3.17-2.14,4.77-.82,1.93-1.58,3.89-2.36,5.84a2.67,2.67,0,0,0-.16.69c-.48,3.92-.93,7.84-1.49,11.75-.11.79-.52,2-1.05,2.16-.76.23-1.76-.34-2.65-.58-.16,0-.28-.22-.44-.25-2.1-.44-4.19-1-6.32-1.26-4.7-.53-9.49-.54-14.1-1.47-2.09-.42-4.78-.44-6.29-2.59A6.56,6.56,0,0,1,29,318a7.6,7.6,0,0,1-.16-1.79C28.77,314.86,28.79,313.49,28.79,311.6Zm14.15-4.87c1.7.64,5.58-.22,6.37-1,1.51-1.5,3.15-2.89,4.52-4.51.86-1,2.64-1.88,1.27-4.1a15.47,15.47,0,0,0-1.86,1.47c-1.87,2-3.15,4.56-6.18,5.37C45.68,304.32,44.54,305.61,42.94,306.73Z"/><path class="cls-1" d="M164.09,139.9c-.65-2.18-1.13-4.07-1.79-5.89a66.84,66.84,0,0,0-2.68-6.42c-1-2-5.5-2.61-7.37-1.13-.22.17-.43.43-.68.48-3,.52-6,.92-8.94,1.53a37.61,37.61,0,0,1-9.09,1.21c-3.83-.14-7.66,0-11.49-.11-2,0-5-2.74-5.48-4.71a3.31,3.31,0,0,0-.63-1.22c-.91-1.16-2.11-2.13-1.88-3.88,0-.39-.36-.83-.48-1.28-.21-.75-.75-1.81-.44-2.24,1.52-2.12.59-4.5,1-6.72.5-2.75.94-5.51,2.35-8a30.22,30.22,0,0,0,1.29-3.33,9.83,9.83,0,0,1,5.94-5.41c2.46-1,4.76-2.35,7.16-3.5a3.54,3.54,0,0,1,1.38-.28c1.68-.06,3.36,0,5-.15a19.43,19.43,0,0,0,2.53-.62,3.55,3.55,0,0,1,1.74-.17A44,44,0,0,0,146.31,90c2.31.54,3.78,2.06,5.18,3.7,2.49,2.88,4.9,5.81,7.3,8.77a44.41,44.41,0,0,1,3.33,4.54,11.89,11.89,0,0,1,1.4,3.51c1,4.34,2.09,8.77,1.14,13.18a30.9,30.9,0,0,0-.84,5.48,12.31,12.31,0,0,0,2.13,7.1c.32.52-.15,1.64-.45,2.41C165.34,139.09,164.76,139.34,164.09,139.9Z"/><path class="cls-1" d="M129.3,64.37c-2.16,1.23-4.21,2.09-5.8,3.47-.73.63-.5,2.32-.83,3.5s-.51,2.76-1.34,3.46a5,5,0,0,0-2,4.07c0,.95.16,2.13-1.17,2.71-.32.14-.26,1.21-.32,1.85-.25,2.81-2.75,4-5.11,2.5a4.84,4.84,0,0,0-5.13.22,32.45,32.45,0,0,1-3.43,1.41c-.6.28-1,1-1.61,1.2-1.06.41-1.76-.06-2.81-.74-3.42-2.2-6.1-5.2-9.18-7.73-2.43-2-4.85-4-7.18-6.1-1.35-1.21-3.18-1.87-4.74-2.85-.94-.58-1.8-1.3-2.7-2a3.69,3.69,0,0,0-.94-.63,2.24,2.24,0,0,1-1.68-2.22c-.17-1.36-.73-2.68-1-4a4.17,4.17,0,0,1,.35-1.56c.66.17,1.34.29,2,.52s1,.57,1.54.81a23.66,23.66,0,0,1,2.42,1c1,.61,8.81.8,9.72,0,1.31-1.16,2.9-2.36,2.65-4.32a9,9,0,0,0-1.59-4c-1.8-2.47-.69-7.82,2.08-9.06,1.39-.61,3.59.67,3.48,2.28-.12,1.85,1.2,3,1.76,4.47.14.37,1,.62,1.54.66,1.31.1,2.64,0,4,.08,4.27.33,4.76-2.52,3.92-5.61a32.29,32.29,0,0,1-.82-3.66c-.21-1.34.3-2.16,1.82-2.15a84.58,84.58,0,0,0,9.69-.1,25.77,25.77,0,0,0,6.59-2c1.34-.55,2.25-.27,2.27,1.22,0,2.76,0,5.51,0,8.27,0,2.13,1,3.93,2,5.76A13,13,0,0,1,129.3,64.37Z"/><path class="cls-1" d="M114.52,128.37c1.49,1,3,2,4.49,2.89a5.31,5.31,0,0,0,2.39.85c5.86,0,11.73.19,17.57-.15,2.5-.14,4.9-1.55,7.42-2.05,3.14-.62,6.36-.92,9.55-1.29a1.28,1.28,0,0,1,1,.52c.59,1.23,1.05,2.52,1.57,3.78.76,1.85,1.67,3.65,2.27,5.55.75,2.38,2.38,4.65,1.5,7.33-.61,1.86-1.45,3.65-2.17,5.48a2.45,2.45,0,0,0-.23,1c.13,2.25-1,4-2.21,5.7a.88.88,0,0,0-.21.49c.33,2.82-2.15,3.09-3.73,4.23-1.82,1.33-3.48,2.87-5.27,4.23a10.78,10.78,0,0,1-3.26,2,7.13,7.13,0,0,0-3.2,2.12c-2.37,2.41-6.59,2-9-.24-1.95-1.79-2.49-4.17-3.77-6.22a38.7,38.7,0,0,1-3.47-6.08c-1.16-2.92-3.2-5.2-4.8-7.8a24.41,24.41,0,0,1-1.88-5c-.81-2.46-1.6-4.93-2.33-7.42-.56-1.9-1-3.83-1.52-5.73-.39-1.33-.9-2.63-1.36-3.94Z"/><path class="cls-1" d="M102.52,277.42c-2.74,1.66-5.11,3.07-7.46,4.51-2.14,1.31-4.29,2.59-6.37,4-2.6,1.75-5.13,3.6-7.7,5.4a16.08,16.08,0,0,1-2.91,1.95,31.33,31.33,0,0,1-4.8,1.46c-2.41.57-3.57-1.31-4.75-2.79a46.93,46.93,0,0,1-2.87-4.66c-1.2-1.93-2.46-3.81-3.65-5.75s-2.42-3.9-3.44-5.94c-.71-1.41-1.07-3-1.64-4.48-.51-1.33-1-2.68-1.65-4-1.07-2.16-2.91-3.83-3.5-6.34a49,49,0,0,0-2.42-6.24A2,2,0,0,1,50.6,252a14.26,14.26,0,0,1,4.92-1.52c5.44-.28,10.9-.25,16.35-.41a6.7,6.7,0,0,0,2.33-.64c1.67-.69,2.45-.29,3.15,1.28,1,2.21,2.15,4.34,3.29,6.48a52.63,52.63,0,0,0,3.13,5.47,23.54,23.54,0,0,0,3,3A12.55,12.55,0,0,0,88,267c2.2,1.61,4.38,3.26,6.71,4.67.77.46,2,.19,2.94.33a11.41,11.41,0,0,1,3.65.76C103.61,274,102.53,276.16,102.52,277.42Z"/><path class="cls-1" d="M241.05,303.17a2.49,2.49,0,0,1-2.58-2.09,15.69,15.69,0,0,0-2.41-4.48,64.25,64.25,0,0,0-5.25-6.7c-1.06-1.16-1.73-2.45-.9-3.53a6.7,6.7,0,0,1,1.44-1.56c2.19-1.54,3.42-3.82,4.8-6,.29-.45.8-.75,1.14-1.18,3.09-3.87,6.06-7.82,9.26-11.59,1.73-2,3.85-3.72,5.76-5.6a9.16,9.16,0,0,0,1.42-1.8c.69-1.17,1.65-.71,2.28-.21,2.85,2.24,5.36,5,8.44,6.82,4.9,2.86,8.35,7.23,12.52,10.84,1.44,1.25,3.34,2.29,4.16,3.88,1.41,2.74,4.21,4.42,4.94,7.82a23,23,0,0,1,.7,6.38,46.71,46.71,0,0,1-1.38,7.56c-.17.7-1,1.25-1.41,1.76-1.69-.82-3.32-1.58-4.92-2.4a18.28,18.28,0,0,1-1.83-1.23c-2.4-1.62-4.85-3.18-7.18-4.89-2.64-2-5.18-4-7.78-6-3-2.36-6.11-4.68-9.15-7-1.11-.87-2.16-1.8-3.22-2.72s-1.72-.31-2.28.46a6.26,6.26,0,0,0-1.07,2.22c-.55,2.33-.88,4.71-1.47,7-.67,2.66-1.53,5.26-2.3,7.89-.07.23-.07.48-.14.7Q241.85,300.34,241.05,303.17Z"/><path class="cls-1" d="M60.4,247.78a28.26,28.26,0,0,0-5.37.07,20.71,20.71,0,0,0-4.9,2c-1.79.87-3.5,1.9-5.26,2.85a75.75,75.75,0,0,0-7.6,4.23A4.86,4.86,0,0,1,34.15,258a4.3,4.3,0,0,1-3.94-2.94,10.06,10.06,0,0,0-1.71-3.28,1.84,1.84,0,0,1-.09-2.89,1.8,1.8,0,0,0,.33-1.46,12,12,0,0,0-1.48-3.33,3,3,0,0,1,0-4,2.78,2.78,0,0,0,0-2.51c-1.24-1.84-1.12-5.73.19-7.63.49-.71.23-1.92.38-2.89.2-1.27-.67-2.7.74-3.81a3.72,3.72,0,0,1,4-.38,7.8,7.8,0,0,0,1.69.76c2.11.78,4.24,1.53,6.36,2.3.06,0,.11.06.16.07,4.54.59,9.15,2.74,13.59,1.15,3.93-1.4,7.8-.43,11.63-1.11a1.88,1.88,0,0,1,1.42.91,6.16,6.16,0,0,1,.77,2.34,17.12,17.12,0,0,0,2.55,7.31,29,29,0,0,1,1.47,3.78,39.86,39.86,0,0,0,1.91,3.88c.64,1.12.36,2.13-.89,2.28-3.36.4-6.73.72-10.1,1-.89.08-1.79,0-2.69,0Z"/><path class="cls-1" d="M354.89,490.36c1.13,2.73,2,4.94,2.95,7.16a1.89,1.89,0,0,1,.09.34c.52,2.27.94,4.57,1.59,6.81.53,1.82,1.34,3.55,2,5.33a2.38,2.38,0,0,1,.15.52c.52,2.55.93,5.13,1.58,7.66a28.19,28.19,0,0,0,2,5.43c.83,1.69.45,6.36-.71,7.87s-2.34.67-3.54.48a17.4,17.4,0,0,1-2.51-.71c-.64-.2-1.24-.56-1.89-.7a3.08,3.08,0,0,0-1.94,0,5.6,5.6,0,0,1-5.77.14,33.31,33.31,0,0,1-4,1.75,2.21,2.21,0,0,1-1.75-.61,1.87,1.87,0,0,0-3,0,3.44,3.44,0,0,1-5.19-.71c-2.23-3.24-2.55-6.83-2.45-10.57a40.22,40.22,0,0,0,0-5c-.23-2.27-.71-4.51-1.08-6.76-.28-1.68,0-2.89,2.09-3A5.94,5.94,0,0,0,336,504.5c2.84-1.85,5.79-3.46,8.22-6s5.45-4.32,8.23-6.43C353.32,491.44,354.18,490.86,354.89,490.36Z"/><path class="cls-1" d="M101.24,362.3c.49,2.05.9,4.13,1.48,6.15.63,2.17,1.42,4.28,2.14,6.42,0,.11.15.2.17.31.52,2.39,1,4.8,1.57,7.19,2.52,10.62.79,21.36.91,32a26.73,26.73,0,0,1-1.3,9.09c-.89,2.53-.75,5-1.18,7.51-.56,3.21-1.41,6.37-2.13,9.56a2.19,2.19,0,0,0-.1.34c-.44,3.38-1,6.74-1.29,10.13-.57,5.6-1,11.21-1.58,16.81a2.34,2.34,0,0,1-2.36,2.36c-1.08,0-2.16.12-3.24.11-3,0-3.78-1.36-2.8-4.19a21.13,21.13,0,0,0,1-4.58c.57-5.24.57-10.59,1.72-15.68.89-3.89.4-7.69.85-11.5.49-4.16.48-8.46,1.58-12.45,1.46-5.26.2-10.58,1.12-15.75,1.23-6.94.94-13.92,1.18-20.9a19.31,19.31,0,0,1,.09-3.41c1.34-6.15.86-12.4,1.21-18.61a2.94,2.94,0,0,1,.33-.91Z"/><path class="cls-1" d="M39.91,523.84c1.49,1.47,3,3,4.54,4.44.67.6,1.63.86,2.35,1.42,1.44,1.11,2.8,2.32,4.2,3.48A14.15,14.15,0,0,1,53.18,535a41.53,41.53,0,0,1,4.07,5.66c1.2,2.12,1,4.06.93,6.13-.07,1.62-1.48,2-2.92,1.41-1.11-.43-2.19-1.45-3.79-.64a2.87,2.87,0,0,1-3.85-.6c-.4-.5-1.94-.41-2.81-.13a8.47,8.47,0,0,0-2.24,1.59c-2.38-.56-4.38-1.51-6.68.12-1.57,1.1-3.13-.39-4.43-1.25-1-.63-1.57-.81-2.47-.06a3.52,3.52,0,0,1-4.45-.32c-2.23-2.43-4.31-5-6.62-7.32-2.84-2.85-5.9-5.47-8.77-8.29a10.49,10.49,0,0,1-1.88-2.9c-.11-.22.55-1.17.84-1.17,2.33,0,4.91-.34,6.92.54,3.35,1.47,6.65.87,9.92.71,2.26-.11,4.47-1.32,6.69-2,.23-.07.45-.16.67-.21,2.07-.51,4.16-1,6.22-1.53A6.15,6.15,0,0,0,39.91,523.84Z"/><path class="cls-1" d="M144.82,261.07l2.94-1.45a86.91,86.91,0,0,1,6.35,6.94c2.07,2.73,4.84,4.51,7.58,6.27,1.64,1.05,3.83,1.25,5.78,1.82l6.78,2a5.77,5.77,0,0,0,.84.32c3.37.47,6.74,1,10.13,1.35,2.68.25,5.51-.25,8.05.43s5.34.31,7.75,1.77c.76.45,2,.06,3,.18a5.86,5.86,0,0,1,1.53.62,12.38,12.38,0,0,1-1,.93,34.22,34.22,0,0,1-8.13,4c-2.74,1.09-5.16,2.95-7.83,4.24-2.87,1.4-5.53,3.37-9,3.3-1.53,0-3.13,1-4.61.86-3-.35-6.17-.85-8.82-2.66a58,58,0,0,1-6.95-5,61.1,61.1,0,0,1-6.76-7.69c-.86-1.13-.72-3-1.57-4.14a7.87,7.87,0,0,1-1.27-3.28,16.89,16.89,0,0,0-1.36-3.09c-1.14-2.43-2.29-4.85-3.42-7.29A.9.9,0,0,1,144.82,261.07Z"/><path class="cls-1" d="M163.69,513c-1.64.5-3,1.3-4.39,1.25a54.53,54.53,0,0,1-11.09-1.09c-4.08-1-8.17-1.84-12.26-2.72-2.75-.6-5.64-.2-8.15-1.17a18.69,18.69,0,0,0-11.25-.58,40.24,40.24,0,0,1-8.33.87,6.33,6.33,0,0,1-3-.37c-1.34-.67-1.55-2.07-1.47-3.5.13-2.69.33-5.39.3-8.08,0-1.69.7-2.19,2.24-2.17,5.51,0,11,.15,16.53,0,3.25-.09,6.48-.68,9.73-1s5.51,1.6,8,3.13c1.2.74,2.51,1.32,3.78,1.95,1.44.73,2.88,1.46,4.35,2.15,1,.46,2,.85,3,1.24a54.24,54.24,0,0,1,7.36,2.93,7,7,0,0,1,3.49,3.07A7.27,7.27,0,0,1,163.69,513Z"/><path class="cls-1" d="M119.25,320.51c-.08.74-.16,1.44-.25,2.18-2.79-1.37-5.37-2.56-7.9-3.88s-3.9-4.14-6.8-5.13c-.8,2.39,1,3.1,2.08,4,2.08,1.67,4.24,3.26,6.47,4.71a21.28,21.28,0,0,0,3.77,1.67c.38.16.92.11,1.18.36.75.75,2.06,1.65,1,2.71-.57.56-2.11.51-3.05.21a17.36,17.36,0,0,1-4.28-2.1,20.81,20.81,0,0,1-3.48-2.88c-2-2-4-4-5.83-6.24a32.32,32.32,0,0,1-3.32-5.2c-1.3-2.45-2.48-5-3.6-7.52-1-2.26-1.57-4.78-2.86-6.84-1.48-2.37-2.9-5-6.31-6.06l7-4.7c1.06-.7,2.07-1.51,3.19-2.1a2.07,2.07,0,0,1,2.8.29c1.54,1.43,3.2,2.89,5.49,3.3a9.76,9.76,0,0,1,3.13,1.52c1.05.65,1.91,1.83,3,2.11a13.78,13.78,0,0,1,5.87,2.68,64.79,64.79,0,0,1,5.21,5.14c1,1.1,1.64,2.68,2.83,3.47s1.16,1.66.55,2.28c-.39.39-1.58.08-2.39-.05s-1.44-.65-2.14-.6c-1.83.11-3-.92-4.15-2-.78-.75-5.3-1-6-.34s-.49,4.2.39,4.56c3.55,1.46,6.32,4.86,10.7,4.33.4-.05,1.08.58,1.27,1,.13.28-.32,1-.68,1.28-1.42,1.24-2.65,1.42-4.48.17-2.51-1.71-5.48-2.75-8.23-4.11-1-.51-2-1.11-2.91-1.61-.6.77-.26,1.78,1.67,3,1.67,1.09,3.22,2.4,5,3.35a28.53,28.53,0,0,0,4.55,1.7c1.21.41,2.46.72,3.67,1.13.19.07.36.49.35.73s-.31.66-.44.64c-1.64-.2-3.44.88-4.91-.89a4.91,4.91,0,0,0-2.89-1.47c-1.59-.24-2.26-1.64-3.47-2.21-1.48-.7-2.92-1.31-3.87-2.73-.06-.09-.86.15-.86.2.05.66-.06,1.62.33,1.92,1.79,1.4,3.76,2.59,5.61,3.93,1.58,1.15,3,2.56,4.65,3.55C116.75,320.52,118,320.35,119.25,320.51Z"/><path class="cls-1" d="M178.51,325.15c.75-1.34,1.24-2.44,1.92-3.41a59.26,59.26,0,0,1,5.15-6.88,10.9,10.9,0,0,1,6.12-3.55,9.71,9.71,0,0,1,9.13,3.14c1.55,1.63,3.48,2.9,5.14,4.43,2,1.85,3.9,3.84,5.9,5.72s4.17,3.87,6.32,5.75c1.14,1,2.41,1.83,3.57,2.79.67.55.25,2.2-.61,2.22-2.78.07-5.66.9-8.26-.86-.23-.15-.58-.1-.87-.17-2.3-.51-4.64-.9-6.89-1.58a24.3,24.3,0,0,1-3.76-1.93,2.48,2.48,0,0,0-.65-.27,32.63,32.63,0,0,1-9.38-3.66,1.52,1.52,0,0,0-.53-.11c-3.66-.41-7.17-2-11-1.47A8.37,8.37,0,0,1,178.51,325.15Z"/><path class="cls-1" d="M227,289.52c1.72,2.12,3.49,4.14,5.09,6.29a48.58,48.58,0,0,1,3.76,5.79,26.14,26.14,0,0,1,1.59,4.53,46.81,46.81,0,0,1,2.13,7.28,60.48,60.48,0,0,1,.23,8.94,5.07,5.07,0,0,1-2,.12c-.48-.11-.87-.7-1.26-1.11-1.84-1.88-3.59-3.85-5.52-5.62-1.78-1.64-3.8-3-5.61-4.6-1.51-1.34-2.83-2.9-4.33-4.26-2.25-2-4.61-4-6.88-6-.45-.4-1.08-1.34-.93-1.55a4.29,4.29,0,0,1,2-1.83c2.78-.74,4.68-2.79,7-4.28,1-.66,1.95-1.36,2.9-2.07C225.62,290.81,226.05,290.37,227,289.52Z"/><path class="cls-1" d="M123.13,324.2c.15-2.08-.47-3.64.79-5.24.61-.78.31-2.3.4-3.49s-.25-2.25.9-3.24c1-.82.28-3.06-1.11-4.09,1.13-.69,2.21-1.28,3.21-2a2.11,2.11,0,0,0,.81-1.18,5.33,5.33,0,0,0-1.85-5.23,27,27,0,0,1-4.41-5.22c-.5-.85.08-2.4.29-3.6.1-.56.64-1,.74-1.6q.78-4.59,1.41-9.2a1.91,1.91,0,0,1,2.12-1.92c1,3.32,2.06,6.56,3.08,9.8.8,2.54,1.52,5.11,2.44,7.61a21.38,21.38,0,0,0,1.89,3.26,2.57,2.57,0,0,1,.34.6c.53,2,1,4.07,1.57,6.07.42,1.42,1,2.78,1.52,4.17.36,1,.66,2.06,1,3.08a4,4,0,0,0,.5,1.25c.81,1.06.63,1.7-.54,2.39-1.83,1.09-3.52,2.42-5.31,3.58a15.5,15.5,0,0,1-2.55,1.26c-1.44.57-2.91,1-4.35,1.6C125.15,323.21,124.32,323.65,123.13,324.2Z"/><path class="cls-1" d="M81.67,294.36c.72-1.78,2-2.76,3.72-1.89a8.51,8.51,0,0,1,3.12,3,72.58,72.58,0,0,1,3.82,7.19c.64,1.32,1,2.8,1.58,4.13,1,2.11,2.21,4.1,3.12,6.24a25,25,0,0,0,4.46,6.28c1.79,2.07,3.79,4,5.69,6l.75.81a4,4,0,0,1-1,.63c-4.46,1.41-9.07,1.33-13.67,1.24-2.9-.06-4-1.15-4.42-4.07-.06-.47,0-1-.1-1.43-.47-3.62-.78-7.27-1.47-10.85-.44-2.32-1.55-4.51-2.14-6.81-.4-1.58-.33-3.18-1.25-4.72A34.13,34.13,0,0,1,81.67,294.36Z"/><path class="cls-1" d="M99.17,473c-.5,1.78-1,3.33-1.35,4.9-.13.51-.11,1.05-.21,1.58-.38,2.16-.72,4.34-1.22,6.48-.08.33-.9.6-1.41.7-1.73.36-3.47.69-5.22.89-.49.06-1.05-.56-1.55-.53-1.62.13-3.23.46-4.85.64-1.36.16-2.73.21-4.09.33a20.44,20.44,0,0,0-4.93.87c-2.32.77-5.08.31-7.64.21-.87,0-1.43-2.38-.65-3.21,1.76-1.88,3.39-3.88,6.27-4.36,1.69-.28,3.25-1.37,4.87-2.1.92-.41,1.83-.84,2.76-1.25,1.22-.52,2.41-1.37,3.66-1.48,2.61-.22,4.31-2,6.43-3.12.3-.15.56-.52.84-.52C93.45,473,96,473,99.17,473Z"/><path class="cls-1" d="M147.8,320.4a30.93,30.93,0,0,1-1.72-4.41,3.39,3.39,0,0,1,.72-2.2c1.32-2,3.73-2.46,5.44-3.88.68-.56.89-1.75,1.19-2.7a16.67,16.67,0,0,0,.45-2.34,16.11,16.11,0,0,1,3.06.62c1.47.59,2.84,1.44,4.28,2.13,1.08.52,2.44.73,3.23,1.53a2.88,2.88,0,0,1,.09,2.74,31.18,31.18,0,0,1-3.86,4.45,37.58,37.58,0,0,1-3.35,3,3.78,3.78,0,0,1-1.79,1.06C152.86,320.47,150.17,320.4,147.8,320.4Z"/><path class="cls-1" d="M149.48,290.85a4.75,4.75,0,0,1-2.44-4.08c-.07-1.1-.89-2.14-1.33-3.23-.86-2.15-1.64-4.34-2.55-6.47A33.05,33.05,0,0,0,141,273c-1.06-1.76,0-5.2,1.92-5.93.92-.35,1.44-.32,1.77.91.39,1.47,1.4,2.78,1.87,4.24a30.54,30.54,0,0,0,2.9,6,13.45,13.45,0,0,1,1.3,4.8c.16,1.09.53,2.38-.79,3.25-.27.18-.18.9-.23,1.37C149.67,288.61,149.59,289.6,149.48,290.85Z"/><path class="cls-1" d="M33.93,200.82a31,31,0,0,0,1.48,5.38c1.21,2.56.7,5.4,1.57,7.87a26,26,0,0,1,1,4.5,10.72,10.72,0,0,0,.46,1.13c.2.65.35,1.33.59,2.29-3-.84-5.43-1.5-7.85-2.25a1.39,1.39,0,0,1-.79-1c-.07-2.81-.2-5.63,0-8.42.1-1.39.92-2.72,1.33-4.1s.79-3,1.19-4.55c.07-.26.17-.52.25-.77Z"/><path class="cls-1" d="M140.46,189.53c-3.92-4.11-5.42-9.1-7.59-14.23,1.18,0,1.87,0,2.56,0a11.33,11.33,0,0,0,7.15-2.13,2.79,2.79,0,0,1,1.86-.21c.16,0,.36,1,.23,1.43-.48,1.65-1.12,3.25-1.64,4.88-.37,1.14-.68,2.3-1,3.47C141.52,184.94,141,187.14,140.46,189.53Z"/><path class="cls-1" d="M110.52,274c-.68,1.4-1.35,2.81-2,4.21-.22.45-.5.88-.68,1.35-.54,1.46-1,3-1.61,4.36-.17.37-1,.4-1.61.59-.41-1.58-3.62-.59-2.9-3a3.55,3.55,0,0,1,2.1-1.68,2.14,2.14,0,0,0,1.51-1.95c.22-1.64,1-3.24,0-4.95-.27-.43.19-1.31.32-2,.74.18,1.49.34,2.22.54.33.1.64.38,1,.39C110.24,271.81,110.43,272.69,110.52,274Z"/><path class="cls-1" d="M121.47,306.44c-1.66,1.65-3.11,1.48-3.43-.18Z"/><path d="M131.26,418.14c.86.83,1.79,1.61,1.8,3.05a57.53,57.53,0,0,1,0,7.88,53.69,53.69,0,0,1-2,7.47,3.07,3.07,0,0,0-.2.68,31.56,31.56,0,0,1-1.32,8.88c-.73,2.53-1.85,5.06-1.47,7.84,0,.24-.43.56-.66.85-.57-.55-1.62-1.1-1.61-1.63,0-1.6-.92-3.47.88-4.76.08-.06.09-.22.11-.33.48-2.84.86-5.69,1.48-8.5s1.46-5.33,2.18-8a7.14,7.14,0,0,0,.2-1.59c0-2.76,0-5.51,0-8.26v-3.37Z"/><path d="M56.62,434c-2.23-1.92-4.52-3.67-6.53-5.69a21.73,21.73,0,0,1-3.27-4.59A31,31,0,0,1,45,419.2c-.22-.62-.56-1.48-.31-1.93s1.18-.5,1.39-.57c1.6,3.08,2.8,6.06,4.6,8.6,1.23,1.75,3.24,3,5,4.27,1.47,1.05,3.19,1.75,4.66,2.8a2.47,2.47,0,0,1,.55,1.93,2.08,2.08,0,0,1-.9,1.47c-1.62.92-3.32,1.68-5,2.5a.47.47,0,0,1-.17,0l-3-.15a14.93,14.93,0,0,1,1.84-2.31A23.82,23.82,0,0,1,56.62,434Z"/><path d="M117.52,336.2l.88-1.81c.35.44.68.9,1,1.32,1.27,1.44,2.52,2.9,3.85,4.27,1.62,1.66,3.24,3.33,5,4.82a27.76,27.76,0,0,0,3.57,2.16c1.56.94,3.15,1.85,4.61,2.92a1.66,1.66,0,0,1,0,1.62,1.58,1.58,0,0,1-1.57.21c-2.26-2.29-5.37-3.18-7.91-4.95a27.08,27.08,0,0,1-3.78-3.79c-1.52-1.57-3-3.12-4.5-4.74A12.16,12.16,0,0,1,117.52,336.2Z"/><path d="M32.33,455.1c.49,1.69.57,2.58-.48,3.68a14.88,14.88,0,0,0-2.67,4.48c-1.07,2.49-1.84,5.11-2.88,7.62-.24.57-1.09.89-1.86,1.48-.43-1.37-1.4-2.52.33-3.58.23-.14.32-.61.34-.93.14-2.14,1.32-3.77,2.28-5.59a30.69,30.69,0,0,1,2.77-4.9A30.32,30.32,0,0,1,32.33,455.1Z"/><path d="M19,505.11c1.89-1.18,3.73-2.42,5.66-3.52,1.4-.8,2.91-1.4,4.37-2.11a6.16,6.16,0,0,1,1.48-.73,10.08,10.08,0,0,1,2.12.07c-.23.62-.28,1.42-.71,1.84a10.37,10.37,0,0,1-5.59,2.76c-1.06.2-2,1.19-2.91,1.89C21.83,506.51,19.64,506.34,19,505.11Z"/><path d="M52.32,358.43c1.08,1,1.94,1.25,1.29,3.2a9.8,9.8,0,0,0,.54,8.4c.53.85.18,2.24.23,3.38l-.59.26c-.63-.86-1.75-1.69-1.8-2.57-.18-3.86-.06-7.73,0-11.6A4.67,4.67,0,0,1,52.32,358.43Z"/><path d="M126.05,369.81a16.51,16.51,0,0,1,2,10.59c0,.24-.3.66-.42.65-.29,0-.73-.21-.81-.44a13.46,13.46,0,0,1-.89-3.3C125.75,374.94,124.72,372.52,126.05,369.81Z"/><path d="M95,239.16c8.25,5.92,17.08,9.37,26.54,11.72.38,1.88.26,2.14-1.83,2a14.93,14.93,0,0,1-3.21-1c-.22-.07-.43-.15-.66-.21a41.1,41.1,0,0,1-5.65-1.47c-2.2-.88-4.23-2.17-6.36-3.23-1.12-.56-2.34-.92-3.43-1.52a25.63,25.63,0,0,1-5-3.16C94.81,241.78,95.12,240.24,95,239.16Z"/><path d="M199.41,245.3c1.88.16,3.86-.81,5.46,1,.1.11.34.1.51.13,2.82.5,5.75.66,8.42,1.59,2,.69,4.22.57,6,2,.7.57,2.19.12,3.31.24a6,6,0,0,1,1.47.55,8.62,8.62,0,0,1-1,1,4.47,4.47,0,0,1-5.6.24,2.79,2.79,0,0,0-.82-.34c-2.28-.5-4.59-.9-6.84-1.5-2.55-.67-5.06-1.53-7.59-2.28a7.09,7.09,0,0,0-1.78-.26C199.46,247.71,199.11,246.86,199.41,245.3Z"/><path d="M162.44,196.54c1.17-2.26,3.06-2.18,4.95-2.14,1.2,0,2.4-.08,3.59,0,4.44.42,7.11-2,9.24-5.49a2.17,2.17,0,0,1,1.38-.88c.38,0,1.21.47,1.19.66a3.18,3.18,0,0,1-.74,1.66,38.69,38.69,0,0,1-4.29,4.39,8.21,8.21,0,0,1-4,2c-3.51.27-7.05.06-10.58,0A2.17,2.17,0,0,1,162.44,196.54Z"/><path d="M173.78,165c-1.32.86-2.55,2.18-4,2.5-2.71.61-4.68,2.39-7,3.71-.61-1-.89-1.79.22-2.49s2.47-1.53,3.73-2.26a24,24,0,0,1,3.83-2.06,9.43,9.43,0,0,1,3-.06Z"/><path d="M243.71,367.82c.18-.39.3-1.27.76-1.52s1.17.33,1.75.6c1.18.55,2.37,1.08,3.49,1.73,1.41.83,2.76,1.78,4.14,2.67,1.87,1.23,3.69,2.53,5.61,3.66,1.72,1,3.58,1.73,5.32,2.69,2.78,1.54,5.44,3.3,8.28,4.69,1.2.59,2.86.36,2.08,2.56-1.3,0-2.52.55-3.78-.84-.85-.93-2.57-1-3.86-1.59a20.37,20.37,0,0,1-2.66-1.39c-1.64-1-3.22-2.16-4.88-3.14-1.12-.67-2.4-1.08-3.52-1.75-2.47-1.47-4.91-3-7.32-4.58C247.41,370.5,245.78,369.28,243.71,367.82Z"/><path d="M274,415.15c1.18-1.39,1.65-2.28,3.46-1.2,2.33,1.38,5.26,1.73,7.65,3,3,1.62,6.25,2.08,9.39,3.06a2.58,2.58,0,0,0,1.29-.17c2.13-.56,4.25-1.18,6.4-1.67a6,6,0,0,1,1.89.2c-.31,1.86-1.28,2.33-2.92,2.5a13.17,13.17,0,0,0-4.39,1.61,4.25,4.25,0,0,1-4.55,0,4,4,0,0,0-.95-.46c-3.18-1-6.44-1.71-9.52-2.91A82.84,82.84,0,0,1,274,415.15Z"/><path d="M312.32,477.42a6,6,0,0,1,6-.34,6.18,6.18,0,0,0,2.09.76c3.75.72,7.52,1.39,11.28,2a6.25,6.25,0,0,0,1.93,0c1.92-.25,3.83-.61,5.75-.8.35,0,1.11.61,1.07.76-.18.61-.53,1.55-.94,1.62-3.29.58-6.47,2-9.9,1.39-1.37-.26-2.69-.81-4.06-1.09-2.49-.52-5.07-.73-7.49-1.47A39.41,39.41,0,0,1,312.32,477.42Z"/><path d="M108.59,117.11l-16-16c2.32-1.26,3.19-.88,5,1.11s4.08,3.9,6.09,5.89a54.07,54.07,0,0,1,5.08,5.42c.58.76.3,2.15.42,3.26Z"/><path d="M61.7,180.56a11.68,11.68,0,0,1-2-.27,18.09,18.09,0,0,1,.31-3.43c.06-.35.59-.62.63-1,.4-3.26,2.11-6,3.53-8.82a11.24,11.24,0,0,1,2.65-3.65c1.06-.93,1-1,2.68-.32a31,31,0,0,0-2.69,3.55,43.78,43.78,0,0,0-2.32,5.12c-.72,1.73-1.4,3.48-2,5.25A35.3,35.3,0,0,0,61.7,180.56Z"/><path d="M118.1,182.56c-.41.21-1,.68-1.18.56-.94-.51-2.25-1-2.57-1.86-1-2.56-3.33-3.91-4.8-6-.7-1-1.2-2.1-1.81-3.15s-1.45-2.25-2-3.43a4.32,4.32,0,0,1-.32-1.87c0-.13.67-.47.82-.38a4.14,4.14,0,0,1,1.45,1.23c1.6,2.58,2.41,5.6,4.8,7.76a62.83,62.83,0,0,1,5.1,5.7A5.85,5.85,0,0,1,118.1,182.56Z"/><path d="M70,83.61l1.55-2.36c2.13,1.66,4.19,3.3,6.3,4.89,1.32,1,2.81,1.81,4,2.93.45.42.32,1.49.45,2.26-.82-.06-1.85.18-2.43-.23-1.7-1.19-3.21-2.65-4.82-4-.72-.59-1.48-1.15-2.25-1.68S71,84.23,70,83.61Z"/><path d="M78.7,123.2c-.18-3-2.48-3.85-4.24-5s-2.27-1.64-1.8-3.91a12.79,12.79,0,0,1,2.53,1.12c1.71,1.27,3.22,2.83,5,4,1.57,1.06.59,2.44,1,3.81Z"/><path d="M56,197.15c2.15.17,2.26.59,1.32,2.34a39.07,39.07,0,0,0-1.55,4.21c-.15.4-.6.68-.91,1l-.78-.39c.41-1.38.84-2.74,1.21-4.12C55.56,199.19,55.76,198.15,56,197.15Z"/><path d="M42.94,306.73c1.6-1.12,2.74-2.41,4.12-2.78,3-.81,4.31-3.37,6.18-5.37a15.47,15.47,0,0,1,1.86-1.47c1.37,2.22-.41,3.09-1.27,4.1-1.37,1.62-3,3-4.52,4.51C48.52,306.51,44.64,307.37,42.94,306.73Z"/></g></g></svg>