<svg xmlns="http://www.w3.org/2000/svg" viewBox="0 0 444.28 534.55"><defs><style>.cls-1{fill:#fff;}</style></defs><g id="Layer_2" data-name="Layer 2"><g id="Layer_1-2" data-name="Layer 1"><path class="cls-1" d="M5.52,486.3c.2.7.46,1.42.6,2.16.6,3.08-1.32,5.17-3,7.29s-3.45,4.46-3,7.52c.3,2.33.74,4.65,1.08,7,.4,2.75.7,5.52,1.17,8.26.33,1.87,1,3.69,1.28,5.56.5,3.35,1.62,4.2,4.92,4.36a63.6,63.6,0,0,1,7.82,1.25,2.7,2.7,0,0,1,.78.42c1.54.8,2.88,2.41,4.93,1,.32-.22,1.18,0,1.59.31a3.88,3.88,0,0,0,3.68,1,5.54,5.54,0,0,1,3.29.63,8.78,8.78,0,0,0,6-.55c2.86-1.73,1.73-5,3.14-7.31.05-.09-.12-.32-.17-.48a17.15,17.15,0,0,1-.66-2.48c-.24-2-.18-4-.59-5.86-.83-3.79-2.29-7.42.47-11.18,1.64-2.22,2.65-4.9,3.9-7.39.49-1,.77-2,1.34-2.95,1.51-2.42,3.18-4.74,4.67-7.17,1.79-2.9,3.53-5.84,5.15-8.84,1.38-2.55,2.5-5.24,3.84-7.82s2.8-4.87,4.08-7.37c1.43-2.78,3.11-5.48,3.37-8.72a4.73,4.73,0,0,1,.39-1.17c1-2.8,2.3-5.54,3.09-8.41.67-2.41.69-5,1.24-7.46,1-4.6,1.11-9.4,1.57-14.12.08-.77.08-1.55.13-2.33.14-2.19.71-4,2.93-5.16a10.1,10.1,0,0,0,3-2.8c1.36-1.69,2.43-3.61,3.83-5.25,1.08-1.25,2.7-2.06,3.71-3.36,2-2.53,3.45-5.43,5.48-7.88,1.9-2.29,4.06-4.33,5-7.25.09-.27.56-.39.82-.6.41-.34,1-.63,1.17-1.08,1.63-3.73,5.07-6.19,6.82-9.87.82-1.72,2.26-3.13,3.23-4.79s1.68-3.43,2.54-5.13c.4-.8,1-1.52,1.33-2.34.6-1.33,1-2.77,1.66-4,1.45-2.67,3.06-5.24,4.56-7.88a30.56,30.56,0,0,0,1.47-3.05c.59-1.37,1.08-2.78,1.67-4.14s1.46-2.9,2-4.4.85-2.87,1.31-4.3a1.06,1.06,0,0,1,.6-.49q2.19-.87,4.41-1.68c1.93-.72,3.84-1.57,5.83-2.1s2,1.4,2.77,2.4c1.27,1.73,2.31,3.62,3.63,5.3a56.87,56.87,0,0,0,4.11,4.54c1.48,1.51,3,2.95,4.56,4.44s3,3,4.53,4.47,2.9,2.59,4.42,3.79c2.06,1.61,4.19,3.13,6.27,4.71,1.38,1.05,2.7,2.19,4.1,3.22.82.6,1.8,1,2.63,1.61,2.29,1.65,2.56,4.4,3.28,6.78.63,2.08.44,4.34,1.21,6.54,1,2.78,1.15,5.85,1.67,8.8,0,.17.05.35.09.52.75,2.76,2,5.48,2.16,8.27.48,7.42-.19,14.89,1.34,22.26.53,2.53.34,5.12,1,7.73,1,4.15,1.15,8.53,1.5,12.82.18,2.26,0,4.56,0,6.83a31.68,31.68,0,0,0,.36,3.76c.26,1.92.62,3.82.88,5.74a6.57,6.57,0,0,1,0,2c-.44,2.57,1,4.72,1.6,7a8.8,8.8,0,0,0,1.76,2.95,9.14,9.14,0,0,0,4.61,3c.28.09.7.45.68.65-.16,1.48-.39,2.94-.63,4.41-.32,2-.82,4-1,6-.09,1.33.65,2.76.43,4.05-.5,3,1.67,4.35,3.27,6,.8.82,2.32.89,3.39,1.51a8.76,8.76,0,0,0,7.25,1.13c1.13-.34,2.36-.33,3.53-.57,2.85-.6,5.66-1.48,8.54-1.81,1.66-.18,3.4.63,5.13.73,2.87.18,5.75.14,8.63.22.53,0,1.22-.08,1.57.21,2.17,1.75,4.92,1.68,7.39,2.18a28.73,28.73,0,0,0,11,.26,7.38,7.38,0,0,0,3.63-1.24c2.46-1.89,2.38-4.36,1.8-6.68-.32-1.29-2-2.3-3.16-3.31a34.32,34.32,0,0,0-3.21-2.18,12,12,0,0,1,1.3-.41c6.18-.87,12.19.36,18.19,1.55a1.43,1.43,0,0,1,.34.14,7.77,7.77,0,0,0,8.21-1.07c2.53-2.19,3.44-5.14,3.65-8.24.24-3.52.06-7.07,0-10.61,0-2.82-.07-2.79,2.62-3.13.74-.09,1.84-.23,2.08-.7a12.86,12.86,0,0,0,1.38-4.28c.53-5-.19-10.07,1.24-15.1,1.11-3.92-.06-8.12,1.15-12.29,1.13-3.9.57-8.22,1.28-12.39,1-5.88.82-12,1.31-17.93.37-4.51,1.08-9,1.45-13.49.22-2.62-.07-5.28.11-7.9a63.93,63.93,0,0,1,1-7.67,53.23,53.23,0,0,1,1.67-6,9.14,9.14,0,0,1,1.24-2.62q3-4.08,6.07-8a1.72,1.72,0,0,1,1.35-.66,1.84,1.84,0,0,1,.91,1.24,20.77,20.77,0,0,0,.46,3,50,50,0,0,1,2.24,8.54c.57,2.5.93,5,1.4,7.56,0,.22.24.4.32.62.68,1.79,1.34,3.58,2,5.37.33.89.63,1.8,1,2.67.47,1.16,1,2.3,1.49,3.45.66,1.53,1.24,3.09,2,4.59,1.41,2.94,2.81,5.9,4.36,8.77a63.88,63.88,0,0,0,3.52,5.59c.82,1.21,1.9,2.26,2.68,3.5a29,29,0,0,0,4.74,6.5c1,.92,2.41,1.89,2.69,3.07.51,2.11,2.15,3.09,3.42,4.4a46.81,46.81,0,0,0,4.85,4,20.21,20.21,0,0,0,3,2.33c3,1.6,4.44,4.57,6.33,7.14,1.63,2.23,3.19,4.51,4.92,6.66,1.16,1.44,3.07,2.48,3.75,4.07,1.33,3.12,4.81,4.69,5.45,8.16,0,.09.21.13.27.23l4.08,6.26a4.41,4.41,0,0,1,3.21,3.1,4.28,4.28,0,0,0,1.21,1.88,15.38,15.38,0,0,1,4.9,7.55,4.1,4.1,0,0,0,.74,1.18c1.37,1.87,2.85,3.67,4.09,5.61,1.13,1.76,2,3.71,3,5.51s2.39,3.81,3.61,5.7a3.19,3.19,0,0,0,.71.71c.92.77,1.82,1.54,2.77,2.26,1.6,1.19,2.89,2.89,5.16,3,.92,0,2.27-.3,2.33,1.26,0,1.06.23,2.47-.34,3.13a96,96,0,0,1-6.84,7c-.71.67-2,.8-2.55,1.53-2.13,2.93-5.12,4.57-8.24,6.13a7,7,0,0,0-2.21,1.87c-1,1.28-1.83,2.73-2.83,4A3.19,3.19,0,0,0,382,527c.56.64,1.39,1.18,1.64,1.92.81,2.37,2.91,2.57,4.81,3.15.4.12.89.08,1.2.31a11.83,11.83,0,0,0,6.11,2c2,.18,4.07.11,6.11.1a8,8,0,0,0,2-.24c2.67-.74,5.33-1.52,8-2.3,1.56-.45,3.14-.84,4.65-1.43s3.15-1.48,4.75-2.17c1.3-.56,2.63-1,3.95-1.54,1.9-.75,3.74-1.91,5.7-2.2,3.63-.54,6.84-1.27,10-3.64s3.29-5.39,3.44-8.66c.2-4.09-2.72-6.8-4.52-10-1.21-2.15-3-4-4.45-6-1-1.39-1.6-3.16-2.83-4.26-3.21-2.87-4.88-6.51-6.09-10.47a3.51,3.51,0,0,0-.34-1c-1.18-1.75-.55-3.43,1.48-3.67,1.43-.18,3,0,2.94-2.18,0-.11.31-.22.34-.35A4.33,4.33,0,0,0,431,473c-.08-.41-.48-.76-.69-1.16a38.36,38.36,0,0,0-1.79-3.5c-1-1.53-2.26-2.87-3.19-4.43a52.17,52.17,0,0,1-2.61-5.37c-.57-1.26-.71-2.88-1.59-3.81-2.08-2.17-3-4.92-4.38-7.46-1.48-2.79-2.7-5.72-4.06-8.57-.31-.64-.85-1.16-1.13-1.8-.55-1.23-.89-2.56-1.49-3.76-1.18-2.37-2.47-4.69-3.73-7-.65-1.21-1.4-2.37-2-3.6s-1.13-2.43-1.63-3.67-.9-2.87-1.57-4.2c-1-2.07-2.28-4-3.43-6.06-1.76-3.09-3.46-6.21-5.27-9.27-1.64-2.79-3.39-5.52-5.08-8.29-.54-.89-1-1.85-1.52-2.73-1-1.58-2.14-3.1-3.1-4.71s-1.88-3.59-2.91-5.33c-1.92-3.27-3.93-6.49-5.88-9.74a49.59,49.59,0,0,1-3.37-5.86c-.66-1.55-2.21-2.8-1.79-4.77a2.16,2.16,0,0,0-.07-1.07c-.73-2.09-1.66-4.14-2.22-6.27-.63-2.37-.92-4.82-1.4-7.23-.44-2.22-.94-4.42-1.42-6.64,0-.11-.12-.2-.15-.32-.75-2.66-1.56-5.31-2.2-8s-1-5.15-1.53-7.73a.7.7,0,0,0-.13-.32c-1.51-1.5-.7-3.31-.9-5,3-.71,4.26-2.41,3.49-4.62-.26-.74-.94-1.48-.88-2.18.35-4,.86-7.9,1.32-11.85a.85.85,0,0,1,0-.17c1.41-3.24,1.7-6.75,2.36-10.16.49-2.6,1.68-5.07,1.39-7.81,0-.16.12-.33.17-.5.71-2.75,2-5.5,2-8.26.08-5,.55-10-.63-15.1-.76-3.24-1-6.5-3-9.3-1.2-1.64-2.23-3.39-3.21-4.89a18.3,18.3,0,0,1,1.13-3.82,15.53,15.53,0,0,0,2.15-7.3c.14-4.77.38-4.88-1.44-8.18a6.6,6.6,0,0,1-.84-3.85c.08-1.65,1.46-3.68,2.61-3.75,1.95-.11,3.26-1.45,4.86-2.24a4,4,0,0,1,3.43,0,16.5,16.5,0,0,1,3.25,3.72c.76,1,1.2,2.11,2.7,2.34a8.42,8.42,0,0,1,2.87,1.3c2.14,1.3,4.31,2.41,6.92,2.35a5.72,5.72,0,0,1,2.79.39c2,1.11,5.73,1.14,7.39-.34a32.71,32.71,0,0,0,2.83-3.16c.11-.12,0-.37.14-.52.72-1.34,1.4-2.7,2.2-4,.93-1.52,2.08-2.93,2.93-4.49a29.69,29.69,0,0,0,2.75-5.46c.73-2.39,2.27-4.52,3.4-6.79a28.41,28.41,0,0,0,1.32-3.35c.55-1.58.69-3.42,1.62-4.7,1.5-2.06,1.44-4.52,1.93-6.68.76-3.31.35-6.92.16-10.38a13.28,13.28,0,0,0-1.38-4.42,27,27,0,0,0-2.34-4c-1.13-1.66-1.71-3.56-3.22-5.11-2.21-2.26-3.83-5.11-5.64-7.76-.59-.87-.74-2.2-1.5-2.78-2.88-2.2-3.86-5.72-6.13-8.34-2-2.31-3.76-4.83-5.66-7.23-.92-1.17-1.94-2.26-2.85-3.43-1.48-1.9-3-3.78-4.34-5.75-1.2-1.74-2.22-3.61-3.32-5.42-.64-1.06-1.34-2.08-1.92-3.17s-1.15-2.35-1.65-3.55c-.62-1.48-1.12-3-1.75-4.49-1.08-2.52-2.31-5-3.32-7.52-.84-2.1-1.95-3.77-4.24-4.47a25.87,25.87,0,0,1-3.34-1.44c-2.37-1.12-4.71-2.29-7.09-3.39-1.29-.59-2.64-1-3.94-1.63-.88-.39-1.72-.86-2.56-1.32a27.67,27.67,0,0,0-3.6-2c-1.91-.68-3.91-1.07-5.87-1.62-.25-.07-.42-.38-.67-.5a18.11,18.11,0,0,0-3.88-1.74,3.31,3.31,0,0,1-2.57-1.87,19,19,0,0,0-1.38-3.07c-.81-1.11-1.95-2-2.87-3-1.3-1.46-2.62-3-2-5.18a18.14,18.14,0,0,0,1.08-3.61,77.61,77.61,0,0,0,.18-9.52c-.22-3.93-.8-7.83-1.25-11.74a2.88,2.88,0,0,0-.37-.94c-.67-1.29-1.35-2.58-2.06-3.85s-1.36-2.55-2.15-3.75c-1.29-1.94-2.67-3.82-4-5.74a62.86,62.86,0,0,0-4.66-6.58A74.14,74.14,0,0,0,310.17,16c-3.49-3-7.72-4.17-12.16-4.63a39.4,39.4,0,0,0-4.86,0c-1,0-2-.35-2.66.92-.1.21-1.23-.07-1.88-.15a5,5,0,0,0-1.34-.23c-.9.16-1.75.53-2.64.71s-1.8-.15-2.27.26c-2.27,1.93-5.44,2.72-6.84,5.79-.9,2-2.43,3.64-3.52,5.53a22.71,22.71,0,0,0-1.37,3.5,58.84,58.84,0,0,0-2.07,5.7c-.37,1.41-.09,3-.46,4.42-.52,2-1.49,3.89-2.06,5.89-.87,3,1,5.69,1.47,8.54a.25.25,0,0,0,.1.15c2.42,1.62,2.23,4.14,2.17,6.56-.09,3.58.12,7.2-1.35,10.63a37.1,37.1,0,0,0-2.06,5.65,9.87,9.87,0,0,0-.15,4.29c.1.47,1.68.78,2.61.87a45.21,45.21,0,0,0,4.53,0c0,1.16,0,2,0,2.82,0,1.07-.07,2.18,1.1,2.78,1.65.84,1.45,2.34,1.59,3.85a4.47,4.47,0,0,0,1.49,3,52.68,52.68,0,0,0,6,3.21s0,.43-.16.53c-1.44.9-2.92,1.73-4.37,2.61s-2.92,1.79-4.35,2.72c-.52.34-.95.81-1.46,1.18-1.6,1.16-3.2,2.32-4.83,3.44-1.45,1-2.9,2-4.41,2.93-.9.54-1.95.82-2.9,1.29a17.66,17.66,0,0,1-8.15,2.27c-1.38,0-2.76,0-4.13.09a6.77,6.77,0,0,0-1.42.22c-2.57.7-5.1,1.73-7.71,2-1.8.21-3.7-.83-5.57-.87-3.68-.1-5.86-2.45-8.3-4.71-1.72-1.59-3.06-3.78-5.56-4.46-.23-.07-.4-.39-.58-.61-1.57-1.88-3.18-3.73-4.68-5.66a44,44,0,0,1-3.06-4.46c-1-1.71-1.85-3.53-2.81-5.27-1.14-2.06-2.45-4-3.49-6.14s-1.59-4.38-2.7-6.4c-1.87-3.39-1.37-6.76-.28-10.12a18.69,18.69,0,0,0,.29-9.53c-.35-1.74-1.79-3.29-2-5-.34-2.28-2.07-3.19-3.38-4.57-1.73-1.83-4.13-2.31-6.38-3.1-1.45-.5-2.85-1.12-4.28-1.66a14.28,14.28,0,0,0-2.79-.93,3.1,3.1,0,0,0-2.16.38c-1.58,1.22-3,2.63-4.72,4.17-.52-2.32-1.21-4.55-1.49-6.83a41.94,41.94,0,0,1,0-5.93,6.56,6.56,0,0,1,.28-1.57c.68-2.46,1.55-4.87,2-7.37a41.75,41.75,0,0,0,.19-5.38c.14-2.7-1.68-4.53-3-6.47a30.65,30.65,0,0,0-4.52-4.67c-1.76-1.65-3.22-3.56-5.66-4.54-1.05-.43-2.16-.87-3.25-1.26-2.12-.76-4.19-2-6.35-2.19a85.2,85.2,0,0,0-10.6,0,10.59,10.59,0,0,0-2.15.66,4.5,4.5,0,0,1-2.07.39c-2.34-.6-3.92,1.17-5.86,1.76A5.79,5.79,0,0,0,132,4.31c-2.61,3.22-6.56,5.22-8.15,9.39-.94,2.46-2.49,4.67-3.59,7.08-.62,1.37-.79,2.94-1.33,4.35-.62,1.6-1.68,3.07-2.08,4.72a35.24,35.24,0,0,0-1.17,7.68c-.18,8.57-.14,17.15-.18,25.72v1.87c-3.64.61-3.73.49-6.77,2.83a19.82,19.82,0,0,0-3.43,4c-.73,1-1.09,2.28-1.91,3.13-1.88,1.94-3.91,3.74-6,5.52A10.06,10.06,0,0,1,93,83.31a23.94,23.94,0,0,0-4.54,2.07c-1.34.62-2.74,1.12-4,1.81-2,1-3.9,2.16-5.8,3.33a43.8,43.8,0,0,0-4.44,3.07A41.5,41.5,0,0,0,71,96.78c-1.57,1.6-3.18,3.16-4.68,4.82a50.49,50.49,0,0,0-3.26,4c-1.46,2-3.37,3.67-4.33,6.1-.78,2-2.15,3.74-3.08,5.68-1.13,2.35-2.07,4.78-3.09,7.19-.11.26-.15.57-.27.83a27.3,27.3,0,0,0-2.12,4.61c-.63,2.46-.87,5-1.29,7.55a5.24,5.24,0,0,1-.24,1,29.06,29.06,0,0,0-2.15,9.73c-.09,2.46,0,4.93-.36,7.36-.6,4.73-1.84,9.41-2,14.15-.19,5.14-.69,10.28-.57,15.46a94.14,94.14,0,0,1-.73,10.71c-.49,5.37-.75,10.78-1,16.14-.47,8.49-1.46,17.13.68,25.64.48,1.93.15,4.06.14,6.1,0,3.58,1.57,5,5.13,4.69a7.79,7.79,0,0,1,2.31.12c3.24.68,3.74,1.32,3.86,4.61a50.59,50.59,0,0,0,.27,5.92c.24,1.49,1.08,2.88,1.46,4.37a7.23,7.23,0,0,1,.19,3.26c-.34,1.51-1.28,2.88-1.62,4.39-.52,2.27-.35,4.58-1.26,6.92-1.06,2.71-1,5.86-1.45,8.82s-.91,5.8-1.48,8.67a19.51,19.51,0,0,1-1.28,4.1c-.88,2-.24,3.56,1.8,4,2.32.47,2.79,1.81,1.31,3.7a1.46,1.46,0,0,0-.26.45c-.91,2.65-1.39,5.56-2.83,7.88-1.75,2.83-.39,6.17-2.14,8.85.26,8.07-1.21,16.17.77,24.24,1.27,5.18-.47,10.34-1.15,15.49a1.46,1.46,0,0,1-.12.33,49.06,49.06,0,0,0-2,6.78A5.46,5.46,0,0,1,42,375.41a1.34,1.34,0,0,0-.45.47c-.93,2.13-1.81,4.27-2.77,6.38-.49,1.06-1.15,2.05-1.68,3.09-.7,1.34-1.43,2.68-2,4.07-.81,2-1.47,4.05-2.21,6.07-.48,1.3-1.11,2.55-1.47,3.88-.25.94-.05,1.89-1.19,2.55-.65.37-1,1.43-1.29,2.25-.63,1.73-1.1,3.52-1.68,5.28-.36,1.08-.79,2.15-1.22,3.21-.73,1.78-1.54,3.52-2.21,5.31-.55,1.49-.52,3.45-1.5,4.48-1.55,1.61-1,3.72-2,5.47s-1.11,4.5-1.59,6.8a3,3,0,0,1-.12.52c-.74,2-1.6,4-2.2,6.1s-.93,4.28-1.39,6.43a3.18,3.18,0,0,1-.25.67,19.47,19.47,0,0,0-2.31,8.11A45.91,45.91,0,0,1,11,463.62a5,5,0,0,1-.22.47c-.69,1.8-1.51,3.57-2,5.42s-.37,3.47-1.07,5.27c-1.09,2.85-1.12,6.1-1.63,9.17C6,484.76,5.7,485.56,5.52,486.3Z"/><path d="M5.52,486.3c.18-.74.43-1.54.57-2.35.51-3.07.54-6.32,1.63-9.17.7-1.8.6-3.55,1.07-5.27s1.33-3.62,2-5.42a5,5,0,0,0,.22-.47,45.91,45.91,0,0,0,1.36-7.07,19.47,19.47,0,0,1,2.31-8.11,3.18,3.18,0,0,0,.25-.67c.46-2.15.79-4.33,1.39-6.43s1.46-4.07,2.2-6.1a3,3,0,0,0,.12-.52c.48-2.3.44-4.91,1.59-6.8s.49-3.86,2-5.47c1-1,.95-3,1.5-4.48.67-1.79,1.48-3.53,2.21-5.31.43-1.06.86-2.13,1.22-3.21.58-1.76,1.05-3.55,1.68-5.28.29-.82.64-1.88,1.29-2.25,1.14-.66.94-1.61,1.19-2.55.36-1.33,1-2.58,1.47-3.88.74-2,1.4-4.07,2.21-6.07.56-1.39,1.29-2.73,2-4.07.53-1,1.19-2,1.68-3.09,1-2.11,1.84-4.25,2.77-6.38a1.34,1.34,0,0,1,.45-.47A5.46,5.46,0,0,0,44,371.49a49.06,49.06,0,0,1,2-6.78,1.46,1.46,0,0,0,.12-.33c.68-5.15,2.42-10.31,1.15-15.49-2-8.07-.51-16.17-.77-24.24,1.75-2.68.39-6,2.14-8.85,1.44-2.32,1.92-5.23,2.83-7.88a1.46,1.46,0,0,1,.26-.45c1.48-1.89,1-3.23-1.31-3.7-2-.41-2.68-2-1.8-4a19.51,19.51,0,0,0,1.28-4.1c.57-2.87,1-5.77,1.48-8.67s.39-6.11,1.45-8.82c.91-2.34.74-4.65,1.26-6.92.34-1.51,1.28-2.88,1.62-4.39a7.23,7.23,0,0,0-.19-3.26c-.38-1.49-1.22-2.88-1.46-4.37a50.59,50.59,0,0,1-.27-5.92c-.12-3.29-.62-3.93-3.86-4.61a7.79,7.79,0,0,0-2.31-.12c-3.56.34-5.15-1.11-5.13-4.69,0-2,.34-4.17-.14-6.1-2.14-8.51-1.15-17.15-.68-25.64.29-5.36.55-10.77,1-16.14a94.14,94.14,0,0,0,.73-10.71c-.12-5.18.38-10.32.57-15.46.19-4.74,1.43-9.42,2-14.15.31-2.43.27-4.9.36-7.36a29.06,29.06,0,0,1,2.15-9.73,5.24,5.24,0,0,0,.24-1c.42-2.52.66-5.09,1.29-7.55a27.3,27.3,0,0,1,2.12-4.61c.12-.26.16-.57.27-.83,1-2.41,2-4.84,3.09-7.19.93-1.94,2.3-3.69,3.08-5.68,1-2.43,2.87-4.09,4.33-6.1a50.49,50.49,0,0,1,3.26-4c1.5-1.66,3.11-3.22,4.68-4.82a41.5,41.5,0,0,1,3.17-3.19,43.8,43.8,0,0,1,4.44-3.07c1.9-1.17,3.83-2.29,5.8-3.33,1.31-.69,2.71-1.19,4-1.81A23.94,23.94,0,0,1,93,83.31a10.06,10.06,0,0,0,4.46-2.66c2-1.78,4.07-3.58,6-5.52.82-.85,1.18-2.15,1.91-3.13a19.82,19.82,0,0,1,3.43-4c3-2.34,3.13-2.22,6.77-2.83V63.25c0-8.57,0-17.15.18-25.72a35.24,35.24,0,0,1,1.17-7.68c.4-1.65,1.46-3.12,2.08-4.72.54-1.41.71-3,1.33-4.35,1.1-2.41,2.65-4.62,3.59-7.08,1.59-4.17,5.54-6.17,8.15-9.39A5.79,5.79,0,0,1,134.69,3c1.94-.59,3.52-2.36,5.86-1.76a4.5,4.5,0,0,0,2.07-.39,10.59,10.59,0,0,1,2.15-.66,85.2,85.2,0,0,1,10.6,0c2.16.22,4.23,1.43,6.35,2.19,1.09.39,2.2.83,3.25,1.26,2.44,1,3.9,2.89,5.66,4.54a30.65,30.65,0,0,1,4.52,4.67c1.33,1.94,3.15,3.77,3,6.47a41.75,41.75,0,0,1-.19,5.38c-.48,2.5-1.35,4.91-2,7.37a6.56,6.56,0,0,0-.28,1.57,41.94,41.94,0,0,0,0,5.93c.28,2.28,1,4.51,1.49,6.83,1.71-1.54,3.14-3,4.72-4.17a3.1,3.1,0,0,1,2.16-.38,14.28,14.28,0,0,1,2.79.93c1.43.54,2.83,1.16,4.28,1.66,2.25.79,4.65,1.27,6.38,3.1,1.31,1.38,3,2.29,3.38,4.57.26,1.73,1.7,3.28,2,5a18.69,18.69,0,0,1-.29,9.53c-1.09,3.36-1.59,6.73.28,10.12,1.11,2,1.68,4.33,2.7,6.4s2.35,4.08,3.49,6.14c1,1.74,1.79,3.56,2.81,5.27A44,44,0,0,0,214.94,99c1.5,1.93,3.11,3.78,4.68,5.66.18.22.35.54.58.61,2.5.68,3.84,2.87,5.56,4.46,2.44,2.26,4.62,4.61,8.3,4.71,1.87,0,3.77,1.08,5.57.87,2.61-.3,5.14-1.33,7.71-2a6.77,6.77,0,0,1,1.42-.22c1.37,0,2.75-.11,4.13-.09a17.66,17.66,0,0,0,8.15-2.27c.95-.47,2-.75,2.9-1.29,1.51-.91,3-1.92,4.41-2.93,1.63-1.12,3.23-2.28,4.83-3.44.51-.37.94-.84,1.46-1.18,1.43-.93,2.89-1.83,4.35-2.72s2.93-1.71,4.37-2.61c.18-.1.16-.52.16-.53a52.68,52.68,0,0,1-6-3.21,4.47,4.47,0,0,1-1.49-3c-.14-1.51.06-3-1.59-3.85-1.17-.6-1.09-1.71-1.1-2.78,0-.83,0-1.66,0-2.82a45.21,45.21,0,0,1-4.53,0c-.93-.09-2.51-.4-2.61-.87a9.87,9.87,0,0,1,.15-4.29,37.1,37.1,0,0,1,2.06-5.65c1.47-3.43,1.26-7.05,1.35-10.63.06-2.42.25-4.94-2.17-6.56a.25.25,0,0,1-.1-.15c-.5-2.85-2.34-5.5-1.47-8.54.57-2,1.54-3.89,2.06-5.89.37-1.42.09-3,.46-4.42a58.84,58.84,0,0,1,2.07-5.7,22.71,22.71,0,0,1,1.37-3.5c1.09-1.89,2.62-3.56,3.52-5.53,1.4-3.07,4.57-3.86,6.84-5.79.47-.41,1.51-.11,2.27-.26s1.74-.55,2.64-.71a5,5,0,0,1,1.34.23c.65.08,1.78.36,1.88.15.63-1.27,1.7-.91,2.66-.92a39.4,39.4,0,0,1,4.86,0c4.44.46,8.67,1.61,12.16,4.63a74.14,74.14,0,0,1,6.44,5.65,62.86,62.86,0,0,1,4.66,6.58c1.33,1.92,2.71,3.8,4,5.74.79,1.2,1.45,2.49,2.15,3.75s1.39,2.56,2.06,3.85a2.88,2.88,0,0,1,.37.94c.45,3.91,1,7.81,1.25,11.74a77.61,77.61,0,0,1-.18,9.52,18.14,18.14,0,0,1-1.08,3.61c-.63,2.22.69,3.72,2,5.18.92,1,2.06,1.89,2.87,3a19,19,0,0,1,1.38,3.07,3.31,3.31,0,0,0,2.57,1.87,18.11,18.11,0,0,1,3.88,1.74c.25.12.42.43.67.5,2,.55,4,.94,5.87,1.62a27.67,27.67,0,0,1,3.6,2c.84.46,1.68.93,2.56,1.32,1.3.58,2.65,1,3.94,1.63,2.38,1.1,4.72,2.27,7.09,3.39a25.87,25.87,0,0,0,3.34,1.44c2.29.7,3.4,2.37,4.24,4.47,1,2.54,2.24,5,3.32,7.52.63,1.47,1.13,3,1.75,4.49.5,1.2,1,2.4,1.65,3.55s1.28,2.11,1.92,3.17c1.1,1.81,2.12,3.68,3.32,5.42,1.36,2,2.86,3.85,4.34,5.75.91,1.17,1.93,2.26,2.85,3.43,1.9,2.4,3.66,4.92,5.66,7.23,2.27,2.62,3.25,6.14,6.13,8.34.76.58.91,1.91,1.5,2.78,1.81,2.65,3.43,5.5,5.64,7.76,1.51,1.55,2.09,3.45,3.22,5.11a27,27,0,0,1,2.34,4,13.28,13.28,0,0,1,1.38,4.42c.19,3.46.6,7.07-.16,10.38-.49,2.16-.43,4.62-1.93,6.68-.93,1.28-1.07,3.12-1.62,4.7a28.41,28.41,0,0,1-1.32,3.35c-1.13,2.27-2.67,4.4-3.4,6.79a29.69,29.69,0,0,1-2.75,5.46c-.85,1.56-2,3-2.93,4.49-.8,1.3-1.48,2.66-2.2,4-.09.15,0,.4-.14.52a32.71,32.71,0,0,1-2.83,3.16c-1.66,1.48-5.37,1.45-7.39.34a5.72,5.72,0,0,0-2.79-.39c-2.61.06-4.78-1.05-6.92-2.35a8.42,8.42,0,0,0-2.87-1.3c-1.5-.23-1.94-1.39-2.7-2.34a16.5,16.5,0,0,0-3.25-3.72,4,4,0,0,0-3.43,0c-1.6.79-2.91,2.13-4.86,2.24-1.15.07-2.53,2.1-2.61,3.75a6.6,6.6,0,0,0,.84,3.85c1.82,3.3,1.58,3.41,1.44,8.18a15.53,15.53,0,0,1-2.15,7.3,18.3,18.3,0,0,0-1.13,3.82c1,1.5,2,3.25,3.21,4.89,2,2.8,2.27,6.06,3,9.3,1.18,5.08.71,10.09.63,15.1-.05,2.76-1.31,5.51-2,8.26-.05.17-.19.34-.17.5.29,2.74-.9,5.21-1.39,7.81-.66,3.41-.95,6.92-2.36,10.16a.85.85,0,0,0,0,.17c-.46,3.95-1,7.89-1.32,11.85-.06.7.62,1.44.88,2.18.77,2.21-.47,3.91-3.49,4.62.2,1.66-.61,3.47.9,5a.7.7,0,0,1,.13.32c.51,2.58.92,5.18,1.53,7.73s1.45,5.35,2.2,8c0,.12.13.21.15.32.48,2.22,1,4.42,1.42,6.64.48,2.41.77,4.86,1.4,7.23.56,2.13,1.49,4.18,2.22,6.27a2.16,2.16,0,0,1,.07,1.07c-.42,2,1.13,3.22,1.79,4.77a49.59,49.59,0,0,0,3.37,5.86c2,3.25,4,6.47,5.88,9.74,1,1.74,1.88,3.59,2.91,5.33s2.09,3.13,3.1,4.71c.56.88,1,1.84,1.52,2.73,1.69,2.77,3.44,5.5,5.08,8.29,1.81,3.06,3.51,6.18,5.27,9.27,1.15,2,2.39,4,3.43,6.06.67,1.33,1,2.81,1.57,4.2s1,2.48,1.63,3.67,1.37,2.39,2,3.6c1.26,2.33,2.55,4.65,3.73,7,.6,1.2.94,2.53,1.49,3.76.28.64.82,1.16,1.13,1.8,1.36,2.85,2.58,5.78,4.06,8.57,1.35,2.54,2.3,5.29,4.38,7.46.88.93,1,2.55,1.59,3.81a52.17,52.17,0,0,0,2.61,5.37c.93,1.56,2.2,2.9,3.19,4.43a38.36,38.36,0,0,1,1.79,3.5c.21.4.61.75.69,1.16a4.33,4.33,0,0,1-.17,1.5c0,.13-.34.24-.34.35.07,2.18-1.51,2-2.94,2.18-2,.24-2.66,1.92-1.48,3.67a3.51,3.51,0,0,1,.34,1c1.21,4,2.88,7.6,6.09,10.47,1.23,1.1,1.83,2.87,2.83,4.26,1.45,2,3.24,3.85,4.45,6,1.8,3.18,4.72,5.89,4.52,10-.15,3.27-.14,6.19-3.44,8.66s-6.38,3.1-10,3.64c-2,.29-3.8,1.45-5.7,2.2-1.32.52-2.65,1-3.95,1.54-1.6.69-3.13,1.55-4.75,2.17s-3.09,1-4.65,1.43c-2.65.78-5.31,1.56-8,2.3a8,8,0,0,1-2,.24c-2,0-4.09.08-6.11-.1a11.83,11.83,0,0,1-6.11-2c-.31-.23-.8-.19-1.2-.31-1.9-.58-4-.78-4.81-3.15-.25-.74-1.08-1.28-1.64-1.92a3.19,3.19,0,0,1,.09-3.88c1-1.3,1.8-2.75,2.83-4a7,7,0,0,1,2.21-1.87c3.12-1.56,6.11-3.2,8.24-6.13.54-.73,1.84-.86,2.55-1.53a96,96,0,0,0,6.84-7c.57-.66.38-2.07.34-3.13-.06-1.56-1.41-1.22-2.33-1.26-2.27-.1-3.56-1.8-5.16-3-.95-.72-1.85-1.49-2.77-2.26a3.19,3.19,0,0,1-.71-.71c-1.22-1.89-2.47-3.76-3.61-5.7s-1.89-3.75-3-5.51c-1.24-1.94-2.72-3.74-4.09-5.61a4.1,4.1,0,0,1-.74-1.18,15.38,15.38,0,0,0-4.9-7.55,4.28,4.28,0,0,1-1.21-1.88,4.41,4.41,0,0,0-3.21-3.1l-4.08-6.26c-.06-.1-.25-.14-.27-.23-.64-3.47-4.12-5-5.45-8.16-.68-1.59-2.59-2.63-3.75-4.07-1.73-2.15-3.29-4.43-4.92-6.66-1.89-2.57-3.3-5.54-6.33-7.14a20.21,20.21,0,0,1-3-2.33,46.81,46.81,0,0,1-4.85-4c-1.27-1.31-2.91-2.29-3.42-4.4-.28-1.18-1.68-2.15-2.69-3.07a29,29,0,0,1-4.74-6.5c-.78-1.24-1.86-2.29-2.68-3.5a63.88,63.88,0,0,1-3.52-5.59c-1.55-2.87-2.95-5.83-4.36-8.77-.72-1.5-1.3-3.06-2-4.59-.49-1.15-1-2.29-1.49-3.45-.36-.87-.66-1.78-1-2.67-.66-1.79-1.32-3.58-2-5.37-.08-.22-.28-.4-.32-.62-.47-2.52-.83-5.06-1.4-7.56a50,50,0,0,0-2.24-8.54,20.77,20.77,0,0,1-.46-3,1.84,1.84,0,0,0-.91-1.24,1.72,1.72,0,0,0-1.35.66q-3.11,4-6.07,8a9.14,9.14,0,0,0-1.24,2.62,53.23,53.23,0,0,0-1.67,6,63.93,63.93,0,0,0-1,7.67c-.18,2.62.11,5.28-.11,7.9-.37,4.5-1.08,9-1.45,13.49-.49,6-.3,12.05-1.31,17.93-.71,4.17-.15,8.49-1.28,12.39-1.21,4.17,0,8.37-1.15,12.29-1.43,5-.71,10.09-1.24,15.1a12.86,12.86,0,0,1-1.38,4.28c-.24.47-1.34.61-2.08.7-2.69.34-2.66.31-2.62,3.13.05,3.54.23,7.09,0,10.61-.21,3.1-1.12,6-3.65,8.24a7.77,7.77,0,0,1-8.21,1.07,1.43,1.43,0,0,0-.34-.14c-6-1.19-12-2.42-18.19-1.55a12,12,0,0,0-1.3.41,34.32,34.32,0,0,1,3.21,2.18c1.17,1,2.84,2,3.16,3.31.58,2.32.66,4.79-1.8,6.68a7.38,7.38,0,0,1-3.63,1.24,28.73,28.73,0,0,1-11-.26c-2.47-.5-5.22-.43-7.39-2.18-.35-.29-1-.2-1.57-.21-2.88-.08-5.76,0-8.63-.22-1.73-.1-3.47-.91-5.13-.73-2.88.33-5.69,1.21-8.54,1.81-1.17.24-2.4.23-3.53.57a8.76,8.76,0,0,1-7.25-1.13c-1.07-.62-2.59-.69-3.39-1.51-1.6-1.63-3.77-3-3.27-6,.22-1.29-.52-2.72-.43-4.05.13-2,.63-4,1-6,.24-1.47.47-2.93.63-4.41,0-.2-.4-.56-.68-.65a9.14,9.14,0,0,1-4.61-3,8.8,8.8,0,0,1-1.76-2.95c-.6-2.32-2-4.47-1.6-7a6.57,6.57,0,0,0,0-2c-.26-1.92-.62-3.82-.88-5.74a31.68,31.68,0,0,1-.36-3.76c-.05-2.27.14-4.57,0-6.83-.35-4.29-.48-8.67-1.5-12.82-.64-2.61-.45-5.2-1-7.73-1.53-7.37-.86-14.84-1.34-22.26-.18-2.79-1.41-5.51-2.16-8.27,0-.17-.06-.35-.09-.52-.52-3-.69-6-1.67-8.8-.77-2.2-.58-4.46-1.21-6.54-.72-2.38-1-5.13-3.28-6.78-.83-.61-1.81-1-2.63-1.61-1.4-1-2.72-2.17-4.1-3.22-2.08-1.58-4.21-3.1-6.27-4.71-1.52-1.2-3-2.47-4.42-3.79s-3-3-4.53-4.47-3.08-2.93-4.56-4.44a56.87,56.87,0,0,1-4.11-4.54c-1.32-1.68-2.36-3.57-3.63-5.3-.73-1-.92-2.9-2.77-2.4s-3.9,1.38-5.83,2.1q-2.22.81-4.41,1.68a1.06,1.06,0,0,0-.6.49c-.46,1.43-.77,2.91-1.31,4.3s-1.38,2.92-2,4.4-1.08,2.77-1.67,4.14a30.56,30.56,0,0,1-1.47,3.05c-1.5,2.64-3.11,5.21-4.56,7.88-.69,1.27-1.06,2.71-1.66,4-.36.82-.93,1.54-1.33,2.34-.86,1.7-1.57,3.49-2.54,5.13s-2.41,3.07-3.23,4.79c-1.75,3.68-5.19,6.14-6.82,9.87-.2.45-.76.74-1.17,1.08-.26.21-.73.33-.82.6-1,2.92-3.13,5-5,7.25-2,2.45-3.53,5.35-5.48,7.88-1,1.3-2.63,2.11-3.71,3.36-1.4,1.64-2.47,3.56-3.83,5.25a10.1,10.1,0,0,1-3,2.8c-2.22,1.13-2.79,3-2.93,5.16,0,.78,0,1.56-.13,2.33-.46,4.72-.55,9.52-1.57,14.12-.55,2.49-.57,5-1.24,7.46-.79,2.87-2,5.61-3.09,8.41a4.73,4.73,0,0,0-.39,1.17c-.26,3.24-1.94,5.94-3.37,8.72-1.28,2.5-2.78,4.88-4.08,7.37s-2.46,5.27-3.84,7.82c-1.62,3-3.36,5.94-5.15,8.84-1.49,2.43-3.16,4.75-4.67,7.17-.57.91-.85,2-1.34,2.95-1.25,2.49-2.26,5.17-3.9,7.39-2.76,3.76-1.3,7.39-.47,11.18.41,1.91.35,3.91.59,5.86a17.15,17.15,0,0,0,.66,2.48c.05.16.22.39.17.48-1.41,2.27-.28,5.58-3.14,7.31a8.78,8.78,0,0,1-6,.55,5.54,5.54,0,0,0-3.29-.63,3.88,3.88,0,0,1-3.68-1c-.41-.3-1.27-.53-1.59-.31-2.05,1.4-3.39-.21-4.93-1a2.7,2.7,0,0,0-.78-.42,63.6,63.6,0,0,0-7.82-1.25c-3.3-.16-4.42-1-4.92-4.36-.28-1.87-.95-3.69-1.28-5.56-.47-2.74-.77-5.51-1.17-8.26-.34-2.32-.78-4.64-1.08-7-.4-3.06,1.29-5.29,3.05-7.52s3.61-4.21,3-7.29C6,487.72,5.72,487,5.52,486.3Zm368.4-327.91c2.86-.67,2.87-.5,3.72,2,.77,2.26,2.25,4.3,2.94,6.58a10.81,10.81,0,0,1,.38,5.78c-.53,1.82-2.07,3.42-3.4,4.9a12.88,12.88,0,0,1-3.77,3,3.83,3.83,0,0,0-2.51,3.26c-.38,3-1,5.89-1.59,8.83,0,.21-.26.38-.39.57-.89,1.44-.73,5.42.23,6.73s2,2.91,3.07,4.34a31.23,31.23,0,0,0,2.18,2.69,52.26,52.26,0,0,1,4.05,4.25,24,24,0,0,0,6.66,5.8,7,7,0,0,0,2.88,1.19,58.42,58.42,0,0,0,7,.24c2.84,0,4.28-1.39,4.82-4.21a2.84,2.84,0,0,1,.42-.9c.66-1,1.42-2,2-3.13,1.39-2.69,2.63-5.46,4.06-8.13,1-1.92,2.75-3.6,3.29-5.62.69-2.63,3-4.52,3-7.44,0-1.09.91-2.18,1.38-3.28.67-1.58,1.66-3.13,1.9-4.78a30.16,30.16,0,0,0,.1-7.17,7.87,7.87,0,0,0-1.55-4.06,15.12,15.12,0,0,1-3.4-6.57,4.53,4.53,0,0,0-.74-1.31c-1-1.56-1.95-3.14-3-4.67s-1.92-2.78-3-4.1-2.32-2.39-3.26-3.74c-1.05-1.51-1.74-3.28-2.79-4.8-1.41-2.07-3.06-4-4.52-6-1.24-1.73-2.29-3.6-3.54-5.32-.89-1.24-2-2.34-3-3.52-1.17-1.39-2.33-2.8-3.49-4.21a22.11,22.11,0,0,1-2.61-3.23c-1.54-2.84-2.91-5.79-4.3-8.71-.42-.87-.62-1.85-1.06-2.7-1.08-2.07-2.32-4.06-3.34-6.15-.95-1.93-1.7-4-2.56-5.92-.13-.3-.27-.7-.53-.83-2.25-1.22-4.47-2.51-6.81-3.53-2.57-1.12-5.26-2-7.88-3a37.4,37.4,0,0,1-3.54-1.43c-2.28-1.12-4.49-2.41-6.79-3.5-1.35-.63-2.85-.93-4.23-1.51-2.13-.89-4.22-1.88-6.66-3-.26-.53-.78-1.55-1.24-2.59a28.75,28.75,0,0,0-1.5-3.45c-1.05-1.74-4.13-2.47-5.86-1.64a12.74,12.74,0,0,1-2.89,1c-2.64.54-5.3,1-8,1.5A1.28,1.28,0,0,0,314,77a49.23,49.23,0,0,1-5.9,3.24c-3.46,1.35-5.61,4.22-8.16,6.6-3.34,3.11-6.27,6.65-9.56,9.82-1.15,1.11-2.86,1.65-4.31,2.45-.89.48-1.78,1-2.69,1.43a51,51,0,0,0-5.69,2.81c-2.05,1.34-3.67,3.37-5.8,4.51-3.22,1.73-5.75,4.48-9.49,5.52-3,.81-5.73,2.28-8.94,2.19a10.36,10.36,0,0,0-3.57.22A40.3,40.3,0,0,1,239.64,118c-2.49.15-5,0-7.09,0-.61,1.89-1,3.41-1.6,4.85a54,54,0,0,1-2.84,6.06c-.36.63-1.42.86-2.15,1.28a14.28,14.28,0,0,1,0-2.7c.09-.5.7-.88.95-1.37a34.81,34.81,0,0,0,2.33-5c.36-1.14.57-2.76,0-3.66-1-1.68-2.73-2.93-4-4.47-1.07-1.29-3-1.37-3.8-3.25-.33-.79-2.22-1-2.33-2.57,0-.21-.72-.33-1.06-.56a4.4,4.4,0,0,1-1.11-.94c-1-1.3-1.79-2.72-2.83-4-1.89-2.26-4.19-4.23-5.77-6.68-1.69-2.63-2.75-5.67-4.06-8.55-.44-1-1.75-1.5-2.27-.82a18.7,18.7,0,0,0-1.35,2.13c-1.37,2.38-2.57,4.89-4.12,7.15-1.69,2.44-3.75,4.62-5.56,7-1.29,1.68-2.87,3.14-3.08,5.56-.09,1.09-1.29,2.07-1.95,3.12a35.3,35.3,0,0,0-2.64,4.46,3.9,3.9,0,0,0,.1,2.77c.47,1.1,1.7,1.93,2,3,.75,2.67,2.83,4.39,4.24,6.58,1.9,3,4,5.79,5.94,8.72.61.91.83,2.17,1.59,2.87,2,1.82,3.28,4.11,4.71,6.33a71,71,0,0,0,4.32,6c2,2.48,4.52,4.47,6,7.44,1.13,2.21,3.07,4,4.61,6,1.34,1.74,2.7,3.26,5.16,3.47a14.21,14.21,0,0,1,4.7,1.38A23.91,23.91,0,0,0,234,172c4.28.53,8.58.89,12.87,1.34a7.91,7.91,0,0,1,1,.26,16.31,16.31,0,0,0,3.91.92c4,0,8,0,12-1s8.54-.25,12.85-1.27c3.25-.77,6.79-.38,10.05-1.58,1.72-.63,3.41-1.35,5.1-2.07,1.08-.45,2.11-1,3.19-1.47a10.28,10.28,0,0,1,2.67-1c1-.12,2.39-.24,3.06.3a1.57,1.57,0,0,1-.53,2.57,44.45,44.45,0,0,1-4.23,1.54c-1.56.57-3.12,1.16-4.67,1.75a36.19,36.19,0,0,1-5.43,2.06c-2.84.61-5.79-.2-8.7,1.12-2.18,1-4.84,1-7.31,1.2-1.79.16-2.83.71-2.54,2.7.06.47,0,1,0,1.44.32,3.94.7,7.88,1,11.82.14,1.85.11,3.72.18,5.57a6,6,0,0,0,.24,1.4c.74,2.49,1.58,4.95,2.24,7.47.58,2.21,1,4.48,1.46,6.72a2.26,2.26,0,0,0,.19.49,21.15,21.15,0,0,1,1.86,4.1,15.89,15.89,0,0,0,3.33,6.54c.18.23.45.45.5.72.5,2.4,2.34,4,3.49,6,1,1.66,2.15,1.61,3.59,1.46,2.88-.3,5.77-.64,8.65-1a9.45,9.45,0,0,0,1.93-.27c2-.66,3.92-1.51,5.93-2.07,2.28-.64,4.63-1.05,6.95-1.57a3.31,3.31,0,0,0,.66-.25c1.43-.68,2.83-1.42,4.29-2s2.83-1,4.23-1.56c1.73-.69,3.37-1.76,5.15-2.11,2.41-.46,4.87-.7,7.31-1.09,5.42-.86,10.85-2,16.45-1.73,2.5.11,5.06-.77,7.59-1.25,1.44-.27,2.88-.59,4.3-1,.56-.16,1.36-.47,1.51-.9a55.56,55.56,0,0,0,2.13-7c.63-2.92,1-5.91,1.44-8.87A2.35,2.35,0,0,1,364,200c1.2-2.68,2.61-5.3,2.34-8.4a1.89,1.89,0,0,1,.14-.69c.76-2.46,1.72-4.88,2.25-7.39.67-3.15,1-6.37,1.47-9.56,0-.11,0-.27.09-.34,1.81-1.85,1.11-4.48,2-6.68C373.38,164.26,373.43,161.21,373.92,158.39ZM57,305.65c-.49.39-1.42.75-1.71,1.4-1.38,3.12-2.6,6.31-3.85,9.49a14.15,14.15,0,0,0-1.25,3.62c-.5,5.22.24,10.52-1.18,15.72-.49,1.77-.16,3.82,0,5.72s1,3.89.93,5.82c-.09,5.42,1.13,10.87-.91,16.26-.83,2.21-.2,4.84-1.42,7.17-.81,1.54-.76,3.52-1.5,5.12-1,2.08-2.43,3.93-3.47,6s-1.89,4.35-2.84,6.52c-.44,1-.88,2-1.42,3s-1.47,2.12-2,3.28c-1,2.36-1.64,4.91-2.84,7.17-1,1.85-2.31,3.41-2.6,5.69-.21,1.63-1.63,3.07-2.13,4.71-.71,2.3-1.07,4.71-1.6,7.07-.36,1.63-.72,3.26-1.15,4.87-.11.4-.52.72-.77,1.09-1,1.52-2.68,2.56-2.9,4.68a57.25,57.25,0,0,1-1.34,6.45c0,.11-.13.2-.17.31-.75,2.41-1.52,4.8-2.24,7.21-.51,1.71-.91,3.44-1.44,5.14-.68,2.21-1.56,4.37-2.14,6.61-.67,2.59-1.1,5.24-1.63,7.86a1.3,1.3,0,0,1-.14.32,39.23,39.23,0,0,0-2.14,6.86c-.45,4.21-.94,8.42-1.42,12.63a1.56,1.56,0,0,1-.22.67c-1.44,2.18-1,3.15,1.42,4s4.8,2,7.19,3c1,.4,2.05.68,3,1.17,1.22.63,2.34,1.45,3.55,2.12a30.5,30.5,0,0,1,3.59,1.88c2.46,1.83,4.79,3.84,7.2,5.8,1.21-1,2.47-1.63,3.1-2.64,1.49-2.38,2.68-4.94,4-7.43.95-1.84,1.8-3.73,2.82-5.52.77-1.34,2-2.33,2.38-4,.26-1.14,1.33-2.07,2-3.13,1-1.63,1.94-3.27,2.87-4.92,1.2-2.11,2.34-4.26,3.55-6.36.82-1.42,1.89-2.73,2.56-4.22s.91-3.1,1.42-4.64,1-2.81,1.59-4.19c.68-1.71,1.53-3.36,2.05-5.11.61-2.06.93-4.2,1.39-6.31a6,6,0,0,1,.3-.63,16.13,16.13,0,0,0,.93-2.8c.5-3.43.89-6.88,1.33-10.32,0-.11,0-.23.07-.34.29-1.73.62-3.45.81-5.18,0-.41-.31-1.18-.62-1.25a2.12,2.12,0,0,0-1.75.26c-2.1,2.12-3.84,4.66-7,5.5L58,427.29c.78-.74,1.53-1.39,2.21-2.11,1.76-1.84,3.4-3.81,5.27-5.54,1.66-1.54,3.57-2.81,5.36-4.21a24.35,24.35,0,0,0,2.88-2.37c2.39-2.59,4.68-5.26,7-7.92,1.86-2.13,3.84-4.17,5.52-6.44,1.91-2.58,3.51-5.37,5.28-8.05.27-.4.86-.6,1.12-1,1.32-2.12,2.56-4.28,3.88-6.4.32-.51.87-.87,1.21-1.37,1.42-2.11,2.48-4.58,4.27-6.26,1.55-1.46,2-3.35,3.15-4.92,1.32-1.81,2-4.05,3.07-6.05,1.55-2.92,3.21-5.77,4.78-8.68.51-.94.85-2,1.32-2.95,1.21-2.42,2.49-4.8,3.65-7.24.58-1.23,1-2.54,1.45-3.81a35.92,35.92,0,0,0,2-5.42,2.91,2.91,0,0,1,2.57-2.61c3.15-.62,6.32-1.17,9.19-2.73a34.62,34.62,0,0,0,3.28-2.05c2.48-1.76,4.07-4.55,7.07-5.76a5.17,5.17,0,0,0,2.9-2.69c.67-2.57,2.24-1.83,4.3-1.64a12.92,12.92,0,0,1-1.32,2.71,53.52,53.52,0,0,1-4.37,4.66,31.07,31.07,0,0,1-4.49,3.52,2.66,2.66,0,0,0-1,3.62c.75,1.13,1.41,2.33,2.19,3.45a45.7,45.7,0,0,0,4.08,5.54c2.69,2.84,5.6,5.47,8.46,8.14,2.2,2.06,4.44,4.09,6.73,6.05s4.59,3.94,7.05,5.67c1,.74,2,2.29,4.15,1.13a13,13,0,0,1-1.1-2.29,2.38,2.38,0,0,1,.18-1.9c.89-.94,2.28-.42,2.84,1.15.95,2.68,1.82,5.4,2.56,8.14.44,1.65.11,3.34,1.14,5s1,3.8,1.31,5.75c.57,3.22,1.07,6.44,1.61,9.66a4.37,4.37,0,0,0,.12.52A70.24,70.24,0,0,1,183,398c.75,5.74-.47,11.55,1.06,17.36,1.05,3.94,0,8.26,1.29,12.39,1,3.21-.06,6.76,1.24,10.13.73,1.9.2,4.26.3,6.42.07,1.43.17,2.86.38,4.27.17,1.15.66,2.25.73,3.4a33.79,33.79,0,0,1,0,6.28c-.43,3.61,1.33,6.53,2.79,9.5.55,1.12,2,1.84,3,2.67a7.07,7.07,0,0,0,1.91,1.08,14.73,14.73,0,0,0,4.3,1.17c2,0,4.09-.52,6.14-.69a26.2,26.2,0,0,1,4.85,0c2.84.3,5.33-.88,7.77-1.89a44.45,44.45,0,0,0,6.31-3.82,31.87,31.87,0,0,1-.72-4.18c-.11-2.51,0-5,0-7.55s-.06-5-.05-7.55,0-5.16.13-7.73c.13-2.28-1.21-4.51-.12-6.81a1.74,1.74,0,0,0-.09-1.56c-1.41-1.18-.9-2.72-1-4.15-.09-2.51,0-5-.23-7.54-.23-2.73-1-5.45-1-8.18a225.06,225.06,0,0,0-1.36-26.34c-.05-.35-.1-.71-.14-1.06-.43-3.66-.81-7.31-1.31-10.95-.2-1.41-1-2.76-1-4.15-.11-6.77.08-13.55-.11-20.31a25.73,25.73,0,0,0-1.47-7.51c-.83-2.43-2.33-4.62-3.39-7s-1.74-4.57-2.74-6.79a35.55,35.55,0,0,0-2-3.24c-1-1.78-1.94-3.59-2.94-5.38-.62-1.11-1.27-2.21-1.94-3.29-1-1.51-2.05-2.93-2.88-4.5-1.36-2.57-2.52-5.24-3.82-7.84a22.09,22.09,0,0,0-1.38-2.13c-1.23-2-2.45-3.95-3.69-5.92a17.73,17.73,0,0,1-1.2-1.72c-.61-1.25-.87-2.76-1.72-3.79-1.39-1.66-3-3-3.69-5.26-.63-2-2.39-3.67-3.47-5.59-1.38-2.43-2.14-2.73-4.42-1.33-1.55-1.41-3-.94-4.26,1.18a34.31,34.31,0,0,1-3.35,4.52,56.32,56.32,0,0,1-4.5,4.51c-1.52,1.38-3,3-4.83,3.79-2.12.88-3.8,2.44-6.17,3.05s-3.77,2.93-6.22,3.75c-2.28.76-4.3,2.27-6.44,3.43-2.37,1.29-4.83,2.44-7.09,3.9-1.11.71-2.52,1.89-2.66,3a51.65,51.65,0,0,0-.07,9c.09,1.67.74,3.31.87,5,.18,2.21-2.4,3.63-4.43,2.62a11.42,11.42,0,0,0-2.47-.76c-.75-.18-1.78,0-2.24-.44-1.23-1.15-2.65-.83-4-.92-.84-.06-1.68,0-2.52,0a1.56,1.56,0,0,1-1.47-2.22c.42-1.5.7-3,1-4.56a6.9,6.9,0,0,1,.26-1.75c1.14-2.11.89-2.63-1.49-2.72-.42,0-.84,0-1.26,0q-13.12,0-26.25,0a4,4,0,0,1-2.09-.37,12.25,12.25,0,0,0-7-2.14,8.22,8.22,0,0,1-3.49-.9c-2.11-1.07-1.8-3.53-2.34-5.32-.92-3-1-6.25-1.47-9.4,0-.17-.06-.48-.14-.49a2.53,2.53,0,0,0-1-.06c-.65,2.3-2.78,4-2.68,6.6a1.33,1.33,0,0,1-.13.7c-1.69,2.52-3.39,5-4.82,7.15ZM172.18,79.36a2.3,2.3,0,0,0-1.58,2.14c-.07,1.57,0,3.07-.93,4.66a7.41,7.41,0,0,1-3,3.18c-1,.52-2.08,1-3.11,1.53-3.23,1.68-6.46,3.12-10.13,1.17a2.71,2.71,0,0,0-1.76-.12,1.5,1.5,0,0,0-1,.91,1.83,1.83,0,0,0,.62,1.24c.44.44,1.1.66,1.5,1.12,1.95,2.21,3.86,4.46,5.75,6.71s3.86,4.48,5.6,6.86a77,77,0,0,1,4.37,6.89,24.62,24.62,0,0,1,1.94,4.4c.65,1.92,1.11,3.91,1.66,5.87.65,2.32,1.66,4.6,1.89,7,.64,6.75,1.06,13.54,1.34,20.32.1,2.5-.64,5-.66,7.55s-.6,4.87.64,7.21a4,4,0,0,1,0,2.29c-.18,1-.69,1.89-.77,2.85-.18,2.15-.09,4.32-.29,6.47-.18,1.86-.76,3.7-.9,5.56a25.6,25.6,0,0,0,.1,6.25,32.23,32.23,0,0,0,2.14,6.65,56.83,56.83,0,0,0,2.89,5.3,6.74,6.74,0,0,1,.8,1.32c.56,2,1,4,1.55,5.92a27.73,27.73,0,0,0,1.34,4.32,36.51,36.51,0,0,1,2.48,7.62,55.39,55.39,0,0,1,1.15,6.38,3,3,0,0,0,.15.51l2.22,7.42a43.9,43.9,0,0,0,1.55,5.12c.92,2.12,2,4.14,2.2,6.51a9.45,9.45,0,0,0,.75,2.5c.36.94.91,1.75-.35,2.58a2.12,2.12,0,0,0-.36,2,9.22,9.22,0,0,0,3.41,2.75,6.39,6.39,0,0,1,2.79,2.16,25.84,25.84,0,0,1,3.39,4.7c.8,1.5,1.73,3.3,1.56,4.85-.3,2.91.83,5.44,1.79,7.83,1.5,3.75,0,7-.73,10.35a5.54,5.54,0,0,1-1.57,2.73,27.2,27.2,0,0,1-3.89,2.79c-1.62,1.05-2.24,2.63-1.53,3.8,1.61,2.67,3.17,5.36,4.72,8,.47.8.87,1.64,1.3,2.46,1,1.92,1.91,3.87,3,5.74.92,1.6,2.15,3,3,4.64,1.87,3.41,3.64,6.88,5.41,10.35q1.91,3.75,3.69,7.56c.58,1.22,1,2.5,1.49,3.77.72,2,1.92,3.91,2,5.92.3,5.5.25,11,.1,16.54a74.46,74.46,0,0,0,1.45,16.73,2.56,2.56,0,0,0,.14.7c1.51,2.48,1.69,5.39,2,8.08.93,9-.11,18,1.3,27,1.3,8.25,0,16.7,1.09,25.13,1.13,9.09.36,18.42.39,27.65,0,.47-.22,1.29-.48,1.35-1.45.35-.74,1.4-.59,2,.1.44.87.78,1.4,1.05,1.53.77,2.6,2.27,4.7,2.2,3-.1,5.3-2,7.71-3.22s4.87-2.12,6.79-4.24,4.61-3.8,7.06-5.74a15.81,15.81,0,0,0-3.52-1.87c-2.06-.46-2.6-2.38-2.81-3.65-.64-3.7-.42-7.48-1.1-11.26-.76-4.19-.32-8.6-.42-12.92a14.1,14.1,0,0,0-.27-2.13c-.67-3.61-1.71-7.2-2-10.85-.39-5.24-.14-10.53-.36-15.79-.13-2.9-.7-5.79-1-8.69-.42-4.05-.91-8.1-1.12-12.17-.23-4.24-.15-8.51-.23-12.76a4.11,4.11,0,0,0-.19-1.95c-1.57-2.4-.91-5.09-1.21-7.65-.19-1.69-.63-3.36-.79-5.05s-.58-3.49.06-4.78c1-2.06.61-4,.75-6.08a35.68,35.68,0,0,1,.66-5.67c.41-1.77,1.6-3.4,1.78-5.16.3-2.94,2.11-5,3.42-7.41,1-1.76,2.13-3.42,3.18-5.14.54-.88,1-1.83,1.58-2.66,1.46-2,3-3.95,4.51-5.89,1.24-1.57,2.69-3,3.77-4.64,1.9-2.92,5.28-4.49,6.69-7.93.64-1.59,2.35-2.75,3.57-4.1.35-.38,1-.76,1-1.16.23-4.12,0-8.25,1-12.36.57-2.28.25-4.77.38-7.17a19.52,19.52,0,0,1,.45-3.91c.49-1.8,1.52-3.49,1.82-5.31.66-3.89,1-7.83,1.44-11.76.33-3.32-.48-6.71,1.09-10,.86-1.79,1-3.89,1.57-5.85.06-.23.4-.38.58-.59,1-1.23.78-2.6-.26-3.9a26.89,26.89,0,0,1-2.79-4.23c-1.06-2-1.9-4.2-2.86-6.3a61.87,61.87,0,0,1-3.4-7.48c-.69-2.25-2-4.45-1.53-7a1.2,1.2,0,0,0-.15-.69,15.62,15.62,0,0,1-2.33-8.23c0-.6.17-1.39-.13-1.76-1.42-1.74-.94-3.76-1-5.69-.08-1.55,0-3.12,0-4.67,0-3.27,0-6.55,0-10.26l-8.7.75a20,20,0,0,1-4.67.3c-3.44-.54-6.81-1.49-10.23-2.11-3-.56-6.14-.9-9.2-1.34-1.06-.15-2.13-.27-3.17-.5-2.67-.59-5.36-1.14-8-1.91a7.62,7.62,0,0,1-3.56-1.89c-1.79-2.07-3.19-4.45-4.8-6.67-.94-1.29-2-2.51-3-3.76l-3.33-4.16c-1.51-1.89-3-3.75-4.51-5.66-.84-1.12-1.56-2.32-2.37-3.47-1.18-1.68-2.4-3.34-3.57-5-.54-.78-1-1.62-1.51-2.43a22.16,22.16,0,0,0-1.24-2c-1.15-1.5-2.39-2.93-3.52-4.45-.93-1.24-1.73-2.58-2.62-3.85-.28-.4-.77-.66-1.05-1.06q-1.65-2.42-3.22-4.89c-1.12-1.75-2.43-3.43-2-5.73a7.94,7.94,0,0,0,.05-1.62c0-2,1.1-3.47,2.25-4.9a7.67,7.67,0,0,0,1.34-7c-.62-2.37-1.59-4.66-2.4-7a4.51,4.51,0,0,0-.17-.68c-1.1-1.93-2.27-3.82-3.32-5.77s-1.82-3.78-2.85-5.6C174.48,82.75,173.4,81.24,172.18,79.36Zm-71.07,50.28c-.27,1.27-.47,2.26-.69,3.25-.52,2.35-.63,4.91-1.69,7s-1,4.27-1,6.49a10.35,10.35,0,0,1-.2,2.49c-.69,2.82-1.45,5.63-2.2,8.43-.31,1.17-.63,2.33-1,3.48a39.16,39.16,0,0,0-1.35,4,23.82,23.82,0,0,1-1.1,4.34,93.8,93.8,0,0,0-2.78,9.61,28.5,28.5,0,0,1-1.46,4.5c-1.12,2.39-2.5,4.65-3.73,7-.51,1-1,2-1.4,3-.76,1.81-2,3.63-2.12,5.48-.28,7.36-.18,14.74-.16,22.12a2.23,2.23,0,0,0,.76,1.57c1.66,1.25,3.41,2.37,5.14,3.52,2.24,1.5,4.48,3,6.74,4.46,1.78,1.16,3.55,2.34,5.39,3.4.92.54,2,.77,3,1.25,2.06,1.07,4,2.34,6.12,3.27,1.63.72,3.43,1,5.12,1.59,1.33.44,2.64.94,3.92,1.5,1.52.67,3,1.45,4.48,2.15a42.12,42.12,0,0,0,4.84,2.1c2,.63,3.68,2.1,6,1.76a17.72,17.72,0,0,1,4.65.15c1.36.18,2.68.87,4,.9,4.22.11,8.35.56,12,2.76a9.56,9.56,0,0,0,5.29,1.15c2.1,0,4.2,0,6.29.23,1.73.15,3.45.7,5.17.71a3.25,3.25,0,0,0,2.55-1.24,15.77,15.77,0,0,0,1.28-4.81,40.11,40.11,0,0,0,.1-5q0-15.28,0-30.58a12.31,12.31,0,0,0-.23-2.5c-.28-1.34-.67-2.66-1-4-.23-.86-.47-1.7-.65-2.38a24.5,24.5,0,0,0,.15-3.13c-.19-2.3-.43-4.59-.77-6.87-.44-3-1-5.87-1.51-8.8a2.3,2.3,0,0,0-.12-.34c-.69-2.08-1.39-4.17-2.08-6.26-.54-1.69-1-3.39-1.61-5.06-.67-1.88-1.52-3.69-2.12-5.58-.41-1.31-.13-2.64-1-4.06-1.1-1.79-1.15-4.24-1.63-6.4a8.37,8.37,0,0,0-.16-1.25c-1.16-2.81-2.41-5.59-2.4-8.72a1.61,1.61,0,0,0-.1-.53c-.75-2.56-1.56-5.11-2.24-7.69-.58-2.18-.9-4.44-1.57-6.59a43,43,0,0,0-2.1-4.72,56.53,56.53,0,0,1-2.49-5.58c-.45-1.33-.34-2.71-1.19-4.1-1.59-2.63-1.91-5.91-3.88-8.47a46.1,46.1,0,0,1-3.53-5.48c-1.46-2.58-2.79-5.24-4.18-7.86-.57-1.07-1.13-2.15-1.78-3.16-1-1.54-2.57-2.91-3-4.57-.61-2.43-2.38-3.88-3.62-5.75a32.88,32.88,0,0,0-2.71-3.31c-1.27-1.45-2.57-2.89-3.89-4.29-.79-.85-1.69-1.6-2.48-2.45s-1.23-2-2.12-2.41c-2.08-1-5.38,0-7.09,1.65-1.23,1.21-1.7,2.83-2.62,4.16-1.87,2.73-5,4.42-6.5,7.57-1.26,2.59-3.92,3.38-6.59,4a24.29,24.29,0,0,0-5,1.51c-2.06,1-3.9,2.39-6,3.33A17.24,17.24,0,0,0,76.63,97a12.13,12.13,0,0,1-2.27,2.07c-1.5,1.16-4.12.92-4.42,3.58,0,.11-.45.14-.6.29a19.48,19.48,0,0,0-1.68,1.72c-1.55,1.93-3.15,3.82-4.56,5.85A63.74,63.74,0,0,0,59,117.09c-.74,1.39-.65,3.4-1.65,4.44-2,2.1-2,4.91-3.25,7.28-.94,1.86-1.1,4.11-1.61,6.19,0,.12,0,.24-.07.36-.73,2.06-1.8,4.07-2.15,6.19-.68,4.08-1,8.23-1.38,12.35-.31,3.42-.06,6.81-.92,10.28a70.14,70.14,0,0,0-1.53,13.61c-.26,5.56-.21,11.14-.12,16.71,0,2.31-.93,4.43-1.08,6.59C44.76,208,45,215,44,221.91a33.63,33.63,0,0,0,0,7.37c.27,3.57.8,7.12,1.22,10.67,0,.24.06.57.21.67,1.31.87.92,2.21,1,3.42,0,.63,0,1.26,0,1.93,1.12,0,2,0,2.79,0a16.31,16.31,0,0,1,4.45.36,40.9,40.9,0,0,0,12,2.11c.54,0,1.31.14,1.57-.15,1.36-1.49,3.09-.81,4.67-1,1.06-.1,2.11-.17,3.09-.24.79-4.47,1.54-8.73,2.29-13a11.94,11.94,0,0,1-.1-8.23c.39-1.1.73-1.9,0-2.93a3.06,3.06,0,0,1-.39-1.7c0-2.75.11-5.52-.08-8.26-.38-5.27.59-10.42,1.12-15.6.13-1.25.41-2.48.64-3.85l-2.64-.32a9.31,9.31,0,0,0-1.31-2.43c-2.5-2.28-5.1-4.43-7.65-6.65a1.05,1.05,0,0,1-.19-.68c-.08-1.24-.14-2.48-.2-3.71a2.72,2.72,0,0,1,3.18.81c1.3,1.48,2.94,2.67,4.13,4.21,1.06,1.38,2.68,2.25,3.2,4.19.29,1.07,1.23,2.66,3.24,1.75a5.07,5.07,0,0,1,.34-1c1.18-2.16,2.44-4.27,3.58-6.45a47.28,47.28,0,0,0,2.13-4.7,43.9,43.9,0,0,0,1.55-4.75c.58-2.18.84-4.47,1.6-6.58.93-2.59,2.26-5.05,2.3-7.9a1.31,1.31,0,0,1,.12-.7c1.56-2.29,1.45-5.05,2.11-7.58,1.48-5.78-1.33-11.34-1.21-17.07,0-.31-.38-.6-.43-.93-.11-.74-.13-1.5-.19-2.25a8.19,8.19,0,0,1,2.55.19c.4.17.6,1.1.69,1.71.17,1.31.21,2.63.32,4.13,3.33-2.45,1.69-5.92,2.41-8.65C100,127.25,100.43,129,101.11,129.64ZM426.67,473.53A9.18,9.18,0,0,0,426,471c-1.42-2.68-3.07-5.24-4.54-7.89-.62-1.13-.95-2.42-1.54-3.58-.7-1.37-1.56-2.66-2.28-4-.61-1.15-.87-2.59-1.73-3.49-2.18-2.28-3.21-5.18-4.63-7.86-.59-1.09-.76-2.4-1.31-3.51-1.15-2.31-2.45-4.54-3.64-6.83-.53-1-.9-2.15-1.41-3.2-.71-1.48-1.52-2.92-2.23-4.4-.47-1-.84-2-1.27-3-.54-1.26-1-2.54-1.65-3.77s-1.48-2.48-2.1-3.78-.85-2.56-1.49-3.73c-1.08-2-2.36-3.83-3.54-5.75s-2.28-3.83-3.48-5.71c-1-1.57-2.18-3-3.18-4.61-.85-1.35-1.5-2.83-2.34-4.18-2-3.2-4-6.35-6.05-9.53-1.48-2.35-2.94-4.72-4.4-7.09a6.15,6.15,0,0,1-.6-1.06c-.57-1.63-1.1-3.27-1.64-4.86-.23,0-.38-.05-.45,0a.82.82,0,0,0-.33.39c-.49,2.23-1,4.47-1.45,6.7a5.2,5.2,0,0,1-.19,1.23c-1.14,2.18-2.41,4.3-3.49,6.5-.91,1.85-2,2.14-3.69.75.44-.82.91-1.63,1.31-2.46a19,19,0,0,1,1.36-3,10.66,10.66,0,0,0,2.25-5.66,23,23,0,0,1,.75-2.55,24.17,24.17,0,0,0,.19-2.71l-.37.07-4.78,7.85-.17-.21-2.8,3-1.44-.08c-.1-1.16-.45-2.1.93-2.66.61-.24.94-1.21,1.37-1.87.6-.91,1.12-1.9,1.79-2.75.92-1.17,2.05-2.16,2-3.86,0-.45.6-.87.77-1.36.59-1.77,1.12-3.56,1.63-5.36.06-.21-.18-.51-.29-.77a18.53,18.53,0,0,1-1-2.31c-.19-.68,0-1.47-.24-2.13a51.9,51.9,0,0,1-2.23-10.19c-.24-2.12-1.49-4.1-1.4-6.35,0-.05-.06-.1-.08-.16-.73-2.46-1.53-4.91-2.16-7.41s-1.11-5.12-1.66-7.68c0-.12-.14-.21-.17-.32-.65-2.37-1.47-4.72-1.89-7.13-.28-1.66-.51-2.93-2.56-2.82a1.48,1.48,0,0,1-1-.3c-2.22-2.06-5.23-2.41-7.89-3.2-3.45-1-7.19-1.08-10.82-1.49-1.6-.17-3.47.31-4.77-.37a7.51,7.51,0,0,0-5.13-.63c-1.25.22-1.89-.24-1.85-1.65.08-2.39,0-4.79,0-7.18-.09-4.36-1.84-8.55-1.3-13a27,27,0,0,0,0-4.31,5.64,5.64,0,0,0-.28-1.21c-2.71.55-2.76,3.12-3,4.6-.59,4.44-2.27,8.75-1.84,13.34a4.64,4.64,0,0,1-.4,1.52c-.08.33-.33.76-.2,1,2,3.5-.86,6.76-.5,10.18,0,.36-.47.79-.75,1.17-1.68,2.35-4.76,1.19-6.78,2.7-6-.35-11.93.75-17.88,1.28-1,.09-2,.13-2.16,1.57a1.56,1.56,0,0,1-1.13,1c-3.65,0-7.31.12-10.94-.14a3.78,3.78,0,0,1-2.81-1.92,55.38,55.38,0,0,1-1.43-8.43c-.18-1.6,0-3.23,0-4.85a12.2,12.2,0,0,0-.38-1.95l-.51-.12c-1.12,1.46-2.18,3-3.36,4.37s-2.59,2.79-3.87,4.18c-1.07,1.17-2.18,2.31-3.17,3.53-1.17,1.44-2.27,2.93-3.33,4.45s-1.87,2.85-2.76,4.3-1.58,2.69-2.36,4a39.56,39.56,0,0,0-2.68,4.78,56.41,56.41,0,0,0-1.64,5.83c-.05.16-.2.3-.25.47-.66,2-1.89,4.08-1.85,6.1.12,7.13-1.2,14.33,1,21.41a35.45,35.45,0,0,1,1.06,7.87c.45,6-.27,12.14,1.46,18.13.58,2,0,4.29.15,6.44.44,5.89-.46,11.78.83,17.73.94,4.28.12,8.88,1.54,13.24.73,2.23.35,4.66,1,7.07,1,3.81.23,7.93,1.47,11.88.64,2,.08,4.4.09,6.61,0,.93.08,1.87.11,2.47,2.29.65,4.23,1.37,6.23,1.72,2.4.42,4.8.35,7.26,1.05,3.73,1.05,7.76,1,11.68,1.36a59.23,59.23,0,0,0,6.11.1,2.62,2.62,0,0,0,1.51-.58c1.76-1.52,1.85-3.89,2.08-5.81.6-5.2,0-10.47,1.13-15.7a91.58,91.58,0,0,0,1.33-11.5c.54-6.19.89-12.4,1.51-18.59.42-4.15-.41-8.29,1-12.52,1.24-3.81,1.19-8.07,1.46-12.16.22-3.34-.1-6.72.14-10.06.2-2.71.88-5.38,1.35-8.06a.51.51,0,0,1,.09-.16,57.3,57.3,0,0,1,6.24-9.46c1.47-1.68,2.41-3.81,3.72-5.64a6.74,6.74,0,0,0,.62-5.92,21.58,21.58,0,0,1-1.88-4.37c-.68-2.48-1.1-5-1.63-7.56a1.77,1.77,0,0,0-.15-.51c-1.48-2.8-.95-5.75-.69-8.68,0-.18.27-.33.41-.48.69.57,1.6,1,1.84,1.6a36.08,36.08,0,0,1,1.31,5c.52,2.47,1,4.94,1.45,7.41a2,2,0,0,0,.08.35c.71,2,1.55,3.93,2.1,6,.47,1.77.24,3.59,1.1,5.42.73,1.56.57,3.56,1.3,5.36a41.72,41.72,0,0,1,1.58,6.73,4.39,4.39,0,0,0,.13.52c.37,1.19.85,2.36,1.1,3.57.51,2.47.87,5,1.33,7.45,0,.26.36.46.46.72.64,1.63,1.84,3.31,1.74,4.9-.21,3.35,2,5.63,3,8.44.71,2.16,2.18,4.07,3.3,6.1.48.85.95,1.71,1.39,2.59.68,1.35,1.27,2.74,2,4.05.93,1.68,2,3.28,3,4.94.7,1.22,1.1,2.68,2,3.69,2.16,2.39,3.69,5.31,6.4,7.23.78.56,1.13,1.71,1.73,2.56,1,1.45,1.84,3.15,3.15,4.25,3.26,2.71,6.8,5.08,10.12,7.72a17,17,0,0,1,2.87,3.33c1.29,1.76,2.43,3.63,3.71,5.4.84,1.15,1.88,2.17,2.73,3.32,1.29,1.75,3.05,3,4.16,5.08,1.23,2.29,4.05,3.64,4.79,6.48,0,.08.22.1.28.19,1.52,1.92,3.08,3.81,4.52,5.79,1.3,1.8,2.43,3.73,3.73,5.54.71,1,1.8,1.71,2.42,2.74,1.79,3,3.42,6.13,5.15,9.19.35.62.92,1.11,1.31,1.71,1.07,1.66,2.08,3.37,3.17,5,1.47,2.24,2.88,4.53,4.5,6.66,1.17,1.54,2.17,3.43,4.6,3.39.59,0,1.17.49,1.78.56a3.25,3.25,0,0,0,2-.12,28.32,28.32,0,0,0,3.78-3.15,12.06,12.06,0,0,0,2.58-3.15c1-2.14,2.87-3.52,4.46-5.09a91.68,91.68,0,0,1,7.09-6.09C423.89,475.26,425.05,474.61,426.67,473.53ZM358.72,311c0-3.15,0-6.2,0-9.25a12.46,12.46,0,0,1,.29-2.66c.7-3.13,1.53-6.22,2.19-9.35.62-3,1.07-5.95,1.6-8.93a1.54,1.54,0,0,1,.05-.17c.7-3.06,1.64-6.09,2.05-9.18a59,59,0,0,0,.21-8.62c-.06-4.07.66-8.18-1.24-12.13-1.33-2.77-2.05-5.65-4.83-7.72a3.24,3.24,0,0,0-3.58-.4c-2.17,1-4.22,2.21-6.72,2.21a4.75,4.75,0,0,0-1.37.3c-2.37.69-4.69,1.72-7.11,2-3.13.35-6.35,0-9.51.15-4.51.27-9,.83-13.5,1.16-2,.16-4.09-.07-6.11.13-2.63.25-5.24,1.15-7.84,1.05-3.55-.15-5.45,2.25-7,4.43a48.11,48.11,0,0,1-4.83,5.71c-1.36,1.36-3,2.59-3.87,4.23a15.65,15.65,0,0,0-1.36,5.79c-.49,5.46-.79,10.93-1.12,16.4a10.44,10.44,0,0,0,.08,3.4c1.4,5,1,10.05.48,15-.3,2.75.73,5.16.3,8,7.29-.5,14.38.6,21.33-1.32,3.4-.94,3.8-1.57,3.91-5,.13-4.18-.51-8.35.9-12.53.88-2.59,0-5.6,1.34-8.32.72-1.48.26-3.29,1.09-5,1.1-2.3,1.17-5.09,1.7-7.66.16-.77.4-1.52.6-2.28a8.25,8.25,0,0,1-.16-4.17,2.09,2.09,0,0,1,3.21-.95c0,.69,0,1.52,0,2.34a16.13,16.13,0,0,0,.23,3c.63,2.67,1.67,5.27,2,8,.67,4.85,1.05,9.75,1.4,14.64.25,3.41.06,6.86,1.3,10.13.18.47.46,1.13.84,1.25a23.55,23.55,0,0,0,5,1.24c3.4.29,6.81.32,10.22.47a4.68,4.68,0,0,1,1.24.15c2.07.71,4.12,1.46,6.18,2.19a39.45,39.45,0,0,1,5,1.84A8,8,0,0,0,358.72,311ZM285.45,15.39a8.91,8.91,0,0,1-2.25.87,4.85,4.85,0,0,0-3.61,2.24c-1.51,2.06-3.06,4.08-4.55,6.15a14.51,14.51,0,0,0-3.16,8.86,34.48,34.48,0,0,1-1.06,6.21.75.75,0,0,1-.09.34c-1.69,2-.91,4.34-.86,6.54a2.56,2.56,0,0,0,3.48,2.17,16.82,16.82,0,0,1,4.84-2.06,15.78,15.78,0,0,1,6.42,0,7.5,7.5,0,0,1,3.78,3.16c.84,1.28.93,3,1.4,4.58.09.27.42.46.64.69.2-.24.56-.47.58-.73a21.58,21.58,0,0,0,.07-3.41,2.16,2.16,0,0,1,1.09-2.39c.76-.47,1.12-1.79,1.87-2,3.53-1,8.48.71,8.29,5.44-.1,2.51-.21,5-.22,7.53,0,1.13-.29,2.4,1.13,3.09a33.91,33.91,0,0,1,3,1.82,9.77,9.77,0,0,0,1.06.76,7.5,7.5,0,0,1,3.88,3.9c1.15,3,2.81,4.21,6.1,3.76,1.87-.26,3.69-1.09,5.55-1.14,2.15-.06,3.61-.42,3.54-2.92a1.89,1.89,0,0,1,.13-.52c.67-2.53,1.82-5,1.92-7.6.15-4.19,1.08-8.46-.85-12.62-.85-1.82.43-4.08-1.24-6.11-1.42-1.72-1.92-4.2-2.95-6.28a16.84,16.84,0,0,0-2-2.86c-1.25-1.58-2.88-2.94-3.77-4.69a24.56,24.56,0,0,0-4.29-6.07,33.3,33.3,0,0,0-6.5-5.36c-1.62-1-3.77-1.1-5.7-1.55-.75-.18-1.54-.17-2.29-.35-1-.26-2-.69-3-.91-2.58-.58-4.67,1.1-6.91,1.84C287.46,16.24,286.55,16.31,285.45,15.39Zm-207.66,231c-.23,2.59,1.83,4.07,3.06,5.91.93,1.42,2.3,2.54,3.29,3.93,1.22,1.74,2.25,3.61,3.35,5.44.76,1.27.25,4.3-.7,5.52-.69.89-2.06,1.62-1.38,3.11a18,18,0,0,0,1.66,2.93c1.92,2.68,3.3,5.52,3.21,8.92-.1,3.68-2.26,5.72-6,5.55a23.45,23.45,0,0,0-2.51-.07c-.92.07-1.83.32-2.74.44a5.45,5.45,0,0,1-2.25.14A2,2,0,0,0,74,289.91a17.79,17.79,0,0,0,.91,4.68c.77,2.63.2,5.54,1.33,8.28.66,1.6,1.4,3,3.28,3.26a23.8,23.8,0,0,1,5.85,1.09c2.41.94,5.4-.23,7.8,1.47,5.85-.22,11.74.87,17.53-.68a1.39,1.39,0,0,1,.84.14c2.24,1.05,4.17-.32,6.15-.89a2.6,2.6,0,0,0,1.29-2.05,124.89,124.89,0,0,1,1.37-19.8A53.1,53.1,0,0,1,121.8,279a24.94,24.94,0,0,1,1.44-3.67c.64-1.41,1.38-2.77,2.09-4.16.58-1.14,1.19-2.26,1.77-3.4.43-.84.84-1.67,1.23-2.44a39.08,39.08,0,0,0-3.93-1.59c-2.13-.6-4.31-1-6.47-1.55-1.75-.43-3.5-.89-5.24-1.34-.18,0-.33-.14-.5-.2l-5.94-2.2c-.28-.09-.58-.11-.85-.22-1.66-.69-3.29-1.86-5-2a15.63,15.63,0,0,1-7.43-2.5,12.3,12.3,0,0,0-2.37-1.27,24.21,24.21,0,0,1-8.15-4.58C81.42,247,80,245.22,77.79,246.36ZM140.62,85.3a28.69,28.69,0,0,1,3.45.3c1.28.26,2.5.8,3.77,1.13.63.16,1.33,0,1.95.22,2.38.65,4.72,1.46,7.12,2,2.76.66,5-.53,7.5-1.76,3.27-1.62,3.7-4,3.63-7a9.14,9.14,0,0,1,.08-2.16c.71-3.08-1-5.68-1.78-8.4-.79-2.55-.92-5.14.72-6.75s3.06-2.61,3.79-4.95c.58-1.86,2.39-3.56,2.88-5.63a19.59,19.59,0,0,0,.35-5.57c-.07-1.28-.82-2.5-1-3.79a23.73,23.73,0,0,1-.09-4.3c.07-1.76-.81-2.36-2.41-2.32-1.26,0-2.52,0-3.78,0a8.7,8.7,0,0,0-4.69,1c-1.35.76-1.29,1.87-1.91,2.8-1.26,1.92-2.41,3.76-2.15,6.18,0,.4,0,1-.18,1.2-1.2.94-2.38,2.11-3.76,2.52s-3,1-4.22-.89c-1-1.49-2.63-2.54-3.16-4.47-.47-1.71-3.35-2.35-4.89-1.38-1.28.81-2.54,1.31-3.16,3-.55,1.52-1,3.6-.1,5a2.77,2.77,0,0,1,.57,1.35c.08,2.46.15,4.92,0,7.36a5,5,0,0,1-1,2.56c-1.19,1.56-2.55,3-3.89,4.43-2.27,2.46-4.34,5.19-7.91,6.22a5.9,5.9,0,0,0,.48,2.09c1.92,2.72,4,5.35,5.95,8a23.42,23.42,0,0,1,1.3,2c1,1.71,1.93,3.46,3,5.15,1.49,2.45,3.07,4.85,4.56,7.3,1,1.66,1.9,3.39,2.91,5,.65,1,1.43,2,2.15,3,.25.34.5.66.75,1a9.73,9.73,0,0,0,.7-1.1c.78-1.67,0-3.3-.12-5-.14-2.69-.11-5.39-.26-8.09a2.77,2.77,0,0,0-.8-2,18.82,18.82,0,0,0-4.12-1.7C141.07,88.49,140.27,87.41,140.62,85.3Zm281.8,395c-2,2.2-3.65,3.9-5.2,5.66s-3.07,3.76-4.7,5.54c-1,1.06-2,2.35-3.28,2.76a2,2,0,0,0-1.64,2.42c0,2,0,4.08,0,6.12,0,.41.07,1-.17,1.22-2.16,2.29-4.31,4.62-6.63,6.75s-4.63,3.84-7,5.75a8.11,8.11,0,0,1-1.95,1.57c-2.44.9-4.28,2.63-6.16,4.28-1.14,1-.7,3.35.13,4.66.72,1.14,1.8,1.05,2.69,1.56,2,1.14,3.94,2.25,6.36,2.29,1,0,2,.61,3,.73a12.51,12.51,0,0,0,4.26.13c2-.47,3.89-1.52,5.89-2.12s4.19-1,6.3-1.44c.17,0,.39,0,.5-.15,2.18-2.15,5.39-2,7.87-3.49a31.66,31.66,0,0,1,4.21-2,24.23,24.23,0,0,1,4.64-1.71c2.14-.4,4.39.2,6.43-1.32,1.15-.87,3.27-3,3.4-4.42.3-3.23,0-6.15-2.42-8.74-1.61-1.7-2.48-4.07-3.81-6.06-.64-1-2.08-1.6-2.28-2.56-.46-2.23-2.24-3.37-3.37-5-1.45-2.13-2.86-4.3-4.16-6.52C424.38,484.44,423.53,482.53,422.42,480.33ZM270,77.64c1.13-.3,2-.83,2.77-.68,2.36.46,3.4,1.92,3.25,4.44a2.72,2.72,0,0,0,1.79,3.07c1.06.47,2.43,1.07,2.17,2.88-.48,3.25-.24,3.49,2.89,4.51a12.49,12.49,0,0,1,4,1.56c1,.78,1.45.63,2.24,0a55.32,55.32,0,0,0,9.63-9.65,18.53,18.53,0,0,1,4-4.32c2.3-1.61,4.94-2.73,7.37-4.18a1.79,1.79,0,0,0,.57-1.64,28.81,28.81,0,0,0-3.06-4.29,11.74,11.74,0,0,0-3.08-2.59,11,11,0,0,0-4.13-1.42c-1.59-.16-2.19-.81-1.92-2.24a23.48,23.48,0,0,1,1-4.54,11.75,11.75,0,0,0,.09-6.37c-.25-1.16-1.62-2.28-2.75-3s-3,1.13-3.06,2.93c-.08,1.55,0,3.12-.22,4.66-.2,1.79-3.69,3.35-4.65,2a18,18,0,0,1-2.7-5.55c-.51-1.83-1.37-3.11-3.34-3.18-3.58-.12-7.16-.11-10.61,2.06.08.8-.19,2.17.37,2.84a4.38,4.38,0,0,1,.76,3.69c-.2,1.8-.71,3.56-1,5.34-.5,2.8-.94,5.6-1.42,8.4a.85.85,0,0,1-.25.44C269.1,74.29,269.39,75.94,270,77.64Zm-100.27-13a21.75,21.75,0,0,0-1.35,2.12,1.72,1.72,0,0,0-.08,1.33c.69,1.39,1.47,2.74,2.27,4.07.28.45.95.76,1,1.22.61,2.83,3.33,4.21,4.37,6.93,1.28,3.37,4.1,6.13,5.77,9.39s2.61,6.79,4,10.15c.29.69,1.11,1.17,1.69,1.74.31-.36.63-.71.93-1.09,1.25-1.58,2.54-3.15,3.74-4.78s2.39-3.39,3.52-5.12a58.62,58.62,0,0,1,3.4-5.36c1.7-2.06,2.34-4.1,1.26-5.56-1.48-2-2.49-4.21-2.11-6.77.28-1.89,1-3.73,1.11-5.62.22-2.5,0-5,.14-7.54a11.55,11.55,0,0,0-4.71-10c-.94-.74-1.47-.62-2-.35.59,1.93,1.16,3.7,1.69,5.48a23.67,23.67,0,0,1,.68,2.73,47.62,47.62,0,0,1,.67,5c0,.35-.75,1-1.19,1a1.58,1.58,0,0,1-1.27-.91c-.57-2.27-1-4.58-1.45-6.87a6.3,6.3,0,0,0-.37-1.37c-.67-1.45-1.34-2.89-2.08-4.3s-1.13-3.2-3.33-4c-3.2-1.15-3.1-1.5-5.21,1a1.74,1.74,0,0,1-.9,3c-3.12.9-3.36,1.11-3,4.38.19,1.72-.69,2.48-1.94,3.08-2.1,1-2.56,2.63-.93,5ZM10.65,491.12l-.4-.48c-.57,1.09-1.08,2.23-1.73,3.28a15.55,15.55,0,0,1-2.68,3.83,6,6,0,0,0-2.29,5.46c.19,2.53.79,5,1.18,7.43.76,4.67,1.11,9.37,2.9,13.6,2.06,1.29,2.58-.68,3.37-1.54s1.19-1,1.7.16c.42.92.91,1.81,1.53,3l4.13-.75a3.68,3.68,0,0,1,.29.54c1,3,1.91,3.24,4.75,1.74,1-.53,2.27-1.21,3.14.56.15.31,1,3,2.59.6.33-.48,2.59-.49,2.93,0,1.24,1.75,2.71.55,4.09.91a6.4,6.4,0,0,0,.25-1.36c-.19-2.69.19-5.36-.87-8.08s-1.23-5.61-1.59-8.46a43.55,43.55,0,0,0-1-6.25,6.38,6.38,0,0,0-2.18-3.4,26.25,26.25,0,0,0-4.48-3.47c-2-1-3.51-2.94-6-3-.42,0-.83-.39-1.25-.59-2-1-4-1.95-6-2.89C12.25,491.67,11.44,491.42,10.65,491.12Zm213.26-18.69.26-.62a19.14,19.14,0,0,0-4.24.31c-1.69.48-3.19,1.71-4.89,2.08a67.25,67.25,0,0,1-8.74,1.18,59.11,59.11,0,0,1-6.1,0c-2.82-.06-3.2.3-3.32,3.07-.06,1.12.11,2.44-.41,3.31a8.2,8.2,0,0,0-.4,7.33c.86,2.14,3.51,3.51,6,4a25.09,25.09,0,0,0,5.35.13c2.71,0,5.36-.88,8-1.09,5.76-.47,11.58-.13,17.37-.06a5,5,0,0,1,1.78.63,18.74,18.74,0,0,0,3.57,1.57,63.67,63.67,0,0,0,8.34,1.19c2.31.15,4.73.53,6.86-.91.51-.34,1.42-.75,1.4-1.1,0-1-.17-2.42-.78-2.77-2.28-1.28-3.81-3.66-6.73-4.07-1.5-.21-2.82-1.51-4.3-2.15-2.12-.92-4.32-1.66-6.46-2.55a12.55,12.55,0,0,1-1.83-1.24c-1.66-1.11-3.39-2.14-5-3.34-1.11-.82-2-1.9-3.07-2.81C225.7,473.8,224.79,473.13,223.91,472.43ZM152.54,99.29l-.66.13a5.87,5.87,0,0,0-.45,1.58c.08,5.31.1,10.64.39,16a31.67,31.67,0,0,0,1.33,5.73c0,.1.16.18.21.28.71,1.68,1.52,3.32,2.08,5,.64,1.94,1,4,1.58,5.91.66,2.17,1.61,4.26,2.14,6.45.65,2.65,1,5.37,1.45,8.06a4.09,4.09,0,0,0,.17.69c.72,2.06,1.54,4.1,2.15,6.19.65,2.29,1,4.64,1.66,6.94a34.55,34.55,0,0,0,1.32,3.51c.69,1.73,1.49,3.41,2.09,5.17.67,2,1.18,4,1.77,6,0,0,.22,0,.41,0,.51-1.89,1.4-3.79,1.47-5.71.23-6.82.3-13.65.16-20.47-.06-3.09-.83-6.16-1.14-9.25-.44-4.35.56-8.78-1.1-13.08-.74-1.88-.08-4-1.37-6s-1.69-4.74-2.9-6.91a54.59,54.59,0,0,0-5.14-7.49C157.75,105,155.09,102.2,152.54,99.29ZM235.76,477l.08.71c1.28.6,2.56,1.21,3.86,1.77s2.52,1.06,3.8,1.53a6.77,6.77,0,0,0,2.6.76c2.18-.15,4.34-.72,6.52-.85,2.74-.17,5.51-.07,8.26-.07a5,5,0,0,1,1.22.19c2.48.66,4.94,1.36,7.41,2A41.74,41.74,0,0,0,274,484a3.79,3.79,0,0,0,2.14-.4c2.71-1.44,2.79-4.35,3.43-6.84.4-1.52,0-3.22.19-4.83a10.09,10.09,0,0,1,.84-3.13c.79-1.73-.36-5.44-1.92-5.6-3.92-.39-7.87,0-11.79-1.19-2.37-.73-5.11-.29-7.68-.31a2.76,2.76,0,0,0-1.83.46,53.23,53.23,0,0,1-8.35,7.65c-1.6,1.15-3.39,2-4.91,3.21a10.68,10.68,0,0,1-2.29,1.28C239.84,475.22,237.8,476.1,235.76,477Zm-103-176.11.79.62,3-1.4c2.92-1.36,5.85-2.67,8.73-4.08,3.23-1.58,6-3.89,9.41-5.25a29.7,29.7,0,0,0,9-6.17c2.17-2,4.32-4.11,6.32-6.31a3.3,3.3,0,0,0,.49-2.46c-.06-.39-1-.72-1.63-.93-1.87-.64-4-.89-5.61-1.87a23.83,23.83,0,0,0-8.57-3,13.69,13.69,0,0,0-7.25.93c-1.27.5-2.83,0-3.94,1.39-.7.85-2,1.2-2.65,2.08a21.14,21.14,0,0,0-2.61,5c-1,2.94-1.88,6-2.62,9-.64,2.6-1,5.26-1.53,7.9-.05.28-.2.55-.28.83ZM76.88,283.45a49.52,49.52,0,0,0-6.72-14.79c1-.14,2-.33,2.42.09a16.36,16.36,0,0,1,4,6.27,28.76,28.76,0,0,0,1.27,3.3c.91,2.06,1.88,4.1,2.94,6.38l1.85.16.4-.45c-.49-1-1.06-1.9-1.48-2.9-.92-2.23-1.77-4.5-2.67-6.74-.17-.41-.57-.74-.68-1.16a5.1,5.1,0,0,1-.37-2.44,21.54,21.54,0,0,1,1.7-3.44c.06-.38.56-.28,1-.42s.7-.63.63-.77c-.54-1.14-1.27-2.2-1.75-3.36a4.23,4.23,0,0,1,.08-1.79c.6.12,1.38.05,1.78.41a23.78,23.78,0,0,1,2.29,2.77c.22-.53.69-1.08.57-1.43a34.49,34.49,0,0,0-2.32-5.61c-.54-1-1.84-1.48-2.59-2.37-1.07-1.29-1.79-2.88-3-4.06-.9-.93-2.12-2.11-3.59-.5a1.94,1.94,0,0,1-1.32.35c-3.41,0-6.82,0-10.24-.09a2.88,2.88,0,0,1-.87-.14c-1.21-.37-2.4-.77-3.73-1.19a29.87,29.87,0,0,0,1.31,13.26c.47,1.38.94,2.78,1.54,4.11,1,2.17,2.2,4.24,3,6.45.58,1.53.21,3.2,1.25,4.83s1.62,3.55,3.46,4.83a4.15,4.15,0,0,0,4,.46c-1.5-4.08-2.93-8-4.38-12,.18-.15.42-.26.52-.44.81-1.43,1.33-1.42,1.89.21s1.47,3.18,2.07,4.82,1.09,3.45,1.56,5.2S74.48,283.77,76.88,283.45Zm125.66-3.52c-.65.3-1.42.4-1.59.78a36.2,36.2,0,0,0-1.59,4.45c-.52,1.74-2.72,2.9-3.76,1.87-1.48-1.47-2.61-3-2.34-5.41a48.41,48.41,0,0,0-.06-6.81,1.86,1.86,0,0,0-.41-1.26c-1.29-1-1-2.22-.59-3.46,2-.08,3.4,1,3.44,2.9.07,3.5,0,7,0,10.74,2.47-.87,2.84-3,3.49-4.61.89-2.18.92-4.7,1.51-7s-.86-3.86-1.6-5.62a12.41,12.41,0,0,0-3.14-4c-1.86-1.71-3.94-3.18-5.94-4.74a3.75,3.75,0,0,0-4.42.42,29.68,29.68,0,0,1-3.41,2.82c-2.07,1.46-3.32,4.17-2.51,6q1.74,3.91,3.63,7.75c1.21,2.46,2.52,4.87,3.77,7.3a20.44,20.44,0,0,0,1.39,2.72c1.53,2.13,3.11,4.24,4.81,6.24a3.94,3.94,0,0,0,2.31,1.18c.55.08,1.22-.56,1.81-.92,1-.64,2.38-1.08,3-2,.84-1.3,1.77-2.68,1.63-4.51A25.3,25.3,0,0,1,202.54,279.93Zm-26.39-71.47h-.35a8.55,8.55,0,0,0-.14,1.81c.3,2.72.78,5.42,1,8.15a57.88,57.88,0,0,1-.09,6.45c0,.77-.39,1.53-.39,2.29s.44,1.5.39,2.24c-.22,3.53-.15,7-.58,10.6-.56,4.64-1.56,9.6.7,14.29a37.55,37.55,0,0,1,1.69,5.88c1.26-.88,2.34-1.58,3.37-2.35,2-1.51,3.31-3.91,6.09-4.49a2.71,2.71,0,0,0,1.6-2.09c-.25-2.52-.88-5-1.37-7.49,0-.11-.12-.2-.18-.3a30.13,30.13,0,0,1-2.09-4.37c-.7-2.33-1.07-4.75-1.57-7.13,0-.18,0-.36-.08-.53-.72-2.48-1.49-4.95-2.16-7.45-.54-2.06-1-4.17-1.43-6.25a3,3,0,0,0-.17-.5c-.77-1.73-1.5-3.47-2.31-5.17C177.47,210.83,176.79,209.66,176.15,208.46ZM58.47,270.84l-.66.2c-.47,1.88-1,3.75-1.39,5.63-.17.75-.14,1.55-.29,2.3-.31,1.53-.67,3-1,4.57s-.85,3.09-1.12,4.67c-.55,3.08-1,6.18-1.49,9.28a2.83,2.83,0,0,1-.24.67c-.33.85-.66,1.71-1.12,2.88L61,303.29c1.09-1.82,2.15-3.8,3.39-5.65s3.18-3.7,3.43-6.32c0-.46.63-.84.8-1.32.33-1,1-1.94-.5-2.7a34.57,34.57,0,0,1-3.63-2.46c-2.56-1.75-3.09-4.72-4.21-7.28a38.79,38.79,0,0,1-1.55-6C58.64,271.3,58.55,271.07,58.47,270.84Zm29.59,12.68c-.61-1.53-1.1-2.7-1.54-3.89a23.46,23.46,0,0,0-1.58-4.33c-1-1.58-2-3-2.31-4.94-.12-.78-1.21-1.41-1.85-2.1l-.66.38A14.09,14.09,0,0,0,80.4,271c.25.84.74,1.6,1.07,2.42.17.43.16.95.35,1.37,1.29,2.88,2.61,5.73,4,8.73ZM372.53,178l.76.24c1.4-2,4-3.15,4.35-6s-.46-5.21-2.08-8c-.23,1.13-.38,1.79-.5,2.45-.48,2.73-.95,5.47-1.44,8.21,0,.22-.25.4-.32.62C373,176.27,372.78,177.11,372.53,178ZM365.6,211c1.42-1.71,4.67-1.59,4.12-4.39a4,4,0,0,0-3.3-3.26C366.41,205.91,364.24,208,365.6,211Z"/><path class="cls-1" d="M373.92,158.39c-.49,2.82-.54,5.87-1.62,8.5-.92,2.2-.22,4.83-2,6.68-.07.07-.07.23-.09.34-.47,3.19-.8,6.41-1.47,9.56-.53,2.51-1.49,4.93-2.25,7.39a1.89,1.89,0,0,0-.14.69c.27,3.1-1.14,5.72-2.34,8.4a2.35,2.35,0,0,0-.09.53c-.47,3-.81,6-1.44,8.87a55.56,55.56,0,0,1-2.13,7c-.15.43-.95.74-1.51.9-1.42.39-2.86.71-4.3,1-2.53.48-5.09,1.36-7.59,1.25-5.6-.26-11,.87-16.45,1.73-2.44.39-4.9.63-7.31,1.09-1.78.35-3.42,1.42-5.15,2.11-1.4.56-2.85,1-4.23,1.56s-2.86,1.36-4.29,2a3.31,3.31,0,0,1-.66.25c-2.32.52-4.67.93-6.95,1.57-2,.56-3.94,1.41-5.93,2.07a9.45,9.45,0,0,1-1.93.27c-2.88.33-5.77.67-8.65,1-1.44.15-2.64.2-3.59-1.46-1.15-2-3-3.61-3.49-6-.05-.27-.32-.49-.5-.72a15.89,15.89,0,0,1-3.33-6.54,21.15,21.15,0,0,0-1.86-4.1,2.26,2.26,0,0,1-.19-.49c-.49-2.24-.88-4.51-1.46-6.72-.66-2.52-1.5-5-2.24-7.47a6,6,0,0,1-.24-1.4c-.07-1.85,0-3.72-.18-5.57-.29-3.94-.67-7.88-1-11.82,0-.48.06-1,0-1.44-.29-2,.75-2.54,2.54-2.7,2.47-.22,5.13-.21,7.31-1.2,2.91-1.32,5.86-.51,8.7-1.12a36.19,36.19,0,0,0,5.43-2.06c1.55-.59,3.11-1.18,4.67-1.75a44.45,44.45,0,0,0,4.23-1.54,1.57,1.57,0,0,0,.53-2.57c-.67-.54-2-.42-3.06-.3a10.28,10.28,0,0,0-2.67,1c-1.08.46-2.11,1-3.19,1.47-1.69.72-3.38,1.44-5.1,2.07-3.26,1.2-6.8.81-10.05,1.58-4.31,1-8.77.19-12.85,1.27s-8,1-12,1a16.31,16.31,0,0,1-3.91-.92,7.91,7.91,0,0,0-1-.26c-4.29-.45-8.59-.81-12.87-1.34a23.91,23.91,0,0,1-7.17-2.24,14.21,14.21,0,0,0-4.7-1.38c-2.46-.21-3.82-1.73-5.16-3.47-1.54-2-3.48-3.8-4.61-6-1.51-3-4-5-6-7.44a71,71,0,0,1-4.32-6c-1.43-2.22-2.7-4.51-4.71-6.33-.76-.7-1-2-1.59-2.87-1.95-2.93-4-5.76-5.94-8.72-1.41-2.19-3.49-3.91-4.24-6.58-.32-1.11-1.55-1.94-2-3a3.9,3.9,0,0,1-.1-2.77,35.3,35.3,0,0,1,2.64-4.46c.66-1,1.86-2,1.95-3.12.21-2.42,1.79-3.88,3.08-5.56,1.81-2.36,3.87-4.54,5.56-7,1.55-2.26,2.75-4.77,4.12-7.15a18.7,18.7,0,0,1,1.35-2.13c.52-.68,1.83-.14,2.27.82,1.31,2.88,2.37,5.92,4.06,8.55,1.58,2.45,3.88,4.42,5.77,6.68,1,1.24,1.86,2.66,2.83,4a4.4,4.4,0,0,0,1.11.94c.34.23,1,.35,1.06.56.11,1.6,2,1.78,2.33,2.57.79,1.88,2.73,2,3.8,3.25,1.28,1.54,3,2.79,4,4.47.55.9.34,2.52,0,3.66a34.81,34.81,0,0,1-2.33,5c-.25.49-.86.87-.95,1.37a14.28,14.28,0,0,0,0,2.7c.73-.42,1.79-.65,2.15-1.28a54,54,0,0,0,2.84-6.06c.59-1.44,1-3,1.6-4.85,2.1,0,4.6.12,7.09,0a40.3,40.3,0,0,0,10.25-2.27,10.36,10.36,0,0,1,3.57-.22c3.21.09,6-1.38,8.94-2.19,3.74-1,6.27-3.79,9.49-5.52,2.13-1.14,3.75-3.17,5.8-4.51a51,51,0,0,1,5.69-2.81c.91-.45,1.8-1,2.69-1.43,1.45-.8,3.16-1.34,4.31-2.45,3.29-3.17,6.22-6.71,9.56-9.82,2.55-2.38,4.7-5.25,8.16-6.6A49.23,49.23,0,0,0,314,77a1.28,1.28,0,0,1,.33-.11c2.66-.5,5.32-1,8-1.5a12.74,12.74,0,0,0,2.89-1c1.73-.83,4.81-.1,5.86,1.64a28.75,28.75,0,0,1,1.5,3.45c.46,1,1,2.06,1.24,2.59,2.44,1.11,4.53,2.1,6.66,3,1.38.58,2.88.88,4.23,1.51,2.3,1.09,4.51,2.38,6.79,3.5A37.4,37.4,0,0,0,355,91.52c2.62,1,5.31,1.85,7.88,3,2.34,1,4.56,2.31,6.81,3.53.26.13.4.53.53.83.86,2,1.61,4,2.56,5.92,1,2.09,2.26,4.08,3.34,6.15.44.85.64,1.83,1.06,2.7,1.39,2.92,2.76,5.87,4.3,8.71a22.11,22.11,0,0,0,2.61,3.23c1.16,1.41,2.32,2.82,3.49,4.21,1,1.18,2.09,2.28,3,3.52,1.25,1.72,2.3,3.59,3.54,5.32,1.46,2,3.11,3.94,4.52,6,1.05,1.52,1.74,3.29,2.79,4.8.94,1.35,2.22,2.45,3.26,3.74s2,2.7,3,4.1,2,3.11,3,4.67a4.53,4.53,0,0,1,.74,1.31,15.12,15.12,0,0,0,3.4,6.57,7.87,7.87,0,0,1,1.55,4.06,30.16,30.16,0,0,1-.1,7.17c-.24,1.65-1.23,3.2-1.9,4.78-.47,1.1-1.38,2.19-1.38,3.28,0,2.92-2.29,4.81-3,7.44-.54,2-2.26,3.7-3.29,5.62-1.43,2.67-2.67,5.44-4.06,8.13-.57,1.1-1.33,2.08-2,3.13a2.84,2.84,0,0,0-.42.9c-.54,2.82-2,4.17-4.82,4.21a58.42,58.42,0,0,1-7-.24,7,7,0,0,1-2.88-1.19,24,24,0,0,1-6.66-5.8,52.26,52.26,0,0,0-4.05-4.25,31.23,31.23,0,0,1-2.18-2.69c-1.05-1.43-2-2.92-3.07-4.34s-1.12-5.29-.23-6.73c.13-.19.36-.36.39-.57.56-2.94,1.21-5.87,1.59-8.83a3.83,3.83,0,0,1,2.51-3.26,12.88,12.88,0,0,0,3.77-3c1.33-1.48,2.87-3.08,3.4-4.9a10.81,10.81,0,0,0-.38-5.78c-.69-2.28-2.17-4.32-2.94-6.58C376.79,157.89,376.78,157.72,373.92,158.39Zm-49-75.6a8.61,8.61,0,0,0-2.14.27c-2.48,1.11-4.9,2.36-7.38,3.46s-4.77,1.89-7.09,3a2.43,2.43,0,0,0-1,1.69c-.08.47.31,1.41.62,1.47a3.38,3.38,0,0,0,2-.4c1-.49,1.92-1.22,2.94-1.71,1.73-.84,3.52-1.59,5.3-2.33,1.26-.52,2.55-1,3.82-1.46a17.26,17.26,0,0,0,3.3-1.38c.53-.35.66-1.3,1-2ZM388,206.39c1.76,1.43,2.78,1.2,3.49-.58.13-.31.36-.59.52-.89.94-1.8,3-2.76,3.3-5.13.13-1,1.38-2,2.21-2.91,2-2.2,4.1-4.35,6.22-6.59-1.52-1.2-2.42-.88-3.69,0-1.47,1-2.21,3-4.22,3.23-.2,0-.38.43-.49.69-.56,1.21-1.08,2.43-1.64,3.64a19.55,19.55,0,0,1-1.45,2.85C390.88,202.65,389.41,204.51,388,206.39ZM214.32,135.67c0-1.73.51-3.5-.14-4.6a7.2,7.2,0,0,1-.85-3.82c-.06-3.11-.05-6.22-.1-9.33,0-.74-.17-1.49-.26-2.26h-2.16a5,5,0,0,0-.22,1.28c.53,6.16-.92,12.48,1.81,18.63Zm69.51-25.08a8.16,8.16,0,0,0,2-.29c1.42-.69,2.82-1.44,4.17-2.25,2.15-1.3,4.33-2.58,6.35-4.07.49-.36.41-1.48.6-2.25a7.51,7.51,0,0,0-2.31.29c-1.1.53-2,1.5-3.12,2-2.38,1-4.93,1.76-7.24,2.94-.87.44-1.28,1.78-1.9,2.7Zm-21.48,6.35c-.48,2.06.22,3.1,2.19,3.66a12.53,12.53,0,0,1,3.56,1.53c2,1.37,3.92,3,5.88,4.45,1.52-2.32,1.1-3.67-1.11-4.87-1.91-1-3.67-2.37-5.61-3.33C265.77,117.65,264.5,116,262.35,116.94Zm42,83.66a11.67,11.67,0,0,0,1.77,1.48c2.15,1.15,4.36,2.16,6.51,3.31,1.3.7,2.47,1.66,3.81,2.26.43.19,1.23-.32,1.78-.63a2.56,2.56,0,0,0-.39-1.23c-1.24-2-3.56-2.5-5.41-3.64q-2.52-1.54-5.13-3a3.26,3.26,0,0,0-1.91-.59C305,198.68,304.84,199.63,304.37,200.6Zm-41.08-46c-3.34,0-6.66,0-10,0a1.52,1.52,0,0,0-.94,2.24,3.71,3.71,0,0,0,2.19,1.2c2.36,0,4.7.41,7.06-.89C262.93,156.45,263.65,156.08,263.29,154.6Zm132.78,15c2.57,0,3.51-.92,2.69-2.17a5.36,5.36,0,0,0-2.15-1.59,34.68,34.68,0,0,0-4.18-1.73,7.88,7.88,0,0,0-2-.19c0,.84-.33,2,.1,2.46A10.69,10.69,0,0,0,396.07,169.56Zm-172-55.18c-.57.13-1.62.08-1.81.46a16.79,16.79,0,0,0-1.48,4.18c-.33,1.57,0,3.33-.6,4.77-1.11,2.81-1.08,3.6,1.61,5.55a17.28,17.28,0,0,0,.23-3.25,17.79,17.79,0,0,1,1.44-8.39C223.88,116.67,225,115.91,224.11,114.38Zm60,20-1.41,2a19.2,19.2,0,0,0,1.84,1.75c1.27.93,2.94,1.52,3.86,2.7,1.18,1.51,2.35,1.12,4.06.89-.33-.89-.38-1.87-.88-2.25C289.13,137.71,286.6,136.1,284.08,134.41ZM387.19,153c1.05-3,.65-3.52-2.27-3.61-1.86,0-3.72-.25-5.86-.41-.05.17-.24.69-.43,1.24A16.93,16.93,0,0,0,387.19,153ZM282.84,188.92l1.82-1.26L279.18,182C277.54,184.46,278.24,185.89,282.84,188.92Z"/><path class="cls-1" d="M57,305.65,62.69,307c1.43-2.12,3.13-4.63,4.82-7.15a1.33,1.33,0,0,0,.13-.7c-.1-2.59,2-4.3,2.68-6.6a2.53,2.53,0,0,1,1,.06c.08,0,.11.32.14.49.45,3.15.55,6.4,1.47,9.4.54,1.79.23,4.25,2.34,5.32a8.22,8.22,0,0,0,3.49.9,12.25,12.25,0,0,1,7,2.14,4,4,0,0,0,2.09.37q13.13,0,26.25,0c.42,0,.84,0,1.26,0,2.38.09,2.63.61,1.49,2.72a6.9,6.9,0,0,0-.26,1.75c-.31,1.52-.59,3.06-1,4.56a1.56,1.56,0,0,0,1.47,2.22c.84.05,1.68-.05,2.52,0,1.37.09,2.79-.23,4,.92.46.44,1.49.26,2.24.44a11.42,11.42,0,0,1,2.47.76c2,1,4.61-.41,4.43-2.62-.13-1.67-.78-3.31-.87-5a51.65,51.65,0,0,1,.07-9c.14-1.11,1.55-2.29,2.66-3,2.26-1.46,4.72-2.61,7.09-3.9,2.14-1.16,4.16-2.67,6.44-3.43,2.45-.82,4-3.17,6.22-3.75s4-2.17,6.17-3.05c1.82-.76,3.31-2.41,4.83-3.79a56.32,56.32,0,0,0,4.5-4.51,34.31,34.31,0,0,0,3.35-4.52c1.3-2.12,2.71-2.59,4.26-1.18,2.28-1.4,3-1.1,4.42,1.33,1.08,1.92,2.84,3.56,3.47,5.59.71,2.29,2.3,3.6,3.69,5.26.85,1,1.11,2.54,1.72,3.79a17.73,17.73,0,0,0,1.2,1.72c1.24,2,2.46,3.95,3.69,5.92a22.09,22.09,0,0,1,1.38,2.13c1.3,2.6,2.46,5.27,3.82,7.84.83,1.57,1.93,3,2.88,4.5.67,1.08,1.32,2.18,1.94,3.29,1,1.79,1.93,3.6,2.94,5.38a35.55,35.55,0,0,1,2,3.24c1,2.22,1.74,4.57,2.74,6.79s2.56,4.55,3.39,7a25.73,25.73,0,0,1,1.47,7.51c.19,6.76,0,13.54.11,20.31,0,1.39.8,2.74,1,4.15.5,3.64.88,7.29,1.31,10.95,0,.35.09.71.14,1.06A225.06,225.06,0,0,1,222.16,411c0,2.73.76,5.45,1,8.18.2,2.5.14,5,.23,7.54.05,1.43-.46,3,1,4.15a1.74,1.74,0,0,1,.09,1.56c-1.09,2.3.25,4.53.12,6.81-.16,2.57-.12,5.15-.13,7.73s.05,5,.05,7.55-.1,5,0,7.55a31.87,31.87,0,0,0,.72,4.18,44.45,44.45,0,0,1-6.31,3.82c-2.44,1-4.93,2.19-7.77,1.89a26.2,26.2,0,0,0-4.85,0c-2,.17-4.1.72-6.14.69a14.73,14.73,0,0,1-4.3-1.17,7.07,7.07,0,0,1-1.91-1.08c-1.08-.83-2.5-1.55-3-2.67-1.46-3-3.22-5.89-2.79-9.5a33.79,33.79,0,0,0,0-6.28c-.07-1.15-.56-2.25-.73-3.4-.21-1.41-.31-2.84-.38-4.27-.1-2.16.43-4.52-.3-6.42-1.3-3.37-.25-6.92-1.24-10.13-1.28-4.13-.24-8.45-1.29-12.39-1.53-5.81-.31-11.62-1.06-17.36a70.24,70.24,0,0,0-2.15-8.42,4.37,4.37,0,0,1-.12-.52c-.54-3.22-1-6.44-1.61-9.66-.34-1.95-.34-4.15-1.31-5.75s-.7-3.39-1.14-5c-.74-2.74-1.61-5.46-2.56-8.14-.56-1.57-2-2.09-2.84-1.15a2.38,2.38,0,0,0-.18,1.9,13,13,0,0,0,1.1,2.29c-2.1,1.16-3.1-.39-4.15-1.13-2.46-1.73-4.76-3.71-7.05-5.67s-4.53-4-6.73-6.05c-2.86-2.67-5.77-5.3-8.46-8.14a45.7,45.7,0,0,1-4.08-5.54c-.78-1.12-1.44-2.32-2.19-3.45a2.66,2.66,0,0,1,1-3.62,31.07,31.07,0,0,0,4.49-3.52,53.52,53.52,0,0,0,4.37-4.66,12.92,12.92,0,0,0,1.32-2.71c-2.06-.19-3.63-.93-4.3,1.64a5.17,5.17,0,0,1-2.9,2.69c-3,1.21-4.59,4-7.07,5.76a34.62,34.62,0,0,1-3.28,2.05c-2.87,1.56-6,2.11-9.19,2.73a2.91,2.91,0,0,0-2.57,2.61,35.92,35.92,0,0,1-2,5.42c-.49,1.27-.87,2.58-1.45,3.81-1.16,2.44-2.44,4.82-3.65,7.24-.47,1-.81,2-1.32,2.95-1.57,2.91-3.23,5.76-4.78,8.68-1.06,2-1.75,4.24-3.07,6.05-1.14,1.57-1.6,3.46-3.15,4.92-1.79,1.68-2.85,4.15-4.27,6.26-.34.5-.89.86-1.21,1.37-1.32,2.12-2.56,4.28-3.88,6.4-.26.41-.85.61-1.12,1-1.77,2.68-3.37,5.47-5.28,8.05-1.68,2.27-3.66,4.31-5.52,6.44-2.33,2.66-4.62,5.33-7,7.92a24.35,24.35,0,0,1-2.88,2.37c-1.79,1.4-3.7,2.67-5.36,4.21-1.87,1.73-3.51,3.7-5.27,5.54-.68.72-1.43,1.37-2.21,2.11l1.25,1.47c3.2-.84,4.94-3.38,7-5.5a2.12,2.12,0,0,1,1.75-.26c.31.07.67.84.62,1.25-.19,1.73-.52,3.45-.81,5.18,0,.11-.06.23-.07.34-.44,3.44-.83,6.89-1.33,10.32a16.13,16.13,0,0,1-.93,2.8,6,6,0,0,0-.3.63c-.46,2.11-.78,4.25-1.39,6.31-.52,1.75-1.37,3.4-2.05,5.11-.55,1.38-1.12,2.77-1.59,4.19s-.77,3.18-1.42,4.64-1.74,2.8-2.56,4.22c-1.21,2.1-2.35,4.25-3.55,6.36-.93,1.65-1.88,3.29-2.87,4.92-.65,1.06-1.72,2-2,3.13-.38,1.68-1.61,2.67-2.38,4-1,1.79-1.87,3.68-2.82,5.52-1.29,2.49-2.48,5.05-4,7.43-.63,1-1.89,1.64-3.1,2.64-2.41-2-4.74-4-7.2-5.8a30.5,30.5,0,0,0-3.59-1.88c-1.21-.67-2.33-1.49-3.55-2.12-.95-.49-2-.77-3-1.17-2.39-1-4.74-2.13-7.19-3s-2.86-1.78-1.42-4a1.56,1.56,0,0,0,.22-.67c.48-4.21,1-8.42,1.42-12.63A39.23,39.23,0,0,1,13.39,464a1.3,1.3,0,0,0,.14-.32c.53-2.62,1-5.27,1.63-7.86.58-2.24,1.46-4.4,2.14-6.61.53-1.7.93-3.43,1.44-5.14.72-2.41,1.49-4.8,2.24-7.21,0-.11.15-.2.17-.31a57.25,57.25,0,0,0,1.34-6.45c.22-2.12,1.88-3.16,2.9-4.68.25-.37.66-.69.77-1.09.43-1.61.79-3.24,1.15-4.87.53-2.36.89-4.77,1.6-7.07.5-1.64,1.92-3.08,2.13-4.71.29-2.28,1.62-3.84,2.6-5.69,1.2-2.26,1.83-4.81,2.84-7.17.5-1.16,1.36-2.16,2-3.28s1-2,1.42-3c1-2.17,1.76-4.41,2.84-6.52s2.51-3.9,3.47-6c.74-1.6.69-3.58,1.5-5.12,1.22-2.33.59-5,1.42-7.17,2-5.39.82-10.84.91-16.26,0-1.93-.75-3.86-.93-5.82s-.52-4,0-5.72c1.42-5.2.68-10.5,1.18-15.72a14.15,14.15,0,0,1,1.25-3.62c1.25-3.18,2.47-6.37,3.85-9.49C55.62,306.4,56.55,306,57,305.65Zm18.64,46.27c-2.31,2.21-4.63,4.4-6.93,6.61-1.93,1.84-3.84,3.71-5.76,5.57-1.55,1.51-1.81,2.81-1.1,4.1,3.2.07,4-2.76,5.8-4.48s3.32-3.21,5-4.79,3.21-2.84,4.68-4.38c.24-.25-.18-1.26-.48-1.81C76.7,352.38,76.15,352.22,75.68,351.92Zm-46.2,68.65a14.4,14.4,0,0,0-1.71,2.76,2,2,0,0,0,.56,1.85c2.1,1.1,2.77,3.31,4,5,.72,1,1.14,1.73,2.51,1.13.19-1.31.65-2.46-.72-3.77a10.36,10.36,0,0,1-2.62-4.64A3.08,3.08,0,0,0,29.48,420.57Zm177.21-46.83c.49-3.07.46-3-2.36-3.34-1.31-.16-2.55-.92-3.86-1.19a8.84,8.84,0,0,0-3.32-.09c-.28.06-.32,1.37-.45,2a8.94,8.94,0,0,1,2.65.72C201.54,373.42,203.8,374.49,206.69,373.74Zm2.24,38.72c2.59,1.15,3.32-.42,4-1.62,1.37-2.28,2.59-4.64,3.8-7,.1-.2-.25-.86-.53-1-1.1-.46-2.31.45-3,1.83-.84,1.79-1.83,3.52-2.79,5.26C210,410.77,209.5,411.54,208.93,412.46Zm-153.46-6.8c.5.93.68,1.85,1.12,2a55.44,55.44,0,0,0,5.7,1.48c1.06.23,1.7-.21,1.7-1.41s-.21-2.05-1.56-2.15c-1.6-.12-3.2-.25-4.81-.29A11.79,11.79,0,0,0,55.47,405.66ZM157,330.26c-1.48,3.74,2.13,5.56,5.17,4.9.25-.05.66-.3.65-.42a1.35,1.35,0,0,0-.43-.82c-1-.91-2.21-1.63-2.87-2.71A1.93,1.93,0,0,0,157,330.26Z"/><path class="cls-1" d="M172.18,79.36c1.22,1.88,2.3,3.39,3.2,5,1,1.82,1.85,3.76,2.85,5.6s2.22,3.84,3.32,5.77a4.51,4.51,0,0,1,.17.68c.81,2.33,1.78,4.62,2.4,7a7.67,7.67,0,0,1-1.34,7c-1.15,1.43-2.24,2.93-2.25,4.9a7.94,7.94,0,0,1-.05,1.62c-.46,2.3.85,4,2,5.73s2.12,3.28,3.22,4.89c.28.4.77.66,1.05,1.06.89,1.27,1.69,2.61,2.62,3.85,1.13,1.52,2.37,2.95,3.52,4.45a22.16,22.16,0,0,1,1.24,2c.5.81,1,1.65,1.51,2.43,1.17,1.68,2.39,3.34,3.57,5,.81,1.15,1.53,2.35,2.37,3.47,1.47,1.91,3,3.77,4.51,5.66l3.33,4.16c1,1.25,2,2.47,3,3.76,1.61,2.22,3,4.6,4.8,6.67a7.62,7.62,0,0,0,3.56,1.89c2.62.77,5.31,1.32,8,1.91,1,.23,2.11.35,3.17.5,3.06.44,6.15.78,9.2,1.34,3.42.62,6.79,1.57,10.23,2.11a20,20,0,0,0,4.67-.3l8.7-.75c0,3.71,0,7,0,10.26,0,1.55-.08,3.12,0,4.67.09,1.93-.39,3.95,1,5.69.3.37.16,1.16.13,1.76a15.62,15.62,0,0,0,2.33,8.23,1.2,1.2,0,0,1,.15.69c-.43,2.53.84,4.73,1.53,7a61.87,61.87,0,0,0,3.4,7.48c1,2.1,1.8,4.26,2.86,6.3a26.89,26.89,0,0,0,2.79,4.23c1,1.3,1.24,2.67.26,3.9-.18.21-.52.36-.58.59-.53,2-.71,4.06-1.57,5.85-1.57,3.26-.76,6.65-1.09,10-.39,3.93-.78,7.87-1.44,11.76-.3,1.82-1.33,3.51-1.82,5.31a19.52,19.52,0,0,0-.45,3.91c-.13,2.4.19,4.89-.38,7.17-1,4.11-.75,8.24-1,12.36,0,.4-.65.78-1,1.16-1.22,1.35-2.93,2.51-3.57,4.1-1.41,3.44-4.79,5-6.69,7.93-1.08,1.66-2.53,3.07-3.77,4.64-1.53,1.94-3.05,3.89-4.51,5.89-.6.83-1,1.78-1.58,2.66-1.05,1.72-2.21,3.38-3.18,5.14-1.31,2.38-3.12,4.47-3.42,7.41-.18,1.76-1.37,3.39-1.78,5.16a35.68,35.68,0,0,0-.66,5.67c-.14,2,.28,4-.75,6.08-.64,1.29-.2,3.18-.06,4.78s.6,3.36.79,5.05c.3,2.56-.36,5.25,1.21,7.65a4.11,4.11,0,0,1,.19,1.95c.08,4.25,0,8.52.23,12.76.21,4.07.7,8.12,1.12,12.17.3,2.9.87,5.79,1,8.69.22,5.26,0,10.55.36,15.79.27,3.65,1.31,7.24,2,10.85a14.1,14.1,0,0,1,.27,2.13c.1,4.32-.34,8.73.42,12.92.68,3.78.46,7.56,1.1,11.26.21,1.27.75,3.19,2.81,3.65a15.81,15.81,0,0,1,3.52,1.87c-2.45,1.94-5.08,3.55-7.06,5.74s-4.49,3.05-6.79,4.24-4.67,3.12-7.71,3.22c-2.1.07-3.17-1.43-4.7-2.2-.53-.27-1.3-.61-1.4-1.05-.15-.62-.86-1.67.59-2,.26-.06.48-.88.48-1.35,0-9.23.74-18.56-.39-27.65-1-8.43.21-16.88-1.09-25.13-1.41-9-.37-18-1.3-27-.28-2.69-.46-5.6-2-8.08a2.56,2.56,0,0,1-.14-.7,74.46,74.46,0,0,1-1.45-16.73c.15-5.51.2-11-.1-16.54-.1-2-1.3-4-2-5.92-.47-1.27-.91-2.55-1.49-3.77q-1.79-3.81-3.69-7.56c-1.77-3.47-3.54-6.94-5.41-10.35-.89-1.62-2.12-3-3-4.64-1.09-1.87-2-3.82-3-5.74-.43-.82-.83-1.66-1.3-2.46-1.55-2.69-3.11-5.38-4.72-8-.71-1.17-.09-2.75,1.53-3.8a27.2,27.2,0,0,0,3.89-2.79,5.54,5.54,0,0,0,1.57-2.73c.73-3.39,2.23-6.6.73-10.35-1-2.39-2.09-4.92-1.79-7.83.17-1.55-.76-3.35-1.56-4.85a25.84,25.84,0,0,0-3.39-4.7,6.39,6.39,0,0,0-2.79-2.16,9.22,9.22,0,0,1-3.41-2.75,2.12,2.12,0,0,1,.36-2c1.26-.83.71-1.64.35-2.58a9.45,9.45,0,0,1-.75-2.5c-.21-2.37-1.28-4.39-2.2-6.51a43.9,43.9,0,0,1-1.55-5.12l-2.22-7.42a3,3,0,0,1-.15-.51,55.39,55.39,0,0,0-1.15-6.38,36.51,36.51,0,0,0-2.48-7.62,27.73,27.73,0,0,1-1.34-4.32c-.54-2-1-4-1.55-5.92a6.74,6.74,0,0,0-.8-1.32,56.83,56.83,0,0,1-2.89-5.3,32.23,32.23,0,0,1-2.14-6.65,25.6,25.6,0,0,1-.1-6.25c.14-1.86.72-3.7.9-5.56.2-2.15.11-4.32.29-6.47.08-1,.59-1.88.77-2.85a4,4,0,0,0,0-2.29c-1.24-2.34-.66-4.82-.64-7.21s.76-5,.66-7.55c-.28-6.78-.7-13.57-1.34-20.32-.23-2.37-1.24-4.65-1.89-7-.55-2-1-4-1.66-5.87a24.62,24.62,0,0,0-1.94-4.4,77,77,0,0,0-4.37-6.89c-1.74-2.38-3.7-4.59-5.6-6.86s-3.8-4.5-5.75-6.71c-.4-.46-1.06-.68-1.5-1.12a1.83,1.83,0,0,1-.62-1.24,1.5,1.5,0,0,1,1-.91,2.71,2.71,0,0,1,1.76.12c3.67,1.95,6.9.51,10.13-1.17,1-.53,2.08-1,3.11-1.53a7.41,7.41,0,0,0,3-3.18c1-1.59.86-3.09.93-4.66A2.3,2.3,0,0,1,172.18,79.36Z"/><path class="cls-1" d="M101.11,129.64c-.68-.61-1.07-2.39-3.11-1.41-.72,2.73.92,6.2-2.41,8.65-.11-1.5-.15-2.82-.32-4.13-.09-.61-.29-1.54-.69-1.71a8.19,8.19,0,0,0-2.55-.19c.06.75.08,1.51.19,2.25,0,.33.44.62.43.93-.12,5.73,2.69,11.29,1.21,17.07-.66,2.53-.55,5.29-2.11,7.58a1.31,1.31,0,0,0-.12.7c0,2.85-1.37,5.31-2.3,7.9-.76,2.11-1,4.4-1.6,6.58a43.9,43.9,0,0,1-1.55,4.75,47.28,47.28,0,0,1-2.13,4.7c-1.14,2.18-2.4,4.29-3.58,6.45a5.07,5.07,0,0,0-.34,1c-2,.91-2.95-.68-3.24-1.75-.52-1.94-2.14-2.81-3.2-4.19-1.19-1.54-2.83-2.73-4.13-4.21a2.72,2.72,0,0,0-3.18-.81c.06,1.23.12,2.47.2,3.71a1.05,1.05,0,0,0,.19.68c2.55,2.22,5.15,4.37,7.65,6.65a9.31,9.31,0,0,1,1.31,2.43l2.64.32c-.23,1.37-.51,2.6-.64,3.85-.53,5.18-1.5,10.33-1.12,15.6.19,2.74,0,5.51.08,8.26a3.06,3.06,0,0,0,.39,1.7c.77,1,.43,1.83,0,2.93a11.94,11.94,0,0,0,.1,8.23c-.75,4.23-1.5,8.49-2.29,13-1,.07-2,.14-3.09.24-1.58.14-3.31-.54-4.67,1-.26.29-1,.17-1.57.15a40.9,40.9,0,0,1-12-2.11,16.31,16.31,0,0,0-4.45-.36c-.84,0-1.67,0-2.79,0,0-.67,0-1.3,0-1.93,0-1.21.34-2.55-1-3.42-.15-.1-.18-.43-.21-.67-.42-3.55-1-7.1-1.22-10.67a33.63,33.63,0,0,1,0-7.37c1-6.92.78-13.89,1.28-20.82.15-2.16,1.11-4.28,1.08-6.59-.09-5.57-.14-11.15.12-16.71A70.14,70.14,0,0,1,48,164.18c.86-3.47.61-6.86.92-10.28.38-4.12.7-8.27,1.38-12.35.35-2.12,1.42-4.13,2.15-6.19,0-.12,0-.24.07-.36.51-2.08.67-4.33,1.61-6.19,1.2-2.37,1.23-5.18,3.25-7.28,1-1,.91-3,1.65-4.44a63.74,63.74,0,0,1,4.08-6.58c1.41-2,3-3.92,4.56-5.85a19.48,19.48,0,0,1,1.68-1.72c.15-.15.58-.18.6-.29.3-2.66,2.92-2.42,4.42-3.58A12.13,12.13,0,0,0,76.63,97a17.24,17.24,0,0,1,6.66-5.54c2.06-.94,3.9-2.37,6-3.33a24.29,24.29,0,0,1,5-1.51c2.67-.58,5.33-1.37,6.59-4,1.53-3.15,4.63-4.84,6.5-7.57.92-1.33,1.39-3,2.62-4.16,1.71-1.69,5-2.69,7.09-1.65.89.44,1.39,1.62,2.12,2.41s1.69,1.6,2.48,2.45c1.32,1.4,2.62,2.84,3.89,4.29a32.88,32.88,0,0,1,2.71,3.31c1.24,1.87,3,3.32,3.62,5.75.42,1.66,2,3,3,4.57.65,1,1.21,2.09,1.78,3.16,1.39,2.62,2.72,5.28,4.18,7.86a46.1,46.1,0,0,0,3.53,5.48c2,2.56,2.29,5.84,3.88,8.47.85,1.39.74,2.77,1.19,4.1a56.53,56.53,0,0,0,2.49,5.58,43,43,0,0,1,2.1,4.72c.67,2.15,1,4.41,1.57,6.59.68,2.58,1.49,5.13,2.24,7.69a1.61,1.61,0,0,1,.1.53c0,3.13,1.24,5.91,2.4,8.72a8.37,8.37,0,0,1,.16,1.25c.48,2.16.53,4.61,1.63,6.4.88,1.42.6,2.75,1,4.06.6,1.89,1.45,3.7,2.12,5.58.59,1.67,1.07,3.37,1.61,5.06.69,2.09,1.39,4.18,2.08,6.26a2.3,2.3,0,0,1,.12.34c.51,2.93,1.07,5.85,1.51,8.8.34,2.28.58,4.57.77,6.87a24.5,24.5,0,0,1-.15,3.13c.18.68.42,1.52.65,2.38.35,1.33.74,2.65,1,4a12.31,12.31,0,0,1,.23,2.5q0,15.28,0,30.58a40.11,40.11,0,0,1-.1,5,15.77,15.77,0,0,1-1.28,4.81,3.25,3.25,0,0,1-2.55,1.24c-1.72,0-3.44-.56-5.17-.71-2.09-.18-4.19-.25-6.29-.23a9.56,9.56,0,0,1-5.29-1.15c-3.68-2.2-7.81-2.65-12-2.76-1.35,0-2.67-.72-4-.9a17.72,17.72,0,0,0-4.65-.15c-2.34.34-4-1.13-6-1.76a42.12,42.12,0,0,1-4.84-2.1c-1.5-.7-3-1.48-4.48-2.15-1.28-.56-2.59-1.06-3.92-1.5-1.69-.56-3.49-.87-5.12-1.59-2.1-.93-4.06-2.2-6.12-3.27-.94-.48-2-.71-3-1.25-1.84-1.06-3.61-2.24-5.39-3.4-2.26-1.47-4.5-3-6.74-4.46-1.73-1.15-3.48-2.27-5.14-3.52a2.23,2.23,0,0,1-.76-1.57c0-7.38-.12-14.76.16-22.12.07-1.85,1.36-3.67,2.12-5.48.43-1,.89-2,1.4-3,1.23-2.33,2.61-4.59,3.73-7a28.5,28.5,0,0,0,1.46-4.5,93.8,93.8,0,0,1,2.78-9.61,23.82,23.82,0,0,0,1.1-4.34,39.16,39.16,0,0,1,1.35-4c.37-1.15.69-2.31,1-3.48.75-2.8,1.51-5.61,2.2-8.43a10.35,10.35,0,0,0,.2-2.49c0-2.22-.08-4.31,1-6.49s1.17-4.63,1.69-7C100.64,131.9,100.84,130.91,101.11,129.64Zm69.72,86.53c-3.08-.35-3.73.2-4,2.72a8.76,8.76,0,0,1-.3,1.76c-.7,2.22-1.4,4.44-2.19,6.63-.63,1.73-1.43,3.4-2.11,5.11q-.9,2.25-1.69,4.54c-.56,1.63-.68,3.59-1.68,4.87-1.29,1.64-.66,3.74-1.87,5.3a1.55,1.55,0,0,0,.07,1.52,3.11,3.11,0,0,0,1.73.67,17.62,17.62,0,0,0,1.6-3.37c.63-1.86,1-3.8,1.68-5.65s1.56-3.87,2.36-5.8a7.43,7.43,0,0,1,.47-.88,43.53,43.53,0,0,0,3-6.08,68,68,0,0,0,1.54-7.72,5.27,5.27,0,0,1,.3-.84C170.1,218.09,170.43,217.23,170.83,216.17ZM152.51,144.6c1.56-2.81-.65-4.5-1.3-6.51a28.7,28.7,0,0,0-1.93-4,31.66,31.66,0,0,0-1.9-3.66c-1.36-2-3.09-3.73-4.28-5.8a25.1,25.1,0,0,0-6.11-7.45,5.87,5.87,0,0,0,0,3.41c.88,1.79,2.78,2.76,3.63,4.82,1,2.34,3.11,4.18,4.48,6.39,1.49,2.4,3.18,4.87,3.85,7.54C149.57,141.67,151.14,142.79,152.51,144.6Zm-17,80c-.21-.82-.16-1.68-.57-2.12-2.11-2.27-4.35-4.42-6.52-6.65-2.7-2.77-5.4-5.53-8-8.37-1.56-1.69-2.54-2-5-1.21a3.15,3.15,0,0,0,.43.86c1.5,1.59,3,3.18,4.55,4.72,2.32,2.31,4.71,4.54,7,6.87a21.27,21.27,0,0,1,4,4.55C132.38,225.08,133.6,225,135.52,224.55ZM125.41,97.86c-.12-.89,0-1.77-.34-2.25-1.55-2-3.32-3.85-4.88-5.85s-2.56-4.59-4.65-6.3c-1.09-.88-1.88-2.48-3.83-1.4V85A39.26,39.26,0,0,1,116,88c.84.78,1.21,2.05,1.92,3,1.53,2,3.29,3.93,4.65,6.07C123.34,98.29,124.14,98,125.41,97.86ZM153.1,227.7a18.77,18.77,0,0,0,.29,7c.29,1.1.8,2.38.48,3.33-.47,1.43.24,2,1.2,3.06a10.32,10.32,0,0,0,.67-1.78c.25-1.45.42-2.91.59-4.37a2.94,2.94,0,0,0-.1-.88,20.32,20.32,0,0,1-.67-3.39C155.52,229.25,155.25,228.14,153.1,227.7ZM106,191c-.64.78-1.49,1.39-1.72,2.18-.41,1.42,1.17,1.33,1.86,1.94.09.07.13.2.21.28l3.07,2.77c1.43-1.24,1.47-2.41.67-3.33A52.51,52.51,0,0,0,106,191Zm-.83-36.39H97.94V157c1.84,0,3.61-.08,5.37,0S105.71,156.44,105.13,154.56Zm28.94-44.34c-1.14-2.46-2.28-4.58-4.52-5.8-1.78,3.28,2.07,4,2.4,6.32Z"/><path class="cls-1" d="M426.67,473.53c-1.62,1.08-2.78,1.73-3.8,2.56a91.68,91.68,0,0,0-7.09,6.09c-1.59,1.57-3.42,2.95-4.46,5.09a12.06,12.06,0,0,1-2.58,3.15,28.32,28.32,0,0,1-3.78,3.15,3.25,3.25,0,0,1-2,.12c-.61-.07-1.19-.57-1.78-.56-2.43,0-3.43-1.85-4.6-3.39-1.62-2.13-3-4.42-4.5-6.66-1.09-1.66-2.1-3.37-3.17-5-.39-.6-1-1.09-1.31-1.71-1.73-3.06-3.36-6.17-5.15-9.19-.62-1-1.71-1.76-2.42-2.74-1.3-1.81-2.43-3.74-3.73-5.54-1.44-2-3-3.87-4.52-5.79-.06-.09-.26-.11-.28-.19-.74-2.84-3.56-4.19-4.79-6.48-1.11-2.08-2.87-3.33-4.16-5.08-.85-1.15-1.89-2.17-2.73-3.32-1.28-1.77-2.42-3.64-3.71-5.4a17,17,0,0,0-2.87-3.33c-3.32-2.64-6.86-5-10.12-7.72-1.31-1.1-2.13-2.8-3.15-4.25-.6-.85-.95-2-1.73-2.56-2.71-1.92-4.24-4.84-6.4-7.23-.91-1-1.31-2.47-2-3.69-1-1.66-2-3.26-3-4.94-.74-1.31-1.33-2.7-2-4.05-.44-.88-.91-1.74-1.39-2.59-1.12-2-2.59-3.94-3.3-6.1-.93-2.81-3.18-5.09-3-8.44.1-1.59-1.1-3.27-1.74-4.9-.1-.26-.41-.46-.46-.72-.46-2.48-.82-5-1.33-7.45-.25-1.21-.73-2.38-1.1-3.57a4.39,4.39,0,0,1-.13-.52,41.72,41.72,0,0,0-1.58-6.73c-.73-1.8-.57-3.8-1.3-5.36-.86-1.83-.63-3.65-1.1-5.42-.55-2-1.39-4-2.1-6a2,2,0,0,1-.08-.35c-.48-2.47-.93-4.94-1.45-7.41a36.08,36.08,0,0,0-1.31-5c-.24-.64-1.15-1-1.84-1.6-.14.15-.4.3-.41.48-.26,2.93-.79,5.88.69,8.68a1.77,1.77,0,0,1,.15.51c.53,2.52,1,5.08,1.63,7.56a21.58,21.58,0,0,0,1.88,4.37,6.74,6.74,0,0,1-.62,5.92c-1.31,1.83-2.25,4-3.72,5.64a57.3,57.3,0,0,0-6.24,9.46.51.51,0,0,0-.09.16c-.47,2.68-1.15,5.35-1.35,8.06-.24,3.34.08,6.72-.14,10.06-.27,4.09-.22,8.35-1.46,12.16-1.38,4.23-.55,8.37-1,12.52-.62,6.19-1,12.4-1.51,18.59a91.58,91.58,0,0,1-1.33,11.5c-1.14,5.23-.53,10.5-1.13,15.7-.23,1.92-.32,4.29-2.08,5.81a2.62,2.62,0,0,1-1.51.58,59.23,59.23,0,0,1-6.11-.1c-3.92-.32-7.95-.31-11.68-1.36-2.46-.7-4.86-.63-7.26-1.05-2-.35-3.94-1.07-6.23-1.72,0-.6-.1-1.54-.11-2.47,0-2.21.55-4.6-.09-6.61-1.24-3.95-.51-8.07-1.47-11.88-.61-2.41-.23-4.84-1-7.07-1.42-4.36-.6-9-1.54-13.24-1.29-5.95-.39-11.84-.83-17.73-.16-2.15.43-4.45-.15-6.44-1.73-6-1-12.09-1.46-18.13a35.45,35.45,0,0,0-1.06-7.87c-2.22-7.08-.9-14.28-1-21.41,0-2,1.19-4.07,1.85-6.1,0-.17.2-.31.25-.47a56.41,56.41,0,0,1,1.64-5.83,39.56,39.56,0,0,1,2.68-4.78c.78-1.35,1.54-2.71,2.36-4s1.79-2.9,2.76-4.3,2.16-3,3.33-4.45c1-1.22,2.1-2.36,3.17-3.53,1.28-1.39,2.64-2.73,3.87-4.18s2.24-2.91,3.36-4.37l.51.12a12.2,12.2,0,0,1,.38,1.95c.05,1.62-.14,3.25,0,4.85a55.38,55.38,0,0,0,1.43,8.43,3.78,3.78,0,0,0,2.81,1.92c3.63.26,7.29.18,10.94.14a1.56,1.56,0,0,0,1.13-1c.13-1.44,1.13-1.48,2.16-1.57,6-.53,11.86-1.63,17.88-1.28,2-1.51,5.1-.35,6.78-2.7.28-.38.79-.81.75-1.17-.36-3.42,2.53-6.68.5-10.18-.13-.22.12-.65.2-1a4.64,4.64,0,0,0,.4-1.52c-.43-4.59,1.25-8.9,1.84-13.34.2-1.48.25-4.05,3-4.6a5.64,5.64,0,0,1,.28,1.21,27,27,0,0,1,0,4.31c-.54,4.44,1.21,8.63,1.3,13,0,2.39.08,4.79,0,7.18,0,1.41.6,1.87,1.85,1.65a7.51,7.51,0,0,1,5.13.63c1.3.68,3.17.2,4.77.37,3.63.41,7.37.47,10.82,1.49,2.66.79,5.67,1.14,7.89,3.2a1.48,1.48,0,0,0,1,.3c2-.11,2.28,1.16,2.56,2.82.42,2.41,1.24,4.76,1.89,7.13,0,.11.15.2.17.32.55,2.56,1,5.14,1.66,7.68s1.43,4.95,2.16,7.41c0,.06.08.11.08.16-.09,2.25,1.16,4.23,1.4,6.35a51.9,51.9,0,0,0,2.23,10.19c.22.66.05,1.45.24,2.13a18.53,18.53,0,0,0,1,2.31c.11.26.35.56.29.77-.51,1.8-1,3.59-1.63,5.36-.17.49-.78.91-.77,1.36,0,1.7-1.09,2.69-2,3.86-.67.85-1.19,1.84-1.79,2.75-.43.66-.76,1.63-1.37,1.87-1.38.56-1,1.5-.93,2.66l1.44.08,2.8-3,.17.21,4.78-7.85.37-.07a24.17,24.17,0,0,1-.19,2.71,23,23,0,0,0-.75,2.55,10.66,10.66,0,0,1-2.25,5.66,19,19,0,0,0-1.36,3c-.4.83-.87,1.64-1.31,2.46,1.66,1.39,2.78,1.1,3.69-.75,1.08-2.2,2.35-4.32,3.49-6.5a5.2,5.2,0,0,0,.19-1.23c.47-2.23,1-4.47,1.45-6.7a.82.82,0,0,1,.33-.39c.07-.06.22,0,.45,0,.54,1.59,1.07,3.23,1.64,4.86a6.15,6.15,0,0,0,.6,1.06c1.46,2.37,2.92,4.74,4.4,7.09,2,3.18,4.06,6.33,6.05,9.53.84,1.35,1.49,2.83,2.34,4.18,1,1.57,2.17,3,3.18,4.61,1.2,1.88,2.32,3.81,3.48,5.71s2.46,3.78,3.54,5.75c.64,1.17.91,2.53,1.49,3.73s1.46,2.49,2.1,3.78,1.11,2.51,1.65,3.77c.43,1,.8,2,1.27,3,.71,1.48,1.52,2.92,2.23,4.4.51,1.05.88,2.17,1.41,3.2,1.19,2.29,2.49,4.52,3.64,6.83.55,1.11.72,2.42,1.31,3.51,1.42,2.68,2.45,5.58,4.63,7.86.86.9,1.12,2.34,1.73,3.49.72,1.36,1.58,2.65,2.28,4,.59,1.16.92,2.45,1.54,3.58,1.47,2.65,3.12,5.21,4.54,7.89A9.18,9.18,0,0,1,426.67,473.53ZM269.77,363.74c-.33-.93-.38-2-.87-2.24-2.95-1.7-6.22-2.84-8.83-5.14a38.48,38.48,0,0,0-3-2.47,14.91,14.91,0,0,0-2.17-1.14,10.36,10.36,0,0,0-.55,2.52c0,2.12,2,2.64,3.36,3.57,2.06,1.44,4.54,2.34,6.39,4S267.53,363.92,269.77,363.74Zm56.6-6.86c2.11,3.09,4.09,6.24,6.35,9.16a3.51,3.51,0,0,0,3.61,1.68c1.41-.32,1.35-1.3.86-2a55,55,0,0,0-3.75-4.19c-.71-.78-1.46-1.52-2.11-2.34-1.06-1.36-2.06-2.77-3.15-4.25Zm32.21,62.73.12-.29a4.88,4.88,0,0,0,1.92-.29,9.86,9.86,0,0,0,1.74-1.79,13.89,13.89,0,0,0-1.84-.65c-2.4-.49-4.81-.9-7.21-1.39-.29-.06-.5-.57-.78-.6-.88-.09-1.95-.35-2.62,0a1.24,1.24,0,0,0,0,2.2,5.74,5.74,0,0,0,1.57,1c.91.23,1.91.11,2.82.35C355.76,418.56,357.16,419.12,358.58,419.61Zm-70.24-89.25c-1.47-.21-2.69-.67-4,.51a7.11,7.11,0,0,1-3.39,1.54c-1.22.22-2.45.19-3.14,1.37a11.17,11.17,0,0,0-.73,2.18c.84.07,2,.53,2.46.15a19,19,0,0,1,5.37-2.41C286.37,333.16,287.92,332.41,288.34,330.36Z"/><path class="cls-1" d="M358.72,311a8,8,0,0,1-5.38-.48,39.45,39.45,0,0,0-5-1.84c-2.06-.73-4.11-1.48-6.18-2.19a4.68,4.68,0,0,0-1.24-.15c-3.41-.15-6.82-.18-10.22-.47a23.55,23.55,0,0,1-5-1.24c-.38-.12-.66-.78-.84-1.25-1.24-3.27-1.05-6.72-1.3-10.13-.35-4.89-.73-9.79-1.4-14.64-.37-2.7-1.41-5.3-2-8a16.13,16.13,0,0,1-.23-3c0-.82,0-1.65,0-2.34a2.09,2.09,0,0,0-3.21.95,8.25,8.25,0,0,0,.16,4.17c-.2.76-.44,1.51-.6,2.28-.53,2.57-.6,5.36-1.7,7.66-.83,1.73-.37,3.54-1.09,5-1.32,2.72-.46,5.73-1.34,8.32-1.41,4.18-.77,8.35-.9,12.53-.11,3.48-.51,4.11-3.91,5-6.95,1.92-14,.82-21.33,1.32.43-2.85-.6-5.26-.3-8,.54-4.95.92-10-.48-15a10.44,10.44,0,0,1-.08-3.4c.33-5.47.63-10.94,1.12-16.4a15.65,15.65,0,0,1,1.36-5.79c.85-1.64,2.51-2.87,3.87-4.23a48.11,48.11,0,0,0,4.83-5.71c1.59-2.18,3.49-4.58,7-4.43,2.6.1,5.21-.8,7.84-1.05,2-.2,4.08,0,6.11-.13,4.5-.33,9-.89,13.5-1.16,3.16-.19,6.38.2,9.51-.15,2.42-.28,4.74-1.31,7.11-2a4.75,4.75,0,0,1,1.37-.3c2.5,0,4.55-1.17,6.72-2.21a3.24,3.24,0,0,1,3.58.4c2.78,2.07,3.5,4.95,4.83,7.72,1.9,3.95,1.18,8.06,1.24,12.13a59,59,0,0,1-.21,8.62c-.41,3.09-1.35,6.12-2.05,9.18a1.54,1.54,0,0,0-.05.17c-.53,3-1,6-1.6,8.93-.66,3.13-1.49,6.22-2.19,9.35a12.46,12.46,0,0,0-.29,2.66C358.7,304.83,358.72,307.88,358.72,311Z"/><path class="cls-1" d="M285.45,15.39c1.1.92,2,.85,3.47.37,2.24-.74,4.33-2.42,6.91-1.84,1,.22,2,.65,3,.91.75.18,1.54.17,2.29.35,1.93.45,4.08.57,5.7,1.55a33.3,33.3,0,0,1,6.5,5.36,24.56,24.56,0,0,1,4.29,6.07c.89,1.75,2.52,3.11,3.77,4.69a16.84,16.84,0,0,1,2,2.86c1,2.08,1.53,4.56,2.95,6.28,1.67,2,.39,4.29,1.24,6.11,1.93,4.16,1,8.43.85,12.62-.1,2.55-1.25,5.07-1.92,7.6a1.89,1.89,0,0,0-.13.52c.07,2.5-1.39,2.86-3.54,2.92-1.86,0-3.68.88-5.55,1.14-3.29.45-4.95-.73-6.1-3.76a7.5,7.5,0,0,0-3.88-3.9,9.77,9.77,0,0,1-1.06-.76,33.91,33.91,0,0,0-3-1.82c-1.42-.69-1.14-2-1.13-3.09,0-2.51.12-5,.22-7.53.19-4.73-4.76-6.45-8.29-5.44-.75.21-1.11,1.53-1.87,2A2.16,2.16,0,0,0,291.08,51,21.58,21.58,0,0,1,291,54.4c0,.26-.38.49-.58.73-.22-.23-.55-.42-.64-.69-.47-1.54-.56-3.3-1.4-4.58a7.5,7.5,0,0,0-3.78-3.16,15.78,15.78,0,0,0-6.42,0,16.82,16.82,0,0,0-4.84,2.06,2.56,2.56,0,0,1-3.48-2.17c-.05-2.2-.83-4.55.86-6.54a.75.75,0,0,0,.09-.34,34.48,34.48,0,0,0,1.06-6.21A14.51,14.51,0,0,1,275,24.65c1.49-2.07,3-4.09,4.55-6.15a4.85,4.85,0,0,1,3.61-2.24A8.91,8.91,0,0,0,285.45,15.39Z"/><path class="cls-1" d="M77.79,246.36c2.17-1.14,3.63.62,4.67,1.53a24.21,24.21,0,0,0,8.15,4.58A12.3,12.3,0,0,1,93,253.74a15.63,15.63,0,0,0,7.43,2.5c1.7.12,3.33,1.29,5,2,.27.11.57.13.85.22l5.94,2.2c.17.06.32.15.5.2,1.74.45,3.49.91,5.24,1.34,2.16.52,4.34.95,6.47,1.55a39.08,39.08,0,0,1,3.93,1.59c-.39.77-.8,1.6-1.23,2.44-.58,1.14-1.19,2.26-1.77,3.4-.71,1.39-1.45,2.75-2.09,4.16A24.94,24.94,0,0,0,121.8,279a53.1,53.1,0,0,0-1.45,6.42,124.89,124.89,0,0,0-1.37,19.8,2.6,2.6,0,0,1-1.29,2.05c-2,.57-3.91,1.94-6.15.89a1.39,1.39,0,0,0-.84-.14c-5.79,1.55-11.68.46-17.53.68-2.4-1.7-5.39-.53-7.8-1.47a23.8,23.8,0,0,0-5.85-1.09c-1.88-.25-2.62-1.66-3.28-3.26-1.13-2.74-.56-5.65-1.33-8.28a17.79,17.79,0,0,1-.91-4.68,2,2,0,0,1,2.82-1.73,5.45,5.45,0,0,0,2.25-.14c.91-.12,1.82-.37,2.74-.44a23.45,23.45,0,0,1,2.51.07c3.7.17,5.86-1.87,6-5.55.09-3.4-1.29-6.24-3.21-8.92a18,18,0,0,1-1.66-2.93c-.68-1.49.69-2.22,1.38-3.11.95-1.22,1.46-4.25.7-5.52-1.1-1.83-2.13-3.7-3.35-5.44-1-1.39-2.36-2.51-3.29-3.93C79.62,250.43,77.56,249,77.79,246.36Z"/><path class="cls-1" d="M140.62,85.3c-.35,2.11.45,3.19,2.26,3.75a18.82,18.82,0,0,1,4.12,1.7,2.77,2.77,0,0,1,.8,2c.15,2.7.12,5.4.26,8.09.08,1.65.9,3.28.12,5a9.73,9.73,0,0,1-.7,1.1c-.25-.33-.5-.65-.75-1-.72-1-1.5-2-2.15-3-1-1.65-1.9-3.38-2.91-5-1.49-2.45-3.07-4.85-4.56-7.3-1-1.69-2-3.44-3-5.15a23.42,23.42,0,0,0-1.3-2c-2-2.67-4-5.3-5.95-8a5.9,5.9,0,0,1-.48-2.09c3.57-1,5.64-3.76,7.91-6.22,1.34-1.44,2.7-2.87,3.89-4.43a5,5,0,0,0,1-2.56c.11-2.44,0-4.9,0-7.36a2.77,2.77,0,0,0-.57-1.35c-.94-1.37-.45-3.45.1-5,.62-1.73,1.88-2.23,3.16-3,1.54-1,4.42-.33,4.89,1.38.53,1.93,2.12,3,3.16,4.47,1.26,1.84,2.9,1.28,4.22.89s2.56-1.58,3.76-2.52c.23-.18.23-.8.18-1.2-.26-2.42.89-4.26,2.15-6.18.62-.93.56-2,1.91-2.8a8.7,8.7,0,0,1,4.69-1c1.26,0,2.52,0,3.78,0,1.6,0,2.48.56,2.41,2.32a23.73,23.73,0,0,0,.09,4.3c.18,1.29.93,2.51,1,3.79a19.59,19.59,0,0,1-.35,5.57c-.49,2.07-2.3,3.77-2.88,5.63-.73,2.34-2.28,3.48-3.79,4.95s-1.51,4.2-.72,6.75c.83,2.72,2.49,5.32,1.78,8.4a9.14,9.14,0,0,0-.08,2.16c.07,3-.36,5.38-3.63,7-2.49,1.23-4.74,2.42-7.5,1.76-2.4-.56-4.74-1.37-7.12-2-.62-.17-1.32-.06-1.95-.22-1.27-.33-2.49-.87-3.77-1.13A28.69,28.69,0,0,0,140.62,85.3Z"/><path class="cls-1" d="M422.42,480.33c1.11,2.2,2,4.11,3,5.91,1.3,2.22,2.71,4.39,4.16,6.52,1.13,1.66,2.91,2.8,3.37,5,.2,1,1.64,1.61,2.28,2.56,1.33,2,2.2,4.36,3.81,6.06,2.45,2.59,2.72,5.51,2.42,8.74-.13,1.47-2.25,3.55-3.4,4.42-2,1.52-4.29.92-6.43,1.32A24.23,24.23,0,0,0,427,522.6a31.66,31.66,0,0,0-4.21,2c-2.48,1.5-5.69,1.34-7.87,3.49-.11.11-.33.11-.5.15-2.11.47-4.24.83-6.3,1.44s-3.87,1.65-5.89,2.12a12.51,12.51,0,0,1-4.26-.13c-1-.12-2-.72-3-.73-2.42,0-4.36-1.15-6.36-2.29-.89-.51-2-.42-2.69-1.56-.83-1.31-1.27-3.65-.13-4.66,1.88-1.65,3.72-3.38,6.16-4.28a8.11,8.11,0,0,0,1.95-1.57c2.33-1.91,4.75-3.72,7-5.75s4.47-4.46,6.63-6.75c.24-.24.17-.81.17-1.22,0-2,0-4.08,0-6.12a2,2,0,0,1,1.64-2.42c1.26-.41,2.31-1.7,3.28-2.76,1.63-1.78,3.1-3.72,4.7-5.54S420.39,482.53,422.42,480.33Z"/><path class="cls-1" d="M270,77.64c-.59-1.7-.88-3.35.63-4.84a.85.85,0,0,0,.25-.44c.48-2.8.92-5.6,1.42-8.4.32-1.78.83-3.54,1-5.34a4.38,4.38,0,0,0-.76-3.69c-.56-.67-.29-2-.37-2.84,3.45-2.17,7-2.18,10.61-2.06,2,.07,2.83,1.35,3.34,3.18a18,18,0,0,0,2.7,5.55c1,1.33,4.45-.23,4.65-2,.18-1.54.14-3.11.22-4.66.1-1.8,1.94-3.65,3.06-2.93s2.5,1.84,2.75,3a11.75,11.75,0,0,1-.09,6.37,23.48,23.48,0,0,0-1,4.54c-.27,1.43.33,2.08,1.92,2.24a11,11,0,0,1,4.13,1.42,11.74,11.74,0,0,1,3.08,2.59,28.81,28.81,0,0,1,3.06,4.29,1.79,1.79,0,0,1-.57,1.64c-2.43,1.45-5.07,2.57-7.37,4.18a18.53,18.53,0,0,0-4,4.32,55.32,55.32,0,0,1-9.63,9.65c-.79.66-1.25.81-2.24,0a12.49,12.49,0,0,0-4-1.56c-3.13-1-3.37-1.26-2.89-4.51.26-1.81-1.11-2.41-2.17-2.88A2.72,2.72,0,0,1,276,81.4c.15-2.52-.89-4-3.25-4.44C272,76.81,271.11,77.34,270,77.64Z"/><path class="cls-1" d="M169.71,64.61l4.36-2c-1.63-2.37-1.17-4,.93-5,1.25-.6,2.13-1.36,1.94-3.08-.38-3.27-.14-3.48,3-4.38a1.74,1.74,0,0,0,.9-3c2.11-2.53,2-2.18,5.21-1,2.2.79,2.51,2.45,3.33,4s1.41,2.85,2.08,4.3a6.3,6.3,0,0,1,.37,1.37c.47,2.29.88,4.6,1.45,6.87a1.58,1.58,0,0,0,1.27.91c.44,0,1.21-.69,1.19-1a47.62,47.62,0,0,0-.67-5,23.67,23.67,0,0,0-.68-2.73c-.53-1.78-1.1-3.55-1.69-5.48.56-.27,1.09-.39,2,.35a11.55,11.55,0,0,1,4.71,10c-.1,2.51.08,5-.14,7.54-.16,1.89-.83,3.73-1.11,5.62-.38,2.56.63,4.76,2.11,6.77,1.08,1.46.44,3.5-1.26,5.56a58.62,58.62,0,0,0-3.4,5.36c-1.13,1.73-2.3,3.45-3.52,5.12s-2.49,3.2-3.74,4.78c-.3.38-.62.73-.93,1.09-.58-.57-1.4-1-1.69-1.74-1.39-3.36-2.36-6.92-4-10.15s-4.49-6-5.77-9.39c-1-2.72-3.76-4.1-4.37-6.93-.1-.46-.77-.77-1-1.22-.8-1.33-1.58-2.68-2.27-4.07a1.72,1.72,0,0,1,.08-1.33A21.75,21.75,0,0,1,169.71,64.61Z"/><path class="cls-1" d="M10.65,491.12c.79.3,1.6.55,2.36.91,2,.94,4,1.92,6,2.89.42.2.83.59,1.25.59,2.48,0,4,2,6,3a26.25,26.25,0,0,1,4.48,3.47,6.38,6.38,0,0,1,2.18,3.4,43.55,43.55,0,0,1,1,6.25c.36,2.85.57,5.82,1.59,8.46s.68,5.39.87,8.08a6.4,6.4,0,0,1-.25,1.36c-1.38-.36-2.85.84-4.09-.91-.34-.49-2.6-.48-2.93,0-1.59,2.36-2.44-.29-2.59-.6-.87-1.77-2.15-1.09-3.14-.56-2.84,1.5-3.73,1.24-4.75-1.74a3.68,3.68,0,0,0-.29-.54l-4.13.75c-.62-1.22-1.11-2.11-1.53-3-.51-1.12-.81-1.14-1.7-.16s-1.31,2.83-3.37,1.54c-1.79-4.23-2.14-8.93-2.9-13.6-.39-2.45-1-4.9-1.18-7.43a6,6,0,0,1,2.29-5.46,15.55,15.55,0,0,0,2.68-3.83c.65-1.05,1.16-2.19,1.73-3.28Z"/><path class="cls-1" d="M223.91,472.43c.88.7,1.79,1.37,2.63,2.12,1.05.91,2,2,3.07,2.81,1.6,1.2,3.33,2.23,5,3.34a12.55,12.55,0,0,0,1.83,1.24c2.14.89,4.34,1.63,6.46,2.55,1.48.64,2.8,1.94,4.3,2.15,2.92.41,4.45,2.79,6.73,4.07.61.35.75,1.81.78,2.77,0,.35-.89.76-1.4,1.1-2.13,1.44-4.55,1.06-6.86.91a63.67,63.67,0,0,1-8.34-1.19,18.74,18.74,0,0,1-3.57-1.57,5,5,0,0,0-1.78-.63c-5.79-.07-11.61-.41-17.37.06-2.61.21-5.26,1.07-8,1.09a25.09,25.09,0,0,1-5.35-.13c-2.48-.53-5.13-1.9-6-4a8.2,8.2,0,0,1,.4-7.33c.52-.87.35-2.19.41-3.31.12-2.77.5-3.13,3.32-3.07a59.11,59.11,0,0,0,6.1,0A67.25,67.25,0,0,0,215,474.2c1.7-.37,3.2-1.6,4.89-2.08a19.14,19.14,0,0,1,4.24-.31Z"/><path class="cls-1" d="M152.54,99.29c2.55,2.91,5.21,5.73,7.62,8.75a54.59,54.59,0,0,1,5.14,7.49c1.21,2.17,1.56,4.85,2.9,6.91s.63,4.15,1.37,6c1.66,4.3.66,8.73,1.1,13.08.31,3.09,1.08,6.16,1.14,9.25.14,6.82.07,13.65-.16,20.47-.07,1.92-1,3.82-1.47,5.71-.19,0-.4,0-.41,0-.59-2-1.1-4-1.77-6-.6-1.76-1.4-3.44-2.09-5.17a34.55,34.55,0,0,1-1.32-3.51c-.61-2.3-1-4.65-1.66-6.94-.61-2.09-1.43-4.13-2.15-6.19a4.09,4.09,0,0,1-.17-.69c-.47-2.69-.8-5.41-1.45-8.06-.53-2.19-1.48-4.28-2.14-6.45-.6-1.95-.94-4-1.58-5.91-.56-1.72-1.37-3.36-2.08-5-.05-.1-.18-.18-.21-.28a31.67,31.67,0,0,1-1.33-5.73c-.29-5.31-.31-10.64-.39-16a5.87,5.87,0,0,1,.45-1.58Z"/><path class="cls-1" d="M235.76,477c2-.91,4.08-1.79,6.1-2.72a10.68,10.68,0,0,0,2.29-1.28c1.52-1.24,3.31-2.06,4.91-3.21a53.23,53.23,0,0,0,8.35-7.65,2.76,2.76,0,0,1,1.83-.46c2.57,0,5.31-.42,7.68.31,3.92,1.21,7.87.8,11.79,1.19,1.56.16,2.71,3.87,1.92,5.6a10.09,10.09,0,0,0-.84,3.13c-.16,1.61.21,3.31-.19,4.83-.64,2.49-.72,5.4-3.43,6.84a3.79,3.79,0,0,1-2.14.4,41.74,41.74,0,0,1-4.52-.95c-2.47-.63-4.93-1.33-7.41-2a5,5,0,0,0-1.22-.19c-2.75,0-5.52-.1-8.26.07-2.18.13-4.34.7-6.52.85a6.77,6.77,0,0,1-2.6-.76c-1.28-.47-2.55-1-3.8-1.53s-2.58-1.17-3.86-1.77Z"/><path class="cls-1" d="M132.74,300.9l1-3.74c.08-.28.23-.55.28-.83.51-2.64.89-5.3,1.53-7.9.74-3,1.59-6.05,2.62-9a21.14,21.14,0,0,1,2.61-5c.61-.88,2-1.23,2.65-2.08,1.11-1.35,2.67-.89,3.94-1.39a13.69,13.69,0,0,1,7.25-.93,23.83,23.83,0,0,1,8.57,3c1.65,1,3.74,1.23,5.61,1.87.61.21,1.57.54,1.63.93a3.3,3.3,0,0,1-.49,2.46c-2,2.2-4.15,4.27-6.32,6.31a29.7,29.7,0,0,1-9,6.17c-3.39,1.36-6.18,3.67-9.41,5.25-2.88,1.41-5.81,2.72-8.73,4.08l-3,1.4Z"/><path class="cls-1" d="M76.88,283.45c-2.4.32-3.66-.49-4.1-2.14s-.94-3.5-1.56-5.2-1.49-3.18-2.07-4.82-1.08-1.64-1.89-.21c-.1.18-.34.29-.52.44,1.45,4,2.88,7.87,4.38,12a4.15,4.15,0,0,1-4-.46c-1.84-1.28-2.39-3.14-3.46-4.83s-.67-3.3-1.25-4.83c-.84-2.21-2.07-4.28-3-6.45-.6-1.33-1.07-2.73-1.54-4.11a29.87,29.87,0,0,1-1.31-13.26c1.33.42,2.52.82,3.73,1.19a2.88,2.88,0,0,0,.87.14c3.42,0,6.83.08,10.24.09a1.94,1.94,0,0,0,1.32-.35c1.47-1.61,2.69-.43,3.59.5,1.16,1.18,1.88,2.77,3,4.06.75.89,2,1.4,2.59,2.37a34.49,34.49,0,0,1,2.32,5.61c.12.35-.35.9-.57,1.43a23.78,23.78,0,0,0-2.29-2.77c-.4-.36-1.18-.29-1.78-.41a4.23,4.23,0,0,0-.08,1.79c.48,1.16,1.21,2.22,1.75,3.36.07.14-.35.68-.63.77s-.92,0-1,.42a21.54,21.54,0,0,0-1.7,3.44,5.1,5.1,0,0,0,.37,2.44c.11.42.51.75.68,1.16.9,2.24,1.75,4.51,2.67,6.74.42,1,1,1.93,1.48,2.9l-.4.45-1.85-.16c-1.06-2.28-2-4.32-2.94-6.38a28.76,28.76,0,0,1-1.27-3.3,16.36,16.36,0,0,0-4-6.27c-.38-.42-1.43-.23-2.42-.09A49.52,49.52,0,0,1,76.88,283.45Zm.68-15.76c-2.19-.16-2.3-.06-2.11,2.11l2.11-.13Zm-13.27-.11c-.17,1.11-.33,1.95-.4,2.8a.8.8,0,0,0,.43.64,1.17,1.17,0,0,0,.85-.33,16.83,16.83,0,0,0,1.13-1.59Z"/><path class="cls-1" d="M202.54,279.93a25.3,25.3,0,0,0-.57,4.75c.14,1.83-.79,3.21-1.63,4.51-.6.92-2,1.36-3,2-.59.36-1.26,1-1.81.92a3.94,3.94,0,0,1-2.31-1.18c-1.7-2-3.28-4.11-4.81-6.24A20.44,20.44,0,0,1,187,282c-1.25-2.43-2.56-4.84-3.77-7.3s-2.47-5.14-3.63-7.75c-.81-1.81.44-4.52,2.51-6a29.68,29.68,0,0,0,3.41-2.82,3.75,3.75,0,0,1,4.42-.42c2,1.56,4.08,3,5.94,4.74a12.41,12.41,0,0,1,3.14,4c.74,1.76,2.15,3.39,1.6,5.62s-.62,4.85-1.51,7c-.65,1.59-1,3.74-3.49,4.61,0-3.73.05-7.24,0-10.74,0-1.89-1.41-3-3.44-2.9-.39,1.24-.7,2.42.59,3.46a1.86,1.86,0,0,1,.41,1.26,48.41,48.41,0,0,1,.06,6.81c-.27,2.38.86,3.94,2.34,5.41,1,1,3.24-.13,3.76-1.87a36.2,36.2,0,0,1,1.59-4.45C201.12,280.33,201.89,280.23,202.54,279.93Z"/><path class="cls-1" d="M176.15,208.46c.64,1.2,1.32,2.37,1.9,3.59.81,1.7,1.54,3.44,2.31,5.17a3,3,0,0,1,.17.5c.48,2.08.89,4.19,1.43,6.25.67,2.5,1.44,5,2.16,7.45,0,.17,0,.35.08.53.5,2.38.87,4.8,1.57,7.13a30.13,30.13,0,0,0,2.09,4.37c.06.1.16.19.18.3.49,2.49,1.12,5,1.37,7.49a2.71,2.71,0,0,1-1.6,2.09c-2.78.58-4.08,3-6.09,4.49-1,.77-2.11,1.47-3.37,2.35a37.55,37.55,0,0,0-1.69-5.88c-2.26-4.69-1.26-9.65-.7-14.29.43-3.56.36-7.07.58-10.6.05-.74-.39-1.5-.39-2.24s.36-1.52.39-2.29a57.88,57.88,0,0,0,.09-6.45c-.19-2.73-.67-5.43-1-8.15a8.55,8.55,0,0,1,.14-1.81Z"/><path class="cls-1" d="M58.47,270.84c.08.23.17.46.23.7a38.79,38.79,0,0,0,1.55,6c1.12,2.56,1.65,5.53,4.21,7.28a34.57,34.57,0,0,0,3.63,2.46c1.47.76.83,1.74.5,2.7-.17.48-.76.86-.8,1.32-.25,2.62-2.08,4.32-3.43,6.32s-2.3,3.83-3.39,5.65L51.13,301c.46-1.17.79-2,1.12-2.88a2.83,2.83,0,0,0,.24-.67c.5-3.1.94-6.2,1.49-9.28.27-1.58.75-3.11,1.12-4.67s.72-3,1-4.57c.15-.75.12-1.55.29-2.3.43-1.88.92-3.75,1.39-5.63Z"/><path class="cls-1" d="M88.06,283.52H85.8c-1.37-3-2.69-5.85-4-8.73-.19-.42-.18-.94-.35-1.37-.33-.82-.82-1.58-1.07-2.42a14.09,14.09,0,0,1-.28-2.36l.66-.38c.64.69,1.73,1.32,1.85,2.1.29,1.94,1.35,3.36,2.31,4.94a23.46,23.46,0,0,1,1.58,4.33C87,280.82,87.45,282,88.06,283.52Z"/><path class="cls-1" d="M372.53,178c.25-.84.5-1.68.77-2.52.07-.22.28-.4.32-.62.49-2.74,1-5.48,1.44-8.21.12-.66.27-1.32.5-2.45,1.62,2.82,2.45,5.23,2.08,8s-2.95,4-4.35,6Z"/><path class="cls-1" d="M365.6,211c-1.36-3,.81-5.09.82-7.65a4,4,0,0,1,3.3,3.26C370.27,209.41,367,209.29,365.6,211Z"/><path d="M324.92,82.79l1.36.61c-.32.67-.45,1.62-1,2a17.26,17.26,0,0,1-3.3,1.38c-1.27.5-2.56.94-3.82,1.46-1.78.74-3.57,1.49-5.3,2.33-1,.49-1.92,1.22-2.94,1.71a3.38,3.38,0,0,1-2,.4c-.31-.06-.7-1-.62-1.47a2.43,2.43,0,0,1,1-1.69c2.32-1.08,4.75-1.93,7.09-3s4.9-2.35,7.38-3.46A8.61,8.61,0,0,1,324.92,82.79Z"/><path d="M388,206.39c1.42-1.88,2.89-3.74,4.25-5.69a19.55,19.55,0,0,0,1.45-2.85c.56-1.21,1.08-2.43,1.64-3.64.11-.26.29-.66.49-.69,2-.27,2.75-2.22,4.22-3.23,1.27-.88,2.17-1.2,3.69,0-2.12,2.24-4.2,4.39-6.22,6.59-.83.91-2.08,1.86-2.21,2.91-.28,2.37-2.36,3.33-3.3,5.13-.16.3-.39.58-.52.89C390.77,207.59,389.75,207.82,388,206.39Z"/><path d="M214.32,135.67l-1.92-.1c-2.73-6.15-1.28-12.47-1.81-18.63a5,5,0,0,1,.22-1.28H213c.09.77.24,1.52.26,2.26.05,3.11,0,6.22.1,9.33a7.2,7.2,0,0,0,.85,3.82C214.83,132.17,214.32,133.94,214.32,135.67Z"/><path d="M283.83,110.59l-1.44-.94c.62-.92,1-2.26,1.9-2.7,2.31-1.18,4.86-1.89,7.24-2.94,1.12-.49,2-1.46,3.12-2a7.51,7.51,0,0,1,2.31-.29c-.19.77-.11,1.89-.6,2.25-2,1.49-4.2,2.77-6.35,4.07-1.35.81-2.75,1.56-4.17,2.25A8.16,8.16,0,0,1,283.83,110.59Z"/><path d="M262.35,116.94c2.15-.9,3.42.71,4.91,1.44,1.94,1,3.7,2.29,5.61,3.33,2.21,1.2,2.63,2.55,1.11,4.87-2-1.5-3.85-3.08-5.88-4.45a12.53,12.53,0,0,0-3.56-1.53C262.57,120,261.87,119,262.35,116.94Z"/><path d="M304.37,200.6c.47-1,.67-1.92,1-2a3.26,3.26,0,0,1,1.91.59q2.61,1.41,5.13,3c1.85,1.14,4.17,1.61,5.41,3.64a2.56,2.56,0,0,1,.39,1.23c-.55.31-1.35.82-1.78.63-1.34-.6-2.51-1.56-3.81-2.26-2.15-1.15-4.36-2.16-6.51-3.31A11.67,11.67,0,0,1,304.37,200.6Z"/><path d="M263.29,154.6c.36,1.48-.36,1.85-1.67,2.58-2.36,1.3-4.7.89-7.06.89a3.71,3.71,0,0,1-2.19-1.2,1.52,1.52,0,0,1,.94-2.24C256.63,154.55,260,154.6,263.29,154.6Z"/><path d="M396.07,169.56a10.69,10.69,0,0,1-5.56-3.22c-.43-.46-.09-1.62-.1-2.46a7.88,7.88,0,0,1,2,.19,34.68,34.68,0,0,1,4.18,1.73,5.36,5.36,0,0,1,2.15,1.59C399.58,168.64,398.64,169.6,396.07,169.56Z"/><path d="M224.11,114.38c.86,1.53-.23,2.29-.61,3.32a17.79,17.79,0,0,0-1.44,8.39,17.28,17.28,0,0,1-.23,3.25c-2.69-2-2.72-2.74-1.61-5.55.56-1.44.27-3.2.6-4.77a16.79,16.79,0,0,1,1.48-4.18C222.49,114.46,223.54,114.51,224.11,114.38Z"/><path d="M284.08,134.41c2.52,1.69,5.05,3.3,7.47,5.08.5.38.55,1.36.88,2.25-1.71.23-2.88.62-4.06-.89-.92-1.18-2.59-1.77-3.86-2.7a19.2,19.2,0,0,1-1.84-1.75Z"/><path d="M387.19,153a16.93,16.93,0,0,1-8.56-2.78c.19-.55.38-1.07.43-1.24,2.14.16,4,.36,5.86.41C387.84,149.51,388.24,150.06,387.19,153Z"/><path d="M282.84,188.92c-4.6-3-5.3-4.46-3.66-6.91l5.48,5.65Z"/><path d="M75.68,351.92c.47.3,1,.46,1.22.82.3.55.72,1.56.48,1.81-1.47,1.54-3.12,2.92-4.68,4.38s-3.35,3.18-5,4.79-2.6,4.55-5.8,4.48c-.71-1.29-.45-2.59,1.1-4.1,1.92-1.86,3.83-3.73,5.76-5.57C71.05,356.32,73.37,354.13,75.68,351.92Z"/><path d="M29.48,420.57a3.08,3.08,0,0,1,2,2.36,10.36,10.36,0,0,0,2.62,4.64c1.37,1.31.91,2.46.72,3.77-1.37.6-1.79-.13-2.51-1.13-1.23-1.72-1.9-3.93-4-5a2,2,0,0,1-.56-1.85A14.4,14.4,0,0,1,29.48,420.57Z"/><path d="M206.69,373.74c-2.89.75-5.15-.32-7.34-1.87a8.94,8.94,0,0,0-2.65-.72c.13-.66.17-2,.45-2a8.84,8.84,0,0,1,3.32.09c1.31.27,2.55,1,3.86,1.19C207.15,370.74,207.18,370.67,206.69,373.74Z"/><path d="M208.93,412.46c.57-.92,1.1-1.69,1.56-2.51,1-1.74,1.95-3.47,2.79-5.26.65-1.38,1.86-2.29,3-1.83.28.11.63.77.53,1-1.21,2.37-2.43,4.73-3.8,7C212.25,412,211.52,413.61,208.93,412.46Z"/><path d="M55.47,405.66a11.79,11.79,0,0,1,2.15-.37c1.61,0,3.21.17,4.81.29,1.35.1,1.56,1,1.56,2.15s-.64,1.64-1.7,1.41a55.44,55.44,0,0,1-5.7-1.48C56.15,407.51,56,406.59,55.47,405.66Z"/><path d="M157,330.26a1.93,1.93,0,0,1,2.52.95c.66,1.08,1.91,1.8,2.87,2.71a1.35,1.35,0,0,1,.43.82c0,.12-.4.37-.65.42C159.16,335.82,155.55,334,157,330.26Z"/><path d="M170.83,216.17c-.4,1.06-.73,1.92-1.05,2.78a5.27,5.27,0,0,0-.3.84,68,68,0,0,1-1.54,7.72,43.53,43.53,0,0,1-3,6.08,7.43,7.43,0,0,0-.47.88c-.8,1.93-1.66,3.83-2.36,5.8s-1.05,3.79-1.68,5.65a17.62,17.62,0,0,1-1.6,3.37,3.11,3.11,0,0,1-1.73-.67,1.55,1.55,0,0,1-.07-1.52c1.21-1.56.58-3.66,1.87-5.3,1-1.28,1.12-3.24,1.68-4.87s1.09-3,1.69-4.54c.68-1.71,1.48-3.38,2.11-5.11.79-2.19,1.49-4.41,2.19-6.63a8.76,8.76,0,0,0,.3-1.76C167.1,216.37,167.75,215.82,170.83,216.17Z"/><path d="M152.51,144.6c-1.37-1.81-2.94-2.93-3.52-5.25-.67-2.67-2.36-5.14-3.85-7.54-1.37-2.21-3.5-4-4.48-6.39-.85-2.06-2.75-3-3.63-4.82a5.87,5.87,0,0,1,0-3.41,25.1,25.1,0,0,1,6.11,7.45c1.19,2.07,2.92,3.82,4.28,5.8a31.66,31.66,0,0,1,1.9,3.66,28.7,28.7,0,0,1,1.93,4C151.86,140.1,154.07,141.79,152.51,144.6Z"/><path d="M135.52,224.55c-1.92.4-3.14.53-4.15-1.35a21.27,21.27,0,0,0-4-4.55c-2.3-2.33-4.69-4.56-7-6.87-1.55-1.54-3.05-3.13-4.55-4.72a3.15,3.15,0,0,1-.43-.86c2.44-.82,3.42-.48,5,1.21,2.63,2.84,5.33,5.6,8,8.37,2.17,2.23,4.41,4.38,6.52,6.65C135.36,222.87,135.31,223.73,135.52,224.55Z"/><path d="M125.41,97.86c-1.27.09-2.07.43-2.86-.8-1.36-2.14-3.12-4-4.65-6.07-.71-.95-1.08-2.22-1.92-3a39.26,39.26,0,0,0-4.27-3V82.06c2-1.08,2.74.52,3.83,1.4,2.09,1.71,3,4.25,4.65,6.3s3.33,3.84,4.88,5.85C125.44,96.09,125.29,97,125.41,97.86Z"/><path d="M153.1,227.7c2.15.44,2.42,1.55,2.46,3a20.32,20.32,0,0,0,.67,3.39,2.94,2.94,0,0,1,.1.88c-.17,1.46-.34,2.92-.59,4.37a10.32,10.32,0,0,1-.67,1.78c-1-1.07-1.67-1.63-1.2-3.06.32-1-.19-2.23-.48-3.33A18.77,18.77,0,0,1,153.1,227.7Z"/><path d="M106,191a52.51,52.51,0,0,1,4.09,3.84c.8.92.76,2.09-.67,3.33l-3.07-2.77c-.08-.08-.12-.21-.21-.28-.69-.61-2.27-.52-1.86-1.94C104.47,192.34,105.32,191.73,106,191Z"/><path d="M105.13,154.56c.58,1.88,0,2.58-1.82,2.47s-3.53,0-5.37,0v-2.45Z"/><path d="M134.07,110.22l-2.12.52c-.33-2.37-4.18-3-2.4-6.32C131.79,105.64,132.93,107.76,134.07,110.22Z"/><path d="M269.77,363.74c-2.24.18-3.88.61-5.64-.93s-4.33-2.53-6.39-4c-1.33-.93-3.32-1.45-3.36-3.57a10.36,10.36,0,0,1,.55-2.52,14.91,14.91,0,0,1,2.17,1.14,38.48,38.48,0,0,1,3,2.47c2.61,2.3,5.88,3.44,8.83,5.14C269.39,361.78,269.44,362.81,269.77,363.74Z"/><path d="M326.37,356.88l1.81-1.92c1.09,1.48,2.09,2.89,3.15,4.25.65.82,1.4,1.56,2.11,2.34a55,55,0,0,1,3.75,4.19c.49.68.55,1.66-.86,2a3.51,3.51,0,0,1-3.61-1.68C330.46,363.12,328.48,360,326.37,356.88Z"/><path d="M358.58,419.61c-1.42-.49-2.82-1.05-4.27-1.44-.91-.24-1.91-.12-2.82-.35a5.74,5.74,0,0,1-1.57-1,1.24,1.24,0,0,1,0-2.2c.67-.38,1.74-.12,2.62,0,.28,0,.49.54.78.6,2.4.49,4.81.9,7.21,1.39a13.89,13.89,0,0,1,1.84.65,9.86,9.86,0,0,1-1.74,1.79,4.88,4.88,0,0,1-1.92.29Z"/><path d="M288.34,330.36c-.42,2.05-2,2.8-3.44,3.34a19,19,0,0,0-5.37,2.41c-.5.38-1.62-.08-2.46-.15a11.17,11.17,0,0,1,.73-2.18c.69-1.18,1.92-1.15,3.14-1.37a7.11,7.11,0,0,0,3.39-1.54C285.65,329.69,286.87,330.15,288.34,330.36Z"/><path d="M77.56,267.69v2l-2.11.13C75.26,267.63,75.37,267.53,77.56,267.69Z"/><path d="M64.29,267.58l2,1.52a16.83,16.83,0,0,1-1.13,1.59,1.17,1.17,0,0,1-.85.33.8.8,0,0,1-.43-.64C64,269.53,64.12,268.69,64.29,267.58Z"/></g></g></svg>