<svg xmlns="http://www.w3.org/2000/svg" viewBox="0 0 446.08 579.02"><defs><style>.cls-1{fill:#fff;}</style></defs><g id="Layer_2" data-name="Layer 2"><g id="Layer_1-2" data-name="Layer 1"><path class="cls-1" d="M164.91,366c.7,2.29,1.29,4.06,1.79,5.86s.89,3.67,1.33,5.51a2.33,2.33,0,0,0,.14.33c.77,1.37,1.52,2.75,2.3,4.12s1.43,2.58,2.26,3.8c1.32,1.93,2.77,3.76,4.1,5.69s2.45,3.77,3.73,5.63c.83,1.22,1.75,2.39,2.66,3.55,1.15,1.46,2.29,2.91,3.51,4.31.92,1.07,2.33,1.87,2.83,3.08.95,2.27,2.67,3.55,4.51,4.91,1,.78,2.33,1.58,2.2,3.32-.16,2.26-.22,4.54-.26,6.82a45.71,45.71,0,0,0,1.19,11.52c.5,2.08.53,4.2,1.36,6.31,1,2.49,1.08,5.33,1.56,8,0,.23.15.45.21.68a24.2,24.2,0,0,1,.85,3c.5,3.29,0,6.58.95,10,1.1,4.18,2.34,8.58,1.71,13.09a18.26,18.26,0,0,0,0,2.34q0,16,.09,32a3,3,0,0,0,1.07,2.76,4.66,4.66,0,0,1,1.55,4.41c-.28,1.76,0,3.6-.17,5.39a15.88,15.88,0,0,0,2.58,10c1.14,1.77,2.49,3.5,4.43,4.19a21.37,21.37,0,0,0,6.58,1.2c7,.2,14,.17,21,.26a16.59,16.59,0,0,1,2.42.39,12.47,12.47,0,0,0-.94,2c-.81,3.49.4,6.73,1.39,10,.31,1,1,2,1.38,3,.75,1.83,1.5,3.66,2.14,5.53s.91,3.8,1.69,5.56c1,2.16,2.29,4.17,3.45,6.25.53,1,.8,2.29,1.6,2.82a32.52,32.52,0,0,0,5.75,2.8c.41.17,1.11-.48,1.7-.65s1.3-.47,1.76-.26a8.87,8.87,0,0,1,2.2,1.65,3,3,0,0,0,3.69,0,2.72,2.72,0,0,1,2.32-.42c2.32,1.2,2.55,1.14,4.17-.88a2.53,2.53,0,0,1,2.4-.42c1.77.88,2.86.93,3.79-.78.69-1.27,1.57-.76,2.23-.51a5.89,5.89,0,0,1,1.83,1.61c.85.89,1.51,1,2.58.09,1.33-1.1,2.46-2.15,2.79-3.93.16-.89,1-1.84.79-2.57a28.7,28.7,0,0,0-2-4.55q-.81-1.73-1.65-3.42a17,17,0,0,0-1-1.66c-.93-1.46-1.83-3-2.85-4.35-1.42-2-3-3.86-4.41-5.81a2.74,2.74,0,0,1-.63-1.51c0-.34.63-.68,1-1s1-.27,1.17-.59c1-1.74,1.85-3.56,2.83-5.31.65-1.17,1.47-2.24,2.12-3.4a39.31,39.31,0,0,0,1.73-3.58c.53-1.23.85-2.56,1.45-3.76,1.2-2.41,2.54-4.75,3.79-7.14.5-1,.87-2,1.36-3q1.74-3.39,3.53-6.76c.63-1.18,1.29-2.33,1.92-3.5s1.34-2.43,1.92-3.68,1.13-2.82,1.75-4.2c.69-1.55,1.46-3.06,2.16-4.61.62-1.36,1.07-2.8,1.8-4.09,1-1.73,2.17-3.35,3.29-5,1.31-1.94,2.6-3.88,4-5.78,1.15-1.59,2.55-3,3.57-4.68a59.27,59.27,0,0,0,3.24-6.29c.81-1.74,1.44-3.56,2.16-5.34.19-.47.4-.92.6-1.38a38.3,38.3,0,0,0,1.85-4.52c.64-2.34.71-4.89,1.64-7.1a12.77,12.77,0,0,0,1-4.19,3.64,3.64,0,0,1,.28-.8,63,63,0,0,0,2.11-6.63c.71-3.45,1.09-7,1.65-10.45.28-1.72.65-3.42,1-5.13.11-.52.28-1,.43-1.54.28-1,.66-1.95.84-2.95.22-1.22.11-2.52.44-3.71.56-2,1.69-3.87,2-5.88.51-3.48-.1-7.06,1.16-10.52,1-2.64-.48-5.74,1.37-8.29a.76.76,0,0,0,0-.7c-.58-.87-.22-1.61,0-2.52.65-2.43,1-4.94,1.5-7.41a3.07,3.07,0,0,1,.49-.82,5.06,5.06,0,0,1,.65.66c.88,1.24,1.71,2.5,2.59,3.73.38.53.89.95,1.28,1.48,1,1.36,1.77,3,3,4.07a14.11,14.11,0,0,1,4.77,6.76,25,25,0,0,0,1.69,3.45,30.17,30.17,0,0,1,2,4.24c.68,2.27,1,4.62,1.6,6.92.34,1.33.51,2.92,1.35,3.86,1.09,1.21.89,2.47,1.09,3.78.4,2.67.53,5.46,1.46,7.94a16.14,16.14,0,0,1,1.08,4.78,3.54,3.54,0,0,0,.39.93c.71,1.74,1.52,3.45,2.07,5.23.66,2.12,1.1,4.3,1.64,6.45a63.49,63.49,0,0,1,2,8.24,75.29,75.29,0,0,1,.31,11.14c-.11,2.73.6,5.36.48,8.1-.11,2.51.49,5,.68,7.57.21,2.92.18,5.87.5,8.78.53,4.93,1.64,9.84,1.76,14.77.11,4.09,1.38,7.9,1.79,11.88a3.86,3.86,0,0,0,1.63,2.25c2.54,1.82,5.25,1.69,8.06.29.57,2.48,1.55,4.93,1.57,7.39s1.07,4.51,1.63,6.73a2.69,2.69,0,0,0,2.56,2.34c.33,0,.69.35,1,.6,1,.83,5.43.75,6.49.07a13.4,13.4,0,0,1,4-2,15.51,15.51,0,0,1,5-.16c2.43.28,4.83,1.18,7.25,1.23,5.7.11,11.47.8,17-1.19a21.46,21.46,0,0,0,2.81-1.14,10.76,10.76,0,0,0,1.91-1.4c1-.84,2-1.67,3-2.59,1.2-1.22,2.32-2.51,3.45-3.79.57-.64,1.36-1.26,1.56-2,.8-3-1.39-7.21-4.29-8.11-2-.63-4.17-.94-6.27-1.37-2.32-.47-4.66-.87-7-1.39-1.51-.33-3-.81-4.49-1.23a3.23,3.23,0,0,1-.84-.21c-1.2-.73-2.34-1.57-3.58-2.23-1.77-.94-2.19-2.34-1.17-4.08a4.33,4.33,0,0,0,.63-1.78,12.58,12.58,0,0,0-.76-5.27c-1-2.9-1.12-6.14-1.63-9.23-.48-2.84-1-5.68-1.5-8.52,0-.18-.11-.34-.15-.51-.71-2.81-1.54-5.58-2.07-8.42-.42-2.24-.25-4.48-1.08-6.78A31.57,31.57,0,0,1,410.3,455c-.23-4.84-.23-9.71-.05-14.56s.6-9.87,1.11-14.79c.17-1.7-.44-3.26-.15-5a104.5,104.5,0,0,0,1.38-14.12c.12-4.28.54-8.56-.86-12.9-1-3.08,0-6.67-1.5-9.85-.69-1.42-1-3-1.55-4.52-.72-1.95-1.52-3.87-2.27-5.8-.56-1.44-1.06-2.91-1.65-4.33-.71-1.73-1.51-3.42-2.25-5.14s-1.21-3.3-2-4.83-2-3-3-4.57c-.1-.16.28-.78.58-1,2.15-1.48,2.4-2.55,1-4.75-1.58-2.48-3.45-4.77-4.43-7.62a7.61,7.61,0,0,0-2-2.93c-2.09-2-3.07-4.59-4.16-7.05-1.3-2.94-2.05-6.08-3.83-8.89-1.36-2.14-1.91-4.79-2.83-7.21-.12-.32-.3-.63-.45-.95a30.39,30.39,0,0,1-1.91-4.25c-.66-2.33-1-4.74-1.54-7.11,0-.17-.15-.32-.2-.49-.76-2.37-1.6-4.71-2.24-7.11-.57-2.13-.92-4.33-1.38-6.49a2.3,2.3,0,0,0-.15-.32,8.75,8.75,0,0,1-1-2.65c-.11-4.18-.05-8.37-.09-12.55a3.45,3.45,0,0,0-.39-1.66c-1.08-1.77-2.33-3.37-2.22-5.67.18-3.59.12-7.19.16-10.79a4.22,4.22,0,0,1,.09-1.07c.73-2.62,1.6-5.2,2.21-7.84.48-2.14.45-4.32,1.17-6.52,1-3.08,1.05-6.51,1.35-9.8.2-2.26,0-4.56.2-6.83.3-3.91,1-7.81,1-11.73a105.82,105.82,0,0,0-.81-11.5c-.41-4.28-.94-8.55-1.43-12.82-.4-3.57-1.9-7-1.51-10.65a.88.88,0,0,0-.06-.36,54.43,54.43,0,0,1-2.14-6.51c-.48-2.31-.09-4.74-1.33-7a14,14,0,0,1-1.19-4.49c-.43-2.78-.14-5.61-1.46-8.32-.84-1.71-.91-3.85-1.09-5.81-.3-3.48-.11-7-1.46-10.36a41.48,41.48,0,0,1-1.44-6.23c0-.16-.2-.29-.27-.45a10.76,10.76,0,0,1-.85-2.13,38.25,38.25,0,0,0-.46-3.89c-.55-1.9-1.39-3.71-2.09-5.57-.59-1.59-.8-3.49-1.83-4.7a9.5,9.5,0,0,1-2.3-7.26,17.2,17.2,0,0,0-.29-3.34c-.12-1-.79-2.31-.38-3,1.08-1.68.75-3.43.84-5.17.12-2.37,1.33-3.5,3.69-3.53,1.3,0,2.24.68,3.35,1.13a6.58,6.58,0,0,0,8.5-4,25.55,25.55,0,0,1,1.67-3.69,5,5,0,0,0,0-4.84c-.76-1.15-.72-3.32.25-3.69,2.21-.85,2.08-3,3-4.65a22.87,22.87,0,0,1,3.14-4.65c1.06-1.11,2.26-2.1,2-3.69-.34-2.38-1-4.73-1.52-7.09,0,0-.07-.1-.09-.15-.7-1.76-1.83-3.48-2-5.29-.38-3.79-.95-7.69,1.19-11.27a23.25,23.25,0,0,1,1.56-3.07,7.42,7.42,0,0,0,2.07-4.46c.14-3.95.18-7.92,0-11.87a8.35,8.35,0,0,0-1.52-4.07A41.11,41.11,0,0,0,375.52,7a40.33,40.33,0,0,0-5.75-4.67c-1.43-1-3.1-2.11-4.73-2.22A117.58,117.58,0,0,0,352.73.2c-1.06,0-2.09.74-3.16.89-2.36.34-4.76-.31-7.1,1-1.72.94-3.83,1.19-5.76,1.75a2.08,2.08,0,0,0-.47.24,37.1,37.1,0,0,1-5,3.21c-3.93,1.76-5.92,5.34-8,8.63a22,22,0,0,0-2.61,7.7c-.52,2.7-.47,5.46-1.11,8.22s-.22,5.84-.28,8.77a63.42,63.42,0,0,0,1.19,15.79c.3,1.26-.21,2.82.34,3.89,1.33,2.55,1,5.18,1.13,7.83a5.94,5.94,0,0,1-2,4.44c-1.29-1.17-2.33-2.7-3.75-3.25-1.21-.46-2.91,0-4.29.45-.86.25-1.52,1.14-2.28,1.72-1.5,1.15-3.07,2.2-4.48,3.44a15.12,15.12,0,0,0-3.18,3.88A12.43,12.43,0,0,1,298,82.34c-1.77,1.2-3.35,2.13-5.49,2-.46,0-1.22,0-1.35.25-1.32,2.55-4.11,3.3-6,5-.38.34-.64.83-1.05,1.09-2.32,1.45-4.68,2.82-7,4.29-1.67,1-3.22,2.29-4.9,3.32a47.73,47.73,0,0,1-5.51,3c-2.09.92-4.29,1.59-6.46,2.31-1.64.54-3.43.74-4.92,1.54a37.62,37.62,0,0,0-4.74,3.51,6,6,0,0,0-5.27-2.57c-1.84.13-3.71,0-5.57,0a15.41,15.41,0,0,1-2.15-.12c-2-.31-4-1.12-5.9-.93a9.08,9.08,0,0,1-9.63-4.88c.3-.2.73-.34.84-.6.57-1.37,1-2.82,1.59-4.16.55-1.18,1.37-2.24,2-3.39,1.13-2.16,3.78-.61,5.34-2.3.64-.7,1.66-1,1.65-2.2,0-1,.09-1.92,0-2.87-.42-5.07.44-10.15-1.17-15.22-1.46-4.62,2.13-8.13,4.05-11.94.73-1.44,1.49-2.86,2.14-4.33A35.85,35.85,0,0,1,240.1,49c1.39-2.3,2.48-4.58,2.28-7.38-.17-2.33-.08-4.68-.13-7,0-.42,0-1.11-.18-1.2-1.45-.63-.85-1.92-1.11-2.95a36.61,36.61,0,0,0-1.63-5.59,48.26,48.26,0,0,0-3.47-6.55c-1-1.6-1.8-3.34-3.39-4.63-1.28-1-2.6-1.9-3.94-2.8-2.18-1.47-4.2-3-6.84-3.55A33.2,33.2,0,0,1,217.88,6c-2.3-.77-4.56-1.94-6.91-2.16-3.92-.38-7.89-.15-11.85-.14a3.21,3.21,0,0,0-1.53.34c-1.13.63-2.18,1.39-3.29,2.06a19.21,19.21,0,0,0-2.49,1.38c-3.06,2.57-5.85,5.37-7.3,9.23-.43,1.14-.94,2.25-1.38,3.39a63.74,63.74,0,0,0-2.27,6c-.7,2.48-1.11,5-1.66,7.57,0,.16-.2.29-.25.46-.69,2-1.47,3.92-2,5.93a27.94,27.94,0,0,1-.89,4.18c-1,2.48-1.23,5.32-1.67,8-.16,1,.07,2.05-.07,3.05-.3,2.2.18,4.43-.78,6.66-.62,1.42-.34,3.3-.22,5,.07.9,1,1.78,1,2.63-.18,3.32.92,6.24,2.33,9.13a2,2,0,0,1-.08,1.68c-1,1.64-2.24,3.18-3.34,4.78a25.77,25.77,0,0,1-1.87,2.94c-1.15,1.24-2.53,2.26-3.77,3.42-1.45,1.36-2.91,2.72-4.26,4.17a35.85,35.85,0,0,0-3.11,3.85c-1,1.46-1.9,3-2.81,4.56-1.63,2.7-3.24,5.42-4.85,8.13a12.61,12.61,0,0,1-1.62,2.75c-2.45,2.32-4.46,4.82-4.82,8.33a2.21,2.21,0,0,1-.36.78,14.61,14.61,0,0,0-2.36,5.51c-.22,1.65-1.2,3.22-1.91,4.79-.57,1.27-2,2.13-1.72,3.82.06.46-.43,1-.67,1.5-.58,1.16-1.19,2.31-1.75,3.49-.82,1.74-1.61,3.49-2.41,5.24-.68,1.5-2,2.79-1.61,4.68a1.92,1.92,0,0,1-.16,1.23c-1.57,2.69-1.6,5.78-2.2,8.7-.82,4,.4,8.05-1.13,12.13-1.1,2.93-.22,6.42-1.46,9.57a45,45,0,0,0-1.58,6.79,1,1,0,0,1-.16.31c-.76,1.45-1.5,2.91-2.29,4.35-.66,1.19-1.36,2.37-2.06,3.54-1,1.58-2,3.1-2.9,4.73a34.27,34.27,0,0,0-1.67,4.06,33.54,33.54,0,0,0-2.17,6.22c-.68,4.23-1,8.53-1.41,12.8a9.28,9.28,0,0,1-.31,1.57,10.67,10.67,0,0,0-.78,2.53,8.6,8.6,0,0,1-2.26,5.42c-1.48,1.87-3.38,3.85-3.11,6.69a4.1,4.1,0,0,1-.25,1.4c-.73,2.85-1.48,5.7-2.23,8.55-.27,1-.64,2-.85,3a5.17,5.17,0,0,0,0,1.84c.15.83.72,1.66.62,2.43-.28,2.32-.78,4.62-1.24,6.92-.06.31-.39.56-.55.87a17.89,17.89,0,0,0-1.7,3.67c-.66,2.83-1.05,5.72-1.55,8.58a5.83,5.83,0,0,1-.15.7q-1.11,3.9-2.24,7.8c-.54,1.88-1,3.78-1.64,5.64a54,54,0,0,0-2,5.49c-.44,2.11-.61,4.22-1.19,6.36-.71,2.58-.85,5.39-1.42,8.1C90.4,319,90.17,323,89.65,327c0,.37-.45.68-.52,1.05-.14.77-.52,1.79-.19,2.29a11.66,11.66,0,0,0,3,3.17c1.79,1.23,1.83,2.88,1.74,4.7a12.37,12.37,0,0,0,0,2.51c.29,2,1,3.9,1,5.84a38.43,38.43,0,0,1-1,6.94c-.41,2-1,4-1.5,6,0,.15-.28.23-.36.37-.65,1.16-1.35,2.3-1.9,3.51-.63,1.4-1,2.92-1.69,4.29-1.11,2.24-2.42,4.4-3.59,6.62-.6,1.14-1,2.38-1.66,3.51s-1.7,2.05-2,3.22c-.44,1.79-.89,3.67-1.14,5.4-.62,4.39-2.2,8.69-1.71,13.23a5.84,5.84,0,0,1-.19,2.32c-.64,2-.87,4.33-3,5.27-2.43,1-4,3-5.77,4.74a76.85,76.85,0,0,1-7.93,7,40.4,40.4,0,0,0-5.88,5.52,68.82,68.82,0,0,0-4.68,6.29,18.28,18.28,0,0,0-1.69,2.9c-.59,1.3-.9,2.71-1.54,4s-1.43,2.12-2.11,3.2-1.16,2-1.69,3a16,16,0,0,1-1.45,2.93c-1.78,2.12-3.88,3.85-5.41,6.33-1.16,1.87-1.91,4-3.37,5.75a11.6,11.6,0,0,0-1.21,1.93c-1,1.77-1.89,3.63-3,5.32-2,3-4.48,5.65-6.24,8.89-1.51,2.79-3.61,5.24-3.68,8.62a1.35,1.35,0,0,1-.21.46c-1.19,2.12-2.46,4.21-3.55,6.38-.66,1.31-.94,2.81-1.56,4.15-1.33,2.9-2.76,5.76-4.25,8.83a5.08,5.08,0,0,0-1.74.23,22.24,22.24,0,0,0-4.71,2.54c-1.22,1-2.84,2.41-2.9,3.7-.2,4.57-.8,9.15.74,13.77,1.14,3.42,1.13,7.22,1.64,10.85a14.75,14.75,0,0,0,.46,2.4c.63,1.92,1.66,3.77,2,5.73.5,3.14,0,6.35,1.1,9.5.81,2.31.26,4.87,1.32,7.37s.34,5.51,1.35,8.29A7.81,7.81,0,0,0,11,571.39c.56.47,1.27,1.31,1.79,1.22,2.81-.49,4.85,1.11,7,2.35,1.47-1.38,3.11-1.45,3.9.18s2,1.43,3.31,1.46a5.58,5.58,0,0,1,2.26.21c1.08.55,1.94,1.53,3,2a2.4,2.4,0,0,0,2-.39c1.57-1.1,2.93-1,4.66.06.84.49,2.49.72,3.15.22,2.51-1.83,4.28-4.36,4-7.63a47.08,47.08,0,0,0-1.41-6.56c0-.16-.2-.29-.27-.45-1.1-2.22-2.23-4.43-3.28-6.68-.56-1.2-.85-2.54-1.49-3.68-1.13-2-2.48-3.87-3.64-5.85a24.82,24.82,0,0,1-1.52-3.36q-1.18-2.91-2.29-5.86a2.11,2.11,0,0,1-.06-1.06c.06-.32.21-.76.44-.86s.64.14.89.33c1.36,1,2.57,2.38,4.08,3.09,1.1.51,2.62,1.21,3.86-.3a24.81,24.81,0,0,1,3.86-4c3.2-2.46,5.2-5.82,7.41-9,.58-.84.89-1.88,1.51-2.67,1.55-2,3.24-3.86,4.82-5.82a32,32,0,0,0,2.64-3.71c.84-1.46,2.81-2.19,2.71-4.24,0-.12.23-.23.34-.36.64-.84,1.3-1.67,1.91-2.54,1.18-1.65,2.27-3.37,3.52-5,1.69-2.14,3.76-4,5.19-6.32a26.24,26.24,0,0,1,5-5.56c1.32-1.18,2.86-2.12,4.22-3.28,2.17-1.87,4.25-3.85,6.42-5.72.71-.62,1.66-1,2.35-1.62,1.16-1.07,2.17-2.3,3.3-3.39,2-1.95,4.22-3.74,6.14-5.8,1.46-1.56,2.42-3.6,3.91-5.12a39.51,39.51,0,0,0,5.12-6.79c.55-.88.78-1.95,1.27-2.87.75-1.4,1.61-2.73,2.39-4.11s1.44-2.68,2.13-4a14,14,0,0,0,1.58-3.32c.63-2.92,1-5.89,1.5-8.84a3.14,3.14,0,0,1,.31-.84c.75-1.5,1.55-3,2.25-4.49.53-1.14.81-2.4,1.4-3.49s1.63-2.2,2.26-3.4c1.42-2.7,2.7-5.48,4.07-8.2.47-1,1.05-1.86,1.59-2.77a32.56,32.56,0,0,0,2.06-3.49c.61-1.41.73-3.06,1.46-4.37,1.08-1.93,2.5-3.59,2.8-6,.15-1.19,1.34-2.24,2-3.36,1.63-2.54,3.27-5.08,4.88-7.64a28.09,28.09,0,0,0,1.59-2.7,30.71,30.71,0,0,1,1.82-4,71.64,71.64,0,0,1,4.83-6.17,26.94,26.94,0,0,1,3.39-3.19c1.75-1.43,3.58-2.77,5.39-4.13C163.48,367,164.19,366.54,164.91,366Z"/><path d="M164.91,366c-.72.51-1.43,1-2.1,1.48-1.81,1.36-3.64,2.7-5.39,4.13a26.94,26.94,0,0,0-3.39,3.19A71.64,71.64,0,0,0,149.2,381a30.71,30.71,0,0,0-1.82,4,28.09,28.09,0,0,1-1.59,2.7c-1.61,2.56-3.25,5.1-4.88,7.64-.71,1.12-1.9,2.17-2,3.36-.3,2.38-1.72,4-2.8,6-.73,1.31-.85,3-1.46,4.37a32.56,32.56,0,0,1-2.06,3.49c-.54.91-1.12,1.81-1.59,2.77-1.37,2.72-2.65,5.5-4.07,8.2-.63,1.2-1.62,2.21-2.26,3.4s-.87,2.35-1.4,3.49c-.7,1.52-1.5,3-2.25,4.49a3.14,3.14,0,0,0-.31.84c-.49,2.95-.87,5.92-1.5,8.84a14,14,0,0,1-1.58,3.32c-.69,1.35-1.39,2.7-2.13,4s-1.64,2.71-2.39,4.11c-.49.92-.72,2-1.27,2.87a39.51,39.51,0,0,1-5.12,6.79c-1.49,1.52-2.45,3.56-3.91,5.12-1.92,2.06-4.11,3.85-6.14,5.8-1.13,1.09-2.14,2.32-3.3,3.39-.69.63-1.64,1-2.35,1.62-2.17,1.87-4.25,3.85-6.42,5.72-1.36,1.16-2.9,2.1-4.22,3.28a26.24,26.24,0,0,0-5,5.56c-1.43,2.3-3.5,4.18-5.19,6.32-1.25,1.59-2.34,3.31-3.52,5-.61.87-1.27,1.7-1.91,2.54-.11.13-.35.24-.34.36.1,2.05-1.87,2.78-2.71,4.24A32,32,0,0,1,59,518.34c-1.58,2-3.27,3.83-4.82,5.82-.62.79-.93,1.83-1.51,2.67-2.21,3.22-4.21,6.58-7.41,9a24.81,24.81,0,0,0-3.86,4c-1.24,1.51-2.76.81-3.86.3-1.51-.71-2.72-2-4.08-3.09-.25-.19-.68-.42-.89-.33s-.38.54-.44.86a2.11,2.11,0,0,0,.06,1.06q1.11,3,2.29,5.86A24.82,24.82,0,0,0,36,547.89c1.16,2,2.51,3.85,3.64,5.85.64,1.14.93,2.48,1.49,3.68,1,2.25,2.18,4.46,3.28,6.68.07.16.23.29.27.45a47.08,47.08,0,0,1,1.41,6.56c.26,3.27-1.51,5.8-4,7.63-.66.5-2.31.27-3.15-.22-1.73-1-3.09-1.16-4.66-.06a2.4,2.4,0,0,1-2,.39c-1.09-.51-1.95-1.49-3-2A5.58,5.58,0,0,0,27,576.6c-1.3,0-2.5.21-3.31-1.46s-2.43-1.56-3.9-.18c-2.15-1.24-4.19-2.84-7-2.35-.52.09-1.23-.75-1.79-1.22a7.81,7.81,0,0,1-2.15-3.59c-1-2.78-.3-5.81-1.35-8.29s-.51-5.06-1.32-7.37c-1.11-3.15-.6-6.36-1.1-9.5-.3-2-1.33-3.81-2-5.73a14.75,14.75,0,0,1-.46-2.4c-.51-3.63-.5-7.43-1.64-10.85-1.54-4.62-.94-9.2-.74-13.77.06-1.29,1.68-2.73,2.9-3.7a22.24,22.24,0,0,1,4.71-2.54,5.08,5.08,0,0,1,1.74-.23c1.49-3.07,2.92-5.93,4.25-8.83.62-1.34.9-2.84,1.56-4.15,1.09-2.17,2.36-4.26,3.55-6.38a1.35,1.35,0,0,0,.21-.46c.07-3.38,2.17-5.83,3.68-8.62,1.76-3.24,4.23-5.88,6.24-8.89,1.14-1.69,2-3.55,3-5.32a11.6,11.6,0,0,1,1.21-1.93c1.46-1.71,2.21-3.88,3.37-5.75,1.53-2.48,3.63-4.21,5.41-6.33a16,16,0,0,0,1.45-2.93c.53-1,1.08-2,1.69-3s1.55-2.07,2.11-3.2,1-2.68,1.54-4a18.28,18.28,0,0,1,1.69-2.9,68.82,68.82,0,0,1,4.68-6.29,40.4,40.4,0,0,1,5.88-5.52,76.85,76.85,0,0,0,7.93-7c1.76-1.74,3.34-3.7,5.77-4.74,2.17-.94,2.4-3.3,3-5.27a5.84,5.84,0,0,0,.19-2.32c-.49-4.54,1.09-8.84,1.71-13.23.25-1.73.7-3.61,1.14-5.4.28-1.17,1.37-2.12,2-3.22s1.06-2.37,1.66-3.51c1.17-2.22,2.48-4.38,3.59-6.62.68-1.37,1.06-2.89,1.69-4.29.55-1.21,1.25-2.35,1.9-3.51.08-.14.32-.22.36-.37.52-2,1.09-4,1.5-6a38.43,38.43,0,0,0,1-6.94c0-1.94-.69-3.88-1-5.84a12.37,12.37,0,0,1,0-2.51c.09-1.82,0-3.47-1.74-4.7a11.66,11.66,0,0,1-3-3.17c-.33-.5,0-1.52.19-2.29.07-.37.48-.68.52-1.05.52-3.95.75-8,1.58-11.84.57-2.71.71-5.52,1.42-8.1.58-2.14.75-4.25,1.19-6.36a54,54,0,0,1,2-5.49c.62-1.86,1.1-3.76,1.64-5.64q1.13-3.9,2.24-7.8a5.83,5.83,0,0,0,.15-.7c.5-2.86.89-5.75,1.55-8.58a17.89,17.89,0,0,1,1.7-3.67c.16-.31.49-.56.55-.87.46-2.3,1-4.6,1.24-6.92.1-.77-.47-1.6-.62-2.43a5.17,5.17,0,0,1,0-1.84c.21-1,.58-2,.85-3,.75-2.85,1.5-5.7,2.23-8.55a4.1,4.1,0,0,0,.25-1.4c-.27-2.84,1.63-4.82,3.11-6.69A8.6,8.6,0,0,0,113,231.6a10.67,10.67,0,0,1,.78-2.53,9.28,9.28,0,0,0,.31-1.57c.46-4.27.73-8.57,1.41-12.8a33.54,33.54,0,0,1,2.17-6.22,34.27,34.27,0,0,1,1.67-4.06c.87-1.63,1.94-3.15,2.9-4.73.7-1.17,1.4-2.35,2.06-3.54.79-1.44,1.53-2.9,2.29-4.35a1,1,0,0,0,.16-.31,45,45,0,0,1,1.58-6.79c1.24-3.15.36-6.64,1.46-9.57,1.53-4.08.31-8.16,1.13-12.13.6-2.92.63-6,2.2-8.7a1.92,1.92,0,0,0,.16-1.23c-.36-1.89.93-3.18,1.61-4.68.8-1.75,1.59-3.5,2.41-5.24.56-1.18,1.17-2.33,1.75-3.49.24-.5.73-1,.67-1.5-.25-1.69,1.15-2.55,1.72-3.82.71-1.57,1.69-3.14,1.91-4.79a14.61,14.61,0,0,1,2.36-5.51,2.21,2.21,0,0,0,.36-.78c.36-3.51,2.37-6,4.82-8.33a12.61,12.61,0,0,0,1.62-2.75c1.61-2.71,3.22-5.43,4.85-8.13.91-1.53,1.79-3.1,2.81-4.56a35.85,35.85,0,0,1,3.11-3.85c1.35-1.45,2.81-2.81,4.26-4.17,1.24-1.16,2.62-2.18,3.77-3.42a25.77,25.77,0,0,0,1.87-2.94c1.1-1.6,2.3-3.14,3.34-4.78a2,2,0,0,0,.08-1.68c-1.41-2.89-2.51-5.81-2.33-9.13,0-.85-.88-1.73-1-2.63-.12-1.66-.4-3.54.22-5,1-2.23.48-4.46.78-6.66.14-1-.09-2.06.07-3.05.44-2.7.64-5.54,1.67-8A27.94,27.94,0,0,0,177,40c.53-2,1.31-4,2-5.93.05-.17.22-.3.25-.46.55-2.53,1-5.09,1.66-7.57a63.74,63.74,0,0,1,2.27-6c.44-1.14,1-2.25,1.38-3.39,1.45-3.86,4.24-6.66,7.3-9.23a19.21,19.21,0,0,1,2.49-1.38c1.11-.67,2.16-1.43,3.29-2.06a3.21,3.21,0,0,1,1.53-.34c4,0,7.93-.24,11.85.14,2.35.22,4.61,1.39,6.91,2.16a33.2,33.2,0,0,0,3.81,1.35c2.64.55,4.66,2.08,6.84,3.55,1.34.9,2.66,1.76,3.94,2.8,1.59,1.29,2.38,3,3.39,4.63a48.26,48.26,0,0,1,3.47,6.55A36.61,36.61,0,0,1,241,30.45c.26,1-.34,2.32,1.11,2.95.2.09.17.78.18,1.2.05,2.33,0,4.68.13,7,.2,2.8-.89,5.08-2.28,7.38a35.85,35.85,0,0,0-1.65,4.15c-.65,1.47-1.41,2.89-2.14,4.33-1.92,3.81-5.51,7.32-4.05,11.94,1.61,5.07.75,10.15,1.17,15.22.08,1,0,1.91,0,2.87,0,1.22-1,1.5-1.65,2.2-1.56,1.69-4.21.14-5.34,2.3-.62,1.15-1.44,2.21-2,3.39-.62,1.34-1,2.79-1.59,4.16-.11.26-.54.4-.84.6a9.08,9.08,0,0,0,9.63,4.88c1.92-.19,3.93.62,5.9.93a15.41,15.41,0,0,0,2.15.12c1.86,0,3.73.18,5.57,0a6,6,0,0,1,5.27,2.57,37.62,37.62,0,0,1,4.74-3.51c1.49-.8,3.28-1,4.92-1.54,2.17-.72,4.37-1.39,6.46-2.31a47.73,47.73,0,0,0,5.51-3c1.68-1,3.23-2.27,4.9-3.32,2.31-1.47,4.67-2.84,7-4.29.41-.26.67-.75,1.05-1.09,1.94-1.75,4.73-2.5,6-5,.13-.25.89-.28,1.35-.25,2.14.17,3.72-.76,5.49-2a12.43,12.43,0,0,0,3.95-3.56,15.12,15.12,0,0,1,3.18-3.88c1.41-1.24,3-2.29,4.48-3.44.76-.58,1.42-1.47,2.28-1.72,1.38-.41,3.08-.91,4.29-.45,1.42.55,2.46,2.08,3.75,3.25a5.94,5.94,0,0,0,2-4.44c-.13-2.65.2-5.28-1.13-7.83-.55-1.07,0-2.63-.34-3.89a63.42,63.42,0,0,1-1.19-15.79c.06-2.93-.38-6,.28-8.77s.59-5.52,1.11-8.22a22,22,0,0,1,2.61-7.7c2.12-3.29,4.11-6.87,8-8.63a37.1,37.1,0,0,0,5-3.21,2.08,2.08,0,0,1,.47-.24c1.93-.56,4-.81,5.76-1.75,2.34-1.29,4.74-.64,7.1-1,1.07-.15,2.1-.85,3.16-.89A117.58,117.58,0,0,1,365,.15c1.63.11,3.3,1.24,4.73,2.22A40.33,40.33,0,0,1,375.52,7a41.11,41.11,0,0,1,4.83,5.86A8.35,8.35,0,0,1,381.87,17c.2,4,.16,7.92,0,11.87a7.42,7.42,0,0,1-2.07,4.46,23.25,23.25,0,0,0-1.56,3.07c-2.14,3.58-1.57,7.48-1.19,11.27.18,1.81,1.31,3.53,2,5.29,0,0,.08.1.09.15.53,2.36,1.18,4.71,1.52,7.09.23,1.59-1,2.58-2,3.69a22.87,22.87,0,0,0-3.14,4.65c-.91,1.6-.78,3.8-3,4.65-1,.37-1,2.54-.25,3.69a5,5,0,0,1,0,4.84,25.55,25.55,0,0,0-1.67,3.69,6.58,6.58,0,0,1-8.5,4c-1.11-.45-2.05-1.14-3.35-1.13-2.36,0-3.57,1.16-3.69,3.53-.09,1.74.24,3.49-.84,5.17-.41.65.26,2,.38,3a17.2,17.2,0,0,1,.29,3.34,9.5,9.5,0,0,0,2.3,7.26c1,1.21,1.24,3.11,1.83,4.7.7,1.86,1.54,3.67,2.09,5.57a38.25,38.25,0,0,1,.46,3.89,10.76,10.76,0,0,0,.85,2.13c.07.16.23.29.27.45a41.48,41.48,0,0,0,1.44,6.23c1.35,3.37,1.16,6.88,1.46,10.36.18,2,.25,4.1,1.09,5.81,1.32,2.71,1,5.54,1.46,8.32a14,14,0,0,0,1.19,4.49c1.24,2.25.85,4.68,1.33,7a54.43,54.43,0,0,0,2.14,6.51.88.88,0,0,1,.06.36c-.39,3.67,1.11,7.08,1.51,10.65.49,4.27,1,8.54,1.43,12.82a105.82,105.82,0,0,1,.81,11.5c-.05,3.92-.74,7.82-1,11.73-.17,2.27,0,4.57-.2,6.83-.3,3.29-.33,6.72-1.35,9.8-.72,2.2-.69,4.38-1.17,6.52-.61,2.64-1.48,5.22-2.21,7.84a4.22,4.22,0,0,0-.09,1.07c0,3.6,0,7.2-.16,10.79-.11,2.3,1.14,3.9,2.22,5.67a3.45,3.45,0,0,1,.39,1.66c0,4.18,0,8.37.09,12.55a8.75,8.75,0,0,0,1,2.65,2.3,2.3,0,0,1,.15.32c.46,2.16.81,4.36,1.38,6.49.64,2.4,1.48,4.74,2.24,7.11,0,.17.16.32.2.49.5,2.37.88,4.78,1.54,7.11a30.39,30.39,0,0,0,1.91,4.25c.15.32.33.63.45.95.92,2.42,1.47,5.07,2.83,7.21,1.78,2.81,2.53,5.95,3.83,8.89,1.09,2.46,2.07,5.09,4.16,7.05a7.61,7.61,0,0,1,2,2.93c1,2.85,2.85,5.14,4.43,7.62,1.39,2.2,1.14,3.27-1,4.75-.3.21-.68.83-.58,1,.94,1.55,2.1,3,3,4.57s1.35,3.22,2,4.83,1.54,3.41,2.25,5.14c.59,1.42,1.09,2.89,1.65,4.33.75,1.93,1.55,3.85,2.27,5.8.55,1.5.86,3.1,1.55,4.52,1.55,3.18.51,6.77,1.5,9.85,1.4,4.34,1,8.62.86,12.9a104.5,104.5,0,0,1-1.38,14.12c-.29,1.78.32,3.34.15,5-.51,4.92-.93,9.86-1.11,14.79s-.18,9.72.05,14.56a31.57,31.57,0,0,0,1.45,9.17c.83,2.3.66,4.54,1.08,6.78.53,2.84,1.36,5.61,2.07,8.42,0,.17.12.33.15.51.51,2.84,1,5.68,1.5,8.52.51,3.09.6,6.33,1.63,9.23a12.58,12.58,0,0,1,.76,5.27,4.33,4.33,0,0,1-.63,1.78c-1,1.74-.6,3.14,1.17,4.08,1.24.66,2.38,1.5,3.58,2.23a3.23,3.23,0,0,0,.84.21c1.5.42,3,.9,4.49,1.23,2.31.52,4.65.92,7,1.39,2.1.43,4.24.74,6.27,1.37,2.9.9,5.09,5.08,4.29,8.11-.2.76-1,1.38-1.56,2-1.13,1.28-2.25,2.57-3.45,3.79-.92.92-1.94,1.75-3,2.59a10.76,10.76,0,0,1-1.91,1.4,21.46,21.46,0,0,1-2.81,1.14c-5.56,2-11.33,1.3-17,1.19-2.42,0-4.82-.95-7.25-1.23a15.51,15.51,0,0,0-5,.16,13.4,13.4,0,0,0-4,2c-1.06.68-5.52.76-6.49-.07-.29-.25-.65-.61-1-.6a2.69,2.69,0,0,1-2.56-2.34c-.56-2.22-1.61-4.28-1.63-6.73s-1-4.91-1.57-7.39c-2.81,1.4-5.52,1.53-8.06-.29a3.86,3.86,0,0,1-1.63-2.25c-.41-4-1.68-7.79-1.79-11.88-.12-4.93-1.23-9.84-1.76-14.77-.32-2.91-.29-5.86-.5-8.78-.19-2.53-.79-5.06-.68-7.57.12-2.74-.59-5.37-.48-8.1a75.29,75.29,0,0,0-.31-11.14,63.49,63.49,0,0,0-2-8.24c-.54-2.15-1-4.33-1.64-6.45-.55-1.78-1.36-3.49-2.07-5.23a3.54,3.54,0,0,1-.39-.93,16.14,16.14,0,0,0-1.08-4.78c-.93-2.48-1.06-5.27-1.46-7.94-.2-1.31,0-2.57-1.09-3.78-.84-.94-1-2.53-1.35-3.86-.57-2.3-.92-4.65-1.6-6.92a30.17,30.17,0,0,0-2-4.24,25,25,0,0,1-1.69-3.45,14.11,14.11,0,0,0-4.77-6.76c-1.25-1.06-2-2.71-3-4.07-.39-.53-.9-.95-1.28-1.48-.88-1.23-1.71-2.49-2.59-3.73a5.06,5.06,0,0,0-.65-.66,3.07,3.07,0,0,0-.49.82c-.5,2.47-.85,5-1.5,7.41-.24.91-.6,1.65,0,2.52a.76.76,0,0,1,0,.7c-1.85,2.55-.4,5.65-1.37,8.29-1.26,3.46-.65,7-1.16,10.52-.29,2-1.42,3.89-2,5.88-.33,1.19-.22,2.49-.44,3.71-.18,1-.56,2-.84,2.95-.15.51-.32,1-.43,1.54-.35,1.71-.72,3.41-1,5.13-.56,3.48-.94,7-1.65,10.45a63,63,0,0,1-2.11,6.63,3.64,3.64,0,0,0-.28.8,12.77,12.77,0,0,1-1,4.19c-.93,2.21-1,4.76-1.64,7.1a38.3,38.3,0,0,1-1.85,4.52c-.2.46-.41.91-.6,1.38-.72,1.78-1.35,3.6-2.16,5.34a59.27,59.27,0,0,1-3.24,6.29c-1,1.66-2.42,3.09-3.57,4.68-1.37,1.9-2.66,3.84-4,5.78-1.12,1.66-2.3,3.28-3.29,5-.73,1.29-1.18,2.73-1.8,4.09-.7,1.55-1.47,3.06-2.16,4.61-.62,1.38-1.12,2.82-1.75,4.2s-1.26,2.46-1.92,3.68-1.29,2.32-1.92,3.5q-1.78,3.38-3.53,6.76c-.49,1-.86,2-1.36,3-1.25,2.39-2.59,4.73-3.79,7.14-.6,1.2-.92,2.53-1.45,3.76a39.31,39.31,0,0,1-1.73,3.58c-.65,1.16-1.47,2.23-2.12,3.4-1,1.75-1.83,3.57-2.83,5.31-.18.32-.8.35-1.17.59s-1,.61-1,1a2.74,2.74,0,0,0,.63,1.51c1.45,1.95,3,3.84,4.41,5.81,1,1.4,1.92,2.89,2.85,4.35a17,17,0,0,1,1,1.66q.84,1.7,1.65,3.42a28.7,28.7,0,0,1,2,4.55c.2.73-.63,1.68-.79,2.57-.33,1.78-1.46,2.83-2.79,3.93-1.07.89-1.73.8-2.58-.09a5.89,5.89,0,0,0-1.83-1.61c-.66-.25-1.54-.76-2.23.51-.93,1.71-2,1.66-3.79.78a2.53,2.53,0,0,0-2.4.42c-1.62,2-1.85,2.08-4.17.88a2.72,2.72,0,0,0-2.32.42,3,3,0,0,1-3.69,0,8.87,8.87,0,0,0-2.2-1.65c-.46-.21-1.18.09-1.76.26s-1.29.82-1.7.65a32.52,32.52,0,0,1-5.75-2.8c-.8-.53-1.07-1.86-1.6-2.82-1.16-2.08-2.49-4.09-3.45-6.25-.78-1.76-1.07-3.72-1.69-5.56s-1.39-3.7-2.14-5.53c-.42-1-1.07-2-1.38-3-1-3.24-2.2-6.48-1.39-10a12.47,12.47,0,0,1,.94-2,16.59,16.59,0,0,0-2.42-.39c-7-.09-14-.06-21-.26a21.37,21.37,0,0,1-6.58-1.2c-1.94-.69-3.29-2.42-4.43-4.19a15.88,15.88,0,0,1-2.58-10c.13-1.79-.11-3.63.17-5.39a4.66,4.66,0,0,0-1.55-4.41,3,3,0,0,1-1.07-2.76q-.06-16-.09-32a18.26,18.26,0,0,1,0-2.34c.63-4.51-.61-8.91-1.71-13.09-.9-3.41-.45-6.7-.95-10a24.2,24.2,0,0,0-.85-3c-.06-.23-.17-.45-.21-.68-.48-2.69-.57-5.53-1.56-8-.83-2.11-.86-4.23-1.36-6.31A45.71,45.71,0,0,1,196,423c0-2.28.1-4.56.26-6.82.13-1.74-1.16-2.54-2.2-3.32-1.84-1.36-3.56-2.64-4.51-4.91-.5-1.21-1.91-2-2.83-3.08-1.22-1.4-2.36-2.85-3.51-4.31-.91-1.16-1.83-2.33-2.66-3.55-1.28-1.86-2.45-3.78-3.73-5.63s-2.78-3.76-4.1-5.69c-.83-1.22-1.53-2.52-2.26-3.8s-1.53-2.75-2.3-4.12a2.33,2.33,0,0,1-.14-.33c-.44-1.84-.84-3.68-1.33-5.51S165.61,368.32,164.91,366Zm-69-30.23a20.43,20.43,0,0,1,1.08,4,105.74,105.74,0,0,1,.11,12.33c-.18,2.28-1.44,4.47-2.17,6.72-.57,1.79-1,3.63-1.63,5.41a26.19,26.19,0,0,1-1.4,3.11,27.47,27.47,0,0,0-2,3.91,13,13,0,0,1-2.45,4.12c-1.36,1.77-2.91,3.53-2.84,6,0,.41,0,1-.22,1.21-1.37,1-1,2.43-1.11,3.75a8.24,8.24,0,0,1-.21,1.42,79.68,79.68,0,0,0-2.19,7.78,21.68,21.68,0,0,0-.07,6.63c.29,2.06-1.62,3.11-1.66,4.9,0,.06-.22.09-.29.17-1,1.12-1.94,2.3-3,3.35-1.92,1.9-3.68,4.14-6,5.45-2.11,1.21-3.94,2.75-6,4a28.5,28.5,0,0,0-7.56,7.57c-.61.82-1,1.8-1.7,2.55a13.26,13.26,0,0,0-3.41,6.58c0,.3,0,.66-.14.88q-2.32,3.4-4.71,6.75c-.47.67-1,1.27-1.5,1.95-1,1.48-1.58,3.53-2.93,4.4-2.35,1.5-3.46,3.8-4.46,6a21.61,21.61,0,0,1-2.63,4.71,97.16,97.16,0,0,0-5.29,8.2,16.74,16.74,0,0,0-1.21,1.63,25.3,25.3,0,0,1-1.64,3.75,59.29,59.29,0,0,0-3.9,6c-.56,1-.78,2.09-1.27,3.07-.67,1.33-1.6,2.53-2.19,3.88-.68,1.58-1.07,3.29-1.66,4.91a21.22,21.22,0,0,1-1.37,2.94c-.63,1.11-1.64,2.06-2,3.23A47.55,47.55,0,0,0,13,505.84c-.25,1.73.68,3.37.91,5,.51,3.42,2.48,5.66,4.57,7.91s4.45,4.19,6.64,6.33c.83.81,1.41,1.86,2.24,2.67,2.91,2.84,6,5.54,8.8,8.45,2.6,2.66,4.37,2.51,6.36-.66a33.16,33.16,0,0,1,2.94-3.57q2.9-3.45,5.8-6.88a.52.52,0,0,0,.06-.35c-.06-1.58,1.26-2.24,2.11-3.22a25.23,25.23,0,0,0,1.76-2.35c.62-.9,1.13-1.89,1.78-2.77,1.46-2,3.07-3.9,4.46-5.94,1.16-1.7,2-3.68,3.19-5.3,1.52-2,3.38-3.74,5-5.64.55-.64.85-1.49,1.38-2.15,2-2.46,3.91-4.93,6-7.29a20.58,20.58,0,0,1,3.53-3c1.1-.78,2.56-1.09,3.56-2,2-1.76,3.76-3.8,5.7-5.64a44.28,44.28,0,0,1,3.46-2.78,34.56,34.56,0,0,0,4-3.08c2-2.12,3.84-4.42,5.69-6.69q2.48-3,4.82-6.19a40.14,40.14,0,0,0,2.53-3.91,50.3,50.3,0,0,0,2.3-4.51c.65-1.46,1.12-3,1.69-4.51.22-.58.51-1.14.75-1.72a28,28,0,0,0,1.61-3.81c.6-2.29,1-4.63,1.47-6.95a3,3,0,0,1,.13-.52c.73-1.68,1.5-3.35,2.2-5,.56-1.35.91-2.79,1.56-4.09,1.13-2.29,2.48-4.48,3.63-6.77,1-2,1.8-4.09,2.82-6.08s2.29-4,3.42-6a28.46,28.46,0,0,0,1.4-2.68c.58-1.32,1.06-2.68,1.62-4a21,21,0,0,1,1.24-2.52c1.54-2.6,3.13-5.17,4.7-7.75,1.2-2,2.41-4,3.59-5.95a1.92,1.92,0,0,0,.39-1c-.15-2.39,2.2-3.16,3.15-4.86.73-1.32,2.16-2.25,3.27-3.37,1.87-1.88,3.66-3.84,5.62-5.63a48.09,48.09,0,0,1,4.42-3.32c2-1.41,3.42-3.78,6.48-3.83,0,.73,0,1.48.12,2.23.16,1.53.29,3.07.57,4.59a23.4,23.4,0,0,0,.88,2.6c.12.39,0,.87.16,1.23.72,1.55,1.56,3,2.27,4.6a69.25,69.25,0,0,0,2.91,6.57,65.46,65.46,0,0,0,5.16,7.23c2.77,3.5,6,6.69,8.44,10.39a66.36,66.36,0,0,0,5.26,6.84,9.31,9.31,0,0,0,3.66,2.83c2.21.74,3.54,3.11,2.39,5.12a4.75,4.75,0,0,0-.71,2.05c-.09,3.06-.09,6.12-.07,9.18a10.86,10.86,0,0,0,.37,2.65c.67,2.55,1.59,5,2.09,7.62.65,3.29,1,6.64,1.45,10a1.52,1.52,0,0,0,.12.52c1.55,2.57,1.65,5.55,2.12,8.36.77,4.73,1,9.55,1.53,14.33a5.48,5.48,0,0,0,.17.67,10.07,10.07,0,0,1,.84,3.13c-.23,3.77.51,7.53-.75,11.34-.59,1.82.79,4.2.87,6.34.21,5.51.44,11,.19,16.54-.16,3.56,2,4.62,4.8,4.91a48,48,0,0,0,5.75,0,3.44,3.44,0,0,0,1.58-.26c2.66-1.44,5.24-3,7.93-4.41a12.5,12.5,0,0,1,4.16-1.48c3-.36,6.14.21,9.07-2.23,0-1.17,0-2.88,0-4.59,0-4.62-.06-9.23-.06-13.85s.25-9.12,0-13.66,1.2-9.07.38-13.64a2.75,2.75,0,0,1,.15-.87,14.66,14.66,0,0,0,.59-3.34c-.24-4.41.41-8.77-.65-13.26s-.76-9.38-1.47-14.09c-.66-4.45-.11-9.09-.06-13.65a9.31,9.31,0,0,1,.4-1.66c.17-.76.7-1.8.4-2.25-1.46-2.15-.73-4.52-1-6.78-.15-1.3-.3-2.6-.53-3.88a23.58,23.58,0,0,1-.69-2.88c-.12-2.94-.23-5.88-.1-8.81.16-3.68.58-7.34.85-11a4.8,4.8,0,0,0-.15-1.41c-.21-1-.48-2.06-.69-3.1-.53-2.61-1-5.24-1.58-7.84a10.48,10.48,0,0,0-1.25-2.95c-1.15-1.87-2.44-3.65-3.64-5.49-1-1.55-1.73-3.38-3-4.65a35.38,35.38,0,0,1-6.2-9.22c-1-2-2.44-3.76-2.36-6.15a1.14,1.14,0,0,0-.09-.52c-1.25-2.82-2.49-5.65-3.8-8.44a1.29,1.29,0,0,0-1-.47,9.61,9.61,0,0,0-1.59,1.9c-.51.87-.68,2-1.34,2.71a23.27,23.27,0,0,0-3.76,6.24c-.72,1.53-2.54,2.21-3.44,1.32a33.85,33.85,0,0,1-5.55-7.91c-.47-.84-1.48-2.09-2.11-2a25,25,0,0,0-5.36,1.62c-1.75.64-3.39,1.72-5.18,2a41.74,41.74,0,0,1-6.63.19,38.92,38.92,0,0,0-4.84.12,26.16,26.16,0,0,0-3.53,1.27c-1.66.51-3.35.9-5,1.36-.15,0-.28.2-.41.31a4.82,4.82,0,0,0-1.53,3.74,3.13,3.13,0,0,1-1.61,2.16c-.58.28-1.6-.21-2.37-.51-1.73-.67-3.06-2.24-5.23-2s-4.19.11-6.28.15a3.22,3.22,0,0,0-.88.12c-1.33.38-2.65.81-4,1.18a39.91,39.91,0,0,1-4,1c-.59.1-1.6,0-1.81-.33a10.41,10.41,0,0,1-1.75-4.12c-.26-3.64-.09-7.3-.15-11a9.13,9.13,0,0,0-.42-2.24,12.48,12.48,0,0,1-.79-2.4,58.37,58.37,0,0,1-.13-7.36c.15-2.36-1-4.67-.1-7a1.44,1.44,0,0,0-.05-.89c-.87-2.71-1.75-5.41-2.73-8.42-.63.35-1.49.54-1.86,1.07-.69,1-1,2.23-1.65,3.24-1.08,1.67-2.39,3.2-3.45,4.88s-2.74,2.48-3.13,4.5a29,29,0,0,1-1.38,3.41c-.76,2.19-1.44,4.4-2.15,6.6-.62,1.92-1.17,3.87-1.88,5.76-.59,1.54-1.77,2.95-2,4.52a5.44,5.44,0,0,1-2.18,3.89.86.86,0,0,0-.28.44c-.6,2.46-2.87,2.49-4.65,2.89-.91.2-2.06-.67-3.11-1-1.66-.56-3.57-.77-4.92-1.76S97.84,335.69,95.9,335.8Zm82-252.5a26,26,0,0,1-3,3.87c-2.39,2.1-4,4.83-6.66,6.81a18.42,18.42,0,0,0-5.86,6.63c-.9,1.92-2.25,3.63-3.33,5.48a63.22,63.22,0,0,0-3.41,6.26c-.8,1.85-3,2.6-3.29,4.87A7.67,7.67,0,0,1,151,120c-.68,1.15-1.91,2.16-2.1,3.36-.31,1.85-2,3.11-1.72,5.25.15,1.2-.76,2.56-1.25,3.83a29,29,0,0,1-1.34,3.08c-.75,1.46-1.62,2.86-2.39,4.31-.6,1.13-1.08,2.32-1.66,3.46-.67,1.29-1.43,2.53-2.06,3.84s-1,2.45-1.51,3.67a31.89,31.89,0,0,0-2.15,5.46c-.62,3.06-.82,6.21-1.18,9.33,0,.2.18.42.2.64a20.12,20.12,0,0,1,.28,3.44c-.09,1.26-.58,2.49-.72,3.76s.08,2.53-.11,3.77c-.43,3-1,5.89-1.56,8.81-.23,1.08-.5,2.44-1.26,3.06-1,.8-.89,1.67-1.12,2.62a17.06,17.06,0,0,1-1.38,4c-1.06,2-2.43,3.83-3.55,5.8s-1.68,3.86-2.87,5.55a11.18,11.18,0,0,0-2.42,7,5.71,5.71,0,0,1-.24,1.4,28.6,28.6,0,0,0-1,4.42c-.16,2.75,0,5.51-.11,8.27,0,.84-.7,1.64-.8,2.49s-.17,2.05.31,2.54a43.77,43.77,0,0,1,6.06,8,13.09,13.09,0,0,0,1.33,2c1.61,1.87,3.29,3.69,4.91,5.56a39.46,39.46,0,0,0,2.81,3.45c2.19,2,4.59,3.77,6.78,5.78a43.94,43.94,0,0,1,3.16,3.74,23.62,23.62,0,0,0,2.58,2.79c1.85,1.54,2.48,4.13,4.77,5.27a31.94,31.94,0,0,1,3.77,2.16c2.15,1.51,4.21,3.16,6.34,4.7,1.37,1,2.79,1.93,4.21,2.85,2.44,1.59,4.76,3.47,7.39,4.62,2.18,1,4.73,1.08,7.13,1.54.7.14,1.43.14,2.11.32a16.82,16.82,0,0,0,2.73.85c2,.14,3.95.08,5.93.06a5,5,0,0,0,1.57-.25c2.21-.74,4.36-1.69,6.61-2.26a5.44,5.44,0,0,0,3.82-3.81,24.06,24.06,0,0,1,2-5c.85-1.71,2-3.26,2.88-5,.66-1.29,1.07-2.71,1.62-4.07.81-2,1.64-4,2.46-5.94.58-1.38,1.14-2.76,1.75-4.12s1.49-2.88,2-4.4c.61-1.86.95-3.8,1.43-5.71,0-.15.2-.26.27-.42a8.24,8.24,0,0,0,.95-2.3c.3-3,.22-3.15-2.74-2.8-3.33.4-6.32-.55-8.08-3.09-1.94-2.79-4.7-4.83-6.23-8.05s-4.07-6.2-6.24-9.21c-1-1.43-2.22-2.74-3.35-4.09-1.43-1.7-2.92-3.36-4.29-5.11-1-1.22-1.67-2.63-2.66-3.82-1.54-1.86-3.27-3.56-4.83-5.41-1.86-2.2-3.6-4.51-5.45-6.73-1.53-1.84-3.1-3.65-4.74-5.39-.8-.84-1.88-1.39-2.69-2.21-1-1-1.75-2.71-3-3.18-1.84-.72-.94-1.65-.91-2.62,1.38-.14,1.37-.14,3,1.22s3.25,2.54,4.7,4c1.72,1.71,3.27,3.59,4.85,5.44,1.09,1.28,2.09,2.63,3.14,3.95.84,1.05,1.49,2.37,2.55,3.09,2.18,1.49,3.33,3.75,4.85,5.74,1.09,1.43,1.94,3.07,3.1,4.45,1.36,1.62,3.09,3,4.4,4.61,2,2.53,3.84,5.22,5.66,7.89.57.84.74,2,1.33,2.76a40,40,0,0,0,4.89,6.06c2.17,2,2.92,5.23,6.07,6.34,1.17.42,5.52,1.3,6.26.42,1-1.19,2.21-.93,3.4-1.07a6,6,0,0,0,1.61-.15c2.58-1.17,5.16-2.35,8.07-2.44a3.1,3.1,0,0,0,.53-.1c2.69-.74,5.36-1.57,8.08-2.17a50.79,50.79,0,0,0,5.28-1.05c3-1,6.2-1.09,9.33-1.54a14.51,14.51,0,0,1,2,0c1.93,0,3.82,0,4.74-2.26a5.35,5.35,0,0,1,1.48-1.57,3.14,3.14,0,0,0,.3-4.06,3.48,3.48,0,0,1-.78-1.4c-.57-2.27-1.06-4.56-1.59-6.84,0-.16-.22-.28-.27-.44-.68-2-1.82-4-1.92-6-.26-5.32-.2-10.67,0-16a45.62,45.62,0,0,1,1.31-7.06c0-.16.18-.3.25-.45l1-2.36-.41-.42c-2.38.42-4.73-.25-7.22,1-2.27,1.15-5.1.42-7.74,1.29s-5.81.28-8.75.3a3,3,0,0,1-1.4-.25c-2.05-1.1-4-2.62-6.13-3.31-2.85-.9-4.21-3.56-6.77-4.81-2-1-3.59-2.83-5.24-4.43s-2.79-3.17-4.3-4.64c-1.23-1.2-1.84-2.76-2.75-4.13-1.31-2-3.37-3.44-4.79-5.36s-2.51-4.26-3.8-6.37c-1.07-1.75-2.22-3.47-3.37-5.18-1-1.5-2.54-2.81-1.34-5.08l2,.1a3.61,3.61,0,0,0,.2.91c1.36,2.58,3.62,4.53,4.41,7.59.54,2.1,2.31,3.89,3.54,5.82a7.32,7.32,0,0,0,1.42,2.06c2.68,2,4.16,4.88,6.08,7.47a37.75,37.75,0,0,0,4.26,4.32c.11.1.44,0,1.17-.09-.65-5.28-1.25-10.49-2-15.69a25.22,25.22,0,0,0-1-3.62,3.18,3.18,0,0,0-.25-.67c-.69-1.24-1.73-2.4-2-3.74a20.19,20.19,0,0,0-2.82-6.29c-.78-1.22-1.63-2.39-2.46-3.57s-1.7-2.29-2.44-3.49-1.17-2.39-1.87-3.51c-1.08-1.72-2.34-3.33-3.38-5.07s-1.84-3.59-2.83-5.35c-1.14-2-2.43-3.94-3.54-6s-1.82-3.89-2.92-5.72c-1.46-2.43-3.23-4.68-4.68-7.12s-2.6-5-4-7.45S179.31,85.71,177.89,83.3Zm102.2,461c.77-1.16,1.4-1.92,1.84-2.78.93-1.83,1.75-3.73,2.66-5.58.34-.7.85-1.32,1.19-2s.71-1.73,1.09-2.59c.47-1.08,1-2.12,1.46-3.21.55-1.3.66-3.13,1.62-3.82,1.2-.86.72-2,1.28-2.85.82-1.29,1.66-2.57,2.36-3.93.58-1.1.9-2.34,1.46-3.46.79-1.55,1.73-3,2.53-4.58.53-1,.87-2.12,1.38-3.15,1.11-2.26,2.31-4.47,3.4-6.74s1.93-4.7,3.15-6.92c1.52-2.77,3.26-5.42,5-8.07,1.57-2.4,3.31-4.7,4.87-7.11,1-1.59,1.88-3.29,2.81-4.94a56.39,56.39,0,0,0,3.46-6.32c.77-1.91.75-4.13,1.49-6.06.64-1.65,1.41-3.2,1.35-5,0-.1.11-.2.16-.31a42.73,42.73,0,0,0,2.1-5.17c.48-1.72.44-3.5,1.08-5.3,1-2.82.29-6,1.47-9,.94-2.38,1-5.09,1.67-7.61.58-2.22,1.71-4.32,2.08-6.56.68-4.17,1-8.41,1.46-12.62.15-1.42.14-2.86.35-4.27s.73-3,1-4.58c.56-3.47.63-7.07,1.68-10.37a29.1,29.1,0,0,0,1-6.4,3.52,3.52,0,0,1,.23-1,9.4,9.4,0,0,0,1-2.45c.1-1.77-.12-3.56-.09-5.34,0-.48.36-1.25.71-1.34.54-.15,1.57,0,1.77.31,1,1.87,1.84,3.85,2.76,5.78a15.4,15.4,0,0,0,1.52,2.8c1.51,2,3.34,3.74,4.67,5.83,1.75,2.77,4.28,4.9,5.73,8,1.25,2.67,2.9,5.14,3.62,8a5.11,5.11,0,0,0,.36,1,29.53,29.53,0,0,1,2,4.24c.65,2.18,1,4.45,1.46,6.67a5.17,5.17,0,0,0,.36.8,43.42,43.42,0,0,1,2,5.28c.66,2.68,1,5.44,1.49,8.16a4.34,4.34,0,0,0,.28.63,43.71,43.71,0,0,1,2.09,5.43c.69,2.88.7,6,1.7,8.71a23.24,23.24,0,0,1,1,5.7,9.48,9.48,0,0,0,.44,1.53,15.52,15.52,0,0,1,.7,2.52c.49,4.83-.26,9.7,1.05,14.55.93,3.43.72,7.14,1.24,10.73s1.86,7.27.57,11a2.18,2.18,0,0,0,.05,1.07A44.37,44.37,0,0,1,378,496c.24,2.2.18,4.44.42,6.64.18,1.54.69,3.05,1,4.58.21,1.1-.31,2.35.92,3.25.29.2.26,1.21,0,1.7-1.23,2.67-1.31,2.71,1.13,4.55a3.28,3.28,0,0,0,2.49.72c1.94-.65,4.16-1.27,5.54-2.63,2.56-2.54,6.12-1.85,8.91-3.47,1.48-.87,3.54-.73,5-1.59a26.66,26.66,0,0,1,7.38-2.62,7.6,7.6,0,0,0,3.05-1.4,4.35,4.35,0,0,0,1.46-2.46c.77-4.53-1-8.8-1.52-13.21a.59.59,0,0,0,0-.17c-.76-2.73-1.65-5.44-2.25-8.21-.43-2,0-4-1-6s-1-4.66-1.49-7c-.38-2-.69-4.06-1.09-6.08-.71-3.56,0-7.23-1.27-10.8-.5-1.46.67-3.43.71-5.17.19-8.45.2-16.9.41-25.35,0-1.72,1-3.41,1-5.12.13-7.67.2-15.35,0-23-.07-2.78-.91-5.53-1.39-8.29a.84.84,0,0,0,0-.17c-.77-2.1-1.55-4.2-2.29-6.3a35.58,35.58,0,0,0-1.7-4.88c-1.37-2.57-3.18-4.91-4.52-7.5a43.53,43.53,0,0,1-2.85-7.17c-.73-2.37-2-3.54-4.22-2.43a17.13,17.13,0,0,1-4.28,1.15,32.64,32.64,0,0,0-3.87,1.41,59.8,59.8,0,0,1-6.39,2.24c-2,.48-4.11.17-6.21,1.05-2.4,1-5.19,1.09-7.82,1.53s-5.23.34-7.89.95c-4.7,1.08-9.71-.18-14.5,1.43-1.35.45-3.16-.51-4.77-.75-3.49-.51-7-.91-10.48-1.5s-6.93.76-10.26-1.18c-2-1.14-2.67-1.52-2.65-3.92.06-5.93.37-11.87.15-17.79-.18-4.64,1-9.35-1.18-14-1.12-2.38-1.05-5.35-1.39-8.07-.18-1.46-.4-2.77-2.2-3.34q-.88,2.88-1.79,5.77c-.1.33-.16.69-.28,1-.71,2-1.46,4-2.12,6-.6,1.81-.93,3.74-1.69,5.47a28.72,28.72,0,0,0-2.35,7.45,21.53,21.53,0,0,1-1.52,6.24,6.52,6.52,0,0,0-.95,3.56c.23,2.07-.58,3.77-1.45,5.5s-3.92,2.9-4.87,1.74c-1.2-1.46-2.36-.83-3.88-.69,0,9.72,0,19.3,0,28.89a5.66,5.66,0,0,0,.26,1.4,13.21,13.21,0,0,1,.88,3.47c-.2,5.79.66,11.59-.88,17.39-1.1,4.17-1.17,8.61-1.71,12.93,0,.24,0,.56-.13.69-1.38,1.21-.9,2.84-1.07,4.35-.37,3.56-.86,7.09-1.31,10.64,0,.12,0,.29-.06.34-1.71,1.31-1.07,3.1-1.05,4.79,0,.88.16,1.86-1.2,2.22-.58.15-1.13,1-1.36,1.72-.61,1.77-1,3.63-1.55,5.41a27.74,27.74,0,0,1-1.64,3.8c-.59,1.16-1.45,2.2-2,3.39-1.05,2.47-1.79,5.07-2.93,7.49a19.9,19.9,0,0,0-2.39,7.52,3.39,3.39,0,0,1-.29,1c-.29.77-.66,1.52-.89,2.3-.6,2-1.07,4.1-1.73,6.11s-1.48,3.9-2.22,5.85c-.1.28-.12.59-.23.86-.71,1.67-1.46,3.33-2.15,5a36.85,36.85,0,0,0-1.31,3.5c-.55,1.8-1,3.63-1.51,5.45a2.19,2.19,0,0,1-.16.3,30.51,30.51,0,0,0-2.06,3.81c-.68,1.76-1.08,3.64-1.62,5.46a2.45,2.45,0,0,1-.47.94c-2,2.19-2.19,5.08-3.16,7.67-.52,1.39-1.07,2.77-1.61,4.16a59.07,59.07,0,0,0-2.22,5.94,40,40,0,0,0-.64,5.67c.71,2.38,3.84,2.51,6.13,3.59,1.72.81,3.89.26,5.92,1.18,2.31,1,5.06,1.16,7.65,1.5,1.89.24,3.84.1,5.74.29,1.25.13,2.45.6,3.7.79a5.12,5.12,0,0,0,2.24-.08A9.08,9.08,0,0,0,280.09,544.33Zm87.48-277.66c-.11-.16-.43-.42-.5-.73-.45-1.91,1.18-3.7.18-5.79-.4-.82.46-2.2.59-3.35.16-1.37,0-2.79.26-4.12.62-2.74,1.62-5.41,2.17-8.17.49-2.44.35-4.91,1.06-7.43,1-3.62.92-7.58,1.28-11.37.7-7.13.26-14.37.46-21.57a81.86,81.86,0,0,0-1.44-17.33c-.05-.29,0-.69-.17-.86-1.32-1.33-.83-3-1-4.58-.45-3.44-1-6.87-1.53-10.3,0-.11,0-.23-.08-.35-.69-2.25-1.52-4.47-2.05-6.76-.7-3-1.17-6.11-1.75-9.16,0-.24-.12-.46-.18-.7-.67-2.61-1.49-5.2-1.95-7.86a42.1,42.1,0,0,1-.17-5.74,8.55,8.55,0,0,0-.24-2c-.3-1.16-.77-2.27-1-3.44-.54-2.48-1-5-1.49-7.47a1.09,1.09,0,0,0,0-.17c-.69-1.9-1.52-3.76-2.05-5.7a32.45,32.45,0,0,0-2.62-7.38c-1.13-2-1.28-4.42-2.67-6.41a31.58,31.58,0,0,1-3.05-5.22c-.78-1.77-2.88-2.94-4.33-4.43s-2.83-3.09-4.26-4.61c-.93-1-1.75-2.28-2.9-2.87a30.63,30.63,0,0,1-7.21-5.33c-2.72-2.6-5.18-5.46-7.87-8.09a2.44,2.44,0,0,0-2.24-.4,15.6,15.6,0,0,0-2.82,2.42c-1.78,1.63-3.55,3.29-5.35,4.9a10.8,10.8,0,0,1-1.76,1.25c-1.8,1-3.66,2-5.43,3.07S302.2,90.9,300.58,92A8.88,8.88,0,0,1,298,93.24c-2.17.52-3.3,2.11-4.31,3.84-1.26,2.15-2.54,4.29-3.65,6.51a28.82,28.82,0,0,0-1.59,4.31c-.56,1.81-1,3.68-1.54,5.49-.33,1-.89,2-1.31,3a42.68,42.68,0,0,0-2.1,5.35c-.7,2.66-1.06,5.41-1.64,8.11a30.19,30.19,0,0,1-1.14,3.95c-.51,1.41-1.14,2.77-1.77,4.14a39,39,0,0,0-1.92,4c-.66,1.93-1,4-1.6,5.93-.68,2.16-1.56,4.26-2.33,6.39-.51,1.44-.89,2.94-1.51,4.33-1.09,2.47-3,4.8-3.31,7.35s-2.34,4.26-3.22,6.54c-.8,2.09-2.34,3.89-2.27,6.32a2.63,2.63,0,0,1-.34,1,32.64,32.64,0,0,0-2,4.25,26.72,26.72,0,0,0-1.33,6.51c-.21,5.14-.11,10.3-.12,15.46,0,.35-.06.9.14,1,1.39,1,1,2.44,1.22,3.74a13.76,13.76,0,0,0,.81,1.81,38.31,38.31,0,0,1,1.65,5.06c.31,1.49.8,2.51,2.43,2.78a1.76,1.76,0,0,1,1.17.88c1.15,2.9,3.76,3.83,6.33,3.82a10,10,0,0,0,8-4.24,16.61,16.61,0,0,0,1.25-1.43c.61-1,1.07-2.15,1.64-3.2,1.22-2.24,2.21-4.69,3.81-6.61,1-1.18.69-2.84,2.25-3.81,1.26-.77,1.94-2.51,2.82-3.86s1.87-3,2.82-4.55c1.52-2.46,3.11-4.89,4.58-7.39,1.05-1.8,2-3.67,2.9-5.54.79-1.57,1.52-3.18,2.23-4.78.19-.43.17-1,.39-1.38.65-1.26,1.43-2.46,2.07-3.73,1.07-2.13,2-4.31,3.12-6.43.34-.69,1-1.23,1.32-1.91a23,23,0,0,0,2-4.22c.67-2.22,1-4.54,1.53-6.81a.49.49,0,0,1,.06-.17c.76-1.68,1.66-3.32,2.25-5.06a1.94,1.94,0,0,1,2.4-1.49c.08.2.14.36.2.53.48,1.32-.68,2.13-1,3.19-.65,2.45-1.05,5-1.54,7.47a5.16,5.16,0,0,1-.23,1c-.77,1.86-1.57,3.71-2.37,5.56-.15.32-.33.63-.51.94-1.14,1.94-2.31,3.85-3.41,5.82-.61,1.09-1,2.28-1.63,3.39s-1.48,2.24-2,3.45-.79,2.77-1.44,4c-1.08,2.08-2.41,4-3.56,6.05-1.46,2.59-2.86,5.21-4.27,7.82-.53,1-.94,2-1.55,2.95-1.08,1.64-2.28,3.2-3.42,4.81-.72,1-1.47,2-2.12,3.1-1.35,2.23-3.33,4.21-2.88,7.19.41,2.67.87,5.33,1.09,8a34.44,34.44,0,0,1-1.19,12.36c-.25.88-.44,1.77-.72,2.94,1,.75,2.09,1.7,3.29,2.52a41.56,41.56,0,0,0,4.54,2.79,35.55,35.55,0,0,0,4,1.41c.19.07.34.28.52.4a27.32,27.32,0,0,0,3.1,2.06c2.1,1.06,4.24,2.05,6.43,2.93a60.31,60.31,0,0,0,6.26,2.2c2.12.61,4.32,1,6.48,1.47a1.68,1.68,0,0,1,.48.2l7.14,3.54a17.66,17.66,0,0,0,2.32,1.12c1.84.6,3.72,1.08,5.59,1.62.16,0,.3.19.46.25,2,.71,3.93,1.51,5.95,2.09,2.17.64,4.53.78,6.57,1.67,2.7,1.17,5.6,1.27,8.36,2.09,2.19.65,4.63.46,7,.64l-.77-.35ZM252.21,512.42c.64-2.4,1.22-4.59,1.81-6.78a2.27,2.27,0,0,1,.23-.47c.68-1.35,1.4-2.68,2-4.05s1.1-2.74,1.69-4.1c.72-1.65,1.61-3.22,2.2-4.91s1-3.75,1.46-5.62a2.21,2.21,0,0,1,.18-.51,20,20,0,0,0,2-4.18c.52-2.29,2.17-4.32,1.66-6.85a1,1,0,0,1,.07-.53c1.22-2.88,2.5-5.73,3.65-8.63.56-1.42.89-2.94,1.34-4.4a5,5,0,0,1,.34-.83c.66-1.29,1.4-2.55,2-3.88.9-2,1.71-4.07,2.54-6.11.49-1.2,1-2.39,1.42-3.62.58-1.84,1.06-3.72,1.59-5.58a2.3,2.3,0,0,1,.15-.32,30.33,30.33,0,0,0,2-4.49,49.9,49.9,0,0,0,1.27-6.88c.38-2.94-.08-5.91,1.3-8.83.87-1.86.55-4.21,1.1-6.37.81-3.14.89-6.52,1.38-9.79.67-4.58.16-9.33.14-14a3.44,3.44,0,0,0-.17-1.05,12.91,12.91,0,0,1-1-3.27c0-9.72,0-19.43.08-29.15a4.17,4.17,0,0,0-2.07-3.87c-1.88-1.33-3.77-2.86-3.24-5.69a3.78,3.78,0,0,0-.21-1.58,9.44,9.44,0,0,1-.75-2.66c.23-4,.71-7.89,1-11.85.15-2.45,0-4.91,0-7.37.07-3.05.11-6.11.35-9.16.19-2.59.89-5.16.94-7.75.14-8.87.08-17.75.11-26.62,0-.78-.21-1.81.19-2.29,1.35-1.58.81-3.38.93-5.11s.11-3.72.34-5.56c.13-1,.87-2,.92-3,.15-2.75.08-5.51.07-8.27a5.23,5.23,0,0,0-.27-1.22,14.69,14.69,0,0,1-.74-3.55c.07-1.45.85-2.87.9-4.32.15-4,1.37-7.79,2.49-11.62a37.09,37.09,0,0,0,1.21-9.76c0-2.17-.76-4.36-1.2-6.54,0-.06-.2-.09-.18-.08-1.59,1.71-3.13,3.4-4.71,5.05-1.84,1.93-3.88,3.51-6.72,3.53-1.14,0-2.28,0-3.42,0-1.74,0-3.47.3-5.07-.94a3.07,3.07,0,0,0-2.48.14c-.59.25-.88,1.14-1.39,1.66-1.77,1.75-3.54,3.42-6.38,3.08-3.82-.45-7.49.49-11.13,1.53-2.82.81-5.66,1.6-8.53,2.2-3,.62-6.11,1-9.16,1.49a2,2,0,0,0-.35.07l-5.57,1.9a15.18,15.18,0,0,1-.38,2.87c-.63,2.16-1.53,4.23-2.15,6.39s-1,4.3-1.5,6.44a6.74,6.74,0,0,1-.59,1.08c-1.23,2.41-3.29,4.48-3.15,7.48a2,2,0,0,1-.19.86c-1,2.12-2.21,4.19-2.41,6.62a1.46,1.46,0,0,1-.16.5c-1.17,2-2.45,3.94-3.5,6-1.29,2.51-2.39,5.11-3.61,7.74.27.22.73.42.77.67.28,2,1.94,3.53,1.46,5.73-.13.6.5,1.4.88,2,.51.89,1.15,1.7,1.69,2.57,1,1.57,1.68,3.42,3,4.68a35.36,35.36,0,0,1,6.13,8.61,16.51,16.51,0,0,0,1.55,2.91A22,22,0,0,1,222,317.3c.47,1.05,1.24,1.8.46,2.91-.63.89-1.21,2.08-2.1,2.45a2,2,0,0,0-1.33,2.68,35.59,35.59,0,0,0,1.65,4.89c.69,1.73,1.6,3.36,2.25,5.1s1,3.32,1.46,5a1.87,1.87,0,0,0,.3.41c1.13,1.51,2.28,3,3.38,4.53.83,1.15,1.6,2.33,2.38,3.5a23.22,23.22,0,0,1,1.46,2.24c.61,1.18,1,2.5,1.69,3.61,1.07,1.67,2.35,3.21,3.54,4.81.34.45.87.84,1,1.34.62,1.87,1.13,3.78,1.68,5.67.07.23.18.45.25.68.68,2.19,1.72,4.34,2,6.58s-.34,4.59-.54,6.89a6.85,6.85,0,0,0,.15,1,11.2,11.2,0,0,1,.21,2.36c-.16,1.52-.74,3-.68,4.54.14,3.38.53,6.76.89,10.13.43,3.92,1.22,7.82,1.36,11.75.26,7.12.14,14.26.2,21.39a12.84,12.84,0,0,0,.22,2.14c.28,1.54.92,3.08.88,4.6-.28,11.2.21,22.39-.67,33.63-.8,10.06-1.56,20.34.6,30.46a4.22,4.22,0,0,1-.88,4.17c-1.39,1.51,1.19,5.38,3.7,5.68A40.51,40.51,0,0,0,252.21,512.42Zm63.31-152.65a6.34,6.34,0,0,0,.73.15,33.74,33.74,0,0,1,4.62.39c2.48.54,4.87,1.74,7.35,1.91,5.56.37,11.14.26,16.72.39a78.13,78.13,0,0,0,15-1.38c1.63-.28,3.2-1,4.84-1.21,4-.6,8-1.06,12-1.59a2.27,2.27,0,0,0,.51-.14c1.93-.69,3.83-1.44,5.78-2s3.87-1,5.81-1.52c.12,0,.27,0,.34-.11,1.32-1.38,3.15-1.76,4.84-2.41,1.44-.55,2.62-2.7,1.72-3.54a21.43,21.43,0,0,1-2.76-3.57,44.56,44.56,0,0,1-3.46-6.54,31,31,0,0,0-1.53-2.91c-1.13-1.83-2.51-3.53-3.46-5.45-1.1-2.23-1.69-4.73-2.81-7-1-2-2.48-3.78-2.52-6.18a1.62,1.62,0,0,0-.18-.49c-.74-1.87-1.61-3.7-2.17-5.62-.66-2.28-1-4.65-1.57-7-.28-1.15-.69-2.27-1.05-3.4-.08-.28-.17-.55-.27-.82a10.33,10.33,0,0,1-1-2.42c-.35-3-.86-5.9-2.57-8.48-.57-.85-3.46-1-3.78-.09a20.06,20.06,0,0,0-1.28,4.86c-.3,3.61-.19,7.19-1,10.83-.95,4.21-.35,8.7-1.5,13-.89,3.3.13,6.75-1.18,10.26s-1.07,7.77-1.54,11.7c-.38,3.22.43,6.58-1.09,9.69-.16.33-.16,1,.06,1.2,1.6,1.31.59,3,.71,4.51,0,.37-.41.9-.77,1.16-1.07.78-1.91,1.72-3.46.21s-3.77-1.77-5.25-3.1c-2-1.82-4.42-2.68-6.94-3.77.08-.65-.1-1.62.29-2,1.66-1.54,1.31-3.79,2.18-5.61s.92-3.83,1.27-5.78c.52-2.82,1-5.64,1.47-8.47.48-3.08.89-6.16,1.34-9.25a4.26,4.26,0,0,1,.22-.66c.72-2.43,2-4.85,2.07-7.3.27-7.84.1-15.69.09-23.54a6.57,6.57,0,0,0-.22-1.08c-2.09-.48-4.21-.94-6.31-1.46-.34-.09-.6-.49-.93-.69a19.85,19.85,0,0,0-2.92-1.68c-1.59-.63-3.27-1-4.89-1.59-2.13-.73-4.24-1.54-6.36-2.27-1.58-.54-3.19-1-4.75-1.55-1-.38-2.06-.89-3.07-1.36-1.53-.71-3-1.78-4.59-2.1a24.75,24.75,0,0,1-7.41-2.54c-2.05-1.15-4.36-1.82-6.53-2.78a29.51,29.51,0,0,1-3.11-1.72c-1.81-1.09-3.56-2.28-5.41-3.29a50.66,50.66,0,0,0-4.84-2.26c-1.58-.65-3.22-1.19-5.24-1.92a47.88,47.88,0,0,0,.07,6.74c.32,2-1.51,3.86-.27,5.88.14.23-.09.69-.16,1-.66,3.52-1.75,7-1.91,10.57-.33,7.06-.12,14.15-.17,21.22,0,3.3,0,6.6-.25,9.89-.13,2-.9,3.94-1,5.94-.21,3.46,0,6.95-.2,10.42-.17,3.72.7,7.53-.8,11.16-.05.12.14.32.14.49,0,.6-.05,1.21-.08,1.82a6,6,0,0,0-.09,1.58,29.23,29.23,0,0,0,.92,3.12,2.73,2.73,0,0,0,.66,1.16c1.52,1.31,3.09,2.55,4.63,3.84,1.8,1.51,3.77,2.09,5.67,1.46.67-2.13,1.3-3.95,1.81-5.8.6-2.15,1.09-4.32,1.62-6.48,0-.11.1-.22.13-.33.72-2.24,1.53-4.46,2.11-6.74s.95-4.65,1.42-7a1.91,1.91,0,0,1,.1-.34c.39-1.12.8-2.23,1.15-3.36.14-.45,0-1,.22-1.41,1.06-2.22,2.21-4.4,3.3-6.61.55-1.12,1.08-2.26,1.54-3.42.57-1.44,1-2.95,1.61-4.35s1.6-2.78,2.38-4.18c.88-1.59,1.73-3.21,2.64-4.91l2,1.64c-.72,2.28-1.86,4.42-2,6.62-.2,3.83-.72,7.68.72,11.55.9,2.44.22,5.27,1.46,7.89a18.39,18.39,0,0,1,1.25,6.85c.3,5.83,1,11.64-.78,17.47C314.9,354.28,315.52,357.09,315.52,359.77Zm-22.3-272L288.64,90c-.84.42-2,.62-2.47,1.31-1.8,2.81-4.92,3.86-7.35,5.81a60.82,60.82,0,0,1-6.95,4.74c-2.25,1.33-4.28,3.28-7.22,3.06a4.31,4.31,0,0,0-1.56.32c-.85.29-1.66.68-2.51,1-1.65.5-3.32.94-5,1.44-.19.05-.35.31-.44.51-.49,1.2-.92,2.43-1.46,3.62a1.44,1.44,0,0,1-.85.72,3.21,3.21,0,0,1-3.27-1.12,8.72,8.72,0,0,0-6.79-2.7c-2.2.17-4.43,0-6.65,0-.42,0-1,.13-1.22-.09-1.3-1.52-3-.94-4.52-.85a10.38,10.38,0,0,1-7.65-2.47,2.06,2.06,0,0,0-2,.09,5,5,0,0,0-1.32,2.89,3.86,3.86,0,0,1-1.92,3,10.15,10.15,0,0,1-5.88,2.66,1.77,1.77,0,0,0-1.13.46c-1.34,1.39-2.72.66-3.94,0a1.68,1.68,0,0,0-2.65.79c-.54,1.26-1.33,2.41-1.88,3.66a2.16,2.16,0,0,0-.09,1.65c.54,1.09,1.33,2,2,3.09s1.09,2.08,1.73,3,1.54,2,2.21,3c1,1.5,1.51,3.44,2.79,4.53,2.31,1.94,2.81,4.89,4.6,7.12,1,1.31,1,3.45,1.53,5.22a3.75,3.75,0,0,0,.22.67,29.71,29.71,0,0,1,2.14,5.07,55.2,55.2,0,0,1,1.16,8.42c.12,1.62.71,2.17,2.21,1.82a23.17,23.17,0,0,1,4.29-1.06c6.47-.17,13-.06,19.42-.27a17,17,0,0,0,4.86-1.36,8.18,8.18,0,0,0,2.44-1.38c2.22-1.86,4.34-3.82,6.54-5.7a30.44,30.44,0,0,1,3.63-2.79c1.22-.75,2.62-1.22,3.91-1.88,1.7-.86,3.36-1.78,5.39-2.87.39-1.08.92-2.62,1.54-4.13.49-1.21,1.1-2.36,1.64-3.55a29.57,29.57,0,0,0,2-4.6c.64-2.52.95-5.13,1.42-7.7a5.51,5.51,0,0,1,.33-.81c.68-1.84,1.4-3.68,2-5.55s1.16-3.69,1.75-5.53c0-.15.28-.24.35-.39.61-1.4,1.25-2.79,1.78-4.22a15.19,15.19,0,0,0,1-3.47c.31-2.77,2.09-4.88,3.14-7.31a29.61,29.61,0,0,1,2.14-3.19,13.11,13.11,0,0,0,1.62-3.43C293.88,90.4,293.46,89.39,293.22,87.78ZM204.89,6.21v-.1c-1.2,0-2.4.09-3.59,0a7.65,7.65,0,0,0-6.5,2.52c-1.51,1.56-3.36,2.8-4.82,4.41-1.31,1.43-2.85,2.77-3.13,5a13.53,13.53,0,0,1-1.23,3,59.83,59.83,0,0,0-2.18,5.71c-.44,1.58-.3,3.2-1.08,4.86-1,2.21-1.12,4.86-1.61,7.32-.16.81-.27,1.64-.43,2.45-.26,1.27-.51,2.54-.82,3.8-.47,2-.6,4.16-1.62,5.8a7.56,7.56,0,0,0-1,3.63c-.27,2.86.33,5.77-.95,8.59a4.78,4.78,0,0,0,.06,4c1.09,1.51.54,3.06,1,4.51a9.68,9.68,0,0,0,1.9,3.69,12.67,12.67,0,0,0,3.54,2.31,3.23,3.23,0,0,0,4.82-3c0-2.64.06-5.28-.09-7.91a33.08,33.08,0,0,0-.89-3.34c-.17-1-.45-2.24,0-2.94,1.24-1.91,1.94-4.26,4.52-5.2,1.48-.53,4.44-.69,5.52.42a23,23,0,0,0,2.95,2.81c2.48,1.78,3.47,4.46,4.62,7.08.55,1.25,1.36,2.56,2.89,2.11.84-.24,2-1.42,2-2.17a20.15,20.15,0,0,1,2.92-9.7,7.61,7.61,0,0,1,3.05-3.39c2-.88,4.16-1.79,6.58-1.37,1.64.28,3.66-.43,4.94.3a10,10,0,0,0,4.68,1.09c1.59.1,3.66.05,4.71-.86,1.33-1.15,1.87-3.24,2.73-4.93a9.17,9.17,0,0,0,1.28-2.9,36.41,36.41,0,0,0-1.35-14.26.85.85,0,0,0-.06-.17,54.82,54.82,0,0,1-3.44-7,14.88,14.88,0,0,0-2.91-5.35,19.16,19.16,0,0,0-3.4-3.09,50.51,50.51,0,0,0-5.32-3,49.49,49.49,0,0,0-5-2.27c-1.63-.61-3.58-.64-4.94-1.57a6.83,6.83,0,0,0-4-.92C207.77,6.16,206.33,6.21,204.89,6.21Zm-71.66,285.7c.66,1.63,1.23,3.24,1.94,4.78.56,1.25,1.6,2.37,1.86,3.67a63.43,63.43,0,0,1,1.23,9c.23,3.95.13,7.91.21,11.87a14,14,0,0,0,.3,2.49,38.18,38.18,0,0,1,.94,4.81c.16,2.87,0,5.75.07,8.62a1.76,1.76,0,0,0,2.83,1.58,2.58,2.58,0,0,1,.83-.33c2.32-.33,4.61-1.09,7-.62.26.05.84-.66,1-1.11.18-.61-.09-1.36.11-1.95,1.14-3.36,2.42-6.69,3.55-10.06.57-1.69.95-3.46,1.43-5.19,0-.16.2-.28.28-.43a37.24,37.24,0,0,0,2.1-4.25c.65-1.84,1-3.78,1.51-5.67.05-.18.39-.28.46-.47.78-2,2.37-3.82,2-5.85a14.3,14.3,0,0,0-3.05-1.77,18.72,18.72,0,0,1-7.37-3.73,11.08,11.08,0,0,0-1.81-1.33c-1.22-.65-2.51-1.18-3.74-1.8A12.17,12.17,0,0,1,145,293c-2-1.56-3.91-3.2-5.92-4.72-1-.72-2.17-1.13-3.09-1.89-1.15-.95-2.11-2.14-3.17-3.2-1.93-1.91-3.92-3.76-5.81-5.71s-3.6-4.13-5.59-6-4.42-3.63-6.68-5.39c-1.53-1.19-3.08-2.36-4.69-3.44-.14-.1-.87.42-1.12.79a9.59,9.59,0,0,0-.83,1.81,35.61,35.61,0,0,0-1.68,4.36c-.58,2.3-.91,4.65-1.36,7a2.42,2.42,0,0,1-.19.51c-.72,1.8-1.57,3.56-2.14,5.41-.63,2-1,4.15-1.51,6.24,0,.11,0,.25,0,.35a16.74,16.74,0,0,0-2.5,7.29,3,3,0,0,1-.33.79c-.32.85-.71,1.69-1,2.57-.17.63,0,1.34-.21,2-.71,2.69-1.54,5.34-2.2,8-.38,1.54-.31,3.08-1,4.69-1,2.21-.51,4.88-1.35,7.38-.77,2.27-.25,5-.26,7.5a2,2,0,0,0,.34,1.1c1.9,2.66,5.1,2.86,7.8,3.71a17.58,17.58,0,0,1,5,2.2c1.06.72,3.87.69,4.47-.09a30.17,30.17,0,0,0,4-7.69c1-2.7,1.24-5.68,2.58-8.33.35-.7,0-1.73.37-2.45a67.94,67.94,0,0,1,3.55-7c1.49-2.47,3.24-4.78,4.9-7.14a52.91,52.91,0,0,0,4-5.66c.88-1.72,1.14-3.77,1.7-5.74ZM233.69,56.69c-2-.71-3.36-1.53-4.78-1.64a83.15,83.15,0,0,0-10.23-.12,6.67,6.67,0,0,0-4.26,1.51,16.92,16.92,0,0,0-2.88,5.31,6.82,6.82,0,0,0-.14,3A5.92,5.92,0,0,1,208.84,70c-.85.64-2,2-3.78.72a12.07,12.07,0,0,1-5.15-7.53,1.56,1.56,0,0,0-.46-.68c-1.51-1.44-3-2.86-4.56-4.3a3.33,3.33,0,0,0-5.15,1.52,13.84,13.84,0,0,0-.21,5.6c.52,3.34.25,6.81.26,10.23,0,1.75.2,3.17-2.35,4s-4.58,1.51-6.85-.23c-.2-.16-.64,0-1.48,0,1.11,2.34,1.57,4.55,3,6.36a10.79,10.79,0,0,1,1.19,1.8c.57,1,1.05,2.09,1.61,3.11.72,1.33,1.46,2.65,2.24,3.94.53.9,1.12,1.76,1.71,2.63,1.09,1.61,2.28,3.17,3.29,4.85.73,1.2,1.17,2.57,1.83,3.82,1.08,2,2.22,4,3.38,6,.75,1.3,1.56,2.56,2.4,3.8.19.29.62.42.94.61a8.09,8.09,0,0,0,.51-1c.69-1.87,1.21-3.83,2.82-4.78l4.31,1.66a8.69,8.69,0,0,1,1.93-.67c1.55-.16,3.14,0,4.39-1.29,1.43-1.52,3.31-2.52,3.31-5.17,0-1.92.45-4.34,1.66-5.63,1.92-2,2.14-4.59,3.14-6.87a6.47,6.47,0,0,1,5.06-4.23A3,3,0,0,0,230.8,85c-.25-4.3.46-8.62-1-12.92-.74-2.22-.45-4.89-.21-7.31.12-1.24,1.18-2.38,1.8-3.58C232.2,59.63,233,58.11,233.69,56.69ZM352,99.45a12.09,12.09,0,0,1-.54-3.13c.16-1.57.82-3.08.95-4.65.34-4.19,2.43-6.23,6.55-6,1.43.06,2.85-.1,4.18,1,.95.81,2.11-.31,3.2-.72a3.75,3.75,0,0,0,2.78-3.4c.16-3,.19-6,.07-9-.07-1.58.91-2.44,1.83-3.22,1.27-1.06,2.23-2.1,2-3.87a1.6,1.6,0,0,1,.19-1.17c1.05-1.06,2.3-1.93,3.26-3.06.81-1,2.11-1.92,1.49-3.48s-1.39-2.75-2-4.17a27.78,27.78,0,0,1-1.57-4.4c-.63-2.61-1.08-5.27-1.68-8.3-2.12,2-4.47,1.41-6.75,1.4s-4.43.06-6.64.05c-1.1,0-1.52.45-1.7,1.56-.33,2.06-.9,4.08-1.41,6.25-2.05,0-3.91-.13-5.74,0-1.6.15-2.35-1-3-1.89a56.59,56.59,0,0,1-2.85-5.13,2.78,2.78,0,0,0-1.56-1c-1.2-.32-1.9.37-2.76,1.24-1.63,1.66-2.68,4.44-1.61,6.43,2,3.76,1.14,7.36-.46,10.86a5,5,0,0,1-2.56,2.07c-1.8.72-3.77,1-5.59,1.68a27.33,27.33,0,0,0-3.14,1.87c-1.84,1-2.36,3.06-3.6,4.53a1.43,1.43,0,0,0,.94,2.26,3.08,3.08,0,0,1,1.61.77c1.26,1.54,2.35,3.21,3.58,4.78a35.8,35.8,0,0,0,2.45,2.63c1.49,1.56,2.93,3.18,4.52,4.62,1.08,1,2.45,1.66,3.59,2.6.94.77,1.72,1.74,2.61,2.57,2.38,2.23,5.05,4.22,7.07,6.74C350.67,100,351.17,99.61,352,99.45ZM30.33,572.25l.11.75c.6,1,1.16,2.12,1.82,3.13a1,1,0,0,0,1,0,8.16,8.16,0,0,0,2.3-2.14c1.08-2,1.9-.41,2.79.06.17.08.16.56.31.6a13.35,13.35,0,0,0,2.79.6c.28,0,.83-.62.88-1a20,20,0,0,0-1.61-11.15c-.83-1.8-1.49-3.68-2.32-5.49s-1.74-3.74-2.78-5.51a48.19,48.19,0,0,0-3.6-5.32,12.4,12.4,0,0,1-1.43-3.35A27.12,27.12,0,0,1,28.29,535a16.1,16.1,0,0,0,0-2,4.27,4.27,0,0,0-.84-1.69A40.8,40.8,0,0,0,24,527.61c-1.38-1.29-1.9-3.58-4.25-3.8-.11,0-.29-.24-.3-.38-.12-1.25-.91-1.74-2-2.2-.81-.35-1.38-1.24-2.06-1.89a9.87,9.87,0,0,1-3-4c-.55-1.7-1.51-3.28-2-5a16.91,16.91,0,0,1-.27-3.74c-1.41.37-2.6.7-3.8,1S2.66,510,2.73,511c.25,3.73-.6,7.45.83,11.23,1.11,2.92,1.1,6.25,1.64,9.38.44,2.61,1,5.2,1.44,7.8a5.27,5.27,0,0,0,.36.81,5.93,5.93,0,0,1,.71,1.86,45.92,45.92,0,0,0,1.11,10.11c.55,2.3.17,4.67,1.27,7s1.06,5.23,1.5,7.88c.27,1.61,1.65,3.27,2.83,2.91s2-1.36,3.24-2.22c1.44.45,1.79,1.85,1.61,3.62,1.27,0,2.5.29,3.47-.08s1.64-1.41,2.45-2.16c1.37,1.37,1.35,1.37,1.61,3.65a1.75,1.75,0,0,0,.49,1c.11.1.6-.12.88-.28C28.9,573.17,29.61,572.7,30.33,572.25Zm412.86-50.43a11.19,11.19,0,0,1-.72-1.53c-.53-1.68-2.24-3-3.88-2.54-2.46.75-4.73-.48-7.11-.28a2.25,2.25,0,0,1-.83-.25c-.86-.29-1.71-.62-2.58-.86-1.95-.53-4.22-.57-5.8-1.63a71.5,71.5,0,0,0-6.44-3.89c-.66-.35-1.5-.8-1.75-1.41-.48-1.13-.85-.7-1.59-.35a36.51,36.51,0,0,1-4.83,1.92c-2,.63-4,1.09-6,1.63a.42.42,0,0,0-.17,0,10.41,10.41,0,0,1-6,2.4,1.56,1.56,0,0,0-.67.18c-1.69.9-3.38,1.83-5.3,2.87a17.79,17.79,0,0,0,.31,2.54c.2.86.92,1.67.89,2.49-.09,2.4.88,4.55,1.29,6.82.45,2.46,3.75,5,6.07,4.1,1.94-.76,3.74-1.89,5.67-2.7,1-.43,2.45-1.07,3.19-.67,2.27,1.22,4.66.72,7,1,.76.11,1.54.19,2.29.35a17.73,17.73,0,0,0,3,.75c2.27.12,4.55.06,6.83.06a7.15,7.15,0,0,0,1.6-.12c1.51-.35,3-.71,4.51-1.16a13.22,13.22,0,0,0,2.39-1c1-.52,2-1.11,3-1.69a1.48,1.48,0,0,0,.62-.59C439.13,525.62,442.09,524.53,443.19,521.82ZM278,569c.38,3.49.49,3.64,2.5,3.28-.09-.4-.34-.83-.24-1.16a4.13,4.13,0,0,1,1-2.09,2.3,2.3,0,0,1,2,.25c.57.35.76,1.31,1.32,1.64,1.17.7,1.78,2.76,3.78,1.65,0-1.65,0-3.31,0-5a2.32,2.32,0,0,0-.42-.94c-.63-1.09-1.76-2.14-1.82-3.26-.15-2.47-2.24-3.68-3.16-5.65-1.08-2.31-3.38-4-4.94-6.14s-3.58-3.87-6.21-4.24c-5-.72-10-1.1-15-1.63a8.81,8.81,0,0,1-2.13-.25c-2.21-.81-4.19-2.32-6.68-2.38-.2,0-.38-.24-.58-.33L245,541.68c.54,2.75,1,5,1.44,7.29a1,1,0,0,0,.06.16c.72,1.62,1.46,3.22,2.13,4.85.9,2.23,1.71,4.49,2.63,6.71.21.5.94.85,1,1.33a16.28,16.28,0,0,0,2.77,6.21,5.88,5.88,0,0,1,1.26,2.42c.06,1.6.87,2.06,2.2,2.19,1.92.18,3.12-.53,3.11-2.57,2.17-.3,3.21.31,3.69,2.42.29,1.29,1.17,1.44,2.12,1.4.59,0,1.49-.33,1.68-.77.93-2.07,1.24-2.28,3.71-1.61a11.2,11.2,0,0,0,.2,1.72c.06.25.44.49.72.56.12,0,.45-.3.53-.53.53-1.48,1-3,1.52-4.49Zm-35.11-33.48c.72-1.54,1.32-2.66,1.77-3.84.58-1.52,1-3.1,1.56-4.63.48-1.35.76-2.93,1.65-4a8.85,8.85,0,0,0,2-7.8,2.45,2.45,0,0,0-.6-.15c-3,0-5.21-1.47-7.26-3.64-1.23-1.3-2.49-4.19-5.3-1.62-.55.51-2,0-3,.11a5.64,5.64,0,0,0-1.65.46c-1.53.65-3,1.37-4.57,2-1.38.61-2.8,1.12-4.15,1.78-1.83.89-3.53,2.08-5.69,2.08a50.18,50.18,0,0,1-5.2.06c-2.05-.21-2.85,1-3.14,2.56-.81,4.37-.49,8.66,2.27,12.33,1.32,1.77,2.95,3.38,5.61,3.07,1.35-.15,3-.34,4.06.29,1.83,1.11,3.65.73,5.49.82,1.38.06,2.76,0,4.14,0Zm28.63-385.55c-1.14-.6-1.84.3-2.82.93-1.74,1.11-3.81,1.71-5.57,2.8a53.13,53.13,0,0,0-4.26,3.42c-1.36,1.06-2.76,2.09-4.21,3-.93.61-2,1-2.95,1.59a9.1,9.1,0,0,1-5.32,2.05c-2.82,0-5.63.12-8.45.14s-5.48,1.32-8.26.2a.37.37,0,0,0-.18,0c-2.29.34-4.59.65-6.87,1.06a2.89,2.89,0,0,0-1.92,3.64c.51,1.24,1,2.49,1.35,3.33,1.13.85,2,1.56,2.89,2.17,1.92,1.29,4,2.43,5.78,3.83a10.72,10.72,0,0,0,5.74,2.31c5.24.54,10.25-1.05,15.4-1.31.37,0,.72-.37,1.1-.49a10.45,10.45,0,0,1,2-.49c1.65-.14,3.32-.19,4.76-.27,1.08-2.28,2.1-4.31,3-6.39,1-2.4,1.87-4.87,2.9-7.25,1.12-2.6,2.44-5.1,3.53-7.71C270,154.46,270.68,152.27,271.49,149.94ZM187.83,306.2a7.89,7.89,0,0,1-7.57,2.56c-1.06-.2-1.95-.38-2.13-1.69-.12-.93-.76-1.17-1.28-.36-.92,1.48-1.69,3.05-2.49,4.6-.2.4-.25.88-.46,1.28-.62,1.14-1.61,2.2-1.87,3.42-.5,2.32-1.88,4.36-1.77,6.92.06,1.65-.78,3.34-1.23,5-.07.28-.29.53-.35.82-.19.94-.34,1.88-.5,2.83a13,13,0,0,0,2.39.25c2.58-.19,4.82-1.7,7.59-1.58s5.77.32,8.77-.62a58.94,58.94,0,0,0,7.78-2.88,2.6,2.6,0,0,0,1.27-3.72,35.83,35.83,0,0,1-2.22-3.09c-1.41-2.88-2.67-5.82-3.95-8.75C189.13,309.65,188.55,308,187.83,306.2Zm13.43-5.27c-.23,2.64,1,4.58,2.29,6.55,1,1.55,1.81,3.27,2.74,4.89.78,1.35,1.58,2.68,2.45,4s1.89,2.78,2.94,4.09a2.85,2.85,0,0,0,1.66,1.05,14.34,14.34,0,0,0,3.58-.16c1.78-.26,3-2.44,2.09-3.66s-1.54-2.17-2.32-3.24a13.6,13.6,0,0,1-1.21-1.56,31.65,31.65,0,0,0-1.73-3.67c-1.47-2.1-3.22-4-4.7-6.08s-2.75-4.4-4.26-6.5a2,2,0,0,0-1.95-.31A4.67,4.67,0,0,0,201.26,300.93ZM318.08,74.78c-1.45-.76-1.84-2.14-3.5-2.19a7.22,7.22,0,0,0-5.29,2.07c-2.48,2.35-4.51,5.18-6.92,7.62-1.31,1.34-2.22,3.22-4.52,3.51-.67.08-1.19,1.38-1.78,2.13,1,.39,1.21,2.33,2.89,1.56A24,24,0,0,0,302.27,88c1.7-1.11,3.3-2.39,4.89-3.66s3.38-2.8,5-4.25C314.12,78.42,316,76.67,318.08,74.78Z"/><path class="cls-1" d="M95.9,335.8c1.94-.11,3.08-.26,4.41.71s3.26,1.2,4.92,1.76c1,.36,2.2,1.23,3.11,1,1.78-.4,4-.43,4.65-2.89a.86.86,0,0,1,.28-.44,5.44,5.44,0,0,0,2.18-3.89c.22-1.57,1.4-3,2-4.52.71-1.89,1.26-3.84,1.88-5.76.71-2.2,1.39-4.41,2.15-6.6a29,29,0,0,0,1.38-3.41c.39-2,2.16-3,3.13-4.5s2.37-3.21,3.45-4.88c.65-1,1-2.26,1.65-3.24.37-.53,1.23-.72,1.86-1.07,1,3,1.86,5.71,2.73,8.42a1.44,1.44,0,0,1,.05.89c-.88,2.35.25,4.66.1,7a58.37,58.37,0,0,0,.13,7.36,12.48,12.48,0,0,0,.79,2.4,9.13,9.13,0,0,1,.42,2.24c.06,3.66-.11,7.32.15,11a10.41,10.41,0,0,0,1.75,4.12c.21.36,1.22.43,1.81.33a39.91,39.91,0,0,0,4-1c1.34-.37,2.66-.8,4-1.18a3.22,3.22,0,0,1,.88-.12c2.09,0,4.21.08,6.28-.15s3.5,1.33,5.23,2c.77.3,1.79.79,2.37.51a3.13,3.13,0,0,0,1.61-2.16,4.82,4.82,0,0,1,1.53-3.74c.13-.11.26-.27.41-.31,1.67-.46,3.36-.85,5-1.36a26.16,26.16,0,0,1,3.53-1.27,38.92,38.92,0,0,1,4.84-.12,41.74,41.74,0,0,0,6.63-.19c1.79-.32,3.43-1.4,5.18-2a25,25,0,0,1,5.36-1.62c.63-.08,1.64,1.17,2.11,2A33.85,33.85,0,0,0,205.4,339c.9.89,2.72.21,3.44-1.32a23.27,23.27,0,0,1,3.76-6.24c.66-.7.83-1.84,1.34-2.71a9.61,9.61,0,0,1,1.59-1.9,1.29,1.29,0,0,1,1,.47c1.31,2.79,2.55,5.62,3.8,8.44a1.14,1.14,0,0,1,.09.52c-.08,2.39,1.33,4.18,2.36,6.15a35.38,35.38,0,0,0,6.2,9.22c1.29,1.27,2,3.1,3,4.65,1.2,1.84,2.49,3.62,3.64,5.49a10.48,10.48,0,0,1,1.25,2.95c.6,2.6,1.05,5.23,1.58,7.84.21,1,.48,2.06.69,3.1a4.8,4.8,0,0,1,.15,1.41c-.27,3.67-.69,7.33-.85,11-.13,2.93,0,5.87.1,8.81a23.58,23.58,0,0,0,.69,2.88c.23,1.28.38,2.58.53,3.88.25,2.26-.48,4.63,1,6.78.3.45-.23,1.49-.4,2.25a9.31,9.31,0,0,0-.4,1.66c0,4.56-.6,9.2.06,13.65.71,4.71.4,9.55,1.47,14.09s.41,8.85.65,13.26a14.66,14.66,0,0,1-.59,3.34,2.75,2.75,0,0,0-.15.87c.82,4.57-.61,9.07-.38,13.64s0,9.1,0,13.66,0,9.23.06,13.85c0,1.71,0,3.42,0,4.59-2.93,2.44-6.07,1.87-9.07,2.23a12.5,12.5,0,0,0-4.16,1.48c-2.69,1.39-5.27,3-7.93,4.41a3.44,3.44,0,0,1-1.58.26,48,48,0,0,1-5.75,0c-2.85-.29-5-1.35-4.8-4.91.25-5.5,0-11-.19-16.54-.08-2.14-1.46-4.52-.87-6.34,1.26-3.81.52-7.57.75-11.34a10.07,10.07,0,0,0-.84-3.13,5.48,5.48,0,0,1-.17-.67c-.49-4.78-.76-9.6-1.53-14.33-.47-2.81-.57-5.79-2.12-8.36a1.52,1.52,0,0,1-.12-.52c-.47-3.33-.8-6.68-1.45-10-.5-2.58-1.42-5.07-2.09-7.62a10.86,10.86,0,0,1-.37-2.65c0-3.06,0-6.12.07-9.18a4.75,4.75,0,0,1,.71-2.05c1.15-2-.18-4.38-2.39-5.12a9.31,9.31,0,0,1-3.66-2.83,66.36,66.36,0,0,1-5.26-6.84c-2.45-3.7-5.67-6.89-8.44-10.39a65.46,65.46,0,0,1-5.16-7.23,69.25,69.25,0,0,1-2.91-6.57c-.71-1.56-1.55-3-2.27-4.6-.17-.36,0-.84-.16-1.23a23.4,23.4,0,0,1-.88-2.6c-.28-1.52-.41-3.06-.57-4.59-.08-.75-.08-1.5-.12-2.23-3.06.05-4.48,2.42-6.48,3.83a48.09,48.09,0,0,0-4.42,3.32c-2,1.79-3.75,3.75-5.62,5.63-1.11,1.12-2.54,2.05-3.27,3.37-1,1.7-3.3,2.47-3.15,4.86a1.92,1.92,0,0,1-.39,1c-1.18,2-2.39,4-3.59,5.95-1.57,2.58-3.16,5.15-4.7,7.75a21,21,0,0,0-1.24,2.52c-.56,1.33-1,2.69-1.62,4a28.46,28.46,0,0,1-1.4,2.68c-1.13,2-2.36,3.95-3.42,6s-1.81,4.09-2.82,6.08c-1.15,2.29-2.5,4.48-3.63,6.77-.65,1.3-1,2.74-1.56,4.09-.7,1.7-1.47,3.37-2.2,5a3,3,0,0,0-.13.52c-.48,2.32-.87,4.66-1.47,6.95A28,28,0,0,1,115,446c-.24.58-.53,1.14-.75,1.72-.57,1.51-1,3.05-1.69,4.51a50.3,50.3,0,0,1-2.3,4.51,40.14,40.14,0,0,1-2.53,3.91q-2.34,3.15-4.82,6.19c-1.85,2.27-3.68,4.57-5.69,6.69a34.56,34.56,0,0,1-4,3.08,44.28,44.28,0,0,0-3.46,2.78c-1.94,1.84-3.7,3.88-5.7,5.64-1,.87-2.46,1.18-3.56,2A20.58,20.58,0,0,0,77,490c-2.08,2.36-4,4.83-6,7.29-.53.66-.83,1.51-1.38,2.15-1.65,1.9-3.51,3.64-5,5.64-1.24,1.62-2,3.6-3.19,5.3-1.39,2-3,3.94-4.46,5.94-.65.88-1.16,1.87-1.78,2.77a25.23,25.23,0,0,1-1.76,2.35c-.85,1-2.17,1.64-2.11,3.22a.52.52,0,0,1-.06.35q-2.9,3.44-5.8,6.88a33.16,33.16,0,0,0-2.94,3.57c-2,3.17-3.76,3.32-6.36.66-2.84-2.91-5.89-5.61-8.8-8.45-.83-.81-1.41-1.86-2.24-2.67-2.19-2.14-4.57-4.09-6.64-6.33s-4.06-4.49-4.57-7.91c-.23-1.58-1.16-3.22-.91-5a47.55,47.55,0,0,1,1.39-6.71c.36-1.17,1.37-2.12,2-3.23A21.22,21.22,0,0,0,17.73,493c.59-1.62,1-3.33,1.66-4.91.59-1.35,1.52-2.55,2.19-3.88.49-1,.71-2.05,1.27-3.07a59.29,59.29,0,0,1,3.9-6,25.3,25.3,0,0,0,1.64-3.75,16.74,16.74,0,0,1,1.21-1.63,97.16,97.16,0,0,1,5.29-8.2,21.61,21.61,0,0,0,2.63-4.71c1-2.18,2.11-4.48,4.46-6,1.35-.87,2-2.92,2.93-4.4.45-.68,1-1.28,1.5-1.95q2.39-3.35,4.71-6.75c.15-.22.09-.58.14-.88a13.26,13.26,0,0,1,3.41-6.58c.68-.75,1.09-1.73,1.7-2.55a28.5,28.5,0,0,1,7.56-7.57c2-1.26,3.87-2.8,6-4,2.29-1.31,4-3.55,6-5.45,1.07-1,2-2.23,3-3.35.07-.08.29-.11.29-.17,0-1.79,1.95-2.84,1.66-4.9a21.68,21.68,0,0,1,.07-6.63,79.68,79.68,0,0,1,2.19-7.78,8.24,8.24,0,0,0,.21-1.42c.12-1.32-.26-2.76,1.11-3.75.24-.18.23-.8.22-1.21-.07-2.49,1.48-4.25,2.84-6a13,13,0,0,0,2.45-4.12,27.47,27.47,0,0,1,2-3.91,26.19,26.19,0,0,0,1.4-3.11c.61-1.78,1.06-3.62,1.63-5.41.73-2.25,2-4.44,2.17-6.72A105.74,105.74,0,0,0,97,339.82,20.43,20.43,0,0,0,95.9,335.8Zm96.37,30.7c.11,1.27-.19,2.71.37,3.29a97.39,97.39,0,0,0,7.77,7c.87.71,2.27.74,3.22,1.39,1.5,1,2.87,2.22,4.82,2.28a.89.89,0,0,1,.64.24c1.11,1.3,2.11,1,3.08-.15a9.19,9.19,0,0,0,.63-.87c-.29-.17-.56-.34-.85-.49-1.73-.89-3.48-1.75-5.18-2.7-.35-.19-.45-.9-.79-1-3.17-1.19-5.11-3.93-7.59-6C196.69,368.08,195.27,366.15,192.27,366.5Zm-20.05-2.66c2.51-1.54,3.56-4,4.67-6.41a4.79,4.79,0,0,1,.82-1.36,34.28,34.28,0,0,0,3-2.93c1.43-2,3-3.44,5.62-3.55.38,0,.81-1.17,1-1.85,0-.16-1-.9-1.38-.79a13.11,13.11,0,0,0-4.53,1.74c-2.32,1.81-4.61,3.75-5.94,6.55-.6,1.28-1.81,2.33-2.19,3.65C172.8,360.43,170.93,361.67,172.22,363.84Zm-98.6,93.1a6.85,6.85,0,0,0,1.59.42c2.39,0,4.79,0,7.18-.07a3,3,0,0,0,1-.27q2.73-1.08,5.45-2.2a11.85,11.85,0,0,1,3-1.29c1.65-.18,1.91-1,1.81-2.28-2.56-1.32-4.27.82-6.32,1.42-1.83.52-3.51,1.56-5.35,2a16.57,16.57,0,0,1-4.29.16C76.05,454.85,74.55,455,73.62,456.94Zm9.77-31.76c1.73.47,2.54,0,2.53-1.73a38,38,0,0,0,0-4.65c-.36-2.83-1-5.64-1.46-8.45,0-.1-.13-.18-.36-.47l-3.38.29C84,415,83,420.25,83.39,425.18Zm142.82-11.31,0,.14a10.71,10.71,0,0,0,2.94-.53,15.93,15.93,0,0,0,3.3-2.31,3.42,3.42,0,0,0,.89-1.64c.07-.24-.39-.91-.54-.89a4,4,0,0,0-1.91.62c-1.31,1.11-2.5,2.33-4.45,2a2.13,2.13,0,0,0-1.4.14,17.81,17.81,0,0,0-2,1.71c.69.23,1.37.48,2.06.66A5.45,5.45,0,0,0,226.21,413.87Zm-159.49,37c.49-1.94-.19-2.63-1.94-2.52-1.07.06-2.15-.16-3.22-.12s-2.39.25-3.88.41C60.51,451.37,63.6,451,66.72,450.88Z"/><path class="cls-1" d="M177.89,83.3c1.42,2.41,2.86,4.74,4.19,7.13s2.53,5,4,7.45,3.22,4.69,4.68,7.12c1.1,1.83,1.88,3.85,2.92,5.72s2.4,4,3.54,6c1,1.76,1.8,3.62,2.83,5.35s2.3,3.35,3.38,5.07c.7,1.12,1.17,2.38,1.87,3.51s1.63,2.32,2.44,3.49,1.68,2.35,2.46,3.57A20.19,20.19,0,0,1,213,144c.3,1.34,1.34,2.5,2,3.74a3.18,3.18,0,0,1,.25.67,25.22,25.22,0,0,1,1,3.62c.71,5.2,1.31,10.41,2,15.69-.73.06-1.06.19-1.17.09a37.75,37.75,0,0,1-4.26-4.32c-1.92-2.59-3.4-5.49-6.08-7.47a7.32,7.32,0,0,1-1.42-2.06c-1.23-1.93-3-3.72-3.54-5.82-.79-3.06-3.05-5-4.41-7.59a3.61,3.61,0,0,1-.2-.91l-2-.1c-1.2,2.27.34,3.58,1.34,5.08,1.15,1.71,2.3,3.43,3.37,5.18,1.29,2.11,2.34,4.39,3.8,6.37s3.48,3.39,4.79,5.36c.91,1.37,1.52,2.93,2.75,4.13,1.51,1.47,2.79,3.18,4.3,4.64s3.25,3.46,5.24,4.43c2.56,1.25,3.92,3.91,6.77,4.81,2.17.69,4.08,2.21,6.13,3.31a3,3,0,0,0,1.4.25c2.94,0,6.09.58,8.75-.3s5.47-.14,7.74-1.29c2.49-1.25,4.84-.58,7.22-1l.41.42-1,2.36c-.07.15-.22.29-.25.45a45.62,45.62,0,0,0-1.31,7.06c-.22,5.32-.28,10.67,0,16,.1,2,1.24,4,1.92,6,0,.16.23.28.27.44.53,2.28,1,4.57,1.59,6.84a3.48,3.48,0,0,0,.78,1.4,3.14,3.14,0,0,1-.3,4.06,5.35,5.35,0,0,0-1.48,1.57c-.92,2.25-2.81,2.25-4.74,2.26a14.51,14.51,0,0,0-2,0c-3.13.45-6.37.56-9.33,1.54a50.79,50.79,0,0,1-5.28,1.05c-2.72.6-5.39,1.43-8.08,2.17a3.1,3.1,0,0,1-.53.1c-2.91.09-5.49,1.27-8.07,2.44a6,6,0,0,1-1.61.15c-1.19.14-2.4-.12-3.4,1.07-.74.88-5.09,0-6.26-.42-3.15-1.11-3.9-4.36-6.07-6.34a40,40,0,0,1-4.89-6.06c-.59-.81-.76-1.92-1.33-2.76-1.82-2.67-3.65-5.36-5.66-7.89-1.31-1.66-3-3-4.4-4.61-1.16-1.38-2-3-3.1-4.45-1.52-2-2.67-4.25-4.85-5.74-1.06-.72-1.71-2-2.55-3.09-1-1.32-2-2.67-3.14-3.95-1.58-1.85-3.13-3.73-4.85-5.44-1.45-1.44-3.13-2.65-4.7-4s-1.6-1.36-3-1.22c0,1-.93,1.9.91,2.62,1.21.47,1.92,2.15,3,3.18.81.82,1.89,1.37,2.69,2.21,1.64,1.74,3.21,3.55,4.74,5.39,1.85,2.22,3.59,4.53,5.45,6.73,1.56,1.85,3.29,3.55,4.83,5.41,1,1.19,1.7,2.6,2.66,3.82,1.37,1.75,2.86,3.41,4.29,5.11,1.13,1.35,2.32,2.66,3.35,4.09,2.17,3,4.67,5.9,6.24,9.21s4.29,5.26,6.23,8.05c1.76,2.54,4.75,3.49,8.08,3.09,3-.35,3-.18,2.74,2.8a8.24,8.24,0,0,1-.95,2.3c-.07.16-.24.27-.27.42-.48,1.91-.82,3.85-1.43,5.71-.5,1.52-1.34,2.93-2,4.4s-1.17,2.74-1.75,4.12c-.82,2-1.65,4-2.46,5.94-.55,1.36-1,2.78-1.62,4.07-.87,1.7-2,3.25-2.88,5a24.06,24.06,0,0,0-2,5,5.44,5.44,0,0,1-3.82,3.81c-2.25.57-4.4,1.52-6.61,2.26a5,5,0,0,1-1.57.25c-2,0-4,.08-5.93-.06a16.82,16.82,0,0,1-2.73-.85c-.68-.18-1.41-.18-2.11-.32-2.4-.46-5-.57-7.13-1.54-2.63-1.15-5-3-7.39-4.62-1.42-.92-2.84-1.85-4.21-2.85-2.13-1.54-4.19-3.19-6.34-4.7a31.94,31.94,0,0,0-3.77-2.16c-2.29-1.14-2.92-3.73-4.77-5.27a23.62,23.62,0,0,1-2.58-2.79,43.94,43.94,0,0,0-3.16-3.74c-2.19-2-4.59-3.78-6.78-5.78a39.46,39.46,0,0,1-2.81-3.45c-1.62-1.87-3.3-3.69-4.91-5.56a13.09,13.09,0,0,1-1.33-2,43.77,43.77,0,0,0-6.06-8c-.48-.49-.4-1.69-.31-2.54s.76-1.65.8-2.49c.11-2.76,0-5.52.11-8.27a28.6,28.6,0,0,1,1-4.42,5.71,5.71,0,0,0,.24-1.4,11.18,11.18,0,0,1,2.42-7c1.19-1.69,1.85-3.73,2.87-5.55s2.49-3.8,3.55-5.8a17.06,17.06,0,0,0,1.38-4c.23-.95.15-1.82,1.12-2.62.76-.62,1-2,1.26-3.06.6-2.92,1.13-5.86,1.56-8.81.19-1.24,0-2.53.11-3.77s.63-2.5.72-3.76a20.12,20.12,0,0,0-.28-3.44c0-.22-.23-.44-.2-.64.36-3.12.56-6.27,1.18-9.33a31.89,31.89,0,0,1,2.15-5.46c.5-1.22.94-2.48,1.51-3.67s1.39-2.55,2.06-3.84c.58-1.14,1.06-2.33,1.66-3.46.77-1.45,1.64-2.85,2.39-4.31a29,29,0,0,0,1.34-3.08c.49-1.27,1.4-2.63,1.25-3.83-.26-2.14,1.41-3.4,1.72-5.25.19-1.2,1.42-2.21,2.1-3.36a7.67,7.67,0,0,0,1.35-2.81c.24-2.27,2.49-3,3.29-4.87a63.22,63.22,0,0,1,3.41-6.26c1.08-1.85,2.43-3.56,3.33-5.48A18.42,18.42,0,0,1,168.26,94c2.63-2,4.27-4.71,6.66-6.81A26,26,0,0,0,177.89,83.3ZM164.44,255.86c-.64,2.52,0,3.75,1.76,4,3.73.55,7.26-.53,10.8-1.39a8.56,8.56,0,0,0,3.25-1.58c2.28-1.85,4.47-3.83,6.57-5.88.4-.4.24-1.41.23-2.14,0-.12-.77-.42-.85-.33-1.24,1.35-3.36,1.3-4.42,3.13a10.88,10.88,0,0,1-3.6,3.09c-1.07.7-2.72.76-3.48,1.65-1.4,1.66-2.41,1-3.3.26a13.92,13.92,0,0,1-3.64.58A13.49,13.49,0,0,1,164.44,255.86ZM165,126.15c-1,.62-1.73,1-2.35,1.44s-1.25,1.08-1.86,1.63a46.77,46.77,0,0,0-4.07,3.88c-.45.53-.21,1.64-.28,2.48.67-.05,1.61.16,2-.2,1.55-1.49,2.88-3.22,4.41-4.74a3.77,3.77,0,0,1,2.27-1.19c.53,0,1,1,1.63,1.52.37.31,1,.72,1.31.6a2.2,2.2,0,0,0,1.07-1.24c.09-.27-.42-.73-.66-1.11a3.24,3.24,0,0,0-.56-.78C167,127.69,166.09,127,165,126.15ZM155,163.37a2.4,2.4,0,0,0-.24-.69c-.76-1-1.38-4.42-.67-5.2,1.6-1.75.66-3.88,1.05-5.79,0-.22-.56-.81-.88-.83-.53,0-1.43.14-1.55.47a17.42,17.42,0,0,0-1.23,4.49,67.6,67.6,0,0,0-.08,6.83c0,.79.17,1.59.27,2.51Zm19.91-42-1.14,2,1.19,1.77,1.36-.77,1.28.82c1.89,1.19,3.78,2.39,5.68,3.56a1.8,1.8,0,0,0,1.15.39c.24-.05.46-.61.51-1,.25-1.63-1.38-2-2.16-2.91s-1.93-1.11-2.95-1.61C178.14,122.93,176.48,122.16,174.86,121.4ZM155.15,250.33c0-.32.15-1.28-.24-1.72a2,2,0,0,0-2,0c-1.55,1.8-3.58.91-5.38,1.15a21.13,21.13,0,0,1-2.64,0v2.51C148.37,252.17,151.8,253.05,155.15,250.33Z"/><path class="cls-1" d="M280.09,544.33a9.08,9.08,0,0,1-1.88,1.09,5.12,5.12,0,0,1-2.24.08c-1.25-.19-2.45-.66-3.7-.79-1.9-.19-3.85-.05-5.74-.29-2.59-.34-5.34-.46-7.65-1.5-2-.92-4.2-.37-5.92-1.18-2.29-1.08-5.42-1.21-6.13-3.59a40,40,0,0,1,.64-5.67,59.07,59.07,0,0,1,2.22-5.94c.54-1.39,1.09-2.77,1.61-4.16,1-2.59,1.19-5.48,3.16-7.67a2.45,2.45,0,0,0,.47-.94c.54-1.82.94-3.7,1.62-5.46a30.51,30.51,0,0,1,2.06-3.81,2.19,2.19,0,0,0,.16-.3c.5-1.82,1-3.65,1.51-5.45a36.85,36.85,0,0,1,1.31-3.5c.69-1.67,1.44-3.33,2.15-5,.11-.27.13-.58.23-.86.74-1.95,1.57-3.87,2.22-5.85s1.13-4.08,1.73-6.11c.23-.78.6-1.53.89-2.3a3.39,3.39,0,0,0,.29-1,19.9,19.9,0,0,1,2.39-7.52c1.14-2.42,1.88-5,2.93-7.49.51-1.19,1.37-2.23,2-3.39a27.74,27.74,0,0,0,1.64-3.8c.59-1.78.94-3.64,1.55-5.41.23-.68.78-1.57,1.36-1.72,1.36-.36,1.21-1.34,1.2-2.22,0-1.69-.66-3.48,1.05-4.79.07,0,.05-.22.06-.34.45-3.55.94-7.08,1.31-10.64.17-1.51-.31-3.14,1.07-4.35.14-.13.1-.45.13-.69.54-4.32.61-8.76,1.71-12.93,1.54-5.8.68-11.6.88-17.39a13.21,13.21,0,0,0-.88-3.47,5.66,5.66,0,0,1-.26-1.4c0-9.59,0-19.17,0-28.89,1.52-.14,2.68-.77,3.88.69.95,1.16,4.05-.08,4.87-1.74s1.68-3.43,1.45-5.5a6.52,6.52,0,0,1,.95-3.56,21.53,21.53,0,0,0,1.52-6.24,28.72,28.72,0,0,1,2.35-7.45c.76-1.73,1.09-3.66,1.69-5.47.66-2,1.41-4,2.12-6,.12-.33.18-.69.28-1q.9-2.89,1.79-5.77c1.8.57,2,1.88,2.2,3.34.34,2.72.27,5.69,1.39,8.07,2.18,4.62,1,9.33,1.18,14,.22,5.92-.09,11.86-.15,17.79,0,2.4.69,2.78,2.65,3.92,3.33,1.94,6.87.6,10.26,1.18s7,1,10.48,1.5c1.61.24,3.42,1.2,4.77.75,4.79-1.61,9.8-.35,14.5-1.43,2.66-.61,5.29-.51,7.89-.95s5.42-.52,7.82-1.53c2.1-.88,4.18-.57,6.21-1.05a59.8,59.8,0,0,0,6.39-2.24,32.64,32.64,0,0,1,3.87-1.41,17.13,17.13,0,0,0,4.28-1.15c2.2-1.11,3.49.06,4.22,2.43A43.53,43.53,0,0,0,398.9,366c1.34,2.59,3.15,4.93,4.52,7.5a35.58,35.58,0,0,1,1.7,4.88c.74,2.1,1.52,4.2,2.29,6.3a.84.84,0,0,1,0,.17c.48,2.76,1.32,5.51,1.39,8.29.18,7.67.11,15.35,0,23,0,1.71-1,3.4-1,5.12-.21,8.45-.22,16.9-.41,25.35,0,1.74-1.21,3.71-.71,5.17,1.23,3.57.56,7.24,1.27,10.8.4,2,.71,4.05,1.09,6.08.44,2.36.48,4.93,1.49,7s.57,4,1,6c.6,2.77,1.49,5.48,2.25,8.21a.59.59,0,0,1,0,.17c.48,4.41,2.29,8.68,1.52,13.21a4.35,4.35,0,0,1-1.46,2.46,7.6,7.6,0,0,1-3.05,1.4,26.66,26.66,0,0,0-7.38,2.62c-1.49.86-3.55.72-5,1.59-2.79,1.62-6.35.93-8.91,3.47-1.38,1.36-3.6,2-5.54,2.63a3.28,3.28,0,0,1-2.49-.72c-2.44-1.84-2.36-1.88-1.13-4.55.22-.49.25-1.5,0-1.7-1.23-.9-.71-2.15-.92-3.25-.28-1.53-.79-3-1-4.58-.24-2.2-.18-4.44-.42-6.64a44.37,44.37,0,0,0-.9-4.39,2.18,2.18,0,0,1-.05-1.07c1.29-3.72-.05-7.48-.57-11s-.31-7.3-1.24-10.73c-1.31-4.85-.56-9.72-1.05-14.55a15.52,15.52,0,0,0-.7-2.52,9.48,9.48,0,0,1-.44-1.53,23.24,23.24,0,0,0-1-5.7c-1-2.74-1-5.83-1.7-8.71a43.71,43.71,0,0,0-2.09-5.43,4.34,4.34,0,0,1-.28-.63c-.49-2.72-.83-5.48-1.49-8.16a43.42,43.42,0,0,0-2-5.28,5.17,5.17,0,0,1-.36-.8c-.48-2.22-.81-4.49-1.46-6.67a29.53,29.53,0,0,0-2-4.24,5.11,5.11,0,0,1-.36-1c-.72-2.91-2.37-5.38-3.62-8-1.45-3.08-4-5.21-5.73-8-1.33-2.09-3.16-3.85-4.67-5.83a15.4,15.4,0,0,1-1.52-2.8c-.92-1.93-1.74-3.91-2.76-5.78-.2-.35-1.23-.46-1.77-.31-.35.09-.71.86-.71,1.34,0,1.78.19,3.57.09,5.34a9.4,9.4,0,0,1-1,2.45,3.52,3.52,0,0,0-.23,1,29.1,29.1,0,0,1-1,6.4c-1.05,3.3-1.12,6.9-1.68,10.37-.25,1.54-.74,3-1,4.58s-.2,2.85-.35,4.27c-.45,4.21-.78,8.45-1.46,12.62-.37,2.24-1.5,4.34-2.08,6.56-.65,2.52-.73,5.23-1.67,7.61-1.18,3-.48,6.18-1.47,9-.64,1.8-.6,3.58-1.08,5.3a42.73,42.73,0,0,1-2.1,5.17c-.05.11-.17.21-.16.31.06,1.82-.71,3.37-1.35,5-.74,1.93-.72,4.15-1.49,6.06a56.39,56.39,0,0,1-3.46,6.32c-.93,1.65-1.78,3.35-2.81,4.94-1.56,2.41-3.3,4.71-4.87,7.11-1.73,2.65-3.47,5.3-5,8.07-1.22,2.22-2.06,4.63-3.15,6.92s-2.29,4.48-3.4,6.74c-.51,1-.85,2.14-1.38,3.15-.8,1.55-1.74,3-2.53,4.58-.56,1.12-.88,2.36-1.46,3.46-.7,1.36-1.54,2.64-2.36,3.93-.56.87-.08,2-1.28,2.85-1,.69-1.07,2.52-1.62,3.82-.45,1.09-1,2.13-1.46,3.21-.38.86-.67,1.75-1.09,2.59s-.85,1.32-1.19,2c-.91,1.85-1.73,3.75-2.66,5.58C281.49,542.41,280.86,543.17,280.09,544.33Zm15-154,.61.32a39.43,39.43,0,0,0,4.07-5.5c.88-1.69,1.06-3.75,1.51-5.66a8.63,8.63,0,0,1,.47-2.25c1.12-1.78.79-3.61.62-5.45-2-.39-3,.09-3.4,2-.47,2.14-.24,4.35-1.39,6.47-.95,1.76-1.14,3.93-1.68,5.92a.86.86,0,0,1-.22.47C294.16,387.67,294.78,389,295.07,390.31Zm95.4,35.25a13.9,13.9,0,0,0,1.65-.12c1.35-.35,3.8-3.75,3.94-5.44.06-.65-.13-1.62.23-1.9,1.48-1.2,1-2.81,1.16-4.27a3,3,0,0,1,.22-1.22c1.7-2.51.54-5.24,1-8.09l-2.42.41C395.64,412.11,394.7,419.06,390.47,425.56Zm-8.6-48.27a6.12,6.12,0,0,1,1.24.88,12.18,12.18,0,0,0,4.57,4c1.88.86,3.51,2.26,5.37,3.19,1.26.63,2.3,2.28,4.18,1.16,0-1.15.81-2.88-.86-3.25a11.17,11.17,0,0,1-3.69-1.58,19.12,19.12,0,0,1-2.28-1.37,23.47,23.47,0,0,0-4.57-2.85A3.76,3.76,0,0,0,381.87,377.29Zm-70.71,77.48c-1.65,1-2.4,2-2.2,3.73a17.15,17.15,0,0,1-.07,3.58,2.87,2.87,0,0,1-.54,1.42c-1.68,2.2-3.43,4.35-5.13,6.53a8.32,8.32,0,0,0-.59,1.29c4.17.47,5.74-2.84,7.15-5.09A13.16,13.16,0,0,0,311.16,454.77ZM290.8,495.59c-.88,1.21-1.68,2.2-2.36,3.28-.27.42-.12,1.11-.39,1.52-1.43,2.2-1.18,6.33.57,7.91a.85.85,0,0,0,.79.09c1.09-.59,2-3.29,1.26-4.37-1.81-2.49.31-3.9,1.21-5.7a2.65,2.65,0,0,0,.07-1.63C291.89,496.4,291.45,496.18,290.8,495.59Zm85.72-53.68c.61-1.78,1.13-3.29,1.67-4.79.05-.14.28-.21.36-.36.38-.73.75-1.48,1.12-2.22l-.46-.4c-.73.1-1.89-.05-2.13.35-1.35,2.27-3.16,4.44-2.73,7.52Zm12.64,1.62c-.8.49-1.46.88-2.1,1.29-1.21.79-2.42,1.57-3.6,2.4a12.48,12.48,0,0,0-1.36,1.27c.48.4.93,1.06,1.46,1.13a3.36,3.36,0,0,0,2.14-.52c1.09-.79,1.89-2,3-2.68C390.32,445.52,389.89,444.65,389.16,443.53Z"/><path class="cls-1" d="M367.57,266.67l-2.27,1.19.77.35c-2.33-.18-4.77,0-7-.64-2.76-.82-5.66-.92-8.36-2.09-2-.89-4.4-1-6.57-1.67-2-.58-4-1.38-5.95-2.09-.16-.06-.3-.2-.46-.25-1.87-.54-3.75-1-5.59-1.62a17.66,17.66,0,0,1-2.32-1.12l-7.14-3.54a1.68,1.68,0,0,0-.48-.2c-2.16-.49-4.36-.86-6.48-1.47a60.31,60.31,0,0,1-6.26-2.2c-2.19-.88-4.33-1.87-6.43-2.93a27.32,27.32,0,0,1-3.1-2.06c-.18-.12-.33-.33-.52-.4a35.55,35.55,0,0,1-4-1.41,41.56,41.56,0,0,1-4.54-2.79c-1.2-.82-2.32-1.77-3.29-2.52.28-1.17.47-2.06.72-2.94a34.44,34.44,0,0,0,1.19-12.36c-.22-2.69-.68-5.35-1.09-8-.45-3,1.53-5,2.88-7.19.65-1.07,1.4-2.08,2.12-3.1,1.14-1.61,2.34-3.17,3.42-4.81.61-.92,1-2,1.55-2.95,1.41-2.61,2.81-5.23,4.27-7.82,1.15-2,2.48-4,3.56-6.05.65-1.25.85-2.73,1.44-4s1.4-2.28,2-3.45,1-2.3,1.63-3.39c1.1-2,2.27-3.88,3.41-5.82.18-.31.36-.62.51-.94.8-1.85,1.6-3.7,2.37-5.56a5.16,5.16,0,0,0,.23-1c.49-2.49.89-5,1.54-7.47.29-1.06,1.45-1.87,1-3.19-.06-.17-.12-.33-.2-.53a1.94,1.94,0,0,0-2.4,1.49c-.59,1.74-1.49,3.38-2.25,5.06a.49.49,0,0,0-.06.17c-.49,2.27-.86,4.59-1.53,6.81a23,23,0,0,1-2,4.22c-.36.68-1,1.22-1.32,1.91-1.08,2.12-2,4.3-3.12,6.43-.64,1.27-1.42,2.47-2.07,3.73-.22.41-.2.95-.39,1.38-.71,1.6-1.44,3.21-2.23,4.78-.93,1.87-1.85,3.74-2.9,5.54-1.47,2.5-3.06,4.93-4.58,7.39-.95,1.52-1.85,3.06-2.82,4.55s-1.56,3.09-2.82,3.86c-1.56,1-1.26,2.63-2.25,3.81-1.6,1.92-2.59,4.37-3.81,6.61-.57,1.05-1,2.17-1.64,3.2a16.61,16.61,0,0,1-1.25,1.43,10,10,0,0,1-8,4.24c-2.57,0-5.18-.92-6.33-3.82a1.76,1.76,0,0,0-1.17-.88c-1.63-.27-2.12-1.29-2.43-2.78a38.31,38.31,0,0,0-1.65-5.06,13.76,13.76,0,0,1-.81-1.81c-.26-1.3.17-2.77-1.22-3.74-.2-.13-.15-.68-.14-1,0-5.16-.09-10.32.12-15.46a26.72,26.72,0,0,1,1.33-6.51,32.64,32.64,0,0,1,2-4.25,2.63,2.63,0,0,0,.34-1c-.07-2.43,1.47-4.23,2.27-6.32.88-2.28,2.84-3.85,3.22-6.54s2.22-4.88,3.31-7.35c.62-1.39,1-2.89,1.51-4.33.77-2.13,1.65-4.23,2.33-6.39.62-1.95.94-4,1.6-5.93a39,39,0,0,1,1.92-4c.63-1.37,1.26-2.73,1.77-4.14a30.19,30.19,0,0,0,1.14-3.95c.58-2.7.94-5.45,1.64-8.11a42.68,42.68,0,0,1,2.1-5.35c.42-1,1-2,1.31-3,.58-1.81,1-3.68,1.54-5.49a28.82,28.82,0,0,1,1.59-4.31c1.11-2.22,2.39-4.36,3.65-6.51,1-1.73,2.14-3.32,4.31-3.84A8.88,8.88,0,0,0,300.58,92c1.62-1,3.13-2.27,4.77-3.29s3.63-2,5.43-3.07a10.8,10.8,0,0,0,1.76-1.25c1.8-1.61,3.57-3.27,5.35-4.9A15.6,15.6,0,0,1,320.71,77a2.44,2.44,0,0,1,2.24.4c2.69,2.63,5.15,5.49,7.87,8.09A30.63,30.63,0,0,0,338,90.84c1.15.59,2,1.87,2.9,2.87,1.43,1.52,2.8,3.11,4.26,4.61s3.55,2.66,4.33,4.43a31.58,31.58,0,0,0,3.05,5.22c1.39,2,1.54,4.4,2.67,6.41a32.45,32.45,0,0,1,2.62,7.38c.53,1.94,1.36,3.8,2.05,5.7a1.09,1.09,0,0,1,0,.17c.49,2.49,1,5,1.49,7.47.26,1.17.73,2.28,1,3.44a8.55,8.55,0,0,1,.24,2,42.1,42.1,0,0,0,.17,5.74c.46,2.66,1.28,5.25,1.95,7.86.06.24.14.46.18.7.58,3,1.05,6.14,1.75,9.16.53,2.29,1.36,4.51,2.05,6.76,0,.12.06.24.08.35.52,3.43,1.08,6.86,1.53,10.3.2,1.56-.29,3.25,1,4.58.17.17.12.57.17.86a81.86,81.86,0,0,1,1.44,17.33c-.2,7.2.24,14.44-.46,21.57-.36,3.79-.26,7.75-1.28,11.37-.71,2.52-.57,5-1.06,7.43-.55,2.76-1.55,5.43-2.17,8.17-.29,1.33-.1,2.75-.26,4.12-.13,1.15-1,2.53-.59,3.35,1,2.09-.63,3.88-.18,5.79C367.14,266.25,367.46,266.51,367.57,266.67Zm-52.64-30.42c.62-1.59.55-3.08-.91-4.23-1.77-1.41-3.7-2.62-5.38-4.13-2.5-2.24-4.89-4.61-7.22-7-.72-.74-1.09-.93-1.64,0-.26.44-.58.84-.76,1.1.88,1.14,1.58,2.22,2.46,3.15,2,2.14,4.13,4.22,6.23,6.29a22,22,0,0,0,3.11,2.78A35.76,35.76,0,0,0,314.93,236.25ZM364.56,186a29.6,29.6,0,0,1,.7,4.12c.14,3.83,0,7.66.26,11.48.1,1.55,1,3,1.52,4.58l.64-.18c3-7.4.39-14.39-1.46-21.8Zm3.3,40.46h.08c0-1.37.05-2.75-.06-4.12,0-.24-.75-.43-1.15-.64a10.12,10.12,0,0,0-1.25,2.73c-.24,1.71-.13,3.47-.21,5.2a3.37,3.37,0,0,1-.37,1.73c-1.66,2.32-1.07,4.84-.79,7.35a.8.8,0,0,0,.5.58c.19,0,.45-.23.66-.4,1.26-1.07,1.25-2.55,1.3-4a15.09,15.09,0,0,1,.34-2.84c.23-1,.72-2,.92-3.06A14,14,0,0,0,367.86,226.48Zm-7.44-77c-.15,1.26-.32,2.12-.33,3a68.45,68.45,0,0,1,0,7.16c-.23,2.13.6,3.53,2.26,5.14a12.21,12.21,0,0,0,.42-2.22c0-3.23-.27-6.46-.19-9.68C362.66,151.31,361.9,150.56,360.42,149.49Zm-34.54-22.83-2.87.17c-.33,3.92-2.41,7.41-.76,11.3,2-2.62,2-2.62,2.07-5.54a13.71,13.71,0,0,1,.41-3A28.7,28.7,0,0,1,325.88,126.66Zm-18.8,58.42.95,1.69c.31-.33.61-.66.91-1,1.62-1.78,2.68-4.05,4.85-5.4.37-.24.12-1.46.16-2.22-.45.16-.92.3-1.36.49-.25.12-.43.42-.69.49C308.83,180,308.53,182.84,307.08,185.08ZM324,193.26c-.7,0-1.57-.19-2.06.14a42.56,42.56,0,0,0-5,4c-.4.38-.22,1.41-.22,2.15a1.57,1.57,0,0,0,1,.16,33.7,33.7,0,0,0,4.51-2.91C323.24,196,324.92,195.39,324,193.26Zm-5.22-79.94c.87-1.19,1-3.26,0-4.17-1.55-1.43-3.23-3.44-5.95-2.86-.11,1.44,0,2.53,1.74,2.52a1.28,1.28,0,0,1,.86.45C316.54,110.54,317.61,111.87,318.8,113.32Zm-14.19-7.5c.94-1.71.21-3.19-1.92-3.53-.53-.09-1-.66-1.51-.83a5,5,0,0,0-2.19-.26c-.25,0-.6,1.06-.46,1.48a2.47,2.47,0,0,0,1.29,1.06C301.39,104.47,303,105.13,304.61,105.82Z"/><path class="cls-1" d="M252.21,512.42a40.51,40.51,0,0,1-4.68,0c-2.51-.3-5.09-4.17-3.7-5.68a4.22,4.22,0,0,0,.88-4.17c-2.16-10.12-1.4-20.4-.6-30.46.88-11.24.39-22.43.67-33.63,0-1.52-.6-3.06-.88-4.6a12.84,12.84,0,0,1-.22-2.14c-.06-7.13.06-14.27-.2-21.39-.14-3.93-.93-7.83-1.36-11.75-.36-3.37-.75-6.75-.89-10.13-.06-1.5.52-3,.68-4.54a11.2,11.2,0,0,0-.21-2.36,6.85,6.85,0,0,1-.15-1c.2-2.3.78-4.64.54-6.89s-1.27-4.39-2-6.58c-.07-.23-.18-.45-.25-.68-.55-1.89-1.06-3.8-1.68-5.67-.17-.5-.7-.89-1-1.34-1.19-1.6-2.47-3.14-3.54-4.81-.71-1.11-1.08-2.43-1.69-3.61a23.22,23.22,0,0,0-1.46-2.24c-.78-1.17-1.55-2.35-2.38-3.5-1.1-1.53-2.25-3-3.38-4.53a1.87,1.87,0,0,1-.3-.41c-.49-1.65-.86-3.35-1.46-5s-1.56-3.37-2.25-5.1a35.59,35.59,0,0,1-1.65-4.89,2,2,0,0,1,1.33-2.68c.89-.37,1.47-1.56,2.1-2.45.78-1.11,0-1.86-.46-2.91a22,22,0,0,0-3.69-5.12,16.51,16.51,0,0,1-1.55-2.91,35.36,35.36,0,0,0-6.13-8.61c-1.28-1.26-2-3.11-3-4.68-.54-.87-1.18-1.68-1.69-2.57-.38-.64-1-1.44-.88-2,.48-2.2-1.18-3.77-1.46-5.73,0-.25-.5-.45-.77-.67,1.22-2.63,2.32-5.23,3.61-7.74,1.05-2.06,2.33-4,3.5-6a1.46,1.46,0,0,0,.16-.5c.2-2.43,1.37-4.5,2.41-6.62a2,2,0,0,0,.19-.86c-.14-3,1.92-5.07,3.15-7.48a6.74,6.74,0,0,0,.59-1.08c.52-2.14.9-4.32,1.5-6.44s1.52-4.23,2.15-6.39a15.18,15.18,0,0,0,.38-2.87l5.57-1.9a2,2,0,0,1,.35-.07c3-.49,6.13-.87,9.16-1.49,2.87-.6,5.71-1.39,8.53-2.2,3.64-1,7.31-2,11.13-1.53,2.84.34,4.61-1.33,6.38-3.08.51-.52.8-1.41,1.39-1.66a3.07,3.07,0,0,1,2.48-.14c1.6,1.24,3.33.94,5.07.94,1.14,0,2.28,0,3.42,0,2.84,0,4.88-1.6,6.72-3.53,1.58-1.65,3.12-3.34,4.71-5.05,0,0,.17,0,.18.08.44,2.18,1.23,4.37,1.2,6.54a37.09,37.09,0,0,1-1.21,9.76c-1.12,3.83-2.34,7.58-2.49,11.62-.05,1.45-.83,2.87-.9,4.32a14.69,14.69,0,0,0,.74,3.55,5.23,5.23,0,0,1,.27,1.22c0,2.76.08,5.52-.07,8.27-.05,1-.79,2-.92,3-.23,1.84-.21,3.71-.34,5.56s.42,3.53-.93,5.11c-.4.48-.18,1.51-.19,2.29,0,8.87,0,17.75-.11,26.62-.05,2.59-.75,5.16-.94,7.75-.24,3.05-.28,6.11-.35,9.16-.05,2.46.11,4.92,0,7.37-.24,4-.72,7.9-1,11.85a9.44,9.44,0,0,0,.75,2.66,3.78,3.78,0,0,1,.21,1.58c-.53,2.83,1.36,4.36,3.24,5.69a4.17,4.17,0,0,1,2.07,3.87c-.13,9.72-.13,19.43-.08,29.15a12.91,12.91,0,0,0,1,3.27,3.44,3.44,0,0,1,.17,1.05c0,4.68.53,9.43-.14,14-.49,3.27-.57,6.65-1.38,9.79-.55,2.16-.23,4.51-1.1,6.37-1.38,2.92-.92,5.89-1.3,8.83a49.9,49.9,0,0,1-1.27,6.88,30.33,30.33,0,0,1-2,4.49,2.3,2.3,0,0,0-.15.32c-.53,1.86-1,3.74-1.59,5.58-.4,1.23-.93,2.42-1.42,3.62-.83,2-1.64,4.1-2.54,6.11-.59,1.33-1.33,2.59-2,3.88a5,5,0,0,0-.34.83c-.45,1.46-.78,3-1.34,4.4-1.15,2.9-2.43,5.75-3.65,8.63a1,1,0,0,0-.07.53c.51,2.53-1.14,4.56-1.66,6.85a20,20,0,0,1-2,4.18,2.21,2.21,0,0,0-.18.51c-.48,1.87-.83,3.79-1.46,5.62s-1.48,3.26-2.2,4.91c-.59,1.36-1.08,2.76-1.69,4.1s-1.35,2.7-2,4.05a2.27,2.27,0,0,0-.23.47C253.43,507.83,252.85,510,252.21,512.42Z"/><path class="cls-1" d="M315.52,359.77c0-2.68-.62-5.49.12-7.88,1.81-5.83,1.08-11.64.78-17.47a18.39,18.39,0,0,0-1.25-6.85c-1.24-2.62-.56-5.45-1.46-7.89-1.44-3.87-.92-7.72-.72-11.55.12-2.2,1.26-4.34,2-6.62l-2-1.64c-.91,1.7-1.76,3.32-2.64,4.91-.78,1.4-1.7,2.73-2.38,4.18s-1,2.91-1.61,4.35c-.46,1.16-1,2.3-1.54,3.42-1.09,2.21-2.24,4.39-3.3,6.61-.2.41-.08,1-.22,1.41-.35,1.13-.76,2.24-1.15,3.36a1.91,1.91,0,0,0-.1.34c-.47,2.33-.83,4.68-1.42,7s-1.39,4.5-2.11,6.74c0,.11-.1.22-.13.33-.53,2.16-1,4.33-1.62,6.48-.51,1.85-1.14,3.67-1.81,5.8-1.9.63-3.87.05-5.67-1.46-1.54-1.29-3.11-2.53-4.63-3.84a2.73,2.73,0,0,1-.66-1.16,29.23,29.23,0,0,1-.92-3.12,6,6,0,0,1,.09-1.58c0-.61.07-1.22.08-1.82,0-.17-.19-.37-.14-.49,1.5-3.63.63-7.44.8-11.16.16-3.47,0-7,.2-10.42.12-2,.89-4,1-5.94.23-3.29.23-6.59.25-9.89.05-7.07-.16-14.16.17-21.22.16-3.54,1.25-7.05,1.91-10.57.07-.35.3-.81.16-1-1.24-2,.59-3.86.27-5.88a47.88,47.88,0,0,1-.07-6.74c2,.73,3.66,1.27,5.24,1.92a50.66,50.66,0,0,1,4.84,2.26c1.85,1,3.6,2.2,5.41,3.29a29.51,29.51,0,0,0,3.11,1.72c2.17,1,4.48,1.63,6.53,2.78a24.75,24.75,0,0,0,7.41,2.54c1.61.32,3.06,1.39,4.59,2.1,1,.47,2,1,3.07,1.36,1.56.57,3.17,1,4.75,1.55,2.12.73,4.23,1.54,6.36,2.27,1.62.56,3.3,1,4.89,1.59a19.85,19.85,0,0,1,2.92,1.68c.33.2.59.6.93.69,2.1.52,4.22,1,6.31,1.46a6.57,6.57,0,0,1,.22,1.08c0,7.85.18,15.7-.09,23.54-.09,2.45-1.35,4.87-2.07,7.3a4.26,4.26,0,0,0-.22.66c-.45,3.09-.86,6.17-1.34,9.25-.45,2.83-.95,5.65-1.47,8.47-.35,2-.43,4.05-1.27,5.78s-.52,4.07-2.18,5.61c-.39.37-.21,1.34-.29,2,2.52,1.09,4.91,2,6.94,3.77,1.48,1.33,3.84,1.72,5.25,3.1s2.39.57,3.46-.21c.36-.26.8-.79.77-1.16-.12-1.51.89-3.2-.71-4.51-.22-.17-.22-.87-.06-1.2,1.52-3.11.71-6.47,1.09-9.69.47-3.93.19-8.12,1.54-11.7s.29-7,1.18-10.26c1.15-4.31.55-8.8,1.5-13,.82-3.64.71-7.22,1-10.83a20.06,20.06,0,0,1,1.28-4.86c.32-.92,3.21-.76,3.78.09,1.71,2.58,2.22,5.49,2.57,8.48a10.33,10.33,0,0,0,1,2.42c.1.27.19.54.27.82.36,1.13.77,2.25,1.05,3.4.55,2.31.91,4.68,1.57,7,.56,1.92,1.43,3.75,2.17,5.62a1.62,1.62,0,0,1,.18.49c0,2.4,1.52,4.18,2.52,6.18,1.12,2.23,1.71,4.73,2.81,7,.95,1.92,2.33,3.62,3.46,5.45a31,31,0,0,1,1.53,2.91,44.56,44.56,0,0,0,3.46,6.54,21.43,21.43,0,0,0,2.76,3.57c.9.84-.28,3-1.72,3.54-1.69.65-3.52,1-4.84,2.41-.07.07-.22.08-.34.11-1.94.5-3.9.93-5.81,1.52s-3.85,1.35-5.78,2a2.27,2.27,0,0,1-.51.14c-4,.53-8,1-12,1.59-1.64.25-3.21.93-4.84,1.21a78.13,78.13,0,0,1-15,1.38c-5.58-.13-11.16,0-16.72-.39-2.48-.17-4.87-1.37-7.35-1.91a33.74,33.74,0,0,0-4.62-.39A6.34,6.34,0,0,1,315.52,359.77Z"/><path class="cls-1" d="M293.22,87.78c.24,1.61.66,2.62.45,3.48a13.11,13.11,0,0,1-1.62,3.43,29.61,29.61,0,0,0-2.14,3.19c-1.05,2.43-2.83,4.54-3.14,7.31a15.19,15.19,0,0,1-1,3.47c-.53,1.43-1.17,2.82-1.78,4.22-.07.15-.31.24-.35.39-.59,1.84-1.12,3.7-1.75,5.53s-1.35,3.71-2,5.55a5.51,5.51,0,0,0-.33.81c-.47,2.57-.78,5.18-1.42,7.7a29.57,29.57,0,0,1-2,4.6c-.54,1.19-1.15,2.34-1.64,3.55-.62,1.51-1.15,3.05-1.54,4.13-2,1.09-3.69,2-5.39,2.87-1.29.66-2.69,1.13-3.91,1.88a30.44,30.44,0,0,0-3.63,2.79c-2.2,1.88-4.32,3.84-6.54,5.7a8.18,8.18,0,0,1-2.44,1.38,17,17,0,0,1-4.86,1.36c-6.47.21-13,.1-19.42.27a23.17,23.17,0,0,0-4.29,1.06c-1.5.35-2.09-.2-2.21-1.82a55.2,55.2,0,0,0-1.16-8.42,29.71,29.71,0,0,0-2.14-5.07,3.75,3.75,0,0,1-.22-.67c-.48-1.77-.48-3.91-1.53-5.22-1.79-2.23-2.29-5.18-4.6-7.12-1.28-1.09-1.83-3-2.79-4.53-.67-1-1.53-2-2.21-3s-1.12-2-1.73-3-1.42-2-2-3.09a2.16,2.16,0,0,1,.09-1.65c.55-1.25,1.34-2.4,1.88-3.66a1.68,1.68,0,0,1,2.65-.79c1.22.68,2.6,1.41,3.94,0a1.77,1.77,0,0,1,1.13-.46,10.15,10.15,0,0,0,5.88-2.66,3.86,3.86,0,0,0,1.92-3,5,5,0,0,1,1.32-2.89,2.06,2.06,0,0,1,2-.09,10.38,10.38,0,0,0,7.65,2.47c1.53-.09,3.22-.67,4.52.85.19.22.8.09,1.22.09,2.22,0,4.45.2,6.65,0a8.72,8.72,0,0,1,6.79,2.7,3.21,3.21,0,0,0,3.27,1.12,1.44,1.44,0,0,0,.85-.72c.54-1.19,1-2.42,1.46-3.62.09-.2.25-.46.44-.51,1.65-.5,3.32-.94,5-1.44.85-.27,1.66-.66,2.51-1a4.31,4.31,0,0,1,1.56-.32c2.94.22,5-1.73,7.22-3.06a60.82,60.82,0,0,0,6.95-4.74c2.43-2,5.55-3,7.35-5.81.44-.69,1.63-.89,2.47-1.31Zm-47.31,38.55.46.5c.75-.18,1.89-.12,2.19-.59,1.19-1.9,2.75-3.69,2.84-6.12,0-.23,0-.58.19-.67,1.41-.88.84-2.29.74-3.41-.07-.72-.88-1.39-1.42-2-.08-.09-.67,0-.75.21-.52,1.06-1.47,1.79-1.38,3.28s.44,3.26-1.16,4.73C246.63,123.14,246.45,124.93,245.91,126.33Zm8.57-2a5.37,5.37,0,0,0-1.25,1,1.76,1.76,0,0,0-.22,1.29,17.73,17.73,0,0,1,.84,2.52c.14,1.65,0,3.32,0,5.54,1-.81,2.27-1.3,2.34-1.93a27.48,27.48,0,0,0,0-6.41C256.18,125.61,255.11,125,254.48,124.31Z"/><path class="cls-1" d="M204.89,6.21c1.44,0,2.88,0,4.32,0a6.83,6.83,0,0,1,4,.92c1.36.93,3.31,1,4.94,1.57a49.49,49.49,0,0,1,5,2.27,50.51,50.51,0,0,1,5.32,3,19.16,19.16,0,0,1,3.4,3.09,14.88,14.88,0,0,1,2.91,5.35,54.82,54.82,0,0,0,3.44,7,.85.85,0,0,1,.06.17,36.41,36.41,0,0,1,1.35,14.26,9.17,9.17,0,0,1-1.28,2.9c-.86,1.69-1.4,3.78-2.73,4.93-1,.91-3.12,1-4.71.86a10,10,0,0,1-4.68-1.09c-1.28-.73-3.3,0-4.94-.3-2.42-.42-4.57.49-6.58,1.37a7.61,7.61,0,0,0-3.05,3.39,20.15,20.15,0,0,0-2.92,9.7c0,.75-1.17,1.93-2,2.17-1.53.45-2.34-.86-2.89-2.11-1.15-2.62-2.14-5.3-4.62-7.08a23,23,0,0,1-2.95-2.81c-1.08-1.11-4-1-5.52-.42-2.58.94-3.28,3.29-4.52,5.2-.45.7-.17,2,0,2.94a33.08,33.08,0,0,1,.89,3.34c.15,2.63.07,5.27.09,7.91a3.23,3.23,0,0,1-4.82,3,12.67,12.67,0,0,1-3.54-2.31,9.68,9.68,0,0,1-1.9-3.69c-.43-1.45.12-3-1-4.51a4.78,4.78,0,0,1-.06-4c1.28-2.82.68-5.73.95-8.59a7.56,7.56,0,0,1,1-3.63c1-1.64,1.15-3.84,1.62-5.8.31-1.26.56-2.53.82-3.8.16-.81.27-1.64.43-2.45.49-2.46.58-5.11,1.61-7.32.78-1.66.64-3.28,1.08-4.86A59.83,59.83,0,0,1,185.62,21a13.53,13.53,0,0,0,1.23-3c.28-2.19,1.82-3.53,3.13-5,1.46-1.61,3.31-2.85,4.82-4.41a7.65,7.65,0,0,1,6.5-2.52c1.19.11,2.39,0,3.59,0Z"/><path class="cls-1" d="M133.23,291.91l-2.19.37c-.56,2-.82,4-1.7,5.74a52.91,52.91,0,0,1-4,5.66c-1.66,2.36-3.41,4.67-4.9,7.14a67.94,67.94,0,0,0-3.55,7c-.33.72,0,1.75-.37,2.45-1.34,2.65-1.56,5.63-2.58,8.33a30.17,30.17,0,0,1-4,7.69c-.6.78-3.41.81-4.47.09a17.58,17.58,0,0,0-5-2.2c-2.7-.85-5.9-1.05-7.8-3.71a2,2,0,0,1-.34-1.1c0-2.52-.51-5.23.26-7.5.84-2.5.37-5.17,1.35-7.38.71-1.61.64-3.15,1-4.69.66-2.69,1.49-5.34,2.2-8,.17-.62,0-1.33.21-2,.24-.88.63-1.72,1-2.57a3,3,0,0,0,.33-.79,16.74,16.74,0,0,1,2.5-7.29c0-.1,0-.24,0-.35.49-2.09.88-4.2,1.51-6.24.57-1.85,1.42-3.61,2.14-5.41a2.42,2.42,0,0,0,.19-.51c.45-2.33.78-4.68,1.36-7a35.61,35.61,0,0,1,1.68-4.36,9.59,9.59,0,0,1,.83-1.81c.25-.37,1-.89,1.12-.79,1.61,1.08,3.16,2.25,4.69,3.44,2.26,1.76,4.59,3.45,6.68,5.39s3.69,4,5.59,6,3.88,3.8,5.81,5.71c1.06,1.06,2,2.25,3.17,3.2.92.76,2.13,1.17,3.09,1.89,2,1.52,3.93,3.16,5.92,4.72a12.17,12.17,0,0,0,1.89,1.17c1.23.62,2.52,1.15,3.74,1.8a11.08,11.08,0,0,1,1.81,1.33,18.72,18.72,0,0,0,7.37,3.73,14.3,14.3,0,0,1,3.05,1.77c.38,2-1.21,3.82-2,5.85-.07.19-.41.29-.46.47-.51,1.89-.86,3.83-1.51,5.67a37.24,37.24,0,0,1-2.1,4.25c-.08.15-.24.27-.28.43-.48,1.73-.86,3.5-1.43,5.19-1.13,3.37-2.41,6.7-3.55,10.06-.2.59.07,1.34-.11,1.95-.13.45-.71,1.16-1,1.11-2.41-.47-4.7.29-7,.62a2.58,2.58,0,0,0-.83.33,1.76,1.76,0,0,1-2.83-1.58c-.09-2.87.09-5.75-.07-8.62a38.18,38.18,0,0,0-.94-4.81,14,14,0,0,1-.3-2.49c-.08-4,0-7.92-.21-11.87a63.43,63.43,0,0,0-1.23-9c-.26-1.3-1.3-2.42-1.86-3.67C134.46,295.15,133.89,293.54,133.23,291.91Z"/><path class="cls-1" d="M233.69,56.69c-.73,1.42-1.49,2.94-2.27,4.45-.62,1.2-1.68,2.34-1.8,3.58-.24,2.42-.53,5.09.21,7.31,1.43,4.3.72,8.62,1,12.92a3,3,0,0,1-2.92,3.28,6.47,6.47,0,0,0-5.06,4.23c-1,2.28-1.22,4.82-3.14,6.87C218.47,100.62,218,103,218,105c0,2.65-1.88,3.65-3.31,5.17-1.25,1.33-2.84,1.13-4.39,1.29a8.69,8.69,0,0,0-1.93.67l-4.31-1.66c-1.61.95-2.13,2.91-2.82,4.78a8.09,8.09,0,0,1-.51,1c-.32-.19-.75-.32-.94-.61-.84-1.24-1.65-2.5-2.4-3.8-1.16-2-2.3-4-3.38-6-.66-1.25-1.1-2.62-1.83-3.82-1-1.68-2.2-3.24-3.29-4.85-.59-.87-1.18-1.73-1.71-2.63-.78-1.29-1.52-2.61-2.24-3.94-.56-1-1-2.09-1.61-3.11a10.79,10.79,0,0,0-1.19-1.8c-1.48-1.81-1.94-4-3-6.36.84,0,1.28-.14,1.48,0,2.27,1.74,4.31,1,6.85.23s2.36-2.23,2.35-4c0-3.42.26-6.89-.26-10.23a13.84,13.84,0,0,1,.21-5.6,3.33,3.33,0,0,1,5.15-1.52c1.51,1.44,3.05,2.86,4.56,4.3a1.56,1.56,0,0,1,.46.68,12.07,12.07,0,0,0,5.15,7.53c1.75,1.25,2.93-.08,3.78-.72a5.92,5.92,0,0,0,2.56-5.26,6.82,6.82,0,0,1,.14-3,16.92,16.92,0,0,1,2.88-5.31,6.67,6.67,0,0,1,4.26-1.51,83.15,83.15,0,0,1,10.23.12C230.33,55.16,231.7,56,233.69,56.69Z"/><path class="cls-1" d="M352,99.45c-.81.16-1.31.56-2.28-.65-2-2.52-4.69-4.51-7.07-6.74-.89-.83-1.67-1.8-2.61-2.57-1.14-.94-2.51-1.61-3.59-2.6-1.59-1.44-3-3.06-4.52-4.62a35.8,35.8,0,0,1-2.45-2.63c-1.23-1.57-2.32-3.24-3.58-4.78a3.08,3.08,0,0,0-1.61-.77,1.43,1.43,0,0,1-.94-2.26c1.24-1.47,1.76-3.51,3.6-4.53a27.33,27.33,0,0,1,3.14-1.87c1.82-.68,3.79-1,5.59-1.68a5,5,0,0,0,2.56-2.07c1.6-3.5,2.49-7.1.46-10.86-1.07-2,0-4.77,1.61-6.43.86-.87,1.56-1.56,2.76-1.24a2.78,2.78,0,0,1,1.56,1,56.59,56.59,0,0,0,2.85,5.13c.65.85,1.4,2,3,1.89,1.83-.17,3.69,0,5.74,0,.51-2.17,1.08-4.19,1.41-6.25.18-1.11.6-1.56,1.7-1.56,2.21,0,4.43-.06,6.64-.05s4.63.55,6.75-1.4c.6,3,1.05,5.69,1.68,8.3a27.78,27.78,0,0,0,1.57,4.4c.6,1.42,1.42,2.75,2,4.17s-.68,2.51-1.49,3.48c-1,1.13-2.21,2-3.26,3.06a1.6,1.6,0,0,0-.19,1.17c.23,1.77-.73,2.81-2,3.87-.92.78-1.9,1.64-1.83,3.22.12,3,.09,6-.07,9a3.75,3.75,0,0,1-2.78,3.4c-1.09.41-2.25,1.53-3.2.72-1.33-1.13-2.75-1-4.18-1-4.12-.19-6.21,1.85-6.55,6-.13,1.57-.79,3.08-.95,4.65A12.09,12.09,0,0,0,352,99.45Z"/><path class="cls-1" d="M30.33,572.25c-.72.45-1.43.92-2.16,1.35-.28.16-.77.38-.88.28a1.75,1.75,0,0,1-.49-1c-.26-2.28-.24-2.28-1.61-3.65-.81.75-1.5,1.79-2.45,2.16s-2.2.08-3.47.08c.18-1.77-.17-3.17-1.61-3.62-1.2.86-2.12,1.88-3.24,2.22s-2.56-1.3-2.83-2.91c-.44-2.65-.41-5.53-1.5-7.88s-.72-4.74-1.27-7a45.92,45.92,0,0,1-1.11-10.11A5.93,5.93,0,0,0,7,540.25a5.27,5.27,0,0,1-.36-.81c-.49-2.6-1-5.19-1.44-7.8-.54-3.13-.53-6.46-1.64-9.38-1.43-3.78-.58-7.5-.83-11.23-.07-1,2.37-3.18,3.58-3.47s2.39-.62,3.8-1a16.91,16.91,0,0,0,.27,3.74c.48,1.73,1.44,3.31,2,5a9.87,9.87,0,0,0,3,4c.68.65,1.25,1.54,2.06,1.89,1.09.46,1.88.95,2,2.2,0,.14.19.37.3.38,2.35.22,2.87,2.51,4.25,3.8a40.8,40.8,0,0,1,3.42,3.77,4.27,4.27,0,0,1,.84,1.69,16.1,16.1,0,0,1,0,2,27.12,27.12,0,0,0,2.28,8.44A12.4,12.4,0,0,0,32,546.83a48.19,48.19,0,0,1,3.6,5.32c1,1.77,1.92,3.64,2.78,5.51s1.49,3.69,2.32,5.49a20,20,0,0,1,1.61,11.15c-.05.38-.6,1-.88,1a13.35,13.35,0,0,1-2.79-.6c-.15,0-.14-.52-.31-.6-.89-.47-1.71-2-2.79-.06a8.16,8.16,0,0,1-2.3,2.14,1,1,0,0,1-1,0c-.66-1-1.22-2.08-1.82-3.13Z"/><path class="cls-1" d="M443.19,521.82c-1.1,2.71-4.06,3.8-5.05,6.51a1.48,1.48,0,0,1-.62.59c-1,.58-1.95,1.17-3,1.69a13.22,13.22,0,0,1-2.39,1c-1.48.45-3,.81-4.51,1.16a7.15,7.15,0,0,1-1.6.12c-2.28,0-4.56.06-6.83-.06a17.73,17.73,0,0,1-3-.75c-.75-.16-1.53-.24-2.29-.35-2.31-.32-4.7.18-7-1-.74-.4-2.18.24-3.19.67-1.93.81-3.73,1.94-5.67,2.7-2.32.89-5.62-1.64-6.07-4.1-.41-2.27-1.38-4.42-1.29-6.82,0-.82-.69-1.63-.89-2.49a17.79,17.79,0,0,1-.31-2.54c1.92-1,3.61-2,5.3-2.87a1.56,1.56,0,0,1,.67-.18,10.41,10.41,0,0,0,6-2.4.42.42,0,0,1,.17,0c2-.54,4-1,6-1.63a36.51,36.51,0,0,0,4.83-1.92c.74-.35,1.11-.78,1.59.35.25.61,1.09,1.06,1.75,1.41a71.5,71.5,0,0,1,6.44,3.89c1.58,1.06,3.85,1.1,5.8,1.63.87.24,1.72.57,2.58.86a2.25,2.25,0,0,0,.83.25c2.38-.2,4.65,1,7.11.28,1.64-.5,3.35.86,3.88,2.54A11.19,11.19,0,0,0,443.19,521.82Z"/><path class="cls-1" d="M278,569h-2.15c-.51,1.52-1,3-1.52,4.49-.08.23-.41.57-.53.53-.28-.07-.66-.31-.72-.56a11.2,11.2,0,0,1-.2-1.72c-2.47-.67-2.78-.46-3.71,1.61-.19.44-1.09.74-1.68.77-.95,0-1.83-.11-2.12-1.4-.48-2.11-1.52-2.72-3.69-2.42,0,2-1.19,2.75-3.11,2.57-1.33-.13-2.14-.59-2.2-2.19a5.88,5.88,0,0,0-1.26-2.42,16.28,16.28,0,0,1-2.77-6.21c-.08-.48-.81-.83-1-1.33-.92-2.22-1.73-4.48-2.63-6.71-.67-1.63-1.41-3.23-2.13-4.85a1,1,0,0,1-.06-.16c-.45-2.27-.9-4.54-1.44-7.29l2.35,1.07c.2.09.38.33.58.33,2.49.06,4.47,1.57,6.68,2.38a8.81,8.81,0,0,0,2.13.25c5,.53,10,.91,15,1.63,2.63.37,4.61,2,6.21,4.24s3.86,3.83,4.94,6.14c.92,2,3,3.18,3.16,5.65.06,1.12,1.19,2.17,1.82,3.26a2.32,2.32,0,0,1,.42.94c0,1.66,0,3.32,0,5-2,1.11-2.61-.95-3.78-1.65-.56-.33-.75-1.29-1.32-1.64a2.3,2.3,0,0,0-2-.25,4.13,4.13,0,0,0-1,2.09c-.1.33.15.76.24,1.16C278.46,572.61,278.35,572.46,278,569Z"/><path class="cls-1" d="M242.86,535.49h-12c-1.38,0-2.76,0-4.14,0-1.84-.09-3.66.29-5.49-.82-1-.63-2.71-.44-4.06-.29-2.66.31-4.29-1.3-5.61-3.07-2.76-3.67-3.08-8-2.27-12.33.29-1.56,1.09-2.77,3.14-2.56a50.18,50.18,0,0,0,5.2-.06c2.16,0,3.86-1.19,5.69-2.08,1.35-.66,2.77-1.17,4.15-1.78,1.53-.67,3-1.39,4.57-2a5.64,5.64,0,0,1,1.65-.46c1-.07,2.43.4,3-.11,2.81-2.57,4.07.32,5.3,1.62,2.05,2.17,4.21,3.66,7.26,3.64a2.45,2.45,0,0,1,.6.15,8.85,8.85,0,0,1-2,7.8c-.89,1-1.17,2.61-1.65,4-.56,1.53-1,3.11-1.56,4.63C244.18,532.83,243.58,534,242.86,535.49Z"/><path class="cls-1" d="M271.49,149.94c-.81,2.33-1.46,4.52-2.33,6.61-1.09,2.61-2.41,5.11-3.53,7.71-1,2.38-1.87,4.85-2.9,7.25-.89,2.08-1.91,4.11-3,6.39-1.44.08-3.11.13-4.76.27a10.45,10.45,0,0,0-2,.49c-.38.12-.73.48-1.1.49-5.15.26-10.16,1.85-15.4,1.31a10.72,10.72,0,0,1-5.74-2.31c-1.83-1.4-3.86-2.54-5.78-3.83-.91-.61-1.76-1.32-2.89-2.17-.34-.84-.84-2.09-1.35-3.33a2.89,2.89,0,0,1,1.92-3.64c2.28-.41,4.58-.72,6.87-1.06a.37.37,0,0,1,.18,0c2.78,1.12,5.51-.18,8.26-.2s5.63-.13,8.45-.14a9.1,9.1,0,0,0,5.32-2.05c.91-.64,2-1,2.95-1.59,1.45-.95,2.85-2,4.21-3a53.13,53.13,0,0,1,4.26-3.42c1.76-1.09,3.83-1.69,5.57-2.8C269.65,150.24,270.35,149.34,271.49,149.94Z"/><path class="cls-1" d="M187.83,306.2c.72,1.84,1.3,3.45,2,5,1.28,2.93,2.54,5.87,3.95,8.75a35.83,35.83,0,0,0,2.22,3.09,2.6,2.6,0,0,1-1.27,3.72,58.94,58.94,0,0,1-7.78,2.88c-3,.94-5.89.75-8.77.62s-5,1.39-7.59,1.58a13,13,0,0,1-2.39-.25c.16-1,.31-1.89.5-2.83.06-.29.28-.54.35-.82.45-1.68,1.29-3.37,1.23-5-.11-2.56,1.27-4.6,1.77-6.92.26-1.22,1.25-2.28,1.87-3.42.21-.4.26-.88.46-1.28.8-1.55,1.57-3.12,2.49-4.6.52-.81,1.16-.57,1.28.36.18,1.31,1.07,1.49,2.13,1.69A7.89,7.89,0,0,0,187.83,306.2Z"/><path class="cls-1" d="M201.26,300.93a4.67,4.67,0,0,1,1.58-4.62,2,2,0,0,1,1.95.31c1.51,2.1,2.76,4.39,4.26,6.5s3.23,4,4.7,6.08a31.65,31.65,0,0,1,1.73,3.67,13.6,13.6,0,0,0,1.21,1.56c.78,1.07,1.54,2.17,2.32,3.24s-.31,3.4-2.09,3.66a14.34,14.34,0,0,1-3.58.16,2.85,2.85,0,0,1-1.66-1.05c-1.05-1.31-2-2.69-2.94-4.09s-1.67-2.63-2.45-4c-.93-1.62-1.71-3.34-2.74-4.89C202.23,305.51,201,303.57,201.26,300.93Z"/><path class="cls-1" d="M318.08,74.78c-2.08,1.89-4,3.64-5.89,5.34-1.65,1.45-3.32,2.88-5,4.25S304,86.92,302.27,88A24,24,0,0,1,299,89.48c-1.68.77-1.86-1.17-2.89-1.56.59-.75,1.11-2,1.78-2.13,2.3-.29,3.21-2.17,4.52-3.51,2.41-2.44,4.44-5.27,6.92-7.62a7.22,7.22,0,0,1,5.29-2.07C316.24,72.64,316.63,74,318.08,74.78Z"/><path d="M192.27,366.5c3-.35,4.42,1.58,6.12,3,2.48,2.05,4.42,4.79,7.59,6,.34.12.44.83.79,1,1.7.95,3.45,1.81,5.18,2.7.29.15.56.32.85.49a9.19,9.19,0,0,1-.63.87c-1,1.11-2,1.45-3.08.15a.89.89,0,0,0-.64-.24c-1.95-.06-3.32-1.25-4.82-2.28-.95-.65-2.35-.68-3.22-1.39a97.39,97.39,0,0,1-7.77-7C192.08,369.21,192.38,367.77,192.27,366.5Z"/><path d="M172.22,363.84c-1.29-2.17.58-3.41,1-4.95.38-1.32,1.59-2.37,2.19-3.65,1.33-2.8,3.62-4.74,5.94-6.55a13.11,13.11,0,0,1,4.53-1.74c.38-.11,1.42.63,1.38.79-.18.68-.61,1.84-1,1.85-2.62.11-4.19,1.58-5.62,3.55a34.28,34.28,0,0,1-3,2.93,4.79,4.79,0,0,0-.82,1.36C175.78,359.85,174.73,362.3,172.22,363.84Z"/><path d="M73.62,456.94c.93-1.91,2.43-2.09,4-2.08A16.57,16.57,0,0,0,82,454.7c1.84-.47,3.52-1.51,5.35-2,2-.6,3.76-2.74,6.32-1.42.1,1.25-.16,2.1-1.81,2.28a11.85,11.85,0,0,0-3,1.29q-2.71,1.13-5.45,2.2a3,3,0,0,1-1,.27c-2.39,0-4.79.09-7.18.07A6.85,6.85,0,0,1,73.62,456.94Z"/><path d="M83.39,425.18c-.38-4.93.63-10.14-2.65-15l3.38-.29c.23.29.34.37.36.47.51,2.81,1.1,5.62,1.46,8.45a38,38,0,0,1,0,4.65C85.93,425.14,85.12,425.65,83.39,425.18Z"/><path d="M226.21,413.87a5.45,5.45,0,0,1-1.07-.08c-.69-.18-1.37-.43-2.06-.66a17.81,17.81,0,0,1,2-1.71,2.13,2.13,0,0,1,1.4-.14c1.95.31,3.14-.91,4.45-2a4,4,0,0,1,1.91-.62c.15,0,.61.65.54.89a3.42,3.42,0,0,1-.89,1.64,15.93,15.93,0,0,1-3.3,2.31,10.71,10.71,0,0,1-2.94.53Z"/><path d="M66.72,450.88c-3.12.11-6.21.49-9-2.23,1.49-.16,2.68-.36,3.88-.41s2.15.18,3.22.12C66.53,448.25,67.21,448.94,66.72,450.88Z"/><path d="M164.44,255.86a13.49,13.49,0,0,0,3.32,1.39,13.92,13.92,0,0,0,3.64-.58c.89.7,1.9,1.4,3.3-.26.76-.89,2.41-1,3.48-1.65a10.88,10.88,0,0,0,3.6-3.09c1.06-1.83,3.18-1.78,4.42-3.13.08-.09.85.21.85.33,0,.73.17,1.74-.23,2.14-2.1,2.05-4.29,4-6.57,5.88a8.56,8.56,0,0,1-3.25,1.58c-3.54.86-7.07,1.94-10.8,1.39C164.47,259.61,163.8,258.38,164.44,255.86Z"/><path d="M165,126.15c1.06.84,2,1.54,2.89,2.29a3.24,3.24,0,0,1,.56.78c.24.38.75.84.66,1.11a2.2,2.2,0,0,1-1.07,1.24c-.32.12-.94-.29-1.31-.6-.59-.48-1.1-1.52-1.63-1.52a3.77,3.77,0,0,0-2.27,1.19c-1.53,1.52-2.86,3.25-4.41,4.74-.37.36-1.31.15-2,.2.07-.84-.17-2,.28-2.48a46.77,46.77,0,0,1,4.07-3.88c.61-.55,1.2-1.14,1.86-1.63S164,126.77,165,126.15Z"/><path d="M155,163.37l-3.33,1.79c-.1-.92-.26-1.72-.27-2.51a67.6,67.6,0,0,1,.08-6.83,17.42,17.42,0,0,1,1.23-4.49c.12-.33,1-.49,1.55-.47.32,0,.93.61.88.83-.39,1.91.55,4-1.05,5.79-.71.78-.09,4.24.67,5.2A2.4,2.4,0,0,1,155,163.37Z"/><path d="M174.86,121.4c1.62.76,3.28,1.53,4.92,2.32,1,.5,2.27.81,2.95,1.61s2.41,1.28,2.16,2.91c0,.37-.27.93-.51,1a1.8,1.8,0,0,1-1.15-.39c-1.9-1.17-3.79-2.37-5.68-3.56l-1.28-.82-1.36.77-1.19-1.77Z"/><path d="M155.15,250.33c-3.35,2.72-6.78,1.84-10.24,2v-2.51a21.13,21.13,0,0,0,2.64,0c1.8-.24,3.83.65,5.38-1.15a2,2,0,0,1,2,0C155.3,249.05,155.12,250,155.15,250.33Z"/><path d="M295.07,390.31c-.29-1.3-.91-2.64.59-3.73a.86.86,0,0,0,.22-.47c.54-2,.73-4.16,1.68-5.92,1.15-2.12.92-4.33,1.39-6.47.41-1.86,1.38-2.34,3.4-2,.17,1.84.5,3.67-.62,5.45a8.63,8.63,0,0,0-.47,2.25c-.45,1.91-.63,4-1.51,5.66a39.43,39.43,0,0,1-4.07,5.5Z"/><path d="M390.47,425.56c4.23-6.5,5.17-13.45,5.77-20.63l2.42-.41c-.45,2.85.71,5.58-1,8.09a3,3,0,0,0-.22,1.22c-.19,1.46.32,3.07-1.16,4.27-.36.28-.17,1.25-.23,1.9-.14,1.69-2.59,5.09-3.94,5.44A13.9,13.9,0,0,1,390.47,425.56Z"/><path d="M381.87,377.29a3.76,3.76,0,0,1,4,.17,23.47,23.47,0,0,1,4.57,2.85,19.12,19.12,0,0,0,2.28,1.37,11.17,11.17,0,0,0,3.69,1.58c1.67.37.88,2.1.86,3.25-1.88,1.12-2.92-.53-4.18-1.16-1.86-.93-3.49-2.33-5.37-3.19a12.18,12.18,0,0,1-4.57-4A6.12,6.12,0,0,0,381.87,377.29Z"/><path d="M311.16,454.77a13.16,13.16,0,0,1-1.38,11.46c-1.41,2.25-3,5.56-7.15,5.09a8.32,8.32,0,0,1,.59-1.29c1.7-2.18,3.45-4.33,5.13-6.53a2.87,2.87,0,0,0,.54-1.42,17.15,17.15,0,0,0,.07-3.58C308.76,456.81,309.51,455.77,311.16,454.77Z"/><path d="M290.8,495.59c.65.59,1.09.81,1.15,1.1a2.65,2.65,0,0,1-.07,1.63c-.9,1.8-3,3.21-1.21,5.7.79,1.08-.17,3.78-1.26,4.37a.85.85,0,0,1-.79-.09c-1.75-1.58-2-5.71-.57-7.91.27-.41.12-1.1.39-1.52C289.12,497.79,289.92,496.8,290.8,495.59Z"/><path d="M376.52,441.91l-2.17.1c-.43-3.08,1.38-5.25,2.73-7.52.24-.4,1.4-.25,2.13-.35l.46.4c-.37.74-.74,1.49-1.12,2.22-.08.15-.31.22-.36.36C377.65,438.62,377.13,440.13,376.52,441.91Z"/><path d="M389.16,443.53c.73,1.12,1.16,2-.42,2.89-1.15.65-1.95,1.89-3,2.68a3.36,3.36,0,0,1-2.14.52c-.53-.07-1-.73-1.46-1.13a12.48,12.48,0,0,1,1.36-1.27c1.18-.83,2.39-1.61,3.6-2.4C387.7,444.41,388.36,444,389.16,443.53Z"/><path d="M314.93,236.25a35.76,35.76,0,0,1-4.11-2,22,22,0,0,1-3.11-2.78c-2.1-2.07-4.2-4.15-6.23-6.29-.88-.93-1.58-2-2.46-3.15.18-.26.5-.66.76-1.1.55-1,.92-.77,1.64,0,2.33,2.42,4.72,4.79,7.22,7,1.68,1.51,3.61,2.72,5.38,4.13C315.48,233.17,315.55,234.66,314.93,236.25Z"/><path d="M364.56,186l1.66-1.8c1.85,7.41,4.42,14.4,1.46,21.8l-.64.18c-.53-1.53-1.42-3-1.52-4.58-.27-3.82-.12-7.65-.26-11.48A29.6,29.6,0,0,0,364.56,186Z"/><path d="M367.86,226.48a14,14,0,0,1,0,2.51c-.2,1-.69,2-.92,3.06a15.09,15.09,0,0,0-.34,2.84c-.05,1.47,0,3-1.3,4-.21.17-.47.44-.66.4a.8.8,0,0,1-.5-.58c-.28-2.51-.87-5,.79-7.35a3.37,3.37,0,0,0,.37-1.73c.08-1.73,0-3.49.21-5.2a10.12,10.12,0,0,1,1.25-2.73c.4.21,1.13.4,1.15.64.11,1.37.06,2.75.06,4.12Z"/><path d="M360.42,149.49c1.48,1.07,2.24,1.82,2.2,3.38-.08,3.22.15,6.45.19,9.68a12.21,12.21,0,0,1-.42,2.22c-1.66-1.61-2.49-3-2.26-5.14a68.45,68.45,0,0,0,0-7.16C360.1,151.61,360.27,150.75,360.42,149.49Z"/><path d="M325.88,126.66a28.7,28.7,0,0,0-1.15,3,13.71,13.71,0,0,0-.41,3c-.06,2.92,0,2.92-2.07,5.54-1.65-3.89.43-7.38.76-11.3Z"/><path d="M307.08,185.08c1.45-2.24,1.75-5.13,4.82-6,.26-.07.44-.37.69-.49.44-.19.91-.33,1.36-.49,0,.76.21,2-.16,2.22-2.17,1.35-3.23,3.62-4.85,5.4-.3.34-.6.67-.91,1Z"/><path d="M324,193.26c.9,2.13-.78,2.74-1.72,3.53a33.7,33.7,0,0,1-4.51,2.91,1.57,1.57,0,0,1-1-.16c0-.74-.18-1.77.22-2.15a42.56,42.56,0,0,1,5-4C322.45,193.07,323.32,193.29,324,193.26Z"/><path d="M318.8,113.32c-1.19-1.45-2.26-2.78-3.37-4.06a1.28,1.28,0,0,0-.86-.45c-1.73,0-1.85-1.08-1.74-2.52,2.72-.58,4.4,1.43,5.95,2.86C319.76,110.06,319.67,112.13,318.8,113.32Z"/><path d="M304.61,105.82c-1.61-.69-3.22-1.35-4.79-2.08a2.47,2.47,0,0,1-1.29-1.06c-.14-.42.21-1.44.46-1.48a5,5,0,0,1,2.19.26c.54.17,1,.74,1.51.83C304.82,102.63,305.55,104.11,304.61,105.82Z"/><path d="M245.91,126.33c.54-1.4.72-3.19,1.71-4.1,1.6-1.47,1.25-3.18,1.16-4.73s.86-2.22,1.38-3.28c.08-.16.67-.3.75-.21.54.64,1.35,1.31,1.42,2,.1,1.12.67,2.53-.74,3.41-.15.09-.18.44-.19.67-.09,2.43-1.65,4.22-2.84,6.12-.3.47-1.44.41-2.19.59Z"/><path d="M254.48,124.31c.63.68,1.7,1.3,1.78,2a27.48,27.48,0,0,1,0,6.41c-.07.63-1.3,1.12-2.34,1.93,0-2.22.1-3.89,0-5.54a17.73,17.73,0,0,0-.84-2.52,1.76,1.76,0,0,1,.22-1.29A5.37,5.37,0,0,1,254.48,124.31Z"/></g></g></svg>