<svg xmlns="http://www.w3.org/2000/svg" viewBox="0 0 397.68 558.15"><defs><style>.cls-1{fill:#fff;}</style></defs><g id="Layer_2" data-name="Layer 2"><g id="Layer_1-2" data-name="Layer 1"><path class="cls-1" d="M151.35,533.06a18.79,18.79,0,0,1,.44-4.38,32,32,0,0,0,2-8.75c.4-6-.57-12,1.14-18,.65-2.23.32-4.59,1.16-6.93,1-2.87,1.1-6.1,1.44-9.19.54-5,1-10,1.42-15a4.25,4.25,0,0,1,.18-.86c.73-2.47,1.62-4.9,2.18-7.4.66-3,1-6.1,1.55-9.16,0,0,0-.11,0-.17q1.13-3.81,2.23-7.62a5,5,0,0,1,.11-.53l3.51-8.06a58.08,58.08,0,0,1,3-6.62c1.8-3,3.89-5.87,5.95-8.72a9.53,9.53,0,0,1,2.13-1.65c.46.77,1.36,1.56,1.3,2.28-.32,4.06,1,8,.39,12.11-.48,3.36-.2,6.83-.37,10.24-.25,5.34-.67,10.68-.89,16-.15,3.47,0,7-.12,10.43-.08,3.05-.29,6.1-.44,9.15-.2,3.91-.93,7.9-.42,11.71.35,2.6.61,5.18.7,7.79.05,1.2.06,2.4.13,3.59a5.47,5.47,0,0,0,.28,1.18,21.08,21.08,0,0,1,1.13,4.29c.12,2.26-.26,4.54-.27,6.81,0,3.8,1.43,5.16,5.26,5.19a43.15,43.15,0,0,1,6.64.15c3,.5,6,1.47,9,2.17,2.21.51,4.44.91,6.66,1.38a5.27,5.27,0,0,1,.84.3c1.79.69,3.55,1.49,5.39,2,2.18.66,4.43,1.07,6.64,1.62,2.92.74,5.81,1.59,8.74,2.26,1.33.3,2.78.11,4.07.48,3.38,1,6.69,1.54,9.85-.53,2-1.3,2.33-5.78.75-7.67-1.3-1.55-2.54-3.13-4.52-3.84a13.94,13.94,0,0,1-3-1.07,16.58,16.58,0,0,0-6.7-2.5,3.56,3.56,0,0,1-.66-.25l-5.7-2.18c-.22-.08-.49,0-.7-.13-1.57-.76-3.17-1.48-4.69-2.34a5.69,5.69,0,0,1-1.68-1.6c-.09-.12.62-.76.91-1.2,1.43-2.23,3-4.35,2.82-7.26-.13-2.21-.49-4.65.26-6.6,1.07-2.73.71-5.39.86-8.09.09-1.84-.07-3.64,1-5.38a13.18,13.18,0,0,0,1.4-4.26c.51-2.73.88-5.49,1.23-8.25.48-3.64,0-7.32,1.21-10.94a36.42,36.42,0,0,0,1.21-8.43c.37-5.07,1.92-10,1.51-15.18-.14-1.85,0-3.72,0-5.58a9.56,9.56,0,0,1,.24-1.75c.22-1,.61-2,.73-3,.14-1.31,0-2.63.12-3.95a54.6,54.6,0,0,1,1.17-7.8c.94-4.6-.31-9.43,1.08-14.15.72-2.45.36-5.24.39-7.87s-.06-5.4-.08-8.09c0-.72.14-1.53,1.08-1,2,1.05,3.91,2.36,5.95,3.38,2.78,1.4,5.63,2.66,8.48,3.89a78.71,78.71,0,0,1,7.88,3.49c2.91,1.64,6.06,2.88,8.37,5.42a36.62,36.62,0,0,1,4.19,5.07,48.25,48.25,0,0,1,2.85,6.34c.49,1.15.86,2.35,1.41,3.46,1.54,3.1,3.15,6.18,4.74,9.26.53,1,1.15,2,1.64,3.09,1,2.06,3,3.48,3.39,5.89a12.33,12.33,0,0,0,1.48,3.48c1.85,3.4,3.76,6.77,5.66,10.14.42.73,1,1.38,1.38,2.13.89,1.76,1.68,3.56,2.56,5.33a25,25,0,0,0,1.29,2.15c.68,1.08,1.44,2.11,2.09,3.22s1.1,2.12,1.64,3.19,1,2,1.51,3c1.07,1.93,2.24,3.8,3.24,5.75s1.79,4.29,3,6.24a74.21,74.21,0,0,0,4.59,6.1,14.93,14.93,0,0,1,1.15,1.25c1,1.71,1.92,3.53,3,5.18,1.85,2.74,3.94,5.32,5.74,8.09,2.2,3.4,4.17,7,6.31,10.4,1,1.64,2.25,3.15,3.34,4.75.93,1.36,1.83,2.75,2.68,4.16,1.15,1.93,2.16,3.94,3.37,5.83.87,1.38,2.06,2.54,2.89,3.93,1.05,1.74,1.82,3.65,2.81,5.43,1.1,2,2.33,3.89,3.46,5.86.43.74.71,1.56,1.09,2.33s3.15.74,3.86,0c1-1,2-2.11,3.08-3.06,1.82-1.59,3.7-3.12,5.59-4.61a1.81,1.81,0,0,1,1.35-.39,2,2,0,0,1,1.08,1,24.5,24.5,0,0,0,1.88,3.6,16.33,16.33,0,0,0,9.81,5.45,11,11,0,0,1,1.25.52,33.44,33.44,0,0,0,6.06,1.83,30.61,30.61,0,0,0,7.71-.07c1.65-.23,3.19-1.31,4.78-2,2.08-.89,2.75-3,3.17-4.75a16.93,16.93,0,0,0-.16-6.53,62.86,62.86,0,0,0-1.94-6.6c-.56-1.89-1-3.82-1.59-5.69s-1.45-3.91-2.19-5.86a2.74,2.74,0,0,0-.35-.78,3.06,3.06,0,0,1,0-4.44l-.77-2a34.85,34.85,0,0,0-1.68-4.3c-1.82-3.32-4.24-6.38-5.55-9.88-1.1-2.94-3.47-5-4.4-8.05-1-3.25-3.45-6.06-4.4-9.31-.9-3.05-3.2-5.13-4.25-8a47.71,47.71,0,0,0-3.52-6.61c-.64-1.16-1.4-2.25-2.07-3.39-1-1.65-1.86-3.33-2.86-5s-2.26-3.45-3.38-5.17a25.86,25.86,0,0,1-1.46-2.33A30.75,30.75,0,0,0,355,437.4c-2.24-3.13-4.69-6.11-7-9.22-1.57-2.15-3.05-4.37-4.47-6.62s-3-4.77-4.27-7.26c-1.07-2-1.72-4.29-2.83-6.29-1.42-2.55-3.1-5-4.71-7.4-.3-.48-.84-.8-1.11-1.29-1-1.72-1.81-3.57-2.92-5.22-1.36-2-3.13-3.79-4.39-5.86-2-3.22-3.62-6.61-5.45-9.91-.58-1.05-1.37-2-1.88-3.06a31.14,31.14,0,0,1-1.6-4.29c-.61-2.05-1.06-4.15-1.64-6.21-.64-2.29-1.48-4.53-2-6.85-.64-2.94-1-5.95-1.54-8.9-.18-.93-.85-1.76-1-2.69-.56-2.66-1-5.36-1.49-8a36.18,36.18,0,0,0-1-3.66c-.1-.31-.4-.55-.55-.85-.66-1.27-1.74-2.51-1.86-3.83-.42-4.64.59-9.36-1.15-13.93a50.2,50.2,0,0,1-1.57-6.37c0-.11-.11-.21-.15-.32-.74-2-1.48-3.95-2.23-5.92-.26-.68-.57-1.35-.82-2-.56-1.53-1-3.1-1.65-4.6-1-2.24-.48-5.22-3.34-6.53-.23-.11-.23-.75-.33-1.14a3.87,3.87,0,0,0-.31-1.17c-1.19-1.82-2.36-3.66-3.65-5.4-1.8-2.43-3.78-4.72-5.55-7.17-1.17-1.63-2.09-3.43-3.12-5.16a27.92,27.92,0,0,1-1.81-3.06,23.23,23.23,0,0,1-1.68-4.78c-.68-3.51-1.11-7.06-1.66-10.59a4.55,4.55,0,0,0-.25-.67c-.62-1.91-1.24-3.81-1.85-5.72a35.33,35.33,0,0,0-1.67-5.16c-1.31-2.64-2.89-5.15-4.42-7.67a87.7,87.7,0,0,0-5.46-8.66c-2.42-3.11-5.29-5.88-8-8.79-1.85-2-3.75-4-5.56-6a87.71,87.71,0,0,1-5.89-6.91c-1.28-1.77-2.74-3.6-2.74-6a2.7,2.7,0,0,0-.21-1c-1-2.25-2.85-4-3.7-6.38-.74-2.13-2.36-3.93-3.49-5.93-.63-1.11-.83-2.52-1.62-3.46a18.41,18.41,0,0,1-3.61-7.1,12.71,12.71,0,0,0-1.44-3.19c-1.48-2.38-3.08-4.7-4.63-7.05a36.5,36.5,0,0,0-2-3.14c-1.66-2-3.45-4-5.16-6-1.9-2.23-3.54-4.75-5.71-6.68-2.53-2.25-4.66-5-7.86-6.55-3-1.5-5.72-3.67-8.57-5.53a2.15,2.15,0,0,0-.68-.2l-7.07-1.74c-.5-1.6-1-3.34-1.59-5.08a2.84,2.84,0,0,0-.34-.58c-1.15-1.78-2.63-3.45-2-5.82a36.56,36.56,0,0,0,1.1-3.86,96.73,96.73,0,0,0,1.22-10.56c.08-2.24-.61-4.5-.95-6.76-.49-3.27-.93-6.54-1.49-9.8-.25-1.53-.72-3-1.11-4.52a4.16,4.16,0,0,0-.4-1c-.64-1.11-1.66-2.15-1.89-3.34-.6-3.18-2.83-5.39-4.61-7.74-2.27-3-5-5.65-8.88-6.76-2.44-.7-4.82-1.76-7.31-2.14-2.71-.41-5.51-.14-8.26-.31a30.6,30.6,0,0,0-10.45,1.63,8,8,0,0,0-2.92,1.73,29,29,0,0,0-6.38,7.81c-.26.48-.74.84-1,1.33-.83,1.71-1.61,3.44-2.36,5.19a23.83,23.83,0,0,0-1.49,4c-.57,2.55-.91,5.14-1.35,7.71,0,.12-.06.23-.09.35a36.61,36.61,0,0,0-1,3.78c-.21,1.24,0,2.55-.26,3.76s-.49,2.81-2,2.58a7.85,7.85,0,0,1-3.94-2,18.79,18.79,0,0,1-3.31-4.47,34.85,34.85,0,0,1-1.9-4.73c-.23-.59-.41-1.2-.66-1.91a9,9,0,0,1,5.82-3,2,2,0,0,0,.86-.22A39.59,39.59,0,0,0,118.48,84c1.59-1.53,3.6-3,3.09-5.74a13.32,13.32,0,0,1-.08-3.22c.14-2.2,0-4.54.69-6.54a5.16,5.16,0,0,0,.07-4c-.24-.59-.6-1.51-.35-1.83a20.39,20.39,0,0,1,4.36-4.52,2.86,2.86,0,0,0,1.61-2.2c.44-3.53-1.35-6.37-3.26-9a13.7,13.7,0,0,1-2.92-7.16c-.34-4.48-.15-9-.2-13.49a4,4,0,0,0-.16-1.6c-1.12-2.6-2.22-5.22-3.52-7.74a21.21,21.21,0,0,0-3-4.44c-1.19-1.31-2.83-2.2-4.08-3.46a17.48,17.48,0,0,0-7.34-4.88c-2.24-.67-4.42-1.57-6.62-2.39a10.09,10.09,0,0,0-1.08-.47C93.45.89,91.26.44,89.06,0c-.13,0-.3.18-.47.23A12.83,12.83,0,0,1,86.9.69c-2,.31-4,.63-5.85.87-3.23.39-5.72,2.23-8.64,3.09a8.38,8.38,0,0,0-2.89,1.72c-1.07.9-1.85,2.18-3,3-3.1,2.2-4.45,5.53-5.92,8.77a45.48,45.48,0,0,0-1.56,4.66c-.74,2.3-1.82,4.55-2.16,6.91-1,7.08,1.2,14,1.39,21a1.42,1.42,0,0,0,.13.52c.74,1.82,1.39,3.68,2.26,5.45a19.88,19.88,0,0,0,3,5.07c2,2.08,3,4.65,4.39,7a4.72,4.72,0,0,1,.81,1.53c.19,1.25.75,3,.16,3.72-2.4,3-3.49,6.62-4.44,10.14a35.14,35.14,0,0,1-2.5,6.63c-1.73,3.46-5,5.36-7.22,8.2-1.47,1.86-3.71,3.09-4.38,5.64a6.06,6.06,0,0,1-1.82,2.83c-2.29,2-2.85,5-4.15,7.5-.62,1.23-.93,2.8-1.89,3.65-2.78,2.47-3.2,6-4.32,9.14-.89,2.5-1,5.28-1.44,7.93a4.37,4.37,0,0,1-.12.52c-.76,2.92-2.09,5.82-2.17,8.76-.29,10.12-.21,20.26-.11,30.4,0,3.09-.27,6.19.85,9.31,1,2.9.62,6.14,1.37,9.25.9,3.79.26,7.87,1.39,11.79.88,3.08,1,6.38,1.48,9.57,0,.12,0,.24,0,.36.77,3,1.52,5.93,2.31,8.88.53,1.95,1.07,3.89,1.68,5.81s1.29,3.8,2,5.68a15.91,15.91,0,0,1,1,2.45,3,3,0,0,1-.31,2.21A17.42,17.42,0,0,0,42,251a12.9,12.9,0,0,0,.83,5.83,10.39,10.39,0,0,0,2.9,4.52c.63.52,1.63.55,2.35,1,1.66,1.06,3.28,2.16,5.37,2.13h2.1c0,.76.11,1.23.1,1.71-.11,3.71,0,7.39-1,11.1-.8,2.75-.07,5.91-.72,8.73-.61,2.64-1,5.06.07,7.6a2.76,2.76,0,0,1-.05,1.42,28.45,28.45,0,0,0-.68,3.62c-.16,4.37-.44,8.76-.22,13.12.39,7.58-.92,15.22,1.07,22.75.94,3.51.53,7.21,1.2,10.87a27.83,27.83,0,0,1-.6,14.14c-1,3-1,6.41-1.56,9.62-.47,2.86-1,5.7-1.52,8.55a2.59,2.59,0,0,1-.18.51q-1,2.46-2,4.94a25.68,25.68,0,0,0-1.22,3c-.55,2.14-1,4.32-1.41,6.49a3.46,3.46,0,0,1-.22.69c-.71,1.56-1.45,3.12-2.14,4.69a17.67,17.67,0,0,0-1.23,3.08c-.56,2.33-1,4.7-1.42,7.05a3.27,3.27,0,0,1-.28.64c-.67,1.46-1.41,2.9-2,4.4-1,2.58-1.81,5.22-2.78,7.81-.74,2-1.58,3.92-2.38,5.88-.54,1.34-1,2.7-1.63,4-1.06,2.31-2.23,4.57-3.25,6.9-.58,1.34-.8,2.86-1.44,4.17-1,2.05-2.28,4-3.39,6a17.7,17.7,0,0,0-1.36,2.93c-.6,1.8-1,3.68-1.64,5.45a31.06,31.06,0,0,1-1.85,3.45c-.93,1.77-1.89,3.54-2.74,5.35-.59,1.25-1,2.58-1.53,3.85-.43,1-.88,2.05-1.39,3-.64,1.26-1.46,2.43-2,3.73-.66,1.56-1.09,3.21-1.66,4.81a17.59,17.59,0,0,1-1.18,2.83c-1,1.86-2.34,3.58-3.3,5.48C5,491,4.36,493.4,3.22,495.49a17.7,17.7,0,0,0-2.4,9.73c0,.59-.52,1.2-.56,1.82-.11,1.61-.51,3.37,0,4.8.69,2,2.14,3.79,1.75,6.17a8.37,8.37,0,0,0,0,2.69c.43,2.66.93,5.32,1.44,8,.41,2.13.87,4.26,1.32,6.38a3.27,3.27,0,0,0,.14.33A66.68,66.68,0,0,1,7.06,543c.42,2.54,2.31,4.25,4.85,3.92,1-.14,2.45-.27,3.07.28,1.48,1.32,3.06.79,4.64.91a16.13,16.13,0,0,1,2.92.77c1.36.37,2.75.94,3.52-.19,1.63.25,3,.39,4.34.68,1,.22,2,.72,3,.91,1.72.33,3,2.36,5.3.46,2.52-2,4.43-6.73,3.05-9.86-1.23-2.8-2.3-5.66-3.46-8.48-.27-.64-.85-1.21-.93-1.85a9.33,9.33,0,0,1,0-3.72c.43-1.44,1.47-2.67,2.06-4.08s.94-3.09,1.5-4.6a19,19,0,0,1,1.59-3.38c1.45-2.26,3-4.45,4.55-6.67,1.1-1.59,2.24-3.16,3.33-4.76.93-1.36,2.37-2.65,2.6-4.13.39-2.43,2.58-3.5,3.34-5.62.56-1.6,1.92-2.92,2.92-4.37,1.59-2.31,3.16-4.64,4.78-6.94.85-1.2,1.83-2.32,2.66-3.54s1.63-2.66,2.47-4,1.94-2.84,2.87-4.28c.8-1.25,1.53-2.54,2.33-3.79.3-.46.81-.79,1.05-1.27a50.62,50.62,0,0,1,3-6.2,50.1,50.1,0,0,0,4.82-7.95c1-2.28,2.42-4.38,3.55-6.6,1.37-2.7,2.48-5.53,4-8.14,1.64-2.84,3.89-5.31,4.92-8.51a17.4,17.4,0,0,1,1.26-2.74c.68-1.29,1.83-2.48,2.07-3.83.46-2.67,2.5-4.39,3.47-6.71.45-1.06,1.12-2,1.65-3.06,1-2,1.92-4.16,3.09-6.12,1.78-3,3.74-5.84,5.65-8.74a3,3,0,0,1,.72-.58c.19.26.53.51.56.8a23,23,0,0,1,.23,4.3c-.63,6.38,0,12.77-1.23,19.2s-.39,13.25-1.18,19.92c-.84,7.16-.36,14.48-.47,21.74-.06,4.1,0,8.21-.23,12.3-.2,3.75-.61,7.49-1.05,11.21-.18,1.55-.84,3.05-1,4.6-.29,3.53,0,7-1,10.61s-.09,7.74-1.43,11.52a11,11,0,0,0-.15,3.93c.06,1.77-.42,3.66,1.07,5.16a3.61,3.61,0,0,1,1,1.59,3.67,3.67,0,0,1-.09,2.47,8.21,8.21,0,0,1-2.6,2.08c-1.78,1.07-3.5,2.15-5.83,1.77-3.77-.61-7.58-.95-11.38-1.41a3.21,3.21,0,0,1-.52-.11c-1.29-.3-2.58-.63-3.88-.9a3.12,3.12,0,0,0-3.71,2,10.14,10.14,0,0,0,.45,5.52c.67,1.87,2.12,3.45,3.15,5.21.57,1,.72,2.31,1.48,3.07,2.41,2.41,4.74,5,8.44,5.52,1.6.23,3.12.92,4.7,1.28s3,.93,4.45.69a18.52,18.52,0,0,1,6.43.09c4.55.77,9.33-.49,13.79,1.43,1.45.62,2.95,1.11,4.37,1.76a32.62,32.62,0,0,0,3.34,1.78,72,72,0,0,0,8.8,2.49c4.57.86,7.16.13,9.5-4.16.79-1.45.61-3.78.12-5.5-.63-2.24-1.82-4.31-2.16-6.71a9.93,9.93,0,0,0-1.56-4.51c-1-1.32-.78-2.48-.71-3.89Z"/><path d="M151.35,533.06h-6c-.07,1.41-.3,2.57.71,3.89a9.93,9.93,0,0,1,1.56,4.51c.34,2.4,1.53,4.47,2.16,6.71.49,1.72.67,4.05-.12,5.5-2.34,4.29-4.93,5-9.5,4.16a72,72,0,0,1-8.8-2.49,32.62,32.62,0,0,1-3.34-1.78c-1.42-.65-2.92-1.14-4.37-1.76-4.46-1.92-9.24-.66-13.79-1.43a18.52,18.52,0,0,0-6.43-.09c-1.41.24-3-.34-4.45-.69s-3.1-1.05-4.7-1.28c-3.7-.54-6-3.11-8.44-5.52-.76-.76-.91-2.09-1.48-3.07-1-1.76-2.48-3.34-3.15-5.21a10.14,10.14,0,0,1-.45-5.52,3.12,3.12,0,0,1,3.71-2c1.3.27,2.59.6,3.88.9a3.21,3.21,0,0,0,.52.11c3.8.46,7.61.8,11.38,1.41,2.33.38,4-.7,5.83-1.77a8.21,8.21,0,0,0,2.6-2.08,3.67,3.67,0,0,0,.09-2.47,3.61,3.61,0,0,0-1-1.59c-1.49-1.5-1-3.39-1.07-5.16a11,11,0,0,1,.15-3.93c1.34-3.78.42-7.85,1.43-11.52s.71-7.08,1-10.61c.13-1.55.79-3.05,1-4.6.44-3.72.85-7.46,1.05-11.21.21-4.09.17-8.2.23-12.3.11-7.26-.37-14.58.47-21.74.79-6.67,0-13.43,1.18-19.92s.6-12.82,1.23-19.2a23,23,0,0,0-.23-4.3c0-.29-.37-.54-.56-.8a3,3,0,0,0-.72.58c-1.91,2.9-3.87,5.77-5.65,8.74-1.17,2-2,4.08-3.09,6.12-.53,1-1.2,2-1.65,3.06-1,2.32-3,4-3.47,6.71-.24,1.35-1.39,2.54-2.07,3.83A17.4,17.4,0,0,0,95.67,428c-1,3.2-3.28,5.67-4.92,8.51-1.51,2.61-2.62,5.44-4,8.14-1.13,2.22-2.56,4.32-3.55,6.6a50.1,50.1,0,0,1-4.82,7.95,50.62,50.62,0,0,0-3,6.2c-.24.48-.75.81-1.05,1.27-.8,1.25-1.53,2.54-2.33,3.79-.93,1.44-1.93,2.84-2.87,4.28s-1.59,2.69-2.47,4-1.81,2.34-2.66,3.54c-1.62,2.3-3.19,4.63-4.78,6.94-1,1.45-2.36,2.77-2.92,4.37-.76,2.12-3,3.19-3.34,5.62-.23,1.48-1.67,2.77-2.6,4.13-1.09,1.6-2.23,3.17-3.33,4.76-1.53,2.22-3.1,4.41-4.55,6.67a19,19,0,0,0-1.59,3.38c-.56,1.51-.89,3.12-1.5,4.6s-1.63,2.64-2.06,4.08a9.33,9.33,0,0,0,0,3.72c.08.64.66,1.21.93,1.85,1.16,2.82,2.23,5.68,3.46,8.48,1.38,3.13-.53,7.82-3.05,9.86-2.34,1.9-3.58-.13-5.3-.46-1-.19-2-.69-3-.91-1.34-.29-2.71-.43-4.34-.68-.77,1.13-2.16.56-3.52.19a16.13,16.13,0,0,0-2.92-.77c-1.58-.12-3.16.41-4.64-.91-.62-.55-2.05-.42-3.07-.28-2.54.33-4.43-1.38-4.85-3.92a66.68,66.68,0,0,0-2.17-7.59,3.27,3.27,0,0,1-.14-.33c-.45-2.12-.91-4.25-1.32-6.38-.51-2.65-1-5.31-1.44-8A8.37,8.37,0,0,1,2,518c.39-2.38-1.06-4.13-1.75-6.17-.49-1.43-.09-3.19,0-4.8,0-.62.6-1.23.56-1.82a17.7,17.7,0,0,1,2.4-9.73C4.36,493.4,5,491,6.06,488.91c1-1.9,2.25-3.62,3.3-5.48a17.59,17.59,0,0,0,1.18-2.83c.57-1.6,1-3.25,1.66-4.81.55-1.3,1.37-2.47,2-3.73.51-1,1-2,1.39-3,.53-1.27.94-2.6,1.53-3.85.85-1.81,1.81-3.58,2.74-5.35a31.06,31.06,0,0,0,1.85-3.45c.66-1.77,1-3.65,1.64-5.45A17.7,17.7,0,0,1,24.72,448c1.11-2,2.37-3.95,3.39-6,.64-1.31.86-2.83,1.44-4.17,1-2.33,2.19-4.59,3.25-6.9.59-1.31,1.09-2.67,1.63-4,.8-2,1.64-3.9,2.38-5.88,1-2.59,1.8-5.23,2.78-7.81.57-1.5,1.31-2.94,2-4.4a3.27,3.27,0,0,0,.28-.64c.47-2.35.86-4.72,1.42-7.05a17.67,17.67,0,0,1,1.23-3.08c.69-1.57,1.43-3.13,2.14-4.69a3.46,3.46,0,0,0,.22-.69c.46-2.17.86-4.35,1.41-6.49a25.68,25.68,0,0,1,1.22-3q1-2.47,2-4.94a2.59,2.59,0,0,0,.18-.51c.51-2.85,1-5.69,1.52-8.55.52-3.21.52-6.59,1.56-9.62a27.83,27.83,0,0,0,.6-14.14c-.67-3.66-.26-7.36-1.2-10.87-2-7.53-.68-15.17-1.07-22.75-.22-4.36.06-8.75.22-13.12a28.45,28.45,0,0,1,.68-3.62,2.76,2.76,0,0,0,.05-1.42c-1.07-2.54-.68-5-.07-7.6.65-2.82-.08-6,.72-8.73,1.07-3.71.94-7.39,1-11.1,0-.48,0-1-.1-1.71h-2.1c-2.09,0-3.71-1.07-5.37-2.13-.72-.45-1.72-.48-2.35-1a10.39,10.39,0,0,1-2.9-4.52A12.9,12.9,0,0,1,42,251a17.42,17.42,0,0,1,4.22-10.32,3,3,0,0,0,.31-2.21,15.91,15.91,0,0,0-1-2.45c-.69-1.88-1.37-3.77-2-5.68s-1.15-3.86-1.68-5.81c-.79-2.95-1.54-5.92-2.31-8.88,0-.12,0-.24,0-.36-.47-3.19-.6-6.49-1.48-9.57-1.13-3.92-.49-8-1.39-11.79-.75-3.11-.34-6.35-1.37-9.25-1.12-3.12-.82-6.22-.85-9.31-.1-10.14-.18-20.28.11-30.4.08-2.94,1.41-5.84,2.17-8.76a4.37,4.37,0,0,0,.12-.52c.45-2.65.55-5.43,1.44-7.93,1.12-3.15,1.54-6.67,4.32-9.14,1-.85,1.27-2.42,1.89-3.65,1.3-2.54,1.86-5.46,4.15-7.5a6.06,6.06,0,0,0,1.82-2.83c.67-2.55,2.91-3.78,4.38-5.64,2.25-2.84,5.49-4.74,7.22-8.2a35.14,35.14,0,0,0,2.5-6.63c1-3.52,2-7.12,4.44-10.14.59-.74,0-2.47-.16-3.72a4.72,4.72,0,0,0-.81-1.53c-1.41-2.38-2.42-5-4.39-7a19.88,19.88,0,0,1-3-5.07c-.87-1.77-1.52-3.63-2.26-5.45a1.42,1.42,0,0,1-.13-.52c-.19-7-2.39-14-1.39-21,.34-2.36,1.42-4.61,2.16-6.91a45.48,45.48,0,0,1,1.56-4.66c1.47-3.24,2.82-6.57,5.92-8.77,1.13-.81,1.91-2.09,3-3a8.38,8.38,0,0,1,2.89-1.72c2.92-.86,5.41-2.7,8.64-3.09C82.94,1.32,85,1,86.9.69A12.83,12.83,0,0,0,88.59.23c.17-.05.34-.25.47-.23,2.2.44,4.39.89,6.58,1.37a10.09,10.09,0,0,1,1.08.47c2.2.82,4.38,1.72,6.62,2.39a17.48,17.48,0,0,1,7.34,4.88c1.25,1.26,2.89,2.15,4.08,3.46a21.21,21.21,0,0,1,3,4.44c1.3,2.52,2.4,5.14,3.52,7.74a4,4,0,0,1,.16,1.6c.05,4.5-.14,9,.2,13.49A13.7,13.7,0,0,0,124.61,47c1.91,2.58,3.7,5.42,3.26,9a2.86,2.86,0,0,1-1.61,2.2,20.39,20.39,0,0,0-4.36,4.52c-.25.32.11,1.24.35,1.83a5.16,5.16,0,0,1-.07,4c-.73,2-.55,4.34-.69,6.54a13.32,13.32,0,0,0,.08,3.22c.51,2.78-1.5,4.21-3.09,5.74a39.59,39.59,0,0,1-4.75,3.54,2,2,0,0,1-.86.22,9,9,0,0,0-5.82,3c.25.71.43,1.32.66,1.91a34.85,34.85,0,0,0,1.9,4.73,18.79,18.79,0,0,0,3.31,4.47,7.85,7.85,0,0,0,3.94,2c1.5.23,1.73-1.49,2-2.58s.05-2.52.26-3.76a36.61,36.61,0,0,1,1-3.78c0-.12.07-.23.09-.35.44-2.57.78-5.16,1.35-7.71a23.83,23.83,0,0,1,1.49-4c.75-1.75,1.53-3.48,2.36-5.19.23-.49.71-.85,1-1.33a29,29,0,0,1,6.38-7.81,8,8,0,0,1,2.92-1.73A30.6,30.6,0,0,1,146.17,64c2.75.17,5.55-.1,8.26.31,2.49.38,4.87,1.44,7.31,2.14,3.84,1.11,6.61,3.79,8.88,6.76,1.78,2.35,4,4.56,4.61,7.74.23,1.19,1.25,2.23,1.89,3.34a4.16,4.16,0,0,1,.4,1c.39,1.5.86,3,1.11,4.52.56,3.26,1,6.53,1.49,9.8.34,2.26,1,4.52.95,6.76a96.73,96.73,0,0,1-1.22,10.56,36.56,36.56,0,0,1-1.1,3.86c-.61,2.37.87,4,2,5.82a2.84,2.84,0,0,1,.34.58c.56,1.74,1.09,3.48,1.59,5.08l7.07,1.74a2.15,2.15,0,0,1,.68.2c2.85,1.86,5.54,4,8.57,5.53,3.2,1.59,5.33,4.3,7.86,6.55,2.17,1.93,3.81,4.45,5.71,6.68,1.71,2,3.5,3.92,5.16,6a36.5,36.5,0,0,1,2,3.14c1.55,2.35,3.15,4.67,4.63,7.05a12.71,12.71,0,0,1,1.44,3.19,18.41,18.41,0,0,0,3.61,7.1c.79.94,1,2.35,1.62,3.46,1.13,2,2.75,3.8,3.49,5.93.85,2.42,2.7,4.13,3.7,6.38a2.7,2.7,0,0,1,.21,1c0,2.43,1.46,4.26,2.74,6a87.71,87.71,0,0,0,5.89,6.91c1.81,2,3.71,4,5.56,6,2.69,2.91,5.56,5.68,8,8.79a87.7,87.7,0,0,1,5.46,8.66c1.53,2.52,3.11,5,4.42,7.67a35.33,35.33,0,0,1,1.67,5.16c.61,1.91,1.23,3.81,1.85,5.72a4.55,4.55,0,0,1,.25.67c.55,3.53,1,7.08,1.66,10.59a23.23,23.23,0,0,0,1.68,4.78,27.92,27.92,0,0,0,1.81,3.06c1,1.73,1.95,3.53,3.12,5.16,1.77,2.45,3.75,4.74,5.55,7.17,1.29,1.74,2.46,3.58,3.65,5.4a3.87,3.87,0,0,1,.31,1.17c.1.39.1,1,.33,1.14,2.86,1.31,2.38,4.29,3.34,6.53.64,1.5,1.09,3.07,1.65,4.6.25.69.56,1.36.82,2,.75,2,1.49,3.95,2.23,5.92,0,.11.12.21.15.32a50.2,50.2,0,0,0,1.57,6.37c1.74,4.57.73,9.29,1.15,13.93.12,1.32,1.2,2.56,1.86,3.83.15.3.45.54.55.85a36.18,36.18,0,0,1,1,3.66c.53,2.67.93,5.37,1.49,8,.19.93.86,1.76,1,2.69.57,3,.9,6,1.54,8.9.5,2.32,1.34,4.56,2,6.85.58,2.06,1,4.16,1.64,6.21a31.14,31.14,0,0,0,1.6,4.29c.51,1.08,1.3,2,1.88,3.06,1.83,3.3,3.49,6.69,5.45,9.91,1.26,2.07,3,3.83,4.39,5.86,1.11,1.65,1.92,3.5,2.92,5.22.27.49.81.81,1.11,1.29,1.61,2.44,3.29,4.85,4.71,7.4,1.11,2,1.76,4.26,2.83,6.29,1.3,2.49,2.78,4.88,4.27,7.26s2.9,4.47,4.47,6.62c2.27,3.11,4.72,6.09,7,9.22a30.75,30.75,0,0,1,1.78,3.75,25.86,25.86,0,0,0,1.46,2.33c1.12,1.72,2.29,3.42,3.38,5.17s1.89,3.31,2.86,5c.67,1.14,1.43,2.23,2.07,3.39a47.71,47.71,0,0,1,3.52,6.61c1,2.88,3.35,5,4.25,8,.95,3.25,3.4,6.06,4.4,9.31.93,3.06,3.3,5.11,4.4,8.05,1.31,3.5,3.73,6.56,5.55,9.88a34.85,34.85,0,0,1,1.68,4.3l.77,2a3.06,3.06,0,0,0,0,4.44,2.74,2.74,0,0,1,.35.78c.74,1.95,1.54,3.88,2.19,5.86s1,3.8,1.59,5.69a62.86,62.86,0,0,1,1.94,6.6,16.93,16.93,0,0,1,.16,6.53c-.42,1.76-1.09,3.86-3.17,4.75-1.59.68-3.13,1.76-4.78,2a30.61,30.61,0,0,1-7.71.07A33.44,33.44,0,0,1,375.7,540a11,11,0,0,0-1.25-.52,16.33,16.33,0,0,1-9.81-5.45,24.5,24.5,0,0,1-1.88-3.6,2,2,0,0,0-1.08-1,1.81,1.81,0,0,0-1.35.39c-1.89,1.49-3.77,3-5.59,4.61-1.08.95-2.08,2-3.08,3.06-.71.75-3.47.8-3.86,0s-.66-1.59-1.09-2.33c-1.13-2-2.36-3.88-3.46-5.86-1-1.78-1.76-3.69-2.81-5.43-.83-1.39-2-2.55-2.89-3.93-1.21-1.89-2.22-3.9-3.37-5.83-.85-1.41-1.75-2.8-2.68-4.16-1.09-1.6-2.31-3.11-3.34-4.75-2.14-3.44-4.11-7-6.31-10.4-1.8-2.77-3.89-5.35-5.74-8.09-1.12-1.65-2-3.47-3-5.18a14.93,14.93,0,0,0-1.15-1.25,74.21,74.21,0,0,1-4.59-6.1c-1.21-2-1.94-4.19-3-6.24s-2.17-3.82-3.24-5.75c-.54-1-1-2-1.51-3s-1-2.16-1.64-3.19-1.41-2.14-2.09-3.22a25,25,0,0,1-1.29-2.15c-.88-1.77-1.67-3.57-2.56-5.33-.38-.75-1-1.4-1.38-2.13-1.9-3.37-3.81-6.74-5.66-10.14a12.33,12.33,0,0,1-1.48-3.48c-.44-2.41-2.43-3.83-3.39-5.89-.49-1.05-1.11-2.05-1.64-3.09-1.59-3.08-3.2-6.16-4.74-9.26-.55-1.11-.92-2.31-1.41-3.46a48.25,48.25,0,0,0-2.85-6.34,36.62,36.62,0,0,0-4.19-5.07c-2.31-2.54-5.46-3.78-8.37-5.42a78.71,78.71,0,0,0-7.88-3.49c-2.85-1.23-5.7-2.49-8.48-3.89-2-1-3.93-2.33-5.95-3.38-.94-.49-1.09.32-1.08,1,0,2.69.11,5.39.08,8.09s.33,5.42-.39,7.87c-1.39,4.72-.14,9.55-1.08,14.15a54.6,54.6,0,0,0-1.17,7.8c-.08,1.32,0,2.64-.12,3.95-.12,1-.51,2-.73,3a9.56,9.56,0,0,0-.24,1.75c0,1.86-.16,3.73,0,5.58.41,5.16-1.14,10.11-1.51,15.18a36.42,36.42,0,0,1-1.21,8.43c-1.16,3.62-.73,7.3-1.21,10.94-.35,2.76-.72,5.52-1.23,8.25a13.18,13.18,0,0,1-1.4,4.26c-1,1.74-.88,3.54-1,5.38-.15,2.7.21,5.36-.86,8.09-.75,1.95-.39,4.39-.26,6.6.18,2.91-1.39,5-2.82,7.26-.29.44-1,1.08-.91,1.2a5.69,5.69,0,0,0,1.68,1.6c1.52.86,3.12,1.58,4.69,2.34.21.1.48.05.7.13l5.7,2.18a3.56,3.56,0,0,0,.66.25,16.58,16.58,0,0,1,6.7,2.5,13.94,13.94,0,0,0,3,1.07c2,.71,3.22,2.29,4.52,3.84,1.58,1.89,1.24,6.37-.75,7.67-3.16,2.07-6.47,1.5-9.85.53-1.29-.37-2.74-.18-4.07-.48-2.93-.67-5.82-1.52-8.74-2.26-2.21-.55-4.46-1-6.64-1.62-1.84-.55-3.6-1.35-5.39-2a5.27,5.27,0,0,0-.84-.3c-2.22-.47-4.45-.87-6.66-1.38-3-.7-6-1.67-9-2.17a43.15,43.15,0,0,0-6.64-.15c-3.83,0-5.28-1.39-5.26-5.19,0-2.27.39-4.55.27-6.81a21.08,21.08,0,0,0-1.13-4.29,5.47,5.47,0,0,1-.28-1.18c-.07-1.19-.08-2.39-.13-3.59-.09-2.61-.35-5.19-.7-7.79-.51-3.81.22-7.8.42-11.71.15-3,.36-6.1.44-9.15.09-3.47,0-7,.12-10.43.22-5.35.64-10.69.89-16,.17-3.41-.11-6.88.37-10.24.59-4.1-.71-8.05-.39-12.11.06-.72-.84-1.51-1.3-2.28a9.53,9.53,0,0,0-2.13,1.65c-2.06,2.85-4.15,5.7-5.95,8.72a58.08,58.08,0,0,0-3,6.62l-3.51,8.06a5,5,0,0,0-.11.53q-1.11,3.81-2.23,7.62c0,.06,0,.12,0,.17-.51,3.06-.89,6.14-1.55,9.16-.56,2.5-1.45,4.93-2.18,7.4a4.25,4.25,0,0,0-.18.86c-.47,5-.88,10-1.42,15-.34,3.09-.42,6.32-1.44,9.19-.84,2.34-.51,4.7-1.16,6.93-1.71,5.92-.74,12-1.14,18a32,32,0,0,1-2,8.75A18.79,18.79,0,0,0,151.35,533.06Zm43.36-213.73a8.85,8.85,0,0,0-1.85.13c-2.4.69-4.74,1.59-7.17,2.12-2.09.45-4.21.42-6.36,1.08-3.35,1-7,1-10.52,1.62a34.69,34.69,0,0,0-5.5,1.64,10,10,0,0,0-3.15,1.6c-1.65,1.4-3.09,3-4.64,4.55-1.32,1.27-2.74,2.44-4,3.74-2.31,2.34-4.52,4.76-6.82,7.09-1.4,1.41-3,2.63-4.33,4.07-1.77,1.91-3.21,4.16-5.11,5.89a28.58,28.58,0,0,0-5.3,6.07,22.21,22.21,0,0,1-1.4,2.36c-.92,1.17-2,2.19-2.95,3.37-1.69,2.2-3.37,4.41-4.88,6.73-1.07,1.63-2.41,3.37-2.65,5.19-.54,4.11-1.9,8.1-1.56,12.34.29,3.66-.33,7.38,1,11,.31.8-.16,1.92-.31,2.89-.07.46-.26.91-.33,1.37-.85,5.33-.41,10.72-1.19,16.13-1.21,8.39-.44,17-1.38,25.54-.78,7.06-.2,14.25-.42,21.38-.15,5-.54,10-1,14.92-.35,3.85.39,7.69-1,11.59-1.14,3.2-1.08,6.84-1.4,10.3-.2,2.21-.11,4.44-.18,6.66a2.43,2.43,0,0,1-.23,1.37c-1.78,2.18-.82,4.7-.8,7.05a4.15,4.15,0,0,0,1.56,2.61,13.4,13.4,0,0,0,7.13,2.73c3.3.42,6.59,1,9.89,1.46a4.91,4.91,0,0,1,.51.15c2.38.72,4.71,1.63,7.13,2.11,3.15.63,6.37.9,9.56,1.35a3.69,3.69,0,0,1,1,.36,1.79,1.79,0,0,0,2.57-1.25,17.46,17.46,0,0,1,1.38-6.24c1-2.22,1.07-5,1.21-7.47.21-3.95.14-7.91.21-11.87a6.31,6.31,0,0,1,.2-2,44.68,44.68,0,0,0,2.26-10.85c.39-4.72.91-9.43,1.37-14.14a1,1,0,0,1,.13-.52c1.35-1.49.82-3.34,1-5.06a9.18,9.18,0,0,1,.41-1.87,55,55,0,0,0,1.91-5.73c.53-2.55-.1-5.2,1.16-7.78,1-2,1.1-4.47,1.6-6.73a5.88,5.88,0,0,1,.16-.7c.72-2,1.91-4,2.07-6.12.22-2.94,2.23-5,2.92-7.67a9,9,0,0,1,1.22-2.39c1-1.68,2.43-3.22,3.17-5,1.08-2.64,3.21-4.35,4.9-6.45,1.22-1.52,3-2.71,3.84-4.39,1.53-2.92,4.17-4.65,6.35-6.86a37.19,37.19,0,0,1,3.76-2.94c1.92-1.52,3.79-3.09,5.73-4.58,1.35-1,2.77-2,4.18-3s3.09-2.18,4.7-3.17,3.48-2,5.18-3c1.1-.67,2.11-1.46,3.18-2.17s2.12-1.29,3.15-2c2-1.36,3.91-2.79,5.89-4.15.9-.61,1.86-1.12,2.78-1.71a37,37,0,0,1,3.15-2.06c1-.51,2.11-1.81,1.62-2.29s-1.17-.87-1.62-1.41a1.23,1.23,0,0,1-.12-1.18,6.27,6.27,0,0,1,1.35-1.08c.79.44,1.5.87,2.25,1.23a19.13,19.13,0,0,1,3.17,1.47,30.08,30.08,0,0,0,8.32,4.77,36.11,36.11,0,0,1,3.38,1.75c2.41,1.1,4.85,2.14,7.28,3.19.27.12.59.11.84.25a57.92,57.92,0,0,0,5.82,3.19c2.36,1,4.66,1.86,6.34,3.9,1.51,1.82,3.2,3.5,4.6,5.39a29,29,0,0,1,2.52,4.53c1.2,2.43,2.31,4.89,3.45,7.34.56,1.21,1,2.47,1.65,3.63,1,1.91,2.2,3.75,3.25,5.65.76,1.38,1.4,2.83,2.14,4.22,1.36,2.58,2.77,5.13,4.14,7.7.61,1.14,1.09,2.34,1.74,3.44,1.46,2.47,3.08,4.86,4.47,7.36s2.5,5,3.81,7.52c1.15,2.2,2.4,4.35,3.62,6.52.41.72.91,1.4,1.26,2.16,1,2.11,1.5,4.58,2.93,6.32,2.46,3,3.73,6.6,5.85,9.73,1,1.42,1.9,2.87,2.86,4.3,1.52,2.28,3.07,4.55,4.6,6.83,1,1.45,1.9,2.91,2.86,4.36,1.52,2.3,3.07,4.58,4.56,6.9,1.17,1.81,2.26,3.67,3.4,5.5.95,1.52,1.91,3,2.9,4.54q2.44,3.72,4.94,7.44c.42.62.95,1.19,1.32,1.84,1.12,2,2.14,4,3.28,5.91.89,1.52,2.08,2.89,2.82,4.48a26.34,26.34,0,0,0,2.78,5.44c1.08,1.38,2.36,1.86,3.29,1.07,2.37-2,4.7-4,7.12-6,1.26-1,3-1.58,3.93-2.82,1.9-2.66,4.7-4,7.21-5.79.49-.36,1-.75,1.48-1.07,1.75-1.06,3.57-2,5.26-3.17,1.29-.88,2.38-2.06,3.65-3,1.47-1.06,3.12-1.9,4.55-3a7.12,7.12,0,0,0,2.9-5.63,2.76,2.76,0,0,0-.41-1.28c-1-2-2.11-3.92-3.15-5.88-.95-1.79-1.77-3.65-2.81-5.37s-2.36-3.34-3.46-5.06c-.81-1.27-1.46-2.64-2.21-3.95-.85-1.47-1.84-2.87-2.59-4.38-1.45-2.91-2.72-5.9-4.16-8.8-1.53-3.06-3.2-6.06-4.77-9.1-.57-1.12-.95-2.34-1.59-3.41-1-1.65-2.17-3.17-3.16-4.81s-1.77-3.44-2.77-5.08c-1.17-1.91-2.45-3.74-3.73-5.57-1.47-2.12-3-4.18-4.48-6.29-.93-1.34-1.87-2.68-2.71-4.08-1-1.75-1.94-3.59-3-5.34s-2.22-3.55-3.38-5.3-2.26-3.24-3.35-4.89q-1.46-2.2-2.8-4.47c-.81-1.37-1.56-2.79-2.35-4.18-.44-.79-.88-1.57-1.34-2.34-1-1.75-2.06-3.51-3.13-5.24s-2.09-3.16-3.06-4.79-1.66-3.13-2.55-4.66c-.25-.42-.89-.63-1.12-1.06-1.39-2.64-2.57-5.39-4.09-7.95-1.22-2-2.45-4-2.36-6.45a1.7,1.7,0,0,0-.25-.83,19.53,19.53,0,0,1-2-3.64c-.71-2.47-1.07-5-1.61-7.55-.39-1.81-.85-3.59-1.28-5.39,0-.05-.06-.1-.08-.16-1.09-3.07-2.41-6.08-3.22-9.22s-1-6.21-1.6-9.29a5.24,5.24,0,0,0-1.37-2.07c-.05-.07-.8.55-1.27.73a13.11,13.11,0,0,1-1.56.36,7.74,7.74,0,0,0-1.54.4c-2.16,1-4.28,2.17-6.45,3.19-1.18.55-2.48.85-3.63,1.45-2.27,1.19-4.45,2.54-6.71,3.75a73.61,73.61,0,0,1-8.43,3.49c-2.72.66-5.51,1-8.27,1.5l-.18.05a54.78,54.78,0,0,1-7.54,2c-4.11.53-8.26.17-12.38,1.34-3.59,1-7.45,1-11.19,1.51-.17,0-.33.14-.51.18-2.87.68-5.75,1.94-8.62,1.93-6.27,0-12.4,1.07-18.61,1.48-2.15.14-4.31.07-6.47.12a4.76,4.76,0,0,0-1.6.2c-2.08.82-2.9.29-3-2,0-1.79,0-3.6-.12-5.39-.18-2.06-.68-4.09-.81-6.15a55,55,0,0,1,0-7.15c.11-1.92.71-3.8.84-5.72.16-2.51.05-5,.09-7.55,0-.59,0-1.39.32-1.72C195.42,322.32,194.83,320.89,194.71,319.33ZM152.16,207.87c-1.8,1.47-3.48,2.85-5.16,4.21-2.22,1.78-4.51,3.47-6.62,5.38a3.82,3.82,0,0,0-1.21,2.68,8.23,8.23,0,0,0,1.31,3.11c1.13,2.12,2.33,4.2,3.5,6.29.77,1.37,1.52,2.75,2.31,4.11a53.32,53.32,0,0,0,2.93,4.82,4.89,4.89,0,0,0,2.19,1.22c.7.28,1.55.21,2.2.55,1.91,1,3.73,2.18,5.63,3.21,1.37.74,2,3.39,1.43,4.86-.75,2-2.35,3.8-1.77,6.27.23,1,.27,2.58-.32,3.09-1.26,1.11-.93,2.32-1,3.58,0,.54.2,1.31-.07,1.57-1.23,1.17-.4,2.13-.26,3.41.31,2.77,2.46,4.26,3.4,6.53s2.92,4.19,4.43,6.27q3,4.13,6,8.28c2.18,3,4.28,6.09,6.52,9.05a4.18,4.18,0,0,0,5.48,1.47c2.77-1.25,5.53-2.51,8.31-3.73,1.11-.48,2.26-.87,3.38-1.32,1.8-.71,3.56-1.53,5.39-2.14s3.67-.87,5.44-1.48c3-1,6-2.22,9-3.34,2.44-.91,4.88-1.79,7.3-2.75.74-.29,1.37-.91,2.12-1.16,1.69-.58,3.44-1,5.15-1.54,1.33-.42,2.63-.91,4-1.34,2.22-.73,4.44-1.48,6.68-2.16,1.59-.49,3.26-.78,4.82-1.37s3-1.61,4.62-2.14c2.08-.69,4.26-1.07,6.4-1.59a5.2,5.2,0,0,0,1-.36c1.27-.6,2.51-1.24,3.78-1.81s2.64-1.08,3.95-1.64c.87-.38,1.73-.79,2.59-1.19a36,36,0,0,1,4.78-2.19c1.24-.37,1.78-.93,1.62-2.11-.48-3.53-1-7.07-1.57-10.58a16.88,16.88,0,0,0-1.22-3.61c-.75-1.75-1.66-3.44-2.41-5.19-.56-1.32-.87-2.75-1.48-4-1.1-2.37-2.27-4.72-3.54-7a37,37,0,0,0-3.13-4.77c-1.64-2.09-3.39-4.1-5.2-6.05-2.8-3-5.72-5.93-8.54-8.94-1.78-1.89-3.58-3.79-5.18-5.83a55.26,55.26,0,0,1-3.44-5.3c-1-1.61-2.35-3.18-2.73-4.94-.55-2.59-2.4-4.3-3.47-6.51-1.34-2.77-2.79-5.5-4.15-8.27-1-2.09-1.86-4.28-3-6.29-1.35-2.38-3-4.6-4.43-6.9s-2.78-4.47-4.18-6.69c-.23-.37-.58-.67-.81-1a61.47,61.47,0,0,0-4.19-6.49c-2.17-2.62-4.69-5-7.11-7.36-1.38-1.37-2.65-3.25-4.33-3.82-2.12-.72-3.18-2.68-5.27-3.34-2.34-.73-4.46-2.11-6.77-3-1.7-.62-3.54-.84-5.31-1.29a1.33,1.33,0,0,1-.83-.57,55.85,55.85,0,0,1-2.27-5.56c-.8-2.54-1.23-3.05-3.83-2.76s-5.31.78-8,1.27c-2.27.41-4.52.93-6.78,1.41a1.15,1.15,0,0,0-.17.06c-1.91.76-3.82,1.52-5.75,2.26a19.34,19.34,0,0,0-3.86,1.45c-3,2-5.93,4.24-8.94,6.31-2.28,1.57-4.64,3-7,4.51a12.16,12.16,0,0,1-2.51,1.4c-1.85.63-3.87.86-5.62,1.67a19.76,19.76,0,0,0-5,3.35c-1.39,1.28-2.33,3-3.57,4.5s-2.58,2.53-3.67,4c-1.51,2-2.61,4.29-4.25,6.13-3.25,3.62-6.75,7-10.14,10.49-1,1-2.36,1.9-2.92,3.14-1.55,3.37-4.46,5.43-6.92,7.93a18.82,18.82,0,0,1-4.12,2.89,5.9,5.9,0,0,0-3,6.68c.43,1.91.26,3.84,1,5.84,1.08,2.84,1.07,6.08,1.63,9.13a13.77,13.77,0,0,0,1,2.8c.44,1.05.91,2.09,1.43,3.1,1,1.94,1.58,4.33,3.1,5.68,3.35,3,6.07,6.72,10.26,8.79,2.16,1.07,3.79,3.09,6.29,3.75a12.16,12.16,0,0,1,2.76,1.53c.92.53,1.87,1,2.76,1.59,1.32.85,2.07-.1,2.92-.82,1.83-1.54,3.65-3.1,5.48-4.63,1.12-.94,2.14-2.18,3.43-2.7,1.81-.72,2.72-2.26,4-3.47s2.17-2.81,3.36-4.11c2.26-2.45,4.58-4.83,6.93-7.19,1.36-1.37,2.78-2.69,4.26-3.94s3-2.12,4.29-3.38C150,205.59,151.23,205.56,152.16,207.87ZM83.23,188.64a59,59,0,0,0,5.18-3.89,27,27,0,0,0,2.46-3.41c1.55-2,3.2-3.91,4.72-5.94.62-.82.8-2.07,1.55-2.71a17,17,0,0,0,3.71-4.38,4.78,4.78,0,0,1,2.83-2,5.32,5.32,0,0,0,3.09-2.07c1-1.29,1.87-2.77,2.92-4.06,2.32-2.83,4.65-5.66,7.13-8.35.79-.86,1.53-1.72,1-2.71a25.88,25.88,0,0,0-2.93-4c-2.31-2.82-4.66-5.61-7-8.42a46.88,46.88,0,0,0-3.31-4c-1.79-1.73-1.83-2.28.24-3.77,1.49,1.65,3,3.26,4.46,4.94a34.05,34.05,0,0,1,2.25,3.07c.65.95,1.14,2,1.84,2.92,1.47,1.89,3,3.74,4.59,5.52.77.86,1.25,2.57,2.83,1.9a13.08,13.08,0,0,0,3.09-2.36,1,1,0,0,0,.06-1c-.83-1-1.72-2-2.63-2.9-1.46-1.48-3.1-2.83-4.42-4.42-1.6-1.93-2.76-4.24-4.45-6.07a94.44,94.44,0,0,1-7.08-8.4,17.68,17.68,0,0,1-1.15-1.58c-1-1.75-1.8-3.63-3-5.27-1.83-2.62-3.88-5.08-5.83-7.62l-4.75-6.18c-.93-1.22-1.89-2.42-2.8-3.65a41.4,41.4,0,0,0-2.58-3.62c-2.83-3.1-5.77-6.11-8.66-9.15-1.67-1.76-3.27-3.57-5-5.25a3.32,3.32,0,0,0-2.15-.78c-.43,0-1.08.72-1.23,1.23-.59,2.13-1,4.3-1.53,6.45a3,3,0,0,1-.24.85c-.68,1.21-1.44,2.38-2.07,3.61A30.69,30.69,0,0,1,58.67,99c-2,2-3.83,4.12-5.69,6.23a19,19,0,0,0-1.88,2.59c-1.05,1.69-2.09,3.38-3,5.14-.55,1-.77,2.23-1.3,3.28-1.2,2.35-2.52,4.63-3.73,7a19.61,19.61,0,0,0-1.27,3c-.79,2.39-1.61,4.78-2.21,7.22-.31,1.26.11,2.74-.34,3.91-1,2.64-2.24,5.2-2.27,8.1-.05,5.75-.36,11.52,0,17.26.4,7.32-.9,14.67,1,22,1.11,4.17,1,8.65,1.52,13,.45,3.76,1,7.5,1.52,11.25a2,2,0,0,0,.07.35c.69,3.23,1.4,6.46,2.07,9.69.52,2.53,1,5.07,1.46,7.6a2.54,2.54,0,0,0,.24.46c.7,1.56,1.42,3.11,2.1,4.68.4.92.77,1.86,1.09,2.81.46,1.36.81,2.76,1.3,4.12.35,1,.83,1.86,1.27,2.78a38.27,38.27,0,0,0,2,4.05c.82,1.26,2,2.3,2.86,3.51,1,1.41,1.87,3,3,4.33,2.73,3.11,5.57,6.14,8.41,9.15,1.77,1.87,3.35,4.17,5.52,5.34,2.73,1.48,4.59,3.82,6.55,5.87,3,3.12,6.59,5.33,9.73,8.16A9.8,9.8,0,0,0,90.23,283c2,1.16,4.06,2.29,6,3.4.44-.92.94-2.18,1.62-3.33,1-1.66,2.09-3.25,3.15-4.86a7.17,7.17,0,0,0,.57-.79,19.23,19.23,0,0,1,1.67-3.68c1.64-2.14,3.13-4.29,3.55-7,0-.33.52-.58.76-.89.93-1.23,2.57-1.69,3-3.55a13.14,13.14,0,0,1,2.61-4.9c2.56-3.15,5.44-6,8-9.19.58-.72,2.49-1.51,1.07-3a10.61,10.61,0,0,0-3-1.85c-2.53-1.2-5.12-2.3-7.67-3.47-1-.48-2-1-3-1.56-2-1-4-2-5.86-3.13-1.55-.91-3-2-4.47-3s-2.68-1.91-3.91-3a32.16,32.16,0,0,1-8.73-10.7c-.75-1.42-.74-3.26-1.54-4.65-.44-.76-1-2-2.8-1.59-2.3.55-3.87,2.12-5.74,3.25-1.2.73-2.12,2.07-3.75,1.73a1.62,1.62,0,0,1-.75-1,8.91,8.91,0,0,1,1.7-1.54c1.22-.87,2.52-1.64,3.72-2.54a1.15,1.15,0,0,0,0-1c-1.67-.93-3.42-1.72-5.08-2.65s-3.07-1.87-4.6-2.82l.28-.83a11.34,11.34,0,0,1,3.49.4c1.94.87,3.68,2.16,5.57,3.13.46.24,1.21-.06,1.77-.11l-2-2.78c2.54-1.13,4.81.2,4.66,2.43s.07,2.38,2.83,1.64a29.44,29.44,0,0,1-1.43-4A48.69,48.69,0,0,1,80.55,197a254.12,254.12,0,0,1,1.18-35.86c.11-1,.42-1.62,1.38-1.32a1.86,1.86,0,0,1,1,1.4,83.89,83.89,0,0,1-.88,9.49C82.65,175.84,83,181,83,186.2A22.24,22.24,0,0,0,83.23,188.64Zm-12.36,159c-1.15.09-1.87.2-2.57.19-2.58,0-5.16-.14-7.73-.16-1.14,0-2.15.2-2.24,1.7a74.79,74.79,0,0,1-1.1,11.3c-.92,4.3-1,8.76-2.57,13-.71,2-.26,4.24-1.34,6.31-.89,1.71-1.09,3.79-1.6,5.71a3.4,3.4,0,0,1-.12.34c-.69,1.84-1.48,3.65-2.05,5.53-.65,2.12-1.08,4.3-1.62,6.46a5.24,5.24,0,0,1-.23.48c-.67,1.91-1.37,3.81-2,5.73a48.18,48.18,0,0,1-1.61,5.11c-.83,1.85-2,3.53-2.18,5.64a1.41,1.41,0,0,1-.19.68,12,12,0,0,0-2.35,5.66,2.64,2.64,0,0,1-.34.8c-.67,1.49-1.42,2.95-2,4.48s-1.08,3.38-1.69,5A30.1,30.1,0,0,1,34,434.62c-.63,1.26-1.37,2.48-1.9,3.79-1,2.44-1.82,4.94-2.8,7.39-.65,1.63-1.42,3.21-2.14,4.81a11.37,11.37,0,0,0-1.2,2.74c-.39,2.61-1.95,4.6-3.19,6.77-1.1,1.93-2.1,3.92-3.1,5.89-.6,1.19-1.15,2.41-1.69,3.63-.37.81-.66,1.66-1.05,2.46-.71,1.46-1.58,2.84-2.2,4.34s-1.06,3.43-1.74,5.08a36.56,36.56,0,0,1-2.1,4c-.73,1.26-1.66,2.42-2.28,3.73-1.07,2.24-1.84,4.63-3,6.83a17.13,17.13,0,0,0-2.26,8.64,6.21,6.21,0,0,1-.47,3C1.73,510,2.85,512,4,513.33A17.94,17.94,0,0,0,10.05,518c2.11,1,4.67,1,7,1.45A44.48,44.48,0,0,1,22.88,521c1.53.54,2.9,1.52,4.39,2.22a11.6,11.6,0,0,0,3.3,1.2,33.36,33.36,0,0,0,4.55.06c.7-1.26,1.32-2.2,1.78-3.21.6-1.3,1.05-2.67,1.61-4a20.63,20.63,0,0,1,1.31-2.72c1.56-2.6,3.22-5.14,4.75-7.75.58-1,.79-2.17,1.37-3.15,1-1.72,2.25-3.34,3.36-5,1.39-2.13,2.74-4.29,4.15-6.42,1.15-1.73,2.35-3.44,3.56-5.13.88-1.23,1.8-2.42,2.72-3.62,1.5-1.93,3.06-3.81,4.5-5.77,1.22-1.66,2.31-3.41,3.44-5.13q1.53-2.32,3-4.7c.68-1.08,1.34-2.18,2-3.31s1-2.26,1.68-3.32c1-1.76,2.15-3.46,3.22-5.18,1.43-2.28,2.94-4.52,4.27-6.86,1.19-2.11,2.14-4.35,3.28-6.49.88-1.65,2.4-3.12,2.73-4.85.5-2.64,2.34-4.38,3.46-6.57.8-1.56,2-2.92,2.76-4.51,1.36-2.9,2.48-5.92,3.76-8.86.33-.77,1-1.42,1.35-2.18,1.35-2.62,2.62-5.3,4-7.91,1.12-2.11,2.32-4.18,3.55-6.23,1.11-1.87,2.25-3.73,3.49-5.53,1.6-2.33,3.27-4.76,3.78-7.48.81-4.34,1-8.8,1.41-13.21.23-2.51,1.7-4.38,3.09-6.25,1.73-2.35,4.06-4.35,5.37-6.89,1.08-2.09,2.65-3.74,3.8-5.71a2.93,2.93,0,0,0,.19-1.88c0-.2-.87-.28-1.35-.36s-.83,0-1.24-.05c-6.1-.66-12.32.52-18.33-1.34-2.06-.63-4.3-.82-6.2-1.74s-3.43-.59-5.19-.33a19.12,19.12,0,0,1-4,.38c-2.31-.16-4.6-.57-6.9-.87l-1.44-.21A11.2,11.2,0,0,1,83,348a58,58,0,0,0,1-6.21c.13-4.37,0-8.75,0-13.13a5,5,0,0,0-.22-1.94,6.27,6.27,0,0,1,0-5.48,5.1,5.1,0,0,0,0-2.64c-.16-1.2-.67-2.36-.73-3.56-.13-2.45,0-4.92-.1-7.37a14,14,0,0,0-.27-1.93h-.48c-.56,1.93-1.2,3.85-1.66,5.8-.57,2.37-.69,4.88-1.55,7.13-1,2.58-2.37,5-2.33,7.87a3.62,3.62,0,0,1-.31,1c-.69,2.07-1.37,4.15-2.06,6.21-.21.64-.47,1.27-.69,1.91-.6,1.81-1.33,3.58-1.75,5.43C71.39,343.28,71.19,345.48,70.87,347.68Zm53.54-17.2c-.44-1.83-1.41-3.47-1-4.62,1.17-3.31.28-6.65.73-9.93.13-.94.18-1.9.37-2.83.63-2.93,1.61-5.81,1.9-8.76.63-6.56-.27-13.19,1-19.78.72-3.72.32-7.65.45-11.49.07-2.3-.75-3.3-3.07-3.5a42.22,42.22,0,0,0-5-.2,2.35,2.35,0,0,0-1.76,1c-.69,1.46-1.07,3.07-1.65,4.59a25.38,25.38,0,0,1-1.4,3c-.64,1.17-1.36,2.29-2,3.43-1,1.73-1.84,3.69-3.19,5.14a13,13,0,0,1-5.06,3.65,11.62,11.62,0,0,1-10.62-1.33q-4-2.71-7.79-5.61c-2.46-1.87-4.91-3.78-7.23-5.83-1.41-1.25-2.43-3-3.88-4.16-3-2.5-6.18-4.8-8.73-7.8a3,3,0,0,0-3.61-1.08,6.08,6.08,0,0,1-1.61.13,2.94,2.94,0,0,0-3,3.15c-.07,2.22.41,4.64-.33,6.6-1.31,3.46-.8,6.95-1.14,10.42a6.44,6.44,0,0,1-.2,1.78,11.67,11.67,0,0,0-.07,8.43,8.48,8.48,0,0,1,0,3.55,37.42,37.42,0,0,0-.75,4.11c0,11.36-.95,22.75,1,34.07.5,2.85-.44,6,1.85,8.52,2.45.14,5,.32,7.59.42,1.14.05,1.74-.38,1.94-1.74a22.78,22.78,0,0,1,1.53-4.67A52.42,52.42,0,0,0,71.76,334c.66-2.51,1-5.11,1.45-7.66a4.48,4.48,0,0,1,.16-.52c.33-1,.74-2,1-3.06.5-2.22.83-4.47,1.36-6.67A26.86,26.86,0,0,1,77.06,312c.65-1.58,1.54-3.06,2.15-4.64,1-2.6,1.84-5.24,2.71-7.76,2.35-.27,3.36.36,3.47,2.17.33,5.46.59,10.92,1,16.37.64,8.4.16,16.89.14,25.34a5.53,5.53,0,0,1-.24,1.57c-.25.78-.58,1.53-1,2.56a28,28,0,0,0,3.27.24,59.69,59.69,0,0,1,13.79,1.28,4.39,4.39,0,0,1,.52.13c2.58.76,5.13,2,7.73,2.17,6.7.32,13.42.15,20.14.09a4.21,4.21,0,0,0,2-.81c3.92-2.45,6.76-6.08,9.95-9.32s6.14-6.56,9.21-9.83a64.89,64.89,0,0,1,4.57-4.66c1.72-1.49,3.67-2.72,5.52-4.06,1-.75,2.11-1.46,3.12-2.24s2.07-1.82,3.17-2.65c1.75-1.32,3.16-3,5.22-4.08s3.43-3.1,4.88-4.9c.76-.94,1.71-2.6,1.36-3.4-.8-1.82-.87-3.91-2.46-5.52a84.52,84.52,0,0,1-6-7.5c-.91-1.17-1.8-2.36-2.65-3.58-1-1.48-2-3.05-3-4.5-1.75-2.34-3.68-4.54-5.37-6.92-1.06-1.52-1.8-3.27-2.74-4.88-.16-.28-.8-.63-.89-.56-.52.42-1.22.91-1.34,1.48-.65,3.12-2.42,4.67-5.6,4.68h-5.42c-.54,3.7-1.71,7.13-1.6,10.88a50.27,50.27,0,0,1-.72,11.5c-1.17,5.91-1.21,12-1.72,18.08-.06.72.15,1.6-.2,2.13-1.44,2.18-.81,4.61-1,6.94a14.14,14.14,0,0,1-.18,2,2.39,2.39,0,0,1-3.57,1.58,3.3,3.3,0,0,0-1.72-.79C130.45,330.44,127.4,330.48,124.41,330.48ZM286.3,284.35a14.91,14.91,0,0,0-2.77.33c-2.15.63-4.24,1.47-6.38,2.15-1.85.59-3.75,1-5.61,1.61-1.08.33-2.11.82-3.17,1.22a46.89,46.89,0,0,1-5.63,2c-2.13.52-4.33.31-6.55,1s-5,.49-7.36,1.61a25.7,25.7,0,0,1-4.08,1.36c-2.89.83-5.77,1.67-8.7,2.37-2.56.61-5.18,1-7.76,1.55-1.4.3-2.77.79-4.17,1.1-3.7.83-7.4,1.62-11.11,2.4-2.45.52-4.91,1-7.36,1.51a3,3,0,0,0-.48.23c-1.76.62-3.5,1.35-5.3,1.83-2.26.61-4.58,1-6.88,1.51-.11,0-.22.1-.33.13-2.28.74-4.56,1.47-6.84,2.23a15,15,0,0,0-2.33.92c-1.49.78-2.82,2-4.7,1.59a1.32,1.32,0,0,0-.88.13c-1.84,1.16-3,3.15-5.13,4.07-1.35.56-2.29,2.12-3.39,3.24-.19.19-.46.6-.4.67.19.24.55.55.78.5,1.22-.25,2.4-.71,3.62-.91,3.37-.54,6.77-.95,10.14-1.5,2.73-.45,5.45-1,8.18-1.55.11,0,.22-.09.33-.12a34.06,34.06,0,0,1,3.83-.85c.43-.05,1.32.54,1.32.85.05,2.69.49,5.33-.44,8.08a11.72,11.72,0,0,0-.17,6.86,14.07,14.07,0,0,1,.7,4,40.6,40.6,0,0,1-.71,7.36c-.57,3.56-.14,7.28-.13,10.94,0,1.28.74,1.83,1.92,1.85a34.87,34.87,0,0,0,4,0c4.47-.39,9,.44,13.44-1.13,2.64-.92,5.66-.21,8.57-1.1,3.13-.95,6.59-.66,9.91-1.45,4.15-1,8.53-1,12.81-1.48.23,0,.46-.1.7-.14,2.09-.35,4.17-.72,6.26-1,1-.14,2.06,0,3-.27,2.94-.69,5.84-1.54,8.77-2.22,2.35-.54,4.73-.91,7.09-1.36a1.56,1.56,0,0,0,.33-.14l7.14-3.56c2.62-1.3,5.23-2.6,7.86-3.87a74.42,74.42,0,0,0,7.63-3.67c1.78-1.12,4.08-2.69,4.46-4.43a20.88,20.88,0,0,0,0-9.94c-.92-3.2-.18-6.64-2-9.67-.89-1.46-.75-3.51-1.51-5.09a20.9,20.9,0,0,1-2.34-7.18,2,2,0,0,0-.19-.68q-1.67-3.11-3.34-6.19c-.91-1.68-1.82-3.37-2.78-5C287.68,286.23,287.12,285.53,286.3,284.35ZM183.07,416.66a33.67,33.67,0,0,1,.65,3.61c.17,2.27.11,4.55.33,6.82.19,2,.91,4.08.86,6.11a65,65,0,0,1-.89,10.35c-1.21,6.63.36,13.52-1.14,20.26-.36,1.59.65,3.43.66,5.16,0,1.52-.78,3-.8,4.55-.11,8.69-.12,17.39-.12,26.08,0,2.64,1.57,4.71,3.15,6.56,2.15,2.51,5.55,2.55,8.44,2.91a89.44,89.44,0,0,0,14,.34,11.87,11.87,0,0,0,7.08-2.41,7.56,7.56,0,0,0,1.73-2.38c.6-1.14,1.44-2.34,1.49-3.54.29-6.11.05-12.25,1.24-18.31.32-1.63,0-3.38.39-5,.54-2.59,1.71-5.1,2-7.7.22-2.36,2.43-4.61.58-7.13,0-.07,0-.23,0-.35.65-2.58,1.44-5.13,1.91-7.75.43-2.37.61-4.76,1.17-7.16,1-4.28-.05-8.84,1.29-13.2.32-1.07-.65-2.49-.84-3.77-.84-5.62,1.27-11.05,1.18-16.63a3.18,3.18,0,0,1,.26-.85c.69-2.63,1.82-5.23,2-7.89.31-6,.14-12,.16-18,0-1.53,0-3.06,0-4.79-2.23,1.12-4.19,2.07-6.12,3.07a24.47,24.47,0,0,0-2.61,1.54c-1.45,1-2.85,2.06-4.3,3.07s-3.12,2.18-4.72,3.21c-2.22,1.44-4.45,2.85-6.71,4.23-1.35.82-2.86,1.43-4.14,2.35-1.48,1.08-2.74,2.45-4.17,3.6s-3.21,2.3-4.71,3.56c-1.77,1.5-3.38,3.16-5.12,4.69-.59.51-1.54.67-2,1.25A32.72,32.72,0,0,0,183.07,416.66Zm-35.31-350c-3,.16-6-.19-9,.92-1.92.71-3.74,1.09-5.31,2.67a32.11,32.11,0,0,0-5.68,7.41c-.65,1.21-1.08,2.53-1.65,3.78a28.22,28.22,0,0,0-2,4.17c-.67,2.45-1,5-1.51,7.5a2.17,2.17,0,0,1-.07.35,47.74,47.74,0,0,0-2.25,11.79,21.55,21.55,0,0,0,1.12,7.46c.53,2,1,3.93,1.6,5.86a17.83,17.83,0,0,0,1.45,3.43A88.68,88.68,0,0,0,129.2,130a11.71,11.71,0,0,0,10,5c.55,0,1.12-.91,1.67-.89,1.28,0,2.28-1.37,3.86-.45.52.3,2.05-1.07,3.07-1.74,1.44-.95,2.72-2.29,4.29-2.88a47.28,47.28,0,0,1,6.75-1.56c.23,0,.46-.1.7-.17,2.47-.7,4.94-1.45,7.43-2.1,2.13-.54,4.3-1,6.44-1.45.21,0,.36-.29.56-.4,2.51-1.41,2.86-4.22,3.44-6.46.79-3.08.14-6.45,1.08-9.67.39-1.35-.5-3-.71-4.59-.4-3,.11-6.13-1.3-9.11-.9-1.92-1-4.23-1.44-6.37a1.83,1.83,0,0,0-.11-.33c-.72-1.61-1.9-3.16-2.08-4.82-.35-3.27-2.84-5.18-4.45-7.52a17,17,0,0,0-8.8-6.25,47.07,47.07,0,0,0-7.67-1.5A29.94,29.94,0,0,0,147.76,66.68Zm-77.34,0c.06.62,0,1,.14,1.18,1.73,2.24,1.09,4.88,1.31,7.38A3.68,3.68,0,0,0,72.71,77c1.44,1.87,2.88,3.74,4.42,5.51.91,1.05,2,1.9,3,2.88,1.79,1.77,3.66,3.46,5.29,5.36,2.36,2.73,4.57,5.6,6.8,8.45,1.5,1.92,2.94,3.89,4.36,5.88,1.16,1.64,2.18,3.38,3.36,5,1.72,2.36,4,4.45,5.15,7s3.79,3.69,4.51,6.53c.35,1.4,2.16,2.47,3.43,3.57a1.76,1.76,0,0,0,1.61.09c.28-.17.31-1,.24-1.51-.14-1-.55-1.9-.65-2.87-.53-5.12-.88-10.26-1.56-15.36-.17-1.25-1.32-2.38-2-3.54-.9-1.46-1.9-2.85-2.73-4.34-1-1.84-1.79-3.84-2.94-5.6s-.85-5.12.88-6.08a22.53,22.53,0,0,1,5.06-2.41,14.82,14.82,0,0,0,5.17-2.76c3.24-2.34,3.55-3.72,2-7.64-.28-.71.2-1.74.39-2.61.08-.4.4-.76.42-1.14.13-2.51.21-5,.31-7.52s1.36-4.34,3.27-6c1.11-.94,3.41-1.26,2.75-3.56a16.22,16.22,0,0,0-1.62-4c-2.23-3.68-4.85-7.13-4.78-11.8,0-1.32-.79-2.65-1.21-4a8,8,0,0,1-2.26,1,38,38,0,0,0-10.53,2.35,40.48,40.48,0,0,0-6.9,2.7,30.6,30.6,0,0,0-4.72,2.67c-2.94,2.46-3.22,6-3.59,9.56-.1.91-.72,2.44-1.27,2.52a45.36,45.36,0,0,1-6.4.12,16.56,16.56,0,0,0-.4-2.74,6.32,6.32,0,0,0-1.24-2.26,32.77,32.77,0,0,0-3.09-2.66,5.54,5.54,0,0,0-1.37-.91c-1.36-.53-1.84.82-2.19,1.49a4.34,4.34,0,0,0-.21,3.05,20.82,20.82,0,0,0,2.11,3.79c.38.63.86,1.21,1.19,1.86a27.36,27.36,0,0,0,1.6,3.47c1,1.51,1.35,4.57.36,5.67-1.68,1.87-3.8,2.1-6,.8A7.28,7.28,0,0,0,70.42,66.66ZM83.11,529.07c0,2.29-.57,3.82.91,5.44,1.62,1.78,2.52,4.19,4,6.15a21.09,21.09,0,0,0,3.82,3.73A10.13,10.13,0,0,0,95,545.87c2.51.79,5,1.93,7.62,2.09,5.37.35,10.78.14,16.17.19a7.63,7.63,0,0,1,2.28.34c1.89.62,3.73,1.35,5.6,2,1.5.55,3,1.08,4.52,1.62l6,2.17a7.82,7.82,0,0,0,2.13.7c1.81.12,3.76.5,5.4,0s2.45-2.24,1.82-4.19a3.08,3.08,0,0,1,0-.53,54.61,54.61,0,0,0-1.53-6.92c-1-2.75-2.13-5.41-2.32-8.38a4.66,4.66,0,0,0-4.15-4.15,6.3,6.3,0,0,1-2.63-.43c-2.65-1.75-5.79-.71-8.65-1.8-3.14-1.2-6.71-1.24-10.08-1.82-.31,0-.56-.53-.87-.56-1.45-.14-3.2-.74-4.33-.16-2,1-3.44,3-5.36,4.11-1.42.85-2.81,1.83-4.76,1.89-3.13.08-6-.72-9-1.23-1.76-.31-3.59-.23-5.35-.51A39.23,39.23,0,0,1,83.11,529.07Zm74.33-280.81c0-.92.33-2-.06-2.41a10.21,10.21,0,0,0-6.09-3.5,59.82,59.82,0,0,0-10.37-.07,10.48,10.48,0,0,0-3.09,1c-1.57.59-3.52.83-4.59,1.93a6.16,6.16,0,0,1-5.34,1.93,3.6,3.6,0,0,0-2.5.77c-2.52,2.51-4.9,5.17-7.29,7.8a23.56,23.56,0,0,0-2.65,3.2c-1.12,1.77-2,3.66-3,5.49-.17.32-.37.62-.55.93a4,4,0,0,0,1.1.39c3.07.1,6.12-.26,9.1,1.11,1.56.71,3.43.42,5.21,1.07a57.72,57.72,0,0,1,7,2.73,13.86,13.86,0,0,0,1.93,1c1.8.6,3.63,1.1,5.44,1.65a1.48,1.48,0,0,1,.5.21,9,9,0,0,0,5.81,2.16c3.25.07,3.28.05,3.39-3.18a3.06,3.06,0,0,1,.54-1.87,35.53,35.53,0,0,1,3-2.69c-.75-1.42-1.71-2.45-1.76-3.51s.86-2.07,1.33-3.08A9.18,9.18,0,0,1,154,259c0-.61.47-1.65.88-1.73,1.67-.3,1.64-1.45,1.6-2.64s.3-2.45-1.47-2.76a1.61,1.61,0,0,1-1-1.14c-.11-1.12-.86-1.19-1.64-1.24a30.67,30.67,0,0,0-3.95-.12c-1.25.09-2.59,0-3.4,1.48-.33.58-1.26.83-2.37,1.5.15-1.48-.11-2.86.43-3.34a12,12,0,0,1,4.69-2.9C151.08,245.21,154.1,246.71,157.44,248.26ZM34.59,548c.51.07.86.13,1.22.16,2.89.26,3.83-.48,3.62-3.32a26.41,26.41,0,0,0-1.17-5.61c-.53-1.76-1.36-3.44-2.06-5.16A21.53,21.53,0,0,1,34.57,530c-.33-1.75-1.47-2.88-2.85-2.89-3.09,0-5.14-2.35-7.89-3-2.22-.54-4.32-1.52-6.52-2.12-2-.55-4.13-.77-6.16-1.3a30.39,30.39,0,0,1-3.89-1.52c-.8-.33-1.58-.72-2.36-1.09l-.71.54c.65,4.29,1.24,8.59,2,12.86A24.22,24.22,0,0,0,7.3,535c.77,2.34,1.62,4.66,2.27,7,.37,1.39,1.14,1.8,2.52,1.28.91-.35,1.84-.65,2.64.72,1.23,2.09,3,2.09,5.17.57a2.33,2.33,0,0,1,3.2.48c.65.64,1.4,1.18,2.26,1.9l.73-2.3h2l.43,2.13c.78-.06,1.83.15,2.09-.21,1.09-1.5,2.35-.93,3.67-.72Zm353-38.64c-2.5,2.95-5.66,4-7.71,6.37a6.41,6.41,0,0,1-1.55,1.16c-2.24,1.39-4.56,2.66-6.72,4.15s-4.29,3.24-6.43,4.87a2.42,2.42,0,0,0-.5,3.3l.8,1c1,1.34,1.68,3.19,3,3.91,2.23,1.21,4.35,3,7.16,2.89a2.41,2.41,0,0,1,.85.21c1.94.71,3.82,1.74,5.82,2.06a37.91,37.91,0,0,0,7,.09,5.53,5.53,0,0,0,4.91-4.58,27.91,27.91,0,0,0-2.35-14.54c-1.15-2.47-1.77-5.19-2.7-7.76A31.29,31.29,0,0,0,387.57,509.35Zm-149.13,20a10.24,10.24,0,0,0,2.79-.06c.81-.24,1.9-.79,2.13-1.46a3.16,3.16,0,0,0-.44-2.79,24.16,24.16,0,0,0-4.83-3.18c-1.25-.66-2.72-.87-4-1.46-2.15-1-4.18-2.23-6.36-3.15-2.64-1.1-5.4-1.93-8.06-3-1.3-.52-2.44-1.55-3.76-1.9-1.65-.43-2.87-2.06-4.95-1.4a19.23,19.23,0,0,1-6.09,1c-4.4-.13-8.79-.56-13.17-1-1.58-.17-3.22,0-4.7-1.21a1.85,1.85,0,0,0-2.87,1.12,17.23,17.23,0,0,0,0,5.82c.18,1,1.25,1.68,2.72,1.68,2.94,0,5.82-.31,8.84.8,2.64,1,5.83.37,8.66,1.5,1.75.7,3.66,1,5.47,1.58,2,.65,3.95,1.5,6,2.12s4,1,5.92,1.56a66.37,66.37,0,0,0,6.54,2.12C231.66,528.68,235.12,528.94,238.44,529.35ZM119.09,240.19c1.07.71,1.8,1.22,2.55,1.7s1.46,1.27,2.17,1.25c2.77-.07,5.44,1,8.36-.73a21.4,21.4,0,0,1,9.77-3,7.21,7.21,0,0,0,2.49-.81A1.93,1.93,0,0,0,145,236a32.69,32.69,0,0,1-2.24-3.48c-.66-1.22-1.05-2.59-1.73-3.8-1.21-2.14-2.55-4.21-4-6.53-1.24-.08-1.5,1.33-2.31,2.2-2.74,2.95-5.6,5.81-8.54,8.57-1.72,1.61-3.81,2.85-5.5,4.5C120,238.15,118.2,238.74,119.09,240.19Zm-3.57-133.45a4.8,4.8,0,0,0-.16,1.19c.29,2.31.69,4.61.92,6.93.2,2,.17,4,.35,5.91.37,4,.81,7.89,1.23,11.83a2.19,2.19,0,0,0,.34,1.15q3.57,4.2,7.21,8.32c.55.63,1.15,1.51,1.86,1.67a6.66,6.66,0,0,0,5.63-1.57c.39-.32.8-1.21.63-1.55a20.42,20.42,0,0,0-2.57-4.17c-2.11-2.45-4.62-4.57-5.84-7.71-.43-1.12-1-2.18-1.52-3.27-.7-1.49-1.5-2.94-2.08-4.47s-1-3.21-1.45-4.82c-.73-2.58-1.58-5.15-2.09-7.77C117.68,106.84,117.07,106.34,115.52,106.74ZM56.68,262.14c1.31,0,2.63,0,3.94,0a1.34,1.34,0,0,0,1-.47c.11-.22-.16-.74-.39-1-1.41-1.7-2.91-3.34-4.29-5.08s-2.82-3.85-4.3-5.72c-1.25-1.57-2.82-2.87-3.41-5-.14-.47-1-2.35-2.13-1.26-.87.83-1.11,2.36-1.53,3.61-.18.55.1,1.36-.21,1.75-1.47,1.83-1,4-.68,5.84a6.51,6.51,0,0,0,2.88,4.64C50.37,261.11,53.25,262.58,56.68,262.14Zm58.38,6.13c-2.67-.13-5.13.3-6.84,2.45a26.09,26.09,0,0,0-2.27,4c-1,1.88-1.93,3.82-3,5.65-.88,1.46-2.07,2.72-2.93,4.18a5.22,5.22,0,0,0-.64,2.69c0,.38.89,1.09,1.32,1.05a9,9,0,0,0,3.75-1,15,15,0,0,0,3.74-3.45,56.51,56.51,0,0,0,3.52-5.59,15.53,15.53,0,0,0,2-3.72C114.24,272.51,116.23,270.82,115.06,268.27Zm22.71-131-1.25.84c.31.26.65.77.92.73a6.14,6.14,0,0,0,1.59-.69Z"/><path class="cls-1" d="M194.71,319.33c.12,1.56.71,3-.61,4.29-.35.33-.31,1.13-.32,1.72,0,2.52.07,5-.09,7.55-.13,1.92-.73,3.8-.84,5.72a55,55,0,0,0,0,7.15c.13,2.06.63,4.09.81,6.15.15,1.79.07,3.6.12,5.39.05,2.31.87,2.84,3,2a4.76,4.76,0,0,1,1.6-.2c2.16-.05,4.32,0,6.47-.12,6.21-.41,12.34-1.52,18.61-1.48,2.87,0,5.75-1.25,8.62-1.93.18,0,.34-.15.51-.18,3.74-.47,7.6-.5,11.19-1.51,4.12-1.17,8.27-.81,12.38-1.34a54.78,54.78,0,0,0,7.54-2l.18-.05c2.76-.48,5.55-.84,8.27-1.5a73.61,73.61,0,0,0,8.43-3.49c2.26-1.21,4.44-2.56,6.71-3.75,1.15-.6,2.45-.9,3.63-1.45,2.17-1,4.29-2.15,6.45-3.19a7.74,7.74,0,0,1,1.54-.4,13.11,13.11,0,0,0,1.56-.36c.47-.18,1.22-.8,1.27-.73a5.24,5.24,0,0,1,1.37,2.07c.6,3.08.81,6.26,1.6,9.29s2.13,6.15,3.22,9.22c0,.06.07.11.08.16.43,1.8.89,3.58,1.28,5.39.54,2.51.9,5.08,1.61,7.55a19.53,19.53,0,0,0,2,3.64,1.7,1.7,0,0,1,.25.83c-.09,2.48,1.14,4.41,2.36,6.45,1.52,2.56,2.7,5.31,4.09,7.95.23.43.87.64,1.12,1.06.89,1.53,1.65,3.14,2.55,4.66s2.07,3.18,3.06,4.79,2.1,3.49,3.13,5.24c.46.77.9,1.55,1.34,2.34.79,1.39,1.54,2.81,2.35,4.18s1.83,3,2.8,4.47c1.09,1.65,2.26,3.24,3.35,4.89s2.31,3.5,3.38,5.3,1.95,3.59,3,5.34c.84,1.4,1.78,2.74,2.71,4.08,1.48,2.11,3,4.17,4.48,6.29,1.28,1.83,2.56,3.66,3.73,5.57,1,1.64,1.78,3.42,2.77,5.08s2.18,3.16,3.16,4.81c.64,1.07,1,2.29,1.59,3.41,1.57,3,3.24,6,4.77,9.1,1.44,2.9,2.71,5.89,4.16,8.8.75,1.51,1.74,2.91,2.59,4.38.75,1.31,1.4,2.68,2.21,3.95,1.1,1.72,2.41,3.31,3.46,5.06s1.86,3.58,2.81,5.37c1,2,2.12,3.91,3.15,5.88a2.76,2.76,0,0,1,.41,1.28,7.12,7.12,0,0,1-2.9,5.63c-1.43,1.12-3.08,2-4.55,3-1.27.93-2.36,2.11-3.65,3-1.69,1.15-3.51,2.11-5.26,3.17-.52.32-1,.71-1.48,1.07-2.51,1.79-5.31,3.13-7.21,5.79-.89,1.24-2.67,1.81-3.93,2.82-2.42,1.94-4.75,4-7.12,6-.93.79-2.21.31-3.29-1.07a26.34,26.34,0,0,1-2.78-5.44c-.74-1.59-1.93-3-2.82-4.48-1.14-1.94-2.16-3.95-3.28-5.91-.37-.65-.9-1.22-1.32-1.84q-2.49-3.72-4.94-7.44c-1-1.5-2-3-2.9-4.54-1.14-1.83-2.23-3.69-3.4-5.5-1.49-2.32-3-4.6-4.56-6.9-1-1.45-1.9-2.91-2.86-4.36-1.53-2.28-3.08-4.55-4.6-6.83-1-1.43-1.89-2.88-2.86-4.3-2.12-3.13-3.39-6.74-5.85-9.73-1.43-1.74-1.95-4.21-2.93-6.32-.35-.76-.85-1.44-1.26-2.16-1.22-2.17-2.47-4.32-3.62-6.52-1.31-2.49-2.44-5.07-3.81-7.52s-3-4.89-4.47-7.36c-.65-1.1-1.13-2.3-1.74-3.44-1.37-2.57-2.78-5.12-4.14-7.7-.74-1.39-1.38-2.84-2.14-4.22-1-1.9-2.22-3.74-3.25-5.65-.63-1.16-1.09-2.42-1.65-3.63-1.14-2.45-2.25-4.91-3.45-7.34a29,29,0,0,0-2.52-4.53c-1.4-1.89-3.09-3.57-4.6-5.39-1.68-2-4-2.94-6.34-3.9a57.92,57.92,0,0,1-5.82-3.19c-.25-.14-.57-.13-.84-.25-2.43-1.05-4.87-2.09-7.28-3.19a36.11,36.11,0,0,0-3.38-1.75,30.08,30.08,0,0,1-8.32-4.77,19.13,19.13,0,0,0-3.17-1.47c-.75-.36-1.46-.79-2.25-1.23a6.27,6.27,0,0,0-1.35,1.08,1.23,1.23,0,0,0,.12,1.18c.45.54,1.11.91,1.62,1.41s-.61,1.78-1.62,2.29a37,37,0,0,0-3.15,2.06c-.92.59-1.88,1.1-2.78,1.71-2,1.36-3.91,2.79-5.89,4.15-1,.7-2.11,1.31-3.15,2s-2.08,1.5-3.18,2.17c-1.7,1-3.48,1.93-5.18,3s-3.15,2.1-4.7,3.17-2.83,1.92-4.18,3c-1.94,1.49-3.81,3.06-5.73,4.58a37.19,37.19,0,0,0-3.76,2.94c-2.18,2.21-4.82,3.94-6.35,6.86-.87,1.68-2.62,2.87-3.84,4.39-1.69,2.1-3.82,3.81-4.9,6.45-.74,1.8-2.12,3.34-3.17,5a9,9,0,0,0-1.22,2.39c-.69,2.66-2.7,4.73-2.92,7.67-.16,2.08-1.35,4.08-2.07,6.12a5.88,5.88,0,0,0-.16.7c-.5,2.26-.61,4.71-1.6,6.73-1.26,2.58-.63,5.23-1.16,7.78a55,55,0,0,1-1.91,5.73,9.18,9.18,0,0,0-.41,1.87c-.19,1.72.34,3.57-1,5.06a1,1,0,0,0-.13.52c-.46,4.71-1,9.42-1.37,14.14a44.68,44.68,0,0,1-2.26,10.85,6.31,6.31,0,0,0-.2,2c-.07,4,0,7.92-.21,11.87-.14,2.52-.2,5.25-1.21,7.47a17.46,17.46,0,0,0-1.38,6.24,1.79,1.79,0,0,1-2.57,1.25,3.69,3.69,0,0,0-1-.36c-3.19-.45-6.41-.72-9.56-1.35-2.42-.48-4.75-1.39-7.13-2.11a4.91,4.91,0,0,0-.51-.15c-3.3-.49-6.59-1-9.89-1.46a13.4,13.4,0,0,1-7.13-2.73,4.15,4.15,0,0,1-1.56-2.61c0-2.35-1-4.87.8-7.05a2.43,2.43,0,0,0,.23-1.37c.07-2.22,0-4.45.18-6.66.32-3.46.26-7.1,1.4-10.3,1.38-3.9.64-7.74,1-11.59.46-5,.85-9.94,1-14.92.22-7.13-.36-14.32.42-21.38.94-8.53.17-17.15,1.38-25.54.78-5.41.34-10.8,1.19-16.13.07-.46.26-.91.33-1.37.15-1,.62-2.09.31-2.89-1.38-3.6-.76-7.32-1-11-.34-4.24,1-8.23,1.56-12.34.24-1.82,1.58-3.56,2.65-5.19,1.51-2.32,3.19-4.53,4.88-6.73.91-1.18,2-2.2,2.95-3.37a22.21,22.21,0,0,0,1.4-2.36,28.58,28.58,0,0,1,5.3-6.07c1.9-1.73,3.34-4,5.11-5.89,1.34-1.44,2.93-2.66,4.33-4.07,2.3-2.33,4.51-4.75,6.82-7.09,1.28-1.3,2.7-2.47,4-3.74,1.55-1.51,3-3.15,4.64-4.55a10,10,0,0,1,3.15-1.6,34.69,34.69,0,0,1,5.5-1.64c3.5-.62,7.17-.58,10.52-1.62,2.15-.66,4.27-.63,6.36-1.08,2.43-.53,4.77-1.43,7.17-2.12A8.85,8.85,0,0,1,194.71,319.33Zm-13.38,63.22c.73,0,1.69.27,2-.05,1.23-1.41,2.84-.8,4.28-1,2.72-.47,5.43-1,8.14-1.47a2,2,0,0,0,.34-.12l5.52-2.33c1.52-.64,3.06-1.24,4.57-1.89,2.22-.95,4.4-2,6.63-2.88,1.44-.57,3-.8,4.4-1.48,2.17-1.07,4.27-2.23,6.73-2.47a1.89,1.89,0,0,0,.52-.13c1.76-.73,3.53-1.44,5.27-2.22a2.52,2.52,0,0,0,1.2-1c.16-.32-.06-1.17-.28-1.24a3,3,0,0,0-1.89-.05c-1.62.61-3.14,1.49-4.77,2.08-1.84.66-3.75,1.1-5.63,1.65a4,4,0,0,0-.66.24c-1.42.7-2.82,1.45-4.28,2.07s-2.88.86-4.18,1.56c-1.83,1-3.59,2.06-5.72,2.24a2.51,2.51,0,0,0-.86.2l-5.39,2.33a7.29,7.29,0,0,1-.83.26c-2.27.7-4.51,1.58-6.82,2.06s-4.51-.11-6.72,1.06C181.67,380.57,181,381,181.33,382.55Zm86.28-3.8c-1,2.2,0,3.08,1.34,3.82,1.05.59,2.11,1.15,3.11,1.82,2.24,1.51,4.42,3.09,6.65,4.6,1.05.71,2.21,1.26,3.26,2,1.9,1.31,3.69,2.8,5.65,4,2.46,1.53,5.17,2.68,7.54,4.33,2.72,1.89,5.28,3.77,8.55,4.89,1.9.64,2-.11,2.79-1a26.94,26.94,0,0,0-2.74-1.81c-2-1-4.19-1.8-6.11-3-3-1.8-5.76-3.89-8.66-5.8-3.76-2.47-7.58-4.86-11.34-7.35-2.38-1.57-4.68-3.28-7-4.87C269.68,379.82,268.66,379.34,267.61,378.75ZM195,370.68a22.18,22.18,0,0,0-2.67-.5,119.35,119.35,0,0,1-12-.89c-5.22-.79-10.62-.65-15.88-1.59q-1.4-.24-2.76-.57a21.62,21.62,0,0,0-2.8-.7c-.31,0-1,.59-1,.84.07.54.4,1.36.81,1.48A29.47,29.47,0,0,0,164.1,370c4.82.56,9.64,1,14.47,1.41,1.43.13,2.87.07,4.31.13a11,11,0,0,1,3.17.24A9,9,0,0,0,195,370.68ZM129.23,431.9c-.57.4-1.29.67-1.3,1a2.87,2.87,0,0,0,.62,1.72c.34.43,1.09.52,1.46.93,2.56,2.83,4.82,5.93,8,8.13.68.47.85,1.77,1.55,2.11,2.4,1.19,3.87,3.38,5.86,5,.47.37,1.45.11,2.19.14-.14-.7,0-1.73-.46-2-3.4-2.49-5.62-6.19-9.26-8.52-2.51-1.6-4.28-4.34-6.43-6.53A25.18,25.18,0,0,0,129.23,431.9Zm32.15-74.19c2.12,0,4.15,0,6.17,0a9.51,9.51,0,0,0,2.13-.22c2.87-.73,5.7-1.69,8.62-2.2,1.59-.28,2.07-.82,1.75-2.51-1.87.14-3.57-.2-5.55.78-2.32,1.13-5.16,1.25-7.79,1.68a15.54,15.54,0,0,1-3.41,0C161.62,355.15,161,355.9,161.38,357.71Z"/><path class="cls-1" d="M152.16,207.87c-.93-2.31-2.16-2.28-4.39-.14-1.3,1.26-2.91,2.2-4.29,3.38s-2.9,2.57-4.26,3.94c-2.35,2.36-4.67,4.74-6.93,7.19-1.19,1.3-2.09,2.89-3.36,4.11s-2.15,2.75-4,3.47c-1.29.52-2.31,1.76-3.43,2.7-1.83,1.53-3.65,3.09-5.48,4.63-.85.72-1.6,1.67-2.92.82-.89-.58-1.84-1.06-2.76-1.59a12.16,12.16,0,0,0-2.76-1.53c-2.5-.66-4.13-2.68-6.29-3.75-4.19-2.07-6.91-5.8-10.26-8.79C89.55,221,89,218.57,88,216.63c-.52-1-1-2-1.43-3.1a13.77,13.77,0,0,1-1-2.8c-.56-3-.55-6.29-1.63-9.13-.76-2-.59-3.93-1-5.84a5.9,5.9,0,0,1,3-6.68A18.82,18.82,0,0,0,90,186.19c2.46-2.5,5.37-4.56,6.92-7.93.56-1.24,1.92-2.11,2.92-3.14,3.39-3.49,6.89-6.87,10.14-10.49,1.64-1.84,2.74-4.16,4.25-6.13,1.09-1.43,2.5-2.59,3.67-4s2.18-3.22,3.57-4.5a19.76,19.76,0,0,1,5-3.35c1.75-.81,3.77-1,5.62-1.67a12.16,12.16,0,0,0,2.51-1.4c2.34-1.48,4.7-2.94,7-4.51,3-2.07,5.89-4.32,8.94-6.31a19.34,19.34,0,0,1,3.86-1.45c1.93-.74,3.84-1.5,5.75-2.26a1.15,1.15,0,0,1,.17-.06c2.26-.48,4.51-1,6.78-1.41,2.65-.49,5.3-1,8-1.27s3,.22,3.83,2.76a55.85,55.85,0,0,0,2.27,5.56,1.33,1.33,0,0,0,.83.57c1.77.45,3.61.67,5.31,1.29,2.31.86,4.43,2.24,6.77,3,2.09.66,3.15,2.62,5.27,3.34,1.68.57,2.95,2.45,4.33,3.82,2.42,2.41,4.94,4.74,7.11,7.36a61.47,61.47,0,0,1,4.19,6.49c.23.37.58.67.81,1,1.4,2.22,2.77,4.47,4.18,6.69s3.08,4.52,4.43,6.9c1.15,2,2,4.2,3,6.29,1.36,2.77,2.81,5.5,4.15,8.27,1.07,2.21,2.92,3.92,3.47,6.51.38,1.76,1.75,3.33,2.73,4.94a55.26,55.26,0,0,0,3.44,5.3c1.6,2,3.4,3.94,5.18,5.83,2.82,3,5.74,5.92,8.54,8.94,1.81,1.95,3.56,4,5.2,6.05a37,37,0,0,1,3.13,4.77c1.27,2.29,2.44,4.64,3.54,7,.61,1.29.92,2.72,1.48,4,.75,1.75,1.66,3.44,2.41,5.19a16.88,16.88,0,0,1,1.22,3.61c.61,3.51,1.09,7.05,1.57,10.58.16,1.18-.38,1.74-1.62,2.11a36,36,0,0,0-4.78,2.19c-.86.4-1.72.81-2.59,1.19-1.31.56-2.65,1.06-3.95,1.64s-2.51,1.21-3.78,1.81a5.2,5.2,0,0,1-1,.36c-2.14.52-4.32.9-6.4,1.59-1.6.53-3,1.55-4.62,2.14s-3.23.88-4.82,1.37c-2.24.68-4.46,1.43-6.68,2.16-1.33.43-2.63.92-4,1.34-1.71.53-3.46,1-5.15,1.54-.75.25-1.38.87-2.12,1.16-2.42,1-4.86,1.84-7.3,2.75-3,1.12-6,2.3-9,3.34-1.77.61-3.66.89-5.44,1.48s-3.59,1.43-5.39,2.14c-1.12.45-2.27.84-3.38,1.32-2.78,1.22-5.54,2.48-8.31,3.73a4.18,4.18,0,0,1-5.48-1.47c-2.24-3-4.34-6-6.52-9.05q-3-4.15-6-8.28c-1.51-2.08-3.47-4-4.43-6.27s-3.09-3.76-3.4-6.53c-.14-1.28-1-2.24.26-3.41.27-.26.06-1,.07-1.57,0-1.26-.3-2.47,1-3.58.59-.51.55-2.1.32-3.09-.58-2.47,1-4.25,1.77-6.27.54-1.47-.06-4.12-1.43-4.86-1.9-1-3.72-2.21-5.63-3.21-.65-.34-1.5-.27-2.2-.55a4.89,4.89,0,0,1-2.19-1.22,53.32,53.32,0,0,1-2.93-4.82c-.79-1.36-1.54-2.74-2.31-4.11-1.17-2.09-2.37-4.17-3.5-6.29a8.23,8.23,0,0,1-1.31-3.11,3.82,3.82,0,0,1,1.21-2.68c2.11-1.91,4.4-3.6,6.62-5.38C148.68,210.72,150.36,209.34,152.16,207.87Zm-23.7-56.16c.93-.56,1.78-1.14,2.7-1.61,2.07-1.06,4.33-1.83,6.36-2.84,3.4-1.69,7.11-2,10.55-3.34a41.65,41.65,0,0,1,6.45-1.46,4.09,4.09,0,0,0,.49-.18c1.81-.73,3.62-1.49,5.44-2.19,1.4-.54,3-.73,4.18-1.58,2.38-1.75,5.27-2.12,7.8-3.41A2.7,2.7,0,0,0,173.6,134c.14-.29-.11-1.1-.34-1.17a3,3,0,0,0-1.87,0c-1.82.72-3.58,1.58-5.36,2.39-1.08.49-2.13,1-3.22,1.46-1.83.78-3.64,1.61-5.52,2.24-1.73.59-3.55.87-5.29,1.43s-3.68,1.62-5.6,2.08-3.88.15-5.75,1.27c-1.44.86-3.33.95-5,1.47a20.72,20.72,0,0,0-3.52,1.33,36.65,36.65,0,0,0-4.33,2.62c-.52.36-.78,1.1-1.16,1.66Zm50.75,55.4c-.75,1.87-.42,2.65,1,2.8a1.3,1.3,0,0,1,.8.31c2.21,2.31,5.36,2.92,8,4.42,1.84,1.05,3.77,1.91,5.64,2.9.33.17.5.66.83.83,1.57.78,3.13,1.58,4.76,2.21a2.16,2.16,0,0,0,1.93-.18,1.94,1.94,0,0,0-.07-1.89,6.8,6.8,0,0,0-2.08-1.2L196,215.08c-2.52-1.36-5-2.75-7.56-4.06-1.55-.8-3.14-1.53-4.75-2.22C182.21,208.19,180.72,207.68,179.21,207.11ZM229.48,268c1.57,0,2.61.53,3-1,.26-1.17.76-2.27,1.06-3.43a15.26,15.26,0,0,1,.51-2.77c.94-2,2.08-3.93,3.14-5.89l3.4-6.29c-1.22-.52-2.49-1.09-3.45.84-.44.87-1.25,1.55-1.77,2.39-1,1.62-2.33,3.19-2.82,5-.67,2.41-2,4.73-1.59,7.4a2.53,2.53,0,0,1-.33,1.2C230.31,266.17,230,266.91,229.48,268Zm-41.07,5.45c.67-2.84,0-3.72-2.35-3.88a38.56,38.56,0,0,1-4.41-.58,13.32,13.32,0,0,1-2-.83c-.82-.31-1.68-.55-2.5-.89-1-.44-2-1.06-3.11-1.41-1.26-.41-2.6-.81-4.07.56,1.66,1,3.11,2,4.63,2.8a15.61,15.61,0,0,0,3.33,1.38c2.22.6,4.47,1,6.72,1.55l.16.06ZM122.89,164.06a12.51,12.51,0,0,0,.33,2c.62,1.83,1.82,3.63,1.85,5.46.05,2.46-.78,5-1.24,7.42a.58.58,0,0,1-.16.31c-1.33,1.3-.82,2.76-.54,4.43,1.49-.9,1.91-2.15,2.48-3.48a20.14,20.14,0,0,0,1.94-8.6,22.5,22.5,0,0,0-1.2-5.61C125.72,163.89,125,163.56,122.89,164.06Zm9.33,19.58c-1.1,2.91-2.05,5.48-3,8-.83,2.18-1.73,4.34-2.52,6.53a4.63,4.63,0,0,0-.22,2.12c0,.28,1,.73,1.11.65a8.22,8.22,0,0,0,1.45-2c.64-1.35,1.16-2.75,1.69-4.15.71-1.88,1.39-3.76,2.08-5.65.14-.39.11-.92.37-1.17,1.35-1.29.84-2.81.79-4.35ZM96.7,224.44l2.78.18c1,0,2.36-.31,3,.2,2,1.69,4.29,1.23,6.47,1.09a8.06,8.06,0,0,0,3.36-1.52,1.92,1.92,0,0,0,.23-1.49c-.58-.27-1.62-.59-1.88-.31a4,4,0,0,1-4.91.62c-2.19-1.4-4.36-.86-6.54-1.06C97.71,222,97.19,223,96.7,224.44Z"/><path class="cls-1" d="M83.23,188.64A22.24,22.24,0,0,1,83,186.2c0-5.16-.32-10.36.3-15.45a83.89,83.89,0,0,0,.88-9.49,1.86,1.86,0,0,0-1-1.4c-1-.3-1.27.37-1.38,1.32A254.12,254.12,0,0,0,80.55,197,48.69,48.69,0,0,0,82,205.53a29.44,29.44,0,0,0,1.43,4c-2.76.74-3,.57-2.83-1.64s-2.12-3.56-4.66-2.43l2,2.78c-.56.05-1.31.35-1.77.11-1.89-1-3.63-2.26-5.57-3.13a11.34,11.34,0,0,0-3.49-.4l-.28.83c1.53.95,3,1.95,4.6,2.82s3.41,1.72,5.08,2.65a1.15,1.15,0,0,1,0,1c-1.2.9-2.5,1.67-3.72,2.54a8.91,8.91,0,0,0-1.7,1.54,1.62,1.62,0,0,0,.75,1c1.63.34,2.55-1,3.75-1.73,1.87-1.13,3.44-2.7,5.74-3.25,1.75-.42,2.36.83,2.8,1.59.8,1.39.79,3.23,1.54,4.65a32.16,32.16,0,0,0,8.73,10.7c1.23,1.08,2.58,2,3.91,3s2.92,2.13,4.47,3c1.91,1.13,3.9,2.1,5.86,3.13,1,.53,2,1.08,3,1.56,2.55,1.17,5.14,2.27,7.67,3.47a10.61,10.61,0,0,1,3,1.85c1.42,1.44-.49,2.23-1.07,3-2.54,3.16-5.42,6-8,9.19a13.14,13.14,0,0,0-2.61,4.9c-.46,1.86-2.1,2.32-3,3.55-.24.31-.71.56-.76.89-.42,2.74-1.91,4.89-3.55,7a19.23,19.23,0,0,0-1.67,3.68,7.17,7.17,0,0,1-.57.79c-1.06,1.61-2.17,3.2-3.15,4.86-.68,1.15-1.18,2.41-1.62,3.33-2-1.11-4-2.24-6-3.4a9.8,9.8,0,0,1-1.51-1.14c-3.14-2.83-6.75-5-9.73-8.16-2-2.05-3.82-4.39-6.55-5.87-2.17-1.17-3.75-3.47-5.52-5.34-2.84-3-5.68-6-8.41-9.15-1.15-1.32-2-2.92-3-4.33-.9-1.21-2-2.25-2.86-3.51a38.27,38.27,0,0,1-2-4.05c-.44-.92-.92-1.83-1.27-2.78-.49-1.36-.84-2.76-1.3-4.12-.32-1-.69-1.89-1.09-2.81-.68-1.57-1.4-3.12-2.1-4.68a2.54,2.54,0,0,1-.24-.46c-.49-2.53-.94-5.07-1.46-7.6-.67-3.23-1.38-6.46-2.07-9.69A2,2,0,0,1,41,209c-.51-3.75-1.07-7.49-1.52-11.25-.51-4.33-.41-8.81-1.52-13-1.94-7.32-.64-14.67-1-22-.32-5.74,0-11.51,0-17.26,0-2.9,1.25-5.46,2.27-8.1.45-1.17,0-2.65.34-3.91.6-2.44,1.42-4.83,2.21-7.22a19.61,19.61,0,0,1,1.27-3c1.21-2.35,2.53-4.63,3.73-7,.53-1,.75-2.25,1.3-3.28.93-1.76,2-3.45,3-5.14A19,19,0,0,1,53,105.23c1.86-2.11,3.7-4.25,5.69-6.23a30.69,30.69,0,0,0,5.75-7.74c.63-1.23,1.39-2.4,2.07-3.61a3,3,0,0,0,.24-.85c.5-2.15.94-4.32,1.53-6.45.15-.51.8-1.23,1.23-1.23a3.32,3.32,0,0,1,2.15.78c1.74,1.68,3.34,3.49,5,5.25,2.89,3,5.83,6,8.66,9.15a41.4,41.4,0,0,1,2.58,3.62c.91,1.23,1.87,2.43,2.8,3.65l4.75,6.18c2,2.54,4,5,5.83,7.62,1.15,1.64,2,3.52,3,5.27a17.68,17.68,0,0,0,1.15,1.58,94.44,94.44,0,0,0,7.08,8.4c1.69,1.83,2.85,4.14,4.45,6.07,1.32,1.59,3,2.94,4.42,4.42.91.93,1.8,1.9,2.63,2.9a1,1,0,0,1-.06,1,13.08,13.08,0,0,1-3.09,2.36c-1.58.67-2.06-1-2.83-1.9-1.6-1.78-3.12-3.63-4.59-5.52-.7-.9-1.19-2-1.84-2.92a34.05,34.05,0,0,0-2.25-3.07c-1.44-1.68-3-3.29-4.46-4.94-2.07,1.49-2,2-.24,3.77a46.88,46.88,0,0,1,3.31,4c2.33,2.81,4.68,5.6,7,8.42a25.88,25.88,0,0,1,2.93,4c.53,1-.21,1.85-1,2.71-2.48,2.69-4.81,5.52-7.13,8.35-1,1.29-1.87,2.77-2.92,4.06a5.32,5.32,0,0,1-3.09,2.07,4.78,4.78,0,0,0-2.83,2,17,17,0,0,1-3.71,4.38c-.75.64-.93,1.89-1.55,2.71-1.52,2-3.17,3.94-4.72,5.94a27,27,0,0,1-2.46,3.41A59,59,0,0,1,83.23,188.64Zm5.91-73.59c-.07-.83.13-1.72-.22-2.07-1.41-1.4-3-2.59-4.48-4a41.43,41.43,0,0,1-4.06-4.32,5.45,5.45,0,0,0-5.89-1.24c1.26,1.1,2.45,2.12,3.62,3.17a104,104,0,0,1,8.33,7.63C87.37,115.27,87.93,115.19,89.14,115.05ZM76.7,125.57l-.78.15c-.16.49-.55,1-.44,1.46,1.26,4.55,2.55,9.08,4,13.58.21.63,1.13,1,1.88,1.69.16-.64.54-1.29.43-1.84a55,55,0,0,0-1.49-6.24c-.59-1.89-1.45-3.69-2.2-5.53C77.63,127.75,77.16,126.66,76.7,125.57Zm8,92.91c-1.33.06-2.35-.15-2.53.15a36.81,36.81,0,0,0-2.74,5.29c-.15.36.58,1.09.9,1.66.49-.38,1.16-.67,1.43-1.17.59-1.08.94-2.28,1.46-3.4C83.54,220.28,84,219.61,84.68,218.48Zm-24.39-97c.63-1.81.09-2.5-1.39-2.61-.47,0-1.1,0-1.37-.31-1.31-1.39-2.81-.7-4.22-.73v2.08Zm4.28,62.76c-2.36-2-4.35-3.9-7.39-4.33C57.17,182.88,61.65,185.56,64.57,184.24Zm1.68-45.18a11.15,11.15,0,0,0-2.46,2c-.46.65-.82,2-.47,2.46.78,1,1-.34,1.38-.74.11-.11.33-.09.5-.15C67,142,67.28,141.25,66.25,139.06Z"/><path class="cls-1" d="M70.87,347.68c.32-2.2.52-4.4,1-6.54.42-1.85,1.15-3.62,1.75-5.43.22-.64.48-1.27.69-1.91.69-2.06,1.37-4.14,2.06-6.21a3.62,3.62,0,0,0,.31-1c0-2.88,1.35-5.29,2.33-7.87.86-2.25,1-4.76,1.55-7.13.46-1.95,1.1-3.87,1.66-5.8h.48A14,14,0,0,1,83,307.7c0,2.45,0,4.92.1,7.37.06,1.2.57,2.36.73,3.56a5.1,5.1,0,0,1,0,2.64,6.27,6.27,0,0,0,0,5.48,5,5,0,0,1,.22,1.94c0,4.38.16,8.76,0,13.13A58,58,0,0,1,83,348a11.2,11.2,0,0,0,.08,2.05l1.44.21c2.3.3,4.59.71,6.9.87a19.12,19.12,0,0,0,4-.38c1.76-.26,3.37-.56,5.19.33s4.14,1.11,6.2,1.74c6,1.86,12.23.68,18.33,1.34.41,0,.83,0,1.24.05s1.31.16,1.35.36a2.93,2.93,0,0,1-.19,1.88c-1.15,2-2.72,3.62-3.8,5.71-1.31,2.54-3.64,4.54-5.37,6.89-1.39,1.87-2.86,3.74-3.09,6.25-.39,4.41-.6,8.87-1.41,13.21-.51,2.72-2.18,5.15-3.78,7.48-1.24,1.8-2.38,3.66-3.49,5.53-1.23,2.05-2.43,4.12-3.55,6.23-1.37,2.61-2.64,5.29-4,7.91-.39.76-1,1.41-1.35,2.18-1.28,2.94-2.4,6-3.76,8.86-.74,1.59-2,2.95-2.76,4.51-1.12,2.19-3,3.93-3.46,6.57-.33,1.73-1.85,3.2-2.73,4.85-1.14,2.14-2.09,4.38-3.28,6.49-1.33,2.34-2.84,4.58-4.27,6.86-1.07,1.72-2.19,3.42-3.22,5.18-.63,1.06-1.09,2.23-1.68,3.32s-1.27,2.23-2,3.31q-1.47,2.37-3,4.7c-1.13,1.72-2.22,3.47-3.44,5.13-1.44,2-3,3.84-4.5,5.77-.92,1.2-1.84,2.39-2.72,3.62-1.21,1.69-2.41,3.4-3.56,5.13-1.41,2.13-2.76,4.29-4.15,6.42-1.11,1.69-2.32,3.31-3.36,5-.58,1-.79,2.17-1.37,3.15-1.53,2.61-3.19,5.15-4.75,7.75a20.63,20.63,0,0,0-1.31,2.72c-.56,1.31-1,2.68-1.61,4-.46,1-1.08,1.95-1.78,3.21a33.36,33.36,0,0,1-4.55-.06,11.6,11.6,0,0,1-3.3-1.2c-1.49-.7-2.86-1.68-4.39-2.22a44.48,44.48,0,0,0-5.81-1.46c-2.35-.5-4.91-.47-7-1.45A17.94,17.94,0,0,1,4,513.33C2.85,512,1.73,510,2.86,507.72a6.21,6.21,0,0,0,.47-3,17.13,17.13,0,0,1,2.26-8.64c1.13-2.2,1.9-4.59,3-6.83.62-1.31,1.55-2.47,2.28-3.73a36.56,36.56,0,0,0,2.1-4c.68-1.65,1.06-3.43,1.74-5.08s1.49-2.88,2.2-4.34c.39-.8.68-1.65,1.05-2.46.54-1.22,1.09-2.44,1.69-3.63,1-2,2-4,3.1-5.89,1.24-2.17,2.8-4.16,3.19-6.77a11.37,11.37,0,0,1,1.2-2.74c.72-1.6,1.49-3.18,2.14-4.81,1-2.45,1.81-4.95,2.8-7.39.53-1.31,1.27-2.53,1.9-3.79a30.1,30.1,0,0,0,1.37-2.94c.61-1.66,1-3.39,1.69-5s1.34-3,2-4.48a2.64,2.64,0,0,0,.34-.8,12,12,0,0,1,2.35-5.66,1.41,1.41,0,0,0,.19-.68c.15-2.11,1.35-3.79,2.18-5.64a48.18,48.18,0,0,0,1.61-5.11c.64-1.92,1.34-3.82,2-5.73a5.24,5.24,0,0,0,.23-.48c.54-2.16,1-4.34,1.62-6.46.57-1.88,1.36-3.69,2.05-5.53a3.4,3.4,0,0,0,.12-.34c.51-1.92.71-4,1.6-5.71,1.08-2.07.63-4.33,1.34-6.31,1.53-4.24,1.65-8.7,2.57-13a74.79,74.79,0,0,0,1.1-11.3c.09-1.5,1.1-1.71,2.24-1.7,2.57,0,5.15.12,7.73.16C69,347.88,69.72,347.77,70.87,347.68Zm3.45,95.88c-1.35.16-2.9-.09-3.27.46a10.13,10.13,0,0,1-4,3.75c-1.71.85-3.31,1.92-5.23,2-3.83.11-7.67,0-11.51.05a9.64,9.64,0,0,0-1.61.06.93.93,0,0,0-.57.53c-.05.12.16.49.31.54a40.62,40.62,0,0,0,4.64,1.42,29.64,29.64,0,0,0,3.41.13c3.7.34,7.18-.67,10.69-1.57a2,2,0,0,0,.63-.27,21.69,21.69,0,0,0,3.29-2.34C72.32,447.09,74,446.14,74.32,443.56Z"/><path class="cls-1" d="M124.41,330.48c3,0,6,0,9.09,0a3.3,3.3,0,0,1,1.72.79,2.39,2.39,0,0,0,3.57-1.58,14.14,14.14,0,0,0,.18-2c.22-2.33-.41-4.76,1-6.94.35-.53.14-1.41.2-2.13.51-6,.55-12.17,1.72-18.08a50.27,50.27,0,0,0,.72-11.5c-.11-3.75,1.06-7.18,1.6-10.88h5.42c3.18,0,5-1.56,5.6-4.68.12-.57.82-1.06,1.34-1.48.09-.07.73.28.89.56.94,1.61,1.68,3.36,2.74,4.88,1.69,2.38,3.62,4.58,5.37,6.92,1.08,1.45,2,3,3,4.5.85,1.22,1.74,2.41,2.65,3.58a84.52,84.52,0,0,0,6,7.5c1.59,1.61,1.66,3.7,2.46,5.52.35.8-.6,2.46-1.36,3.4-1.45,1.8-2.92,3.87-4.88,4.9s-3.47,2.76-5.22,4.08c-1.1.83-2.09,1.8-3.17,2.65s-2.08,1.49-3.12,2.24c-1.85,1.34-3.8,2.57-5.52,4.06a64.89,64.89,0,0,0-4.57,4.66c-3.07,3.27-6.07,6.63-9.21,9.83s-6,6.87-9.95,9.32a4.21,4.21,0,0,1-2,.81c-6.72.06-13.44.23-20.14-.09-2.6-.12-5.15-1.41-7.73-2.17a4.39,4.39,0,0,0-.52-.13,59.69,59.69,0,0,0-13.79-1.28,28,28,0,0,1-3.27-.24c.4-1,.73-1.78,1-2.56a5.53,5.53,0,0,0,.24-1.57c0-8.45.5-16.94-.14-25.34-.4-5.45-.66-10.91-1-16.37-.11-1.81-1.12-2.44-3.47-2.17-.87,2.52-1.72,5.16-2.71,7.76-.61,1.58-1.5,3.06-2.15,4.64a26.86,26.86,0,0,0-1.36,4.12c-.53,2.2-.86,4.45-1.36,6.67-.23,1-.64,2-1,3.06a4.48,4.48,0,0,0-.16.52c-.47,2.55-.79,5.15-1.45,7.66a52.42,52.42,0,0,1-2.09,5.21,22.78,22.78,0,0,0-1.53,4.67c-.2,1.36-.8,1.79-1.94,1.74-2.57-.1-5.14-.28-7.59-.42-2.29-2.53-1.35-5.67-1.85-8.52-2-11.32-1-22.71-1-34.07a37.42,37.42,0,0,1,.75-4.11,8.48,8.48,0,0,0,0-3.55,11.67,11.67,0,0,1,.07-8.43,6.44,6.44,0,0,0,.2-1.78c.34-3.47-.17-7,1.14-10.42.74-2,.26-4.38.33-6.6a2.94,2.94,0,0,1,3-3.15,6.08,6.08,0,0,0,1.61-.13,3,3,0,0,1,3.61,1.08c2.55,3,5.72,5.3,8.73,7.8,1.45,1.2,2.47,2.91,3.88,4.16,2.32,2,4.77,4,7.23,5.83s5.15,3.8,7.79,5.61a11.62,11.62,0,0,0,10.62,1.33,13,13,0,0,0,5.06-3.65c1.35-1.45,2.15-3.41,3.19-5.14.69-1.14,1.41-2.26,2-3.43a25.38,25.38,0,0,0,1.4-3c.58-1.52,1-3.13,1.65-4.59a2.35,2.35,0,0,1,1.76-1,42.22,42.22,0,0,1,5,.2c2.32.2,3.14,1.2,3.07,3.5-.13,3.84.27,7.77-.45,11.49-1.29,6.59-.39,13.22-1,19.78-.29,3-1.27,5.83-1.9,8.76-.19.93-.24,1.89-.37,2.83-.45,3.28.44,6.62-.73,9.93C123,327,124,328.65,124.41,330.48Zm-10-10.27.86.29a14.78,14.78,0,0,0,1.33-3.08,23.59,23.59,0,0,0,.16-4.29c0-4.87.3-9.78-2.64-14.15-.67-1-1.5-1.28-2.12-.84a2.37,2.37,0,0,0-.17,2.29,13.89,13.89,0,0,1,2.25,6.42c.24,3.51.11,7,.16,10.58C114.22,318.36,114.31,319.28,114.37,320.21Zm49.06-13.87c-1.06-3.06-2.14-6-5.13-7.76-2.12,1.21-2.19,1.28-.7,2.83a14.76,14.76,0,0,1,2.91,3.63C160.86,305.77,161.75,307.53,163.43,306.34Z"/><path class="cls-1" d="M286.3,284.35c.82,1.18,1.38,1.88,1.82,2.65,1,1.66,1.87,3.35,2.78,5q1.68,3.09,3.34,6.19a2,2,0,0,1,.19.68,20.9,20.9,0,0,0,2.34,7.18c.76,1.58.62,3.63,1.51,5.09,1.83,3,1.09,6.47,2,9.67a20.88,20.88,0,0,1,0,9.94c-.38,1.74-2.68,3.31-4.46,4.43a74.42,74.42,0,0,1-7.63,3.67c-2.63,1.27-5.24,2.57-7.86,3.87l-7.14,3.56a1.56,1.56,0,0,1-.33.14c-2.36.45-4.74.82-7.09,1.36-2.93.68-5.83,1.53-8.77,2.22-1,.23-2,.13-3,.27-2.09.31-4.17.68-6.26,1-.24,0-.47.12-.7.14-4.28.45-8.66.49-12.81,1.48-3.32.79-6.78.5-9.91,1.45-2.91.89-5.93.18-8.57,1.1-4.47,1.57-9,.74-13.44,1.13a34.87,34.87,0,0,1-4,0c-1.18,0-1.92-.57-1.92-1.85,0-3.66-.44-7.38.13-10.94a40.6,40.6,0,0,0,.71-7.36,14.07,14.07,0,0,0-.7-4,11.72,11.72,0,0,1,.17-6.86c.93-2.75.49-5.39.44-8.08,0-.31-.89-.9-1.32-.85a34.06,34.06,0,0,0-3.83.85c-.11,0-.22.1-.33.12-2.73.52-5.45,1.1-8.18,1.55-3.37.55-6.77,1-10.14,1.5-1.22.2-2.4.66-3.62.91-.23,0-.59-.26-.78-.5-.06-.07.21-.48.4-.67,1.1-1.12,2-2.68,3.39-3.24,2.17-.92,3.29-2.91,5.13-4.07a1.32,1.32,0,0,1,.88-.13c1.88.36,3.21-.81,4.7-1.59a15,15,0,0,1,2.33-.92c2.28-.76,4.56-1.49,6.84-2.23.11,0,.22-.11.33-.13,2.3-.5,4.62-.9,6.88-1.51,1.8-.48,3.54-1.21,5.3-1.83a3,3,0,0,1,.48-.23c2.45-.51,4.91-1,7.36-1.51,3.71-.78,7.41-1.57,11.11-2.4,1.4-.31,2.77-.8,4.17-1.1,2.58-.55,5.2-.94,7.76-1.55,2.93-.7,5.81-1.54,8.7-2.37a25.7,25.7,0,0,0,4.08-1.36c2.37-1.12,5-.89,7.36-1.61s4.42-.48,6.55-1a46.89,46.89,0,0,0,5.63-2c1.06-.4,2.09-.89,3.17-1.22,1.86-.58,3.76-1,5.61-1.61,2.14-.68,4.23-1.52,6.38-2.15A14.91,14.91,0,0,1,286.3,284.35Z"/><path class="cls-1" d="M183.07,416.66a32.72,32.72,0,0,1,2.17-3.52c.45-.58,1.4-.74,2-1.25,1.74-1.53,3.35-3.19,5.12-4.69,1.5-1.26,3.17-2.33,4.71-3.56s2.69-2.52,4.17-3.6c1.28-.92,2.79-1.53,4.14-2.35,2.26-1.38,4.49-2.79,6.71-4.23,1.6-1,3.16-2.12,4.72-3.21s2.85-2.08,4.3-3.07a24.47,24.47,0,0,1,2.61-1.54c1.93-1,3.89-1.95,6.12-3.07,0,1.73,0,3.26,0,4.79,0,6,.15,12-.16,18-.15,2.66-1.28,5.26-2,7.89a3.18,3.18,0,0,0-.26.85c.09,5.58-2,11-1.18,16.63.19,1.28,1.16,2.7.84,3.77-1.34,4.36-.3,8.92-1.29,13.2-.56,2.4-.74,4.79-1.17,7.16-.47,2.62-1.26,5.17-1.91,7.75,0,.12-.09.28,0,.35,1.85,2.52-.36,4.77-.58,7.13-.26,2.6-1.43,5.11-2,7.7-.34,1.63-.07,3.38-.39,5-1.19,6.06-1,12.2-1.24,18.31-.05,1.2-.89,2.4-1.49,3.54a7.56,7.56,0,0,1-1.73,2.38,11.87,11.87,0,0,1-7.08,2.41,89.44,89.44,0,0,1-14-.34c-2.89-.36-6.29-.4-8.44-2.91-1.58-1.85-3.14-3.92-3.15-6.56,0-8.69,0-17.39.12-26.08,0-1.52.8-3,.8-4.55,0-1.73-1-3.57-.66-5.16,1.5-6.74-.07-13.63,1.14-20.26a65,65,0,0,0,.89-10.35c.05-2-.67-4.07-.86-6.11-.22-2.27-.16-4.55-.33-6.82A33.67,33.67,0,0,0,183.07,416.66Zm15.42,55.45c.5-1.28.95-2.4,1.36-3.54.6-1.69.87-3.58,1.83-5a4.91,4.91,0,0,0,.65-3.9l-1.86.23c-.64,1.49-1.19,2.69-1.66,3.91-.56,1.48-.72,3.26-1.67,4.4-1.15,1.37-.75,2.54-.64,3.92Z"/><path class="cls-1" d="M147.76,66.68a29.94,29.94,0,0,1,4.13,0,47.07,47.07,0,0,1,7.67,1.5,17,17,0,0,1,8.8,6.25c1.61,2.34,4.1,4.25,4.45,7.52.18,1.66,1.36,3.21,2.08,4.82a1.83,1.83,0,0,1,.11.33c.45,2.14.54,4.45,1.44,6.37,1.41,3,.9,6.07,1.3,9.11.21,1.55,1.1,3.24.71,4.59-.94,3.22-.29,6.59-1.08,9.67-.58,2.24-.93,5-3.44,6.46-.2.11-.35.36-.56.4-2.14.5-4.31.91-6.44,1.45-2.49.65-5,1.4-7.43,2.1-.24.07-.47.12-.7.17a47.28,47.28,0,0,0-6.75,1.56c-1.57.59-2.85,1.93-4.29,2.88-1,.67-2.55,2-3.07,1.74-1.58-.92-2.58.49-3.86.45-.55,0-1.12.9-1.67.89a11.71,11.71,0,0,1-10-5,88.68,88.68,0,0,1-4.68-7.93,17.83,17.83,0,0,1-1.45-3.43c-.61-1.93-1.07-3.91-1.6-5.86a21.55,21.55,0,0,1-1.12-7.46,47.74,47.74,0,0,1,2.25-11.79,2.17,2.17,0,0,0,.07-.35c.49-2.51.84-5,1.51-7.5a28.22,28.22,0,0,1,2-4.17c.57-1.25,1-2.57,1.65-3.78a32.11,32.11,0,0,1,5.68-7.41c1.57-1.58,3.39-2,5.31-2.67C141.79,66.49,144.77,66.84,147.76,66.68Z"/><path class="cls-1" d="M70.42,66.66a7.28,7.28,0,0,1,2.29.38c2.22,1.3,4.34,1.07,6-.8,1-1.1.66-4.16-.36-5.67a27.36,27.36,0,0,1-1.6-3.47c-.33-.65-.81-1.23-1.19-1.86a20.82,20.82,0,0,1-2.11-3.79,4.34,4.34,0,0,1,.21-3.05c.35-.67.83-2,2.19-1.49a5.54,5.54,0,0,1,1.37.91,32.77,32.77,0,0,1,3.09,2.66,6.32,6.32,0,0,1,1.24,2.26,16.56,16.56,0,0,1,.4,2.74,45.36,45.36,0,0,0,6.4-.12c.55-.08,1.17-1.61,1.27-2.52.37-3.52.65-7.1,3.59-9.56A30.6,30.6,0,0,1,98,40.61a40.48,40.48,0,0,1,6.9-2.7,38,38,0,0,1,10.53-2.35,8,8,0,0,0,2.26-1c.42,1.32,1.22,2.65,1.21,4-.07,4.67,2.55,8.12,4.78,11.8a16.22,16.22,0,0,1,1.62,4c.66,2.3-1.64,2.62-2.75,3.56-1.91,1.62-3.18,3.42-3.27,6s-.18,5-.31,7.52c0,.38-.34.74-.42,1.14-.19.87-.67,1.9-.39,2.61,1.52,3.92,1.21,5.3-2,7.64a14.82,14.82,0,0,1-5.17,2.76A22.53,22.53,0,0,0,105.85,88c-1.73,1-2,4.34-.88,6.08s1.91,3.76,2.94,5.6c.83,1.49,1.83,2.88,2.73,4.34.73,1.16,1.88,2.29,2,3.54.68,5.1,1,10.24,1.56,15.36.1,1,.51,1.9.65,2.87.07.5,0,1.34-.24,1.51a1.76,1.76,0,0,1-1.61-.09c-1.27-1.1-3.08-2.17-3.43-3.57-.72-2.84-3.41-4-4.51-6.53s-3.43-4.69-5.15-7c-1.18-1.63-2.2-3.37-3.36-5-1.42-2-2.86-4-4.36-5.88C90,96.3,87.8,93.43,85.44,90.7c-1.63-1.9-3.5-3.59-5.29-5.36-1-1-2.11-1.83-3-2.88-1.54-1.77-3-3.64-4.42-5.51a3.68,3.68,0,0,1-.84-1.73c-.22-2.5.42-5.14-1.31-7.38C70.41,67.65,70.48,67.28,70.42,66.66Z"/><path class="cls-1" d="M83.11,529.07a39.23,39.23,0,0,0,4.31,1.22c1.76.28,3.59.2,5.35.51,3,.51,5.92,1.31,9,1.23,2-.06,3.34-1,4.76-1.89C108.5,529,110,527,111.94,526c1.13-.58,2.88,0,4.33.16.31,0,.56.51.87.56,3.37.58,6.94.62,10.08,1.82,2.86,1.09,6,0,8.65,1.8a6.3,6.3,0,0,0,2.63.43,4.66,4.66,0,0,1,4.15,4.15c.19,3,1.35,5.63,2.32,8.38a54.61,54.61,0,0,1,1.53,6.92,3.08,3.08,0,0,0,0,.53c.63,2-.17,3.66-1.82,4.19s-3.59.15-5.4,0a7.82,7.82,0,0,1-2.13-.7l-6-2.17c-1.5-.54-3-1.07-4.52-1.62-1.87-.67-3.71-1.4-5.6-2a7.63,7.63,0,0,0-2.28-.34c-5.39,0-10.8.16-16.17-.19-2.58-.16-5.11-1.3-7.62-2.09a10.13,10.13,0,0,1-3.19-1.48A21.09,21.09,0,0,1,88,540.66c-1.45-2-2.35-4.37-4-6.15C82.54,532.89,83.09,531.36,83.11,529.07Z"/><path class="cls-1" d="M157.44,248.26c-3.34-1.55-6.36-3-9.66-2.19a12,12,0,0,0-4.69,2.9c-.54.48-.28,1.86-.43,3.34,1.11-.67,2-.92,2.37-1.5.81-1.44,2.15-1.39,3.4-1.48a30.67,30.67,0,0,1,3.95.12c.78.05,1.53.12,1.64,1.24a1.61,1.61,0,0,0,1,1.14c1.77.31,1.43,1.63,1.47,2.76s.07,2.34-1.6,2.64c-.41.08-.87,1.12-.88,1.73a9.18,9.18,0,0,0,.55,2.42c-.47,1-1.37,2.06-1.33,3.08s1,2.09,1.76,3.51a35.53,35.53,0,0,0-3,2.69,3.06,3.06,0,0,0-.54,1.87c-.11,3.23-.14,3.25-3.39,3.18a9,9,0,0,1-5.81-2.16,1.48,1.48,0,0,0-.5-.21c-1.81-.55-3.64-1-5.44-1.65a13.86,13.86,0,0,1-1.93-1,57.72,57.72,0,0,0-7-2.73c-1.78-.65-3.65-.36-5.21-1.07-3-1.37-6-1-9.1-1.11a4,4,0,0,1-1.1-.39c.18-.31.38-.61.55-.93,1-1.83,1.92-3.72,3-5.49a23.56,23.56,0,0,1,2.65-3.2c2.39-2.63,4.77-5.29,7.29-7.8a3.6,3.6,0,0,1,2.5-.77,6.16,6.16,0,0,0,5.34-1.93c1.07-1.1,3-1.34,4.59-1.93a10.48,10.48,0,0,1,3.09-1,59.82,59.82,0,0,1,10.37.07,10.21,10.21,0,0,1,6.09,3.5C157.77,246.29,157.44,247.34,157.44,248.26Z"/><path class="cls-1" d="M34.59,548l-.31-2.16c-1.32-.21-2.58-.78-3.67.72-.26.36-1.31.15-2.09.21l-.43-2.13h-2l-.73,2.3c-.86-.72-1.61-1.26-2.26-1.9a2.33,2.33,0,0,0-3.2-.48c-2.14,1.52-3.94,1.52-5.17-.57-.8-1.37-1.73-1.07-2.64-.72-1.38.52-2.15.11-2.52-1.28-.65-2.37-1.5-4.69-2.27-7a24.22,24.22,0,0,1-1.15-3.53c-.72-4.27-1.31-8.57-2-12.86L4.9,518c.78.37,1.56.76,2.36,1.09a30.39,30.39,0,0,0,3.89,1.52c2,.53,4.14.75,6.16,1.3,2.2.6,4.3,1.58,6.52,2.12,2.75.68,4.8,3,7.89,3,1.38,0,2.52,1.14,2.85,2.89a21.53,21.53,0,0,0,1.63,4.09c.7,1.72,1.53,3.4,2.06,5.16a26.41,26.41,0,0,1,1.17,5.61c.21,2.84-.73,3.58-3.62,3.32C35.45,548.12,35.1,548.06,34.59,548Z"/><path class="cls-1" d="M387.57,509.35a31.29,31.29,0,0,1,1.56,3.15c.93,2.57,1.55,5.29,2.7,7.76a27.91,27.91,0,0,1,2.35,14.54,5.53,5.53,0,0,1-4.91,4.58,37.91,37.91,0,0,1-7-.09c-2-.32-3.88-1.35-5.82-2.06a2.41,2.41,0,0,0-.85-.21c-2.81.1-4.93-1.68-7.16-2.89-1.31-.72-2-2.57-3-3.91l-.8-1a2.42,2.42,0,0,1,.5-3.3c2.14-1.63,4.21-3.36,6.43-4.87s4.48-2.76,6.72-4.15a6.41,6.41,0,0,0,1.55-1.16C381.91,513.31,385.07,512.3,387.57,509.35Z"/><path class="cls-1" d="M238.44,529.35c-3.32-.41-6.78-.67-10.18-1.31a66.37,66.37,0,0,1-6.54-2.12c-1.95-.59-4-.95-5.92-1.56s-4-1.47-6-2.12c-1.81-.59-3.72-.88-5.47-1.58-2.83-1.13-6-.52-8.66-1.5-3-1.11-5.9-.81-8.84-.8-1.47,0-2.54-.68-2.72-1.68a17.23,17.23,0,0,1,0-5.82,1.85,1.85,0,0,1,2.87-1.12c1.48,1.17,3.12,1,4.7,1.21,4.38.45,8.77.88,13.17,1a19.23,19.23,0,0,0,6.09-1c2.08-.66,3.3,1,4.95,1.4,1.32.35,2.46,1.38,3.76,1.9,2.66,1.05,5.42,1.88,8.06,3,2.18.92,4.21,2.16,6.36,3.15,1.28.59,2.75.8,4,1.46a24.16,24.16,0,0,1,4.83,3.18,3.16,3.16,0,0,1,.44,2.79c-.23.67-1.32,1.22-2.13,1.46A10.24,10.24,0,0,1,238.44,529.35Z"/><path class="cls-1" d="M119.09,240.19c-.89-1.45.86-2,1.61-2.78,1.69-1.65,3.78-2.89,5.5-4.5,2.94-2.76,5.8-5.62,8.54-8.57.81-.87,1.07-2.28,2.31-2.2,1.42,2.32,2.76,4.39,4,6.53.68,1.21,1.07,2.58,1.73,3.8A32.69,32.69,0,0,0,145,236a1.93,1.93,0,0,1-.56,2.66,7.21,7.21,0,0,1-2.49.81,21.4,21.4,0,0,0-9.77,3c-2.92,1.71-5.59.66-8.36.73-.71,0-1.45-.8-2.17-1.25S120.16,240.9,119.09,240.19Z"/><path class="cls-1" d="M115.52,106.74c1.55-.4,2.16.1,2.46,1.67.51,2.62,1.36,5.19,2.09,7.77.45,1.61.86,3.25,1.45,4.82s1.38,3,2.08,4.47c.51,1.09,1.09,2.15,1.52,3.27,1.22,3.14,3.73,5.26,5.84,7.71a20.42,20.42,0,0,1,2.57,4.17c.17.34-.24,1.23-.63,1.55a6.66,6.66,0,0,1-5.63,1.57c-.71-.16-1.31-1-1.86-1.67q-3.64-4.12-7.21-8.32a2.19,2.19,0,0,1-.34-1.15c-.42-3.94-.86-7.88-1.23-11.83-.18-2-.15-4-.35-5.91-.23-2.32-.63-4.62-.92-6.93A4.8,4.8,0,0,1,115.52,106.74Z"/><path class="cls-1" d="M56.68,262.14c-3.43.44-6.31-1-9.1-2.69a6.51,6.51,0,0,1-2.88-4.64c-.3-1.88-.79-4,.68-5.84.31-.39,0-1.2.21-1.75.42-1.25.66-2.78,1.53-3.61,1.14-1.09,2,.79,2.13,1.26.59,2.09,2.16,3.39,3.41,5,1.48,1.87,2.82,3.86,4.3,5.72s2.88,3.38,4.29,5.08c.23.28.5.8.39,1a1.34,1.34,0,0,1-1,.47C59.31,262.18,58,262.14,56.68,262.14Z"/><path class="cls-1" d="M115.06,268.27c1.17,2.55-.82,4.24-1.36,6.25a15.53,15.53,0,0,1-2,3.72,56.51,56.51,0,0,1-3.52,5.59,15,15,0,0,1-3.74,3.45,9,9,0,0,1-3.75,1c-.43,0-1.32-.67-1.32-1.05a5.22,5.22,0,0,1,.64-2.69c.86-1.46,2.05-2.72,2.93-4.18,1.1-1.83,2-3.77,3-5.65a26.09,26.09,0,0,1,2.27-4C109.93,268.57,112.39,268.14,115.06,268.27Z"/><path class="cls-1" d="M137.77,137.31l1.26.88a6.14,6.14,0,0,1-1.59.69c-.27,0-.61-.47-.92-.73Z"/><path d="M181.33,382.55c-.36-1.6.34-2,1.54-2.61,2.21-1.17,4.51-.61,6.72-1.06s4.55-1.36,6.82-2.06a7.29,7.29,0,0,0,.83-.26l5.39-2.33a2.51,2.51,0,0,1,.86-.2c2.13-.18,3.89-1.26,5.72-2.24,1.3-.7,2.81-1,4.18-1.56s2.86-1.37,4.28-2.07a4,4,0,0,1,.66-.24c1.88-.55,3.79-1,5.63-1.65,1.63-.59,3.15-1.47,4.77-2.08a3,3,0,0,1,1.89.05c.22.07.44.92.28,1.24a2.52,2.52,0,0,1-1.2,1c-1.74.78-3.51,1.49-5.27,2.22a1.89,1.89,0,0,1-.52.13c-2.46.24-4.56,1.4-6.73,2.47-1.37.68-3,.91-4.4,1.48-2.23.9-4.41,1.93-6.63,2.88-1.51.65-3.05,1.25-4.57,1.89l-5.52,2.33a2,2,0,0,1-.34.12c-2.71.49-5.42,1-8.14,1.47-1.44.24-3.05-.37-4.28,1C183,382.82,182.06,382.55,181.33,382.55Z"/><path d="M267.61,378.75c1.05.59,2.07,1.07,3,1.69,2.37,1.59,4.67,3.3,7,4.87,3.76,2.49,7.58,4.88,11.34,7.35,2.9,1.91,5.69,4,8.66,5.8,1.92,1.17,4.09,1.94,6.11,3a26.94,26.94,0,0,1,2.74,1.81c-.76.85-.89,1.6-2.79,1-3.27-1.12-5.83-3-8.55-4.89-2.37-1.65-5.08-2.8-7.54-4.33-2-1.22-3.75-2.71-5.65-4-1.05-.71-2.21-1.26-3.26-2-2.23-1.51-4.41-3.09-6.65-4.6-1-.67-2.06-1.23-3.11-1.82C267.64,381.83,266.65,381,267.61,378.75Z"/><path d="M195,370.68a9,9,0,0,1-8.91,1.14,11,11,0,0,0-3.17-.24c-1.44-.06-2.88,0-4.31-.13-4.83-.43-9.65-.85-14.47-1.41a29.47,29.47,0,0,1-5.44-1.29c-.41-.12-.74-.94-.81-1.48,0-.25.66-.88,1-.84a21.62,21.62,0,0,1,2.8.7q1.37.33,2.76.57c5.26.94,10.66.8,15.88,1.59a119.35,119.35,0,0,0,12,.89A22.18,22.18,0,0,1,195,370.68Z"/><path d="M129.23,431.9a25.18,25.18,0,0,1,2.27,1.87c2.15,2.19,3.92,4.93,6.43,6.53,3.64,2.33,5.86,6,9.26,8.52.42.3.32,1.33.46,2-.74,0-1.72.23-2.19-.14-2-1.59-3.46-3.78-5.86-5-.7-.34-.87-1.64-1.55-2.11-3.22-2.2-5.48-5.3-8-8.13-.37-.41-1.12-.5-1.46-.93a2.87,2.87,0,0,1-.62-1.72C127.94,432.57,128.66,432.3,129.23,431.9Z"/><path d="M161.38,357.71c-.35-1.81.24-2.56,1.92-2.45a15.54,15.54,0,0,0,3.41,0c2.63-.43,5.47-.55,7.79-1.68,2-1,3.68-.64,5.55-.78.32,1.69-.16,2.23-1.75,2.51-2.92.51-5.75,1.47-8.62,2.2a9.51,9.51,0,0,1-2.13.22C165.53,357.73,163.5,357.71,161.38,357.71Z"/><path d="M128.46,151.71l-1.82-.94c.38-.56.64-1.3,1.16-1.66a36.65,36.65,0,0,1,4.33-2.62,20.72,20.72,0,0,1,3.52-1.33c1.67-.52,3.56-.61,5-1.47,1.87-1.12,3.85-.82,5.75-1.27s3.71-1.46,5.6-2.08,3.56-.84,5.29-1.43c1.88-.63,3.69-1.46,5.52-2.24,1.09-.46,2.14-1,3.22-1.46,1.78-.81,3.54-1.67,5.36-2.39a3,3,0,0,1,1.87,0c.23.07.48.88.34,1.17a2.7,2.7,0,0,1-1.17,1.07c-2.53,1.29-5.42,1.66-7.8,3.41-1.15.85-2.78,1-4.18,1.58-1.82.7-3.63,1.46-5.44,2.19a4.09,4.09,0,0,1-.49.18,41.65,41.65,0,0,0-6.45,1.46c-3.44,1.34-7.15,1.65-10.55,3.34-2,1-4.29,1.78-6.36,2.84C130.24,150.57,129.39,151.15,128.46,151.71Z"/><path d="M179.21,207.11c1.51.57,3,1.08,4.45,1.69,1.61.69,3.2,1.42,4.75,2.22,2.54,1.31,5,2.7,7.56,4.06l4.11,2.23a6.8,6.8,0,0,1,2.08,1.2,1.94,1.94,0,0,1,.07,1.89,2.16,2.16,0,0,1-1.93.18c-1.63-.63-3.19-1.43-4.76-2.21-.33-.17-.5-.66-.83-.83-1.87-1-3.8-1.85-5.64-2.9-2.65-1.5-5.8-2.11-8-4.42a1.3,1.3,0,0,0-.8-.31C178.79,209.76,178.46,209,179.21,207.11Z"/><path d="M229.48,268c.49-1.12.83-1.86,1.12-2.6a2.53,2.53,0,0,0,.33-1.2c-.44-2.67.92-5,1.59-7.4.49-1.78,1.8-3.35,2.82-5,.52-.84,1.33-1.52,1.77-2.39,1-1.93,2.23-1.36,3.45-.84l-3.4,6.29c-1.06,2-2.2,3.88-3.14,5.89a15.26,15.26,0,0,0-.51,2.77c-.3,1.16-.8,2.26-1.06,3.43C232.09,268.56,231.05,268.05,229.48,268Z"/><path d="M188.41,273.48l-3.61-1.24-.16-.06c-2.25-.51-4.5-.95-6.72-1.55a15.61,15.61,0,0,1-3.33-1.38c-1.52-.83-3-1.79-4.63-2.8,1.47-1.37,2.81-1,4.07-.56,1.08.35,2.06,1,3.11,1.41.82.34,1.68.58,2.5.89a13.32,13.32,0,0,0,2,.83,38.56,38.56,0,0,0,4.41.58C188.38,269.76,189.08,270.64,188.41,273.48Z"/><path d="M122.89,164.06c2.13-.5,2.83-.17,3.46,1.95a22.5,22.5,0,0,1,1.2,5.61,20.14,20.14,0,0,1-1.94,8.6c-.57,1.33-1,2.58-2.48,3.48-.28-1.67-.79-3.13.54-4.43a.58.58,0,0,0,.16-.31c.46-2.47,1.29-5,1.24-7.42,0-1.83-1.23-3.63-1.85-5.46A12.51,12.51,0,0,1,122.89,164.06Z"/><path d="M132.22,183.64h1.72c.05,1.54.56,3.06-.79,4.35-.26.25-.23.78-.37,1.17-.69,1.89-1.37,3.77-2.08,5.65-.53,1.4-1,2.8-1.69,4.15a8.22,8.22,0,0,1-1.45,2c-.07.08-1.07-.37-1.11-.65a4.63,4.63,0,0,1,.22-2.12c.79-2.19,1.69-4.35,2.52-6.53C130.17,189.12,131.12,186.55,132.22,183.64Z"/><path d="M96.7,224.44c.49-1.42,1-2.42,2.49-2.29,2.18.2,4.35-.34,6.54,1.06a4,4,0,0,0,4.91-.62c.26-.28,1.3,0,1.88.31a1.92,1.92,0,0,1-.23,1.49,8.06,8.06,0,0,1-3.36,1.52c-2.18.14-4.46.6-6.47-1.09-.62-.51-2-.15-3-.2Z"/><path d="M89.14,115.05c-1.21.14-1.77.22-2.7-.8a104,104,0,0,0-8.33-7.63c-1.17-1.05-2.36-2.07-3.62-3.17a5.45,5.45,0,0,1,5.89,1.24A41.43,41.43,0,0,0,84.44,109c1.45,1.38,3.07,2.57,4.48,4C89.27,113.33,89.07,114.22,89.14,115.05Z"/><path d="M76.7,125.57c.46,1.09.93,2.18,1.37,3.27.75,1.84,1.61,3.64,2.2,5.53a55,55,0,0,1,1.49,6.24c.11.55-.27,1.2-.43,1.84-.75-.65-1.67-1.06-1.88-1.69-1.42-4.5-2.71-9-4-13.58-.11-.41.28-1,.44-1.46Z"/><path d="M84.68,218.48c-.67,1.13-1.14,1.8-1.48,2.53-.52,1.12-.87,2.32-1.46,3.4-.27.5-.94.79-1.43,1.17-.32-.57-1-1.3-.9-1.66a36.81,36.81,0,0,1,2.74-5.29C82.33,218.33,83.35,218.54,84.68,218.48Z"/><path d="M60.29,121.48l-7-1.57v-2.08c1.41,0,2.91-.66,4.22.73.27.28.9.27,1.37.31C60.38,119,60.92,119.67,60.29,121.48Z"/><path d="M64.57,184.24c-2.92,1.32-7.4-1.36-7.39-4.33C60.22,180.34,62.21,182.28,64.57,184.24Z"/><path d="M66.25,139.06c1,2.19.78,2.95-1,3.56-.17.06-.39,0-.5.15-.42.4-.6,1.71-1.38.74-.35-.44,0-1.81.47-2.46A11.15,11.15,0,0,1,66.25,139.06Z"/><path d="M74.32,443.56c-.32,2.58-2,3.53-3.22,4.74a21.69,21.69,0,0,1-3.29,2.34,2,2,0,0,1-.63.27c-3.51.9-7,1.91-10.69,1.57a29.64,29.64,0,0,1-3.41-.13,40.62,40.62,0,0,1-4.64-1.42c-.15-.05-.36-.42-.31-.54a.93.93,0,0,1,.57-.53,9.64,9.64,0,0,1,1.61-.06c3.84,0,7.68.06,11.51-.05,1.92-.06,3.52-1.13,5.23-2a10.13,10.13,0,0,0,4-3.75C71.42,443.47,73,443.72,74.32,443.56Z"/><path d="M114.37,320.21c-.06-.93-.15-1.85-.17-2.78,0-3.53.08-7.07-.16-10.58a13.89,13.89,0,0,0-2.25-6.42,2.37,2.37,0,0,1,.17-2.29c.62-.44,1.45-.14,2.12.84,2.94,4.37,2.6,9.28,2.64,14.15a23.59,23.59,0,0,1-.16,4.29,14.78,14.78,0,0,1-1.33,3.08Z"/><path d="M163.43,306.34c-1.68,1.19-2.57-.57-2.92-1.3a14.76,14.76,0,0,0-2.91-3.63c-1.49-1.55-1.42-1.62.7-2.83C161.29,300.29,162.37,303.28,163.43,306.34Z"/><path d="M198.49,472.11h-2c-.11-1.38-.51-2.55.64-3.92,1-1.14,1.11-2.92,1.67-4.4.47-1.22,1-2.42,1.66-3.91l1.86-.23a4.91,4.91,0,0,1-.65,3.9c-1,1.44-1.23,3.33-1.83,5C199.44,469.71,199,470.83,198.49,472.11Z"/></g></g></svg>