<svg xmlns="http://www.w3.org/2000/svg" viewBox="0 0 429.08 429.31"><defs><style>.cls-1{fill:#fff;}</style></defs><g id="Layer_2" data-name="Layer 2"><g id="Layer_1-2" data-name="Layer 1"><path class="cls-1" d="M158.49,404.88c0,3.15,0,6.08,0,9,0,1.59-.15,3.1,1,4.59s2.72,2.71,4.7,2.75c5.81.13,11.63.1,17.44.15,1,0,2.26-.26,3,.21,2.45,1.53,5.09.82,7.65,1.06a9.52,9.52,0,0,1,1.77.22c2.67.72,5.3,1.55,8,2.21,2.53.62,5.1,1.07,7.66,1.6a2.24,2.24,0,0,1,.34.11c2.07.72,4.14,2.09,6.19,2,7.41-.14,14.93,1.69,22.2-1.07a17,17,0,0,0,3.85-1.65c2-1.45,3.87-3.14,5.75-4.78,2.85-2.47,4.62-5.71,6.16-9.06a5.87,5.87,0,0,1,5.23-3.64c1.67-.05,3.35-.06,5-.06,7.56,0,15.11-.17,22.66,0s15-.76,22.54,1c4.34,1,9.07.46,13.62.3a49.92,49.92,0,0,0,7.41-1.27c2.64-.51,5.27-1.08,7.9-1.62a3.42,3.42,0,0,0,.34-.13c1.87-.7,3.76-1.35,5.61-2.11s3.57-1.49,5.29-2.37c1.57-.8,3-1.84,4.58-2.67,1.87-1,3.87-1.75,5.68-2.83,2.95-1.76,5.78-3.7,8.68-5.53a1.62,1.62,0,0,1,1.25-.28,18.13,18.13,0,0,0,8.46,2.14,31,31,0,0,0,5.54-.34c2.52-.52,4.93-1.57,7.44-2.1a25.41,25.41,0,0,0,7.42-2.46c2-1.15,4.4-1.73,6.52-2.76a35.41,35.41,0,0,0,5.35-3.15,36.43,36.43,0,0,0,5.1-4.42,54.67,54.67,0,0,0,4.24-5.44,40.13,40.13,0,0,0,2.21-3.53,36.88,36.88,0,0,0,2.66-4.95,55.46,55.46,0,0,0,1.6-5.92c0-.11.05-.23.08-.34.77-2.75,2-5.47,2.2-8.27.38-4.4.13-8.86.1-13.3a5.52,5.52,0,0,0-.44-1.66c-.66-1.81-1.37-3.6-2-5.41a31.14,31.14,0,0,0-1.71-4.66c-1.39-2.44-3.37-4.57-4.54-7.09a23.63,23.63,0,0,0-4.14-6.07c-.67-.73-1.41-1.4-2.05-2.14-2.88-3.31-5.39-6.88-9-9.54a15.72,15.72,0,0,0-8.38-3.43c-1.85-.12-3.72,0-5.58-.08-2.56-.17-4.59.94-6.65,2.28a7.36,7.36,0,0,1-3.8,1.33,10.85,10.85,0,0,1-4-1.38c-1.24-.57-2.35-1.44-3.61-2-2.25-.95-4.53-1.84-6.86-2.56-1.13-.35-2.4-.4-2.26-1.94a14,14,0,0,1,.85-3.28c.52-1.47,1.17-2.88,1.72-4.33a10.16,10.16,0,0,0,.77-2.46,7.57,7.57,0,0,0-.14-3.08,22.49,22.49,0,0,0-1.84-3.54c-1-1.86-2-3.75-3.06-5.59-1.5-2.6-3.08-5.16-4.6-7.76a19.57,19.57,0,0,1-1.23-2.57c-.64-1.59-1.19-3.21-1.79-4.81a35.87,35.87,0,0,1-2.11-5.75c-.71-3.81-1-7.7-1.54-11.55a3.09,3.09,0,0,0-.09-.53c-.74-2.85-1.61-5.68-2.21-8.56s-1-5.88-1.42-8.82a1.37,1.37,0,0,0-.08-.35A48.08,48.08,0,0,1,345,213.4c-.53-2.1-.22-4.26-1.32-6.41-1.36-2.64-1.55-5.87-2.89-8.53a11.24,11.24,0,0,1-1-4.52c-.11-1.62-.08-3.24-.15-4.86a5.05,5.05,0,0,0-.31-1.36,19.14,19.14,0,0,1-.9-2.57c-.21-1.17,0-2.42-.33-3.56-.65-2.53-1.59-5-2.22-7.53s-1-5.38-1.61-8.06c-.3-1.41-.74-2.78-1.13-4.17-.06-.23-.16-.44-.24-.66-.69-2.1-1.47-4.19-2-6.33-.33-1.25-.23-2.61-.48-3.89-.22-1.12-.8-2.18-1-3.31-.35-2.31-.31-4.62-.87-7-.85-3.57-.38-7.4-1.62-11-.79-2.34-.61-5-1.58-7.28a21.65,21.65,0,0,1-1.2-4.25,28.35,28.35,0,0,0-1.35-4.12,44.6,44.6,0,0,1-2.09-5.11c-.77-3-1.62-5.84-3.78-8.29s-3.53-5.22-5.43-7.73a26.53,26.53,0,0,0-6.67-5.91c-1.08-.72-2.68-1-3.35-1.9-.88-1.25.16-2.56,1.12-3.6,0,0,0-.12,0-.18.42-3.08.85-6.17,1.27-9.25a6.66,6.66,0,0,1,.17-1.43,50.8,50.8,0,0,1,2.52-6.52,14.77,14.77,0,0,0,1.32-4.77c.22-1.31.81-3,1.8-3.62a10.4,10.4,0,0,0,2.6-2.84c1.15-1.44,2.62-2.61,3.9-3.95,1.57-1.66,2.2-5.43,1.4-7.2s-1.48-3.59-2.19-5.39c-.51-1.31-.92-2.66-1.47-4-.73-1.71-1.49-3.41-2.35-5.06a30.23,30.23,0,0,0-3.19-5.43,74.86,74.86,0,0,0-6-5.84,49.08,49.08,0,0,0-4.72-4.31c-2.48-1.81-4.51-4.19-7.44-5.43-2.17-.92-4.09-2.4-6.22-3.43A13.29,13.29,0,0,0,280,1.66c-4.36-.53-8.58-2.07-13.1-1.54a25,25,0,0,1-7.53,0c-3.28-.62-5.17,1.83-7.51,3-3.06,1.53-5.66,4-8.37,6.22a16.55,16.55,0,0,0-3.17,3.36,23.52,23.52,0,0,0-1.61,3.69c-.43,1-.89,1.9-1.39,2.83a23.71,23.71,0,0,0-2,3.72c-.71,2.26-1.11,4.61-1.64,6.93,0,.23,0,.48-.12.7-.77,2.41-1.55,4.82-2.31,7.23-.55,1.74-1,3.51-1.63,5.24a22.32,22.32,0,0,1-1.32,3.11A28,28,0,0,1,226,49.76a3.26,3.26,0,0,1-1.93,1.4c-1.69.1-3.33.1-4.63,1.38a50.63,50.63,0,0,0-4.69,4.69,42.38,42.38,0,0,0-3.52,5.83c-.66,1.21-1.12,2.53-1.69,3.78-.34.76-.7,1.51-1.1,2.23-.91,1.64-1.85,3.26-2.78,4.88-1,1.78-2.11,3.52-3.1,5.31-1.14,2-2.22,4.13-3.29,6.21-.61,1.2-1.11,2.46-1.74,3.66-1.08,2.06-2.32,4.05-3.31,6.16s-1.8,4.62-2.87,6.85-2.38,4-3.31,6.12a75.62,75.62,0,0,0-2.65,7.54c-.92,2.9-1.48,5.89-2.54,8.78a74.64,74.64,0,0,0-2.58,10.51c-.45,2.1-.57,4.22-1.1,6.36a57.67,57.67,0,0,0-1.3,11.69c-.26,6-.05,12-.36,18-.25,5-.95,10.09-1.47,15.13A1.82,1.82,0,0,1,174,188a21.21,21.21,0,0,1-4.3-.16c-2.92-.64-5.33,1.3-8.08,1.35a.55.55,0,0,0-.33.12,28.23,28.23,0,0,0-6.64,7.8,17,17,0,0,0-1.16,2.86,37.06,37.06,0,0,1-1.81,5.26c-1.11,2.12-2.4,4.1-2.28,6.63a3.74,3.74,0,0,1-.25,1.21c-.7,2.48-1.48,4.93-2.08,7.43-.29,1.21,0,2.56-.4,3.74-.55,1.84-1.66,3.55-2,5.41-.48,2.34-.43,4.72-1.23,7.08-.85,2.52-.72,5.34-1.19,8a127.88,127.88,0,0,1-2.67,12.52c-.7,2.48-.21,5.17-1.32,7.76-.95,2.24-.87,4.91-1.3,7.38a1.18,1.18,0,0,1-.65.85c-.23.06-.69-.29-.85-.58-.86-1.49-2.17-2.59-2.91-4.28-1-2.3-3-4.17-4.48-6.26-1.25-1.74-2.4-3.55-3.63-5.31-1.37-2-2.8-3.9-4.2-5.85-.42-.58-.88-1.13-1.25-1.74-1-1.69-1.91-3.47-3-5.1-1.41-2.09-3.12-4-4.43-6.14-1.58-2.6-2.67-5.52-4.36-8-2.66-4-5.66-7.69-8.48-11.55A26.51,26.51,0,0,1,97.29,216,30.77,30.77,0,0,0,95,212.27a74.07,74.07,0,0,0-5.32-6.14,46.58,46.58,0,0,0-6.11-5.39,41.62,41.62,0,0,0-6.13-3.14c-2.47-1.18-5-2.22-7.82-2-3.94.24-8-.74-11.78,1.06a24.39,24.39,0,0,0-4.2,2.37,33.61,33.61,0,0,0-4.65,4.1,64.44,64.44,0,0,0-4.42,5.58,29.73,29.73,0,0,0-2.12,3.4c-1.32,2.43-2.93,4.77-2.83,7.72a2.42,2.42,0,0,1-.11.89c-.73,2-1.95,4-2.13,6.14-.32,3.77-.71,7.51-1.21,11.27a84.72,84.72,0,0,0-.25,11.5c0,2.82-.35,5.8.45,8.4.92,3,.45,5.88.7,8.8a18.39,18.39,0,0,1,0,3.06c-.44,5.07.53,10.15-.8,15.28-1,3.7-.44,7.73-1.59,11.53a74,74,0,0,0-1.55,7.9.85.85,0,0,1,0,.17,25.92,25.92,0,0,0-2.43,8.64,16.67,16.67,0,0,1-1.59,5.06c-1.3,2.67-1.05,3.82,1.11,5.94A38.16,38.16,0,0,0,37,329.7c.41.25.67.81,1.09,1,1.82.64,3.68,1.18,5.81,1.84-1.06,6.83.79,13.91-1.23,21-.75,2.62-1.1,5.3-3,7.3a12.18,12.18,0,0,1-4.46,3c-1.54.56-3.25.5-4.92,1.1-2.71,1-5.73,1-8.58,1.65a36.79,36.79,0,0,0-4.78,1.7,15.48,15.48,0,0,0-2.5,1c-1.93,1.13-3.68,2.73-5.75,3.44-2.57.9-4.42,2.75-6.6,4.12-2.55,1.61-2.71,5.55-.66,7a8,8,0,0,0,4.13,1.57c5.21.21,10.43.14,15.64.14a5.73,5.73,0,0,0,1.73-.35c2.09-.69,4.17-2,6.25-2,7.3,0,14.62-1.1,21.94.88,4.4,1.19,9.15,1.08,13.73,1.58a17.88,17.88,0,0,1,1.89.45,2.72,2.72,0,0,0,1,.12,18.14,18.14,0,0,0,3.85-.67c1-.35,2.37-1,2.6-1.81a59.72,59.72,0,0,0,1.37-7.8c.4-2.83-1-5.47-1.12-8.17-.27-7.42-.11-14.85-.08-22.28,0-2,.17-2.08,1.9-1.75.67,1.1,1.24,2,1.78,2.9,1.4,2.39,2.81,4.77,4.18,7.18.4.69.67,1.44,1,2.15.7,1.37,1.38,2.75,2.15,4.08.91,1.59,1.9,3.14,2.86,4.69a30.71,30.71,0,0,0,2,3.19c1.49,1.83,3,3.62,4.68,5.32,2,2,4,4,6.1,5.93a1.83,1.83,0,0,1,.56,2.42,10,10,0,0,0-.09,3.93,6.81,6.81,0,0,0,.8,2,10.45,10.45,0,0,0,1,2,28.61,28.61,0,0,0,2.79,3.33,54.69,54.69,0,0,0,4.73,4.28c1.36,1.06,2.94,1.83,4.38,2.79,1.84,1.24,3.65,2.44,6,2.24a15,15,0,0,1,3.41.06,3.22,3.22,0,0,1,1.87,1c1.22,1.47,2.08,3.3,3.47,4.57,2.79,2.57,5.82,4.87,8.76,7.27a71.42,71.42,0,0,0,5.75,4.56,11.06,11.06,0,0,0,4.41,1.6c1,.12,2-.74,3.08-1,1.86-.41,2.43-1.23,2.71-3.05.55-3.52-1.61-5.84-3.29-8.44-.75-1.17-2.58-2-1.73-3.85Z"/><path d="M158.49,404.88h-8.85c-.85,1.86,1,2.68,1.73,3.85,1.68,2.6,3.84,4.92,3.29,8.44-.28,1.82-.85,2.64-2.71,3.05-1,.23-2.11,1.09-3.08,1a11.06,11.06,0,0,1-4.41-1.6,71.42,71.42,0,0,1-5.75-4.56c-2.94-2.4-6-4.7-8.76-7.27-1.39-1.27-2.25-3.1-3.47-4.57a3.22,3.22,0,0,0-1.87-1,15,15,0,0,0-3.41-.06c-2.39.2-4.2-1-6-2.24-1.44-1-3-1.73-4.38-2.79a54.69,54.69,0,0,1-4.73-4.28,28.61,28.61,0,0,1-2.79-3.33,10.45,10.45,0,0,1-1-2,6.81,6.81,0,0,1-.8-2,10,10,0,0,1,.09-3.93,1.83,1.83,0,0,0-.56-2.42c-2.11-1.89-4.14-3.88-6.1-5.93-1.64-1.7-3.19-3.49-4.68-5.32a30.71,30.71,0,0,1-2-3.19c-1-1.55-1.95-3.1-2.86-4.69-.77-1.33-1.45-2.71-2.15-4.08-.36-.71-.63-1.46-1-2.15-1.37-2.41-2.78-4.79-4.18-7.18-.54-.91-1.11-1.8-1.78-2.9-1.73-.33-1.89-.26-1.9,1.75,0,7.43-.19,14.86.08,22.28.1,2.7,1.52,5.34,1.12,8.17a59.72,59.72,0,0,1-1.37,7.8c-.23.8-1.61,1.46-2.6,1.81a18.14,18.14,0,0,1-3.85.67,2.72,2.72,0,0,1-1-.12,17.88,17.88,0,0,0-1.89-.45c-4.58-.5-9.33-.39-13.73-1.58-7.32-2-14.64-.83-21.94-.88-2.08,0-4.16,1.34-6.25,2a5.73,5.73,0,0,1-1.73.35c-5.21,0-10.43.07-15.64-.14a8,8,0,0,1-4.13-1.57c-2-1.48-1.89-5.42.66-7,2.18-1.37,4-3.22,6.6-4.12,2.07-.71,3.82-2.31,5.75-3.44a15.48,15.48,0,0,1,2.5-1,36.79,36.79,0,0,1,4.78-1.7c2.85-.64,5.87-.68,8.58-1.65,1.67-.6,3.38-.54,4.92-1.1a12.18,12.18,0,0,0,4.46-3c1.87-2,2.22-4.68,3-7.3,2-7.07.17-14.15,1.23-21-2.13-.66-4-1.2-5.81-1.84-.42-.15-.68-.71-1.09-1a38.16,38.16,0,0,1-6.71-5.33c-2.16-2.12-2.41-3.27-1.11-5.94a16.67,16.67,0,0,0,1.59-5.06,25.92,25.92,0,0,1,2.43-8.64.85.85,0,0,0,0-.17,74,74,0,0,1,1.55-7.9c1.15-3.8.64-7.83,1.59-11.53,1.33-5.13.36-10.21.8-15.28a18.39,18.39,0,0,0,0-3.06c-.25-2.92.22-5.81-.7-8.8-.8-2.6-.44-5.58-.45-8.4a84.72,84.72,0,0,1,.25-11.5c.5-3.76.89-7.5,1.21-11.27.18-2.09,1.4-4.09,2.13-6.14a2.42,2.42,0,0,0,.11-.89c-.1-2.95,1.51-5.29,2.83-7.72a29.73,29.73,0,0,1,2.12-3.4A64.44,64.44,0,0,1,49,203.09a33.61,33.61,0,0,1,4.65-4.1,24.39,24.39,0,0,1,4.2-2.37c3.78-1.8,7.84-.82,11.78-1.06,2.8-.18,5.35.86,7.82,2a41.62,41.62,0,0,1,6.13,3.14,46.58,46.58,0,0,1,6.11,5.39A74.07,74.07,0,0,1,95,212.27,30.77,30.77,0,0,1,97.29,216a26.51,26.51,0,0,0,1.39,2.44c2.82,3.86,5.82,7.59,8.48,11.55,1.69,2.52,2.78,5.44,4.36,8,1.31,2.15,3,4.05,4.43,6.14,1.09,1.63,2,3.41,3,5.1.37.61.83,1.16,1.25,1.74,1.4,1.95,2.83,3.89,4.2,5.85,1.23,1.76,2.38,3.57,3.63,5.31,1.5,2.09,3.47,4,4.48,6.26.74,1.69,2.05,2.79,2.91,4.28.16.29.62.64.85.58a1.18,1.18,0,0,0,.65-.85c.43-2.47.35-5.14,1.3-7.38,1.11-2.59.62-5.28,1.32-7.76a127.88,127.88,0,0,0,2.67-12.52c.47-2.68.34-5.5,1.19-8,.8-2.36.75-4.74,1.23-7.08.38-1.86,1.49-3.57,2-5.41.35-1.18.11-2.53.4-3.74.6-2.5,1.38-4.95,2.08-7.43a3.74,3.74,0,0,0,.25-1.21c-.12-2.53,1.17-4.51,2.28-6.63a37.06,37.06,0,0,0,1.81-5.26,17,17,0,0,1,1.16-2.86,28.23,28.23,0,0,1,6.64-7.8.55.55,0,0,1,.33-.12c2.75,0,5.16-2,8.08-1.35a21.21,21.21,0,0,0,4.3.16,1.82,1.82,0,0,0,2.07-1.77c.52-5,1.22-10.08,1.47-15.13.31-6,.1-12,.36-18a57.67,57.67,0,0,1,1.3-11.69c.53-2.14.65-4.26,1.1-6.36a74.64,74.64,0,0,1,2.58-10.51c1.06-2.89,1.62-5.88,2.54-8.78a75.62,75.62,0,0,1,2.65-7.54c.93-2.12,2.32-4,3.31-6.12s1.81-4.61,2.87-6.85,2.23-4.1,3.31-6.16c.63-1.2,1.13-2.46,1.74-3.66,1.07-2.08,2.15-4.16,3.29-6.21,1-1.79,2.07-3.53,3.1-5.31.93-1.62,1.87-3.24,2.78-4.88.4-.72.76-1.47,1.1-2.23.57-1.25,1-2.57,1.69-3.78a42.38,42.38,0,0,1,3.52-5.83,50.63,50.63,0,0,1,4.69-4.69c1.3-1.28,2.94-1.28,4.63-1.38a3.26,3.26,0,0,0,1.93-1.4,28,28,0,0,0,2.22-3.63A22.32,22.32,0,0,0,229.57,43c.59-1.73,1.08-3.5,1.63-5.24.76-2.41,1.54-4.82,2.31-7.23.07-.22.07-.47.12-.7.53-2.32.93-4.67,1.64-6.93a23.71,23.71,0,0,1,2-3.72c.5-.93,1-1.87,1.39-2.83a23.52,23.52,0,0,1,1.61-3.69,16.55,16.55,0,0,1,3.17-3.36c2.71-2.19,5.31-4.69,8.37-6.22,2.34-1.17,4.23-3.62,7.51-3a25,25,0,0,0,7.53,0c4.52-.53,8.74,1,13.1,1.54a13.29,13.29,0,0,1,4.1,1.17c2.13,1,4.05,2.51,6.22,3.43,2.93,1.24,5,3.62,7.44,5.43A49.08,49.08,0,0,1,302.46,16a74.86,74.86,0,0,1,6,5.84,30.23,30.23,0,0,1,3.19,5.43c.86,1.65,1.62,3.35,2.35,5.06.55,1.3,1,2.65,1.47,4,.71,1.8,1.38,3.63,2.19,5.39s.17,5.54-1.4,7.2c-1.28,1.34-2.75,2.51-3.9,3.95a10.4,10.4,0,0,1-2.6,2.84c-1,.61-1.58,2.31-1.8,3.62a14.77,14.77,0,0,1-1.32,4.77,50.8,50.8,0,0,0-2.52,6.52,6.66,6.66,0,0,0-.17,1.43c-.42,3.08-.85,6.17-1.27,9.25,0,.06,0,.14,0,.18-1,1-2,2.35-1.12,3.6.67.95,2.27,1.18,3.35,1.9a26.53,26.53,0,0,1,6.67,5.91c1.9,2.51,3.37,5.38,5.43,7.73s3,5.27,3.78,8.29a44.6,44.6,0,0,0,2.09,5.11,28.35,28.35,0,0,1,1.35,4.12,21.65,21.65,0,0,0,1.2,4.25c1,2.23.79,4.94,1.58,7.28,1.24,3.63.77,7.46,1.62,11,.56,2.36.52,4.67.87,7,.17,1.13.75,2.19,1,3.31.25,1.28.15,2.64.48,3.89.56,2.14,1.34,4.23,2,6.33.08.22.18.43.24.66.39,1.39.83,2.76,1.13,4.17.57,2.68,1,5.4,1.61,8.06s1.57,5,2.22,7.53c.29,1.14.12,2.39.33,3.56a19.14,19.14,0,0,0,.9,2.57,5.05,5.05,0,0,1,.31,1.36c.07,1.62,0,3.24.15,4.86a11.24,11.24,0,0,0,1,4.52c1.34,2.66,1.53,5.89,2.89,8.53,1.1,2.15.79,4.31,1.32,6.41a48.08,48.08,0,0,0,2.14,5.55,1.37,1.37,0,0,1,.08.35c.46,2.94.81,5.91,1.42,8.82s1.47,5.71,2.21,8.56a3.09,3.09,0,0,1,.09.53c.5,3.85.83,7.74,1.54,11.55a35.87,35.87,0,0,0,2.11,5.75c.6,1.6,1.15,3.22,1.79,4.81a19.57,19.57,0,0,0,1.23,2.57c1.52,2.6,3.1,5.16,4.6,7.76,1.06,1.84,2.05,3.73,3.06,5.59a22.49,22.49,0,0,1,1.84,3.54,7.57,7.57,0,0,1,.14,3.08,10.16,10.16,0,0,1-.77,2.46c-.55,1.45-1.2,2.86-1.72,4.33a14,14,0,0,0-.85,3.28c-.14,1.54,1.13,1.59,2.26,1.94,2.33.72,4.61,1.61,6.86,2.56,1.26.53,2.37,1.4,3.61,2a10.85,10.85,0,0,0,4,1.38,7.36,7.36,0,0,0,3.8-1.33c2.06-1.34,4.09-2.45,6.65-2.28,1.86.11,3.73,0,5.58.08a15.72,15.72,0,0,1,8.38,3.43c3.63,2.66,6.14,6.23,9,9.54.64.74,1.38,1.41,2.05,2.14a23.63,23.63,0,0,1,4.14,6.07c1.17,2.52,3.15,4.65,4.54,7.09a31.14,31.14,0,0,1,1.71,4.66c.66,1.81,1.37,3.6,2,5.41a5.52,5.52,0,0,1,.44,1.66c0,4.44.28,8.9-.1,13.3-.24,2.8-1.43,5.52-2.2,8.27,0,.11-.05.23-.08.34a55.46,55.46,0,0,1-1.6,5.92,36.88,36.88,0,0,1-2.66,4.95,40.13,40.13,0,0,1-2.21,3.53,54.67,54.67,0,0,1-4.24,5.44,36.43,36.43,0,0,1-5.1,4.42,35.41,35.41,0,0,1-5.35,3.15c-2.12,1-4.47,1.61-6.52,2.76a25.41,25.41,0,0,1-7.42,2.46c-2.51.53-4.92,1.58-7.44,2.1a31,31,0,0,1-5.54.34,18.13,18.13,0,0,1-8.46-2.14,1.62,1.62,0,0,0-1.25.28c-2.9,1.83-5.73,3.77-8.68,5.53-1.81,1.08-3.81,1.83-5.68,2.83-1.56.83-3,1.87-4.58,2.67-1.72.88-3.5,1.64-5.29,2.37s-3.74,1.41-5.61,2.11a3.42,3.42,0,0,1-.34.13c-2.63.54-5.26,1.11-7.9,1.62a49.92,49.92,0,0,1-7.41,1.27c-4.55.16-9.28.7-13.62-.3-7.53-1.75-15-.79-22.54-1s-15.1,0-22.66,0c-1.68,0-3.36,0-5,.06a5.87,5.87,0,0,0-5.23,3.64c-1.54,3.35-3.31,6.59-6.16,9.06-1.88,1.64-3.73,3.33-5.75,4.78a17,17,0,0,1-3.85,1.65c-7.27,2.76-14.79.93-22.2,1.07-2.05,0-4.12-1.33-6.19-2a2.24,2.24,0,0,0-.34-.11c-2.56-.53-5.13-1-7.66-1.6-2.68-.66-5.31-1.49-8-2.21a9.52,9.52,0,0,0-1.77-.22c-2.56-.24-5.2.47-7.65-1.06-.76-.47-2-.21-3-.21-5.81-.05-11.63,0-17.44-.15-2,0-3.42-1.12-4.7-2.75s-1-3-1-4.59C158.48,411,158.49,408,158.49,404.88ZM236.57,118.2c1.11-1,2.46-1,3.17-.19a52.82,52.82,0,0,1,4.33,6.3c1.1,1.8,2,3.73,3,5.63,1.09,2.19,2.17,4.4,3.2,6.62.62,1.32,1.15,2.68,1.7,4,.74,1.8,1.52,3.59,2.18,5.42s1.15,3.64,1.76,5.45c.34,1,.75,2,1.16,3,.7,1.68,1.55,3.3,2.11,5,.66,2,1.09,4.12,1.61,6.18,0,.06.06.11.08.17.76,2.45,1.58,4.88,2.25,7.35.58,2.15.88,4.37,1.49,6.51s1.57,4.26,2.19,6.45,1.06,4.62,1.58,6.94a1.4,1.4,0,0,0,.1.35c.73,1.7,1.82,3.34,2.13,5.11a51,51,0,0,0,2.5,8c.76,2.2,1.15,4.52,1.7,6.78.06.24.09.48.16.7.71,2.26,1.59,4.48,2.1,6.78.65,2.91,1,5.9,1.47,8.85a3.07,3.07,0,0,0,.14.52c.77,2.29,2.72,3.08,4.55,1.87a10.13,10.13,0,0,1,1.8-.91,40.3,40.3,0,0,0,4.51-1.79,26.66,26.66,0,0,0,5-3.42c1.54-1.39,3.35-2.76,3.22-5.26a4,4,0,0,1,.3-1.74c1.06-2.49,2.57-4.86,3.22-7.45a53.66,53.66,0,0,0,1.36-10c.23-4.12.11-8.27.09-12.41a8.46,8.46,0,0,0-.39-2.09c-.26-.95-.66-1.87-.85-2.84a19.81,19.81,0,0,0-.95-4.53c-1-2.43-1.09-5.28-1.62-7.93-.48-2.46-1-4.92-1.57-7.36-.28-1.22-.69-2.4-1-3.59-.1-.33-.16-.68-.29-1-.74-1.71-1.5-3.41-2.24-5.12a7.76,7.76,0,0,0-.24-.86c-.7-1.27-1.4-2.55-2.17-3.79-1.44-2.32-2.85-4.66-4.41-6.89-1.38-2-3.29-3.68-4.35-5.81-.9-1.84-2.48-2.8-3.7-4.2-1.79-2-3.67-4-5.47-6-.85-1-1.55-2.07-2.41-3-1.72-1.91-3.48-3.76-5.26-5.61-1.51-1.57-3.07-3.09-4.59-4.65-1-1-2-2-2.93-3.12-1.24-1.45-2.41-3-3.58-4.48-1.48-1.89-3-3.78-4.39-5.71-1-1.4-1.9-2.91-2.95-4.29-1.82-2.41-4.17-4.54-5.49-7.19s-4-3.9-4.5-6.93c-.21-1.35-1.44-2.51-2-3.82-1-2-1.76-4.16-2.68-6.21-.41-.9-1-1.72-1.45-2.58s-1-1.89-1.51-2.84c-.72-1.38-1.51-2.73-2.16-4.14-1-2.2-1.73-4.53-2.91-6.62-.52-.92-1.27-2.49-2.88-1.87a7,7,0,0,0-2.83,1.88,45.73,45.73,0,0,0-5.56,9.39c-.59,1.23-1.15,2.48-1.8,3.68s-1.32,2.19-2,3.3-1.06,2.1-1.69,3.1c-1.08,1.75-2.3,3.42-3.34,5.19-.67,1.13-1.06,2.43-1.71,3.57-1.47,2.59-3.18,5.06-4.5,7.72-1.17,2.36-1.87,4.94-2.91,7.36-.53,1.22-1.41,2.28-2,3.47s-1.13,2.31-1.63,3.49c-.61,1.47-1.16,3-1.74,4.46a48.39,48.39,0,0,0-2,5c-.65,2.43-1,4.92-1.55,7.39a1.43,1.43,0,0,1-.15.52,12.59,12.59,0,0,0-2.29,7.68,7.11,7.11,0,0,1-.18,1.59,22.45,22.45,0,0,0-.85,4c-.07,3.79.91,7.37,2,11,.92,3.21,1.67,6.46,2.81,9.61a53.49,53.49,0,0,1,1.46,6.06,5.05,5.05,0,0,0,.33.84c.65,1.46,1.41,2.89,1.95,4.39.65,1.83,1.09,3.74,1.71,5.59.35,1.07.61,2.37,1.37,3.07,1.34,1.23,1.25,3,2,4.37s1,3.15,1.75,4.62c1,2,2.31,3.91,3.32,5.94s1.87,4.19,2.77,6.31a64.79,64.79,0,0,0,2.83,6.69c1.09,1.94,2.27,3.77,2.43,6.06a3,3,0,0,0,.33.79c.67,1.62,1.41,3.21,2,4.86s.78,3.44,1.6,4.93c1.32,2.38,3.29,4.41,3.8,7.22a1.54,1.54,0,0,0,.27.46c1.94,3,4,5.91,5.79,9a70.1,70.1,0,0,1,3.63,7.75c1.2,2.86,2.15,5.79,4,8.34,1.58,2.12,2.8,4.5,4.23,6.74,1.54,2.4,3.28,4.68,4.66,7.16,1.9,3.43,3.55,7,5.32,10.49.53,1.05,1.09,2.08,1.69,3.08,1.1,1.84,2.24,3.66,3.37,5.49q1.5,2.46,3,4.9c.23.37.49.72.71,1.1,1,1.79,2,3.62,3.09,5.36,1,1.55,2.19,3,3.26,4.49,1.59,2.24,3.08,4.54,4.73,6.72,1.78,2.37,3.77,4.57,5.52,6.95s3.16,4.74,4.8,7.06c1.32,1.87,2.8,3.61,4.11,5.47,1.16,1.66,2.18,3.42,3.26,5.13s2.23,3.26,3.15,5a8.73,8.73,0,0,0,3.37,3.73,45.74,45.74,0,0,1,1.95-5.29,29.09,29.09,0,0,1,3.32-5.09c1.18-1.46,3-2.47,4-4,1.45-2.23,3.93-3,5.74-4.68s3.83-3.16,5.72-4.78c1.55-1.32,2.83-3.29,4.6-3.91s2.58-2.31,4.2-3c.66-.28,1.54-1.35,1.42-1.86a6.73,6.73,0,0,0-1.67-2.81c-1.05-1.2-2.37-2.17-3.42-3.36q-3.74-4.28-7.32-8.67c-1.74-2.14-3.38-4.36-5-6.58-1.79-2.43-3.5-4.91-5.28-7.34a105.28,105.28,0,0,1-7.76-12.17c-.32-.6-.85-1.11-1.11-1.73-.61-1.49-1-3.06-1.68-4.55-1.19-2.77-2.5-5.49-3.7-8.26-.49-1.15-.79-2.38-1.25-3.55-.76-2-1.91-3.88-2.28-5.92s-.63-4.24-1.16-6.37c-.63-2.53-2.05-4.95-1.61-7.72,0-.2-.13-.44-.21-.65a19.07,19.07,0,0,1-1-2.94c-.54-2.86-.89-5.76-1.44-8.62-.29-1.47-.84-2.89-1.27-4.34s-.81-2.88-1.29-4.3c-.72-2.17-1.59-4.29-2.25-6.47-.6-2-1-4-1.51-6,0-.11-.12-.2-.16-.31-.74-2-1.59-4-2.21-6.05s-.93-4.34-1.58-6.45-1.65-4-2.22-6.1c-.65-2.36-1-4.81-1.46-7.23-.06-.29-.13-.58-.22-.87-.72-2.3-1.49-4.6-2.17-6.92-.55-1.88-1.82-3.58-1.52-5.69,0-.09-.13-.19-.18-.29-.72-1.58-1.49-3.14-2.13-4.76s-1.09-3.22-1.67-4.82c-.7-1.92-1.42-3.84-2.19-5.73s-1.53-3.58-2.35-5.34c-.38-.84-1-1.6-1.32-2.44-1-2.4-2-4.82-3-7.23a12.34,12.34,0,0,0-1.27-2.78C240.59,123,238.6,120.68,236.57,118.2ZM103,377.31c.6-.92,1.18-1.83,1.78-2.72,1.23-1.84,2.45-3.7,3.72-5.51.87-1.23,1.79-2.45,2.77-3.6,1.56-1.85,3.24-3.59,4.77-5.46a45.59,45.59,0,0,0,4.2-5.64c1.16-2,3.06-3.45,5.34-3.18,1,.12,2,.81,3.06,1,2.62.6,5.26,1.08,7.89,1.62.57.12,1.13.34,1.7.45s1.66.48,1.92.19a2.26,2.26,0,0,0,.43-2.05,41.83,41.83,0,0,0-3-4.66c-2-2.91-4.12-5.77-6.12-8.7-.62-.91-.9-2.08-1.58-2.94a2.86,2.86,0,0,1,.06-4,30.16,30.16,0,0,0,4.35-6.05,23.21,23.21,0,0,1,1.6-2.85c1.43-1.82,3-3.53,4.5-5.29a18.52,18.52,0,0,0,1.42-1.88c1.32-2,2.6-4.09,3.92-6.13.41-.63.89-1.22,1.32-1.85.94-1.39,1.76-2.87,2.82-4.15a4.44,4.44,0,0,0,.58-4.77c-.74-1.25-1.71-2.53-1.88-3.89a5.36,5.36,0,0,0-2.4-4.3,6.49,6.49,0,0,1-1.59-1.63c-1.37-1.82-2.69-3.68-4-5.55-.92-1.31-1.72-2.7-2.68-4-2-2.74-4.19-5.4-6.19-8.18-.71-1-1-2.28-1.69-3.26-1.43-2-3.09-3.82-4.55-5.8-1.66-2.24-3.17-4.58-4.79-6.84-.89-1.22-2-2.31-2.8-3.57-1-1.5-1.8-3.14-2.73-4.7-2.17-3.67-4.32-7.35-6.57-11-1.56-2.5-3.26-4.91-4.93-7.35-.31-.46-.81-.8-1.13-1.27-1.55-2.25-3.09-4.52-4.6-6.8-1.08-1.63-2.06-3.33-3.17-4.93a61.37,61.37,0,0,0-4.76-6.4,56.72,56.72,0,0,0-6.72-6.14c-2-1.58-4.16-3.3-6.53-4-2.57-.81-5.18-2-8.09-1.59a32.23,32.23,0,0,1-6.29.06c-3.55-.25-6.2,1.21-8.75,3.57-3.17,2.93-6.37,5.76-8.3,9.7a33.32,33.32,0,0,0-1.61,3.43c-.63,1.75-1.1,3.56-1.66,5.33a60.05,60.05,0,0,0-2.13,6.76,58.36,58.36,0,0,0-1.18,9.84c-.13,9.6-.47,19.18.69,28.8a53.82,53.82,0,0,1-.51,17.79c-.94,4.34-.16,8.95-1.61,13.33a67.24,67.24,0,0,0-1.59,7.54,5,5,0,0,1-.2.49c-.7,2.15-1.46,4.27-2,6.44s-1,4.3-1.45,6.45a1.48,1.48,0,0,1-.29.43,4.67,4.67,0,0,0,.77,5c1.17.94,2.32,1.92,3.42,2.93,1.88,1.72,3.68,3.54,6.49,3.62a3.63,3.63,0,0,1,1.27.49c1.34.63,2.66,1.31,4,1.89s3.09,1.1,4.56,1.81c1.83.89,3.49,2.18,5.64,2.27a3.28,3.28,0,0,1,.88.12c2.43.74,4.84,1.54,7.29,2.24,2,.57,4.06,1,6.06,1.59a11.08,11.08,0,0,1,2,1.14c0-1,.21-1.69,0-2.14a26.19,26.19,0,0,0-2.75-4.25c-1.39-1.65-1.4-3.74-2.1-5.59a55.88,55.88,0,0,1-1.66-6.6c0-.11-.12-.2-.16-.31-.72-2.09-1.49-4.15-2.13-6.26s-1-4.16-1.63-6.21-1.51-4.31-2.12-6.51-1-4.29-1.43-6.43c0-.06,0-.12,0-.17a51.19,51.19,0,0,1-2.2-6.3,39.51,39.51,0,0,0-1.27-5.83c-.9-2.37-1-5.07-1.31-7.64-.5-3.62.08-7.28-1.24-10.93-1-2.8-.6-6.05-1.09-9.12-.74-4.63-.33-9.44-.39-14.18a4.63,4.63,0,0,1,.24-1.13c1.94-.46,2.18.59,2.26,2.07.28,5.55-.51,11.12,1,16.68.84,3.08.31,6.45,1.38,9.67.69,2.07.11,4.53.34,6.79A62.11,62.11,0,0,0,59,283.3c.32,1.49.87,2.93,1.2,4.41.58,2.56,1.08,5.14,1.61,7.71a.84.84,0,0,0,0,.17c.75,2.48,1.54,5,2.26,7.45.51,1.78.88,3.6,1.43,5.38.68,2.19,1.54,4.32,2.19,6.53s1,4.27,1.57,6.4a4.14,4.14,0,0,0,.19.49c.76,2.35,1.51,4.71,2.27,7.06.47,1.45.59,3.18,1.46,4.31,2,2.66,3.38,5.69,5,8.56,1,1.81,1.79,3.77,2.79,5.6,1.12,2.06,2.41,4,3.56,6.06.83,1.46,1.56,3,2.32,4.49,1.33,2.67,3.41,5,4.1,8,0,.18.3.31.46.46a59.19,59.19,0,0,1,4.41,4.26C98,373.13,99.79,376,103,377.31ZM366.42,390c-.11-.39-.1-1.29-.54-1.69a55.65,55.65,0,0,0-5.6-4.58,3.54,3.54,0,0,0-2.69-.44c-1.79.54-3.41,1.7-5.21,2.14a34.09,34.09,0,0,1-8.07,1.2,53.42,53.42,0,0,1-8.1-1.1c-.15,0-.27-.2-.39-.31-2.3-2-4.72-3.87-6.87-6a68.92,68.92,0,0,1-4.75-5.72,23,23,0,0,1-2.91-4.31c-.69-1.44-2.13-2.52-3.24-3.76-1.59-1.79-3.17-3.6-4.77-5.38-1.85-2.05-3.72-4.07-5.56-6.12-.78-.88-1.52-1.79-2.28-2.7a33.14,33.14,0,0,1-2.61-3.2c-1.47-2.3-2.74-2.31-5.26-1.28-1.79.74-4.52,1.14-6,.26-1.93-1.15-3.64-.94-5.52-1-4.2-.2-8.38.8-12.62-.82-3.16-1.21-6.7-1.43-9.95-2.66a27.9,27.9,0,0,0-6.3-1.39c-1.9-.26-3.78-.21-5.6-1.19a28.72,28.72,0,0,0-5.19-1.61,3.55,3.55,0,0,1-.61-.37c-1.93-1.11-3.83-2.27-5.8-3.29s-4-1.82-6-2.84a31.26,31.26,0,0,1-2.85-1.95c-1.41-1-2.81-2-4.27-2.85-1.74-1-3.6-1.9-5.29-3-2.12-1.4-4.12-3-6.15-4.51a81.94,81.94,0,0,1-7.19-5.61c-2.82-2.67-5.38-5.64-8-8.56-1.14-1.28-2.56-1.88-4-1.29a29,29,0,0,0-5.71,3.17,86.82,86.82,0,0,0-7.24,5.74,46,46,0,0,0-4.5,4.76c-1.09,1.28-1.89,2.81-3,4.07s-2.27,2.36-2,4a13.27,13.27,0,0,0,1.54,4.54c1.9,3.11,4.06,6.06,6.11,9.09a42.72,42.72,0,0,0,2.62,3.85c2.06,2.42,4.46,4.57,6.34,7.11,2.15,2.92,5.43,4.4,8,6.82,1.52,1.46,3.9,2,5.75,3.14,3.35,2.09,6.65,4.27,9.94,6.43a33.66,33.66,0,0,0,6.54,3.73,17.14,17.14,0,0,1,2.75,1.27c1.13.67,2.14,1.54,3.29,2.17s2.54,1.13,3.8,1.73c1,.46,1.91,1,2.87,1.49,1.23.66,2.41,1.71,3.71,1.89a36.85,36.85,0,0,1,9.75,2.86c1.13.5,2.22,1.07,3.3,1.65s2.19,1.62,3.4,1.91c2.75.66,5.57,1,8.36,1.45l8.12,1.37c.06,0,.14,0,.18,0,2.13,1.83,4.69,1.08,7,1,3.19-.15,6.36-.89,9.55-1,5.51-.17,11-.22,16.54,0,2.76.13,5-1.35,7.6-1.56a.66.66,0,0,0,.45-.25c1.1-1.63,2.41-.77,3.85-.54-1,1.34-1.76,2.51-3.45,2.28-.25,0-.55.2-.81.34a13.85,13.85,0,0,1-6.87,2.12c-5.94,0-11.87,0-17.81,0-8.95,0-18,1.24-26.62-2.29-1.65,4.16-2.3,16.89-1.2,18.23a13.77,13.77,0,0,1,2.66-.46c16.32.62,32.7-1.45,49,1.05a44.25,44.25,0,0,0,9.69.39c4.63-.32,9.24-1.11,13.85-1.71a2.38,2.38,0,0,0,.51-.18c2.13-.71,4.25-1.45,6.4-2.13a41.89,41.89,0,0,0,5.28-1.6,64.82,64.82,0,0,0,5.71-3.38c.89-.53,1.8-1,2.72-1.51,1.91-1,3.87-1.86,5.72-2.95C362.12,392.89,364.1,391.48,366.42,390Zm-3.8-114.43c0-.14.11-.36,0-.49-.72-1.21-1.48-2.4-2.2-3.61-.55-.91-1.1-1.83-1.58-2.77-.65-1.27-1.19-2.59-1.84-3.86-1.06-2.09-2.21-4.15-3.24-6.25-.82-1.66-1.56-3.36-2.23-5.08a26,26,0,0,1-1.61-4.92c-.39-2.35-.09-4.7-1-7.11-1.05-2.85-.27-6.11-1.5-9.16-1-2.58-1.13-5.55-1.65-8.34a1.16,1.16,0,0,0,0-.18c-.78-2.91-1.62-5.81-2.32-8.74-.55-2.31-.68-4.76-1.47-7-.52-1.44-1.25-2.75-1.19-4.34,0-.19-.21-.39-.29-.59a33.92,33.92,0,0,1-2.15-5.75c-.67-3.59-.95-7.26-1.39-10.89,0-.24,0-.54-.15-.7-1.88-2.14-.78-5-1.95-7.47s-1.18-5.14-1.71-7.74a2.3,2.3,0,0,0-.1-.35c-.77-2.39-1.63-4.75-2.27-7.17s-1.11-5-1.66-7.55c0-.11-.11-.21-.14-.33a57.79,57.79,0,0,1-2-7.56c-.67-4.86-1-9.77-1.44-14.66a5.34,5.34,0,0,0-.15-.89c-.74-2.86-1.51-5.71-2.21-8.59-.54-2.19-1-4.4-1.47-6.6,0-.12,0-.27-.11-.34-1.61-1.55-1.47-3.82-2.33-5.69-.69-1.5-1-3.16-1.61-4.72A8.72,8.72,0,0,0,316.3,103c-3-3.16-4.36-7.63-8.24-10.11a48,48,0,0,1-4.13-3.59,20,20,0,0,0-2.59-1.66A15,15,0,0,0,298.1,86c-.54-.16-1.32.59-2,.84-4.66,1.72-6.63,5.83-8.82,9.79a22.81,22.81,0,0,1-2.93,4.32,62.8,62.8,0,0,1-4.66,4.25c.52.62,1,.93,1.07,1.33.52,2.45,1.44,5,1.32,7.4-.25,4.94,1.5,9.59,1.58,14.45,0,.12,0,.28.05.35,1.73,2,.84,4.46,1.16,6.7a5.54,5.54,0,0,0,.39,2.08,37.92,37.92,0,0,0,3.73,5.21,40.18,40.18,0,0,1,5.06,7.77c1.33,2.37,1.88,5,3.35,7.35,1,1.62,1,3.9,1.49,5.88a5.52,5.52,0,0,0,.1.71c.74,2,1.83,3.93,2.18,6,.44,2.62.52,5.24,1.4,7.85s1,5.75,1.45,8.64c0,.18,0,.45.1.52,1.58,1.05.93,2.67,1,4.07a28.6,28.6,0,0,1,0,4.14c-.37,4.44-.71,8.9-1.26,13.32a51.48,51.48,0,0,1-1.5,6.18c-.05.17-.26.29-.28.45-.19,1.34-.7,2.75-.44,4a69.26,69.26,0,0,0,2.16,6.78c.84,2.62,1.62,5.25,2.46,7.86.94,2.9,1.92,5.79,2.85,8.69.5,1.54.88,3.12,1.45,4.64.68,1.85,1.55,3.63,2.25,5.47.62,1.63,1.1,3.31,1.69,4.95.7,1.95,1.51,3.87,2.18,5.83.6,1.73,1,3.53,1.62,5.24s1.5,3.44,2.21,5.18c.53,1.31.91,2.67,1.46,4,.76,1.77,1.62,3.5,2.44,5.25.57,1.2,1.12,2.42,1.74,3.6s1.36,2.44,2,3.66l1.51,2.66a15.56,15.56,0,0,0,3.19-1.33c2.59-1.93,5-4.08,7.62-6,1.91-1.43,3.94-2.69,6-3.94,1-.62,2.17-1,3.2-1.59,1.83-1,3.51-2.41,5.45-3.13A59.92,59.92,0,0,1,362.62,275.53ZM256.93,388.68c-2.29-.76-4-1.25-5.7-1.93-1.25-.51-2.35-1.35-3.57-1.91-2.55-1.15-4.86-2.74-7.75-3.23a17.08,17.08,0,0,1-6.73-2.12,79.4,79.4,0,0,0-7.65-4c-2.09-1-4.29-1.83-6.32-3-2.7-1.51-5.28-3.23-7.9-4.87-.56-.35-1.07-.78-1.63-1.15-1.77-1.19-3.54-2.39-5.33-3.55-1.49-1-3-1.91-4.51-2.84-1.08-.66-2.18-1.28-3.27-1.92-1.94-1.12-3.71-2.85-6.26-1.81-.61.26-1.13.87-1.75,1a69,69,0,0,1-7.82,1.2c-3.88.27-7.78.22-11.67.39a2.28,2.28,0,0,0-1.69.82,53.86,53.86,0,0,0-3.73,7.44,43.34,43.34,0,0,0-1.41,6.85q-.11.53-.24,1.05a15.15,15.15,0,0,0-.93,3.63c-.07,12.17,0,24.34,0,36.5a3.16,3.16,0,0,0,3.4,3.47c1.44,0,2.88,0,4.31.07,5.81.28,11.67-.76,17.43,1.1,2.55.83,5.39-.05,8.09,1.13,2.1.92,4.65,0,7,1.36,1.54.9,3.76.44,5.67,1.31,2.12.95,4.6,1.09,6.92,1.59a5.69,5.69,0,0,1,.65.24c1,.34,2,1,2.92,1,6.77-.36,13.63,1.32,20.35-1.13a35.44,35.44,0,0,0,4.78-2.37,7.64,7.64,0,0,0,1.59-1.1,44.34,44.34,0,0,0,4.36-4.42,37.61,37.61,0,0,0,3.12-5.23,37.05,37.05,0,0,0,1.68-3.68,35.22,35.22,0,0,0,2.1-5.67c.41-2,.18-4.06.4-6.08C256.09,394,256.55,391.31,256.93,388.68Zm49.46-337c1.86-.63,3.42-1.17,5-1.69a5.43,5.43,0,0,0,4-5.52,54.47,54.47,0,0,0-1.46-6.6.87.87,0,0,0-.07-.17c-.75-1.47-1.42-3-2.28-4.41a21.83,21.83,0,0,1-1.46-3.61,36.75,36.75,0,0,0-3.6-6.2,13.24,13.24,0,0,0-2.27-2.73c-1.79-1.61-3.75-3-5.51-4.63-1.45-1.34-2.58-3-4.09-4.31s-3.2-1.84-4.71-2.91C287.48,7.19,285,5.57,282,5.17a2.78,2.78,0,0,1-.71-.12,22.93,22.93,0,0,0-9.06-2.36c-4.79,0-9.59-.15-14.38.11a9.78,9.78,0,0,0-4.6,1.89,84.84,84.84,0,0,0-7.3,5.67c-1.87,1.59-4,3-4.64,5.69a8.3,8.3,0,0,1-1.43,3.14c-1.23,1.64-2.32,3.27-2.36,5.41a2.63,2.63,0,0,1-.2.86c-.72,2-1.57,4-2.15,6.06-.67,2.39-1.1,4.84-1.64,7.26a.85.85,0,0,1-.06.17c-1.49,2.43-1.51,5.46-3.43,7.77-1.32,1.58-2,3.68-3.28,5.32-1,1.29-.9,2.07.06,3.3a9.29,9.29,0,0,1,1.71,3.75c.65,3.34,4.13,5.16,7,3.2a31.29,31.29,0,0,0,5.85-5.36c1.8-2.06,4.56-2.63,6.64-1,2.52,2,2.63,5.09,3.51,7.78a4.34,4.34,0,0,0,2.08,2.84c1.49.74,2.41-.65,3-1.5,2.63-4.07,3.95-8.74,5-13.37A27.64,27.64,0,0,1,264.39,45a6.12,6.12,0,0,1,2-2.54A15.24,15.24,0,0,1,276,40.94a17.63,17.63,0,0,1,5.19,1.73c1.7.83,3.12,2.27,5.19,2.26a2.35,2.35,0,0,1,.82.28c1.81.72,3.59,1.5,5.41,2.15,1.64.58,3.32,1,5,1.51C300.5,49.8,303.44,50.75,306.39,51.69ZM231.28,65.77c.72,1.17,1.43,2.24,2.05,3.37,1,1.82,2,3.65,2.92,5.51.81,1.62,1.53,3.28,2.3,4.92.51,1.08,1.11,2.13,1.52,3.24a2.94,2.94,0,0,0,1.11,1.75A13.17,13.17,0,0,1,243.84,88c.83,1.25,1.51,2.61,2.4,3.82,1.23,1.66,2.62,3.21,3.88,4.85,1.67,2.19,3.25,4.47,4.94,6.65,1.32,1.7,2.75,3.32,4.14,5,.86,1,1.7,2.09,2.6,3.08s1.92,1.92,2.85,2.92c2.15,2.33,4.28,4.67,6.42,7,1.61,1.76,3.24,3.49,4.81,5.28,1.35,1.55,2.56,3.23,4,4.7.37.38,1.32.19,2,.26-.16-.49-.32-1-.46-1.47a6.93,6.93,0,0,1-.22-.87c-.51-2.94-.68-5.94-1.15-8.89-.67-4.19-.6-8.54-1.74-12.7-.14-.51-.68-1.28-1.07-1.3-2.46-.16-4.92-.14-7.17-1.44-1.83-1.07-4-1.71-5.54-3.1A82,82,0,0,1,258,94.4c-2.23-2.61-4.11-5.63-7.92-6.3-.35-.06-.55-1-.83-1.46.47-.23,1.07-.75,1.39-.62,2.12.89,4.53,1.31,6.06,3.3.66.86,1.35,1.7,2.08,2.49,1.78,2,3.76,3.76,5.35,5.87,1.77,2.34,4.23,3.53,6.73,4.7,1.35.63,3,.69,4.19,1.54s1.77.65,2.75-.28c1.28-1.22,2.94-2,4.25-3.23,2.42-2.2,3.63-5.24,5.27-8A16,16,0,0,1,289,89.61a20.13,20.13,0,0,1,7.72-5.52,7,7,0,0,0,3.74-3.73c1.06-2.2.79-4.38,1-6.59a12.24,12.24,0,0,1,.32-2.1c.29-1.06.69-2.09,1-3.15.14-.45.12-1,.29-1.39.88-2.11,2.39-4,2.31-6.45a2,2,0,0,1,.24-.66c.72-1.63,1.48-3.25,2.15-4.9a3.9,3.9,0,0,0,.1-1.27c-.28-.11-.4-.2-.5-.18-3.17.75-5.88-1.55-9-1.37-.21,0-.42-.18-.63-.27-1.55-.68-3.07-1.46-4.66-2-1.76-.61-3.63-.92-5.38-1.54-1.93-.68-3.8-1.53-5.67-2.38-1.17-.53-2.25-1.25-3.42-1.78-1.51-.68-3.07-1.27-4.62-1.87-.16-.06-.42.16-.64.23a11.19,11.19,0,0,1-2.65.81,4.32,4.32,0,0,0-3.87,2.31,29.66,29.66,0,0,0-1.39,2.83c-.81,2.06-1.56,4.14-2.29,6.23-.38,1.08-.6,2.21-1,3.28s-1,2.19-1.45,3.3A32.56,32.56,0,0,1,258.93,66a7.5,7.5,0,0,1-2.87,3c-2.48,1.17-6.28-.71-6.72-3.43a21.5,21.5,0,0,0-1.63-6c-.38-.78-1-1.75-1.71-2s-1.68.35-2.49.7c-.39.17-.66.63-1,1-2,1.91-3.7,4.17-6.56,5C234.42,64.63,232.92,65.21,231.28,65.77ZM195.2,301.15c-.81-2.12-1.56-3.91-2.18-5.73s-.7-3.67-1.65-5.11c-1.52-2.31-.87-5.05-2.12-7.46-1.1-2.14-1.12-4.83-1.62-7.28a2.42,2.42,0,0,0-.13-.53c-.71-1.93-1.57-3.83-2.1-5.81-.65-2.41-1-4.89-1.51-7.34a3.27,3.27,0,0,0-.14-.33c-.73-3-1.62-6-2.15-9-.43-2.48-.12-5-1.18-7.49-.89-2.08-.64-4.56-1.27-6.89a67.89,67.89,0,0,1-1.29-9.09c-.82-6.59-.31-13.3-1.17-20-.62-4.79-.3-9.69-.43-14.54,0-1.65-1.42-3.82-2.44-4-3.82-.56-7.52.24-11.23,1a.77.77,0,0,0-.32.14c-3.07,2.17-4.84,5.29-6.23,8.65a41.55,41.55,0,0,1-1.73,4.77c-1.18,2.1-2.37,4.14-2.34,6.65a2.67,2.67,0,0,1-.15.88,35.79,35.79,0,0,0-2.39,10.09,6.7,6.7,0,0,1-.43,1.86,46.69,46.69,0,0,0-1.89,5.27c-.45,2-.49,4-1,6-1,3.78-1.14,7.79-1.63,11.7a13.73,13.73,0,0,1-.2,2.14,72.68,72.68,0,0,0-2.21,7c-.52,2.69-.11,5.46-1.28,8.16-.84,1.95-.54,4.29-1.07,6.48s-1.36,4.94.65,7.52c1.78,2.3,3.2,4.9,5,7.25.85,1.11,1.55,1.19,2.17,1.1,2.46-2.62,2-5.58,2.07-8.43,0-.3,0-.69.18-.86,1.46-1.47.82-3.35,1.11-5.05a26.8,26.8,0,0,1,1.38-4.41.92.92,0,0,1,.74-.37c1.11,0,2.29-.48,3.28.71.27.33,1.57.17,2.14-.19,1.2-.76,4-.8,5.19.19.87.74,2.23.46,2.35-.57.29-2.63.35-5.24,1.26-7.84.8-2.25.3-4.77,1.14-7.24,1-2.95.18-6.28,1.4-9.48,1.16-3,1.13-6.5,1.64-9.78,0-.1.14-.18.21-.25,1.72-.5,2.35.22,2.13,1.89a11.46,11.46,0,0,1-1,3.74c-.91,1.92-1,4.26-1.35,6.43-.46,2.72-.34,5.46-1.07,8.24-1.11,4.19-1.16,8.65-1.68,13a19.87,19.87,0,0,1-.49,2.39c-.15.64-.37,1.26-.54,1.8,1.37-.14,2.64-.67,3.34-.26a24.53,24.53,0,0,1,4.29,3.55,23.4,23.4,0,0,1,2,2.53c1,1.25,2,2.48,3,3.75.7.89,1.37,1.81,2,2.75,1,1.44,2,2.87,2.94,4.36,1.09,1.74,2.07,3.54,3.15,5.29,1.66,2.7,3.37,5.38,5.14,8.2Zm28.32-57.49c-1.06-2.06-1.86-3.85-2.87-5.51-1.51-2.5-3.45-4.77-4.7-7.38-1.34-2.8-3.24-5.3-4.12-8.39-.74-2.6-2.34-4.94-3.37-7.46s-1.72-5-2.66-7.5c-.88-2.31-1.86-4.58-2.87-6.84-1.22-2.7-2.53-5.37-3.78-8.05-.52-1.11-1-2.25-1.49-3.34-.7-1.45-1.56-2.82-2.2-4.3s-1-3.1-1.64-4.56c-.83-1.74-2.15-3.25-2.3-5.29a1.85,1.85,0,0,0-.17-.7c-1.14-2.46-2.44-4.86-3.4-7.39a48.59,48.59,0,0,1-1.47-5.88,8.62,8.62,0,0,0-.26-1c-.73-2-1.57-3.94-2.18-6-.69-2.31-1.18-4.68-1.78-7.13-1.72.47-1.87,1.8-1.89,3.1-.09,5,0,10.07-.21,15.1-.21,4.38.45,8.77-1,13.18-.92,2.76-.62,5.91-1.27,8.91-.59,2.7.42,5.74.77,8.63,1,8.27-.49,16.63,1.2,24.9.72,3.53.25,7.3.56,10.93a4.6,4.6,0,0,0,1.58,3.15,74.64,74.64,0,0,0,9.13,5.09,38.49,38.49,0,0,0,7.63,2.57c3.12.71,6.34,1,9.51,1.5,1.45.24,2.86.67,4.3.92a5.31,5.31,0,0,0,1.9-.1c.66-.12,1.29-.48,1.95-.55C218.74,244,221.08,243.87,223.52,243.66Zm-4.86,24.79.65-.15a7.82,7.82,0,0,1,1.61,2.05,25.17,25.17,0,0,1,1.09,4.77,37.21,37.21,0,0,0,1.34,7.65c.89,2.52-.08,5.45,1.27,8.17.88,1.78.42,4,1.25,6.1,1,2.64,1.12,5.69,1.47,8.58.18,1.39.75,2,2.16,2,1.8,0,3.6.15,5.39.11a35.88,35.88,0,0,0,4.63-.42c1.2-.18,2.36-.67,3.56-.86,2.28-.34,4.57.21,6.88-1,2-1,4.47-1.07,7.27-1.66-.58-1.05-1-1.79-1.4-2.51s-1.14-1.58-1.57-2.44c-.61-1.23-1-2.58-1.64-3.76-1.14-2-2.43-3.95-3.67-5.91-.71-1.11-1.48-2.19-2.17-3.31-.92-1.5-1.86-3-2.66-4.56-.66-1.29-1-2.74-1.7-4-1.09-2-2.42-3.78-3.53-5.72-1.79-3.14-3.48-6.33-5.25-9.48-.95-1.68-2.43-1.93-4.09-.85a2.92,2.92,0,0,1-1.15.4,33.11,33.11,0,0,0-5.92,1c-3.08.94-6.47.68-9.73,1.37-3,.62-6.21.14-9.33.12a9.65,9.65,0,0,1-2.14-.21q-4.58-1.06-9.13-2.22a16.79,16.79,0,0,1-2.25-.81c-1.46-.59-2.9-.91-4.1-.13.27,1.16.5,2.07.7,3,.51,2.2.94,4.42,1.53,6.59a8.19,8.19,0,0,0,1.28,2.6c1.12,1.54,2.45,2.93,3.55,4.48,2.22,3.14,4.34,6.35,6.54,9.51.26.38.78.6,1.07,1,1.05,1.37,1.95,2.87,3.1,4.14,2,2.16,4.06,4.18,6.1,6.27a1.39,1.39,0,0,0,2.24-.63c.53-2.52,1-5.05,1.47-7.57a6,6,0,0,1,.19-1.06,47.56,47.56,0,0,0,2.06-5.55c.69-3,1-6,1.58-9C217.61,272.55,218.17,270.51,218.66,268.45ZM46.18,333.94c0,7.81.28,14.91-1.27,21.89-.28,1.23,0,2.55-1.19,3.52a18.34,18.34,0,0,0-2.41,2.57,11.26,11.26,0,0,1-8.52,4.64A55.93,55.93,0,0,0,25,367.93c-1.52.32-3,.78-4.53,1.18a3.18,3.18,0,0,0-.68.22c-1.31.7-2.6,1.46-3.94,2.11-2.09,1-4.28,1.79-6.28,2.92A32.18,32.18,0,0,0,4.48,378c-.88.76-2.24,1.62-1.63,3.12A3.17,3.17,0,0,0,6,383.09c3.54.17,7.07-.13,10.65.72,2.24.53,4.92-.5,7.33-1.09,2.22-.55,4.32-2,6.52-2.09a150.9,150.9,0,0,1,15.63,0A71.33,71.33,0,0,1,54.64,382c.06,0,.14,0,.17,0,1.39,1.51,3.22.93,4.89,1s3.24,0,4.85.12c.73.05,1.42.51,2.15.61a12.65,12.65,0,0,0,3.13.11,3.89,3.89,0,0,0,1.81-.86c.45-.35,1-.91,1.06-1.39.09-3.76.14-7.53,0-11.3,0-1.09-.92-2.16-.93-3.25-.07-6.7,0-13.42,0-20.13v-4.32c-2.45-.95-4.68-2-7-2.68S60.22,339,58,338.42c-1.78-.44-3.54-1-5.27-1.62-1-.34-1.84-.88-2.77-1.29S47.75,334.6,46.18,333.94Zm311.67,41.53.75-.5c-2-3.21-1.88-7-3.35-10.46-1-2.25-.72-5-1.28-7.56a31.22,31.22,0,0,1-.17-9,10.78,10.78,0,0,1,1.55-5.16,20,20,0,0,1,6.3-6,8.48,8.48,0,0,0,3.78-3.78c1.06-2.32,3.34-3.47,5.44-4.68a2.13,2.13,0,0,1,1.93.33c1.78,1.54,3.43,3.22,5.11,4.87s5.14,1.43,6.16-.4a9.16,9.16,0,0,0,1.26-4.25,30.36,30.36,0,0,0-1-5.43c-.07-.35.05-.86-.15-1.05-1.81-1.75-.86-4.05-1.26-6.07a44.42,44.42,0,0,1-1.09-4.74,72.06,72.06,0,0,1-.1-7.35,1.53,1.53,0,0,0-1.22-1.8c-1.63-.53-3.16-1.35-4.74-2-1.25-.55-2.5-1.11-3.77-1.6a27.51,27.51,0,0,1-4.68-1.75c-2-1.22-4-1-6-.74a1.53,1.53,0,0,0-1,.58c-1,1.6-2,3.21-2.87,4.87-1.35,2.53-3.72,3.71-6.24,4.46-1.64.48-3.36.29-5.09,1.08-2.56,1.17-3.84,2.34-3.85,5.22,0,9.23,0,18.46-.09,27.69a30.16,30.16,0,0,0,1.3,10.43c.78,2.23,1.69,4.41,2.46,6.64.57,1.65.94,3.38,1.53,5A10.19,10.19,0,0,0,349,365c1.55,2,3.14,4.07,4.8,6C355.05,372.54,356.48,374,357.85,375.47Zm-138.93-98a3.58,3.58,0,0,0-.29.73c-.55,2.74-1.07,5.47-1.6,8.2a4.51,4.51,0,0,1-.09.53c-.75,2.21-1.6,4.38-2.23,6.62s-1,4.65-1.61,6.92-1.82,2.59-3.65.9c-.79-.73-1.44-1.62-2.21-2.38-.92-.91-2-1.7-2.83-2.64-2-2.12-3.95-4.29-5.89-6.47a39.71,39.71,0,0,1-2.85-3.51c-1.18-1.67-2.24-3.43-3.47-5.34-.29.49-.58.75-.55.95.5,2.64.9,5.31,1.61,7.9.53,2,1.52,3.8,2.19,5.73.58,1.69.93,3.45,1.55,5.11.13.36,1,.44,1.45.68a6.57,6.57,0,0,1,1.93,1c1.17,1.21,2.13,2.62,3.29,3.84s2.47,2.26,3.64,3.45a71,71,0,0,0,5.06,5.33,53.06,53.06,0,0,0,5.59,3.5c2.39,1.56,4.72,3.22,7.13,4.75,1,.61,2.25.8,3,1.54,2.54,2.4,5.65,3.89,8.56,5.68,2.55,1.58,5.38,2.7,8.07,4.06.73.36,1.35,1,2.1,1.28,1.51.59,3.07,1.08,4.63,1.54,2.67.77,5.34,1.57,8.05,2.19,1.81.41,3.69.53,5.67.8a61.37,61.37,0,0,0,1.41-7.82c.31-5.15.37-10.31.25-15.46a7.9,7.9,0,0,0-1.78-4c-1.34-1.8-3.06-3.32-4.51-5-1-1.21-2-2.2-3.74-1.62a27.92,27.92,0,0,1-3.55,1.19c-2.93.54-5.87,1-8.82,1.37-2.1.28-4.16.15-6.27,1-1.76.74-4,.45-6,.26a43.17,43.17,0,0,1-6.24-1.28,1.52,1.52,0,0,1-.93-1c-.35-2.72-.17-5.45-1.24-8.15-.7-1.77-.56-3.86-1.15-5.83-.95-3.11-1-6.48-1.62-9.71-.43-2.27-1.16-4.48-1.77-6.71C219.21,277.48,219.11,277.48,218.92,277.44ZM339.2,342.59a9.67,9.67,0,0,1-1.9.79c-3.28.51-5.84-1.09-8.18-3.07a26.66,26.66,0,0,1-3.25-3.46,46.17,46.17,0,0,1-3-4.07c-.9-1.35-1.56-2.88-2.52-4.18-1.9-2.56-3.95-5-5.92-7.51a1.61,1.61,0,0,0-2.6-.15,42.68,42.68,0,0,1-8.49,7.21c-.54.35-1,.85-1.52,1.2-2.25,1.44-4.17,3.16-4.9,5.24.91,1.49,1.52,2.56,2.18,3.6.77,1.2,1.61,2.36,2.37,3.57.55.89.91,1.9,1.53,2.73,1.62,2.14,3.28,4.26,5,6.3,2.19,2.58,4.41,5.13,6.74,7.58a54.6,54.6,0,0,1,7.37,8.79,56,56,0,0,0,6,7.31c3.13,3.54,6,7.49,10.83,8.94.17,0,.3.27.45.27,3,.09,6,.23,9,.2a10.33,10.33,0,0,0,2.59-.81c1.75-.52,3.53-.94,5.23-1.57a15.31,15.31,0,0,0,2.59-1.62c-1.7-1.59-3.4-3-4.93-4.65-1.33-1.39-2.93-2.8-3.53-4.52-.73-2.07-3.09-2.78-3.38-5.16-.19-1.52-1.43-2.88-2.09-4.36-.44-1-.68-2-1-3.05-.47-1.34-1.1-2.63-1.45-4-.61-2.32-1-4.71-1.59-7C340.36,345.58,339.73,344.1,339.2,342.59ZM152,418.42c.18-2.25.62-4.65-1.24-6.67a7.11,7.11,0,0,1-1.22-1.31c-.94-1.83-2.23-3.4-2.95-5.43-.82-2.34-1-3.73.63-5.43a54,54,0,0,0,5.19-5.78,10.53,10.53,0,0,1,3.92-3c1.33-.65,2.1-1.34,2.09-2.86,0-2.45,0-4.91.06-7.37a23.79,23.79,0,0,1,.16-3.59,43,43,0,0,1,1.22-5.25c.59-1.95,1.34-3.85,2.05-5.76.49-1.34,1.11-2.64,1.53-4a1.84,1.84,0,0,0-.33-1.5,23.17,23.17,0,0,0-2-1.66,36.78,36.78,0,0,1-2.76-2.68c-1-1.11-1.79-2.37-2.78-3.48s-2.33-2.31-3.45-3.5c-.75-.81-3.07-1-3.83-.24a14.11,14.11,0,0,0-4,9,26.82,26.82,0,0,1-1.45,5.72c-.63,1.88-1.51,3.68-2.2,5.55-.24.65-.13,1.44-.38,2.09s-2.15,4.48-2.31,5c-.43,1.32-.84,2.66-1.37,3.95-.77,1.89-1.63,3.74-2.44,5.61-.51,1.18-.69,2.68-1.54,3.5-2.09,2-2.42,4.85-3.23,7.25a8.67,8.67,0,0,0,.67,7.64,21.28,21.28,0,0,0,5.07,5.36c2.64,2.1,5.52,3.92,8.08,6.11S148.25,419.8,152,418.42Zm1.78-148c-.78,2.31-1.44,4.15-.39,6,.74,1.3,1.64,2.5,2.41,3.78,1,1.71,1.89,3.53,3,5.17a48.1,48.1,0,0,0,5.13,6.7c1.08,1.1.79,1.67.28,2.65-.69-.45-1.64-.72-1.77-1.21-.65-2.54-3.39-3.44-4.27-5.94-.67-1.94-2.47-3.49-3.73-5.23-.42-.57-.75-1.22-1.14-1.82-.17-.26-.4-.49-.6-.74-.21.3-.56.58-.62.91-.65,3.69.67,6.69,3.29,9.22a2,2,0,0,1,.44.49,36.61,36.61,0,0,0,3.12,5.51c.91,1.13.64,1.79,0,3.24-1.58-2.31-2.92-4.33-4.32-6.3q-1.82-2.56-3.78-5c-.12-.15-1.15.16-1.14.2a39,39,0,0,0,.71,5.39c.32,1.34,1.39,2.54,1.54,3.88.31,2.72,2.44,4.29,3.61,6.45.68,1.25,1.92,2.19,2.74,3.38,1.16,1.68,1.92,3.69,3.27,5.18,2.65,2.9,5.56,5.57,8.44,8.26,2.11,2,3.81,1.71,5-.66a22,22,0,0,1,7.14-8.59c1.65-1.13,3.23-2.38,4.8-3.62a31.43,31.43,0,0,0,3.4-2.89c.82-.84,2-1.77,1-3.22s-2.24-3-3.34-4.49A20.05,20.05,0,0,1,186.6,295c-.65-1.17-1.13-2.45-1.88-3.54-1.44-2.12-3.05-4.12-4.55-6.2-.67-.94-1.2-2-1.89-2.9-1.51-2-3-4-4.65-5.85a11.86,11.86,0,0,0-2.57-2c-.22-.15-1,.13-1,.19a23.7,23.7,0,0,0,.44,4.86c.38,1.41,1.72,2.64,1.84,4,.13,1.61,1.17,2.55,1.74,3.82.26.59.49,1.2.74,1.8l-2.05.84c-.14-.6-.12-.95-.29-1.15-1.33-1.65-2.64-3.29-2.61-5.58a.83.83,0,0,0-.16-.5,10.78,10.78,0,0,1-2.33-5.7,2,2,0,0,0-.32-1,33,33,0,0,1-3.29-4.16c-.82-1.52-2-1.18-3.19-1.22-.32,0-1,.7-.93.91a37.19,37.19,0,0,0,2,5.6,45.81,45.81,0,0,0,3,4.73l5,7.75-1.57,1.24-1.66-2.22a38.93,38.93,0,0,1-2.68-3.66c-1.41-2.42-2.66-4.94-4-7.4a16.48,16.48,0,0,1-1.28-2C157.61,273.31,155.61,272.16,153.77,270.43ZM144.18,351c.43-2.06,3.45-4.58,5.4-5,3.11-.64,4.84,1.71,6.38,3.79.45.61,1.58,1.47,1.93,1.29a12.27,12.27,0,0,0,3-2.44c.75-.78,1.26-1.78,1.95-2.63a57.89,57.89,0,0,0,4.48-5.58c1.57-2.56,2.72-5.37,4.08-8,.25-.5.8-.89,1-1.4.7-2.4-.74-4.62-1.66-6.35-1.41-2.65-4.81-3.87-6.62-6.55a17.84,17.84,0,0,0-3.22-3.56,14.47,14.47,0,0,1-3-3.94,29.63,29.63,0,0,0-3.33-4.28,2.78,2.78,0,0,0-1.73-1.08c-.62,0-1.28.62-1.81,1.09a9.5,9.5,0,0,0-1,1.41c-1,1.27-2.06,2.45-2.92,3.79-1.07,1.65-1.84,3.48-2.94,5.1s-2.42,2.78-3.48,4.27c-2.67,3.74-5.25,7.54-7.85,11.33a5.14,5.14,0,0,0,.4,6c1.27,1.48,2.41,3.08,3.6,4.64s2.36,3.13,3.51,4.71c.72,1,1.38,2,2.25,3.31ZM126.42,399.6c.53-2.35,1-4.59,1.55-6.84a1.72,1.72,0,0,1,.16-.5c1.18-2.19,2.42-4.35,3.53-6.57.59-1.16.92-2.45,1.41-3.67.79-2,1.62-4,2.41-6,.56-1.41,1-2.84,1.62-4.24.69-1.66,1.58-3.26,2.15-5,.66-2,1.07-4,1.6-6,.06-.23.22-.43.27-.66.31-1.17.59-2.36.87-3.5a3.57,3.57,0,0,0-.66-.19c-3.94.33-7.71-.64-11.46-1.63l-.52-.13c-1.5-.34-3-.78-4.52-1-1-.15-1.62.45-2.23,1.35-1.46,2.15-3.12,4.18-4.77,6.2-1.77,2.17-3.65,4.25-5.41,6.43-1,1.24-1.9,2.58-2.8,3.91-1.89,2.82-4.46,5.28-4.86,8.92,0,.33-.41.61-.45.93a11.64,11.64,0,0,0-.29,3.86,10.55,10.55,0,0,0,2,3.82,36.06,36.06,0,0,0,4.7,5.3,42.81,42.81,0,0,0,5.64,3.75,7,7,0,0,0,2.76,1.35C121.49,399.73,123.88,399.6,126.42,399.6ZM309,293.18a2.73,2.73,0,0,0,.36,1.36c2,2.5,4.05,5,6.2,7.36a99.31,99.31,0,0,0,7.6,7.88c1.43,1.26.9,3.11,2,4.32.13.14-.09.68-.23,1-.58,1.28-1.17,2.55-1.79,3.8a28,28,0,0,1-2,3.75,3,3,0,0,0,.31,4.24,12.22,12.22,0,0,1,2.54,3.06c1.64,3.49,4.46,6,6.91,8.82a6.35,6.35,0,0,0,6.69,2,3.13,3.13,0,0,0,2-2c.51-4.53-.23-9.14,1-13.66.23-.88-.58-2-.72-3-.58-4.47.66-9.06-1.37-13.48-1-2.17-1.05-4.77-1.52-7.12-1.92,0-3.64,0-5.37,0-.7,0-1.68.05-2.06-.36-1.46-1.61-3-3.2-2.77-5.74a5.81,5.81,0,0,0-1-4.54c-.83-1.06-1.07-2.57-1.66-3.84a10.86,10.86,0,0,0-1.31-2,.88.88,0,0,0-.82-.13c-1.38.86-2.71,1.8-4.08,2.68C315.11,289.36,312.21,291.17,309,293.18ZM354.86,280l-.53.26a19.62,19.62,0,0,0-3.29,1.13c-1.88,1-3.67,2.22-5.48,3.37a53.66,53.66,0,0,0-4.57,3c-1.64,1.3-3.12,2.8-4.67,4.21a1.49,1.49,0,0,0,0,1.55c1.1,2.53,2.36,5,3.35,7.57a53.57,53.57,0,0,1,1.51,5.64c.75-.22,1.37-.35,2-.57,1.86-.71,3.66-1.58,5.56-2.13,1.41-.4,2.83-.48,4.29-1,2.57-.92,3.11-3.24,4.33-5a13.23,13.23,0,0,1,2.62-3.25c1.47-1.1,1.81-2.46,1.06-3.48a27.16,27.16,0,0,1-2-3C357.56,285.51,356.23,282.72,354.86,280Zm-41.3-14.38c.71-1.52.47-1.46-.41-4.67a46.66,46.66,0,0,0-2.67-7.25c-1-2.2-1.37-4.67-2.51-6.9a27.34,27.34,0,0,1-1.61-5.44c-.53-2-1.92-3.14-3.32-2.47-1.79.87-3.52,1.88-5.25,2.87-2,1.15-4,2.31-6,3.55a16.69,16.69,0,0,0-2,1.83c.9.77,1.5,1.34,2.16,1.84,1.86,1.41,3.8,2.72,5.59,4.2,2.32,1.92,4.41,4.12,6.78,5.95C307.25,261.34,310.37,263.35,313.56,265.57Zm-18.13,7.36-.66.67a14.23,14.23,0,0,0,1.09,2.13c.87,1.16,2.3,2.09,2.71,3.37.64,2,2.38,3.08,3.38,4.75.89,1.48,2.68,2.6,3.07,4.14.48,1.85,1.46,1.87,2.78,1.93a5,5,0,0,0,3.47-1c1.15-.86,2.76-1.08,4-1.87a32.87,32.87,0,0,0,4.62-3.68c.73-.69,3.13-1.18.84-2.87-.17-.13-.08-.58-.17-.87-.47-1.52-.67-3.22-1.5-4.51a18.32,18.32,0,0,1-2.5-6.08,6.81,6.81,0,0,0-.77-1.21c-1.11,3.06-2.05,5.66-3,8.26-.26.72-.51,1.93-.93,2A8.25,8.25,0,0,1,308,278c-1.34-.42-2.46-1.52-3.79-2-1.75-.68-3.61-1.06-5.42-1.58a5.52,5.52,0,0,1-.67-.27Zm-25,47.7-.62-.14a14.49,14.49,0,0,0-.45,2.49c0,3.11,0,6.23,0,9.34,0,.65.13,1.49-.21,1.93-1.48,1.94-.7,4.16-.95,6.24a1.64,1.64,0,0,0,.78,1.38,40.25,40.25,0,0,0,6.64,1.56,69.18,69.18,0,0,0,7.89.15,16,16,0,0,0,2.46-.45ZM149.25,402.14h9v-9.8l-.62-.31c-1.48,1.59-2.91,3.21-4.44,4.74S149.51,399.34,149.25,402.14ZM362,288.37c2.15-3.14,4.11-6.09,1.41-10-1.34,0-2.89,0-4.42,0-.47,0-1.31.36-1.31.55a5.43,5.43,0,0,0,.51,1.9c.09.24.45.37.56.6C359.8,283.7,360.84,285.93,362,288.37ZM180.52,356a22,22,0,0,0,3.88,0,39.6,39.6,0,0,0,4.78-1.48,6.65,6.65,0,0,0-.27-2.75,9,9,0,0,0-2.71-2.88,2.15,2.15,0,0,0-2,.51C182.87,351.38,181.79,353.59,180.52,356ZM295.93,337.1c-1.53.09-2.23.73-2.25,2.15,0,.44-.13,1.11-.44,1.29-1.43.85-.79,2.23-.94,3.38,0,.27.54.9.82.89,2.3-.11,4.95.88,6.5-1.92Zm20.42-18.91a14.81,14.81,0,0,0,.38,1.73c.64,1.68,1.81,2.43,2.57,1.66a8,8,0,0,0,1.28-1.82c.61-1.13,1.17-2.28,1.67-3.45.24-.55.6-1.53.41-1.68-.5-.38-1.45-.74-1.88-.5a15.35,15.35,0,0,0-2.8,2.32C317.33,317.06,316.76,317.75,316.35,318.19Zm17.43-24.3c-.85-.13-3.67,1.19-4.13,2.31a2.66,2.66,0,0,0-.09,1.53c.35,1.48,3.23,2.81,4.61,2.18,1.23-.55,2-2.33,1.47-3.22S334.58,295.09,333.78,293.89ZM303.7,235a7,7,0,0,0-.14-2c-1.05-2.59-2.26-5.13-2.24-8,0-1.34-.55-2.09-2.31-2.37a10.61,10.61,0,0,0,.06,3.16c.56,1.63,1.83,3.08,2.1,4.72A5.77,5.77,0,0,0,303.7,235Z"/><path class="cls-1" d="M236.57,118.2c2,2.48,4,4.81,5.89,7.25a12.34,12.34,0,0,1,1.27,2.78c1,2.41,2,4.83,3,7.23.36.84.94,1.6,1.32,2.44.82,1.76,1.61,3.54,2.35,5.34s1.49,3.81,2.19,5.73c.58,1.6,1,3.24,1.67,4.82s1.41,3.18,2.13,4.76c.05.1.19.2.18.29-.3,2.11,1,3.81,1.52,5.69.68,2.32,1.45,4.62,2.17,6.92.09.29.16.58.22.87.47,2.42.81,4.87,1.46,7.23.57,2.08,1.6,4,2.22,6.1s.95,4.33,1.58,6.45,1.47,4,2.21,6.05c0,.11.13.2.16.31.5,2,.91,4.06,1.51,6,.66,2.18,1.53,4.3,2.25,6.47.48,1.42.87,2.87,1.29,4.3s1,2.87,1.27,4.34c.55,2.86.9,5.76,1.44,8.62a19.07,19.07,0,0,0,1,2.94c.08.21.24.45.21.65-.44,2.77,1,5.19,1.61,7.72.53,2.13.78,4.24,1.16,6.37s1.52,3.94,2.28,5.92c.46,1.17.76,2.4,1.25,3.55,1.2,2.77,2.51,5.49,3.7,8.26.64,1.49,1.07,3.06,1.68,4.55.26.62.79,1.13,1.11,1.73a105.28,105.28,0,0,0,7.76,12.17c1.78,2.43,3.49,4.91,5.28,7.34,1.64,2.22,3.28,4.44,5,6.58q3.58,4.39,7.32,8.67c1.05,1.19,2.37,2.16,3.42,3.36a6.73,6.73,0,0,1,1.67,2.81c.12.51-.76,1.58-1.42,1.86-1.62.68-2.36,2.35-4.2,3s-3.05,2.59-4.6,3.91c-1.89,1.62-3.92,3.08-5.72,4.78s-4.29,2.45-5.74,4.68c-1,1.55-2.79,2.56-4,4a29.09,29.09,0,0,0-3.32,5.09,45.74,45.74,0,0,0-1.95,5.29,8.73,8.73,0,0,1-3.37-3.73c-.92-1.74-2.09-3.34-3.15-5s-2.1-3.47-3.26-5.13c-1.31-1.86-2.79-3.6-4.11-5.47-1.64-2.32-3.11-4.77-4.8-7.06s-3.74-4.58-5.52-6.95c-1.65-2.18-3.14-4.48-4.73-6.72-1.07-1.51-2.26-2.94-3.26-4.49-1.11-1.74-2.06-3.57-3.09-5.36-.22-.38-.48-.73-.71-1.1q-1.52-2.44-3-4.9c-1.13-1.83-2.27-3.65-3.37-5.49-.6-1-1.16-2-1.69-3.08-1.77-3.49-3.42-7.06-5.32-10.49-1.38-2.48-3.12-4.76-4.66-7.16-1.43-2.24-2.65-4.62-4.23-6.74-1.9-2.55-2.85-5.48-4-8.34a70.1,70.1,0,0,0-3.63-7.75c-1.77-3.1-3.85-6-5.79-9a1.54,1.54,0,0,1-.27-.46c-.51-2.81-2.48-4.84-3.8-7.22-.82-1.49-1-3.31-1.6-4.93s-1.34-3.24-2-4.86a3,3,0,0,1-.33-.79c-.16-2.29-1.34-4.12-2.43-6.06a64.79,64.79,0,0,1-2.83-6.69c-.9-2.12-1.74-4.26-2.77-6.31s-2.32-3.91-3.32-5.94c-.72-1.47-.95-3.21-1.75-4.62s-.7-3.14-2-4.37c-.76-.7-1-2-1.37-3.07-.62-1.85-1.06-3.76-1.71-5.59-.54-1.5-1.3-2.93-1.95-4.39a5.05,5.05,0,0,1-.33-.84,53.49,53.49,0,0,0-1.46-6.06c-1.14-3.15-1.89-6.4-2.81-9.61-1-3.64-2-7.22-2-11a22.45,22.45,0,0,1,.85-4,7.11,7.11,0,0,0,.18-1.59,12.59,12.59,0,0,1,2.29-7.68,1.43,1.43,0,0,0,.15-.52c.51-2.47.9-5,1.55-7.39a48.39,48.39,0,0,1,2-5c.58-1.49,1.13-3,1.74-4.46.5-1.18,1-2.36,1.63-3.49s1.52-2.25,2-3.47c1-2.42,1.74-5,2.91-7.36,1.32-2.66,3-5.13,4.5-7.72.65-1.14,1-2.44,1.71-3.57,1-1.77,2.26-3.44,3.34-5.19.63-1,1.11-2.08,1.69-3.1s1.35-2.18,2-3.3,1.21-2.45,1.8-3.68a45.73,45.73,0,0,1,5.56-9.39,7,7,0,0,1,2.83-1.88c1.61-.62,2.36,1,2.88,1.87,1.18,2.09,1.92,4.42,2.91,6.62.65,1.41,1.44,2.76,2.16,4.14.5.95,1,1.9,1.51,2.84s1,1.68,1.45,2.58c.92,2.05,1.72,4.17,2.68,6.21.61,1.31,1.84,2.47,2,3.82.49,3,3.26,4.42,4.5,6.93s3.67,4.78,5.49,7.19c1.05,1.38,1.92,2.89,2.95,4.29,1.42,1.93,2.91,3.82,4.39,5.71,1.17,1.51,2.34,3,3.58,4.48.92,1.09,1.93,2.1,2.93,3.12,1.52,1.56,3.08,3.08,4.59,4.65,1.78,1.85,3.54,3.7,5.26,5.61.86,1,1.56,2,2.41,3,1.8,2,3.68,4,5.47,6,1.22,1.4,2.8,2.36,3.7,4.2,1.06,2.13,3,3.82,4.35,5.81,1.56,2.23,3,4.57,4.41,6.89.77,1.24,1.47,2.52,2.17,3.79a7.76,7.76,0,0,1,.24.86c.74,1.71,1.5,3.41,2.24,5.12.13.32.19.67.29,1,.34,1.19.75,2.37,1,3.59.56,2.44,1.09,4.9,1.57,7.36.53,2.65.58,5.5,1.62,7.93a19.81,19.81,0,0,1,.95,4.53c.19,1,.59,1.89.85,2.84a8.46,8.46,0,0,1,.39,2.09c0,4.14.14,8.29-.09,12.41a53.66,53.66,0,0,1-1.36,10c-.65,2.59-2.16,5-3.22,7.45a4,4,0,0,0-.3,1.74c.13,2.5-1.68,3.87-3.22,5.26a26.66,26.66,0,0,1-5,3.42,40.3,40.3,0,0,1-4.51,1.79,10.13,10.13,0,0,0-1.8.91c-1.83,1.21-3.78.42-4.55-1.87a3.07,3.07,0,0,1-.14-.52c-.48-2.95-.82-5.94-1.47-8.85-.51-2.3-1.39-4.52-2.1-6.78-.07-.22-.1-.46-.16-.7-.55-2.26-.94-4.58-1.7-6.78a51,51,0,0,1-2.5-8c-.31-1.77-1.4-3.41-2.13-5.11a1.4,1.4,0,0,1-.1-.35c-.52-2.32-.94-4.66-1.58-6.94s-1.56-4.27-2.19-6.45-.91-4.36-1.49-6.51c-.67-2.47-1.49-4.9-2.25-7.35,0-.06-.06-.11-.08-.17-.52-2.06-.95-4.16-1.61-6.18-.56-1.72-1.41-3.34-2.11-5-.41-1-.82-2-1.16-3-.61-1.81-1.11-3.66-1.76-5.45s-1.44-3.62-2.18-5.42c-.55-1.35-1.08-2.71-1.7-4-1-2.22-2.11-4.43-3.2-6.62-1-1.9-1.85-3.83-3-5.63a52.82,52.82,0,0,0-4.33-6.3C239,117.16,237.68,117.16,236.57,118.2Zm17.22,108c1-2.16-.4-3.07-1.43-3.9-2.79-2.24-5.78-4.24-8.57-6.48a50.83,50.83,0,0,1-9-8.93c-3-4-6.67-7.28-10.1-10.83a73.81,73.81,0,0,1-7.27-8.27c-1.41-2-3.77-3.22-4.46-5.78-.09-.36-1.1-.46-1.68-.69-.16.47-.56,1-.44,1.38a8.42,8.42,0,0,0,1.19,2.07c1,1.42,2.05,2.85,3.19,4.18,1,1.15,2.17,2.14,3.17,3.28,1.59,1.82,3,3.76,4.65,5.55,1.46,1.6,3.1,3,4.59,4.61,2.78,2.94,5.49,5.95,8.26,8.9,1.49,1.58,3,3.16,4.6,4.62,1.43,1.3,3,2.44,4.53,3.65s2.74,2.29,4.16,3.37S252.2,225.09,253.79,226.21Zm-6.41-118.59-.75.28c.1.95-.12,2.13.37,2.8a69,69,0,0,0,4.85,5.69c2,2.22,4.14,4.38,6.23,6.55,2.34,2.44,4.7,4.84,7,7.29,1.89,2,3.78,4,5.61,6,1.61,1.82,3.15,3.69,4.68,5.57s2.83,3.74,4.37,5.51a6.3,6.3,0,0,0,2.05,1.05c.08-.82.54-1.91.18-2.42a41.68,41.68,0,0,0-4.45-5.29c-1.85-1.86-3.09-4.16-5.08-6-3.09-2.8-5.52-6.32-8.42-9.34-3.12-3.25-6.57-6.16-9.67-9.42C251.88,113.33,249.7,110.41,247.38,107.62ZM221.62,64.09c-1.8-.38-2.34.12-1.85,2.18a8.74,8.74,0,0,0,.62,1.27c.61,1.38,1.23,2.75,1.81,4.14.64,1.55,1.14,3.17,1.9,4.66,1,2,2.21,4,3.42,5.93,1,1.65,2.25,3.21,3.33,4.84,1.47,2.21,3,4.4,4.32,6.68a3.05,3.05,0,0,0,3.51,1.64c-.85-1.66-1.64-3.32-2.54-4.92s-1.61-3.35-2.87-4.51c-2.92-2.67-4.29-6.2-6-9.54-.53-1-.84-2.19-1.33-3.26C224.54,70.22,223.12,67.25,221.62,64.09Zm56.77,215.47c-.17-1.05,0-2.09-.45-2.4a27,27,0,0,0-4.25-2.52c-1.21-.6-2.56-.94-3.75-1.57a17.32,17.32,0,0,1-2.76-1.93c-1.21-.95-2.32-2-3.57-2.92-1.85-1.32-3.75-2.57-5.71-3.71a3.78,3.78,0,0,0-2,0c-.09,0-.28.92-.11,1.06a32.31,32.31,0,0,0,3.41,2.64c1.64,1.07,3.73,1.69,5,3.09,2.57,2.88,6.07,4.07,9.24,5.86C274.8,277.92,276.31,278.55,278.39,279.56ZM209.46,96.49c.53.63.94,1.54,1.61,1.83,2.47,1.05,5,1.89,7.56,2.81a2.87,2.87,0,0,1,.65.27c1.7,1.13,3.4,2.24,5.06,3.41a25.45,25.45,0,0,0,3.29,2.39c1,.46,1.78,2.44,3.42.59a15.55,15.55,0,0,0-1.91-2.15c-2.15-1.7-3.8-4-6.59-4.94-1.64-.53-3.1-1.59-4.7-2.26-1.41-.59-3.25-.6-4.28-1.54C212.3,95.72,211.16,96,209.46,96.49Zm90.6,217.94a20.51,20.51,0,0,1-2.54-.79c-1.26-.59-2.38-1.59-3.68-1.88a8.89,8.89,0,0,1-4.09-2.35c-1.36-1.19-2.89-2.28-4.91-1.49-.2,1.85,0,1.92,1,2.36,1.38.59,2.65,1.45,4,2.16,1.11.59,2.22,1.16,3.35,1.69,1.39.65,2.79,1.28,4.21,1.86.8.32,1.65.5,2.67.8Z"/><path class="cls-1" d="M103,377.31c-3.16-1.35-5-4.18-7.12-6.7a59.19,59.19,0,0,0-4.41-4.26c-.16-.15-.42-.28-.46-.46-.69-3-2.77-5.3-4.1-8-.76-1.5-1.49-3-2.32-4.49-1.15-2-2.44-4-3.56-6.06-1-1.83-1.76-3.79-2.79-5.6-1.62-2.87-3-5.9-5-8.56-.87-1.13-1-2.86-1.46-4.31-.76-2.35-1.51-4.71-2.27-7.06a4.14,4.14,0,0,1-.19-.49c-.52-2.13-1-4.3-1.57-6.4s-1.51-4.34-2.19-6.53c-.55-1.78-.92-3.6-1.43-5.38-.72-2.49-1.51-5-2.26-7.45a.84.84,0,0,1,0-.17c-.53-2.57-1-5.15-1.61-7.71-.33-1.48-.88-2.92-1.2-4.41a62.11,62.11,0,0,1-1.16-6.63c-.23-2.26.35-4.72-.34-6.79-1.07-3.22-.54-6.59-1.38-9.67-1.52-5.56-.73-11.13-1-16.68-.08-1.48-.32-2.53-2.26-2.07a4.63,4.63,0,0,0-.24,1.13c.06,4.74-.35,9.55.39,14.18.49,3.07.08,6.32,1.09,9.12,1.32,3.65.74,7.31,1.24,10.93.36,2.57.41,5.27,1.31,7.64a39.51,39.51,0,0,1,1.27,5.83,51.19,51.19,0,0,0,2.2,6.3c0,.05,0,.11,0,.17.47,2.14.84,4.32,1.43,6.43s1.47,4.32,2.12,6.51,1,4.16,1.63,6.21,1.41,4.17,2.13,6.26c0,.11.14.2.16.31a55.88,55.88,0,0,0,1.66,6.6c.7,1.85.71,3.94,2.1,5.59a26.19,26.19,0,0,1,2.75,4.25c.25.45,0,1.16,0,2.14a11.08,11.08,0,0,0-2-1.14c-2-.59-4.06-1-6.06-1.59-2.45-.7-4.86-1.5-7.29-2.24a3.28,3.28,0,0,0-.88-.12c-2.15-.09-3.81-1.38-5.64-2.27-1.47-.71-3.06-1.16-4.56-1.81s-2.68-1.26-4-1.89a3.63,3.63,0,0,0-1.27-.49c-2.81-.08-4.61-1.9-6.49-3.62-1.1-1-2.25-2-3.42-2.93a4.67,4.67,0,0,1-.77-5,1.48,1.48,0,0,0,.29-.43c.49-2.15.88-4.32,1.45-6.45s1.35-4.29,2-6.44a5,5,0,0,0,.2-.49,67.24,67.24,0,0,1,1.59-7.54c1.45-4.38.67-9,1.61-13.33a53.82,53.82,0,0,0,.51-17.79c-1.16-9.62-.82-19.2-.69-28.8a58.36,58.36,0,0,1,1.18-9.84A60.05,60.05,0,0,1,42,220.05c.56-1.77,1-3.58,1.66-5.33a33.32,33.32,0,0,1,1.61-3.43c1.93-3.94,5.13-6.77,8.3-9.7,2.55-2.36,5.2-3.82,8.75-3.57a32.23,32.23,0,0,0,6.29-.06c2.91-.37,5.52.78,8.09,1.59,2.37.74,4.52,2.46,6.53,4A56.72,56.72,0,0,1,90,209.73a61.37,61.37,0,0,1,4.76,6.4c1.11,1.6,2.09,3.3,3.17,4.93,1.51,2.28,3,4.55,4.6,6.8.32.47.82.81,1.13,1.27,1.67,2.44,3.37,4.85,4.93,7.35,2.25,3.63,4.4,7.31,6.57,11,.93,1.56,1.73,3.2,2.73,4.7.83,1.26,1.91,2.35,2.8,3.57,1.62,2.26,3.13,4.6,4.79,6.84,1.46,2,3.12,3.81,4.55,5.8.71,1,1,2.28,1.69,3.26,2,2.78,4.15,5.44,6.19,8.18,1,1.29,1.76,2.68,2.68,4,1.3,1.87,2.62,3.73,4,5.55a6.49,6.49,0,0,0,1.59,1.63,5.36,5.36,0,0,1,2.4,4.3c.17,1.36,1.14,2.64,1.88,3.89a4.44,4.44,0,0,1-.58,4.77c-1.06,1.28-1.88,2.76-2.82,4.15-.43.63-.91,1.22-1.32,1.85-1.32,2-2.6,4.1-3.92,6.13a18.52,18.52,0,0,1-1.42,1.88c-1.49,1.76-3.07,3.47-4.5,5.29a23.21,23.21,0,0,0-1.6,2.85,30.16,30.16,0,0,1-4.35,6.05,2.86,2.86,0,0,0-.06,4c.68.86,1,2,1.58,2.94,2,2.93,4.1,5.79,6.12,8.7a41.83,41.83,0,0,1,3,4.66,2.26,2.26,0,0,1-.43,2.05c-.26.29-1.26-.06-1.92-.19s-1.13-.33-1.7-.45c-2.63-.54-5.27-1-7.89-1.62-1-.23-2-.92-3.06-1-2.28-.27-4.18,1.2-5.34,3.18A45.59,45.59,0,0,1,116,360c-1.53,1.87-3.21,3.61-4.77,5.46-1,1.15-1.9,2.37-2.77,3.6-1.27,1.81-2.49,3.67-3.72,5.51C104.13,375.48,103.55,376.39,103,377.31ZM82.65,267l-.56,0a7.1,7.1,0,0,0-.26,2.34c.68,2.78,1.87,5.48,2.21,8.29.39,3.18,1.78,5.89,2.88,8.77.66,1.73,1,3.56,1.53,5.34a3.24,3.24,0,0,0,.13.33c.72,1.6,1.51,3.17,2.14,4.8s1,3.22,1.58,4.83c.37,1.13.7,2.28,1.18,3.37.79,1.79,1.69,3.54,2.56,5.31.36.73.8,1.43,1.1,2.19.62,1.55,1.09,3.17,1.78,4.69a34.53,34.53,0,0,0,1.9,3.2c.91,1.56,1.86,3.09,2.67,4.69.62,1.23.82,2.74,1.62,3.8a45,45,0,0,0,4.54,4.83c.35.34,1,.35,1.53.51a5.79,5.79,0,0,0-.41-2.23c-1.42-2-3.13-3.8-4.47-5.85-1.06-1.61-1.71-3.5-2.61-5.22-.33-.64-1-1.13-1.28-1.77-.59-1.21-1-2.5-1.56-3.71-1.15-2.45-2.36-4.87-3.52-7.31-.76-1.57-1.51-3.15-2.18-4.77s-1.18-3.1-1.73-4.67c-.61-1.72-1.16-3.46-1.77-5.17s-1.37-3.55-2-5.34c-.55-1.57-1-3.18-1.56-4.75-.75-2.19-1.64-4.33-2.28-6.55s-1-4.68-1.65-7A17.79,17.79,0,0,0,82.65,267Zm-6.9-23.91c.74-.27,1.7-.34,2.17-.85a74.56,74.56,0,0,0,5-6c.36-.49.12-1.43.16-2.16-.49.19-1.15.24-1.45.59-1.7,2-3.3,4.06-5,6a1.31,1.31,0,0,1-1.16.1A25.25,25.25,0,0,1,74,237.51c-.79-2-1.48-4.11-2.26-6.15a3.19,3.19,0,0,0-1-1.56,1.86,1.86,0,0,0-1.45.43,8.51,8.51,0,0,0,.43,2.26c.15.53.47,1,.58,1.55a10.25,10.25,0,0,0,.16,1.78c.69,1.7,1.78,3.29,2.19,5.05S74.21,242.9,75.75,243.05Z"/><path class="cls-1" d="M366.42,390c-2.32,1.52-4.3,2.93-6.39,4.16-1.85,1.09-3.81,2-5.72,2.95-.92.48-1.83,1-2.72,1.51a64.82,64.82,0,0,1-5.71,3.38,41.89,41.89,0,0,1-5.28,1.6c-2.15.68-4.27,1.42-6.4,2.13a2.38,2.38,0,0,1-.51.18c-4.61.6-9.22,1.39-13.85,1.71a44.25,44.25,0,0,1-9.69-.39c-16.29-2.5-32.67-.43-49-1.05a13.77,13.77,0,0,0-2.66.46c-1.1-1.34-.45-14.07,1.2-18.23,8.62,3.53,17.67,2.27,26.62,2.29,5.94,0,11.87,0,17.81,0a13.85,13.85,0,0,0,6.87-2.12c.26-.14.56-.37.81-.34,1.69.23,2.47-.94,3.45-2.28-1.44-.23-2.75-1.09-3.85.54a.66.66,0,0,1-.45.25c-2.59.21-4.84,1.69-7.6,1.56-5.5-.25-11-.2-16.54,0-3.19.1-6.36.84-9.55,1-2.36.11-4.92.86-7-1,0,0-.12,0-.18,0l-8.12-1.37c-2.79-.47-5.61-.79-8.36-1.45-1.21-.29-2.25-1.28-3.4-1.91s-2.17-1.15-3.3-1.65a36.85,36.85,0,0,0-9.75-2.86c-1.3-.18-2.48-1.23-3.71-1.89-1-.5-1.9-1-2.87-1.49-1.26-.6-2.59-1.06-3.8-1.73s-2.16-1.5-3.29-2.17a17.14,17.14,0,0,0-2.75-1.27,33.66,33.66,0,0,1-6.54-3.73c-3.29-2.16-6.59-4.34-9.94-6.43-1.85-1.16-4.23-1.68-5.75-3.14-2.53-2.42-5.81-3.9-8-6.82-1.88-2.54-4.28-4.69-6.34-7.11a42.72,42.72,0,0,1-2.62-3.85c-2-3-4.21-6-6.11-9.09a13.27,13.27,0,0,1-1.54-4.54c-.28-1.68.93-2.85,2-4s1.91-2.79,3-4.07a46,46,0,0,1,4.5-4.76,86.82,86.82,0,0,1,7.24-5.74,29,29,0,0,1,5.71-3.17c1.45-.59,2.87,0,4,1.29,2.58,2.92,5.14,5.89,8,8.56a81.94,81.94,0,0,0,7.19,5.61c2,1.53,4,3.11,6.15,4.51,1.69,1.12,3.55,2,5.29,3,1.46.88,2.86,1.88,4.27,2.85a31.26,31.26,0,0,0,2.85,1.95c1.95,1,4,1.83,6,2.84s3.87,2.18,5.8,3.29a3.55,3.55,0,0,0,.61.37,28.72,28.72,0,0,1,5.19,1.61c1.82,1,3.7.93,5.6,1.19a27.9,27.9,0,0,1,6.3,1.39c3.25,1.23,6.79,1.45,9.95,2.66,4.24,1.62,8.42.62,12.62.82,1.88.09,3.59-.12,5.52,1,1.45.88,4.18.48,6-.26,2.52-1,3.79-1,5.26,1.28a33.14,33.14,0,0,0,2.61,3.2c.76.91,1.5,1.82,2.28,2.7,1.84,2.05,3.71,4.07,5.56,6.12,1.6,1.78,3.18,3.59,4.77,5.38,1.11,1.24,2.55,2.32,3.24,3.76a23,23,0,0,0,2.91,4.31,68.92,68.92,0,0,0,4.75,5.72c2.15,2.14,4.57,4,6.87,6,.12.11.24.29.39.31a53.42,53.42,0,0,0,8.1,1.1,34.09,34.09,0,0,0,8.07-1.2c1.8-.44,3.42-1.6,5.21-2.14a3.54,3.54,0,0,1,2.69.44,55.65,55.65,0,0,1,5.6,4.58C366.32,388.67,366.31,389.57,366.42,390Zm-99.88-45a8.77,8.77,0,0,0-1.78,0c-1.57.34-3.11.78-4.67,1.18l-.69.18c-2.43.7-4.81,1.74-7.29,2.05-5.84.72-11.72,1.09-17.58,1.61a4.36,4.36,0,0,0-.79.2l-.12.59a5.91,5.91,0,0,0,1.78.59c4.19,0,8.38,0,12.55-.29,2.77-.18,5.5-.83,8.25-1.27l.17,0c2.9-.79,5.76-1.75,8.7-2.33C266.59,347.11,267.07,346.63,266.54,344.92Zm-22.69-4.32c0-.46.21-1,0-1.37a1.31,1.31,0,0,0-1.17-.49c-2,.65-4,1.53-6,2.12s-4.1.92-6.14,1.41a.86.86,0,0,0-.54.56c0,.19.27.61.42.61a36,36,0,0,0,6.59-.31A50.58,50.58,0,0,0,243.85,340.6Z"/><path class="cls-1" d="M362.62,275.53a59.92,59.92,0,0,0-7.49,1.8c-1.94.72-3.62,2.1-5.45,3.13-1,.58-2.19,1-3.2,1.59-2,1.25-4.06,2.51-6,3.94-2.59,1.93-5,4.08-7.62,6a15.56,15.56,0,0,1-3.19,1.33l-1.51-2.66c-.68-1.22-1.4-2.42-2-3.66s-1.17-2.4-1.74-3.6c-.82-1.75-1.68-3.48-2.44-5.25-.55-1.3-.93-2.66-1.46-4-.71-1.74-1.56-3.42-2.21-5.18s-1-3.51-1.62-5.24c-.67-2-1.48-3.88-2.18-5.83-.59-1.64-1.07-3.32-1.69-4.95-.7-1.84-1.57-3.62-2.25-5.47-.57-1.52-.95-3.1-1.45-4.64-.93-2.9-1.91-5.79-2.85-8.69-.84-2.61-1.62-5.24-2.46-7.86a69.26,69.26,0,0,1-2.16-6.78c-.26-1.25.25-2.66.44-4,0-.16.23-.28.28-.45a51.48,51.48,0,0,0,1.5-6.18c.55-4.42.89-8.88,1.26-13.32a28.6,28.6,0,0,0,0-4.14c-.09-1.4.56-3-1-4.07-.1-.07-.08-.34-.1-.52-.45-2.89-.52-5.91-1.45-8.64s-1-5.23-1.4-7.85c-.35-2.06-1.44-4-2.18-6a5.52,5.52,0,0,1-.1-.71c-.46-2-.46-4.26-1.49-5.88-1.47-2.33-2-5-3.35-7.35a40.18,40.18,0,0,0-5.06-7.77,37.92,37.92,0,0,1-3.73-5.21,5.54,5.54,0,0,1-.39-2.08c-.32-2.24.57-4.7-1.16-6.7-.07-.07-.05-.23-.05-.35-.08-4.86-1.83-9.51-1.58-14.45.12-2.44-.8-5-1.32-7.4-.08-.4-.55-.71-1.07-1.33a62.8,62.8,0,0,0,4.66-4.25,22.81,22.81,0,0,0,2.93-4.32c2.19-4,4.16-8.07,8.82-9.79.69-.25,1.47-1,2-.84a15,15,0,0,1,3.24,1.71,20,20,0,0,1,2.59,1.66,48,48,0,0,0,4.13,3.59c3.88,2.48,5.23,7,8.24,10.11a8.72,8.72,0,0,1,1.36,3.08c.57,1.56.92,3.22,1.61,4.72.86,1.87.72,4.14,2.33,5.69.08.07.09.22.11.34.49,2.2.93,4.41,1.47,6.6.7,2.88,1.47,5.73,2.21,8.59a5.34,5.34,0,0,1,.15.89c.46,4.89.77,9.8,1.44,14.66a57.79,57.79,0,0,0,2,7.56c0,.12.12.22.14.33.55,2.52,1,5.06,1.66,7.55s1.5,4.78,2.27,7.17a2.3,2.3,0,0,1,.1.35c.53,2.6.6,5.42,1.71,7.74s.07,5.33,1.95,7.47c.14.16.12.46.15.7.44,3.63.72,7.3,1.39,10.89a33.92,33.92,0,0,0,2.15,5.75c.08.2.29.4.29.59-.06,1.59.67,2.9,1.19,4.34.79,2.22.92,4.67,1.47,7,.7,2.93,1.54,5.83,2.32,8.74a1.16,1.16,0,0,1,0,.18c.52,2.79.62,5.76,1.65,8.34,1.23,3.05.45,6.31,1.5,9.16.89,2.41.59,4.76,1,7.11a26,26,0,0,0,1.61,4.92c.67,1.72,1.41,3.42,2.23,5.08,1,2.1,2.18,4.16,3.24,6.25.65,1.27,1.19,2.59,1.84,3.86.48.94,1,1.86,1.58,2.77.72,1.21,1.48,2.4,2.2,3.61C362.73,275.17,362.64,275.39,362.62,275.53ZM317,195l.53.06c.56-1.2,1.45-2.36,1.6-3.62.58-4.63,1-9.29,1.31-13.95.21-2.75.14-5.51.37-8.26.14-1.66.69-3.28.9-4.94.09-.7.4-1.77-1-1.86s-1.38.81-1.4,1.75v.18c-.24,3.48-.05,6.92-.91,10.44s-.45,7.5-.65,11.27a10.31,10.31,0,0,1-.54,2A14.19,14.19,0,0,0,317,195Zm20.9,66.89c.61-8.18,1.22-16.18,1.8-24.18.11-1.49.19-3,.17-4.48,0-.34-.5-.67-.77-1-.23.22-.66.45-.66.67a16.74,16.74,0,0,1-1.15,6.36c-.37,1-.1,2.26-.18,3.4-.39,5.67-.81,11.34-1.19,17a18.25,18.25,0,0,0,.11,2.06Z"/><path class="cls-1" d="M256.93,388.68c-.38,2.63-.84,5.36-1.14,8.11-.22,2,0,4.11-.4,6.08a35.22,35.22,0,0,1-2.1,5.67,37.05,37.05,0,0,1-1.68,3.68,37.61,37.61,0,0,1-3.12,5.23,44.34,44.34,0,0,1-4.36,4.42,7.64,7.64,0,0,1-1.59,1.1,35.44,35.44,0,0,1-4.78,2.37c-6.72,2.45-13.58.77-20.35,1.13-1,0-1.95-.62-2.92-1a5.69,5.69,0,0,0-.65-.24c-2.32-.5-4.8-.64-6.92-1.59-1.91-.87-4.13-.41-5.67-1.31-2.33-1.37-4.88-.44-7-1.36-2.7-1.18-5.54-.3-8.09-1.13-5.76-1.86-11.62-.82-17.43-1.1-1.43-.07-2.87,0-4.31-.07a3.16,3.16,0,0,1-3.4-3.47c0-12.16,0-24.33,0-36.5a15.15,15.15,0,0,1,.93-3.63q.13-.53.24-1.05a43.34,43.34,0,0,1,1.41-6.85,53.86,53.86,0,0,1,3.73-7.44,2.28,2.28,0,0,1,1.69-.82c3.89-.17,7.79-.12,11.67-.39a69,69,0,0,0,7.82-1.2c.62-.11,1.14-.72,1.75-1,2.55-1,4.32.69,6.26,1.81,1.09.64,2.19,1.26,3.27,1.92,1.52.93,3,1.87,4.51,2.84,1.79,1.16,3.56,2.36,5.33,3.55.56.37,1.07.8,1.63,1.15,2.62,1.64,5.2,3.36,7.9,4.87,2,1.13,4.23,1.93,6.32,3a79.4,79.4,0,0,1,7.65,4,17.08,17.08,0,0,0,6.73,2.12c2.89.49,5.2,2.08,7.75,3.23,1.22.56,2.32,1.4,3.57,1.91C252.89,387.43,254.64,387.92,256.93,388.68Zm-76.49-4.51-.52.74c.38.59.64,1.52,1.16,1.7,1.9.65,3.9,1,5.82,1.57,1.66.49,3.29,1.08,4.9,1.71,1.78.69,3.53,1.48,5.3,2.22a6.65,6.65,0,0,1,.77.34c1.19.69,2.33,1.43,3.54,2.07,1.48.78,3,1.54,4.52,2.17.53.22,1.47.28,1.77,0a1.76,1.76,0,0,0,.09-1.74,14.31,14.31,0,0,0-3-1.61c-1.29-.55-2.66-.9-3.92-1.51-2.37-1.14-4.59-2.6-7-3.56-2.94-1.15-6-1.9-9-2.83-.17-.05-.33-.15-.49-.19Zm21.25-12.3c1.45,4.62,5.05,7.83,8,11.34a27.24,27.24,0,0,0,10.67,7.26,10,10,0,0,0,2.35.22c-.61-1.13-.82-2.1-1.38-2.42-1.17-.65-2.6-.82-3.78-1.44a17.63,17.63,0,0,1-3-2.24,22,22,0,0,1-3.22-2.94c-1.49-1.85-3.63-3.16-4.47-5.56a6.19,6.19,0,0,0-1.53-2.68C204.43,372.64,204.16,370.48,201.69,371.87Z"/><path class="cls-1" d="M306.39,51.69c-2.95-.94-5.89-1.89-8.85-2.82-1.65-.51-3.33-.93-5-1.51-1.82-.65-3.6-1.43-5.41-2.15a2.35,2.35,0,0,0-.82-.28c-2.07,0-3.49-1.43-5.19-2.26A17.63,17.63,0,0,0,276,40.94a15.24,15.24,0,0,0-9.59,1.53,6.12,6.12,0,0,0-2,2.54,27.64,27.64,0,0,0-2.79,6.68c-1.09,4.63-2.41,9.3-5,13.37-.55.85-1.47,2.24-3,1.5a4.34,4.34,0,0,1-2.08-2.84c-.88-2.69-1-5.79-3.51-7.78-2.08-1.64-4.84-1.07-6.64,1a31.29,31.29,0,0,1-5.85,5.36c-2.88,2-6.36.14-7-3.2a9.29,9.29,0,0,0-1.71-3.75c-1-1.23-1-2-.06-3.3,1.27-1.64,2-3.74,3.28-5.32,1.92-2.31,1.94-5.34,3.43-7.77a.85.85,0,0,0,.06-.17c.54-2.42,1-4.87,1.64-7.26.58-2.06,1.43-4,2.15-6.06a2.63,2.63,0,0,0,.2-.86c0-2.14,1.13-3.77,2.36-5.41a8.3,8.3,0,0,0,1.43-3.14c.61-2.71,2.77-4.1,4.64-5.69a84.84,84.84,0,0,1,7.3-5.67,9.78,9.78,0,0,1,4.6-1.89c4.79-.26,9.59-.13,14.38-.11a22.93,22.93,0,0,1,9.06,2.36,2.78,2.78,0,0,0,.71.12c3,.4,5.5,2,7.93,3.74,1.51,1.07,3.3,1.75,4.71,2.91s2.64,3,4.09,4.31c1.76,1.63,3.72,3,5.51,4.63a13.24,13.24,0,0,1,2.27,2.73,36.75,36.75,0,0,1,3.6,6.2,21.83,21.83,0,0,0,1.46,3.61c.86,1.41,1.53,2.94,2.28,4.41a.87.87,0,0,1,.07.17,54.47,54.47,0,0,1,1.46,6.6,5.43,5.43,0,0,1-4,5.52C309.81,50.52,308.25,51.06,306.39,51.69Z"/><path class="cls-1" d="M231.28,65.77c1.64-.56,3.14-1.14,4.68-1.56,2.86-.79,4.57-3,6.56-5,.33-.32.6-.78,1-1,.81-.35,1.8-.92,2.49-.7s1.33,1.19,1.71,2a21.5,21.5,0,0,1,1.63,6c.44,2.72,4.24,4.6,6.72,3.43a7.5,7.5,0,0,0,2.87-3,32.56,32.56,0,0,0,1.75-4.54c.45-1.11,1-2.18,1.45-3.3s.62-2.2,1-3.28c.73-2.09,1.48-4.17,2.29-6.23a29.66,29.66,0,0,1,1.39-2.83,4.32,4.32,0,0,1,3.87-2.31,11.19,11.19,0,0,0,2.65-.81c.22-.07.48-.29.64-.23,1.55.6,3.11,1.19,4.62,1.87,1.17.53,2.25,1.25,3.42,1.78,1.87.85,3.74,1.7,5.67,2.38,1.75.62,3.62.93,5.38,1.54,1.59.56,3.11,1.34,4.66,2,.21.09.42.28.63.27,3.08-.18,5.79,2.12,9,1.37.1,0,.22.07.5.18a3.9,3.9,0,0,1-.1,1.27c-.67,1.65-1.43,3.27-2.15,4.9a2,2,0,0,0-.24.66c.08,2.45-1.43,4.34-2.31,6.45-.17.43-.15.94-.29,1.39-.32,1.06-.72,2.09-1,3.15a12.24,12.24,0,0,0-.32,2.1c-.18,2.21.09,4.39-1,6.59a7,7,0,0,1-3.74,3.73A20.13,20.13,0,0,0,289,89.61a16,16,0,0,0-1.63,2.82c-1.64,2.74-2.85,5.78-5.27,8-1.31,1.19-3,2-4.25,3.23-1,.93-1.49,1.2-2.75.28s-2.84-.91-4.19-1.54c-2.5-1.17-5-2.36-6.73-4.7-1.59-2.11-3.57-3.91-5.35-5.87-.73-.79-1.42-1.63-2.08-2.49-1.53-2-3.94-2.41-6.06-3.3-.32-.13-.92.39-1.39.62.28.5.48,1.4.83,1.46,3.81.67,5.69,3.69,7.92,6.3a82,82,0,0,0,6.52,7.38c1.52,1.39,3.71,2,5.54,3.1,2.25,1.3,4.71,1.28,7.17,1.44.39,0,.93.79,1.07,1.3,1.14,4.16,1.07,8.51,1.74,12.7.47,3,.64,6,1.15,8.89a6.93,6.93,0,0,0,.22.87c.14.49.3,1,.46,1.47-.69-.07-1.64.12-2-.26-1.43-1.47-2.64-3.15-4-4.7-1.57-1.79-3.2-3.52-4.81-5.28-2.14-2.34-4.27-4.68-6.42-7-.93-1-1.93-1.92-2.85-2.92s-1.74-2-2.6-3.08c-1.39-1.65-2.82-3.27-4.14-5-1.69-2.18-3.27-4.46-4.94-6.65-1.26-1.64-2.65-3.19-3.88-4.85-.89-1.21-1.57-2.57-2.4-3.82a13.17,13.17,0,0,0-2.66-3.45,2.94,2.94,0,0,1-1.11-1.75c-.41-1.11-1-2.16-1.52-3.24-.77-1.64-1.49-3.3-2.3-4.92-.93-1.86-1.91-3.69-2.92-5.51C232.71,68,232,66.94,231.28,65.77Z"/><path class="cls-1" d="M195.2,301.15l-1.74.29c-1.77-2.82-3.48-5.5-5.14-8.2-1.08-1.75-2.06-3.55-3.15-5.29-.93-1.49-1.94-2.92-2.94-4.36-.65-.94-1.32-1.86-2-2.75-1-1.27-2-2.5-3-3.75a23.4,23.4,0,0,0-2-2.53,24.53,24.53,0,0,0-4.29-3.55c-.7-.41-2,.12-3.34.26.17-.54.39-1.16.54-1.8a19.87,19.87,0,0,0,.49-2.39c.52-4.35.57-8.81,1.68-13,.73-2.78.61-5.52,1.07-8.24.37-2.17.44-4.51,1.35-6.43a11.46,11.46,0,0,0,1-3.74c.22-1.67-.41-2.39-2.13-1.89-.07.07-.2.15-.21.25-.51,3.28-.48,6.75-1.64,9.78-1.22,3.2-.39,6.53-1.4,9.48-.84,2.47-.34,5-1.14,7.24-.91,2.6-1,5.21-1.26,7.84-.12,1-1.48,1.31-2.35.57-1.15-1-4-.95-5.19-.19-.57.36-1.87.52-2.14.19-1-1.19-2.17-.66-3.28-.71a.92.92,0,0,0-.74.37,26.8,26.8,0,0,0-1.38,4.41c-.29,1.7.35,3.58-1.11,5.05-.18.17-.18.56-.18.86-.07,2.85.39,5.81-2.07,8.43-.62.09-1.32,0-2.17-1.1-1.79-2.35-3.21-4.95-5-7.25-2-2.58-1.17-5.3-.65-7.52s.23-4.53,1.07-6.48c1.17-2.7.76-5.47,1.28-8.16a72.68,72.68,0,0,1,2.21-7,13.73,13.73,0,0,0,.2-2.14c.49-3.91.63-7.92,1.63-11.7.55-2,.59-4,1-6a46.69,46.69,0,0,1,1.89-5.27,6.7,6.7,0,0,0,.43-1.86,35.79,35.79,0,0,1,2.39-10.09,2.67,2.67,0,0,0,.15-.88c0-2.51,1.16-4.55,2.34-6.65a41.55,41.55,0,0,0,1.73-4.77c1.39-3.36,3.16-6.48,6.23-8.65a.77.77,0,0,1,.32-.14c3.71-.78,7.41-1.58,11.23-1,1,.15,2.39,2.32,2.44,4,.13,4.85-.19,9.75.43,14.54.86,6.66.35,13.37,1.17,20a67.89,67.89,0,0,0,1.29,9.09c.63,2.33.38,4.81,1.27,6.89,1.06,2.5.75,5,1.18,7.49.53,3,1.42,6,2.15,9a3.27,3.27,0,0,1,.14.33c.5,2.45.86,4.93,1.51,7.34.53,2,1.39,3.88,2.1,5.81a2.42,2.42,0,0,1,.13.53c.5,2.45.52,5.14,1.62,7.28,1.25,2.41.6,5.15,2.12,7.46.95,1.44,1.06,3.41,1.65,5.11S194.39,299,195.2,301.15Z"/><path class="cls-1" d="M223.52,243.66c-2.44.21-4.78.37-7.11.61-.66.07-1.29.43-1.95.55a5.31,5.31,0,0,1-1.9.1c-1.44-.25-2.85-.68-4.3-.92-3.17-.52-6.39-.79-9.51-1.5a38.49,38.49,0,0,1-7.63-2.57,74.64,74.64,0,0,1-9.13-5.09,4.6,4.6,0,0,1-1.58-3.15c-.31-3.63.16-7.4-.56-10.93-1.69-8.27-.23-16.63-1.2-24.9-.35-2.89-1.36-5.93-.77-8.63.65-3,.35-6.15,1.27-8.91,1.46-4.41.8-8.8,1-13.18.24-5,.12-10.07.21-15.1,0-1.3.17-2.63,1.89-3.1.6,2.45,1.09,4.82,1.78,7.13.61,2,1.45,4,2.18,6a8.62,8.62,0,0,1,.26,1A48.59,48.59,0,0,0,188,167c1,2.53,2.26,4.93,3.4,7.39a1.85,1.85,0,0,1,.17.7c.15,2,1.47,3.55,2.3,5.29.69,1.46,1,3.08,1.64,4.56s1.5,2.85,2.2,4.3c.54,1.09,1,2.23,1.49,3.34,1.25,2.68,2.56,5.35,3.78,8.05,1,2.26,2,4.53,2.87,6.84.94,2.48,1.66,5.05,2.66,7.5s2.63,4.86,3.37,7.46c.88,3.09,2.78,5.59,4.12,8.39,1.25,2.61,3.19,4.88,4.7,7.38C221.66,239.81,222.46,241.6,223.52,243.66Z"/><path class="cls-1" d="M218.66,268.45c-.49,2.06-1,4.1-1.45,6.17-.58,3-.89,6-1.58,9a47.56,47.56,0,0,1-2.06,5.55,6,6,0,0,0-.19,1.06c-.48,2.52-.94,5-1.47,7.57a1.39,1.39,0,0,1-2.24.63c-2-2.09-4.15-4.11-6.1-6.27-1.15-1.27-2-2.77-3.1-4.14-.29-.37-.81-.59-1.07-1-2.2-3.16-4.32-6.37-6.54-9.51-1.1-1.55-2.43-2.94-3.55-4.48a8.19,8.19,0,0,1-1.28-2.6c-.59-2.17-1-4.39-1.53-6.59-.2-.92-.43-1.83-.7-3,1.2-.78,2.64-.46,4.1.13a16.79,16.79,0,0,0,2.25.81q4.56,1.15,9.13,2.22a9.65,9.65,0,0,0,2.14.21c3.12,0,6.34.5,9.33-.12,3.26-.69,6.65-.43,9.73-1.37a33.11,33.11,0,0,1,5.92-1,2.92,2.92,0,0,0,1.15-.4c1.66-1.08,3.14-.83,4.09.85,1.77,3.15,3.46,6.34,5.25,9.48,1.11,1.94,2.44,3.76,3.53,5.72.7,1.26,1,2.71,1.7,4,.8,1.56,1.74,3.06,2.66,4.56.69,1.12,1.46,2.2,2.17,3.31,1.24,2,2.53,3.89,3.67,5.91.67,1.18,1,2.53,1.64,3.76.43.86,1.07,1.62,1.57,2.44s.82,1.46,1.4,2.51c-2.8.59-5.28.64-7.27,1.66-2.31,1.19-4.6.64-6.88,1-1.2.19-2.36.68-3.56.86a35.88,35.88,0,0,1-4.63.42c-1.79,0-3.59-.1-5.39-.11-1.41,0-2-.65-2.16-2-.35-2.89-.43-5.94-1.47-8.58-.83-2.08-.37-4.32-1.25-6.1-1.35-2.72-.38-5.65-1.27-8.17a37.21,37.21,0,0,1-1.34-7.65,25.17,25.17,0,0,0-1.09-4.77,7.82,7.82,0,0,0-1.61-2.05Z"/><path class="cls-1" d="M46.18,333.94c1.57.66,2.66,1.09,3.74,1.57s1.81.95,2.77,1.29c1.73.6,3.49,1.18,5.27,1.62,2.26.56,4.61.82,6.84,1.49s4.56,1.73,7,2.68v4.32c0,6.71-.09,13.43,0,20.13,0,1.09.9,2.16.93,3.25.12,3.77.07,7.54,0,11.3,0,.48-.61,1-1.06,1.39a3.89,3.89,0,0,1-1.81.86,12.65,12.65,0,0,1-3.13-.11c-.73-.1-1.42-.56-2.15-.61-1.61-.12-3.23,0-4.85-.12s-3.5.49-4.89-1c0,0-.11,0-.17,0a71.33,71.33,0,0,0-8.51-1.35,150.9,150.9,0,0,0-15.63,0c-2.2.13-4.3,1.54-6.52,2.09-2.41.59-5.09,1.62-7.33,1.09-3.58-.85-7.11-.55-10.65-.72a3.17,3.17,0,0,1-3.15-1.93c-.61-1.5.75-2.36,1.63-3.12a32.18,32.18,0,0,1,5.13-3.68c2-1.13,4.19-1.92,6.28-2.92,1.34-.65,2.63-1.41,3.94-2.11a3.18,3.18,0,0,1,.68-.22c1.51-.4,3-.86,4.53-1.18a55.93,55.93,0,0,1,7.75-1.37,11.26,11.26,0,0,0,8.52-4.64,18.34,18.34,0,0,1,2.41-2.57c1.18-1,.91-2.29,1.19-3.52C46.46,348.85,46.17,341.75,46.18,333.94Z"/><path class="cls-1" d="M357.85,375.47c-1.37-1.49-2.8-2.93-4.1-4.47-1.66-2-3.25-4-4.8-6a10.19,10.19,0,0,1-1.44-2.6c-.59-1.65-1-3.38-1.53-5-.77-2.23-1.68-4.41-2.46-6.64a30.16,30.16,0,0,1-1.3-10.43c0-9.23.06-18.46.09-27.69,0-2.88,1.29-4.05,3.85-5.22,1.73-.79,3.45-.6,5.09-1.08,2.52-.75,4.89-1.93,6.24-4.46.9-1.66,1.87-3.27,2.87-4.87a1.53,1.53,0,0,1,1-.58c2.06-.28,4-.48,6,.74a27.51,27.51,0,0,0,4.68,1.75c1.27.49,2.52,1.05,3.77,1.6,1.58.68,3.11,1.5,4.74,2a1.53,1.53,0,0,1,1.22,1.8,72.06,72.06,0,0,0,.1,7.35,44.42,44.42,0,0,0,1.09,4.74c.4,2-.55,4.32,1.26,6.07.2.19.08.7.15,1.05a30.36,30.36,0,0,1,1,5.43,9.16,9.16,0,0,1-1.26,4.25c-1,1.83-4.59,1.94-6.16.4s-3.33-3.33-5.11-4.87a2.13,2.13,0,0,0-1.93-.33c-2.1,1.21-4.38,2.36-5.44,4.68a8.48,8.48,0,0,1-3.78,3.78,20,20,0,0,0-6.3,6A10.78,10.78,0,0,0,353.8,348a31.22,31.22,0,0,0,.17,9c.56,2.54.32,5.31,1.28,7.56,1.47,3.44,1.33,7.25,3.35,10.46Z"/><path class="cls-1" d="M218.92,277.44c.19,0,.29,0,.29.06.61,2.23,1.34,4.44,1.77,6.71.62,3.23.67,6.6,1.62,9.71.59,2,.45,4.06,1.15,5.83,1.07,2.7.89,5.43,1.24,8.15a1.52,1.52,0,0,0,.93,1,43.17,43.17,0,0,0,6.24,1.28c2,.19,4.28.48,6-.26,2.11-.88,4.17-.75,6.27-1,2.95-.38,5.89-.83,8.82-1.37a27.92,27.92,0,0,0,3.55-1.19c1.73-.58,2.73.41,3.74,1.62,1.45,1.72,3.17,3.24,4.51,5a7.9,7.9,0,0,1,1.78,4c.12,5.15.06,10.31-.25,15.46a61.37,61.37,0,0,1-1.41,7.82c-2-.27-3.86-.39-5.67-.8-2.71-.62-5.38-1.42-8.05-2.19-1.56-.46-3.12-.95-4.63-1.54-.75-.3-1.37-.92-2.1-1.28-2.69-1.36-5.52-2.48-8.07-4.06-2.91-1.79-6-3.28-8.56-5.68-.79-.74-2.08-.93-3-1.54-2.41-1.53-4.74-3.19-7.13-4.75a53.06,53.06,0,0,1-5.59-3.5,71,71,0,0,1-5.06-5.33c-1.17-1.19-2.49-2.24-3.64-3.45s-2.12-2.63-3.29-3.84a6.57,6.57,0,0,0-1.93-1c-.49-.24-1.32-.32-1.45-.68-.62-1.66-1-3.42-1.55-5.11-.67-1.93-1.66-3.76-2.19-5.73-.71-2.59-1.11-5.26-1.61-7.9,0-.2.26-.46.55-.95,1.23,1.91,2.29,3.67,3.47,5.34a39.71,39.71,0,0,0,2.85,3.51c1.94,2.18,3.89,4.35,5.89,6.47.88.94,1.91,1.73,2.83,2.64.77.76,1.42,1.65,2.21,2.38,1.83,1.69,3,1.44,3.65-.9s1-4.64,1.61-6.92,1.48-4.41,2.23-6.62a4.51,4.51,0,0,0,.09-.53c.53-2.73,1.05-5.46,1.6-8.2A3.58,3.58,0,0,1,218.92,277.44Z"/><path class="cls-1" d="M339.2,342.59c.53,1.51,1.16,3,1.56,4.52.6,2.32,1,4.71,1.59,7,.35,1.37,1,2.66,1.45,4,.36,1,.6,2.08,1,3.05.66,1.48,1.9,2.84,2.09,4.36.29,2.38,2.65,3.09,3.38,5.16.6,1.72,2.2,3.13,3.53,4.52,1.53,1.62,3.23,3.06,4.93,4.65a15.31,15.31,0,0,1-2.59,1.62c-1.7.63-3.48,1.05-5.23,1.57a10.33,10.33,0,0,1-2.59.81c-3,0-6-.11-9-.2-.15,0-.28-.22-.45-.27-4.87-1.45-7.7-5.4-10.83-8.94a56,56,0,0,1-6-7.31,54.6,54.6,0,0,0-7.37-8.79c-2.33-2.45-4.55-5-6.74-7.58-1.74-2-3.4-4.16-5-6.3-.62-.83-1-1.84-1.53-2.73-.76-1.21-1.6-2.37-2.37-3.57-.66-1-1.27-2.11-2.18-3.6.73-2.08,2.65-3.8,4.9-5.24.54-.35,1-.85,1.52-1.2a42.68,42.68,0,0,0,8.49-7.21,1.61,1.61,0,0,1,2.6.15c2,2.5,4,5,5.92,7.51,1,1.3,1.62,2.83,2.52,4.18a46.17,46.17,0,0,0,3,4.07,26.66,26.66,0,0,0,3.25,3.46c2.34,2,4.9,3.58,8.18,3.07A9.67,9.67,0,0,0,339.2,342.59Z"/><path class="cls-1" d="M152,418.42c-3.74,1.38-6.22-.53-8.77-2.71s-5.44-4-8.08-6.11a21.28,21.28,0,0,1-5.07-5.36,8.67,8.67,0,0,1-.67-7.64c.81-2.4,1.14-5.23,3.23-7.25.85-.82,1-2.32,1.54-3.5.81-1.87,1.67-3.72,2.44-5.61.53-1.29.94-2.63,1.37-3.95.16-.52,2.06-4.38,2.31-5s.14-1.44.38-2.09c.69-1.87,1.57-3.67,2.2-5.55a26.82,26.82,0,0,0,1.45-5.72,14.11,14.11,0,0,1,4-9c.76-.76,3.08-.57,3.83.24,1.12,1.19,2.36,2.28,3.45,3.5s1.8,2.37,2.78,3.48a36.78,36.78,0,0,0,2.76,2.68,23.17,23.17,0,0,1,2,1.66,1.84,1.84,0,0,1,.33,1.5c-.42,1.36-1,2.66-1.53,4-.71,1.91-1.46,3.81-2.05,5.76a43,43,0,0,0-1.22,5.25,23.79,23.79,0,0,0-.16,3.59c0,2.46-.08,4.92-.06,7.37,0,1.52-.76,2.21-2.09,2.86a10.53,10.53,0,0,0-3.92,3,54,54,0,0,1-5.19,5.78c-1.66,1.7-1.45,3.09-.63,5.43.72,2,2,3.6,2.95,5.43a7.11,7.11,0,0,0,1.22,1.31C152.61,413.77,152.17,416.17,152,418.42Z"/><path class="cls-1" d="M153.77,270.43c1.84,1.73,3.84,2.88,4.72,5.2a16.48,16.48,0,0,0,1.28,2c1.34,2.46,2.59,5,4,7.4a38.93,38.93,0,0,0,2.68,3.66l1.66,2.22,1.57-1.24-5-7.75a45.81,45.81,0,0,1-3-4.73,37.19,37.19,0,0,1-2-5.6c-.06-.21.61-.92.93-.91,1.16,0,2.37-.3,3.19,1.22a33,33,0,0,0,3.29,4.16,2,2,0,0,1,.32,1,10.78,10.78,0,0,0,2.33,5.7.83.83,0,0,1,.16.5c0,2.29,1.28,3.93,2.61,5.58.17.2.15.55.29,1.15l2.05-.84c-.25-.6-.48-1.21-.74-1.8-.57-1.27-1.61-2.21-1.74-3.82-.12-1.38-1.46-2.61-1.84-4a23.7,23.7,0,0,1-.44-4.86c0-.06.82-.34,1-.19a11.86,11.86,0,0,1,2.57,2c1.63,1.88,3.14,3.87,4.65,5.85.69.92,1.22,2,1.89,2.9,1.5,2.08,3.11,4.08,4.55,6.2.75,1.09,1.23,2.37,1.88,3.54a20.05,20.05,0,0,0,1.37,2.15c1.1,1.51,2.26,3,3.34,4.49s-.18,2.38-1,3.22a31.43,31.43,0,0,1-3.4,2.89c-1.57,1.24-3.15,2.49-4.8,3.62a22,22,0,0,0-7.14,8.59c-1.19,2.37-2.89,2.63-5,.66-2.88-2.69-5.79-5.36-8.44-8.26-1.35-1.49-2.11-3.5-3.27-5.18-.82-1.19-2.06-2.13-2.74-3.38-1.17-2.16-3.3-3.73-3.61-6.45-.15-1.34-1.22-2.54-1.54-3.88a39,39,0,0,1-.71-5.39s1-.35,1.14-.2q2,2.44,3.78,5c1.4,2,2.74,4,4.32,6.3.68-1.45.95-2.11,0-3.24a36.61,36.61,0,0,1-3.12-5.51,2,2,0,0,0-.44-.49c-2.62-2.53-3.94-5.53-3.29-9.22.06-.33.41-.61.62-.91.2.25.43.48.6.74.39.6.72,1.25,1.14,1.82,1.26,1.74,3.06,3.29,3.73,5.23.88,2.5,3.62,3.4,4.27,5.94.13.49,1.08.76,1.77,1.21.51-1,.8-1.55-.28-2.65a48.1,48.1,0,0,1-5.13-6.7c-1.13-1.64-2-3.46-3-5.17-.77-1.28-1.67-2.48-2.41-3.78C152.33,274.58,153,272.74,153.77,270.43Z"/><path class="cls-1" d="M144.18,351l-1.6-.08c-.87-1.3-1.53-2.32-2.25-3.31-1.15-1.58-2.33-3.14-3.51-4.71s-2.33-3.16-3.6-4.64a5.14,5.14,0,0,1-.4-6c2.6-3.79,5.18-7.59,7.85-11.33,1.06-1.49,2.45-2.76,3.48-4.27s1.87-3.45,2.94-5.1C148,310.2,149,309,150,307.75a9.5,9.5,0,0,1,1-1.41c.53-.47,1.19-1.08,1.81-1.09a2.78,2.78,0,0,1,1.73,1.08,29.63,29.63,0,0,1,3.33,4.28,14.47,14.47,0,0,0,3,3.94,17.84,17.84,0,0,1,3.22,3.56c1.81,2.68,5.21,3.9,6.62,6.55.92,1.73,2.36,3.95,1.66,6.35-.16.51-.71.9-1,1.4-1.36,2.68-2.51,5.49-4.08,8a57.89,57.89,0,0,1-4.48,5.58c-.69.85-1.2,1.85-1.95,2.63a12.27,12.27,0,0,1-3,2.44c-.35.18-1.48-.68-1.93-1.29-1.54-2.08-3.27-4.43-6.38-3.79C147.63,346.43,144.61,349,144.18,351Z"/><path class="cls-1" d="M126.42,399.6c-2.54,0-4.93.13-7.3-.07a7,7,0,0,1-2.76-1.35,42.81,42.81,0,0,1-5.64-3.75,36.06,36.06,0,0,1-4.7-5.3,10.55,10.55,0,0,1-2-3.82,11.64,11.64,0,0,1,.29-3.86c0-.32.41-.6.45-.93.4-3.64,3-6.1,4.86-8.92.9-1.33,1.79-2.67,2.8-3.91,1.76-2.18,3.64-4.26,5.41-6.43,1.65-2,3.31-4.05,4.77-6.2.61-.9,1.23-1.5,2.23-1.35,1.52.23,3,.67,4.52,1l.52.13c3.75,1,7.52,2,11.46,1.63a3.57,3.57,0,0,1,.66.19c-.28,1.14-.56,2.33-.87,3.5-.05.23-.21.43-.27.66-.53,2-.94,4.06-1.6,6-.57,1.7-1.46,3.3-2.15,5-.58,1.4-1.06,2.83-1.62,4.24-.79,2-1.62,4-2.41,6-.49,1.22-.82,2.51-1.41,3.67-1.11,2.22-2.35,4.38-3.53,6.57a1.72,1.72,0,0,0-.16.5C127.46,395,127,397.25,126.42,399.6Z"/><path class="cls-1" d="M309,293.18c3.17-2,6.07-3.82,8.94-5.65,1.37-.88,2.7-1.82,4.08-2.68a.88.88,0,0,1,.82.13,10.86,10.86,0,0,1,1.31,2c.59,1.27.83,2.78,1.66,3.84a5.81,5.81,0,0,1,1,4.54c-.24,2.54,1.31,4.13,2.77,5.74.38.41,1.36.34,2.06.36,1.73,0,3.45,0,5.37,0,.47,2.35.53,5,1.52,7.12,2,4.42.79,9,1.37,13.48.14,1,.95,2.14.72,3-1.21,4.52-.47,9.13-1,13.66a3.13,3.13,0,0,1-2,2,6.35,6.35,0,0,1-6.69-2c-2.45-2.8-5.27-5.33-6.91-8.82a12.22,12.22,0,0,0-2.54-3.06,3,3,0,0,1-.31-4.24,28,28,0,0,0,2-3.75c.62-1.25,1.21-2.52,1.79-3.8.14-.31.36-.85.23-1-1.14-1.21-.61-3.06-2-4.32a99.31,99.31,0,0,1-7.6-7.88c-2.15-2.38-4.19-4.86-6.2-7.36A2.73,2.73,0,0,1,309,293.18Z"/><path class="cls-1" d="M354.86,280c1.37,2.77,2.7,5.56,4.12,8.3a27.16,27.16,0,0,0,2,3c.75,1,.41,2.38-1.06,3.48a13.23,13.23,0,0,0-2.62,3.25c-1.22,1.72-1.76,4-4.33,5-1.46.53-2.88.61-4.29,1-1.9.55-3.7,1.42-5.56,2.13-.59.22-1.21.35-2,.57a53.57,53.57,0,0,0-1.51-5.64c-1-2.57-2.25-5-3.35-7.57a1.49,1.49,0,0,1,0-1.55c1.55-1.41,3-2.91,4.67-4.21a53.66,53.66,0,0,1,4.57-3c1.81-1.15,3.6-2.35,5.48-3.37a19.62,19.62,0,0,1,3.29-1.13Z"/><path class="cls-1" d="M313.56,265.57c-3.19-2.22-6.31-4.23-9.24-6.49-2.37-1.83-4.46-4-6.78-5.95-1.79-1.48-3.73-2.79-5.59-4.2-.66-.5-1.26-1.07-2.16-1.84a16.69,16.69,0,0,1,2-1.83c1.95-1.24,4-2.4,6-3.55,1.73-1,3.46-2,5.25-2.87,1.4-.67,2.79.46,3.32,2.47a27.34,27.34,0,0,0,1.61,5.44c1.14,2.23,1.5,4.7,2.51,6.9a46.66,46.66,0,0,1,2.67,7.25C314,264.11,314.27,264.05,313.56,265.57Z"/><path class="cls-1" d="M295.43,272.93l2.67,1.22a5.52,5.52,0,0,0,.67.27c1.81.52,3.67.9,5.42,1.58,1.33.51,2.45,1.61,3.79,2a8.25,8.25,0,0,0,3.83.1c.42-.08.67-1.29.93-2,1-2.6,1.91-5.2,3-8.26a6.81,6.81,0,0,1,.77,1.21,18.32,18.32,0,0,0,2.5,6.08c.83,1.29,1,3,1.5,4.51.09.29,0,.74.17.87,2.29,1.69-.11,2.18-.84,2.87a32.87,32.87,0,0,1-4.62,3.68c-1.21.79-2.82,1-4,1.87a5,5,0,0,1-3.47,1c-1.32-.06-2.3-.08-2.78-1.93-.39-1.54-2.18-2.66-3.07-4.14-1-1.67-2.74-2.72-3.38-4.75-.41-1.28-1.84-2.21-2.71-3.37a14.23,14.23,0,0,1-1.09-2.13Z"/><path class="cls-1" d="M270.4,320.63,286,343.13a16,16,0,0,1-2.46.45,69.18,69.18,0,0,1-7.89-.15,40.25,40.25,0,0,1-6.64-1.56,1.64,1.64,0,0,1-.78-1.38c.25-2.08-.53-4.3.95-6.24.34-.44.2-1.28.21-1.93,0-3.11-.06-6.23,0-9.34a14.49,14.49,0,0,1,.45-2.49Z"/><path class="cls-1" d="M149.25,402.14c.26-2.8,2.4-3.84,3.92-5.37s3-3.15,4.44-4.74l.62.31v9.8Z"/><path class="cls-1" d="M362,288.37c-1.14-2.44-2.18-4.67-3.25-6.9-.11-.23-.47-.36-.56-.6a5.43,5.43,0,0,1-.51-1.9c0-.19.84-.52,1.31-.55,1.53-.07,3.08,0,4.42,0C366.09,282.28,364.13,285.23,362,288.37Z"/><path class="cls-1" d="M180.52,356c1.27-2.37,2.35-4.58,3.65-6.65a2.15,2.15,0,0,1,2-.51,9,9,0,0,1,2.71,2.88,6.65,6.65,0,0,1,.27,2.75,39.6,39.6,0,0,1-4.78,1.48A22,22,0,0,1,180.52,356Z"/><path class="cls-1" d="M295.93,337.1l3.69,5.79c-1.55,2.8-4.2,1.81-6.5,1.92-.28,0-.86-.62-.82-.89.15-1.15-.49-2.53.94-3.38.31-.18.43-.85.44-1.29C293.7,337.83,294.4,337.19,295.93,337.1Z"/><path class="cls-1" d="M316.35,318.19c.41-.44,1-1.13,1.63-1.74a15.35,15.35,0,0,1,2.8-2.32c.43-.24,1.38.12,1.88.5.19.15-.17,1.13-.41,1.68-.5,1.17-1.06,2.32-1.67,3.45a8,8,0,0,1-1.28,1.82c-.76.77-1.93,0-2.57-1.66A14.81,14.81,0,0,1,316.35,318.19Z"/><path class="cls-1" d="M333.78,293.89c.8,1.2,1.35,2,1.86,2.8s-.24,2.67-1.47,3.22c-1.38.63-4.26-.7-4.61-2.18a2.66,2.66,0,0,1,.09-1.53C330.11,295.08,332.93,293.76,333.78,293.89Z"/><path class="cls-1" d="M303.7,235a5.77,5.77,0,0,1-2.53-4.46c-.27-1.64-1.54-3.09-2.1-4.72a10.61,10.61,0,0,1-.06-3.16c1.76.28,2.32,1,2.31,2.37,0,2.88,1.19,5.42,2.24,8A7,7,0,0,1,303.7,235Z"/><path d="M253.79,226.21c-1.59-1.12-3.14-2.15-4.63-3.27s-2.77-2.25-4.16-3.37-3.1-2.35-4.53-3.65c-1.6-1.46-3.11-3-4.6-4.62-2.77-3-5.48-6-8.26-8.9-1.49-1.58-3.13-3-4.59-4.61-1.62-1.79-3.06-3.73-4.65-5.55-1-1.14-2.19-2.13-3.17-3.28-1.14-1.33-2.16-2.76-3.19-4.18a8.42,8.42,0,0,1-1.19-2.07c-.12-.37.28-.91.44-1.38.58.23,1.59.33,1.68.69.69,2.56,3.05,3.8,4.46,5.78a73.81,73.81,0,0,0,7.27,8.27c3.43,3.55,7.12,6.87,10.1,10.83a50.83,50.83,0,0,0,9,8.93c2.79,2.24,5.78,4.24,8.57,6.48C253.39,223.14,254.79,224.05,253.79,226.21Z"/><path d="M247.38,107.62c2.32,2.79,4.5,5.71,7,8.34,3.1,3.26,6.55,6.17,9.67,9.42,2.9,3,5.33,6.54,8.42,9.34,2,1.81,3.23,4.11,5.08,6A41.68,41.68,0,0,1,282,146c.36.51-.1,1.6-.18,2.42a6.3,6.3,0,0,1-2.05-1.05c-1.54-1.77-2.89-3.69-4.37-5.51s-3.07-3.75-4.68-5.57c-1.83-2.05-3.72-4.05-5.61-6-2.33-2.45-4.69-4.85-7-7.29-2.09-2.17-4.2-4.33-6.23-6.55A69,69,0,0,1,247,110.7c-.49-.67-.27-1.85-.37-2.8Z"/><path d="M221.62,64.09c1.5,3.16,2.92,6.13,4.29,9.11.49,1.07.8,2.22,1.33,3.26,1.74,3.34,3.11,6.87,6,9.54,1.26,1.16,2,3,2.87,4.51s1.69,3.26,2.54,4.92a3.05,3.05,0,0,1-3.51-1.64c-1.34-2.28-2.85-4.47-4.32-6.68-1.08-1.63-2.28-3.19-3.33-4.84-1.21-1.93-2.38-3.9-3.42-5.93-.76-1.49-1.26-3.11-1.9-4.66-.58-1.39-1.2-2.76-1.81-4.14a8.74,8.74,0,0,1-.62-1.27C219.28,64.21,219.82,63.71,221.62,64.09Z"/><path d="M278.39,279.56c-2.08-1-3.59-1.64-5-2.44-3.17-1.79-6.67-3-9.24-5.86-1.25-1.4-3.34-2-5-3.09a32.31,32.31,0,0,1-3.41-2.64c-.17-.14,0-1,.11-1.06a3.78,3.78,0,0,1,2,0c2,1.14,3.86,2.39,5.71,3.71,1.25.89,2.36,2,3.57,2.92a17.32,17.32,0,0,0,2.76,1.93c1.19.63,2.54,1,3.75,1.57a27,27,0,0,1,4.25,2.52C278.35,277.47,278.22,278.51,278.39,279.56Z"/><path d="M209.46,96.49c1.7-.47,2.84-.77,4.11.41,1,.94,2.87.95,4.28,1.54,1.6.67,3.06,1.73,4.7,2.26,2.79.91,4.44,3.24,6.59,4.94a15.55,15.55,0,0,1,1.91,2.15c-1.64,1.85-2.44-.13-3.42-.59a25.45,25.45,0,0,1-3.29-2.39c-1.66-1.17-3.36-2.28-5.06-3.41a2.87,2.87,0,0,0-.65-.27c-2.53-.92-5.09-1.76-7.56-2.81C210.4,98,210,97.12,209.46,96.49Z"/><path d="M300.06,314.43v2.36c-1-.3-1.87-.48-2.67-.8-1.42-.58-2.82-1.21-4.21-1.86-1.13-.53-2.24-1.1-3.35-1.69-1.33-.71-2.6-1.57-4-2.16-1.06-.44-1.21-.51-1-2.36,2-.79,3.55.3,4.91,1.49a8.89,8.89,0,0,0,4.09,2.35c1.3.29,2.42,1.29,3.68,1.88A20.51,20.51,0,0,0,300.06,314.43Z"/><path d="M82.65,267a17.79,17.79,0,0,1,1.5,3c.65,2.3,1,4.69,1.65,7s1.53,4.36,2.28,6.55c.54,1.57,1,3.18,1.56,4.75.64,1.79,1.36,3.55,2,5.34s1.16,3.45,1.77,5.17c.55,1.57,1.09,3.14,1.73,4.67s1.42,3.2,2.18,4.77c1.16,2.44,2.37,4.86,3.52,7.31.57,1.21,1,2.5,1.56,3.71.31.64,1,1.13,1.28,1.77.9,1.72,1.55,3.61,2.61,5.22,1.34,2.05,3,3.85,4.47,5.85a5.79,5.79,0,0,1,.41,2.23c-.52-.16-1.18-.17-1.53-.51a45,45,0,0,1-4.54-4.83c-.8-1.06-1-2.57-1.62-3.8-.81-1.6-1.76-3.13-2.67-4.69a34.53,34.53,0,0,1-1.9-3.2c-.69-1.52-1.16-3.14-1.78-4.69-.3-.76-.74-1.46-1.1-2.19-.87-1.77-1.77-3.52-2.56-5.31-.48-1.09-.81-2.24-1.18-3.37-.53-1.61-1-3.26-1.58-4.83s-1.42-3.2-2.14-4.8a3.24,3.24,0,0,1-.13-.33c-.5-1.78-.87-3.61-1.53-5.34-1.1-2.88-2.49-5.59-2.88-8.77-.34-2.81-1.53-5.51-2.21-8.29a7.1,7.1,0,0,1,.26-2.34Z"/><path d="M75.75,243.05c-1.54-.15-2.61-.33-3-2.18s-1.5-3.35-2.19-5.05a10.25,10.25,0,0,1-.16-1.78c-.11-.53-.43-1-.58-1.55a8.51,8.51,0,0,1-.43-2.26,1.86,1.86,0,0,1,1.45-.43,3.19,3.19,0,0,1,1,1.56c.78,2,1.47,4.11,2.26,6.15a25.25,25.25,0,0,0,1.49,3.21,1.31,1.31,0,0,0,1.16-.1c1.7-2,3.3-4.06,5-6,.3-.35,1-.4,1.45-.59,0,.73.2,1.67-.16,2.16a74.56,74.56,0,0,1-5,6C77.45,242.71,76.49,242.78,75.75,243.05Z"/><path d="M266.54,344.92c.53,1.71,0,2.19-1.47,2.48-2.94.58-5.8,1.54-8.7,2.33l-.17,0c-2.75.44-5.48,1.09-8.25,1.27-4.17.28-8.36.25-12.55.29a5.91,5.91,0,0,1-1.78-.59l.12-.59a4.36,4.36,0,0,1,.79-.2c5.86-.52,11.74-.89,17.58-1.61,2.48-.31,4.86-1.35,7.29-2.05l.69-.18c1.56-.4,3.1-.84,4.67-1.18A8.77,8.77,0,0,1,266.54,344.92Z"/><path d="M243.85,340.6a50.58,50.58,0,0,1-6.86,2.53,36,36,0,0,1-6.59.31c-.15,0-.44-.42-.42-.61a.86.86,0,0,1,.54-.56c2-.49,4.13-.82,6.14-1.41s4-1.47,6-2.12a1.31,1.31,0,0,1,1.17.49C244.06,339.58,243.87,340.14,243.85,340.6Z"/><path d="M317,195a14.19,14.19,0,0,1,.21-6.94,10.31,10.31,0,0,0,.54-2c.2-3.77-.22-7.68.65-11.27s.67-7,.91-10.44v-.18c0-.94,0-1.83,1.4-1.75s1.09,1.16,1,1.86c-.21,1.66-.76,3.28-.9,4.94-.23,2.75-.16,5.51-.37,8.26-.35,4.66-.73,9.32-1.31,13.95-.15,1.26-1,2.42-1.6,3.62Z"/><path d="M337.89,261.93l-1.87-.17a18.25,18.25,0,0,1-.11-2.06c.38-5.67.8-11.34,1.19-17,.08-1.14-.19-2.38.18-3.4a16.74,16.74,0,0,0,1.15-6.36c0-.22.43-.45.66-.67.27.34.76.67.77,1,0,1.49-.06,3-.17,4.48C339.11,245.75,338.5,253.75,337.89,261.93Z"/><path d="M180.44,384.17l3.83,1.05c.16,0,.32.14.49.19,3,.93,6.1,1.68,9,2.83,2.43,1,4.65,2.42,7,3.56,1.26.61,2.63,1,3.92,1.51a14.31,14.31,0,0,1,3,1.61,1.76,1.76,0,0,1-.09,1.74c-.3.31-1.24.25-1.77,0-1.54-.63-3-1.39-4.52-2.17-1.21-.64-2.35-1.38-3.54-2.07a6.65,6.65,0,0,0-.77-.34c-1.77-.74-3.52-1.53-5.3-2.22-1.61-.63-3.24-1.22-4.9-1.71-1.92-.57-3.92-.92-5.82-1.57-.52-.18-.78-1.11-1.16-1.7Z"/><path d="M201.69,371.87c2.47-1.39,2.74.77,3.65,1.54a6.19,6.19,0,0,1,1.53,2.68c.84,2.4,3,3.71,4.47,5.56a22,22,0,0,0,3.22,2.94,17.63,17.63,0,0,0,3,2.24c1.18.62,2.61.79,3.78,1.44.56.32.77,1.29,1.38,2.42a10,10,0,0,1-2.35-.22,27.24,27.24,0,0,1-10.67-7.26C206.74,379.7,203.14,376.49,201.69,371.87Z"/></g></g></svg>