<svg xmlns="http://www.w3.org/2000/svg" viewBox="0 0 483.7 527.6"><defs><style>.cls-1{fill:#fff;}</style></defs><g id="Layer_2" data-name="Layer 2"><g id="Layer_1-2" data-name="Layer 1"><path class="cls-1" d="M260.5,466.91c.52-2.13,1-3.94,1.38-5.78a3.71,3.71,0,0,0-.21-1.56,8.94,8.94,0,0,1-.61-2.15c.08-2.68-.38-5.31.69-8.05.8-2.05.27-4.62.35-7a9.69,9.69,0,0,1,.22-1.94c.34-1.4.76-2.79,1.13-4.18s.88-2.83,1.12-4.27c.58-3.63,1-7.28,1.56-10.92a2.46,2.46,0,0,1,.15-.51,47,47,0,0,0,2-5.65c.47-2.09.65-4.24,1.08-6.37A115.51,115.51,0,0,0,270.89,394c.18-2.33-.1-4.69.07-7,.24-3.21-.82-6.46,1.06-9.66a9.49,9.49,0,0,1,3.42-3.79c3.4-1.74,5.58-4.71,8.24-7.18,2-1.82,3.71-3.86,5.57-5.79,1.4-1.46,2.89-2.84,4.22-4.36a65.72,65.72,0,0,0,4.67-5.74c1.6-2.3,3-4.75,4.42-7.18,1-1.68,1.77-3.46,2.71-5.17a1,1,0,0,1,.89-.21,42.26,42.26,0,0,1,4,3.07c1.9,1.75,3.6,3.74,5.54,5.45,2.11,1.86,4.45,3.47,6.6,5.3a17.06,17.06,0,0,1,3,3.24c1.26,1.82,2.33,3.78,3.45,5.7,1,1.71,2.09,3.38,2.93,5.17,1.07,2.28,1.9,4.66,2.89,7a28.46,28.46,0,0,0,1.4,2.68c.66,1.16,1.38,2.28,2,3.44.79,1.43,1.47,2.93,2.33,4.31s1.81,2.35,2.63,3.58c1.1,1.67,2.06,3.44,3.17,5.1s2.33,3.07,3.35,4.7a41.34,41.34,0,0,1,4.22,7.43c1.06,2.85,3,5.4,4.65,8,1,1.52,2.28,2.82,3.4,4.26,1.46,1.89,2.89,3.82,4.33,5.73,1.09,1.44,2.16,2.89,3.26,4.33,1,1.28,1.93,2.58,3,3.82a34.28,34.28,0,0,0,3.37,3.74c1.82,1.6,3.8,3,5.71,4.51,2.54,2,5.13,3.91,7.62,6,1.71,1.41,3.26,3,4.9,4.48,1,.91,2,1.81,3.06,2.67a38.53,38.53,0,0,1,4.17,3.42c2.76,3.06,5.28,6.34,8,9.43,2.34,2.66,5.19,5,7.14,7.85,2.84,4.25,6.44,7.74,9.91,11.38,2.43,2.55,5,4.94,7.52,7.4.4.38.8,1,1.26,1.06a17.3,17.3,0,0,0,10.32-1.65c.79-.37,1.62-.68,2.48-1,.36,1.63.52,1.71-.82,4.44a67.33,67.33,0,0,1-4.56,7.6,48.53,48.53,0,0,1-4.48,5.63,16.49,16.49,0,0,0-2.79,4c-.82,1.65-2.12,3.05-2.22,5a2.66,2.66,0,0,1-.35,1.17,7.82,7.82,0,0,0,.84,8.1c1.1,1.23,2.43.92,3.75,1s2.74-.4,4,.8a2.75,2.75,0,0,0,2.7.14c1.51-1.45,3.24-.78,4.87-1,2.82-.42,5.64-.9,8.46-1.4.3,0,.56-.38.85-.56,1.28-.78,2.38-1.65,4.1-1.72a28,28,0,0,0,6-1.47c.16,0,.19-.43.36-.59a14.88,14.88,0,0,0,4.08-5c.91-2.08,2.31-3.92,2.25-6.34A4.41,4.41,0,0,1,475,508q1.08-4.18,2.2-8.37c.51-1.9,1-3.81,1.61-5.67s1.84-3.77,2-5.73a48.41,48.41,0,0,1,2.35-9.47c1-3.26.75-6.71-2-9.36-.74-.72-1.74-1.18-2.49-1.89-.93-.89-1.62-2-2.61-2.85-2.5-2.07-5.44-3.58-7.26-6.48-1.13-1.81-2.85-3.25-4.05-5-1.31-1.93-2.32-4.07-3.49-6.1-1-1.7-2-3.36-3-5.05-1.08-1.86-2.08-3.76-3.2-5.59-.91-1.47-2.06-2.8-2.92-4.29-1.11-2-2-4-3.09-6a14,14,0,0,0-1.65-2.32c-1.94-2.32-3.82-4.68-5.89-6.87-2.26-2.38-4.76-4.52-7-6.89a43.69,43.69,0,0,1-3.94-4.85c-1.15-1.58-2-3.36-3.17-4.93-1.85-2.51-3.82-4.92-5.76-7.36-1.17-1.46-2.42-2.86-3.6-4.32-.94-1.16-1.85-2.35-2.75-3.54-2-2.66-4.12-5.17-7.21-6.65-.55-.26-.93-.87-1.46-1.17-1.58-.88-3.26-1.6-4.79-2.56a3.22,3.22,0,0,1-1.78-3.13c.13-1.73,0-3.48,0-5.22a42.9,42.9,0,0,0-.15-5.2c-.14-1.1-.84-2.12-1.1-3.23-.22-.93,0-1.86-1-2.67a7,7,0,0,1-1.48-2.75c-.56-1.31-1-2.67-1.56-4a13.71,13.71,0,0,0-1.4-2.88c-1.7-2.29-3.21-4.63-3.62-7.53a3.79,3.79,0,0,0-.58-1.08c-1-1.7-2.09-3.35-2.89-5.13s-.87-3.55-1.69-5.12c-1.5-2.88-1.66-6-1.86-9.07-.13-2,.7-4.08,1.11-6.17l3.91-.42c0-1.67-.48-3.3.1-4.31,1.43-2.46.26-4.93.33-7.31s-1.16-4.73-2.29-6.85c-1-1.95-2.24-3.74-2.36-6a4.35,4.35,0,0,0-.35-1c-.72-2.11-1.44-4.21-2.15-6.32-.12-.34-.15-.7-.26-1-.71-2.3-1.76-4.55-2.06-6.9a57.37,57.37,0,0,0-2.5-10c-.8-2.56-.93-5.33-1.47-8-.4-2-.9-4-1.49-6a7.86,7.86,0,0,0-1.36-2.71,8.65,8.65,0,0,1-2.13-5.88,44.52,44.52,0,0,0-.19-5,8.86,8.86,0,0,0-.84-2.1,23.2,23.2,0,0,1-1.53-4,14.43,14.43,0,0,0-3-6.21,2.86,2.86,0,0,1-.72-1.3c-.48-3.8.17-7.69-1.32-11.41-.75-1.86-1-3.94-1.6-5.86-.57-1.7-1.41-3.31-2.13-4.95-.43-1-1.23-1.95-1.25-2.94-.07-2.61-2.42-3.89-3.19-6.12-.62-1.78-2.23-3.19-3.31-4.83s-1.69-3.53-3-4.86c-2.42-2.49-2.49-5.78-3.09-8.71-.84-4.11-.07-8.43-1.26-12.62-.43-1.51.22-3.38.58-5a11.88,11.88,0,0,0-.55-5.87,8.8,8.8,0,0,0-3-5.06c-2.62-1.86-3.28-4.81-4.69-7.31-.88-1.55-1-3.51-1.54-5.27a7.73,7.73,0,0,0-.42-1c-.65-1.5-1.35-3-1.95-4.52s-.89-2.89-1.48-4.27a17.35,17.35,0,0,0-1.69-2.83c-1-1.48-2.54-2.79-3.05-4.41-.66-2.1-2.41-3.13-3.47-4.78-1.29-2-2.9-3.8-4.12-5.84a30.25,30.25,0,0,0-7.16-7.84c-1.94-1.57-4.71-1.73-6.32-3.89-1.82-2.44-4.93-3.81-5.83-7,0-.14-.26-.23-.32-.38-.51-1.27-1.44-2.56-1.37-3.81.08-1.56,1-3.06,1.5-4.63.61-2,1.56-4.14,1.57-6.22,0-3.85.7-7.74-1-11.58-1-2.31-1-5.11-1.47-7.69a4.19,4.19,0,0,0-.3-1c-.72-1.66-1.49-3.29-2.2-5-.56-1.33-1-2.73-1.6-4-1.07-2.3-2.75-4.21-3.67-6.68a67.38,67.38,0,0,0-4.92-9.6,18.48,18.48,0,0,0-4.69-5.68c-1.35-1-2.71-2.07-4.13-3s-2.84-2-4.72-2.15c-1.6-.12-3.18-.6-4.78-.85a3.68,3.68,0,0,0-2.11,0c-2.11,1.26-4.42.66-6.62.93a6.21,6.21,0,0,0-1.58.25c-1.65.69-3.24,1.51-4.9,2.17S248,15,246.4,15.58c-2.35.88-4.18,2.73-6.66,3.46-1.12.32-2,1.51-3,2.3a9.19,9.19,0,0,0-2.85,3.8c-.76,1.85-2.4,3.34-3.16,5.19-1.21,2.92-2,6-3,9a5.27,5.27,0,0,1-.19.68c-1.23,2.7-2.47,5.39-2.27,8.48.13,2.09-.35,4.4.4,6.23,1,2.61,2,5.43,4.54,7.3a6.39,6.39,0,0,1,2.82,6.16,24.46,24.46,0,0,0,0,4.84c.37,4.32.83,8.63,1.31,12.93,0,.42.44.79.7,1.17.91,1.34,2.25,1.5,3.75,1.51,2.17,0,3.61,1.62,2.65,2.91a2.94,2.94,0,0,0,.32,4.23c1.42,1.46,2.79,2.72,3.15,5a10.43,10.43,0,0,0,2.12,4.69c1,1.19.82,3.24,2.81,3.7.21,0,.39,1.93.14,2-3.5,1.7-5.12,5-7,8-.62,1-.84,2.36-1.66,3.09-2.39,2.11-2,5.26-3.27,7.8-.72,1.49-.63,3.46-1.56,4.74a41.73,41.73,0,0,1-5.49,5.72c-1.74,1.61-3.92,2.81-5.45,4.59-2.35,2.73-4.31,5.79-6.43,8.72a20.8,20.8,0,0,0-1.3,1.82,50.81,50.81,0,0,1-3.31,5.86,82.1,82.1,0,0,1-5.87,6.39A22.92,22.92,0,0,1,205,171.6c-.91.59-1.37,2.54-3.12,1.43-.61-2.26-1.15-4.57-1.86-6.84s-1.68-4.16-2.27-6.3c-.67-2.4-1-4.88-1.56-7.32a3.34,3.34,0,0,0-.18-.5c-.72-1.86-1.49-3.71-2.14-5.61-.59-1.68-1-3.43-1.56-5.13-.37-1.12-.82-2.22-1.29-3.3a35.84,35.84,0,0,1-2.15-4.79c-.7-2.48-.7-5.2-1.64-7.56a22.33,22.33,0,0,1-1.14-6.6,1.63,1.63,0,0,0-.15-.52c-1.11-2.65-2.29-5.28-3.31-8-1-2.55-1.71-5.19-2.63-7.76a19,19,0,0,0-1.27-2.23,53.22,53.22,0,0,0-2.94-5.48,57.68,57.68,0,0,0-4.84-5.88c-2.13-2.34-4.12-5-6.67-6.74C160.55,79.93,157,77,152.52,75.7a11.77,11.77,0,0,1-3-1.53c-2.46-1.61-5-3-8-3.33-.64-.06-1.27-.15-2.08-.25.15-2.68-.44-5.15.93-7.73,1-2,1.09-4.55,1.57-6.86.07-.35.1-.71.19-1.06.74-3.16,1.89-6.29,2.11-9.48.19-2.87-.62-5.82-1-8.72-.44-3.1-.95-6.19-1.44-9.28a2.24,2.24,0,0,0-.29-.63c-.72-1.34-1.42-2.7-2.19-4-1-1.76-2.05-3.54-3.21-5.22-.78-1.12-1.87-2-2.71-3.12-2.38-3.13-4.29-6.66-7.71-8.91-1.55-1-3-2.22-4.62-3.1-1.23-.67-2.78-.76-4-1.48-2.37-1.44-4.8-1-7.26-.64-1.7.24-3.39.69-5.1.78a94.6,94.6,0,0,1-10.24.15c-3.41-.21-6.27,1.3-8.87,2.89S81.4,8.6,80,11.38c-1.11,2.28-2.08,4.63-3,7a40,40,0,0,0-1.9,5.69c-.83,3.71,1,7.22,1.07,10.87a1,1,0,0,0,.23.46,10.15,10.15,0,0,1,2,6.49,17.66,17.66,0,0,1-1,3.64q-.78,2.4-1.67,4.75A49.63,49.63,0,0,0,73.69,56c-.58,2.55,2.22,5.72,4.88,6a4.13,4.13,0,0,1,1.58,1c1.51,1.1.84,2.78.88,4.16,0,2,.66,3.41,2.77,4.15-.31.71-.61,1.27-.8,1.86a2.71,2.71,0,0,0-.18,1.39,13.11,13.11,0,0,0,.86,2.14,29.51,29.51,0,0,0,2.1,4.3,30.08,30.08,0,0,0,2.84,2.8c1.53,1.7,3.9.87,5.61,2a.59.59,0,0,0,.52-.09c2-1.68,4.28-.68,6.64-.89.12,1.16.26,2.15.33,3.15.08,1.37-.2,2.86.23,4.1,1,3,.8,4.36-1.24,6.64a26.61,26.61,0,0,0-3,4.53,31.66,31.66,0,0,0-2.89,6.17c-.7,2.14-2.18,4.07-2.26,6.49a1.21,1.21,0,0,1-.19.48,48.66,48.66,0,0,0-2.15,4.85c-.67,2-1.06,4.11-1.57,6.17,0,.11-.1.21-.14.32-.74,2-1.58,4.07-2.2,6.15s-.88,4-1.44,5.93c-.64,2.25-1.74,4.41-2.12,6.7-.73,4.44-1.1,8.94-1.61,13.41a8.67,8.67,0,0,1-.17,1.78c-1.35,4.05-2.41,8.18-1.93,12.46a52.8,52.8,0,0,1,.07,5.76c0,6.08-1.09,12.2.45,18.26a8.36,8.36,0,0,1,0,2.5c-.21,3.39-.7,6.77-.6,10.15.15,5.48.68,10.95,1.06,16.42a6.65,6.65,0,0,0,.17,1.42q1.15,4.07,2.36,8.12a12.43,12.43,0,0,1,.7,2.14c.16,1.67.82,3.8.07,4.93-1.14,1.71-2.83,3-3.79,5-.86,1.78-1.47,7.2-.46,8.83a4.29,4.29,0,0,1,0,5.35c-.65.95-1.1,2-1.69,3-.94,1.55-1.9,3.1-2.92,4.6s-2.3,2.94-3.24,4.53c-1.44,2.47-2.68,5-4,7.58-.49.95-.7,2.27-1.47,2.82-2.82,2-4,5.17-6,7.73-1.82,2.3-3.48,4.72-5.3,7-1,1.32-2.43,2.39-3.38,3.76-1.76,2.55-3.3,5.24-5.2,8.31a48.51,48.51,0,0,1,4.66,3.93c.55.58,2.34,1.15,1.25,2.38A44,44,0,0,1,45.31,325c-2.58,1.93-3.52,4.63-4.48,7.36-.71,2-1.08,4.15-1.61,6.22a1.51,1.51,0,0,1-.13.33c-.7,1.64-1.73,3.21-2,4.92a59.74,59.74,0,0,0-1.21,10.55,190.56,190.56,0,0,0,.62,20A67.21,67.21,0,0,1,36,394.71c-1.22,6-1,12.24-1.53,18.36-.29,3.15.36,6.34-1,9.49-1,2.2-1.15,4.78-1.49,7.22-.37,2.71,0,5.47-1.19,8.15-.88,2-1.11,4.35-1.64,6.55a1.54,1.54,0,0,1-.24.48c-1.41,2.22-2.56,4.5-2.16,7.28.12.88.33,1.8-1.07,2.23-1,.31-1.74,1.45-2.73,2-2.24,1.2-4.27,2.95-7,3a3.29,3.29,0,0,0-.87.18,49.62,49.62,0,0,1-7.19,2.06A9.48,9.48,0,0,0,2,464.29c-1.41,1.4-2.67,4.92-1.6,5.91a19.58,19.58,0,0,0,5.7,4,27.1,27.1,0,0,0,7.6,1.31c2.5.2,5,0,7.55,0a6.73,6.73,0,0,0,1.42-.18c2.92-.65,5.8-1.62,8.75-1.86,2.16-.19,4.43.46,6.61.93,2,.42,4.14.74,5.77,1.79a11,11,0,0,0,5.82,2c2.1.07,4.2.11,5.89-1.32a14.07,14.07,0,0,0,4-5.65,59.41,59.41,0,0,0,1.81-6.87c1.38,0,2.93-.08,4.46,0,1.32.1,1.69-.45,1.66-1.65a13.12,13.12,0,0,1,.16-3.38c.64-2.71,1.46-5.37,2.22-8,.51-1.78,1.06-3.55,1.58-5.32.7-2.43,1.45-4.85,2.08-7.3.59-2.27,1-4.58,1.56-6.87,0-.11.12-.2.16-.31.73-1.79,1.51-3.56,2.16-5.37a44.73,44.73,0,0,1,1.41-4.56,23.11,23.11,0,0,0,2.35-9.35,24.73,24.73,0,0,1,.31-3.21c.28-1.54.79-3.05,1-4.61.56-4.13-.39-8.31,1-12.51,1-3,1.24-6.18,2.67-9.08,1-2,1.74-4.22,2.65-6.31.33-.75.83-1.41,1.21-2.14.76-1.48,1.38-3,2.25-4.45,1.28-2.1,2.8-4.07,4.08-6.17a38.69,38.69,0,0,1,4.53-6,48,48,0,0,0,4.29-5.63c1.79-2.69,2.88-5.89,6.11-7.87,1,2.81,2.08,5.46,2.76,8.21.52,2.08.23,4.24,1,6.41.74,2,.54,4.35,1.39,6.53.91,2.36,1.07,5,1.58,7.53.07.35.27.66.36,1,.69,2.58,1.38,5.16,2,7.75.52,2.09,1,4.2,1.48,6.3,0,.05.06.1.08.16a60.49,60.49,0,0,1,2.2,5.94c.65,2.43.92,5,1.5,7.43a10.24,10.24,0,0,0,1.5,4.1c2,2.45,2.09,5.57,3.32,8.27.86,1.91,1,4.15,1.48,6.23a3.16,3.16,0,0,0,.17.52c.71,1.73,1.44,3.46,2.14,5.2.53,1.31.93,2.68,1.58,3.92a23.38,23.38,0,0,0,2.15,3.09c.84,1.1,1.68,2.22,2.61,3.24,2,2.26,4.28,4.35,6.19,6.71,1.48,1.84,3.72,3.12,4.26,5.72a10.45,10.45,0,0,0,1.28,2.76c1.55,2.79,3.22,5.51,4.68,8.35,1.76,3.43,3.31,7,5,10.42,1.32,2.67,2.62,5.37,4.18,7.9,1.75,2.84,3.45,5.69,5.08,8.61,1.51,2.7,3.61,5.07,5.7,7.93-1.41,1.82-3,3.76-4.47,5.78s-2.94,4.16-4.37,6.27c-1.07,1.58-2.15,3.17-3.1,4.82a2.44,2.44,0,0,0,0,1.73,20.21,20.21,0,0,0,1.07,2.5,3.49,3.49,0,0,0,5.23,1.13c.45-.34,1.84-.29,2.07.06a6.93,6.93,0,0,0,7.14,3.18c1.2-.13,2.42-.28,3.37,1,.27.36,1.54.29,2.17,0,2.8-1.29,5.66-2.53,8.77-2.15,3.36.41,5.78-.92,8-3.2,2-2,4-3.9,6-5.89a12.52,12.52,0,0,0,2.61-3,7.72,7.72,0,0,1,5.24-4.7c0-.91,0-1.86,0-2.8.07-1.43-.13-3,.39-4.24a7.45,7.45,0,0,0-.06-6.7c-1-1.85-.14-3.65,1.9-3.58,6.31.2,12.57-.8,18.95.81,3.52.89,7.66,1.5,11.46-.69a8.37,8.37,0,0,0,4.06-4.2,14.17,14.17,0,0,1,1.43-3.19,10.72,10.72,0,0,0,2.15-7.14c0-1.06,0-2.11,0-3.23Z"/><path d="M260.5,466.91l-3.52.15c0,1.12,0,2.17,0,3.23a10.72,10.72,0,0,1-2.15,7.14,14.17,14.17,0,0,0-1.43,3.19,8.37,8.37,0,0,1-4.06,4.2c-3.8,2.19-7.94,1.58-11.46.69-6.38-1.61-12.64-.61-18.95-.81-2-.07-2.87,1.73-1.9,3.58a7.45,7.45,0,0,1,.06,6.7c-.52,1.25-.32,2.81-.39,4.24,0,.94,0,1.89,0,2.8a7.72,7.72,0,0,0-5.24,4.7,12.52,12.52,0,0,1-2.61,3c-2,2-4.07,3.87-6,5.89-2.21,2.28-4.63,3.61-8,3.2-3.11-.38-6,.86-8.77,2.15-.63.29-1.9.36-2.17,0-.95-1.26-2.17-1.11-3.37-1a6.93,6.93,0,0,1-7.14-3.18c-.23-.35-1.62-.4-2.07-.06a3.49,3.49,0,0,1-5.23-1.13,20.21,20.21,0,0,1-1.07-2.5,2.44,2.44,0,0,1,0-1.73c.95-1.65,2-3.24,3.1-4.82,1.43-2.11,2.86-4.22,4.37-6.27s3.06-4,4.47-5.78c-2.09-2.86-4.19-5.23-5.7-7.93-1.63-2.92-3.33-5.77-5.08-8.61-1.56-2.53-2.86-5.23-4.18-7.9-1.71-3.45-3.26-7-5-10.42-1.46-2.84-3.13-5.56-4.68-8.35a10.45,10.45,0,0,1-1.28-2.76c-.54-2.6-2.78-3.88-4.26-5.72-1.91-2.36-4.14-4.45-6.19-6.71-.93-1-1.77-2.14-2.61-3.24a23.38,23.38,0,0,1-2.15-3.09c-.65-1.24-1-2.61-1.58-3.92-.7-1.74-1.43-3.47-2.14-5.2a3.16,3.16,0,0,1-.17-.52c-.47-2.08-.62-4.32-1.48-6.23-1.23-2.7-1.32-5.82-3.32-8.27a10.24,10.24,0,0,1-1.5-4.1c-.58-2.46-.85-5-1.5-7.43a60.49,60.49,0,0,0-2.2-5.94c0-.06-.07-.11-.08-.16-.49-2.1-1-4.21-1.48-6.3-.65-2.59-1.34-5.17-2-7.75-.09-.35-.29-.66-.36-1-.51-2.52-.67-5.17-1.58-7.53-.85-2.18-.65-4.51-1.39-6.53-.8-2.17-.51-4.33-1-6.41-.68-2.75-1.79-5.4-2.76-8.21-3.23,2-4.32,5.18-6.11,7.87a48,48,0,0,1-4.29,5.63,38.69,38.69,0,0,0-4.53,6c-1.28,2.1-2.8,4.07-4.08,6.17-.87,1.42-1.49,3-2.25,4.45-.38.73-.88,1.39-1.21,2.14-.91,2.09-1.64,4.27-2.65,6.31-1.43,2.9-1.71,6.11-2.67,9.08-1.36,4.2-.41,8.38-1,12.51-.21,1.56-.72,3.07-1,4.61a24.73,24.73,0,0,0-.31,3.21,23.11,23.11,0,0,1-2.35,9.35,44.73,44.73,0,0,0-1.41,4.56c-.65,1.81-1.43,3.58-2.16,5.37,0,.11-.14.2-.16.31-.52,2.29-1,4.6-1.56,6.87-.63,2.45-1.38,4.87-2.08,7.3-.52,1.77-1.07,3.54-1.58,5.32-.76,2.67-1.58,5.33-2.22,8a13.12,13.12,0,0,0-.16,3.38c0,1.2-.34,1.75-1.66,1.65-1.53-.11-3.08,0-4.46,0a59.41,59.41,0,0,1-1.81,6.87,14.07,14.07,0,0,1-4,5.65c-1.69,1.43-3.79,1.39-5.89,1.32a11,11,0,0,1-5.82-2c-1.63-1.05-3.79-1.37-5.77-1.79-2.18-.47-4.45-1.12-6.61-.93-3,.24-5.83,1.21-8.75,1.86a6.73,6.73,0,0,1-1.42.18c-2.52,0-5.05.19-7.55,0a27.1,27.1,0,0,1-7.6-1.31,19.58,19.58,0,0,1-5.7-4c-1.07-1,.19-4.51,1.6-5.91a9.48,9.48,0,0,1,5.83-2.64A49.62,49.62,0,0,0,15,459.59a3.29,3.29,0,0,1,.87-.18c2.75,0,4.78-1.77,7-3,1-.52,1.72-1.66,2.73-2,1.4-.43,1.19-1.35,1.07-2.23-.4-2.78.75-5.06,2.16-7.28a1.54,1.54,0,0,0,.24-.48c.53-2.2.76-4.52,1.64-6.55,1.17-2.68.82-5.44,1.19-8.15.34-2.44.53-5,1.49-7.22,1.38-3.15.73-6.34,1-9.49.55-6.12.31-12.39,1.53-18.36a67.21,67.21,0,0,0,.48-20.39,190.56,190.56,0,0,1-.62-20,59.74,59.74,0,0,1,1.21-10.55c.31-1.71,1.34-3.28,2-4.92a1.51,1.51,0,0,0,.13-.33c.53-2.07.9-4.2,1.61-6.22,1-2.73,1.9-5.43,4.48-7.36a44,44,0,0,0,6.38-6.21c1.09-1.23-.7-1.8-1.25-2.38a48.51,48.51,0,0,0-4.66-3.93c1.9-3.07,3.44-5.76,5.2-8.31,1-1.37,2.33-2.44,3.38-3.76,1.82-2.29,3.48-4.71,5.3-7,2-2.56,3.22-5.73,6-7.73.77-.55,1-1.87,1.47-2.82,1.32-2.54,2.56-5.11,4-7.58.94-1.59,2.2-3,3.24-4.53s2-3,2.92-4.6c.59-1,1-2.08,1.69-3a4.29,4.29,0,0,0,0-5.35c-1-1.63-.4-7.05.46-8.83,1-2,2.65-3.33,3.79-5,.75-1.13.09-3.26-.07-4.93a12.43,12.43,0,0,0-.7-2.14q-1.2-4-2.36-8.12a6.65,6.65,0,0,1-.17-1.42c-.38-5.47-.91-10.94-1.06-16.42-.1-3.38.39-6.76.6-10.15a8.36,8.36,0,0,0,0-2.5c-1.54-6.06-.42-12.18-.45-18.26a52.8,52.8,0,0,0-.07-5.76c-.48-4.28.58-8.41,1.93-12.46a8.67,8.67,0,0,0,.17-1.78c.51-4.47.88-9,1.61-13.41.38-2.29,1.48-4.45,2.12-6.7.56-2,.85-4,1.44-5.93s1.46-4.1,2.2-6.15c0-.11.11-.21.14-.32.51-2.06.9-4.17,1.57-6.17a48.66,48.66,0,0,1,2.15-4.85,1.21,1.21,0,0,0,.19-.48c.08-2.42,1.56-4.35,2.26-6.49a31.66,31.66,0,0,1,2.89-6.17,26.61,26.61,0,0,1,3-4.53c2-2.28,2.28-3.63,1.24-6.64-.43-1.24-.15-2.73-.23-4.1-.07-1-.21-2-.33-3.15-2.36.21-4.64-.79-6.64.89a.59.59,0,0,1-.52.09c-1.71-1.12-4.08-.29-5.61-2A30.08,30.08,0,0,1,85.78,81a29.51,29.51,0,0,1-2.1-4.3,13.11,13.11,0,0,1-.86-2.14A2.71,2.71,0,0,1,83,73.19c.19-.59.49-1.15.8-1.86-2.11-.74-2.72-2.15-2.77-4.15,0-1.38.63-3.06-.88-4.16a4.13,4.13,0,0,0-1.58-1c-2.66-.3-5.46-3.47-4.88-6a49.63,49.63,0,0,1,2.16-5.77q.89-2.35,1.67-4.75a17.66,17.66,0,0,0,1-3.64,10.15,10.15,0,0,0-2-6.49,1,1,0,0,1-.23-.46c-.12-3.65-1.9-7.16-1.07-10.87A40,40,0,0,1,77,18.37c.92-2.36,1.89-4.71,3-7C81.4,8.6,83,5.74,85.6,4.17s5.46-3.1,8.87-2.89a94.6,94.6,0,0,0,10.24-.15c1.71-.09,3.4-.54,5.1-.78,2.46-.34,4.89-.8,7.26.64,1.18.72,2.73.81,4,1.48,1.62.88,3.07,2.08,4.62,3.1,3.42,2.25,5.33,5.78,7.71,8.91.84,1.09,1.93,2,2.71,3.12,1.16,1.68,2.18,3.46,3.21,5.22.77,1.31,1.47,2.67,2.19,4a2.24,2.24,0,0,1,.29.63c.49,3.09,1,6.18,1.44,9.28.42,2.9,1.23,5.85,1,8.72-.22,3.19-1.37,6.32-2.11,9.48-.09.35-.12.71-.19,1.06-.48,2.31-.52,4.85-1.57,6.86-1.37,2.58-.78,5-.93,7.73.81.1,1.44.19,2.08.25,3,.28,5.52,1.72,8,3.33a11.77,11.77,0,0,0,3,1.53c4.49,1.27,8,4.23,11.71,6.79,2.55,1.78,4.54,4.4,6.67,6.74a57.68,57.68,0,0,1,4.84,5.88,53.22,53.22,0,0,1,2.94,5.48,19,19,0,0,1,1.27,2.23c.92,2.57,1.67,5.21,2.63,7.76,1,2.7,2.2,5.33,3.31,8a1.63,1.63,0,0,1,.15.52,22.33,22.33,0,0,0,1.14,6.6c.94,2.36.94,5.08,1.64,7.56A35.84,35.84,0,0,0,191,138c.47,1.08.92,2.18,1.29,3.3.55,1.7,1,3.45,1.56,5.13.65,1.9,1.42,3.75,2.14,5.61a3.34,3.34,0,0,1,.18.5c.51,2.44.89,4.92,1.56,7.32.59,2.14,1.59,4.17,2.27,6.3s1.25,4.58,1.86,6.84c1.75,1.11,2.21-.84,3.12-1.43a22.92,22.92,0,0,0,3.76-3.62,82.1,82.1,0,0,0,5.87-6.39,50.81,50.81,0,0,0,3.31-5.86,20.8,20.8,0,0,1,1.3-1.82c2.12-2.93,4.08-6,6.43-8.72,1.53-1.78,3.71-3,5.45-4.59a41.73,41.73,0,0,0,5.49-5.72c.93-1.28.84-3.25,1.56-4.74,1.22-2.54.88-5.69,3.27-7.8.82-.73,1-2.09,1.66-3.09,1.88-3,3.5-6.34,7-8,.25-.12.07-2-.14-2-2-.46-1.86-2.51-2.81-3.7a10.43,10.43,0,0,1-2.12-4.69c-.36-2.24-1.73-3.5-3.15-5a2.94,2.94,0,0,1-.32-4.23c1-1.29-.48-2.89-2.65-2.91-1.5,0-2.84-.17-3.75-1.51-.26-.38-.66-.75-.7-1.17-.48-4.3-.94-8.61-1.31-12.93a24.46,24.46,0,0,1,0-4.84,6.39,6.39,0,0,0-2.82-6.16c-2.55-1.87-3.49-4.69-4.54-7.3-.75-1.83-.27-4.14-.4-6.23-.2-3.09,1-5.78,2.27-8.48a5.27,5.27,0,0,0,.19-.68c1-3,1.76-6.12,3-9,.76-1.85,2.4-3.34,3.16-5.19a9.19,9.19,0,0,1,2.85-3.8c1-.79,1.84-2,3-2.3,2.48-.73,4.31-2.58,6.66-3.46,1.62-.61,3.29-1.08,4.89-1.73s3.25-1.48,4.9-2.17a6.21,6.21,0,0,1,1.58-.25c2.2-.27,4.51.33,6.62-.93a3.68,3.68,0,0,1,2.11,0c1.6.25,3.18.73,4.78.85,1.88.14,3.26,1.22,4.72,2.15s2.78,1.94,4.13,3a18.48,18.48,0,0,1,4.69,5.68,67.38,67.38,0,0,1,4.92,9.6c.92,2.47,2.6,4.38,3.67,6.68.61,1.31,1,2.71,1.6,4,.71,1.67,1.48,3.3,2.2,5a4.19,4.19,0,0,1,.3,1c.46,2.58.43,5.38,1.47,7.69,1.73,3.84,1,7.73,1,11.58,0,2.08-1,4.17-1.57,6.22-.46,1.57-1.42,3.07-1.5,4.63-.07,1.25.86,2.54,1.37,3.81.06.15.28.24.32.38.9,3.22,4,4.59,5.83,7,1.61,2.16,4.38,2.32,6.32,3.89a30.25,30.25,0,0,1,7.16,7.84c1.22,2,2.83,3.84,4.12,5.84,1.06,1.65,2.81,2.68,3.47,4.78.51,1.62,2,2.93,3.05,4.41a17.35,17.35,0,0,1,1.69,2.83c.59,1.38.94,2.87,1.48,4.27s1.3,3,1.95,4.52a7.73,7.73,0,0,1,.42,1c.5,1.76.66,3.72,1.54,5.27,1.41,2.5,2.07,5.45,4.69,7.31a8.8,8.8,0,0,1,3,5.06,11.88,11.88,0,0,1,.55,5.87c-.36,1.66-1,3.53-.58,5,1.19,4.19.42,8.51,1.26,12.62.6,2.93.67,6.22,3.09,8.71,1.29,1.33,1.94,3.27,3,4.86s2.69,3.05,3.31,4.83c.77,2.23,3.12,3.51,3.19,6.12,0,1,.82,2,1.25,2.94.72,1.64,1.56,3.25,2.13,4.95.64,1.92.85,4,1.6,5.86,1.49,3.72.84,7.61,1.32,11.41a2.86,2.86,0,0,0,.72,1.3,14.43,14.43,0,0,1,3,6.21,23.2,23.2,0,0,0,1.53,4,8.86,8.86,0,0,1,.84,2.1,44.52,44.52,0,0,1,.19,5,8.65,8.65,0,0,0,2.13,5.88,7.86,7.86,0,0,1,1.36,2.71c.59,2,1.09,4,1.49,6,.54,2.66.67,5.43,1.47,8a57.37,57.37,0,0,1,2.5,10c.3,2.35,1.35,4.6,2.06,6.9.11.33.14.69.26,1,.71,2.11,1.43,4.21,2.15,6.32a4.35,4.35,0,0,1,.35,1c.12,2.28,1.33,4.07,2.36,6,1.13,2.12,2.36,4.58,2.29,6.85s1.1,4.85-.33,7.31c-.58,1-.1,2.64-.1,4.31l-3.91.42c-.41,2.09-1.24,4.16-1.11,6.17.2,3.05.36,6.19,1.86,9.07.82,1.57,1,3.48,1.69,5.12s1.91,3.43,2.89,5.13a3.79,3.79,0,0,1,.58,1.08c.41,2.9,1.92,5.24,3.62,7.53a13.71,13.71,0,0,1,1.4,2.88c.55,1.31,1,2.67,1.56,4a7,7,0,0,0,1.48,2.75c1,.81.74,1.74,1,2.67.26,1.11,1,2.13,1.1,3.23a42.9,42.9,0,0,1,.15,5.2c0,1.74.11,3.49,0,5.22a3.22,3.22,0,0,0,1.78,3.13c1.53,1,3.21,1.68,4.79,2.56.53.3.91.91,1.46,1.17,3.09,1.48,5.21,4,7.21,6.65.9,1.19,1.81,2.38,2.75,3.54,1.18,1.46,2.43,2.86,3.6,4.32,1.94,2.44,3.91,4.85,5.76,7.36,1.15,1.57,2,3.35,3.17,4.93a43.69,43.69,0,0,0,3.94,4.85c2.27,2.37,4.77,4.51,7,6.89,2.07,2.19,3.95,4.55,5.89,6.87a14,14,0,0,1,1.65,2.32c1.07,2,2,4.06,3.09,6,.86,1.49,2,2.82,2.92,4.29,1.12,1.83,2.12,3.73,3.2,5.59,1,1.69,2,3.35,3,5.05,1.17,2,2.18,4.17,3.49,6.1,1.2,1.78,2.92,3.22,4.05,5,1.82,2.9,4.76,4.41,7.26,6.48,1,.81,1.68,2,2.61,2.85.75.71,1.75,1.17,2.49,1.89,2.74,2.65,3,6.1,2,9.36a48.41,48.41,0,0,0-2.35,9.47c-.19,2-1.39,3.8-2,5.73s-1.1,3.77-1.61,5.67Q476,503.78,475,508a4.41,4.41,0,0,0-.21,1.23c.06,2.42-1.34,4.26-2.25,6.34a14.88,14.88,0,0,1-4.08,5c-.17.16-.2.55-.36.59a28,28,0,0,1-6,1.47c-1.72.07-2.82.94-4.1,1.72-.29.18-.55.51-.85.56-2.82.5-5.64,1-8.46,1.4-1.63.24-3.36-.43-4.87,1a2.75,2.75,0,0,1-2.7-.14c-1.27-1.2-2.65-.73-4-.8s-2.65.23-3.75-1a7.82,7.82,0,0,1-.84-8.1,2.66,2.66,0,0,0,.35-1.17c.1-2,1.4-3.38,2.22-5a16.49,16.49,0,0,1,2.79-4,48.53,48.53,0,0,0,4.48-5.63,67.33,67.33,0,0,0,4.56-7.6c1.34-2.73,1.18-2.81.82-4.44-.86.36-1.69.67-2.48,1a17.3,17.3,0,0,1-10.32,1.65c-.46-.07-.86-.68-1.26-1.06-2.51-2.46-5.09-4.85-7.52-7.4-3.47-3.64-7.07-7.13-9.91-11.38-2-2.9-4.8-5.19-7.14-7.85-2.72-3.09-5.24-6.37-8-9.43a38.53,38.53,0,0,0-4.17-3.42c-1.05-.86-2.06-1.76-3.06-2.67-1.64-1.49-3.19-3.07-4.9-4.48-2.49-2-5.08-4-7.62-6-1.91-1.49-3.89-2.91-5.71-4.51a34.28,34.28,0,0,1-3.37-3.74c-1-1.24-2-2.54-3-3.82-1.1-1.44-2.17-2.89-3.26-4.33-1.44-1.91-2.87-3.84-4.33-5.73-1.12-1.44-2.42-2.74-3.4-4.26-1.69-2.59-3.59-5.14-4.65-8a41.34,41.34,0,0,0-4.22-7.43c-1-1.63-2.28-3.1-3.35-4.7s-2.07-3.43-3.17-5.1c-.82-1.23-1.85-2.33-2.63-3.58s-1.54-2.88-2.33-4.31c-.65-1.16-1.37-2.28-2-3.44a28.46,28.46,0,0,1-1.4-2.68c-1-2.31-1.82-4.69-2.89-7-.84-1.79-1.93-3.46-2.93-5.17-1.12-1.92-2.19-3.88-3.45-5.7a17.06,17.06,0,0,0-3-3.24c-2.15-1.83-4.49-3.44-6.6-5.3-1.94-1.71-3.64-3.7-5.54-5.45a42.26,42.26,0,0,0-4-3.07,1,1,0,0,0-.89.21c-.94,1.71-1.74,3.49-2.71,5.17-1.41,2.43-2.82,4.88-4.42,7.18a65.72,65.72,0,0,1-4.67,5.74c-1.33,1.52-2.82,2.9-4.22,4.36-1.86,1.93-3.61,4-5.57,5.79-2.66,2.47-4.84,5.44-8.24,7.18a9.49,9.49,0,0,0-3.42,3.79c-1.88,3.2-.82,6.45-1.06,9.66-.17,2.33.11,4.69-.07,7a115.51,115.51,0,0,1-1.51,14.55c-.43,2.13-.61,4.28-1.08,6.37a47,47,0,0,1-2,5.65,2.46,2.46,0,0,0-.15.51c-.52,3.64-1,7.29-1.56,10.92-.24,1.44-.74,2.85-1.12,4.27s-.79,2.78-1.13,4.18a9.69,9.69,0,0,0-.22,1.94c-.08,2.34.45,4.91-.35,7-1.07,2.74-.61,5.37-.69,8.05a8.94,8.94,0,0,0,.61,2.15,3.71,3.71,0,0,1,.21,1.56C261.5,463,261,464.78,260.5,466.91ZM361.31,312.66c-.61-3.63-1.09-6.93-1.73-10.19A60,60,0,0,0,358,296.4a14.85,14.85,0,0,0-1.38-2.87c-1.07-1.91-2.16-3.81-3.33-5.65-1.44-2.27-2.91-4.53-4.48-6.71a67.83,67.83,0,0,0-4.68-6c-.87-1-1.66-2.54-3.48-1.83-.57,1.58-1.05,3.14-1.68,4.63s-1.66,2.71-2,4.17c-.51,2.17-.72,4.38-1.25,6.58a66.06,66.06,0,0,0-1.35,12.68c-.19,4.25,0,8.51,0,12.77,0,.75-.24,2-.7,2.16-2.39,1-4.86,2.14-7.36,2.31s-5.29-.72-7.94-1.16a1.49,1.49,0,0,1-.46-.22c-1.25-.68-2.49-1.4-3.76-2-2-1-4.26-1.74-6.09-3S304,310.8,302,310.07a58.59,58.59,0,0,0-6.47-1.55.51.51,0,0,1-.17-.07,12.79,12.79,0,0,0-6.58-2.39,31.91,31.91,0,0,1-5.79-1.27c-.29-.07-.49-.47-.74-.69a3.84,3.84,0,0,0-4.69.47,88.69,88.69,0,0,1-6.85,8.43c-1.81,1.81-4.29,3-6.17,4.2-1.36-2-2.42-3.56-3.47-5.12-1.59-2.35-3.26-4.66-4.71-7.1a2.51,2.51,0,0,1,.31-2.32,42,42,0,0,1,4.12-3.44c-.7-.34-1-.54-1.41-.68-2.11-.75-4.21-1.59-6.38-2.15a2.49,2.49,0,0,0-2.07.93,24.75,24.75,0,0,0-1.37,3.15c-1.41,2.66-2.79,5.33-4.38,7.88-1.31,2.1-3,4-4.36,6.06-2,3-3.7,6.21-5.58,9.3a110.26,110.26,0,0,1-6.35,10c-2.22,2.88-2,6.43-3.36,9.52-.67,1.51-.45,3.34-1.1,5.08a33.63,33.63,0,0,0-1.54,8.82c-.27,3-.14,6.11-.21,9.17a2.82,2.82,0,0,1-.28,1.54c-1,1.28-.69,2.4,0,3.59a10.29,10.29,0,0,0,.08,2.16,20.87,20.87,0,0,1-.2,2.36,11,11,0,0,0-.14,2.21c.1.85.59,1.67.61,2.51a65,65,0,0,1-.74,10.77c-1.13,8.33.29,16.83-1.42,25.2-.94,4.56,0,9.28-1.09,14-.94,3.93-.38,8.22-.52,12.34-.07,2.28-.15,4.55-.32,6.82-.14,1.75-.53,3.47-.61,5.22a2.15,2.15,0,0,0,.9,1.59c1.79,1.2,3.32,3,5.79,2.78a.72.72,0,0,1,.35.08,31.34,31.34,0,0,0,5.13,2.18,58.63,58.63,0,0,0,8.57,1.26c2.92.23,5.87.13,8.8.2a5,5,0,0,1,2.28.3c2.22,1.32,4.65.88,7,1.07,1.09.08,1.45-.35,1.52-1.43.37-5.59-.74-11.24,1-16.82.85-2.67.14-5.63,1.19-8.53,1-2.74,2.07-5.76,1.59-8.9a1.28,1.28,0,0,1,.11-.88c1.4-1.64,1-3.62,1.13-5.51a9.05,9.05,0,0,1,.17-2c.7-2.27,1.77-4.46,2.18-6.77.68-3.76,1-7.59,1.37-11.4.26-2.68.32-5.38.46-8.07.19-3.32.42-6.64.53-10,0-.76-.75-1.63-.56-2.27a43.41,43.41,0,0,1,2.33-6.11,7.11,7.11,0,0,1,1.94-2.39c2.91-2.41,6-4.58,8.79-7.13,2.49-2.29,4.63-5,6.9-7.5,1.74-1.94,3.28-4.09,5.17-5.87a32.51,32.51,0,0,0,7.4-10.93c.57-1.32.8-3,1.75-3.92a1.66,1.66,0,0,0,.19-2.59c-.83-.85-.78-1.7-.05-2.07s2.28-.72,2.94-.29a68.71,68.71,0,0,1,6,4.78c1.91,1.6,3.79,3.22,5.68,4.84s4,3.46,6.07,5.18a14.4,14.4,0,0,1,2.53,2.16c1.49,2.06,2.78,4.26,4.17,6.39,1.55,2.39,3.25,4.68,4.63,7.17,1.14,2.07,1.88,4.36,2.84,6.53q.69,1.56,1.5,3.06c1.1,2,2.28,4,3.34,6.1a25.4,25.4,0,0,0,3.24,5.33,70,70,0,0,1,4.63,6.5c1.15,1.69,2.29,3.4,3.36,5.14s1.89,3.3,2.8,5c1,1.83,1.94,3.69,2.94,5.52.21.39.71.66.81,1.06.64,2.47,2.51,4.06,4.05,5.88s3.24,3.77,4.72,5.75c1.25,1.67,2.22,3.55,3.45,5.24a39.89,39.89,0,0,0,3,3.37c1.44,1.57,2.83,3.22,4.39,4.65s3.11,2.35,4.61,3.59,2.63,2.94,4.27,3.63c2,.85,3.15,2.48,4.74,3.67,2.41,1.79,4.11,4.33,6.82,5.89,1.76,1,3,3,4.37,4.63,1,1.13,1.82,2.38,2.83,3.48,2.3,2.5,4.75,4.86,7,7.42,2.64,3,5.1,6.21,7.67,9.3.79.94,1.7,1.77,2.53,2.67,1.53,1.66,3,3.36,4.57,5s3.07,3,4.61,4.56c1,1,1.81,2.47,3,2.8a9.28,9.28,0,0,0,5.3,0,59,59,0,0,0,7.61-3.75q1.41-.72,2.76-1.56c1.75-1.09,3.47-2.25,5.22-3.35s3.51-1.73,4.86-3c3.18-3.05,6.12-6.35,9.14-9.56,1.79-1.91,1.24-4-1.12-5.05a6.92,6.92,0,0,1-2.56-2.09c-1.59-2.12-3-4.36-4.47-6.57q-2.4-3.64-4.7-7.34c-.57-.91-1-1.93-1.55-2.83-1.06-1.63-2.29-3.15-3.31-4.79-1.65-2.64-3.21-5.34-4.79-8-1-1.66-1.9-3.35-2.91-5a20.88,20.88,0,0,0-2-2.82c-.92-1-2.1-1.85-3-2.92-1.07-1.32-1.67-3.13-2.94-4.15-2-1.63-4.19-3-5.72-5.22-1.14-1.66-2.69-3-3.87-4.68-1.56-2.18-2.86-4.55-4.43-6.73-1.23-1.72-2.72-3.25-4.06-4.89-.39-.47-.57-1.13-1-1.58-1.07-1.17-2.26-2.23-3.31-3.42-1.64-1.84-3.25-3.72-4.78-5.65a14.19,14.19,0,0,0-5.06-4.12c-1.78-.87-3.3-2.34-5.12-3.09a4.11,4.11,0,0,1-2.9-3.88,22.18,22.18,0,0,1,0-5c.6-3.4-1.09-6.42-1.3-9.67a.86.86,0,0,0-.09-.34c-.77-1.69-1.53-3.39-2.32-5.07a40.66,40.66,0,0,0-1.84-3.75c-.95-1.6-2.18-3.05-3-4.7-1.44-2.81-2.71-5.7-4-8.6a72.27,72.27,0,0,1-3.63-9c-.73-2.61-2-5.18-1.53-8.1a36.89,36.89,0,0,0,.13-5.57c0-2-.74-2.46-2.55-1.75a10.11,10.11,0,0,1-2.89.71c-2.52.15-5,.17-7.55.21C364.93,312.69,363,312.66,361.31,312.66ZM168.6,253.88c1.46.57,2.66,1.37,3.91,1.46a32,32,0,0,0,8.58,0,40.32,40.32,0,0,1,10.2-.94,10.51,10.51,0,0,1,1.76.25c1.6.33,3.18.79,4.79,1s2.26-.37,2.25-2.11c-.05-4.92.08-9.83.17-14.75a6.49,6.49,0,0,1,.23-1.76c.66-2.18,1.68-4.31,2-6.54.47-3.3,0-6.69,1.18-10,.56-1.56.31-3.44.26-5.17-.22-6.8,1.07-13.66-1.07-20.4-.71-2.25-.55-4.7-1.24-7.09-1-3.55.09-7.48-1.39-11.15a44.4,44.4,0,0,1-1.57-6.65c0-.16-.2-.29-.27-.45-.71-1.79-1.52-3.56-2.08-5.4-.63-2.05-.94-4.2-1.52-6.27-.65-2.32-1.5-4.59-2.17-6.91-.58-2-1-4.05-1.57-6.07a2.86,2.86,0,0,0-.2-.48c-1.09-2.4-2.2-4.8-3.27-7.2a19.27,19.27,0,0,1-1.33-3.33c-.61-2.61-1.06-5.25-1.57-7.87a5,5,0,0,0-.12-.53c-.66-2.32-1.35-4.63-2-7-.55-2-.94-4-1.62-5.89-1-2.89-2.54-5.62-3.37-8.56-.71-2.55-2.5-4.33-3.64-6.54-.87-1.68-3.06-2.49-3-4.72,0-.13-.16-.3-.28-.41-2-1.82-4.2-3.43-5.85-5.51-2.14-2.71-5.09-4.2-7.82-6a49.34,49.34,0,0,0-5.51-2.7,10.41,10.41,0,0,1-2.91-1.62c-2-2.07-4.86-2.2-7.3-3.14-3.06-1.19-6.08.55-9,1.46a24,24,0,0,0-6,3.45c-3.52,2.39-7,4.82-10.39,7.41-1.34,1-2.23,2.64-3.45,3.86-2.08,2.08-4.35,4-6.36,6.13a28.8,28.8,0,0,0-2.42,3.85c-1.94,2.93-4.39,5.64-5.76,8.82-1.18,2.73-3,5.4-2.91,8.6a1.39,1.39,0,0,1-.18.49c-.71,1.67-1.56,3.29-2.1,5-.68,2.17-1,4.43-1.65,6.62-.39,1.43-.9,2.83-1.42,4.22a43.66,43.66,0,0,0-2,5.14,43.38,43.38,0,0,1-1.2,5.08c-1,2.76-1,5.86-1.43,8.83a31.74,31.74,0,0,1-.41,4.62c-1.09,4-2.21,7.89-2.21,12,0,10.13,0,20.26-.07,30.39,0,2.06-.51,4.1-.71,6.16a14.39,14.39,0,0,0,0,2.86c.16,1.71.53,3.41.59,5.12.16,4.19.18,8.39.28,12.58a8.41,8.41,0,0,0,.26,1.95c.7,2.52,1.46,5,2.18,7.53a45.09,45.09,0,0,0,1.6,5.49A2.62,2.62,0,0,0,89.25,243a87,87,0,0,0,10.14-1c3.91-.66,8-.77,11.88-1.68a2.72,2.72,0,0,0,.69-.19c2.32-1.14,4.63-2.33,7.3-2.43a3,3,0,0,0,.84-.27c1.76-.68,3.49-1.46,5.28-2s3.86-.85,5.66-1.58c2.3-.94,4.42-2.22,7-2.47a27.69,27.69,0,0,0,5-1.3c2.48-.74,4.94-1.53,7.42-2.26,1.95-.57,3.93-1.05,5.87-1.62a28.6,28.6,0,0,0,3.94-1.35c3.22-1.49,6.4-3.06,9.57-4.67.5-.26,1.14-.93,1.13-1.4-.06-2.1,1-4.09.31-6.3-.32-1.09.48-2.47.57-3.74a15.9,15.9,0,0,0,0-4.92c-.34-1.39-1.46-2.57-2.19-3.88-.56-1-1-2.09-1.57-3.08q-2.23-3.76-4.58-7.46c-1.5-2.36-3.06-4.69-4.65-7-1-1.48-2.18-2.86-3.18-4.34s-1.82-3-2.76-4.45c-1.08-1.69-2.22-3.34-3.3-5s-2.35-3.64-3.41-5.53c-.69-1.22-1.17-2.57-1.75-3.86-.51-1.11-1-2.24-1.56-3.33-.67-1.32-1.43-2.6-2.08-3.92s-1.11-2.66-1.77-3.94c-1-1.85-2.31-3.53-2.23-5.79,0-.35,0-.86-.19-1-1.54-1.23-.93-3-1-4.48,0-.41.3-.84.46-1.26a4.49,4.49,0,0,1,1.15.82A5.85,5.85,0,0,1,138,138c.55,1.85,1,3.72,1.51,5.58,0,.06.05.11.07.16.82,1.55,1.66,3.09,2.43,4.66.51,1,.84,2.17,1.4,3.18,1.07,1.94,2.68,3.69,3.26,5.76.85,2.94,2.64,5.23,4.09,7.77.35.61.84,1.12,1.18,1.73.68,1.22,1.2,2.54,1.95,3.7,1.36,2.1,2.88,4.1,4.28,6.19s2.81,4.47,4.3,6.64c1,1.52,2.32,2.87,3.33,4.41,1.51,2.31,2.88,4.72,4.06,6.68,1.06-.26,2-.7,2.16-.49,1.1,1.16,2,2.52,3.06,3.73a3.18,3.18,0,0,0,1.62.92c1.69.33,3.37.28,5.1,1a4.62,4.62,0,0,1,2.87,2.82c-1.77-.17-3.19-.25-4.59-.47-.72-.12-1.41-.76-2.09-.73-2.2.09-3.76-.92-5.26-2.57a3.47,3.47,0,0,0-.16,1.89,7.24,7.24,0,0,0,1.11,2.2c1.63,2.23,1.42,4.4.09,6.67-.22.39.16,1.1.21,1.67a18.29,18.29,0,0,1,.29,4.64c-.4,2.28-1.41,4.45-1.92,6.72s-.89,4.87-1.19,7.32c-.53,4.53-1,9.07-1.43,13.61-.14,1.37.29,3.05-.36,4.06C168,249.64,168.72,251.75,168.6,253.88ZM223.16,289a20.54,20.54,0,0,1,1.6-1.89c1.82-1.56,3.7-3.05,5.52-4.62a40.83,40.83,0,0,1,4.45-3.91,79.44,79.44,0,0,0,10.15-8c3.37-3,6.89-5.81,10.23-8.82,2.91-2.61,5.66-5.4,8.5-8.09,2-1.92,4.07-3.77,6-5.73,1.43-1.42,3.28-2.3,4.23-4.39.63-1.37,1.79-2.61,2.61-4,1.71-2.91,3.89-5.54,5.86-8.29a21.32,21.32,0,0,0,1.2-1.78c.74-1.28,1.38-2.62,2.15-3.87.94-1.53,2-3,2.94-4.5,1-1.76,1.84-3.66,2.93-5.38a12.48,12.48,0,0,0,2.28-5.48,2,2,0,0,1,1.2-1.4,2.35,2.35,0,0,1,1.9.47c.26.23-.07,1.15-.2,1.74a6.18,6.18,0,0,1-.43,1,66.78,66.78,0,0,1-2.89,6.71c-1.86,3.32-4,6.49-6,9.71q-2.56,4-5.16,8c-.29.44-.78.76-1.05,1.21-.77,1.28-1.4,2.66-2.23,3.9s-1.9,2.47-2.86,3.69A37.72,37.72,0,0,1,273,249c-2.36,2.29-4.8,4.52-7.36,6.58-1.49,1.21-.9,1.94.06,3s-.2,2.68,1.54,3.34a18.35,18.35,0,0,0,7.42,1.41,7.09,7.09,0,0,1,2.24.45c2.19.63,4.34,1.73,6.55,1.86,4.84.29,9.71.14,14.57.09a10.63,10.63,0,0,0,3.15-.54,53.76,53.76,0,0,0,5.32-2.08c1.31-.6,2.53-1.41,3.78-2.13,1.54-.9,3-1.82,4.6-2.7,1.74-1,3.59-1.8,5.23-2.94,2-1.38,3.65-3.2,5.68-4.49a36.58,36.58,0,0,0,7.49-6.28c2.78-3,5.91-5.73,8.86-8.62,2.07-2,4-4.15,6.12-6.15,1.11-1,2.42-1.91,3.62-2.87,1.81-1.46,3.54-3,5.44-4.38,2.35-1.66,3.89-3.36,3.55-6.67-.4-3.91-.84-7.71-2.49-11.33-1-2.13-1.64-4.4-2.48-6.59a25.2,25.2,0,0,0-3.8-7.35c-1.24-1.5-1.94-3.44-3.06-5a49.06,49.06,0,0,1-4.94-8A24.06,24.06,0,0,1,342,169c-.36-6.21-.27-12.46-.14-18.69.06-2.7-1.18-4.49-2.95-6.21a16.05,16.05,0,0,1-2.17-2.7,32.82,32.82,0,0,1-1.78-3.37c-.7-1.44-1.45-2.86-2-4.35-.63-1.67-1.06-3.43-1.62-5.13a28.06,28.06,0,0,0-1.24-3.19c-1.11-2.35-2.23-4.7-3.49-7a67.8,67.8,0,0,0-4.21-6.94c-1.74-2.43-4.07-4.48-5.57-7a25.35,25.35,0,0,0-5.12-6.55c-1.06-.92-2-2.18-3.19-2.75-2.6-1.2-5.22-2.23-6.58-5-.06-.12-.36-.09-.48-.21-.49-.47-.93-1-1.43-1.45-.87-.82-1.74-1.63-2.68-2.37a1,1,0,0,0-1,.06,27.85,27.85,0,0,0-3.27,2.55c-2,1.89-3.87,3.82-5.68,5.86-1.45,1.64-2.59,3.57-4.09,5.17-2.69,2.89-5.55,5.62-8.33,8.43-.93.94-2.13,1.78-2.63,2.92a31.24,31.24,0,0,1-4.17,6.49c-2.33,3-5.62,5.41-6.26,9.53a1.29,1.29,0,0,1-.23.47,23.54,23.54,0,0,0-2.06,3.27c-1,2.46-1.88,5-2.8,7.5-.51,1.41-1,2.84-1.57,4.22a36.65,36.65,0,0,0-1.82,3.8c-.67,2.33-1.08,4.74-1.59,7.11a2.82,2.82,0,0,1-.12.52,35.51,35.51,0,0,0-2.13,5c-.49,1.89-.71,3.85-1.12,5.76-1,4.6-1.15,9.37-1.59,14.07-.12,1.25-.06,2.51-.09,3.77a5.77,5.77,0,0,1-.14,1.25c-.72,2.71-1.79,5.37-2.13,8.13-.4,3.36-.55,6.73-1.2,10.1-.61,3.18-.2,6.57-.19,9.86a11.58,11.58,0,0,0,.52,2.18,19,19,0,0,0,3.26-7.68,12.14,12.14,0,0,1,.22-1.23c.73-2.3,1.63-4.55,2.19-6.88.69-2.84,1.1-5.74,1.63-8.6a2.35,2.35,0,0,1,.11-.35c.69-1.92,1.47-3.82,2-5.79s1-4.14,1.46-6.21a2.69,2.69,0,0,1,.29-.65c1.17-2.21,2.34-4.43,3.52-6.64a19.91,19.91,0,0,0,1.11-1.95c.63-1.52,1.17-3.07,1.75-4.61h.49c.19.69.68,1.46.52,2.07-.53,2.06-1.26,4.08-1.95,6.1a13.62,13.62,0,0,1-1.15,2.69c-1.07,1.78-2.26,3.49-2.22,5.7a3,3,0,0,1-.17,1.24c-.91,2.21-2.46,4.2-2.36,6.77,0,.16-.12.33-.18.49-.73,2.26-1.59,4.48-2.17,6.77-.63,2.56-1,5.18-1.5,7.77a2,2,0,0,1-.08.35c-.74,2.14-1.51,4.27-2.21,6.42-.54,1.62-1,3.29-1.52,4.91-.72,2.08-1.48,4.16-2.31,6.19a36.33,36.33,0,0,1-2,4.11c-.93,1.65-2,3.22-3,4.84s-1.94,3.56-3.13,5.18c-.87,1.2-2.26,2-3.17,3.19a30.6,30.6,0,0,1-8.46,7.33,14.35,14.35,0,0,0-2.83,2.08c-2.88,3-5.72,6-8.46,9.12-.43.5-.68,1.88-.35,2.21a44.8,44.8,0,0,1,5.17,7.22c1.88,2.91,2.56,6.19,3.09,9.45.5,3.06.28,6.22.56,9.32A20.88,20.88,0,0,0,223.16,289ZM112.91,339.28a9.52,9.52,0,0,0,.19,2.59c.87,2.25,2.13,4.32,2.53,6.79.52,3.14,1.47,6.21,2.13,9.34.58,2.77,1,5.56,1.54,8.35a1.13,1.13,0,0,0,0,.18c.76,2.35,1.66,4.66,2.24,7.05.66,2.72,1,5.51,1.53,8.27a3.1,3.1,0,0,0,.15.52c.68,1.93,1.46,3.82,2,5.79.63,2.22.68,4.69,1.71,6.68.93,1.83.7,3.66,1.12,5.45a3.12,3.12,0,0,0,.23.67,29.78,29.78,0,0,1,1.93,3.66c.68,1.88,1.13,3.85,1.67,5.78a1.21,1.21,0,0,0,.08.34,11.6,11.6,0,0,1,2.38,7.41,3,3,0,0,0,.22,1.23c1.09,2.73,2.15,5.47,3.36,8.15a33.41,33.41,0,0,0,2.37,4.09,19.82,19.82,0,0,0,1.51,1.94c1.43,1.8,2.82,3.62,4.31,5.37,2.32,2.72,4.74,5.35,7,8.08a9.36,9.36,0,0,1,1.3,2.39c.61,1.39,1.06,2.84,1.73,4.19,1,2.14,2.27,4.21,3.34,6.33s1.92,4.24,3,6.27c1.85,3.39,4.08,6.59,5.66,10.09a41.19,41.19,0,0,0,3.62,6.3c.63.91,1.1,1.94,1.64,2.91a14.87,14.87,0,0,0,1.73,3c1.82,1.95,3.78,3.77,5.77,5.54.64.58,1.77.67,2.3,1.29,2.42,2.84,6,3.41,9.17,4.23,4.32,1.12,9-.35,13.4,1.33,1.83.7,4.15.2,6.24.07a2.41,2.41,0,0,0,1.79-1.08,13.53,13.53,0,0,0,1.17-4.16c.21-2.26.12-4.55.12-6.83a5.22,5.22,0,0,0-.2-1.41c-.72-2.48-1.52-4.95-2.2-7.45-.32-1.19-.23-2.35-1-3.59-1.32-2.24-2-4.87-3-7.31-.71-1.77-1.68-3.46-2.21-5.29-1-3.45-3.72-6.12-4.22-9.81a11.6,11.6,0,0,0-1.57-3.61c-1-1.88-2.34-3.63-3.18-5.58-1.42-3.3-2.59-6.71-3.82-10.09-.93-2.54-1.76-5.11-2.69-7.65-.25-.68-.77-1.26-1-1.94-.63-1.47-1.05-3.05-1.81-4.44-1.9-3.5-4-6.89-5.91-10.39-.66-1.2-.68-2.89-1.56-3.8-2-2.09-1.93-5-3.38-7.27a8.86,8.86,0,0,1-1.27-3c-.4-2.22-.12-4.46-1.12-6.71-.93-2.09,0-4.67-1.37-6.94-.9-1.44-.93-3.44-1.23-5.21-.46-2.72-.59-5.45-1.23-8.2-1-4.39-.43-9-1.11-13.59-.89-6-.18-12.19-.14-18.31a4.19,4.19,0,0,1,.25-1.58c1.44-3.44.42-7,.88-10.62H164a60.36,60.36,0,0,1-1.69-6.36,45.12,45.12,0,0,0-2.53-9.34c-1.11-2.86-1.92-5.83-2.86-8.75a4.34,4.34,0,0,0-.28-.62c-.7-1.45-1.45-2.88-2.07-4.36s-.92-2.85-1.54-4.21c-1.17-2.55-2.41-5.08-3.72-7.56A10.4,10.4,0,0,0,147.6,282a8.73,8.73,0,0,0-.61,2.2c-.08,5.58-.07,11.15-.13,16.73a17.84,17.84,0,0,1-.29,4.64,10.26,10.26,0,0,0,.08,7.08,5.9,5.9,0,0,1,.08,3.36c-.61,2.56-1.67,5-2.13,7.58a10,10,0,0,1-1.42,4.25c-.84,1.21-1.7,2.3-3.43,2.3-9.59,0-19.18.25-28.77.06-4.76-.1-9.6.74-14.31-1a33.43,33.43,0,0,0-6.69-1.4c-2.37-.35-4.77,0-7.11-1.16-1.85-.94-4.1-1.08-6.17-1.58a3,3,0,0,1-.5-.18,35.57,35.57,0,0,0-5.08-2.06c-2.12-.5-4.32-.18-6.45-1.26-1.85-.94-4.11-1.06-6.18-1.56a1.62,1.62,0,0,1-.63-.34,3.79,3.79,0,0,0-3.58-.71c-1.17,1.52-2,2.61-2.83,3.65-2.37,2.87-6.34,4.33-7.22,8.57-.44,2.1-1.56,4-2.22,6.1-.61,1.87-.64,4-1.6,5.66-1.8,3.06-.58,6.55-1.88,9.69-.71,1.71-.32,3.92-.22,5.89.26,4.86.9,9.71.9,14.57,0,7.94.81,15.92-.87,23.84-.55,2.59-.16,5.38-.24,8.07s-.06,5.42-.41,8.08c-.49,3.78-1.34,7.52-1.94,11.29s-1,7.47-1.56,11.2a3,3,0,0,1-.14.51c-.74,2.11-1.44,4.24-2.22,6.33a51,51,0,0,1-2.19,5.41,3.14,3.14,0,0,0,.84,4.11c.89.55,2,.76,2.91,1.29a14.12,14.12,0,0,0,7,2.32,4.13,4.13,0,0,1,1.3.51c1.59.64,3.16,1.33,4.77,1.9s3.45,1,5.14,1.62,3.51,1.72,5.36,2.06a49.8,49.8,0,0,0,7.34.4c1.11,0,1.58-.47,1.71-1.72.33-3.07.94-6.11,1.44-9.16a2.14,2.14,0,0,1,.06-.35c.74-2.1,1.63-4.16,2.18-6.31.64-2.52,1-5.12,1.47-7.68a5.35,5.35,0,0,1,.24-.67c1.25-3.74,3.22-7.24,3.66-11.24a2.06,2.06,0,0,1,.17-.69,21.7,21.7,0,0,0,2-4.24c.67-2.89,1-5.87,1.45-8.81l.24-1.59c.36-2.08.76-4.16,1.06-6.25.51-3.59-.6-7.27.94-10.85A22.18,22.18,0,0,0,82.11,387c.46-3.27,2.25-5.89,3.21-8.86a32,32,0,0,1,5-9.49c1.87-2.43,3.07-5.21,4.88-7.61,1.15-1.53,2.51-2.91,3.69-4.41q2.06-2.61,4-5.33c1.2-1.72,2.24-3.55,3.49-5.23,1.59-2.14,4-3.8,4-6.82Zm98.06,128c1.21-.43,2.76-.86,4.2-1.53a6.9,6.9,0,0,0,2.63-1.93,8.09,8.09,0,0,0,1.15-3.1,1.59,1.59,0,0,0-.65-1.24,4.34,4.34,0,0,1-2-4.05c.16-6.77.2-13.55.44-20.31.11-2.93.73-5.85.94-8.78.56-8.15-.07-16.34,1.13-24.5.69-4.65.22-9.46.45-14.19.51-10.29-1.27-20.63,1-30.88.56-2.54.13-5.16,1.17-7.8,1.37-3.43,1.86-7.23,2.64-10.88a15.68,15.68,0,0,1,2.61-5.64c2.26-3.29,4.21-6.79,6.29-10.21,1.83-3,3.59-6.09,5.51-9,2.53-3.87,5.88-7.19,7.6-11.61.49-1.27,1.4-2.38,1.94-3.63.78-1.82.06-2.71-1.89-3.06a10,10,0,0,1-4-1.47c-.93-.65-2.08-1.74-1.4-3.23a9.43,9.43,0,0,1,1.71-2.64c1.53-1.6,3.23-3,4.82-4.59,2.5-2.43,4.91-4.94,7.44-7.33,1.4-1.33,3-2.43,4.43-3.73a22.24,22.24,0,0,0,5.41-7.76,2.79,2.79,0,0,0,0-1.93,24.61,24.61,0,0,0-1.64-2.95,13.47,13.47,0,0,0-1.72.92c-.77.54-1.47,1.19-2.2,1.8-1.86,1.56-3.74,3.09-5.58,4.68s-3.83,3.5-5.8,5.19c-1.77,1.52-3.63,3-5.45,4.44-2.36,1.92-4.69,3.89-7.08,5.77-1.89,1.48-3.82,2.92-5.78,4.29-2.28,1.59-3.69,4.22-6.65,5.07-1.9.55-4.56.52-5.89-1-2-2.24-3.85-4.58-5.67-6.76-1.43,1.31-2.63,2.53-4,3.6s-2.94,1.76-4.08,3a6.42,6.42,0,0,1-4.22,2.2,2.43,2.43,0,0,0-2.38,2.58c-.39,5.7.67,11.46-1.14,17.11-.72,2.29-2.53,4.27-5,4.13-.47,0-1.22.06-1.38.34a16.13,16.13,0,0,0-1.18,3c-.75,2.49-1.55,3.07-4.1,3-1,0-2.28-.24-2.78.27-1.27,1.27-2.63.82-4,.74s-2.7.79-2.57,1.76c.18,1.31-.43,2.26-.55,3.38-.44,4,.13,8-1.07,12-.64,2.16-.31,4.65-.16,7,.19,2.94,1.05,5.88.92,8.78-.3,6.48,1.34,12.74,1.62,19.14a2.87,2.87,0,0,0,.13.71c.7,2.31,1.46,4.6,2.09,6.92a39.27,39.27,0,0,1,1.23,5.65c.31,2.74.1,5.52,1.36,8.15.74,1.55.85,3.39,1.54,5,1.07,2.48,2.39,4.86,3.61,7.28.93,1.82,1.84,3.66,2.81,5.46,1.15,2.13,2.4,4.22,3.52,6.37.65,1.24,1.08,2.58,1.68,3.84s1.5,2.66,2,4.07c.65,1.71,1,3.55,1.62,5.26,1,2.79,2.43,5.47,3.25,8.31s2.41,5.32,3.79,7.9a34.94,34.94,0,0,1,1.43,3.32c1,2.45,1.91,4.94,2.95,7.37C208.84,463.1,209.79,464.86,211,467.25ZM87.5,262c-.76,0-1.41,0-2,0-3.21-.06-3.09,0-4.45,3a42,42,0,0,1-3,4.72c-1.08,1.74-2.13,3.52-3.19,5.28-.71,1.19-1.44,2.37-2.15,3.56-.91,1.51-1.84,3-2.71,4.53-.68,1.19-1.15,2.52-1.94,3.63-1.8,2.53-3.76,4.94-5.63,7.42-2,2.64-3.93,5.3-5.88,7.95-2.26,3.08-4.56,6.12-6.69,9.28a2.48,2.48,0,0,0,.42,2.19A8.23,8.23,0,0,0,52.43,315a7.92,7.92,0,0,0,1.93,1.2c2.26.6,4.57,1.05,6.85,1.55a4.42,4.42,0,0,1,.52.14c1.73.7,3.41,1.72,5.22,2,2.18.4,4.39.4,6.53,1.28a40.1,40.1,0,0,0,6,1.54,1.91,1.91,0,0,1,.34.1c2.12.76,4.2,1.65,6.36,2.26a41.14,41.14,0,0,0,5.86,1.08c4.47.55,9,1,13.43,1.51.83.08,1.67,0,2.51,0q15.38,0,30.75,0a3.4,3.4,0,0,0,3.16-2.61c.21-1,.74-2,.94-3,.55-2.94,1.38-5.9,1.43-8.86.2-12.47.14-24.94.23-37.41,0-.46.44-1.28.73-1.31a2.21,2.21,0,0,1,1.77.57c.7,1,.85,2.48,1.71,3.14,2,1.55,2,4.09,3.26,5.95A29.81,29.81,0,0,1,154,288.3c1,2,2,3.94,2.94,6s1.65,3.89,2.45,5.85c.5,1.2,1,2.39,1.42,3.62.58,1.88,1,3.82,1.57,5.69s1.58,3.93,2.14,6c.66,2.37,1,4.8,1.55,7.19a51,51,0,0,0,5.26,0c2-.2,2.69-2.19,1.51-3.8-.13-.18-.35-.39-.35-.58,0-2.93,0-5.86,0-8.78,0-.72,1.8-1.23.34-2.12a10.34,10.34,0,0,0-2.44-.84c-.57-.16-1.16-.24-1.68-.34-1.15-4.21.62-8,1.2-11.95,0-.06,0-.12,0-.17.7-2.25,1.78-4.47,2-6.77.17-1.92-.68-3.93-1.11-5.89,0-.15-.35-.24-.52-.36-1.86-1.3-2.14-2.53-1.13-4.39-.63-1.35-1.28-2.57-1.76-3.85a1.63,1.63,0,0,1,.27-1.36c1.21-1.37.91-2.69,0-4.05a2.06,2.06,0,0,1,.25-2.86c1.79-1.88,3.53-3.79,5.43-5.84-1.76-.62-3.4-1.17-5-1.77a9.5,9.5,0,0,1-1.16-.65c-1.53-.83-1.5-2.27-1.41-3.69a25,25,0,0,1,1-6.57c.74-2.23.36-4.86.39-7.31a6.42,6.42,0,0,0-.51-1.74c-.77.37-1.31.67-1.88.9-1.31.54-2.66,1-3.93,1.6-2.36,1.13-4.67,2.36-7,3.51a16.92,16.92,0,0,1-3,1.24c-2.19.59-4.43,1-6.64,1.57-1.38.35-2.75.78-4.11,1.19a7.48,7.48,0,0,0-.74.39c-1.54.69-3.07,1.38-4.62,2-.38.16-.88,0-1.22.25a14,14,0,0,1-6,2.33,2.85,2.85,0,0,0-.71.12c-2.27.77-4.52,1.61-6.81,2.32-1.94.61-3.93,1.06-5.9,1.59-2.74.73-5.44,1.65-8.22,2.15a32.05,32.05,0,0,1-5.63.06,5.29,5.29,0,0,0-.1,1.17,42.5,42.5,0,0,1,1,4.51c.56,5.36,1,10.72,1.49,16.09a2.54,2.54,0,0,0,.14.88,18,18,0,0,1,2.39,8.86,5.2,5.2,0,0,0,.26,1.75,48.83,48.83,0,0,1,2,5.72A93.56,93.56,0,0,1,109,307.62a85.59,85.59,0,0,1,0,9.34,2.28,2.28,0,0,1-1,1.75c-2.31.87-4.61,1.81-7.2,1.51a10.42,10.42,0,0,0-2.87.62c-1.94-.57-2.17-2.93-2.51-4.55-.73-3.53-.09-7.21-1.32-10.83-1-2.77-.06-5.92-1.21-8.91-.81-2.1-.38-4.58-1.24-6.91-1-2.64-.32-5.61-1.25-8.49-1-3.2-.85-6.8-1.32-10.2C88.6,268,88,265.05,87.5,262Zm176.64-248c-3.8-.53-7.48.33-11.1,1.53a25.15,25.15,0,0,0-3.34,1.24c-2.23,1.13-4.39,2.37-6.58,3.57-1.53.83-3.41,1.18-4.51,2.64a57.24,57.24,0,0,0-4.18,6.18,31.86,31.86,0,0,0-1.68,4.54c-.77,2.07-1.58,4.13-2.38,6.19-.1.27-.23.52-.33.78a33,33,0,0,0-2,5.67,29.06,29.06,0,0,0,0,6.46,2.44,2.44,0,0,0,1,1.66,6.37,6.37,0,0,0,3.07,1.17c3.81-.07,7.7.91,11.45-.74.58-.26,1.46.09,2.19.25.5.1,1,.53,1.45.49a8.46,8.46,0,0,1,6.8,2.53,14.12,14.12,0,0,1,4.26,7c.45,1.68,1.93,4.3,3.28,4.51,2.19.33,4.21.26,5.93-1.73a108.34,108.34,0,0,1,7.66-7.8,7.91,7.91,0,0,1,3.23-1.84c2.2-.59,3.89.74,5.22,2.24a7.53,7.53,0,0,1,1.86,3.63,46.75,46.75,0,0,1,.3,7.85c0,1.37-.75,2.71-.89,4.08-.17,1.6.76,2.26,2.36,2.47,2,.26,3.59-.66,5.32-1.29,1.44-.52,2.43-1.28,2.59-2.89a4.65,4.65,0,0,1,.33-1.74,12.08,12.08,0,0,0,2-8.11c-.31-2.16-.72-4.32-1.09-6.48-.47-2.69-1-5.38-1.43-8.08a.64.64,0,0,0-.05-.17l-2.41-6.07c-.54-1.35-.73-3-1.64-4-1.67-1.79-2.32-4-3.45-6-1-1.78-1.78-3.69-2.69-5.52-.22-.44-.91-.84-.87-1.2.32-2.76-2.24-3.77-3.4-5.6A15.63,15.63,0,0,0,276,16.86c-2.12-1.43-4.24-3.17-7.13-3C267.33,14,265.76,13.92,264.14,13.92ZM202.71,177.44l.63.44c.17,1,.38,1.9.5,2.86.35,2.78,0,5.53,1.06,8.38a31.31,31.31,0,0,1,1.51,10.19c.15,7.37-.07,14.74-.1,22.11a3.89,3.89,0,0,0,.44,1.2,10.31,10.31,0,0,0,1-.68c.66-.59,1.27-1.26,1.95-1.82,1.29-1.07,2.69-2,3.91-3.15s2.42-2.62,3.63-3.93c1.89-2,3.78-4.09,5.71-6.1s3.8-3.85,5.71-5.78,3.62-4.16,5.79-5.73c1.42-1,2.12-2.93,4.23-3.22,1.13-.16,2.11-1.28,3.19-1.89,2.1-1.2,2-3.65,2.29-5.36.92-4.79,1-9.74,1.48-14.61.39-3.75,1-7.47,1.45-11.21a2,2,0,0,1,.16-.51c.71-1.72,1.53-3.41,2.1-5.17.62-2,1-4,1.49-6,0-.18.09-.35.15-.52.75-1.82,1.59-3.61,2.22-5.47s1-3.56,1.43-5.34a2.52,2.52,0,0,1,.22-.47c1.17-2.24,2.35-4.48,3.5-6.73.72-1.39,1.32-2.84,2.12-4.18s1.81-2.52,2.69-3.8,1.64-3.21,2.92-4.22a2.92,2.92,0,0,0,.86-3.88c-.65-1.28-1.35-2.81-3.58-2.91-3-.13-5.87,1.21-8.87.49-.26-.06-.63.25-.93.42-1.55.86-1.82,3.22-3.95,3.43,0,0,0,.23-.1.33-2,2.94-4.15,5.82-6,8.86-.78,1.27-1.84,2.51-1.72,4.3.06.87-.59,1.8-.93,2.69-.47,1.24-.9,2.49-1.44,3.69a15.13,15.13,0,0,1-2,3.92,37.17,37.17,0,0,1-6.19,5.78,19.72,19.72,0,0,0-6.06,6.37c-1.72,2.93-4.33,5.41-5.67,8.47-1.13,2.6-4.05,3.9-4.38,6.88,0,0-.09.07-.13.11-1.16,1-2.41,1.85-3.48,2.9C208.52,171.5,205.63,174.49,202.71,177.44ZM269.16,111c.75-.64,1.5-1.21,2.17-1.87,1-1,1.89-2,2.8-3,2.41-2.65,4.8-5.3,7.2-7.95,1-1.12,2-2.25,3.05-3.36,1.36-1.45,3.07-2.69,4-4.37a13.68,13.68,0,0,1,4.71-4.82c2-1.25,2.05-3,.92-5.13a1.53,1.53,0,0,0-2.49-.56c-1.51,1.6-3.32,1-5,1-3.08-.12-4.41-1.69-4.36-4.77a23,23,0,0,1,.23-2.87c.34-2.29,1-4.58,1-6.86a7.3,7.3,0,0,0-1.72-4.16,4.16,4.16,0,0,0-3.17-1.41,6.62,6.62,0,0,0-3.45,2c-2.28,2.24-4.34,4.7-6.52,7-2.63,2.81-7.07,3.35-9.85,1a12.09,12.09,0,0,1-2.85-3.47c-1.27-2.33-1.3-5.06-3.68-7.12s-5-2.67-7.72-3.12c-1.41-.22-3,.75-4.49.87-2.39.18-4.79.07-7.19.13a17,17,0,0,0-2.25.39,25.27,25.27,0,0,1,2.05,2.11c1.31,1.74,3.19,3.1,3,5.75a65.36,65.36,0,0,0,.06,9c.21,2.94.87,5.84,1.13,8.78a1.89,1.89,0,0,0,1.78,2,24,24,0,0,1,4,1.17c1.52.63,2.32,3.64,1.43,4.91a1.66,1.66,0,0,0,1.05,2.63c.52.1,1,.13,1.73.21.06,1.12.1,2.19.19,3.25a3.78,3.78,0,0,0,.28,1.38c.64,1.29,1.69,2.47,2,3.83a5.94,5.94,0,0,0,4.88,4.85,8.81,8.81,0,0,0,5.07-.09C262.41,106.91,267,107.18,269.16,111ZM136.73,70.48c.15-1,.22-2-1.11-2.41-.49-.17-.85-.75-1.24-1.18a49.21,49.21,0,0,0-4.49-5c-2.6-2.22-6.11-2.47-9.18-3.67-1-.41-2.54-1.17-2.71-2-.52-2.54-.41-5.1,1.91-7.06a4.58,4.58,0,0,0,1.66-4.73c-.31-1.31-1.73-2.67-2.64-2.23-1.29.61-2.81,1.26-3.58,2.35-2.11,3-5.19,4.41-8.25,6a2.16,2.16,0,0,1-1.58-.05c-.89-.37-1.72-.91-2.79-1.49,0-1.11,0-2.48,0-3.84,0-.61-.17-1.52-.57-1.75a21.65,21.65,0,0,0-5.46-2.59c-3.13-.75-6.38-1-9.57-1.5-.72-.11-1.4-.45-2.12-.59a13.33,13.33,0,0,0-3.35-.43c-.24,0-.58,1.39-.56,2.13a17,17,0,0,1-2.15,8.3,31.9,31.9,0,0,0-1.62,5.1,10.93,10.93,0,0,0-.69,2,5.29,5.29,0,0,0,.2,2.31c.55,1.58,1.93,1.52,3.32,1.58.75,0,2,.45,2.12,1a33.94,33.94,0,0,1,1.26,6c.36,2.72.28,2.73,3,3.31.09,0,.16.16.36.38-1.38,4-1.09,7.8,2.08,11.12,1.48,1.55,5.34,2.66,7.3,2a12,12,0,0,1,3.83-.92c2.94-.07,4.84,2.65,4.28,5.54a25.59,25.59,0,0,0,0,4.57c.75-.18,1.46-.13,1.84-.47a36.08,36.08,0,0,0,5.3-5c2.26-3,5.23-5,8.13-7.24a58.87,58.87,0,0,1,7.47-5C130.1,73.17,133.4,71.94,136.73,70.48Zm201,204.65a11.41,11.41,0,0,1,.44-2.31c.22-.45.73-.74,1-1.16a2.77,2.77,0,0,1,3.92-.54,64,64,0,0,1,9,10.52c1,1.57,2.35,2.92,3.39,4.48a44.72,44.72,0,0,1,2.69,4.78c.6,1.19,1,2.49,1.55,3.71.71,1.58,1.81,3.06,2.18,4.72a75.09,75.09,0,0,1,1.38,9.22c.12,1.26.59,1.69,1.74,1.66,2.33-.07,4.67-.11,7-.21,1.56-.06,3.24.15,4.62-.38a10.17,10.17,0,0,1,4.5-.38c1.26.08,3.2-.3,3.74-1.16,1.9-3,1.1-6.58,1.09-9.95a1.17,1.17,0,0,0-.18-.49c-.69-1.31-1.39-2.61-2.07-3.92a19.73,19.73,0,0,1-1.37-2.91c-.58-1.81-1-3.67-1.51-5.49-.8-2.72-1.65-5.42-2.47-8.12-.07-.23-.15-.46-.22-.69-.7-2.49-1.48-5-2.07-7.47s-1-5.28-1.54-7.92a1.13,1.13,0,0,0,0-.18c-.75-2.75-1.58-5.48-2.24-8.25a17.4,17.4,0,0,0-2.52-6.47c-.91-1.28-1.67-.75-2.34-.45s-1,1.24-1.63,1.72c-1.86,1.43-3.73,2.88-5.72,4.13a28.53,28.53,0,0,1-3.77,1.58,24.87,24.87,0,0,0-3,1.53c-1.78,1.11-3.51,2.3-5.24,3.48s-3.36,2.25-5,3.45c-1.1.82-2,1.87-3.16,2.66-2.51,1.77-5.08,3.45-7.63,5.14-.78.52-.74.88,0,1.44,1.1.81,2.11,1.77,3.18,2.63C336.12,274,336.8,274.46,337.75,275.13ZM474.16,468.5c-2,2.14-3.89,4.27-5.89,6.3-2.91,2.95-5.87,5.79-9.8,7.5a40.07,40.07,0,0,0-6.21,3.9c-1.15.78-2.12,1.74-1.67,3.4.65,2.33-.85,4.16-1.56,6.16a8.37,8.37,0,0,1-1.35,2.58c-1.54,1.86-2.9,3.9-4.32,5.81-1.91,2.57-4.32,4.81-5.73,7.85-.93,2-2.26,3.71-2.29,6a10,10,0,0,1-.5,1.87,2.45,2.45,0,0,0-.11,1.16c.25.88.63,1.74,1,2.73,1.24,0,2.71.62,3.72-1,.06-.1.78.09,1.06.31.69.53,1.22,1.38,2,1.7,1.47.63,2.13-.89,3.18-1.45a5.05,5.05,0,0,1,2.35-.21c1.14,0,2.73.71,3.3.2a4.24,4.24,0,0,1,3.95-.91,2.57,2.57,0,0,0,2.07-.63c1.37-.92,2.68-2.2,4.86-1.9a6.69,6.69,0,0,0,6.54-2.94,32.54,32.54,0,0,0,2.57-5.06c1.34-2.73.58-5.72,1.91-8.44,1-2.07,1.08-4.61,1.57-6.95a.84.84,0,0,1,0-.17,33.26,33.26,0,0,0,2.21-4.88,68.63,68.63,0,0,0,1.32-6.86c.13-.71-.06-1.75.35-2.07,1.32-1.05,1-2.44,1.07-3.72.11-1.49,0-3,.07-4.49a4,4,0,0,0-2.26-3.92C476.46,469.83,475.34,469.17,474.16,468.5ZM242.26,197.94l-.34-.08c0-.48,0-1,0-1.44s.06-1,.06-1.44c0-1.38-.7-1.82-1.91-1.12a9.28,9.28,0,0,0-1.94,1.53c-2.23,2.3-4.37,4.68-6.64,6.93-2,1.93-4.1,3.66-6,5.59s-3.81,4.15-5.78,6.16c-1.38,1.41-2.92,2.67-4.33,4.05a81.8,81.8,0,0,1-5.81,5.82c-2.75,2.23-4.83,5-5.4,8.32s-1.8,6.42-1.52,9.9a94.18,94.18,0,0,1-.15,11.14,10.55,10.55,0,0,1-.74,3.15,3.72,3.72,0,0,0,1.34,4.06,3.88,3.88,0,0,0,4-.77c.66-.86,1.27-2.49,1.92-2.49,2.46,0,2.84-2.49,4.5-3.49,2.33-1.4,3.81-4.18,5.71-6.32a20.17,20.17,0,0,1,3.11-3c1.61-1.19,3.61-1.91,5.06-3.25a51.19,51.19,0,0,0,6.84-7.36c2.37-3.22,4.25-6.81,6.32-10.25.5-.83,1.32-1.7,1.32-2.55,0-3-.25-6.08-.43-9.11a72.71,72.71,0,0,1-.44-7.77A37.48,37.48,0,0,1,242.26,197.94Zm39.2,102.75c1.1,1.75,3,1.68,4.81,1.84a4.6,4.6,0,0,1,1.06.16c2.11.71,4.18,1.54,6.32,2.15s4.15,1,6.22,1.44c.23.06.45.18.67.26,1.88.68,3.71,1.71,5.64,1.94,2.49.28,4.27,1.67,6.21,2.9.5.31.87.87,1.39,1.09,1.52.64,3.08,1.2,4.65,1.7,2.2.71,4.4,1.73,6.65,1.88s4.41-.63,6.93-1.06c0-2.52-.08-4.84,0-7.16.15-3.76-.43-7.45.64-11.31,1-3.59.09-7.63,1.55-11.33.45-1.13-.27-2.61,1-3.61.22-.17,0-.94-.09-1.86a25,25,0,0,0-2.13,2.6c-.63,1.06-1,2.32-1.64,3.35a3.59,3.59,0,0,1-4.54,1.59,14.59,14.59,0,0,1-2.65-2c-2-1.46-3.23-3.91-6-4.42a13.14,13.14,0,0,1-3.83-1.51c-2.54-1.42-3.87-1.24-5.35.94a6.75,6.75,0,0,1-5.23,3.26,1.85,1.85,0,0,0-1,.31,6,6,0,0,1-6.48-.08,2.56,2.56,0,0,0-3.85,1.08,24.87,24.87,0,0,1-2.28,3.61c-.83,1.18-1.77,2.29-2.6,3.47C285.54,294.8,283.53,297.72,281.46,300.69Zm-69.18-38.07c-1.06.29-2.39.25-3.08.91-1.3,1.23-2.7.88-4,.69a7,7,0,0,1-3.81-1.44c-3.11-3.24-7.22-3.78-11.22-4.43a17.39,17.39,0,0,0-7.44.77c-2.83.77-5.66,1.16-8.37,2.58a11,11,0,0,0-4.09,3.79,1.52,1.52,0,0,0-.06,1.4c1.23,1.45,1.4,2.75.07,4.27a2.23,2.23,0,0,0-.14,2,30.2,30.2,0,0,0,1.92,2.94,1.06,1.06,0,0,1-.1,1c-1.58,1.54-.65,2.12.88,2.7s1.72,1.56,1.08,3c-.29.65-.49,1.78-.13,2.22,1.16,1.47,2.06,3.4,4.39,3.44a2.75,2.75,0,0,1,1.55.3A10,10,0,0,0,186.5,291c3.17-.09,6.35-.08,9.52-.12.36,0,.8.07,1.06-.11,1.94-1.29,4.38-1.42,6.1-3.46,2-2.33,4.66-4,7-6,1.06-.9,2-1.92,3.13-2.74s2.65-1.67,3.95-2.55a1.62,1.62,0,0,0,.59-.94c.47-2.45-.72-4.54-1.56-6.69a11.18,11.18,0,0,0-1.4-2.5C214.08,264.71,213.13,263.66,212.28,262.62ZM55.49,474.72c.78-2.28,1.38-4.05,2-5.82,0-.06.06-.11.07-.16.29-1.41.65-2.8.82-4.21a1.52,1.52,0,0,0-.86-1.15c-1.79-.57-3.65-.92-5.44-1.5s-3.67-1.38-5.51-2.07c-1.6-.6-3.19-1.28-4.83-1.75-2.13-.6-4.31-1-6.47-1.53a4.06,4.06,0,0,1-.64-.29c-1.26-.61-2.51-1.24-3.78-1.8a1.34,1.34,0,0,0-1.05-.06c-1,.56-1.86,1.23-2.78,1.85-1.58,1.07-3.14,2.18-4.76,3.18-.89.55-2.1.69-2.82,1.38-1.65,1.56-3.85,1.52-5.76,2.18-2.48.85-5.2,1-7.77,1.62a7.36,7.36,0,0,0-2.51,1.49c-.87.68-.9,2.65-.08,3.21,2.33,1.59,4.7,3.08,7.72,2.8a3.69,3.69,0,0,1,1.74.27c3.12,1.4,6.37.77,9.51.44,2.84-.31,5.59-1.72,8.41-1.8a59.54,59.54,0,0,1,10.42,1.14,14.19,14.19,0,0,1,3.25,1.4c1.55.68,3.06,1.81,4.65,1.92C51.15,475.62,53.35,475,55.49,474.72Zm161.35,8.16a21.54,21.54,0,0,1,2.68-.76c2.74-.39,5.51-.38,8.28-.77A24.81,24.81,0,0,1,238,482.47c3.21.95,6.32.76,9.5.76a.88.88,0,0,0,.5-.17c3.07-2.48,5.2-5.48,5.46-9.59.06-1,.65-1.93.67-2.89,0-1.15.07-2.89-.59-3.34a11.22,11.22,0,0,0-4.78-1.57c-3.16-.4-6.31-.09-9.51-1-3.51-1-7.42.37-11-1.5a39.17,39.17,0,0,0-6.28-2.07c-.49.65-1.38,1.33-1.51,2.12-.43,2.79-2.12,4.22-4.62,5.07-1.35.46-2.64,1.13-3.73,1.61.24,1.09.45,2.05.67,3a8.5,8.5,0,0,0,.35,1.34c.67,1.69,1.68,3.31,2,5.05S215.39,482.43,216.84,482.88Zm-31.15,35.27c1.56-.26,3.19-.56,4.83-.81.58-.09,1.5.17,1.72-.12,1.14-1.54,2.64-.87,4-.91.88,0,2,.14,2.58-.31a30.52,30.52,0,0,0,4.08-3.72c2.39-2.48,4.72-5,7-7.59.12-.14-.2-1-.42-1.08-2.37-.47-4.75-1-7.15-1.22-4.16-.47-8.34.45-12.55-1.05-2.36-.84-4.81-1.32-6.87-2.83-.76-.56-1.3-1.46-2.11-1.9-.6-.33-1.84-.51-2.15-.17-1.46,1.58-2.71,3.37-4,5.09-1.14,1.5-2.27,3-3.37,4.54-1.87,2.6-4,5.13-2.51,9,.95-.13,2.42.11,3-.5,1.37-1.34,2.7-.64,4.06-.77.29,3.26.83,3.75,4,3.72a19.27,19.27,0,0,1,2.51-.09A31,31,0,0,1,185.69,518.15ZM261.1,272.61l-.91.84c-1.49,1.4-3,2.79-4.47,4.21-1.94,1.89-3.87,3.79-5.76,5.73s-3.85,4-5.72,6.06c-.35.39-.75,1.06-.63,1.45a2.15,2.15,0,0,0,1.26,1.28c2,.54,4,.9,6,1.35,2.37.53,4.75,1.07,7.12,1.64.2.05.34.45.52.45,1.5,0,3.28.53,4.43-.11,1.3-.72,2.09-2.41,3-3.76.67-1,1.07-2.17,1.73-3.17,1-1.59,2.24-3.08,3.3-4.66,1.2-1.8,2.26-3.68,3.5-5.44.58-.82.72-2.34-.07-2.61-2.77-.95-5.55-1.87-8.37-2.62A37.69,37.69,0,0,0,261.1,272.61Zm-85.48,45a9.61,9.61,0,0,0,1.57-2.56c.62-2.56,1-5.18,1.47-7.78.34-2.06,1.74-2.78,3.21-1.71-.25,1-.53,2-.72,3-.48,2.47-.92,4.94-1.38,7.41a.9.9,0,0,1-.23.48c-1.47,1.4-.85,3.07-.78,5.27,1-.6,2-.87,2.14-1.4.6-2,.9-4,1.33-6a52.44,52.44,0,0,0,1.32-6.36c.14-1.72.4-3.06,2.4-3.72,1,5.05-.79,9.63-1.95,14.51l1.93.35c1.1-5.57,2.15-10.94,3.18-16.17,2.27.46,2.17,1.87,2.11,3.35-.08,1.86,0,3.72,0,5.57,0,.32.38.62.59.93.22-.16.6-.27.65-.47a32.69,32.69,0,0,0,1.17-5.64c.2-3.59.11-7.19.1-10.78s0-3.47-3.28-2.48a2,2,0,0,1-.35.06c-3.4.65-6.61-.5-9.88-1.08-.11,0-.27-.1-.29-.18-.39-1.24-1.46-.94-2.36-1.09a8.33,8.33,0,0,1-1.32-.47l-2.43-.86-1.78,8c0,.12,0,.27-.08.35-1.57,1.62-.6,3.57-.89,5.36,2.11.24,2,.19,2.56-1.38a57.56,57.56,0,0,1,2.39-5.25c.13-.26.45-.43.68-.65.25.28.65.53.71.85a5.2,5.2,0,0,1,0,1.76c-.46,2.71-.92,5.41-1.45,8.1-.22,1.13-.71,2.21-.87,3.34A14.42,14.42,0,0,0,175.62,317.58Zm43.12-39.11c-1.09.51-1.79.89-2.53,1.18-1.53.62-2.71,2.56-2,3.51,1.13,1.57,2.34,3.08,3.55,4.59a5,5,0,0,0,.94.74c.19-.38.54-.76.54-1.15,0-2.14-.07-4.29-.16-6.44C219,280.11,218.85,279.32,218.74,278.47Z"/><path class="cls-1" d="M361.31,312.66c1.66,0,3.62,0,5.58,0,2.51,0,5-.06,7.55-.21a10.11,10.11,0,0,0,2.89-.71c1.81-.71,2.55-.25,2.55,1.75a36.89,36.89,0,0,1-.13,5.57c-.46,2.92.8,5.49,1.53,8.1a72.27,72.27,0,0,0,3.63,9c1.25,2.9,2.52,5.79,4,8.6.84,1.65,2.07,3.1,3,4.7a40.66,40.66,0,0,1,1.84,3.75c.79,1.68,1.55,3.38,2.32,5.07a.86.86,0,0,1,.09.34c.21,3.25,1.9,6.27,1.3,9.67a22.18,22.18,0,0,0,0,5,4.11,4.11,0,0,0,2.9,3.88c1.82.75,3.34,2.22,5.12,3.09a14.19,14.19,0,0,1,5.06,4.12c1.53,1.93,3.14,3.81,4.78,5.65,1.05,1.19,2.24,2.25,3.31,3.42.4.45.58,1.11,1,1.58,1.34,1.64,2.83,3.17,4.06,4.89,1.57,2.18,2.87,4.55,4.43,6.73,1.18,1.64,2.73,3,3.87,4.68,1.53,2.21,3.7,3.59,5.72,5.22,1.27,1,1.87,2.83,2.94,4.15.86,1.07,2,1.89,3,2.92a20.88,20.88,0,0,1,2,2.82c1,1.64,1.93,3.33,2.91,5,1.58,2.68,3.14,5.38,4.79,8,1,1.64,2.25,3.16,3.31,4.79.59.9,1,1.92,1.55,2.83q2.3,3.71,4.7,7.34c1.45,2.21,2.88,4.45,4.47,6.57a6.92,6.92,0,0,0,2.56,2.09c2.36,1.06,2.91,3.14,1.12,5.05-3,3.21-6,6.51-9.14,9.56-1.35,1.29-3.24,2-4.86,3s-3.47,2.26-5.22,3.35q-1.35.84-2.76,1.56a59,59,0,0,1-7.61,3.75,9.28,9.28,0,0,1-5.3,0c-1.17-.33-2-1.82-3-2.8-1.54-1.51-3.11-3-4.61-4.56s-3-3.33-4.57-5c-.83-.9-1.74-1.73-2.53-2.67-2.57-3.09-5-6.27-7.67-9.3-2.24-2.56-4.69-4.92-7-7.42-1-1.1-1.85-2.35-2.83-3.48-1.4-1.6-2.61-3.6-4.37-4.63-2.71-1.56-4.41-4.1-6.82-5.89-1.59-1.19-2.75-2.82-4.74-3.67-1.64-.69-2.82-2.44-4.27-3.63s-3.18-2.28-4.61-3.59-2.95-3.08-4.39-4.65a39.89,39.89,0,0,1-3-3.37c-1.23-1.69-2.2-3.57-3.45-5.24-1.48-2-3.12-3.85-4.72-5.75s-3.41-3.41-4.05-5.88c-.1-.4-.6-.67-.81-1.06-1-1.83-1.94-3.69-2.94-5.52-.91-1.67-1.81-3.35-2.8-5s-2.21-3.45-3.36-5.14a70,70,0,0,0-4.63-6.5,25.4,25.4,0,0,1-3.24-5.33c-1.06-2.06-2.24-4.06-3.34-6.1q-.81-1.5-1.5-3.06c-1-2.17-1.7-4.46-2.84-6.53-1.38-2.49-3.08-4.78-4.63-7.17-1.39-2.13-2.68-4.33-4.17-6.39a14.4,14.4,0,0,0-2.53-2.16c-2-1.72-4-3.45-6.07-5.18s-3.77-3.24-5.68-4.84a68.71,68.71,0,0,0-6-4.78c-.66-.43-2.1-.14-2.94.29s-.78,1.22.05,2.07a1.66,1.66,0,0,1-.19,2.59c-1,.94-1.18,2.6-1.75,3.92A32.51,32.51,0,0,1,292.7,353c-1.89,1.78-3.43,3.93-5.17,5.87-2.27,2.53-4.41,5.21-6.9,7.5-2.76,2.55-5.88,4.72-8.79,7.13a7.11,7.11,0,0,0-1.94,2.39,43.41,43.41,0,0,0-2.33,6.11c-.19.64.58,1.51.56,2.27-.11,3.31-.34,6.63-.53,10-.14,2.69-.2,5.39-.46,8.07-.36,3.81-.69,7.64-1.37,11.4-.41,2.31-1.48,4.5-2.18,6.77a9.05,9.05,0,0,0-.17,2c-.14,1.89.27,3.87-1.13,5.51a1.28,1.28,0,0,0-.11.88c.48,3.14-.59,6.16-1.59,8.9-1,2.9-.34,5.86-1.19,8.53-1.78,5.58-.67,11.23-1,16.82-.07,1.08-.43,1.51-1.52,1.43-2.35-.19-4.78.25-7-1.07a5,5,0,0,0-2.28-.3c-2.93-.07-5.88,0-8.8-.2a58.63,58.63,0,0,1-8.57-1.26,31.34,31.34,0,0,1-5.13-2.18.72.72,0,0,0-.35-.08c-2.47.23-4-1.58-5.79-2.78A2.15,2.15,0,0,1,218,455c.08-1.75.47-3.47.61-5.22.17-2.27.25-4.54.32-6.82.14-4.12-.42-8.41.52-12.34,1.12-4.71.15-9.43,1.09-14,1.71-8.37.29-16.87,1.42-25.2a65,65,0,0,0,.74-10.77c0-.84-.51-1.66-.61-2.51a11,11,0,0,1,.14-2.21,20.87,20.87,0,0,0,.2-2.36,10.29,10.29,0,0,1-.08-2.16c-.64-1.19-1-2.31,0-3.59a2.82,2.82,0,0,0,.28-1.54c.07-3.06-.06-6.13.21-9.17a33.63,33.63,0,0,1,1.54-8.82c.65-1.74.43-3.57,1.1-5.08,1.36-3.09,1.14-6.64,3.36-9.52a110.26,110.26,0,0,0,6.35-10c1.88-3.09,3.63-6.26,5.58-9.3,1.34-2.09,3-4,4.36-6.06,1.59-2.55,3-5.22,4.38-7.88a24.75,24.75,0,0,1,1.37-3.15,2.49,2.49,0,0,1,2.07-.93c2.17.56,4.27,1.4,6.38,2.15.37.14.71.34,1.41.68a42,42,0,0,0-4.12,3.44,2.51,2.51,0,0,0-.31,2.32c1.45,2.44,3.12,4.75,4.71,7.1,1.05,1.56,2.11,3.11,3.47,5.12,1.88-1.24,4.36-2.39,6.17-4.2a88.69,88.69,0,0,0,6.85-8.43,3.84,3.84,0,0,1,4.69-.47c.25.22.45.62.74.69a31.91,31.91,0,0,0,5.79,1.27,12.79,12.79,0,0,1,6.58,2.39.51.51,0,0,0,.17.07,58.59,58.59,0,0,1,6.47,1.55c2,.73,4.18.79,6.06,2.12s4.06,2,6.09,3c1.27.64,2.51,1.36,3.76,2a1.49,1.49,0,0,0,.46.22c2.65.44,5.33,1.33,7.94,1.16s5-1.35,7.36-2.31c.46-.18.69-1.41.7-2.16,0-4.26-.18-8.52,0-12.77a66.06,66.06,0,0,1,1.35-12.68c.53-2.2.74-4.41,1.25-6.58.33-1.46,1.38-2.75,2-4.17s1.11-3.05,1.68-4.63c1.82-.71,2.61.87,3.48,1.83a67.83,67.83,0,0,1,4.68,6c1.57,2.18,3,4.44,4.48,6.71,1.17,1.84,2.26,3.74,3.33,5.65A14.85,14.85,0,0,1,358,296.4a60,60,0,0,1,1.56,6.07C360.22,305.73,360.7,309,361.31,312.66ZM248.62,350.34a10.52,10.52,0,0,0,2.94,0c1.78-.56,3.48-1.4,5.22-2.1,2.44-1,4.93-1.86,7.33-2.93a28.37,28.37,0,0,0,3.37-2.12,20.75,20.75,0,0,1,4.22-2.61,7.21,7.21,0,0,0,3.51-2.27,6.25,6.25,0,0,0,.69-1.58c-.74,0-1.61-.3-2.19,0-1.1.58-2,1.59-3,2.23-1.76,1-3.6,1.91-5.42,2.83-1,.5-2.05.88-3,1.4a35.27,35.27,0,0,1-3.63,2c-1.85.7-4,.83-5.66,1.76C251.46,347.74,249.17,347.57,248.62,350.34Zm152.63,65a8.48,8.48,0,0,0-2.56-.4c-1.08.2-2.06.92-3.14,1.12-4,.73-7.85-.17-11.62-1.32-1.81-.55-3.43-1.68-5.24-2.24-.85-.26-1.93.23-2.9.38a10.68,10.68,0,0,0,2.08,2.11,28,28,0,0,0,4.25,1.82c1.77.67,3.53,1.62,5.37,1.81C392.24,419.13,397,419.07,401.25,415.36ZM246.9,376.13a28.37,28.37,0,0,0-3.4-.53c-1.43-.05-2.87.09-4.3.16a3.87,3.87,0,0,1-3.28-.95c-1.69-1.69-3.54-3.24-5.36-4.8-1.13-1-2.3-2.06-4-1.52a1.78,1.78,0,0,0-1,1.08c-.08.24.34.74.65,1a54.83,54.83,0,0,1,5.5,4.39c2.16,2.25,4.5,3.74,7.68,3.26,2.32-.34,4.59-.94,6.89-1.44C246.43,376.75,246.49,376.6,246.9,376.13Zm47-46c-.12-.92.05-1.94-.38-2.35a59.08,59.08,0,0,0-6.62-5.74c-1.6-1.13-3.29-2.79-5.73-1.7v2c1.71.76,3.42,1.2,4.72,2.18a27.78,27.78,0,0,1,4.82,4.75C291.58,330.38,292.46,330.37,293.88,330.17ZM387,393.3c2.53.36,2.46.34,2.89-1.47s1.53-3.35,1.52-5.36c0-1.06.94-2.11,1.45-3.17.32-.66.63-1.33,1.07-2.26h-2.46c-.23.81-.23,1.66-.65,2.13a7.63,7.63,0,0,0-2.18,4.94,6,6,0,0,1-.42,1.5C387.82,390.81,387.42,392,387,393.3Zm26.74,20.22h5.15c.05-.77.09-1.41.13-2C416.78,410.63,415.33,411.58,413.73,413.52Z"/><path class="cls-1" d="M168.6,253.88c.12-2.13-.56-4.24.8-6.38.65-1,.22-2.69.36-4.06.45-4.54.9-9.08,1.43-13.61.3-2.45.65-4.91,1.19-7.32s1.52-4.44,1.92-6.72a18.29,18.29,0,0,0-.29-4.64c0-.57-.43-1.28-.21-1.67,1.33-2.27,1.54-4.44-.09-6.67a7.24,7.24,0,0,1-1.11-2.2,3.47,3.47,0,0,1,.16-1.89c1.5,1.65,3.06,2.66,5.26,2.57.68,0,1.37.61,2.09.73,1.4.22,2.82.3,4.59.47a4.62,4.62,0,0,0-2.87-2.82c-1.73-.73-3.41-.68-5.1-1a3.18,3.18,0,0,1-1.62-.92c-1.07-1.21-2-2.57-3.06-3.73-.21-.21-1.1.23-2.16.49-1.18-2-2.55-4.37-4.06-6.68-1-1.54-2.3-2.89-3.33-4.41-1.49-2.17-2.84-4.45-4.3-6.64s-2.92-4.09-4.28-6.19c-.75-1.16-1.27-2.48-1.95-3.7-.34-.61-.83-1.12-1.18-1.73-1.45-2.54-3.24-4.83-4.09-7.77-.58-2.07-2.19-3.82-3.26-5.76-.56-1-.89-2.15-1.4-3.18-.77-1.57-1.61-3.11-2.43-4.66,0-.05-.05-.1-.07-.16-.5-1.86-1-3.73-1.51-5.58a5.85,5.85,0,0,0-.88-1.81,4.49,4.49,0,0,0-1.15-.82c-.16.42-.49.85-.46,1.26.11,1.53-.5,3.25,1,4.48.21.17.21.68.19,1-.08,2.26,1.27,3.94,2.23,5.79.66,1.28,1.14,2.65,1.77,3.94s1.41,2.6,2.08,3.92c.55,1.09,1.05,2.22,1.56,3.33.58,1.29,1.06,2.64,1.75,3.86,1.06,1.89,2.25,3.71,3.41,5.53s2.22,3.34,3.3,5c.94,1.47,1.78,3,2.76,4.45s2.16,2.86,3.18,4.34c1.59,2.3,3.15,4.63,4.65,7s3.09,4.95,4.58,7.46c.59,1,1,2.07,1.57,3.08.73,1.31,1.85,2.49,2.19,3.88a15.9,15.9,0,0,1,0,4.92c-.09,1.27-.89,2.65-.57,3.74.65,2.21-.37,4.2-.31,6.3,0,.47-.63,1.14-1.13,1.4-3.17,1.61-6.35,3.18-9.57,4.67a28.6,28.6,0,0,1-3.94,1.35c-1.94.57-3.92,1.05-5.87,1.62-2.48.73-4.94,1.52-7.42,2.26a27.69,27.69,0,0,1-5,1.3c-2.59.25-4.71,1.53-7,2.47-1.8.73-3.79,1-5.66,1.58s-3.52,1.36-5.28,2a3,3,0,0,1-.84.27c-2.67.1-5,1.29-7.3,2.43a2.72,2.72,0,0,1-.69.19c-3.92.91-8,1-11.88,1.68a87,87,0,0,1-10.14,1,2.62,2.62,0,0,1-2.69-1.77,45.09,45.09,0,0,1-1.6-5.49c-.72-2.51-1.48-5-2.18-7.53a8.41,8.41,0,0,1-.26-1.95c-.1-4.19-.12-8.39-.28-12.58-.06-1.71-.43-3.41-.59-5.12a14.39,14.39,0,0,1,0-2.86c.2-2.06.7-4.1.71-6.16.09-10.13.09-20.26.07-30.39,0-4.16,1.12-8.09,2.21-12a31.74,31.74,0,0,0,.41-4.62c.38-3,.44-6.07,1.43-8.83a43.38,43.38,0,0,0,1.2-5.08,43.66,43.66,0,0,1,2-5.14c.52-1.39,1-2.79,1.42-4.22.6-2.19,1-4.45,1.65-6.62.54-1.73,1.39-3.35,2.1-5a1.39,1.39,0,0,0,.18-.49c-.06-3.2,1.73-5.87,2.91-8.6,1.37-3.18,3.82-5.89,5.76-8.82a28.8,28.8,0,0,1,2.42-3.85c2-2.15,4.28-4.05,6.36-6.13,1.22-1.22,2.11-2.82,3.45-3.86,3.37-2.59,6.87-5,10.39-7.41a24,24,0,0,1,6-3.45c2.88-.91,5.9-2.65,9-1.46,2.44.94,5.27,1.07,7.3,3.14a10.41,10.41,0,0,0,2.91,1.62,49.34,49.34,0,0,1,5.51,2.7c2.73,1.82,5.68,3.31,7.82,6,1.65,2.08,3.88,3.69,5.85,5.51.12.11.28.28.28.41,0,2.23,2.15,3,3,4.72,1.14,2.21,2.93,4,3.64,6.54.83,2.94,2.32,5.67,3.37,8.56.68,1.91,1.07,3.93,1.62,5.89.65,2.33,1.34,4.64,2,7a5,5,0,0,1,.12.53c.51,2.62,1,5.26,1.57,7.87a19.27,19.27,0,0,0,1.33,3.33c1.07,2.4,2.18,4.8,3.27,7.2a2.86,2.86,0,0,1,.2.48c.53,2,1,4.06,1.57,6.07.67,2.32,1.52,4.59,2.17,6.91.58,2.07.89,4.22,1.52,6.27.56,1.84,1.37,3.61,2.08,5.4.07.16.24.29.27.45a44.4,44.4,0,0,0,1.57,6.65c1.48,3.67.38,7.6,1.39,11.15.69,2.39.53,4.84,1.24,7.09,2.14,6.74.85,13.6,1.07,20.4.05,1.73.3,3.61-.26,5.17-1.18,3.3-.71,6.69-1.18,10-.33,2.23-1.35,4.36-2,6.54a6.49,6.49,0,0,0-.23,1.76c-.09,4.92-.22,9.83-.17,14.75,0,1.74-.75,2.33-2.25,2.11s-3.19-.7-4.79-1a10.51,10.51,0,0,0-1.76-.25,40.32,40.32,0,0,0-10.2.94,32,32,0,0,1-8.58,0C171.26,255.25,170.06,254.45,168.6,253.88Zm-24.68-66.51a14,14,0,0,0,2.15,0c.36-.06.67-.45,1-.69-.35-.23-.68-.64-1-.66-2.75-.2-4.94-1.76-7.29-2.92a10.43,10.43,0,0,1-1.94-1.78c-1-.93-2-1.89-3-2.77a46.2,46.2,0,0,0-4.53-3.52c-.61-.4-1.61-.21-2.43-.29.23.76.22,1.78.73,2.25a88.33,88.33,0,0,0,7.16,6.1C137.44,185.1,140.16,187.39,143.92,187.37Zm-2.3,30c3.26.71,5.52-.66,7.84-2a37.67,37.67,0,0,0,8.51-6.93c.41-.43.27-1.39.38-2.1-.72.07-1.79-.14-2.11.25-1.6,1.95-3,4-5.37,5.24-1.31.68-2.28,1.89-3.94,2.14a10.75,10.75,0,0,0-3.61,1.38C142.67,215.75,142.28,216.58,141.62,217.39Zm-41.38-91.51c-3.09.14-2.87,2.64-3.67,4.16-1,1.84-1.07,4.15-1.55,6.25a1.89,1.89,0,0,1-.26.84c-1.49,1.76-.93,3.84-.9,5.82a3.63,3.63,0,0,0,.54,1.24l.65,0c.84-3,1.73-6,2.52-9,.57-2.19,1-4.41,1.54-6.62a3.38,3.38,0,0,1,.24-.46C99.65,127.32,99.94,126.6,100.24,125.88Zm35.67-48.11-.72-.79a21.64,21.64,0,0,0-2.06,1.14c-1.23.86-2.36,1.85-3.6,2.68-1.94,1.28-3.9,2.53-5.92,3.67-1.43.81-.75,1.58-.19,2.57,2.18-1.24,4.31-2.42,6.41-3.67a29.78,29.78,0,0,0,4.26-2.84A12,12,0,0,0,135.91,77.77Zm1.37,31.12c-1.91-.14-2.83.23-2.95,1.73a2.86,2.86,0,0,1-.25.82,51.54,51.54,0,0,0-2.15,5.38,6.31,6.31,0,0,0,1.2,5.19c.13.2.89.2,1.2,0s.55-.7.79-1a4.3,4.3,0,0,1-.71-1.2c-.6-2.93.84-5.45,1.74-8.08C136.45,110.84,136.83,110,137.28,108.89ZM187.77,210c-1.33-5.53-6.05-5.73-9.87-7.17-1.29,2-.9,3,1.44,3.21a7.1,7.1,0,0,1,5.39,3C185.58,210.27,186.28,210.1,187.77,210ZM89.69,222.84a11.3,11.3,0,0,0,.36-2.55c-.41-3.85-.93-7.68-1.45-11.86C86.7,210.31,87.58,220,89.69,222.84ZM113.39,95c-3.45,2.36-4.26,6.41-6.44,9.29l1.34,2c.85-1.58,1.46-2.78,2.14-3.94a40.73,40.73,0,0,0,2.21-3.68C113.13,97.6,115,96.74,113.39,95Zm-25,91c.92-4.1.73-11.4-.62-12.91-.1,1.27-.16,2.22-.25,3.18-.22,2.57.42,5.2-.85,7.73C86.1,185.19,86.78,186.14,88.39,186.07Zm61.1-87c-2.45-1.39-4,.9-5.88,1.38a2.35,2.35,0,0,0-1.3,3.57,8.57,8.57,0,0,0,2-1,5.16,5.16,0,0,1,3.18-1.77A2.22,2.22,0,0,0,149.49,99.06Zm16.16-3.64c-2.29-.64-4.58-1-6.84.06C161.09,96.43,163.37,96.94,165.65,95.42Z"/><path class="cls-1" d="M223.16,289a20.88,20.88,0,0,1-1.28-4c-.28-3.1-.06-6.26-.56-9.32-.53-3.26-1.21-6.54-3.09-9.45a44.8,44.8,0,0,0-5.17-7.22c-.33-.33-.08-1.71.35-2.21,2.74-3.11,5.58-6.14,8.46-9.12a14.35,14.35,0,0,1,2.83-2.08,30.6,30.6,0,0,0,8.46-7.33c.91-1.18,2.3-2,3.17-3.19,1.19-1.62,2.08-3.45,3.13-5.18s2.06-3.19,3-4.84a36.33,36.33,0,0,0,2-4.11c.83-2,1.59-4.11,2.31-6.19.56-1.62,1-3.29,1.52-4.91.7-2.15,1.47-4.28,2.21-6.42a2,2,0,0,0,.08-.35c.49-2.59.87-5.21,1.5-7.77.58-2.29,1.44-4.51,2.17-6.77.06-.16.19-.33.18-.49-.1-2.57,1.45-4.56,2.36-6.77a3,3,0,0,0,.17-1.24c0-2.21,1.15-3.92,2.22-5.7a13.62,13.62,0,0,0,1.15-2.69c.69-2,1.42-4,1.95-6.1.16-.61-.33-1.38-.52-2.07h-.49c-.58,1.54-1.12,3.09-1.75,4.61a19.91,19.91,0,0,1-1.11,1.95c-1.18,2.21-2.35,4.43-3.52,6.64a2.69,2.69,0,0,0-.29.65c-.49,2.07-.87,4.17-1.46,6.21s-1.34,3.87-2,5.79a2.35,2.35,0,0,0-.11.35c-.53,2.86-.94,5.76-1.63,8.6-.56,2.33-1.46,4.58-2.19,6.88a12.14,12.14,0,0,0-.22,1.23,19,19,0,0,1-3.26,7.68,11.58,11.58,0,0,1-.52-2.18c0-3.29-.42-6.68.19-9.86.65-3.37.8-6.74,1.2-10.1.34-2.76,1.41-5.42,2.13-8.13a5.77,5.77,0,0,0,.14-1.25c0-1.26,0-2.52.09-3.77.44-4.7.6-9.47,1.59-14.07.41-1.91.63-3.87,1.12-5.76a35.51,35.51,0,0,1,2.13-5,2.82,2.82,0,0,0,.12-.52c.51-2.37.92-4.78,1.59-7.11a36.65,36.65,0,0,1,1.82-3.8c.59-1.38,1.06-2.81,1.57-4.22.92-2.51,1.76-5,2.8-7.5a23.54,23.54,0,0,1,2.06-3.27,1.29,1.29,0,0,0,.23-.47c.64-4.12,3.93-6.51,6.26-9.53a31.24,31.24,0,0,0,4.17-6.49c.5-1.14,1.7-2,2.63-2.92,2.78-2.81,5.64-5.54,8.33-8.43,1.5-1.6,2.64-3.53,4.09-5.17,1.81-2,3.72-4,5.68-5.86a27.85,27.85,0,0,1,3.27-2.55,1,1,0,0,1,1-.06c.94.74,1.81,1.55,2.68,2.37.5.46.94,1,1.43,1.45.12.12.42.09.48.21,1.36,2.77,4,3.8,6.58,5,1.22.57,2.13,1.83,3.19,2.75a25.35,25.35,0,0,1,5.12,6.55c1.5,2.55,3.83,4.6,5.57,7a67.8,67.8,0,0,1,4.21,6.94c1.26,2.28,2.38,4.63,3.49,7a28.06,28.06,0,0,1,1.24,3.19c.56,1.7,1,3.46,1.62,5.13.57,1.49,1.32,2.91,2,4.35a32.82,32.82,0,0,0,1.78,3.37,16.05,16.05,0,0,0,2.17,2.7c1.77,1.72,3,3.51,2.95,6.21-.13,6.23-.22,12.48.14,18.69a24.06,24.06,0,0,0,2.07,8.57,49.06,49.06,0,0,0,4.94,8c1.12,1.61,1.82,3.55,3.06,5a25.2,25.2,0,0,1,3.8,7.35c.84,2.19,1.5,4.46,2.48,6.59,1.65,3.62,2.09,7.42,2.49,11.33.34,3.31-1.2,5-3.55,6.67-1.9,1.33-3.63,2.92-5.44,4.38-1.2,1-2.51,1.82-3.62,2.87-2.09,2-4,4.13-6.12,6.15-2.95,2.89-6.08,5.59-8.86,8.62a36.58,36.58,0,0,1-7.49,6.28c-2,1.29-3.71,3.11-5.68,4.49-1.64,1.14-3.49,1.95-5.23,2.94-1.55.88-3.06,1.8-4.6,2.7-1.25.72-2.47,1.53-3.78,2.13a53.76,53.76,0,0,1-5.32,2.08,10.63,10.63,0,0,1-3.15.54c-4.86,0-9.73.2-14.57-.09-2.21-.13-4.36-1.23-6.55-1.86a7.09,7.09,0,0,0-2.24-.45,18.35,18.35,0,0,1-7.42-1.41c-1.74-.66-.71-2.43-1.54-3.34s-1.55-1.78-.06-3c2.56-2.06,5-4.29,7.36-6.58a37.72,37.72,0,0,0,3.08-3.79c1-1.22,2-2.4,2.86-3.69s1.46-2.62,2.23-3.9c.27-.45.76-.77,1.05-1.21q2.6-4,5.16-8c2-3.22,4.17-6.39,6-9.71a66.78,66.78,0,0,0,2.89-6.71,6.18,6.18,0,0,0,.43-1c.13-.59.46-1.51.2-1.74a2.35,2.35,0,0,0-1.9-.47,2,2,0,0,0-1.2,1.4,12.48,12.48,0,0,1-2.28,5.48c-1.09,1.72-1.89,3.62-2.93,5.38-.9,1.54-2,3-2.94,4.5-.77,1.25-1.41,2.59-2.15,3.87a21.32,21.32,0,0,1-1.2,1.78c-2,2.75-4.15,5.38-5.86,8.29-.82,1.42-2,2.66-2.61,4-.95,2.09-2.8,3-4.23,4.39-2,2-4,3.81-6,5.73-2.84,2.69-5.59,5.48-8.5,8.09-3.34,3-6.86,5.83-10.23,8.82a79.44,79.44,0,0,1-10.15,8,40.83,40.83,0,0,0-4.45,3.91c-1.82,1.57-3.7,3.06-5.52,4.62A20.54,20.54,0,0,0,223.16,289Zm62.07-52.58-.51.48c.22.76.22,1.81.72,2.22,2.24,1.79,5.16,1.9,7.77,2.4,3.12.59,6.44.16,9.66.12a5.15,5.15,0,0,0,1.88-.43c1.57-.64,3.12-1.33,4.66-2a4.41,4.41,0,0,0,.83-.68c-.25-.27-.52-.79-.76-.77-1.24.07-2.79-.12-3.63.54-1.26,1-2.48.87-3.79.9a42,42,0,0,0-5,.06c-3.13.43-5.82-1.33-8.8-1.54-.21,0-.4-.23-.61-.31C286.83,237,286,236.72,285.23,236.41Zm-4.51-105.92c-.85,0-1.82-.27-2.06,0-2.17,2.77-4.33,5.56-6.25,8.51-1.23,1.88-2,4.07-3.08,6.05-1,1.75-2.16,3.36-2.31,5.46,0,.37-.38.72-.48,1.11a8.59,8.59,0,0,0-.17,1.35c.71-.06,1.77.14,2.06-.24a12,12,0,0,0,1.25-3c.55-1.38,1.06-2.77,1.65-4.13a17.27,17.27,0,0,1,1.21-2.39c1-1.65,2.19-3.24,3.24-4.89C277.35,135.94,278.88,133.44,280.72,130.49Zm-31.3,99.66c.09,1.26.13,2.32.29,3.36.07.49.61,1,.56,1.41-.2,2.09-.55,4.17-.81,6.25-.14,1.14.2,2.33-1.06,3.22-.37.26,0,1.51,0,2.31.68-.07,1.65.1,2-.28a5.88,5.88,0,0,0,1.45-2.82c.43-3.06.08-6.17,1.15-9.22.41-1.15-.65-2.82-1-4.23Zm55.85-32.81c.7.32,1.8,1.18,2.15.94a15.4,15.4,0,0,0,6.61-9.7,5.84,5.84,0,0,0-.39-2.19h-.58a21.21,21.21,0,0,1-1.91,4.15C309.46,192.79,307.48,194.82,305.27,197.34Zm-9-81.12c-1.81.58-3.57.8-4.93,1.66a56.88,56.88,0,0,0-5.86,4.7,3.41,3.41,0,0,0-.59,1c.39.17.83.53,1.18.46a4.55,4.55,0,0,0,1.76-.81c.54-.4.86-1.15,1.44-1.45,2.26-1.16,4.59-2.19,7.13-3.38ZM327.8,234.84c-.05-.23-.1-.45-.14-.68-1.14.06-2.29,0-3.4.21-.79.13-1.51.62-2.3.76s-1.56-.06-2.31.08a8.63,8.63,0,0,0-1.76.8c.57.55,1.1,1.52,1.7,1.55C322.67,237.76,325.66,237.41,327.8,234.84Zm-7.57-77.43c-2.45,2.1-3.17,6.53-1.9,9.24.63-.45,1.78-.86,1.81-1.35C320.32,162.68,320.23,160,320.23,157.41Zm-10.66-38.73c-1.68,3,1.42,3.36,2,4.94.12.34,1.37.29,2.38.47C313.6,121,310.88,120.7,309.57,118.68Z"/><path class="cls-1" d="M112.91,339.28h-2.6c0,3-2.36,4.68-4,6.82-1.25,1.68-2.29,3.51-3.49,5.23s-2.59,3.59-4,5.33c-1.18,1.5-2.54,2.88-3.69,4.41-1.81,2.4-3,5.18-4.88,7.61a32,32,0,0,0-5,9.49c-1,3-2.75,5.59-3.21,8.86a22.18,22.18,0,0,1-1.18,5.46c-1.54,3.58-.43,7.26-.94,10.85-.3,2.09-.7,4.17-1.06,6.25l-.24,1.59c-.47,2.94-.78,5.92-1.45,8.81a21.7,21.7,0,0,1-2,4.24,2.06,2.06,0,0,0-.17.69c-.44,4-2.41,7.5-3.66,11.24a5.35,5.35,0,0,0-.24.67c-.48,2.56-.83,5.16-1.47,7.68-.55,2.15-1.44,4.21-2.18,6.31a2.14,2.14,0,0,0-.06.35c-.5,3.05-1.11,6.09-1.44,9.16-.13,1.25-.6,1.75-1.71,1.72a49.8,49.8,0,0,1-7.34-.4c-1.85-.34-3.56-1.42-5.36-2.06s-3.45-1-5.14-1.62-3.18-1.26-4.77-1.9a4.13,4.13,0,0,0-1.3-.51,14.12,14.12,0,0,1-7-2.32c-.91-.53-2-.74-2.91-1.29a3.14,3.14,0,0,1-.84-4.11,51,51,0,0,0,2.19-5.41c.78-2.09,1.48-4.22,2.22-6.33a3,3,0,0,0,.14-.51c.52-3.73,1-7.48,1.56-11.2s1.45-7.51,1.94-11.29c.35-2.66.32-5.38.41-8.08s-.31-5.48.24-8.07c1.68-7.92.88-15.9.87-23.84,0-4.86-.64-9.71-.9-14.57-.1-2-.49-4.18.22-5.89,1.3-3.14.08-6.63,1.88-9.69,1-1.63,1-3.79,1.6-5.66.66-2.06,1.78-4,2.22-6.1.88-4.24,4.85-5.7,7.22-8.57.86-1,1.66-2.13,2.83-3.65a3.79,3.79,0,0,1,3.58.71,1.62,1.62,0,0,0,.63.34c2.07.5,4.33.62,6.18,1.56,2.13,1.08,4.33.76,6.45,1.26a35.57,35.57,0,0,1,5.08,2.06,3,3,0,0,0,.5.18c2.07.5,4.32.64,6.17,1.58,2.34,1.2,4.74.81,7.11,1.16a33.43,33.43,0,0,1,6.69,1.4c4.71,1.73,9.55.89,14.31,1,9.59.19,19.18,0,28.77-.06,1.73,0,2.59-1.09,3.43-2.3a10,10,0,0,0,1.42-4.25c.46-2.57,1.52-5,2.13-7.58a5.9,5.9,0,0,0-.08-3.36,10.26,10.26,0,0,1-.08-7.08,17.84,17.84,0,0,0,.29-4.64c.06-5.58,0-11.15.13-16.73a8.73,8.73,0,0,1,.61-2.2,10.4,10.4,0,0,1,1.72,1.87c1.31,2.48,2.55,5,3.72,7.56.62,1.36,1,2.84,1.54,4.21s1.37,2.91,2.07,4.36a4.34,4.34,0,0,1,.28.62c.94,2.92,1.75,5.89,2.86,8.75a45.12,45.12,0,0,1,2.53,9.34,60.36,60.36,0,0,0,1.69,6.36h7.14c-.46,3.63.56,7.18-.88,10.62a4.19,4.19,0,0,0-.25,1.58c0,6.12-.75,12.33.14,18.31.68,4.57.09,9.2,1.11,13.59.64,2.75.77,5.48,1.23,8.2.3,1.77.33,3.77,1.23,5.21,1.41,2.27.44,4.85,1.37,6.94,1,2.25.72,4.49,1.12,6.71a8.86,8.86,0,0,0,1.27,3c1.45,2.26,1.37,5.18,3.38,7.27.88.91.9,2.6,1.56,3.8,1.91,3.5,4,6.89,5.91,10.39.76,1.39,1.18,3,1.81,4.44.28.68.8,1.26,1,1.94.93,2.54,1.76,5.11,2.69,7.65,1.23,3.38,2.4,6.79,3.82,10.09.84,1.95,2.16,3.7,3.18,5.58a11.6,11.6,0,0,1,1.57,3.61c.5,3.69,3.22,6.36,4.22,9.81.53,1.83,1.5,3.52,2.21,5.29,1,2.44,1.65,5.07,3,7.31.73,1.24.64,2.4,1,3.59.68,2.5,1.48,5,2.2,7.45a5.22,5.22,0,0,1,.2,1.41c0,2.28.09,4.57-.12,6.83a13.53,13.53,0,0,1-1.17,4.16,2.41,2.41,0,0,1-1.79,1.08c-2.09.13-4.41.63-6.24-.07-4.44-1.68-9.08-.21-13.4-1.33-3.2-.82-6.75-1.39-9.17-4.23-.53-.62-1.66-.71-2.3-1.29-2-1.77-3.95-3.59-5.77-5.54a14.87,14.87,0,0,1-1.73-3c-.54-1-1-2-1.64-2.91a41.19,41.19,0,0,1-3.62-6.3c-1.58-3.5-3.81-6.7-5.66-10.09-1.11-2-2-4.2-3-6.27s-2.29-4.19-3.34-6.33c-.67-1.35-1.12-2.8-1.73-4.19a9.36,9.36,0,0,0-1.3-2.39c-2.3-2.73-4.72-5.36-7-8.08-1.49-1.75-2.88-3.57-4.31-5.37a19.82,19.82,0,0,1-1.51-1.94,33.41,33.41,0,0,1-2.37-4.09c-1.21-2.68-2.27-5.42-3.36-8.15a3,3,0,0,1-.22-1.23,11.6,11.6,0,0,0-2.38-7.41,1.21,1.21,0,0,1-.08-.34c-.54-1.93-1-3.9-1.67-5.78a29.78,29.78,0,0,0-1.93-3.66,3.12,3.12,0,0,1-.23-.67c-.42-1.79-.19-3.62-1.12-5.45-1-2-1.08-4.46-1.71-6.68-.57-2-1.35-3.86-2-5.79a3.1,3.1,0,0,1-.15-.52c-.5-2.76-.87-5.55-1.53-8.27-.58-2.39-1.48-4.7-2.24-7.05a1.13,1.13,0,0,1,0-.18c-.51-2.79-1-5.58-1.54-8.35-.66-3.13-1.61-6.2-2.13-9.34-.4-2.47-1.66-4.54-2.53-6.79A9.52,9.52,0,0,1,112.91,339.28Zm54,18.73c.47-1.77.48-1.77-.82-4.33s-2.6-5.43-4.14-8a15.51,15.51,0,0,1-2.26-8.85,11.87,11.87,0,0,0,0-1.79,4.78,4.78,0,0,0-.42-1.1c-.35.23-.86.39-1,.72a7,7,0,0,0-1,2.61,11.56,11.56,0,0,0,1,6.57c1.32,2.48,2.25,5.18,3.49,7.71.85,1.72,2.09,3.25,2.84,5C165.05,357.77,165.61,358.29,166.87,358Zm22.42,125-1.74.76a10.42,10.42,0,0,0,1.07,1.13,10.63,10.63,0,0,0,1.51,1c1.15.69,2.37,1.29,3.49,2,2,1.3,3.82,2.78,5.83,4a66.72,66.72,0,0,0,6.06,3.27c.47.23,1.17,0,1.77-.07a5.24,5.24,0,0,0-.27-1.76c-1.14-2.11-3.58-2.44-5.37-3.67-2.47-1.7-5.07-3.22-7.68-4.69C192.51,484.3,190.91,483.75,189.29,483Zm-45.67-68.25a6.11,6.11,0,0,0,1.56,6.69c1,1,2.44,1.95,2.92,3.21a5.43,5.43,0,0,0,2.37,2.63,13.11,13.11,0,0,0,3.65,1.49c.53.15,1.71-.2,1.72-.38,0-.77.41-1.59-.81-2.21-2.09-1.05-4.61-1.53-5.94-3.86-1.1-1.9-3.3-3.06-3.56-5.59C145.46,416.14,144.44,415.61,143.62,414.79ZM55,347.9l.16.44c1.23-.51,2.45-1,3.7-1.52,3.47-1.34,5.29-4.55,7.8-7,.23-.21,0-1.15-.26-1.51A1.36,1.36,0,0,0,65,338.2c-1.41,1.37-2.63,3-4.09,4.29-1.75,1.59-3.45,3.46-6.24,2.93a2.59,2.59,0,0,0-1.59.08,2,2,0,0,0-1,1.26c0,.33.53,1,.94,1.09A6.73,6.73,0,0,0,55,347.9ZM50.33,366l-.6-.14c-.36.78-1.2,1.73-1,2.3.91,2.44,2.2,4.73,3.2,7.14A10.15,10.15,0,0,0,55.46,380a12.82,12.82,0,0,0,1.36.76,6.75,6.75,0,0,0,.3-1.7,2.67,2.67,0,0,0-.68-1.14,46.45,46.45,0,0,1-4-5.25,24.86,24.86,0,0,1-1.6-5.08C50.67,367,50.5,366.51,50.33,366ZM169,458.81c1.05-1.23,1.19-6.17.15-7.3a7.91,7.91,0,0,0-1.48-1,7.87,7.87,0,0,0-.53,1.76A10.6,10.6,0,0,0,169,458.81Z"/><path class="cls-1" d="M211,467.25c-1.18-2.39-2.13-4.15-2.93-6-1-2.43-2-4.92-2.95-7.37a34.94,34.94,0,0,0-1.43-3.32c-1.38-2.58-3-5-3.79-7.9s-2.22-5.52-3.25-8.31c-.64-1.71-1-3.55-1.62-5.26-.54-1.41-1.39-2.7-2-4.07s-1-2.6-1.68-3.84c-1.12-2.15-2.37-4.24-3.52-6.37-1-1.8-1.88-3.64-2.81-5.46-1.22-2.42-2.54-4.8-3.61-7.28-.69-1.58-.8-3.42-1.54-5-1.26-2.63-1.05-5.41-1.36-8.15a39.27,39.27,0,0,0-1.23-5.65c-.63-2.32-1.39-4.61-2.09-6.92a2.87,2.87,0,0,1-.13-.71c-.28-6.4-1.92-12.66-1.62-19.14.13-2.9-.73-5.84-.92-8.78-.15-2.33-.48-4.82.16-7,1.2-4,.63-8,1.07-12,.12-1.12.73-2.07.55-3.38-.13-1,1.15-1.85,2.57-1.76s2.7.53,4-.74c.5-.51,1.83-.29,2.78-.27,2.55.05,3.35-.53,4.1-3a16.13,16.13,0,0,1,1.18-3c.16-.28.91-.36,1.38-.34,2.46.14,4.27-1.84,5-4.13,1.81-5.65.75-11.41,1.14-17.11a2.43,2.43,0,0,1,2.38-2.58,6.42,6.42,0,0,0,4.22-2.2c1.14-1.2,2.77-1.91,4.08-3s2.53-2.29,4-3.6c1.82,2.18,3.69,4.52,5.67,6.76,1.33,1.5,4,1.53,5.89,1,3-.85,4.37-3.48,6.65-5.07,2-1.37,3.89-2.81,5.78-4.29,2.39-1.88,4.72-3.85,7.08-5.77,1.82-1.48,3.68-2.92,5.45-4.44,2-1.69,3.85-3.49,5.8-5.19s3.72-3.12,5.58-4.68c.73-.61,1.43-1.26,2.2-1.8a13.47,13.47,0,0,1,1.72-.92,24.61,24.61,0,0,1,1.64,2.95,2.79,2.79,0,0,1,0,1.93,22.24,22.24,0,0,1-5.41,7.76c-1.43,1.3-3,2.4-4.43,3.73-2.53,2.39-4.94,4.9-7.44,7.33-1.59,1.55-3.29,3-4.82,4.59a9.43,9.43,0,0,0-1.71,2.64c-.68,1.49.47,2.58,1.4,3.23a10,10,0,0,0,4,1.47c2,.35,2.67,1.24,1.89,3.06-.54,1.25-1.45,2.36-1.94,3.63-1.72,4.42-5.07,7.74-7.6,11.61-1.92,3-3.68,6-5.51,9-2.08,3.42-4,6.92-6.29,10.21a15.68,15.68,0,0,0-2.61,5.64c-.78,3.65-1.27,7.45-2.64,10.88-1,2.64-.61,5.26-1.17,7.8-2.25,10.25-.47,20.59-1,30.88-.23,4.73.24,9.54-.45,14.19-1.2,8.16-.57,16.35-1.13,24.5-.21,2.93-.83,5.85-.94,8.78-.24,6.76-.28,13.54-.44,20.31a4.34,4.34,0,0,0,2,4.05,1.59,1.59,0,0,1,.65,1.24,8.09,8.09,0,0,1-1.15,3.1,6.9,6.9,0,0,1-2.63,1.93C213.73,466.39,212.18,466.82,211,467.25Z"/><path class="cls-1" d="M87.5,262c.52,3.09,1.1,6,1.5,9,.47,3.4.28,7,1.32,10.2.93,2.88.28,5.85,1.25,8.49.86,2.33.43,4.81,1.24,6.91,1.15,3,.26,6.14,1.21,8.91,1.23,3.62.59,7.3,1.32,10.83.34,1.62.57,4,2.51,4.55a10.42,10.42,0,0,1,2.87-.62c2.59.3,4.89-.64,7.2-1.51a2.28,2.28,0,0,0,1-1.75,85.59,85.59,0,0,0,0-9.34,93.56,93.56,0,0,0-1.46-10.55,48.83,48.83,0,0,0-2-5.72,5.2,5.2,0,0,1-.26-1.75,18,18,0,0,0-2.39-8.86,2.54,2.54,0,0,1-.14-.88c-.49-5.37-.93-10.73-1.49-16.09a42.5,42.5,0,0,0-1-4.51,5.29,5.29,0,0,1,.1-1.17A32.05,32.05,0,0,0,106,258c2.78-.5,5.48-1.42,8.22-2.15,2-.53,4-1,5.9-1.59,2.29-.71,4.54-1.55,6.81-2.32a2.85,2.85,0,0,1,.71-.12,14,14,0,0,0,6-2.33c.34-.2.84-.09,1.22-.25,1.55-.64,3.08-1.33,4.62-2a7.48,7.48,0,0,1,.74-.39c1.36-.41,2.73-.84,4.11-1.19,2.21-.55,4.45-1,6.64-1.57a16.92,16.92,0,0,0,3-1.24c2.35-1.15,4.66-2.38,7-3.51,1.27-.61,2.62-1.06,3.93-1.6.57-.23,1.11-.53,1.88-.9a6.42,6.42,0,0,1,.51,1.74c0,2.45.35,5.08-.39,7.31a25,25,0,0,0-1,6.57c-.09,1.42-.12,2.86,1.41,3.69a9.5,9.5,0,0,0,1.16.65c1.62.6,3.26,1.15,5,1.77-1.9,2.05-3.64,4-5.43,5.84a2.06,2.06,0,0,0-.25,2.86c.88,1.36,1.18,2.68,0,4.05a1.63,1.63,0,0,0-.27,1.36c.48,1.28,1.13,2.5,1.76,3.85-1,1.86-.73,3.09,1.13,4.39.17.12.49.21.52.36.43,2,1.28,4,1.11,5.89-.2,2.3-1.28,4.52-2,6.77,0,.05,0,.11,0,.17-.58,3.93-2.35,7.74-1.2,11.95.52.1,1.11.18,1.68.34a10.34,10.34,0,0,1,2.44.84c1.46.89-.32,1.4-.34,2.12,0,2.92,0,5.85,0,8.78,0,.19.22.4.35.58,1.18,1.61.46,3.6-1.51,3.8a51,51,0,0,1-5.26,0c-.5-2.39-.89-4.82-1.55-7.19-.56-2-1.49-3.95-2.14-6s-1-3.81-1.57-5.69c-.38-1.23-.92-2.42-1.42-3.62-.8-2-1.56-3.93-2.45-5.85s-2-4-2.94-6a29.81,29.81,0,0,0-2.06-4.16c-1.3-1.86-1.23-4.4-3.26-5.95-.86-.66-1-2.18-1.71-3.14a2.21,2.21,0,0,0-1.77-.57c-.29,0-.73.85-.73,1.31-.09,12.47,0,24.94-.23,37.41-.05,3-.88,5.92-1.43,8.86-.2,1-.73,2-.94,3a3.4,3.4,0,0,1-3.16,2.61q-15.37,0-30.75,0c-.84,0-1.68,0-2.51,0-4.48-.48-9-1-13.43-1.51a41.14,41.14,0,0,1-5.86-1.08c-2.16-.61-4.24-1.5-6.36-2.26a1.91,1.91,0,0,0-.34-.1,40.1,40.1,0,0,1-6-1.54c-2.14-.88-4.35-.88-6.53-1.28-1.81-.32-3.49-1.34-5.22-2a4.42,4.42,0,0,0-.52-.14c-2.28-.5-4.59-.95-6.85-1.55a7.92,7.92,0,0,1-1.93-1.2,8.23,8.23,0,0,1-2.19-1.47,2.48,2.48,0,0,1-.42-2.19c2.13-3.16,4.43-6.2,6.69-9.28,2-2.65,3.9-5.31,5.88-7.95,1.87-2.48,3.83-4.89,5.63-7.42.79-1.11,1.26-2.44,1.94-3.63.87-1.53,1.8-3,2.71-4.53.71-1.19,1.44-2.37,2.15-3.56,1.06-1.76,2.11-3.54,3.19-5.28A42,42,0,0,0,81,265c1.36-3,1.24-3.06,4.45-3C86.09,262,86.74,262,87.5,262Z"/><path class="cls-1" d="M264.14,13.92c1.62,0,3.19.09,4.74,0,2.89-.21,5,1.53,7.13,3a15.63,15.63,0,0,1,4.37,4.47c1.16,1.83,3.72,2.84,3.4,5.6,0,.36.65.76.87,1.2.91,1.83,1.68,3.74,2.69,5.52,1.13,2,1.78,4.25,3.45,6,.91,1,1.1,2.65,1.64,4l2.41,6.07a.64.64,0,0,1,.05.17c.47,2.7,1,5.39,1.43,8.08.37,2.16.78,4.32,1.09,6.48a12.08,12.08,0,0,1-2,8.11,4.65,4.65,0,0,0-.33,1.74C295,76,294,76.71,292.53,77.23c-1.73.63-3.31,1.55-5.32,1.29-1.6-.21-2.53-.87-2.36-2.47.14-1.37.85-2.71.89-4.08a46.75,46.75,0,0,0-.3-7.85,7.53,7.53,0,0,0-1.86-3.63c-1.33-1.5-3-2.83-5.22-2.24a7.91,7.91,0,0,0-3.23,1.84,108.34,108.34,0,0,0-7.66,7.8c-1.72,2-3.74,2.06-5.93,1.73-1.35-.21-2.83-2.83-3.28-4.51a14.12,14.12,0,0,0-4.26-7,8.46,8.46,0,0,0-6.8-2.53c-.46,0-.95-.39-1.45-.49-.73-.16-1.61-.51-2.19-.25-3.75,1.65-7.64.67-11.45.74A6.37,6.37,0,0,1,229,54.38a2.44,2.44,0,0,1-1-1.66,29.06,29.06,0,0,1,0-6.46,33,33,0,0,1,2-5.67c.1-.26.23-.51.33-.78.8-2.06,1.61-4.12,2.38-6.19a31.86,31.86,0,0,1,1.68-4.54,57.24,57.24,0,0,1,4.18-6.18c1.1-1.46,3-1.81,4.51-2.64,2.19-1.2,4.35-2.44,6.58-3.57A25.15,25.15,0,0,1,253,15.45C256.66,14.25,260.34,13.39,264.14,13.92Z"/><path class="cls-1" d="M202.71,177.44c2.92-2.95,5.81-5.94,8.77-8.85,1.07-1.05,2.32-1.94,3.48-2.9,0,0,.12-.07.13-.11.33-3,3.25-4.28,4.38-6.88,1.34-3.06,3.95-5.54,5.67-8.47a19.72,19.72,0,0,1,6.06-6.37,37.17,37.17,0,0,0,6.19-5.78,15.13,15.13,0,0,0,2-3.92c.54-1.2,1-2.45,1.44-3.69.34-.89,1-1.82.93-2.69-.12-1.79.94-3,1.72-4.3,1.87-3,4-5.92,6-8.86.06-.1.06-.33.1-.33,2.13-.21,2.4-2.57,3.95-3.43.3-.17.67-.48.93-.42,3,.72,5.87-.62,8.87-.49,2.23.1,2.93,1.63,3.58,2.91a2.92,2.92,0,0,1-.86,3.88c-1.28,1-1.94,2.8-2.92,4.22s-1.89,2.48-2.69,3.8-1.4,2.79-2.12,4.18c-1.15,2.25-2.33,4.49-3.5,6.73a2.52,2.52,0,0,0-.22.47c-.47,1.78-.84,3.6-1.43,5.34s-1.47,3.65-2.22,5.47c-.06.17-.1.34-.15.52-.49,2-.87,4-1.49,6-.57,1.76-1.39,3.45-2.1,5.17a2,2,0,0,0-.16.51c-.49,3.74-1.06,7.46-1.45,11.21-.51,4.87-.56,9.82-1.48,14.61-.33,1.71-.19,4.16-2.29,5.36-1.08.61-2.06,1.73-3.19,1.89-2.11.29-2.81,2.19-4.23,3.22-2.17,1.57-3.88,3.79-5.79,5.73s-3.84,3.83-5.71,5.78-3.82,4.06-5.71,6.1c-1.21,1.31-2.34,2.71-3.63,3.93s-2.62,2.08-3.91,3.15c-.68.56-1.29,1.23-1.95,1.82a10.31,10.31,0,0,1-1,.68,3.89,3.89,0,0,1-.44-1.2c0-7.37.25-14.74.1-22.11a31.31,31.31,0,0,0-1.51-10.19c-1.07-2.85-.71-5.6-1.06-8.38-.12-1-.33-1.91-.5-2.86Z"/><path class="cls-1" d="M269.16,111c-2.12-3.85-6.75-4.12-9.93-2.7a8.81,8.81,0,0,1-5.07.09,5.94,5.94,0,0,1-4.88-4.85c-.31-1.36-1.36-2.54-2-3.83a3.78,3.78,0,0,1-.28-1.38c-.09-1.06-.13-2.13-.19-3.25-.68-.08-1.21-.11-1.73-.21A1.66,1.66,0,0,1,244,92.27c.89-1.27.09-4.28-1.43-4.91a24,24,0,0,0-4-1.17,1.89,1.89,0,0,1-1.78-2c-.26-2.94-.92-5.84-1.13-8.78a65.36,65.36,0,0,1-.06-9c.16-2.65-1.72-4-3-5.75a25.27,25.27,0,0,0-2.05-2.11,17,17,0,0,1,2.25-.39c2.4-.06,4.8.05,7.19-.13,1.52-.12,3.08-1.09,4.49-.87,2.73.45,5.34,1.07,7.72,3.12s2.41,4.79,3.68,7.12a12.09,12.09,0,0,0,2.85,3.47c2.78,2.3,7.22,1.76,9.85-1,2.18-2.33,4.24-4.79,6.52-7a6.62,6.62,0,0,1,3.45-2,4.16,4.16,0,0,1,3.17,1.41,7.3,7.3,0,0,1,1.72,4.16c0,2.28-.66,4.57-1,6.86a23,23,0,0,0-.23,2.87c-.05,3.08,1.28,4.65,4.36,4.77,1.67.07,3.48.64,5-1a1.53,1.53,0,0,1,2.49.56c1.13,2.1,1,3.88-.92,5.13a13.68,13.68,0,0,0-4.71,4.82c-1,1.68-2.67,2.92-4,4.37-1,1.11-2,2.24-3.05,3.36-2.4,2.65-4.79,5.3-7.2,7.95-.91,1-1.84,2-2.8,3C270.66,109.82,269.91,110.39,269.16,111Z"/><path class="cls-1" d="M136.73,70.48c-3.33,1.46-6.63,2.69-9.7,4.32a58.87,58.87,0,0,0-7.47,5c-2.9,2.19-5.87,4.26-8.13,7.24a36.08,36.08,0,0,1-5.3,5c-.38.34-1.09.29-1.84.47a25.59,25.59,0,0,1,0-4.57c.56-2.89-1.34-5.61-4.28-5.54a12,12,0,0,0-3.83.92c-2,.71-5.82-.4-7.3-2-3.17-3.32-3.46-7.11-2.08-11.12-.2-.22-.27-.36-.36-.38-2.69-.58-2.61-.59-3-3.31a33.94,33.94,0,0,0-1.26-6c-.16-.51-1.37-.92-2.12-1-1.39-.06-2.77,0-3.32-1.58a5.29,5.29,0,0,1-.2-2.31,10.93,10.93,0,0,1,.69-2,31.9,31.9,0,0,1,1.62-5.1,17,17,0,0,0,2.15-8.3c0-.74.32-2.12.56-2.13a13.33,13.33,0,0,1,3.35.43c.72.14,1.4.48,2.12.59,3.19.5,6.44.75,9.57,1.5a21.65,21.65,0,0,1,5.46,2.59c.4.23.53,1.14.57,1.75.08,1.36,0,2.73,0,3.84,1.07.58,1.9,1.12,2.79,1.49a2.16,2.16,0,0,0,1.58.05c3.06-1.54,6.14-3,8.25-6,.77-1.09,2.29-1.74,3.58-2.35.91-.44,2.33.92,2.64,2.23a4.58,4.58,0,0,1-1.66,4.73c-2.32,2-2.43,4.52-1.91,7.06.17.84,1.66,1.6,2.71,2,3.07,1.2,6.58,1.45,9.18,3.67a49.21,49.21,0,0,1,4.49,5c.39.43.75,1,1.24,1.18C137,68.51,136.88,69.45,136.73,70.48Z"/><path class="cls-1" d="M337.75,275.13c-.95-.67-1.63-1.1-2.26-1.6-1.07-.86-2.08-1.82-3.18-2.63-.75-.56-.79-.92,0-1.44,2.55-1.69,5.12-3.37,7.63-5.14,1.12-.79,2.06-1.84,3.16-2.66,1.63-1.2,3.31-2.32,5-3.45s3.46-2.37,5.24-3.48a24.87,24.87,0,0,1,3-1.53,28.53,28.53,0,0,0,3.77-1.58c2-1.25,3.86-2.7,5.72-4.13.62-.48,1-1.43,1.63-1.72s1.43-.83,2.34.45a17.4,17.4,0,0,1,2.52,6.47c.66,2.77,1.49,5.5,2.24,8.25a1.13,1.13,0,0,1,0,.18c.51,2.64.93,5.3,1.54,7.92s1.37,5,2.07,7.47c.07.23.15.46.22.69.82,2.7,1.67,5.4,2.47,8.12.53,1.82.93,3.68,1.51,5.49a19.73,19.73,0,0,0,1.37,2.91c.68,1.31,1.38,2.61,2.07,3.92a1.17,1.17,0,0,1,.18.49c0,3.37.81,6.92-1.09,9.95-.54.86-2.48,1.24-3.74,1.16a10.17,10.17,0,0,0-4.5.38c-1.38.53-3.06.32-4.62.38-2.33.1-4.67.14-7,.21-1.15,0-1.62-.4-1.74-1.66a75.09,75.09,0,0,0-1.38-9.22c-.37-1.66-1.47-3.14-2.18-4.72-.56-1.22-.95-2.52-1.55-3.71a44.72,44.72,0,0,0-2.69-4.78c-1-1.56-2.38-2.91-3.39-4.48a64,64,0,0,0-9-10.52,2.77,2.77,0,0,0-3.92.54c-.3.42-.81.71-1,1.16A11.41,11.41,0,0,0,337.75,275.13Z"/><path class="cls-1" d="M474.16,468.5c1.18.67,2.3,1.33,3.44,1.94a4,4,0,0,1,2.26,3.92c-.05,1.5,0,3-.07,4.49-.1,1.28.25,2.67-1.07,3.72-.41.32-.22,1.36-.35,2.07a68.63,68.63,0,0,1-1.32,6.86,33.26,33.26,0,0,1-2.21,4.88.84.84,0,0,0,0,.17c-.49,2.34-.55,4.88-1.57,6.95-1.33,2.72-.57,5.71-1.91,8.44a32.54,32.54,0,0,1-2.57,5.06,6.69,6.69,0,0,1-6.54,2.94c-2.18-.3-3.49,1-4.86,1.9a2.57,2.57,0,0,1-2.07.63,4.24,4.24,0,0,0-3.95.91c-.57.51-2.16-.16-3.3-.2a5.05,5.05,0,0,0-2.35.21c-1.05.56-1.71,2.08-3.18,1.45-.76-.32-1.29-1.17-2-1.7-.28-.22-1-.41-1.06-.31-1,1.58-2.48.93-3.72,1-.37-1-.75-1.85-1-2.73a2.45,2.45,0,0,1,.11-1.16,10,10,0,0,0,.5-1.87c0-2.32,1.36-4,2.29-6,1.41-3,3.82-5.28,5.73-7.85,1.42-1.91,2.78-3.95,4.32-5.81a8.37,8.37,0,0,0,1.35-2.58c.71-2,2.21-3.83,1.56-6.16-.45-1.66.52-2.62,1.67-3.4a40.07,40.07,0,0,1,6.21-3.9c3.93-1.71,6.89-4.55,9.8-7.5C470.27,472.77,472.17,470.64,474.16,468.5Z"/><path class="cls-1" d="M242.26,197.94a37.48,37.48,0,0,0-1.3,6.19,72.71,72.71,0,0,0,.44,7.77c.18,3,.44,6.07.43,9.11,0,.85-.82,1.72-1.32,2.55-2.07,3.44-3.95,7-6.32,10.25a51.19,51.19,0,0,1-6.84,7.36c-1.45,1.34-3.45,2.06-5.06,3.25a20.17,20.17,0,0,0-3.11,3c-1.9,2.14-3.38,4.92-5.71,6.32-1.66,1-2,3.46-4.5,3.49-.65,0-1.26,1.63-1.92,2.49a3.88,3.88,0,0,1-4,.77,3.72,3.72,0,0,1-1.34-4.06,10.55,10.55,0,0,0,.74-3.15,94.18,94.18,0,0,0,.15-11.14c-.28-3.48,1-6.63,1.52-9.9s2.65-6.09,5.4-8.32a81.8,81.8,0,0,0,5.81-5.82c1.41-1.38,2.95-2.64,4.33-4.05,2-2,3.78-4.18,5.78-6.16s4.09-3.66,6-5.59c2.27-2.25,4.41-4.63,6.64-6.93a9.28,9.28,0,0,1,1.94-1.53c1.21-.7,1.91-.26,1.91,1.12,0,.48,0,1-.06,1.44s0,1,0,1.44Z"/><path class="cls-1" d="M281.46,300.69c2.07-3,4.08-5.89,6.12-8.78.83-1.18,1.77-2.29,2.6-3.47a24.87,24.87,0,0,0,2.28-3.61,2.56,2.56,0,0,1,3.85-1.08,6,6,0,0,0,6.48.08,1.85,1.85,0,0,1,1-.31,6.75,6.75,0,0,0,5.23-3.26c1.48-2.18,2.81-2.36,5.35-.94a13.14,13.14,0,0,0,3.83,1.51c2.78.51,4,3,6,4.42a14.59,14.59,0,0,0,2.65,2,3.59,3.59,0,0,0,4.54-1.59c.68-1,1-2.29,1.64-3.35a25,25,0,0,1,2.13-2.6c.06.92.31,1.69.09,1.86-1.28,1-.56,2.48-1,3.61-1.46,3.7-.56,7.74-1.55,11.33-1.07,3.86-.49,7.55-.64,11.31-.09,2.32,0,4.64,0,7.16-2.52.43-4.75,1.21-6.93,1.06s-4.45-1.17-6.65-1.88c-1.57-.5-3.13-1.06-4.65-1.7-.52-.22-.89-.78-1.39-1.09-1.94-1.23-3.72-2.62-6.21-2.9-1.93-.23-3.76-1.26-5.64-1.94-.22-.08-.44-.2-.67-.26-2.07-.48-4.18-.85-6.22-1.44s-4.21-1.44-6.32-2.15a4.6,4.6,0,0,0-1.06-.16C284.46,302.37,282.56,302.44,281.46,300.69Z"/><path class="cls-1" d="M212.28,262.62c.85,1,1.8,2.09,2.63,3.23a11.18,11.18,0,0,1,1.4,2.5c.84,2.15,2,4.24,1.56,6.69a1.62,1.62,0,0,1-.59.94c-1.3.88-2.69,1.62-3.95,2.55s-2.07,1.84-3.13,2.74c-2.36,2-5,3.71-7,6-1.72,2-4.16,2.17-6.1,3.46-.26.18-.7.1-1.06.11-3.17,0-6.35,0-9.52.12a10,10,0,0,1-6.79-2.26,2.75,2.75,0,0,0-1.55-.3c-2.33,0-3.23-2-4.39-3.44-.36-.44-.16-1.57.13-2.22.64-1.44.44-2.42-1.08-3s-2.46-1.16-.88-2.7a1.06,1.06,0,0,0,.1-1,30.2,30.2,0,0,1-1.92-2.94,2.23,2.23,0,0,1,.14-2c1.33-1.52,1.16-2.82-.07-4.27a1.52,1.52,0,0,1,.06-1.4,11,11,0,0,1,4.09-3.79c2.71-1.42,5.54-1.81,8.37-2.58a17.39,17.39,0,0,1,7.44-.77c4,.65,8.11,1.19,11.22,4.43a7,7,0,0,0,3.81,1.44c1.32.19,2.72.54,4-.69C209.89,262.87,211.22,262.91,212.28,262.62Zm-30.51-.36c-1.2,2.37-.82,3.28,2.55,7.07,1.53-2,.18-3.66-.71-5.28A9,9,0,0,0,181.77,262.26ZM183,272.65a10.65,10.65,0,0,0,.78,2.27,21.71,21.71,0,0,0,1.91,2.41c.16-1,.33-1.92.48-2.88a.85.85,0,0,0,0-.35C185.68,272.4,184.34,271.83,183,272.65Zm4.57,9.81c-.07-.72,0-1.23-.16-1.4a10.84,10.84,0,0,0-1.66-1.05c-.26.55-.87,1.29-.69,1.63a8.83,8.83,0,0,0,1.78,1.9C187.12,283.1,187.41,282.67,187.56,282.46Zm-.24,2.1-1.06.05c0,1.1,0,2.2,0,3.29,0,.18.42.52.55.48.28-.08.7-.37.7-.58C187.53,286.72,187.4,285.64,187.32,284.56Z"/><path class="cls-1" d="M55.49,474.72c-2.14.28-4.34.9-6.48.74-1.59-.11-3.1-1.24-4.65-1.92a14.19,14.19,0,0,0-3.25-1.4A59.54,59.54,0,0,0,30.69,471c-2.82.08-5.57,1.49-8.41,1.8-3.14.33-6.39,1-9.51-.44a3.69,3.69,0,0,0-1.74-.27c-3,.28-5.39-1.21-7.72-2.8-.82-.56-.79-2.53.08-3.21a7.36,7.36,0,0,1,2.51-1.49c2.57-.63,5.29-.77,7.77-1.62,1.91-.66,4.11-.62,5.76-2.18.72-.69,1.93-.83,2.82-1.38,1.62-1,3.18-2.11,4.76-3.18.92-.62,1.82-1.29,2.78-1.85a1.34,1.34,0,0,1,1.05.06c1.27.56,2.52,1.19,3.78,1.8a4.06,4.06,0,0,0,.64.29c2.16.51,4.34.93,6.47,1.53,1.64.47,3.23,1.15,4.83,1.75,1.84.69,3.65,1.47,5.51,2.07s3.65.93,5.44,1.5a1.52,1.52,0,0,1,.86,1.15c-.17,1.41-.53,2.8-.82,4.21,0,.05,0,.1-.07.16C56.87,470.67,56.27,472.44,55.49,474.72Z"/><path class="cls-1" d="M216.84,482.88c-1.45-.45-1.39-2-1.68-3.56s-1.32-3.36-2-5.05a8.5,8.5,0,0,1-.35-1.34c-.22-1-.43-1.92-.67-3,1.09-.48,2.38-1.15,3.73-1.61,2.5-.85,4.19-2.28,4.62-5.07.13-.79,1-1.47,1.51-2.12a39.17,39.17,0,0,1,6.28,2.07c3.56,1.87,7.47.52,11,1.5,3.2.89,6.35.58,9.51,1a11.22,11.22,0,0,1,4.78,1.57c.66.45.61,2.19.59,3.34,0,1-.61,1.92-.67,2.89-.26,4.11-2.39,7.11-5.46,9.59a.88.88,0,0,1-.5.17c-3.18,0-6.29.19-9.5-.76a24.81,24.81,0,0,0-10.22-1.12c-2.77.39-5.54.38-8.28.77A21.54,21.54,0,0,0,216.84,482.88Z"/><path class="cls-1" d="M185.69,518.15a31,31,0,0,0-3.24-.74,19.27,19.27,0,0,0-2.51.09c-3.17,0-3.71-.46-4-3.72-1.36.13-2.69-.57-4.06.77-.63.61-2.1.37-3,.5-1.47-3.85.64-6.38,2.51-9,1.1-1.53,2.23-3,3.37-4.54,1.3-1.72,2.55-3.51,4-5.09.31-.34,1.55-.16,2.15.17.81.44,1.35,1.34,2.11,1.9,2.06,1.51,4.51,2,6.87,2.83,4.21,1.5,8.39.58,12.55,1.05,2.4.26,4.78.75,7.15,1.22.22.05.54.94.42,1.08-2.3,2.57-4.63,5.11-7,7.59a30.52,30.52,0,0,1-4.08,3.72c-.61.45-1.7.29-2.58.31-1.41,0-2.91-.63-4,.91-.22.29-1.14,0-1.72.12C188.88,517.59,187.25,517.89,185.69,518.15Z"/><path class="cls-1" d="M261.1,272.61a37.69,37.69,0,0,1,4.93.64c2.82.75,5.6,1.67,8.37,2.62.79.27.65,1.79.07,2.61-1.24,1.76-2.3,3.64-3.5,5.44-1.06,1.58-2.26,3.07-3.3,4.66-.66,1-1.06,2.17-1.73,3.17-.9,1.35-1.69,3-3,3.76-1.15.64-2.93.15-4.43.11-.18,0-.32-.4-.52-.45-2.37-.57-4.75-1.11-7.12-1.64-2-.45-4-.81-6-1.35a2.15,2.15,0,0,1-1.26-1.28c-.12-.39.28-1.06.63-1.45q2.81-3.07,5.72-6.06c1.89-1.94,3.82-3.84,5.76-5.73,1.47-1.42,3-2.81,4.47-4.21Z"/><path class="cls-1" d="M175.62,317.58a14.42,14.42,0,0,1-.5-7.4c.16-1.13.65-2.21.87-3.34.53-2.69,1-5.39,1.45-8.1a5.2,5.2,0,0,0,0-1.76c-.06-.32-.46-.57-.71-.85-.23.22-.55.39-.68.65a57.56,57.56,0,0,0-2.39,5.25c-.58,1.57-.45,1.62-2.56,1.38.29-1.79-.68-3.74.89-5.36.07-.08.06-.23.08-.35l1.78-8,2.43.86a8.33,8.33,0,0,0,1.32.47c.9.15,2-.15,2.36,1.09,0,.08.18.16.29.18,3.27.58,6.48,1.73,9.88,1.08a2,2,0,0,0,.35-.06c3.26-1,3.28-1,3.28,2.48s.1,7.19-.1,10.78a32.69,32.69,0,0,1-1.17,5.64c-.05.2-.43.31-.65.47-.21-.31-.58-.61-.59-.93-.06-1.85-.11-3.71,0-5.57.06-1.48.16-2.89-2.11-3.35-1,5.23-2.08,10.6-3.18,16.17l-1.93-.35c1.16-4.88,2.95-9.46,1.95-14.51-2,.66-2.26,2-2.4,3.72a52.44,52.44,0,0,1-1.32,6.36c-.43,2-.73,4.07-1.33,6-.16.53-1.17.8-2.14,1.4-.07-2.2-.69-3.87.78-5.27a.9.9,0,0,0,.23-.48c.46-2.47.9-4.94,1.38-7.41.19-1,.47-1.94.72-3-1.47-1.07-2.87-.35-3.21,1.71-.43,2.6-.85,5.22-1.47,7.78A9.61,9.61,0,0,1,175.62,317.58Z"/><path class="cls-1" d="M218.74,278.47c.11.85.29,1.64.32,2.43.09,2.15.16,4.3.16,6.44,0,.39-.35.77-.54,1.15a5,5,0,0,1-.94-.74c-1.21-1.51-2.42-3-3.55-4.59-.69-1,.49-2.89,2-3.51C217,279.36,217.65,279,218.74,278.47Z"/><path d="M248.62,350.34c.55-2.77,2.84-2.6,4.3-3.39,1.7-.93,3.81-1.06,5.66-1.76a35.27,35.27,0,0,0,3.63-2c1-.52,2-.9,3-1.4,1.82-.92,3.66-1.8,5.42-2.83,1.08-.64,1.94-1.65,3-2.23.58-.31,1.45,0,2.19,0a6.25,6.25,0,0,1-.69,1.58,7.21,7.21,0,0,1-3.51,2.27,20.75,20.75,0,0,0-4.22,2.61,28.37,28.37,0,0,1-3.37,2.12c-2.4,1.07-4.89,1.95-7.33,2.93-1.74.7-3.44,1.54-5.22,2.1A10.52,10.52,0,0,1,248.62,350.34Z"/><path d="M401.25,415.36c-4.27,3.71-9,3.77-13.76,3.28-1.84-.19-3.6-1.14-5.37-1.81a28,28,0,0,1-4.25-1.82,10.68,10.68,0,0,1-2.08-2.11c1-.15,2-.64,2.9-.38,1.81.56,3.43,1.69,5.24,2.24,3.77,1.15,7.63,2.05,11.62,1.32,1.08-.2,2.06-.92,3.14-1.12A8.48,8.48,0,0,1,401.25,415.36Z"/><path d="M246.9,376.13c-.41.47-.47.62-.56.64-2.3.5-4.57,1.1-6.89,1.44-3.18.48-5.52-1-7.68-3.26a54.83,54.83,0,0,0-5.5-4.39c-.31-.25-.73-.75-.65-1a1.78,1.78,0,0,1,1-1.08c1.68-.54,2.85.55,4,1.52,1.82,1.56,3.67,3.11,5.36,4.8a3.87,3.87,0,0,0,3.28.95c1.43-.07,2.87-.21,4.3-.16A28.37,28.37,0,0,1,246.9,376.13Z"/><path d="M293.88,330.17c-1.42.2-2.3.21-3.19-.89a27.78,27.78,0,0,0-4.82-4.75c-1.3-1-3-1.42-4.72-2.18v-2c2.44-1.09,4.13.57,5.73,1.7a59.08,59.08,0,0,1,6.62,5.74C293.93,328.23,293.76,329.25,293.88,330.17Z"/><path d="M387,393.3c.43-1.28.83-2.49,1.22-3.69a6,6,0,0,0,.42-1.5,7.63,7.63,0,0,1,2.18-4.94c.42-.47.42-1.32.65-2.13h2.46c-.44.93-.75,1.6-1.07,2.26-.51,1.06-1.46,2.11-1.45,3.17,0,2-1.1,3.56-1.52,5.36S389.52,393.66,387,393.3Z"/><path d="M413.73,413.52c1.6-1.94,3-2.89,5.28-2,0,.58-.08,1.22-.13,2Z"/><path d="M143.92,187.37c-3.76,0-6.48-2.27-9.23-4.32a88.33,88.33,0,0,1-7.16-6.1c-.51-.47-.5-1.49-.73-2.25.82.08,1.82-.11,2.43.29a46.2,46.2,0,0,1,4.53,3.52c1.05.88,2,1.84,3,2.77a10.43,10.43,0,0,0,1.94,1.78c2.35,1.16,4.54,2.72,7.29,2.92.36,0,.69.43,1,.66-.33.24-.64.63-1,.69A14,14,0,0,1,143.92,187.37Z"/><path d="M141.62,217.39c.66-.81,1-1.64,1.7-2a10.75,10.75,0,0,1,3.61-1.38c1.66-.25,2.63-1.46,3.94-2.14,2.39-1.24,3.77-3.29,5.37-5.24.32-.39,1.39-.18,2.11-.25-.11.71,0,1.67-.38,2.1a37.67,37.67,0,0,1-8.51,6.93C147.14,216.73,144.88,218.1,141.62,217.39Z"/><path d="M100.24,125.88c-.3.72-.59,1.44-.89,2.15a3.38,3.38,0,0,0-.24.46c-.52,2.21-1,4.43-1.54,6.62-.79,3-1.68,6-2.52,9l-.65,0a3.63,3.63,0,0,1-.54-1.24c0-2-.59-4.06.9-5.82a1.89,1.89,0,0,0,.26-.84c.48-2.1.58-4.41,1.55-6.25C97.37,128.52,97.15,126,100.24,125.88Z"/><path d="M135.91,77.77a12,12,0,0,1-1.82,2.76,29.78,29.78,0,0,1-4.26,2.84c-2.1,1.25-4.23,2.43-6.41,3.67-.56-1-1.24-1.76.19-2.57,2-1.14,4-2.39,5.92-3.67,1.24-.83,2.37-1.82,3.6-2.68A21.64,21.64,0,0,1,135.19,77Z"/><path d="M137.28,108.89c-.45,1.11-.83,2-1.13,2.81-.9,2.63-2.34,5.15-1.74,8.08a4.3,4.3,0,0,0,.71,1.2c-.24.35-.43.85-.79,1s-1.07.18-1.2,0a6.31,6.31,0,0,1-1.2-5.19,51.54,51.54,0,0,1,2.15-5.38,2.86,2.86,0,0,0,.25-.82C134.45,109.12,135.37,108.75,137.28,108.89Z"/><path d="M187.77,210c-1.49.1-2.19.27-3-1a7.1,7.1,0,0,0-5.39-3c-2.34-.2-2.73-1.19-1.44-3.21C181.72,204.27,186.44,204.47,187.77,210Z"/><path d="M89.69,222.84c-2.11-2.81-3-12.53-1.09-14.41.52,4.18,1,8,1.45,11.86A11.3,11.3,0,0,1,89.69,222.84Z"/><path d="M113.39,95c1.65,1.7-.26,2.56-.75,3.66a40.73,40.73,0,0,1-2.21,3.68c-.68,1.16-1.29,2.36-2.14,3.94l-1.34-2C109.13,101.45,109.94,97.4,113.39,95Z"/><path d="M88.39,186.07c-1.61.07-2.29-.88-1.72-2,1.27-2.53.63-5.16.85-7.73.09-1,.15-1.91.25-3.18C89.12,174.67,89.31,182,88.39,186.07Z"/><path d="M149.49,99.06a2.22,2.22,0,0,1-2,2.14,5.16,5.16,0,0,0-3.18,1.77,8.57,8.57,0,0,1-2,1,2.35,2.35,0,0,1,1.3-3.57C145.51,100,147,97.67,149.49,99.06Z"/><path d="M165.65,95.42c-2.28,1.52-4.56,1-6.84.06C161.07,94.45,163.36,94.78,165.65,95.42Z"/><path d="M285.23,236.41c.8.31,1.6.62,2.4,1,.21.08.4.3.61.31,3,.21,5.67,2,8.8,1.54a42,42,0,0,1,5-.06c1.31,0,2.53.08,3.79-.9.84-.66,2.39-.47,3.63-.54.24,0,.51.5.76.77a4.41,4.41,0,0,1-.83.68c-1.54.71-3.09,1.4-4.66,2a5.15,5.15,0,0,1-1.88.43c-3.22,0-6.54.47-9.66-.12-2.61-.5-5.53-.61-7.77-2.4-.5-.41-.5-1.46-.72-2.22Z"/><path d="M280.72,130.49c-1.84,2.95-3.37,5.45-4.94,7.92-1,1.65-2.19,3.24-3.24,4.89a17.27,17.27,0,0,0-1.21,2.39c-.59,1.36-1.1,2.75-1.65,4.13a12,12,0,0,1-1.25,3c-.29.38-1.35.18-2.06.24a8.59,8.59,0,0,1,.17-1.35c.1-.39.46-.74.48-1.11.15-2.1,1.35-3.71,2.31-5.46,1.09-2,1.85-4.17,3.08-6.05,1.92-2.95,4.08-5.74,6.25-8.51C278.9,130.22,279.87,130.49,280.72,130.49Z"/><path d="M249.42,230.15h2.52c.38,1.41,1.44,3.08,1,4.23-1.07,3.05-.72,6.16-1.15,9.22a5.88,5.88,0,0,1-1.45,2.82c-.33.38-1.3.21-2,.28,0-.8-.36-2,0-2.31,1.26-.89.92-2.08,1.06-3.22.26-2.08.61-4.16.81-6.25,0-.45-.49-.92-.56-1.41C249.55,232.47,249.51,231.41,249.42,230.15Z"/><path d="M305.27,197.34c2.21-2.52,4.19-4.55,5.88-6.8a21.21,21.21,0,0,0,1.91-4.15h.58a5.84,5.84,0,0,1,.39,2.19,15.4,15.4,0,0,1-6.61,9.7C307.07,198.52,306,197.66,305.27,197.34Z"/><path d="M296.25,116.22l.13,2.16c-2.54,1.19-4.87,2.22-7.13,3.38-.58.3-.9,1-1.44,1.45a4.55,4.55,0,0,1-1.76.81c-.35.07-.79-.29-1.18-.46a3.41,3.41,0,0,1,.59-1,56.88,56.88,0,0,1,5.86-4.7C292.68,117,294.44,116.8,296.25,116.22Z"/><path d="M327.8,234.84c-2.14,2.57-5.13,2.92-8.21,2.72-.6,0-1.13-1-1.7-1.55a8.63,8.63,0,0,1,1.76-.8c.75-.14,1.56.06,2.31-.08s1.51-.63,2.3-.76c1.11-.17,2.26-.15,3.4-.21C327.7,234.39,327.75,234.61,327.8,234.84Z"/><path d="M320.23,157.41c0,2.63.09,5.27-.09,7.89,0,.49-1.18.9-1.81,1.35C317.06,163.94,317.78,159.51,320.23,157.41Z"/><path d="M309.57,118.68c1.31,2,4,2.33,4.35,5.41-1-.18-2.26-.13-2.38-.47C311,122,307.89,121.69,309.57,118.68Z"/><path d="M166.87,358c-1.26.28-1.82-.24-2.34-1.45-.75-1.75-2-3.28-2.84-5-1.24-2.53-2.17-5.23-3.49-7.71a11.56,11.56,0,0,1-1-6.57,7,7,0,0,1,1-2.61c.17-.33.68-.49,1-.72a4.78,4.78,0,0,1,.42,1.1,11.87,11.87,0,0,1,0,1.79,15.51,15.51,0,0,0,2.26,8.85c1.54,2.56,2.78,5.31,4.14,8S167.34,356.24,166.87,358Z"/><path d="M189.29,483c1.62.71,3.22,1.26,4.67,2.07,2.61,1.47,5.21,3,7.68,4.69,1.79,1.23,4.23,1.56,5.37,3.67a5.24,5.24,0,0,1,.27,1.76c-.6,0-1.3.3-1.77.07a66.72,66.72,0,0,1-6.06-3.27c-2-1.24-3.86-2.72-5.83-4-1.12-.75-2.34-1.35-3.49-2a10.63,10.63,0,0,1-1.51-1,10.42,10.42,0,0,1-1.07-1.13Z"/><path d="M143.62,414.79c.82.82,1.84,1.35,1.91,2,.26,2.53,2.46,3.69,3.56,5.59,1.33,2.33,3.85,2.81,5.94,3.86,1.22.62.86,1.44.81,2.21,0,.18-1.19.53-1.72.38a13.11,13.11,0,0,1-3.65-1.49,5.43,5.43,0,0,1-2.37-2.63c-.48-1.26-1.91-2.16-2.92-3.21A6.11,6.11,0,0,1,143.62,414.79Z"/><path d="M55,347.9a6.73,6.73,0,0,1-2,0c-.41-.13-1-.76-.94-1.09a2,2,0,0,1,1-1.26,2.59,2.59,0,0,1,1.59-.08c2.79.53,4.49-1.34,6.24-2.93,1.46-1.32,2.68-2.92,4.09-4.29a1.36,1.36,0,0,1,1.37.14c.3.36.49,1.3.26,1.51-2.51,2.42-4.33,5.63-7.8,7-1.25.47-2.47,1-3.7,1.52Z"/><path d="M50.33,366c.17.53.34,1.06.5,1.6a24.86,24.86,0,0,0,1.6,5.08,46.45,46.45,0,0,0,4,5.25,2.67,2.67,0,0,1,.68,1.14,6.75,6.75,0,0,1-.3,1.7,12.82,12.82,0,0,1-1.36-.76,10.15,10.15,0,0,1-3.52-4.71c-1-2.41-2.29-4.7-3.2-7.14-.21-.57.63-1.52,1-2.3Z"/><path d="M169,458.81a10.6,10.6,0,0,1-1.86-6.56,7.87,7.87,0,0,1,.53-1.76,7.91,7.91,0,0,1,1.48,1C170.19,452.64,170.05,457.58,169,458.81Z"/><path d="M181.77,262.26a9,9,0,0,1,1.84,1.79c.89,1.62,2.24,3.26.71,5.28C181,265.54,180.57,264.63,181.77,262.26Z"/><path d="M183,272.65c1.35-.82,2.69-.25,3.12,1.45a.85.85,0,0,1,0,.35c-.15,1-.32,1.92-.48,2.88a21.71,21.71,0,0,1-1.91-2.41A10.65,10.65,0,0,1,183,272.65Z"/><path d="M187.56,282.46c-.15.21-.44.64-.73,1.08a8.83,8.83,0,0,1-1.78-1.9c-.18-.34.43-1.08.69-1.63a10.84,10.84,0,0,1,1.66,1.05C187.6,281.23,187.49,281.74,187.56,282.46Z"/><path d="M187.32,284.56c.08,1.08.21,2.16.22,3.24,0,.21-.42.5-.7.58-.13,0-.55-.3-.55-.48-.06-1.09,0-2.19,0-3.29Z"/></g></g></svg>