<svg xmlns="http://www.w3.org/2000/svg" viewBox="0 0 301.09 563.66"><defs><style>.cls-1{fill:#fff;}</style></defs><g id="Layer_2" data-name="Layer 2"><g id="Layer_1-2" data-name="Layer 1"><path class="cls-1" d="M256.27,528c-.85.78-1.37,1.65-2.07,1.83a55.81,55.81,0,0,1-7.76,1.46c-2.56.26-5.15.11-7.73.16a4.59,4.59,0,0,0-1.23.13l-8.22,2.28c-1.76.49-3.58.81-5.29,1.44a7.2,7.2,0,0,0-2.86,1.84,23.33,23.33,0,0,0-3.45,4.78c-.37.72,0,2.58.5,2.83,1.79.85,3.61,2,5.81,1.44,5.54-1.43,11.21-1.08,16.84-1.24,1,0,2-.62,3-.74a14.84,14.84,0,0,1,3.33.06c.69.08,1.37.7,2,.65,3.58-.22,7.13.36,10.76-.81,2.67-.87,5.8-.39,8.73-.42,7.47-.06,15,.47,22.39-1a9.52,9.52,0,0,1,2.87-.07c2.58.31,3.6-2.24,5.57-3.13,1-.44,1.29-2.79,1.45-4.32.23-2.33.45-4.67-.84-7-.93-1.65-.94-3.8-1.79-5.52-1.26-2.56-2.79-4.94-2.09-8a4.86,4.86,0,0,0-.07-2c-.42-2.11-1-4.2-1.35-6.32-.51-3-.89-6-1.33-9a1.28,1.28,0,0,0-.08-.35,20.23,20.23,0,0,1-2.4-7.32,1.46,1.46,0,0,0-.11-.52,15.47,15.47,0,0,1-2.41-7,2.81,2.81,0,0,0-.19-.67c-.74-2.41-1.5-4.81-2.2-7.23-.51-1.73-.82-3.52-1.43-5.2s-1.62-3.08-2.18-4.71c-.66-1.92-1-4-1.53-5.94a2.5,2.5,0,0,0-.27-.63c-.66-1.09-1.76-2.12-1.91-3.27-.34-2.64-1.59-4.84-2.66-7.15-.41-.89-1.26-1.81-1.17-2.64.33-3-2.45-4.45-3.07-7a17.41,17.41,0,0,0-2.07-3.86c-.67-1.21-1.35-2.42-2-3.65-1-1.87-2-3.72-2.89-5.65-1-2.25-1.46-4.84-2.86-6.78-1.79-2.5-2.29-5.4-3.46-8.07-.62-1.44-1-3-1.53-4.46-.73-2.08-1.49-4.15-2.22-6.23-.61-1.73-1.2-3.47-1.81-5.19s-1.55-3.18-1.7-4.83a36.63,36.63,0,0,0-2.48-9.77c-.89-2.31-1-4.91-1.54-7.37-.43-2.05-.91-4.1-1.37-6.15a.88.88,0,0,0-.16-.32c-1.38-1.93-2.53-3.94-2.28-6.46a2.54,2.54,0,0,0-.12-1.06A34.26,34.26,0,0,1,241,347.63a9,9,0,0,0-.25-1.94c-.25-1-.63-1.91-.88-2.88-.17-.69-.18-1.42-.33-2.12-.3-1.4-.73-2.79-1-4.21-.51-3-.93-6-1.4-9a1.82,1.82,0,0,0-.31-.83c-1.37-1.77-1-3.6-.3-5.49a3.91,3.91,0,0,0,.13-1.8c-.11-.79-.44-1.55-.62-2.33-.11-.52.1-1.34-.19-1.56-1.45-1.14-1.08-2.71-1-4.09.31-5-.34-10,.86-15.06a21,21,0,0,0-.61-12.32c-.9-2.34-1.12-4.94-1.67-7.41a5,5,0,0,0-.58-1.24c-.61-1-1.23-2.07-1.87-3.09a29.54,29.54,0,0,0-2.27-3.5c-1.57-1.84-1.67-2.5-.38-4.86a11,11,0,0,0,1.38-3.24c.7-4.09-.59-8-1.39-11.94a5.27,5.27,0,0,0-.22-.49,11.91,11.91,0,0,1-1-3.41c0-5.15.13-10.3.19-15.45a4.13,4.13,0,0,0-.28-1.55c-.7-1.87-1.53-3.7-2.16-5.59s-1-3.7-1.49-5.55c-.36-1.27-.71-2.56-1.18-3.79A58.11,58.11,0,0,1,220,207.5c-.7-2.51-1-5.13-1.55-7.69,0-.24-.08-.48-.13-.71-.66-3.42-1.67-6.82-1.92-10.27-.4-5.6-.29-11.25-.45-16.88,0-.65-.55-1.29-.57-1.95-.09-2.44-.55-5,.08-7.29a7.38,7.38,0,0,0,0-4.91,5.54,5.54,0,0,1-.5-1.29c-.45-3.94.1-7.95-1.07-11.86-.46-1.56,0-3.35-.21-5-.31-3.07-.69-6.13-1.16-9.19-.41-2.7-.92-5.39-1.5-8.06a46.91,46.91,0,0,0-1.5-5.37c-.67-1.94-1.51-3.81-2.26-5.71a6.71,6.71,0,0,0-.26-.83,32.55,32.55,0,0,1-2-3.45c-1-2.46-1.9-5-2.87-7.48a31.58,31.58,0,0,0-1.29-2.92c-.66-1.28-1.92-2.49-2-3.78-.13-2.71-2.74-3.94-3.21-6.42-.24-1.31-1.25-2.49-2-3.67a11.18,11.18,0,0,0-2-2.57c-1.9-1.6-3.89-3.1-5.91-4.54a10.08,10.08,0,0,0-3.1-1.57c-1.95-.52-3-1.45-2.69-3.44a37.9,37.9,0,0,1,1.55-5.87c.57-1.82,1.67-3.55,1.89-5.4a40.83,40.83,0,0,0-1.16-16.67,28.65,28.65,0,0,0-1.64-3.83c-.59-1.24-1.38-2.4-1.85-3.68-.73-2-1.22-4-2.56-5.66-.7-.89-1.11-2-1.76-3-1.52-2.23-3.1-4.43-4.69-6.61A4,4,0,0,0,168.5,19a35.53,35.53,0,0,0-3.38-1.94c-1.75-.81-2.43-3-4.61-3.33a11.1,11.1,0,0,1-3.07-1.44c-1.32-.68-2.61-1.43-4-2a8.48,8.48,0,0,0-3-.84c-4.83-.14-9.67-.38-14.48-.09-2.45.14-4.85,1.25-7.23,2a9.74,9.74,0,0,0-3.82,1.76c-2.25,2.22-5.32,3.64-6.49,7-.92,2.64-2.61,5-3.31,7.73a84,84,0,0,0-1.51,10.07,11.35,11.35,0,0,0-.13,2.33,25.24,25.24,0,0,0,.55,4.93c.49,1.8,1.82,3.43,2,5.22a5.19,5.19,0,0,0,1.8,3.49,13,13,0,0,1,4.62,10,42.55,42.55,0,0,0,.72,4.55,9.65,9.65,0,0,1-.06,2.84c-.54,2.87-1.33,5.7-1.77,8.58-.32,2.11-.22,4.29-.33,6.44a17.21,17.21,0,0,1-.38,1.89c-1.24-1.82-2.46-3.1-3.07-4.62a47.23,47.23,0,0,1-2.44-8.13,61.13,61.13,0,0,1-1.27-10.58c0-3.25-2.11-5-4.11-6.76a2.66,2.66,0,0,1-1.1-2.25c-.41-7.86,1-15.8-1.15-23.58-.67-2.35-1-4.79-1.48-7.19a2,2,0,0,0-.11-.35c-1.12-2.62-2.22-5.24-3.37-7.84-.39-.88-.92-1.68-1.36-2.54-.62-1.22-1-2.71-1.87-3.64a52.27,52.27,0,0,0-6.17-6c-2.15-1.59-4.54-2-6.74-2.92A25.35,25.35,0,0,0,77.16.35c-5.27,0-10.62-1.26-15.81,1-2.45,1-5.07,1.56-6.9,3.8-2.2,2.71-4.83,5.1-6.81,8a33.21,33.21,0,0,0-3.7,7.71,19.52,19.52,0,0,0-1.38,6.82c.13,6.3-1.18,12.66.91,18.91.56,1.68.21,3.69.2,5.54a6.52,6.52,0,0,1-.33,2.29c-1.15,3-3.18,5.69-3.5,9.05,0,.22-.45.41-.47.63a15.81,15.81,0,0,0-.07,2.48c0,.27.43.51.53.8a6.09,6.09,0,0,0,4.37,4.32c1.11.33,2.59.88,3,1.75.7,1.53,1.94,3,1.45,5a1.48,1.48,0,0,0,.87,2A3.39,3.39,0,0,1,51,84.57c-.21.51-.73.92-.84,1.43-.43,2,1.33,5.76,3.25,6.71a24,24,0,0,0,5.32,2.12c1.78.39,3.67.89,5.49-.45A3.5,3.5,0,0,1,67,94.24c2.25.78,2.34,1.77.65,3.59-.56.61-.9,1.39-1.4,2-1.1,1.45-2.27,2.85-3.35,4.31-1.86,2.5-3.77,5-5.48,7.58a48.79,48.79,0,0,0-2.62,5.15c-.52,1-1,2.09-1.54,3.15-.7,1.47-1.46,2.92-2,4.43-.63,1.67-.92,3.48-1.65,5.1-1,2.1-2,4.13-2.05,6.52a3.91,3.91,0,0,1-.19,1.23c-.78,2.13-1.64,4.22-2.38,6.36-.54,1.54-.87,3.16-1.42,4.7-.63,1.79-1.62,3.48-2.07,5.31-.64,2.68-1,5.44-1.39,8.18-.37,2.22-.13,4.42-1,6.72-1.14,3.2-1.19,6.78-1.78,10.18a1.89,1.89,0,0,1-.84,1.28,10.27,10.27,0,0,1-3.52,1c-4,.09-5.14,3.16-6.49,6-.16.36.09.92.17,1.39.28,1.64.69,3.26.84,4.92s-.6,4,.24,5.26c1.16,1.69,1.05,3.21.94,4.89a6.81,6.81,0,0,0,1.58,5.08,3.63,3.63,0,0,1,.79,2c.14,2.61,2.64,6.11,5.13,7,1.61.56,2.65,1.5,2.61,3.39-.06,2.94,0,5.88,0,8.81,0,3.78-1.06,7.65,1.15,11.22.7,1.13,1.06,2.47,1.79,3.58,1.1,1.67,1,2.66-.1,4.32a11.56,11.56,0,0,0-1.6,3.81c-.36,1.49-.62,3-.9,4.53a23.32,23.32,0,0,0,0,9.77,49.85,49.85,0,0,1,.89,6.17c.13,1,.29,2,.39,3a43.66,43.66,0,0,1,.42,5.58c0,1.54-.63,3.06-.83,4.6a27.54,27.54,0,0,0,0,3.4l-.53-.32a31.33,31.33,0,0,0-3.3,3.32A22.78,22.78,0,0,0,33.84,297a2,2,0,0,0,.12,1.57c1,1.6,2.06,3.13,3,4.58a6.4,6.4,0,0,0-.7,2c-.06,3.7,0,7.4,0,11.11a2.91,2.91,0,0,0,.69,1.35A8,8,0,0,1,38.89,322a5.76,5.76,0,0,0,2.8,4.31c.24.15.64.23.69.43a23.05,23.05,0,0,1,1,3.89c.21,1.75.65,3.5-.81,5.16-.94,1.07-1.12,2.78-2,4-1.31,1.86-2.84,3.52-3.3,5.89a29.24,29.24,0,0,1-1.39,4,60.21,60.21,0,0,0-2.05,5.73c-.66,2.62-1,5.32-1.53,8a5,5,0,0,1-.16.51c-.71,2.61-1.87,5.18-2.05,7.83a166.48,166.48,0,0,0-.29,16.72c.36,11-.29,22,.94,33,1,8.9.37,18,.63,26.95.1,3.42.74,6.81,1,10.23.17,2.14.07,4.31.17,6.47a37.58,37.58,0,0,0,.43,4.63c.65,3.7,1,7.36-.14,11a5.8,5.8,0,0,0-.09,2.46,60.57,60.57,0,0,1,.93,6.64c.11,11.26.06,22.53.09,33.79,0,.82.32,1.63.4,2.45.13,1.28.19,2.55.24,3.83,0,.47-.11,1,0,1.41a13,13,0,0,1,.43,1.85c0,3.1.65,5.82,3.61,7.53-2.07,1.27-4.14,2.23-6.55,1.84-3-.48-5.7.86-8.41,1.67s-5,2.15-7.82,2.17a2.4,2.4,0,0,0-1.39.25,24.29,24.29,0,0,1-6.47,3.71c-1.75.7-3.14,2.25-4.78,3.27C.32,555.29-.4,556.76.2,560.05l5.39,1.39c.23.06.43.21.66.27,2.71.68,5.41,1.78,8.15,1.92,3.14.16,6.33-.53,9.5-.86s6.15-.08,9.27-1.2,6.61-.91,9.94-1.29c7.66-.86,15.5,1,23.06-1.49,1.54-.5,3.12-.93,4.63-1.52a7.38,7.38,0,0,0,4-4.12c.82-1.87,2.27-3.2,4.34-3a62.48,62.48,0,0,1,6.16,1.18c2.2.46,4.39.95,6.57,1.44.12,0,.21.11.32.14a37.82,37.82,0,0,0,6.4,2.06,46.35,46.35,0,0,0,7.36,0,4.2,4.2,0,0,0,1.22-.19c2.47-.73,4.92-1.56,7.41-2.2a8.92,8.92,0,0,0,3.29-1.19c3-2,3.52-5.26,4.54-8.27.56-1.66,1-3.37,1.56-5,.1-.28.78-.48,1.19-.49,1.44-.06,2.88,0,4.32,0,2.06-.08,2.88-.91,2.89-3,0-6.23,0-12.47,0-18.7v-9c2.36-.65,4.26-1.32,6.23-1.68,2.57-.46,5.23.15,7.77-1.22a13.66,13.66,0,0,1,5.56-1.24,9.89,9.89,0,0,0,6-2.6c1.53-1.29,2.44-3.56,1.7-5.34s-1.53-3.77-2.4-5.6-1.8-3.37-2.66-5.07c-.68-1.33-1.31-2.69-1.92-4.06a1.06,1.06,0,0,1,0-.87,28,28,0,0,1,2.73-4.12,1.72,1.72,0,0,0,.18-2.47,22,22,0,0,1-1.81-3.6c-.6-1.57-.92-3.25-1.55-4.82a31.17,31.17,0,0,0-1.8-3.1c-1.44-2.67-2.89-5.34-4.25-8.05-1-2.06-2-4.18-2.93-6.29-.7-1.58-1.88-3.17-1.92-4.78-.15-6.68-1.31-13.45,1.21-20,.49-1.27.7-2.67,1.28-3.9,1-2.12,2.2-4.15,3.31-6.22.49-.93,1-1.86,1.42-2.82a24,24,0,0,1,1.6-3.74c1.89-2.79,4.1-5.38,6-8.2s3.43-6.11,5.37-9a83.88,83.88,0,0,1,6.1-7.93c2.83-3.27,5.8-6.42,8.82-9.51a2.35,2.35,0,0,1,2.19-.35c2.14,1.3,3.48,3.45,4.88,5.46,1.58,2.27,3,4.67,4.45,7,1.06,1.69,2.42,3.29,3,5.14.79,2.31,2.63,3.85,3.6,6,.89,2,1.91,3.84,2.8,5.8a27.14,27.14,0,0,0,1.53,3.76c1.16,1.77,2.39,3.44,2.33,5.69a1.88,1.88,0,0,0,.16.69c.77,2,1.59,4,2.32,5.94.49,1.35.54,3,1.34,4.05,1.41,1.9,1.44,4.18,2.31,6.2.57,1.32,1,2.71,1.51,4.05.74,1.85,1.57,3.67,2.31,5.53a27.44,27.44,0,0,0,1.52,4,12.58,12.58,0,0,1,2.27,5.87,2.39,2.39,0,0,0,.41.93c1.07,2.09,2.2,4.14,3.22,6.25.84,1.73,1.62,3.49,2.32,5.28,1,2.44,1.83,4.92,2.71,7.38.51,1.43.9,2.89,1.47,4.29.47,1.13,1.14,2.19,1.7,3.29,1.06,2.09,2.15,4.17,3.15,6.29.57,1.22,1,2.5,1.49,3.77l2.27,6.12c.1.27.21.55.33.81.67,1.39,1.43,2.75,2,4.19.67,1.67,1.08,3.45,1.77,5.11,1.4,3.39,3,6.7,4.36,10.11,1,2.59,1.78,5.3,2.76,7.92a33.85,33.85,0,0,0,2.55,5.84c1.47,2.39,3.17,4.71,6.58,4.37A8.18,8.18,0,0,1,256.27,528Z"/><path d="M256.27,528a8.18,8.18,0,0,0-2.27-.52c-3.41.34-5.11-2-6.58-4.37a33.85,33.85,0,0,1-2.55-5.84c-1-2.62-1.72-5.33-2.76-7.92-1.37-3.41-3-6.72-4.36-10.11-.69-1.66-1.1-3.44-1.77-5.11-.57-1.44-1.33-2.8-2-4.19-.12-.26-.23-.54-.33-.81L231.38,483c-.48-1.27-.92-2.55-1.49-3.77-1-2.12-2.09-4.2-3.15-6.29-.56-1.1-1.23-2.16-1.7-3.29-.57-1.4-1-2.86-1.47-4.29-.88-2.46-1.75-4.94-2.71-7.38-.7-1.79-1.48-3.55-2.32-5.28-1-2.11-2.15-4.16-3.22-6.25a2.39,2.39,0,0,1-.41-.93,12.58,12.58,0,0,0-2.27-5.87,27.44,27.44,0,0,1-1.52-4c-.74-1.86-1.57-3.68-2.31-5.53-.54-1.34-.94-2.73-1.51-4.05-.87-2-.9-4.3-2.31-6.2-.8-1.08-.85-2.7-1.34-4.05-.73-2-1.55-4-2.32-5.94a1.88,1.88,0,0,1-.16-.69c.06-2.25-1.17-3.92-2.33-5.69a27.14,27.14,0,0,1-1.53-3.76c-.89-2-1.91-3.85-2.8-5.8-1-2.12-2.81-3.66-3.6-6-.63-1.85-2-3.45-3-5.14-1.47-2.35-2.87-4.75-4.45-7-1.4-2-2.74-4.16-4.88-5.46a2.35,2.35,0,0,0-2.19.35c-3,3.09-6,6.24-8.82,9.51a83.88,83.88,0,0,0-6.1,7.93c-1.94,2.89-3.45,6.08-5.37,9s-4.06,5.41-6,8.2a24,24,0,0,0-1.6,3.74c-.43,1-.93,1.89-1.42,2.82-1.11,2.07-2.31,4.1-3.31,6.22-.58,1.23-.79,2.63-1.28,3.9-2.52,6.53-1.36,13.3-1.21,20,0,1.61,1.22,3.2,1.92,4.78,1,2.11,1.88,4.23,2.93,6.29,1.36,2.71,2.81,5.38,4.25,8.05a31.17,31.17,0,0,1,1.8,3.1c.63,1.57.95,3.25,1.55,4.82a22,22,0,0,0,1.81,3.6,1.72,1.72,0,0,1-.18,2.47,28,28,0,0,0-2.73,4.12,1.06,1.06,0,0,0,0,.87c.61,1.37,1.24,2.73,1.92,4.06.86,1.7,1.84,3.35,2.66,5.07s1.62,3.72,2.4,5.6-.17,4-1.7,5.34a9.89,9.89,0,0,1-6,2.6A13.66,13.66,0,0,0,146.3,504c-2.54,1.37-5.2.76-7.77,1.22-2,.36-3.87,1-6.23,1.68v9c0,6.23,0,12.47,0,18.7,0,2.06-.83,2.89-2.89,3-1.44,0-2.88,0-4.32,0-.41,0-1.09.21-1.19.49-.59,1.65-1,3.36-1.56,5-1,3-1.5,6.22-4.54,8.27a8.92,8.92,0,0,1-3.29,1.19c-2.49.64-4.94,1.47-7.41,2.2a4.2,4.2,0,0,1-1.22.19,46.35,46.35,0,0,1-7.36,0,37.82,37.82,0,0,1-6.4-2.06c-.11,0-.2-.12-.32-.14-2.18-.49-4.37-1-6.57-1.44a62.48,62.48,0,0,0-6.16-1.18c-2.07-.22-3.52,1.11-4.34,3a7.38,7.38,0,0,1-4,4.12c-1.51.59-3.09,1-4.63,1.52-7.56,2.47-15.4.63-23.06,1.49-3.33.38-6.86.2-9.94,1.29s-6.18.88-9.27,1.2-6.36,1-9.5.86c-2.74-.14-5.44-1.24-8.15-1.92-.23-.06-.43-.21-.66-.27L.2,560.05c-.6-3.29.12-4.76,2.78-6.43,1.64-1,3-2.57,4.78-3.27a24.29,24.29,0,0,0,6.47-3.71,2.4,2.4,0,0,1,1.39-.25c2.82,0,5.23-1.4,7.82-2.17s5.4-2.15,8.41-1.67c2.41.39,4.48-.57,6.55-1.84-3-1.71-3.66-4.43-3.61-7.53a13,13,0,0,0-.43-1.85c-.06-.46.07-.94,0-1.41,0-1.28-.11-2.55-.24-3.83-.08-.82-.39-1.63-.4-2.45,0-11.26,0-22.53-.09-33.79a60.57,60.57,0,0,0-.93-6.64,5.8,5.8,0,0,1,.09-2.46c1.18-3.68.79-7.34.14-11a37.58,37.58,0,0,1-.43-4.63c-.1-2.16,0-4.33-.17-6.47-.27-3.42-.91-6.81-1-10.23-.26-9,.36-18.05-.63-26.95-1.23-11-.58-22-.94-33a166.48,166.48,0,0,1,.29-16.72c.18-2.65,1.34-5.22,2.05-7.83a5,5,0,0,0,.16-.51c.5-2.66.87-5.36,1.53-8a60.21,60.21,0,0,1,2.05-5.73,29.24,29.24,0,0,0,1.39-4c.46-2.37,2-4,3.3-5.89.85-1.19,1-2.9,2-4,1.46-1.66,1-3.41.81-5.16a23.05,23.05,0,0,0-1-3.89c-.05-.2-.45-.28-.69-.43a5.76,5.76,0,0,1-2.8-4.31A8,8,0,0,0,37,317.57a2.91,2.91,0,0,1-.69-1.35c-.06-3.71-.08-7.41,0-11.11a6.4,6.4,0,0,1,.7-2c-1-1.45-2.07-3-3-4.58a2,2,0,0,1-.12-1.57,22.78,22.78,0,0,1,2.27-4.18,31.33,31.33,0,0,1,3.3-3.32l.53.32a27.54,27.54,0,0,1,0-3.4c.2-1.54.78-3.06.83-4.6a43.66,43.66,0,0,0-.42-5.58c-.1-1-.26-2-.39-3a49.85,49.85,0,0,0-.89-6.17,23.32,23.32,0,0,1,0-9.77c.28-1.48.54-3,.9-4.53a11.56,11.56,0,0,1,1.6-3.81c1.13-1.66,1.2-2.65.1-4.32-.73-1.11-1.09-2.45-1.79-3.58-2.21-3.57-1.19-7.44-1.15-11.22,0-2.93-.07-5.87,0-8.81,0-1.89-1-2.83-2.61-3.39-2.49-.85-5-4.35-5.13-7a3.63,3.63,0,0,0-.79-2,6.81,6.81,0,0,1-1.58-5.08c.11-1.68.22-3.2-.94-4.89-.84-1.24-.09-3.49-.24-5.26s-.56-3.28-.84-4.92c-.08-.47-.33-1-.17-1.39,1.35-2.85,2.48-5.92,6.49-6a10.27,10.27,0,0,0,3.52-1,1.89,1.89,0,0,0,.84-1.28c.59-3.4.64-7,1.78-10.18.82-2.3.58-4.5,1-6.72.44-2.74.75-5.5,1.39-8.18.45-1.83,1.44-3.52,2.07-5.31.55-1.54.88-3.16,1.42-4.7.74-2.14,1.6-4.23,2.38-6.36a3.91,3.91,0,0,0,.19-1.23c0-2.39,1.09-4.42,2.05-6.52.73-1.62,1-3.43,1.65-5.1.57-1.51,1.33-3,2-4.43.5-1.06,1-2.1,1.54-3.15a48.79,48.79,0,0,1,2.62-5.15c1.71-2.61,3.62-5.08,5.48-7.58,1.08-1.46,2.25-2.86,3.35-4.31.5-.66.84-1.44,1.4-2C69.29,96,69.2,95,67,94.24a3.5,3.5,0,0,0-2.78.14c-1.82,1.34-3.71.84-5.49.45a24,24,0,0,1-5.32-2.12c-1.92-.95-3.68-4.7-3.25-6.71.11-.51.63-.92.84-1.43a3.39,3.39,0,0,0-1.44-4.21,1.48,1.48,0,0,1-.87-2c.49-2-.75-3.48-1.45-5-.4-.87-1.88-1.42-3-1.75a6.09,6.09,0,0,1-4.37-4.32c-.1-.29-.51-.53-.53-.8A15.81,15.81,0,0,1,39.37,64c0-.22.44-.41.47-.63.32-3.36,2.35-6,3.5-9.05A6.52,6.52,0,0,0,43.67,52c0-1.85.36-3.86-.2-5.54-2.09-6.25-.78-12.61-.91-18.91a19.52,19.52,0,0,1,1.38-6.82,33.21,33.21,0,0,1,3.7-7.71c2-2.86,4.61-5.25,6.81-8,1.83-2.24,4.45-2.76,6.9-3.8C66.54-.91,71.89.37,77.16.35a25.35,25.35,0,0,1,9.23,1.41c2.2.88,4.59,1.33,6.74,2.92a52.27,52.27,0,0,1,6.17,6c.91.93,1.25,2.42,1.87,3.64.44.86,1,1.66,1.36,2.54,1.15,2.6,2.25,5.22,3.37,7.84A2,2,0,0,1,106,25c.48,2.4.81,4.84,1.48,7.19,2.2,7.78.74,15.72,1.15,23.58a2.66,2.66,0,0,0,1.1,2.25c2,1.71,4.07,3.51,4.11,6.76a61.13,61.13,0,0,0,1.27,10.58,47.23,47.23,0,0,0,2.44,8.13c.61,1.52,1.83,2.8,3.07,4.62a17.21,17.21,0,0,0,.38-1.89c.11-2.15,0-4.33.33-6.44.44-2.88,1.23-5.71,1.77-8.58a9.65,9.65,0,0,0,.06-2.84,42.55,42.55,0,0,1-.72-4.55,13,13,0,0,0-4.62-10,5.19,5.19,0,0,1-1.8-3.49c-.2-1.79-1.53-3.42-2-5.22a25.24,25.24,0,0,1-.55-4.93,11.35,11.35,0,0,1,.13-2.33,84,84,0,0,1,1.51-10.07c.7-2.68,2.39-5.09,3.31-7.73,1.17-3.32,4.24-4.74,6.49-7a9.74,9.74,0,0,1,3.82-1.76c2.38-.79,4.78-1.9,7.23-2,4.81-.29,9.65-.05,14.48.09a8.48,8.48,0,0,1,3,.84c1.37.59,2.66,1.34,4,2a11.1,11.1,0,0,0,3.07,1.44c2.18.33,2.86,2.52,4.61,3.33A35.53,35.53,0,0,1,168.5,19a4,4,0,0,1,1.19.95c1.59,2.18,3.17,4.38,4.69,6.61.65,1,1.06,2.07,1.76,3,1.34,1.69,1.83,3.71,2.56,5.66.47,1.28,1.26,2.44,1.85,3.68a28.65,28.65,0,0,1,1.64,3.83,40.83,40.83,0,0,1,1.16,16.67c-.22,1.85-1.32,3.58-1.89,5.4a37.9,37.9,0,0,0-1.55,5.87c-.3,2,.74,2.92,2.69,3.44a10.08,10.08,0,0,1,3.1,1.57c2,1.44,4,2.94,5.91,4.54a11.18,11.18,0,0,1,2,2.57c.75,1.18,1.76,2.36,2,3.67.47,2.48,3.08,3.71,3.21,6.42.06,1.29,1.32,2.5,2,3.78a31.58,31.58,0,0,1,1.29,2.92c1,2.49,1.83,5,2.87,7.48a32.55,32.55,0,0,0,2,3.45,6.71,6.71,0,0,1,.26.83c.75,1.9,1.59,3.77,2.26,5.71a46.91,46.91,0,0,1,1.5,5.37c.58,2.67,1.09,5.36,1.5,8.06.47,3.06.85,6.12,1.16,9.19.17,1.67-.25,3.46.21,5,1.17,3.91.62,7.92,1.07,11.86a5.54,5.54,0,0,0,.5,1.29,7.38,7.38,0,0,1,0,4.91c-.63,2.26-.17,4.85-.08,7.29,0,.66.55,1.3.57,1.95.16,5.63,0,11.28.45,16.88.25,3.45,1.26,6.85,1.92,10.27,0,.23.09.47.13.71.5,2.56.85,5.18,1.55,7.69a58.11,58.11,0,0,0,2.23,5.38c.47,1.23.82,2.52,1.18,3.79.51,1.85.9,3.73,1.49,5.55s1.46,3.72,2.16,5.59a4.13,4.13,0,0,1,.28,1.55c-.06,5.15-.22,10.3-.19,15.45a11.91,11.91,0,0,0,1,3.41,5.27,5.27,0,0,1,.22.49c.8,3.94,2.09,7.85,1.39,11.94a11,11,0,0,1-1.38,3.24c-1.29,2.36-1.19,3,.38,4.86a29.54,29.54,0,0,1,2.27,3.5c.64,1,1.26,2.05,1.87,3.09a5,5,0,0,1,.58,1.24c.55,2.47.77,5.07,1.67,7.41a21,21,0,0,1,.61,12.32c-1.2,5.08-.55,10.06-.86,15.06-.09,1.38-.46,2.95,1,4.09.29.22.08,1,.19,1.56.18.78.51,1.54.62,2.33a3.91,3.91,0,0,1-.13,1.8c-.66,1.89-1.07,3.72.3,5.49a1.82,1.82,0,0,1,.31.83c.47,3,.89,6,1.4,9,.24,1.42.67,2.81,1,4.21.15.7.16,1.43.33,2.12.25,1,.63,1.91.88,2.88a9,9,0,0,1,.25,1.94,34.26,34.26,0,0,0,2.36,10.27,2.54,2.54,0,0,1,.12,1.06c-.25,2.52.9,4.53,2.28,6.46a.88.88,0,0,1,.16.32c.46,2.05.94,4.1,1.37,6.15.51,2.46.65,5.06,1.54,7.37A36.63,36.63,0,0,1,251.3,389c.15,1.65,1.12,3.21,1.7,4.83s1.2,3.46,1.81,5.19c.73,2.08,1.49,4.15,2.22,6.23.51,1.49.91,3,1.53,4.46,1.17,2.67,1.67,5.57,3.46,8.07,1.4,1.94,1.85,4.53,2.86,6.78.86,1.93,1.9,3.78,2.89,5.65.64,1.23,1.32,2.44,2,3.65a17.41,17.41,0,0,1,2.07,3.86c.62,2.51,3.4,4,3.07,7-.09.83.76,1.75,1.17,2.64,1.07,2.31,2.32,4.51,2.66,7.15.15,1.15,1.25,2.18,1.91,3.27a2.5,2.5,0,0,1,.27.63c.5,2,.87,4,1.53,5.94.56,1.63,1.58,3.09,2.18,4.71s.92,3.47,1.43,5.2c.7,2.42,1.46,4.82,2.2,7.23a2.81,2.81,0,0,1,.19.67,15.47,15.47,0,0,0,2.41,7,1.46,1.46,0,0,1,.11.52,20.23,20.23,0,0,0,2.4,7.32,1.28,1.28,0,0,1,.08.35c.44,3,.82,6,1.33,9,.36,2.12.93,4.21,1.35,6.32a4.86,4.86,0,0,1,.07,2c-.7,3.06.83,5.44,2.09,8,.85,1.72.86,3.87,1.79,5.52,1.29,2.3,1.07,4.64.84,7-.16,1.53-.5,3.88-1.45,4.32-2,.89-3,3.44-5.57,3.13a9.52,9.52,0,0,0-2.87.07c-7.41,1.51-14.92,1-22.39,1-2.93,0-6.06-.45-8.73.42-3.63,1.17-7.18.59-10.76.81-.65,0-1.33-.57-2-.65a14.84,14.84,0,0,0-3.33-.06c-1,.12-2,.72-3,.74-5.63.16-11.3-.19-16.84,1.24-2.2.56-4-.59-5.81-1.44-.53-.25-.87-2.11-.5-2.83a23.33,23.33,0,0,1,3.45-4.78,7.2,7.2,0,0,1,2.86-1.84c1.71-.63,3.53-1,5.29-1.44l8.22-2.28a4.59,4.59,0,0,1,1.23-.13c2.58-.05,5.17.1,7.73-.16a55.81,55.81,0,0,0,7.76-1.46C254.9,529.67,255.42,528.8,256.27,528ZM196.88,350.91c-1.22,1-2.44,1.9-3.53,2.94-2.4,2.28-4.72,4.64-7.08,7-1.87,1.85-3.66,3.8-5.66,5.51-.82.7-.85.88-.09,1.55a56.29,56.29,0,0,1,5.09,4.79,30.46,30.46,0,0,1,3,4.4c.57.91,1,1.92,1.53,2.85,1.13,1.93,2.37,3.79,3.45,5.75.95,1.75,1.72,3.6,2.62,5.38.37.74.88,1.41,1.32,2.12a34.47,34.47,0,0,1,1.94,3.17c.65,1.34,1.13,2.77,1.71,4.15.14.36.39.67.52,1,.59,1.66,2.2,2.88,2,4.88,0,.43.37.89.6,1.33a25.45,25.45,0,0,1,1.7,3.38c.61,1.9,1,3.89,1.47,5.83a2,2,0,0,0,.13.34c1.12,2.43,2.36,4.81,3.33,7.3,1.1,2.81,1.94,5.71,2.91,8.56a11.83,11.83,0,0,0,1.2,3,33.73,33.73,0,0,1,3.73,7.54c.79,2.06,2.36,3.75,2.78,6.08.23,1.32,1.31,2.48,1.83,3.78,1,2.49,1.88,5,2.81,7.54.48,1.31.89,2.65,1.47,3.91.68,1.45,1.54,2.82,2.27,4.26.5,1,.81,2.1,1.39,3.05,1.1,1.82,2.38,3.55,2.34,5.82a1.68,1.68,0,0,0,.14.52l2.15,6.39c.52,1.54,1,3.1,1.59,4.62a24,24,0,0,0,1.34,2.8,33.88,33.88,0,0,1,2,3.68c.67,1.73,1,3.58,1.59,5.35.37,1.19.83,2.34,1.28,3.5,1.11,2.87,2.29,5.73,3.36,8.62,1,2.7,1.64,5.56,2.92,8.11.8,1.59,1.91,3.31,4.38,3.27,6.71-.11,13.43-.18,20.13.12,2.58.12,4.68-1,6.91-1.62,2.39-.71,4.55-2.24,6.75-3.51a18.89,18.89,0,0,0,2.73-2.1c.51-.45.79-1.21,1.35-1.53,1-.6,1-1.34.71-2.28a11.08,11.08,0,0,1-.52-1.85c-.52-3.81-1-7.62-1.5-11.42a1.28,1.28,0,0,0-.09-.53,19,19,0,0,1-2.44-7.83,43.54,43.54,0,0,0-1.38-5.82,38.89,38.89,0,0,0-1.28-3.77c-1.11-2.87-2.26-5.73-3.4-8.58-.72-1.8-1.5-3.57-2.17-5.38s-1.2-3.39-1.67-5.12c-.53-1.93-.83-3.92-1.4-5.83-.72-2.37-1.63-4.69-2.45-7a5.18,5.18,0,0,0-.26-.65c-.67-1.23-1.42-2.43-2-3.7s-1-2.67-1.62-3.95c-1.1-2.31-2.28-4.58-3.44-6.85q-1.11-2.17-2.29-4.31c-.89-1.58-1.89-3.1-2.72-4.71-.65-1.27-1-2.68-1.7-3.93-1.09-2-2.27-4-3.5-5.93a5.86,5.86,0,0,0-1.64-1.65c-.12-.08-.87.57-1.19,1-.5.68-.86,1.45-1.33,2.16a67.51,67.51,0,0,0-4.19,6.53c-.65,1.33-1.25,1.49-2.57,1.09,0-1-.38-2.2.07-2.9,1.59-2.45,3.47-4.71,5.23-7.05.24-.32.4-.71.62-1,.54-.78.94-1.88,1.68-2.25,1.44-.72.85-1.59.54-2.49-.21-.6-.6-1.14-.77-1.74s-.07-1.34-.31-1.93a48.85,48.85,0,0,1-2.05-4.64c-.67-2.3-1-4.7-1.53-7.05a8.28,8.28,0,0,0-.13-.89c-.73-2.19-1.56-4.35-2.21-6.56A24.17,24.17,0,0,1,246,379a2.37,2.37,0,0,0-.25-1,36.28,36.28,0,0,1-2.06-4.72c-.67-2.46-.72-5.12-1.6-7.49a18.06,18.06,0,0,1-1.18-5.8,2.27,2.27,0,0,0-.26-.66,47.67,47.67,0,0,1-2-5.09c-.43-1.58-.4-3.17-1-4.82-1-2.63-1.12-5.64-1.53-8.49-.2-1.3-.06-2.67-.37-3.93-.63-2.56-1.73-5-2.09-7.63a5.2,5.2,0,0,0-2-3.89,33.79,33.79,0,0,1-5.12,2.13c-2.72.66-5.52.95-8.28,1.39-.24,0-.48.06-.71.11-3,.75-6,2.18-9,2.14-8.28-.12-16.65,1.59-24.86-.94-2.34-.72-4.81-1-7.19-1.59-2.6-.67-5.12-1.7-7.75-2.19-2.85-.52-5.94.33-8.63-1.32-.89-.55-2.16-1-2.49-1.85a19.26,19.26,0,0,1-1.41-5.91c-.21-3.58-.09-7.19,0-10.79a22.38,22.38,0,0,1,.79-3.1,12.55,12.55,0,0,0,.2-2.67c0-.11-.86-.42-1-.28-2.85,2.32-5.72,4.62-8.44,7.08a34.19,34.19,0,0,0-5.17,5.46,17.7,17.7,0,0,1-5.23,5.22,2.72,2.72,0,0,1-3.71-1.36,24.68,24.68,0,0,0-1.48-2.78l-.6.2a16.59,16.59,0,0,1-.39,1.86,17.49,17.49,0,0,1-1.44,3.88,61.78,61.78,0,0,1-4.92,6.95c-1.24,1.48-2.24,3.62-4.85,3.18a1.24,1.24,0,0,0-1,.26c-1,1.24-1.89,2.53-2.82,3.81-2,2.72-4,5.41-5.92,8.15-1,1.4-1.87,2.86-2.73,4.34-.65,1.13-1.12,2.35-1.78,3.47-1.07,1.81-2.26,3.54-3.33,5.34a38.3,38.3,0,0,0-2.11,4A21.13,21.13,0,0,0,98.66,364c-.58,2.81-.9,5.68-1.34,8.52a8.42,8.42,0,0,1-.24.86c-.7,2.4-1.43,4.79-2.1,7.2-.57,2.06-1.09,4.15-1.63,6.22,0,.12-.13.21-.16.32-.84,2.65-2.49,5.08-2.08,8.05a8.66,8.66,0,0,1,0,2.33c-.34,2.75-.94,5.48-1.09,8.24-.57,10,.28,20.06-1,30.12-.78,6.29-1.1,12.78.61,19.21.82,3.09.22,6.55.32,9.84.15,5-.85,10,.87,14.88.42,1.19,0,2.63.22,3.94.35,2.77,1.09,5.52,1.19,8.29.2,5.57.26,11.16,0,16.72a84.42,84.42,0,0,1-1.41,9.69c0,.25-.37.44-.52.69-.84,1.37-.43,3.78.86,4.56.54.32,1.28.29,1.86.57,2.31,1.09,4.6,2.24,6.9,3.37,1.17.57,2.34,1.17,3.52,1.72a37.9,37.9,0,0,0,4.48,2c2,.63,4.11,1,6.17,1.49.17,0,.32.17.49.21,2.44.69,4.85,1.46,7.32,2a25,25,0,0,0,3.58.09c1.74.13,3.2.14,3.72-2.1,1-4.36.66-8.7.14-13.05,0,0-.12-.09-.12-.13,0-2.28-.1-4.55-.05-6.83a27.62,27.62,0,0,0,.37-3.22c-.22-2.15-1-4.27-1-6.41-.07-8,.07-16,.13-24a6.75,6.75,0,0,1,.2-1.42,26.92,26.92,0,0,0,.89-3.48c.55-5.44-.63-11,1-16.41.94-3.12,2.05-6.35,1.61-9.76,0-.2.13-.43.21-.64a51.13,51.13,0,0,0,2-6c.44-2.08.23-4.18,1.07-6.33,1.06-2.71,1.16-5.79,1.67-8.7a3.91,3.91,0,0,1,.11-.71c1.11-2.5,2.24-5,3.34-7.48,1-2.17,1.9-4.36,2.87-6.53a28.65,28.65,0,0,1,1.43-3c1.06-1.82,2.21-3.58,3.28-5.39,1.77-3,3.47-6.05,5.31-9,.56-.91,1.92-1.5,2.13-2.42.52-2.3,2.57-3.47,3.52-5.46,1-2.15,2.76-4,4.18-5.93a40.85,40.85,0,0,1,3-4c2.34-2.49,4.87-4.82,7.27-7.26,2-2.07,4-4.22,6-6.31,1.12-1.17,2.41-2.19,3.45-3.43,1.38-1.64,2.41-3.59,3.91-5.1a31.36,31.36,0,0,1,5.56-4.38C195.72,348.28,195.51,348.89,196.88,350.91ZM169.59,105.2c.45,2.9-.08,3.55-2.67,3.67a21.22,21.22,0,0,0-4.46.31c-2,.54-3.78,1.74-5.76,2.16a5,5,0,0,0-2.89,2.24c-1.29,1.62-2.34,3.44-3.51,5.15-1,1.45-2.08,2.83-3,4.31-1.2,1.94-2.34,3.93-3.4,6a27.33,27.33,0,0,0-1.44,3.54c-.57,1.58-1.05,3.2-1.64,4.78a20.07,20.07,0,0,1-1.31,2.87c-.62,1.1-1.75,2.07-1.94,3.22-.39,2.33-2.32,3.53-3.4,5.33-.73,1.21-1.83,2.1-1.75,3.75a19,19,0,0,1-.24,5c-.58,2.7-1.55,5.32-2.23,8-.45,1.75-.1,3.52-1,5.38-1.09,2.32-1.19,5.14-1.49,7.76-.59,5.16-.68,10.41-1.66,15.49a62.91,62.91,0,0,0-1,7.71c0,.12,0,.27,0,.35-1.52,2.13-.86,4.6-1.12,6.92a13.53,13.53,0,0,1-.45,2.08c-.27,1-.66,1.95-.85,2.95s.39,1.47,1.38,1.14,2-.8,3-1.21c2-.83,4.13-1.52,6.07-2.53a49.15,49.15,0,0,0,5.74-3.64c1.67-1.2,3.22-2.58,4.79-3.91,2.29-2,4.59-3.91,6.83-5.92,1.6-1.43,3.11-3,4.68-4.44a42.58,42.58,0,0,0,4.81-4.57c2.4-3.1,5.48-5.34,8.55-7.61,1.73-1.28,3.58-2.4,5.33-3.66,1.38-1,2.68-2.12,4-3.15a18.15,18.15,0,0,0,2.21-1.61c1.62-1.68,3.22-3.38,4.66-5.2a56.24,56.24,0,0,0,4-5.81c1.29-2.14,2.38-4.41,3.52-6.64a32.49,32.49,0,0,0,2.74-5.71,39.51,39.51,0,0,0,1.31-7.95,55.08,55.08,0,0,0,0-9.35,55.65,55.65,0,0,0-1.81-7.5c-.25-1-.45-2-.74-3.33,1.12.11,2.25,0,2.41.27,1,2.12,2.44,4.3,2.57,6.53.35,6,.12,12,.07,18a5.06,5.06,0,0,1-.58,1.58c-.59,1.58-1.18,3.18-1.78,4.76s-1.2,3.18-1.83,4.76a15.93,15.93,0,0,1-1,2.35c-1.14,1.89-2.36,3.73-3.52,5.6a30.35,30.35,0,0,1-1.93,3.28c-1.3,1.58-2.88,2.92-4.17,4.5-2,2.42-4.59,3.95-7.09,5.68s-5.3,3.67-7.82,5.68c-2.79,2.23-5.47,4.6-8.13,7-1.59,1.44-3,3.06-4.55,4.56a57.2,57.2,0,0,0-5.61,5.5c-1.25,1.61-3.1,2.19-4.48,3.5a45.37,45.37,0,0,1-4.52,3.77c-2.55,1.87-5.21,3.6-7.79,5.44-2.39,1.71-4.77,3.37-7.87,3.49a1.3,1.3,0,0,0-1,.37c-.47.73-1.21,1.56-1.17,2.31.33,6.05.81,12.09,1.25,18.13a3.11,3.11,0,0,0,.25,1,17.66,17.66,0,0,1,2.16,7.61,10.63,10.63,0,0,0,.31,3c.63,2,1.42,3.86,2.24,5.74a24.54,24.54,0,0,0,2.12,4,23.72,23.72,0,0,0,2.79,3.06c2.26,2.27,4.53,4.54,6.88,6.71.36.33,1.26.24,1.84.1,1-.24,1.93-1,2.9-1,3.77-.12,7.55,0,11.32-.08a19.07,19.07,0,0,0,3.93-.3c2.46-.53,4.85-1.51,7.32-1.83a31.45,31.45,0,0,0,8.93-2.47,39.94,39.94,0,0,1,7.67-2.56,24.9,24.9,0,0,0,8.47-4c.6-.4,1.22-.78,1.84-1.15,1.69-1,3.85-1.64,4.94-3.08,1.26-1.68,3.09-2.1,4.57-3.14,1.83-1.29,4.11-1.91,6.18-2.85,1-.47,2-1,3-1.54,1.59-.85,3-2.11,5-2,.65.05,1.32,0,2,0,1.2.07,1.84-.31,2-1.64.24-1.73.85-3.42,1.08-5.15a11.77,11.77,0,0,0-.1-3.93c-.66-3.23-1.5-6.43-2.3-9.63-.18-.73-.45-1.42-.69-2.13-.57-1.71-1.15-3.41-1.71-5.12s-1.12-3.66-1.71-5.47-1.39-3.85-1.91-5.81c-.62-2.28-1-4.61-1.55-6.92a.85.85,0,0,0,0-.17,64.84,64.84,0,0,1-2.14-7,35.66,35.66,0,0,1-.24-6c-.05-4.13,0-8.27-.13-12.39-.11-2.63-.78-5.24-.85-7.86-.16-6.05.06-12.11-.2-18.15-.18-4.21-.91-8.39-1.4-12.59a4.43,4.43,0,0,0-.19-.69c-.7-2.23-1.57-4.43-2.07-6.71-.63-2.89-1-5.84-1.44-8.77a2.5,2.5,0,0,0-.16-.51c-1.19-3.24-2.36-6.49-3.59-9.71-.23-.62-.89-1.13-1-1.74a17.62,17.62,0,0,0-2.53-5.93c-1.52-2.72-2.44-5.76-3.82-8.56a40.88,40.88,0,0,0-4.19-7.24c-2.55-3.23-6.07-5.39-9.65-7.35a2.28,2.28,0,0,0-2,.11,48.81,48.81,0,0,0-4.31,3.82c-2,1.88-3.84,3.84-5.79,5.73-2.63,2.54-5.3,5-7.94,7.59-1,.91-1.85,1.86-2.79,2.79a40.66,40.66,0,0,1-4.63,4.47c-1.74,1.25-2.3,3.25-3.67,4.68a20.69,20.69,0,0,0-2.28,2.31c-1.45,2-2.77,4.17-4.14,6.26a16.13,16.13,0,0,0-1,1.51c-1.38,2.73-1.65,6-3.78,8.35a3.72,3.72,0,0,0-1.11,1.86c-.16,2.81-.16,5.62-.18,8.44a.57.57,0,0,0,1.12.15c.84-2.25,1.58-4.54,2.47-6.76a55.86,55.86,0,0,1,2.65-5.9,33.85,33.85,0,0,1,3-4.34,42.07,42.07,0,0,0,3.06-3.66,16.79,16.79,0,0,1,5.79-5.27,55.87,55.87,0,0,1,6.05-2.78C164.25,104.79,166.86,105.6,169.59,105.2ZM88,96.59l-.58-.31a9.34,9.34,0,0,1,.26-3c1-2.11,2.48-4,3.21-6.15a29.73,29.73,0,0,1,2.65-5.07c1.67-2.89,4.26-4.84,6.78-6.76,2.2-1.68,4.9-2.71,7.41-4,1.09-.56,3.63-4.24,3.34-5.36-.36-1.4-.69-3.07-1.64-4s-2-2.36-3.65-1.58A51,51,0,0,0,101,63.25a6.75,6.75,0,0,0-.64.56C98.94,65,97.5,66.1,96.13,67.3c-1.56,1.36-3,2.79-4.6,4.16-1.39,1.24-2.89,2.38-4.21,3.68a46.3,46.3,0,0,0-3.74,4.18,40.72,40.72,0,0,0-2.76,4c-.84,1.36-1.5,2.83-2.36,4.18-1.53,2.43-3.12,4.82-4.74,7.19s-3.13,4.45-4.7,6.66c-1.34,1.89-2.73,3.74-4,5.65-1.67,2.49-3.32,5-4.9,7.54-1,1.56-1.81,3.19-2.71,4.79-.67,1.18-1.38,2.34-2,3.54s-1.21,2.48-1.74,3.75-1.16,2.84-1.68,4.29c-.68,1.86-1.41,3.71-1.93,5.62-.6,2.26-1,4.57-1.49,6.86a3.38,3.38,0,0,1-.11.34c-.74,2-1.63,3.89-2.18,5.9-.64,2.36-1,4.79-1.44,7.19a1.78,1.78,0,0,1-.16.51,14.49,14.49,0,0,0-2.3,7.81,7.15,7.15,0,0,1-.32,1.93c-.66,2.33-1.55,4.62-2,7A27.21,27.21,0,0,0,40,180a1.74,1.74,0,0,0,1,1.29c2.45.56,5.15-.27,7.4,1.38,5.72-.17,11.51,1,17.12-1.16,1.15-.44,1.91-.79,1.94-2.11,0-1.5,1.12-2.17,2.27-2.8a9.78,9.78,0,0,0,1.54-1c1.07-.85,2.06-1.83,3.18-2.61a7.78,7.78,0,0,0,2.83-8.84A48.06,48.06,0,0,1,75,156.47c-.52-3-.59-6.09-1-9.13-.59-4.62-1-9.4.68-14.11a66,66,0,0,1,3.93-10c.77-1.42,1.84-2.25,4.06-1.26-.62.76-1.12,1.4-1.64,2-.35.42-.93.76-1.07,1.23-.52,1.83-.91,3.7-1.36,5.55-.05.23-.21.42-.28.64-.66,2-1.67,3.94-1.89,6a20.4,20.4,0,0,0,.73,8.35c1.05,3.47.75,7.34,1.71,10.86a36.23,36.23,0,0,1,1.1,5.6c0,.22.28.41.3.63a20.55,20.55,0,0,1,.13,2.82A11.7,11.7,0,0,1,80,167.9c-.55,2,1.12,3.55,1.13,5.38,0,8.51,0,17-.09,25.53-1.5,2.4-1,5.14-1.25,7.73a2.66,2.66,0,0,1-.2.68c-.71,2-1.45,4-2.1,6-.23.73-.17,1.55-.35,2.3-.71,3-1.48,6.09-2.2,9.14-.52,2.17-1,4.36-1.49,6.54,0,.16-.23.29-.29.45-.64,1.67-1.28,3.34-1.9,5s-.74,3.47-1.74,4.67c-2.42,2.91-1.82,6.64-3.21,9.8a46.77,46.77,0,0,0-1.69,5.89c-.35,1.21-.7,2.41-1.13,3.59-.77,2.1-1.6,4.18-2.4,6.26a4.08,4.08,0,0,1-.26.64,4.12,4.12,0,0,0,.57,5.63c1.08,1,2.07,2.21,3.24,3.15,2.66,2.14,5.42,4.16,8.11,6.27,1,.78,1.88,1.75,2.89,2.52,2,1.51,4,3,6.8,2.66-.3,2.21,1,2.49,2.49,2.49,1.31,0,2.58-.06,2.59-1.88a1.19,1.19,0,0,1,.27-.62c1.91-2.66,4-5.2,5.69-8a90.52,90.52,0,0,0,3.9-8.34c.39-.85.85-1.68,1.2-2.55.62-1.56,1.14-3.15,1.77-4.7s1.5-3,2-4.52c.62-2.11.94-4.3,1.39-6.46a3.57,3.57,0,0,1,.1-.35c1.2-3.22,2.36-6.46,3.63-9.65a26.51,26.51,0,0,1,1.69-2.91c1.1-1.91,2.24-3.8,3.22-5.77.66-1.31,1-2.77,1.58-4.12.68-1.54,1.85-3,2.12-4.56A46.29,46.29,0,0,1,118.4,218a52.78,52.78,0,0,0,1.53-6.91c.09-.4.19-.8.27-1.21.71-3.51,1.63-7,2.07-10.52.38-3,.32-6,1-9,1-4.34,1.08-8.88,1.54-13.33a23.32,23.32,0,0,1,.35-3.37c.6-2.25,1.56-4.41,2-6.68s.64-4.34,1.11-6.51c.85-3.93,2.17-7.91,1.57-12.08a4.36,4.36,0,0,1,0-1.25c.71-5.45-1-10.7-1.37-16a1.51,1.51,0,0,0-.09-.53q-1.08-2.27-2.18-4.53c-.44-.92-.85-1.85-1.33-2.75-1-1.88-2.06-3.78-3.17-5.62-1.47-2.41-4-3.51-6.28-5-1.48-.94-2.9-2-4.31-2.91.93-2,2.4-2.58,3.88-1.75a40.42,40.42,0,0,1,5.93,4.26,28.74,28.74,0,0,1,4.47,5,34.63,34.63,0,0,1,2.95,4.92,32.77,32.77,0,0,1,2.6,7.37,88.49,88.49,0,0,1,1.39,8.92c.16,1.24.05,2.51.11,3.77a10.39,10.39,0,0,0,.32,1.5c1.94-1,2.46-2.18,1.81-3.44a6.13,6.13,0,0,1-.78-2.38c-.15-3.47-.13-6.94-.27-10.41-.07-1.78.1-3.47-1-5.28-1.38-2.35-1.9-5.2-2.81-7.84,0-.15-.21-.26-.28-.41-.71-1.5-1.47-3-2.1-4.54s-1-2.94-1.59-4.38c-.69-1.75-1.44-3.46-2.18-5.19a12.43,12.43,0,0,0-1-2.15c-1.26-1.81-2.85-3.44-3.85-5.39-1.35-2.61-3.74-4.52-4.35-7.69-.45-2.3-2-4.39-2-6.9,0-1.25-.12-2.51-.23-3.76-.1-1-1.28-1.79-2-1.21a35.21,35.21,0,0,1-6.1,4,22.15,22.15,0,0,0-6.12,4.91,35,35,0,0,0-4.28,6.15c-1,1.69-1.55,3.67-2.6,5.34A23.63,23.63,0,0,1,88,96.59Zm6.31,199.92a19.41,19.41,0,0,1-1.85,2.39c-1.42,1.3-3,2.43-4.41,3.74A22.39,22.39,0,0,0,85,306c-1.19,1.68-2.22,3.48-3.27,5.25s-2.18,3.71-3.14,5.63c-.61,1.2-.88,2.58-1.49,3.78-1.08,2.13-2.22,4.23-3.49,6.25a35.33,35.33,0,0,1-3.26,4.36c-2,2.33-5.15,2-7.7,2.4-4.46.68-9.08.24-13.63.4a3.68,3.68,0,0,0-2.51,1,42.51,42.51,0,0,0-3.93,5.74,61,61,0,0,0-3.67,7.43,67.12,67.12,0,0,0-2.6,8.34c-.92,3.63-1.71,7.31-2.38,11a70.22,70.22,0,0,0-1.38,10.26c-.2,8.63-.11,17.27-.08,25.9,0,.93.46,1.84.55,2.77.13,1.22.14,2.45.15,3.67,0,.39-.21.79-.19,1.18.29,6.72.65,13.44.89,20.16.23,6.44-.73,12.86.79,19.34,1.13,4.8.17,9.88,1.08,14.9,1.29,7.1,0,14.48,1.43,21.69.4,2.07-.77,4.4-.75,6.6.07,5.81-.23,11.58.65,17.44.91,6.11.26,12.44.34,18.68,0,2-.26,4,1,5.93s1.64,2.84,4.09,2.67c1.48-.11,2.91-.84,4.39-1,3.9-.53,7.83-.93,11.74-1.38,1-.12,2-.21,3-.41,1.25-.25,2.49-.59,3.73-.9,1.83-.46,3.7-.85,5.5-1.42,2-.63,3.83-1.64,5.83-2.12,1.52-.37,2.19-1,2.15-2.52-.13-4.68.28-9.45-.57-14a93.23,93.23,0,0,1-.91-10.07c-.41-5.2.26-10.38-.83-15.63-.83-4-.11-8.32.58-12.53,1-5.9.07-11.93,1.19-18,1.26-6.79,1.11-13.84,1.58-20.78.08-1.13.12-2.27.31-3.39.28-1.66.81-3.28,1-4.94.42-3.55-.23-7.09.87-10.73.84-2.75.75-5.9,1.52-8.81.56-2.1,1-4.25,1.46-6.37.07-.32.47-.55.61-.86a18.51,18.51,0,0,0,1.59-4.09c.67-4.28,1.11-8.6,1.67-12.9a4.8,4.8,0,0,1,.48-1.13,4.65,4.65,0,0,0,0-4c-.67.93-1.33,1.75-1.89,2.64a37.85,37.85,0,0,1-3.12,5.09c-2.29,2.61-4.87,5-7.34,7.41a1,1,0,0,1-.46.26c-1.95.54-3,2.23-4.31,3.51a23.07,23.07,0,0,1-2.89,2.53c-.48.32-1.31.12-2,.17,0-.75-.27-1.79.11-2.19,2.5-2.58,5.12-5.05,7.75-7.51,2-1.85,4.29-3.38,5.92-5.47,2.68-3.42,4.86-7.22,7.38-10.76,1.21-1.7,2.45-3.52,4.57-3.92.6-2.06,1.21-4,1.73-6s.9-3.86,1.36-5.78c0-.17.08-.42.19-.48,1.64-.85,1.17-2.78,2.08-4.07s1-2.94,1.68-4.36a22.54,22.54,0,0,1,2-3.05c1-1.46,2-2.88,3-4.35a30.23,30.23,0,0,0,1.53-2.79c.41-.79.77-1.61,1.26-2.66-1.2-.09-1.85-.17-2.5-.19-6-.15-6-.15-5.43-6.2.23-2.52.81-5,.93-7.54.07-1.35-.6-2.73-.77-4.11-.57-5-1.08-9.95-1.61-14.92a6.39,6.39,0,0,0-.18-.87c-.74-2.31-1.64-4.58-2.17-6.94C95.86,296.87,95.44,296.2,94.27,296.51Zm67-5c-.09,2.18.2,4.26-.35,6.09-1.2,4-1.1,8.08-1.26,12.16a2.48,2.48,0,0,1-.18,1c-1.83,3.71-.58,7.26.63,10.77a2.34,2.34,0,0,0,1.66,1.08c2.22.33,4.4.15,6.69.94,4,1.35,8.2,1.87,12.34,2.66a26.71,26.71,0,0,1,5.09,1.07,31.45,31.45,0,0,0,8.42,1.49c2.38.23,4.8-.07,7.19.11,4.13.3,8.11-.61,12.11-1.33.18,0,.35-.1.52-.14,3.41-.76,6.81-1.5,10.21-2.28a18.74,18.74,0,0,0,2.16-.7,35.79,35.79,0,0,1,4.48-1.7,3.41,3.41,0,0,0,2.35-4.78,6,6,0,0,1-.91-2.47c-.06-5.69,0-11.39,0-17.08a4,4,0,0,1,.26-1.76c1.42-2.73.84-5.64.52-8.4a53.37,53.37,0,0,0-2.24-9,21.26,21.26,0,0,0-2-4.39,33.2,33.2,0,0,0-3-4.35c-.57-.7-1.48-1.58-2.23-1.56s-1.81.83-2.63,1.42c-2.68,1.95-5.22,4.1-8,5.88a133.7,133.7,0,0,1-12.58,7.41c-2.76,1.37-5.7,2.71-9,2.79a3.38,3.38,0,0,0-.68.17c-3.37.72-6.72,1.9-10.12,2.05-8,.36-15.93.23-23.9.31a9.65,9.65,0,0,0-1.61.16c-4,.69-7.94,1.41-11.91,2.08-1.11.19-2.35,0-3.34.38a18.73,18.73,0,0,0-3.72,2.37c-.91.67-2.08,1.35-2.46,2.29a16.88,16.88,0,0,0-1.28,5.54c-.06,1.49.61,3,.94,4.51.51,2.29,1,4.6,1.54,6.87.39,1.53,1.66,2.3,2.36,1.59,1.64-1.66,3.26-3.33,4.89-5,3.06-3.14,6-6.43,9.23-9.37a39.37,39.37,0,0,0,7.5-9Zm-1.42-220.2c.36,2.25-.66,4.94,1.18,7.39a3.19,3.19,0,0,0,2.27,1.57c3.63.62,6.21-1.51,8.92-3.24a6.8,6.8,0,0,0,2.46-2.45c1.12-2.33,2.85-4.39,2.88-7.24a10.21,10.21,0,0,1,1.34-4.25,21.69,21.69,0,0,0,2-8.3c.09-1.13-.67-2.31-.88-3.5-.41-2.21-.18-4.41-1-6.71a66.14,66.14,0,0,0-2.72-7.36c-1.31-2.55-2-5.4-3.81-7.74A52.47,52.47,0,0,0,169,25c-1.71-1.83-3.6-3.5-5.44-5.2a24.53,24.53,0,0,0-7.93-4.52c-1.45-.55-2.85-1.27-4.34-1.71-2.15-.64-4.4-1.65-6.53-1.5-3.38.25-6.69,1.32-10,2.05a2.14,2.14,0,0,0-.35.06c-2.07.79-4.17,1.49-6.19,2.4a20.58,20.58,0,0,0-3.25,2.12,18.4,18.4,0,0,0-3.18,3.59c-2.18,2.63-2.63,5.94-4.21,8.78-.82,1.46-.9,3.35-1.2,5.07-.66,3.77.18,7.37,1.33,10.92a12.4,12.4,0,0,0,1.25,3.17,24.39,24.39,0,0,0,3.73,4.54c2,1.81,4.34,3.24,7.32,2.92a8.09,8.09,0,0,1,6.13,2c2.57,2.08,2.27,5.43,3.73,8,.6,1.07.73,2.42,1.38,3.44,1.25,2,3.69,2.16,4.7.37a41.5,41.5,0,0,0,2.66-6.07,3.71,3.71,0,0,1,3.21-2.85c.68-.08,1.29-.7,2-.78,1.2-.14,2.85-.57,3.55,0,1.45,1.21,2.77,2.81,2.61,5.05C159.77,68.21,159.85,69.59,159.85,71.27ZM46.17,331.3a7.88,7.88,0,0,0,1.11.09c4.23-.47,8.53.42,12.75-.94,1.81-.58,3.93-.2,5.9-.3a2.6,2.6,0,0,0,1.36-.28c2.38-1.86,3.67-4.52,5-7.12.42-.8.93-1.56,1.33-2.37.67-1.39,1.25-2.84,2-4.22,1-2,2-3.94,3.13-5.89a26,26,0,0,1,2.88-4.88c2.47-2.76,5.26-5.22,7.82-7.89,1.19-1.24,2.1-2.74,3.26-4a5.9,5.9,0,0,1,2.54-1.9c.54-.13,1.81.84,2,1.51.81,3,2.91,5.63,2.81,8.92a3.14,3.14,0,0,0,.23,1c.63,1.93,1.6,3.81,1.83,5.77.69,5.81,1.14,11.64,1.56,17.47.17,2.27,0,4.56,0,6.84,0,3,0,3,3.13,3.13.66,0,1.32.07,2,.08a4.88,4.88,0,0,0,5-4c.1-.39.62-.68.94-1,1.66-1.87,3.46-3.63,4.93-5.64,1.62-2.21,2.81-4.74,4.42-6.95a26.59,26.59,0,0,0,4.72-11.63,10.27,10.27,0,0,1,.24-1.6,17.12,17.12,0,0,0,.06-11.13,3.48,3.48,0,0,1,0-1.57,18.9,18.9,0,0,0,.68-3.06c.05-9,0-18,0-27a2.29,2.29,0,0,0-.1-1.06c-.95-1.67-2-3.3-3-5.12a48.12,48.12,0,0,0-7.27.08,83.31,83.31,0,0,0-9,2.24c-1.62.42-3.23.88-4.84,1.36a1,1,0,0,0-.46.48q-1.89,3.89-3.74,7.78c-.45.95-.91,1.9-1.29,2.87-.6,1.51-1,3.09-1.74,4.54-1,2.19-2.25,4.3-3.38,6.44a38.08,38.08,0,0,1-1.92,3.7A72.56,72.56,0,0,1,88.68,292c-.74.9-1.42,2.85-3.15,1-.13-.15-.46-.11-.68-.2a12.86,12.86,0,0,0-2.73-1.14c-1.08-.2-2.52-.46-3.28.07a80,80,0,0,0-6.79,5.57c-4,3.46-6.89,7.81-9.68,12.23-.63,1-1.14,2.08-1.79,3.06-1,1.47-2.08,2.85-3,4.33-1.5,2.36-2.78,4.86-4.4,7.13s-4.54,2.84-7,3.94ZM82.35,56.53c-2.56-.43-3,1.71-3.45,2.88a18,18,0,0,1-3,5.08c-2,2.42-3.6,2.51-6.45,1-1.11-.6-2-1-2.26-2.36a10,10,0,0,0-1.34-2.54c-.73-1.29-1.47-2.58-2.18-3.88s-1-2.56-1.88-3.46C59.43,50.76,56.14,49.9,53,49a23.55,23.55,0,0,0-4.47-.3c-1.44-.1-2.27.26-2.12,2a15.61,15.61,0,0,1-1.56,7.5,16.56,16.56,0,0,1-1.52,3.24c-1.68,2.36-.59,6.56,2,7.5A9.26,9.26,0,0,1,48,70.24c1.87,1.53,3.7,3.19,3.28,6-.22,1.44.1,2.46,1.64,2.91.28.08.47.56.63.9.34.72.63,1.47,1,2.23a6.7,6.7,0,0,0,.16,7.38c1.16,1.52,2.92,1.59,4.45,2.29a5.44,5.44,0,0,0,4.7-.09,5.11,5.11,0,0,1,5,.42,2.51,2.51,0,0,0,3.75-1.09,22,22,0,0,1,1.71-2.49c1-1.32,2.46-2.49,2.89-4a15.4,15.4,0,0,1,2.71-5.19,65.87,65.87,0,0,1,5-5.7c1.36-1.37,3-2.45,4.38-3.83.42-.43.27-1.43.38-2.16-1.84,0-2.62-1.66-3.88-2.58-2.07-1.5-3.56-3.24-3.37-6C82.4,58.39,82.35,57.49,82.35,56.53Zm42.57,3.81a9,9,0,0,0,.26,2,21.52,21.52,0,0,1,.51,12.52,65,65,0,0,0-1,7,4.44,4.44,0,0,1-.42,1.84c-1,1.65-.63,2.65,1.28,2.88,4.42.54,6.77,3.19,6.94,7.66a3.83,3.83,0,0,0,.78,2.19,6.17,6.17,0,0,1,1.63,5.4,1.86,1.86,0,0,0,.93,2.37c.73.37,1,1.58,1.57,2.33s1.25,1.9,2.12,2.22c2.87,1.06,5.09.06,6.72-2.47a54.49,54.49,0,0,1,3.49-4.56c.33-.42.87-.67,1.24-1.06,1.3-1.4,2.5-2.89,3.87-4.22,1.12-1.08,2.56-1.84,3.6-3,2-2.22,3.93-4.59,5.81-7,.8-1,1.42-2.12,2.13-3.19l-.43-.57a21.79,21.79,0,0,1-2.8,0c-1.13-.15-2.47-.17-3.31-.79-1.89-1.38-2.53-3.54-2.62-5.84,0-.71.16-1.69-.22-2.08-1.2-1.23-.91-2.63-.91-4a24.66,24.66,0,0,0-.14-3.75c-.06-.42-.68-.86-1.14-1.1a1.19,1.19,0,0,0-1.11.17,22.37,22.37,0,0,0-1.46,2.63c-.53,1-.78,2.36-1.56,3.13a25.89,25.89,0,0,1-5.09,4c-2.39,1.38-7.09-.51-8-3.09s-2.2-5.31-2.49-8.05c-.25-2.39-2.06-3-3.32-3.38C129.76,59.92,127.43,60.34,124.92,60.34ZM37.55,183.52c-2.53.94-4.9-.63-6.77,1.55a2.74,2.74,0,0,0,0,4c.6.6,1.37,1.42,1.37,2.14a4.68,4.68,0,0,1-1.22,2.48,3.45,3.45,0,0,0,.72,5.17,2.92,2.92,0,0,1,.45,3.65c-1.48,1.79-1.15,3.28.9,4.05s2.36,1.75,1,3.71a2.54,2.54,0,0,0,.46,2.32,8.41,8.41,0,0,0,4.2,3,8.73,8.73,0,0,0,2.55.17c.56,0,1.09-.52,1.65-.56,1.86-.11,3.06-1.37,4.5-2.3,2-1.32,3.34-3.39,5.62-4.58a31.82,31.82,0,0,1,9.05-3c3.13-.58,6.43-.3,9.66-.27,1.4,0,2.28-.31,2-1.86-.45-2.25-1-4.49-1.56-6.72-.32-1.21-.8-2.37-1.22-3.56a54.59,54.59,0,0,1-2.16-6.18c-.27-1.16-.69-1.69-1.75-1.77a6.64,6.64,0,0,0-1.78.09,58.61,58.61,0,0,1-6.35,1.3,63.11,63.11,0,0,1-7-.07c-.47,0-1.15.08-1.39-.19-1.18-1.34-2.74-.82-4.15-1-.65-.08-1.33,0-2-.17C41.94,184.49,39.54,184,37.55,183.52ZM58.1,556.36l.09.49c2.84-.57,5.66-1.33,8.52-1.68A6.3,6.3,0,0,0,72.38,549c0-2.69.09-5.39.19-8.08a18.28,18.28,0,0,1,.33-2.22c.12-.73.25-1.45.38-2.17a6.54,6.54,0,0,0-2-.23c-2.94.68-5.8,1.69-8.76,2.18-4.3.72-8.65,1.07-13,1.66a6.78,6.78,0,0,0-2.21,1c-1.23.67-2.23,1.91-3.89,1.55a1.74,1.74,0,0,0-.84.19c-2.24.75-4.44,1.64-6.72,2.22-1.31.33-2.79-.06-4.11.24-2.66.61-5.26,1.53-7.92,2.18-2.29.56-4.63.92-6.94,1.37a1.73,1.73,0,0,0-.52.13c-2.3,1.24-4.63,2.42-6.88,3.74-1.94,1.14-3.8,2.41-5.65,3.69-.15.1-.07.89.15,1.11a4.7,4.7,0,0,0,3.91,1.3,5.3,5.3,0,0,1,1.75.28c1.21.33,2.44,1.11,3.61,1C19,559.75,24.7,561,30.32,559c2.52-.88,5.36-.5,8.09-1,5-1,10.21,0,15.22-1.51C55,556,56.61,556.36,58.1,556.36ZM41.49,219.67c.27.31.76.61.76.92,0,2.44.56,5.1-.2,7.29-.92,2.63-.72,5.15-.81,7.74a3.84,3.84,0,0,0,.26,1.76c.59,1.19,1.34,2.3,2,3.46a9.86,9.86,0,0,1,1.4,2.91,1.54,1.54,0,0,0,1.95,1.5c2.64-.4,5.25-1,7.88-1.49,0,0,.1,0,.16-.07,2-.74,4-1.55,6.11-2.18s4.13-1,6.08-1.49a30.87,30.87,0,0,1,.83-3.05c.63-1.68,1.42-3.31,2-5s1.08-3.33,1.52-5c.77-2.87,1.53-5.74,2.16-8.64.29-1.33.2-2.74.39-4.1a24,24,0,0,0,.74-4,2.35,2.35,0,0,0-2.13-2.42c-5.14-.43-10.26-.41-15.2,1.29a15.3,15.3,0,0,0-3.77,2c-2.47,1.73-4.85,3.6-7.28,5.4-.49.37-1,1-1.49,1A3.14,3.14,0,0,0,41.49,219.67Zm36,69.7c-1.37-1-2.58-1.76-3.68-2.67-2.62-2.18-5.13-4.5-7.8-6.61-2-1.6-3-1.49-4.65.47A33.34,33.34,0,0,1,53,287.68c-.8.49-1.69.85-2.52,1.28s-1.91,1.05-2.89,1.51c-1.66.77-3.29,1.83-5,2.15a8.79,8.79,0,0,0-4.49,2.27c-1,.89-.86,3.19.18,4.12,2.21,2,2.18,3.44.9,6.2a6.29,6.29,0,0,0-.08,4.67c1,2.17,1.29,2.88-.08,4.84l3.07,3.4.33-.24v4.94a2.74,2.74,0,0,1,3.08.92c.9.9,4.85-.5,5.67-1.68,1-1.37,2.15-2.45,2.74-4.21.72-2.13,2.38-3.93,3.65-5.87a7.05,7.05,0,0,0,1-1.48,23.52,23.52,0,0,1,4.65-7.77c1.64-2,3.57-3.73,5.33-5.62C71.15,294.29,73.73,291.45,77.47,289.37Zm2.08,258.19.08-.41,9.41,2c.17,0,.32.14.49.19a38.73,38.73,0,0,0,6,1.92c2.28.37,4.57,1.5,7,.47.27-.12.69.17,1,.18a21,21,0,0,0,2.75,0,19,19,0,0,0,2.44-.54c1.89-.47,3.82-.84,5.65-1.48a8,8,0,0,0,3-1.86,9.43,9.43,0,0,0,2.6-6.43c0-.59.7-1.12.79-1.73s.18-2-.14-2.15a30.42,30.42,0,0,0-4.47-1.36,16.42,16.42,0,0,1-1.9-.43c-1.39-.58-2.69-1.54-4.13-1.83-1.91-.39-3.87-.28-5.61-1.54a22.57,22.57,0,0,0-3.92-1.68c-2.22-1-4.42-2.06-6.62-3.11a8.74,8.74,0,0,0-2.14-1c-1.32-.21-3.19-.72-3.93-.07-1.78,1.54-4.08,2.55-5.33,4.73A4.82,4.82,0,0,1,78.31,534c-.25,0-.65.17-.73.37a19.61,19.61,0,0,0-1.41,3.9c-.44,2.5-.63,5.05-.89,7.58a1.35,1.35,0,0,0,1.4,1.68C77.63,547.59,78.59,547.56,79.55,547.56Zm141.74-5.21a22.13,22.13,0,0,0,3.3.21c3.83-.32,7.64-1,11.47-1.06,7.06-.2,14.13-.08,21.19-.13,1.14,0,2.55.2,3.34-.37,1.72-1.24,3.53-.82,5.32-.91,7.69-.41,15.47,1.16,23.07-1.21,2.07-.64,4.23-1,6.33-1.51.27-.06.47-.46.66-.74,1.81-2.55,1.06-5.47,1.17-8.27a1.12,1.12,0,0,0-.11-.51c-.76-1.53-1.51-3.06-2.29-4.57-1.14-2.24-2.52-2.84-4.86-1.22a21.3,21.3,0,0,1-3.28,1.8c-1.27.57-2.69.85-3.88,1.53a15.08,15.08,0,0,1-8.31,2.23c-3.41-.15-6.83-.1-10.24,0-1.79,0-4.21-.86-4.56,2.25,0,0-.08.07-.13.1-2.21,1.22-4.31,2.82-6.67,3.56a43.12,43.12,0,0,1-8.59,1.38c-2.26.22-4.55.1-6.82.19a7.83,7.83,0,0,0-1.9.39,63.57,63.57,0,0,1-6.78,1.94C225.61,538,223,539,221.29,542.35ZM87.36,411.77l-.84-.07c-.08.73-.19,1.45-.24,2.18-.1,1.61,0,3.24-.28,4.83-.14.9-.93,1.72-1,2.62C84.61,424.19,85,427,84,430c-.92,2.66-.76,5.66-1.33,8.52-.93,4.59-.13,9.42-1.14,14.14-.66,3.07-.35,6.33-.64,9.49-.18,2-1,4.07-1,6.09.3,13.25-1.14,26.53.92,39.76.88,5.61,1.1,11.33,1.56,17,.11,1.35.84,1.54,1.79,1.07,1.41-.69,2.5-1.59,2.18-3.53a9.17,9.17,0,0,1,.12-4.27,36.85,36.85,0,0,0,2-9.47c.24-3.34.13-6.71.33-10.05.12-2,.7-3.82.22-6.09a90.7,90.7,0,0,1-1.56-15.3c-.25-6.34-.11-12.7-.16-19.06a14,14,0,0,0-.18-2.5,33.06,33.06,0,0,1-1-4.94c-.13-4.49-.17-9,0-13.48.25-5.75.83-11.49,1.14-17.24C87.49,417.33,87.36,414.55,87.36,411.77Zm45.17,69.5c4.24.93,8.05-.75,12-1.39a.46.46,0,0,0,.16-.07c1.3-.68,2.66-1.26,3.88-2.06,1.07-.69,2-1.63,3-2.42,1.65-1.3.8-2.39-.2-3.52-.14-.16-.09-.47-.16-.7-.51-1.5-1-3-1.57-4.49a22.28,22.28,0,0,0-1.23-2.56c-1.17-2.14-2.44-4.24-3.55-6.4-.61-1.19-.91-2.53-1.51-3.73-1-2.05-2.36-4-3.22-6.08a53,53,0,0,1-1.65-6.06c-.05-.19-.25-.33-.65-.81-.29,1.32-.46,2.32-.73,3.3-.66,2.36-1.52,4.67-2,7.05-.59,2.86,0,5.78-1,8.74-1.16,3.59-.3,7.55-1.37,11.37C131.85,474.49,132.53,478,132.53,481.27Zm-.28,22.59c.94-.06,1.83.15,2.32-.2,1.9-1.37,4.08-1,6.16-1.24l.18,0c4-.78,8.07-1.61,12.13-2.33a3.89,3.89,0,0,0,3.15-3.38c.51-3.42-1.44-6.15-3.06-8.52-1.48-2.17-2.19-4.58-3.62-6.88-2.25.57-4.58,1.15-6.88,1.77-.77.21-1.5.78-2.24.77a13,13,0,0,0-7.58,2.31c-1.64,1.06-2,2.42-.93,4a1.86,1.86,0,0,1,.14,1.22,14.06,14.06,0,0,0-.65,3C131.54,497.45,131.93,500.51,132.25,503.86ZM136.48,123c.92-1.48,1.83-2.33,2-3.29a13.55,13.55,0,0,1,2.53-6.08c.1-.13-.36-.85-.7-1.09a31.66,31.66,0,0,1-3.06-1.93c-1.2-1-2-2.54-3.3-3.46-1.72-1.23-1.58-2.87-1.66-4.57a3.69,3.69,0,0,0-.54-2.11c-1.15-1.29-2.07-2.54-1.87-4.41.16-1.45.11-2.91-1.22-4-1-.77-1.47-2.19-3.08-2-.24,0-.5-.48-.8-.57a15.06,15.06,0,0,0-2.73-.65c-.2,0-.75.69-.67.89a21,21,0,0,0,1.36,2.78c1.09,1.91,2.31,3.76,3.31,5.71s1.66,3.82,2.55,5.7c.3.64,1,1.11,1.23,1.76.58,1.58,1,3.23,1.49,4.83.38,1.17.84,2.3,1.29,3.44.76,1.93,1.52,3.86,2.33,5.78C135.34,120.76,135.87,121.74,136.48,123ZM78.65,173.76c-.88.26-1.36.26-1.65.5-2,1.63-4,3.23-5.83,5a2.93,2.93,0,0,0-1,3.2c.79,2.34,1.42,4.74,2.16,7.11a35.58,35.58,0,0,0,1.74,5.13c.86,1.76,2.16,3.3,2.18,5.4a5.25,5.25,0,0,0,.49,1.38C79.8,192.25,78.51,183.13,78.65,173.76ZM132.47,292.3c.66,0,1.12.21,1.34.05,1.58-1.13,3.71-1.3,4.9-3.19.49-.78,1.14-1.25.66-2.23-1.06-2.14-2.2-4.24-1.91-6.79.18-1.55,0-3,.74-4.64.6-1.29,1.42-3.26-.64-4.59a19.07,19.07,0,0,1-2.48-2.37c-.34-.32-.71-.61-1.06-.91a5.58,5.58,0,0,0-.51,1.56c0,4.56,0,9.11-.06,13.67a4.15,4.15,0,0,1-.16,1.95C131.84,287.17,132.68,289.67,132.47,292.3ZM56.55,281a16.83,16.83,0,0,0,1.52-1.08,9.73,9.73,0,0,0,1.16-1.24,7,7,0,0,0,1.65-2.33c.09-.38-1.11-1.07-1.72-1.62-.09-.08-.16-.17-.25-.26-.95-.9-2.21-.75-2.58.51A9.11,9.11,0,0,0,56.55,281Zm60.8-51.16c1.9.39,3.6-.26,3.7-1.56a60.11,60.11,0,0,0-.11-6.29l-.67-.08Z"/><path class="cls-1" d="M196.88,350.91c-1.37-2-1.16-2.63-4.09-.79a31.36,31.36,0,0,0-5.56,4.38c-1.5,1.51-2.53,3.46-3.91,5.1-1,1.24-2.33,2.26-3.45,3.43-2,2.09-4,4.24-6,6.31-2.4,2.44-4.93,4.77-7.27,7.26a40.85,40.85,0,0,0-3,4c-1.42,2-3.15,3.78-4.18,5.93-1,2-3,3.16-3.52,5.46-.21.92-1.57,1.51-2.13,2.42-1.84,3-3.54,6-5.31,9-1.07,1.81-2.22,3.57-3.28,5.39a28.65,28.65,0,0,0-1.43,3c-1,2.17-1.9,4.36-2.87,6.53-1.1,2.49-2.23,5-3.34,7.48a3.91,3.91,0,0,0-.11.71c-.51,2.91-.61,6-1.67,8.7-.84,2.15-.63,4.25-1.07,6.33a51.13,51.13,0,0,1-2,6c-.08.21-.24.44-.21.64.44,3.41-.67,6.64-1.61,9.76-1.65,5.45-.47,11-1,16.41a26.92,26.92,0,0,1-.89,3.48,6.75,6.75,0,0,0-.2,1.42c-.06,8-.2,16-.13,24,0,2.14.78,4.26,1,6.41a27.62,27.62,0,0,1-.37,3.22c-.05,2.28,0,4.55.05,6.83,0,0,.11.08.12.13.52,4.35.86,8.69-.14,13.05-.52,2.24-2,2.23-3.72,2.1A25,25,0,0,1,122,535c-2.47-.54-4.88-1.31-7.32-2-.17,0-.32-.17-.49-.21-2.06-.49-4.16-.86-6.17-1.49a37.9,37.9,0,0,1-4.48-2c-1.18-.55-2.35-1.15-3.52-1.72-2.3-1.13-4.59-2.28-6.9-3.37-.58-.28-1.32-.25-1.86-.57-1.29-.78-1.7-3.19-.86-4.56.15-.25.48-.44.52-.69a84.42,84.42,0,0,0,1.41-9.69c.22-5.56.16-11.15,0-16.72-.1-2.77-.84-5.52-1.19-8.29-.17-1.31.2-2.75-.22-3.94-1.72-4.9-.72-9.91-.87-14.88-.1-3.29.5-6.75-.32-9.84-1.71-6.43-1.39-12.92-.61-19.21,1.24-10.06.39-20.1,1-30.12.15-2.76.75-5.49,1.09-8.24a8.66,8.66,0,0,0,0-2.33c-.41-3,1.24-5.4,2.08-8.05,0-.11.13-.2.16-.32.54-2.07,1.06-4.16,1.63-6.22.67-2.41,1.4-4.8,2.1-7.2a8.42,8.42,0,0,0,.24-.86c.44-2.84.76-5.71,1.34-8.52a21.13,21.13,0,0,1,1.59-4.36,38.3,38.3,0,0,1,2.11-4c1.07-1.8,2.26-3.53,3.33-5.34.66-1.12,1.13-2.34,1.78-3.47.86-1.48,1.75-2.94,2.73-4.34,1.94-2.74,3.94-5.43,5.92-8.15.93-1.28,1.84-2.57,2.82-3.81a1.24,1.24,0,0,1,1-.26c2.61.44,3.61-1.7,4.85-3.18a61.78,61.78,0,0,0,4.92-6.95,17.49,17.49,0,0,0,1.44-3.88,16.59,16.59,0,0,0,.39-1.86l.6-.2a24.68,24.68,0,0,1,1.48,2.78,2.72,2.72,0,0,0,3.71,1.36,17.7,17.7,0,0,0,5.23-5.22,34.19,34.19,0,0,1,5.17-5.46c2.72-2.46,5.59-4.76,8.44-7.08.17-.14,1,.17,1,.28a12.55,12.55,0,0,1-.2,2.67,22.38,22.38,0,0,0-.79,3.1c-.11,3.6-.23,7.21,0,10.79a19.26,19.26,0,0,0,1.41,5.91c.33.82,1.6,1.3,2.49,1.85,2.69,1.65,5.78.8,8.63,1.32,2.63.49,5.15,1.52,7.75,2.19,2.38.61,4.85.87,7.19,1.59,8.21,2.53,16.58.82,24.86.94,3,0,6-1.39,9-2.14.23-.05.47-.07.71-.11,2.76-.44,5.56-.73,8.28-1.39a33.79,33.79,0,0,0,5.12-2.13,5.2,5.2,0,0,1,2,3.89c.36,2.59,1.46,5.07,2.09,7.63.31,1.26.17,2.63.37,3.93.41,2.85.5,5.86,1.53,8.49.65,1.65.62,3.24,1,4.82a47.67,47.67,0,0,0,2,5.09,2.27,2.27,0,0,1,.26.66,18.06,18.06,0,0,0,1.18,5.8c.88,2.37.93,5,1.6,7.49a36.28,36.28,0,0,0,2.06,4.72,2.37,2.37,0,0,1,.25,1,24.17,24.17,0,0,0,1.38,8.52c.65,2.21,1.48,4.37,2.21,6.56a8.28,8.28,0,0,1,.13.89c.49,2.35.86,4.75,1.53,7.05a48.85,48.85,0,0,0,2.05,4.64c.24.59.13,1.31.31,1.93s.56,1.14.77,1.74c.31.9.9,1.77-.54,2.49-.74.37-1.14,1.47-1.68,2.25-.22.33-.38.72-.62,1-1.76,2.34-3.64,4.6-5.23,7.05-.45.7-.07,1.93-.07,2.9,1.32.4,1.92.24,2.57-1.09A67.51,67.51,0,0,1,253,418.4c.47-.71.83-1.48,1.33-2.16.32-.42,1.07-1.07,1.19-1a5.86,5.86,0,0,1,1.64,1.65c1.23,1.94,2.41,3.91,3.5,5.93.67,1.25,1.05,2.66,1.7,3.93.83,1.61,1.83,3.13,2.72,4.71q1.19,2.13,2.29,4.31c1.16,2.27,2.34,4.54,3.44,6.85.61,1.28,1,2.67,1.62,3.95s1.36,2.47,2,3.7a5.18,5.18,0,0,1,.26.65c.82,2.34,1.73,4.66,2.45,7,.57,1.91.87,3.9,1.4,5.83.47,1.73,1.05,3.44,1.67,5.12s1.45,3.58,2.17,5.38c1.14,2.85,2.29,5.71,3.4,8.58a38.89,38.89,0,0,1,1.28,3.77,43.54,43.54,0,0,1,1.38,5.82,19,19,0,0,0,2.44,7.83,1.28,1.28,0,0,1,.09.53c.5,3.8,1,7.61,1.5,11.42a11.08,11.08,0,0,0,.52,1.85c.31.94.32,1.68-.71,2.28-.56.32-.84,1.08-1.35,1.53a18.89,18.89,0,0,1-2.73,2.1c-2.2,1.27-4.36,2.8-6.75,3.51-2.23.66-4.33,1.74-6.91,1.62-6.7-.3-13.42-.23-20.13-.12-2.47,0-3.58-1.68-4.38-3.27-1.28-2.55-1.92-5.41-2.92-8.11-1.07-2.89-2.25-5.75-3.36-8.62-.45-1.16-.91-2.31-1.28-3.5-.56-1.77-.92-3.62-1.59-5.35a33.88,33.88,0,0,0-2-3.68,24,24,0,0,1-1.34-2.8c-.58-1.52-1.07-3.08-1.59-4.62l-2.15-6.39a1.68,1.68,0,0,1-.14-.52c0-2.27-1.24-4-2.34-5.82-.58-.95-.89-2.06-1.39-3.05-.73-1.44-1.59-2.81-2.27-4.26-.58-1.26-1-2.6-1.47-3.91-.93-2.52-1.8-5.05-2.81-7.54-.52-1.3-1.6-2.46-1.83-3.78-.42-2.33-2-4-2.78-6.08a33.73,33.73,0,0,0-3.73-7.54,11.83,11.83,0,0,1-1.2-3c-1-2.85-1.81-5.75-2.91-8.56-1-2.49-2.21-4.87-3.33-7.3a2,2,0,0,1-.13-.34c-.48-1.94-.86-3.93-1.47-5.83a25.45,25.45,0,0,0-1.7-3.38c-.23-.44-.64-.9-.6-1.33.17-2-1.44-3.22-2-4.88-.13-.36-.38-.67-.52-1-.58-1.38-1.06-2.81-1.71-4.15a34.47,34.47,0,0,0-1.94-3.17c-.44-.71-.95-1.38-1.32-2.12-.9-1.78-1.67-3.63-2.62-5.38-1.08-2-2.32-3.82-3.45-5.75-.55-.93-1-1.94-1.53-2.85a30.46,30.46,0,0,0-3-4.4,56.29,56.29,0,0,0-5.09-4.79c-.76-.67-.73-.85.09-1.55,2-1.71,3.79-3.66,5.66-5.51,2.36-2.34,4.68-4.7,7.08-7C194.44,352.81,195.66,351.92,196.88,350.91Zm-38.37,1.5c-1.2.27-2.75.19-3.09.78a19.43,19.43,0,0,1-4.18,5c-2,1.8-3.91,3.75-5.91,5.56-1.42,1.29-3,2.44-4.42,3.68s-2.82,2.4-4.22,3.61c-2.9,2.51-5.8,5-8.67,7.56a4.45,4.45,0,0,0-.7,1.25,6.1,6.1,0,0,0,1.37.45c2,.12,2.91-1.45,4.13-2.6,2.2-2.07,4.45-4.09,6.72-6.09,1.06-.93,2.1-2.2,3.36-2.54,2.77-.75,4.16-3.26,6.55-4.49,2.05-1.06,2.61-3.85,4.86-4.87.13-.05.15-.31.26-.45,1-1.33,1.72-3,3-3.87S158.65,353.9,158.51,352.41Zm-43.16,87.22c-.75-1.55-1.45-3.08-2.22-4.57-.57-1.11-1.65-2.11-1.81-3.25-.52-3.68-2.18-7.21-1.45-11.06a8.9,8.9,0,0,0-.08-2c-1.07.08-2.23-.59-2.47,1.07-.69,4.71.16,9.25,1.46,13.74a.85.85,0,0,0,.06.17,45.91,45.91,0,0,0,2.52,4.37C112.17,439.18,112.86,440.92,115.35,439.63Z"/><path class="cls-1" d="M169.59,105.2c-2.73.4-5.34-.41-8.07.89a55.87,55.87,0,0,0-6.05,2.78,16.79,16.79,0,0,0-5.79,5.27,42.07,42.07,0,0,1-3.06,3.66,33.85,33.85,0,0,0-3,4.34A55.86,55.86,0,0,0,141,128c-.89,2.22-1.63,4.51-2.47,6.76a.57.57,0,0,1-1.12-.15c0-2.82,0-5.63.18-8.44a3.72,3.72,0,0,1,1.11-1.86c2.13-2.4,2.4-5.62,3.78-8.35a16.13,16.13,0,0,1,1-1.51c1.37-2.09,2.69-4.22,4.14-6.26a20.69,20.69,0,0,1,2.28-2.31c1.37-1.43,1.93-3.43,3.67-4.68a40.66,40.66,0,0,0,4.63-4.47c.94-.93,1.84-1.88,2.79-2.79,2.64-2.54,5.31-5,7.94-7.59,1.95-1.89,3.83-3.85,5.79-5.73A48.81,48.81,0,0,1,179,76.84a2.28,2.28,0,0,1,2-.11c3.58,2,7.1,4.12,9.65,7.35a40.88,40.88,0,0,1,4.19,7.24c1.38,2.8,2.3,5.84,3.82,8.56a17.62,17.62,0,0,1,2.53,5.93c.09.61.75,1.12,1,1.74,1.23,3.22,2.4,6.47,3.59,9.71a2.5,2.5,0,0,1,.16.51c.47,2.93.81,5.88,1.44,8.77.5,2.28,1.37,4.48,2.07,6.71a4.43,4.43,0,0,1,.19.69c.49,4.2,1.22,8.38,1.4,12.59.26,6,0,12.1.2,18.15.07,2.62.74,5.23.85,7.86.17,4.12.08,8.26.13,12.39a35.66,35.66,0,0,0,.24,6,64.84,64.84,0,0,0,2.14,7,.85.85,0,0,1,0,.17c.51,2.31.93,4.64,1.55,6.92.52,2,1.28,3.87,1.91,5.81s1.13,3.65,1.71,5.47,1.14,3.41,1.71,5.12c.24.71.51,1.4.69,2.13.8,3.2,1.64,6.4,2.3,9.63a11.77,11.77,0,0,1,.1,3.93c-.23,1.73-.84,3.42-1.08,5.15-.18,1.33-.82,1.71-2,1.64-.65,0-1.32.06-2,0-2-.14-3.42,1.12-5,2-1,.53-2,1.07-3,1.54-2.07.94-4.35,1.56-6.18,2.85-1.48,1-3.31,1.46-4.57,3.14-1.09,1.44-3.25,2.07-4.94,3.08-.62.37-1.24.75-1.84,1.15a24.9,24.9,0,0,1-8.47,4,39.94,39.94,0,0,0-7.67,2.56,31.45,31.45,0,0,1-8.93,2.47c-2.47.32-4.86,1.3-7.32,1.83a19.07,19.07,0,0,1-3.93.3c-3.77,0-7.55,0-11.32.08-1,0-1.91.76-2.9,1-.58.14-1.48.23-1.84-.1-2.35-2.17-4.62-4.44-6.88-6.71A23.72,23.72,0,0,1,132,260a24.54,24.54,0,0,1-2.12-4c-.82-1.88-1.61-3.79-2.24-5.74a10.63,10.63,0,0,1-.31-3,17.66,17.66,0,0,0-2.16-7.61,3.11,3.11,0,0,1-.25-1c-.44-6-.92-12.08-1.25-18.13,0-.75.7-1.58,1.17-2.31a1.3,1.3,0,0,1,1-.37c3.1-.12,5.48-1.78,7.87-3.49,2.58-1.84,5.24-3.57,7.79-5.44a45.37,45.37,0,0,0,4.52-3.77c1.38-1.31,3.23-1.89,4.48-3.5a57.2,57.2,0,0,1,5.61-5.5c1.53-1.5,3-3.12,4.55-4.56,2.66-2.4,5.34-4.77,8.13-7,2.52-2,5.18-3.84,7.82-5.68s5.12-3.26,7.09-5.68c1.29-1.58,2.87-2.92,4.17-4.5a30.35,30.35,0,0,0,1.93-3.28c1.16-1.87,2.38-3.71,3.52-5.6a15.93,15.93,0,0,0,1-2.35c.63-1.58,1.23-3.17,1.83-4.76s1.19-3.18,1.78-4.76a5.06,5.06,0,0,0,.58-1.58c.05-6,.28-12-.07-18-.13-2.23-1.56-4.41-2.57-6.53-.16-.31-1.29-.16-2.41-.27.29,1.34.49,2.34.74,3.33a55.65,55.65,0,0,1,1.81,7.5,55.08,55.08,0,0,1,0,9.35,39.51,39.51,0,0,1-1.31,7.95,32.49,32.49,0,0,1-2.74,5.71c-1.14,2.23-2.23,4.5-3.52,6.64a56.24,56.24,0,0,1-4,5.81c-1.44,1.82-3,3.52-4.66,5.2a18.15,18.15,0,0,1-2.21,1.61c-1.35,1-2.65,2.15-4,3.15-1.75,1.26-3.6,2.38-5.33,3.66-3.07,2.27-6.15,4.51-8.55,7.61a42.58,42.58,0,0,1-4.81,4.57c-1.57,1.47-3.08,3-4.68,4.44-2.24,2-4.54,4-6.83,5.92-1.57,1.33-3.12,2.71-4.79,3.91a49.15,49.15,0,0,1-5.74,3.64c-1.94,1-4,1.7-6.07,2.53-1,.41-2,.86-3,1.21s-1.59-.08-1.38-1.14.58-2,.85-2.95a13.53,13.53,0,0,0,.45-2.08c.26-2.32-.4-4.79,1.12-6.92.06-.08,0-.23,0-.35a62.91,62.91,0,0,1,1-7.71c1-5.08,1.07-10.33,1.66-15.49.3-2.62.4-5.44,1.49-7.76.87-1.86.52-3.63,1-5.38.68-2.69,1.65-5.31,2.23-8a19,19,0,0,0,.24-5c-.08-1.65,1-2.54,1.75-3.75,1.08-1.8,3-3,3.4-5.33.19-1.15,1.32-2.12,1.94-3.22a20.07,20.07,0,0,0,1.31-2.87c.59-1.58,1.07-3.2,1.64-4.78A27.33,27.33,0,0,1,143.9,129c1.06-2,2.2-4,3.4-6,.92-1.48,2-2.86,3-4.31,1.17-1.71,2.22-3.53,3.51-5.15a5,5,0,0,1,2.89-2.24c2-.42,3.79-1.62,5.76-2.16a21.22,21.22,0,0,1,4.46-.31C169.51,108.75,170,108.1,169.59,105.2Zm37,96.4c-.13.15-.27.23-.28.32-.19,4.59-.59,9.14.62,13.72,1.07,4-.14,8-1,12,0,.08-.22.11-.29.2-1.22,1.47-1.07,3-.2,4.7a10.08,10.08,0,0,0,1.76-1.32c1.82-2.19,1.57-5.09,2.41-7.63a14.43,14.43,0,0,0,.25-5.34c-.27-4.21.62-8.48-1.08-12.64C208.17,204.18,208.76,202.27,206.59,201.6Zm-68.11,47.46c.1-1.4.44-2.52.18-3.47a31.76,31.76,0,0,0-1.74-3.51,33.89,33.89,0,0,1-2-5.63,36,36,0,0,1-.2-5c-.09-1.38-1.38-2.69-2.13-2.3a2.51,2.51,0,0,0-1,3.48,3.84,3.84,0,0,1,.58,1.59c.1,3.64.09,7.14,2.37,10.46A14.54,14.54,0,0,0,138.48,249.06Zm38.34-111a11,11,0,0,1-2.47.68c-4.12.08-8.25.06-12.37.1-.47,0-1.1,0-1.37.23a3.44,3.44,0,0,0-.81,1.63c0,.19.44.7.74.76a44.44,44.44,0,0,0,7.71,1.14c2.35,0,4.7-.84,7.06-1.2C177.52,141,177.94,140.2,176.82,138Zm-5.45,70.61c-.6-.41-1.16-1.06-1.48-1a4.94,4.94,0,0,0-2.35,1.36,25.46,25.46,0,0,0-2.14,3.7c-1.52,2.77-5,3.92-5.92,7.16a10.42,10.42,0,0,1-.63,1.36c.68.09,1.66.51,2,.21a51,51,0,0,0,5.16-5,56,56,0,0,0,3.49-5C170.07,210.63,170.61,209.79,171.37,208.62Zm-18.7,40.14.58.08c.5-.72,1.38-1.42,1.43-2.17.25-3.82.44-7.67-1.5-11.19-1.81.7-2.62,2.08-1.82,3.62,1.13,2.19.71,4.42.85,6.65C152.27,246.76,152.51,247.76,152.67,248.76ZM166,116.51c.33-1.84-.23-2.66-2-2.54a11.94,11.94,0,0,1-3.38-.06c-1.49-.32-2.28.66-3.07,1.45-.36.37-.17,1.31-.15,2,0,.05,1,.23,1,.1.77-1.4,2.06-.88,3.16-.93C163,116.47,164.45,116.51,166,116.51Z"/><path class="cls-1" d="M88,96.59a23.63,23.63,0,0,0,3.09-3.34c1-1.67,1.59-3.65,2.6-5.34a35,35,0,0,1,4.28-6.15,22.15,22.15,0,0,1,6.12-4.91,35.21,35.21,0,0,0,6.1-4c.74-.58,1.92.16,2,1.21.11,1.25.21,2.51.23,3.76,0,2.51,1.58,4.6,2,6.9.61,3.17,3,5.08,4.35,7.69,1,2,2.59,3.58,3.85,5.39a12.43,12.43,0,0,1,1,2.15c.74,1.73,1.49,3.44,2.18,5.19.57,1.44,1,3,1.59,4.38s1.39,3,2.1,4.54c.07.15.23.26.28.41.91,2.64,1.43,5.49,2.81,7.84,1.07,1.81.9,3.5,1,5.28.14,3.47.12,6.94.27,10.41a6.13,6.13,0,0,0,.78,2.38c.65,1.26.13,2.46-1.81,3.44a10.39,10.39,0,0,1-.32-1.5c-.06-1.26,0-2.53-.11-3.77A88.49,88.49,0,0,0,131,129.6a32.77,32.77,0,0,0-2.6-7.37,34.63,34.63,0,0,0-2.95-4.92,28.74,28.74,0,0,0-4.47-5A40.42,40.42,0,0,0,115,108c-1.48-.83-3-.25-3.88,1.75,1.41.95,2.83,2,4.31,2.91,2.26,1.44,4.81,2.54,6.28,5,1.11,1.84,2.14,3.74,3.17,5.62.48.9.89,1.83,1.33,2.75q1.09,2.27,2.18,4.53a1.51,1.51,0,0,1,.09.53c.37,5.35,2.08,10.6,1.37,16a4.36,4.36,0,0,0,0,1.25c.6,4.17-.72,8.15-1.57,12.08-.47,2.17-.69,4.35-1.11,6.51s-1.41,4.43-2,6.68a23.32,23.32,0,0,0-.35,3.37c-.46,4.45-.54,9-1.54,13.33-.7,3-.64,6-1,9-.44,3.54-1.36,7-2.07,10.52-.08.41-.18.81-.27,1.21A52.78,52.78,0,0,1,118.4,218a46.29,46.29,0,0,0-2.38,7.86c-.27,1.6-1.44,3-2.12,4.56-.58,1.35-.92,2.81-1.58,4.12-1,2-2.12,3.86-3.22,5.77a26.51,26.51,0,0,0-1.69,2.91c-1.27,3.19-2.43,6.43-3.63,9.65a3.57,3.57,0,0,0-.1.35c-.45,2.16-.77,4.35-1.39,6.46-.46,1.56-1.34,3-2,4.52s-1.15,3.14-1.77,4.7c-.35.87-.81,1.7-1.2,2.55a90.52,90.52,0,0,1-3.9,8.34c-1.66,2.81-3.78,5.35-5.69,8a1.19,1.19,0,0,0-.27.62c0,1.82-1.28,1.87-2.59,1.88-1.51,0-2.79-.28-2.49-2.49-2.78.3-4.82-1.15-6.8-2.66-1-.77-1.88-1.74-2.89-2.52-2.69-2.11-5.45-4.13-8.11-6.27-1.17-.94-2.16-2.11-3.24-3.15a4.12,4.12,0,0,1-.57-5.63,4.08,4.08,0,0,0,.26-.64c.8-2.08,1.63-4.16,2.4-6.26.43-1.18.78-2.38,1.13-3.59a46.77,46.77,0,0,1,1.69-5.89c1.39-3.16.79-6.89,3.21-9.8,1-1.2,1.17-3.1,1.74-4.67s1.26-3.35,1.9-5c.06-.16.25-.29.29-.45.5-2.18,1-4.37,1.49-6.54.72-3.05,1.49-6.09,2.2-9.14.18-.75.12-1.57.35-2.3.65-2,1.39-4,2.1-6a2.66,2.66,0,0,0,.2-.68c.3-2.59-.25-5.33,1.25-7.73,0-8.51.13-17,.09-25.53,0-1.83-1.68-3.38-1.13-5.38a11.7,11.7,0,0,0,.47-2.25,20.55,20.55,0,0,0-.13-2.82c0-.22-.28-.41-.3-.63a36.23,36.23,0,0,0-1.1-5.6c-1-3.52-.66-7.39-1.71-10.86a20.4,20.4,0,0,1-.73-8.35c.22-2,1.23-4,1.89-6,.07-.22.23-.41.28-.64.45-1.85.84-3.72,1.36-5.55.14-.47.72-.81,1.07-1.23.52-.62,1-1.26,1.64-2-2.22-1-3.29-.16-4.06,1.26a66,66,0,0,0-3.93,10c-1.64,4.71-1.27,9.49-.68,14.11.39,3,.46,6.12,1,9.13a48.06,48.06,0,0,0,2.22,7.65A7.78,7.78,0,0,1,74.42,173c-1.12.78-2.11,1.76-3.18,2.61a9.78,9.78,0,0,1-1.54,1c-1.15.63-2.24,1.3-2.27,2.8,0,1.32-.79,1.67-1.94,2.11-5.61,2.16-11.4,1-17.12,1.16-2.25-1.65-4.95-.82-7.4-1.38A1.74,1.74,0,0,1,40,180a27.21,27.21,0,0,1,.1-5.92c.42-2.37,1.31-4.66,2-7a7.15,7.15,0,0,0,.32-1.93,14.49,14.49,0,0,1,2.3-7.81,1.78,1.78,0,0,0,.16-.51c.47-2.4.8-4.83,1.44-7.19.55-2,1.44-3.94,2.18-5.9a3.38,3.38,0,0,0,.11-.34c.49-2.29.89-4.6,1.49-6.86.52-1.91,1.25-3.76,1.93-5.62q.78-2.17,1.68-4.29.8-1.91,1.74-3.75c.62-1.2,1.33-2.36,2-3.54.9-1.6,1.74-3.23,2.71-4.79,1.58-2.54,3.23-5,4.9-7.54,1.29-1.91,2.68-3.76,4-5.65,1.57-2.21,3.16-4.42,4.7-6.66s3.21-4.76,4.74-7.19c.86-1.35,1.52-2.82,2.36-4.18a40.72,40.72,0,0,1,2.76-4,46.3,46.3,0,0,1,3.74-4.18c1.32-1.3,2.82-2.44,4.21-3.68,1.55-1.37,3-2.8,4.6-4.16,1.37-1.2,2.81-2.33,4.22-3.49a6.75,6.75,0,0,1,.64-.56,51,51,0,0,1,4.75-2.85c1.62-.78,2.79.75,3.65,1.58s1.28,2.6,1.64,4c.29,1.12-2.25,4.8-3.34,5.36-2.51,1.27-5.21,2.3-7.41,4-2.52,1.92-5.11,3.87-6.78,6.76a29.73,29.73,0,0,0-2.65,5.07c-.73,2.16-2.25,4-3.21,6.15a9.34,9.34,0,0,0-.26,3ZM45.77,175.38c1-2.71,1.91-5,2.7-7.31.61-1.79,1.08-3.64,1.62-5.46a5.21,5.21,0,0,1,.33-.82c.65-1.32,1.35-2.63,2-4,.81-1.77,1.61-3.54,2.3-5.36a4.83,4.83,0,0,0,.14-2.08,1.21,1.21,0,0,0-1-.3,3.69,3.69,0,0,0-1.35,1.31c-.63,1.23-1.07,2.55-1.65,3.81-.69,1.5-1.48,3-2.15,4.46s-1.38,3.2-2,4.83c-.64,1.78-1.15,3.61-1.74,5.41a17.08,17.08,0,0,0-.69,1.93,7.63,7.63,0,0,0-.23,2.75C44.09,174.93,45.12,175.1,45.77,175.38Zm65.36,26.09c-3.09-.39-3.21-.3-3.79,2.4a7.47,7.47,0,0,1-.31,1c-.69,1.75-1.38,3.5-2.09,5.25a18.17,18.17,0,0,1-1.19,2.57c-.76,1.22-1.75,2.29-2.42,3.55a4.22,4.22,0,0,0-.11,2.22,1.23,1.23,0,0,0,1,.28,6.66,6.66,0,0,0,1.41-1.25,7.42,7.42,0,0,0,.93-1.1c1-1.64,2.37-2.91,3.1-4.84s1.91-3.95,2.7-6.06A14.09,14.09,0,0,0,111.13,201.47Zm-45.6-76.25a23.93,23.93,0,0,0,1.64-2.07c1.77-2.92,3.42-5.92,5.27-8.79,1-1.57,2.39-2.91,3.47-4.45A1.42,1.42,0,0,0,74,108.06a5.42,5.42,0,0,0-1.59,1.86c-1.23,2.23-3.21,3.93-4.13,6.43-.63,1.71-2.22,3-3.12,4.68A3.35,3.35,0,0,0,65.53,125.22ZM101,109c0-.44.09-.72,0-.89-1-1.65-4.47-2.18-6.09-1a10.1,10.1,0,0,1-3.34,1.84c-1.67.35-1.75,1.24-1.56,2.85a9.63,9.63,0,0,0,2.53-.65c1.91-1.15,3.66-2.58,6.13-2.12A14.09,14.09,0,0,0,101,109Zm11.56,91c2.65.54,4.11-1.47,3.38-4.66C113.26,195.11,112.1,196.72,112.57,199.93Z"/><path class="cls-1" d="M94.27,296.51c1.17-.31,1.59.36,1.91,1.76.53,2.36,1.43,4.63,2.17,6.94a6.39,6.39,0,0,1,.18.87c.53,5,1,9.95,1.61,14.92.17,1.38.84,2.76.77,4.11-.12,2.52-.7,5-.93,7.54-.57,6.05-.53,6.05,5.43,6.2.65,0,1.3.1,2.5.19-.49,1-.85,1.87-1.26,2.66a30.23,30.23,0,0,1-1.53,2.79c-1,1.47-2,2.89-3,4.35a22.54,22.54,0,0,0-2,3.05c-.65,1.42-.81,3.12-1.68,4.36s-.44,3.22-2.08,4.07c-.11.06-.16.31-.19.48-.46,1.92-.86,3.86-1.36,5.78s-1.13,3.93-1.73,6c-2.12.4-3.36,2.22-4.57,3.92-2.52,3.54-4.7,7.34-7.38,10.76-1.63,2.09-4,3.62-5.92,5.47-2.63,2.46-5.25,4.93-7.75,7.51-.38.4-.09,1.44-.11,2.19.67-.05,1.5.15,2-.17a23.07,23.07,0,0,0,2.89-2.53c1.35-1.28,2.36-3,4.31-3.51a1,1,0,0,0,.46-.26c2.47-2.45,5-4.8,7.34-7.41a37.85,37.85,0,0,0,3.12-5.09c.56-.89,1.22-1.71,1.89-2.64a4.65,4.65,0,0,1,0,4,4.8,4.8,0,0,0-.48,1.13c-.56,4.3-1,8.62-1.67,12.9a18.51,18.51,0,0,1-1.59,4.09c-.14.31-.54.54-.61.86-.51,2.12-.9,4.27-1.46,6.37-.77,2.91-.68,6.06-1.52,8.81-1.1,3.64-.45,7.18-.87,10.73-.2,1.66-.73,3.28-1,4.94-.19,1.12-.23,2.26-.31,3.39-.47,6.94-.32,14-1.58,20.78-1.12,6-.22,12.07-1.19,18-.69,4.21-1.41,8.53-.58,12.53,1.09,5.25.42,10.43.83,15.63A93.23,93.23,0,0,0,78.28,515c.85,4.54.44,9.31.57,14,0,1.49-.63,2.15-2.15,2.52-2,.48-3.86,1.49-5.83,2.12-1.8.57-3.67,1-5.5,1.42-1.24.31-2.48.65-3.73.9-1,.2-2,.29-3,.41-3.91.45-7.84.85-11.74,1.38-1.48.2-2.91.93-4.39,1-2.45.17-2.82-.63-4.09-2.67s-.95-3.93-1-5.93c-.08-6.24.57-12.57-.34-18.68-.88-5.86-.58-11.63-.65-17.44,0-2.2,1.15-4.53.75-6.6-1.39-7.21-.14-14.59-1.43-21.69-.91-5,0-10.1-1.08-14.9-1.52-6.48-.56-12.9-.79-19.34-.24-6.72-.6-13.44-.89-20.16,0-.39.2-.79.19-1.18,0-1.22,0-2.45-.15-3.67-.09-.93-.55-1.84-.55-2.77,0-8.63-.12-17.27.08-25.9A70.22,70.22,0,0,1,34,367.56c.67-3.69,1.46-7.37,2.38-11a67.12,67.12,0,0,1,2.6-8.34,61,61,0,0,1,3.67-7.43,42.51,42.51,0,0,1,3.93-5.74,3.68,3.68,0,0,1,2.51-1c4.55-.16,9.17.28,13.63-.4,2.55-.39,5.68-.07,7.7-2.4a35.33,35.33,0,0,0,3.26-4.36c1.27-2,2.41-4.12,3.49-6.25.61-1.2.88-2.58,1.49-3.78,1-1.92,2-3.78,3.14-5.63S83.84,307.65,85,306a22.39,22.39,0,0,1,3-3.33c1.41-1.31,3-2.44,4.41-3.74A19.41,19.41,0,0,0,94.27,296.51ZM50.4,477.81c1.14-.61,2.51-.91,3.18-1.77a64.73,64.73,0,0,0,6.2-8.93c1.34-2.5,1.88-5.42,2.77-8.15a4.81,4.81,0,0,1,.44-1.15,4.28,4.28,0,0,0,.12-4.82c-1.65.39-1.77,1.63-2.19,3.05-.94,3.16-2.4,6.16-3.65,9.22a15,15,0,0,1-1.41,3.3,52.66,52.66,0,0,1-4.83,5.8C50.13,475.28,49.71,476.05,50.4,477.81Zm12.66-113c3.63,1.36,4.4-1.27,5.7-2.84,1-1.27,1.83-2.75,2.76-4.11,1.12-1.63,2.37-3.17,3.37-4.85a23,23,0,0,0,1.59-3.83q1.08-2.88,2-5.81a1.07,1.07,0,0,0-.11-.86c-.28-.38-.66-.86-1.06-.93a1.4,1.4,0,0,0-1.17.6,24.7,24.7,0,0,0-1.26,3.22,33,33,0,0,1-1.5,4.73,28.33,28.33,0,0,1-3.56,5.59c-1.61,1.92-2.59,4.3-4.65,5.91C64.32,362.31,63.85,363.58,63.06,364.77Zm22.55,30.31c-.93,1-1.56,1.62-2.12,2.3-.72.88-1.35,1.85-2.08,2.73-1,1.14-1.91,2.27-3,3.32-1.35,1.36-2.72,2.68-4.18,3.91-1.68,1.42-3.61,2.57-5.14,4.12-.85.86-2.63,1.69-1.38,3.72a4.09,4.09,0,0,0,1.55-.37c1.39-1,2.72-2.11,4-3.22,1.59-1.32,3.18-2.64,4.69-4s3-2.88,4.36-4.39c1.11-1.19,2-2.69,3-3.81C86.86,397.79,86.2,396.94,85.61,395.08ZM62.48,525.64c-.41-.55-.75-1.51-1.3-1.65A4.49,4.49,0,0,0,58,524c-2.34,1.47-4.84.87-7.28,1a6.19,6.19,0,0,1-2-.53c-.76-.24-1.5-.51-2.15-.74-.93,1.86-.17,3.11,1,3.59a34.67,34.67,0,0,0,5.79,1.39,2,2,0,0,0,1.06-.1C56.94,527.72,59.41,526.79,62.48,525.64Z"/><path class="cls-1" d="M161.27,291.47H159a39.37,39.37,0,0,1-7.5,9c-3.24,2.94-6.17,6.23-9.23,9.37-1.63,1.66-3.25,3.33-4.89,5-.7.71-2-.06-2.36-1.59-.58-2.27-1-4.58-1.54-6.87-.33-1.51-1-3-.94-4.51a16.88,16.88,0,0,1,1.28-5.54c.38-.94,1.55-1.62,2.46-2.29a18.73,18.73,0,0,1,3.72-2.37c1-.41,2.23-.19,3.34-.38,4-.67,7.94-1.39,11.91-2.08a9.65,9.65,0,0,1,1.61-.16c8-.08,15.95.05,23.9-.31,3.4-.15,6.75-1.33,10.12-2.05a3.38,3.38,0,0,1,.68-.17c3.25-.08,6.19-1.42,9-2.79a133.7,133.7,0,0,0,12.58-7.41c2.78-1.78,5.32-3.93,8-5.88.82-.59,1.74-1.4,2.63-1.42s1.66.86,2.23,1.56a33.2,33.2,0,0,1,3,4.35,21.26,21.26,0,0,1,2,4.39,53.37,53.37,0,0,1,2.24,9c.32,2.76.9,5.67-.52,8.4a4,4,0,0,0-.26,1.76c0,5.69-.1,11.39,0,17.08a6,6,0,0,0,.91,2.47,3.41,3.41,0,0,1-2.35,4.78,35.79,35.79,0,0,0-4.48,1.7,18.74,18.74,0,0,1-2.16.7c-3.4.78-6.8,1.52-10.21,2.28-.17,0-.34.11-.52.14-4,.72-8,1.63-12.11,1.33-2.39-.18-4.81.12-7.19-.11a31.45,31.45,0,0,1-8.42-1.49,26.71,26.71,0,0,0-5.09-1.07c-4.14-.79-8.38-1.31-12.34-2.66-2.29-.79-4.47-.61-6.69-.94a2.34,2.34,0,0,1-1.66-1.08c-1.21-3.51-2.46-7.06-.63-10.77a2.48,2.48,0,0,0,.18-1c.16-4.08.06-8.15,1.26-12.16C161.47,295.73,161.18,293.65,161.27,291.47Zm14.6,2.82c.26,1.21.5,2.49.82,3.74.12.44.53.81.61,1.25.45,2.48.83,5,1.25,7.48a4.91,4.91,0,0,0,.21.69c1.39.38,2.05,0,2.32-1.52.59-3.46-1-6.54-1.62-9.76C179.24,295,178.48,293.3,175.87,294.29Z"/><path class="cls-1" d="M159.85,71.27c0-1.68-.08-3.06,0-4.43.16-2.24-1.16-3.84-2.61-5.05-.7-.59-2.35-.16-3.55,0-.67.08-1.28.7-2,.78a3.71,3.71,0,0,0-3.21,2.85,41.5,41.5,0,0,1-2.66,6.07c-1,1.79-3.45,1.59-4.7-.37-.65-1-.78-2.37-1.38-3.44-1.46-2.57-1.16-5.92-3.73-8a8.09,8.09,0,0,0-6.13-2c-3,.32-5.29-1.11-7.32-2.92a24.39,24.39,0,0,1-3.73-4.54A12.4,12.4,0,0,1,117.64,47c-1.15-3.55-2-7.15-1.33-10.92.3-1.72.38-3.61,1.2-5.07,1.58-2.84,2-6.15,4.21-8.78a18.4,18.4,0,0,1,3.18-3.59,20.58,20.58,0,0,1,3.25-2.12c2-.91,4.12-1.61,6.19-2.4a2.14,2.14,0,0,1,.35-.06c3.35-.73,6.66-1.8,10-2.05,2.13-.15,4.38.86,6.53,1.5,1.49.44,2.89,1.16,4.34,1.71a24.53,24.53,0,0,1,7.93,4.52c1.84,1.7,3.73,3.37,5.44,5.2a52.47,52.47,0,0,1,3.46,4.49c1.77,2.34,2.5,5.19,3.81,7.74A66.14,66.14,0,0,1,179,44.54c.87,2.3.64,4.5,1,6.71.21,1.19,1,2.37.88,3.5a21.69,21.69,0,0,1-2,8.3,10.21,10.21,0,0,0-1.34,4.25c0,2.85-1.76,4.91-2.88,7.24A6.8,6.8,0,0,1,172.22,77c-2.71,1.73-5.29,3.86-8.92,3.24A3.19,3.19,0,0,1,161,78.66C159.19,76.21,160.21,73.52,159.85,71.27Z"/><path class="cls-1" d="M46.17,331.3v-3.37c2.45-1.1,5.32-1.6,7-3.94s2.9-4.77,4.4-7.13c.94-1.48,2-2.86,3-4.33.65-1,1.16-2.06,1.79-3.06,2.79-4.42,5.68-8.77,9.68-12.23a80,80,0,0,1,6.79-5.57c.76-.53,2.2-.27,3.28-.07a12.86,12.86,0,0,1,2.73,1.14c.22.09.55.05.68.2,1.73,1.88,2.41-.07,3.15-1A72.56,72.56,0,0,0,93,286.11a38.08,38.08,0,0,0,1.92-3.7c1.13-2.14,2.34-4.25,3.38-6.44.7-1.45,1.14-3,1.74-4.54.38-1,.84-1.92,1.29-2.87q1.84-3.9,3.74-7.78a1,1,0,0,1,.46-.48c1.61-.48,3.22-.94,4.84-1.36a83.31,83.31,0,0,1,9-2.24,48.12,48.12,0,0,1,7.27-.08c1.09,1.82,2.1,3.45,3,5.12a2.29,2.29,0,0,1,.1,1.06c0,9,0,18,0,27a18.9,18.9,0,0,1-.68,3.06,3.48,3.48,0,0,0,0,1.57,17.12,17.12,0,0,1-.06,11.13,10.27,10.27,0,0,0-.24,1.6,26.59,26.59,0,0,1-4.72,11.63c-1.61,2.21-2.8,4.74-4.42,6.95-1.47,2-3.27,3.77-4.93,5.64-.32.35-.84.64-.94,1a4.88,4.88,0,0,1-5,4c-.66,0-1.32-.06-2-.08-3.11-.1-3.12-.1-3.13-3.13,0-2.28.17-4.57,0-6.84-.42-5.83-.87-11.66-1.56-17.47-.23-2-1.2-3.84-1.83-5.77a3.14,3.14,0,0,1-.23-1c.1-3.29-2-5.9-2.81-8.92-.18-.67-1.45-1.64-2-1.51a5.9,5.9,0,0,0-2.54,1.9c-1.16,1.27-2.07,2.77-3.26,4-2.56,2.67-5.35,5.13-7.82,7.89a26,26,0,0,0-2.88,4.88c-1.08,2-2.13,3.91-3.13,5.89-.7,1.38-1.28,2.83-2,4.22-.4.81-.91,1.57-1.33,2.37-1.35,2.6-2.64,5.26-5,7.12a2.6,2.6,0,0,1-1.36.28c-2,.1-4.09-.28-5.9.3-4.22,1.36-8.52.47-12.75.94A7.88,7.88,0,0,1,46.17,331.3Z"/><path class="cls-1" d="M82.35,56.53c0,1,.05,1.86,0,2.74-.19,2.75,1.3,4.49,3.37,6,1.26.92,2,2.53,3.88,2.58-.11.73,0,1.73-.38,2.16-1.36,1.38-3,2.46-4.38,3.83a65.87,65.87,0,0,0-5,5.7,15.4,15.4,0,0,0-2.71,5.19c-.43,1.48-1.9,2.65-2.89,4a22,22,0,0,0-1.71,2.49,2.51,2.51,0,0,1-3.75,1.09,5.11,5.11,0,0,0-5-.42,5.44,5.44,0,0,1-4.7.09c-1.53-.7-3.29-.77-4.45-2.29a6.7,6.7,0,0,1-.16-7.38c-.32-.76-.61-1.51-1-2.23-.16-.34-.35-.82-.63-.9-1.54-.45-1.86-1.47-1.64-2.91.42-2.8-1.41-4.46-3.28-6A9.26,9.26,0,0,0,45.32,69c-2.63-.94-3.72-5.14-2-7.5a16.56,16.56,0,0,0,1.52-3.24,15.61,15.61,0,0,0,1.56-7.5c-.15-1.73.68-2.09,2.12-2A23.55,23.55,0,0,1,53,49c3.19.87,6.48,1.73,8.89,4.18.88.9,1.25,2.3,1.88,3.46s1.45,2.59,2.18,3.88a10,10,0,0,1,1.34,2.54c.28,1.38,1.15,1.76,2.26,2.36,2.85,1.55,4.43,1.46,6.45-1a18,18,0,0,0,3-5.08C79.36,58.24,79.79,56.1,82.35,56.53Z"/><path class="cls-1" d="M124.92,60.34c2.51,0,4.84-.42,6.87.16,1.26.36,3.07,1,3.32,3.38.29,2.74,1.52,5.41,2.49,8.05s5.65,4.47,8,3.09a25.89,25.89,0,0,0,5.09-4c.78-.77,1-2.08,1.56-3.13a22.37,22.37,0,0,1,1.46-2.63,1.19,1.19,0,0,1,1.11-.17c.46.24,1.08.68,1.14,1.1a24.66,24.66,0,0,1,.14,3.75c0,1.42-.29,2.82.91,4,.38.39.19,1.37.22,2.08.09,2.3.73,4.46,2.62,5.84.84.62,2.18.64,3.31.79a21.79,21.79,0,0,0,2.8,0l.43.57c-.71,1.07-1.33,2.2-2.13,3.19-1.88,2.36-3.77,4.73-5.81,7-1,1.14-2.48,1.9-3.6,3-1.37,1.33-2.57,2.82-3.87,4.22-.37.39-.91.64-1.24,1.06a54.49,54.49,0,0,0-3.49,4.56c-1.63,2.53-3.85,3.53-6.72,2.47-.87-.32-1.49-1.4-2.12-2.22s-.84-2-1.57-2.33a1.86,1.86,0,0,1-.93-2.37,6.17,6.17,0,0,0-1.63-5.4,3.83,3.83,0,0,1-.78-2.19c-.17-4.47-2.52-7.12-6.94-7.66-1.91-.23-2.31-1.23-1.28-2.88a4.44,4.44,0,0,0,.42-1.84,65,65,0,0,1,1-7,21.52,21.52,0,0,0-.51-12.52A9,9,0,0,1,124.92,60.34Z"/><path class="cls-1" d="M37.55,183.52c2,.43,4.39,1,6.8,1.46.64.13,1.32.09,2,.17,1.41.19,3-.33,4.15,1,.24.27.92.18,1.39.19a63.11,63.11,0,0,0,7,.07,58.61,58.61,0,0,0,6.35-1.3A6.64,6.64,0,0,1,67,185c1.06.08,1.48.61,1.75,1.77A54.59,54.59,0,0,0,70.91,193c.42,1.19.9,2.35,1.22,3.56.58,2.23,1.11,4.47,1.56,6.72.31,1.55-.57,1.88-2,1.86-3.23,0-6.53-.31-9.66.27a31.82,31.82,0,0,0-9.05,3c-2.28,1.19-3.58,3.26-5.62,4.58-1.44.93-2.64,2.19-4.5,2.3-.56,0-1.09.52-1.65.56a8.73,8.73,0,0,1-2.55-.17,8.41,8.41,0,0,1-4.2-3,2.54,2.54,0,0,1-.46-2.32c1.32-2,1.15-2.89-1-3.71s-2.38-2.26-.9-4.05a2.92,2.92,0,0,0-.45-3.65,3.45,3.45,0,0,1-.72-5.17,4.68,4.68,0,0,0,1.22-2.48c0-.72-.77-1.54-1.37-2.14a2.74,2.74,0,0,1,0-4C32.65,182.89,35,184.46,37.55,183.52Z"/><path class="cls-1" d="M58.1,556.36c-1.49,0-3.1-.36-4.47.07-5,1.55-10.25.56-15.22,1.51-2.73.52-5.57.14-8.09,1-5.62,2-11.37.79-17,1.18-1.17.09-2.4-.69-3.61-1a5.3,5.3,0,0,0-1.75-.28A4.7,4.7,0,0,1,4,557.54c-.22-.22-.3-1-.15-1.11,1.85-1.28,3.71-2.55,5.65-3.69,2.25-1.32,4.58-2.5,6.88-3.74a1.73,1.73,0,0,1,.52-.13c2.31-.45,4.65-.81,6.94-1.37,2.66-.65,5.26-1.57,7.92-2.18,1.32-.3,2.8.09,4.11-.24,2.28-.58,4.48-1.47,6.72-2.22a1.74,1.74,0,0,1,.84-.19c1.66.36,2.66-.88,3.89-1.55a6.78,6.78,0,0,1,2.21-1c4.32-.59,8.67-.94,13-1.66,3-.49,5.82-1.5,8.76-2.18a6.54,6.54,0,0,1,2,.23c-.13.72-.26,1.44-.38,2.17a18.28,18.28,0,0,0-.33,2.22c-.1,2.69-.22,5.39-.19,8.08a6.3,6.3,0,0,1-5.67,6.17c-2.86.35-5.68,1.11-8.52,1.68Z"/><path class="cls-1" d="M41.49,219.67a3.14,3.14,0,0,1,3.37-2.14c.5,0,1-.64,1.49-1,2.43-1.8,4.81-3.67,7.28-5.4a15.3,15.3,0,0,1,3.77-2c4.94-1.7,10.06-1.72,15.2-1.29a2.35,2.35,0,0,1,2.13,2.42,24,24,0,0,1-.74,4c-.19,1.36-.1,2.77-.39,4.1-.63,2.9-1.39,5.77-2.16,8.64-.44,1.69-.93,3.38-1.52,5s-1.4,3.32-2,5a30.87,30.87,0,0,0-.83,3.05c-2,.47-4.05.88-6.08,1.49s-4.08,1.44-6.11,2.18c-.06,0-.11.06-.16.07-2.63.51-5.24,1.09-7.88,1.49a1.54,1.54,0,0,1-1.95-1.5,9.86,9.86,0,0,0-1.4-2.91c-.64-1.16-1.39-2.27-2-3.46a3.84,3.84,0,0,1-.26-1.76c.09-2.59-.11-5.11.81-7.74.76-2.19.24-4.85.2-7.29C42.25,220.28,41.76,220,41.49,219.67Z"/><path class="cls-1" d="M77.47,289.37c-3.74,2.08-6.32,4.92-8.93,7.74-1.76,1.89-3.69,3.63-5.33,5.62a23.52,23.52,0,0,0-4.65,7.77,7.05,7.05,0,0,1-1,1.48c-1.27,1.94-2.93,3.74-3.65,5.87-.59,1.76-1.78,2.84-2.74,4.21-.82,1.18-4.77,2.58-5.67,1.68a2.74,2.74,0,0,0-3.08-.92v-4.94l-.33.24L39,314.72c1.37-2,1-2.67.08-4.84a6.29,6.29,0,0,1,.08-4.67c1.28-2.76,1.31-4.23-.9-6.2-1-.93-1.18-3.23-.18-4.12a8.79,8.79,0,0,1,4.49-2.27c1.76-.32,3.39-1.38,5-2.15,1-.46,1.92-1,2.89-1.51s1.72-.79,2.52-1.28a33.34,33.34,0,0,0,8.32-7.12c1.62-2,2.63-2.07,4.65-.47,2.67,2.11,5.18,4.43,7.8,6.61C74.89,287.61,76.1,288.38,77.47,289.37Z"/><path class="cls-1" d="M79.55,547.56c-1,0-1.92,0-2.87,0a1.35,1.35,0,0,1-1.4-1.68c.26-2.53.45-5.08.89-7.58a19.61,19.61,0,0,1,1.41-3.9c.08-.2.48-.36.73-.37a4.82,4.82,0,0,0,4.22-2.65c1.25-2.18,3.55-3.19,5.33-4.73.74-.65,2.61-.14,3.93.07a8.74,8.74,0,0,1,2.14,1c2.2,1,4.4,2.11,6.62,3.11a22.57,22.57,0,0,1,3.92,1.68c1.74,1.26,3.7,1.15,5.61,1.54,1.44.29,2.74,1.25,4.13,1.83a16.42,16.42,0,0,0,1.9.43,30.42,30.42,0,0,1,4.47,1.36c.32.14.26,1.43.14,2.15s-.76,1.14-.79,1.73a9.43,9.43,0,0,1-2.6,6.43,8,8,0,0,1-3,1.86c-1.83.64-3.76,1-5.65,1.48a19,19,0,0,1-2.44.54,21,21,0,0,1-2.75,0c-.35,0-.77-.3-1-.18-2.41,1-4.7-.1-7-.47a38.73,38.73,0,0,1-6-1.92c-.17-.05-.32-.15-.49-.19l-9.41-2Z"/><path class="cls-1" d="M221.29,542.35c1.67-3.38,4.32-4.37,7.43-4.91a63.57,63.57,0,0,0,6.78-1.94,7.83,7.83,0,0,1,1.9-.39c2.27-.09,4.56,0,6.82-.19a43.12,43.12,0,0,0,8.59-1.38c2.36-.74,4.46-2.34,6.67-3.56,0,0,.13-.07.13-.1.35-3.11,2.77-2.2,4.56-2.25,3.41-.11,6.83-.16,10.24,0a15.08,15.08,0,0,0,8.31-2.23c1.19-.68,2.61-1,3.88-1.53a21.3,21.3,0,0,0,3.28-1.8c2.34-1.62,3.72-1,4.86,1.22.78,1.51,1.53,3,2.29,4.57a1.12,1.12,0,0,1,.11.51c-.11,2.8.64,5.72-1.17,8.27-.19.28-.39.68-.66.74-2.1.54-4.26.87-6.33,1.51-7.6,2.37-15.38.8-23.07,1.21-1.79.09-3.6-.33-5.32.91-.79.57-2.2.36-3.34.37-7.06,0-14.13-.07-21.19.13-3.83.1-7.64.74-11.47,1.06A22.13,22.13,0,0,1,221.29,542.35Z"/><path class="cls-1" d="M87.36,411.77c0,2.78.13,5.56,0,8.32-.31,5.75-.89,11.49-1.14,17.24-.2,4.49-.16,9,0,13.48a33.06,33.06,0,0,0,1,4.94,14,14,0,0,1,.18,2.5c.05,6.36-.09,12.72.16,19.06a90.7,90.7,0,0,0,1.56,15.3c.48,2.27-.1,4.07-.22,6.09-.2,3.34-.09,6.71-.33,10.05a36.85,36.85,0,0,1-2,9.47,9.17,9.17,0,0,0-.12,4.27c.32,1.94-.77,2.84-2.18,3.53-1,.47-1.68.28-1.79-1.07-.46-5.67-.68-11.39-1.56-17-2.06-13.23-.62-26.51-.92-39.76,0-2,.77-4,1-6.09.29-3.16,0-6.42.64-9.49,1-4.72.21-9.55,1.14-14.14.57-2.86.41-5.86,1.33-8.52,1-2.91.59-5.76.94-8.62.11-.9.9-1.72,1-2.62.23-1.59.18-3.22.28-4.83,0-.73.16-1.45.24-2.18Z"/><path class="cls-1" d="M132.53,481.27c0-3.31-.68-6.78.17-9.83,1.07-3.82.21-7.78,1.37-11.37,1-3,.37-5.88,1-8.74.5-2.38,1.36-4.69,2-7.05.27-1,.44-2,.73-3.3.4.48.6.62.65.81a53,53,0,0,0,1.65,6.06c.86,2.11,2.19,4,3.22,6.08.6,1.2.9,2.54,1.51,3.73,1.11,2.16,2.38,4.26,3.55,6.4a22.28,22.28,0,0,1,1.23,2.56c.57,1.48,1.06,3,1.57,4.49.07.23,0,.54.16.7,1,1.13,1.85,2.22.2,3.52-1,.79-1.9,1.73-3,2.42-1.22.8-2.58,1.38-3.88,2.06a.46.46,0,0,1-.16.07C140.58,480.52,136.77,482.2,132.53,481.27Z"/><path class="cls-1" d="M132.25,503.86c-.32-3.35-.71-6.41-.88-9.48a14.06,14.06,0,0,1,.65-3,1.86,1.86,0,0,0-.14-1.22c-1.06-1.59-.71-2.95.93-4a13,13,0,0,1,7.58-2.31c.74,0,1.47-.56,2.24-.77,2.3-.62,4.63-1.2,6.88-1.77,1.43,2.3,2.14,4.71,3.62,6.88,1.62,2.37,3.57,5.1,3.06,8.52a3.89,3.89,0,0,1-3.15,3.38c-4.06.72-8.09,1.55-12.13,2.33l-.18,0c-2.08.26-4.26-.13-6.16,1.24C134.08,504,133.19,503.8,132.25,503.86Z"/><path class="cls-1" d="M136.48,123c-.61-1.28-1.14-2.26-1.57-3.27-.81-1.92-1.57-3.85-2.33-5.78-.45-1.14-.91-2.27-1.29-3.44-.52-1.6-.91-3.25-1.49-4.83-.24-.65-.93-1.12-1.23-1.76-.89-1.88-1.6-3.85-2.55-5.7s-2.22-3.8-3.31-5.71a21,21,0,0,1-1.36-2.78c-.08-.2.47-.91.67-.89a15.06,15.06,0,0,1,2.73.65c.3.09.56.6.8.57,1.61-.17,2.12,1.25,3.08,2,1.33,1.07,1.38,2.53,1.22,4-.2,1.87.72,3.12,1.87,4.41a3.69,3.69,0,0,1,.54,2.11c.08,1.7-.06,3.34,1.66,4.57,1.27.92,2.1,2.41,3.3,3.46a31.66,31.66,0,0,0,3.06,1.93c.34.24.8,1,.7,1.09a13.55,13.55,0,0,0-2.53,6.08C138.31,120.69,137.4,121.54,136.48,123Z"/><path class="cls-1" d="M78.65,173.76c-.14,9.37,1.15,18.49-1.88,27.71a5.25,5.25,0,0,1-.49-1.38c0-2.1-1.32-3.64-2.18-5.4a35.58,35.58,0,0,1-1.74-5.13c-.74-2.37-1.37-4.77-2.16-7.11a2.93,2.93,0,0,1,1-3.2c1.85-1.76,3.85-3.36,5.83-5C77.29,174,77.77,174,78.65,173.76Z"/><path class="cls-1" d="M132.47,292.3c.21-2.63-.63-5.13.82-7.49a4.15,4.15,0,0,0,.16-1.95c0-4.56,0-9.11.06-13.67a5.58,5.58,0,0,1,.51-1.56c.35.3.72.59,1.06.91a19.07,19.07,0,0,0,2.48,2.37c2.06,1.33,1.24,3.3.64,4.59-.75,1.6-.56,3.09-.74,4.64-.29,2.55.85,4.65,1.91,6.79.48,1-.17,1.45-.66,2.23-1.19,1.89-3.32,2.06-4.9,3.19C133.59,292.51,133.13,292.34,132.47,292.3Z"/><path class="cls-1" d="M56.55,281a9.11,9.11,0,0,1-.22-6c.37-1.26,1.63-1.41,2.58-.51.09.09.16.18.25.26.61.55,1.81,1.24,1.72,1.62a7,7,0,0,1-1.65,2.33,9.73,9.73,0,0,1-1.16,1.24A16.83,16.83,0,0,1,56.55,281Z"/><path class="cls-1" d="M117.35,229.84l2.92-7.93.67.08a60.11,60.11,0,0,1,.11,6.29C121,229.58,119.25,230.23,117.35,229.84Z"/><path d="M158.51,352.41c.14,1.49.25,2.17-.93,2.95s-2,2.54-3,3.87c-.11.14-.13.4-.26.45-2.25,1-2.81,3.81-4.86,4.87-2.39,1.23-3.78,3.74-6.55,4.49-1.26.34-2.3,1.61-3.36,2.54-2.27,2-4.52,4-6.72,6.09-1.22,1.15-2.15,2.72-4.13,2.6a6.1,6.1,0,0,1-1.37-.45,4.45,4.45,0,0,1,.7-1.25c2.87-2.54,5.77-5.05,8.67-7.56,1.4-1.21,2.8-2.42,4.22-3.61s3-2.39,4.42-3.68c2-1.81,3.89-3.76,5.91-5.56a19.43,19.43,0,0,0,4.18-5C155.76,352.6,157.31,352.68,158.51,352.41Z"/><path d="M115.35,439.63c-2.49,1.29-3.18-.45-4-1.56a45.91,45.91,0,0,1-2.52-4.37.85.85,0,0,1-.06-.17c-1.3-4.49-2.15-9-1.46-13.74.24-1.66,1.4-1,2.47-1.07a8.9,8.9,0,0,1,.08,2c-.73,3.85.93,7.38,1.45,11.06.16,1.14,1.24,2.14,1.81,3.25C113.9,436.55,114.6,438.08,115.35,439.63Z"/><path d="M206.59,201.6c2.17.67,1.58,2.58,2.17,4,1.7,4.16.81,8.43,1.08,12.64a14.43,14.43,0,0,1-.25,5.34c-.84,2.54-.59,5.44-2.41,7.63a10.08,10.08,0,0,1-1.76,1.32c-.87-1.71-1-3.23.2-4.7.07-.09.27-.12.29-.2.88-3.95,2.09-8,1-12-1.21-4.58-.81-9.13-.62-13.72C206.32,201.83,206.46,201.75,206.59,201.6Z"/><path d="M138.48,249.06a14.54,14.54,0,0,1-3.86-4.38c-2.28-3.32-2.27-6.82-2.37-10.46a3.84,3.84,0,0,0-.58-1.59,2.51,2.51,0,0,1,1-3.48c.75-.39,2,.92,2.13,2.3a36,36,0,0,0,.2,5,33.89,33.89,0,0,0,2,5.63,31.76,31.76,0,0,1,1.74,3.51C138.92,246.54,138.58,247.66,138.48,249.06Z"/><path d="M176.82,138c1.12,2.19.7,3-1.51,3.34-2.36.36-4.71,1.2-7.06,1.2a44.44,44.44,0,0,1-7.71-1.14c-.3-.06-.78-.57-.74-.76a3.44,3.44,0,0,1,.81-1.63c.27-.27.9-.23,1.37-.23,4.12,0,8.25,0,12.37-.1A11,11,0,0,0,176.82,138Z"/><path d="M171.37,208.62c-.76,1.17-1.3,2-1.86,2.84a56,56,0,0,1-3.49,5,51,51,0,0,1-5.16,5c-.35.3-1.33-.12-2-.21a10.42,10.42,0,0,0,.63-1.36c1-3.24,4.4-4.39,5.92-7.16a25.46,25.46,0,0,1,2.14-3.7,4.94,4.94,0,0,1,2.35-1.36C170.21,207.56,170.77,208.21,171.37,208.62Z"/><path d="M152.67,248.76c-.16-1-.4-2-.46-3-.14-2.23.28-4.46-.85-6.65-.8-1.54,0-2.92,1.82-3.62,1.94,3.52,1.75,7.37,1.5,11.19-.05.75-.93,1.45-1.43,2.17Z"/><path d="M166,116.51c-1.57,0-3,0-4.41,0-1.1,0-2.39-.47-3.16.93-.07.13-1,0-1-.1,0-.68-.21-1.62.15-2,.79-.79,1.58-1.77,3.07-1.45A11.94,11.94,0,0,0,164,114C165.79,113.85,166.35,114.67,166,116.51Z"/><path d="M45.77,175.38c-.65-.28-1.68-.45-1.74-.8a7.63,7.63,0,0,1,.23-2.75A17.08,17.08,0,0,1,45,169.9c.59-1.8,1.1-3.63,1.74-5.41.59-1.63,1.26-3.24,2-4.83s1.46-3,2.15-4.46c.58-1.26,1-2.58,1.65-3.81a3.69,3.69,0,0,1,1.35-1.31,1.21,1.21,0,0,1,1,.3,4.83,4.83,0,0,1-.14,2.08c-.69,1.82-1.49,3.59-2.3,5.36-.62,1.34-1.32,2.65-2,4a5.21,5.21,0,0,0-.33.82c-.54,1.82-1,3.67-1.62,5.46C47.68,170.39,46.78,172.67,45.77,175.38Z"/><path d="M111.13,201.47a14.09,14.09,0,0,1-.73,4c-.79,2.11-1.93,4-2.7,6.06s-2.12,3.2-3.1,4.84a7.42,7.42,0,0,1-.93,1.1,6.66,6.66,0,0,1-1.41,1.25,1.23,1.23,0,0,1-1-.28,4.22,4.22,0,0,1,.11-2.22c.67-1.26,1.66-2.33,2.42-3.55a18.17,18.17,0,0,0,1.19-2.57c.71-1.75,1.4-3.5,2.09-5.25a7.47,7.47,0,0,0,.31-1C107.92,201.17,108,201.08,111.13,201.47Z"/><path d="M65.53,125.22a3.35,3.35,0,0,1-.34-4.19c.9-1.65,2.49-3,3.12-4.68.92-2.5,2.9-4.2,4.13-6.43A5.42,5.42,0,0,1,74,108.06a1.42,1.42,0,0,1,1.88,1.85c-1.08,1.54-2.45,2.88-3.47,4.45-1.85,2.87-3.5,5.87-5.27,8.79A23.93,23.93,0,0,1,65.53,125.22Z"/><path d="M101,109a14.09,14.09,0,0,1-2.35,0c-2.47-.46-4.22,1-6.13,2.12a9.63,9.63,0,0,1-2.53.65c-.19-1.61-.11-2.5,1.56-2.85A10.1,10.1,0,0,0,94.9,107c1.62-1.13,5.12-.6,6.09,1C101.1,108.24,101,108.52,101,109Z"/><path d="M112.57,199.93c-.47-3.21.69-4.82,3.38-4.66C116.68,198.46,115.22,200.47,112.57,199.93Z"/><path d="M50.4,477.81c-.69-1.76-.27-2.53.63-3.45a52.66,52.66,0,0,0,4.83-5.8,15,15,0,0,0,1.41-3.3c1.25-3.06,2.71-6.06,3.65-9.22.42-1.42.54-2.66,2.19-3.05a4.28,4.28,0,0,1-.12,4.82,4.81,4.81,0,0,0-.44,1.15c-.89,2.73-1.43,5.65-2.77,8.15a64.73,64.73,0,0,1-6.2,8.93C52.91,476.9,51.54,477.2,50.4,477.81Z"/><path d="M63.06,364.77c.79-1.19,1.26-2.46,2.16-3.18,2.06-1.61,3-4,4.65-5.91a28.33,28.33,0,0,0,3.56-5.59,33,33,0,0,0,1.5-4.73,24.7,24.7,0,0,1,1.26-3.22,1.4,1.4,0,0,1,1.17-.6c.4.07.78.55,1.06.93a1.07,1.07,0,0,1,.11.86q-1,2.93-2,5.81A23,23,0,0,1,74.89,353c-1,1.68-2.25,3.22-3.37,4.85-.93,1.36-1.72,2.84-2.76,4.11C67.46,363.5,66.69,366.13,63.06,364.77Z"/><path d="M85.61,395.08c.59,1.86,1.25,2.71-.17,4.26-1,1.12-1.93,2.62-3,3.81-1.4,1.51-2.85,3-4.36,4.39s-3.1,2.73-4.69,4c-1.32,1.11-2.65,2.22-4,3.22a4.09,4.09,0,0,1-1.55.37c-1.25-2,.53-2.86,1.38-3.72,1.53-1.55,3.46-2.7,5.14-4.12,1.46-1.23,2.83-2.55,4.18-3.91,1-1.05,2-2.18,3-3.32.73-.88,1.36-1.85,2.08-2.73C84.05,396.7,84.68,396.08,85.61,395.08Z"/><path d="M62.48,525.64c-3.07,1.15-5.54,2.08-8,3a2,2,0,0,1-1.06.1,34.67,34.67,0,0,1-5.79-1.39c-1.2-.48-2-1.73-1-3.59.65.23,1.39.5,2.15.74a6.19,6.19,0,0,0,2,.53c2.44-.1,4.94.5,7.28-1a4.49,4.49,0,0,1,3.16,0C61.73,524.13,62.07,525.09,62.48,525.64Z"/><path d="M175.87,294.29c2.61-1,3.37.74,3.59,1.88.65,3.22,2.21,6.3,1.62,9.76-.27,1.51-.93,1.9-2.32,1.52a4.91,4.91,0,0,1-.21-.69c-.42-2.5-.8-5-1.25-7.48-.08-.44-.49-.81-.61-1.25C176.37,296.78,176.13,295.5,175.87,294.29Z"/></g></g></svg>