<svg xmlns="http://www.w3.org/2000/svg" viewBox="0 0 447.48 512.57"><defs><style>.cls-1{fill:#fff;}</style></defs><g id="Layer_2" data-name="Layer 2"><g id="Layer_1-2" data-name="Layer 1"><path class="cls-1" d="M447.48,273.35c-.57-1.64-1.32-3.75-2-5.87-1-2.81-1.87-5.65-2.84-8.46-.14-.43-.7-.76-.74-1.18-.08-.85-.27-2,.18-2.55,1-1.25,1.87-2.39,1.87-4.1,0-4.55.29-9.12.11-13.67-.33-8.62.81-17.29-1-25.9-.64-3.11,0-6.46-.25-9.69-.3-4.49-.81-9-1.3-13.45A94.9,94.9,0,0,0,440,177.29c-.37-1.66-1.31-3.21-1.23-5a.72.72,0,0,0-.11-.34c-.75-1.55-1.6-3.05-2.24-4.64-1-2.49-1.82-5-2.8-7.54a23,23,0,0,0-1.57-3c-.69-1.18-1.42-2.32-2.14-3.46-1-1.56-1.94-3.15-3-4.65-1.52-2.15-3.13-4.23-4.72-6.34a15.63,15.63,0,0,0-1.92-2.41,23.53,23.53,0,0,1-5.65-7.23c-.37-.77-.93-1.47-1.25-2.26-.61-1.46-.81-3.2-1.72-4.42-1.72-2.32-2-5.18-3.33-7.63-.69-1.26-1-2.72-1.61-4-.71-1.55-1.94-3-2.24-4.56a17.37,17.37,0,0,0-2.49-6,20.55,20.55,0,0,1-1.46-3.24c-.57-1.49-1-3-1.58-4.51a37.47,37.47,0,0,0-1.44-3.54q-1.61-3.22-3.37-6.37a26.52,26.52,0,0,0-3.14-5c-2.33-2.55-4.74-5.08-7.87-6.72-1-.51-2-1-2.91-1.54a28.75,28.75,0,0,0-3.55-2.13c-1.63-.65-3.47-.8-5.05-1.53a6.17,6.17,0,0,1-3.05-2.59,11.42,11.42,0,0,0-7.91-6.76c.27-1.11.51-2.28.83-3.43.54-2,0-3.73-.45-5.68a109.74,109.74,0,0,1-1.51-11.51c-.28-2.29,0-4.53-1-6.88a32.23,32.23,0,0,0-2.95-6.18c-1.4-2-3.29-3.72-4.79-5.69s-3.48-2.75-5.16-4.15a14.2,14.2,0,0,0-7.49-3c-1.43-.2-2.17-.66-1.76-2.12.3-1.08.92-2.07,1.18-3.15A7,7,0,0,0,336,1.24C335,.08,331-.43,329.91.43c-2.1,1.6-2.89,4-3.63,6.31s-1.13,4.85-1.68,7.31c-2,.42-4.06-.28-5.84,1.32-1.55,1.38-3.54,2.24-5.24,3.46a15.48,15.48,0,0,0-3.43,4.1,20.55,20.55,0,0,0-3.22,6.66c-.1.39-.18.8-.28,1.19-.44,1.76-1.4,3.57-1.24,5.28.39,4.27.13,8.54,1.23,12.85a17.05,17.05,0,0,1-.66,11.16c-1,2.2-1.14,4.75-1.71,7.14a2.33,2.33,0,0,1-.53.85c-.93,1.18-.89,4,.23,4.93a12.56,12.56,0,0,0,2.62,1.45c1.11.53,2.78,1,2.57,2.33-.39,2.48-1.47,4.85-2,7.31s-.87,5.17-1.4,7.73c-.38,1.78-1,3.51-1.48,5.25,0,.16-.37.22-.55.36-1.56,1.24-2.94,2.9-4.7,3.62-3.2,1.31-5,4.48-8.33,5.67-1.85.65-3.56,2-5.61,2.48a2.25,2.25,0,0,0-.7.17c-2,1.27-4.09,2.44-6.62,2.34a1.83,1.83,0,0,0-1,.22c-1.95,1.18-3.86,1.46-5.8,0-.19-.15-.72.1-1.06.24s-.75.54-1.15.58a32.93,32.93,0,0,0-6.73,1.2c-3.42,1.06-7.17,1-10.79,1.45a14.56,14.56,0,0,1-1.62,0q-15.37.07-30.75.12a12.08,12.08,0,0,1-3.56-.37c-1.72-.56-3.3-1.78-5-2.06-3.1-.5-6.34.06-9.32-1.41-1.32-.65-3-.83-4.08-1.71-2.15-1.71-4.76-2.33-7.09-3.57-1-.55-2.26-.83-3.25-1.46-2.45-1.55-4.82-3.23-7.22-4.86a13.18,13.18,0,0,0-1.71-1.2c-1.19-.59-2.44-1.07-3.38-1.48a15.51,15.51,0,0,0,.8-2.64c.09-1.24,0-2.5,0-3.74,0-1-.15-1.83.9-2.67.81-.66,1.64-2.71,1.27-3.15-1.17-1.42-.66-2.93-.88-4.37-.29-1.85,1.06-2.89,2.41-3.52a7.13,7.13,0,0,0,4.12-5.19,25,25,0,0,1,1-2.61c-.13-.07-.74-.2-.82-.48-1-3.45-1.89-6.92-2.72-10.41-.75-3.14,2-4.81,3.3-7,1.47-2.44,3.18-4.71,3.1-7.75a50.57,50.57,0,0,0-.16-5.38A13.78,13.78,0,0,0,185,33.78c-1.58-2.87-3.37-5.63-5.23-8.33-1.42-2.06-2.95-4.05-5.48-4.94-1.09-.38-2.05-1.12-3.11-1.57-1.81-.77-3.64-2-5.51-2.07-6-.26-12.1-.1-18.15-.08a4.49,4.49,0,0,0-1.76.28c-2.52,1.11-5.31,1.62-7.47,3.54-1.38,1.23-3,2.23-4.34,3.47a16.29,16.29,0,0,0-4.25,6.15c-.9,2.21-2.07,4.27-2.27,6.71a7.4,7.4,0,0,1-.23,1.23c-.7,2.49-1.83,4.93-2,7.45a47.28,47.28,0,0,0,.16,12c.52,2.88.71,5.72,1,8.6.06.7.61,1.37.68,2.07.16,1.7.67,3.62.08,5a16.27,16.27,0,0,0-.87,3.86A51.29,51.29,0,0,0,125,83.39a22.78,22.78,0,0,1-2.51,9.93c-.63,1.18-1.62,1.4-2.52,2-1.56,1.06-2.88,2.73-4.58,3.24-2,.61-3.23,2-4.49,3.23a69.67,69.67,0,0,0-6.48,7.72c-2.18,2.82-4.21,5.75-6.29,8.64a14.41,14.41,0,0,0-1.33,2.11c-.61,1.27-1.13,2.59-1.67,3.9-.78,1.87-1.58,3.73-2.3,5.62-.56,1.46-.9,3-1.54,4.43a20.32,20.32,0,0,1-1.92,3c-1,1.44-2.07,2.81-3,4.28-.62,1-1,2.12-1.53,3.15-.69,1.26-1.54,2.44-2.18,3.72s-1,2.72-1.71,4c-1,1.78-2.14,3.46-2.32,5.57a2.45,2.45,0,0,1-.18.87c-1.5,3-1.45,8.94.09,12q.78,1.53,1.47,3.09c.6,1.34,1,2.76,1.76,4,1.77,3.17,4.49,5.66,6.27,8.88,1.13,2,3,3.65,4.47,5.52a6.41,6.41,0,0,1,1.8,4.45c-.23,4.73-.3,9.48-.1,14.21a56.78,56.78,0,0,0,1.38,7.77,1.31,1.31,0,0,0,.12.33c.7,1.15,1.44,2.27,2.1,3.44.49.86,1.32,1.82,1.24,2.67a10,10,0,0,1-1.39,4.15c-1.5,2.46-3.28,4.75-4.93,7.13-1.33,1.93-2.55,3.94-4,5.81A17.15,17.15,0,0,0,85.18,250a3.6,3.6,0,0,1-.15.88c-.74,1.84-1.94,3.62-2.15,5.51a92.08,92.08,0,0,1-1.38,10,36.94,36.94,0,0,0-.35,7.53,5.47,5.47,0,0,0,.54,2.94c1.43,2,.87,4.1.46,6.2-.15.81-.43,1.6-.51,2.42-.92,9.33,1,18.79-1.38,28.07-.58,2.25-.26,4.59-1.14,6.95-1.1,2.91-1.13,6.21-1.63,9.35-.37,2.32-1.8,4.42-1.43,6.9,0,.09-.12.2-.16.31-.74,2.1-1.47,4.2-2.24,6.3a24.62,24.62,0,0,1-1.62,4,36.88,36.88,0,0,1-3.35,4.54c-2,2.38-4.1,4.62-6,7-1.56,2-2.91,4.11-4.34,6.18-1.17,1.72-2.23,3.52-3.51,5.15s-2.78,3-4.06,4.53c-1.58,1.93-3,4-4.55,6s-3.06,4-4.57,6c-1.15,1.53-2.3,3.06-3.39,4.63s-2,3-2.92,4.55c-1.05,1.77-1.89,3.68-3,5.41-1.88,2.91-4,5.64-4.95,9.09a16.86,16.86,0,0,1-1.44,3.46c-1.17,2.25-2.51,4.42-3.65,6.69-1,2-1.76,4.13-2.76,6.14s-2.3,3.56-2.37,5.79a2,2,0,0,1-.16.69q-1.17,2.74-2.37,5.47c-.13.31-.32.6-.48.91-.64,1.24-1.34,2.45-1.89,3.73-.66,1.51-1,3.17-1.79,4.61a16.47,16.47,0,0,0-2.21,9.58A10.48,10.48,0,0,0,9,459.69l.48.19c-1.22,1.52-2.4,3.06-3.65,4.54a50.45,50.45,0,0,0-4.4,5.12A8.27,8.27,0,0,0,0,474.26c.26,3.19,1.13,6.32,1.7,9.48.51,2.76,1.05,5.52,1.37,8.3.25,2.08,0,4.22.29,6.28a11.69,11.69,0,0,0,1.43,4.08c1.51,2.66,4.55,3,7,3.84,2,.71,4.24.47,6.43,1.21A27.44,27.44,0,0,0,28.59,509c2.32-.13,4.55.11,6.7-1.36s3.37-5.63,2-7.49c-1.19-1.6-2.15-3.37-3.19-5.09-.84-1.38-1.71-2.76-2.44-4.2a10.49,10.49,0,0,1-1.41-3.67,82.61,82.61,0,0,1,0-9.31,10.51,10.51,0,0,1,1.12-3.32,19.85,19.85,0,0,1,1.78-3.5c.25-.36,1.23-.4,1.82-.28,1.33.25,2.62.74,3.94,1a14.94,14.94,0,0,1,2.48.27,5.52,5.52,0,0,0,6.81-1.22A14.51,14.51,0,0,1,51,468.13c2.45-1.37,2.66-4.25,4.5-6.07,1.57-1.55,2.55-3.7,3.73-5.62,1-1.55,2.33-3.06,2.6-4.74.44-2.67,2.24-4.61,3-7.06a21.74,21.74,0,0,1,1.56-3.45c.65-1.28,1.43-2.49,2-3.79s.93-2.71,1.55-4c1.55-3.27,3.24-6.48,4.79-9.75,1-2,1.71-4.07,2.63-6.08,1.23-2.65,2.71-5.2,3.77-7.91.9-2.32,2.63-3.49,4.66-4.56a27.65,27.65,0,0,0,3.3-2.27c1.2-.86,2.4-1.74,3.58-2.64A50,50,0,0,0,96.82,397c2-1.92,4-4,5.91-6a49.79,49.79,0,0,0,5.28-5.61c2-2.91,3.69-6.11,5.46-9.2a24.92,24.92,0,0,1,1.49-3,31.12,31.12,0,0,0,5-8.45,15.45,15.45,0,0,1,1.61-3c1.5-2.38,3.14-4.68,4.57-7.1,1.09-1.85,1.83-3.91,2.94-5.74,1.9-3.15,4-6.17,4.95-9.82a20.39,20.39,0,0,1,1.56-3.86c1-2,2.25-4,2.27-6.4,0-.6.59-1.65,1-1.71a3.75,3.75,0,0,1,2.52.62,13.21,13.21,0,0,1,2.55,2.72c1.44,1.86,2.83,3.77,4.18,5.7,1.07,1.51,2,3.08,3.07,4.63s2.19,3.29,3.26,4.95a15.14,15.14,0,0,1,1.29,2.28c.56,1.39,1,2.83,1.51,4.23.41,1.08.94,2.12,1.37,3.19.74,1.83,1.58,3.62,2.14,5.5.66,2.25,1,4.58,1.58,6.87.75,3.22,1.6,6.42,2.31,9.65.56,2.62,1,5.27,1.45,7.9a2,2,0,0,0,.09.35,50.37,50.37,0,0,1,2.17,5.69c.51,2,.37,4.12,1.2,6.19s.31,4.32,1.37,6.48c1,2,1.07,4.41,1.55,6.64,0,.17.09.34.14.52.74,2.58,1.52,5.16,2.22,7.76.57,2.13,1,4.29,1.54,6.43a2.48,2.48,0,0,0,.18.31,40.85,40.85,0,0,1,2.11,4.44c.68,2,1.09,4,1.63,6.05a5,5,0,0,0,.37.78c.65,1.28,1.23,2.61,2,3.84.91,1.48,2,2.86,2.93,4.32,1.31,2,4.44,1.93,5.1,4.77.33,1.42,1.85,2.67,1.91,4a26.91,26.91,0,0,0,1.6,7.55c.78,2.3,3.88,4.46,6.22,3.85a26.55,26.55,0,0,0,3.59-1.38c1-.41,1.89-1,2.89-1.34,2-.74,4.06-1.83,6.14-2,2.48-.16,5,.55,7.51.88L232.85,463a4.43,4.43,0,0,1,.67.23c2.19.69,4.35,1.75,6.59,2a18.08,18.08,0,0,0,7.49-.73c3.37-1.08,6.05-2.57,7.85-5.6.56-.95.35-3.41-.57-4-2-1.24-4-2.76-6.16-3.42a45.91,45.91,0,0,0-8.94-1.42c-2.26-.23-4.57.1-6.82-.18a15.15,15.15,0,0,1-5.33-1.58,32.26,32.26,0,0,1-4.57-3.1c-1.26-1-1-2.06-.54-2.42,1.62-1.37,1.19-3.14,1.24-4.78.08-2.52,0-5-.07-7.56s.17-5.27-.54-7.67a29.58,29.58,0,0,1-.78-9.24c.2-10.52-.58-21.05.78-31.56.45-3.55-.08-7.28-.55-10.87-.53-4.07.42-8.25-1.32-12.27a17.6,17.6,0,0,1-1.31-7.22c.12-4.39-1.07-8.57-1.55-12.85a32.9,32.9,0,0,0-1.19-4.69,37.57,37.57,0,0,0-1.56-5.71,69.13,69.13,0,0,0-3.65-6.56c-.94-1.62-1.87-3.23-2.87-4.8-1.58-2.48-3.25-4.9-4.82-7.38-.6-.94-.93-2.05-1.54-3-1.06-1.61-2.63-3-3.29-4.73-1-2.56-3-4-4.74-5.85a21.28,21.28,0,0,1-4.61-6.57,15.74,15.74,0,0,0-1.88-3.28c-1.45-2-3-4-4.5-6-1.06-1.4-2.14-2.79-3.18-4.22s-2.25-3.1-3.26-4.72c-.64-1-.86-2.38-1.63-3.27a1.46,1.46,0,0,1,0-2.3,5.87,5.87,0,0,0,1.79-5.36,13.6,13.6,0,0,0-.13-2.14c-.43-1.42-.69-3.1-1.63-4.08-1.36-1.41-.83-2.51-.23-3.79.14-.31.57-.53.6-.82a42.19,42.19,0,0,1,1.13-6.16c1.27-5,.56-10.26,1.2-15.43,1.13-9.07-.5-18.33,1.37-27.45.9-4.44,1.08-9,1.59-13.54,0-.23,0-.57.12-.68,1.43-1.17,1-2.84,1.2-4.33.07-.54.09-1.08.19-1.61.75-4,1.67-8,2.2-12.11a66.36,66.36,0,0,0,.09-7.73c0-.86.12-1.73.2-2.79a9.48,9.48,0,0,0,2.52,1.19c4.15.52,8.31,1.16,12.48,1.27,8.81.24,17.62.17,26.44.24.53,0,1.34-.07,1.54.22.84,1.22,2,.9,3.07.79,2.52-.27,5-1,7.53-1a103,103,0,0,1,14.13.64c4.86.59,9.92,1,14.85-.58,1.49-.47,2.7-.82,3.45-2.26s1.7-2.9,2.53-4.36c.75-1.31,1.85-2.56,2.13-4,.66-3.35.94-6.77,1.34-10.17.09-.76.08-1.53.11-2,2.57-.79,4.95-1.35,7.19-2.26,1.8-.73,3.32-2.09,5.39-2.18a2.18,2.18,0,0,0,1.15-.42,3.71,3.71,0,0,1,3.85-.27,5.27,5.27,0,0,0-.74,1.64c-.09,3.16-.11,6.32-.12,9.48,0,.32.15.83.38.94a26.68,26.68,0,0,0,3.51,1.44c2,.6,3.15-1.18,4.73-1.76a2.31,2.31,0,0,0,1.36-1.21,60.89,60.89,0,0,0,1.47-6.69,3.47,3.47,0,0,1,2.79-3.14,2,2,0,0,0,1.19-.58c1.24-1.63,2.94-3.17,3.46-5,.55-2,.49-4.16,1.53-6.16a37.59,37.59,0,0,0,1.87-5.51,7,7,0,0,1-.35-4c.31-1,1.2-1.69.45-2.85a10.78,10.78,0,0,1-1.49-2.77c-.32-1.11-2.45-1.26-1.45-3a10.13,10.13,0,0,0,.95-2.94c.26-1.22.08-2.46,1.21-3.49.67-.63.77-.88,1.29,0a3.29,3.29,0,0,0,3.31,2c.71-.08,1.43-.06,2.15-.1,2.22-.13,2.64.23,2.25,2.37a14.19,14.19,0,0,1-1.24,2.46c-.54,1.29-.84,2.68-1.49,3.89a22.5,22.5,0,0,0-2.33,8.19c-.13,1.12-.15,2.26-.38,3.36s-.9,1.93-.92,2.91c-.11,6.94-.09,13.89-.13,20.84a8.48,8.48,0,0,1-.18,1.95c-.27,1.1-.74,2.16-.92,3.27-.25,1.46-.23,3-.46,4.44-.18,1.08-.7,2.11-.87,3.19-.55,3.41-1,6.84-1.51,10.26a4.89,4.89,0,0,1-.21.68,10.54,10.54,0,0,0-.82,2.79c-.07,5.09,0,10.19,0,15.28,0,1.06.37,2.22-1.13,2.83-.61.25-1,1.2-1.38,1.86-1.14,1.77-2.18,3.62-3.41,5.33-.9,1.23-2.06,2.27-3.05,3.44-1.21,1.43-2.38,2.9-3.54,4.37a21.09,21.09,0,0,0-2.71,3.62c-1,2.11-2.45,3.91-3.13,6.3-.91,3.2-2.52,6.17-2.26,9.66.12,1.55.08,3.11.06,4.67,0,.46,0,1.13-.29,1.35-1.78,1.37-3.65,2.64-5.47,4-.48.35-.84.93-1.36,1.16a16,16,0,0,0-6.57,5.15c-1,1.41-2.13,2.93-1.43,4.91s1.41,4.25,2.25,6.32c.71,1.74,1.35,3.52,2.89,4.82,2.19,1.85,4.27,3.84,6.42,5.75a6.81,6.81,0,0,0,1.69,1.21c2.46,1.1,5.28-1.51,5.8-3.57.41-1.61.9-3.21,1.45-4.77a56.56,56.56,0,0,0,2.21-5.83,12.82,12.82,0,0,1,2.68-5.59c.39-.46.92-.8,1.32-1.25,1.14-1.28,2.25-2.6,3.5-4.06,1.17.73,2.38,1.42,3.53,2.21.44.3.71,1.08,1.15,1.16,2.45.44,2.24,2.2,2.21,4,0,2.87-.13,5.76.06,8.62a54.23,54.23,0,0,0,1.09,6.55c.19,1,.62,1.88.79,2.84.12.71.29,1.67-.07,2.15-.84,1.14-2.05,2-3,3.09a6.42,6.42,0,0,0-1.58,2.63c-.59,3-.4,6.12,1.49,8.42s.89,4.06.54,6.12c-.16,1-.59,1.9-.68,2.86-.48,5.27.76,10.63-1.13,15.85-.66,1.81-.46,3.82-1.34,5.74-1,2.21-1.17,4.82-1.7,7.25,0,.18-.05.36-.09.53-.78,3.29-1.59,6.57-2.33,9.86-.2.93-.08,1.93-.28,2.85-.69,3.05-1.9,6.05-2.11,9.12-.4,5.78-.3,11.59-.3,17.39,0,6.54.11,13.08.19,19.61,0,.84-.19,1.9.23,2.47,1.28,1.72.9,3.64,1.08,5.51.31,3.31-.2,6.57.9,10,1.27,3.94,1.23,8.32,1.61,12.53.55,5.86,1,11.73,1.43,17.59,0,.29,0,.76.2.84,1.33.62.83,1.82.91,2.81.14,1.55.12,3.11.36,4.64.2,1.29.73,2.52,1,3.8.36,1.6.62,3.22.92,4.83a.91.91,0,0,1,0,.52c-.77,1.54.15,2.94.94,3.85,1,1.21.59,1.93-.13,2.72a13,13,0,0,1-7,4.28,21.55,21.55,0,0,0-3.58,1.28c-1.8.71-3.55,1.55-5.37,2.17s-3.72,1.07-5.59,1.59a.87.87,0,0,0-.33.12c-1.65,1.31-3.33,2.6-4.93,4-1.06.91-.87,4,.13,5a8,8,0,0,0,6,2.3c1.5-.06,3.14.25,4.45-.27,2.78-1.1,5.51-2.22,8.53-2.13,1.05,0,2.06.73,3.13.87,4.33.57,8.67,1.22,13,1.49,3.94.24,7.91,0,11.87.05a11.78,11.78,0,0,0,7.59-2.39c2.59-1.91,4-4.08,3.83-7.29-.17-2.76-.1-2.83,2.59-3.05,2.94-.25,4.82-2.09,4.83-5,0-10.3.87-20.62-1.05-30.89-.82-4.41-.51-9-1.07-13.48-.86-6.79-.29-13.75-.3-20.65a8.63,8.63,0,0,1,.34-1.71l.57.05c.06.55.15,1.1.17,1.65.07,2.16.1,4.32.17,6.47a5.58,5.58,0,0,0,.18,1.42c.73,2.29,1.67,4.52,2.21,6.85.69,3,1.07,6.08,1.59,9.13,0,.17.11.34.15.51.73,2.74,1.58,5.45,2.16,8.22s.93,5.76,1.38,8.65a3.37,3.37,0,0,0,.1.34c.75,2.49,1.52,5,2.25,7.48.46,1.54.95,3.08,1.28,4.65.53,2.52,1,5.06,1.37,7.62.21,1.65,0,3.36.13,5,.41,5.19.88,10.37,1.33,15.55,0,.12,0,.28.06.36,1.45,1.81,1,4,1.06,6,.09,2.21-.05,4.45.16,6.65.16,1.64.88,3.23,1.07,4.88a7.51,7.51,0,0,0,4,6,3,3,0,0,1,.78,3.8c-1.58,2-3.18,4-4.63,6.17-.77,1.14-1,2.63-1.87,3.7a3.53,3.53,0,0,0,2.6,5.71c1.48.06,3-.14,4.46-.11a18.58,18.58,0,0,1,3.33.39,20.13,20.13,0,0,0,2.45.82c2.21.11,4.43-.06,6.64,0a25.65,25.65,0,0,1,3.55.63c1.11-.21,2.37-.6,3.38-.24,2,.68,3.4,1.1,5.66-.07,2.79-1.44,4.18-3.67,5.67-6a24.77,24.77,0,0,0,1.52-3.79c.68-1.69,1.39-3.37,2.09-5,.45-1.09,1-2.17,1.33-3.29.94-3.07,3-4.64,6.11-5.31,1.05-.23,2.62-1.25,2.72-2.07a24,24,0,0,0-.46-5.94,20.48,20.48,0,0,0-1.77-6.27c-.72-1.5-.85-3.28-1.58-4.78a29.37,29.37,0,0,1-2.3-8.51c-.66-4.45-.95-8.94-1.42-13.42a7.65,7.65,0,0,0-.35-1.19c-.66-2.46-1.44-4.9-2-7.39-.64-3.12-1.07-6.28-1.6-9.42,0-.11-.07-.23-.1-.34-.74-3.27-1.54-6.52-2.22-9.8-.39-1.9,0-3.78-1-5.77-1.14-2.25-1.19-5.09-1.5-7.7-.37-3-.23-6.08-1-9.18a57.21,57.21,0,0,1-1.4-10.62c-.47-8.43-.18-16.9-.18-25.35,0-.72-.16-1.62.2-2.12,1.22-1.73.78-3.65.95-5.51.29-3.1-.21-6.17,1-9.3,1-2.57.55-5.62,1.32-8.48,1-3.83.16-7.91,1.22-12,1.2-4.58,1.14-9.51,1.48-14.3.42-5.9-.35-11.91,1.57-17.36a12.61,12.61,0,0,1,3.05-1.62c3.58-.75,4.73-3.84,5.49-6.52,1.06-3.75,1.19-7.78,1.54-11.7.19-2.14,0-4.32,0-6.47,0-1.6,0-3.21,0-5,1.86,0,3.47-.07,5.06.05.41,0,1.12.65,1.11,1-.06,3.23,1,6.47-.81,9.69a13,13,0,0,0-1.48,8.37,3.26,3.26,0,0,0,.75,1.59c.91,1,2.16,1.76,2.86,2.87a4,4,0,0,0,3.94,2c2-.14,3.9.35,6.07-.77,1.77-.93,4.25-.65,6.41-1.72,2.31-1.14,5.76-3.67,5.7-6.63A16.37,16.37,0,0,1,447.48,273.35Z"/><path d="M447.48,273.35a16.37,16.37,0,0,0-.75,3.44c.06,3-3.39,5.49-5.7,6.63-2.16,1.07-4.64.79-6.41,1.72-2.17,1.12-4.06.63-6.07.77a4,4,0,0,1-3.94-2c-.7-1.11-1.95-1.87-2.86-2.87a3.26,3.26,0,0,1-.75-1.59,13,13,0,0,1,1.48-8.37c1.77-3.22.75-6.46.81-9.69,0-.34-.7-1-1.11-1-1.59-.12-3.2-.05-5.06-.05,0,1.74,0,3.35,0,5,0,2.15.2,4.33,0,6.47-.35,3.92-.48,7.95-1.54,11.7-.76,2.68-1.91,5.77-5.49,6.52a12.61,12.61,0,0,0-3.05,1.62c-1.92,5.45-1.15,11.46-1.57,17.36-.34,4.79-.28,9.72-1.48,14.3-1.06,4.05-.2,8.13-1.22,12-.77,2.86-.29,5.91-1.32,8.48-1.25,3.13-.75,6.2-1,9.3-.17,1.86.27,3.78-.95,5.51-.36.5-.2,1.4-.2,2.12,0,8.45-.29,16.92.18,25.35a57.21,57.21,0,0,0,1.4,10.62c.79,3.1.65,6.14,1,9.18.31,2.61.36,5.45,1.5,7.7,1,2,.61,3.87,1,5.77.68,3.28,1.48,6.53,2.22,9.8,0,.11.08.23.1.34.53,3.14,1,6.3,1.6,9.42.52,2.49,1.3,4.93,2,7.39a7.65,7.65,0,0,1,.35,1.19c.47,4.48.76,9,1.42,13.42a29.37,29.37,0,0,0,2.3,8.51c.73,1.5.86,3.28,1.58,4.78a20.48,20.48,0,0,1,1.77,6.27,24,24,0,0,1,.46,5.94c-.1.82-1.67,1.84-2.72,2.07-3.09.67-5.17,2.24-6.11,5.31-.34,1.12-.88,2.2-1.33,3.29-.7,1.68-1.41,3.36-2.09,5a24.77,24.77,0,0,1-1.52,3.79c-1.49,2.34-2.88,4.57-5.67,6-2.26,1.17-3.7.75-5.66.07-1-.36-2.27,0-3.38.24a25.65,25.65,0,0,0-3.55-.63c-2.21-.1-4.43.07-6.64,0a20.13,20.13,0,0,1-2.45-.82,18.58,18.58,0,0,0-3.33-.39c-1.48,0-3,.17-4.46.11a3.53,3.53,0,0,1-2.6-5.71c.84-1.07,1.1-2.56,1.87-3.7,1.45-2.12,3.05-4.15,4.63-6.17a3,3,0,0,0-.78-3.8,7.51,7.51,0,0,1-4-6c-.19-1.65-.91-3.24-1.07-4.88-.21-2.2-.07-4.44-.16-6.65-.08-2.05.39-4.22-1.06-6-.07-.08-.05-.24-.06-.36-.45-5.18-.92-10.36-1.33-15.55-.13-1.67.08-3.38-.13-5-.33-2.56-.84-5.1-1.37-7.62-.33-1.57-.82-3.11-1.28-4.65-.73-2.5-1.5-5-2.25-7.48a3.37,3.37,0,0,1-.1-.34c-.45-2.89-.78-5.8-1.38-8.65s-1.43-5.48-2.16-8.22c0-.17-.12-.34-.15-.51-.52-3-.9-6.13-1.59-9.13-.54-2.33-1.48-4.56-2.21-6.85a5.58,5.58,0,0,1-.18-1.42c-.07-2.15-.1-4.31-.17-6.47,0-.55-.11-1.1-.17-1.65l-.57-.05a8.63,8.63,0,0,0-.34,1.71c0,6.9-.56,13.86.3,20.65.56,4.51.25,9.07,1.07,13.48,1.92,10.27,1.06,20.59,1.05,30.89,0,2.93-1.89,4.77-4.83,5-2.69.22-2.76.29-2.59,3.05.2,3.21-1.24,5.38-3.83,7.29a11.78,11.78,0,0,1-7.59,2.39c-4-.07-7.93.19-11.87-.05-4.36-.27-8.7-.92-13-1.49-1.07-.14-2.08-.84-3.13-.87-3-.09-5.75,1-8.53,2.13-1.31.52-2.95.21-4.45.27a8,8,0,0,1-6-2.3c-1-.94-1.19-4.06-.13-5,1.6-1.37,3.28-2.66,4.93-4a.87.87,0,0,1,.33-.12c1.87-.52,3.76-1,5.59-1.59s3.57-1.46,5.37-2.17a21.55,21.55,0,0,1,3.58-1.28,13,13,0,0,0,7-4.28c.72-.79,1.17-1.51.13-2.72-.79-.91-1.71-2.31-.94-3.85a.91.91,0,0,0,0-.52c-.3-1.61-.56-3.23-.92-4.83-.28-1.28-.81-2.51-1-3.8-.24-1.53-.22-3.09-.36-4.64-.08-1,.42-2.19-.91-2.81-.17-.08-.17-.55-.2-.84-.47-5.86-.88-11.73-1.43-17.59-.38-4.21-.34-8.59-1.61-12.53-1.1-3.42-.59-6.68-.9-10-.18-1.87.2-3.79-1.08-5.51-.42-.57-.22-1.63-.23-2.47-.08-6.53-.19-13.07-.19-19.61,0-5.8-.1-11.61.3-17.39.21-3.07,1.42-6.07,2.11-9.12.2-.92.08-1.92.28-2.85.74-3.29,1.55-6.57,2.33-9.86,0-.17.05-.35.09-.53.53-2.43.68-5,1.7-7.25.88-1.92.68-3.93,1.34-5.74,1.89-5.22.65-10.58,1.13-15.85.09-1,.52-1.89.68-2.86.35-2.06,1.26-3.93-.54-6.12s-2.08-5.46-1.49-8.42a6.42,6.42,0,0,1,1.58-2.63c.92-1.09,2.13-1.95,3-3.09.36-.48.19-1.44.07-2.15-.17-1-.6-1.88-.79-2.84a54.23,54.23,0,0,1-1.09-6.55c-.19-2.86-.1-5.75-.06-8.62,0-1.79.24-3.55-2.21-4-.44-.08-.71-.86-1.15-1.16-1.15-.79-2.36-1.48-3.53-2.21-1.25,1.46-2.36,2.78-3.5,4.06-.4.45-.93.79-1.32,1.25a12.82,12.82,0,0,0-2.68,5.59,56.56,56.56,0,0,1-2.21,5.83c-.55,1.56-1,3.16-1.45,4.77-.52,2.06-3.34,4.67-5.8,3.57a6.81,6.81,0,0,1-1.69-1.21c-2.15-1.91-4.23-3.9-6.42-5.75-1.54-1.3-2.18-3.08-2.89-4.82-.84-2.07-1.5-4.21-2.25-6.32s.4-3.5,1.43-4.91a16,16,0,0,1,6.57-5.15c.52-.23.88-.81,1.36-1.16,1.82-1.33,3.69-2.6,5.47-4,.28-.22.29-.89.29-1.35,0-1.56.06-3.12-.06-4.67-.26-3.49,1.35-6.46,2.26-9.66.68-2.39,2.12-4.19,3.13-6.3a21.09,21.09,0,0,1,2.71-3.62c1.16-1.47,2.33-2.94,3.54-4.37,1-1.17,2.15-2.21,3.05-3.44,1.23-1.71,2.27-3.56,3.41-5.33.42-.66.77-1.61,1.38-1.86,1.5-.61,1.13-1.77,1.13-2.83,0-5.09-.06-10.19,0-15.28a10.54,10.54,0,0,1,.82-2.79,4.89,4.89,0,0,0,.21-.68c.5-3.42,1-6.85,1.51-10.26.17-1.08.69-2.11.87-3.19.23-1.47.21-3,.46-4.44.18-1.11.65-2.17.92-3.27a8.48,8.48,0,0,0,.18-1.95c0-7,0-13.9.13-20.84,0-1,.71-1.92.92-2.91s.25-2.24.38-3.36a22.5,22.5,0,0,1,2.33-8.19c.65-1.21.95-2.6,1.49-3.89a14.19,14.19,0,0,0,1.24-2.46c.39-2.14,0-2.5-2.25-2.37-.72,0-1.44,0-2.15.1a3.29,3.29,0,0,1-3.31-2c-.52-.88-.62-.63-1.29,0-1.13,1-.95,2.27-1.21,3.49a10.13,10.13,0,0,1-.95,2.94c-1,1.78,1.13,1.93,1.45,3a10.78,10.78,0,0,0,1.49,2.77c.75,1.16-.14,1.87-.45,2.85a7,7,0,0,0,.35,4,37.59,37.59,0,0,1-1.87,5.51c-1,2-1,4.15-1.53,6.16-.52,1.86-2.22,3.4-3.46,5a2,2,0,0,1-1.19.58,3.47,3.47,0,0,0-2.79,3.14,60.89,60.89,0,0,1-1.47,6.69,2.31,2.31,0,0,1-1.36,1.21c-1.58.58-2.76,2.36-4.73,1.76a26.68,26.68,0,0,1-3.51-1.44c-.23-.11-.38-.62-.38-.94,0-3.16,0-6.32.12-9.48a5.27,5.27,0,0,1,.74-1.64,3.71,3.71,0,0,0-3.85.27,2.18,2.18,0,0,1-1.15.42c-2.07.09-3.59,1.45-5.39,2.18-2.24.91-4.62,1.47-7.19,2.26,0,.47,0,1.24-.11,2-.4,3.4-.68,6.82-1.34,10.17-.28,1.41-1.38,2.66-2.13,4-.83,1.46-1.75,2.87-2.53,4.36s-2,1.79-3.45,2.26c-4.93,1.59-10,1.17-14.85.58a103,103,0,0,0-14.13-.64c-2.51,0-5,.72-7.53,1-1.05.11-2.23.43-3.07-.79-.2-.29-1-.22-1.54-.22-8.82-.07-17.63,0-26.44-.24-4.17-.11-8.33-.75-12.48-1.27a9.48,9.48,0,0,1-2.52-1.19c-.08,1.06-.19,1.93-.2,2.79a66.36,66.36,0,0,1-.09,7.73c-.53,4.06-1.45,8.08-2.2,12.11-.1.53-.12,1.07-.19,1.61-.19,1.49.23,3.16-1.2,4.33-.13.11-.09.45-.12.68-.51,4.52-.69,9.1-1.59,13.54-1.87,9.12-.24,18.38-1.37,27.45-.64,5.17.07,10.42-1.2,15.43a42.19,42.19,0,0,0-1.13,6.16c0,.29-.46.51-.6.82-.6,1.28-1.13,2.38.23,3.79.94,1,1.2,2.66,1.63,4.08a13.6,13.6,0,0,1,.13,2.14,5.87,5.87,0,0,1-1.79,5.36,1.46,1.46,0,0,0,0,2.3c.77.89,1,2.23,1.63,3.27,1,1.62,2.14,3.17,3.26,4.72s2.12,2.82,3.18,4.22c1.51,2,3,4,4.5,6a15.74,15.74,0,0,1,1.88,3.28,21.28,21.28,0,0,0,4.61,6.57c1.7,1.82,3.77,3.29,4.74,5.85.66,1.74,2.23,3.12,3.29,4.73.61.93.94,2,1.54,3,1.57,2.48,3.24,4.9,4.82,7.38,1,1.57,1.93,3.18,2.87,4.8a69.13,69.13,0,0,1,3.65,6.56,37.57,37.57,0,0,1,1.56,5.71,32.9,32.9,0,0,1,1.19,4.69c.48,4.28,1.67,8.46,1.55,12.85a17.6,17.6,0,0,0,1.31,7.22c1.74,4,.79,8.2,1.32,12.27.47,3.59,1,7.32.55,10.87-1.36,10.51-.58,21-.78,31.56a29.58,29.58,0,0,0,.78,9.24c.71,2.4.45,5.1.54,7.67s.15,5,.07,7.56c0,1.64.38,3.41-1.24,4.78-.42.36-.72,1.4.54,2.42a32.26,32.26,0,0,0,4.57,3.1A15.15,15.15,0,0,0,233,449.9c2.25.28,4.56,0,6.82.18a45.91,45.91,0,0,1,8.94,1.42c2.2.66,4.16,2.18,6.16,3.42.92.57,1.13,3,.57,4-1.8,3-4.48,4.52-7.85,5.6a18.08,18.08,0,0,1-7.49.73c-2.24-.21-4.4-1.27-6.59-2a4.43,4.43,0,0,0-.67-.23l-12.34-1.57c-2.51-.33-5-1-7.51-.88-2.08.13-4.12,1.22-6.14,2-1,.36-1.92.93-2.89,1.34a26.55,26.55,0,0,1-3.59,1.38c-2.34.61-5.44-1.55-6.22-3.85a26.91,26.91,0,0,1-1.6-7.55c-.06-1.37-1.58-2.62-1.91-4-.66-2.84-3.79-2.78-5.1-4.77-1-1.46-2-2.84-2.93-4.32-.75-1.23-1.33-2.56-2-3.84a5,5,0,0,1-.37-.78c-.54-2-1-4.08-1.63-6.05a40.85,40.85,0,0,0-2.11-4.44,2.48,2.48,0,0,1-.18-.31c-.51-2.14-1-4.3-1.54-6.43-.7-2.6-1.48-5.18-2.22-7.76-.05-.18-.1-.35-.14-.52-.48-2.23-.57-4.65-1.55-6.64-1.06-2.16-.58-4.5-1.37-6.48s-.69-4.17-1.2-6.19a50.37,50.37,0,0,0-2.17-5.69,2,2,0,0,1-.09-.35c-.48-2.63-.89-5.28-1.45-7.9-.71-3.23-1.56-6.43-2.31-9.65-.54-2.29-.92-4.62-1.58-6.87-.56-1.88-1.4-3.67-2.14-5.5-.43-1.07-1-2.11-1.37-3.19-.54-1.4-.95-2.84-1.51-4.23a15.14,15.14,0,0,0-1.29-2.28c-1.07-1.66-2.17-3.3-3.26-4.95s-2-3.12-3.07-4.63c-1.35-1.93-2.74-3.84-4.18-5.7a13.21,13.21,0,0,0-2.55-2.72,3.75,3.75,0,0,0-2.52-.62c-.42.06-1,1.11-1,1.71,0,2.43-1.23,4.36-2.27,6.4A20.39,20.39,0,0,0,134,339c-.95,3.65-3.05,6.67-4.95,9.82-1.11,1.83-1.85,3.89-2.94,5.74-1.43,2.42-3.07,4.72-4.57,7.1a15.45,15.45,0,0,0-1.61,3,31.12,31.12,0,0,1-5,8.45,24.92,24.92,0,0,0-1.49,3c-1.77,3.09-3.41,6.29-5.46,9.2a49.79,49.79,0,0,1-5.28,5.61c-2,2-3.87,4.07-5.91,6a50,50,0,0,1-4.11,3.24c-1.18.9-2.38,1.78-3.58,2.64a27.65,27.65,0,0,1-3.3,2.27c-2,1.07-3.76,2.24-4.66,4.56-1.06,2.71-2.54,5.26-3.77,7.91-.92,2-1.68,4.09-2.63,6.08-1.55,3.27-3.24,6.48-4.79,9.75-.62,1.29-1,2.7-1.55,4s-1.38,2.51-2,3.79a21.74,21.74,0,0,0-1.56,3.45c-.74,2.45-2.54,4.39-3,7.06-.27,1.68-1.65,3.19-2.6,4.74-1.18,1.92-2.16,4.07-3.73,5.62-1.84,1.82-2.05,4.7-4.5,6.07a14.51,14.51,0,0,0-2.89,2.77,5.52,5.52,0,0,1-6.81,1.22,14.94,14.94,0,0,0-2.48-.27c-1.32-.3-2.61-.79-3.94-1-.59-.12-1.57-.08-1.82.28a19.85,19.85,0,0,0-1.78,3.5,10.51,10.51,0,0,0-1.12,3.32,82.61,82.61,0,0,0,0,9.31,10.49,10.49,0,0,0,1.41,3.67c.73,1.44,1.6,2.82,2.44,4.2,1,1.72,2,3.49,3.19,5.09,1.38,1.86.09,6.07-2,7.49s-4.38,1.23-6.7,1.36a27.44,27.44,0,0,1-10.31-1.58c-2.19-.74-4.44-.5-6.43-1.21-2.49-.89-5.53-1.18-7-3.84a11.69,11.69,0,0,1-1.43-4.08c-.28-2.06,0-4.2-.29-6.28-.32-2.78-.86-5.54-1.37-8.3-.57-3.16-1.44-6.29-1.7-9.48a8.27,8.27,0,0,1,1.36-4.72,50.45,50.45,0,0,1,4.4-5.12c1.25-1.48,2.43-3,3.65-4.54L9,459.69a10.48,10.48,0,0,1-.69-2.19,16.47,16.47,0,0,1,2.21-9.58c.77-1.44,1.13-3.1,1.79-4.61.55-1.28,1.25-2.49,1.89-3.73.16-.31.35-.6.48-.91q1.2-2.73,2.37-5.47a2,2,0,0,0,.16-.69c.07-2.23,1.44-3.91,2.37-5.79s1.76-4.14,2.76-6.14c1.14-2.27,2.48-4.44,3.65-6.69a16.86,16.86,0,0,0,1.44-3.46c.91-3.45,3.07-6.18,4.95-9.09,1.12-1.73,2-3.64,3-5.41.91-1.56,1.9-3.06,2.92-4.55s2.24-3.1,3.39-4.63c1.51-2,3.05-4,4.57-6s3-4,4.55-6c1.28-1.57,2.81-2.94,4.06-4.53s2.34-3.43,3.51-5.15c1.43-2.07,2.78-4.21,4.34-6.18,1.91-2.41,4-4.65,6-7A36.88,36.88,0,0,0,72,347.4a24.62,24.62,0,0,0,1.62-4c.77-2.1,1.5-4.2,2.24-6.3,0-.11.17-.22.16-.31-.37-2.48,1.06-4.58,1.43-6.9.5-3.14.53-6.44,1.63-9.35.88-2.36.56-4.7,1.14-6.95,2.36-9.28.46-18.74,1.38-28.07.08-.82.36-1.61.51-2.42.41-2.1,1-4.15-.46-6.2a5.47,5.47,0,0,1-.54-2.94,36.94,36.94,0,0,1,.35-7.53,92.08,92.08,0,0,0,1.38-10c.21-1.89,1.41-3.67,2.15-5.51a3.6,3.6,0,0,0,.15-.88,17.15,17.15,0,0,1,3.63-7.76c1.41-1.87,2.63-3.88,4-5.81,1.65-2.38,3.43-4.67,4.93-7.13a10,10,0,0,0,1.39-4.15c.08-.85-.75-1.81-1.24-2.67-.66-1.17-1.4-2.29-2.1-3.44a1.31,1.31,0,0,1-.12-.33,56.78,56.78,0,0,1-1.38-7.77c-.2-4.73-.13-9.48.1-14.21a6.41,6.41,0,0,0-1.8-4.45c-1.47-1.87-3.34-3.48-4.47-5.52-1.78-3.22-4.5-5.71-6.27-8.88-.71-1.28-1.16-2.7-1.76-4q-.69-1.56-1.47-3.09c-1.54-3-1.59-8.94-.09-12a2.45,2.45,0,0,0,.18-.87c.18-2.11,1.32-3.79,2.32-5.57.71-1.24,1.07-2.68,1.71-4s1.49-2.46,2.18-3.72c.55-1,.91-2.16,1.53-3.15.91-1.47,2-2.84,3-4.28a20.32,20.32,0,0,0,1.92-3c.64-1.42,1-3,1.54-4.43.72-1.89,1.52-3.75,2.3-5.62.54-1.31,1.06-2.63,1.67-3.9a14.41,14.41,0,0,1,1.33-2.11c2.08-2.89,4.11-5.82,6.29-8.64a69.67,69.67,0,0,1,6.48-7.72c1.26-1.22,2.5-2.62,4.49-3.23,1.7-.51,3-2.18,4.58-3.24.9-.6,1.89-.82,2.52-2A22.78,22.78,0,0,0,125,83.39a51.29,51.29,0,0,1,1.17-6.18,16.27,16.27,0,0,1,.87-3.86c.59-1.43.08-3.35-.08-5-.07-.7-.62-1.37-.68-2.07-.28-2.88-.47-5.72-1-8.6a47.28,47.28,0,0,1-.16-12c.21-2.52,1.34-5,2-7.45a7.4,7.4,0,0,0,.23-1.23c.2-2.44,1.37-4.5,2.27-6.71a16.29,16.29,0,0,1,4.25-6.15c1.38-1.24,3-2.24,4.34-3.47,2.16-1.92,4.95-2.43,7.47-3.54a4.49,4.49,0,0,1,1.76-.28c6.05,0,12.11-.18,18.15.08,1.87.08,3.7,1.3,5.51,2.07,1.06.45,2,1.19,3.11,1.57,2.53.89,4.06,2.88,5.48,4.94,1.86,2.7,3.65,5.46,5.23,8.33a13.78,13.78,0,0,1,1.37,4.67,50.57,50.57,0,0,1,.16,5.38c.08,3-1.63,5.31-3.1,7.75-1.33,2.2-4,3.87-3.3,7,.83,3.49,1.76,7,2.72,10.41.08.28.69.41.82.48a25,25,0,0,0-1,2.61,7.13,7.13,0,0,1-4.12,5.19c-1.35.63-2.7,1.67-2.41,3.52.22,1.44-.29,3,.88,4.37.37.44-.46,2.49-1.27,3.15-1.05.84-.88,1.71-.9,2.67,0,1.24.12,2.5,0,3.74a15.51,15.51,0,0,1-.8,2.64c.94.41,2.19.89,3.38,1.48a13.18,13.18,0,0,1,1.71,1.2c2.4,1.63,4.77,3.31,7.22,4.86,1,.63,2.2.91,3.25,1.46,2.33,1.24,4.94,1.86,7.09,3.57,1.12.88,2.76,1.06,4.08,1.71,3,1.47,6.22.91,9.32,1.41,1.74.28,3.32,1.5,5,2.06a12.08,12.08,0,0,0,3.56.37q15.38,0,30.75-.12a14.56,14.56,0,0,0,1.62,0c3.62-.42,7.37-.39,10.79-1.45a32.93,32.93,0,0,1,6.73-1.2c.4,0,.75-.42,1.15-.58s.87-.39,1.06-.24c1.94,1.5,3.85,1.22,5.8,0a1.83,1.83,0,0,1,1-.22c2.53.1,4.59-1.07,6.62-2.34a2.25,2.25,0,0,1,.7-.17c2.05-.45,3.76-1.83,5.61-2.48,3.37-1.19,5.13-4.36,8.33-5.67,1.76-.72,3.14-2.38,4.7-3.62.18-.14.51-.2.55-.36.53-1.74,1.1-3.47,1.48-5.25.53-2.56.8-5.18,1.4-7.73s1.65-4.83,2-7.31c.21-1.34-1.46-1.8-2.57-2.33A12.56,12.56,0,0,1,303.91,73c-1.12-.94-1.16-3.75-.23-4.93a2.33,2.33,0,0,0,.53-.85c.57-2.39.74-4.94,1.71-7.14a17.05,17.05,0,0,0,.66-11.16c-1.1-4.31-.84-8.58-1.23-12.85-.16-1.71.8-3.52,1.24-5.28.1-.39.18-.8.28-1.19a20.55,20.55,0,0,1,3.22-6.66,15.48,15.48,0,0,1,3.43-4.1c1.7-1.22,3.69-2.08,5.24-3.46,1.78-1.6,3.88-.9,5.84-1.32.55-2.46.92-5,1.68-7.31S327.81,2,329.91.43c1.13-.86,5-.35,6.1.81A7,7,0,0,1,337.58,8c-.26,1.08-.88,2.07-1.18,3.15-.41,1.46.33,1.92,1.76,2.12a14.2,14.2,0,0,1,7.49,3c1.68,1.4,3.75,2.3,5.16,4.15s3.39,3.65,4.79,5.69a32.23,32.23,0,0,1,2.95,6.18c.95,2.35.7,4.59,1,6.88A109.74,109.74,0,0,0,361,50.72c.45,2,1,3.72.45,5.68-.32,1.15-.56,2.32-.83,3.43a11.42,11.42,0,0,1,7.91,6.76,6.17,6.17,0,0,0,3.05,2.59c1.58.73,3.42.88,5.05,1.53a28.75,28.75,0,0,1,3.55,2.13c.95.55,1.94,1,2.91,1.54,3.13,1.64,5.54,4.17,7.87,6.72a26.52,26.52,0,0,1,3.14,5q1.77,3.15,3.37,6.37A37.47,37.47,0,0,1,399,96c.55,1.5,1,3,1.58,4.51a20.55,20.55,0,0,0,1.46,3.24,17.37,17.37,0,0,1,2.49,6c.3,1.6,1.53,3,2.24,4.56.6,1.32.92,2.78,1.61,4,1.32,2.45,1.61,5.31,3.33,7.63.91,1.22,1.11,3,1.72,4.42.32.79.88,1.49,1.25,2.26a23.53,23.53,0,0,0,5.65,7.23,15.63,15.63,0,0,1,1.92,2.41c1.59,2.11,3.2,4.19,4.72,6.34,1.07,1.5,2,3.09,3,4.65.72,1.14,1.45,2.28,2.14,3.46a23,23,0,0,1,1.57,3c1,2.5,1.8,5.05,2.8,7.54.64,1.59,1.49,3.09,2.24,4.64a.72.72,0,0,1,.11.34c-.08,1.81.86,3.36,1.23,5a94.9,94.9,0,0,1,1.49,11.19c.49,4.48,1,9,1.3,13.45.22,3.23-.39,6.58.25,9.69,1.77,8.61.63,17.28,1,25.9.18,4.55-.1,9.12-.11,13.67,0,1.71-.88,2.85-1.87,4.1-.45.56-.26,1.7-.18,2.55,0,.42.6.75.74,1.18,1,2.81,1.88,5.65,2.84,8.46C446.16,269.6,446.91,271.71,447.48,273.35Zm-67.66-110.6.05.05a3.47,3.47,0,0,0-.32-1.17c-2-2.8-4.19-5.52-6.13-8.38-1.09-1.61-1.65-3.59-2.79-5.15-1.77-2.42-2.11-5.35-3.22-8A32.11,32.11,0,0,1,366,133.8c-.42-2.24-.86-4.48-1.09-6.75s-.27-4.66-.31-7c0-1,.21-1.93,1.57-1.87s1.1,1.1,1.11,1.85c.05,1.92-.18,3.85,0,5.75.2,2.08.71,4.13,1.1,6.19.52,2.73,1,5.45,1.57,8.18a3.44,3.44,0,0,0,.21.49c.7,1.68,1.44,3.35,2.1,5.05a26.58,26.58,0,0,0,1.52,4.15,82.68,82.68,0,0,0,5.23,7.61c1.9,2.44,4.22,4.57,6,7.07,2.4,3.34,4.5,6.89,6.65,10.4.61,1,.84,2.19,1.41,3.2s1.59,2,2.14,3.16a59.88,59.88,0,0,1,2.55,6.15c1,2.81,1.85,5.68,2.77,8.51.11.34.28.66.4,1a53.92,53.92,0,0,1,2,5.6c.67,2.71,1.06,5.49,1.57,8.24a2,2,0,0,0,.08.35,43,43,0,0,1,2.14,6.21c.46,2.34.23,4.74,1.27,7.08.82,1.84.33,4,1.18,6.12s.39,4.67,1.38,7.05c.86,2.06.57,4.54,1.21,6.88,1,3.71,1.15,7.69,1.56,11.56.12,1.16.47,1.71,1.71,1.71,4.92,0,9.83,0,14.74,0a4.51,4.51,0,0,0,1.54-.32q2.75-1.08,5.46-2.24a16.83,16.83,0,0,0,3.4-1.6,3.18,3.18,0,0,0,1.14-2.2c.09-10.55.19-21.11.07-31.66-.05-4-.73-8-1-12-.19-3.23,0-6.48-.22-9.7-.2-2.69-1.12-5.36-1.09-8,0-4-.83-7.72-1.56-11.54,0-.17-.12-.33-.17-.51-.74-2.4-1.5-4.8-2.21-7.22-.52-1.78-1-3.58-1.48-5.36a4.34,4.34,0,0,0-.54-.92c-1-1.69-2.09-3.35-3-5.08-.66-1.22-1-2.59-1.69-3.8-1.17-2.13-2.86-4-3.66-6.32-.05-.14-.22-.24-.33-.36-1.05-1.08-2.45-2-3.08-3.28-1.48-3-4.12-5.18-6-7.87-1.74-2.44-2.82-5.14-4.39-7.62a46.61,46.61,0,0,1-2.6-5.85c-.43-1-1-1.83-1.39-2.8-.6-1.67-1-3.4-1.6-5.09-.36-1.08-.84-2.13-1.28-3.18-.76-1.82-1.55-3.64-2.3-5.46-.11-.27-.05-.62-.19-.87-1.15-2-2.83-3.84-3.39-6C397.44,98.08,395,96,395.22,93c0-.18-.23-.38-.34-.57-.66-1.11-1.68-2.14-1.9-3.33-.43-2.29-2.46-3.42-3.38-5.4s-2.77-3.42-4.34-5a22.69,22.69,0,0,0-3.74-2.95,32,32,0,0,0-3.95-1.92,21.38,21.38,0,0,0-4.48-1.92,9.56,9.56,0,0,1-5.86-3.3c-1.35-1.66-2.57-3.44-4-5.07a2.23,2.23,0,0,0-4,.78c-.43,1.19-.93,2.34-1.4,3.5-.73,1.78-1.57,3.51-2.16,5.33-.64,2-1,4.07-1.58,6.07a31.59,31.59,0,0,1-1.61,3.8c-.65,1.43-1.41,2.81-2,4.25s-1,2.94-1.62,4.36c-1.12,2.54-2.31,5-3.52,7.54a36.31,36.31,0,0,1-3,5.63c-1.65,2.27-3.67,4.28-5.54,6.41a24.8,24.8,0,0,0-2.94,3.4c-1.09,1.82-1.61,4-2.83,5.71a43.06,43.06,0,0,0-3.86,7.48c-.42.91-.85,1.83-1.31,2.73-.77,1.48-1.66,2.92-2.31,4.45s-.9,3-1.47,4.41a55.08,55.08,0,0,0-2.24,5,33.31,33.31,0,0,0-1.36,7.3,43.77,43.77,0,0,1-2.49,12.94,30.11,30.11,0,0,0-1.28,8c-.21,2.62-.05,5.27,0,7.91a5.17,5.17,0,0,0,.13,1.24c.75,2.69,1.65,5.35,2.23,8.07.62,2.89.94,5.84,1.4,8.76,0,.17.16.32.2.49.73,3.11,1.47,6.22,2.19,9.33.51,2.25,1,4.52,1.48,6.78,0,.11.13.2.18.3l2.84,6.16c1.48-.06,3.29.8,4.94-.72.33-.3,1.33.09,2,.24.39.08.73.41,1.12.45a45.48,45.48,0,0,1,8.31,1.33c4,1.23,8.36.2,12.32-1.34,2.81-1.09,5.5-2.5,8.22-3.81,1.91-.91,3.85-1.78,5.66-2.86,3.08-1.84,5.91-4.14,9.6-4.77a2.16,2.16,0,0,0,.66-.23c2.1-1.14,4.17-2.33,6.3-3.4,1.2-.61,2.52-1,3.74-1.55a13.49,13.49,0,0,0,2.93-1.63c1.86-1.54,3.59-3.26,5.42-4.86a3.2,3.2,0,0,0,1.25-3.41c-.49-1.72-1.13-3.4-1.7-5.1a29.38,29.38,0,0,0-1.1-3.24c-1.06-2.28-2.23-4.51-3.38-6.74-1.33-2.56-2.69-5.11-4-7.66a23.38,23.38,0,0,0-1.67-3,36,36,0,0,0-3.76-4.5C381.49,164.13,381.34,162.6,379.82,162.75ZM85.29,275.25c0,.4-.1,1.24-.1,2.07,0,10.18.08,20.37-1.11,30.51,0,.12,0,.24,0,.36-.5,4.08-1,8.17-1.51,12.25a4.32,4.32,0,0,1-.3,1,15.87,15.87,0,0,0-.84,2.33c-.54,2.89-1,5.8-1.47,8.7a5,5,0,0,1-.14.52c-.75,2.47-1.5,4.93-2.26,7.4-.52,1.67-1,3.35-1.58,5a15.73,15.73,0,0,1-1.26,2.84,26.81,26.81,0,0,1-2.24,3.15c-.78,1-1.7,1.82-2.51,2.77-1.7,2-3.37,4-5,6.06a36.31,36.31,0,0,0-2.57,3.28c-1.12,1.72-2,3.61-3.17,5.27-1.6,2.26-3.79,4-5.17,6.52-1.28,2.35-3.33,4.28-5,6.4-2,2.53-4.06,5.05-6,7.63-1,1.31-1.82,2.74-2.74,4.11-.78,1.15-1.64,2.25-2.34,3.44-1.07,1.79-1.76,3.89-3.11,5.4-1.6,1.79-2.4,3.91-3.42,6-.65,1.32-1,2.78-1.63,4.12s-1.4,2.64-2.05,4-1.08,2.59-1.72,3.83c-1.52,2.95-3.27,5.78-4.6,8.8-1.19,2.7-1.94,5.59-2.9,8.39a4.92,4.92,0,0,1-.37.81c-.67,1.25-1.42,2.46-2,3.75s-.89,2.84-1.59,4.12c-1.2,2.2-2.44,4.33-2.46,6.94,0,.38-.34.73-.44,1.12-.31,1.31-.88,2.4.12,3.95a7.27,7.27,0,0,0,3,2.68c1.7.91,3.17,2.29,4.91,3.09a45.63,45.63,0,0,0,7.35,2.63A49.75,49.75,0,0,1,34.79,469a22,22,0,0,0,5.37,1.33c2.36.37,4.79.35,6.71-1.31a27.16,27.16,0,0,0,3.71-4.15c1.16-1.53,2.1-3.22,3.15-4.83,1.46-2.25,3-4.43,4.36-6.76A35.23,35.23,0,0,0,59.73,449c.4-1,.92-1.86,1.4-2.79.75-1.45,1.57-2.87,2.24-4.35s.95-2.83,1.6-4.16c1.06-2.15,2.38-4.17,3.4-6.34,1.46-3.13,2.76-6.34,4.11-9.53.51-1.22.88-2.52,1.49-3.7s1.53-2.15,2.1-3.32a51.64,51.64,0,0,0,2.61-6.14c.81-2.4,3.09-3.21,4.75-4.65s3.59-2.26,5.32-3.47c1.26-.89,2.23-2.36,3.6-2.91,2.49-1,3.78-3.15,5.53-4.85s3.38-3.77,5.09-5.64a35.91,35.91,0,0,0,3.83-4.09c1.56-2.37,2.78-5,4.11-7.5a24.91,24.91,0,0,1,1.55-3.25,38.63,38.63,0,0,0,5.12-8.8c.9-2.27,2.55-4.23,3.88-6.32,1.08-1.71,2.18-3.41,3.24-5.14.53-.86,1-1.77,1.44-2.68,1-1.91,2-3.82,2.9-5.75.81-1.68,1.56-3.39,2.33-5.09.17-.38.31-.76.48-1.14a32.38,32.38,0,0,0,1.89-4.17c.67-2.25,1.06-4.57,1.58-6.86a4.37,4.37,0,0,1,.32-.6,36.83,36.83,0,0,0,2-4.85c.41-1.55.29-3.1,1.1-4.71,1.33-2.63,1.92-5.62,2.8-8.37,2.35,0,3.16,1,2.29,2.7a17.13,17.13,0,0,0-2.34,7.33c0,.47-.57.9-.63,1.39-.18,1.28-.67,2.78-.21,3.83s2,1.78,2.92,2.73a30.44,30.44,0,0,1,3.16,3.46c1.52,2,2.87,4.23,4.33,6.34,1.93,2.78,3.92,5.53,5.86,8.32a11.24,11.24,0,0,1,1.24,2.22c.62,1.56,1.05,3.2,1.7,4.75,1.07,2.54,2.41,5,3.34,7.57a74.27,74.27,0,0,1,2.5,8.77c.67,2.95,1,6,1.54,8.95.41,2.28.9,4.55,1.36,6.82a1.15,1.15,0,0,0,.06.17,68.59,68.59,0,0,1,2.3,6.59c.67,2.69,1,5.46,1.45,8.2,0,.12,0,.25,0,.36a76.62,76.62,0,0,1,2.25,7.49c.56,2.78,2.19,5.36,1.67,8.37a2.3,2.3,0,0,0,.21.85c.74,2.48,1.45,5,2.22,7.43.56,1.78,1.2,3.54,1.81,5.3.34,1,.6,2,1,2.9.63,1.33,1.79,2.55,2,3.92.36,2.34,1.6,4.18,2.57,6.2,1.74,3.67,5.09,4.76,8.58,5.28,2.83.42,5.71-.59,8.51-.85,4.55-.42,9-1.25,13.53-1.77,1.65-.19,4.17-2.54,4.16-3.8,0-4.38,0-8.75-.22-13.12-.07-1.49-.9-3-.9-4.44-.07-16.31,0-32.62-.11-48.94,0-3.64.76-7.36-1.07-11a14.19,14.19,0,0,1-1.25-6.53c.09-4.76-.94-9.35-1.57-14-.35-2.6-.88-5.18-1.44-7.74a17,17,0,0,0-1.31-4c-1.11-2.2-2.39-4.32-3.67-6.42-1.13-1.85-2.35-3.65-3.56-5.45-.86-1.28-1.85-2.47-2.63-3.79s-1-2.55-1.73-3.71c-1.5-2.45-3.37-4.7-4.65-7.26-.93-1.86-2.39-3.07-3.72-4.5s-2.8-3.06-4.1-4.67c-1.11-1.37-2.07-2.86-3.1-4.3-5.72,6.55-12.41,10.37-21.1,10.16-1,2.4-1.63,5-3,7.08-.82,1.24-.76,2.52-1.31,3.69-1.08,2.3-2.34,4.53-3.39,6.84-.57,1.24-1.37,2.21-2.68,1.72a6.1,6.1,0,0,1-2.51-2.21c-1.23-1.73-2.07-3.76-3.42-5.38s-2.28-3.84-1.59-5.1c.44-.83.73-1.74,1.09-2.61a15.16,15.16,0,0,0,.73-1.73c.19-.7.57-1.79.27-2.09a21.67,21.67,0,0,0-3.55-2.59c-1.66-1.05-3.65-1.73-5-3.08a16,16,0,0,0-10.08-4.77,1.61,1.61,0,0,1-.85-.24c-1.32-1.31-3-1-4.56-1-2.52-.06-5-.05-7.55-.1a3.59,3.59,0,0,1-1.39-.22c-1.76-.72-3.49-1.51-5.25-2.25-1.37-.58-2.51-1.27-2.52-3,0-5.58-.07-11.15-.19-16.73,0-.64-.44-1.69-.86-1.8a4,4,0,0,0-2.61.32c-1.79.94-3.4,2.21-5.17,3.17-2,1.1-4.18,2-6.23,3C90.68,272.19,88.2,273.63,85.29,275.25Zm1.86-114.84-.4-.28c0-.77-.3-1.74.06-2.27,1.41-2.08,5.65-3.33,8-2.54.2.07.47.2.54.38.43,1,1.3,1.29,2,.65.38-.36.23-1.43.13-2.15a23.25,23.25,0,0,1-.7-2.63,20.29,20.29,0,0,1,1.13-8.67c.46-1.2.68-2.26,1.92-2.81a4.33,4.33,0,0,1,.21,4.38,4.61,4.61,0,0,0-.73,2.25c.07,2.89-.26,5.76.88,8.64,1.06,2.64-.32,5.88,1.56,8.48,0,5.94,1,11.88-.89,17.8-1,3.08-1.09,6.45-1.66,9.68a17,17,0,0,1-.81,2.23c-.56,1.65-1.47,3.29-1.55,5-.22,4.67-.1,9.35-.08,14a5.36,5.36,0,0,0,.34,1.71c.68,2,1.48,4,2.1,6.09a13.7,13.7,0,0,0,3.11,5.29c.8.89,1.44,1.92,2.17,2.87a16.51,16.51,0,0,0,1.86,2.28c1.83,1.65,3.77,3.17,5.6,4.81,1.52,1.36,2.86,2.91,4.44,4.17a34.52,34.52,0,0,0,5,3.22c1.49.81,2.82,1.86,4.71,2a34.94,34.94,0,0,1,6.06,1.59c.05,0,.08.1.13.12,1.75.66,3.47,1.75,5.27,1.89,4.49.33,9,.47,13.47,1.15s9.44.41,14.18.56a7.58,7.58,0,0,1,1.43.08c1.78.38,3.54.81,5.33,1.22.31-1.08.5-1.7.66-2.32.75-2.91,1.89-5.78,2.17-8.73.86-8.84,0-17.72,1.08-26.63.86-7,1.17-14.08,1.68-21.14a7.59,7.59,0,0,1,.2-1.42c.74-2.71,1.55-5.4,2.25-8.12.46-1.83.3-3.68,1.09-5.58,1.06-2.54,1.23-5.52,1.42-8.33.23-3.4.11-6.83.08-10.25a3.25,3.25,0,0,0-.55-1.33,6.5,6.5,0,0,0-.65-.84c.35-.19.69-.53,1-.55a53.46,53.46,0,0,1,5.37,0c6.39.41,12.77.95,19.16,1.35,2.09.13,4.2,0,6.29,0,8.56-.21,17.1.53,25.66.14a88.37,88.37,0,0,1,9.35,0c3.18.2,6.45-.58,9.54.83a3,3,0,0,0,1.58-.11,28,28,0,0,1,3.08-.62c1.85-.12,3.72-.07,5.57-.12.86,0,1.72.14,2-1.17a9.76,9.76,0,0,1,1.27-2.57,23.4,23.4,0,0,0,2.22-4.3,33.17,33.17,0,0,0,1.23-6.91,55.75,55.75,0,0,0-1.24-17.7c-.05-.17-.1-.34-.16-.51-.77-2.25-1.47-4.53-2.35-6.74-.38-1-1.07-2.48-1.71-2.53a18,18,0,0,0-6.76.45,33.31,33.31,0,0,1-9.23,2c-8.51.21-17,.06-25.53.08-3.78,0-7.56.23-11.32.07-2-.08-3.85-.54-4.64,2-.06.18-.34.33-.55.41-1.87.71-2.74,3.08-5,3-2.48,2.75-6.22,1.83-9.54,3.53.2-1.1.09-2.15.5-2.42a14.81,14.81,0,0,1,3.34-1.32,31,31,0,0,0,5-1.66,37.28,37.28,0,0,0,4.93-3.61,1.31,1.31,0,0,0,.41-.88c.09-1.66-1.2-1.59-2.22-1.56a24.27,24.27,0,0,1-13.86-3.87,18,18,0,0,0-2.51-1.29,42.33,42.33,0,0,1-4.24-1.65c-1.79-1-3.41-2.29-5.14-3.38s-3.35-2-5.07-3c-1.44-.77-2.9-1.94-4.41-2-5.46-.4-10.92-.39-16.39-1.25-3.05-.48-6.38.76-9.58,1.22a.72.72,0,0,0-.33.11c-1.73,1.62-4.17,1.52-6.2,2a32.58,32.58,0,0,0-8.49,3.54c-.42.25-1.18,0-1.79-.1.05-.49-.1-1.18.17-1.43a11.33,11.33,0,0,1,2.58-1.76c1.4-.68,2.87-1.22,4.33-1.77a48.79,48.79,0,0,1,5.76-2.05c2.84-.68,5.75-1,8.63-1.58.25,0,.48-.27,1.08-.62a39.62,39.62,0,0,0-3.35-2.85c-1.85-1.25-3.82-2.34-5.74-3.51-1.61-1-3.1-2.31-4.85-2.85a72.46,72.46,0,0,0-8.11-1.5c-1-.19-2.07-.44-3.25-.7-.09.32-.25.82-.36,1.34-.54,2.64-.93,5.35-2.57,7.6a13.32,13.32,0,0,1-2.59,2.71c-1.54,1.16-3.21,2.14-4.84,3.18a24.29,24.29,0,0,0-2.84,1.79c-1.67,1.45-3.29,3-4.81,4.58a22.26,22.26,0,0,0-3.86,4.7,45.7,45.7,0,0,1-3.94,5.63c-1.56,2.21-3.27,4.3-4.12,7-.43,1.36-1.41,2.55-2,3.89-.67,1.63-1.12,3.35-1.72,5A21,21,0,0,1,92.49,137c-1.82,2.84-3.91,5.5-5.84,8.26a13,13,0,0,0-1.36,2.55c-.56,1.37-1,2.8-1.49,4.18a10,10,0,0,1-1.4,3c-1.52,1.73-1.73,3.94-2.12,6-.47,2.37-.18,4.89-.17,7.34a4.11,4.11,0,0,0,.33,1.75c1.07,2.1,2.19,4.18,3.38,6.21,1.35,2.31,2.44,4.94,4.29,6.76s3.16,4.22,4.9,6.18c.93,1.06,1.91,2.09,2.86,3.13l.52-.22c.11-.73.24-1.46.32-2.2a15.07,15.07,0,0,1,.18-2.14c.7-2.74,1.85-5.41,2.14-8.18a112.81,112.81,0,0,0,.19-11.49,5.07,5.07,0,0,0-.47-1.43c-1.2,2.36-2.35,4.37-3.26,6.49-.56,1.33-1.34,1.41-2.66,1a13.83,13.83,0,0,1,.46-2.1c.18-.47.66-.83.88-1.29.59-1.25,1-2.59,1.7-3.77a3.18,3.18,0,0,1,1.78-1.53c1.63-.31,1.67-1.18,1.37-2.39-2.85-.77-7.62,1.8-9.17,5l-2.27-.38c1.8-5,6.33-5.84,10.19-8-.07-.59.73-2.13-.92-2C93.5,158,89.63,156.52,87.15,160.41Zm257.57,149c2.8,1.19,3.28,3.88,4.48,6,.13.23,0,.6.1.88.47,1.92.64,4,1.52,5.71,1,1.89.81,3.77,1,5.7.32,3.41-.68,6.92.82,10.24.07.17-.11.44-.16.67a13.11,13.11,0,0,0-.55,2.57c-.07,7.37-.14,14.75-.08,22.12a28.09,28.09,0,0,0,.76,7,77.29,77.29,0,0,1,1.65,12.09c.22,2.2.1,4.44.15,6.65a5.76,5.76,0,0,0,.11,1.44c.74,2.7,1.63,5.37,2.25,8.11s1.05,5.72,1.57,8.59c0,.17.09.34.14.52.76,2.75,1.61,5.48,2.24,8.26.3,1.32,0,2.79.29,4.1.62,2.59,1.6,5.09,2.22,7.67.66,2.79,1.07,5.63,1.59,8.44a3,3,0,0,0,.12.52,61.49,61.49,0,0,1,2.08,6.91c.8,4.34-.07,8.78,1.18,13.19.93,3.29-.12,7,1.24,10.39a11.39,11.39,0,0,1,.29,5c-.43,4.44.76,8.7,1.36,13a5,5,0,0,0,1.55,3.09c2.1,1.64,4.36,3.13,7.31,2.89,2.26-.17,4.55,0,6.82-.18,4.41-.31,8.87.7,13.26-1,2-.76,4.32-.75,6.49-1.2s4.45-1.32,6.72-1.79a2.89,2.89,0,0,0,2.4-3.23c-.81-2.7-1.54-5.42-2.27-8.14-.54-2-1-4-1.53-6a3.09,3.09,0,0,0-.14-.32c-.7-1.75-1.74-3.45-2-5.27-.61-3.65-.3-7.37-1.26-11.07-1-4-1.14-8.17-1.65-12.27a2.36,2.36,0,0,0-.1-.53,32.67,32.67,0,0,1-2.36-9.63,10.31,10.31,0,0,0-.36-2.07,25.83,25.83,0,0,1-.86-2.57c-.52-3.29-.94-6.6-1.4-9.89,0-.12,0-.24-.07-.35a60,60,0,0,1-2.15-7.87c-.73-5.34-1.05-10.74-1.64-16.11-.23-2.07-1.06-4.11-1.1-6.18-.14-7.55-.19-15.11,0-22.66.07-3.28.74-6.54,1.14-9.81.39-3.11-.32-6.23,1.06-9.4,1.13-2.61,1.09-5.76,1.41-8.68.49-4.49.23-9,1.21-13.51,1.23-5.69,1.09-11.69,1.43-17.56.17-2.93,0-5.87.14-8.8.07-1.46-.44-1.85-1.76-1.54a49.11,49.11,0,0,1-13.17,1.51,9.36,9.36,0,0,0-1.4.32c-1.92.29-3.85.58-5.79.77a1.27,1.27,0,0,1-1-.68c-.42-2.31-.73-4.65-1.09-7-.42-2.75-.18-5.49-1.19-8.32-1.22-3.4-1.06-7.29-1.5-11-.1-.85-.21-1.71-.31-2.56l-.5-.24c-.51.47-1.32.87-1.47,1.44a71,71,0,0,0-1.47,7c-.36,2.3-.21,4.57-1,6.92-1.07,3.2-1.27,6.72-1.6,10.13s-2.14,5.4-5.57,5.46c-3.6,0-7.2,0-10.79-.13-1.55-.07-3.13-1.06-4.61-.89-4.07.49-7.72-1.46-11.64-1.66a1.11,1.11,0,0,1-.35-.08c-2.62-1.15-5.26-2.27-7.85-3.49a32.62,32.62,0,0,1-4.82-2.65,36.61,36.61,0,0,1-5.41-4.5c-1.14-1.19-1.67-.88-1.91.36a39.83,39.83,0,0,0-.59,5.45c-.2,3.53-.29,7.06-.45,10.59a11.14,11.14,0,0,1-.3,2.84c-.62,2-1.56,3.84-2.08,5.83-.69,2.59-1.09,5.27-1.61,7.91a5,5,0,0,1-.11.53c-.75,2.9-1.63,5.79-2.21,8.73-.63,3.16-1,6.39-1.46,9.59a5.1,5.1,0,0,1-.19.5,20.62,20.62,0,0,0-.95,4.27c-.07,10.68,0,21.35,0,32a22.37,22.37,0,0,0,.38,3.74c.24,1.43.75,2.82.91,4.26.48,4.33-.48,8.68,1,13.06,1.19,3.53-.13,7.53,1.4,11.29.91,2.24.48,4.95,1,7.48,1,5,1.24,10.18,1.78,15.29a8.55,8.55,0,0,0,.13,1.24c.38,1.51.79,3,1.21,4.51.19.65.43,1.29.64,1.93-.17.93.38,2,.05,2.56-.76,1.36-.17,2.26.18,3.54.69,2.52,2.61,2.8,4.49,3.4l5.44,1.75c1,.33,2.11.6,3.13,1a45.9,45.9,0,0,0,5.37,2.2c2.89.72,5.88,1.09,8.82,1.61.18,0,.41,0,.52.13,1.38,1.34,3.13.88,4.75,1,1.44.08,2.31-.54,2.32-2.07.06-5.74.3-11.5.12-17.24-.16-5-.81-9.92-1.22-14.89a78.07,78.07,0,0,0-1-9.2,80.65,80.65,0,0,1-1.44-15.36c0-5.26.69-10.53,1.09-15.79,0-.23,0-.54.12-.7,1.55-1.91,1.16-4.2,1.17-6.37.05-10.37.18-20.74-.06-31.11-.13-5.48,1-11.06-1.15-16.47-.87-2.22-.88-4.76-1.49-7.1a7.49,7.49,0,0,0-1.7-3.37C343.67,311.7,343.88,310.73,344.72,309.37Zm-28.9-33.52c.68,1.24,1.09,2.06,1.59,2.84a9.93,9.93,0,0,0,1.5,2c2,1.79,4,3.54,6,5.22a16.77,16.77,0,0,0,3.52,2.38c1.62.74,3.71.75,5,1.79,2.71,2.18,6.09,2.16,9.08,3.29,3.24,1.21,6.92.35,10.46,1.21s7.5.31,11.28.29a3.94,3.94,0,0,0,1.85-.72c1.74-1.09,1.62-3.17,2-4.77.69-2.91.42-5.93,1.35-8.95.86-2.78.34-5.95,1.32-8.89.75-2.24,1-4.64,1.67-6.92s1.72-4.29,2.21-6.52c.37-1.66,1.13-1.83,2.58-1.52.34,3.4-.14,6.79,1.26,10.13.9,2.16.19,4.83,1.16,7.27s.1,5.13,1.29,7.81,1,6.11,1.33,9.21c.25,2.64.8,3.35,3.17,2.27a13.45,13.45,0,0,1,6.95-.83c3.44.28,6.49-1.24,9.77-1.53.12,0,.29,0,.35-.08,1.41-1.9,3.84-1.12,5.72-2.17,2.49-1.4,4.92-3.5,5-6.41.05-1.2-.29-2.62.24-3.55,1.25-2.21.92-4.52,1-6.8.08-3.36-.05-6.72,0-10.07,0-1.63-1-2.19-2.21-2.69a4.88,4.88,0,0,0-1-.25c-.62-3.16-1.28-6.1-1.76-9.06s0-5.72-1.06-8.58c-.81-2.25-.34-4.8-1.32-7.26-.92-2.29-.45-5-1.3-7.58-1-3.06-1.23-6.39-1.9-10.19-.9.76-1.58,1.32-2.24,1.9-.43.37-.77.92-1.26,1.12-1.8.76-2.91,2.47-5,3-1.59.42-2.88,2-4.78,2.16a4.49,4.49,0,0,0-1,.35c-2.37.71-4.72,1.5-7.12,2.09s-4.92,1-7.38,1.48a1.73,1.73,0,0,0-.31.14c-2.09.77-4.18,1.55-6.28,2.29-1.69.6-3.42,1.1-5.1,1.72a20.57,20.57,0,0,0-2.73,1.29c-2,1.1-3.94,2.4-6,3.31a19.58,19.58,0,0,1-4.77,1.09c-.66.11-1.42-.35-2.06-.22-.9.17-2.3.48-2.48,1.05a23,23,0,0,0-1.19,6.39,88.34,88.34,0,0,0,.83,11.46c.74,6.57.23,13.28.24,19.94a4.14,4.14,0,0,1-.23,1.39c-.7,2-1.36,4-2.19,6s-1.8,3.79-2.68,5.61l-11.48-4.05a27.9,27.9,0,0,1,.39-4.53c.56-2.22,1.64-4.32,2.07-6.54a38.67,38.67,0,0,0,.25-6.1c0-.53.14-1.06.2-1.59.21-1.61,1-3.46.49-4.79-.91-2.31-.61-4.58-.76-6.87-.12-1.73-.1-3.48-.17-5.21-.06-1.41-1-2.19-2.36-3.16-.5,3.07-1.27,5.73-1.3,8.39,0,3.82-.47,7.63.94,11.49.87,2.39.37,5.34.21,8,0,.7-1.11,1.92-1.69,1.91-3,0-6.12,1.11-9-.76C317.5,275.69,316.69,275.89,315.82,275.85ZM154.61,61.41l.64-.3c1-2.63,1.61-5.62,3.25-7.8s2.54-4.85,5.27-6.21c1.57-.78,2.64-1.19,4.09,0a15.37,15.37,0,0,0,2.74,1.49c1,.52,2,1.06,3,1.51a12.41,12.41,0,0,0,2.83,1c1.1.18,2.48.48,3.32,0a8.9,8.9,0,0,0,3.94-6,16.79,16.79,0,0,0,0-6.08A14.52,14.52,0,0,0,182,34.77c-.47-.91-1.24-1.67-1.8-2.54a63,63,0,0,0-3.6-5.65,16,16,0,0,0-7.21-5.08c-2.88-1-5.67-2.14-8.78-2.13-1.26,0-2.52,0-3.78-.1-4.79-.35-9.44.71-14.12,1.46a1.78,1.78,0,0,0-.81.31c-2.09,1.54-4.18,3.08-6.23,4.66s-3.33,4.11-4.33,6.56a47.93,47.93,0,0,0-1.62,5.4c-.75,2.78-1.87,5.54-2.08,8.37-.35,4.65-.48,9.31.81,14,1.05,3.78,1.12,7.83,1.61,11.76a2.53,2.53,0,0,0,2.61,2.51c2.34.08,4.68,0,7,.15,1.47.06,2.08-.58,2-2,0-.66,0-1.32,0-2-.05-4-.12-8-.15-12a5.87,5.87,0,0,1,1.08-3.87,4.87,4.87,0,0,1,5.37-1.88c1.85.36,2.76,2,3.65,3.43C152.77,57.83,153.66,59.64,154.61,61.41ZM309.72,49.2a5.73,5.73,0,0,0-.27,2.1c.66,3.62-1.23,6.89-1.36,10.39a.71.71,0,0,1-.18.5c-1.3,1.07-.87,2.61-1.15,4a6.19,6.19,0,0,1-.71,1.88,2.63,2.63,0,0,0,1.34,3.84,9.89,9.89,0,0,1,3.28,1.58,11.68,11.68,0,0,1,4.05,8.13,4.91,4.91,0,0,0,.79,1.8c.54,1.07,1.57,2.14,1.56,3.19,0,2.36.77,4.44,1.34,6.62s1.7,3.18,3.82,3.16c.66,0,1.31-.06,2,0,1,0,2.22-.26,3,.19,1.82,1,4.4,1.31,4.88,4,0,.11,0,.23,0,.34-.94,1.43-1.09,11.5,0,13a38.05,38.05,0,0,1,2.15-3.17c1.87-2.26,3.84-4.42,5.71-6.67a24.68,24.68,0,0,0,2.73-3.8,31.82,31.82,0,0,0,1.71-4.28c.42-1.13.73-2.3,1.21-3.4.7-1.59,1.51-3.13,2.26-4.71.46-.95.93-1.91,1.31-2.9.59-1.56,1-3.17,1.68-4.71s1.66-3,2.05-4.65c.53-2.23,2-4.25,1.56-6.7-.05-.24.38-.53.48-.84.27-.74.47-1.5.7-2.25a5.81,5.81,0,0,0-1.79-.31c-3.17.55-6-.76-9-1.39-.24,0-.6-.35-.6-.53,0-2.26-.56-4.81.3-6.71,1.14-2.51.75-4.86.58-7.26-.05-.69-1.31-1.43-2.16-1.85-.22-.11-1.3.78-1.45,1.35-.7,2.54-.87,5.25-2.58,7.42a6,6,0,0,1-1.46,1.22c-.37.25-.88.28-1.23.54a3.26,3.26,0,0,1-4.92-.7c-1.49-2.39-2.83-4.87-4.27-7.38a12.32,12.32,0,0,0-2.17.2c-.76.2-1.46.83-2.2.87a41.11,41.11,0,0,1-7.36,0C313.5,51,311.77,50,309.72,49.2ZM110.66,283.12a5.11,5.11,0,0,1,1.37.44,9.4,9.4,0,0,0,6.69,2.37c2.1-.11,4.2,0,6.3,0a12.21,12.21,0,0,1,3,.26c2.26.62,4.44,1.65,6.73,2.05,3.39.61,5.59,3.06,8.28,4.75,2.21,1.37,4.3,2.93,6.48,4.36a1,1,0,0,0,.9-.27,19.53,19.53,0,0,0,1.3-2.92c.84-2.5,1.73-5,2.36-7.54.67-2.72,1.1-5.49,1.58-8.25.45-2.59,1-5.18,1.21-7.79s0-2.67-2.39-2.45-4.89.83-7.36,1A26.71,26.71,0,0,1,135,267.84c-1.22-.48-2.46-.9-3.67-1.43-1.56-.67-3.07-1.49-4.65-2.13s-3.23-1.06-4.81-1.67a17.68,17.68,0,0,1-3.09-1.51c-1.71-1.06-3.34-2.22-5-3.36a32.76,32.76,0,0,1-4.07-2.88c-2-1.88-3.76-4-5.66-6-2.83-2.93-5.64-5.88-8.6-8.66a2.57,2.57,0,0,0-2.52,0,23.64,23.64,0,0,0-2.61,4.24,19.34,19.34,0,0,0-2.72,7.19,2,2,0,0,1-.15.51,34.38,34.38,0,0,0-2.07,5.39c-.52,2.52-.19,5.11-1.11,7.68-.72,2-.32,4.39-.41,6.6-.06,1.58.77,1.54,1.82,1,1.25-.69,2.45-1.46,3.72-2.12,2.56-1.35,5.17-2.62,7.74-4,.64-.34,1.19-.84,1.81-1.21,1.32-.77,2.72-1.43,4-2.29,2.48-1.68,4.89-3.46,7.73-5.48Zm18.59-207c-.48,1.31-1.07,2.77-1.52,4.28a1.4,1.4,0,0,0,.45,1.25,12.91,12.91,0,0,0,3.6,1.58c2.82.55,5.52,1.86,8.49,1.53a1,1,0,0,1,.52.14c2,1.26,3.92,2.52,5.86,3.81.41.27.7.74,1.14,1,1.24.6,2.82.81,3.74,1.71,2.54,2.51,6,3.18,8.94,4.79,2.48,1.35,5.24,1.35,8,1.31,3,0,5.46-3.77,3.62-6s.06-3,.78-4.08c.84-1.28,1.17-2.75.28-3.93a3.58,3.58,0,0,1-.71-1.68c-.21-2.27,1.74-4.64,4.36-6.06,2.22-1.21,4-3.71,3.21-6.39-.2-.66-1.11-1.23-1.1-1.83,0-2.12-.84-4-1.24-6s0-4.15-.08-6.24c0-.47-.31-1.23-.64-1.34-1.59-.54-3.24-.9-4.86-1.33a3.48,3.48,0,0,1-.8-.3c-2-1.18-4-2.38-6.1-3.64a5.89,5.89,0,0,1-.64,1.25c-.87,1-1.87,1.85-2.68,2.87a15.66,15.66,0,0,0-1.32,2.42c-.74,1.44-1.91,2.82-2.12,4.33-.28,2-1.65,3.12-2.8,4.38a2.3,2.3,0,0,1-2.27,0,23.39,23.39,0,0,1-3.92-5.62c-1.2-2.84-2.08-3.58-5.22-2.62,0,1.12,0,2.31,0,3.5,0,4.32.11,8.63.07,12.95,0,1.1,0,2.65-.67,3.19A8.23,8.23,0,0,1,139.4,77a43.1,43.1,0,0,1-7-.11A18.85,18.85,0,0,1,129.25,76.12ZM30.36,469.66c-2.54-.7-4.6-1.1-6.53-1.84-2.89-1.1-5.73-2.38-8.53-3.71a31.12,31.12,0,0,1-3.24-2.18c-.25-.16-.75-.29-.92-.16a4,4,0,0,0-1.37,1.46c-.95,2.61-3,4.32-4.87,6.13a4.81,4.81,0,0,0-1.85,4.23c.28,2.42.18,4.8,1.11,7.23,1,2.62.31,5.61,1.33,8.48,1.1,3.11,1.07,6.63,1.46,10,.28,2.36.89,3,3.21,3.31,2.56.38,5.1.91,7.65,1.38a3.91,3.91,0,0,1,.65.24c1.74.7,3.42,1.76,5.21,2a62.41,62.41,0,0,0,8.44.2c2,0,3.81-2.7,2.89-4.5a80.82,80.82,0,0,0-4.06-7.13c-1.84-2.85-3.45-5.68-3.48-9.26,0-2.67-.92-5.34.1-8,.65-1.71,1.2-3.45,1.8-5.17C29.67,471.46,30,470.59,30.36,469.66Zm247-335.25c3,1.3,5.1-.64,7.35-1.37,2-.65,3.74-2.22,6-2.37a1.58,1.58,0,0,0,.66-.23c2.46-1.39,5.07-.9,7.61-.42,2.86.53,5.53,2.06,8.66.93,1.14-.41,1.77-.72,1.7-2,0-.21.07-.58.21-.64,1.6-.67,1-2.08,1.16-3.26.1-.94-.12-2.32.4-2.72,1.05-.81.8-1.74,1-2.69a13.36,13.36,0,0,1,.74-2.06,5.25,5.25,0,0,0,.48-1.5c.08-1.73,0-3.47.1-5.2.14-2-.87-3.23-2.14-4.6s-2.89-3.09-3.22-5.4a3.6,3.6,0,0,0-1.77-2.14c-.38-.21-1.35.51-2,.94s-1.09,1.12-1.72,1.56c-2.89,2-5.82,4-8.73,6a37.18,37.18,0,0,1-4.12,2.78,50.87,50.87,0,0,1-6.49,2.67c-2.37.79-4.69,1.78-7.32,1.63a2.13,2.13,0,0,0-2.39,2.69,25.82,25.82,0,0,0,1.53,5.91,30.46,30.46,0,0,1,2.25,9C277.47,132.8,277.4,133.64,277.4,134.41Zm38,103.82c1.51-2.87,2.88-5.59,4.37-8.25.62-1.09,1.64-2,2.24-3.08.83-1.52,2.38-2.89,1.5-4.94-.5-1.16-1-2.3-1.54-3.44a28.49,28.49,0,0,1-2.09-4.8c-.72-3-1.1-6-1.63-9.05a1,1,0,0,0-.16-.5c-1.69-1.79-.73-4.32-1.91-6.47-1-1.9-.25-4.83-1.45-7.09a8.08,8.08,0,0,0-.65-.92,4.5,4.5,0,0,0-.88.66c-1.22,1.6-2.43,3.22-3.61,4.86-1,1.41-1.9,2.92-3,4.27s-2.28,2.14-3.19,3.38a66.81,66.81,0,0,0-4.2,6.42,26,26,0,0,0-1.74,4.34c-.73,2.07-1.77,4.11-2,6.24s-.47,4.54,1,6.88c1.79,2.84,3.46,5.17,7.07,5.53a14.83,14.83,0,0,1,5.45,1.3A55.55,55.55,0,0,1,315.39,238.23Zm27.44,215.93-6.67-1.61c-2-.48-3.92-.9-5.85-1.46-1.27-.36-2.49-.91-3.73-1.4-1.92-.75-3.82-1.56-5.76-2.25-1-.35-2.1-.51-3.5-.83a41.71,41.71,0,0,1-2.77,3.14,21.73,21.73,0,0,1-3.56,2.71,37.78,37.78,0,0,1-4.44,2.26,32,32,0,0,1-4.34,1.65c-2.11.61-4.27,1-6.41,1.55a2.21,2.21,0,0,0-.44.26c-1.28.7-2.6,1.33-3.83,2.12a8.3,8.3,0,0,0-2.28,2c-.35.49-.36,1.15.47,1.91,1.34,1.23,2.72,1.19,4.21,1.15a24.38,24.38,0,0,0,4.61-.35c2.46-.55,4.83-1.64,7.31-1.95,1.65-.2,3.41.68,5.14.88,3.66.4,7.49-.47,11,1.42,5.94-.39,12,1.15,17.86-1.15a4.51,4.51,0,0,0,2.89-3.44C343.16,458.66,342.83,456.38,342.83,454.16Zm-89.93,2.48c-.71-.2-1.56-.17-1.91-.58-1.58-1.8-3.58-2.25-5.82-2.25a10.75,10.75,0,0,1-1.93-.3c-1.37-.26-2.72-.61-4.09-.79-3.73-.51-7.5.4-11.3-1.06-2.94-1.13-5.33-3-7.86-4.56a4.29,4.29,0,0,0-3-.94c-1.59.24-3.16,1.18-4.7,1.1-5-.26-9.73,1.21-14.62,1.56-1.11.08-2.23,0-3.55,0a18.81,18.81,0,0,0,.29,2.94c.7,2.65,1.56,5.26,2.26,7.92.55,2.05,2.22,3.46,4,3a24.61,24.61,0,0,0,3.5-1.45,27.6,27.6,0,0,0,2.55-1.28,12.21,12.21,0,0,1,6.42-2.09c2.87.07,5.72-.26,8.61.88,1.82.73,4.14.21,6.24.28a6.84,6.84,0,0,1,1.76.21c2.27.72,4.47,1.94,6.78,2.15a107.53,107.53,0,0,0,12.18.13C250.94,461.47,253,459,252.9,456.64Zm154.27,34.88-.74-.78a19.15,19.15,0,0,1-3.79,1.47,78.45,78.45,0,0,1-9.64,1.14c-5.44.21-10.89.11-16.34.22-.57,0-1.59.5-1.63.85-.27,2.45-2.08,4-3.23,5.92-1.06,1.75-2.09,3.52-3,5.36-.19.39.31,1.61.56,1.63,1.79.14,3.82.59,5.33-.06,1.95-.84,2.46-1.15,3.6.67.8,1.27,1.78,1.32,3.1.42.48-.34,1.67-.49,1.89-.22.94,1.22,2.13.69,3.25.79,1.44.12,2.87.34,4.64.56,1-.9,2.53-.76,4.05.24a3,3,0,0,0,2.65,0,8.79,8.79,0,0,0,3.11-3.05c1.64-2.68,3.13-5.25,3.47-8.45a17.64,17.64,0,0,1,1.44-4.41A22.8,22.8,0,0,1,407.17,491.52Zm31.46-234.46a35.26,35.26,0,0,0-3.43,1c-2.53,1-5,2.14-7.77,2.26-1.33.06-1.58.56-1.51,1.76.11,2.27.07,4.55.07,6.82a3.71,3.71,0,0,1-.22,1.23c-.68,1.91-1.52,3.78-2,5.73-.43,1.63-.42,3.44,1.07,4.57a17.77,17.77,0,0,0,4.94,2.93c2.91,1,5.42-1.75,8.36-1.4a.41.41,0,0,0,.32-.13,5.42,5.42,0,0,1,3.85-2.07,2.24,2.24,0,0,0,1.54-1.19,18.48,18.48,0,0,0-1.65-12.66c-.61-1.28-1.28-2.53-1.8-3.85C439.7,260.35,439.17,258.63,438.63,257.06ZM304.42,235.32c-1.71-.7-3.07-1.67-4.46-1.72-2.33-.1-3.39-1.74-4.58-3.12-1-1.18-1.56-.87-2.51-.09-1.9,1.56-3.88,3-5.86,4.49a40.7,40.7,0,0,0-5,3.71,7.27,7.27,0,0,0-1.35,3.63c-.12.63.51,1.36.6,2.07.17,1.3-.19,2.69,1.22,3.63.52.35,1.17,1.09,1.14,1.61-.13,2.44,2,3.47,3.07,5.12a1.39,1.39,0,0,0,2.49-.05,48,48,0,0,0,2.08-5A.75.75,0,0,0,291,249c-.54-.49-1.16-.9-1.68-1.41-1-1-2.27-2-1.3-4a17.88,17.88,0,0,1,3.18,0,15.58,15.58,0,0,1,2.93,1.11c.39.15.78.33,1.17.51l-.56,1.14a7.1,7.1,0,0,0-.53,1.07c-.53,1.88-1,3.77-1.53,5.66a5,5,0,0,1-.16.51,17.62,17.62,0,0,0-1.06,3.38,2.05,2.05,0,0,0,1.05,1.69c1,.39,1.39-.52,1.64-1.38.44-1.49.86-3,1.38-4.46.75-2.17,1.58-4.32,2.38-6.47,1-2.59,1.93-5.07,4.3-6.92C303.42,238.55,305,237.14,304.42,235.32ZM171.93,267a4.46,4.46,0,0,0-3.42,4.39,94.84,94.84,0,0,1,.05,11.31c-.23,3.68-.89,7.33-1.42,11-.07.45-.57.83-.7,1.28a4.83,4.83,0,0,0-.26,2c0,.25.85.52,1.32.53,2,0,4,.17,5.9-1.06s4.38-2.06,6.23-3.52a33.72,33.72,0,0,0,5-5.45,2.26,2.26,0,0,0,.06-2.14c-1.25-1.58-2.8-2.91-4.1-4.45a46.21,46.21,0,0,1-4.27-5.62C174.69,272.54,173.37,269.69,171.93,267ZM328.46,100.28l-.61,0a15.18,15.18,0,0,1-.74,2.12c-1.09,2.07-2.65,4-3.27,6.17-.77,2.72-2.1,5.42-1.61,8.41,0,.23.06.59-.07.7-1.6,1.41-1,3.32-1.17,5s-.39,3.33-.64,5.36c.25,1.76.55,4,.85,6.16a44.75,44.75,0,0,0,3.57-6.47c.46-1,.9-1.93,1.38-2.89,1-1.91,1.85-3.86,3-5.69.64-1.07,1.2-3.84.59-4.86-1.56-2.6-.83-5.31-.42-8,0-.27.28-.54.24-.78-.16-1.12-.37-2.24-.59-3.35C328.79,101.57,328.62,100.92,328.46,100.28ZM311.56,80l-.47,0c-.19,1.07-.31,2.17-.6,3.21-.66,2.43-1.8,4.81-2,7.26-.16,2.11-1.27,4.47.8,6.56,1,1,1.3,2.79,1.94,4.29.22-.1.49-.14.62-.29a7.13,7.13,0,0,0,1.5-4.9c0-1.84-.15-3.66,1-5.48.61-.92.15-3-.49-4.18-.8-1.49-1.81-2.79-1.9-4.57A10.21,10.21,0,0,0,311.56,80Zm-10,62.38c.66-2.49,1.26-4.53,1.7-6.59.31-1.42.11-2.67-1.86-2.56a1.91,1.91,0,0,1-1-.3c-1.8-1.06-3.39-.45-3.59,1.69-.23,2.52-.05,5.07-.05,7.76ZM330.15,2.82c-.13,1.09.11,2.48-.47,3.27C328.3,8,328.92,10,328.78,12c0,.36.59,1.11.92,1.11,1.32,0,2.65-.21,4-.34.07-.68.1-1,.14-1.39.19-1.39-.25-2.82,1-4.11.5-.5.19-2.21-.24-3.14C333.73,2.24,332,2.49,330.15,2.82ZM315,274.39c2.61-1.39,2.25-3.62,2.15-5.73a1,1,0,0,0-.52-.77c-.24-.06-.63.19-.85.41C314,270.1,314.45,272.17,315,274.39Z"/><path class="cls-1" d="M85.29,275.25c2.91-1.62,5.39-3.06,7.93-4.39,2-1.07,4.2-1.93,6.23-3,1.77-1,3.38-2.23,5.17-3.17a4,4,0,0,1,2.61-.32c.42.11.85,1.16.86,1.8.12,5.58.17,11.15.19,16.73,0,1.76,1.15,2.45,2.52,3,1.76.74,3.49,1.53,5.25,2.25a3.59,3.59,0,0,0,1.39.22c2.51.05,5,0,7.55.1,1.58,0,3.24-.29,4.56,1a1.61,1.61,0,0,0,.85.24,16,16,0,0,1,10.08,4.77c1.33,1.35,3.32,2,5,3.08a21.67,21.67,0,0,1,3.55,2.59c.3.3-.08,1.39-.27,2.09A15.16,15.16,0,0,1,148,304c-.36.87-.65,1.78-1.09,2.61-.69,1.26.19,3.41,1.59,5.1s2.19,3.65,3.42,5.38a6.1,6.1,0,0,0,2.51,2.21c1.31.49,2.11-.48,2.68-1.72,1-2.31,2.31-4.54,3.39-6.84.55-1.17.49-2.45,1.31-3.69,1.39-2.1,2.05-4.68,3-7.08,8.69.21,15.38-3.61,21.1-10.16,1,1.44,2,2.93,3.1,4.3,1.3,1.61,2.69,3.15,4.1,4.67s2.79,2.64,3.72,4.5c1.28,2.56,3.15,4.81,4.65,7.26.71,1.16,1.05,2.54,1.73,3.71s1.77,2.51,2.63,3.79c1.21,1.8,2.43,3.6,3.56,5.45,1.28,2.1,2.56,4.22,3.67,6.42a17,17,0,0,1,1.31,4c.56,2.56,1.09,5.14,1.44,7.74.63,4.66,1.66,9.25,1.57,14a14.19,14.19,0,0,0,1.25,6.53c1.83,3.62,1,7.34,1.07,11,.15,16.32,0,32.63.11,48.94,0,1.48.83,2.95.9,4.44.18,4.37.2,8.74.22,13.12,0,1.26-2.51,3.61-4.16,3.8-4.52.52-9,1.35-13.53,1.77-2.8.26-5.68,1.27-8.51.85-3.49-.52-6.84-1.61-8.58-5.28-1-2-2.21-3.86-2.57-6.2-.21-1.37-1.37-2.59-2-3.92-.43-.92-.69-1.93-1-2.9-.61-1.76-1.25-3.52-1.81-5.3-.77-2.46-1.48-4.95-2.22-7.43a2.3,2.3,0,0,1-.21-.85c.52-3-1.11-5.59-1.67-8.37a76.62,76.62,0,0,0-2.25-7.49c0-.11,0-.24,0-.36-.46-2.74-.78-5.51-1.45-8.2a68.59,68.59,0,0,0-2.3-6.59,1.15,1.15,0,0,1-.06-.17c-.46-2.27-1-4.54-1.36-6.82-.53-3-.87-6-1.54-8.95a74.27,74.27,0,0,0-2.5-8.77c-.93-2.59-2.27-5-3.34-7.57-.65-1.55-1.08-3.19-1.7-4.75A11.24,11.24,0,0,0,156.9,344c-1.94-2.79-3.93-5.54-5.86-8.32-1.46-2.11-2.81-4.29-4.33-6.34a30.44,30.44,0,0,0-3.16-3.46c-1-.95-2.44-1.61-2.92-2.73s0-2.55.21-3.83c.06-.49.61-.92.63-1.39a17.13,17.13,0,0,1,2.34-7.33c.87-1.69.06-2.73-2.29-2.7-.88,2.75-1.47,5.74-2.8,8.37-.81,1.61-.69,3.16-1.1,4.71a36.83,36.83,0,0,1-2,4.85,4.37,4.37,0,0,0-.32.6c-.52,2.29-.91,4.61-1.58,6.86a32.38,32.38,0,0,1-1.89,4.17c-.17.38-.31.76-.48,1.14-.77,1.7-1.52,3.41-2.33,5.09-.94,1.93-1.92,3.84-2.9,5.75-.46.91-.91,1.82-1.44,2.68-1.06,1.73-2.16,3.43-3.24,5.14-1.33,2.09-3,4.05-3.88,6.32a38.63,38.63,0,0,1-5.12,8.8,24.91,24.91,0,0,0-1.55,3.25c-1.33,2.53-2.55,5.13-4.11,7.5a35.91,35.91,0,0,1-3.83,4.09c-1.71,1.87-3.27,3.88-5.09,5.64s-3,3.86-5.53,4.85c-1.37.55-2.34,2-3.6,2.91C87,401.78,85,402.66,83.43,404s-3.94,2.25-4.75,4.65a51.64,51.64,0,0,1-2.61,6.14c-.57,1.17-1.5,2.16-2.1,3.32s-1,2.48-1.49,3.7c-1.35,3.19-2.65,6.4-4.11,9.53-1,2.17-2.34,4.19-3.4,6.34-.65,1.33-1,2.81-1.6,4.16s-1.49,2.9-2.24,4.35c-.48.93-1,1.83-1.4,2.79a35.23,35.23,0,0,1-1.64,4.27c-1.32,2.33-2.9,4.51-4.36,6.76-1,1.61-2,3.3-3.15,4.83A27.16,27.16,0,0,1,46.87,469c-1.92,1.66-4.35,1.68-6.71,1.31A22,22,0,0,1,34.79,469a49.75,49.75,0,0,0-7.86-2.56,45.63,45.63,0,0,1-7.35-2.63c-1.74-.8-3.21-2.18-4.91-3.09a7.27,7.27,0,0,1-3-2.68c-1-1.55-.43-2.64-.12-3.95.1-.39.44-.74.44-1.12,0-2.61,1.26-4.74,2.46-6.94.7-1.28,1-2.78,1.59-4.12s1.33-2.5,2-3.75a4.92,4.92,0,0,0,.37-.81c1-2.8,1.71-5.69,2.9-8.39,1.33-3,3.08-5.85,4.6-8.8.64-1.24,1.11-2.57,1.72-3.83s1.44-2.62,2.05-4,1-2.8,1.63-4.12c1-2.05,1.82-4.17,3.42-6,1.35-1.51,2-3.61,3.11-5.4.7-1.19,1.56-2.29,2.34-3.44.92-1.37,1.75-2.8,2.74-4.11,2-2.58,4-5.1,6-7.63,1.69-2.12,3.74-4.05,5-6.4,1.38-2.52,3.57-4.26,5.17-6.52,1.19-1.66,2.05-3.55,3.17-5.27a36.31,36.31,0,0,1,2.57-3.28c1.67-2,3.34-4.06,5-6.06.81-.95,1.73-1.8,2.51-2.77a26.81,26.81,0,0,0,2.24-3.15A15.73,15.73,0,0,0,76,345.41c.57-1.64,1.06-3.32,1.58-5,.76-2.47,1.51-4.93,2.26-7.4a5,5,0,0,0,.14-.52c.49-2.9.93-5.81,1.47-8.7a15.87,15.87,0,0,1,.84-2.33,4.32,4.32,0,0,0,.3-1c.52-4.08,1-8.17,1.51-12.25,0-.12,0-.24,0-.36,1.19-10.14,1.07-20.33,1.11-30.51C85.19,276.49,85.27,275.65,85.29,275.25ZM197,358.17l.09-.36c1.37,0,2.75,0,4.12,0,.81,0,1.76,0,1.76-1.24s-.85-1.39-1.68-1.42a74.19,74.19,0,0,1-9.6-.9c-3-.51-5.21-2.11-7.6-3.31-3.19-1.59-5.79-4.3-8.79-6.37-2.66-1.84-4.77-4.48-7.1-6.8a26.51,26.51,0,0,0-2.38-2.47,6.14,6.14,0,0,0-2.18-.58c0,.83-.34,1.94.07,2.44a47.48,47.48,0,0,0,4.3,4.33c1.42,1.34,2.86,2.66,4.33,3.93,2.33,2,4.67,4,7.06,6,1.55,1.25,3,2.52,5.16,3,1.3.27,2.37,1.62,3.68,2C191.07,357.09,194,357.57,197,358.17Zm-90.86-21A105.27,105.27,0,0,1,75.15,375c1.86,1.15,2.6,1,3.75-.17a15.34,15.34,0,0,1,3.18-2.75c2.79-1.61,4.72-4.1,6.91-6.33,1.69-1.73,3.29-3.55,4.89-5.36a39.68,39.68,0,0,0,2.87-3.49c1.49-2.13,2.87-4.34,4.29-6.52,1.2-1.86,2.36-3.74,3.56-5.6a29.77,29.77,0,0,0,1.73-2.63c.77-1.51,1.41-3.08,2.18-4.79a10.59,10.59,0,0,0-1.36-.25A7.89,7.89,0,0,0,106.1,337.19Zm81.74,42.17c-1,10.62,2.57,19.6,8.14,28.39.88-1.18,2.94-1.49.93-3-.21-.16-.1-.69-.22-1-.53-1.52-1-3.06-1.66-4.55-.38-.93-1-1.75-1.43-2.67-.71-1.63-1.38-3.29-2-5-.25-.72,0-1.73-.4-2.26-1.21-1.6-.85-3.39-1-5.12-.05-.78,0-1.57-.1-2.33A2.85,2.85,0,0,0,187.84,379.36ZM63.28,389.6l-.13,1.13a10.85,10.85,0,0,0,2.27.49c1.85,0,3.7-.13,5.55-.22a2.9,2.9,0,0,0,1.23-.18c1.92-1.12,3.72-2.47,5.72-3.42,4-1.89,6.41-5.57,9.67-8.29.7-.59.87-1.82,1.28-2.75l-.69-.44c-1.5,1.36-3,2.76-4.51,4.07-1.94,1.62-3.92,3.19-5.93,4.73a19,19,0,0,1-2.56,1.62,18.67,18.67,0,0,1-4.17,2C68.48,389,65.86,389.21,63.28,389.6ZM25.47,450.16l.05.81a9.65,9.65,0,0,0,1.81.41c3.37.12,6.38-1.07,9.48-2.3C39,448.2,41,447,43.1,446a5.65,5.65,0,0,0,2.13-1.54c.32-.44.07-1.3.08-2-.44.22-.87.45-1.31.66-.26.13-.55.21-.8.34-2,1-4,2.19-6.08,3.09A61.64,61.64,0,0,1,31,448.7C29.17,449.26,27.31,449.68,25.47,450.16ZM50.71,408.8a1.78,1.78,0,0,0,.5.14c2.66,0,5.34.65,7.93-.91,1.46-.88,3.31-1.12,5-1.67a1.29,1.29,0,0,0,.55-.33,6,6,0,0,1,3.26-2.27c.74-.19,1.26-1.3,1.88-2-.75-.12-1.71-.61-2.22-.32q-2.48,1.41-5,2.77c-2.31,1.26-4.48,2.42-7.19,2.32-.56,0-1.14.45-1.77.72A1.79,1.79,0,0,0,50.71,408.8Z"/><path class="cls-1" d="M87.15,160.41c2.48-3.89,6.35-2.41,9.7-2.69,1.65-.14.85,1.4.92,2-3.86,2.15-8.39,3-10.19,8l2.27.38c1.55-3.16,6.32-5.73,9.17-5,.3,1.21.26,2.08-1.37,2.39A3.18,3.18,0,0,0,95.87,167c-.69,1.18-1.11,2.52-1.7,3.77-.22.46-.7.82-.88,1.29a13.83,13.83,0,0,0-.46,2.1c1.32.4,2.1.32,2.66-1,.91-2.12,2.06-4.13,3.26-6.49a5.07,5.07,0,0,1,.47,1.43A112.81,112.81,0,0,1,99,179.62c-.29,2.77-1.44,5.44-2.14,8.18a15.07,15.07,0,0,0-.18,2.14c-.08.74-.21,1.47-.32,2.2l-.52.22c-1-1-1.93-2.07-2.86-3.13-1.74-2-3-4.29-4.9-6.18s-2.94-4.45-4.29-6.76c-1.19-2-2.31-4.11-3.38-6.21a4.11,4.11,0,0,1-.33-1.75c0-2.45-.3-5,.17-7.34.39-2,.6-4.22,2.12-6a10,10,0,0,0,1.4-3c.53-1.38.93-2.81,1.49-4.18a13,13,0,0,1,1.36-2.55c1.93-2.76,4-5.42,5.84-8.26a21,21,0,0,0,1.72-4.35c.6-1.67,1.05-3.39,1.72-5,.55-1.34,1.53-2.53,2-3.89.85-2.67,2.56-4.76,4.12-7a45.7,45.7,0,0,0,3.94-5.63,22.26,22.26,0,0,1,3.86-4.7c1.52-1.6,3.14-3.13,4.81-4.58a24.29,24.29,0,0,1,2.84-1.79c1.63-1,3.3-2,4.84-3.18a13.32,13.32,0,0,0,2.59-2.71c1.64-2.25,2-5,2.57-7.6.11-.52.27-1,.36-1.34,1.18.26,2.21.51,3.25.7a72.46,72.46,0,0,1,8.11,1.5c1.75.54,3.24,1.88,4.85,2.85,1.92,1.17,3.89,2.26,5.74,3.51a39.62,39.62,0,0,1,3.35,2.85c-.6.35-.83.58-1.08.62-2.88.53-5.79.9-8.63,1.58a48.79,48.79,0,0,0-5.76,2.05c-1.46.55-2.93,1.09-4.33,1.77a11.33,11.33,0,0,0-2.58,1.76c-.27.25-.12.94-.17,1.43.61,0,1.37.35,1.79.1a32.58,32.58,0,0,1,8.49-3.54c2-.53,4.47-.43,6.2-2a.72.72,0,0,1,.33-.11c3.2-.46,6.53-1.7,9.58-1.22,5.47.86,10.93.85,16.39,1.25,1.51.11,3,1.28,4.41,2,1.72.93,3.41,1.93,5.07,3s3.35,2.39,5.14,3.38a42.33,42.33,0,0,0,4.24,1.65,18,18,0,0,1,2.51,1.29,24.27,24.27,0,0,0,13.86,3.87c1,0,2.31-.1,2.22,1.56a1.31,1.31,0,0,1-.41.88,37.28,37.28,0,0,1-4.93,3.61,31,31,0,0,1-5,1.66,14.81,14.81,0,0,0-3.34,1.32c-.41.27-.3,1.32-.5,2.42,3.32-1.7,7.06-.78,9.54-3.53,2.31,0,3.18-2.34,5-3,.21-.08.49-.23.55-.41.79-2.5,2.65-2,4.64-2,3.76.16,7.54-.07,11.32-.07,8.51,0,17,.13,25.53-.08a33.31,33.31,0,0,0,9.23-2,18,18,0,0,1,6.76-.45c.64,0,1.33,1.57,1.71,2.53.88,2.21,1.58,4.49,2.35,6.74.06.17.11.34.16.51a55.75,55.75,0,0,1,1.24,17.7,33.17,33.17,0,0,1-1.23,6.91,23.4,23.4,0,0,1-2.22,4.3,9.76,9.76,0,0,0-1.27,2.57c-.24,1.31-1.1,1.15-2,1.17-1.85,0-3.72,0-5.57.12a28,28,0,0,0-3.08.62,3,3,0,0,1-1.58.11c-3.09-1.41-6.36-.63-9.54-.83a88.37,88.37,0,0,0-9.35,0c-8.56.39-17.1-.35-25.66-.14-2.09.05-4.2.15-6.29,0-6.39-.4-12.77-.94-19.16-1.35a53.46,53.46,0,0,0-5.37,0c-.35,0-.69.36-1,.55a6.5,6.5,0,0,1,.65.84,3.25,3.25,0,0,1,.55,1.33c0,3.42.15,6.85-.08,10.25-.19,2.81-.36,5.79-1.42,8.33-.79,1.9-.63,3.75-1.09,5.58-.7,2.72-1.51,5.41-2.25,8.12a7.59,7.59,0,0,0-.2,1.42c-.51,7.06-.82,14.18-1.68,21.14-1.09,8.91-.22,17.79-1.08,26.63-.28,3-1.42,5.82-2.17,8.73-.16.62-.35,1.24-.66,2.32-1.79-.41-3.55-.84-5.33-1.22a7.58,7.58,0,0,0-1.43-.08c-4.74-.15-9.54.15-14.18-.56s-9-.82-13.47-1.15c-1.8-.14-3.52-1.23-5.27-1.89,0,0-.08-.1-.13-.12a34.94,34.94,0,0,0-6.06-1.59c-1.89-.17-3.22-1.22-4.71-2a34.52,34.52,0,0,1-5-3.22c-1.58-1.26-2.92-2.81-4.44-4.17-1.83-1.64-3.77-3.16-5.6-4.81a16.51,16.51,0,0,1-1.86-2.28c-.73-.95-1.37-2-2.17-2.87a13.7,13.7,0,0,1-3.11-5.29c-.62-2.05-1.42-4.05-2.1-6.09a5.36,5.36,0,0,1-.34-1.71c0-4.68-.14-9.36.08-14,.08-1.67,1-3.31,1.55-5a17,17,0,0,0,.81-2.23c.57-3.23.67-6.6,1.66-9.68,1.89-5.92.91-11.86.89-17.8-1.88-2.6-.5-5.84-1.56-8.48-1.14-2.88-.81-5.75-.88-8.64a4.61,4.61,0,0,1,.73-2.25,4.33,4.33,0,0,0-.21-4.38c-1.24.55-1.46,1.61-1.92,2.81a20.29,20.29,0,0,0-1.13,8.67,23.25,23.25,0,0,0,.7,2.63c.1.72.25,1.79-.13,2.15-.68.64-1.55.36-2-.65-.07-.18-.34-.31-.54-.38-2.39-.79-6.63.46-8,2.54-.36.53-.06,1.5-.06,2.27ZM154.78,167l.21.76a9,9,0,0,0,3-.06,32.5,32.5,0,0,0,3.41-2.12c1.7-1,3.53-1.69,5.21-2.68a26.83,26.83,0,0,0,6.59-5.07,1.41,1.41,0,0,0,.24-1.27,25.7,25.7,0,0,0-1.91-2.58c-.11,0-.7-.06-1.29-.07-4.07,0-8.14-.05-12.2-.12a7.91,7.91,0,0,1-2.08-.41c-.82-.23-1.61-.55-2.42-.83l-.42.44c.16.69.1,1.78.51,2a10.2,10.2,0,0,0,4.06,1.4c3.64.2,7.29.06,10.94.1a17.44,17.44,0,0,1,2.25.33l.13.73Zm3.07,34.72a9.93,9.93,0,0,0-2,1.66c-1.36,2.05-2.47,4.26-3.9,6.25a59.61,59.61,0,0,1-5.66,7,35.65,35.65,0,0,1-6.25,5,46.19,46.19,0,0,1-10.55,5.49c-.75.25-1.26,1.27-1.88,1.94a11.72,11.72,0,0,0,2.68.24c.59-.08,1.09-1,1.65-1,2.65-.11,4.43-2,6.57-3.11a42.42,42.42,0,0,0,6.66-4.76,47.15,47.15,0,0,0,4.24-3.75,37.61,37.61,0,0,0,3-3.64c1.17-1.5,2.32-3,3.39-4.57.64-.94.9-2.22,1.69-3C158.86,204.33,158.38,203.23,157.85,201.75Zm69.34-78.23c.31,2.19,1,4.38-.55,6.6a5.93,5.93,0,0,0-.52,2.75c0,.11.88.52,1,.4a4.29,4.29,0,0,0,1.43-1.64c.81-2.22,1.74-4.4,1.51-6.91-.21-2.28-1.35-3.75-3.6-4-1.17-.15-1.62.33-1.66,1.46-.07,1.93-1.14,3.39-2.23,4.9-.35.48-.09,1.42-.11,2.15.45-.22,1.06-.32,1.32-.68C224.94,127,226,125.33,227.19,123.52ZM137.74,96.21v-2.3c-1.69-.62-3.27-1.17-4.82-1.79-.8-.32-1.55-.76-2.6-1.3V93Z"/><path class="cls-1" d="M344.72,309.37c-.84,1.36-1.05,2.33.18,3.55a7.49,7.49,0,0,1,1.7,3.37c.61,2.34.62,4.88,1.49,7.1,2.13,5.41,1,11,1.15,16.47.24,10.37.11,20.74.06,31.11,0,2.17.38,4.46-1.17,6.37-.13.16-.1.47-.12.7-.4,5.26-1.12,10.53-1.09,15.79a80.65,80.65,0,0,0,1.44,15.36,78.07,78.07,0,0,1,1,9.2c.41,5,1.06,9.92,1.22,14.89.18,5.74-.06,11.5-.12,17.24,0,1.53-.88,2.15-2.32,2.07-1.62-.09-3.37.37-4.75-1-.11-.11-.34-.1-.52-.13-2.94-.52-5.93-.89-8.82-1.61a45.9,45.9,0,0,1-5.37-2.2c-1-.4-2.09-.67-3.13-1l-5.44-1.75c-1.88-.6-3.8-.88-4.49-3.4-.35-1.28-.94-2.18-.18-3.54.33-.57-.22-1.63-.05-2.56-.21-.64-.45-1.28-.64-1.93-.42-1.5-.83-3-1.21-4.51a8.55,8.55,0,0,1-.13-1.24c-.54-5.11-.74-10.29-1.78-15.29-.53-2.53-.1-5.24-1-7.48-1.53-3.76-.21-7.76-1.4-11.29-1.48-4.38-.52-8.73-1-13.06-.16-1.44-.67-2.83-.91-4.26a22.37,22.37,0,0,1-.38-3.74c0-10.67-.07-21.34,0-32a20.62,20.62,0,0,1,.95-4.27,5.1,5.1,0,0,0,.19-.5c.48-3.2.83-6.43,1.46-9.59.58-2.94,1.46-5.83,2.21-8.73a5,5,0,0,0,.11-.53c.52-2.64.92-5.32,1.61-7.91.52-2,1.46-3.86,2.08-5.83a11.14,11.14,0,0,0,.3-2.84c.16-3.53.25-7.06.45-10.59a39.83,39.83,0,0,1,.59-5.45c.24-1.24.77-1.55,1.91-.36a36.61,36.61,0,0,0,5.41,4.5,32.62,32.62,0,0,0,4.82,2.65c2.59,1.22,5.23,2.34,7.85,3.49a1.11,1.11,0,0,0,.35.08c3.92.2,7.57,2.15,11.64,1.66,1.48-.17,3.06.82,4.61.89,3.59.17,7.19.18,10.79.13,3.43-.06,5.23-2.06,5.57-5.46s.53-6.93,1.6-10.13c.79-2.35.64-4.62,1-6.92a71,71,0,0,1,1.47-7c.15-.57,1-1,1.47-1.44l.5.24c.1.85.21,1.71.31,2.56.44,3.68.28,7.57,1.5,11,1,2.83.77,5.57,1.19,8.32.36,2.33.67,4.67,1.09,7a1.27,1.27,0,0,0,1,.68c1.94-.19,3.87-.48,5.79-.77a9.36,9.36,0,0,1,1.4-.32,49.11,49.11,0,0,0,13.17-1.51c1.32-.31,1.83.08,1.76,1.54-.13,2.93,0,5.87-.14,8.8-.34,5.87-.2,11.87-1.43,17.56-1,4.55-.72,9-1.21,13.51-.32,2.92-.28,6.07-1.41,8.68-1.38,3.17-.67,6.29-1.06,9.4-.4,3.27-1.07,6.53-1.14,9.81-.17,7.55-.12,15.11,0,22.66,0,2.07.87,4.11,1.1,6.18.59,5.37.91,10.77,1.64,16.11a60,60,0,0,0,2.15,7.87c0,.11,0,.23.07.35.46,3.29.88,6.6,1.4,9.89a25.83,25.83,0,0,0,.86,2.57,10.31,10.31,0,0,1,.36,2.07,32.67,32.67,0,0,0,2.36,9.63,2.36,2.36,0,0,1,.1.53c.51,4.1.62,8.3,1.65,12.27,1,3.7.65,7.42,1.26,11.07.3,1.82,1.34,3.52,2,5.27a3.09,3.09,0,0,1,.14.32c.51,2,1,4,1.53,6,.73,2.72,1.46,5.44,2.27,8.14a2.89,2.89,0,0,1-2.4,3.23c-2.27.47-4.44,1.3-6.72,1.79s-4.49.44-6.49,1.2c-4.39,1.67-8.85.66-13.26,1-2.27.16-4.56,0-6.82.18-2.95.24-5.21-1.25-7.31-2.89a5,5,0,0,1-1.55-3.09c-.6-4.32-1.79-8.58-1.36-13a11.39,11.39,0,0,0-.29-5c-1.36-3.43-.31-7.1-1.24-10.39-1.25-4.41-.38-8.85-1.18-13.19a61.49,61.49,0,0,0-2.08-6.91,3,3,0,0,1-.12-.52c-.52-2.81-.93-5.65-1.59-8.44-.62-2.58-1.6-5.08-2.22-7.67-.31-1.31,0-2.78-.29-4.1-.63-2.78-1.48-5.51-2.24-8.26-.05-.18-.11-.35-.14-.52-.52-2.87-.92-5.76-1.57-8.59s-1.51-5.41-2.25-8.11a5.76,5.76,0,0,1-.11-1.44c-.05-2.21.07-4.45-.15-6.65a77.29,77.29,0,0,0-1.65-12.09,28.09,28.09,0,0,1-.76-7c-.06-7.37,0-14.75.08-22.12a13.11,13.11,0,0,1,.55-2.57c0-.23.23-.5.16-.67-1.5-3.32-.5-6.83-.82-10.24-.19-1.93,0-3.81-1-5.7-.88-1.71-1.05-3.79-1.52-5.71-.07-.28,0-.65-.1-.88C348,313.25,347.52,310.56,344.72,309.37Zm30.33,91.75.91-.44c-.08-.61.07-1.45-.27-1.8-1.39-1.44-3-2.72-4.39-4.12-.15-.14.15-1.07.21-1.07a9.25,9.25,0,0,1,2,.33c.66.21,1.25.68,1.92.82,3.33.68,5.57-1.32,7.7-3.37a3.63,3.63,0,0,0,.7-2c.05-.26-.38-.6-.58-.9a2.94,2.94,0,0,0-.66.71c-.89,2-2.71,2.58-4.57,3-1.7.4-3.11-.45-4.57-1.18s-3.05-.9-4.33-1.73c-1-.66-2-1.47-2.92-.52s.54,1.7.77,2.46c.54,1.84,1.78,3,2.89,4.28C371.53,397.53,373.32,399.3,375.05,401.12ZM333.5,328.05c-.86,4.28-3.3,7.69-1.61,11.71a28.85,28.85,0,0,0,1.95-4.86c.12-.39,0-1,.23-1.2,1.79-1.77,1-4,1.17-6.09a2.09,2.09,0,0,0-1.09-1.68,4.86,4.86,0,0,0-2.74.49,16.25,16.25,0,0,0-2.3,1.82c-1.38,1-2.89,1.88-4.17,3a24.37,24.37,0,0,0-3.08,3.56,5.77,5.77,0,0,0-.75,2c0,.11.49.54.57.49a6.9,6.9,0,0,0,1.77-1.2c.73-.78,1.21-1.82,2-2.53a51.64,51.64,0,0,1,4.68-3.79A26.21,26.21,0,0,1,333.5,328.05Zm52.85-10.45c-.65.46-1.11.62-1.26.93-.88,1.75-1.75,3.51-2.48,5.33-.6,1.47-.9,3.06-1.51,4.53a25.78,25.78,0,0,1-2,3.85c-.66,1.07-.52,3.81.25,4.52,1-1.67,2-3.35,2.95-5.09a17.2,17.2,0,0,0,1.44-3.26c.59-2,1-4.12,1.51-6.19,0-.11.07-.26.16-.31C387,320.92,386.14,319.39,386.35,317.6ZM380.5,467.14c-1,2,.72,5,3.25,5.88a26.1,26.1,0,0,1,3.92,2.18c1.47.84,2.77,2.29,4.72,1.68a5.54,5.54,0,0,0,1.44-1.08c-.45-.44-.83-1.06-1.37-1.29s-1.65,0-2.21-.42C387,471.86,383.8,469.51,380.5,467.14ZM338,425.7l.79-.05c0-2,.57-4.19-.14-5.84-1-2.19-.72-4.29-.88-6.44-.1-1.37,0-2.75-.06-4.13,0-.83.1-1.77-1.19-1.75s-1.25.9-1.16,1.76c.35,3.35.62,6.71,1.12,10C336.76,421.44,337.43,423.56,338,425.7Zm-10.48-44.2c-1.33-1.14-2.45-2.12-3.58-3.07-1.84-1.54-3.64-3.12-5.54-4.57a8,8,0,0,0-2.18-.81c.11.76,0,1.72.37,2.21a11.89,11.89,0,0,0,3.1,2.65c1.65.94,2.53,3.1,4.81,3,.12,0,.3.18.37.31C325.51,382.49,326.34,381.87,327.47,381.5Zm8.94,2.07-.68-.39c-.29.46-.85.93-.85,1.39,0,2.68.13,5.35.29,8,0,.34.44.67.68,1,.19-.31.53-.63.53-1C336.43,389.63,336.41,386.6,336.41,383.57Zm52.64,97.8c-1.07-.64-1.8-1.11-2.55-1.53-1-.57-2.07-1.13-3.14-1.61-.19-.09-.66.2-.84.43a.81.81,0,0,0,.2.75c1.83,1.28,3.69,2.52,5.8,3.94C388.79,482.36,388.94,481.77,389.05,481.37Z"/><path class="cls-1" d="M379.82,162.75c1.52-.15,1.67,1.38,2.42,2.11a36,36,0,0,1,3.76,4.5,23.38,23.38,0,0,1,1.67,3c1.35,2.55,2.71,5.1,4,7.66,1.15,2.23,2.32,4.46,3.38,6.74a29.38,29.38,0,0,1,1.1,3.24c.57,1.7,1.21,3.38,1.7,5.1a3.2,3.2,0,0,1-1.25,3.41c-1.83,1.6-3.56,3.32-5.42,4.86a13.49,13.49,0,0,1-2.93,1.63c-1.22.56-2.54.94-3.74,1.55-2.13,1.07-4.2,2.26-6.3,3.4a2.16,2.16,0,0,1-.66.23c-3.69.63-6.52,2.93-9.6,4.77-1.81,1.08-3.75,2-5.66,2.86-2.72,1.31-5.41,2.72-8.22,3.81-4,1.54-8.29,2.57-12.32,1.34a45.48,45.48,0,0,0-8.31-1.33c-.39,0-.73-.37-1.12-.45-.67-.15-1.67-.54-2-.24-1.65,1.52-3.46.66-4.94.72l-2.84-6.16c-.05-.1-.16-.19-.18-.3-.5-2.26-1-4.53-1.48-6.78-.72-3.11-1.46-6.22-2.19-9.33,0-.17-.17-.32-.2-.49-.46-2.92-.78-5.87-1.4-8.76-.58-2.72-1.48-5.38-2.23-8.07a5.17,5.17,0,0,1-.13-1.24c0-2.64-.17-5.29,0-7.91a30.11,30.11,0,0,1,1.28-8,43.77,43.77,0,0,0,2.49-12.94,33.31,33.31,0,0,1,1.36-7.3,55.08,55.08,0,0,1,2.24-5c.57-1.44.86-3,1.47-4.41s1.54-3,2.31-4.45c.46-.9.89-1.82,1.31-2.73a43.06,43.06,0,0,1,3.86-7.48c1.22-1.71,1.74-3.89,2.83-5.71a24.8,24.8,0,0,1,2.94-3.4c1.87-2.13,3.89-4.14,5.54-6.41a36.31,36.31,0,0,0,3-5.63c1.21-2.49,2.4-5,3.52-7.54.62-1.42,1-2.93,1.62-4.36s1.36-2.82,2-4.25a31.59,31.59,0,0,0,1.61-3.8c.61-2,.94-4.08,1.58-6.07.59-1.82,1.43-3.55,2.16-5.33.47-1.16,1-2.31,1.4-3.5a2.23,2.23,0,0,1,4-.78c1.39,1.63,2.61,3.41,4,5.07a9.56,9.56,0,0,0,5.86,3.3,21.38,21.38,0,0,1,4.48,1.92,32,32,0,0,1,3.95,1.92,22.69,22.69,0,0,1,3.74,2.95c1.57,1.55,3.45,3.05,4.34,5s2.95,3.11,3.38,5.4c.22,1.19,1.24,2.22,1.9,3.33.11.19.36.39.34.57-.22,3,2.22,5.1,2.93,7.86.56,2.15,2.24,4,3.39,6,.14.25.08.6.19.87.75,1.82,1.54,3.64,2.3,5.46.44,1,.92,2.1,1.28,3.18.57,1.69,1,3.42,1.6,5.09.35,1,1,1.85,1.39,2.8a46.61,46.61,0,0,0,2.6,5.85c1.57,2.48,2.65,5.18,4.39,7.62,1.92,2.69,4.56,4.82,6,7.87.63,1.29,2,2.2,3.08,3.28.11.12.28.22.33.36.8,2.35,2.49,4.19,3.66,6.32.66,1.21,1,2.58,1.69,3.8.94,1.73,2,3.39,3,5.08a4.34,4.34,0,0,1,.54.92c.52,1.78,1,3.58,1.48,5.36.71,2.42,1.47,4.82,2.21,7.22,0,.18.14.34.17.51.73,3.82,1.59,7.58,1.56,11.54,0,2.67.89,5.34,1.09,8,.23,3.22,0,6.47.22,9.7.23,4,.91,8,1,12,.12,10.55,0,21.11-.07,31.66a3.18,3.18,0,0,1-1.14,2.2,16.83,16.83,0,0,1-3.4,1.6q-2.72,1.15-5.46,2.24a4.51,4.51,0,0,1-1.54.32c-4.91,0-9.82,0-14.74,0-1.24,0-1.59-.55-1.71-1.71-.41-3.87-.54-7.85-1.56-11.56-.64-2.34-.35-4.82-1.21-6.88-1-2.38-.51-4.92-1.38-7.05s-.36-4.28-1.18-6.12c-1-2.34-.81-4.74-1.27-7.08a43,43,0,0,0-2.14-6.21,2,2,0,0,1-.08-.35c-.51-2.75-.9-5.53-1.57-8.24a53.92,53.92,0,0,0-2-5.6c-.12-.34-.29-.66-.4-1-.92-2.83-1.77-5.7-2.77-8.51a59.88,59.88,0,0,0-2.55-6.15c-.55-1.13-1.52-2.05-2.14-3.16s-.8-2.22-1.41-3.2c-2.15-3.51-4.25-7.06-6.65-10.4-1.79-2.5-4.11-4.63-6-7.07a82.68,82.68,0,0,1-5.23-7.61,26.58,26.58,0,0,1-1.52-4.15c-.66-1.7-1.4-3.37-2.1-5.05a3.44,3.44,0,0,1-.21-.49c-.53-2.73-1.05-5.45-1.57-8.18-.39-2.06-.9-4.11-1.1-6.19-.17-1.9.06-3.83,0-5.75,0-.75.21-1.79-1.11-1.85s-1.59.86-1.57,1.87c0,2.34.07,4.68.31,7s.67,4.51,1.09,6.75a32.11,32.11,0,0,0,1.41,6.31c1.11,2.64,1.45,5.57,3.22,8,1.14,1.56,1.7,3.54,2.79,5.15,1.94,2.86,4.1,5.58,6.13,8.38a3.47,3.47,0,0,1,.32,1.17,8.88,8.88,0,0,0-2.41.43c-2.09,1-3.57,3.05-5.95,3.7-.34.09-.37,1.29-.55,2,.37.06.85.31,1.1.17a71.78,71.78,0,0,0,6.31-3.8C379.09,164.77,379.35,163.61,379.82,162.75Zm-32.48-47.34c.69-.57,1.5-1,1.86-1.59,1-1.85,1.85-3.81,2.79-5.71a28.25,28.25,0,0,1,1.43-2.66c1.59-2.55,3.27-5,4.81-7.63,1-1.65,1.68-3.51,2.75-5.11A14.21,14.21,0,0,0,363.41,86a23.73,23.73,0,0,1,.86-3.12,3.6,3.6,0,0,0,.11-1.77,2.11,2.11,0,0,0-1.17-1.21c-.28-.08-1.06.54-1.16,1-.52,2.16-.89,4.35-1.34,6.52a9.52,9.52,0,0,1-.54,2.05,42.25,42.25,0,0,1-1.92,3.8c-1.09,1.85-2.24,3.67-3.39,5.49-1,1.56-2.08,3-3,4.65-.68,1.24-1,2.66-1.68,3.91s-1.55,2.07-2.14,3.21C347.32,111.85,345.89,113.2,347.34,115.41Zm-11.42,18.26a20.1,20.1,0,0,0-1.93,1.8,33.11,33.11,0,0,0-2.2,3c-1,1.58-2.08,3.15-3,4.81-.69,1.3-1.06,2.76-1.7,4.09-1.1,2.29-2.43,4.47-3.4,6.8a44,44,0,0,0-1.53,5.48.94.94,0,0,1-.22.46c-1.54,1.15-1,2.75-.89,4.23,0,.31.28.61.44.91.32-.18.75-.28.94-.56a10.29,10.29,0,0,0,1.16-2.2c.55-1.56.89-3.19,1.47-4.73.68-1.8,1.57-3.51,2.28-5.29.6-1.49.94-3.09,1.63-4.53,1.07-2.2,2.27-4.33,3.54-6.42a41.78,41.78,0,0,1,3.09-4.39C336.52,136.06,336.87,135,335.92,133.67Zm87.8,66.77h.06c0-1.56,0-3.11,0-4.66a1.6,1.6,0,0,0-.61-1c-.12-.11-.69,0-.76.2a12.65,12.65,0,0,0-1.27,3.4c-.3,2.84.17,5.7-1.24,8.46-.9,1.75-1.07,3.87-1.6,5.82,0,.2-.38.32-.47.52-.89,2.06-2.48,3.91-2.07,6.37a4.16,4.16,0,0,0,.57,1.16c.33-.2.81-.31,1-.6a26.19,26.19,0,0,1,1.43-3,11.45,11.45,0,0,0,2.33-5.56,3.82,3.82,0,0,1,.33-1.2c1.13-2.41,2.21-4.84,2.22-7.58C423.59,202,423.67,201.21,423.72,200.44Zm-18.19-42.52c-1.47-.26-2.1.2-2.29,1.4-.39,2.43-.86,4.85-1.25,7.29a3.14,3.14,0,0,0,.21,1.18,20.38,20.38,0,0,1,.61,2.12,40.1,40.1,0,0,0,.67,5,22.06,22.06,0,0,0,2,4.21c.54,1,1.19,2,1.8,3l.59-.29c.23-1.25,1.21-2.58-.62-3.6-.19-.11-.21-.52-.27-.79-.52-2.13-1-4.26-1.55-6.38a1.54,1.54,0,0,0-.24-.48,8.09,8.09,0,0,1-.42-7.21A19.1,19.1,0,0,0,405.53,157.92ZM375.15,95.31c0,.24,0,.49,0,.74,1,0,2.08.14,3.13.15,1.91,0,3.82,0,5.73,0a2.5,2.5,0,0,1,1.19.25c1.54.89,3,1.87,4.56,2.74a4.61,4.61,0,0,0,1.52.24c-.09-.7.08-1.7-.32-2a17.32,17.32,0,0,0-4.18-2.81C382.8,92.88,378.84,92.82,375.15,95.31Zm3.92,72.91a7.79,7.79,0,0,0-.76-1.41c-.07-.09-.76.11-.85.31-.93,2.06-1.8,4.14-2.67,6.23-.11.27-.09.58-.18.86q-1.14,3.36-2.3,6.72a24.06,24.06,0,0,0-.94,2.66,10.77,10.77,0,0,0,0,2.2c.65-.11,1.74,0,1.88-.36a30.64,30.64,0,0,0,1.58-4.77c.58-2.26,1.05-4.54,1.59-6.8,0-.2.32-.34.41-.54C377.57,171.64,378.31,169.94,379.07,168.22Zm37.65,30.51c.57.57,1,1.39,1.61,1.53,1.24.3,1.4-.67,1.43-1.67a5.23,5.23,0,0,1,.35-2.09,35.62,35.62,0,0,0,2-3.6,15.39,15.39,0,0,1,3.54-5.93c.39-.4.22-1.32.31-2-.37,0-.94-.21-1.08,0-1.4,1.68-2.78,3.37-4.05,5.14a21.29,21.29,0,0,0-1.81,3.32C418.27,195,417.6,196.68,416.72,198.73ZM347,185.46c-2.65-1.56-8.14-.07-9.13,2.14a1,1,0,0,0,.22.74,5.6,5.6,0,0,0,2.21-.1c1.73-.67,3.39-1.52,5.08-2.28A14.59,14.59,0,0,1,347,185.46Z"/><path class="cls-1" d="M315.82,275.85c.87,0,1.68-.16,2.16.15,2.87,1.87,6,.75,9,.76.58,0,1.65-1.21,1.69-1.91.16-2.68.66-5.63-.21-8-1.41-3.86-1-7.67-.94-11.49,0-2.66.8-5.32,1.3-8.39,1.4,1,2.3,1.75,2.36,3.16.07,1.73.05,3.48.17,5.21.15,2.29-.15,4.56.76,6.87.52,1.33-.28,3.18-.49,4.79-.06.53-.18,1.06-.2,1.59a38.67,38.67,0,0,1-.25,6.1c-.43,2.22-1.51,4.32-2.07,6.54a27.9,27.9,0,0,0-.39,4.53l11.48,4.05c.88-1.82,1.87-3.68,2.68-5.61s1.49-4,2.19-6a4.14,4.14,0,0,0,.23-1.39c0-6.66.5-13.37-.24-19.94a88.34,88.34,0,0,1-.83-11.46A23,23,0,0,1,345.4,239c.18-.57,1.58-.88,2.48-1.05.64-.13,1.4.33,2.06.22a19.58,19.58,0,0,0,4.77-1.09c2.09-.91,4-2.21,6-3.31a20.57,20.57,0,0,1,2.73-1.29c1.68-.62,3.41-1.12,5.1-1.72,2.1-.74,4.19-1.52,6.28-2.29a1.73,1.73,0,0,1,.31-.14c2.46-.49,4.95-.88,7.38-1.48s4.75-1.38,7.12-2.09a4.49,4.49,0,0,1,1-.35c1.9-.12,3.19-1.74,4.78-2.16,2.08-.55,3.19-2.26,5-3,.49-.2.83-.75,1.26-1.12.66-.58,1.34-1.14,2.24-1.9.67,3.8.88,7.13,1.9,10.19.85,2.55.38,5.29,1.3,7.58,1,2.46.51,5,1.32,7.26,1,2.86.61,5.75,1.06,8.58s1.14,5.9,1.76,9.06a4.88,4.88,0,0,1,1,.25c1.2.5,2.24,1.06,2.21,2.69-.07,3.35.06,6.71,0,10.07-.06,2.28.27,4.59-1,6.8-.53.93-.19,2.35-.24,3.55-.1,2.91-2.53,5-5,6.41-1.88,1.05-4.31.27-5.72,2.17-.06.07-.23.07-.35.08-3.28.29-6.33,1.81-9.77,1.53a13.45,13.45,0,0,0-6.95.83c-2.37,1.08-2.92.37-3.17-2.27-.29-3.1-.12-6.48-1.33-9.21s-.33-5.4-1.29-7.81-.26-5.11-1.16-7.27c-1.4-3.34-.92-6.73-1.26-10.13-1.45-.31-2.21-.14-2.58,1.52-.49,2.23-1.58,4.31-2.21,6.52s-.92,4.68-1.67,6.92c-1,2.94-.46,6.11-1.32,8.89-.93,3-.66,6-1.35,8.95-.37,1.6-.25,3.68-2,4.77a3.94,3.94,0,0,1-1.85.72c-3.78,0-7.71.58-11.28-.29s-7.22,0-10.46-1.21c-3-1.13-6.37-1.11-9.08-3.29-1.3-1-3.39-1-5-1.79a16.77,16.77,0,0,1-3.52-2.38c-2.05-1.68-4.06-3.43-6-5.22a9.93,9.93,0,0,1-1.5-2C316.91,277.91,316.5,277.09,315.82,275.85Z"/><path class="cls-1" d="M154.61,61.41c-1-1.77-1.84-3.58-2.88-5.3-.89-1.45-1.8-3.07-3.65-3.43a4.87,4.87,0,0,0-5.37,1.88,5.87,5.87,0,0,0-1.08,3.87c0,4,.1,8,.15,12,0,.66-.06,1.32,0,2,0,1.41-.56,2-2,2-2.33-.11-4.67-.07-7-.15a2.53,2.53,0,0,1-2.61-2.51c-.49-3.93-.56-8-1.61-11.76-1.29-4.68-1.16-9.34-.81-14,.21-2.83,1.33-5.59,2.08-8.37a47.93,47.93,0,0,1,1.62-5.4c1-2.45,2.14-4.88,4.33-6.56s4.14-3.12,6.23-4.66a1.78,1.78,0,0,1,.81-.31c4.68-.75,9.33-1.81,14.12-1.46,1.26.09,2.52.11,3.78.1,3.11,0,5.9,1.09,8.78,2.13a16,16,0,0,1,7.21,5.08,63,63,0,0,1,3.6,5.65c.56.87,1.33,1.63,1.8,2.54A14.52,14.52,0,0,1,183.7,39a16.79,16.79,0,0,1,0,6.08,8.9,8.9,0,0,1-3.94,6c-.84.48-2.22.18-3.32,0a12.41,12.41,0,0,1-2.83-1c-1-.45-2-1-3-1.51a15.37,15.37,0,0,1-2.74-1.49c-1.45-1.16-2.52-.75-4.09,0-2.73,1.36-3.67,4.1-5.27,6.21s-2.21,5.17-3.25,7.8Z"/><path class="cls-1" d="M309.72,49.2c2,.77,3.78,1.77,5.6,2a41.11,41.11,0,0,0,7.36,0c.74,0,1.44-.67,2.2-.87a12.32,12.32,0,0,1,2.17-.2c1.44,2.51,2.78,5,4.27,7.38a3.26,3.26,0,0,0,4.92.7c.35-.26.86-.29,1.23-.54a6,6,0,0,0,1.46-1.22c1.71-2.17,1.88-4.88,2.58-7.42.15-.57,1.23-1.46,1.45-1.35.85.42,2.11,1.16,2.16,1.85.17,2.4.56,4.75-.58,7.26-.86,1.9-.28,4.45-.3,6.71,0,.18.36.48.6.53,3,.63,5.83,1.94,9,1.39a5.81,5.81,0,0,1,1.79.31c-.23.75-.43,1.51-.7,2.25-.1.31-.53.6-.48.84.43,2.45-1,4.47-1.56,6.7-.39,1.62-1.42,3.08-2.05,4.65s-1.09,3.15-1.68,4.71c-.38,1-.85,2-1.31,2.9-.75,1.58-1.56,3.12-2.26,4.71-.48,1.1-.79,2.27-1.21,3.4a31.82,31.82,0,0,1-1.71,4.28,24.68,24.68,0,0,1-2.73,3.8c-1.87,2.25-3.84,4.41-5.71,6.67a38.05,38.05,0,0,0-2.15,3.17c-1.06-1.49-.91-11.56,0-13,0-.11,0-.23,0-.34-.48-2.71-3.06-3-4.88-4-.77-.45-2-.17-3-.19-.66,0-1.31,0-2,0-2.12,0-3.27-1.07-3.82-3.16s-1.37-4.26-1.34-6.62c0-1-1-2.12-1.56-3.19a4.91,4.91,0,0,1-.79-1.8,11.68,11.68,0,0,0-4.05-8.13,9.89,9.89,0,0,0-3.28-1.58A2.63,2.63,0,0,1,306.05,68a6.19,6.19,0,0,0,.71-1.88c.28-1.36-.15-2.9,1.15-4a.71.71,0,0,0,.18-.5c.13-3.5,2-6.77,1.36-10.39A5.73,5.73,0,0,1,309.72,49.2Z"/><path class="cls-1" d="M110.66,283.12V257.74c-2.84,2-5.25,3.8-7.73,5.48-1.27.86-2.67,1.52-4,2.29-.62.37-1.17.87-1.81,1.21-2.57,1.34-5.18,2.61-7.74,4-1.27.66-2.47,1.43-3.72,2.12-1,.58-1.88.62-1.82-1,.09-2.21-.31-4.61.41-6.6.92-2.57.59-5.16,1.11-7.68a34.38,34.38,0,0,1,2.07-5.39,2,2,0,0,0,.15-.51,19.34,19.34,0,0,1,2.72-7.19,23.64,23.64,0,0,1,2.61-4.24,2.57,2.57,0,0,1,2.52,0c3,2.78,5.77,5.73,8.6,8.66,1.9,2,3.68,4.07,5.66,6a32.76,32.76,0,0,0,4.07,2.88c1.66,1.14,3.29,2.3,5,3.36a17.68,17.68,0,0,0,3.09,1.51c1.58.61,3.24,1,4.81,1.67s3.09,1.46,4.65,2.13c1.21.53,2.45.95,3.67,1.43a26.71,26.71,0,0,0,12.15,1.34c2.47-.21,4.9-.82,7.36-1s2.62,0,2.39,2.45-.76,5.2-1.21,7.79c-.48,2.76-.91,5.53-1.58,8.25-.63,2.55-1.52,5-2.36,7.54a19.53,19.53,0,0,1-1.3,2.92,1,1,0,0,1-.9.27c-2.18-1.43-4.27-3-6.48-4.36-2.69-1.69-4.89-4.14-8.28-4.75-2.29-.4-4.47-1.43-6.73-2.05a12.21,12.21,0,0,0-3-.26c-2.1,0-4.2-.12-6.3,0a9.4,9.4,0,0,1-6.69-2.37A5.11,5.11,0,0,0,110.66,283.12Z"/><path class="cls-1" d="M129.25,76.12a18.85,18.85,0,0,0,3.15.74,43.1,43.1,0,0,0,7,.11,8.23,8.23,0,0,0,4.19-1.68c.66-.54.67-2.09.67-3.19,0-4.32,0-8.63-.07-12.95,0-1.19,0-2.38,0-3.5,3.14-1,4-.22,5.22,2.62a23.39,23.39,0,0,0,3.92,5.62,2.3,2.3,0,0,0,2.27,0c1.15-1.26,2.52-2.35,2.8-4.38.21-1.51,1.38-2.89,2.12-4.33a15.66,15.66,0,0,1,1.32-2.42c.81-1,1.81-1.89,2.68-2.87a5.89,5.89,0,0,0,.64-1.25c2.1,1.26,4.1,2.46,6.1,3.64a3.48,3.48,0,0,0,.8.3c1.62.43,3.27.79,4.86,1.33.33.11.63.87.64,1.34.05,2.09-.33,4.24.08,6.24s1.27,3.86,1.24,6c0,.6.9,1.17,1.1,1.83.8,2.68-1,5.18-3.21,6.39-2.62,1.42-4.57,3.79-4.36,6.06a3.58,3.58,0,0,0,.71,1.68c.89,1.18.56,2.65-.28,3.93-.72,1.1-2.5,2-.78,4.08s-.62,6-3.62,6c-2.73,0-5.49,0-8-1.31-3-1.61-6.4-2.28-8.94-4.79-.92-.9-2.5-1.11-3.74-1.71-.44-.21-.73-.68-1.14-1-1.94-1.29-3.9-2.55-5.86-3.81a1,1,0,0,0-.52-.14c-3,.33-5.67-1-8.49-1.53a12.91,12.91,0,0,1-3.6-1.58,1.4,1.4,0,0,1-.45-1.25C128.18,78.89,128.77,77.43,129.25,76.12Z"/><path class="cls-1" d="M30.36,469.66c-.35.93-.69,1.8-1,2.68-.6,1.72-1.15,3.46-1.8,5.17-1,2.67-.12,5.34-.1,8,0,3.58,1.64,6.41,3.48,9.26A80.82,80.82,0,0,1,35,501.91c.92,1.8-.87,4.5-2.89,4.5a62.41,62.41,0,0,1-8.44-.2c-1.79-.23-3.47-1.29-5.21-2a3.91,3.91,0,0,0-.65-.24c-2.55-.47-5.09-1-7.65-1.38-2.32-.34-2.93-1-3.21-3.31-.39-3.36-.36-6.88-1.46-10-1-2.87-.32-5.86-1.33-8.48-.93-2.43-.83-4.81-1.11-7.23a4.81,4.81,0,0,1,1.85-4.23c1.91-1.81,3.92-3.52,4.87-6.13a4,4,0,0,1,1.37-1.46c.17-.13.67,0,.92.16a31.12,31.12,0,0,0,3.24,2.18c2.8,1.33,5.64,2.61,8.53,3.71C25.76,468.56,27.82,469,30.36,469.66Z"/><path class="cls-1" d="M277.4,134.41c0-.77.07-1.61,0-2.42a30.46,30.46,0,0,0-2.25-9,25.82,25.82,0,0,1-1.53-5.91,2.13,2.13,0,0,1,2.39-2.69c2.63.15,4.95-.84,7.32-1.63a50.87,50.87,0,0,0,6.49-2.67,37.18,37.18,0,0,0,4.12-2.78c2.91-2,5.84-4,8.73-6,.63-.44,1.09-1.12,1.72-1.56s1.58-1.15,2-.94a3.6,3.6,0,0,1,1.77,2.14c.33,2.31,1.81,3.88,3.22,5.4s2.28,2.62,2.14,4.6c-.11,1.73,0,3.47-.1,5.2a5.25,5.25,0,0,1-.48,1.5,13.36,13.36,0,0,0-.74,2.06c-.18.95.07,1.88-1,2.69-.52.4-.3,1.78-.4,2.72-.12,1.18.44,2.59-1.16,3.26-.14.06-.22.43-.21.64.07,1.24-.56,1.55-1.7,2-3.13,1.13-5.8-.4-8.66-.93-2.54-.48-5.15-1-7.61.42a1.58,1.58,0,0,1-.66.23c-2.28.15-4,1.72-6,2.37C282.5,133.77,280.37,135.71,277.4,134.41Zm10.4-15.35c1.69.41,2.42,0,2.47-1.57a12.07,12.07,0,0,1,.83-2.58,17.73,17.73,0,0,0,.26-2c-.74.14-1.45.07-1.6.33a25.91,25.91,0,0,0-1.92,3.88A6,6,0,0,0,287.8,119.06Zm15.33,6.69c.12,1,.21,1.72.3,2.44A15.74,15.74,0,0,0,305.3,127c.23-.2.18-.72.26-1.09Zm4-4.91-.46-.39-2.07.65,1.93,2.11Zm1.61-4-1.21-1.52c-.26.39-.75.79-.72,1.15a5.16,5.16,0,0,0,.7,1.59Z"/><path class="cls-1" d="M315.39,238.23a55.55,55.55,0,0,0-6.4-4.66,14.83,14.83,0,0,0-5.45-1.3c-3.61-.36-5.28-2.69-7.07-5.53-1.47-2.34-1.23-4.62-1-6.88s1.26-4.17,2-6.24a26,26,0,0,1,1.74-4.34,66.81,66.81,0,0,1,4.2-6.42c.91-1.24,2.22-2.18,3.19-3.38s2-2.86,3-4.27c1.18-1.64,2.39-3.26,3.61-4.86a4.5,4.5,0,0,1,.88-.66,8.08,8.08,0,0,1,.65.92c1.2,2.26.41,5.19,1.45,7.09,1.18,2.15.22,4.68,1.91,6.47a1,1,0,0,1,.16.5c.53,3,.91,6.07,1.63,9.05a28.49,28.49,0,0,0,2.09,4.8c.51,1.14,1,2.28,1.54,3.44.88,2-.67,3.42-1.5,4.94-.6,1.11-1.62,2-2.24,3.08C318.27,232.64,316.9,235.36,315.39,238.23Z"/><path class="cls-1" d="M342.83,454.16c0,2.22.33,4.5-.13,6.61a4.51,4.51,0,0,1-2.89,3.44c-5.89,2.3-11.92.76-17.86,1.15-3.47-1.89-7.3-1-11-1.42-1.73-.2-3.49-1.08-5.14-.88-2.48.31-4.85,1.4-7.31,1.95a24.38,24.38,0,0,1-4.61.35c-1.49,0-2.87.08-4.21-1.15-.83-.76-.82-1.42-.47-1.91a8.3,8.3,0,0,1,2.28-2c1.23-.79,2.55-1.42,3.83-2.12a2.21,2.21,0,0,1,.44-.26c2.14-.52,4.3-.94,6.41-1.55a32,32,0,0,0,4.34-1.65,37.78,37.78,0,0,0,4.44-2.26,21.73,21.73,0,0,0,3.56-2.71,41.71,41.71,0,0,0,2.77-3.14c1.4.32,2.48.48,3.5.83,1.94.69,3.84,1.5,5.76,2.25,1.24.49,2.46,1,3.73,1.4,1.93.56,3.9,1,5.85,1.46Z"/><path class="cls-1" d="M252.9,456.64c.12,2.32-2,4.83-4.2,4.87a107.53,107.53,0,0,1-12.18-.13c-2.31-.21-4.51-1.43-6.78-2.15A6.84,6.84,0,0,0,228,459c-2.1-.07-4.42.45-6.24-.28-2.89-1.14-5.74-.81-8.61-.88a12.21,12.21,0,0,0-6.42,2.09,27.6,27.6,0,0,1-2.55,1.28,24.61,24.61,0,0,1-3.5,1.45c-1.75.48-3.42-.93-4-3-.7-2.66-1.56-5.27-2.26-7.92a18.81,18.81,0,0,1-.29-2.94c1.32,0,2.44.06,3.55,0,4.89-.35,9.64-1.82,14.62-1.56,1.54.08,3.11-.86,4.7-1.1a4.29,4.29,0,0,1,3,.94c2.53,1.61,4.92,3.43,7.86,4.56,3.8,1.46,7.57.55,11.3,1.06,1.37.18,2.72.53,4.09.79a10.75,10.75,0,0,0,1.93.3c2.24,0,4.24.45,5.82,2.25C251.34,456.47,252.19,456.44,252.9,456.64Z"/><path class="cls-1" d="M407.17,491.52a22.8,22.8,0,0,0-1.25,2.33,17.64,17.64,0,0,0-1.44,4.41c-.34,3.2-1.83,5.77-3.47,8.45a8.79,8.79,0,0,1-3.11,3.05,3,3,0,0,1-2.65,0c-1.52-1-3-1.14-4.05-.24-1.77-.22-3.2-.44-4.64-.56-1.12-.1-2.31.43-3.25-.79-.22-.27-1.41-.12-1.89.22-1.32.9-2.3.85-3.1-.42-1.14-1.82-1.65-1.51-3.6-.67-1.51.65-3.54.2-5.33.06-.25,0-.75-1.24-.56-1.63.88-1.84,1.91-3.61,3-5.36,1.15-1.93,3-3.47,3.23-5.92,0-.35,1.06-.84,1.63-.85,5.45-.11,10.9,0,16.34-.22a78.45,78.45,0,0,0,9.64-1.14,19.15,19.15,0,0,0,3.79-1.47Z"/><path class="cls-1" d="M438.63,257.06c.54,1.57,1.07,3.29,1.73,5,.52,1.32,1.19,2.57,1.8,3.85a18.48,18.48,0,0,1,1.65,12.66,2.24,2.24,0,0,1-1.54,1.19,5.42,5.42,0,0,0-3.85,2.07.41.41,0,0,1-.32.13c-2.94-.35-5.45,2.37-8.36,1.4a17.77,17.77,0,0,1-4.94-2.93c-1.49-1.13-1.5-2.94-1.07-4.57.52-1.95,1.36-3.82,2-5.73a3.71,3.71,0,0,0,.22-1.23c0-2.27,0-4.55-.07-6.82-.07-1.2.18-1.7,1.51-1.76,2.75-.12,5.24-1.26,7.77-2.26A35.26,35.26,0,0,1,438.63,257.06Z"/><path class="cls-1" d="M304.42,235.32c.55,1.82-1,3.23-2.21,4.17-2.37,1.85-3.34,4.33-4.3,6.92-.8,2.15-1.63,4.3-2.38,6.47-.52,1.47-.94,3-1.38,4.46-.25.86-.62,1.77-1.64,1.38a2.05,2.05,0,0,1-1.05-1.69,17.62,17.62,0,0,1,1.06-3.38,5,5,0,0,0,.16-.51c.51-1.89,1-3.78,1.53-5.66a7.1,7.1,0,0,1,.53-1.07l.56-1.14c-.39-.18-.78-.36-1.17-.51a15.58,15.58,0,0,0-2.93-1.11,17.88,17.88,0,0,0-3.18,0c-1,2,.27,2.95,1.3,4,.52.51,1.14.92,1.68,1.41a.75.75,0,0,1,.24.61,48,48,0,0,1-2.08,5,1.39,1.39,0,0,1-2.49.05c-1.07-1.65-3.2-2.68-3.07-5.12,0-.52-.62-1.26-1.14-1.61-1.41-.94-1-2.33-1.22-3.63-.09-.71-.72-1.44-.6-2.07a7.27,7.27,0,0,1,1.35-3.63,40.7,40.7,0,0,1,5-3.71c2-1.47,4-2.93,5.86-4.49.95-.78,1.5-1.09,2.51.09,1.19,1.38,2.25,3,4.58,3.12C301.35,233.65,302.71,234.62,304.42,235.32Z"/><path class="cls-1" d="M171.93,267c1.44,2.74,2.76,5.59,4.39,8.26a46.21,46.21,0,0,0,4.27,5.62c1.3,1.54,2.85,2.87,4.1,4.45a2.26,2.26,0,0,1-.06,2.14,33.72,33.72,0,0,1-5,5.45c-1.85,1.46-4.24,2.22-6.23,3.52s-3.87,1.1-5.9,1.06c-.47,0-1.28-.28-1.32-.53a4.83,4.83,0,0,1,.26-2c.13-.45.63-.83.7-1.28.53-3.65,1.19-7.3,1.42-11a94.84,94.84,0,0,0-.05-11.31A4.46,4.46,0,0,1,171.93,267Z"/><path class="cls-1" d="M328.46,100.28c.16.64.33,1.29.46,1.94.22,1.11.43,2.23.59,3.35,0,.24-.2.51-.24.78-.41,2.7-1.14,5.41.42,8,.61,1,.05,3.79-.59,4.86-1.1,1.83-2,3.78-3,5.69-.48,1-.92,1.93-1.38,2.89a44.75,44.75,0,0,1-3.57,6.47c-.3-2.2-.6-4.4-.85-6.16.25-2,.45-3.7.64-5.36s-.43-3.63,1.17-5c.13-.11.1-.47.07-.7-.49-3,.84-5.69,1.61-8.41.62-2.19,2.18-4.1,3.27-6.17a15.18,15.18,0,0,0,.74-2.12Z"/><path class="cls-1" d="M311.56,80a10.21,10.21,0,0,1,.46,1.93c.09,1.78,1.1,3.08,1.9,4.57.64,1.19,1.1,3.26.49,4.18-1.19,1.82-1,3.64-1,5.48a7.13,7.13,0,0,1-1.5,4.9c-.13.15-.4.19-.62.29-.64-1.5-.92-3.26-1.94-4.29-2.07-2.09-1-4.45-.8-6.56.18-2.45,1.32-4.83,2-7.26.29-1,.41-2.14.6-3.21Z"/><path class="cls-1" d="M301.6,142.39h-4.79c0-2.69-.18-5.24.05-7.76.2-2.14,1.79-2.75,3.59-1.69a1.91,1.91,0,0,0,1,.3c2-.11,2.17,1.14,1.86,2.56C302.86,137.86,302.26,139.9,301.6,142.39Z"/><path class="cls-1" d="M330.15,2.82c1.81-.33,3.58-.58,4.45,1.29.43.93.74,2.64.24,3.14-1.29,1.29-.85,2.72-1,4.11,0,.35-.07.71-.14,1.39-1.31.13-2.64.34-4,.34-.33,0-.95-.75-.92-1.11.14-2-.48-4,.9-5.89C330.26,5.3,330,3.91,330.15,2.82Z"/><path class="cls-1" d="M315,274.39c-.56-2.22-1-4.29.78-6.09.22-.22.61-.47.85-.41a1,1,0,0,1,.52.77C317.26,270.77,317.62,273,315,274.39Z"/><path d="M197,358.17c-2.92-.6-5.89-1.08-8.76-1.87-1.31-.36-2.38-1.71-3.68-2-2.12-.44-3.61-1.71-5.16-3-2.39-1.94-4.73-3.94-7.06-6-1.47-1.27-2.91-2.59-4.33-3.93a47.48,47.48,0,0,1-4.3-4.33c-.41-.5-.07-1.61-.07-2.44a6.14,6.14,0,0,1,2.18.58,26.51,26.51,0,0,1,2.38,2.47c2.33,2.32,4.44,5,7.1,6.8,3,2.07,5.6,4.78,8.79,6.37,2.39,1.2,4.6,2.8,7.6,3.31a74.19,74.19,0,0,0,9.6.9c.83,0,1.68.23,1.68,1.42s-1,1.21-1.76,1.24c-1.37.06-2.75,0-4.12,0Z"/><path d="M106.1,337.19a7.89,7.89,0,0,1,1.05-.09,10.59,10.59,0,0,1,1.36.25c-.77,1.71-1.41,3.28-2.18,4.79a29.77,29.77,0,0,1-1.73,2.63c-1.2,1.86-2.36,3.74-3.56,5.6-1.42,2.18-2.8,4.39-4.29,6.52a39.68,39.68,0,0,1-2.87,3.49c-1.6,1.81-3.2,3.63-4.89,5.36-2.19,2.23-4.12,4.72-6.91,6.33a15.34,15.34,0,0,0-3.18,2.75c-1.15,1.2-1.89,1.32-3.75.17A105.27,105.27,0,0,0,106.1,337.19Z"/><path d="M187.84,379.36a2.85,2.85,0,0,1,2.31,2.45c.1.76,0,1.55.1,2.33.13,1.73-.23,3.52,1,5.12.41.53.15,1.54.4,2.26.59,1.68,1.26,3.34,2,5,.41.92,1.05,1.74,1.43,2.67.62,1.49,1.13,3,1.66,4.55.12.34,0,.87.22,1,2,1.52,0,1.83-.93,3C190.41,399,186.86,390,187.84,379.36Z"/><path d="M63.28,389.6c2.58-.39,5.2-.62,7.73-1.23a18.67,18.67,0,0,0,4.17-2,19,19,0,0,0,2.56-1.62c2-1.54,4-3.11,5.93-4.73,1.55-1.31,3-2.71,4.51-4.07l.69.44c-.41.93-.58,2.16-1.28,2.75-3.26,2.72-5.67,6.4-9.67,8.29-2,1-3.8,2.3-5.72,3.42A2.9,2.9,0,0,1,71,391c-1.85.09-3.7.22-5.55.22a10.85,10.85,0,0,1-2.27-.49Z"/><path d="M25.47,450.16c1.84-.48,3.7-.9,5.52-1.46a61.64,61.64,0,0,0,6.13-2.13c2.09-.9,4.06-2.05,6.08-3.09.25-.13.54-.21.8-.34.44-.21.87-.44,1.31-.66,0,.67.24,1.53-.08,2A5.65,5.65,0,0,1,43.1,446c-2.1,1-4.08,2.21-6.29,3.09-3.1,1.23-6.11,2.42-9.48,2.3a9.65,9.65,0,0,1-1.81-.41Z"/><path d="M50.71,408.8a1.79,1.79,0,0,1,2.94-1.54c.63-.27,1.21-.74,1.77-.72,2.71.1,4.88-1.06,7.19-2.32q2.51-1.37,5-2.77c.51-.29,1.47.2,2.22.32-.62.69-1.14,1.8-1.88,2A6,6,0,0,0,64.67,406a1.29,1.29,0,0,1-.55.33c-1.67.55-3.52.79-5,1.67-2.59,1.56-5.27.87-7.93.91A1.78,1.78,0,0,1,50.71,408.8Z"/><path d="M154.78,167,171,157.57l-.13-.73a17.44,17.44,0,0,0-2.25-.33c-3.65,0-7.3.1-10.94-.1a10.2,10.2,0,0,1-4.06-1.4c-.41-.21-.35-1.3-.51-2l.42-.44c.81.28,1.6.6,2.42.83a7.91,7.91,0,0,0,2.08.41c4.06.07,8.13.08,12.2.12.59,0,1.18.06,1.29.07a25.7,25.7,0,0,1,1.91,2.58,1.41,1.41,0,0,1-.24,1.27,26.83,26.83,0,0,1-6.59,5.07c-1.68,1-3.51,1.73-5.21,2.68a32.5,32.5,0,0,1-3.41,2.12,9,9,0,0,1-3,.06Z"/><path d="M157.85,201.75c.53,1.48,1,2.58-.32,3.82-.79.73-1.05,2-1.69,3-1.07,1.56-2.22,3.07-3.39,4.57a37.61,37.61,0,0,1-3,3.64,47.15,47.15,0,0,1-4.24,3.75,42.42,42.42,0,0,1-6.66,4.76c-2.14,1.08-3.92,3-6.57,3.11-.56,0-1.06.91-1.65,1a11.72,11.72,0,0,1-2.68-.24c.62-.67,1.13-1.69,1.88-1.94a46.19,46.19,0,0,0,10.55-5.49,35.65,35.65,0,0,0,6.25-5,59.61,59.61,0,0,0,5.66-7c1.43-2,2.54-4.2,3.9-6.25A9.93,9.93,0,0,1,157.85,201.75Z"/><path d="M227.19,123.52c-1.21,1.81-2.25,3.44-3.38,5-.26.36-.87.46-1.32.68,0-.73-.24-1.67.11-2.15,1.09-1.51,2.16-3,2.23-4.9,0-1.13.49-1.61,1.66-1.46,2.25.29,3.39,1.76,3.6,4,.23,2.51-.7,4.69-1.51,6.91a4.29,4.29,0,0,1-1.43,1.64c-.15.12-1-.29-1-.4a5.93,5.93,0,0,1,.52-2.75C228.16,127.9,227.5,125.71,227.19,123.52Z"/><path d="M137.74,96.21,130.32,93V90.82c1.05.54,1.8,1,2.6,1.3,1.55.62,3.13,1.17,4.82,1.79Z"/><path d="M375.05,401.12c-1.73-1.82-3.52-3.59-5.16-5.48-1.11-1.29-2.35-2.44-2.89-4.28-.23-.76-1.65-1.53-.77-2.46s1.9-.14,2.92.52c1.28.83,2.94,1,4.33,1.73s2.87,1.58,4.57,1.18c1.86-.45,3.68-1.05,4.57-3a2.94,2.94,0,0,1,.66-.71c.2.3.63.64.58.9a3.63,3.63,0,0,1-.7,2c-2.13,2-4.37,4-7.7,3.37-.67-.14-1.26-.61-1.92-.82a9.25,9.25,0,0,0-2-.33c-.06,0-.36.93-.21,1.07,1.43,1.4,3,2.68,4.39,4.12.34.35.19,1.19.27,1.8Z"/><path d="M333.5,328.05a26.21,26.21,0,0,0-3.38,1.72,51.64,51.64,0,0,0-4.68,3.79c-.78.71-1.26,1.75-2,2.53a6.9,6.9,0,0,1-1.77,1.2c-.08,0-.6-.38-.57-.49a5.77,5.77,0,0,1,.75-2,24.37,24.37,0,0,1,3.08-3.56c1.28-1.14,2.79-2,4.17-3a16.25,16.25,0,0,1,2.3-1.82,4.86,4.86,0,0,1,2.74-.49,2.09,2.09,0,0,1,1.09,1.68c-.16,2.05.62,4.32-1.17,6.09-.24.24-.11.81-.23,1.2a28.85,28.85,0,0,1-1.95,4.86C330.2,335.74,332.64,332.33,333.5,328.05Z"/><path d="M386.35,317.6c-.21,1.79.69,3.32-1,4.31-.09,0-.13.2-.16.31-.49,2.07-.92,4.15-1.51,6.19a17.2,17.2,0,0,1-1.44,3.26c-.94,1.74-2,3.42-2.95,5.09-.77-.71-.91-3.45-.25-4.52a25.78,25.78,0,0,0,2-3.85c.61-1.47.91-3.06,1.51-4.53.73-1.82,1.6-3.58,2.48-5.33C385.24,318.22,385.7,318.06,386.35,317.6Z"/><path d="M380.5,467.14c3.3,2.37,6.48,4.72,9.75,6.95.56.38,1.54.13,2.21.42s.92.85,1.37,1.29a5.54,5.54,0,0,1-1.44,1.08c-1.95.61-3.25-.84-4.72-1.68a26.1,26.1,0,0,0-3.92-2.18C381.22,472.13,379.5,469.14,380.5,467.14Z"/><path d="M338,425.7c-.52-2.14-1.19-4.26-1.52-6.42-.5-3.32-.77-6.68-1.12-10-.09-.86-.1-1.74,1.16-1.76s1.18.92,1.19,1.75c0,1.38,0,2.76.06,4.13.16,2.15-.07,4.25.88,6.44.71,1.65.14,3.87.14,5.84Z"/><path d="M327.47,381.5c-1.13.37-2,1-2.65-.24-.07-.13-.25-.32-.37-.31-2.28.06-3.16-2.1-4.81-3a11.89,11.89,0,0,1-3.1-2.65c-.41-.49-.26-1.45-.37-2.21a8,8,0,0,1,2.18.81c1.9,1.45,3.7,3,5.54,4.57C325,379.38,326.14,380.36,327.47,381.5Z"/><path d="M336.41,383.57c0,3,0,6.06,0,9.08,0,.32-.34.64-.53,1-.24-.33-.66-.66-.68-1-.16-2.68-.28-5.35-.29-8,0-.46.56-.93.85-1.39Z"/><path d="M389.05,481.37c-.11.4-.26,1-.53,2-2.11-1.42-4-2.66-5.8-3.94a.81.81,0,0,1-.2-.75c.18-.23.65-.52.84-.43,1.07.48,2.11,1,3.14,1.61C387.25,480.26,388,480.73,389.05,481.37Z"/><path d="M347.34,115.41c-1.45-2.21,0-3.56.73-5,.59-1.14,1.54-2.08,2.14-3.21s1-2.67,1.68-3.91c.89-1.61,2-3.09,3-4.65,1.15-1.82,2.3-3.64,3.39-5.49a42.25,42.25,0,0,0,1.92-3.8,9.52,9.52,0,0,0,.54-2.05c.45-2.17.82-4.36,1.34-6.52.1-.41.88-1,1.16-1a2.11,2.11,0,0,1,1.17,1.21,3.6,3.6,0,0,1-.11,1.77,23.73,23.73,0,0,0-.86,3.12A14.21,14.21,0,0,1,361,92.71c-1.07,1.6-1.75,3.46-2.75,5.11-1.54,2.58-3.22,5.08-4.81,7.63a28.25,28.25,0,0,0-1.43,2.66c-.94,1.9-1.77,3.86-2.79,5.71C348.84,114.46,348,114.84,347.34,115.41Z"/><path d="M335.92,133.67c.95,1.36.6,2.39-.29,3.5a41.78,41.78,0,0,0-3.09,4.39c-1.27,2.09-2.47,4.22-3.54,6.42-.69,1.44-1,3-1.63,4.53-.71,1.78-1.6,3.49-2.28,5.29-.58,1.54-.92,3.17-1.47,4.73a10.29,10.29,0,0,1-1.16,2.2c-.19.28-.62.38-.94.56-.16-.3-.43-.6-.44-.91-.06-1.48-.65-3.08.89-4.23a.94.94,0,0,0,.22-.46,44,44,0,0,1,1.53-5.48c1-2.33,2.3-4.51,3.4-6.8.64-1.33,1-2.79,1.7-4.09.89-1.66,1.94-3.23,3-4.81a33.11,33.11,0,0,1,2.2-3A20.1,20.1,0,0,1,335.92,133.67Z"/><path d="M423.72,200.44c-.05.77-.13,1.55-.14,2.33,0,2.74-1.09,5.17-2.22,7.58a3.82,3.82,0,0,0-.33,1.2,11.45,11.45,0,0,1-2.33,5.56,26.19,26.19,0,0,0-1.43,3c-.16.29-.64.4-1,.6a4.16,4.16,0,0,1-.57-1.16c-.41-2.46,1.18-4.31,2.07-6.37.09-.2.42-.32.47-.52.53-2,.7-4.07,1.6-5.82,1.41-2.76.94-5.62,1.24-8.46a12.65,12.65,0,0,1,1.27-3.4c.07-.16.64-.31.76-.2a1.6,1.6,0,0,1,.61,1c.06,1.55,0,3.1,0,4.66Z"/><path d="M405.53,157.92a19.1,19.1,0,0,1-.79,5.35,8.09,8.09,0,0,0,.42,7.21,1.54,1.54,0,0,1,.24.48c.52,2.12,1,4.25,1.55,6.38.06.27.08.68.27.79,1.83,1,.85,2.35.62,3.6l-.59.29c-.61-1-1.26-1.94-1.8-3a22.06,22.06,0,0,1-2-4.21,40.1,40.1,0,0,1-.67-5,20.38,20.38,0,0,0-.61-2.12,3.14,3.14,0,0,1-.21-1.18c.39-2.44.86-4.86,1.25-7.29C403.43,158.12,404.06,157.66,405.53,157.92Z"/><path d="M375.15,95.31c3.69-2.49,7.65-2.43,11.65-.68A17.32,17.32,0,0,1,391,97.44c.4.34.23,1.34.32,2a4.61,4.61,0,0,1-1.52-.24c-1.55-.87-3-1.85-4.56-2.74a2.5,2.5,0,0,0-1.19-.25c-1.91,0-3.82,0-5.73,0-1.05,0-2.09-.1-3.13-.15C375.16,95.8,375.16,95.55,375.15,95.31Z"/><path d="M379.07,168.22c-.76,1.72-1.5,3.42-2.25,5.1-.09.2-.36.34-.41.54-.54,2.26-1,4.54-1.59,6.8a30.64,30.64,0,0,1-1.58,4.77c-.14.33-1.23.25-1.88.36a10.77,10.77,0,0,1,0-2.2,24.06,24.06,0,0,1,.94-2.66q1.15-3.36,2.3-6.72c.09-.28.07-.59.18-.86.87-2.09,1.74-4.17,2.67-6.23.09-.2.78-.4.85-.31A7.79,7.79,0,0,1,379.07,168.22Z"/><path d="M416.72,198.73c.88-2,1.55-3.72,2.31-5.34a21.29,21.29,0,0,1,1.81-3.32c1.27-1.77,2.65-3.46,4.05-5.14.14-.17.71,0,1.08,0-.09.68.08,1.6-.31,2a15.39,15.39,0,0,0-3.54,5.93,35.62,35.62,0,0,1-2,3.6,5.23,5.23,0,0,0-.35,2.09c0,1-.19,2-1.43,1.67C417.73,200.12,417.29,199.3,416.72,198.73Z"/><path d="M379.82,162.75c-.47.86-.73,2-1.45,2.53a71.78,71.78,0,0,1-6.31,3.8c-.25.14-.73-.11-1.1-.17.18-.69.21-1.89.55-2,2.38-.65,3.86-2.67,5.95-3.7a8.88,8.88,0,0,1,2.41-.43Z"/><path d="M347,185.46a14.59,14.59,0,0,0-1.62.5c-1.69.76-3.35,1.61-5.08,2.28a5.6,5.6,0,0,1-2.21.1,1,1,0,0,1-.22-.74C338.85,185.39,344.34,183.9,347,185.46Z"/><path d="M287.8,119.06a6,6,0,0,1,0-2,25.91,25.91,0,0,1,1.92-3.88c.15-.26.86-.19,1.6-.33a17.73,17.73,0,0,1-.26,2,12.07,12.07,0,0,0-.83,2.58C290.22,119.11,289.49,119.47,287.8,119.06Z"/><path d="M303.13,125.75l2.43.14c-.08.37,0,.89-.26,1.09a15.74,15.74,0,0,1-1.87,1.21Z"/><path d="M307.09,120.84l-.6,2.37-1.93-2.11,2.07-.65Z"/><path d="M308.7,116.83l-1.23,1.22a5.16,5.16,0,0,1-.7-1.59c0-.36.46-.76.72-1.15Z"/></g></g></svg>