<svg xmlns="http://www.w3.org/2000/svg" viewBox="0 0 481.41 556.27"><defs><style>.cls-1{fill:#fff;}</style></defs><g id="Layer_2" data-name="Layer 2"><g id="Layer_1-2" data-name="Layer 1"><path class="cls-1" d="M453.45,256.71h-.2c0-6.11.9-12.4-.21-18.3a173.52,173.52,0,0,0-7.21-25c-1.8-5.14-4.64-9.93-7.21-14.78s-5.65-9.66-8.12-14.67a140.18,140.18,0,0,1-5.41-13.18c-2.13-5.67-4.28-11.36-6-17.15-1.27-4.2-1.46-8.75-2.95-12.85a256.84,256.84,0,0,0-10.31-25.19,25.86,25.86,0,0,0-8.58-10c-4.53-2.94-9.53-4.59-10.62-11-.38-2.27-1.47-5.9-5.68-4.58-.38.12-1.48-.66-1.49-1-.09-3.65-.73-7.49.15-10.92,2-7.61,3-15.45-.45-22.35a75.68,75.68,0,0,0-13.87-19.33c-3.44-3.49-9.15-4.88-14-6.81-7-2.8-14.26-1.63-20.32,2-6.6,4-11.67,9.55-13.84,17.82-2.49,9.44-1,18.29.63,27.46,1.09,6.34.78,12.9,1.5,19.31a30,30,0,0,0,2.62,8.66c.38.86,3,.68,3.46,1.58,1.65,3.09,2.58,6.57,4.25,9.65,1.58,2.92,3.79,5.49,5.62,8.28.65,1,1.65,2.35,1.4,3.22-1.81,6.28-4.42,12.37-5.78,18.73-2.23,10.47-3.41,21.17-5.68,31.64a22.06,22.06,0,0,1-5.52,10.57c-3.66,3.63-8.4,6.27-13,8.86-2.74,1.57-6,2.18-8.55-.83-1.77-2.08-3.16-4.61-5.26-6.26a84.41,84.41,0,0,0-11.9-7.9c-4-2.17-8.5-3.54-12.69-5.46-7.19-3.31-14.3-6.79-21.47-10.15-3.36-1.58-6.84-2.92-10.15-4.58-4.4-2.21-8.64-4.72-13-6.93-5.32-2.69-11.18-4.57-16-8-6-4.25-11.17-9.69-16.73-14.59-4.62-4.07-8.89-8.7-14-12-8-5.21-16.81-9.28-24.87-14.46-1.43-.92-1.71-5.16-1-7.41.89-2.93,4.06-5.19,4.81-8.11.94-3.67,0-7.8.69-11.58.44-2.39,1.8-5.28,3.69-6.6,3.41-2.38,4.88-5.43,3.57-8.85-2.24-5.84-5.49-11.29-8-17-1.58-3.53-.95-6.89,2.38-9.28,4.48-3.2,6-9.92,2.76-13.69-3.94-4.63-8.3-8.94-12-13.72-5.56-7.1-13.27-8.83-21.56-9.76C120.14-.64,114.13,1.82,108,5,97,10.55,92.72,20.47,89.55,31.3a70.35,70.35,0,0,0-2.16,8.9A86.54,86.54,0,0,0,86,53.4c0,2.46,1.9,4.89,2,7.38.46,9.7,5.87,16.89,11.14,24.41a17.45,17.45,0,0,1,2.72,10.57c-.19,2.7-3.14,5.15-4.64,7.83-2.4,4.28-4,9.14-7,12.9C84.19,124,77.5,131,71,138.15c-6.37,7-8,15.77-9.76,24.58-.8,4.12-1.29,8.42-2.85,12.26-3,7.47-6.74,14.67-10.15,22a55.75,55.75,0,0,0-5.16,27.69A28.19,28.19,0,0,0,51.38,243c7.14,7.36,14.48,14.52,21.73,21.78a43.43,43.43,0,0,1,4.7,5c.34.47-1,1.92-1,3-.17,3.15.06,6.33-.15,9.49a145.34,145.34,0,0,1-1.53,16c-.8,4.48-2.48,8.81-3.91,13.16s-3.8,8.49-4.31,12.89c-.43,3.66,1.89,7.57,1.85,11.35-.1,11,.19,22-1.52,32.78-1.43,9-5.14,17.66-8.47,26.23-2.57,6.62-6.07,12.89-9.2,19.3-2.87,5.84-6,11.59-8.66,17.5-2.78,6.07-5.24,12.29-7.84,18.45-3.39,8-6.94,16-10.1,24.17-2.89,7.43-5.13,15.12-8,22.55-3.51,9-7.5,17.86-11.1,26.86a18.82,18.82,0,0,0-.86,6c-.08,1.72.63,3.55.29,5.18-1,4.72-3,9.33-3.22,14.05-.1,2.43,2.32,6,4.58,7.18,2,1,5.41-.23,8-1.06,7.13-2.28,14.06-5.23,21.27-7.2,3.62-1,8.06.61,11.42-.73a57.24,57.24,0,0,0,14.27-8.62c3.82-3,2-8.5-2.49-10.22-1.46-.57-3.46-3.28-3.12-4.36a95.59,95.59,0,0,1,6.52-16.54c4.66-8.71,10-17,15-25.58,2.81-4.8,5.19-9.88,8.33-14.44,4.19-6.1,9-11.76,13.41-17.73,2.94-4,5.38-8.35,8.44-12.23,4.66-5.93,9.66-11.6,14.52-17.38,5.92-7.05,11.65-14.29,17.84-21.11a124.6,124.6,0,0,1,12.61-11.56c1.42-1.18,4.15-2.62,5.27-2,5.52,2.92,10.71,6.47,16,9.82,8.77,5.55,18,10.66,21.55,21.42,2.51,7.59,5.32,15.1,7.24,22.83a205.24,205.24,0,0,1,3.9,22.49q2.28,17.12,3.95,34.29c.48,4.94-.18,10,.47,14.9.38,2.83,2.15,5.56,3.66,8.11.78,1.32,3.23,2,3.41,3.25.51,3.37.21,6.86.25,10.3.09,8.37,5.57,14.45,13.87,13.49,6.58-.75,12.92-3.66,19.37-5.63,4.77-1.45,9.5-3.11,14.33-4.34,6.37-1.62,13.79-.12,18.51-6.41,2.83-3.76,7.07-7.23,8.06-11.44,1.77-7.59-1.74-10.26-10.82-10.35-.52,0-1.54-.9-1.48-1.07,2-5.58,4.48-11,6.19-16.69,2.79-9.29,5.31-18.68,7.56-28.11,1.34-5.58,1.94-11.33,2.89-17a56.48,56.48,0,0,1,1.37-7.6c1.91-6.13,3.83-12.27,6.24-18.21a100.6,100.6,0,0,1,6.92-13.61c2.94-4.93,6.41-9.55,9.54-14.38,4.25-6.56,7.6-13.92,12.83-19.56,4.4-4.76,10.87-7.64,16.56-11.13,1.39-.86,4.52-1.6,4.81-1.13,2.49,4,4.54,8.23,6.65,12.44,3.69,7.36,7.37,14.73,11,22.14q3.09,6.39,5.87,13c1.91,4.5,3.54,9.11,5.46,13.6,2.36,5.56,4.78,11.1,7.39,16.55,2.72,5.69,5.64,11.28,8.55,16.88,2.21,4.25,4.57,8.41,6.78,12.66,2.46,4.71,4.59,9.61,7.29,14.18,2.49,4.22,5.56,8.1,8.34,12.15,2.9,4.22,5.63,8.56,8.7,12.64a36.69,36.69,0,0,0,6.1,6.23c1,.84,2.73.86,4.14,1.21.37.1,1.1,0,1.12.1a4.93,4.93,0,0,1,.05,2.09c-.75,2.29-1.51,4.58-2.47,6.78-1.92,4.36-4.37,8.53-5.81,13-.84,2.62-1.1,6.23.08,8.51,1.59,3.07,4.86,3.51,8.52,1.82,4.81-2.22,10-3.64,15-5.46,1.45-.53,3.42-.86,4.15-2,4-6.07,7.78-12.35,11.62-18.56,4.7-7.57,8.66-15.36,7.44-24.73,0-.26.51-.55.65-.89.64-1.52,2.1-3.36,1.69-4.54-2.17-6.26-4.58-12.46-7.35-18.49a145,145,0,0,0-8.06-15.06c-3.91-6.42-8.6-12.38-12.23-18.93-5.08-9.18-9.55-18.7-14.18-28.13-3.92-8-8.17-15.89-11.41-24.17a185.91,185.91,0,0,1-7.65-25c-1.6-6.76-2-13.8-3-20.71a7.91,7.91,0,0,0-.36-1.35c-.69-2.22-2.35-4.56,1.84-5.39,1.08-.21,2.2-2.25,2.55-3.64.58-2.3.19-4.85.86-7.11,1.2-4.05,2.87-8,4.4-11.9.1-.26.77-.49,1.13-.43,2.53.38,5.08,1.33,7.58,1.2,9-.46,13.68-4.44,15.17-13.44,1.33-8,2.1-16.16,2.72-24.27C453.77,267.17,453.45,261.93,453.45,256.71Z"/><path d="M453.45,256.71c0,5.22.32,10.46-.07,15.65-.62,8.11-1.39,16.25-2.72,24.27-1.49,9-6.17,13-15.17,13.44-2.5.13-5.05-.82-7.58-1.2-.36-.06-1,.17-1.13.43-1.53,3.94-3.2,7.85-4.4,11.9-.67,2.26-.28,4.81-.86,7.11-.35,1.39-1.47,3.43-2.55,3.64-4.19.83-2.53,3.17-1.84,5.39a7.91,7.91,0,0,1,.36,1.35c1,6.91,1.37,13.95,3,20.71a185.91,185.91,0,0,0,7.65,25c3.24,8.28,7.49,16.17,11.41,24.17,4.63,9.43,9.1,18.95,14.18,28.13,3.63,6.55,8.32,12.51,12.23,18.93A145,145,0,0,1,474,470.69c2.77,6,5.18,12.23,7.35,18.49.41,1.18-1,3-1.69,4.54-.14.34-.68.63-.65.89,1.22,9.37-2.74,17.16-7.44,24.73-3.84,6.21-7.58,12.49-11.62,18.56-.73,1.09-2.7,1.42-4.15,2-5,1.82-10.18,3.24-15,5.46-3.66,1.69-6.93,1.25-8.52-1.82-1.18-2.28-.92-5.89-.08-8.51,1.44-4.5,3.89-8.67,5.81-13,1-2.2,1.72-4.49,2.47-6.78a4.93,4.93,0,0,0-.05-2.09c0-.08-.75,0-1.12-.1-1.41-.35-3.12-.37-4.14-1.21a36.69,36.69,0,0,1-6.1-6.23c-3.07-4.08-5.8-8.42-8.7-12.64-2.78-4-5.85-7.93-8.34-12.15-2.7-4.57-4.83-9.47-7.29-14.18-2.21-4.25-4.57-8.41-6.78-12.66-2.91-5.6-5.83-11.19-8.55-16.88-2.61-5.45-5-11-7.39-16.55-1.92-4.49-3.55-9.1-5.46-13.6s-3.81-8.7-5.87-13c-3.59-7.41-7.27-14.78-11-22.14-2.11-4.21-4.16-8.46-6.65-12.44-.29-.47-3.42.27-4.81,1.13-5.69,3.49-12.16,6.37-16.56,11.13-5.23,5.64-8.58,13-12.83,19.56-3.13,4.83-6.6,9.45-9.54,14.38a100.6,100.6,0,0,0-6.92,13.61c-2.41,5.94-4.33,12.08-6.24,18.21a56.48,56.48,0,0,0-1.37,7.6c-.95,5.66-1.55,11.41-2.89,17-2.25,9.43-4.77,18.82-7.56,28.11-1.71,5.67-4.17,11.11-6.19,16.69-.06.17,1,1.06,1.48,1.07,9.08.09,12.59,2.76,10.82,10.35-1,4.21-5.23,7.68-8.06,11.44-4.72,6.29-12.14,4.79-18.51,6.41-4.83,1.23-9.56,2.89-14.33,4.34-6.45,2-12.79,4.88-19.37,5.63-8.3,1-13.78-5.12-13.87-13.49,0-3.44.26-6.93-.25-10.3-.18-1.22-2.63-1.93-3.41-3.25-1.51-2.55-3.28-5.28-3.66-8.11-.65-4.9,0-10-.47-14.9q-1.66-17.18-3.95-34.29a205.24,205.24,0,0,0-3.9-22.49c-1.92-7.73-4.73-15.24-7.24-22.83-3.56-10.76-12.78-15.87-21.55-21.42-5.29-3.35-10.48-6.9-16-9.82-1.12-.59-3.85.85-5.27,2A124.6,124.6,0,0,0,138,398.68c-6.19,6.82-11.92,14.06-17.84,21.11-4.86,5.78-9.86,11.45-14.52,17.38-3.06,3.88-5.5,8.24-8.44,12.23-4.39,6-9.22,11.63-13.41,17.73-3.14,4.56-5.52,9.64-8.33,14.44-5,8.53-10.36,16.87-15,25.58a95.59,95.59,0,0,0-6.52,16.54c-.34,1.08,1.66,3.79,3.12,4.36,4.47,1.72,6.31,7.18,2.49,10.22a57.24,57.24,0,0,1-14.27,8.62c-3.36,1.34-7.8-.25-11.42.73-7.21,2-14.14,4.92-21.27,7.2-2.6.83-6,2.09-8,1.06C2.32,554.69-.1,551.13,0,548.7c.19-4.72,2.24-9.33,3.22-14.05.34-1.63-.37-3.46-.29-5.18a18.82,18.82,0,0,1,.86-6c3.6-9,7.59-17.84,11.1-26.86,2.9-7.43,5.14-15.12,8-22.55,3.16-8.14,6.71-16.12,10.1-24.17,2.6-6.16,5.06-12.38,7.84-18.45,2.71-5.91,5.79-11.66,8.66-17.5,3.13-6.41,6.63-12.68,9.2-19.3,3.33-8.57,7-17.26,8.47-26.23,1.71-10.74,1.42-21.83,1.52-32.78,0-3.78-2.28-7.69-1.85-11.35.51-4.4,2.88-8.57,4.31-12.89s3.11-8.68,3.91-13.16a145.34,145.34,0,0,0,1.53-16c.21-3.16,0-6.34.15-9.49,0-1,1.39-2.48,1-3a43.43,43.43,0,0,0-4.7-5c-7.25-7.26-14.59-14.42-21.73-21.78a28.19,28.19,0,0,1-8.31-18.31A55.75,55.75,0,0,1,48.23,197c3.41-7.33,7.11-14.53,10.15-22,1.56-3.84,2-8.14,2.85-12.26,1.73-8.81,3.39-17.6,9.76-24.58C77.5,131,84.19,124,90.22,116.49c3-3.76,4.64-8.62,7-12.9,1.5-2.68,4.45-5.13,4.64-7.83a17.45,17.45,0,0,0-2.72-10.57C93.91,77.67,88.5,70.48,88,60.78c-.13-2.49-2-4.92-2-7.38a86.54,86.54,0,0,1,1.38-13.2,70.35,70.35,0,0,1,2.16-8.9C92.72,20.47,97,10.55,108,5c6.18-3.14,12.19-5.6,19.29-4.81,8.29.93,16,2.66,21.56,9.76,3.74,4.78,8.1,9.09,12,13.72,3.21,3.77,1.72,10.49-2.76,13.69-3.33,2.39-4,5.75-2.38,9.28,2.55,5.73,5.8,11.18,8,17,1.31,3.42-.16,6.47-3.57,8.85-1.89,1.32-3.25,4.21-3.69,6.6-.68,3.78.25,7.91-.69,11.58-.75,2.92-3.92,5.18-4.81,8.11-.68,2.25-.4,6.49,1,7.41,8.06,5.18,16.84,9.25,24.87,14.46,5.12,3.32,9.39,8,14,12,5.56,4.9,10.72,10.34,16.73,14.59,4.8,3.39,10.66,5.27,16,8,4.39,2.21,8.63,4.72,13,6.93,3.31,1.66,6.79,3,10.15,4.58,7.17,3.36,14.28,6.84,21.47,10.15,4.19,1.92,8.65,3.29,12.69,5.46a84.41,84.41,0,0,1,11.9,7.9c2.1,1.65,3.49,4.18,5.26,6.26,2.55,3,5.81,2.4,8.55.83,4.55-2.59,9.29-5.23,13-8.86a22.06,22.06,0,0,0,5.52-10.57c2.27-10.47,3.45-21.17,5.68-31.64,1.36-6.36,4-12.45,5.78-18.73.25-.87-.75-2.23-1.4-3.22-1.83-2.79-4-5.36-5.62-8.28-1.67-3.08-2.6-6.56-4.25-9.65-.48-.9-3.08-.72-3.46-1.58a30,30,0,0,1-2.62-8.66c-.72-6.41-.41-13-1.5-19.31-1.59-9.17-3.12-18-.63-27.46,2.17-8.27,7.24-13.85,13.84-17.82,6.06-3.65,13.29-4.82,20.32-2,4.84,1.93,10.55,3.32,14,6.81a75.68,75.68,0,0,1,13.87,19.33c3.41,6.9,2.41,14.74.45,22.35-.88,3.43-.24,7.27-.15,10.92,0,.38,1.11,1.16,1.49,1,4.21-1.32,5.3,2.31,5.68,4.58,1.09,6.41,6.09,8.06,10.62,11a25.86,25.86,0,0,1,8.58,10,256.84,256.84,0,0,1,10.31,25.19c1.49,4.1,1.68,8.65,2.95,12.85,1.76,5.79,3.91,11.48,6,17.15a140.18,140.18,0,0,0,5.41,13.18c2.47,5,5.51,9.73,8.12,14.67s5.41,9.64,7.21,14.78a173.52,173.52,0,0,1,7.21,25c1.11,5.9.21,12.19.21,18.3ZM79.7,247.45l-.31.05c0,2.76-.43,5.6.1,8.25.67,3.32,1.18,7.92,3.44,9.43a74.29,74.29,0,0,0,17.63,8.11,172.18,172.18,0,0,0,20.13,4.9c2.91.59,6,.26,9,.56,10.09,1,20.17,2.31,30.28,3.17,2.95.26,6-.63,9-.81a14.08,14.08,0,0,1,3.58.58c1.81.37,3.63.78,5.43,1.22.28.07.49.45.77.57.07,0,.44-.36.49-.6,1.26-6.17,2.75-12.31,3.66-18.53.85-5.8,1-11.71,1.62-17.55a50.41,50.41,0,0,1,1.4-6.35q3.19-13.29,6.4-26.57c.27-1.1,1.06-2.69.61-3.26-4-5.1-8.3-10-12.39-15-.59-.72-.54-2-.78-2.94,1,.72,2.54,1.2,3,2.19,5.86,11.91,17,17.54,28,23,5.46,2.74,11.82,4,17.92,5.09,7.53,1.35,15.25,1.59,22.82,2.76a133.89,133.89,0,0,1,17.94,4c3.37,1,6.1,2.45,7.42-2.33.29-1.06,1.28-1.9,1.78-2.93,1.94-4.07,3.93-8.13,5.69-12.28A117.88,117.88,0,0,0,288.91,200c.85-2.79,2.33-7.35,1.11-8.45-3.7-3.34-8.51-5.48-13-7.89s-9.34-4.88-14.13-7.05c-6.58-3-13.31-5.63-19.91-8.56-5-2.24-10-4.62-15-7.08-4.44-2.21-8.88-4.45-13.16-7-5.13-3-10.51-5.78-15-9.55-5.79-4.8-10.56-10.82-16.29-15.71a106,106,0,0,0-15.69-10.93A183.67,183.67,0,0,0,148.19,108c-4.32-1.87-9.07-2.72-13.63-4-5.72-1.66-11.36-3.76-17.19-4.86-4.18-.78-8.62-.35-12.92-.16a4.51,4.51,0,0,0-3.29,1.91c-2.46,4.62-3.91,9.94-7,14-5.67,7.44-12.33,14.12-18.43,21.24-2.81,3.29-6.16,6.53-7.66,10.4-2.45,6.31-3.18,13.26-5.36,19.7-3.21,9.44-7.43,18.54-10.53,28-2.91,8.84-6.11,17.87-7,27-.71,7.66,3.11,14.76,9.29,20.41,6.64,6.06,12.48,13,18.77,19.47,1.18,1.22,2.87,1.95,4.32,2.9a35.21,35.21,0,0,0,.21-4.91c-.16-2-1-3.92-1-5.87-.12-10.26-.25-20.52,0-30.76.08-3.19,1.64-6.32,2.09-9.53.61-4.34,4-9-.86-13-2.51-2-3.94-4.22-1.45-7.27.24-.28,0-1-.08-1.49-.49.21-1,.4-1.47.65a11.74,11.74,0,0,1-2.41,1.29,6.82,6.82,0,0,1-2.33-.28c1-1.06,2-2.21,3.07-3.18,2-1.71,4.05-3.3,6.07-4.95,1-.82,2-1.67,2.93-2.51.29,1.06.57,2.13.87,3.19a2.93,2.93,0,0,0,.33.56c.22-.14.54-.23.64-.43,3.09-5.88,6.13-11.79,9.27-17.64.29-.55,1.14-.81,1.73-1.2.16.57.61,1.3.41,1.68-1.78,3.38-4,6.59-5.48,10.08A109.76,109.76,0,0,0,84.37,194c-1.08,4.06-.88,8.45-1.42,12.68-.27,2-1.09,4-1.39,6-1.17,7.9-2.53,15.79-3.2,23.74C78.06,240.07,79.21,243.78,79.7,247.45Zm179.09,164c.65-12.54.31-25.06-5-36.8-2.52-5.54-3.81-11.81-7.12-16.77A106.79,106.79,0,0,0,231.17,340a148.78,148.78,0,0,0-19.32-15.12A21.81,21.81,0,0,0,200.44,321c-3.45,0-7,2.26-10.32,4-4.67,2.44-7-.51-8.15-3.87-1.86-5.6-2.75-11.52-4.17-17.28-.21-.83-1.12-1.48-1.7-2.21-.25.77-.78,1.57-.68,2.29.33,2.33.9,4.62,1.35,6.93.79,4,1.6,8,2.31,12,.45,2.58,2.15,5.66-2.2,6.68a49.12,49.12,0,0,1-5.47,1.12c-8.56,1-17.12,2.36-25.72,2.67-6.83.25-14.1.37-20.49-1.63a81.49,81.49,0,0,0-23.3-3.59,52.19,52.19,0,0,1-9.21-1.51c-5.1-1.05-10.15-2.45-15.3-3.19-1.37-.2-4.11,1.21-4.33,2.27a110.08,110.08,0,0,0-1.41,13.12c-.93,11.21-1.76,22.44-2.76,33.65a32.16,32.16,0,0,1-1.57,7.73c-1.84,5.26-3.78,10.52-6.1,15.59-2.5,5.45-5.44,10.71-8.26,16-1.83,3.44-4.07,6.7-5.62,10.26-2.48,5.71-4.36,11.68-6.84,17.4-2.71,6.22-6,12.19-8.7,18.42-2.08,4.84-3.5,9.94-5.39,14.86s-4.14,9.87-6.05,14.86-3.39,10-5.35,15c-2.76,6.94-5.89,13.74-8.62,20.7-.41,1,.18,3.53.83,3.75,3.48,1.16,7.37,1.28,10.67,2.74A204.08,204.08,0,0,1,37,539.53c4.58,2.63,8.45,1.81,10.31-3.15,1.58-4.21,2.72-8.59,4.26-12.83,1.87-5.15,3.9-10.25,6-15.32a70.64,70.64,0,0,1,4.25-9.32c3.11-5.29,6.64-10.33,9.85-15.57,2.51-4.09,4.57-8.46,7.23-12.45,4.26-6.39,8.87-12.55,13.3-18.84,4.06-5.76,7.83-11.74,12.18-17.27,5-6.35,10.57-12.25,15.74-18.46,5-6.05,9.59-12.52,14.89-18.31,4.11-4.49,9.1-8.17,13.59-12.31a11.22,11.22,0,0,0,2.14-3.22c-3-2.32-6.14-4.35-9.14-6.62-5.8-4.36-11.55-8.79-17.19-13.35-.75-.6-.76-2.13-1.11-3.22a25.29,25.29,0,0,1,3.49,1.86c1.13.85,1.93,2.16,3.1,3,8.61,5.85,17.21,11.73,26,17.36,6,3.85,12.38,7.05,18.26,11,6.49,4.37,13.49,8.51,18.61,14.23,4.13,4.61,8.16,3.68,12.73,3.56,1.42,0,2.84-.16,4.26-.24-.79.77-1.49,2-2.4,2.21a68.35,68.35,0,0,1-7.85.93c-1.15.1-2.31,0-3.47,0,.29.88.55,1.78.88,2.65.51,1.34,1.46,2.65,1.51,4,.24,6.39,5.25,6,9.41,6.88a9.14,9.14,0,0,0,2.21-.06c-.54.92-1,2.52-1.64,2.64a16,16,0,0,1-4.68-.44c-.72-.1-1.42-.29-2.13-.44a5.13,5.13,0,0,0-.25,1.65c.71,3.58,1.6,7.13,2.23,10.72,1.33,7.67,2.66,15.35,3.77,23,1,7,2,14,2.55,21.07.71,8.66,1.23,17.34,1.44,26,.1,4.32,2.93,6.05,6,5.56a91.12,91.12,0,0,0,17.09-4.76c7.24-2.69,14.19-6.15,21.37-9,4.91-2,6.32-5.12,5.67-10.29a281.46,281.46,0,0,1-2.43-28.53C258.52,446.43,258.79,428.93,258.79,411.44Zm2.5,35.83-.53,0c.67,13.58,1.08,27.18,2.13,40.73.4,5.24.43,11.2,6.56,14,2.22,1,4.3,2.74,6.59,3,.81.1,2.41-3,3-4.8,2-6.05,3.86-12.15,5.43-18.31,2.27-8.89,4.27-17.84,6.32-26.77.62-2.75.88-5.59,1.55-8.33,1.92-7.84,3.74-15.72,6.06-23.45a68.51,68.51,0,0,1,5.7-13.9c3.76-6.69,8.22-13,12.36-19.47,5.1-8,10.09-16.08,15.34-24a14.1,14.1,0,0,1,4.92-4.16c1-.57,2.84.39,3.93-.12a43.4,43.4,0,0,0,7.06-4.33,12.93,12.93,0,0,0,2.62-3.29c.22-.32.06-.89.08-1.35.61.22,1.54.25,1.79.67,3.4,5.79,6.72,11.63,10,17.47,2.23,3.92,4.63,7.77,6.54,11.84,2.47,5.24,4.5,10.7,6.79,16,2.86,6.62,5.79,13.21,8.69,19.81,3.1,7.06,6,14.23,9.34,21.16,3.46,7.12,7.36,14,11.15,21C409,468.59,413,476.48,417.7,484c4.88,7.88,10.25,15.49,15.75,23,1.12,1.53,4.71,3.25,5.59,2.63,5.22-3.64,9.44-9,15-11.75,6.26-3,13.63-3.71,20.45-5.65,1.57-.44,4.23-2.31,4.09-2.7a147,147,0,0,0-7.24-17.77c-3.76-7.32-8.18-14.31-12.36-21.41-3.09-5.23-6.45-10.3-9.31-15.64-2.13-4-3.44-8.42-5.51-12.45-3.06-6-6.73-11.68-9.65-17.73a233.62,233.62,0,0,1-9.38-21.77,239.3,239.3,0,0,1-8.56-27.44c-1.49-6.41-1.18-13.23-1.82-19.85,0-.47-1.62-1.35-2-1.14-6,3.12-12,.12-13.22-6.39a105.94,105.94,0,0,0-3-10.93c-1.1-3.76-2.65-7.42-3.34-11.25-.53-3,0-6.2,0-9.3a1.9,1.9,0,0,0-1.08-1.27c-.27-.12-1.07.35-1.22.73-1.43,3.47-2.94,6.92-4.09,10.49-2.21,6.88-4.77,13.72-6.13,20.79-1.17,6-4.35,9.21-10,10.13-4,.66-8.21.53-12.27,1.08-5.34.72-10.6,2.16-15.94,2.55-4.05.29-8.18-.66-12.28-.93-6.81-.46-13.71-.29-20.41-1.38-5.75-.93-11.25-3.28-16.89-4.94-1.09-.32-3-.83-3.31-.39-3,4.31-5.91,8.71-8.56,13.25q-4.28,7.29-8,14.85c-2.19,4.37-4.27,8.81-6,13.36-2.11,5.44-5.08,10.94-5.48,16.57-.83,11.52-.17,23.15-.15,34.74C261.3,433.12,261.29,440.2,261.29,447.27Zm189.54-202.9,1.61-.39c-2.61-9.21-4.8-18.57-8-27.58-2.4-6.8-6-13.17-9.17-19.7-4.2-8.69-9-17.12-12.55-26.07-3.3-8.38-5.27-17.29-7.83-26-.93-3.16-1.62-6.41-2.83-9.46-2.27-5.68-4.39-11.5-7.43-16.77-2.29-4-5.36-8-9.11-10.49-4.48-2.93-8.95-5.06-10.44-10.88-.39-1.53-.42-6.81-4.05-4-4.65,3.55-8.35,8.45-12.08,13.08-5.19,6.42-10.25,13-15,19.76-4.33,6.24-8.66,12.59-12,19.4-2.61,5.38-3.74,11.51-5.38,17.35-2.14,7.59-4.14,15.23-6.2,22.85-1.13,4.2-2.46,8.36-3.32,12.62-.37,1.86-.21,5.46.43,5.64,4.08,1.13,5.87,3.67,5.5,7.55-.71,7.23-1.59,14.45-2.82,21.61-.23,1.28-2.52,2.21-3.87,3.28-.73.58-2.08,1.05-2.15,1.68-1,8.76-1.85,17.54-2.66,26.32,0,.44.58,1.35.91,1.36,10.94.39,21.89,1,32.83.9a101.59,101.59,0,0,0,17.49-2.16c10.88-2,21.71-4.31,32.53-6.65,1.14-.25,3-1.7,2.91-2.3a36.92,36.92,0,0,0-2.56-9c-2.69-5.92-5.64-11.72-8.71-17.45-2.63-4.94-5.64-9.67-8.34-14.57a122.52,122.52,0,0,1-6.85-13.4,109.42,109.42,0,0,1-4.07-14.13c-1.74-7.06-3.17-14.21-5-21.26-1-4-2.56-7.89-3.73-11.86a9,9,0,0,1,.12-2.91c.49.46,1,.95,1.47,1.38s1,.74,1.55,1.11l.5-.91.82-1.5a8.13,8.13,0,0,1,.56,1.8c.5,5.43.48,11,1.54,16.27,1.68,8.39,3.88,16.7,6.25,24.93a76.1,76.1,0,0,0,5.35,13.6c3,5.85,6.8,11.3,10,17.08,2.86,5.24,5.17,10.78,8,16,4.19,7.69,6.9,15.91,7.05,24.56.12,7.19-1.31,14.41-2,21.62,0,.55.58,1.61,1,1.67,6.54,1,13.13,1.61,19.63,2.8,3.87.7,7.55,2.33,11.38,3.32a25.32,25.32,0,0,0,5.8.71c1.13-5.82,2.43-11.7,2.64-17.6C451.11,266.56,450.83,255.46,450.83,244.37ZM242.5,232.86c2.6-6.57-2-6.37-4.79-6.85-6.92-1.2-14.12-1.17-20.87-2.92-5.46-1.41-10.48-4.59-15.6-7.18a47.23,47.23,0,0,1-5.49-3.81c-.38,2.24-.7,4.49-1.17,6.72-.21,1-.81,1.91-1.07,2.91-2.15,8.23-4.72,16.39-6.29,24.74-2.19,11.68-3.66,23.5-5.34,35.27a14.18,14.18,0,0,0,.06,6c.38,1.19,2.18,2,3.49,2.79,6.49,3.71,12.76,8,19.63,10.79,6.24,2.54,7.69,4.59,5.42,11.1-.83,2.37-1.13,6.58.24,7.79,5.86,5.21,13.09,9,18.61,14.48,7.46,7.44,14.67,15.45,20.34,24.27,4.39,6.82,6.22,15.28,9.23,23a15.4,15.4,0,0,0,1.59,2.49c.2-.17.51-.29.6-.5.88-2.17,1.63-4.4,2.59-6.53,3.9-8.63,8-17.15,11.73-25.86,3.54-8.34,10.65-14.62,12-24.44.78-5.47,5.76-10.35,8.83-15.51a14.58,14.58,0,0,0,.82-2,4.81,4.81,0,0,0-1.76-.38c-2.73.5-3.4-.52-3.57-3.27-.23-3.62-1.66-7.16-2-10.78-.23-2.48-.4-6.39,1-7.36,6.49-4.5,13.68-8,20.33-12.3,3-1.92,6.49-4.47,7.53-7.51,1.56-4.53,1.18-9.74,1.53-14.67a2.44,2.44,0,0,0-1-1.41c-1.75.81-3.46,1.73-5.16,2.66-6.71,3.71-13.46,7.35-20.1,11.17-6.16,3.55-11.66-1.17-13.77-6.75-1-2.62-2.59-7.22-3.8-7.19-5.49.18-11.36.76-16.3,3-4.48,2-8.56,4.93-12.87,1.45-2.15-1.73-3.4-5.33-3.84-8.26C242.58,242.68,242.71,237.2,242.5,232.86ZM410.44,279.8a32.7,32.7,0,0,0-1.3-3.54c-4.69,1.1-9.3,2.58-14,3.58-8.39,1.8-16.82,3.39-25.26,4.91a42.83,42.83,0,0,1-6.81.27c-8,.1-15.95.53-23.89.11-3.69-.19-7.95,1.84-7.32,5a12.35,12.35,0,0,0,1.2,3c1.63,3.25,3.4,6.43,4.91,9.73,1.07,2.34,2.93,5.12,2.42,7.2-.88,3.59-3.24,6.85-5.16,10.14-1.67,2.85-3.17,8.55-6.92,1.68-3.9-7.12-6.93-14.74-11.16-21.64-.41-.66,3.11-9.85-4.15-3.92-.47.38-.84.9-1.32,1.29-3.08,2.53-6.88,4.53-9.11,7.66-3.84,5.4-6.79,11.45-9.94,17.32-1.1,2.05-2.58,6.18-2.35,6.3,5.27,2.64,10.57,6,16.24,6.91,8.58,1.42,17.45,1.12,26.2,1.56a23.09,23.09,0,0,0,2.31.28c4-.17,8.06-.25,12.05-.67,4.89-.51,9.74-1.44,14.63-2,3.23-.33,6.65.33,9.7-.5,2.36-.64,5.37-2.48,6.16-4.53,1.95-5,2.4-10.64,4.16-15.78,2.75-8,6-15.9,9.26-23.78.35-.84,1.81-1.23,2.76-1.84a17.47,17.47,0,0,1,.78,2.59c.17,1.24-.23,2.73.32,3.71s2.74,2.46,3,2.28c2.81-2.46,5.79-4.9,7.95-7.91S409,282.73,410.44,279.8ZM146,331.07c8.06-.89,17.45-1.82,26.8-3.08,1.43-.19,3.85-2.06,3.77-3a142.45,142.45,0,0,0-2.89-18.62c-.26-1.1.67-4.18-3.74-4.12-11.7.13-23.44-1-35.1-2.16-6.08-.61-12.07-2.24-18-3.68-8.62-2.08-17.19-4.38-25.77-6.66-2.46-.65-4.83-1.65-7.3-2.29-1.42-.37-4.18-.65-4.23-.44-1.52,6-2.55,12.14-4.13,18.13-1,4-2.82,7.73-4.22,11.6-.57,1.56-1,3.18-1.51,4.77,1.74,0,3.49.14,5.21,0,1.11-.09,2.27-1,3.28-.8,5.85,1.07,11.62,2.66,17.5,3.51,10.59,1.53,21.35,1.21,31.73,5C132.59,331.24,138.83,330.5,146,331.07ZM317.8,62a16.58,16.58,0,0,0,.07,4.29c.56,2,1.33,5.32,2.48,5.53,7.06,1.3,14.31,1.52,21.36,2.83,4.43.83,7.42,4,8,8.83a5,5,0,0,0,.48,1.18c.33-.2.92-.35,1-.6.37-2.2.25-4.59,1.06-6.59a12.15,12.15,0,0,1,4.06-5.39c.78-.51,4.26,1,4.46,2,.54,2.71,0,5.64-.16,8.48a56.52,56.52,0,0,0-.36,6.86c0,.43,2.14,1.24,3.07,1,4.39-1.09,8.63-2.17,12.22,1.88.27.31,1.2.26,1.7.07a1.55,1.55,0,0,0,.54-1.29c-.28-2.13-1.11-4.29-.93-6.37.49-5.76,1.58-11.47,2.07-17.23.83-9.72-4.76-16.67-10.21-23.92-5.21-6.94-12.31-10.57-20.1-12.3-7.28-1.61-14.23.71-20.51,5.44C319.45,43.28,318.54,52.53,317.8,62Zm23,69.71c0,2.87,0,4.73,0,6.59a6.28,6.28,0,0,0,.43,1.45,7,7,0,0,0,.85-1,82.33,82.33,0,0,1,4.67-7.66c4.2-5.5,8.71-10.78,13-16.24s8.38-10.86,12.39-16.42c.89-1.23,1.07-3,1.58-4.47-3.17-.44-6.54-1.77-9.47-1.11-3.42.77-7.12-.62-6.78-4.33.32-3.37,1.78-6.63,2.21-10,.16-1.24-1.18-2.67-1.83-4-1.14.7-3,1.21-3.29,2.15-.68,2.61-.39,5.47-1.07,8.08a4.56,4.56,0,0,1-3.15,2.58c-.86.15-2.86-1.28-2.9-2.08-.35-7.68-6.39-8.31-11.71-9.48a55.93,55.93,0,0,0-11-1c-1.7,0-4.73-1.61-3.67,3.11s.35,10.11.82,15.15c.33,3.55-4,9.38,4.22,9.72.65,0,1.55,2,1.75,3.22.46,2.72.33,5.64,4.24,5.78.23,0,.71.8.62.94-2.76,4.4.39,7.05,3.42,8.53,1.79.87,5-.12,7.12-1.19,2.82-1.43,5.16-3.8,7.78-5.66a3.25,3.25,0,0,1,1.89-.23c.19,0,.55.71.5.76a43.72,43.72,0,0,1-3.26,3.13C345.45,122,338.37,124.31,340.79,131.74ZM217.42,525.44a66.69,66.69,0,0,1,1.31,7.08c.62,8.08,4.12,9.75,10.56,9.6,5.8-.13,11.55-2.58,17.32-4.06,1.88-.48,3.76-1,5.59-1.66,3.55-1.28,7-3.67,10.6-3.84,8.76-.41,16.64-1.84,22.35-9.38,2.59-3.42,5.05-6.95,1.57-10.62-1.26-1.34-4.68-.56-7.09-.88-5.6-.75-11.27-1.23-16.76-2.5-3.5-.81-6.44-4.67-10.52-1.35a17.45,17.45,0,0,1-4.17,2.49q-5.81,2.44-11.72,4.58c-4.34,1.57-8.67,3.87-13.12,4.2C218.6,519.46,216.49,520.44,217.42,525.44ZM289,265.15c4-1.64,6.74-2.4,9.09-3.81,4.4-2.63,8.25-6.45,12.91-8.32,7.06-2.84,11.38-7.07,11.54-14.82a5.55,5.55,0,0,0-1.65-3.47,50.27,50.27,0,0,0-7-6.29,119.2,119.2,0,0,0-12.56-7.77,40.74,40.74,0,0,0-9.32-3.32c-2.49-.59-5.35-4-7.68.36-1.94,3.62-3.81,7.28-5.87,10.82s-5.61,6.17-3,11.37c2.72,5.37,3.77,11.58,6.4,17C283.47,260.12,286.69,262.52,289,265.15ZM477.79,502c-1.08-4-.48-8.16-6-6.68a157.77,157.77,0,0,0-19.93,6.62c-3.2,1.35-6.88,3.78-8.28,6.7-2.28,4.77-2.59,10.44-4.26,15.55-1.5,4.56-3.89,8.81-5.5,13.34a5.16,5.16,0,0,0,.82,4.5,5.34,5.34,0,0,0,4.59.88,148.75,148.75,0,0,0,14-5.68c2.75-1.26,6-2.43,7.77-4.64,3.21-4,5.66-8.7,8.11-13.26C472.2,513.59,474.93,507.73,477.79,502ZM151.9,45.87l1.64-.77-.64-2.45c-.72.43-1.67.69-2.13,1.31a39.43,39.43,0,0,0-4.69,6.95A17.83,17.83,0,0,0,145,57.23c-.27,4.1.1,8.31-.71,12.29-.24,1.17-3.58,1.7-5.5,2.52q-.71-2.31-1.42-4.62c-.54-1.74-1.07-3.49-1.7-5.2a1.65,1.65,0,0,0-1.18,0c-.79,1.87-2.08,3.77-2.09,5.67,0,6.13,1,12.33.46,18.39-.25,2.63-3.29,5.17-5.44,7.39-1.08,1.11-3,1.4-4.55,2.07A33.37,33.37,0,0,0,127.31,98c6.12,2,12.27,4,18.48,5.77.38.11,1.33-1.8,2-2.77-1.25-.62-2.48-1.29-3.76-1.86-1.07-.47-2.19-.83-3.29-1.23,1.19-.52,2.36-1.44,3.57-1.48,7.32-.22,9.56-3.36,8.9-10.22-.4-4.17,1.11-8.57,2.1-12.78.27-1.16,1.64-2.23,2.75-3,4.14-2.79,4.18-5.79,1.53-9.75C156.52,56.11,154.42,50.85,151.9,45.87ZM325.59,234.19c1.05-.84,2.12-1.26,2.25-1.88.94-4.62,1.69-9.29,2.53-13.95.34-1.9,1.27-3.87,1-5.66a14.72,14.72,0,0,0-2.66-5.65c-.36-.52-1.91-.4-2.88-.29-1.78.21-3.61,1.08-5.3.85a46.12,46.12,0,0,1-9.41-2.34c-4.69-1.74-9.15-4.09-13.87-5.73-1.86-.64-4.32-5-6.19,0-1.12,3-1.88,6.08-2.74,9.14-.39,1.38-1.05,4-.87,4,4.33,1.55,8.86,2.57,13.13,4.25,4.47,1.76,8.65,4.21,13.05,6.17,1.6.71,3.71,1.62,5.1,1.11,1.65-.6,2.75-2.66,4.14-4a26.67,26.67,0,0,1,2.17-1.78c-.28,2.19-.49,4.4-.89,6.57-.07.36-1,.5-1.43.86-1.29,1.06-2.53,2.18-3.79,3.28Zm87.62,56.54c-4.61,2.91-10.45,6.33-15.92,10.25-1.35,1-1.53,3.59-2.24,5.45,1.28-1.16,2.59-2.29,3.85-3.49.77-.73,1.46-1.55,2.18-2.33.4.53,1.24,1.23,1.12,1.55a11.35,11.35,0,0,1-1.86,3c-2.48,3-4.91,6.07-.72,9.33,2.33,1.81,5,3.84,7.8,4.23,4.22.6,9.88,1.44,12.63-.73,3.09-2.42,3.67-8.08,5.24-12.37.87-2.35,1.62-4.76,2.3-7.18a33.18,33.18,0,0,0,.9-4.54C424,292.83,419.52,292,413.21,290.73ZM7.22,553.3c2.41-.89,4.67-1.75,6.94-2.55,6.65-2.33,13.3-4.66,20-6.9a22.07,22.07,0,0,1,3.85-.6,28.56,28.56,0,0,0-2.39-1.61c-4.34-2.32-8.61-4.8-13.09-6.81a76.72,76.72,0,0,0-12.21-4.33c-1.11-.29-3.34,1-4,2.18a31.48,31.48,0,0,0-3.25,8.86,38.48,38.48,0,0,0-.32,10.23C2.81,552.38,5.55,552.76,7.22,553.3ZM338.16,136.82c0-2.89,0-4.45,0-6,0-.29-.32-.57-.5-.86-.2.17-.53.31-.59.52a89.6,89.6,0,0,0-2.62,8.85c-1.38,7.06-2.34,14.2-3.8,21.24-1.54,7.45-3.08,14.95-5.34,22.19-2.55,8.16-7.86,14.06-16.51,16.35a9.58,9.58,0,0,0-2.43,1.59c.24.21.45.57.72.62,5.2,1,10.41,1.94,15.63,2.81a1.69,1.69,0,0,0,1.41-.83c1.71-6.65,3.4-13.3,4.94-20,1.86-8.05,3.52-16.14,5.36-24.19.5-2.18,1.4-4.26,2-6.41,1-3.46,2.24-6.9,2.68-10.43C339.38,140.12,338.35,137.8,338.16,136.82ZM270.62,246.6l.52,1.33c1.37-.2,2.9-.11,4-.75.46-.25.12-2.13-.09-3.23a15.18,15.18,0,0,0-1-2.87c-1-2.42-1.36-6-3.15-7-4.36-2.47-9.38-3.78-14.19-5.4-.4-.14-1.8,1-1.75,1.48.69,7.29,1.53,14.56,2.4,21.83,0,.15.85.42,1.14.29C262.54,250.42,266.57,248.5,270.62,246.6Zm157.24,58.34c.46.33,1.36,1.5,2.18,1.46A110.77,110.77,0,0,0,443.65,305c1.32-.24,2.48-2.05,3.39-3.36a2.45,2.45,0,0,0-.58-2.32,77.94,77.94,0,0,0-11.34-4.08C431.72,294.39,428.05,299.2,427.86,304.94Zm-20.25,27.6a33.32,33.32,0,0,1,5.86-1.54c4.61-.36,6.23-2.84,5.63-7.14a2,2,0,0,0-1.08-1.44c-4.94-1-9.91-1.84-14.86-2.79-.82-.16-1.58-.71-2.4-.83-.22,0-.87.93-.81,1.35.24,1.52.32,3.27,1.14,4.47C403,327.35,401.39,333.09,407.61,332.54ZM180.49,308.38c1.07,3.64,1.74,7.22,3.22,10.42a8.35,8.35,0,0,0,4.57,4.08c1.58.49,3.78-.45,5.53-1.17a22.84,22.84,0,0,0,4.05-2.76,15.72,15.72,0,0,0-2.05-2c-4.5-3.1-9.05-6.14-13.59-9.2-.43-.29-.87-.55-1.31-.83ZM60.77,533.75l-7.54-3.93c-.36.84-.68,1.7-1.09,2.52-1.45,3-2.84,6-4.46,8.84-.49.88-1.65,1.37-2.5,2,1.23-.25,2.48-.44,3.69-.77s2.82-.56,3.83-1.36C55.14,539.15,57.34,536.91,60.77,533.75ZM248,241.12l5.57-4.46c-2-.68-4-1.83-6-1.84-1,0-2.11,2.08-2.74,3.42C244.66,238.54,246.38,239.7,248,241.12Zm4.59,5.18,2.1-.67c-.83-1.07-1.71-3.06-2.48-3-2.44.12-7,1.19-6.93,1.58C245.75,250.28,249.74,245.43,252.57,246.3Zm16.12,261.76,2.73-.73a17,17,0,0,0-1.73-1.95c-1.49-1.25-2.91-2.77-4.65-3.49-.92-.38-2.5.58-3.63,1.2-.26.14-.17,1.85.16,2C263.94,506.22,266.41,507.14,268.69,508.06ZM252.51,256c1.25-2.57,2.4-4.42,2.2-4.58a10,10,0,0,0-4.35-2.29c-.88-.14-2,1.2-3,1.87Zm-1.74-23.17c.69-1.17,1.14-1.91,1.58-2.64a30.93,30.93,0,0,0-4.65-1.83c-.49-.12-1.26.94-1.89,1.46ZM82.05,194.54l-1.26-3.32c-.78,1.14-2.28,2.34-2.17,3.39.14,1.32,1.58,2.5,2.46,3.75Z"/><path class="cls-1" d="M79.7,247.45c-.49-3.67-1.64-7.38-1.34-11,.67-7.95,2-15.84,3.2-23.74.3-2,1.12-4,1.39-6,.54-4.23.34-8.62,1.42-12.68a109.76,109.76,0,0,1,5.78-15.55c1.52-3.49,3.7-6.7,5.48-10.08.2-.38-.25-1.11-.41-1.68-.59.39-1.44.65-1.73,1.2-3.14,5.85-6.18,11.76-9.27,17.64-.1.2-.42.29-.64.43a2.93,2.93,0,0,1-.33-.56c-.3-1.06-.58-2.13-.87-3.19-1,.84-1.93,1.69-2.93,2.51-2,1.65-4.09,3.24-6.07,4.95-1.11,1-2,2.12-3.07,3.18a6.82,6.82,0,0,0,2.33.28,11.74,11.74,0,0,0,2.41-1.29c.47-.25,1-.44,1.47-.65,0,.5.32,1.21.08,1.49-2.49,3.05-1.06,5.23,1.45,7.27,4.89,4,1.47,8.62.86,13-.45,3.21-2,6.34-2.09,9.53-.26,10.24-.13,20.5,0,30.76,0,1.95.82,3.89,1,5.87a35.21,35.21,0,0,1-.21,4.91c-1.45-.95-3.14-1.68-4.32-2.9-6.29-6.46-12.13-13.41-18.77-19.47-6.18-5.65-10-12.75-9.29-20.41.85-9.15,4-18.18,7-27,3.1-9.47,7.32-18.57,10.53-28,2.18-6.44,2.91-13.39,5.36-19.7,1.5-3.87,4.85-7.11,7.66-10.4,6.1-7.12,12.76-13.8,18.43-21.24,3.11-4.09,4.56-9.41,7-14a4.51,4.51,0,0,1,3.29-1.91c4.3-.19,8.74-.62,12.92.16,5.83,1.1,11.47,3.2,17.19,4.86,4.56,1.32,9.31,2.17,13.63,4a183.67,183.67,0,0,1,19.62,9.88,106,106,0,0,1,15.69,10.93c5.73,4.89,10.5,10.91,16.29,15.71,4.53,3.77,9.91,6.56,15,9.55,4.28,2.5,8.72,4.74,13.16,7,4.95,2.46,9.94,4.84,15,7.08,6.6,2.93,13.33,5.58,19.91,8.56,4.79,2.17,9.49,4.56,14.13,7.05s9.3,4.55,13,7.89c1.22,1.1-.26,5.66-1.11,8.45a117.88,117.88,0,0,1-4.62,12.14c-1.76,4.15-3.75,8.21-5.69,12.28-.5,1-1.49,1.87-1.78,2.93-1.32,4.78-4.05,3.33-7.42,2.33a133.89,133.89,0,0,0-17.94-4c-7.57-1.17-15.29-1.41-22.82-2.76-6.1-1.1-12.46-2.35-17.92-5.09-10.95-5.5-22.12-11.13-28-23-.49-1-2-1.47-3-2.19.24,1,.19,2.22.78,2.94,4.09,5,8.37,9.94,12.39,15,.45.57-.34,2.16-.61,3.26q-3.2,13.29-6.4,26.57a50.41,50.41,0,0,0-1.4,6.35c-.62,5.84-.77,11.75-1.62,17.55-.91,6.22-2.4,12.36-3.66,18.53-.05.24-.42.63-.49.6-.28-.12-.49-.5-.77-.57-1.8-.44-3.62-.85-5.43-1.22a14.08,14.08,0,0,0-3.58-.58c-3,.18-6,1.07-9,.81-10.11-.86-20.19-2.13-30.28-3.17-3-.3-6.05,0-9-.56a172.18,172.18,0,0,1-20.13-4.9,74.29,74.29,0,0,1-17.63-8.11c-2.26-1.51-2.77-6.11-3.44-9.43-.53-2.65-.1-5.49-.1-8.25Zm55.78-131.7,2.71-.93c-.43-.59-.76-1.56-1.31-1.71-6.14-1.72-12.29-3.4-18.48-4.88a61.68,61.68,0,0,0-9.56-1.47c-.85-.07-1.8,1.12-2.71,1.74.76.25,1.5.57,2.27.74,2.54.54,5.1.94,7.61,1.56C122.32,112.35,128.6,114,135.48,115.75ZM108.05,232.69a28,28,0,0,0,1.48,3.19c1.82,2.64,3.62,5.31,5.6,7.83,4.54,5.75,9.18,11.43,13.82,17.11.26.32.88.35,1.33.52,0-.64.34-1.51,0-1.88-2.16-2.65-4.58-5.1-6.68-7.8-4.23-5.46-8.33-11-12.45-16.57-.53-.71-.75-1.65-1.26-2.37C109.78,232.52,109.1,232.69,108.05,232.69Zm54.66-65.62a29.22,29.22,0,0,0-1.77-3.93c-2.86-4.53-5.8-9-8.78-13.46a10.3,10.3,0,0,0-2.18-2.14c-.15-.12-.7.27-1.07.42a25.18,25.18,0,0,0,1.31,2.95c.54.9,1.42,1.61,1.95,2.53,2.75,4.72,5.42,9.5,8.19,14.21.21.35,1.09.47,1.6.38C162.3,168,162.52,167.33,162.71,167.07Z"/><path class="cls-1" d="M258.79,411.44c0,17.49-.27,35,.11,52.47a281.46,281.46,0,0,0,2.43,28.53c.65,5.17-.76,8.34-5.67,10.29-7.18,2.85-14.13,6.31-21.37,9a91.12,91.12,0,0,1-17.09,4.76c-3,.49-5.86-1.24-6-5.56-.21-8.68-.73-17.36-1.44-26-.59-7.05-1.53-14.07-2.55-21.07-1.11-7.7-2.44-15.38-3.77-23-.63-3.59-1.52-7.14-2.23-10.72a5.13,5.13,0,0,1,.25-1.65c.71.15,1.41.34,2.13.44a16,16,0,0,0,4.68.44c.68-.12,1.1-1.72,1.64-2.64a9.14,9.14,0,0,1-2.21.06c-4.16-.84-9.17-.49-9.41-6.88-.05-1.34-1-2.65-1.51-4-.33-.87-.59-1.77-.88-2.65,1.16,0,2.32.07,3.47,0a68.35,68.35,0,0,0,7.85-.93c.91-.2,1.61-1.44,2.4-2.21-1.42.08-2.84.2-4.26.24-4.57.12-8.6,1.05-12.73-3.56-5.12-5.72-12.12-9.86-18.61-14.23-5.88-4-12.28-7.17-18.26-11-8.75-5.63-17.35-11.51-26-17.36-1.17-.79-2-2.1-3.1-3a25.29,25.29,0,0,0-3.49-1.86c.35,1.09.36,2.62,1.11,3.22,5.64,4.56,11.39,9,17.19,13.35,3,2.27,6.18,4.3,9.14,6.62a11.22,11.22,0,0,1-2.14,3.22c-4.49,4.14-9.48,7.82-13.59,12.31-5.3,5.79-9.86,12.26-14.89,18.31-5.17,6.21-10.74,12.11-15.74,18.46-4.35,5.53-8.12,11.51-12.18,17.27-4.43,6.29-9,12.45-13.3,18.84-2.66,4-4.72,8.36-7.23,12.45-3.21,5.24-6.74,10.28-9.85,15.57a70.64,70.64,0,0,0-4.25,9.32c-2.07,5.07-4.1,10.17-6,15.32-1.54,4.24-2.68,8.62-4.26,12.83-1.86,5-5.73,5.78-10.31,3.15a204.08,204.08,0,0,0-19.09-9.76c-3.3-1.46-7.19-1.58-10.67-2.74-.65-.22-1.24-2.71-.83-3.75,2.73-7,5.86-13.76,8.62-20.7,2-4.92,3.46-10,5.35-15s4.13-9.87,6.05-14.86,3.31-10,5.39-14.86c2.68-6.23,6-12.2,8.7-18.42,2.48-5.72,4.36-11.69,6.84-17.4,1.55-3.56,3.79-6.82,5.62-10.26,2.82-5.3,5.76-10.56,8.26-16,2.32-5.07,4.26-10.33,6.1-15.59a32.16,32.16,0,0,0,1.57-7.73c1-11.21,1.83-22.44,2.76-33.65a110.08,110.08,0,0,1,1.41-13.12c.22-1.06,3-2.47,4.33-2.27,5.15.74,10.2,2.14,15.3,3.19a52.19,52.19,0,0,0,9.21,1.51,81.49,81.49,0,0,1,23.3,3.59c6.39,2,13.66,1.88,20.49,1.63,8.6-.31,17.16-1.68,25.72-2.67a49.12,49.12,0,0,0,5.47-1.12c4.35-1,2.65-4.1,2.2-6.68-.71-4-1.52-8-2.31-12-.45-2.31-1-4.6-1.35-6.93-.1-.72.43-1.52.68-2.29.58.73,1.49,1.38,1.7,2.21,1.42,5.76,2.31,11.68,4.17,17.28,1.12,3.36,3.48,6.31,8.15,3.87,3.29-1.72,6.87-4,10.32-4a21.81,21.81,0,0,1,11.41,3.81A148.78,148.78,0,0,1,231.17,340a106.79,106.79,0,0,1,15.46,17.92c3.31,5,4.6,11.23,7.12,16.77C259.1,386.38,259.44,398.9,258.79,411.44ZM100.2,373.52l-.92-2.59c-.33.43-.67.86-1,1.31-3,4.21-5.69,8.62-8.94,12.6A100.24,100.24,0,0,1,78,396.94c-5.48,4.79-11.48,9-17.23,13.46A15.78,15.78,0,0,0,59,412.24c.21.19.42.53.61.52a18.62,18.62,0,0,0,2.89-.29c.31-.06.55-.48.85-.7,4.43-3.21,9.25-6,13.19-9.71a214.44,214.44,0,0,0,16.15-17.4C95.66,381.19,97.84,377.09,100.2,373.52ZM58.94,475.73c-.3-.53-.45-1.16-.74-1.23a2.18,2.18,0,0,0-1.72.12c-2.24,1.93-4.23,4.17-6.59,5.94-6,4.47-12.06,8.73-18.09,13.11a3,3,0,0,0-1.08,1.27c-.11.29.26,1.09.49,1.12a3.12,3.12,0,0,0,2-.23c6.3-4.46,12.63-8.9,18.79-13.56A88.3,88.3,0,0,0,58.94,475.73Zm145.64-122,.37-1c.54,0,1.23.15,1.59-.11,1.18-.87,2.24-1.9,3.35-2.87-.3-.28-.59-.78-.9-.79-2.93-.09-6,.48-8.76-.25C194,347,188,344.74,181.9,342.81a11.63,11.63,0,0,0-3.45-.21,1.71,1.71,0,0,0-.3,1,11.2,11.2,0,0,0,2.37,1.42c1.48.6,3,1,4.52,1.58Q194.82,350.14,204.58,353.69Zm0,69.2,2.88-2c-1.89-1-3.77-2-5.71-3a3.82,3.82,0,0,0-.93,1.25C201.92,420.42,203.14,421.54,204.56,422.89Z"/><path class="cls-1" d="M261.29,447.27c0-7.07,0-14.15,0-21.22,0-11.59-.68-23.22.15-34.74.4-5.63,3.37-11.13,5.48-16.57,1.77-4.55,3.85-9,6-13.36q3.78-7.54,8-14.85c2.65-4.54,5.54-8.94,8.56-13.25.3-.44,2.22.07,3.31.39,5.64,1.66,11.14,4,16.89,4.94,6.7,1.09,13.6.92,20.41,1.38,4.1.27,8.23,1.22,12.28.93,5.34-.39,10.6-1.83,15.94-2.55,4.06-.55,8.23-.42,12.27-1.08,5.64-.92,8.82-4.08,10-10.13,1.36-7.07,3.92-13.91,6.13-20.79,1.15-3.57,2.66-7,4.09-10.49.15-.38.95-.85,1.22-.73a1.9,1.9,0,0,1,1.08,1.27c.06,3.1-.48,6.3,0,9.3.69,3.83,2.24,7.49,3.34,11.25a105.94,105.94,0,0,1,3,10.93c1.18,6.51,7.26,9.51,13.22,6.39.39-.21,2,.67,2,1.14.64,6.62.33,13.44,1.82,19.85a239.3,239.3,0,0,0,8.56,27.44,233.62,233.62,0,0,0,9.38,21.77c2.92,6.05,6.59,11.74,9.65,17.73,2.07,4,3.38,8.46,5.51,12.45,2.86,5.34,6.22,10.41,9.31,15.64,4.18,7.1,8.6,14.09,12.36,21.41a147,147,0,0,1,7.24,17.77c.14.39-2.52,2.26-4.09,2.7-6.82,1.94-14.19,2.62-20.45,5.65-5.58,2.7-9.8,8.11-15,11.75-.88.62-4.47-1.1-5.59-2.63-5.5-7.47-10.87-15.08-15.75-23-4.66-7.52-8.71-15.41-12.95-23.18-3.79-7-7.69-13.87-11.15-21-3.37-6.93-6.24-14.1-9.34-21.16-2.9-6.6-5.83-13.19-8.69-19.81-2.29-5.34-4.32-10.8-6.79-16-1.91-4.07-4.31-7.92-6.54-11.84-3.31-5.84-6.63-11.68-10-17.47-.25-.42-1.18-.45-1.79-.67,0,.46.14,1-.08,1.35a12.93,12.93,0,0,1-2.62,3.29,43.4,43.4,0,0,1-7.06,4.33c-1.09.51-2.92-.45-3.93.12a14.1,14.1,0,0,0-4.92,4.16c-5.25,7.9-10.24,16-15.34,24-4.14,6.48-8.6,12.78-12.36,19.47a68.51,68.51,0,0,0-5.7,13.9c-2.32,7.73-4.14,15.61-6.06,23.45-.67,2.74-.93,5.58-1.55,8.33-2.05,8.93-4.05,17.88-6.32,26.77-1.57,6.16-3.45,12.26-5.43,18.31-.6,1.83-2.2,4.9-3,4.8-2.29-.29-4.37-2-6.59-3-6.13-2.84-6.16-8.8-6.56-14-1.05-13.55-1.46-27.15-2.13-40.73ZM433,410.6c-1.94-2.26-3.25-4-4.78-5.54-6.25-6.24-12.8-12.19-18.77-18.67-4.08-4.42-7.36-9.57-11.08-14.33a21.7,21.7,0,0,0-3.11-2.85c-.05,0-.65.38-.64.42a19.84,19.84,0,0,0,1.77,3.54c2.23,3,4.67,5.87,6.88,8.89,2.53,3.46,4.47,7.45,7.43,10.46,6.1,6.18,12.71,11.86,19.09,17.77.36.33.46,1.06.83,1.19S431.54,411.19,433,410.6Zm8.62,67.54c1.77-1.21,2.68-1.58,2.66-1.87a2.69,2.69,0,0,0-.95-1.78c-4.44-3.12-8.93-6.16-13.41-9.23-1-.67-1.91-1.4-2.86-2.09.25,1.17.1,2.8.82,3.44C432.43,470.62,437.15,474.4,441.65,478.14Zm-163.9-52.8c3-.9,5.27-1.28,7.21-2.28.93-.48,1.25-2.15,1.84-3.28-.34-.09-.83-.37-1-.25-5.71,4.8-11.41,2.29-17.21.17-1.32-.48-3,0-4.49,0,.11.28.15.73.34.8C269,422.16,273.57,423.81,277.75,425.34Z"/><path class="cls-1" d="M450.83,244.37c0,11.09.28,22.19-.11,33.26-.21,5.9-1.51,11.78-2.64,17.6a25.32,25.32,0,0,1-5.8-.71c-3.83-1-7.51-2.62-11.38-3.32-6.5-1.19-13.09-1.82-19.63-2.8-.42-.06-1-1.12-1-1.67.66-7.21,2.09-14.43,2-21.62-.15-8.65-2.86-16.87-7.05-24.56-2.86-5.24-5.17-10.78-8-16-3.16-5.78-7-11.23-10-17.08a76.1,76.1,0,0,1-5.35-13.6c-2.37-8.23-4.57-16.54-6.25-24.93-1.06-5.31-1-10.84-1.54-16.27a8.13,8.13,0,0,0-.56-1.8l-.82,1.5-.5.91c-.52-.37-1.06-.71-1.55-1.11s-1-.92-1.47-1.38a9,9,0,0,0-.12,2.91c1.17,4,2.71,7.85,3.73,11.86,1.79,7.05,3.22,14.2,5,21.26a109.42,109.42,0,0,0,4.07,14.13,122.52,122.52,0,0,0,6.85,13.4c2.7,4.9,5.71,9.63,8.34,14.57,3.07,5.73,6,11.53,8.71,17.45a36.92,36.92,0,0,1,2.56,9c.11.6-1.77,2.05-2.91,2.3-10.82,2.34-21.65,4.64-32.53,6.65a101.59,101.59,0,0,1-17.49,2.16c-10.94.1-21.89-.51-32.83-.9-.33,0-.95-.92-.91-1.36.81-8.78,1.66-17.56,2.66-26.32.07-.63,1.42-1.1,2.15-1.68,1.35-1.07,3.64-2,3.87-3.28,1.23-7.16,2.11-14.38,2.82-21.61.37-3.88-1.42-6.42-5.5-7.55-.64-.18-.8-3.78-.43-5.64.86-4.26,2.19-8.42,3.32-12.62,2.06-7.62,4.06-15.26,6.2-22.85,1.64-5.84,2.77-12,5.38-17.35,3.3-6.81,7.63-13.16,12-19.4,4.71-6.78,9.77-13.34,15-19.76,3.73-4.63,7.43-9.53,12.08-13.08,3.63-2.76,3.66,2.52,4.05,4,1.49,5.82,6,8,10.44,10.88,3.75,2.45,6.82,6.52,9.11,10.49,3,5.27,5.16,11.09,7.43,16.77,1.21,3,1.9,6.3,2.83,9.46,2.56,8.67,4.53,17.58,7.83,26,3.53,9,8.35,17.38,12.55,26.07,3.15,6.53,6.77,12.9,9.17,19.7,3.17,9,5.36,18.37,8,27.58ZM338.77,166.84l1.17,2.3a8.77,8.77,0,0,0,1.85-1.85q6.46-12.36,12.79-24.8a26.92,26.92,0,0,0,1.23-3.54c-.44-.13-1.13-.49-1.26-.34a17.57,17.57,0,0,0-2.3,3c-1.61,2.82-3.12,5.7-4.65,8.57C344.62,155.78,341.66,161.38,338.77,166.84Zm22.12-36.36c.36.94.52,1.36.67,1.77a4.15,4.15,0,0,0,1.29-.67c6.32-7.16,12.65-14.32,18.87-21.57.63-.73.61-2,.89-3.08a13.41,13.41,0,0,0-2.51,1.6c-4,4-8,8-11.78,12.26C365.59,123.88,363.28,127.34,360.89,130.48Zm34.29,110.66L394,238.65c-.3.36-.56.74-.88,1.06-5.76,5.7-11.55,11.37-17.24,17.15-.84.85-1.16,2.22-1.72,3.35,1.16-.2,2.62,0,3.42-.67a98.8,98.8,0,0,0,9.82-8.67C390.33,247.81,392.73,244.27,395.18,241.14Zm-20.64-32.75c-5.86,2.44-12,5-18,7.56-.63.28-1,1.16-1.5,1.77.9.16,1.94.7,2.67.43,3.76-1.42,7.34-3.37,11.17-4.51,2.76-.82,5.8-.69,8.71-.94.9-.07,1.82,0,2.73,0-.16-.65-.11-1.65-.51-1.89A55.76,55.76,0,0,0,374.54,208.39Zm45.29,26.08c.4.7.53,1.19.86,1.42.15.11.77-.2,1-.47,2.89-3.82,5.76-7.65,8.55-11.53.28-.39.09-1.16,0-1.73a1.27,1.27,0,0,0-1-.08,5.5,5.5,0,0,0-1.3,1.46c-1.23,2-2.27,4.2-3.66,6.11A57.83,57.83,0,0,1,419.83,234.47ZM390.45,127.79c-2.2.74-4.12,1.09-5.69,2-.91.54-1.25,2-1.85,3.09.83-.17,1.68-.28,2.49-.51,1.63-.46,3.26-1,4.85-1.53a30.11,30.11,0,0,0,2.93-1.39Z"/><path class="cls-1" d="M242.5,232.86c.21,4.34.08,9.82.87,15.16.44,2.93,1.69,6.53,3.84,8.26,4.31,3.48,8.39.56,12.87-1.45,4.94-2.22,10.81-2.8,16.3-3,1.21,0,2.81,4.57,3.8,7.19,2.11,5.58,7.61,10.3,13.77,6.75,6.64-3.82,13.39-7.46,20.1-11.17,1.7-.93,3.41-1.85,5.16-2.66a2.44,2.44,0,0,1,1,1.41c-.35,4.93,0,10.14-1.53,14.67-1,3-4.57,5.59-7.53,7.51-6.65,4.3-13.84,7.8-20.33,12.3-1.39,1-1.22,4.88-1,7.36.33,3.62,1.76,7.16,2,10.78.17,2.75.84,3.77,3.57,3.27a4.81,4.81,0,0,1,1.76.38,14.58,14.58,0,0,1-.82,2c-3.07,5.16-8.05,10-8.83,15.51-1.4,9.82-8.51,16.1-12,24.44-3.69,8.71-7.83,17.23-11.73,25.86-1,2.13-1.71,4.36-2.59,6.53-.09.21-.4.33-.6.5A15.4,15.4,0,0,1,258.9,382c-3-7.72-4.84-16.18-9.23-23-5.67-8.82-12.88-16.83-20.34-24.27-5.52-5.51-12.75-9.27-18.61-14.48-1.37-1.21-1.07-5.42-.24-7.79,2.27-6.51.82-8.56-5.42-11.1-6.87-2.79-13.14-7.08-19.63-10.79-1.31-.75-3.11-1.6-3.49-2.79a14.18,14.18,0,0,1-.06-6c1.68-11.77,3.15-23.59,5.34-35.27,1.57-8.35,4.14-16.51,6.29-24.74.26-1,.86-1.91,1.07-2.91.47-2.23.79-4.48,1.17-6.72a47.23,47.23,0,0,0,5.49,3.81c5.12,2.59,10.14,5.77,15.6,7.18,6.75,1.75,13.95,1.72,20.87,2.92C240.5,226.49,245.1,226.29,242.5,232.86Z"/><path class="cls-1" d="M410.44,279.8c-1.42,2.93-2.61,6.49-4.7,9.4s-5.14,5.45-7.95,7.91c-.21.18-2.36-1.24-3-2.28s-.15-2.47-.32-3.71a17.47,17.47,0,0,0-.78-2.59c-.95.61-2.41,1-2.76,1.84-3.23,7.88-6.51,15.74-9.26,23.78-1.76,5.14-2.21,10.74-4.16,15.78-.79,2.05-3.8,3.89-6.16,4.53-3,.83-6.47.17-9.7.5-4.89.51-9.74,1.44-14.63,2-4,.42-8,.5-12.05.67a23.09,23.09,0,0,1-2.31-.28c-8.75-.44-17.62-.14-26.2-1.56-5.67-.94-11-4.27-16.24-6.91-.23-.12,1.25-4.25,2.35-6.3,3.15-5.87,6.1-11.92,9.94-17.32,2.23-3.13,6-5.13,9.11-7.66.48-.39.85-.91,1.32-1.29,7.26-5.93,3.74,3.26,4.15,3.92,4.23,6.9,7.26,14.52,11.16,21.64,3.75,6.87,5.25,1.17,6.92-1.68,1.92-3.29,4.28-6.55,5.16-10.14.51-2.08-1.35-4.86-2.42-7.2-1.51-3.3-3.28-6.48-4.91-9.73a12.35,12.35,0,0,1-1.2-3c-.63-3.14,3.63-5.17,7.32-5,7.94.42,15.92,0,23.89-.11a42.83,42.83,0,0,0,6.81-.27c8.44-1.52,16.87-3.11,25.26-4.91,4.71-1,9.32-2.48,14-3.58A32.7,32.7,0,0,1,410.44,279.8Z"/><path class="cls-1" d="M146,331.07c-7.16-.57-13.4.17-18.64-1.76-10.38-3.83-21.14-3.51-31.73-5-5.88-.85-11.65-2.44-17.5-3.51-1-.19-2.17.71-3.28.8-1.72.14-3.47,0-5.21,0,.5-1.59.94-3.21,1.51-4.77,1.4-3.87,3.18-7.64,4.22-11.6,1.58-6,2.61-12.12,4.13-18.13.05-.21,2.81.07,4.23.44,2.47.64,4.84,1.64,7.3,2.29,8.58,2.28,17.15,4.58,25.77,6.66,6,1.44,12,3.07,18,3.68,11.66,1.17,23.4,2.29,35.1,2.16,4.41-.06,3.48,3,3.74,4.12A142.45,142.45,0,0,1,176.56,325c.08.9-2.34,2.77-3.77,3C163.44,329.25,154.05,330.18,146,331.07Z"/><path class="cls-1" d="M317.8,62c.74-9.5,1.65-18.75,10.3-25.27,6.28-4.73,13.23-7,20.51-5.44,7.79,1.73,14.89,5.36,20.1,12.3,5.45,7.25,11,14.2,10.21,23.92-.49,5.76-1.58,11.47-2.07,17.23-.18,2.08.65,4.24.93,6.37a1.55,1.55,0,0,1-.54,1.29c-.5.19-1.43.24-1.7-.07-3.59-4-7.83-3-12.22-1.88-.93.23-3-.58-3.07-1a56.52,56.52,0,0,1,.36-6.86c.16-2.84.7-5.77.16-8.48-.2-1-3.68-2.53-4.46-2a12.15,12.15,0,0,0-4.06,5.39c-.81,2-.69,4.39-1.06,6.59,0,.25-.63.4-1,.6a5,5,0,0,1-.48-1.18c-.62-4.84-3.61-8-8-8.83-7-1.31-14.3-1.53-21.36-2.83-1.15-.21-1.92-3.54-2.48-5.53A16.58,16.58,0,0,1,317.8,62Z"/><path class="cls-1" d="M340.79,131.74c-2.42-7.43,4.66-9.79,9.38-13.69a43.72,43.72,0,0,0,3.26-3.13c.05,0-.31-.75-.5-.76a3.25,3.25,0,0,0-1.89.23c-2.62,1.86-5,4.23-7.78,5.66-2.11,1.07-5.33,2.06-7.12,1.19-3-1.48-6.18-4.13-3.42-8.53.09-.14-.39-.93-.62-.94-3.91-.14-3.78-3.06-4.24-5.78-.2-1.18-1.1-3.19-1.75-3.22-8.24-.34-3.89-6.17-4.22-9.72-.47-5,.27-10.28-.82-15.15s2-3.14,3.67-3.11a55.93,55.93,0,0,1,11,1c5.32,1.17,11.36,1.8,11.71,9.48,0,.8,2,2.23,2.9,2.08a4.56,4.56,0,0,0,3.15-2.58c.68-2.61.39-5.47,1.07-8.08.25-.94,2.15-1.45,3.29-2.15.65,1.34,2,2.77,1.83,4-.43,3.37-1.89,6.63-2.21,10-.34,3.71,3.36,5.1,6.78,4.33,2.93-.66,6.3.67,9.47,1.11-.51,1.51-.69,3.24-1.58,4.47-4,5.56-8.16,11-12.39,16.42s-8.77,10.74-13,16.24a82.33,82.33,0,0,0-4.67,7.66,7,7,0,0,1-.85,1,6.28,6.28,0,0,1-.43-1.45C340.76,136.47,340.79,134.61,340.79,131.74Z"/><path class="cls-1" d="M217.42,525.44c-.93-5,1.18-6,5.92-6.34,4.45-.33,8.78-2.63,13.12-4.2q5.91-2.13,11.72-4.58a17.45,17.45,0,0,0,4.17-2.49c4.08-3.32,7,.54,10.52,1.35,5.49,1.27,11.16,1.75,16.76,2.5,2.41.32,5.83-.46,7.09.88,3.48,3.67,1,7.2-1.57,10.62-5.71,7.54-13.59,9-22.35,9.38-3.59.17-7.05,2.56-10.6,3.84-1.83.66-3.71,1.18-5.59,1.66-5.77,1.48-11.52,3.93-17.32,4.06-6.44.15-9.94-1.52-10.56-9.6A66.69,66.69,0,0,0,217.42,525.44Z"/><path class="cls-1" d="M289,265.15c-2.35-2.63-5.57-5-7.13-8.24-2.63-5.43-3.68-11.64-6.4-17-2.63-5.2.92-7.85,3-11.37s3.93-7.2,5.87-10.82c2.33-4.37,5.19-1,7.68-.36a40.74,40.74,0,0,1,9.32,3.32,119.2,119.2,0,0,1,12.56,7.77,50.27,50.27,0,0,1,7,6.29,5.55,5.55,0,0,1,1.65,3.47c-.16,7.75-4.48,12-11.54,14.82-4.66,1.87-8.51,5.69-12.91,8.32C295.78,262.75,293,263.51,289,265.15Zm10.13-21.63,2.87-2.39c-.57-.46-1.11-.95-1.7-1.37-2.08-1.46-4.14-2.95-6.27-4.34a23.74,23.74,0,0,0-2.92-1.39c-.1.68-.54,1.72-.26,2C293.51,238.53,296.25,240.91,299.17,243.52Z"/><path class="cls-1" d="M477.79,502c-2.86,5.78-5.59,11.64-8.64,17.33-2.45,4.56-4.9,9.24-8.11,13.26-1.77,2.21-5,3.38-7.77,4.64a148.75,148.75,0,0,1-14,5.68,5.34,5.34,0,0,1-4.59-.88,5.16,5.16,0,0,1-.82-4.5c1.61-4.53,4-8.78,5.5-13.34,1.67-5.11,2-10.78,4.26-15.55,1.4-2.92,5.08-5.35,8.28-6.7a157.77,157.77,0,0,1,19.93-6.62C477.31,493.79,476.71,498,477.79,502Z"/><path class="cls-1" d="M151.9,45.87c2.52,5,4.62,10.24,7.7,14.84,2.65,4,2.61,7-1.53,9.75-1.11.75-2.48,1.82-2.75,3-1,4.21-2.5,8.61-2.1,12.78.66,6.86-1.58,10-8.9,10.22-1.21,0-2.38,1-3.57,1.48,1.1.4,2.22.76,3.29,1.23,1.28.57,2.51,1.24,3.76,1.86-.68,1-1.63,2.88-2,2.77-6.21-1.76-12.36-3.72-18.48-5.77a33.37,33.37,0,0,1-4.45-2.28c1.55-.67,3.47-1,4.55-2.07,2.15-2.22,5.19-4.76,5.44-7.39.58-6.06-.48-12.26-.46-18.39,0-1.9,1.3-3.8,2.09-5.67a1.65,1.65,0,0,1,1.18,0c.63,1.71,1.16,3.46,1.7,5.2q.72,2.31,1.42,4.62c1.92-.82,5.26-1.35,5.5-2.52.81-4,.44-8.19.71-12.29a17.83,17.83,0,0,1,1.09-6.32A39.43,39.43,0,0,1,150.77,44c.46-.62,1.41-.88,2.13-1.31l.64,2.45Z"/><path class="cls-1" d="M325.59,234.19l-6.67-5c1.26-1.1,2.5-2.22,3.79-3.28.44-.36,1.36-.5,1.43-.86.4-2.17.61-4.38.89-6.57a26.67,26.67,0,0,0-2.17,1.78c-1.39,1.37-2.49,3.43-4.14,4-1.39.51-3.5-.4-5.1-1.11-4.4-2-8.58-4.41-13.05-6.17-4.27-1.68-8.8-2.7-13.13-4.25-.18-.07.48-2.66.87-4,.86-3.06,1.62-6.17,2.74-9.14,1.87-5,4.33-.64,6.19,0,4.72,1.64,9.18,4,13.87,5.73a46.12,46.12,0,0,0,9.41,2.34c1.69.23,3.52-.64,5.3-.85,1-.11,2.52-.23,2.88.29a14.72,14.72,0,0,1,2.66,5.65c.28,1.79-.65,3.76-1,5.66-.84,4.66-1.59,9.33-2.53,13.95C327.71,232.93,326.64,233.35,325.59,234.19Z"/><path class="cls-1" d="M413.21,290.73c6.31,1.24,10.82,2.1,15.28,3.21a33.18,33.18,0,0,1-.9,4.54c-.68,2.42-1.43,4.83-2.3,7.18-1.57,4.29-2.15,9.95-5.24,12.37-2.75,2.17-8.41,1.33-12.63.73-2.76-.39-5.47-2.42-7.8-4.23-4.19-3.26-1.76-6.36.72-9.33a11.35,11.35,0,0,0,1.86-3c.12-.32-.72-1-1.12-1.55-.72.78-1.41,1.6-2.18,2.33-1.26,1.2-2.57,2.33-3.85,3.49.71-1.86.89-4.48,2.24-5.45C402.76,297.06,408.6,293.64,413.21,290.73Z"/><path class="cls-1" d="M7.22,553.3c-1.67-.54-4.41-.92-4.46-1.53a38.48,38.48,0,0,1,.32-10.23,31.48,31.48,0,0,1,3.25-8.86c.62-1.16,2.85-2.47,4-2.18a76.72,76.72,0,0,1,12.21,4.33c4.48,2,8.75,4.49,13.09,6.81A28.56,28.56,0,0,1,38,543.25a22.07,22.07,0,0,0-3.85.6c-6.67,2.24-13.32,4.57-20,6.9C11.89,551.55,9.63,552.41,7.22,553.3Z"/><path class="cls-1" d="M338.16,136.82c.19,1,1.22,3.3.94,5.45-.44,3.53-1.69,7-2.68,10.43-.61,2.15-1.51,4.23-2,6.41-1.84,8-3.5,16.14-5.36,24.19-1.54,6.69-3.23,13.34-4.94,20a1.69,1.69,0,0,1-1.41.83c-5.22-.87-10.43-1.84-15.63-2.81-.27-.05-.48-.41-.72-.62a9.58,9.58,0,0,1,2.43-1.59c8.65-2.29,14-8.19,16.51-16.35,2.26-7.24,3.8-14.74,5.34-22.19,1.46-7,2.42-14.18,3.8-21.24a89.6,89.6,0,0,1,2.62-8.85c.06-.21.39-.35.59-.52.18.29.49.57.5.86C338.19,132.37,338.16,133.93,338.16,136.82Z"/><path class="cls-1" d="M270.62,246.6c-4.05,1.9-8.08,3.82-12.14,5.67-.29.13-1.12-.14-1.14-.29-.87-7.27-1.71-14.54-2.4-21.83-.05-.46,1.35-1.62,1.75-1.48,4.81,1.62,9.83,2.93,14.19,5.4,1.79,1,2.15,4.59,3.15,7a15.18,15.18,0,0,1,1,2.87c.21,1.1.55,3,.09,3.23-1.12.64-2.65.55-4,.75Z"/><path class="cls-1" d="M427.86,304.94c.19-5.74,3.86-10.55,7.26-9.75a77.94,77.94,0,0,1,11.34,4.08,2.45,2.45,0,0,1,.58,2.32c-.91,1.31-2.07,3.12-3.39,3.36A110.77,110.77,0,0,1,430,306.4C429.22,306.44,428.32,305.27,427.86,304.94Z"/><path class="cls-1" d="M407.61,332.54c-6.22.55-4.66-5.19-6.52-7.92-.82-1.2-.9-2.95-1.14-4.47-.06-.42.59-1.38.81-1.35.82.12,1.58.67,2.4.83,4.95.95,9.92,1.8,14.86,2.79a2,2,0,0,1,1.08,1.44c.6,4.3-1,6.78-5.63,7.14A33.32,33.32,0,0,0,407.61,332.54Z"/><path class="cls-1" d="M180.49,308.38l.42-1.49c.44.28.88.54,1.31.83,4.54,3.06,9.09,6.1,13.59,9.2a15.72,15.72,0,0,1,2.05,2,22.84,22.84,0,0,1-4.05,2.76c-1.75.72-3.95,1.66-5.53,1.17a8.35,8.35,0,0,1-4.57-4.08C182.23,315.6,181.56,312,180.49,308.38Z"/><path class="cls-1" d="M60.77,533.75c-3.43,3.16-5.63,5.4-8.07,7.34-1,.8-2.52,1-3.83,1.36s-2.46.52-3.69.77c.85-.67,2-1.16,2.5-2,1.62-2.87,3-5.88,4.46-8.84.41-.82.73-1.68,1.09-2.52Z"/><path class="cls-1" d="M248,241.12c-1.6-1.42-3.32-2.58-3.18-2.88.63-1.34,1.78-3.42,2.74-3.42,2,0,4,1.16,6,1.84Z"/><path class="cls-1" d="M252.57,246.3c-2.83-.87-6.82,4-7.31-2.11,0-.39,4.49-1.46,6.93-1.58.77,0,1.65,1.95,2.48,3Z"/><path class="cls-1" d="M268.69,508.06c-2.28-.92-4.75-1.84-7.12-3-.33-.15-.42-1.86-.16-2,1.13-.62,2.71-1.58,3.63-1.2,1.74.72,3.16,2.24,4.65,3.49a17,17,0,0,1,1.73,1.95Z"/><path class="cls-1" d="M252.51,256l-5.15-5c1-.67,2.12-2,3-1.87a10,10,0,0,1,4.35,2.29C254.91,251.57,253.76,253.42,252.51,256Z"/><path class="cls-1" d="M250.77,232.82l-5-3c.63-.52,1.4-1.58,1.89-1.46a30.93,30.93,0,0,1,4.65,1.83C251.91,230.91,251.46,231.65,250.77,232.82Z"/><path class="cls-1" d="M82.05,194.54l-1,3.82c-.88-1.25-2.32-2.43-2.46-3.75-.11-1.05,1.39-2.25,2.17-3.39Z"/><path d="M135.48,115.75c-6.88-1.75-13.16-3.4-19.47-5-2.51-.62-5.07-1-7.61-1.56-.77-.17-1.51-.49-2.27-.74.91-.62,1.86-1.81,2.71-1.74a61.68,61.68,0,0,1,9.56,1.47c6.19,1.48,12.34,3.16,18.48,4.88.55.15.88,1.12,1.31,1.71Z"/><path d="M108.05,232.69c1,0,1.73-.17,1.88,0,.51.72.73,1.66,1.26,2.37,4.12,5.55,8.22,11.11,12.45,16.57,2.1,2.7,4.52,5.15,6.68,7.8.3.37,0,1.24,0,1.88-.45-.17-1.07-.2-1.33-.52-4.64-5.68-9.28-11.36-13.82-17.11-2-2.52-3.78-5.19-5.6-7.83A28,28,0,0,1,108.05,232.69Z"/><path d="M162.71,167.07c-.19.26-.41.9-.75,1-.51.09-1.39,0-1.6-.38-2.77-4.71-5.44-9.49-8.19-14.21-.53-.92-1.41-1.63-1.95-2.53a25.18,25.18,0,0,1-1.31-2.95c.37-.15.92-.54,1.07-.42a10.3,10.3,0,0,1,2.18,2.14c3,4.45,5.92,8.93,8.78,13.46A29.22,29.22,0,0,1,162.71,167.07Z"/><path d="M100.2,373.52c-2.36,3.57-4.54,7.67-7.47,11.14a214.44,214.44,0,0,1-16.15,17.4c-3.94,3.72-8.76,6.5-13.19,9.71-.3.22-.54.64-.85.7a18.62,18.62,0,0,1-2.89.29c-.19,0-.4-.33-.61-.52a15.78,15.78,0,0,1,1.71-1.84c5.75-4.48,11.75-8.67,17.23-13.46a100.24,100.24,0,0,0,11.37-12.1c3.25-4,6-8.39,8.94-12.6.32-.45.66-.88,1-1.31Z"/><path d="M58.94,475.73a88.3,88.3,0,0,1-7,6.54c-6.16,4.66-12.49,9.1-18.79,13.56a3.12,3.12,0,0,1-2,.23c-.23,0-.6-.83-.49-1.12a3,3,0,0,1,1.08-1.27c6-4.38,12.14-8.64,18.09-13.11,2.36-1.77,4.35-4,6.59-5.94a2.18,2.18,0,0,1,1.72-.12C58.49,474.57,58.64,475.2,58.94,475.73Z"/><path d="M204.58,353.69q-9.77-3.54-19.54-7.08c-1.5-.54-3-1-4.52-1.58a11.2,11.2,0,0,1-2.37-1.42,1.71,1.71,0,0,1,.3-1,11.63,11.63,0,0,1,3.45.21c6.12,1.93,12.14,4.22,18.33,5.85,2.75.73,5.83.16,8.76.25.31,0,.6.51.9.79-1.11,1-2.17,2-3.35,2.87-.36.26-1,.08-1.59.11Z"/><path d="M204.56,422.89c-1.42-1.35-2.64-2.47-3.76-3.68a3.82,3.82,0,0,1,.93-1.25c1.94.92,3.82,2,5.71,3Z"/><path d="M433,410.6c-1.49.59-2,1-2.38.88s-.47-.86-.83-1.19c-6.38-5.91-13-11.59-19.09-17.77-3-3-4.9-7-7.43-10.46-2.21-3-4.65-5.88-6.88-8.89a19.84,19.84,0,0,1-1.77-3.54s.59-.47.64-.42a21.7,21.7,0,0,1,3.11,2.85c3.72,4.76,7,9.91,11.08,14.33,6,6.48,12.52,12.43,18.77,18.67C429.78,406.59,431.09,408.34,433,410.6Z"/><path d="M441.65,478.14c-4.5-3.74-9.22-7.52-13.74-11.53-.72-.64-.57-2.27-.82-3.44,1,.69,1.89,1.42,2.86,2.09,4.48,3.07,9,6.11,13.41,9.23a2.69,2.69,0,0,1,.95,1.78C444.33,476.56,443.42,476.93,441.65,478.14Z"/><path d="M277.75,425.34c-4.18-1.53-8.74-3.18-13.29-4.87-.19-.07-.23-.52-.34-.8,1.51,0,3.17-.45,4.49,0,5.8,2.12,11.5,4.63,17.21-.17.15-.12.64.16,1,.25-.59,1.13-.91,2.8-1.84,3.28C283,424.06,280.76,424.44,277.75,425.34Z"/><path d="M338.77,166.84c2.89-5.46,5.85-11.06,8.83-16.66,1.53-2.87,3-5.75,4.65-8.57a17.57,17.57,0,0,1,2.3-3c.13-.15.82.21,1.26.34a26.92,26.92,0,0,1-1.23,3.54q-6.33,12.44-12.79,24.8a8.77,8.77,0,0,1-1.85,1.85Z"/><path d="M360.89,130.48c2.39-3.14,4.7-6.6,7.43-9.69,3.75-4.24,7.8-8.23,11.78-12.26a13.41,13.41,0,0,1,2.51-1.6c-.28,1-.26,2.35-.89,3.08-6.22,7.25-12.55,14.41-18.87,21.57a4.15,4.15,0,0,1-1.29.67C361.41,131.84,361.25,131.42,360.89,130.48Z"/><path d="M395.18,241.14c-2.45,3.13-4.85,6.67-7.75,9.73a98.8,98.8,0,0,1-9.82,8.67c-.8.64-2.26.47-3.42.67.56-1.13.88-2.5,1.72-3.35,5.69-5.78,11.48-11.45,17.24-17.15.32-.32.58-.7.88-1.06Z"/><path d="M374.54,208.39a55.76,55.76,0,0,1,5.23,2.45c.4.24.35,1.24.51,1.89-.91,0-1.83-.1-2.73,0-2.91.25-5.95.12-8.71.94-3.83,1.14-7.41,3.09-11.17,4.51-.73.27-1.77-.27-2.67-.43.5-.61.87-1.49,1.5-1.77C362.57,213.34,368.68,210.83,374.54,208.39Z"/><path d="M419.83,234.47a57.83,57.83,0,0,0,4.36-4.82c1.39-1.91,2.43-4.08,3.66-6.11a5.5,5.5,0,0,1,1.3-1.46,1.27,1.27,0,0,1,1,.08c.12.57.31,1.34,0,1.73-2.79,3.88-5.66,7.71-8.55,11.53-.21.27-.83.58-1,.47C420.36,235.66,420.23,235.17,419.83,234.47Z"/><path d="M390.45,127.79l2.73,1.69a30.11,30.11,0,0,1-2.93,1.39c-1.59.58-3.22,1.07-4.85,1.53-.81.23-1.66.34-2.49.51.6-1.07.94-2.55,1.85-3.09C386.33,128.88,388.25,128.53,390.45,127.79Z"/><path d="M299.17,243.52c-2.92-2.61-5.66-5-8.28-7.5-.28-.27.16-1.31.26-2a23.74,23.74,0,0,1,2.92,1.39c2.13,1.39,4.19,2.88,6.27,4.34.59.42,1.13.91,1.7,1.37Z"/></g></g></svg>