<svg xmlns="http://www.w3.org/2000/svg" viewBox="0 0 388.78 552.63"><defs><style>.cls-1{fill:#fff;}</style></defs><g id="Layer_2" data-name="Layer 2"><g id="Layer_1-2" data-name="Layer 1"><path class="cls-1" d="M142.83,456.12c.61,3.3,1.09,6,1.6,8.63.58,3.06.18,6.2,1.29,9.28.81,2.25.49,4.81,1.24,7.28,1.06,3.5,1.11,7.31,1.52,11,.21,1.84-.24,3.94.5,5.5,1.61,3.43.56,7.1,1.73,10.66,1.3,3.93-.05,8.55,1.66,12.62a16.88,16.88,0,0,0,1.84,2.69,10.8,10.8,0,0,1,1.74,2.72c.32,1.06,0,2.28.18,3.4q.52,3.86,1.25,7.7a60.19,60.19,0,0,0,1.41,6.08,17.53,17.53,0,0,0,1.6,3.14c1.34,2.46,3.78,3.58,6.12,4.66a23.29,23.29,0,0,0,5.14,1.15,1.47,1.47,0,0,0,.52-.11c2.93-.7,5.88-1.35,8.79-2.15,1.49-.41,2.9-1.11,4.36-1.65a37.79,37.79,0,0,1,5.49-1.94,72.09,72.09,0,0,1,8.15-1.06,18.66,18.66,0,0,1,5.17,0c2.69.51,5.28,1.48,8,2.13,3.26.79,6.09-1.43,9.25-1.45a.48.48,0,0,0,.17,0l6.26-2.25c1.42-.51,3.23-.63,4.19-1.59,1.49-1.51,3.43-2.12,5-3.36.49-.39.91-.86,1.39-1.27a28.32,28.32,0,0,0,2.89-2.45c.72-.79,1.07-1.9,1.74-2.73,1.1-1.37,1.19-5.37.19-6.72-1.88-2.54-4.2-4-7.48-3.51-.58.08-1.2,0-1.79,0-4.2.22-8.48-.6-12.56,1.07a2.42,2.42,0,0,1-1.24-.08c-1.3-.28-2.6-.62-3.9-.9-.7-.15-1.41-.23-2.11-.37a41.69,41.69,0,0,0-4.78-1c-2.08-.17-4.2,0-6.29-.09-.44,0-1.21-.51-1.23-.81a9.73,9.73,0,0,1,.32-2.83c.27-1.16,1-2.29,1-3.44a29.34,29.34,0,0,0-.74-7.86c-1.11-4.07-1.28-8.41-1.62-12.66-.24-3,0-6.12-.15-9.17-.42-9,.91-18.12-.94-27.12-.4-2,0-4.19-.7-6a13.93,13.93,0,0,1-.78-5c0-3.42-.19-6.84,0-10.25.32-5.82-.42-11.63.79-17.47,1.06-5.15.88-10.53,1.35-15.79.78-8.75.23-17.61.23-26.43a3.37,3.37,0,0,0-.16-1c-.73-2.28-1.46-4.55-2.22-6.82-.3-.89-.64-1.77-1-2.64-.5-1.23-1-2.46-1.54-3.68-.73-1.69-1.49-3.37-2.21-5.07-.59-1.42-1.64-2.88-1.59-4.29a18.49,18.49,0,0,1,1.48-6.64c.76-1.74,2.26-3.17,3.53-4.66s2.73-3,4.13-4.44a66.94,66.94,0,0,0,4.66-4.88c1.89-2.45,3.54-5.1,5.24-7.7a11.53,11.53,0,0,0,1.31-2.6c.66-1.92,3.07-3,4.73-2.16a5.43,5.43,0,0,0,2.24.73c3.71.09,7.43.06,11.15.1a9,9,0,0,1,1.94.25c1.29.3,2.55.79,3.85,1,1.6.21,3.54-.36,4.77.36,2,1.19,4,.74,6,1a19.89,19.89,0,0,0,2.06,0c-.09,1.36.25,2.78-.31,3.55-1.61,2.21-1,4.53-.88,6.86a1.7,1.7,0,0,0,.4.91c1.58,1.92,3.11,3.89,4.84,5.67a2.25,2.25,0,0,0,2.19.2,14.47,14.47,0,0,0,2.4-3.21c1.4-2.26,2.76-4.56,4.09-6.88.6-1.05,1.11-2.16,1.61-3.26.72-1.63,1.8-3.23,2-4.92.27-2.5,1.93-3.69,3.53-5.35a48.39,48.39,0,0,1,4,6,34.44,34.44,0,0,1,2.51,7.52c.62,2.85.26,5.81,1.43,8.66.83,2,.12,4.4,1.07,6.68s.41,5.05,1.47,7.57c.85,2,.85,4.36,1.07,6.58.55,5.42.83,10.87,1.35,16.3.88,9.31,0,18.76,1.4,28.09a77.07,77.07,0,0,1,1.3,10.31c.14,11.93.05,23.87,0,35.8,0,1.92-.66,3.84-.66,5.76s.71,3.87.61,5.78c-.17,3.2.36,6.05,2.75,8.33a24.61,24.61,0,0,0,3.42,2.88c1.32.85,2.86,1.36,4.21,2.17a19.62,19.62,0,0,0,7.81,3.14c1.4.17,2.6,1,2.36,2.68-.3,2.08-.79,4.13-1.27,6.18s-.91,3.82-1.51,5.69-1.61,3.6-2,5.48a47.65,47.65,0,0,0-1.36,9.46c0,3.68-.71,7.36.67,11.1a18.91,18.91,0,0,0,4.08,7.18c2.09,2.1,3.9,2.31,5.11.21.67-1.16.79-1.17,1.63-.17,1.06,1.26,2.35,2.33,4,.52a5.39,5.39,0,0,1,2.09-1.19,1.43,1.43,0,0,1,1.19.2,19.41,19.41,0,0,1,1.71,1.72,9.77,9.77,0,0,0,4.64-3c.33-.34,1.11-.21,1.67-.38a21.12,21.12,0,0,1,2.51-.84,10.21,10.21,0,0,1,2.26.14c.72,0,1.92.36,2.09.07.78-1.31,2-2.43,1.79-4.27a7.59,7.59,0,0,1,.37-3.7c1.16-2.84.92-5.72.42-8.56s-1.84-5.52-2-8.32c-.36-7.24-.3-14.5-.34-21.75a20.85,20.85,0,0,1,.47-4.46c.59-2.69,1.63-5.31,2-8,.5-3.78-.42-7.55-.73-11.32-.52-6.32-.22-12.7-.29-19.05,0-.83-.2-1.66-.27-2.49s-.09-1.41-.08-2.11c0-1.78.22-3.56.07-5.33-.11-1.42-.74-2.8-.92-4.23s.07-2.64-.05-3.95c-.31-3.22-.83-6.43-1.06-9.66s-.18-6.23-.28-9.35a9.13,9.13,0,0,0-.24-1.95c-.73-2.75-1.51-5.49-2.27-8.24-.08-.29-.1-.59-.17-.88-.74-3.1-1.83-6.18-2.13-9.33a89.25,89.25,0,0,1,0-11.68c.17-4.46.09-8.87-1.53-13.11-.08-.21-.22-.41-.32-.62-1.1-2.38-2.34-4.7-3.25-7.15a55.4,55.4,0,0,1-1.57-6,4.94,4.94,0,0,0-.19-.49c-.73-2.1-2-4.18-2.08-6.32-.32-5.44-.14-10.91-.13-16.36a15.78,15.78,0,0,1,.24-3.58c.63-2.68,1.62-5.28,2.13-8s.46-5.18,1.09-7.81c1-4.33,1.09-8.89,1.57-13.35a3,3,0,0,1,.25-.61,32.05,32.05,0,0,0,3.53,0c.45,0,1.16-.5,1.23-.88a74.92,74.92,0,0,0,1.28-7.7c.25-2.68.28-5.39.29-8.09a76.52,76.52,0,0,0-.3-7.72c-.21-2-.89-3.92-1.19-5.89-.54-3.55-.94-7.12-1.4-10.68a5,5,0,0,0-.11-.53c-.73-3.28-1.37-6.59-2.23-9.85a44.06,44.06,0,0,0-2.21-6.07c-.48-1.1-.52-3.32.24-3.55l6.45-1.91c3.12,7.19,3.46,4.89,8.16,7.37,0,.78,0,1.62,0,2.45.09,1.85-.16,3.82.4,5.52A64.15,64.15,0,0,0,340.4,241c.39.83.88,1.61,1.25,2.45a71.22,71.22,0,0,0,2.86,6.57,14.18,14.18,0,0,1,2.24,6.7,5.53,5.53,0,0,0,.51,2.07c1.24,2.72.91,4.82-1.18,7.06-1.67,1.8-3.37,3.56-5,5.42-1.13,1.32-2.56,2.64-3,4.21a8.37,8.37,0,0,0,1.55,8.26c2.27,2.48,3.33,5.5,4.68,8.44a22.11,22.11,0,0,0,2.93,3.92c.05.07.22.05.34.08,1.94.37,3.86.68,5.61-.68.22-.17.85,0,1.15.17,1.05.68,4,.68,5.12.19a3.42,3.42,0,0,1,2.3-.05,2.93,2.93,0,0,0,3.21-.24c1.38-1,2.82-2,4.91-1.81,3.12.32,4.83-1.53,4.84-4.74,0-7.25-.07-14.51.08-21.76a34.54,34.54,0,0,1,1.18-6c0-.11.07-.26.15-.31,1.55-.92,3.08-1.88,4.66-2.73,1.2-.65,2.56-1,3.7-1.74a6.89,6.89,0,0,0,2.74-2.6,37.62,37.62,0,0,0,1.39-6c.74-3.47-1.3-6.55-1.4-9.9a.32.32,0,0,0-.06-.17,9.68,9.68,0,0,1-2.4-7.49,2.79,2.79,0,0,0-.3-1.18c-.69-1.67-1.43-3.32-2.1-5-.41-1-.71-2-1.09-3-.46-1.24-1-2.45-1.43-3.71-.58-1.72-1-3.51-1.64-5.21-.9-2.35-2.34-4.51-2.35-7.15a2.72,2.72,0,0,0-.22-.87c-.76-2.05-1.57-4.09-2.29-6.16-.48-1.42-.76-2.91-1.26-4.32-.81-2.3-1.72-4.57-2.59-6.85-.13-.33-.31-.64-.44-1-.65-1.6-1.3-3.2-1.93-4.81-.56-1.43-1.09-2.87-1.66-4.29a23.76,23.76,0,0,0-1.46-3.34c-1-1.61-2.13-3.11-3.18-4.67s-1.74-3.26-3-4.46c-1.78-1.67-3.3-3.58-6-4.41-2.38-.74-4.45-2.5-7.19-2.22a2.94,2.94,0,0,1-1.06-.13c-2.65-.74-5.27-1.6-7.95-2.18a29.84,29.84,0,0,1-5-1.05,65.25,65.25,0,0,0-10.25-2.62c-2.61-.57-5.27-.29-7.95-1.27-2.86-1-6.25.12-9.27-1.47-1.57-.83-3.5-1-5.25-1.45-.24-.06-.42-.36-.6-.58-2.09-2.41-4.14-4.86-6.27-7.25a29.6,29.6,0,0,0-9.42-7.54,10.94,10.94,0,0,1-2.75-1.32c-2.42-2.18-5.6-2.3-8.44-3.21a41.63,41.63,0,0,0-8.52-1.38c-3.77-.36-7.59,0-11.29-1.32-1.47-.52-3.49.23-4.76-.49-2.32-1.3-4.61-.71-6.93-.8-1,0-1.92,0-2.87-.08a1.52,1.52,0,0,1-1-.31c-1.23-1.35-2.44-2.72-3.59-4.15-.43-.53-.57-1.63-1-1.74-1.83-.46-2.26-2.14-3.2-3.32s-1.72-2.94-2.77-4.26c-2.36-3-4.85-5.9-7.28-8.83A45.18,45.18,0,0,0,214,97.09c-1.75-1.7-3.72-3.17-5.51-4.83-1.34-1.24-2.53-2.65-3.82-4-.39-.39-.94-.62-1.35-1-2.14-2-4.23-4-6.42-5.86-.69-.6-1.67-.87-2.42-1.42-1.49-1.08-2.87-2.31-4.37-3.38-1.12-.8-1.47-3.09-.44-4a4.93,4.93,0,0,0,2-4.41c-.23-2,1-2.8,2.64-3.23s2.53-1.2,2.56-2.87c0-3-.12-6.11.14-9.15a16.19,16.19,0,0,1,1.51-5.39c.84-1.78,2.42-3.22,3.17-5a36.37,36.37,0,0,0,1.47-6.2c.09-.41,0-.9.19-1.23,1.61-2.66,1-5.57.83-8.37a16.43,16.43,0,0,0-1.42-4.88,19.39,19.39,0,0,0-2.11-3.35,50.39,50.39,0,0,0-3.2-4.43A12.8,12.8,0,0,0,194,11.05C192,10,190.47,8,188,7.62a11.57,11.57,0,0,1-3.42-1.53c-2.08-1.09-4.12-2.24-6.19-3.34a6.48,6.48,0,0,0-2.49-1.09A54,54,0,0,1,166.39.3a28.1,28.1,0,0,0-7.88,0A13.77,13.77,0,0,0,153.69,2c-1.66.89-3.05,2.25-4.67,3.21a17.62,17.62,0,0,0-6.92,7,34.47,34.47,0,0,1-2.38,3.34c-1.69,2.47-3.79,4.74-3.94,8a2.26,2.26,0,0,1-.2.86c-1.16,2.19-2.3,4.39-2.35,7a1.62,1.62,0,0,1-.18.87c-2.08,2.64-.52,6.09-2.06,9-.71,1.33-.55,3.36-.24,5,.57,2.94-1.5,4.34-3,6.1s-3.3,3.53-4.76,5.43c-1,1.37-1.85,2.78-3.93,2.44a4.47,4.47,0,0,0-2.3.21c-3,1.29-6.49,1.34-9.31,3.4a52.7,52.7,0,0,1-6.36,3.48c-1.85,1-3.68,2-5.53,3a29.83,29.83,0,0,0-2.81,1.46c-1.68,1.16-3.23,2.52-4.94,3.64-2,1.32-4.14,2.36-6.08,3.73C80,80.2,78.1,81.37,77,83.39a51.27,51.27,0,0,1-3.65,5.29c-1.51,2-3.23,3.94-4.64,6-1.83,2.76-3.45,5.66-5.18,8.5-.42.69-.94,1.33-1.32,2-.67,1.3-1.28,2.63-1.89,4-.7,1.52-1.43,3-2,4.57-.54,1.39-.63,3-1.44,4.21a11.7,11.7,0,0,0-2.43,5.82,1.44,1.44,0,0,1-.16.51c-.73,1.65-1.49,3.29-2.21,5a34.65,34.65,0,0,1-1.76,4.1A14.15,14.15,0,0,0,48,138.67a39.68,39.68,0,0,1-1.51,5.5c-.67,2.27-1.49,4.49-2.06,6.78-.63,2.51-1,5.07-1.56,7.6,0,.12-.08.23-.11.34-.78,2.7-1.53,5.41-2.34,8.11-.45,1.53-.93,3.07-1.5,4.57a19,19,0,0,1-1.33,2.62c-.68,1.2-1.48,2.33-2.1,3.56a39.83,39.83,0,0,0-1.68,3.92,58.72,58.72,0,0,0-2.2,6.34c-.35,1.42-.08,3-.24,4.48-.24,2.33-.73,4.6-2.77,6.16-.22.17-.52.4-.56.64-.43,2.51-2.12,4.68-1.69,7.45.31,2-.18,4.13.24,6.09.8,3.78-1.82,6-3.5,8.61a33.52,33.52,0,0,0-2.77,4.31,67,67,0,0,0-2.54,7.51c-.6,2.06-.93,4.19-1.5,6.26a34,34,0,0,1-1.53,4.39c-.65,1.51-1.72,2.88-2.16,4.44-.66,2.26-.91,4.64-1.36,7a12,12,0,0,1-.48,1.51,58.18,58.18,0,0,0-1.87,5.54,15.23,15.23,0,0,0-.16,3.94c.11,3.52.06,7-1.35,10.32-.13.3-.45.52-.58.81-1,2.28-2.69,4.39-1.66,7.14,3.41.82,3.56,1,3.66,4.69a14.16,14.16,0,0,0,.4,3.32c.6,2.18,1.4,4.29,2.06,6.45A46,46,0,0,0,13,304.83c.92,2.05,2,3.93,2.25,6.28a23.79,23.79,0,0,0,1.35,4.64c0,.11.09.22.13.33.71,1.78,2.07,3.58,2,5.35-.18,7,1.58,14-.94,20.88-1,2.7-1.63,5.51-2.48,8.26-.89,2.91-1.78,5.83-2.78,8.71-.62,1.78-1.55,3.45-2.16,5.23a23.06,23.06,0,0,0-1.53,5.79c-.26,4.3-.13,8.63-.18,12.95a7.84,7.84,0,0,1-.12,1.61c-.71,3.25-1.52,6.47-2.15,9.74q-.81,4.18-1.3,8.42c-.55,4.59-1,9.18-1.45,13.78-.1.94-.24,1.89-.43,2.82a26,26,0,0,0-.71,3.06c-.59,8.4.64,16.86-1.1,25.24-.58,2.76-.2,5.73-.22,8.61,0,.65-.07,1.58.3,1.9,1.25,1.06,1,2.4.79,3.61-.32,1.85-.54,3.91-1.52,5.4-1.87,2.83.26,4.8,1,7,.69,1.95,2.44,3.58,2.9,5.54.5,2.15,1.94,3.39,3.14,4.91a1.6,1.6,0,0,0,1.21.6c3.1-.35,6.19.69,9.38-.81a29.2,29.2,0,0,0,7.32-4.95c1.69-1.54,3.08-3.41,4.69-5a5,5,0,0,1,2.32-1.59c1.9-.37,3.77-.71,5.65-1.21a36.81,36.81,0,0,0,7.89-3,6.08,6.08,0,0,0,3-3.08,76.61,76.61,0,0,0,1.49-9c.06-.42.07-.84.16-1.25.7-3.15,1.73-6.26,2-9.44.56-5.74,0-11.52,1.34-17.27,1-4.35-.11-9,1.16-13.48.94-3.35.21-7,1.4-10.5.84-2.51.22-5.42,1.23-8.14.81-2.2.47-4.67,1.2-7.07.86-2.81.64-6,1.39-9,.83-3.3,0-6.79,1.18-10.2.86-2.6.14-5.58,1.37-8.33.77-1.74.41-3.82,1.13-5.8,1-2.78,1-5.93,1.57-8.9.4-2.14,1-4.25,1.48-6.38,0-.11.14-.2.18-.31.69-1.63,1.32-3.28,2.06-4.89,1-2.1,2-4.16,3.21-6.65A11.6,11.6,0,0,0,74,331.81c2.36,2.7,4.81,5.33,7.22,8,3.1,3.4,6.16,6.83,9.31,10.18,4.11,4.39,8.28,8.72,12.46,13,.63.66,1.53,1.07,2.15,1.73s1.22,1.94,2.07,2.59c3,2.27,4.93,5.38,6.72,8.46,1,1.75,2.63,3.1,3.22,5.3s2.39,3.88,3.56,5.85c.6,1,1,2.13,1.48,3.19.69,1.44,1.53,2.82,2.09,4.31.65,1.74,1,3.58,1.61,5.35.38,1.12.94,2.18,1.37,3.29a43.7,43.7,0,0,1,2.1,5.65c.69,2.86,1.07,5.79,1.58,8.7a3.28,3.28,0,0,0,.17.5c.71,2,1.54,4,2.11,6s1,4.32,1.45,6.48a4.1,4.1,0,0,0,.21.48c.72,1.92,1.45,3.82,2.14,5.75.33.93.59,1.9,1,3.13a7.33,7.33,0,0,1-5.32,2.55c-1.43.13-2.88,0-4.31.1a2.42,2.42,0,0,0-1.36.3,10,10,0,0,0-4.06,9.68c.39,3,1.48,3.94,4.5,4.1.59,0,1.17.19,1.76.24a37.71,37.71,0,0,0,5.78.45C137.66,457,140.32,456.48,142.83,456.12Z"/><path d="M142.83,456.12c-2.51.36-5.17.91-7.85,1.08a37.71,37.71,0,0,1-5.78-.45c-.59-.05-1.17-.21-1.76-.24-3-.16-4.11-1.11-4.5-4.1a10,10,0,0,1,4.06-9.68,2.42,2.42,0,0,1,1.36-.3c1.43-.06,2.88,0,4.31-.1a7.33,7.33,0,0,0,5.32-2.55c-.38-1.23-.64-2.2-1-3.13-.69-1.93-1.42-3.83-2.14-5.75a4.1,4.1,0,0,1-.21-.48c-.48-2.16-.84-4.35-1.45-6.48s-1.4-4-2.11-6a3.28,3.28,0,0,1-.17-.5c-.51-2.91-.89-5.84-1.58-8.7a43.7,43.7,0,0,0-2.1-5.65c-.43-1.11-1-2.17-1.37-3.29-.58-1.77-1-3.61-1.61-5.35-.56-1.49-1.4-2.87-2.09-4.31-.51-1.06-.88-2.19-1.48-3.19-1.17-2-3-3.74-3.56-5.85s-2.2-3.55-3.22-5.3c-1.79-3.08-3.77-6.19-6.72-8.46-.85-.65-1.31-1.79-2.07-2.59s-1.52-1.07-2.15-1.73c-4.18-4.33-8.35-8.66-12.46-13-3.15-3.35-6.21-6.78-9.31-10.18-2.41-2.65-4.86-5.28-7.22-8a11.6,11.6,0,0,1-1.16-2.63c-1.21,2.49-2.25,4.55-3.21,6.65-.74,1.61-1.37,3.26-2.06,4.89,0,.11-.15.2-.18.31-.5,2.13-1.08,4.24-1.48,6.38-.55,3-.55,6.12-1.57,8.9-.72,2-.36,4.06-1.13,5.8-1.23,2.75-.51,5.73-1.37,8.33-1.14,3.41-.35,6.9-1.18,10.2-.75,3-.53,6.18-1.39,9-.73,2.4-.39,4.87-1.2,7.07-1,2.72-.39,5.63-1.23,8.14-1.19,3.52-.46,7.15-1.4,10.5-1.27,4.5-.15,9.13-1.16,13.48-1.35,5.75-.78,11.53-1.34,17.27-.31,3.18-1.34,6.29-2,9.44-.09.41-.1.83-.16,1.25a76.61,76.61,0,0,1-1.49,9,6.08,6.08,0,0,1-3,3.08,36.81,36.81,0,0,1-7.89,3c-1.88.5-3.75.84-5.65,1.21a5,5,0,0,0-2.32,1.59c-1.61,1.63-3,3.5-4.69,5a29.2,29.2,0,0,1-7.32,4.95c-3.19,1.5-6.28.46-9.38.81a1.6,1.6,0,0,1-1.21-.6c-1.2-1.52-2.64-2.76-3.14-4.91-.46-2-2.21-3.59-2.9-5.54-.77-2.19-2.9-4.16-1-7,1-1.49,1.2-3.55,1.52-5.4.22-1.21.46-2.55-.79-3.61-.37-.32-.31-1.25-.3-1.9,0-2.88-.36-5.85.22-8.61,1.74-8.38.51-16.84,1.1-25.24a26,26,0,0,1,.71-3.06c.19-.93.33-1.88.43-2.82.49-4.6.9-9.19,1.45-13.78q.5-4.23,1.3-8.42c.63-3.27,1.44-6.49,2.15-9.74a7.84,7.84,0,0,0,.12-1.61c.05-4.32-.08-8.65.18-12.95a23.06,23.06,0,0,1,1.53-5.79c.61-1.78,1.54-3.45,2.16-5.23,1-2.88,1.89-5.8,2.78-8.71.85-2.75,1.49-5.56,2.48-8.26,2.52-6.87.76-13.92.94-20.88,0-1.77-1.32-3.57-2-5.35,0-.11-.1-.22-.13-.33a23.79,23.79,0,0,1-1.35-4.64c-.2-2.35-1.33-4.23-2.25-6.28A46,46,0,0,1,11.29,299c-.66-2.16-1.46-4.27-2.06-6.45a14.16,14.16,0,0,1-.4-3.32c-.1-3.65-.25-3.87-3.66-4.69-1-2.75.7-4.86,1.66-7.14.13-.29.45-.51.58-.81,1.41-3.31,1.46-6.8,1.35-10.32a15.23,15.23,0,0,1,.16-3.94,58.18,58.18,0,0,1,1.87-5.54,12,12,0,0,0,.48-1.51c.45-2.33.7-4.71,1.36-7,.44-1.56,1.51-2.93,2.16-4.44a34,34,0,0,0,1.53-4.39c.57-2.07.9-4.2,1.5-6.26a67,67,0,0,1,2.54-7.51,33.52,33.52,0,0,1,2.77-4.31c1.68-2.65,4.3-4.83,3.5-8.61-.42-2,.07-4.1-.24-6.09-.43-2.77,1.26-4.94,1.69-7.45,0-.24.34-.47.56-.64,2-1.56,2.53-3.83,2.77-6.16.16-1.49-.11-3.06.24-4.48a58.72,58.72,0,0,1,2.2-6.34,39.83,39.83,0,0,1,1.68-3.92c.62-1.23,1.42-2.36,2.1-3.56A19,19,0,0,0,39,171.57c.57-1.5,1-3,1.5-4.57.81-2.7,1.56-5.41,2.34-8.11,0-.11.08-.22.11-.34.51-2.53.93-5.09,1.56-7.6.57-2.29,1.39-4.51,2.06-6.78a39.68,39.68,0,0,0,1.51-5.5,14.15,14.15,0,0,1,2.21-5.29,34.65,34.65,0,0,0,1.76-4.1c.72-1.66,1.48-3.3,2.21-5a1.44,1.44,0,0,0,.16-.51A11.7,11.7,0,0,1,56.81,118c.81-1.17.9-2.82,1.44-4.21.6-1.55,1.33-3.05,2-4.57.61-1.32,1.22-2.65,1.89-4,.38-.71.9-1.35,1.32-2,1.73-2.84,3.35-5.74,5.18-8.5,1.41-2.11,3.13-4,4.64-6A51.27,51.27,0,0,0,77,83.39c1.14-2,3-3.19,4.76-4.43,1.94-1.37,4.1-2.41,6.08-3.73,1.71-1.12,3.26-2.48,4.94-3.64a29.83,29.83,0,0,1,2.81-1.46c1.85-1,3.68-2,5.53-3a52.7,52.7,0,0,0,6.36-3.48c2.82-2.06,6.26-2.11,9.31-3.4a4.47,4.47,0,0,1,2.3-.21c2.08.34,2.89-1.07,3.93-2.44,1.46-1.9,3.19-3.6,4.76-5.43s3.58-3.16,3-6.1c-.31-1.6-.47-3.63.24-5,1.54-2.87,0-6.32,2.06-9a1.62,1.62,0,0,0,.18-.87c.05-2.56,1.19-4.76,2.35-7a2.26,2.26,0,0,0,.2-.86c.15-3.23,2.25-5.5,3.94-8a34.47,34.47,0,0,0,2.38-3.34,17.62,17.62,0,0,1,6.92-7c1.62-1,3-2.32,4.67-3.21a13.77,13.77,0,0,1,4.82-1.7,28.1,28.1,0,0,1,7.88,0,54,54,0,0,0,9.47,1.36,6.48,6.48,0,0,1,2.49,1.09c2.07,1.1,4.11,2.25,6.19,3.34A11.57,11.57,0,0,0,188,7.62c2.51.37,4,2.33,6.07,3.43a12.8,12.8,0,0,1,3.43,3.07,50.39,50.39,0,0,1,3.2,4.43,19.39,19.39,0,0,1,2.11,3.35,16.43,16.43,0,0,1,1.42,4.88c.22,2.8.78,5.71-.83,8.37-.19.33-.1.82-.19,1.23a36.37,36.37,0,0,1-1.47,6.2c-.75,1.8-2.33,3.24-3.17,5A16.19,16.19,0,0,0,197,53c-.26,3-.1,6.1-.14,9.15,0,1.67-1,2.46-2.56,2.87s-2.87,1.21-2.64,3.23a4.93,4.93,0,0,1-2,4.41c-1,.91-.68,3.2.44,4,1.5,1.07,2.88,2.3,4.37,3.38.75.55,1.73.82,2.42,1.42,2.19,1.9,4.28,3.91,6.42,5.86.41.38,1,.61,1.35,1,1.29,1.3,2.48,2.71,3.82,4,1.79,1.66,3.76,3.13,5.51,4.83a45.18,45.18,0,0,1,3.18,3.81c2.43,2.93,4.92,5.83,7.28,8.83,1.05,1.32,1.71,2.94,2.77,4.26s1.37,2.86,3.2,3.32c.46.11.6,1.21,1,1.74,1.15,1.43,2.36,2.8,3.59,4.15a1.52,1.52,0,0,0,1,.31c.95.06,1.91,0,2.87.08,2.32.09,4.61-.5,6.93.8,1.27.72,3.29,0,4.76.49,3.7,1.3,7.52,1,11.29,1.32a41.63,41.63,0,0,1,8.52,1.38c2.84.91,6,1,8.44,3.21a10.94,10.94,0,0,0,2.75,1.32,29.6,29.6,0,0,1,9.42,7.54c2.13,2.39,4.18,4.84,6.27,7.25.18.22.36.52.6.58,1.75.49,3.68.62,5.25,1.45,3,1.59,6.41.43,9.27,1.47,2.68,1,5.34.7,7.95,1.27a65.25,65.25,0,0,1,10.25,2.62,29.84,29.84,0,0,0,5,1.05c2.68.58,5.3,1.44,7.95,2.18a2.94,2.94,0,0,0,1.06.13c2.74-.28,4.81,1.48,7.19,2.22,2.68.83,4.2,2.74,6,4.41,1.27,1.2,2,3,3,4.46s2.21,3.06,3.18,4.67a23.76,23.76,0,0,1,1.46,3.34c.57,1.42,1.1,2.86,1.66,4.29.63,1.61,1.28,3.21,1.93,4.81.13.33.31.64.44,1,.87,2.28,1.78,4.55,2.59,6.85.5,1.41.78,2.9,1.26,4.32.72,2.07,1.53,4.11,2.29,6.16a2.72,2.72,0,0,1,.22.87c0,2.64,1.45,4.8,2.35,7.15.66,1.7,1.06,3.49,1.64,5.21.42,1.26,1,2.47,1.43,3.71.38,1,.68,2,1.09,3,.67,1.67,1.41,3.32,2.1,5a2.79,2.79,0,0,1,.3,1.18,9.68,9.68,0,0,0,2.4,7.49.32.32,0,0,1,.06.17c.1,3.35,2.14,6.43,1.4,9.9a37.62,37.62,0,0,1-1.39,6,6.89,6.89,0,0,1-2.74,2.6c-1.14.73-2.5,1.09-3.7,1.74-1.58.85-3.11,1.81-4.66,2.73-.08.05-.12.2-.15.31a34.54,34.54,0,0,0-1.18,6c-.15,7.25-.06,14.51-.08,21.76,0,3.21-1.72,5.06-4.84,4.74-2.09-.22-3.53.77-4.91,1.81a2.93,2.93,0,0,1-3.21.24,3.42,3.42,0,0,0-2.3.05c-1.14.49-4.07.49-5.12-.19-.3-.2-.93-.34-1.15-.17-1.75,1.36-3.67,1.05-5.61.68-.12,0-.29,0-.34-.08a22.11,22.11,0,0,1-2.93-3.92c-1.35-2.94-2.41-6-4.68-8.44a8.37,8.37,0,0,1-1.55-8.26c.47-1.57,1.9-2.89,3-4.21,1.6-1.86,3.3-3.62,5-5.42,2.09-2.24,2.42-4.34,1.18-7.06a5.53,5.53,0,0,1-.51-2.07,14.18,14.18,0,0,0-2.24-6.7,71.22,71.22,0,0,1-2.86-6.57c-.37-.84-.86-1.62-1.25-2.45a64.15,64.15,0,0,1-3.44-7.51c-.56-1.7-.31-3.67-.4-5.52,0-.83,0-1.67,0-2.45-4.7-2.48-5-.18-8.16-7.37l-6.45,1.91c-.76.23-.72,2.45-.24,3.55a44.06,44.06,0,0,1,2.21,6.07c.86,3.26,1.5,6.57,2.23,9.85a5,5,0,0,1,.11.53c.46,3.56.86,7.13,1.4,10.68.3,2,1,3.9,1.19,5.89a76.52,76.52,0,0,1,.3,7.72c0,2.7,0,5.41-.29,8.09a74.92,74.92,0,0,1-1.28,7.7c-.07.38-.78.84-1.23.88a32.05,32.05,0,0,1-3.53,0,3,3,0,0,0-.25.61c-.48,4.46-.53,9-1.57,13.35-.63,2.63-.6,5.24-1.09,7.81s-1.5,5.3-2.13,8a15.78,15.78,0,0,0-.24,3.58c0,5.45-.19,10.92.13,16.36.12,2.14,1.35,4.22,2.08,6.32a4.94,4.94,0,0,1,.19.49,55.4,55.4,0,0,0,1.57,6c.91,2.45,2.15,4.77,3.25,7.15.1.21.24.41.32.62,1.62,4.24,1.7,8.65,1.53,13.11a89.25,89.25,0,0,0,0,11.68c.3,3.15,1.39,6.23,2.13,9.33.07.29.09.59.17.88.76,2.75,1.54,5.49,2.27,8.24a9.13,9.13,0,0,1,.24,1.95c.1,3.12.06,6.24.28,9.35s.75,6.44,1.06,9.66c.12,1.31-.11,2.65.05,3.95s.81,2.81.92,4.23c.15,1.77-.05,3.55-.07,5.33,0,.7,0,1.41.08,2.11s.26,1.66.27,2.49c.07,6.35-.23,12.73.29,19.05.31,3.77,1.23,7.54.73,11.32-.36,2.72-1.4,5.34-2,8a20.85,20.85,0,0,0-.47,4.46c0,7.25,0,14.51.34,21.75.15,2.8,1.49,5.51,2,8.32s.74,5.72-.42,8.56a7.59,7.59,0,0,0-.37,3.7c.24,1.84-1,3-1.79,4.27-.17.29-1.37,0-2.09-.07a10.21,10.21,0,0,0-2.26-.14,21.12,21.12,0,0,0-2.51.84c-.56.17-1.34,0-1.67.38a9.77,9.77,0,0,1-4.64,3,19.41,19.41,0,0,0-1.71-1.72,1.43,1.43,0,0,0-1.19-.2,5.39,5.39,0,0,0-2.09,1.19c-1.65,1.81-2.94.74-4-.52-.84-1-1-1-1.63.17-1.21,2.1-3,1.89-5.11-.21a18.91,18.91,0,0,1-4.08-7.18c-1.38-3.74-.71-7.42-.67-11.1a47.65,47.65,0,0,1,1.36-9.46c.4-1.88,1.41-3.63,2-5.48s1.06-3.78,1.51-5.69,1-4.1,1.27-6.18c.24-1.65-1-2.51-2.36-2.68a19.62,19.62,0,0,1-7.81-3.14c-1.35-.81-2.89-1.32-4.21-2.17a24.61,24.61,0,0,1-3.42-2.88c-2.39-2.28-2.92-5.13-2.75-8.33.1-1.91-.62-3.85-.61-5.78s.64-3.84.66-5.76c.09-11.93.18-23.87,0-35.8a77.07,77.07,0,0,0-1.3-10.31c-1.37-9.33-.52-18.78-1.4-28.09-.52-5.43-.8-10.88-1.35-16.3-.22-2.22-.22-4.6-1.07-6.58-1.06-2.52-.51-5.28-1.47-7.57s-.24-4.66-1.07-6.68c-1.17-2.85-.81-5.81-1.43-8.66a34.44,34.44,0,0,0-2.51-7.52,48.39,48.39,0,0,0-4-6c-1.6,1.66-3.26,2.85-3.53,5.35-.18,1.69-1.26,3.29-2,4.92-.5,1.1-1,2.21-1.61,3.26-1.33,2.32-2.69,4.62-4.09,6.88a14.47,14.47,0,0,1-2.4,3.21A2.25,2.25,0,0,1,253,340c-1.73-1.78-3.26-3.75-4.84-5.67a1.7,1.7,0,0,1-.4-.91c-.12-2.33-.73-4.65.88-6.86.56-.77.22-2.19.31-3.55a19.89,19.89,0,0,1-2.06,0c-2-.22-4,.23-6-1-1.23-.72-3.17-.15-4.77-.36-1.3-.17-2.56-.66-3.85-1a9,9,0,0,0-1.94-.25c-3.72,0-7.44,0-11.15-.1a5.43,5.43,0,0,1-2.24-.73c-1.66-.88-4.07.24-4.73,2.16a11.53,11.53,0,0,1-1.31,2.6c-1.7,2.6-3.35,5.25-5.24,7.7a66.94,66.94,0,0,1-4.66,4.88c-1.4,1.46-2.81,2.91-4.13,4.44s-2.77,2.92-3.53,4.66a18.49,18.49,0,0,0-1.48,6.64c-.05,1.41,1,2.87,1.59,4.29.72,1.7,1.48,3.38,2.21,5.07.53,1.22,1,2.45,1.54,3.68.36.87.7,1.75,1,2.64.76,2.27,1.49,4.54,2.22,6.82a3.37,3.37,0,0,1,.16,1c0,8.82.55,17.68-.23,26.43-.47,5.26-.29,10.64-1.35,15.79-1.21,5.84-.47,11.65-.79,17.47-.19,3.41,0,6.83,0,10.25a13.93,13.93,0,0,0,.78,5c.7,1.83.3,4.05.7,6,1.85,9,.52,18.09.94,27.12.14,3.05-.09,6.13.15,9.17.34,4.25.51,8.59,1.62,12.66a29.34,29.34,0,0,1,.74,7.86c0,1.15-.69,2.28-1,3.44a9.73,9.73,0,0,0-.32,2.83c0,.3.79.79,1.23.81,2.09.09,4.21-.08,6.29.09a41.69,41.69,0,0,1,4.78,1c.7.14,1.41.22,2.11.37,1.3.28,2.6.62,3.9.9a2.42,2.42,0,0,0,1.24.08c4.08-1.67,8.36-.85,12.56-1.07.59,0,1.21.09,1.79,0,3.28-.48,5.6,1,7.48,3.51,1,1.35.91,5.35-.19,6.72-.67.83-1,1.94-1.74,2.73a28.32,28.32,0,0,1-2.89,2.45c-.48.41-.9.88-1.39,1.27-1.57,1.24-3.51,1.85-5,3.36-1,1-2.77,1.08-4.19,1.59l-6.26,2.25a.48.48,0,0,1-.17,0c-3.16,0-6,2.24-9.25,1.45-2.67-.65-5.26-1.62-8-2.13a18.66,18.66,0,0,0-5.17,0,72.09,72.09,0,0,0-8.15,1.06,37.79,37.79,0,0,0-5.49,1.94c-1.46.54-2.87,1.24-4.36,1.65-2.91.8-5.86,1.45-8.79,2.15a1.47,1.47,0,0,1-.52.11,23.29,23.29,0,0,1-5.14-1.15c-2.34-1.08-4.78-2.2-6.12-4.66a17.53,17.53,0,0,1-1.6-3.14,60.19,60.19,0,0,1-1.41-6.08q-.72-3.84-1.25-7.7c-.16-1.12.14-2.34-.18-3.4a10.8,10.8,0,0,0-1.74-2.72,16.88,16.88,0,0,1-1.84-2.69c-1.71-4.07-.36-8.69-1.66-12.62-1.17-3.56-.12-7.23-1.73-10.66-.74-1.56-.29-3.66-.5-5.5-.41-3.68-.46-7.49-1.52-11-.75-2.47-.43-5-1.24-7.28-1.11-3.08-.71-6.22-1.29-9.28C143.92,462.09,143.44,459.42,142.83,456.12Zm12-250.3c-1.66,1.88-3.32,3.75-4.94,5.67-.12.14.14.61.23.93a3.7,3.7,0,0,0,.92-.51,9.43,9.43,0,0,0,1.75-2.17c.63-1.34,2.31-2.17,2-4,1.38,1.08,1.5-.85,2.36-1.1.24-.07.11-1.4.15-2.16l-.77-.21C156,203.48,155.4,204.65,154.84,205.82ZM5.25,461.46a17.29,17.29,0,0,1,8.5,1.39c1.22.49,2.44,1,3.68,1.45,2,.73,4,1.51,6.1,2.09,1.25.35,2.6.31,3.88.56,1,.2,2,.87,2.94.83,4.77-.15,9.61,1.12,14.32-1.16,1.33-.64,2.26-.87,2.26-2.43a2.51,2.51,0,0,1,.18-.69,49.48,49.48,0,0,0,2.13-7.08c.59-4,.23-8,1.09-12.05.93-4.38.34-9,1.35-13.49,1-4.69,0-9.69,1.27-14.51.77-2.93.29-6,1.22-9.11,1-3.4.34-7.23,1.41-10.82.55-1.85.19-3.95.54-5.88.56-3.17,1.46-6.28,2-9.44s.19-6.3,1.11-9.5.44-6.63,1.44-9.95c1-3.16,1-6.58,1.51-9.89a4.52,4.52,0,0,1,.11-.53c.75-2.76,1.51-5.51,2.26-8.27.51-1.91.86-3.86,1.52-5.71a57.67,57.67,0,0,1,2.56-5.6c.68-1.4,1.51-2.73,2.12-4.16a2.2,2.2,0,0,0-.08-1.85c-2-2.51-4-4.91-6.06-7.38q-2.46-3-4.83-6.14a10.41,10.41,0,0,1-1.63-2.62c-.17-.46.37-1.18.59-1.78a12.2,12.2,0,0,1,1.94,1.08c.32.27.33.89.61,1.25,1.55,2,3.14,3.93,4.7,5.9,1.14,1.43,2.2,2.92,3.4,4.3,1.68,1.93,3.66,3.63,5.14,5.69,1.91,2.66,4.14,5.05,5.72,8s4.1,5.23,6.29,7.74c2.85,3.24,5.76,6.42,8.68,9.59,2.19,2.39,4.44,4.74,6.68,7.09.44.47.88,1.11,1.44,1.3,3.18,1.05,4.92,3.76,7,6,1.74,1.86,3.3,3.89,4.9,5.87a13.89,13.89,0,0,1,1.37,2c.71,1.27,1.3,2.59,2,3.86,1,1.82,2.11,3.59,3.11,5.42.65,1.18,1.14,2.45,1.79,3.63,1,1.91,2.26,3.72,3.19,5.67a47.4,47.4,0,0,1,1.62,4.75c.39,1.13.86,2.24,1.26,3.37.76,2.1,1.63,4.18,2.21,6.33.66,2.43,1.07,4.93,1.58,7.4,0,.11.1.21.14.32.73,2,1.55,4,2.14,6,.64,2.23.8,4.62,1.66,6.73a11.29,11.29,0,0,1,1.08,4.37,2,2,0,0,0,.21.65c.72,2,1.52,4,2.15,6s1.12,4.15,1.68,6.23c0,.05.07.09.09.15a55.08,55.08,0,0,1,2.11,5.75c.65,2.58,1,5.23,1.48,7.85a2.67,2.67,0,0,0,.11.34,30.68,30.68,0,0,1,2.23,9.45c.05,2.34-.21,4.82.5,7,1.19,3.59.47,7.35,1.73,11,1.06,3,.72,6.55,1.24,9.86.82,5.21.37,10.61,1.54,15.86.37,1.66-.06,3.5.23,5.19.34,2,.8,4,2.5,5.32.62.48,1.74.57,2.07,1.16,1.31,2.33,3.86,2.73,5.8,2.86,6,.39,12,.23,18,0a58.18,58.18,0,0,0,7.82-1.19c.25,0,.47-.31.7-.48,2-1.45,3.9-3.07,6-4.32a7.55,7.55,0,0,0,3.79-5.64,23.11,23.11,0,0,0-.61-9.35c-1.08-3.62-1.28-7.54-1.61-11.36-.68-7.82.19-15.67-1-23.55-1.12-7.35-.79-14.91-1.34-22.39-.7-9.46-1-19.06.62-28.57.66-3.81.34-7.78.6-11.66.09-1.37.89-2.72.85-4.07-.29-9.14,1.36-18.34-.86-27.43-.67-2.72-.82-5.58-1.66-8.23A66.24,66.24,0,0,0,192,360.4c-1-2.08-1.93-4.18-2.94-6.24-.52-1.05-1.13-2.05-1.74-3.05-1-1.66-2.18-3.25-3.14-5-.68-1.21-1-2.63-1.7-3.83-1.95-3.34-4-6.64-6-9.92-1.21-1.95-2.51-3.85-3.76-5.78a17.31,17.31,0,0,1-1.2-2c-1-2.11-1.89-4.25-2.87-6.35-.47-1-1.07-2-1.58-2.95-.68-1.31-1.35-2.63-2-4-.78-1.58-1.49-3.19-2.31-4.75s-1.82-3.18-2.73-4.77c-1.08-1.87-2.08-3.8-3.27-5.6-1-1.54-2.29-2.91-3.36-4.42-.65-.91-.9-2.3-1.74-2.83-2.46-1.56-3.48-4.3-5.57-6.17a70,70,0,0,1-4.8-5.48c-1.72-1.9-3.92-3.49-5.17-5.64a20.7,20.7,0,0,0-5.05-5.64l-1.78,3.48c-1.19,2.31-2.39,4.61-3.56,6.92a14.75,14.75,0,0,0-1.26,2.82c-.58,2.24-1,4.51-1.48,6.76a6.11,6.11,0,0,1-.26.86l-2.1,5.51c-.73,1.93-1.47,3.86-2.17,5.8-.57,1.58-1.17,3.16-1.6,4.78-.6,2.24-1.06,4.51-1.6,6.76,0,.21-.25.37-.39.55a6.14,6.14,0,0,1-5.59,2.65c-3.53-.2-7.06,0-10.48-1.32a41.69,41.69,0,0,0-5.91-1.41c-.11,0-.2-.14-.3-.19-1.72-.79-3.42-1.63-5.17-2.37-1.44-.61-3.08-.87-4.37-1.7a19.9,19.9,0,0,0-8.43-3.33,2.23,2.23,0,0,1-.7-.14,25.11,25.11,0,0,0-9.21-2.35,46,46,0,0,1-5.87-.62c-2.33-.47-4.6-1.27-6.91-1.85s-4.52-1-6.77-1.56a1.89,1.89,0,0,1-.33-.13c-2.17-.72-4.32-1.56-6.53-2.14-2.43-.62-4.92-1-7.39-1.49a.9.9,0,0,1-.34-.1c-2.54-1.77-5.69-1.5-8.48-2a99,99,0,0,1-10.65-2.46,20.1,20.1,0,0,0,.15,2.86c.22,1.16.62,2.28.94,3.41.52,1.91,1,3.82,1.56,5.71a34.57,34.57,0,0,0,1.31,3.7,42.37,42.37,0,0,1,1.95,4.09c.74,2.42,1.67,4.75,2.62,7.09a20.17,20.17,0,0,1,1.35,6.85c.2,5.75.12,11.51.06,17.26a8.86,8.86,0,0,1-.76,2.41c-.54,1.71-1.13,3.4-1.59,5.12-.6,2.22-1.09,4.47-1.62,6.7,0,.06,0,.12,0,.17-.75,1.94-1.53,3.86-2.23,5.81-.56,1.55-1,3.13-1.5,4.71a77.69,77.69,0,0,0-2.23,8,37.66,37.66,0,0,0-.11,6.11c0,2.57.4,5.31-.35,7.68-.91,2.91-.65,5.77-1,8.65-.34,3.08-.94,6.13-1.44,9.19,0,.23-.16.45-.22.68a22.73,22.73,0,0,0-.82,3.4c-.19,2.21,0,4.47-.34,6.63-.48,2.83-1.71,5.54-2,8.37-.57,4.93-.22,9.91-1.2,14.86a40.7,40.7,0,0,0-.22,9.69C3.9,451.65,3.23,456.53,5.25,461.46ZM224.44,126.65c-1.15,1.85-1.15,1.84-3.23,1.93a6.06,6.06,0,0,0-1.42.15,17,17,0,0,1-3.7,1.12c-2.51.11-5-.12-7.55-.24a6.45,6.45,0,0,1-1.22-.25l-4.15-1c0,.76,0,1.1.08,1.33,1.52,2.72,4.62,4.28,5.38,7.63.3,1.35,1.59,2.47,1.91,3.82.43,1.75.81,3.5,1.27,5.25.75,2.83,1.8,5.74,1.34,8.85a33.61,33.61,0,0,0,0,4.49,16.75,16.75,0,0,1-.17,3.4c-.58,2.65-1.79,5.25-1.9,7.9-.24,6.29-.68,12.55-1.52,18.79a38.79,38.79,0,0,1-2.27,7.73c-1.06,3-3.78,4.66-5.07,7.4-.48,1-.25,4.11.62,4.7s1.57,1,2.32,1.61c1.75,1.33,3.14,3,5.13,4.19,2.68,1.57,4.89,3.92,7.46,5.71,2.05,1.43,4.34,2.52,6.72,3.88.67-1.61,1.19-3.16,2-4.58,1.1-2,2.4-4,3.59-5.94a17,17,0,0,1,1.88-3.18c2.42-2.53,3.85-5.63,5.42-8.67.42-.8.9-1.57,1.38-2.35,1.1-1.8,2.17-3.63,3.33-5.4,1.35-2.08,3-4,4.13-6.18s1.93-4.68,2.89-7a11.36,11.36,0,0,1,1.45-3.26,8.79,8.79,0,0,0,2.41-5.61,2.26,2.26,0,0,1,.27-.82c.67-1.43,1.89-2.84,1.92-4.28.12-4.91,1.44-10-.95-14.7-1-2-1.09-4.35-2.66-6.13-.73-.83-1-2.06-1.68-2.94-1.95-2.54-4-5-6-7.47-1.16-1.38-2.41-2.69-3.69-4-.77-.78-1.7-1.4-2.5-2.16-1.28-1.22-2.19-2.84-3.36-4a88.85,88.85,0,0,1-9.38-11c-1-1.46-1.83-3.08-3-4.45-2-2.39-4.11-4.65-6.2-6.94-1.76-1.93-3.52-3.87-5.33-5.75-2-2-4-4-6-6-1.39-1.4-2.7-2.9-4.19-4.19-2.23-1.92-4.63-3.65-6.89-5.54-3.23-2.7-6.73-4.56-11.1-4.74a18.68,18.68,0,0,1-6-1.47c-3.08-1.23-6.09-2.52-9.51-2.43-.61,0-1.22-.43-1.85-.5a12.48,12.48,0,0,0-3.11-.07,14.91,14.91,0,0,0-2.79,1c-.31-1.52-.85-2.72.92-3.16l3.35-.85,1.81-.43a6,6,0,0,0-.7-2.06,52.33,52.33,0,0,0-4.77-5.1A24.42,24.42,0,0,0,154.48,59c-2.31-1.16-4.84-1.86-7.26-2.81-1.3-.51-2.54-1.15-3.84-1.68a27.72,27.72,0,0,0-5.27-2,19.15,19.15,0,0,0-6.09-.11,6.12,6.12,0,0,0-3.55,1.88c-2,2.42-3.64,5.22-5.68,7.63-.9,1.06-2.14,2.85-4.07,1-.28-.27-1-.14-1.57,0-1.25.24-2.49.58-3.73.88a7.85,7.85,0,0,0-1.56.33,49.31,49.31,0,0,0-4.49,2.38c-1.56,1-2.89,2.31-4.67,3-1.07.42-1.92,1.48-3,1.8-2.44.74-4.42,2.23-6.5,3.57s-4.12,2.66-6.2,4a12.86,12.86,0,0,1-2.71,1.49c-2.53.79-3.82,3-5.49,4.72a48.77,48.77,0,0,0-4,5.39c-.81,1.12-1.76,2.14-2.46,3.32-1,1.75-1.85,3.64-2.9,5.39-1.58,2.62-3.18,5.22-4.94,7.71a23.24,23.24,0,0,0-3.93,7.88,8.66,8.66,0,0,1-1.28,3.56c-2.12,2.44-2,5.7-3.49,8.36a40.73,40.73,0,0,0-1.4,4c-.45,1.07-1.13,2-1.63,3.08a37.49,37.49,0,0,0-2.06,4.69c-.62,2-1,4-1.43,6.08,0,.11-.09.22-.13.34-.74,2.41-1.55,4.81-2.21,7.24-.6,2.25-1,4.54-1.55,6.8a1.15,1.15,0,0,1-.06.17c-.78,2.61-1.55,5.23-2.32,7.84-.46,1.54-.57,3.34-1.48,4.53-1.13,1.48-1.43,3.22-2.3,4.74-.64,1.13-1.14,2.34-1.76,3.49-.89,1.64-2.4,3-2.09,5.14a.93.93,0,0,1-.08.69c-1.74,1.77-1,4.07-1.33,6.13-.22,1.34.34,1.93,1.8,1.87a65.21,65.21,0,0,1,8.27,0c3.27.27,6.52.92,9.77,1.41a2,2,0,0,1,.35.09c2.19.74,4.36,1.56,6.57,2.2,1.94.56,3.94.93,5.91,1.4.16,0,.29.17.46.23A67.46,67.46,0,0,0,73.52,201c2.69.65,5.46,1,8.19,1.47.21,0,.37.26.57.35,1.42.66,2.84,1.33,4.27,2a7.89,7.89,0,0,0,2.33.91,7,7,0,0,0,3.39-.26,54.35,54.35,0,0,0,4.87-3.07,24.84,24.84,0,0,0,7-5.86c.62-.79,1-1.9,1.73-2.43s1.83-.38,2.77-.54c0,.67.32,1.56,0,2-.85,1.1-2,2-3,3a24.38,24.38,0,0,0-3.06,3.46c-1.46,2.25-3.69,3.17-6,4.1a6.49,6.49,0,0,0-1.44,1.16,8.08,8.08,0,0,0,1.6,1.3c1.44.63,3.41.7,4.34,1.74,1.83,2.05,4.56,2,6.55,3.48,1.1.84,2.47,1.29,3.63,2.06,2.06,1.35,4.08,2.77,6.06,4.24s4,3.09,6,4.67c2.79,2.24,5.6,4.46,8.34,6.76a30.59,30.59,0,0,1,5.11,4.78c1.12,1.51,2.11,2.06,3.5,1.64.64-2,1.29-3.74,1.74-5.53.55-2.19.94-4.42,1.41-6.63a2,2,0,0,1,.09-.35c.75-2,2-4,2.15-6.1a83.79,83.79,0,0,1,1.45-10.94c.65-3.17.95-6.41,1.41-9.62a3.47,3.47,0,0,1,.2-.5c1.13-3.35,2.58-6.64,3.3-10.08s.57-7,1.1-10.52a68.84,68.84,0,0,0,.22-14.5c-.29-4.71,1.33-9.11,1.53-13.71a1.55,1.55,0,0,1,.14-.51,42.5,42.5,0,0,0,2.18-4.38c.62-1.67,1-3.45,1.42-5.18a3.55,3.55,0,0,1,.28-.63c.37-.71.75-1.42,1.13-2.13l-.48-.47c-1,.15-2.32,0-3,.52-2,1.57-3.84,3.47-5.78,5.19a37.65,37.65,0,0,0-6,7.64c-1.33,2-3,4-3.63,6.22a48.67,48.67,0,0,1-2.63,6.81c-1,2.18-1.12,4.71-1.63,7.09-.05.23-.12.45-.26,1-.67-.19-1.75-.24-1.83-.56a6.77,6.77,0,0,1,0-2.8c.21-1.23.64-2.42.94-3.63a13.52,13.52,0,0,1,.24-1.59c.75-1.87,1.57-3.71,2.34-5.58a30.64,30.64,0,0,1,1.73-4.3c1.4-2.32,3-4.5,4.61-6.71a26.14,26.14,0,0,1,3.06-4c2.78-2.6,5.69-5.07,8.66-7.44a14,14,0,0,1,3.35-1.45l.58,2.49c.85-.94,1.44-1.59,2-2.23,1.3-1.42,2.56-2.89,3.94-4.23a30.91,30.91,0,0,1,4.06-3.44,14.34,14.34,0,0,1,3.47-1.5,16.37,16.37,0,0,1,3.36-.84,17.63,17.63,0,0,1,3.91,0c1.39.13,2.77.82,4.13.74a22.38,22.38,0,0,1,9.32,1.69,16.34,16.34,0,0,0,6,1.07q6.46,0,12.93.07c.34,0,.68.21,1,.24a4.06,4.06,0,0,0,1.3-.08c2-.51,4-1.13,6-1.55.47-.1,1.13.34,1.6.68A5.27,5.27,0,0,1,224.44,126.65ZM351,260.63a41.86,41.86,0,0,0,4.18,1.26c4.64.95,8.94-1.51,13.52-1.48a17.54,17.54,0,0,0,4.21-1,6.07,6.07,0,0,0,1-.33c1.63-.78,3.31-1.48,4.87-2.39a53.79,53.79,0,0,0,4.84-3.25,3,3,0,0,0,1.2-1.59c.85-4.94-1.13-9.62-1.41-14.46a1.05,1.05,0,0,0-.08-.35c-.7-1.66-1.55-3.27-2.08-5-1-3.08-1.67-6.25-2.6-9.35-.46-1.54-1.25-3-1.76-4.52-.78-2.31-1.43-4.67-2.18-7-.54-1.69-1.13-3.38-1.74-5.05-.67-1.84-1.49-3.63-2.06-5.5s-.61-3.94-1.43-5.67a23,23,0,0,1-2.44-7.3,2.51,2.51,0,0,0-.24-.66c-.7-1.64-1.37-3.29-2.12-4.91-.33-.72-.88-1.33-1.17-2.06-.59-1.45-1-3-1.59-4.43a16.88,16.88,0,0,0-1.44-3.44,40,40,0,0,0-4.85-6.5c-1.89-1.86-3.71-4.18-6.85-4.14a3.92,3.92,0,0,1-1-.27c-2.57-.7-5.13-1.47-7.73-2.08s-5.25-1-7.88-1.57c-.12,0-.22-.09-.34-.12-2.19-.75-4.34-1.64-6.58-2.19-1.9-.46-3.85-.19-5.85-1-2.49-1-5.36-.49-8.1-1.42-2.93-1-6.34,0-9.43-1.27a51.15,51.15,0,0,0-5.67-1.61c-.19-.05-.31-.34-.46-.51a68,68,0,0,1-5.76-6.52c-2.4-3.49-5.75-5.79-9.11-8.13-.88-.61-1.83-1.11-2.75-1.66a14.09,14.09,0,0,0-3.37-1.92,77,77,0,0,0-8.28-1.44c-4.21-.54-8.44-.94-12.66-1.4-.18,0-.43,0-.52-.08-1.24-1.34-2.87-.9-4.37-1s-2.76-.07-4.13-.17a7.35,7.35,0,0,1-1.73-.39c-.86-.27-1.71-.59-2.56-.89l-.57.67a15.36,15.36,0,0,0,1.14,2.07c.95,1.25,2,2.4,3,3.62.67.84,1.24,1.75,1.91,2.59,1.8,2.29,3.71,4.5,5.42,6.85a42.83,42.83,0,0,1,3.59,5.81c1.21,2.43,3.32,4.54,2.93,7.61a2.05,2.05,0,0,0,.26,1.2c1.79,3.16.9,6.53.52,9.76-.28,2.46-1.38,4.83-2.13,7.23a34.84,34.84,0,0,1-1.47,4.43c-1,2.25-2.29,4.41-3.46,6.6-.39.73-1.1,1.41-1.2,2.18-.4,3.32-3,5.4-4.55,8-1.81,3.06-4.18,5.82-5.8,9-.4.8-.9,1.54-1.27,2.35-.77,1.66-1.35,3.42-2.25,5s-2,2.88-3,4.34-1.83,2.83-2.69,4.24a24.64,24.64,0,0,0-2.5,4.6,4.56,4.56,0,0,1-1.77,2.22c-1.95,1.24-3.45,2.59-3,5.18a2,2,0,0,1-.27,1.38c-1.24,1.61-.89,3.51-1.12,5.31-.18,1.45-.55,2.88-.78,4.32a3.59,3.59,0,0,0,.13,1.38,12.3,12.3,0,0,1,.65,2.29c.09,2.25,0,4.51,0,6.45,2.79,1.14,5.28,2,7.57,3.16s4.71,2.44,7.48,2.38a4,4,0,0,1,1.23.22,16.75,16.75,0,0,0,3.43,1.06c2.38.18,4.78.1,7.18.08,1.14,0,2.15,0,2.4,1.5a1.46,1.46,0,0,0,1.09.85c1.43.11,2.87.07,4.31,0a1.75,1.75,0,0,0,.92-.39c.84-.65,1.65-1.32,2.45-2,2.22-1.91,4.48-3.8,6.64-5.78q3-2.72,5.78-5.63c1.89-2,3.71-4,5.48-6.1.68-.8,1.06-1.86,1.73-2.68,1-1.2,2.19-2.21,3.13-3.44,1.85-2.42,3.56-4.95,5.37-7.41a81.35,81.35,0,0,1,5.39-7,3.19,3.19,0,0,0,.82-3.16c-.34-2,.33-2.49,2.21-1.94,1.67.49,3.4.74,5.11,1.08.52.1,1.06.1,1.58.21a20.45,20.45,0,0,0,4.26,1c4.41,0,8.77.39,13.23-.94a36.91,36.91,0,0,0,7.53-3.26,3.45,3.45,0,0,1,2.51-.62c.59,2,1,3.74,1.62,5.41.89,2.5,1.84,3.2,3.87,3,.12-.61.21-1.26.38-1.88.75-2.75,1.53-5.49,2.27-8.24a4.28,4.28,0,0,0,.05-1.43c-.25-2.84.76-5.82-1-8.5a1.72,1.72,0,0,1,.11-1.67c.41-.33,1.65-.44,1.77-.22.7,1.28,1.14,2.7,1.75,4a2.75,2.75,0,0,0,1.12,1.4c.35.15,1-.36,1.48-.59a2.14,2.14,0,0,0,.74-.42,42.28,42.28,0,0,0,2.88-3.56c.76-1.13,1.15-2.55,2-3.56.45-.52,1.6-.48,2.45-.56.13,0,.56.9.45,1-1,1.23-1.8,2.72-2.78,3.78-1.2,1.29-.67,1.83.16,2.23s2.26.39,2.57-.05c1.1-1.6,1.77-.53,2.48-.19-.52,1.24-.93,2.24-1.48,3.56A11.3,11.3,0,0,0,343,210.79c-.43,3.1-.93,6.8-1.46,10.49a5.84,5.84,0,0,1-.36,1.12c-.65,1.81-1.33,3.62-1.93,5.44-.09.28.12.68.23,1,.24.76.57,1.51.76,2.29.52,2.18,1,4.37,1.5,6.55,0,.11.13.19.19.29.72,1.36,1.5,2.69,2.16,4.08,1,2.19,2,4.41,3,6.63a55.41,55.41,0,0,1,2.15,5.24C350,256.09,350.4,258.34,351,260.63Zm-79.06,54a3.1,3.1,0,0,0,.08,1.23c.83,1.8,1.46,3.78,2.69,5.28,2.09,2.57,2.19,5.77,3.18,8.66.75,2.22.44,4.7,1.27,7.09.91,2.65.18,5.69,1.32,8.53.78,1.92.24,4.18,1.23,6.31s1,4.6,1.32,6.94c.88,5.9-.09,11.84,1.25,17.82,1.42,6.39-.52,13.19,1.19,19.75.57,2.21.16,4.66.36,7,.34,3.7,1.14,7.39,1.17,11.09.11,14.44,0,28.89,0,43.34,0,2.89-.61,5.85,1.18,8.65,1.15,1.8,2.11,3.51,4.25,4.29a16.75,16.75,0,0,1,3.18,1.69c2.24,1.38,4.3,3.1,7.08,3.31.24,0,.55,0,.67.19,1.47,1.72,3.57,1.23,4.95.6a12.14,12.14,0,0,1,4.84-.78c1.85-.08,3.71-.07,5.57-.16A3.52,3.52,0,0,0,320,475a32,32,0,0,1,4.17-2c2.05-.64,4.07-1.12,5.07-3.33.15-.31.71-.42,1-.68s1-.71,1-1.15a62.93,62.93,0,0,0,1.13-7.47c.09-1.3-.61-2.63-.68-4-.22-4.19-.7-8.42-.34-12.57s-1.5-8.31-.27-12.51c.13-.42-.25-1-.4-1.51a10.87,10.87,0,0,1-.49-1.7c-.44-5.06-.81-10.13-1.28-15.19-.35-3.72-1-7.43-1.18-11.16-.24-4.72.14-9.49-1.46-14.07a5.11,5.11,0,0,1-.17-.7c-.73-3.35-1.73-6.68-2.12-10.08-.88-7.57.81-15.31-1.43-22.81-.45-1.53-1-3.05-1.59-4.55-.71-1.79-1.54-3.53-2.26-5.31-.57-1.4-1-2.85-1.6-4.24s-1.7-2.83-2-4.34c-.47-2.75-.52-5.51-1.32-8.3s-.34-5.95-.1-8.93.9-5.86,1.37-8.78c0-.12.07-.23.1-.35.75-2.91,1.92-5.79,2.15-8.75.38-4.95.14-9.95.25-14.92,0-.9.5-1.78.61-2.69a12.38,12.38,0,0,0,.06-3.1c-.09-.73-.72-1.39-.81-2.12-.49-4.09.52-8.24-1-12.36-.72-2-.13-4.41-.38-6.6s-1-4.3-1.21-6.47c-.18-1.65-.92-2-2.25-1.71-.27,1.23-.45,2.34-.74,3.42-.63,2.32-1.43,4.6-2,6.94-1.34,6,1.19,12.28-1.29,18.35a19.21,19.21,0,0,1-4.61,6.88,34.73,34.73,0,0,0-3,3.29c-1.07,1.34-1.8,3-3.06,4.12-2.32,2-5,3.67-7.38,5.61a37.77,37.77,0,0,0-8.84,10.39,8.31,8.31,0,0,1-3.53,3A46.84,46.84,0,0,1,271.91,314.59ZM131.38,257.46c-.7-.53-1.63-1.16-2.48-1.89s-1.54-2-2.51-2.32c-2.78-.78-4.22-3.36-6.75-4.51-2.2-1-3.92-3-6-4.35-2.87-1.85-5.83-3.56-8.82-5.2-2.6-1.42-5.29-2.69-8-4-1.2-.57-2.52-.89-3.72-1.46-2.22-1.07-4.34-2.37-6.61-3.32s-4.94-1.82-7.45-2.6c-2.95-.92-6-1.66-8.91-2.57s-6-1.35-8.93-2.43c-2.68-1-5.73-1-8.63-1.46-1.35-.2-2.72-.29-4.06-.54-.89-.16-1.77-.8-2.61-.75-4,.28-7.72-.82-11.55-1.4a4.14,4.14,0,0,1-1.45-.62,3.39,3.39,0,0,0-5,1.55,15.52,15.52,0,0,1-2,2.91c-1,1.25-2.34,2.31-2.92,3.71a43.64,43.64,0,0,0-1.71,6.47,8.37,8.37,0,0,1-.23.86c-.72,2.17-1.46,4.34-2.16,6.51-.54,1.66-1,3.37-1.58,5s-1.86,3.3-2.11,5c-.49,3.43-1.91,6.74-1.41,10.32.11.81.23,2-.21,2.44-1.79,1.9-1.24,4.48-2.15,6.65-.79,1.89,0,4.24-1.2,6.32A39.16,39.16,0,0,0,8,282a9,9,0,0,0,1.61,1.42c1.2.67,2.53,1.1,3.74,1.75a16.4,16.4,0,0,0,7.59,2.2,17.11,17.11,0,0,1,3.21.27c1.18.24,2.31.74,3.48,1,2.09.52,4.41.56,6.25,1.53,2.86,1.5,6.09.84,9,2.18,1.89.89,4.13,1,6.21,1.5a.77.77,0,0,1,.16.07c2.64.78,5.24,1.75,7.93,2.28,3.54.69,7.27.63,10.69,1.65a35.22,35.22,0,0,0,5.85,1,3.63,3.63,0,0,1,.83.26c.84.32,1.66.71,2.52,1a39.88,39.88,0,0,1,5.18,1.41c3.21,1.46,6.29,3.18,9.42,4.81a12.76,12.76,0,0,0,2.2,1.25c2.11.57,4.28,1,6.42,1.46.45.1.86.4,1.31.48a16.11,16.11,0,0,0,3.36.43c1.27-.06,2.51-.48,3.78-.64.94-.12,1.91-.08,2.86-.12s1.22-.5,1.39-1.45a50.32,50.32,0,0,1,1.6-6.4c.59-1.8,1.55-3.47,2.16-5.26s1-3.74,1.47-5.61a4.14,4.14,0,0,1,.19-.49c.72-1.85,1.58-3.65,2.13-5.54.62-2.12,1-4.32,1.45-6.49a2.21,2.21,0,0,1,.33-.6,33.92,33.92,0,0,0,2-3.24c1-2.08,1.8-4.25,2.75-6.35.26-.58.9-1,1.12-1.6C129.27,263.25,130.33,260.3,131.38,257.46Zm52.14-201.6a14,14,0,0,0,1.82-1.44c1.41-1.53,2.64-3.22,4.11-4.68,3.15-3.11,7.21-5.24,8.92-9.84.8-2.14,2.33-4,2.34-6.47,0-.4.29-.78.34-1.19.2-1.43.81-3,.43-4.29-.85-2.85-1.31-5.91-3.34-8.32-1.46-1.73-2.61-3.83-4.32-5.23a41.25,41.25,0,0,0-9-5.22c-2-.92-3.91-2-5.89-2.9a22.34,22.34,0,0,0-4.93-2c-2.63-.52-5.29-.56-8-1.23A15.26,15.26,0,0,0,152.93,5.4c-.89.66-1.58,1.83-2.56,2.12-3.24,1-4.4,4.12-6.67,6.09-1.76,1.53-2.7,4-4,6.06a11.43,11.43,0,0,0-1.22,2c-.47,1.23-.76,2.53-1.14,3.8-.88,2.91-1.85,5.78-2.6,8.72a55.16,55.16,0,0,0-1.27,6.88,47.66,47.66,0,0,0-.25,5.74c0,2.73,0,2.75,2.74,2.91,1.55.1,3.25-.18,4.62.37,1.84.73,3.4,2.16,5.51,2.33a1.39,1.39,0,0,1,.5.19,56.83,56.83,0,0,0,7.13,3.33,16.15,16.15,0,0,1,4.21,2.23c1.67,1.15,3.36,2.14,5.62,1.78,1.93-.3,3.28-1.8,2.45-3.56-1.6-3.34-.86-6.81-.91-10.24a1.9,1.9,0,0,1,.85-1.33c1.45-.91,2.9-2.09,4.49-2.42s3.55-1.11,5.06.76c.86,1.07,2.27,1.69,3.1,2.77,1.38,1.81,3.08,3.58,2.89,6.14A3.82,3.82,0,0,0,183.52,55.86ZM318.33,221.45c-1.84-.14-3.92-.61-5.27,1.51-.43.67-.55,1.54-1,2.2-1.08,1.58-2.27,3.08-3.4,4.62a45.12,45.12,0,0,1-3,4.07c-1.91,2.06-4,4-6,5.94s-4,3.83-6.09,5.7c-1.4,1.28-2.87,2.47-4.29,3.73s-2.7,2.54-4.12,3.73-3,2.18-4.34,3.4c-2.11,1.89-4.15,3.88-6.16,5.89a29.49,29.49,0,0,1-5.1,4.12c-2.7,1.7-5.08,3.89-7.66,5.78-1.26.92-2,2.55-1.37,3.54a17.07,17.07,0,0,1,2.18,3.54c1,3.12,2.94,6,2.84,9.42a2.92,2.92,0,0,0,.28.85c.69,2.39,1.74,4.74,2,7.17.35,3.62.15,7.3.16,11,0,1.73-.08,3.47-.05,5.21,0,.67.13,1.37,1.18.79,1.4-.76,2.82-1.78,4.32-2,1.73-.21,2.91-1.2,4.26-2a5.33,5.33,0,0,0,1.6-1.54,53.87,53.87,0,0,1,3.25-4.48c2.29-2.45,4.74-4.75,7.18-7.05,1.07-1,2.29-1.85,3.43-2.78,1.3-1.07,2.88-1.94,3.82-3.26a46.62,46.62,0,0,1,6.16-7.06c1.06-1,2.54-2.09,2.76-3.32.7-4,.9-8,1.28-12.05.07-.71,0-1.44.1-2.15a86.1,86.1,0,0,1,1.06-9.4c.49-2.37,1.91-4.51,1.77-7a.37.37,0,0,1,.07-.16,17.83,17.83,0,0,0,2.33-7.76,9.61,9.61,0,0,1,.17-1.15c3-1,3.41-.65,3.56,2.35a42.58,42.58,0,0,0,.6,4.77c.12.72.54,1.39.65,2.1.55,3.82,1,7.66,1.59,11.48a5,5,0,0,0,.7,1.38,8.54,8.54,0,0,0-.27,3c.06.69.38,1.36.41,2.05.08,2.39.1,4.79.14,7.19a3.38,3.38,0,0,0,3.75,3.53c.91,0,1.21-.38,1.34-1.25a38.43,38.43,0,0,0,.92-4.64c.15-4.54.15-9.08.05-13.62,0-1.38-.73-2.72-.89-4.11-.54-4.87-1-9.74-1.46-14.61a6.33,6.33,0,0,0-.26-1c-.28-1-.63-1.88-.83-2.84-.54-2.63-1-5.28-1.51-7.91a1,1,0,0,0,0-.18C320.19,226,319.28,223.77,318.33,221.45Zm-66.87,81.91h-.06a49.14,49.14,0,0,1,.06-6.65c.43-3.12-1.21-5.81-1.38-8.76a1.06,1.06,0,0,0-.12-.34q-1.2-2.64-2.39-5.3c-.82-1.83-1.58-3.7-2.47-5.5-.55-1.11-2.85-1.11-3.79-.27a39.29,39.29,0,0,1-4.22,3.27,13,13,0,0,1-3.26,1.7c-1.21.39-2.74.95-3.77.54a14.79,14.79,0,0,1-6.67-5.63c-1.63-2.42-3.56-3.84-6.59-2.94-1.43.43-2.85.92-4.27,1.39-.1,0-.17.16-.27.22-1.2.69-2.4,1.39-3.61,2.06s-2.69,1.28-3.92,2.09-2.17,2.16-3.48,2.7a16.84,16.84,0,0,0-6,4.11c-2.26,2.38-4.93,4.36-7.28,6.67-.63.62-1.87,1.3-1.29,2.58a7.87,7.87,0,0,0,1.3,1.56,80.61,80.61,0,0,0,5.53,6.52,43.61,43.61,0,0,0,6.93,5.48c2.17,1.39,3.88,3.38,6.51,4.24,2,.67,3.62,2.6,5.64,3.35a27.87,27.87,0,0,0,7.17,1.4c5,.47,10.09-.71,15,1.17,1.32.5,3,0,4.46.17s2.66.76,4,.91a24.17,24.17,0,0,0,5.17.08,2.43,2.43,0,0,0,1.64-1.6c.49-3.15,1.87-6.15,1.44-9.47A47.93,47.93,0,0,1,251.46,303.36Zm-40.7,15.17c-2.75-1.72-5.21-3.25-7.66-4.8-.36-.23-.62-.6-1-.81a34.21,34.21,0,0,1-3.86-2.26c-2.06-1.64-3.74-3.86-6-5.14-2.64-1.52-3.53-4.41-5.75-6.09-.69-.52-1-2.34-2.36-1.41-1.82,1.23-3,1.35-4.42-.24a17.19,17.19,0,0,1-2-3.07c-.63-1.11-.93-2.56-1.83-3.34-1.79-1.58-2.43-3.75-3.22-5.74-.92-2.34-2.75-4.32-5.28-4.51-1.61-.12-3.23-.18-4.84-.23-2.39-.07-3.1.53-4,2.76a24.22,24.22,0,0,1-2.17,3.92c-.63,1-.63,4,.3,4.57,3.18,1.9,4.13,5.45,5.48,8.37.92,2,2.6,3.44,3.23,5.64s2.29,4.09,3.32,6.2,1.78,4.55,2.85,6.74a66.06,66.06,0,0,0,3.68,6.44c1.47,2.28,3.15,4.42,4.64,6.68a23.9,23.9,0,0,1,1.56,3.12c.59,1.28,1,2.63,1.76,3.84,1,1.74,2.19,3.42,3.37,5.07.92,1.29,1.94,2.51,3,3.94.42-.64.63-.83.67-1,.45-2.65,2.33-4.47,3.86-6.46a48.6,48.6,0,0,1,3.87-4.26c1.92-2,4-3.85,5.84-5.87a30.68,30.68,0,0,0,3.05-4,18.29,18.29,0,0,0,2.07-3.84C209.57,321.18,211.48,320.13,210.76,318.53ZM159,527.62c-1.21,4.38.7,8.24,1.13,12.25a.61.61,0,0,0,.07.17,25.61,25.61,0,0,1,2.21,4.57c.76,2.9,3.16,3.85,5.41,4.41,4.82,1.2,9.53-.5,14.26-1.33a2.22,2.22,0,0,0,.49-.18c2.46-1.09,4.84-2.71,7.42-3.16a111.26,111.26,0,0,1,14.93-1.41,10.86,10.86,0,0,1,5.49,1.66c1.88,1.11,3.63.67,5.45.41,1-.13,1.86-.65,2.81-.87a56.33,56.33,0,0,0,6.91-1.57,77,77,0,0,0,7.51-3.72,12.54,12.54,0,0,0,2.93-1.54c1.64-1.54,3.09-3.28,4.6-4.95,1-1.14.93-3.79,0-5a5,5,0,0,0-4.71-2.25c-3.14.32-6.25.07-9.47.81a19.21,19.21,0,0,1-10.1-.43c-3.23-1-6.65-2.21-10.29-1.77a15.37,15.37,0,0,1-6.24-.29,3.76,3.76,0,0,0-3.68.72c-1.27,2.19-3.6,2.4-5.42,3.11a25.66,25.66,0,0,1-8.28,1.46c-5.63.23-11.27.13-16.9.11-1.74,0-3.57.41-5.09-1C160.08,527.58,159.47,527.68,159,527.62Zm17.39-297.24c.14,2.07-.1,4.14.5,5.94.65,2,2.7,3.43,2.28,5.88,0,.23.2.53.36.75,1.23,1.66.73,5.25-1.1,6.06a2.89,2.89,0,0,0-2,3,1.56,1.56,0,0,1-.4.93c-1.07,1.22-2.16,2.41-3.26,3.6s-4.62,2.18-6.18,1.48c-2.32-1.05-4.58-2.29-7.21-2.42a.83.83,0,0,1-.5-.16c-1.78-1.8-4.06-3.14-5.26-5.5-.35-.68-1.15-1.33-1.12-2,.08-2.12-1.09-4.06-.46-6.34.54-2,.24-4.16.24-6.26a28.15,28.15,0,0,0-.18-4.11A62.23,62.23,0,0,0,150.9,225c-.41-1.69-1.05-3.33-1.59-5l-.62,0a13.06,13.06,0,0,0-1.32,2.68c-.62,2.69-1.06,5.43-1.58,8.15a1,1,0,0,1-.09.34c-2.16,3.22-2.45,7.1-3.25,10.69-.66,3-2.32,5.46-3.09,8.33a5.06,5.06,0,0,1-1.34,2.62c-2,1.5-2.35,3.87-3.56,5.77a44.37,44.37,0,0,0-2.12,4.19c6.9,8.55,14.19,16.71,21.92,24.94,1.23-2.89,2.23-5.24,3.24-7.58a2.2,2.2,0,0,1,.3-.4,16.1,16.1,0,0,0,2.06-2.87c1.29-3,3.86-4.87,5.94-7.19.95-1.06,2-2,3-3a69.64,69.64,0,0,1,5.63-5.76c2.92-2.38,6.2-4.33,9.15-6.69.86-.69,2.26-1.46,1.9-3.1-.56-2.55-.81-5.21-1.74-7.61-1.07-2.78-2.36-5.41-2.3-8.5C181.54,232.06,179.78,230.47,176.35,230.38ZM307.9,479.07c-.65,4.08-1.12,7.71-1.85,11.28a35.1,35.1,0,0,1-1.78,5.07,31.75,31.75,0,0,0-1.81,4.83c-.47,2.36-.83,4.81-1.09,7.13-.45,3.88-1,7.94.61,12,1,2.58,2.91,3.89,5,5.7.61-2,1.47-3.75,1.57-5.53a4.24,4.24,0,0,1,1.89-3.3c3.33,2,1.06,5.71,2.47,8.26l.53,0c.66-2.74,1.31-5.48,2-8.34l2.13.19a25.21,25.21,0,0,0,.08,4.94c.2.94,1.24,1.71,1.9,2.56a17.24,17.24,0,0,0,1.7-2.44c.26-.54,0-1.3.12-2,.14-1.1-.91-2.86.94-3.09s1.39,1.59,1.75,2.72c.26.81,1.12,1.43,1.72,2.13a11.5,11.5,0,0,0,1.72-2.46,7.34,7.34,0,0,0,.06-2.52c3.65-.87,1.75,2.84,3.63,3.72a8.43,8.43,0,0,0,.35-1.75c0-3.16,0-6.32-.22-9.47-.15-2.1-.78-4.15-1-6.24-.63-5.35.36-10.74-1-16.14-.84-3.33-.19-7-.24-10.57,0-1.38-.91-2-1.91-1.24a13.4,13.4,0,0,1-5.39,2.58c-2.41.57-4.75,1.55-7.19,1.91A44.91,44.91,0,0,1,307.9,479.07ZM191.61,209.93v0h2.88c1.57,0,4.39-1.91,4.59-3.44.36-2.78,2.37-4.5,3.78-6.61.83-1.24,2.07-2.31,2.52-3.65a35,35,0,0,0,1.54-7.37c.29-3-.41-6.16.42-8.92.78-2.61.67-5.12,1-7.68.14-1.18.61-2.32.76-3.51a2.22,2.22,0,0,0-.4-1.73c-.28-.24-1.18,0-1.67.28-.81.45-1.44,1.23-2.26,1.61a31,31,0,0,0-7.14,4.2c-2.31,1.94-4.56,3.94-6.94,5.79a49.39,49.39,0,0,1-6,4.15c-1.49.83-3.31,1.06-4.89,1.76a19.35,19.35,0,0,1-9.26,2.1c-.53,0-1.07,0-1.61,0-1.54,0-1.51,1-1.11,2,.57,1.31,1.68,2.42,2.08,3.75a17.69,17.69,0,0,0,4.45,6.91c2.34,2.45,5.3,4.3,8,6.36,1.23.93,2.89,1.5,3.75,2.67s2,1.25,3.19,1.33C190.05,210,190.83,209.93,191.61,209.93Zm152.28,74.84a14,14,0,0,1,1.9-3.18c1.78-1.73-.12-2.11-.82-3.06a8,8,0,0,1-.79-2.25c.71-.09,1.82-.5,2.05-.21,1.17,1.48,2.77.94,4.2,1.23.46.09,1.15.57,1.17.91a2.31,2.31,0,0,1-.68,1.62c-1.09,1.07-3.05,1.16-3.09,3.41,0,1-1.21,1.86-1.57,2.89a6,6,0,0,0-.45,3.39c.37,1.22,1.47,2.22,2.25,3.32s1.67,1.16,2.69.21c2.33-2.16,2.54-2.81,5,.08a1.46,1.46,0,0,0,2.47,0c.74-.89,3-1.13,3.71-.42,1.38,1.43,2.54,1.51,3.49-.24.8-1.48,1.78-1.4,3-1.24,3.22.41,3.72,0,3.79-3.22,0-.59,0-1.19,0-1.79q0-9.18.06-18.35a9,9,0,0,1,.31-1.92c.27-1.18.59-2.36,1-3.9a36,36,0,0,0-3.92.34c-3.14.66-6.25,1.53-9.4,2.11a16.46,16.46,0,0,1-4.49,0,36.62,36.62,0,0,1-4.64-.81c-.93-.21-1.51,0-1.8.93-.62,2-1.07,4.17-2.59,5.76a11.89,11.89,0,0,1-3.47,2.9,4.75,4.75,0,0,0-2.82,3.44c-.49,2.15-.4,4.49,1.44,6.25C342.44,283.47,343,284,343.89,284.77ZM184.05,233.29a12.78,12.78,0,0,0,1.52,7.92,17.79,17.79,0,0,0,2.15,3.16,22.19,22.19,0,0,0,3,3.16,63.42,63.42,0,0,0,5.52,4.13c2.23,1.47,4.79,2.5,6.8,4.21,2.31,1.95,5.26,2.09,7.72,3.52,1.15.67,2.73.71,3.76,1.49,2.76,2.09,6.15,2.35,9.22,3.44,2.2.77,4.69.54,7.08,1.14a55.74,55.74,0,0,0,12.38,1.39c2.7,0,5.41-.83,8.12-1.3.09,0,.15-.17.25-.3,0-1.38-.93-1.74-2.12-1.84a43,43,0,0,1-4.82-.49c-3.19-.65-6.37-1.44-9.53-2.23a21.75,21.75,0,0,1-3-1c-1.05-.43-2-1-3.11-1.42-1.55-.59-3.15-1.06-4.71-1.64a34.51,34.51,0,0,1-3.42-1.47c-1.11-.57-2.14-1.3-3.23-1.9-1.89-1-3.86-1.95-5.69-3.08a75.56,75.56,0,0,1-6.93-4.66,34.19,34.19,0,0,1-5.59-5.22,32,32,0,0,1-4.2-5.74c-.69-1.38-1.91-2.52-2.45-4.15s-1.25-1.57-2.36-.37a6.37,6.37,0,0,1-1.78,1.51C187.18,232.18,185.73,232.65,184.05,233.29Zm11.34-185c-2.25,1.83-4.16,3.29-5.94,4.89a14.94,14.94,0,0,0-1.63,2.36c-.75,1-1.34,2.44-2.37,3a4.42,4.42,0,0,1-6.33-3.76c0-3.1-1.37-5.53-2.9-7.91a6,6,0,0,0-2.92-2c-2-.76-3.59,1-5.41,1.44a.54.54,0,0,0-.24.43c.15,2.41-.12,5,.59,7.19,1.23,3.89.92,7.41-3.49,8.67-.27.07-.64.94-.51,1.12,1.5,2.1,3.07,4.16,4.67,6.19a3.19,3.19,0,0,0,2.72,1.61,3.44,3.44,0,0,1,1.76.19,18,18,0,0,0,7.3,2.36c.24,0,.56,0,.68.17,1.42,1.73,3.29.71,5,1,.09-.42.16-.64.18-.86.12-1.29-.17-2.63,1.42-3.45A2.87,2.87,0,0,0,189,68.57c-.19-2.53.64-4.16,3.1-5.12,1.58-.6,2.31-1.76,2.23-3.79-.12-3.08-.89-6.34,1-9.27C195.59,50,195.39,49.36,195.39,48.28ZM154.17,223.82a7.86,7.86,0,0,0,0,6,6.56,6.56,0,0,1,.67,2.08c.06,4.74,0,9.48.08,14.21a3.44,3.44,0,0,0,.72,2c1.84,2.27,3.69,4.5,6.73,5.35,1.78.49,3.4,1.53,5.17,2.08,2,.62,3.39-1.1,5-1.82a2.39,2.39,0,0,0,1.33-1.34,6.61,6.61,0,0,0,.05-3.36,4.42,4.42,0,0,0-2.13-2.09c-.31-.15-1.17.8-1.79,1.23a19.66,19.66,0,0,1-1.81,1.21c-.1,0-.62-.32-.61-.47a11.48,11.48,0,0,1,.42-2.34c.28-.86,1.14-1.75,1-2.49a45.62,45.62,0,0,0-1.84-5.82c-.06-.17-.52-.2-.58-.37-.44-1.16-2.63-1.91-.91-3.61.25.16,3.89,3.37,4,3.53a7.17,7.17,0,0,0,.72,2.15c1.77,2.27,3.66,4.44,5.5,6.64l.48-.16a7,7,0,0,0,.24-2.19c-.44-2-1.05-4.06-1.59-6.09-.77-2.92-1.91-5.8-2.18-8.76a9.71,9.71,0,0,0-3-6.33l-6.59,4.43C160.5,225.12,156.33,227.61,154.17,223.82Zm45.28,40.44a21.14,21.14,0,0,0-2-2.13c-1.11-.83-2.34-1.52-3.47-2.33-.64-.45-1.12-1.3-1.8-1.48a5.28,5.28,0,0,1-3-2.52c-1.39-2.05-2.55-1.92-3.93.19a6.94,6.94,0,0,1-1.68,1.93c-1.65,1.15-3.51,2-5.07,3.25-2.56,2-5,4.22-7.38,6.49s-4.74,4.79-6.95,7.33a3.54,3.54,0,0,0-.41,2.52c0,.34,1,.69,1.58.79,1.06.19,2.19,0,3.21.3,1.35.37,3,.69,3.83,1.64a2.31,2.31,0,0,0,3,.66,14.53,14.53,0,0,0,2.57-1.65c2.36-1.52,4.74-3,7.1-4.54,2.13-1.38,4.27-2.75,6.34-4.22.76-.54,1.22-1.5,2-2C195.24,267,197.28,265.72,199.45,264.26ZM13.05,483.35a31.52,31.52,0,0,1,4.06-1.23c3-.5,5.1-2.53,7.33-4.31.57-.46.64-1.85,1.17-2,1.8-.53,1.94-3,4-3.15.53-.05,1-.71,1.49-1.13.19-.17.45-.46.41-.64s-.38-.42-.61-.46a8.78,8.78,0,0,1-2.47-.34,28.06,28.06,0,0,0-7.54-2.22,30.43,30.43,0,0,1-5.68-1.58c-2.53-1.07-4.91-2.4-7.79-2.44-3.52,0-3.52-.13-3.77,3.3a15.93,15.93,0,0,0-.24,2.14,9.33,9.33,0,0,0,.57,3.5c1.31,2.49,3,4.77,3.59,7.62a3.41,3.41,0,0,0,.64,1C9.38,483.2,11.11,483.26,13.05,483.35ZM156.81,195.21l.17.3a7.77,7.77,0,0,0-.33,1.69c0,.77,0,2.07.39,2.23a42.92,42.92,0,0,0,5.29,1.56c.34.1.77,0,1,.2,2,1.42,3.33,3.9,6.22,3.94.11,0,.2.28.33.39.73.65,1.54,1.87,2.2,1.79a2.87,2.87,0,0,1,2.75,1.65c.68,1,1.46,1.39,2.28,1s1.35-1.34,2-2.09l-4.76-2.14a20.29,20.29,0,0,0-1.53-3.46c-1.64-2.37-3.95-4.41-5.06-7s-3.13-4.7-2.89-7.71c0-.24-.34-.56-.58-.77-2.39-2-4.79-4.08-7.19-6.12l-.63.38a14.81,14.81,0,0,0-.18,2.19c.27,3.35.62,6.68.87,10A6.63,6.63,0,0,1,156.81,195.21Zm61.48,30.56a16.47,16.47,0,0,0-2.37-2.9c-3-2.31-6.23-4.45-9.33-6.71-2-1.48-4-3.1-6.05-4.52a2.4,2.4,0,0,0-2.12-.22,2.5,2.5,0,0,0-.83,2c0,2.33.78,4.82.17,6.93-.44,1.56-2.36,2.73-2.69,4.71a10,10,0,0,1-1.31,2.5C202.26,228,210.2,228.32,218.29,225.77Zm-6.3,8.58a9.76,9.76,0,0,0-.4-2.45c-.43-1.12-1.26-1.94-2.65-1.27-2.9,1.39-5.79,1.1-8.75.15a11.06,11.06,0,0,0-3.11-.12c0,.91-.34,2.07.1,2.68A50.7,50.7,0,0,0,202.6,240a54.25,54.25,0,0,0,6.15,4.91c.66.49,1.6.57,1.79-.58C211,241.15,211.46,238,212,234.35ZM139.24,443.73c-.9.06-2.14-.22-2.73.27-1.69,1.42-3.61.75-5.42,1-.59.08-1.2,0-1.79,0a2.19,2.19,0,0,0-1.09.4,6.67,6.67,0,0,0-2.58,6.27c.14,1.4.51,2.22,2.12,2.19,2.33,0,4.66.08,7,.1s4.73,0,7.42,0Zm79-194.53c.05-.86.08-1.63.16-2.4q.65-6.68,1.33-13.35a4.64,4.64,0,0,1,.22-.66c.37-1.39.78-2.78,1-4.2,0-.15-.75-.46-1.15-.7-.55,1.78-2,1.1-3.12,1-1.77-.08-2.34.67-2.27,2.29s.1,3,0,4.5a40.18,40.18,0,0,1-.49,4.08,43.47,43.47,0,0,0-.77,4.75C213.15,247.6,214.83,249.16,218.29,249.2ZM164.3,206a18.25,18.25,0,0,0-2.9,3.07c-1.14,1.93-1.89,4.09-2.89,6.11-.64,1.3-1.54,2.47-2.09,3.79a3.05,3.05,0,0,0,.08,2.32c.3.54,1.53,1.2,1.84,1,2-1.3,3.06-3.46,4.13-5.54.73-1.42,1.49-2.82,2.2-4.25s1.47-3.09,2.21-4.63l-.6-.11Zm-2,17.27.55.81a42.6,42.6,0,0,0,4.33-2.16,11.77,11.77,0,0,0,2.79-2.53,9.65,9.65,0,0,0,1.94-3.34,21.39,21.39,0,0,0,.54-5.13c0-1.4-1.31-.8-2.05-1.08a4.13,4.13,0,0,1-1-.74c-1.45,1.75-2.34,3.6-1.92,5.89a1.76,1.76,0,0,1-.32,1.15C165.62,218.55,164,220.92,162.35,223.29Zm12-2.84c-.42.48-1.42,1.32-1.3,1.53a16.78,16.78,0,0,0,3.08,4.47,13.13,13.13,0,0,0,5.81,2.86,12.31,12.31,0,0,0,4.74.6c.51-.08.91-1,1.36-1.51-.46-.24-1-.76-1.37-.67-2.06.53-3.58-1-5-1.71C179,224.66,176.79,222.42,174.31,220.45Zm-19.64-2.86a8.72,8.72,0,0,1,.55-2.3c1.11-2,2.34-3.85,3.52-5.77.72-1.17,1.44-2.34,2.12-3.53a2.88,2.88,0,0,0,.12-1c-.35.05-.82,0-1,.18a46.09,46.09,0,0,0-3.62,3.78,16.34,16.34,0,0,0-1.47,2.74,6.17,6.17,0,0,1-.48.66c-1.09,1.47-2.32,2.9-1.78,5.09Zm39.73,2-.08-.67c-1.85,0-3.7,0-5.55,0a6.33,6.33,0,0,1-2.06-.4c-1.75-.69-3.46-1.49-5.21-2.17-.25-.1-.67.24-1,.38a5.21,5.21,0,0,0,.79.7c.39.22.86.32,1.26.54,1.17.66,2.27,1.77,3.5,1.93a59.69,59.69,0,0,0,7.69.14C194,220,194.18,219.72,194.4,219.57ZM154,199.5l-.44-.2a12,12,0,0,0,0-1.59.83.83,0,0,0-.52-.58c-.17,0-.5.25-.59.47a19.19,19.19,0,0,0-1.13,2.83,10.59,10.59,0,0,0-.25,2.46.8.8,0,0,0,.43.64c.22.07.69,0,.77-.2C152.88,202.07,153.43,200.78,154,199.5Zm34,13.66a17.63,17.63,0,0,0-3-1.74c-.71-.23-1.86-.81-2.33.93C184.64,211.8,185.88,214.61,188,213.16Zm-1.4,10.8,0,1c1.58,0,3.17.07,4.76.06.14,0,.37-.3.39-.48s-.19-.54-.3-.55C189.85,224,188.24,224,186.63,224Z"/><path class="cls-1" d="M5.25,461.46c-2-4.93-1.35-9.81-1.56-14.59a40.7,40.7,0,0,1,.22-9.69c1-4.95.63-9.93,1.2-14.86.32-2.83,1.55-5.54,2-8.37.38-2.16.15-4.42.34-6.63a22.73,22.73,0,0,1,.82-3.4c.06-.23.18-.45.22-.68.5-3.06,1.1-6.11,1.44-9.19.32-2.88.06-5.74,1-8.65.75-2.37.3-5.11.35-7.68a37.66,37.66,0,0,1,.11-6.11,77.69,77.69,0,0,1,2.23-8c.46-1.58.94-3.16,1.5-4.71.7-2,1.48-3.87,2.23-5.81,0-.05,0-.11,0-.17.53-2.23,1-4.48,1.62-6.7.46-1.72,1.05-3.41,1.59-5.12a8.86,8.86,0,0,0,.76-2.41c.06-5.75.14-11.51-.06-17.26A20.17,20.17,0,0,0,20,314.59c-.95-2.34-1.88-4.67-2.62-7.09a42.37,42.37,0,0,0-1.95-4.09,34.57,34.57,0,0,1-1.31-3.7c-.56-1.89-1-3.8-1.56-5.71-.32-1.13-.72-2.25-.94-3.41a20.1,20.1,0,0,1-.15-2.86,99,99,0,0,0,10.65,2.46c2.79.54,5.94.27,8.48,2a.9.9,0,0,0,.34.1c2.47.49,5,.87,7.39,1.49,2.21.58,4.36,1.42,6.53,2.14a1.89,1.89,0,0,0,.33.13c2.25.52,4.52,1,6.77,1.56s4.58,1.38,6.91,1.85a46,46,0,0,0,5.87.62,25.11,25.11,0,0,1,9.21,2.35,2.23,2.23,0,0,0,.7.14A19.9,19.9,0,0,1,83,305.94c1.29.83,2.93,1.09,4.37,1.7,1.75.74,3.45,1.58,5.17,2.37.1.05.19.17.3.19a41.69,41.69,0,0,1,5.91,1.41c3.42,1.36,6.95,1.12,10.48,1.32a6.14,6.14,0,0,0,5.59-2.65c.14-.18.34-.34.39-.55.54-2.25,1-4.52,1.6-6.76.43-1.62,1-3.2,1.6-4.78.7-1.94,1.44-3.87,2.17-5.8l2.1-5.51A6.11,6.11,0,0,0,123,286c.49-2.25.9-4.52,1.48-6.76a14.75,14.75,0,0,1,1.26-2.82c1.17-2.31,2.37-4.61,3.56-6.92l1.78-3.48a20.7,20.7,0,0,1,5.05,5.64c1.25,2.15,3.45,3.74,5.17,5.64a70,70,0,0,0,4.8,5.48c2.09,1.87,3.11,4.61,5.57,6.17.84.53,1.09,1.92,1.74,2.83,1.07,1.51,2.35,2.88,3.36,4.42,1.19,1.8,2.19,3.73,3.27,5.6.91,1.59,1.87,3.16,2.73,4.77s1.53,3.17,2.31,4.75c.65,1.33,1.32,2.65,2,4,.51,1,1.11,1.94,1.58,2.95,1,2.1,1.89,4.24,2.87,6.35a17.31,17.31,0,0,0,1.2,2c1.25,1.93,2.55,3.83,3.76,5.78,2.05,3.28,4.09,6.58,6,9.92.7,1.2,1,2.62,1.7,3.83,1,1.71,2.11,3.3,3.14,5,.61,1,1.22,2,1.74,3.05,1,2.06,2,4.16,2.94,6.24a66.24,66.24,0,0,1,3.37,7.52c.84,2.65,1,5.51,1.66,8.23,2.22,9.09.57,18.29.86,27.43,0,1.35-.76,2.7-.85,4.07-.26,3.88.06,7.85-.6,11.66-1.65,9.51-1.32,19.11-.62,28.57.55,7.48.22,15,1.34,22.39,1.21,7.88.34,15.73,1,23.55.33,3.82.53,7.74,1.61,11.36a23.11,23.11,0,0,1,.61,9.35,7.55,7.55,0,0,1-3.79,5.64c-2.11,1.25-4,2.87-6,4.32-.23.17-.45.44-.7.48a58.18,58.18,0,0,1-7.82,1.19c-6,.19-12,.35-18,0-1.94-.13-4.49-.53-5.8-2.86-.33-.59-1.45-.68-2.07-1.16-1.7-1.33-2.16-3.37-2.5-5.32-.29-1.69.14-3.53-.23-5.19-1.17-5.25-.72-10.65-1.54-15.86-.52-3.31-.18-6.82-1.24-9.86-1.26-3.63-.54-7.39-1.73-11-.71-2.14-.45-4.62-.5-7a30.68,30.68,0,0,0-2.23-9.45,2.67,2.67,0,0,1-.11-.34c-.49-2.62-.83-5.27-1.48-7.85a55.08,55.08,0,0,0-2.11-5.75c0-.06-.08-.1-.09-.15-.56-2.08-1-4.18-1.68-6.23s-1.43-4-2.15-6a2,2,0,0,1-.21-.65,11.29,11.29,0,0,0-1.08-4.37c-.86-2.11-1-4.5-1.66-6.73-.59-2-1.41-4-2.14-6,0-.11-.11-.21-.14-.32-.51-2.47-.92-5-1.58-7.4-.58-2.15-1.45-4.23-2.21-6.33-.4-1.13-.87-2.24-1.26-3.37a47.4,47.4,0,0,0-1.62-4.75c-.93-1.95-2.15-3.76-3.19-5.67-.65-1.18-1.14-2.45-1.79-3.63-1-1.83-2.1-3.6-3.11-5.42-.71-1.27-1.3-2.59-2-3.86a13.89,13.89,0,0,0-1.37-2c-1.6-2-3.16-4-4.9-5.87-2.11-2.25-3.85-5-7-6-.56-.19-1-.83-1.44-1.3-2.24-2.35-4.49-4.7-6.68-7.09-2.92-3.17-5.83-6.35-8.68-9.59-2.19-2.51-4.75-4.86-6.29-7.74s-3.81-5.36-5.72-8c-1.48-2.06-3.46-3.76-5.14-5.69-1.2-1.38-2.26-2.87-3.4-4.3-1.56-2-3.15-3.92-4.7-5.9-.28-.36-.29-1-.61-1.25a12.2,12.2,0,0,0-1.94-1.08c-.22.6-.76,1.32-.59,1.78a10.41,10.41,0,0,0,1.63,2.62q2.37,3.11,4.83,6.14c2,2.47,4.1,4.87,6.06,7.38a2.2,2.2,0,0,1,.08,1.85c-.61,1.43-1.44,2.76-2.12,4.16a57.67,57.67,0,0,0-2.56,5.6c-.66,1.85-1,3.8-1.52,5.71-.75,2.76-1.51,5.51-2.26,8.27a4.52,4.52,0,0,0-.11.53c-.47,3.31-.55,6.73-1.51,9.89-1,3.32-.55,6.79-1.44,9.95s-.53,6.37-1.11,9.5-1.48,6.27-2,9.44c-.35,1.93,0,4-.54,5.88-1.07,3.59-.4,7.42-1.41,10.82-.93,3.09-.45,6.18-1.22,9.11-1.26,4.82-.23,9.82-1.27,14.51-1,4.53-.42,9.11-1.35,13.49-.86,4-.5,8.07-1.09,12.05a49.48,49.48,0,0,1-2.13,7.08,2.51,2.51,0,0,0-.18.69c0,1.56-.93,1.79-2.26,2.43-4.71,2.28-9.55,1-14.32,1.16-1,0-1.94-.63-2.94-.83-1.28-.25-2.63-.21-3.88-.56-2.07-.58-4.08-1.36-6.1-2.09-1.24-.45-2.46-1-3.68-1.45A17.29,17.29,0,0,0,5.25,461.46Zm137.8-97.84c.46-1.43.89-2.48-.89-3-2.27-.64-4.51-1.42-6.71-2.26-2.78-1.06-5.53-2.21-8.27-3.38a27.15,27.15,0,0,1-2.61-1.38c-2.26-1.27-4.53-2.53-6.77-3.84-.56-.33-1-.85-1.57-1.21-1.87-1.24-3.81-2.37-5.64-3.66-2.39-1.69-4.53-3.81-7.08-5.17s-4.42-3.44-6.81-4.91c-2.07-1.28-4-2.83-6-4.12-2.44-1.53-5-2.81-7-5a14.26,14.26,0,0,0-2.14-1.58l-.42.29c.07.75-.15,1.78.26,2.19a30.62,30.62,0,0,0,4.5,3.76c2.21,1.51,4.64,2.69,6.83,4.24,2.85,2,5.53,4.23,8.32,6.33,1.47,1.12,3,2.13,4.5,3.23,1.83,1.35,3.57,2.81,5.45,4.08,2.23,1.51,4.76,2.63,6.81,4.34a34.2,34.2,0,0,0,8.58,4.75c1.33.58,2.87.73,4.07,1.48a15,15,0,0,0,5.65,2.31c.43.07.79.46,1.22.6C139.16,362.39,141.08,363,143.05,363.62Zm32.84,57.78a14.08,14.08,0,0,0-2.23-1.65c-2.14-1-4.33-1.87-6.51-2.79-1.07-.46-2.2-.82-3.22-1.38-2.27-1.25-4.49-2.6-6.73-3.91-.55-.32-1.06-.7-1.62-1a40.75,40.75,0,0,1-5.52-2.9c-2.38-1.77-4.44-3.95-6.75-5.83-.34-.27-1.39,0-1.91.37-.26.17-.28,1.19,0,1.55a10.92,10.92,0,0,0,2.45,2.66c2.11,1.48,4.33,2.83,6.56,4.14,1.74,1,3.57,1.87,5.33,2.85,2.06,1.15,4.09,2.36,6.15,3.52,1.87,1.05,3.73,2.12,5.65,3.09,1.46.74,3,1.38,4.51,2,.86.34,1.77.52,2.86.83ZM142.48,314.63c.77,2.16,1.6,4.06,2.12,6a34.87,34.87,0,0,0,3.77,9.11,65.77,65.77,0,0,0,7.4,10c2.76,3.1,6.2,5.3,9.1,8.18a1.26,1.26,0,0,0,1,.39c.27-.1.42-.61.53-1,.38-1.36-.75-1.9-1.53-2.55-1.95-1.64-4-3.2-6-4.8-.47-.37-1.27-.71-1.34-1.16-.31-2-2.37-2.43-3.22-4.16-1.23-2.5-3.54-4.52-4.57-7.31-.54-1.46-1.21-2.87-1.77-4.32-.72-1.87-1.39-3.76-2.07-5.64-.29-.81-.5-1.64-.81-2.44s-.64-1.48-1-2.22Zm19.15,177.9c1.07,1.35,2.14,2.72,3.23,4.06,1.86,2.28,3.64,4.63,5.63,6.79s4,4,6.08,5.91a43.6,43.6,0,0,0,3.35,3,11.34,11.34,0,0,0,3,1.69,14.77,14.77,0,0,0,4.14.87c.95,0,1.3-.71.31-1.36a15.21,15.21,0,0,0-3.85-2.24c-2.67-.76-3.86-3.15-5.81-4.67a60.93,60.93,0,0,1-4.79-4.59c-1.77-1.74-3.66-3.39-5.24-5.29s-2.58-3.84-3.94-5.72c-.13-.18-1-.07-1.33.18A3.9,3.9,0,0,0,161.63,492.53ZM50.44,347.62l-.61-.27c-.51.74-1.53,1.56-1.44,2.23.47,3.52-1.79,5.9-3.35,8.52-.75,1.28-2.35,2-3.2,3.26C40,364,37.24,365,34.6,365.89s-5.13,2.19-8,1.66c-.32-.05-.7.25-1.06.38l-.18.5A9.41,9.41,0,0,0,28,369.89a7.45,7.45,0,0,0,3.51-.18,33.43,33.43,0,0,0,5.16-2.19c1.86-.95,4-1.72,5.37-3.17,2.78-2.92,5.89-5.54,7.71-9.41A11.36,11.36,0,0,0,50.44,347.62Zm-7.1,96.69c-.27-.81-.4-1.3-.61-1.77a.76.76,0,0,0-.64.07c-.53.49-1.44,1.05-1.44,1.58,0,2.27-2.3,2.71-3.27,4.25-1.41,2.22-4.1,3.62-6.24,5.39a9.09,9.09,0,0,0-.75.77c.36.25.82.78,1.05.69a13.07,13.07,0,0,0,4.07-1.87,69,69,0,0,0,6.08-6.25A17.3,17.3,0,0,0,43.34,444.31Zm144.36,14.3c-.2-.15-.6-.71-1.06-.77a1.44,1.44,0,0,0-1.11.9,7.27,7.27,0,0,1-2.35,4.25c-.36.35-.15,1.31-.14,2a1,1,0,0,0,.76.17C185.07,464.72,187.69,460.61,187.7,458.61Z"/><path class="cls-1" d="M224.44,126.65a5.27,5.27,0,0,0-1-1.17c-.47-.34-1.13-.78-1.6-.68-2,.42-4,1-6,1.55a4.06,4.06,0,0,1-1.3.08c-.34,0-.68-.23-1-.24q-6.47-.06-12.93-.07a16.34,16.34,0,0,1-6-1.07,22.38,22.38,0,0,0-9.32-1.69c-1.36.08-2.74-.61-4.13-.74a17.63,17.63,0,0,0-3.91,0,16.37,16.37,0,0,0-3.36.84,14.34,14.34,0,0,0-3.47,1.5,30.91,30.91,0,0,0-4.06,3.44c-1.38,1.34-2.64,2.81-3.94,4.23-.6.64-1.19,1.29-2,2.23l-.58-2.49a14,14,0,0,0-3.35,1.45c-3,2.37-5.88,4.84-8.66,7.44a26.14,26.14,0,0,0-3.06,4c-1.57,2.21-3.21,4.39-4.61,6.71a30.64,30.64,0,0,0-1.73,4.3c-.77,1.87-1.59,3.71-2.34,5.58a13.52,13.52,0,0,0-.24,1.59c-.3,1.21-.73,2.4-.94,3.63a6.77,6.77,0,0,0,0,2.8c.08.32,1.16.37,1.83.56.14-.52.21-.74.26-1,.51-2.38.68-4.91,1.63-7.09a48.67,48.67,0,0,0,2.63-6.81c.61-2.24,2.3-4.21,3.63-6.22a37.65,37.65,0,0,1,6-7.64c1.94-1.72,3.73-3.62,5.78-5.19.72-.55,2-.37,3-.52l.48.47c-.38.71-.76,1.42-1.13,2.13a3.55,3.55,0,0,0-.28.63c-.47,1.73-.8,3.51-1.42,5.18a42.5,42.5,0,0,1-2.18,4.38,1.55,1.55,0,0,0-.14.51c-.2,4.6-1.82,9-1.53,13.71a68.84,68.84,0,0,1-.22,14.5c-.53,3.52-.38,7.09-1.1,10.52s-2.17,6.73-3.3,10.08a3.47,3.47,0,0,0-.2.5c-.46,3.21-.76,6.45-1.41,9.62a83.79,83.79,0,0,0-1.45,10.94c-.15,2.07-1.4,4.07-2.15,6.1a2,2,0,0,0-.09.35c-.47,2.21-.86,4.44-1.41,6.63-.45,1.79-1.1,3.52-1.74,5.53-1.39.42-2.38-.13-3.5-1.64a30.59,30.59,0,0,0-5.11-4.78c-2.74-2.3-5.55-4.52-8.34-6.76-2-1.58-4-3.16-6-4.67s-4-2.89-6.06-4.24c-1.16-.77-2.53-1.22-3.63-2.06-2-1.51-4.72-1.43-6.55-3.48-.93-1-2.9-1.11-4.34-1.74a8.08,8.08,0,0,1-1.6-1.3A6.49,6.49,0,0,1,96.67,206c2.31-.93,4.54-1.85,6-4.1a24.38,24.38,0,0,1,3.06-3.46c1-1,2.1-1.89,3-3,.32-.42,0-1.31,0-2-.94.16-2.05.06-2.77.54s-1.11,1.64-1.73,2.43a24.84,24.84,0,0,1-7,5.86,54.35,54.35,0,0,1-4.87,3.07,7,7,0,0,1-3.39.26,7.89,7.89,0,0,1-2.33-.91c-1.43-.63-2.85-1.3-4.27-2-.2-.09-.36-.32-.57-.35-2.73-.49-5.5-.82-8.19-1.47a67.46,67.46,0,0,1-6.41-2.22c-.17-.06-.3-.2-.46-.23-2-.47-4-.84-5.91-1.4-2.21-.64-4.38-1.46-6.57-2.2a2,2,0,0,0-.35-.09c-3.25-.49-6.5-1.14-9.77-1.41a65.21,65.21,0,0,0-8.27,0c-1.46.06-2-.53-1.8-1.87.32-2.06-.41-4.36,1.33-6.13a.93.93,0,0,0,.08-.69c-.31-2.13,1.2-3.5,2.09-5.14.62-1.15,1.12-2.36,1.76-3.49.87-1.52,1.17-3.26,2.3-4.74.91-1.19,1-3,1.48-4.53.77-2.61,1.54-5.23,2.32-7.84a1.15,1.15,0,0,0,.06-.17c.51-2.26,1-4.55,1.55-6.8.66-2.43,1.47-4.83,2.21-7.24,0-.12.1-.23.13-.34.46-2,.81-4.1,1.43-6.08a37.49,37.49,0,0,1,2.06-4.69c.5-1.05,1.18-2,1.63-3.08a40.73,40.73,0,0,1,1.4-4c1.46-2.66,1.37-5.92,3.49-8.36a8.66,8.66,0,0,0,1.28-3.56,23.24,23.24,0,0,1,3.93-7.88c1.76-2.49,3.36-5.09,4.94-7.71,1-1.75,1.85-3.64,2.9-5.39.7-1.18,1.65-2.2,2.46-3.32a48.77,48.77,0,0,1,4-5.39c1.67-1.71,3-3.93,5.49-4.72A12.86,12.86,0,0,0,87,78.78c2.08-1.3,4.13-2.64,6.2-4s4.06-2.83,6.5-3.57c1.08-.32,1.93-1.38,3-1.8,1.78-.71,3.11-2,4.67-3a49.31,49.31,0,0,1,4.49-2.38,7.85,7.85,0,0,1,1.56-.33c1.24-.3,2.48-.64,3.73-.88.52-.11,1.29-.24,1.57,0,1.93,1.83,3.17,0,4.07-1,2-2.41,3.63-5.21,5.68-7.63A6.12,6.12,0,0,1,132,52.34a19.15,19.15,0,0,1,6.09.11,27.72,27.72,0,0,1,5.27,2c1.3.53,2.54,1.17,3.84,1.68,2.42,1,4.95,1.65,7.26,2.81a24.42,24.42,0,0,1,5.09,3.62,52.33,52.33,0,0,1,4.77,5.1,6,6,0,0,1,.7,2.06l-1.81.43-3.35.85c-1.77.44-1.23,1.64-.92,3.16a14.91,14.91,0,0,1,2.79-1,12.48,12.48,0,0,1,3.11.07c.63.07,1.24.51,1.85.5,3.42-.09,6.43,1.2,9.51,2.43a18.68,18.68,0,0,0,6,1.47c4.37.18,7.87,2,11.1,4.74,2.26,1.89,4.66,3.62,6.89,5.54,1.49,1.29,2.8,2.79,4.19,4.19,2,2,4,4,6,6,1.81,1.88,3.57,3.82,5.33,5.75,2.09,2.29,4.23,4.55,6.2,6.94,1.13,1.37,1.94,3,3,4.45a88.85,88.85,0,0,0,9.38,11c1.17,1.21,2.08,2.83,3.36,4,.8.76,1.73,1.38,2.5,2.16,1.28,1.28,2.53,2.59,3.69,4,2.06,2.45,4.08,4.93,6,7.47.69.88.95,2.11,1.68,2.94,1.57,1.78,1.65,4.14,2.66,6.13,2.39,4.73,1.07,9.79.95,14.7,0,1.44-1.25,2.85-1.92,4.28a2.26,2.26,0,0,0-.27.82,8.79,8.79,0,0,1-2.41,5.61,11.36,11.36,0,0,0-1.45,3.26c-1,2.34-1.71,4.79-2.89,7s-2.78,4.1-4.13,6.18c-1.16,1.77-2.23,3.6-3.33,5.4-.48.78-1,1.55-1.38,2.35-1.57,3-3,6.14-5.42,8.67a17,17,0,0,0-1.88,3.18c-1.19,2-2.49,3.91-3.59,5.94-.76,1.42-1.28,3-2,4.58-2.38-1.36-4.67-2.45-6.72-3.88-2.57-1.79-4.78-4.14-7.46-5.71-2-1.16-3.38-2.86-5.13-4.19-.75-.57-1.54-1.08-2.32-1.61s-1.1-3.67-.62-4.7c1.29-2.74,4-4.4,5.07-7.4a38.79,38.79,0,0,0,2.27-7.73c.84-6.24,1.28-12.5,1.52-18.79.11-2.65,1.32-5.25,1.9-7.9a16.75,16.75,0,0,0,.17-3.4,33.61,33.61,0,0,1,0-4.49c.46-3.11-.59-6-1.34-8.85-.46-1.75-.84-3.5-1.27-5.25-.32-1.35-1.61-2.47-1.91-3.82-.76-3.35-3.86-4.91-5.38-7.63-.13-.23,0-.57-.08-1.33l4.15,1a6.45,6.45,0,0,0,1.22.25c2.52.12,5,.35,7.55.24a17,17,0,0,0,3.7-1.12,6.06,6.06,0,0,1,1.42-.15C223.29,128.49,223.29,128.5,224.44,126.65ZM182.15,102.2c.68,2.53,1.27,4.91,2,7.26a1.83,1.83,0,0,0,1.1,1.08,1.54,1.54,0,0,0,1.38-.53c.25-.45,1.15-.79.32-1.76s-1.86-2-1.7-3.6-.24-3,0-4.47c.45-2.33,1.24-4.59,1.91-6.87.26-.88.6-1.74,1-2.82h-2.57c-.56,1.88-1.09,3.69-1.66,5.49-.08.25-.35.44-.53.67-1.29,1.61-2.16,3.43-4,4.74s-3,3.71-4.77,5.35a38.19,38.19,0,0,0-5.87,8c-.66,1.06-.87,2.39-1.45,3.51-1.13,2.19-1.08,4.55.35,6.2a1.23,1.23,0,0,0,1,.16A10.68,10.68,0,0,0,170,122c.61-2.36,1.08-4.77,1.61-7.15,0-.1.14-.17.21-.26.73-1.06,1.49-2.09,2.19-3.16a19,19,0,0,1,1.82-3C177.8,106.28,180,104.3,182.15,102.2Zm-59.41,32.69a11.44,11.44,0,0,0-3.32.35,27.92,27.92,0,0,0-3.37,2.26c-1,.59-2.09.9-3,1.54-2.18,1.51-4.22,3.21-6.41,4.7-1.08.74-2.47,1-3.53,1.79a21.59,21.59,0,0,0-3.8,3.4c-.85,1-2.61,1.85-1.37,3.7,1.33.34,1.84-.49,2.74-1.36a58.64,58.64,0,0,1,6.52-4.89c.48-.36.86-.86,1.36-1.19,2.31-1.52,4.63-3.05,7-4.47a31.44,31.44,0,0,1,5.87-3.1C122.9,137.13,123.29,136.63,122.74,134.89Zm89.77-2.16-.68.8c-.31.38-1,.89-.88,1.13.19.53.71,1.25,1.17,1.32a24.78,24.78,0,0,1,7.19,2.75c.67.32,1.28,1.1,1.92,1.12,3.77.1,7.64.74,11.17-1.57-.07-.64-.16-1.33-.28-2.38a11.52,11.52,0,0,1-2.61.89,33.71,33.71,0,0,1-7,.15c-1.73-.24-3.32-1.38-5-2.1S214.33,133.49,212.51,132.73ZM158.86,90.6c.81-.23,1.7-.2,2.16-.64,1.64-1.57,3.08-3.38,5.61-3.51a2,2,0,0,0,.68-.19c1.74-.72,3.49-1.42,5.2-2.19a6.52,6.52,0,0,0,2.43-1.43c.38-.44.11-1.44.13-2.18a4.13,4.13,0,0,0-1.13.12c-1.65.71-3.26,1.55-4.93,2.2-2.44.94-5.11,1.44-7.33,2.73C160.15,86.4,158.39,87.87,158.86,90.6Zm-6.21,24.92c-.55-1.26-1.36-2.33-1.44-3.45-.17-2.62-.68-5.3.73-7.85.23-.41-.61-1.44-1-2.13,0-.06-1,.21-1,.45a36.49,36.49,0,0,0-1.28,5.69,9.72,9.72,0,0,0,1,6C150.27,115.43,150.65,116.06,152.65,115.52Zm-50.57-9.87,3.83-9.82c-1.1-.69-2.6-.64-3,.38-.62,1.78-1.07,3.61-1.59,5.41-.13.45-.27.89-.39,1.34-.18.68-.63,1.47-.43,2S101.68,105.49,102.08,105.65Zm7.28-19.29c2.3.82,3.28-.42,4.3-2.08s2.12-3.37,1.9-5.46c0-.34-.69-.61-1-.91a14.85,14.85,0,0,0-1.46,2c-.58,1.14-1,2.38-1.53,3.54a1.37,1.37,0,0,1-.85.49C109.31,84.26,109,85.1,109.36,86.36Zm33.2-20-.2.57c.55.62,1,1.71,1.65,1.77,2.27.21,4.58.08,6.88.08V66.33ZM126.7,65.8c2.62.83,5.28-1.21,6-4.39-.65,0-1.5-.33-1.81,0C129.5,62.7,128.21,64.19,126.7,65.8Z"/><path class="cls-1" d="M351,260.63c-.57-2.29-1-4.54-1.71-6.7a55.41,55.41,0,0,0-2.15-5.24c-1-2.22-1.95-4.44-3-6.63-.66-1.39-1.44-2.72-2.16-4.08-.06-.1-.17-.18-.19-.29-.5-2.18-1-4.37-1.5-6.55-.19-.78-.52-1.53-.76-2.29-.11-.33-.32-.73-.23-1,.6-1.82,1.28-3.63,1.93-5.44a5.84,5.84,0,0,0,.36-1.12c.53-3.69,1-7.39,1.46-10.49a11.3,11.3,0,0,1,10.82-3.29c.55-1.32,1-2.32,1.48-3.56-.71-.34-1.38-1.41-2.48.19-.31.44-1.85.4-2.57.05s-1.36-.94-.16-2.23c1-1.06,1.77-2.55,2.78-3.78.11-.14-.32-1-.45-1-.85.08-2,0-2.45.56-.87,1-1.26,2.43-2,3.56a42.28,42.28,0,0,1-2.88,3.56,2.14,2.14,0,0,1-.74.42c-.5.23-1.13.74-1.48.59a2.75,2.75,0,0,1-1.12-1.4c-.61-1.33-1.05-2.75-1.75-4-.12-.22-1.36-.11-1.77.22a1.72,1.72,0,0,0-.11,1.67c1.8,2.68.79,5.66,1,8.5a4.28,4.28,0,0,1-.05,1.43c-.74,2.75-1.52,5.49-2.27,8.24-.17.62-.26,1.27-.38,1.88-2,.16-3-.54-3.87-3-.6-1.67-1-3.41-1.62-5.41a3.45,3.45,0,0,0-2.51.62,36.91,36.91,0,0,1-7.53,3.26c-4.46,1.33-8.82.93-13.23.94a20.45,20.45,0,0,1-4.26-1c-.52-.11-1.06-.11-1.58-.21-1.71-.34-3.44-.59-5.11-1.08-1.88-.55-2.55-.06-2.21,1.94a3.19,3.19,0,0,1-.82,3.16,81.35,81.35,0,0,0-5.39,7c-1.81,2.46-3.52,5-5.37,7.41-.94,1.23-2.15,2.24-3.13,3.44-.67.82-1,1.88-1.73,2.68-1.77,2.08-3.59,4.13-5.48,6.1s-3.79,3.82-5.78,5.63c-2.16,2-4.42,3.87-6.64,5.78-.8.69-1.61,1.36-2.45,2a1.75,1.75,0,0,1-.92.39c-1.44,0-2.88.07-4.31,0a1.46,1.46,0,0,1-1.09-.85c-.25-1.5-1.26-1.51-2.4-1.5-2.4,0-4.8.1-7.18-.08a16.75,16.75,0,0,1-3.43-1.06,4,4,0,0,0-1.23-.22c-2.77.06-5.1-1.13-7.48-2.38s-4.78-2-7.57-3.16c0-1.94.06-4.2,0-6.45a12.3,12.3,0,0,0-.65-2.29,3.59,3.59,0,0,1-.13-1.38c.23-1.44.6-2.87.78-4.32.23-1.8-.12-3.7,1.12-5.31a2,2,0,0,0,.27-1.38c-.45-2.59,1.05-3.94,3-5.18a4.56,4.56,0,0,0,1.77-2.22,24.64,24.64,0,0,1,2.5-4.6c.86-1.41,1.75-2.85,2.69-4.24s2.18-2.81,3-4.34,1.48-3.35,2.25-5c.37-.81.87-1.55,1.27-2.35,1.62-3.22,4-6,5.8-9,1.55-2.62,4.15-4.7,4.55-8,.1-.77.81-1.45,1.2-2.18,1.17-2.19,2.41-4.35,3.46-6.6a34.84,34.84,0,0,0,1.47-4.43c.75-2.4,1.85-4.77,2.13-7.23.38-3.23,1.27-6.6-.52-9.76a2.05,2.05,0,0,1-.26-1.2c.39-3.07-1.72-5.18-2.93-7.61a42.83,42.83,0,0,0-3.59-5.81c-1.71-2.35-3.62-4.56-5.42-6.85-.67-.84-1.24-1.75-1.91-2.59-1-1.22-2-2.37-3-3.62a15.36,15.36,0,0,1-1.14-2.07l.57-.67c.85.3,1.7.62,2.56.89a7.35,7.35,0,0,0,1.73.39c1.37.1,2.75.08,4.13.17s3.13-.34,4.37,1c.09.1.34.06.52.08,4.22.46,8.45.86,12.66,1.4a77,77,0,0,1,8.28,1.44,14.09,14.09,0,0,1,3.37,1.92c.92.55,1.87,1.05,2.75,1.66,3.36,2.34,6.71,4.64,9.11,8.13a68,68,0,0,0,5.76,6.52c.15.17.27.46.46.51a51.15,51.15,0,0,1,5.67,1.61c3.09,1.32,6.5.27,9.43,1.27,2.74.93,5.61.44,8.1,1.42,2,.78,3.95.51,5.85,1,2.24.55,4.39,1.44,6.58,2.19.12,0,.22.09.34.12,2.63.52,5.28,1,7.88,1.57s5.16,1.38,7.73,2.08a3.92,3.92,0,0,0,1,.27c3.14,0,5,2.28,6.85,4.14a40,40,0,0,1,4.85,6.5,16.88,16.88,0,0,1,1.44,3.44c.55,1.47,1,3,1.59,4.43.29.73.84,1.34,1.17,2.06.75,1.62,1.42,3.27,2.12,4.91a2.51,2.51,0,0,1,.24.66,23,23,0,0,0,2.44,7.3c.82,1.73.86,3.81,1.43,5.67s1.39,3.66,2.06,5.5c.61,1.67,1.2,3.36,1.74,5.05.75,2.33,1.4,4.69,2.18,7,.51,1.54,1.3,3,1.76,4.52.93,3.1,1.64,6.27,2.6,9.35.53,1.71,1.38,3.32,2.08,5a1.05,1.05,0,0,1,.08.35c.28,4.84,2.26,9.52,1.41,14.46a3,3,0,0,1-1.2,1.59,53.79,53.79,0,0,1-4.84,3.25c-1.56.91-3.24,1.61-4.87,2.39a6.07,6.07,0,0,1-1,.33,17.54,17.54,0,0,1-4.21,1c-4.58,0-8.88,2.43-13.52,1.48A41.86,41.86,0,0,1,351,260.63Zm-85.57-33a10.85,10.85,0,0,0,7.83-2.22,21,21,0,0,0,2.52-1.64,3.22,3.22,0,0,0,1.1-2.1c0-1,.68-2.34-1.06-3a20.32,20.32,0,0,1-4.23-2.43c-1.47-1-2.87-2-5.22-1,.49.77,1,2.06,1.36,2,1.66-.14,2.65.92,3.8,1.68,1.77,1.16,2.07,2.5.74,3.33-2.06,1.27-3.79,3.36-6.62,2.88,0,0-.09.06-.22.14Zm10.23-20.18c.15,2.18,2.25,4.14,4.93,4.91a32,32,0,0,1,4.66,1.69c2.58,1.22,2.67,1.29,3.91-.82a6.42,6.42,0,0,0,.41-1.84l-1.66-.31c-2.56-.46-5.12-.89-7.67-1.39-.28-.06-.46-.49-.71-.71C278.43,208,277.46,206.84,275.63,207.45ZM357,234.65h-.18c0,1.85-.05,3.7,0,5.55a5.16,5.16,0,0,0,.58,1.55c.29-.14.75-.2.85-.42a5.32,5.32,0,0,0,.56-2c0-1.65-.44-3.31-.33-5s.73-3.41.91-5.13a2,2,0,0,0-.94-1.62c-.94-.19-1.49.48-1.49,1.51C357,231,357,232.8,357,234.65Zm-22.63-44c1.1.18,2.11.13,2.17-1.31.1-2.42,1.93-4,2.88-6,.22-.46.39-.94.58-1.42-.76.1-1.68,0-2.22.36a5.4,5.4,0,0,0-1.84,2.32C335.21,186.6,333.24,188.23,334.36,190.68Z"/><path class="cls-1" d="M271.91,314.59a46.84,46.84,0,0,0,6.39-2,8.31,8.31,0,0,0,3.53-3,37.77,37.77,0,0,1,8.84-10.39c2.41-1.94,5.06-3.58,7.38-5.61,1.26-1.1,2-2.78,3.06-4.12a34.73,34.73,0,0,1,3-3.29,19.21,19.21,0,0,0,4.61-6.88c2.48-6.07-.05-12.32,1.29-18.35.52-2.34,1.32-4.62,2-6.94.29-1.08.47-2.19.74-3.42,1.33-.27,2.07.06,2.25,1.71.25,2.17,1,4.3,1.21,6.47s-.34,4.62.38,6.6c1.48,4.12.47,8.27,1,12.36.09.73.72,1.39.81,2.12a12.38,12.38,0,0,1-.06,3.1c-.11.91-.59,1.79-.61,2.69-.11,5,.13,10-.25,14.92-.23,3-1.4,5.84-2.15,8.75,0,.12-.08.23-.1.35-.47,2.92-1.13,5.83-1.37,8.78s-.69,6.17.1,8.93.85,5.55,1.32,8.3c.26,1.51,1.34,2.87,2,4.34s1,2.84,1.6,4.24c.72,1.78,1.55,3.52,2.26,5.31.59,1.5,1.14,3,1.59,4.55,2.24,7.5.55,15.24,1.43,22.81.39,3.4,1.39,6.73,2.12,10.08a5.11,5.11,0,0,0,.17.7c1.6,4.58,1.22,9.35,1.46,14.07.18,3.73.83,7.44,1.18,11.16.47,5.06.84,10.13,1.28,15.19a10.87,10.87,0,0,0,.49,1.7c.15.51.53,1.09.4,1.51-1.23,4.2.64,8.3.27,12.51s.12,8.38.34,12.57c.07,1.33.77,2.66.68,4a62.93,62.93,0,0,1-1.13,7.47c-.08.44-.65.8-1,1.15s-.86.37-1,.68c-1,2.21-3,2.69-5.07,3.33a32,32,0,0,0-4.17,2,3.52,3.52,0,0,1-1.3.37c-1.86.09-3.72.08-5.57.16a12.14,12.14,0,0,0-4.84.78c-1.38.63-3.48,1.12-4.95-.6-.12-.15-.43-.18-.67-.19-2.78-.21-4.84-1.93-7.08-3.31a16.75,16.75,0,0,0-3.18-1.69c-2.14-.78-3.1-2.49-4.25-4.29-1.79-2.8-1.17-5.76-1.18-8.65-.06-14.45.09-28.9,0-43.34,0-3.7-.83-7.39-1.17-11.09-.2-2.33.21-4.78-.36-7-1.71-6.56.23-13.36-1.19-19.75-1.34-6-.37-11.92-1.25-17.82-.35-2.34-.36-4.86-1.32-6.94s-.45-4.39-1.23-6.31c-1.14-2.84-.41-5.88-1.32-8.53-.83-2.39-.52-4.87-1.27-7.09-1-2.89-1.09-6.09-3.18-8.66-1.23-1.5-1.86-3.48-2.69-5.28A3.1,3.1,0,0,1,271.91,314.59Zm29,20.42c-.77-.76-1.35-1.43-2-2-1.88-1.5-3.86-2.88-5.68-4.45-2.79-2.37-5.79-4.56-7.67-7.85-.17-.3-1.09-.23-1.65-.21-.16,0-.5.46-.45.6.36,1,.56,2.27,1.27,3,2.77,2.77,5.67,5.39,8.6,8,1.12,1,2.65,1.56,3.6,2.66C298.23,336.24,299.35,335.71,300.94,335ZM314.62,443.9c-2.11.66-2.5,1.89-2.07,3.33a32.07,32.07,0,0,0,1.61,3.95,11.08,11.08,0,0,0,1.27,2.35,8.72,8.72,0,0,0,2.4,2.37,4.51,4.51,0,0,0,2.69.18c.24,0,.61-1.29.38-1.65a5.45,5.45,0,0,0-1.93-1.76,5.25,5.25,0,0,1-2.83-3.9A37.32,37.32,0,0,0,314.62,443.9ZM293.5,367.25a36.53,36.53,0,0,0,4.83,1.43,12.26,12.26,0,0,0,4.09-.16,4.5,4.5,0,0,0,2.31-1.3c.3-.31,0-1.21,0-1.84a12.14,12.14,0,0,1-1.47.23c-2,.1-4.22.65-6.06.08a7.32,7.32,0,0,0-3.66-.56ZM310,429.72a3.42,3.42,0,0,0,1.11-1c.19-.36-.06-1.43-.27-1.48-2.34-.51-3.59-2.33-4.63-4.12-.68-1.17-1.52-1.14-2.05-.63s-.24,1.53-.12,2.3c.08.55.56,1,.76,1.57A6.22,6.22,0,0,0,310,429.72Z"/><path class="cls-1" d="M131.38,257.46c-1,2.84-2.11,5.79-3.25,8.72-.22.59-.86,1-1.12,1.6-1,2.1-1.76,4.27-2.75,6.35a33.92,33.92,0,0,1-2,3.24,2.21,2.21,0,0,0-.33.6c-.48,2.17-.83,4.37-1.45,6.49-.55,1.89-1.41,3.69-2.13,5.54a4.14,4.14,0,0,0-.19.49c-.48,1.87-.86,3.78-1.47,5.61s-1.57,3.46-2.16,5.26a50.32,50.32,0,0,0-1.6,6.4c-.17.95-.46,1.41-1.39,1.45s-1.92,0-2.86.12c-1.27.16-2.51.58-3.78.64a16.11,16.11,0,0,1-3.36-.43c-.45-.08-.86-.38-1.31-.48-2.14-.49-4.31-.89-6.42-1.46a12.76,12.76,0,0,1-2.2-1.25c-3.13-1.63-6.21-3.35-9.42-4.81A39.88,39.88,0,0,0,77,300.13c-.86-.25-1.68-.64-2.52-1a3.63,3.63,0,0,0-.83-.26,35.22,35.22,0,0,1-5.85-1c-3.42-1-7.15-1-10.69-1.65-2.69-.53-5.29-1.5-7.93-2.28a.77.77,0,0,0-.16-.07c-2.08-.48-4.32-.61-6.21-1.5-2.87-1.34-6.1-.68-9-2.18-1.84-1-4.16-1-6.25-1.53-1.17-.29-2.3-.79-3.48-1a17.11,17.11,0,0,0-3.21-.27,16.4,16.4,0,0,1-7.59-2.2c-1.21-.65-2.54-1.08-3.74-1.75A9,9,0,0,1,8,282a39.16,39.16,0,0,1,2.3-6.12c1.19-2.08.41-4.43,1.2-6.32.91-2.17.36-4.75,2.15-6.65.44-.47.32-1.63.21-2.44-.5-3.58.92-6.89,1.41-10.32.25-1.75,1.46-3.34,2.11-5s1-3.34,1.58-5c.7-2.17,1.44-4.34,2.16-6.51a8.37,8.37,0,0,0,.23-.86,43.64,43.64,0,0,1,1.71-6.47c.58-1.4,2-2.46,2.92-3.71a15.52,15.52,0,0,0,2-2.91,3.39,3.39,0,0,1,5-1.55,4.14,4.14,0,0,0,1.45.62c3.83.58,7.59,1.68,11.55,1.4.84,0,1.72.59,2.61.75,1.34.25,2.71.34,4.06.54,2.9.43,5.95.46,8.63,1.46,2.94,1.08,6,1.53,8.93,2.43s6,1.65,8.91,2.57c2.51.78,5,1.58,7.45,2.6s4.39,2.25,6.61,3.32c1.2.57,2.52.89,3.72,1.46,2.69,1.27,5.38,2.54,8,4,3,1.64,6,3.35,8.82,5.2,2.07,1.34,3.79,3.35,6,4.35,2.53,1.15,4,3.73,6.75,4.51,1,.28,1.64,1.57,2.51,2.32S130.68,256.93,131.38,257.46Zm-69-15.39c-.33-.57-.5-1.28-.84-1.37a3.81,3.81,0,0,0-1.84.2,2.83,2.83,0,0,0-1,.65c-1.36,1.18-3.12,2.14-4,3.62-1.29,2.25-1.95,4.87-2.9,7.33-.09.22-.47.32-.56.55a3.88,3.88,0,0,0-.43,1.62c0,.3.62.83.88.78a2,2,0,0,0,1.29-.82c.65-1.12,1.1-2.35,1.69-3.51a13,13,0,0,1,1.67-2.94c1.6-1.76,3.38-3.36,5.07-5C61.77,242.83,62,242.48,62.36,242.07Zm5-7.47-.74-.63c-.57.29-1.48.44-1.64.87a43.06,43.06,0,0,0-1.78,6,23.88,23.88,0,0,0-.52,5.06c0,.72.61,1.44.94,2.16.41-.35,1.08-.63,1.18-1.06.44-1.79.76-3.62,1-5.45.19-1.22.12-2.49.38-3.7A26.19,26.19,0,0,1,67.37,234.6Z"/><path class="cls-1" d="M183.52,55.86a3.82,3.82,0,0,1-2-3.8c.19-2.56-1.51-4.33-2.89-6.14-.83-1.08-2.24-1.7-3.1-2.77-1.51-1.87-3.46-1.08-5.06-.76s-3,1.51-4.49,2.42a1.9,1.9,0,0,0-.85,1.33c0,3.43-.69,6.9.91,10.24.83,1.76-.52,3.26-2.45,3.56-2.26.36-4-.63-5.62-1.78a16.15,16.15,0,0,0-4.21-2.23,56.83,56.83,0,0,1-7.13-3.33,1.39,1.39,0,0,0-.5-.19c-2.11-.17-3.67-1.6-5.51-2.33-1.37-.55-3.07-.27-4.62-.37-2.71-.16-2.76-.18-2.74-2.91a47.66,47.66,0,0,1,.25-5.74,55.16,55.16,0,0,1,1.27-6.88c.75-2.94,1.72-5.81,2.6-8.72.38-1.27.67-2.57,1.14-3.8a11.43,11.43,0,0,1,1.22-2c1.3-2.06,2.24-4.53,4-6.06,2.27-2,3.43-5.13,6.67-6.09,1-.29,1.67-1.46,2.56-2.12A15.26,15.26,0,0,1,166.06,3c2.69.67,5.35.71,8,1.23a22.34,22.34,0,0,1,4.93,2c2,.93,3.91,2,5.89,2.9a41.25,41.25,0,0,1,9,5.22c1.71,1.4,2.86,3.5,4.32,5.23,2,2.41,2.49,5.47,3.34,8.32.38,1.27-.23,2.86-.43,4.29-.05.41-.34.79-.34,1.19,0,2.46-1.54,4.33-2.34,6.47-1.71,4.6-5.77,6.73-8.92,9.84-1.47,1.46-2.7,3.15-4.11,4.68A14,14,0,0,1,183.52,55.86Z"/><path class="cls-1" d="M318.33,221.45c.95,2.32,1.86,4.51,2.76,6.71a1,1,0,0,1,0,.18c.5,2.63,1,5.28,1.51,7.91.2,1,.55,1.89.83,2.84a6.33,6.33,0,0,1,.26,1c.49,4.87.92,9.74,1.46,14.61.16,1.39.86,2.73.89,4.11.1,4.54.1,9.08-.05,13.62a38.43,38.43,0,0,1-.92,4.64c-.13.87-.43,1.23-1.34,1.25a3.38,3.38,0,0,1-3.75-3.53c0-2.4-.06-4.8-.14-7.19,0-.69-.35-1.36-.41-2.05a8.54,8.54,0,0,1,.27-3,5,5,0,0,1-.7-1.38c-.56-3.82-1-7.66-1.59-11.48-.11-.71-.53-1.38-.65-2.1a42.58,42.58,0,0,1-.6-4.77c-.15-3-.54-3.32-3.56-2.35a9.61,9.61,0,0,0-.17,1.15,17.83,17.83,0,0,1-2.33,7.76.37.37,0,0,0-.07.16c.14,2.49-1.28,4.63-1.77,7a86.1,86.1,0,0,0-1.06,9.4c-.07.71,0,1.44-.1,2.15-.38,4-.58,8.08-1.28,12.05-.22,1.23-1.7,2.33-2.76,3.32a46.62,46.62,0,0,0-6.16,7.06c-.94,1.32-2.52,2.19-3.82,3.26-1.14.93-2.36,1.77-3.43,2.78-2.44,2.3-4.89,4.6-7.18,7.05a53.87,53.87,0,0,0-3.25,4.48,5.33,5.33,0,0,1-1.6,1.54c-1.35.75-2.53,1.74-4.26,2-1.5.18-2.92,1.2-4.32,2-1.05.58-1.17-.12-1.18-.79,0-1.74.06-3.48.05-5.21,0-3.66.19-7.34-.16-11-.24-2.43-1.29-4.78-2-7.17a2.92,2.92,0,0,1-.28-.85c.1-3.45-1.85-6.3-2.84-9.42a17.07,17.07,0,0,0-2.18-3.54c-.63-1,.11-2.62,1.37-3.54,2.58-1.89,5-4.08,7.66-5.78a29.49,29.49,0,0,0,5.1-4.12c2-2,4.05-4,6.16-5.89,1.37-1.22,2.94-2.22,4.34-3.4s2.73-2.5,4.12-3.73,2.89-2.45,4.29-3.73q3.09-2.81,6.09-5.7c2-1.95,4.09-3.88,6-5.94a45.12,45.12,0,0,0,3-4.07c1.13-1.54,2.32-3,3.4-4.62.45-.66.57-1.53,1-2.2C314.41,220.84,316.49,221.31,318.33,221.45Zm-19.81,46.82a65.64,65.64,0,0,0,1-6.84A14.28,14.28,0,0,1,302,254c.33-.5,0-1.45,0-2.19-.66.09-1.76,0-1.92.32-1.08,2.29-2,4.66-2.88,7-.25.66-.07,1.52-.42,2.09-1.36,2.24-.57,4.58-.77,7Z"/><path class="cls-1" d="M251.46,303.36a47.93,47.93,0,0,0,0,5.75c.43,3.32-.95,6.32-1.44,9.47a2.43,2.43,0,0,1-1.64,1.6,24.17,24.17,0,0,1-5.17-.08c-1.35-.15-2.65-.75-4-.91s-3.14.33-4.46-.17c-4.93-1.88-10-.7-15-1.17a27.87,27.87,0,0,1-7.17-1.4c-2-.75-3.62-2.68-5.64-3.35-2.63-.86-4.34-2.85-6.51-4.24a43.61,43.61,0,0,1-6.93-5.48,80.61,80.61,0,0,1-5.53-6.52,7.87,7.87,0,0,1-1.3-1.56c-.58-1.28.66-2,1.29-2.58,2.35-2.31,5-4.29,7.28-6.67a16.84,16.84,0,0,1,6-4.11c1.31-.54,2.26-1.89,3.48-2.7s2.62-1.38,3.92-2.09,2.41-1.37,3.61-2.06c.1-.06.17-.19.27-.22,1.42-.47,2.84-1,4.27-1.39,3-.9,5,.52,6.59,2.94a14.79,14.79,0,0,0,6.67,5.63c1,.41,2.56-.15,3.77-.54a13,13,0,0,0,3.26-1.7,39.29,39.29,0,0,0,4.22-3.27c.94-.84,3.24-.84,3.79.27.89,1.8,1.65,3.67,2.47,5.5s1.59,3.54,2.39,5.3a1.06,1.06,0,0,1,.12.34c.17,2.95,1.81,5.64,1.38,8.76a49.14,49.14,0,0,0-.06,6.65Zm-23.93-12.94-.75-.78a11,11,0,0,0-2.07,1.19c-2.19,2-3.74,4.71-6.86,5.7-.87.28-1.49,1.53-2,2.43-.12.19.46,1.17.82,1.24,2.28.41,4.09-.85,5.56-2.26a36.77,36.77,0,0,0,4-5.19A22,22,0,0,0,227.53,290.42Z"/><path class="cls-1" d="M210.76,318.53c.72,1.6-1.19,2.65-1.73,4.15a18.29,18.29,0,0,1-2.07,3.84,30.68,30.68,0,0,1-3.05,4c-1.88,2-3.92,3.89-5.84,5.87a48.6,48.6,0,0,0-3.87,4.26c-1.53,2-3.41,3.81-3.86,6.46,0,.21-.25.4-.67,1-1.11-1.43-2.13-2.65-3-3.94-1.18-1.65-2.35-3.33-3.37-5.07-.71-1.21-1.17-2.56-1.76-3.84a23.9,23.9,0,0,0-1.56-3.12c-1.49-2.26-3.17-4.4-4.64-6.68a66.06,66.06,0,0,1-3.68-6.44c-1.07-2.19-1.79-4.55-2.85-6.74s-2.69-4-3.32-6.2-2.31-3.64-3.23-5.64c-1.35-2.92-2.3-6.47-5.48-8.37-.93-.55-.93-3.57-.3-4.57a24.22,24.22,0,0,0,2.17-3.92c.88-2.23,1.59-2.83,4-2.76,1.61.05,3.23.11,4.84.23,2.53.19,4.36,2.17,5.28,4.51.79,2,1.43,4.16,3.22,5.74.9.78,1.2,2.23,1.83,3.34a17.19,17.19,0,0,0,2,3.07c1.44,1.59,2.6,1.47,4.42.24,1.38-.93,1.67.89,2.36,1.41,2.22,1.68,3.11,4.57,5.75,6.09,2.24,1.28,3.92,3.5,6,5.14a34.21,34.21,0,0,0,3.86,2.26c.37.21.63.58,1,.81C205.55,315.28,208,316.81,210.76,318.53Z"/><path class="cls-1" d="M159,527.62c.51.06,1.12,0,1.41.21,1.52,1.37,3.35,1,5.09,1,5.63,0,11.27.12,16.9-.11a25.66,25.66,0,0,0,8.28-1.46c1.82-.71,4.15-.92,5.42-3.11a3.76,3.76,0,0,1,3.68-.72,15.37,15.37,0,0,0,6.24.29c3.64-.44,7.06.76,10.29,1.77a19.21,19.21,0,0,0,10.1.43c3.22-.74,6.33-.49,9.47-.81a5,5,0,0,1,4.71,2.25c1,1.25,1.06,3.9,0,5-1.51,1.67-3,3.41-4.6,4.95a12.54,12.54,0,0,1-2.93,1.54,77,77,0,0,1-7.51,3.72,56.33,56.33,0,0,1-6.91,1.57c-.95.22-1.85.74-2.81.87-1.82.26-3.57.7-5.45-.41a10.86,10.86,0,0,0-5.49-1.66A111.26,111.26,0,0,0,190,544.35c-2.58.45-5,2.07-7.42,3.16a2.22,2.22,0,0,1-.49.18c-4.73.83-9.44,2.53-14.26,1.33-2.25-.56-4.65-1.51-5.41-4.41a25.61,25.61,0,0,0-2.21-4.57.61.61,0,0,1-.07-.17C159.66,535.86,157.75,532,159,527.62Z"/><path class="cls-1" d="M176.35,230.38c3.43.09,5.19,1.68,5.14,4.56-.06,3.09,1.23,5.72,2.3,8.5.93,2.4,1.18,5.06,1.74,7.61.36,1.64-1,2.41-1.9,3.1-2.95,2.36-6.23,4.31-9.15,6.69a69.64,69.64,0,0,0-5.63,5.76c-1,1-2.1,2-3,3-2.08,2.32-4.65,4.2-5.94,7.19a16.1,16.1,0,0,1-2.06,2.87,2.2,2.2,0,0,0-.3.4c-1,2.34-2,4.69-3.24,7.58-7.73-8.23-15-16.39-21.92-24.94a44.37,44.37,0,0,1,2.12-4.19c1.21-1.9,1.6-4.27,3.56-5.77a5.06,5.06,0,0,0,1.34-2.62c.77-2.87,2.43-5.33,3.09-8.33.8-3.59,1.09-7.47,3.25-10.69a1,1,0,0,0,.09-.34c.52-2.72,1-5.46,1.58-8.15a13.06,13.06,0,0,1,1.32-2.68l.62,0c.54,1.65,1.18,3.29,1.59,5a62.23,62.23,0,0,1,1.13,6.24,28.15,28.15,0,0,1,.18,4.11c0,2.1.3,4.3-.24,6.26-.63,2.28.54,4.22.46,6.34,0,.65.77,1.3,1.12,2,1.2,2.36,3.48,3.7,5.26,5.5a.83.83,0,0,0,.5.16c2.63.13,4.89,1.37,7.21,2.42,1.56.7,5-.16,6.18-1.48s2.19-2.38,3.26-3.6a1.56,1.56,0,0,0,.4-.93,2.89,2.89,0,0,1,2-3c1.83-.81,2.33-4.4,1.1-6.06-.16-.22-.4-.52-.36-.75.42-2.45-1.63-3.91-2.28-5.88C176.25,234.52,176.49,232.45,176.35,230.38Z"/><path class="cls-1" d="M307.9,479.07a44.91,44.91,0,0,0,6.64-.07c2.44-.36,4.78-1.34,7.19-1.91a13.4,13.4,0,0,0,5.39-2.58c1-.79,1.88-.14,1.91,1.24.05,3.54-.6,7.24.24,10.57,1.38,5.4.39,10.79,1,16.14.25,2.09.88,4.14,1,6.24.22,3.15.19,6.31.22,9.47a8.43,8.43,0,0,1-.35,1.75c-1.88-.88,0-4.59-3.63-3.72a7.34,7.34,0,0,1-.06,2.52,11.5,11.5,0,0,1-1.72,2.46c-.6-.7-1.46-1.32-1.72-2.13-.36-1.13,0-2.94-1.75-2.72s-.8,2-.94,3.09c-.08.65.14,1.41-.12,2a17.24,17.24,0,0,1-1.7,2.44c-.66-.85-1.7-1.62-1.9-2.56a25.21,25.21,0,0,1-.08-4.94l-2.13-.19c-.69,2.86-1.34,5.6-2,8.34l-.53,0c-1.41-2.55.86-6.26-2.47-8.26a4.24,4.24,0,0,0-1.89,3.3c-.1,1.78-1,3.52-1.57,5.53-2.09-1.81-4-3.12-5-5.7-1.64-4-1.06-8.09-.61-12,.26-2.32.62-4.77,1.09-7.13a31.75,31.75,0,0,1,1.81-4.83,35.1,35.1,0,0,0,1.78-5.07C306.78,486.78,307.25,483.15,307.9,479.07Z"/><path class="cls-1" d="M191.61,209.93c-.78,0-1.56,0-2.33,0-1.2-.08-2.26-.06-3.19-1.33s-2.52-1.74-3.75-2.67c-2.73-2.06-5.69-3.91-8-6.36a17.69,17.69,0,0,1-4.45-6.91c-.4-1.33-1.51-2.44-2.08-3.75-.4-.91-.43-2,1.11-2,.54,0,1.08,0,1.61,0a19.35,19.35,0,0,0,9.26-2.1c1.58-.7,3.4-.93,4.89-1.76a49.39,49.39,0,0,0,6-4.15c2.38-1.85,4.63-3.85,6.94-5.79a31,31,0,0,1,7.14-4.2c.82-.38,1.45-1.16,2.26-1.61.49-.27,1.39-.52,1.67-.28a2.22,2.22,0,0,1,.4,1.73c-.15,1.19-.62,2.33-.76,3.51-.3,2.56-.19,5.07-1,7.68-.83,2.76-.13,5.95-.42,8.92a35,35,0,0,1-1.54,7.37c-.45,1.34-1.69,2.41-2.52,3.65-1.41,2.11-3.42,3.83-3.78,6.61-.2,1.53-3,3.41-4.59,3.44h-2.88Z"/><path class="cls-1" d="M343.89,284.77c-.89-.81-1.45-1.3-2-1.81-1.84-1.76-1.93-4.1-1.44-6.25a4.75,4.75,0,0,1,2.82-3.44,11.89,11.89,0,0,0,3.47-2.9c1.52-1.59,2-3.73,2.59-5.76.29-.94.87-1.14,1.8-.93a36.62,36.62,0,0,0,4.64.81,16.46,16.46,0,0,0,4.49,0c3.15-.58,6.26-1.45,9.4-2.11a36,36,0,0,1,3.92-.34c-.4,1.54-.72,2.72-1,3.9a9,9,0,0,0-.31,1.92q-.06,9.18-.06,18.35c0,.6,0,1.2,0,1.79-.07,3.2-.57,3.63-3.79,3.22-1.25-.16-2.23-.24-3,1.24-.95,1.75-2.11,1.67-3.49.24-.68-.71-3-.47-3.71.42a1.46,1.46,0,0,1-2.47,0c-2.46-2.89-2.67-2.24-5-.08-1,.95-1.87.95-2.69-.21s-1.88-2.1-2.25-3.32a6,6,0,0,1,.45-3.39c.36-1,1.55-1.92,1.57-2.89,0-2.25,2-2.34,3.09-3.41a2.31,2.31,0,0,0,.68-1.62c0-.34-.71-.82-1.17-.91-1.43-.29-3,.25-4.2-1.23-.23-.29-1.34.12-2.05.21a8,8,0,0,0,.79,2.25c.7,1,2.6,1.33.82,3.06A14,14,0,0,0,343.89,284.77Z"/><path class="cls-1" d="M184.05,233.29c1.68-.64,3.13-1.11,4.5-1.77a6.37,6.37,0,0,0,1.78-1.51c1.11-1.2,1.83-1.23,2.36.37s1.76,2.77,2.45,4.15a32,32,0,0,0,4.2,5.74,34.19,34.19,0,0,0,5.59,5.22,75.56,75.56,0,0,0,6.93,4.66c1.83,1.13,3.8,2,5.69,3.08,1.09.6,2.12,1.33,3.23,1.9a34.51,34.51,0,0,0,3.42,1.47c1.56.58,3.16,1,4.71,1.64,1.07.41,2.06,1,3.11,1.42a21.75,21.75,0,0,0,3,1c3.16.79,6.34,1.58,9.53,2.23a43,43,0,0,0,4.82.49c1.19.1,2.11.46,2.12,1.84-.1.13-.16.28-.25.3-2.71.47-5.42,1.35-8.12,1.3a55.74,55.74,0,0,1-12.38-1.39c-2.39-.6-4.88-.37-7.08-1.14-3.07-1.09-6.46-1.35-9.22-3.44-1-.78-2.61-.82-3.76-1.49-2.46-1.43-5.41-1.57-7.72-3.52-2-1.71-4.57-2.74-6.8-4.21a63.42,63.42,0,0,1-5.52-4.13,22.19,22.19,0,0,1-3-3.16,17.79,17.79,0,0,1-2.15-3.16A12.78,12.78,0,0,1,184.05,233.29Z"/><path class="cls-1" d="M195.39,48.28c0,1.08.2,1.74,0,2.11-1.88,2.93-1.11,6.19-1,9.27.08,2-.65,3.19-2.23,3.79-2.46,1-3.29,2.59-3.1,5.12A2.87,2.87,0,0,1,188,70.9c-1.59.82-1.3,2.16-1.42,3.45,0,.22-.09.44-.18.86-1.71-.34-3.58.68-5-1-.12-.15-.44-.15-.68-.17a18,18,0,0,1-7.3-2.36,3.44,3.44,0,0,0-1.76-.19,3.19,3.19,0,0,1-2.72-1.61c-1.6-2-3.17-4.09-4.67-6.19-.13-.18.24-1,.51-1.12,4.41-1.26,4.72-4.78,3.49-8.67-.71-2.24-.44-4.78-.59-7.19a.54.54,0,0,1,.24-.43c1.82-.46,3.37-2.2,5.41-1.44a6,6,0,0,1,2.92,2c1.53,2.38,2.94,4.81,2.9,7.91a4.42,4.42,0,0,0,6.33,3.76c1-.53,1.62-1.94,2.37-3a14.94,14.94,0,0,1,1.63-2.36C191.23,51.57,193.14,50.11,195.39,48.28Z"/><path class="cls-1" d="M154.17,223.82c2.16,3.79,6.33,1.3,9,3.63l6.59-4.43a9.71,9.71,0,0,1,3,6.33c.27,3,1.41,5.84,2.18,8.76.54,2,1.15,4,1.59,6.09a7,7,0,0,1-.24,2.19l-.48.16c-1.84-2.2-3.73-4.37-5.5-6.64a7.17,7.17,0,0,1-.72-2.15c-.06-.16-3.7-3.37-4-3.53-1.72,1.7.47,2.45.91,3.61.06.17.52.2.58.37A45.62,45.62,0,0,1,169,244c.15.74-.71,1.63-1,2.49a11.48,11.48,0,0,0-.42,2.34c0,.15.51.52.61.47a19.66,19.66,0,0,0,1.81-1.21c.62-.43,1.48-1.38,1.79-1.23A4.42,4.42,0,0,1,173.9,249a6.61,6.61,0,0,1-.05,3.36,2.39,2.39,0,0,1-1.33,1.34c-1.63.72-3,2.44-5,1.82-1.77-.55-3.39-1.59-5.17-2.08-3-.85-4.89-3.08-6.73-5.35a3.44,3.44,0,0,1-.72-2c-.07-4.73,0-9.47-.08-14.21a6.56,6.56,0,0,0-.67-2.08A7.86,7.86,0,0,1,154.17,223.82Z"/><path class="cls-1" d="M199.45,264.26c-2.17,1.46-4.21,2.76-6.17,4.19-.76.54-1.22,1.5-2,2-2.07,1.47-4.21,2.84-6.34,4.22-2.36,1.53-4.74,3-7.1,4.54a14.53,14.53,0,0,1-2.57,1.65,2.31,2.31,0,0,1-3-.66c-.82-.95-2.48-1.27-3.83-1.64-1-.28-2.15-.11-3.21-.3-.58-.1-1.54-.45-1.58-.79a3.54,3.54,0,0,1,.41-2.52c2.21-2.54,4.52-5,6.95-7.33s4.82-4.45,7.38-6.49c1.56-1.24,3.42-2.1,5.07-3.25A6.94,6.94,0,0,0,185.2,256c1.38-2.11,2.54-2.24,3.93-.19a5.28,5.28,0,0,0,3,2.52c.68.18,1.16,1,1.8,1.48,1.13.81,2.36,1.5,3.47,2.33A21.14,21.14,0,0,1,199.45,264.26Z"/><path class="cls-1" d="M13.05,483.35c-1.94-.09-3.67-.15-4.86-1.89a3.41,3.41,0,0,1-.64-1C7,477.56,5.27,475.28,4,472.79a9.33,9.33,0,0,1-.57-3.5,15.93,15.93,0,0,1,.24-2.14c.25-3.43.25-3.34,3.77-3.3,2.88,0,5.26,1.37,7.79,2.44a30.43,30.43,0,0,0,5.68,1.58,28.06,28.06,0,0,1,7.54,2.22,8.78,8.78,0,0,0,2.47.34c.23,0,.58.27.61.46s-.22.47-.41.64c-.48.42-1,1.08-1.49,1.13-2,.17-2.18,2.62-4,3.15-.53.15-.6,1.54-1.17,2-2.23,1.78-4.31,3.81-7.33,4.31A31.52,31.52,0,0,0,13.05,483.35Z"/><path class="cls-1" d="M156.81,195.21a6.63,6.63,0,0,0,.42-1.91c-.25-3.35-.6-6.68-.87-10a14.81,14.81,0,0,1,.18-2.19l.63-.38c2.4,2,4.8,4.07,7.19,6.12.24.21.6.53.58.77-.24,3,1.82,5.23,2.89,7.71s3.42,4.61,5.06,7a20.29,20.29,0,0,1,1.53,3.46l4.76,2.14c-.69.75-1.23,1.71-2,2.09s-1.6,0-2.28-1a2.87,2.87,0,0,0-2.75-1.65c-.66.08-1.47-1.14-2.2-1.79-.13-.11-.22-.39-.33-.39-2.89,0-4.21-2.52-6.22-3.94-.26-.18-.69-.1-1-.2a42.92,42.92,0,0,1-5.29-1.56c-.38-.16-.37-1.46-.39-2.23a7.77,7.77,0,0,1,.33-1.69Z"/><path class="cls-1" d="M218.29,225.77c-8.09,2.55-16,2.27-24.53,1.74a10,10,0,0,0,1.31-2.5c.33-2,2.25-3.15,2.69-4.71.61-2.11-.15-4.6-.17-6.93a2.5,2.5,0,0,1,.83-2,2.4,2.4,0,0,1,2.12.22c2.08,1.42,4,3,6.05,4.52,3.1,2.26,6.28,4.4,9.33,6.71A16.47,16.47,0,0,1,218.29,225.77Z"/><path class="cls-1" d="M212,234.35c-.53,3.67-1,6.8-1.45,9.93-.19,1.15-1.13,1.07-1.79.58A54.25,54.25,0,0,1,202.6,240a50.7,50.7,0,0,1-5.42-6.61c-.44-.61-.09-1.77-.1-2.68a11.06,11.06,0,0,1,3.11.12c3,.95,5.85,1.24,8.75-.15,1.39-.67,2.22.15,2.65,1.27A9.76,9.76,0,0,1,212,234.35Z"/><path class="cls-1" d="M139.24,443.73,142.16,454c-2.69,0-5.06,0-7.42,0s-4.66-.14-7-.1c-1.61,0-2-.79-2.12-2.19a6.67,6.67,0,0,1,2.58-6.27,2.19,2.19,0,0,1,1.09-.4c.59-.07,1.2.05,1.79,0,1.81-.23,3.73.44,5.42-1C137.1,443.51,138.34,443.79,139.24,443.73Z"/><path class="cls-1" d="M218.29,249.2c-3.46,0-5.14-1.6-5-4.65a43.47,43.47,0,0,1,.77-4.75,40.18,40.18,0,0,0,.49-4.08c.08-1.5,0-3,0-4.5s.5-2.37,2.27-2.29c1.08.06,2.57.74,3.12-1,.4.24,1.18.55,1.15.7-.26,1.42-.67,2.81-1,4.2a4.64,4.64,0,0,0-.22.66q-.67,6.68-1.33,13.35C218.37,247.57,218.34,248.34,218.29,249.2Z"/><path class="cls-1" d="M164.3,206l2,1.76.6.11c-.74,1.54-1.45,3.1-2.21,4.63s-1.47,2.83-2.2,4.25c-1.07,2.08-2.09,4.24-4.13,5.54-.31.2-1.54-.46-1.84-1a3.05,3.05,0,0,1-.08-2.32c.55-1.32,1.45-2.49,2.09-3.79,1-2,1.75-4.18,2.89-6.11A18.25,18.25,0,0,1,164.3,206Z"/><path class="cls-1" d="M162.35,223.29c1.63-2.37,3.27-4.74,4.87-7.13a1.76,1.76,0,0,0,.32-1.15c-.42-2.29.47-4.14,1.92-5.89a4.13,4.13,0,0,0,1,.74c.74.28,2.06-.32,2.05,1.08a21.39,21.39,0,0,1-.54,5.13,9.65,9.65,0,0,1-1.94,3.34,11.77,11.77,0,0,1-2.79,2.53,42.6,42.6,0,0,1-4.33,2.16Z"/><path class="cls-1" d="M174.31,220.45c2.48,2,4.66,4.21,7.29,5.57,1.45.75,3,2.24,5,1.71.37-.09.91.43,1.37.67-.45.53-.85,1.43-1.36,1.51a12.31,12.31,0,0,1-4.74-.6,13.13,13.13,0,0,1-5.81-2.86A16.78,16.78,0,0,1,173,222C172.89,221.77,173.89,220.93,174.31,220.45Z"/><path class="cls-1" d="M154.67,217.59l-2.07-.1c-.54-2.19.69-3.62,1.78-5.09a6.17,6.17,0,0,0,.48-.66,16.34,16.34,0,0,1,1.47-2.74,46.09,46.09,0,0,1,3.62-3.78c.21-.2.68-.13,1-.18a2.88,2.88,0,0,1-.12,1c-.68,1.19-1.4,2.36-2.12,3.53-1.18,1.92-2.41,3.81-3.52,5.77A8.72,8.72,0,0,0,154.67,217.59Z"/><path class="cls-1" d="M194.4,219.57c-.22.15-.45.43-.67.43a59.69,59.69,0,0,1-7.69-.14c-1.23-.16-2.33-1.27-3.5-1.93-.4-.22-.87-.32-1.26-.54a5.21,5.21,0,0,1-.79-.7c.34-.14.76-.48,1-.38,1.75.68,3.46,1.48,5.21,2.17a6.33,6.33,0,0,0,2.06.4c1.85.06,3.7,0,5.55,0Z"/><path class="cls-1" d="M154,199.5c-.58,1.28-1.13,2.57-1.75,3.83-.08.17-.55.27-.77.2a.8.8,0,0,1-.43-.64,10.59,10.59,0,0,1,.25-2.46,19.19,19.19,0,0,1,1.13-2.83c.09-.22.42-.5.59-.47a.83.83,0,0,1,.52.58,12,12,0,0,1,0,1.59Z"/><path class="cls-1" d="M154.79,205.77c.32,1.8-1.36,2.63-2,4a9.43,9.43,0,0,1-1.75,2.17,3.7,3.7,0,0,1-.92.51c-.09-.32-.35-.79-.23-.93,1.62-1.92,3.28-3.79,4.94-5.67Z"/><path class="cls-1" d="M188,213.16c-2.15,1.45-3.39-1.36-5.32-.81.47-1.74,1.62-1.16,2.33-.93A17.63,17.63,0,0,1,188,213.16Z"/><path class="cls-1" d="M154.84,205.82c.56-1.17,1.13-2.34,1.7-3.51l.77.21c0,.76.09,2.09-.15,2.16-.86.25-1,2.18-2.37,1.09Z"/><path class="cls-1" d="M186.63,224c1.61,0,3.22,0,4.82,0,.11,0,.31.37.3.55s-.25.48-.39.48c-1.59,0-3.18,0-4.76-.06Z"/><path d="M143.05,363.62c-2-.63-3.89-1.23-5.79-1.87-.43-.14-.79-.53-1.22-.6a15,15,0,0,1-5.65-2.31c-1.2-.75-2.74-.9-4.07-1.48a34.2,34.2,0,0,1-8.58-4.75c-2-1.71-4.58-2.83-6.81-4.34-1.88-1.27-3.62-2.73-5.45-4.08-1.48-1.1-3-2.11-4.5-3.23-2.79-2.1-5.47-4.33-8.32-6.33-2.19-1.55-4.62-2.73-6.83-4.24a30.62,30.62,0,0,1-4.5-3.76c-.41-.41-.19-1.44-.26-2.19l.42-.29a14.26,14.26,0,0,1,2.14,1.58c2,2.16,4.6,3.44,7,5,2.06,1.29,4,2.84,6,4.12,2.39,1.47,4.28,3.56,6.81,4.91s4.69,3.48,7.08,5.17c1.83,1.29,3.77,2.42,5.64,3.66.55.36,1,.88,1.57,1.21,2.24,1.31,4.51,2.57,6.77,3.84a27.15,27.15,0,0,0,2.61,1.38c2.74,1.17,5.49,2.32,8.27,3.38,2.2.84,4.44,1.62,6.71,2.26C143.94,361.14,143.51,362.19,143.05,363.62Z"/><path d="M175.89,421.4l-1,1.54c-1.09-.31-2-.49-2.86-.83-1.53-.61-3.05-1.25-4.51-2-1.92-1-3.78-2-5.65-3.09-2.06-1.16-4.09-2.37-6.15-3.52-1.76-1-3.59-1.83-5.33-2.85-2.23-1.31-4.45-2.66-6.56-4.14a10.92,10.92,0,0,1-2.45-2.66c-.25-.36-.23-1.38,0-1.55.52-.34,1.57-.64,1.91-.37,2.31,1.88,4.37,4.06,6.75,5.83a40.75,40.75,0,0,0,5.52,2.9c.56.3,1.07.68,1.62,1,2.24,1.31,4.46,2.66,6.73,3.91,1,.56,2.15.92,3.22,1.38,2.18.92,4.37,1.79,6.51,2.79A14.08,14.08,0,0,1,175.89,421.4Z"/><path d="M142.48,314.63l1.71-1.9c.32.74.68,1.47,1,2.22s.52,1.63.81,2.44c.68,1.88,1.35,3.77,2.07,5.64.56,1.45,1.23,2.86,1.77,4.32,1,2.79,3.34,4.81,4.57,7.31.85,1.73,2.91,2.2,3.22,4.16.07.45.87.79,1.34,1.16,2,1.6,4,3.16,6,4.8.78.65,1.91,1.19,1.53,2.55-.11.37-.26.88-.53,1a1.26,1.26,0,0,1-1-.39c-2.9-2.88-6.34-5.08-9.1-8.18a65.77,65.77,0,0,1-7.4-10,34.87,34.87,0,0,1-3.77-9.11C144.08,318.69,143.25,316.79,142.48,314.63Z"/><path d="M161.63,492.53a3.9,3.9,0,0,1,.77-1.34c.32-.25,1.2-.36,1.33-.18,1.36,1.88,2.47,3.95,3.94,5.72s3.47,3.55,5.24,5.29a60.93,60.93,0,0,0,4.79,4.59c2,1.52,3.14,3.91,5.81,4.67a15.21,15.21,0,0,1,3.85,2.24c1,.65.64,1.4-.31,1.36a14.77,14.77,0,0,1-4.14-.87,11.34,11.34,0,0,1-3-1.69,43.6,43.6,0,0,1-3.35-3c-2-2-4.17-3.83-6.08-5.91s-3.77-4.51-5.63-6.79C163.77,495.25,162.7,493.88,161.63,492.53Z"/><path d="M50.44,347.62a11.36,11.36,0,0,1-.73,7.32c-1.82,3.87-4.93,6.49-7.71,9.41-1.38,1.45-3.51,2.22-5.37,3.17a33.43,33.43,0,0,1-5.16,2.19,7.45,7.45,0,0,1-3.51.18,9.41,9.41,0,0,1-2.63-1.46l.18-.5c.36-.13.74-.43,1.06-.38,2.9.53,5.5-.8,8-1.66S40,364,41.84,361.36c.85-1.23,2.45-2,3.2-3.26,1.56-2.62,3.82-5,3.35-8.52-.09-.67.93-1.49,1.44-2.23Z"/><path d="M43.34,444.31a17.3,17.3,0,0,1-1.75,2.86,69,69,0,0,1-6.08,6.25,13.07,13.07,0,0,1-4.07,1.87c-.23.09-.69-.44-1.05-.69a9.09,9.09,0,0,1,.75-.77c2.14-1.77,4.83-3.17,6.24-5.39,1-1.54,3.27-2,3.27-4.25,0-.53.91-1.09,1.44-1.58a.76.76,0,0,1,.64-.07C42.94,443,43.07,443.5,43.34,444.31Z"/><path d="M187.7,458.61c0,2-2.63,6.11-3.9,6.54A1,1,0,0,1,183,465c0-.68-.22-1.64.14-2a7.27,7.27,0,0,0,2.35-4.25,1.44,1.44,0,0,1,1.11-.9C187.1,457.9,187.5,458.46,187.7,458.61Z"/><path d="M182.15,102.2c-2.17,2.1-4.35,4.08-6.37,6.21a19,19,0,0,0-1.82,3c-.7,1.07-1.46,2.1-2.19,3.16-.07.09-.19.16-.21.26-.53,2.38-1,4.79-1.61,7.15a10.68,10.68,0,0,1-1.28,2.66,1.23,1.23,0,0,1-1-.16c-1.43-1.65-1.48-4-.35-6.2.58-1.12.79-2.45,1.45-3.51a38.19,38.19,0,0,1,5.87-8c1.73-1.64,2.87-4,4.77-5.35s2.73-3.13,4-4.74c.18-.23.45-.42.53-.67.57-1.8,1.1-3.61,1.66-5.49h2.57c-.37,1.08-.71,1.94-1,2.82-.67,2.28-1.46,4.54-1.91,6.87-.28,1.43.11,3,0,4.47s.87,2.63,1.7,3.6-.07,1.31-.32,1.76a1.54,1.54,0,0,1-1.38.53,1.83,1.83,0,0,1-1.1-1.08C183.42,107.11,182.83,104.73,182.15,102.2Z"/><path d="M122.74,134.89c.55,1.74.16,2.24-1.31,2.73a31.44,31.44,0,0,0-5.87,3.1c-2.37,1.42-4.69,2.95-7,4.47-.5.33-.88.83-1.36,1.19a58.64,58.64,0,0,0-6.52,4.89c-.9.87-1.41,1.7-2.74,1.36-1.24-1.85.52-2.71,1.37-3.7a21.59,21.59,0,0,1,3.8-3.4c1.06-.76,2.45-1.05,3.53-1.79,2.19-1.49,4.23-3.19,6.41-4.7.91-.64,2-.95,3-1.54a27.92,27.92,0,0,1,3.37-2.26A11.44,11.44,0,0,1,122.74,134.89Z"/><path d="M212.51,132.73c1.82.76,3.41,1.43,5,2.11s3.26,1.86,5,2.1a33.71,33.71,0,0,0,7-.15,11.52,11.52,0,0,0,2.61-.89c.12,1,.21,1.74.28,2.38-3.53,2.31-7.4,1.67-11.17,1.57-.64,0-1.25-.8-1.92-1.12a24.78,24.78,0,0,0-7.19-2.75c-.46-.07-1-.79-1.17-1.32-.08-.24.57-.75.88-1.13Z"/><path d="M158.86,90.6c-.47-2.73,1.29-4.2,2.82-5.09,2.22-1.29,4.89-1.79,7.33-2.73,1.67-.65,3.28-1.49,4.93-2.2a4.13,4.13,0,0,1,1.13-.12c0,.74.25,1.74-.13,2.18a6.52,6.52,0,0,1-2.43,1.43c-1.71.77-3.46,1.47-5.2,2.19a2,2,0,0,1-.68.19c-2.53.13-4,1.94-5.61,3.51C160.56,90.4,159.67,90.37,158.86,90.6Z"/><path d="M152.65,115.52c-2,.54-2.38-.09-3.06-1.29a9.72,9.72,0,0,1-1-6,36.49,36.49,0,0,1,1.28-5.69c.07-.24,1-.51,1-.45.43.69,1.27,1.72,1,2.13-1.41,2.55-.9,5.23-.73,7.85C151.29,113.19,152.1,114.26,152.65,115.52Z"/><path d="M102.08,105.65c-.4-.16-1.39-.27-1.54-.68s.25-1.33.43-2c.12-.45.26-.89.39-1.34.52-1.8,1-3.63,1.59-5.41.36-1,1.86-1.07,3-.38Z"/><path d="M109.36,86.36c-.34-1.26,0-2.1,1.31-2.39a1.37,1.37,0,0,0,.85-.49c.55-1.16,1-2.4,1.53-3.54a14.85,14.85,0,0,1,1.46-2c.36.3,1,.57,1,.91.22,2.09-.85,3.74-1.9,5.46S111.66,87.18,109.36,86.36Z"/><path d="M142.56,66.33h8.33v2.42c-2.3,0-4.61.13-6.88-.08-.6-.06-1.1-1.15-1.65-1.77Z"/><path d="M126.7,65.8c1.51-1.61,2.8-3.1,4.24-4.43.31-.29,1.16,0,1.81,0C132,64.59,129.32,66.63,126.7,65.8Z"/><path d="M265.4,227.63v-2.3c.13-.08.18-.15.22-.14,2.83.48,4.56-1.61,6.62-2.88,1.33-.83,1-2.17-.74-3.33-1.15-.76-2.14-1.82-3.8-1.68-.38,0-.87-1.26-1.36-2,2.35-1,3.75,0,5.22,1a20.32,20.32,0,0,0,4.23,2.43c1.74.64,1,2,1.06,3a3.22,3.22,0,0,1-1.1,2.1,21,21,0,0,1-2.52,1.64A10.85,10.85,0,0,1,265.4,227.63Z"/><path d="M275.63,207.45c1.83-.61,2.8.59,3.87,1.53.25.22.43.65.71.71,2.55.5,5.11.93,7.67,1.39l1.66.31a6.42,6.42,0,0,1-.41,1.84c-1.24,2.11-1.33,2-3.91.82a32,32,0,0,0-4.66-1.69C277.88,211.59,275.78,209.63,275.63,207.45Z"/><path d="M357,234.65c0-1.85,0-3.69,0-5.54,0-1,.55-1.7,1.49-1.51a2,2,0,0,1,.94,1.62c-.18,1.72-.8,3.41-.91,5.13s.29,3.3.33,5a5.32,5.32,0,0,1-.56,2c-.1.22-.56.28-.85.42a5.16,5.16,0,0,1-.58-1.55c-.08-1.85,0-3.7,0-5.55Z"/><path d="M334.36,190.68c-1.12-2.45.85-4.08,1.57-6a5.4,5.4,0,0,1,1.84-2.32c.54-.39,1.46-.26,2.22-.36-.19.48-.36,1-.58,1.42-1,2-2.78,3.53-2.88,6C336.47,190.81,335.46,190.86,334.36,190.68Z"/><path d="M300.94,335c-1.59.7-2.71,1.23-4-.27-.95-1.1-2.48-1.67-3.6-2.66-2.93-2.6-5.83-5.22-8.6-8-.71-.7-.91-1.95-1.27-3,0-.14.29-.6.45-.6.56,0,1.48-.09,1.65.21,1.88,3.29,4.88,5.48,7.67,7.85,1.82,1.57,3.8,2.95,5.68,4.45C299.59,333.58,300.17,334.25,300.94,335Z"/><path d="M314.62,443.9a37.32,37.32,0,0,1,1.52,4.87,5.25,5.25,0,0,0,2.83,3.9,5.45,5.45,0,0,1,1.93,1.76c.23.36-.14,1.61-.38,1.65a4.51,4.51,0,0,1-2.69-.18,8.72,8.72,0,0,1-2.4-2.37,11.08,11.08,0,0,1-1.27-2.35,32.07,32.07,0,0,1-1.61-3.95C312.12,445.79,312.51,444.56,314.62,443.9Z"/><path d="M293.5,367.25v-2.12a7.32,7.32,0,0,1,3.66.56c1.84.57,4,0,6.06-.08a12.14,12.14,0,0,0,1.47-.23c0,.63.34,1.53,0,1.84a4.5,4.5,0,0,1-2.31,1.3,12.26,12.26,0,0,1-4.09.16A36.53,36.53,0,0,1,293.5,367.25Z"/><path d="M310,429.72a6.22,6.22,0,0,1-5.2-3.34c-.2-.55-.68-1-.76-1.57-.12-.77-.29-1.9.12-2.3s1.37-.54,2.05.63c1,1.79,2.29,3.61,4.63,4.12.21.05.46,1.12.27,1.48A3.42,3.42,0,0,1,310,429.72Z"/><path d="M62.36,242.07c-.33.41-.59.76-.89,1.07-1.69,1.68-3.47,3.28-5.07,5a13,13,0,0,0-1.67,2.94c-.59,1.16-1,2.39-1.69,3.51a2,2,0,0,1-1.29.82c-.26.05-.87-.48-.88-.78a3.88,3.88,0,0,1,.43-1.62c.09-.23.47-.33.56-.55,1-2.46,1.61-5.08,2.9-7.33.85-1.48,2.61-2.44,4-3.62a2.83,2.83,0,0,1,1-.65,3.81,3.81,0,0,1,1.84-.2C61.86,240.79,62,241.5,62.36,242.07Z"/><path d="M67.37,234.6a26.19,26.19,0,0,0-1.15,3.25c-.26,1.21-.19,2.48-.38,3.7-.27,1.83-.59,3.66-1,5.45-.1.43-.77.71-1.18,1.06-.33-.72-.94-1.44-.94-2.16a23.88,23.88,0,0,1,.52-5.06,43.06,43.06,0,0,1,1.78-6c.16-.43,1.07-.58,1.64-.87Z"/><path d="M298.52,268.27H296c.2-2.41-.59-4.75.77-7,.35-.57.17-1.43.42-2.09.9-2.37,1.8-4.74,2.88-7,.16-.34,1.26-.23,1.92-.32,0,.74.37,1.69,0,2.19a14.28,14.28,0,0,0-2.47,7.4A65.64,65.64,0,0,1,298.52,268.27Z"/><path d="M227.53,290.42a22,22,0,0,1-1.3,2.33,36.77,36.77,0,0,1-4,5.19c-1.47,1.41-3.28,2.67-5.56,2.26-.36-.07-.94-1.05-.82-1.24.55-.9,1.17-2.15,2-2.43,3.12-1,4.67-3.69,6.86-5.7a11,11,0,0,1,2.07-1.19Z"/></g></g></svg>