<svg xmlns="http://www.w3.org/2000/svg" viewBox="0 0 489.02 390.79"><defs><style>.cls-1{fill:#fff;}</style></defs><g id="Layer_2" data-name="Layer 2"><g id="Layer_1-2" data-name="Layer 1"><path class="cls-1" d="M89.6,180.53c-1.1,1.33-2.1,1.13-3.32-.14a10.14,10.14,0,0,0-3-1.52c-1-.49-2.43-.71-3-1.52-1.06-1.41-2.76-2.37-3.07-4.43-.1-.66-1.35-1.42-2.2-1.64-4.2-1.1-7.45,1-10.74,3.22-1.36.89-2.69,2-4.61,1.94-6.77-.14-13.55.05-20.31-.24-3.07-.13-5.58,1.54-8.47,1.72-.19,0-.35.28-.54.41a28.22,28.22,0,0,1-4.75,3.13,14,14,0,0,0-6.16,4.15c-1.9,2.44-4.06,4.69-6,7.09-1.54,1.88-2.78,4-4.45,5.74-2.26,2.34-3.44,5.23-4.77,8.06-.6,1.27-1.09,2.59-1.57,3.91-.8,2.2-2,4.37-2.23,6.63a102.77,102.77,0,0,0-.31,12c.06,6.06-.17,12.21,1.66,18A30.12,30.12,0,0,1,3,253.07a2,2,0,0,0,.2.48c.73,1.83,1.54,3.62,2.14,5.49s1,3.91,1.54,5.87a1.77,1.77,0,0,0,.15.31c.78,1.57,1.51,3.16,2.32,4.72,1,1.86,1.71,4,3.07,5.47,2.71,3,6,5.48,8.63,8.51s6.43,3.65,10,4.58a19.06,19.06,0,0,0,6.27.2c2.67-.22,5.33-.74,8-1.2s5.27-1,7.91-1.52a1.33,1.33,0,0,0,.33-.13c2-1.18,3.93-2.5,6-3.53,2.86-1.43,5.86-2.59,8.74-4,2.15-1,4.17-2.35,6.34-3.36a3.16,3.16,0,0,1,2.39.15c.81.41,1.3,1.4,2.09,1.87,3,1.75,6,3.39,9,5.09.69.39,1.28,1,2,1.29,2,.92,4,1.86,6.1,2.62,2.66,1,5.36,1.89,8.1,2.65,2.39.66,4.85,1.08,7.28,1.61.17,0,.34.1.52.14a77.67,77.67,0,0,0,8.55,2.19c4.34.62,8.73.34,13.14,1.07,6,1,12.33-.19,18.38,1.62a13,13,0,0,0,3.53.05c.5,2.86,1,5.56,1.41,8.27.15.94,0,1.92.1,2.87q.63,5.52,1.37,11a4.2,4.2,0,0,0,.65,1.21c.67,1.2,1.67.88,2.8.85,1.82-.06,3.65.47,5.48.49,1.24,0,1.59.36,1.43,1.56-.55,4.28,0,8.59-1,12.94-1.12,5.24-.15,10.73-1.48,16.13-.73,3-2.26,5-3.87,7.24a11.2,11.2,0,0,1-2.92,2.44,39,39,0,0,1-4.72,2.82c-2.25,1.08-4.57,2-6.9,2.93a69.37,69.37,0,0,1-7,2.34c-2.59.68-5.24,1.08-7.87,1.6a.84.84,0,0,0-.17.05c-2.6,1.31-5.21,2.58-7.77,4a21.71,21.71,0,0,0-2.24,1.74,9.73,9.73,0,0,0-3,4.15c-1.2,2.56-1.1,6,.84,8,1.78,1.87,4.31,2.31,6.46,2.57a31,31,0,0,0,12-.83c3.44-.94,7.21-.66,10.84-1.4,4.56-.94,9.27-1.12,13.91-1.65.29,0,.55-.26.83-.28,2.1-.16,4.2-.44,6.3-.39,1.44,0,2.87.72,4.31.76q6.39.21,12.77.09c2.08,0,4.12.15,6.15-1.08,2.28-1.38,4.68-2.44,6-4.93a20.36,20.36,0,0,0,1.37-2.5A33,33,0,0,0,204,371.5a55.09,55.09,0,0,0,.14-9.7c-.26-4.66-.83-9.3-1.22-13.95-.36-4.38.48-8.87-1.12-13.16a3.85,3.85,0,0,1,.1-1.77,49.25,49.25,0,0,0,1-5.73c.07-1.38.91-2,1.63-2.94a8.34,8.34,0,0,0,2-3.2c.39-1.91.17-3.94.38-5.9a15.14,15.14,0,0,1,.91-3.09,30.36,30.36,0,0,0,1.48-4.63c.43-2.78,1.94-5,3.43-7.19a5,5,0,0,0,.61-1.28,3.14,3.14,0,0,1,3.39-2.51,12.24,12.24,0,0,0,3.87-.41c1.78-.53,3.46-1.37,5.19-2.07,1.4-.56,2.85-1,4.21-1.67s2.5-1.43,3.77-2.1c1.94-1,3.9-2,5.85-3,1.73-.89,3.09-3.6,5.52-1.13.12.12.46,0,.7,0,1.8,0,3.6,0,5.39-.15.78-.07,1.66-.86,2.27-.66a24.88,24.88,0,0,1,5.37,2.4c2.08,1.29,3.79,3.12,6.21,3.89,1.31.42,2.55,1,3.84,1.51,2.25.82,4.54,1.52,6.76,2.43,1.11.46,2.73,1.06,3,1.94a33.66,33.66,0,0,1,1.23,7.31c.36,3.93-.41,7.94,1.11,11.83.75,1.92.64,4.09,1.19,6.17a72,72,0,0,0,2.65,9,22,22,0,0,1,1.5,7.18,22.33,22.33,0,0,0,2.52,9.21,67.7,67.7,0,0,0,4.12,7.4c2.25,3.36,5.48,5.48,8.77,7.53a67.67,67.67,0,0,0,7.5,3.93,53,53,0,0,0,7,2.63c2.41.71,4.91,1.1,7.37,1.63.35.07.71.12,1,.21a57.78,57.78,0,0,0,7.73,2c4.92.61,9.88.57,14.84,1.39,8.44,1.39,17.11-.83,25.66,1.28,3.84.94,8,.46,12,1.11,4.63.74,9.46.49,14.18.31,5.46-.2,10.9-.79,16.35-1.25a5.79,5.79,0,0,0,1.35-.45A12.1,12.1,0,0,1,419,375c3.43-.54,6.88-1,10.32-1.48.12,0,.28,0,.35-.06,1.74-1.64,3.92-1,5.92-1.05a11.57,11.57,0,0,0,7-2.62c.42-.32.62-1.1,1.05-1.23,2.32-.68,2.44-3,3.51-4.59.85-1.24,1-2.91,1.61-4.36.7-1.79,1.78-3.49,2.18-5.34.55-2.56.64-5.19,1.14-7.8.73-3.78.46-7.74.61-11.33a10.42,10.42,0,0,1,2.45-1.65,8.65,8.65,0,0,1,3.29-.22c.2,0,.35,1.21.43,1.87.58,5.29-.69,10.69,1.14,15.95.35,1-.41,2.58-1,3.7-1.06,2-2.33,3.89-4.66,4.78a8.45,8.45,0,0,0-3.15,1.89,51.63,51.63,0,0,0-3.63,4.77c-.72,1-.43,4.24.43,4.64a13,13,0,0,0,6.4,1.58c3.28-.2,6.6.16,9.88-.07,4-.27,8.2.79,12.11-1.34,2.13-1.17,4.09-2.59,4.63-4.82a50.58,50.58,0,0,0,1.29-10.19c.12-4,.6-8-.67-12a12.54,12.54,0,0,1,.53-7.69c1-2.93,0-6.26,1.55-9.31.71-1.39.46-3.23,1.15-4.94,1.05-2.59,1.69-5.41,2.63-8.1a30.83,30.83,0,0,0,1.46-7.57c.24-2.92.06-5.87.06-8.81a10.61,10.61,0,0,0-3.1-7.28,14.21,14.21,0,0,0-11-4.21c-2.51.12-5,0-7.55.16a13.17,13.17,0,0,0-3,.86,39.81,39.81,0,0,1-5.09,1.58c-3.53.62-7.11,1-10.66,1.49a3.43,3.43,0,0,0-.7.18c-1.81.7-3.61,1.43-5.42,2.12a23,23,0,0,1-3.93,1.38c-2.16.39-4.27.33-6.49,1.21-2.81,1.11-6.12,1.13-9.23,1.3q-6.19.33-12.4.14c-6.12-.16-12.27.78-18.34-1-1.84-.53-4,0-5.91-.2-3.48-.4-7.08,1.05-10.48-1.16-1.47-.95-2.91-1.86-2.85-3.78.11-4-.15-8,.72-12.07s.31-8.25.55-12.37.94-8.26,1-12.39c.14-10.14.35-20.28,1.4-30.38,0-.12,0-.26,0-.35.17-.29.32-.72.56-.78a1,1,0,0,1,.86.4c.88,1.4,2.08,2.74,2.44,4.28a38.5,38.5,0,0,1,1.27,9.21c-.08,5.51-.62,11-1.07,16.5-.19,2.35-.66,4.67-.92,7a7.1,7.1,0,0,0,.23,2.09,10.45,10.45,0,0,1,.56,1.69c.19,4.77.54,9.54,2.74,13.86a7.81,7.81,0,0,0,3.45,3.63,23.54,23.54,0,0,0,7.21,1.27,12.67,12.67,0,0,0,4.17-1c1.56-.5,3.39-.75,4.53-1.76a10.55,10.55,0,0,1,8.39-2.47c6.53.68,13.24-1,19.63,1.42,9.5-.15,19.09,1.78,28.49-1.11,1.46-.44,2.46-1.22,2.52-2.81.06-1.74.36-3.57-.09-5.18a8.38,8.38,0,0,0-2.65-3.77,34.65,34.65,0,0,0-4.89-3l.15-.56a12.69,12.69,0,0,1,2-.45c5.46-.4,11,.67,16.37-1.28a25.24,25.24,0,0,0,4.62-2.16,8.36,8.36,0,0,0,3.24-4c1.09-2.44,1.24-4-.79-5.72-2.28-1.87-5.24-1.63-7.85-2.31s-5.72-.36-8.59-.31a80.43,80.43,0,0,1-13.95-1.28,2,2,0,0,1-.68-.18c-1.5-.77-3-1.58-4.5-2.34-1.75-.88-3.54-1.7-5.28-2.61-.53-.28-.86-1-1.39-1.16a9.15,9.15,0,0,1-5.31-4.76c-1.47-2.76-2.18-5.94-3-9-.68-2.48-1.07-5-1.6-7.55a2.66,2.66,0,0,0-.33-.82c-1.39-2.2-.85-4.4,1.53-5.24a2.4,2.4,0,0,0,1.82-2.82c-.2-2,.14-3.95-1.2-5.91-1-1.5-1-3.75-1.38-5.68a71.83,71.83,0,0,1-1.33-7.64c-.39-4.72-.59-9.43-1.16-14.16-1.24-10.29.51-20.76-1.35-31.09-.7-3.92-.49-7.92-1.25-11.94-1.13-5.95-.28-12.22-1.41-18.3-.29-1.57,0-3.24-.19-4.84-.38-3.51-.9-7-1.32-10.5a43.34,43.34,0,0,0-.45-4.44c-.58-2.5-1.42-4.94-2.09-7.42-.54-2-1-4-1.52-6a18.38,18.38,0,0,0-1.36-3.35,26.17,26.17,0,0,0-2.15-3.39c-.82-1.09-2.11-1.94-2.59-3.13-1-2.37-3.14-3.26-5-4.37A24.23,24.23,0,0,0,397.58,63c-3.3-.77-6.71-1.07-10.06-1.66a5.15,5.15,0,0,1-2-1,13.09,13.09,0,0,1-2.79-3.55,53,53,0,0,0-4.65-5.1c-2.3-2.58-5.44-2.87-8.55-3.21a4.44,4.44,0,0,0-1.68.49c-.54.18-1.06.42-1.61.57-2,.56-4,1.09-6,1.66-.18.05-.28.36-.46.49l-6.8,4.55c-.85.56-1.69,1.14-2.54,1.71a44,44,0,0,1-4.84,3.25,15.61,15.61,0,0,0-4.2,3.67c-1,1.09-2.16,2.11-3.23,3.16-1.55,1.5-3.15,3-4.62,4.54A55.23,55.23,0,0,0,329.93,77c-1.49,2-2.91,4-4.36,6s-2.73,3.81-4.14,5.67c-.09.11-.77,0-1-.24a12,12,0,0,1-1.67-3.24c-1.45-3-3.4-5.77-5.09-8.67-.57-1-.81-2.15-1.45-3.06-2.43-3.44-4.94-6.82-7.46-10.2-1.17-1.57-2.46-3.06-3.68-4.6-1.51-1.9-3-3.82-4.5-5.71-.89-1.11-1.81-2.23-2.81-3.25s-2.26-2.05-3.35-3.12c-1.62-1.59-3.16-3.27-4.82-4.82a29,29,0,0,0-3-2.18l-4.6-3.25a19.54,19.54,0,0,1-2-1.47,46.43,46.43,0,0,0-4.69-4.42c-2.45-1.7-5.19-3-7.77-4.51-1.14-.67-2.18-1.52-3.29-2.25A50.54,50.54,0,0,0,256,21c-1.31-.68-2.76-1.08-4.13-1.63A11.36,11.36,0,0,1,248.78,18c-1.51-1.27-3.35-1.62-5.09-2.25s-3.24-1.13-4.86-1.7l-6.48-2.3c-.44-.16-.9-.27-1.36-.42-2.24-.73-4.45-1.56-6.73-2.16s-4.56-1-6.84-1.43c-.11,0-.2-.13-.31-.17-2.12-.76-4.2-1.62-6.36-2.23a34.18,34.18,0,0,0-6.15-1.23c-3.13-.29-6.24-.39-9.3-1.35-1.71-.54-3.69-.2-5.55-.24-3.47-.08-6.64.47-8.71,3.74-.88,1.4-2.09,2.61-2.91,4.05s-1.62,1.85-3.11,1.18a17.24,17.24,0,0,1-2.46-1.42c-1.61-1-3.05-2.44-5.19-2.32a1.26,1.26,0,0,1-.86-.16c-1.61-1.65-4-1.25-5.86-2.23-1.49-.78-3.35-.88-4.82-1.69a16.41,16.41,0,0,0-7.72-2.25c-1.8,0-3.6-.05-5.39-.12-1.14,0-2.57.25-3.35-.32-1.76-1.29-3.62-.85-5.47-.93-.88,0-2.18-.26-2.6.22-1.61,1.8-4,1.5-5.85,2-3.94,1-7.85,1.85-11.21,4.23a20.85,20.85,0,0,0-4.13,3.71c-2,2.51-3.67,5.35-5.75,7.82a17.59,17.59,0,0,0-3.69,7.86,5.19,5.19,0,0,1-.3,1,42.28,42.28,0,0,0-2.05,4.51c-.46,1.49-.53,3-1.06,4.6a36.14,36.14,0,0,0-1.49,9.57A41.81,41.81,0,0,0,96.51,56c.95,4.71.14,9.7,1.59,14.45.74,2.43,1,5,1.6,7.49a24.66,24.66,0,0,0,1.18,3.52,11.58,11.58,0,0,0,1.58,3.21,70,70,0,0,0,5.2,5.28,6.85,6.85,0,0,0,2.27,1.38c1.67.62,3.46.94,5.07,1.66,2.16,1,4.11,2.6,6.34,3.26a27.8,27.8,0,0,1,6.5,3,10.91,10.91,0,0,1,2.87,2.17c2,2.42,3.57,5.14,5.65,7.44a16.71,16.71,0,0,0,5.69,4.51c1.92.76,4.37.19,6.59.16.21,0,.42-.32.61-.51a5,5,0,0,0,1.38-4.18,2.7,2.7,0,0,1,3-3.09,46,46,0,0,1,6.65.19c2.28.34,4-1,5.55-2a18.18,18.18,0,0,0,5.65-6.47c.39-.67.8-1.33,1.14-2,.66-1.36,1.29-2.73,1.93-4.1l.54-.06a18.34,18.34,0,0,1,.27,3.82c-.62,4.66.24,9.33-1,14.09-.89,3.44-1,7.06-3,10.19-.28.45-.8.75-1.11,1.19-1.67,2.39-3.35,4.77-5,7.21a54.4,54.4,0,0,0-2.89,4.88c-.64,1.24-1,2.62-1.56,3.92-.45,1.09-1,2.16-1.47,3.23-.74,1.58-1.52,3.15-2.22,4.75-.58,1.33-.75,3-1.67,4a97.18,97.18,0,0,1-7.18,6.72c-.84.75-2.42,1.19-2.64,2-.69,2.77-3.71,3.2-4.91,5.58-1,2-3.23,3.37-5,4.9a65.54,65.54,0,0,1-5.61,4.38c-1.74,1.2-3.69,2.11-5.47,3.26s-3.62,2.42-6,2.23a3.34,3.34,0,0,0-2.13.46,6.65,6.65,0,0,0-2.66,6c.18,2.55,0,5.12,0,7.65-2,.63-3.82,1.16-5.61,1.8a31.09,31.09,0,0,0-3.11,1.43c-1.5.72-3,1.47-4.51,2.19a14.26,14.26,0,0,1-2.51,1,1.29,1.29,0,0,1-1.14-.59A5.79,5.79,0,0,1,97,196c0-3.12,0-6.23-.08-9.34A4.12,4.12,0,0,0,94,182.74C92.52,182.16,91.14,181.32,89.6,180.53Z"/><path d="M89.6,180.53c1.54.79,2.92,1.63,4.4,2.21a4.12,4.12,0,0,1,2.91,3.92c.1,3.11.06,6.22.08,9.34a5.79,5.79,0,0,0,0,1.77,1.29,1.29,0,0,0,1.14.59,14.26,14.26,0,0,0,2.51-1c1.51-.72,3-1.47,4.51-2.19a31.09,31.09,0,0,1,3.11-1.43c1.79-.64,3.62-1.17,5.61-1.8,0-2.53.14-5.1,0-7.65a6.65,6.65,0,0,1,2.66-6,3.34,3.34,0,0,1,2.13-.46c2.37.19,4.14-1,6-2.23s3.73-2.06,5.47-3.26a65.54,65.54,0,0,0,5.61-4.38c1.79-1.53,4-2.92,5-4.9,1.2-2.38,4.22-2.81,4.91-5.58.22-.83,1.8-1.27,2.64-2a97.18,97.18,0,0,0,7.18-6.72c.92-1,1.09-2.66,1.67-4,.7-1.6,1.48-3.17,2.22-4.75.5-1.07,1-2.14,1.47-3.23.55-1.3.92-2.68,1.56-3.92a54.4,54.4,0,0,1,2.89-4.88c1.6-2.44,3.28-4.82,5-7.21.31-.44.83-.74,1.11-1.19,2-3.13,2.13-6.75,3-10.19,1.23-4.76.37-9.43,1-14.09a18.34,18.34,0,0,0-.27-3.82l-.54.06c-.64,1.37-1.27,2.74-1.93,4.1-.34.7-.75,1.36-1.14,2a18.18,18.18,0,0,1-5.65,6.47c-1.56,1-3.27,2.29-5.55,2a46,46,0,0,0-6.65-.19,2.7,2.7,0,0,0-3,3.09,5,5,0,0,1-1.38,4.18c-.19.19-.4.51-.61.51-2.22,0-4.67.6-6.59-.16a16.71,16.71,0,0,1-5.69-4.51c-2.08-2.3-3.69-5-5.65-7.44a10.91,10.91,0,0,0-2.87-2.17,27.8,27.8,0,0,0-6.5-3C119.11,95.63,117.16,94,115,93c-1.61-.72-3.4-1-5.07-1.66A6.85,6.85,0,0,1,107.66,90a70,70,0,0,1-5.2-5.28,11.58,11.58,0,0,1-1.58-3.21A24.66,24.66,0,0,1,99.7,78c-.58-2.49-.86-5.06-1.6-7.49-1.45-4.75-.64-9.74-1.59-14.45a41.81,41.81,0,0,1-.74-10.43A36.14,36.14,0,0,1,97.26,36c.53-1.56.6-3.11,1.06-4.6a42.28,42.28,0,0,1,2.05-4.51,5.19,5.19,0,0,0,.3-1,17.59,17.59,0,0,1,3.69-7.86c2.08-2.47,3.71-5.31,5.75-7.82a20.85,20.85,0,0,1,4.13-3.71c3.36-2.38,7.27-3.22,11.21-4.23,1.86-.49,4.24-.19,5.85-2,.42-.48,1.72-.25,2.6-.22,1.85.08,3.71-.36,5.47.93.78.57,2.21.28,3.35.32,1.79.07,3.59.09,5.39.12a16.41,16.41,0,0,1,7.72,2.25c1.47.81,3.33.91,4.82,1.69,1.88,1,4.25.58,5.86,2.23a1.26,1.26,0,0,0,.86.16c2.14-.12,3.58,1.27,5.19,2.32A17.24,17.24,0,0,0,175,11.52c1.49.67,2.35.16,3.11-1.18s2-2.65,2.91-4c2.07-3.27,5.24-3.82,8.71-3.74,1.86,0,3.84-.3,5.55.24,3.06,1,6.17,1.06,9.3,1.35a34.18,34.18,0,0,1,6.15,1.23c2.16.61,4.24,1.47,6.36,2.23.11,0,.2.15.31.17,2.28.47,4.59.83,6.84,1.43s4.49,1.43,6.73,2.16c.46.15.92.26,1.36.42l6.48,2.3c1.62.57,3.24,1.12,4.86,1.7s3.58,1,5.09,2.25a11.36,11.36,0,0,0,3.09,1.35c1.37.55,2.82.95,4.13,1.63a50.54,50.54,0,0,1,4.31,2.67c1.11.73,2.15,1.58,3.29,2.25,2.58,1.52,5.32,2.81,7.77,4.51a46.43,46.43,0,0,1,4.69,4.42,19.54,19.54,0,0,0,2,1.47l4.6,3.25a29,29,0,0,1,3,2.18c1.66,1.55,3.2,3.23,4.82,4.82,1.09,1.07,2.29,2,3.35,3.12s1.92,2.14,2.81,3.25c1.52,1.89,3,3.81,4.5,5.71,1.22,1.54,2.51,3,3.68,4.6,2.52,3.38,5,6.76,7.46,10.2.64.91.88,2.09,1.45,3.06,1.69,2.9,3.64,5.66,5.09,8.67a12,12,0,0,0,1.67,3.24c.19.21.87.35,1,.24,1.41-1.86,2.77-3.77,4.14-5.67s2.87-4,4.36-6a55.23,55.23,0,0,1,3.57-4.34c1.47-1.58,3.07-3,4.62-4.54,1.07-1,2.19-2.07,3.23-3.16a15.61,15.61,0,0,1,4.2-3.67A44,44,0,0,0,350.39,58c.85-.57,1.69-1.15,2.54-1.71l6.8-4.55c.18-.13.28-.44.46-.49,2-.57,4-1.1,6-1.66.55-.15,1.07-.39,1.61-.57a4.44,4.44,0,0,1,1.68-.49c3.11.34,6.25.63,8.55,3.21a53,53,0,0,1,4.65,5.1,13.09,13.09,0,0,0,2.79,3.55,5.15,5.15,0,0,0,2,1c3.35.59,6.76.89,10.06,1.66a24.23,24.23,0,0,1,7.06,2.64c1.82,1.11,4,2,5,4.37.48,1.19,1.77,2,2.59,3.13a26.17,26.17,0,0,1,2.15,3.39,18.38,18.38,0,0,1,1.36,3.35c.57,2,1,4,1.52,6,.67,2.48,1.51,4.92,2.09,7.42a43.34,43.34,0,0,1,.45,4.44c.42,3.5.94,7,1.32,10.5.17,1.6-.1,3.27.19,4.84,1.13,6.08.28,12.35,1.41,18.3.76,4,.55,8,1.25,11.94,1.86,10.33.11,20.8,1.35,31.09.57,4.73.77,9.44,1.16,14.16a71.83,71.83,0,0,0,1.33,7.64c.37,1.93.35,4.18,1.38,5.68,1.34,2,1,3.92,1.2,5.91a2.4,2.4,0,0,1-1.82,2.82c-2.38.84-2.92,3-1.53,5.24a2.66,2.66,0,0,1,.33.82c.53,2.52.92,5.07,1.6,7.55.85,3.06,1.56,6.24,3,9a9.15,9.15,0,0,0,5.31,4.76c.53.15.86.88,1.39,1.16,1.74.91,3.53,1.73,5.28,2.61,1.51.76,3,1.57,4.5,2.34a2,2,0,0,0,.68.18,80.43,80.43,0,0,0,13.95,1.28c2.87,0,5.88-.4,8.59.31s5.57.44,7.85,2.31c2,1.67,1.88,3.28.79,5.72a8.36,8.36,0,0,1-3.24,4,25.24,25.24,0,0,1-4.62,2.16c-5.33,1.95-10.91.88-16.37,1.28a12.69,12.69,0,0,0-2,.45l-.15.56a34.65,34.65,0,0,1,4.89,3,8.38,8.38,0,0,1,2.65,3.77c.45,1.61.15,3.44.09,5.18-.06,1.59-1.06,2.37-2.52,2.81-9.4,2.89-19,1-28.49,1.11-6.39-2.41-13.1-.74-19.63-1.42a10.55,10.55,0,0,0-8.39,2.47c-1.14,1-3,1.26-4.53,1.76a12.67,12.67,0,0,1-4.17,1,23.54,23.54,0,0,1-7.21-1.27,7.81,7.81,0,0,1-3.45-3.63c-2.2-4.32-2.55-9.09-2.74-13.86a10.45,10.45,0,0,0-.56-1.69,7.1,7.1,0,0,1-.23-2.09c.26-2.34.73-4.66.92-7,.45-5.49,1-11,1.07-16.5a38.5,38.5,0,0,0-1.27-9.21c-.36-1.54-1.56-2.88-2.44-4.28a1,1,0,0,0-.86-.4c-.24.06-.39.49-.56.78-.05.09,0,.23,0,.35-1.05,10.1-1.26,20.24-1.4,30.38-.06,4.13-.76,8.25-1,12.39s.3,8.39-.55,12.37-.61,8-.72,12.07c-.06,1.92,1.38,2.83,2.85,3.78,3.4,2.21,7,.76,10.48,1.16,2,.22,4.07-.33,5.91.2,6.07,1.76,12.22.82,18.34,1q6.19.18,12.4-.14c3.11-.17,6.42-.19,9.23-1.3,2.22-.88,4.33-.82,6.49-1.21a23,23,0,0,0,3.93-1.38c1.81-.69,3.61-1.42,5.42-2.12a3.43,3.43,0,0,1,.7-.18c3.55-.48,7.13-.87,10.66-1.49a39.81,39.81,0,0,0,5.09-1.58,13.17,13.17,0,0,1,3-.86c2.51-.16,5,0,7.55-.16a14.21,14.21,0,0,1,11,4.21,10.61,10.61,0,0,1,3.1,7.28c0,2.94.18,5.89-.06,8.81a30.83,30.83,0,0,1-1.46,7.57c-.94,2.69-1.58,5.51-2.63,8.1-.69,1.71-.44,3.55-1.15,4.94-1.57,3.05-.55,6.38-1.55,9.31a12.54,12.54,0,0,0-.53,7.69c1.27,4.05.79,8,.67,12A50.58,50.58,0,0,1,481,366.25c-.54,2.23-2.5,3.65-4.63,4.82-3.91,2.13-8.07,1.07-12.11,1.34-3.28.23-6.6-.13-9.88.07a13,13,0,0,1-6.4-1.58c-.86-.4-1.15-3.66-.43-4.64a51.63,51.63,0,0,1,3.63-4.77,8.45,8.45,0,0,1,3.15-1.89c2.33-.89,3.6-2.77,4.66-4.78.6-1.12,1.36-2.69,1-3.7-1.83-5.26-.56-10.66-1.14-15.95-.08-.66-.23-1.85-.43-1.87a8.65,8.65,0,0,0-3.29.22,10.42,10.42,0,0,0-2.45,1.65c-.15,3.59.12,7.55-.61,11.33-.5,2.61-.59,5.24-1.14,7.8-.4,1.85-1.48,3.55-2.18,5.34-.57,1.45-.76,3.12-1.61,4.36-1.07,1.57-1.19,3.91-3.51,4.59-.43.13-.63.91-1.05,1.23a11.57,11.57,0,0,1-7,2.62c-2,0-4.18-.59-5.92,1.05-.07.07-.23.05-.35.06-3.44.49-6.89.94-10.32,1.48a12.1,12.1,0,0,0-2.24.82,5.79,5.79,0,0,1-1.35.45c-5.45.46-10.89,1.05-16.35,1.25-4.72.18-9.55.43-14.18-.31-4-.65-8.18-.17-12-1.11-8.55-2.11-17.22.11-25.66-1.28-5-.82-9.92-.78-14.84-1.39a57.78,57.78,0,0,1-7.73-2c-.34-.09-.7-.14-1-.21-2.46-.53-5-.92-7.37-1.63a53,53,0,0,1-7-2.63,67.67,67.67,0,0,1-7.5-3.93c-3.29-2.05-6.52-4.17-8.77-7.53a67.7,67.7,0,0,1-4.12-7.4,22.33,22.33,0,0,1-2.52-9.21,22,22,0,0,0-1.5-7.18,72,72,0,0,1-2.65-9c-.55-2.08-.44-4.25-1.19-6.17-1.52-3.89-.75-7.9-1.11-11.83a33.66,33.66,0,0,0-1.23-7.31c-.28-.88-1.9-1.48-3-1.94-2.22-.91-4.51-1.61-6.76-2.43-1.29-.48-2.53-1.09-3.84-1.51-2.42-.77-4.13-2.6-6.21-3.89a24.88,24.88,0,0,0-5.37-2.4c-.61-.2-1.49.59-2.27.66-1.79.14-3.59.11-5.39.15-.24,0-.58.07-.7,0-2.43-2.47-3.79.24-5.52,1.13-2,1-3.91,2-5.85,3-1.27.67-2.47,1.49-3.77,2.1s-2.81,1.11-4.21,1.67c-1.73.7-3.41,1.54-5.19,2.07a12.24,12.24,0,0,1-3.87.41,3.14,3.14,0,0,0-3.39,2.51,5,5,0,0,1-.61,1.28c-1.49,2.23-3,4.41-3.43,7.19a30.36,30.36,0,0,1-1.48,4.63,15.14,15.14,0,0,0-.91,3.09c-.21,2,0,4-.38,5.9a8.34,8.34,0,0,1-2,3.2c-.72.9-1.56,1.56-1.63,2.94a49.25,49.25,0,0,1-1,5.73,3.85,3.85,0,0,0-.1,1.77c1.6,4.29.76,8.78,1.12,13.16.39,4.65,1,9.29,1.22,13.95a55.09,55.09,0,0,1-.14,9.7,33,33,0,0,1-2.16,6.83,20.36,20.36,0,0,1-1.37,2.5c-1.31,2.49-3.71,3.55-6,4.93-2,1.23-4.07,1.05-6.15,1.08q-6.37.12-12.77-.09c-1.44,0-2.87-.73-4.31-.76-2.1-.05-4.2.23-6.3.39-.28,0-.54.25-.83.28-4.64.53-9.35.71-13.91,1.65-3.63.74-7.4.46-10.84,1.4a31,31,0,0,1-12,.83c-2.15-.26-4.68-.7-6.46-2.57-1.94-2-2-5.48-.84-8a9.73,9.73,0,0,1,3-4.15,21.71,21.71,0,0,1,2.24-1.74c2.56-1.38,5.17-2.65,7.77-4a.84.84,0,0,1,.17-.05c2.63-.52,5.28-.92,7.87-1.6a69.37,69.37,0,0,0,7-2.34c2.33-.89,4.65-1.85,6.9-2.93a39,39,0,0,0,4.72-2.82,11.2,11.2,0,0,0,2.92-2.44c1.61-2.21,3.14-4.28,3.87-7.24,1.33-5.4.36-10.89,1.48-16.13.94-4.35.4-8.66,1-12.94.16-1.2-.19-1.54-1.43-1.56-1.83,0-3.66-.55-5.48-.49-1.13,0-2.13.35-2.8-.85a4.2,4.2,0,0,1-.65-1.21q-.75-5.5-1.37-11c-.11-.95,0-1.93-.1-2.87-.41-2.71-.91-5.41-1.41-8.27a13,13,0,0,1-3.53-.05c-6-1.81-12.35-.61-18.38-1.62-4.41-.73-8.8-.45-13.14-1.07a77.67,77.67,0,0,1-8.55-2.19c-.18,0-.35-.11-.52-.14-2.43-.53-4.89-.95-7.28-1.61-2.74-.76-5.44-1.67-8.1-2.65-2.08-.76-4.09-1.7-6.1-2.62-.7-.33-1.29-.9-2-1.29-3-1.7-6-3.34-9-5.09-.79-.47-1.28-1.46-2.09-1.87a3.16,3.16,0,0,0-2.39-.15c-2.17,1-4.19,2.32-6.34,3.36-2.88,1.4-5.88,2.56-8.74,4-2.07,1-4,2.35-6,3.53a1.33,1.33,0,0,1-.33.13c-2.64.51-5.27,1.06-7.91,1.52s-5.31,1-8,1.2a19.06,19.06,0,0,1-6.27-.2c-3.54-.93-7.25-1.48-10-4.58s-5.92-5.51-8.63-8.51c-1.36-1.51-2.09-3.61-3.07-5.47-.81-1.56-1.54-3.15-2.32-4.72a1.77,1.77,0,0,1-.15-.31c-.51-2-.92-4-1.54-5.87s-1.41-3.66-2.14-5.49a2,2,0,0,1-.2-.48,30.12,30.12,0,0,0-1.27-5.94c-1.83-5.84-1.6-12-1.66-18a102.77,102.77,0,0,1,.31-12c.24-2.26,1.43-4.43,2.23-6.63.48-1.32,1-2.64,1.57-3.91,1.33-2.83,2.51-5.72,4.77-8.06,1.67-1.73,2.91-3.86,4.45-5.74,2-2.4,4.12-4.65,6-7.09a14,14,0,0,1,6.16-4.15,28.22,28.22,0,0,0,4.75-3.13c.19-.13.35-.39.54-.41,2.89-.18,5.4-1.85,8.47-1.72,6.76.29,13.54.1,20.31.24,1.92,0,3.25-1.05,4.61-1.94,3.29-2.18,6.54-4.32,10.74-3.22.85.22,2.1,1,2.2,1.64.31,2.06,2,3,3.07,4.43.61.81,2,1,3,1.52a10.14,10.14,0,0,1,3,1.52C87.5,181.66,88.5,181.86,89.6,180.53ZM210.38,30.63c-.33.64-.6,1.21-.92,1.76-.75,1.3-1.46,2.62-2.29,3.87-1.06,1.58-2.23,3.09-3.35,4.64-.5.69-1,1.41-1.5,2.08-1.58,2-3.19,4-4.75,6a8.57,8.57,0,0,0-1.13,1.85c-1.05,2.5-1.86,5.12-3.12,7.51s-2.53,4.37-2.43,7c0,.24,0,.62-.08.69-2,1.2-.3,4-2.24,5.2-.47,3.59-1.21,7.17-1.35,10.78-.29,7.43.24,14.91-1.26,22.28q-.78,3.89-1.57,7.75a1.22,1.22,0,0,1-.07.17c-.79,2.53-1.63,5-2.36,7.6-.6,2-1.06,4.14-1.6,6.21,0,.16-.21.28-.29.43a42.73,42.73,0,0,0-2,3.88c-.65,1.65-1,3.41-1.66,5.07a17.86,17.86,0,0,1-1.64,3c-1.07,1.68-2.21,3.32-3.3,5a21.93,21.93,0,0,0-1.37,2.21c-.74,1.46-1.34,3-2.14,4.42-.91,1.65-2,3.18-3,4.81-1.51,2.58-2.78,5.33-4.5,7.76-1.92,2.7-4.22,5.12-6.36,7.66-1.07,1.26-2.22,2.46-3.24,3.76s-2,2.78-3,4.22-1.88,3.28-3,4.8c-2.42,3.31-4.91,6.58-7.48,9.78-1.35,1.68-2.9,3.22-4.41,4.78-.74.77-.82,1.29,0,2.22a39.17,39.17,0,0,1,3.22,4.78c.73,1.17,1.33,2.43,2,3.64,1,1.71,2.12,3.36,3,5.13.71,1.48,1,3.15,1.67,4.64,1.15,2.53,2.49,5,3.7,7.48.62,1.3,1.09,2.69,1.69,4a45.68,45.68,0,0,1,2.26,4.75c.8,2.54,2.11,3.05,4.21,1.46,1.43-1.08,3-1.94,4.5-3,1.72-1.22,3.7-2.28,5-3.87A7.9,7.9,0,0,0,166,224c-.26-4.17,2.26-7.43,3.07-11.21a17.22,17.22,0,0,1,1.34-3.56c.69-1.52,1.84-2.9,2.17-4.48a18.12,18.12,0,0,1,2.78-6.43c1.6-2.4,3-5,4.81-7.22a50.86,50.86,0,0,1,5.57-5.61c2.45-2.22,5-4.39,7.56-6.42a42.37,42.37,0,0,1,5.62-3.62,13.32,13.32,0,0,1,4-1.49c3.29-.58,6.63-.9,9.94-1.43a2.53,2.53,0,0,0,1.53-1.08,22.18,22.18,0,0,0,1.36-3c1.42-3.18,2.81-6.36,4.25-9.52.52-1.14,1.19-2.22,1.7-3.36.72-1.61,1.41-3.24,2-4.9s1-3.57,1.65-5.31c.69-1.92,1.58-3.76,2.29-5.67.57-1.56.6-3.52,1.59-4.7,1.41-1.68,1.17-3.77,2.15-5.55s1.17-4.32,1.71-6.5c.06-.23.16-.45.24-.68.71-2.12,1.53-4.21,2.09-6.37.64-2.47,1-5,1.55-7.51a3.09,3.09,0,0,1,.18-.51,24.73,24.73,0,0,0,2.28-8.44,5.71,5.71,0,0,1,.23-2c1.25-2.86,1.06-5.9,1.19-8.9a3.22,3.22,0,0,1,.29-.82,6.15,6.15,0,0,0,.78-2c.06-9,.05-18.11,0-27.16a4,4,0,0,0-.13-1.78c-1.57-2.85-.88-6-1.15-9a9.89,9.89,0,0,1,.45-2.39c.91,1.39,1.86,2.27,2.1,3.32a35,35,0,0,1,1.28,8.31c-.28,11,1.24,22-1,33C242.71,94,242.43,98,241.92,102a4.66,4.66,0,0,1-.23.87c-.73,2.28-1.59,4.53-2.19,6.84-.64,2.48-1,5-1.56,7.52a1.87,1.87,0,0,1-.15.32c-.74,2.12-1.56,4.21-2.19,6.35s-1,4.26-1.54,6.4a.84.84,0,0,1-.05.17c-.77,1.62-1.69,3.18-2.3,4.85-1.08,3-2,6-3,9.06-.08.21-.19.42-.28.63-.73,1.78-1.51,3.54-2.17,5.35-.59,1.61-.92,3.32-1.57,4.91s-1.83,2.82-2.2,4.36c-.63,2.65-2.64,4.49-3.54,6.94-.68,1.86-1.58,3.64-2.55,5.83,1.55.08,2.48.16,3.42.17,11.69.07,23.37.16,35.06.19,4.8,0,9.59-.1,14.39-.21a1.81,1.81,0,0,0,1.4-.71,25.48,25.48,0,0,0,1.21-3.77c.56-2.13,1.05-4.28,1.57-6.43a1.45,1.45,0,0,1,.07-.35c.78-1.62,1.61-3.22,2.33-4.87,1-2.33,1.87-4.72,3-7s2.28-4.2,3.42-6.3c.5-.93,1-1.86,1.44-2.82.62-1.29,1.07-2.68,1.81-3.91,1.52-2.51,3.18-4.94,4.79-7.4a17.14,17.14,0,0,0,1.26-1.92c.61-1.3,1.07-2.66,1.66-4a12,12,0,0,1,1.37-2.54c1.94-2.46,4.06-4.79,5.95-7.28s3.66-5.44,5.7-8a26.32,26.32,0,0,1,4.69-4.38c2.05-1.55,4.32-2.79,6.44-4.24a4.5,4.5,0,0,0,1.54-4.75c-.87-2-1.6-4-2.51-5.92-.58-1.23-1.38-2.36-2.08-3.53-1-1.69-2.05-3.38-3.05-5.08-.77-1.32-1.44-2.7-2.27-4s-1.92-2.45-2.78-3.74c-1.14-1.7-2-3.58-3.27-5.19-2-2.61-4.2-5.09-6.36-7.59-1.69-2-3.36-4-5.19-5.8-2.4-2.4-4.91-4.72-7.46-7-1.94-1.7-4-3.23-6.05-4.82-1.88-1.46-4-2.66-5.61-4.4-2.4-2.7-5.6-4.12-8.45-6.08-2-1.34-4.06-2.46-6.09-3.69a24.46,24.46,0,0,0-2.37-1.47c-1.28-.58-2.81-.77-3.9-1.57-1.88-1.38-4.09-1.79-6.14-2.64-1.33-.56-2.73-.93-4.08-1.46-1.89-.74-3.76-1.55-5.64-2.32-.33-.13-.69-.2-1-.32-2.05-.75-4.06-1.66-6.17-2.22-2.46-.64-5.18-.58-7.44-1.59a17.78,17.78,0,0,0-4.62-1.23,1.15,1.15,0,0,1-.32-.15A39.08,39.08,0,0,0,210.64,8c-2.32-.56-4.7-.49-7.11-1.25-2.82-.9-6-.4-9.06-1.28-2-.58-4.29-.25-6.44-.2a6.76,6.76,0,0,0-6.36,4.15,30.16,30.16,0,0,1-1.46,3,14.75,14.75,0,0,0-2.15,7.13c-.2,5.68,0,11.38-.24,17.07-.12,3-1,6-1,9-.14,10-.05,19.91,0,29.87a7.5,7.5,0,0,0,.08,1.25,36.86,36.86,0,0,1,1,5.72c.13,8.51.2,17,0,25.54a23.53,23.53,0,0,1-1.53,7.49c-.65,1.77-2.14,3.23-3.24,4.84-.16.24-.2.56-.34.81a13.76,13.76,0,0,1-1.59,2.78,24.25,24.25,0,0,0-5,7.55c-.49,1.24-1.1,2.42-1.69,3.61-1.11,2.25-2.34,4.43-3.32,6.73-.7,1.62-1,3.39-1.6,5.08-.07.24-.38.39-.55.61l-3.8,4.9c-.37.39-1.13.41-1.58.8-1.47,1.28-2.84,2.68-4.23,4.05-2.06,2-4.12,4-6.14,6.1-1.5,1.51-2.87,3.14-4.43,4.58-1.73,1.6-3.6,3-5.43,4.54-.82.67-1.68,1.29-2.54,1.91-1.5,1.07-3,2.2-4.54,3.14-1.3.77-2.73,1.31-4.15,2,3.13,5.06,7.19,9.41,9.15,15.2.6-.07,1.56.11,2-.28a29.47,29.47,0,0,0,2.76-3.59c1.55-2.14,3-4.32,4.61-6.44,1.09-1.49,2.31-2.88,3.42-4.36s2.37-3.23,3.52-4.88,2.09-3.12,3.19-4.64c.52-.71,1.2-1.3,1.78-2a40.58,40.58,0,0,0,4.35-5.24c1-1.7,2.47-3,3.3-5,1.13-2.59,3.17-4.76,4.58-7.25,1.52-2.67,2.73-5.53,4.17-8.25.59-1.11,1.5-2,2.15-3.12a54.6,54.6,0,0,0,2.93-5.29c.7-1.5,1.09-3.15,1.65-4.72.36-1,.77-2,1.15-3,.79-2.08,1.68-4.12,2.32-6.24s1-4.27,1.51-6.41a.58.58,0,0,1,0-.18c.77-2.14,2-4.22,2.24-6.42.47-4.15,1-8.3,1.45-12.45.73-7-.63-14.06,1.29-21,.38-1.37.25-2.87.63-4.24.58-2,1.42-4,2.1-6,.54-1.62,1-3.28,1.52-4.89a20.17,20.17,0,0,1,1.3-2.74c.75-1.44,1.57-2.84,2.34-4.27s1.32-2.8,2.16-4.08,2.12-2.61,3.05-4c1.53-2.27,2.84-4.69,4.44-6.92,1.24-1.74,3-3,3.9-5.15C207.44,31,208.51,29.28,210.38,30.63Zm222.7,267.53A7.12,7.12,0,0,0,432,298c-6.54.63-13.09-.41-19.69.89-4.78.95-9.91.22-14.88.09-1.43,0-2.83-.69-4.26-.88-6-.81-12.06,1-18-1.31-2.69-1-4.89-2.91-4.95-5.89-.05-2.39-.08-4.79,0-7.19a125.89,125.89,0,0,1,.93-16c1.21-8.12.11-16.37,1.25-24.61a51.87,51.87,0,0,0-.44-18.15c-1.13-5.25-1.2-10.74-1.72-16.12-.08-.89.22-1.9-.09-2.67a3.79,3.79,0,0,0-1.87-2,9.09,9.09,0,0,0-3.14-.11c-.08,0-.18.28-.23.45a21.41,21.41,0,0,0-1,4.15,16.25,16.25,0,0,1-2.6,7.47c-1.55,2.6-2.76,5.39-4.31,8a46.25,46.25,0,0,1-3.69,5.05c-.95,1.2-2,2.31-3.09,3.44a28.59,28.59,0,0,0-2.66,3.41,50,50,0,0,1-6.05,6.65,44.92,44.92,0,0,1-4.8,4c-1.84,1.35-3.78,2.57-5.71,3.8a30.42,30.42,0,0,1-4.69,2.75,51.7,51.7,0,0,1-6,1.67c-.23.07-.61.08-.66.21-.47,1.28-1.58,1-2.54,1.1a4.8,4.8,0,0,0-1.18.39c-1.71.68-3.37,1.76-5.14,2-3.59.46-7.19.59-10.82,1.2-5.62.94-11.48.37-17.16,1.4-.57.1-1.43.38-1.57.78a20.05,20.05,0,0,0-.88,10.22c.37,2.22.72,4.46.92,6.7.6,6.81-.56,13.68,1.05,20.5.72,3.08.12,6.46.38,9.68s.77,6.42,1.31,9.61c.36,2.11,1,4.18,1.47,6.27,0,.06.05.11.07.17a57.2,57.2,0,0,1,2.21,6.5c.47,2.22.26,4.5,1.11,6.77,1.34,3.59,2.09,7.39,3.08,11.11a1.51,1.51,0,0,0,.18.49,59.74,59.74,0,0,0,3.72,4.88,19.93,19.93,0,0,0,4.85,4.26c1.87,1,3.17,2.75,5.47,3.23,1.63.34,2.91,2.12,4.87,2.21a1.42,1.42,0,0,1,1,.37c.84,1.17,2.07.94,3.23,1.05a4.16,4.16,0,0,1,1.06.13c2.1.73,4.15,1.68,6.3,2.21,1.83.44,3.69.62,5.56,1.14,3.58,1,7.42,1.13,11.16,1.53,2.14.22,4.5-.22,6.39.54a15,15,0,0,0,5.51.85c2.94.07,5.88-.07,8.81.08,6,.29,12-.56,18.1.95,4.49,1.13,9.29,1.24,14,1.33,4,.09,7.92.69,12-.63,2.57-.85,5.59-.28,8.4-.4a12.28,12.28,0,0,0,2.84-.37c2.29-.65,4.51-1.62,6.84-2.1,3.26-.68,6.6-1,9.9-1.53a29.37,29.37,0,0,0,3.14-.88l1.25.79.44-.25a17.88,17.88,0,0,0-.35-2.31,14.48,14.48,0,0,1-.9-2.56c-.15-2.33-.08-4.68-.13-7a7.05,7.05,0,0,0-.21-1.78c-.72-2.55-1.64-5.06-2.2-7.65s-.35-5.28-1-8c-1.13-4.54-1.22-9.36-1.62-14.07-.19-2.21.11-4.46-.13-6.65-.56-5.24,1.46-10.19,1.56-15.35a3.44,3.44,0,0,1,.16-.69C432.27,301.64,432.66,300,433.08,298.16Zm-179.8-82.55c.68,1.7-.05,2.94-.49,4.46a53.55,53.55,0,0,1-2.8,6.69,11.72,11.72,0,0,1-3.81,4.35c-2.15,1.73-4.44,3.28-6.56,5-1.54,1.28-2.69,3.49-4.4,4-3.16.93-2.17,3.13-2.29,5a3.59,3.59,0,0,0,1.18,3.32c2.64,2.34,5.94,3.37,8.93,5a14.46,14.46,0,0,0,2.53,1.24c1.78.6,3.84.71,5.37,1.68,2.94,1.87,6.49.51,9.38,2.2,8.16-.54,16.32.77,24.55-.76,5.5-1,11.3-.22,16.9-1.53,1.94-.45,4.09.05,6.09-.23a34.74,34.74,0,0,0,6.07-1.58c1.73-.58,3.34-1.54,5.07-2.14,1.92-.67,3.91-1.11,5.86-1.68.25-.08.43-.36.67-.52,1.59-1,3.21-2,4.79-3.12,2.33-1.59,4.7-3.14,6.94-4.86a51.7,51.7,0,0,0,5-4.39c1.43-1.43,3.12-2.84,3.9-4.61,1.06-2.41,3.05-3.88,4.69-5.63a42.85,42.85,0,0,0,5-7c.65-1.05,1-2.32,1.71-3.28a18.14,18.14,0,0,0,3.56-7.92c.12-.65.71-1.21.8-1.86a24.76,24.76,0,0,0,.06-3.11l-2.38.4a14.48,14.48,0,0,0-1.74.35c-1.87.59-3.76,1.15-5.58,1.87a22.76,22.76,0,0,0-2.94,1.69c-1.65,1-3.33,1.89-4.95,2.91a47.79,47.79,0,0,0-5.35,3.62c-2.18,1.82-4.18,3.88-6.21,5.87-1,1-2,2.07-2.92,3.17a47.52,47.52,0,0,1-4.46,5.38c-.59.54-2.44.22-3.37-.32-.78-.44-1-1.79-1.55-2.68-.36-.59-1-1-1.28-1.63-.63-1.29-1.07-2.67-1.66-4a29.46,29.46,0,0,0-1.42-2.66c-.73-1.24-1.5-2.46-2.23-3.69-.59-1-1.09-2.09-1.74-3.06-1.11-1.64-2.29-3.23-3.48-4.82s-2.28-3.14-3.58-4.55-2.85-2.56-4.19-3.93-2.38-2.76-3.63-4.07c-.9-.94-2-1.71-2.88-2.63-2.35-2.36-4.65-4.76-7-7.14a1,1,0,0,0-.51-.13,5.87,5.87,0,0,1-3.67-1.24c-2.19-1.8-4.69-3.2-7-4.83a23.45,23.45,0,0,0-2.19-1.84,13.11,13.11,0,0,0-6.31-1.18c-16.61.05-33.21-.07-49.82-.07a17.79,17.79,0,0,0-3.48.84,4.31,4.31,0,0,1-1.11-.13c-1.29-.08-2.59-.21-3.88-.18-.61,0-1.23.53-1.84.52a17.56,17.56,0,0,0-9.54,2.89,15.62,15.62,0,0,0-1.47,1.1c-1.45,1.17-2.91,2.31-4.33,3.52-1.1.92-2.08,2-3.2,2.88-1.43,1.16-3.29,2-4.34,3.37-2,2.67-4.46,5-5.72,8.25-.83,2.16-2.53,4-3.39,6.14-1.25,3.09-2.4,6.19-3.89,9.2-1.31,2.63-1.89,5.63-2.73,8.48a30.79,30.79,0,0,0-1.2,4.86,47.11,47.11,0,0,1-1.39,7.65c-1,3.48.39,7.31-1.22,10.93-.88,2-.41,4.31-1.24,6.52-1,2.77-1.1,5.92-1.54,8.9-.39,2.6,0,5.2-1,7.84s-.95,5.5-1.3,8.22c-.77,6.08-.55,12.3-.45,18.46.08,5.14-.4,10.34,1.25,15.39.42,1.26.13,2.74.26,4.11a2.47,2.47,0,0,0,2.45,2.3c1.84.15,3.7,0,5.56.11,3.47.12,7.09-.28,10.36.62s6.22.57,9.32.86c1.13.1,2.28.05,3.41.09.42,0,.94-.09,1.24.11,2.59,1.78,5.58.87,8.37,1.3a1.17,1.17,0,0,0,1-.49c.47-1.6.88-3.23,1.19-4.87.24-1.22.11-2.54.47-3.72.62-2,1.51-3.92,2.25-5.89.55-1.45,1-2.95,1.59-4.39a20.68,20.68,0,0,1,1.49-2.78c1.56-2.59,3.17-5.14,4.72-7.73.85-1.41,1.6-2.87,2.4-4.31.92-1.64,2.2-3.17,2.67-4.93a32.21,32.21,0,0,1,2.54-6.26c1-2.11,1.81-4.37,2.74-6.55a27.55,27.55,0,0,0,1.34-2.73c.63-2.05,1.09-4.14,1.63-6.21.05-.17.16-.32.22-.48.7-1.89,1.88-3.75,2-5.68.3-4.9.13-9.83.13-14.74a3.33,3.33,0,0,0-.19-1.42c-1.11-2.27-2.29-4.51-3.45-6.77-.47-.89-.92-1.8-1.42-2.68-.81-1.41-1.76-2.75-2.46-4.22a6.8,6.8,0,0,1-.19-2.33c.66.05,1.61-.16,1.93.2a12.26,12.26,0,0,1,1.78,3c.61,1.28,1.05,2.65,1.65,4,.44,1,1.06,1.85,1.53,2.81a24.57,24.57,0,0,1,2.27,5.17c.36,1.71,1.12,1.79,2.43,1.6.13-1.31-.16-2.81.46-3.61,1.48-1.92,1.64-4.25,2-6.34.55-3,.2-6.08.12-9.13,0-.69-.61-1.34-.71-2a9.15,9.15,0,0,1,0-3.13c.07-.33,1.18-.43,1.76-.62,1.84,6.55,2.94,12.88.74,19.55a4.44,4.44,0,0,0,2.23-.78,59,59,0,0,0,4.45-4.21,18.68,18.68,0,0,0,3.3-4.11C249.73,220.73,250.34,217.63,253.28,215.61Zm122.24,1.33c4.42.16,8.74-.09,13,1.09,2.31.64,4.89.32,7.34.5,4,.28,7.89-.68,11.72-1.69,2.24-.6,4.33-1.92,6.59-2.3,3.16-.53,5.59-2.28,8.19-3.84a11,11,0,0,1,3.41-1.57,1.9,1.9,0,0,0,1.79-2.37c-.14-1-1-1.83-1.12-2.8a25,25,0,0,0-1.13-5.47c-.84-2.19-.76-4.67-1.33-7-.89-3.66-.86-7.56-1.35-11.37-1.2-9.31.42-18.81-1.27-28.19-1.1-6.05.3-12.24-1.32-18.42-1.34-5.17-1.05-10.76-1.56-16.16-.39-4.22.4-8.44-1-12.69-1.13-3.46-.16-7.36-1.53-11-1-2.53-1.16-5.34-1.7-8a1.27,1.27,0,0,0-.13-.32c-.74-1.67-1.51-3.32-2.21-5a35.91,35.91,0,0,0-1.63-4.16,31.44,31.44,0,0,0-3.65-5.21,12.36,12.36,0,0,0-3.72-2.76,32.9,32.9,0,0,0-5.11-1.69,79,79,0,0,0-8-2.3,19.73,19.73,0,0,0-6.09-.1,30.13,30.13,0,0,0-5.64,1.62A9.6,9.6,0,0,0,375.47,67c-2.08,1.59-4.16,3.2-6.09,5a59.88,59.88,0,0,0-4.46,4.81,67.47,67.47,0,0,1-4.61,5.46c-2.37,2.19-4,4.87-5.95,7.39-1.16,1.54-2.43,3-3.65,4.49-.91,1.11-1.85,2.2-2.7,3.35-1.07,1.47-2,3-3.1,4.48s-2.38,3-3.52,4.61c-1,1.36-1.67,3.12-2.95,4.08s-.92,1.78-.85,2.62c2.59,1.11,5,2.11,7.38,3.18a16.48,16.48,0,0,1,2.74,1.57c1.61,1.13,3.15,2.35,4.71,3.53,1.9,1.44,4.09,2.62,5.6,4.38a54.3,54.3,0,0,1,5.34,7.94c1.54,2.61,2.83,5.38,4.2,8.09.48.94.88,1.92,1.34,2.88,1.21,2.55,2.57,5,3.61,7.68a54.64,54.64,0,0,1,1.7,6,4.28,4.28,0,0,0,.15.51,50.85,50.85,0,0,1,2.15,5.12c.69,2.32,1.1,4.73,1.63,7.1a4.48,4.48,0,0,0,.16.52c.71,1.84,1.78,3.62,2.06,5.53.45,3,.47,6,1.22,9.07.64,2.62.29,5.48.42,8.24a20.93,20.93,0,0,0,.3,2.21l.46.13a28.73,28.73,0,0,0,2.79-3.68c1.13-2.12,2-4.39,2.95-6.58.52-1.14,1.11-2.25,1.62-3.4a37.39,37.39,0,0,0,2.05-4.86c.67-2.35,1.05-4.77,1.55-7.17,0-.11.1-.21.14-.33.72-2,1.54-4.06,2.11-6.15a60.9,60.9,0,0,0,1.36-6.55c.49-3.09.55-6.2,1.17-9.34,1.11-5.59.25-11.49,1.57-17.17.38-1.67.1-3.48.32-5.19.19-1.43,1.07-2.84,1-4.21-.28-3.94,1-7.61,1.55-11.4a4.7,4.7,0,0,1,.47-1.1c.47.6,1,1,1.13,1.51a12,12,0,0,1,.45,3.51c-.06,1.08-.66,2.13-.82,3.22-.45,3.15-.29,6.3-1,9.51-1,4.86-.26,10-1.58,15-.76,2.86-.09,5.87-1,8.91-1.18,3.91-1.2,8.17-1.74,12.27a11.18,11.18,0,0,1-.47,2.06c-.23.67-.67,1.28-.84,2-.58,2.29-1,4.62-1.63,6.88s-1.7,4.31-2.17,6.55A14.82,14.82,0,0,1,391.2,187a7.34,7.34,0,0,0-1.32,2.35c-.79,3.3-2.94,5.77-4.82,8.42-1.65,2.32-3.72,4.31-3.45,7.71a6.65,6.65,0,0,1-3,6.07c-2.37-3.84-2.37-3.84-3.9-3.5C375,210.94,375.23,213.83,375.52,216.94ZM379,206.13c.08-1.23.14-2.34.23-3.44.57-7.89-.63-15.68-1.42-23.49a4.75,4.75,0,0,0-.24-1c-.74-2.22-1.56-4.41-2.21-6.66-.58-2.05-1-4.15-1.46-6.23a5.21,5.21,0,0,0-.2-.5c-.76-1.9-1.58-3.78-2.24-5.71-.6-1.76-1-3.59-1.54-5.36a26.3,26.3,0,0,0-1.36-3.45c-.71-1.46-1.6-2.84-2.3-4.31-1-2.2-2-4.44-3-6.67a17.81,17.81,0,0,0-1.34-2.9c-1.47-2.1-3.48-3.92-4.53-6.19-1.31-2.82-4-4-5.94-6a9.29,9.29,0,0,0-2-1.38c-1.76-1-3.53-2.08-5.32-3.07-2.12-1.17-4.22-2.39-6.42-3.37-.72-.32-2.21-.29-2.53.16-1.64,2.32-4.95,2.87-6,5.77-.06.16-.43.19-.6.34a17.21,17.21,0,0,0-1.74,1.67c-1.46,1.74-2.78,3.6-4.3,5.28-2,2.21-4.18,4.26-6.22,6.44-.66.7-1.1,1.6-1.71,2.35-2.34,2.89-5.08,5.52-6.95,8.68-1.74,2.94-4.59,4.89-6,8.1-1,2.35-3.18,4.2-4.75,6.33-1.27,1.73-2.41,3.56-3.61,5.34-1.58,2.34-3.44,4.5-4.52,7.18-.55,1.35-1.67,2.51-2,3.88-.3,1.13-.33,2.88.33,3.59,1.51,1.63,3.59,2.71,5.33,4.15a48.09,48.09,0,0,1,3.44,3.41c1,1,2,2,3,3s2.24,2.08,3.29,3.18,1.72,2.47,2.88,3.28c2.77,1.93,4.45,4.67,6.21,7.39.63,1,1.18,2,1.83,3s1.55,2,2.22,3c1,1.61,1.93,3.28,2.92,4.91.19.32.6.51.78.84.83,1.5,1.6,3,2.43,4.54.65,1.19,1.35,2.35,2.3,4,.56-.34,1.32-.74,2-1.24a12.65,12.65,0,0,0,1.65-1.54c1.18-1.26,2.32-2.54,3.48-3.82s2.32-2.7,3.59-3.92,2.83-2.47,4.26-3.68a25.06,25.06,0,0,1,3.36-2.75c2-1.17,4.14-2.12,6.25-3.1,1.05-.49,2.43-.55,3.19-1.29a14.28,14.28,0,0,1,7.57-3.32c4.11-.73,8.54-1.64,12.63.92C373.84,203.86,376.27,204.8,379,206.13ZM176.76,14.75c-1.48-.31-2.81-.19-3.38-.79-2.54-2.66-6.12-3.14-9.19-4.63-1.75-.85-3.82-1-5.74-1.53a5.26,5.26,0,0,1-1-.4c-1.31-.65-2.56-1.71-3.93-1.9-3.14-.45-6.09-2.08-9.38-1.5a6.29,6.29,0,0,1-1.62,0c-2-.16-4.11.32-6.05-.93a4.16,4.16,0,0,0-2.79,0c-2.94.67-5.84,1.49-8.77,2.2-2.11.51-4.24.94-6.35,1.41a.92.92,0,0,0-.34.12c-1.71,1.25-3.48,2.42-5.09,3.79a20.69,20.69,0,0,0-3,3.3c-1,1.37-1.92,2.87-2.91,4.29-.24.35-.8.51-1,.87-.65,1.3-1.23,2.64-1.8,4A74.42,74.42,0,0,0,101,31.33a74.64,74.64,0,0,0-1.54,8.72,3.06,3.06,0,0,1-.15.88c-1.72,3.34-.88,6.92-1,10.41a7.71,7.71,0,0,0,.42,1.91A24.41,24.41,0,0,1,99.44,56c.52,3.88-.5,7.84,1,11.74.79,2,.72,4.28,1.38,6.45a51.24,51.24,0,0,0,2.71,8,15.15,15.15,0,0,0,1.49,2.39,17.4,17.4,0,0,0,7.74,5.6l5.58,2.18c.92.36,1.85.77,2.27-.68a3.1,3.1,0,0,1,.61-1.07,15.11,15.11,0,0,0,3.47-7.12c.07-.35.14-.7.24-1,.76-2.42,2-4.79,2.19-7.25.47-5.13.1-10.32,1.37-15.39.35-1.39,1.6-2.57,2.86-2.05a52.31,52.31,0,0,1,6,2.94c1.08.61,4.31,1.28,5.23.62a4.49,4.49,0,0,0,1.64-1.86,20.33,20.33,0,0,0,1-4.36A12.83,12.83,0,0,1,149,49.21c1.74-2.46,3.78-3.67,6.74-3.53,1.86.09,3.72.07,5.58,0a4.54,4.54,0,0,0,2.11-.26A81,81,0,0,0,171,40.56a9.66,9.66,0,0,0,4.16-7.65c.1-4.55.2-9.11.34-13.66a8.85,8.85,0,0,1,.39-2.09C176.12,16.37,176.45,15.6,176.76,14.75ZM450.46,367.9l-.27.54c1.53.44,3.05,1.24,4.59,1.27,6.63.1,13.3.71,19.83-1.11,1.53-.43,3.64-2.07,3.79-3.59.45-4.48-.14-9,1.22-13.5.34-1.11-.74-2.59-1-3.94-1-6.41,1-12.63,1.33-18.95a.57.57,0,0,1,0-.18c.75-2.19,1.57-4.37,2.26-6.58.92-2.9,1.88-5.8,2.57-8.76a55.34,55.34,0,0,0,1.37-8.66,22,22,0,0,0-.8-7.46c-.78-2.78-2-4.62-4.49-5.74a35,35,0,0,0-3.77-1.53,9.3,9.3,0,0,0-3.2-.53,43.75,43.75,0,0,0-4.66.72c-2.37.39-4.78-.28-7.15,1.29-1.67,1.1-4.17,1-6.31,1.34-3.16.55-6.34,1-9.48,1.63a21.55,21.55,0,0,0-4.13,1.38c-2.15.89-4.25,1.89-6.59,2.94a1,1,0,0,0-.1.37c-.5,4.21-1,8.42-1.5,12.64a3.45,3.45,0,0,1-.27,1.21c-1.62,3-.85,6.17-.59,9.29.17,2,.71,4,.83,6,.15,2.55,0,5.12,0,8a34.34,34.34,0,0,0,4.8-.47c2.31-.58,4.52-1.81,6.84-2.05,2.54-.27,5.08-.36,7.29-1.68,1.68-1,3.77-1.22,4.91-3.27.62-1.11,1.84-2.54,3.64-1.46,0,2.95-.1,5.88,0,8.8.17,3.82-.38,7.63,1,11.49a10.86,10.86,0,0,1-.58,7.51c-.86,2.13-2.33,3.59-3.53,5.2s-3.34,2.24-5.12,3.22c-1.09.6-2.09,1.14-2.2,2.59A9.7,9.7,0,0,1,450.46,367.9Zm-249.24-43c-.58-2.06-2-2.24-3.64-2.19-1.12,0-2.62.26-3.3-.35-1.14-1-2.29-.84-3.48-.89-2-.09-4-.08-5.94-.15a7,7,0,0,1-2.3-.28c-3.58-1.43-7.26-.58-10.83-.84-1.11,5.33.05,10.5-1.3,15.68s.62,10.75-1.67,15.91c-.67,1.51-1.2,3.08-1.87,4.59a5.18,5.18,0,0,1-1.12,1.61q-1.68,1.59-3.48,3a53.24,53.24,0,0,1-4.54,3.41,25.77,25.77,0,0,1-3.75,1.67c-1.1.48-2.23.91-3.31,1.43a34.7,34.7,0,0,1-4.44,2.22c-2.16.67-4.44,1-6.67,1.44-.18,0-.45,0-.51.15-.85,1.44-2.31.85-3.53,1.13a21.57,21.57,0,0,0-11,5.3,7.69,7.69,0,0,0-2.58,3.82c-.58,3.1,1.17,5,4.33,5.34.4.05.79.28,1.19.31,2.34.19,4.69.51,7,.47,1.67,0,3.31-.68,5-.86s3.73.4,5.16-.29c2.94-1.43,6-.94,8.94-1.24a12.06,12.06,0,0,0,1.6-.2c3.14-.72,6.26-1.95,9.41-2.07,4.33-.17,8.64-.5,13.07.69,3.7,1,7.86.39,11.81.34a9.21,9.21,0,0,0,4.69-1c2.75-1.52,5-3.47,5.68-6.38.74-3.17,2.05-6.26,1.67-9.7-.49-4.4.12-8.81-1-13.28-1.25-5.08-.22-10.45-1.3-15.75-.77-3.78.78-8,1.34-12.06C200.59,325.53,201,325.22,201.22,324.92Zm-37.85-92.2c-2.08,1.47-3.79,2.65-5.47,3.87a18.83,18.83,0,0,1-3.16,2.34,4.89,4.89,0,0,0-2.93,3.41c-.43,1.53-3.37,3.56-4.73,3.09a13.57,13.57,0,0,1-5.81-4.07,3.88,3.88,0,0,0-2.32-1c-.94-.13-1.53.49-1.57,1.51a1.61,1.61,0,0,1-.2.86c-1.74,2.13-3.5,4.23-5.25,6.35a65.65,65.65,0,0,1-4.53,5.42,63.43,63.43,0,0,1-6.44,5.35,19.1,19.1,0,0,1-5.72,3c-2.71.88-5.11,2.73-7.84,3.49A38,38,0,0,1,98,267.65a56.77,56.77,0,0,1-8.57-1c-1.53-.22-3.24.27-4.47-1.3-.19-.25-1.68,0-2,.46-1.45,1.95-2.71,4-4,6.13a1.29,1.29,0,0,0,.3,1.17,17.33,17.33,0,0,0,4.16,3c3.55,1.79,6.82,4.13,10.38,5.88a71.78,71.78,0,0,0,8.34,3l.5.19a52.26,52.26,0,0,0,5.56,2.15c1.7.45,3.45.31,5.21,1.13,2,.91,4.41.86,6.6,1.28,4.38.83,8.94.67,13.44,1.4,4,.65,8.25.21,12.38.28a3.29,3.29,0,0,1,1.75.26c2.58,1.85,5.36.53,7.79.91.57-3.76,1.16-7.18,1.58-10.63.58-4.88,1-9.77,1.56-14.65a10.09,10.09,0,0,1,.32-1.4c.27-1.05.63-2.08.82-3.14.5-2.81-.22-5.63,1-8.54,1.2-2.75,1.11-6.08,1.56-9.15.4-2.75.82-5.5,1.12-8.26A40.52,40.52,0,0,0,163.37,232.72ZM411.6,218.46c-.57,0-1.21-.2-1.48,0-1.23,1-2.67,1.05-4.12,1.14a.82.82,0,0,0-.35.09C403,221.44,400,221.61,397,222a16.76,16.76,0,0,1-6-.83c-2.5-.61-5.24-.29-7.88-.31-.49,0-1.37.19-1.4.39-.1.67-.13,1.82.24,2,1.42.78.91,2.07,1.13,3.16.15.75.15,1.54.33,2.28a20.34,20.34,0,0,1,.95,3.7c.12,4.08.2,8.16,0,12.23-.15,2.81-1.15,5.61-1.12,8.4.06,7-1.33,14,1.09,20.91a7.41,7.41,0,0,0,2.09,3.26c2.23,2,5.18,1.68,7.8,2.18,1.66.32,3.62-.67,5.4-1.24a8.87,8.87,0,0,0,2.81-1.46,8.81,8.81,0,0,1,5-2.2c4.55-.19,9.11-.3,13.65-.07s8.8.91,13.2,1.33a42.11,42.11,0,0,0,4.49.16l17.43-.18a2.79,2.79,0,0,0,2.63-1.89,4.76,4.76,0,0,0-2.73-6.14c-1-.48-2-1.11-3.09-1.53a47.12,47.12,0,0,0-5.93-2.13c-2.59-.66-5.26-1-7.9-1.51a2.26,2.26,0,0,1-.33-.13c-2-.72-4-1.41-6-2.17a14.87,14.87,0,0,1-3.8-1.71,36.53,36.53,0,0,1-4.11-4.05,11.05,11.05,0,0,1-1.24-1.7c-1.47-2.25-2.94-4.5-4.36-6.78a38.63,38.63,0,0,1-2.16-3.8c-.62-1.33-1.05-2.74-1.56-4.12a40.37,40.37,0,0,1-2.25-6.41c-.74-4.11-1.09-8.29-1.61-12.44A6.3,6.3,0,0,0,411.6,218.46ZM132.4,60.94c-.54,4.09-1,7.61-1.44,11.15-.14,1.18-.08,2.39-.12,3.59a3.32,3.32,0,0,1-.13,1.06c-.74,1.73-1.86,3.38-2.2,5.18A13.39,13.39,0,0,1,127,87c-.34.53-.67,1.07-1,1.64-.83,1.64-1.63,3.29-2.51,5,.42.36,1,1.33,1.79,1.44a7.17,7.17,0,0,1,3.89,1.53c1.29,1.08,2.92,1.82,4,3a36.1,36.1,0,0,1,4.1,5.64,15.33,15.33,0,0,0,6.24,5.4c2.53,1.34,4.33.15,4.39-2.65a5,5,0,0,1,4.86-4.86c1.85,0,3.71,0,5.57.08,2.16.08,4.35.35,6.08-1.43,1.44-1.48,3.18-2.75,4.29-4.44a42.25,42.25,0,0,0,2.95-6.44A32.73,32.73,0,0,1,173,87.54c1.17-2,2.32-4.09,2.13-6.5-.13-1.8-.9-3.56-.92-5.34-.1-9.47-.06-19-.05-28.42a8.29,8.29,0,0,1,.27-1.54,17.08,17.08,0,0,0,.55-2.87c0-.85-1.53-1.59-2-1-1,1.43-2.48,2.05-3.79,3a16.74,16.74,0,0,1-9.62,3.43c-.84,0-1.68,0-2.52,0-2.91,0-5.73-.34-7,3.49-.72,2.13-1.93,4.09-2,6.43,0,1.47-.06,3-1.5,3.84-.78.48-1.69.74-2.42,1.26-1.42,1-5.33.91-6.81,0A45.5,45.5,0,0,0,132.4,60.94ZM96.87,240.34c.49-2.28.95-4.55,1.47-6.8.08-.37.54-.69.57-1,.14-1.7.89-3.85.14-5-1.56-2.43-3.43-4.74-4.44-7.42a21.82,21.82,0,0,1-1.41-7.54c0-4.13-.44-8.21.71-12.44,1-3.75.37-8,.34-12,0-1.51-2.38-3.74-3.89-3.81a24.79,24.79,0,0,1-3.76,0,13,13,0,0,1-3.11-1.49A32.39,32.39,0,0,1,80,180.85c-2.31-1.62-3.73-4-5.33-6.28-.68-1-4.3-1.09-5.17-.28a17.29,17.29,0,0,1-2.84,2.11c-1.06.63-2.51.81-3.29,1.65-1.89,2-4.46,1.14-6.61,1.66-2.55.61-5.47-.41-8.24-.57C46,179,46,179.17,46,181.59c0,3.18,0,6.35-.07,9.53a9.9,9.9,0,0,1-.24,1.95c-.32,1.54-.81,3.05-1,4.61s.37,3.25-.27,4.43c-1.39,2.59-1.11,5.23-.82,7.82a9.38,9.38,0,0,0,2.12,4.25c.65.85,1.87,1.24,2.79,1.89,1.52,1.07,3,2.18,4.51,3.26a.56.56,0,0,0,.52,0,70.82,70.82,0,0,0,6.76-5.24,5.18,5.18,0,0,1,6.5-.69,9.22,9.22,0,0,0,6.42,2,14.53,14.53,0,0,0,3.28-1.14,15.13,15.13,0,0,0,2.18-.95c1-.57,4.08,0,5,.43,1.44.68,1.4,2,1.85,3.09.67,1.63,1.77,3.16,2.1,4.84.45,2.28.6,4.58,1.17,6.89a44.76,44.76,0,0,0,2.9,8.9C93.09,240.36,93.41,240.55,96.87,240.34Zm.37-24.62a12.18,12.18,0,0,0-.37,2.62,11.43,11.43,0,0,0,3.35,6.63c1.57,1.71,2.33,4.73,1.75,6.23a51.92,51.92,0,0,0-2.31,7,25.35,25.35,0,0,1-2.89,7.27c-.27.48-.77.82-1,1.3-.66,1.2-1.15,2.51-1.88,3.66-1.12,1.73-2.4,3.34-3.58,5-1.57,2.22-3.12,4.46-5,7.13a13.69,13.69,0,0,0,3.17,1.2,63.69,63.69,0,0,0,6.63.29c5.41.05,10.84.4,15.81-2.56a37.71,37.71,0,0,1,5-2.48,31.82,31.82,0,0,0,5.4-2.92,18.47,18.47,0,0,0,4.11-3.46c2.43-2.84,4.66-5.86,7-8.83,1.44-1.86,2.72-3.85,4.29-5.59,2.65-2.94,5.5-5.69,8.18-8.6a2.1,2.1,0,0,0,.28-1.85c-.5-1.07-1.37-2-2-3a29,29,0,0,1-1.76-3.64c-.65-1.58-1-3.29-1.78-4.81-1.23-2.45-2.69-4.79-4.13-7.32-.34.18-.69.36-1,.55-1.19.68-2.34,1.44-3.55,2s-2.84.8-3.76,1.71a14.74,14.74,0,0,1-7,3.78,23.61,23.61,0,0,0-3.63,1.58c-1.74.76-3.48,1.53-5.23,2.25-.43.18-1.06,0-1.37.31-2.36,2.06-4.45,0-6.27-.76C101.45,219.53,99.61,217.54,97.24,215.72ZM321.44,93.29c.35.75.47,1.52.92,1.85a11,11,0,0,0,2.79,1.42,12,12,0,0,1,6.31,4.35c1.25,1.83,2.23,3.86,3.43,5.73.5.76,1.2,1.77,1.93,1.89.56.09,1.4-1,2-1.63s.93-1.53,1.48-2.23c1.56-2,3.22-3.94,4.74-6,1.14-1.55,2-3.28,3.2-4.8,2.39-3.16,4.9-6.24,7.35-9.36,1.9-2.42,3.68-4.94,5.69-7.25,1.42-1.63,3.2-2.94,4.72-4.49,1.93-2,3.47-4.48,5.71-6,2.53-1.67,4.78-4.08,8.16-4.37.6,0,1.7-1.83,1.53-2.08-1.4-2-3.3-3.67-4.56-5.73-1.6-2.62-4.51-2.18-6.67-3.41-.31-.18-.9.11-1.35.23-.66.2-1.31.46-2,.65a36.35,36.35,0,0,0-5.75,1.7c-2.22,1.07-4.63,2.27-6.19,4.07s-3.66,2.18-5.29,3.54c-1.34,1.12-3,1.84-4.3,3-3.1,2.88-6.13,5.84-9,8.94-2.34,2.53-4.49,5.25-6.61,8s-4.38,5.83-6.5,8.8A30.9,30.9,0,0,0,321.44,93.29Zm94.42,123.86a48.38,48.38,0,0,0,1.43,16.07c0,.12,0,.24.06.35.82,2,1.59,4.08,2.48,6.08a30.82,30.82,0,0,0,2,3.71c1,1.58,2.05,3.08,3.07,4.62a29.37,29.37,0,0,0,1.84,2.8,41,41,0,0,0,3.4,3.57c1.29,1.21,2.33,2.75,4.31,3.09,2.28.39,4.53.94,6.8,1.43a2.86,2.86,0,0,1,.47.22,26.58,26.58,0,0,0,2.51,1c4.43,1.2,8.42-1.37,12.69-1.57a.31.31,0,0,0,.16-.06c2-1.67,4.35-.7,6.55-.69.52,0,1.08.62,1.57.55,1.87-.25,3.71-.64,5.56-1s3.92-.7,5.44-2.41c1.94-2.18,1.68-4.41-1.05-5-3.26-.69-6.58-1.12-9.89-1.52-5.23-.64-10.64,1-15.78-1.27-1.39-.63-3-.83-4.44-1.35-.58-.21-1-1.05-1.55-1.11A14.68,14.68,0,0,1,437,241.8a38,38,0,0,1-5.5-4.65c-.78-.78-1.06-2.05-1.64-3.06a20.4,20.4,0,0,1-2.11-3.49c-.69-2.15-1-4.41-1.51-6.62,0-.17-.1-.33-.15-.49-.77-2.42-1.68-4.81-2.25-7.27-.46-2-1-2.39-2.81-1.49S417.6,216.34,415.86,217.15ZM95.74,212.84c1.18.14,2.32,0,3,.44,2.07,1.34,3.88,3.06,6,4.38a12.67,12.67,0,0,0,4.28,1.68c.66.14,1.48-.69,2.26-1,2.54-1,5.15-1.85,7.62-3,2.26-1,4.3-2.53,6.58-3.5a2.29,2.29,0,0,0,1.51-2.6c0-2.81,0-5.63,0-8.45a3.21,3.21,0,0,1,.51-1.83c1.14-1.41,1.28-5.2.19-6.6-1-1.25-1.83-2.58-2.89-4.09-.23,0-1-.09-1.37.22-1.18.91-2.12,2.16-3.36,3a40.45,40.45,0,0,1-5.85,3.11c-1.68.73-3.52,1.06-5.26,1.66-1,.34-2.17.63-2.72,1.35-1.28,1.68-3.38,1.15-4.92,2.26s-3.66,1.24-5.59,1.82Zm181.38,48.44c-4.49,0-9-.06-13.57.08-.58,0-1.43,1-1.62,1.68-.39,1.43-.27,3-.64,4.43-.61,2.31-1.82,4.51-2.11,6.84a73.67,73.67,0,0,0-.16,9.52,1.77,1.77,0,0,0,.66,1.27c1.37.93,2.8,1.77,4.23,2.61a51.75,51.75,0,0,0,6.27,3.53c2.54,1,5.28,1.62,8.15,2.47a17,17,0,0,0,.33-2.52c-.06-5.4-.12-10.8-.29-16.19,0-1.21-.58-2.39-.7-3.6-.21-2.27-.66-4.58.29-6.6Zm-43.93-8.94c-.61,2.72-1.06,5.31-1.8,7.82-.58,2-2.06,3.82-2.19,5.79-.19,2.89-2.75,4.38-3.27,7-.35,1.79-1.76,3.37-2.06,5.16a16.55,16.55,0,0,1-2.44,5.42,36.19,36.19,0,0,0-1.64,3.51c-.59,1.37-.77,3.18-1.77,4.06-1.17,1-.73,1.74-.55,3.22,1.13-.46,2-.89,2.94-1.18s2.2-.27,3.07-.79a15.08,15.08,0,0,1,5.34-2.33,3.17,3.17,0,0,0,1-.25c1.19-.69,2.27-1.77,3.55-2.09a12,12,0,0,0,4.89-2.86,3.36,3.36,0,0,0,1.17-2.12c.2-7.76-.6-15.56,1.24-23.24.22-.89.34-1.82.55-3-.25-1.21-1.26-1.8-2.85-1.74-.48,0-1-.53-1.48-.78C235.71,253.31,234.92,251.66,233.19,252.34Zm202.45,86.31a2.37,2.37,0,0,0-.2.73q.72,6.94,1.48,13.89c0,.11,0,.27.12.32,1.29.84.93,2.19,1.09,3.38.36,2.87.7,5.74,1.16,8.59.27,1.61,1.78,2.15,2.82.91a21.87,21.87,0,0,0,3.56-5.33,39.28,39.28,0,0,0,1.6-6.54c.07-.28.21-.55.28-.84a37.13,37.13,0,0,0,.94-3.7c.22-1.47-.15-3.17.45-4.42,1.56-3.24.31-6.52.72-10-2,.31-3.82,1-5.67,1.4C441.24,337.67,438.44,338.12,435.64,338.65ZM145.85,231.49a11.71,11.71,0,0,1-1.21,2.16c-.85,1-1.89,1.75-2.74,2.72a1.86,1.86,0,0,0-.25,1.41c2,1.06,2.24,4,4.83,4.4.61.09,1.39.71,1.74.5a2.6,2.6,0,0,0,1.13-1.79C149.53,237.35,148.78,234.09,145.85,231.49Zm-29.29-42.2c1.64.82,2.34-.69,3.36-.9,1.87-.39,1.86-2.15,2.86-3.12.1-.09-.12-.64-.32-.86-1.1-1.15-2.2-2.3-3.38-3.37a1.81,1.81,0,0,0-1.43-.47,1.74,1.74,0,0,0-1,1.18C116.51,184.3,116.56,186.85,116.56,189.29Zm13,19.56c2.7.26,4.55-1.49,3.9-3.7a10.51,10.51,0,0,0-2.19-3.54c-.58-.68-1.63-.93-1.69.51C129.46,204.37,129.54,206.63,129.54,208.85Z"/><path class="cls-1" d="M210.38,30.63c-1.87-1.35-2.94.4-3.29,1.19-.9,2.1-2.66,3.41-3.9,5.15-1.6,2.23-2.91,4.65-4.44,6.92-.93,1.39-2.14,2.6-3.05,4s-1.43,2.72-2.16,4.08S192,54.8,191.2,56.24A20.17,20.17,0,0,0,189.9,59c-.56,1.61-1,3.27-1.52,4.89-.68,2-1.52,4-2.1,6-.38,1.37-.25,2.87-.63,4.24-1.92,6.91-.56,14-1.29,21-.43,4.15-1,8.3-1.45,12.45-.25,2.2-1.47,4.28-2.24,6.42a.58.58,0,0,0,0,.18c-.49,2.14-.87,4.31-1.51,6.41s-1.53,4.16-2.32,6.24c-.38,1-.79,2-1.15,3-.56,1.57-1,3.22-1.65,4.72a54.6,54.6,0,0,1-2.93,5.29c-.65,1.08-1.56,2-2.15,3.12-1.44,2.72-2.65,5.58-4.17,8.25-1.41,2.49-3.45,4.66-4.58,7.25-.83,1.92-2.28,3.27-3.3,5a40.58,40.58,0,0,1-4.35,5.24c-.58.66-1.26,1.25-1.78,2-1.1,1.52-2.11,3.11-3.19,4.64s-2.31,3.28-3.52,4.88-2.33,2.87-3.42,4.36c-1.57,2.12-3.06,4.3-4.61,6.44a29.47,29.47,0,0,1-2.76,3.59c-.39.39-1.35.21-2,.28-2-5.79-6-10.14-9.15-15.2,1.42-.66,2.85-1.2,4.15-2,1.57-.94,3-2.07,4.54-3.14.86-.62,1.72-1.24,2.54-1.91,1.83-1.49,3.7-2.94,5.43-4.54,1.56-1.44,2.93-3.07,4.43-4.58,2-2.05,4.08-4.07,6.14-6.1,1.39-1.37,2.76-2.77,4.23-4.05.45-.39,1.21-.41,1.58-.8l3.8-4.9c.17-.22.48-.37.55-.61.55-1.69.9-3.46,1.6-5.08,1-2.3,2.21-4.48,3.32-6.73.59-1.19,1.2-2.37,1.69-3.61a24.25,24.25,0,0,1,5-7.55,13.76,13.76,0,0,0,1.59-2.78c.14-.25.18-.57.34-.81,1.1-1.61,2.59-3.07,3.24-4.84a23.53,23.53,0,0,0,1.53-7.49c.16-8.51.09-17,0-25.54a36.86,36.86,0,0,0-1-5.72,7.5,7.5,0,0,1-.08-1.25c0-10-.1-19.91,0-29.87,0-3,.92-6,1-9,.21-5.69,0-11.39.24-17.07a14.75,14.75,0,0,1,2.15-7.13,30.16,30.16,0,0,0,1.46-3A6.76,6.76,0,0,1,188,5.31c2.15,0,4.44-.38,6.44.2,3,.88,6.24.38,9.06,1.28,2.41.76,4.79.69,7.11,1.25a39.08,39.08,0,0,1,5.4,2.09,1.15,1.15,0,0,0,.32.15A17.78,17.78,0,0,1,221,11.51c2.26,1,5,1,7.44,1.59,2.11.56,4.12,1.47,6.17,2.22.34.12.7.19,1,.32,1.88.77,3.75,1.58,5.64,2.32,1.35.53,2.75.9,4.08,1.46,2,.85,4.26,1.26,6.14,2.64,1.09.8,2.62,1,3.9,1.57a24.46,24.46,0,0,1,2.37,1.47c2,1.23,4.13,2.35,6.09,3.69,2.85,2,6.05,3.38,8.45,6.08,1.56,1.74,3.73,2.94,5.61,4.4,2,1.59,4.11,3.12,6.05,4.82,2.55,2.24,5.06,4.56,7.46,7,1.83,1.84,3.5,3.84,5.19,5.8,2.16,2.5,4.35,5,6.36,7.59,1.24,1.61,2.13,3.49,3.27,5.19.86,1.29,1.92,2.45,2.78,3.74s1.5,2.66,2.27,4c1,1.7,2,3.39,3.05,5.08.7,1.17,1.5,2.3,2.08,3.53.91,1.94,1.64,4,2.51,5.92a4.5,4.5,0,0,1-1.54,4.75c-2.12,1.45-4.39,2.69-6.44,4.24a26.32,26.32,0,0,0-4.69,4.38c-2,2.53-3.72,5.37-5.7,8s-4,4.82-5.95,7.28a12,12,0,0,0-1.37,2.54c-.59,1.31-1.05,2.67-1.66,4a17.14,17.14,0,0,1-1.26,1.92c-1.61,2.46-3.27,4.89-4.79,7.4-.74,1.23-1.19,2.62-1.81,3.91-.45,1-.94,1.89-1.44,2.82-1.14,2.1-2.39,4.15-3.42,6.3s-1.94,4.68-3,7c-.72,1.65-1.55,3.25-2.33,4.87a1.45,1.45,0,0,0-.07.35c-.52,2.15-1,4.3-1.57,6.43a25.48,25.48,0,0,1-1.21,3.77,1.81,1.81,0,0,1-1.4.71c-4.8.11-9.59.22-14.39.21-11.69,0-23.37-.12-35.06-.19-.94,0-1.87-.09-3.42-.17,1-2.19,1.87-4,2.55-5.83.9-2.45,2.91-4.29,3.54-6.94.37-1.54,1.58-2.85,2.2-4.36s1-3.3,1.57-4.91c.66-1.81,1.44-3.57,2.17-5.35.09-.21.2-.42.28-.63,1-3,1.88-6.08,3-9.06.61-1.67,1.53-3.23,2.3-4.85a.84.84,0,0,0,.05-.17c.5-2.14.93-4.3,1.54-6.4s1.45-4.23,2.19-6.35a1.87,1.87,0,0,0,.15-.32c.52-2.5.92-5,1.56-7.52.6-2.31,1.46-4.56,2.19-6.84a4.66,4.66,0,0,0,.23-.87c.51-4,.79-8,1.58-11.89,2.21-11,.69-22,1-33a35,35,0,0,0-1.28-8.31c-.24-1.05-1.19-1.93-2.1-3.32a9.89,9.89,0,0,0-.45,2.39c.27,3-.42,6.12,1.15,9a4,4,0,0,1,.13,1.78c0,9,0,18.11,0,27.16a6.15,6.15,0,0,1-.78,2,3.22,3.22,0,0,0-.29.82c-.13,3,.06,6-1.19,8.9a5.71,5.71,0,0,0-.23,2,24.73,24.73,0,0,1-2.28,8.44,3.09,3.09,0,0,0-.18.51c-.51,2.5-.91,5-1.55,7.51-.56,2.16-1.38,4.25-2.09,6.37-.08.23-.18.45-.24.68-.54,2.18-.67,4.59-1.71,6.5s-.74,3.87-2.15,5.55c-1,1.18-1,3.14-1.59,4.7-.71,1.91-1.6,3.75-2.29,5.67-.62,1.74-1,3.56-1.65,5.31s-1.28,3.29-2,4.9c-.51,1.14-1.18,2.22-1.7,3.36-1.44,3.16-2.83,6.34-4.25,9.52a22.18,22.18,0,0,1-1.36,3,2.53,2.53,0,0,1-1.53,1.08c-3.31.53-6.65.85-9.94,1.43a13.32,13.32,0,0,0-4,1.49,42.37,42.37,0,0,0-5.62,3.62c-2.61,2-5.11,4.2-7.56,6.42a50.86,50.86,0,0,0-5.57,5.61c-1.8,2.25-3.21,4.82-4.81,7.22a18.12,18.12,0,0,0-2.78,6.43c-.33,1.58-1.48,3-2.17,4.48a17.22,17.22,0,0,0-1.34,3.56c-.81,3.78-3.33,7-3.07,11.21a7.9,7.9,0,0,1-1.72,4.94c-1.29,1.59-3.27,2.65-5,3.87-1.47,1-3.07,1.89-4.5,3-2.1,1.59-3.41,1.08-4.21-1.46a45.68,45.68,0,0,0-2.26-4.75c-.6-1.31-1.07-2.7-1.69-4-1.21-2.51-2.55-4.95-3.7-7.48-.68-1.49-1-3.16-1.67-4.64-.85-1.77-2-3.42-3-5.13-.69-1.21-1.29-2.47-2-3.64a39.17,39.17,0,0,0-3.22-4.78c-.78-.93-.7-1.45,0-2.22,1.51-1.56,3.06-3.1,4.41-4.78,2.57-3.2,5.06-6.47,7.48-9.78,1.12-1.52,2-3.22,3-4.8s1.93-2.86,3-4.22,2.17-2.5,3.24-3.76c2.14-2.54,4.44-5,6.36-7.66,1.72-2.43,3-5.18,4.5-7.76,1-1.63,2.06-3.16,3-4.81.8-1.43,1.4-3,2.14-4.42a21.93,21.93,0,0,1,1.37-2.21c1.09-1.66,2.23-3.3,3.3-5a17.86,17.86,0,0,0,1.64-3c.64-1.66,1-3.42,1.66-5.07a42.73,42.73,0,0,1,2-3.88c.08-.15.25-.27.29-.43.54-2.07,1-4.16,1.6-6.21.73-2.55,1.57-5.07,2.36-7.6a1.22,1.22,0,0,0,.07-.17q.8-3.87,1.57-7.75c1.5-7.37,1-14.85,1.26-22.28.14-3.61.88-7.19,1.35-10.78,1.94-1.21.22-4,2.24-5.2.12-.07.09-.45.08-.69-.1-2.67,1.24-4.79,2.43-7s2.07-5,3.12-7.51A8.57,8.57,0,0,1,197.57,49c1.56-2,3.17-4,4.75-6,.53-.67,1-1.39,1.5-2.08,1.12-1.55,2.29-3.06,3.35-4.64.83-1.25,1.54-2.57,2.29-3.87C209.78,31.84,210.05,31.27,210.38,30.63Zm74.91,93.24.57,0c.66-1,1.95-1.46,1.91-3.21-.14-5.87.16-11.75,0-17.61s.74-11.68-1.11-17.48c-.94-2.91-.14-6.17-1.19-9.29-.88-2.62.21-5.77-1.52-8.37-.28-.41-.52-.86-.77-1.29-.22.47-.65,1-.63,1.43a69,69,0,0,0,.94,10.37,99.48,99.48,0,0,1,1.42,13.75c.51,8,.14,16,.18,24.08C285.06,118.82,285.21,121.35,285.29,123.87ZM262.78,66.5l-2.22.43c.18.71.35,1.43.55,2.13.07.22.31.41.32.61.1,2.73.93,5.39,1.21,8,.62,5.88.38,11.83,1.44,17.71.42,2.38.08,4.9.18,7.35a2.46,2.46,0,0,0,.65,1.69c.95.7,2,0,1.86-1.35-.31-4.23.26-8.42-.91-12.74-1.24-4.54-.06-9.53-1.5-14.26C263.46,73.11,263.31,69.91,262.78,66.5Z"/><path class="cls-1" d="M433.08,298.16c-.42,1.8-.81,3.48-1.19,5.16a3.44,3.44,0,0,0-.16.69c-.1,5.16-2.12,10.11-1.56,15.35.24,2.19-.06,4.44.13,6.65.4,4.71.49,9.53,1.62,14.07.68,2.72.46,5.39,1,8s1.48,5.1,2.2,7.65a7.05,7.05,0,0,1,.21,1.78c.05,2.33,0,4.68.13,7a14.48,14.48,0,0,0,.9,2.56,17.88,17.88,0,0,1,.35,2.31l-.44.25-1.25-.79a29.37,29.37,0,0,1-3.14.88c-3.3.54-6.64.85-9.9,1.53-2.33.48-4.55,1.45-6.84,2.1a12.28,12.28,0,0,1-2.84.37c-2.81.12-5.83-.45-8.4.4-4,1.32-8,.72-12,.63-4.68-.09-9.48-.2-14-1.33-6.06-1.51-12.08-.66-18.1-.95-2.93-.15-5.87,0-8.81-.08a15,15,0,0,1-5.51-.85c-1.89-.76-4.25-.32-6.39-.54-3.74-.4-7.58-.53-11.16-1.53-1.87-.52-3.73-.7-5.56-1.14-2.15-.53-4.2-1.48-6.3-2.21a4.16,4.16,0,0,0-1.06-.13c-1.16-.11-2.39.12-3.23-1.05a1.42,1.42,0,0,0-1-.37c-2-.09-3.24-1.87-4.87-2.21-2.3-.48-3.6-2.25-5.47-3.23a19.93,19.93,0,0,1-4.85-4.26A59.74,59.74,0,0,1,292,350a1.51,1.51,0,0,1-.18-.49c-1-3.72-1.74-7.52-3.08-11.11-.85-2.27-.64-4.55-1.11-6.77a57.2,57.2,0,0,0-2.21-6.5c0-.06-.05-.11-.07-.17-.5-2.09-1.11-4.16-1.47-6.27-.54-3.19-1.05-6.39-1.31-9.61s.34-6.6-.38-9.68c-1.61-6.82-.45-13.69-1.05-20.5-.2-2.24-.55-4.48-.92-6.7a20.05,20.05,0,0,1,.88-10.22c.14-.4,1-.68,1.57-.78,5.68-1,11.54-.46,17.16-1.4,3.63-.61,7.23-.74,10.82-1.2,1.77-.23,3.43-1.31,5.14-2a4.8,4.8,0,0,1,1.18-.39c1-.12,2.07.18,2.54-1.1.05-.13.43-.14.66-.21a51.7,51.7,0,0,0,6-1.67,30.42,30.42,0,0,0,4.69-2.75c1.93-1.23,3.87-2.45,5.71-3.8a44.92,44.92,0,0,0,4.8-4,50,50,0,0,0,6.05-6.65,28.59,28.59,0,0,1,2.66-3.41c1.06-1.13,2.14-2.24,3.09-3.44a46.25,46.25,0,0,0,3.69-5.05c1.55-2.6,2.76-5.39,4.31-8a16.25,16.25,0,0,0,2.6-7.47,21.41,21.41,0,0,1,1-4.15c.05-.17.15-.45.23-.45a9.09,9.09,0,0,1,3.14.11,3.79,3.79,0,0,1,1.87,2c.31.77,0,1.78.09,2.67.52,5.38.59,10.87,1.72,16.12a51.87,51.87,0,0,1,.44,18.15c-1.14,8.24,0,16.49-1.25,24.61a125.89,125.89,0,0,0-.93,16c0,2.4,0,4.8,0,7.19.06,3,2.26,4.85,4.95,5.89,5.94,2.3,12,.5,18,1.31,1.43.19,2.83.84,4.26.88,5,.13,10.1.86,14.88-.09,6.6-1.3,13.15-.26,19.69-.89A7.12,7.12,0,0,1,433.08,298.16ZM366.65,346a11.27,11.27,0,0,0,2.05-1.4c1.13-1.2,2-2.63,3.2-3.76a45,45,0,0,0,8.85-12.48c1.29-2.56,2.51-5.05,2.51-8a2.21,2.21,0,0,1,.2-.87,14.25,14.25,0,0,0-.34-11.83c-.1-.23-.43-.55-.58-.51a1.15,1.15,0,0,0-.73.59,6.15,6.15,0,0,0-.09,1.43c-.27,3.91.35,7.78-.85,11.78a39.11,39.11,0,0,1-3.1,8.44,53.19,53.19,0,0,1-3.55,5.17c-.88,1.2-1.87,2.32-2.83,3.46a34,34,0,0,0-3.67,4.42C367.14,343.42,365,344.19,366.65,346Zm-5.72-49.3.25.08c-.5,2.13-.94,4.28-1.5,6.39a29,29,0,0,1-1.69,5.25c-1.43,2.91-3.3,5.61-4.69,8.53a22.64,22.64,0,0,1-5.88,7.32,4.5,4.5,0,0,0-1,1.91c-.05.12.49.67.65.63a5,5,0,0,0,2.11-.86,20.14,20.14,0,0,0,2.94-3.25,80.46,80.46,0,0,0,4.69-7.09c1.21-2.13,1.9-4.56,3.1-6.7,1.3-2.31,2.41-4.6,2.39-7.3,0-.24,0-.55.1-.7,1.85-2.13.95-4.67,1-7,0-.38-.82-1-1.34-1.1-.33-.05-1.05.63-1.14,1.07A16,16,0,0,0,360.93,296.69ZM371.51,305h-.07c0-1.67,0-3.35,0-5,0-.31-.43-.6-.66-.9-.25.2-.67.36-.73.62a51.5,51.5,0,0,0-1.16,5.32c-.33,2.34.22,4.73-1.09,7-1,1.71-1.17,3.84-1.72,5.78a3,3,0,0,1-.16.51c-1.21,2.22-2.31,4.5-3.66,6.62-1,1.58-2.43,2.9-3.49,4.45a6.07,6.07,0,0,0-.43,2.29,5.36,5.36,0,0,0,1.63-.61,22.65,22.65,0,0,0,3.28-3.21,28.42,28.42,0,0,0,2.82-4.67,47.74,47.74,0,0,0,1.72-4.6c.42-1.13.59-2.48,1.34-3.33,1.51-1.71,1.16-4,2.11-5.86C371.82,308.21,371.44,306.5,371.51,305Zm-57.45-21.51a25.58,25.58,0,0,0,0,2.79c.28,2.58.77,5.13.93,7.71a42,42,0,0,1-1.21,14.77c-.07.23,0,.56-.16.69-1.76,1.63-.85,3.79-1.11,5.72,0,.33.38.73.59,1.1a4.71,4.71,0,0,0,.68-1.07c.54-1.76.7-3.73,1.58-5.29,1.73-3,2-6.46,2.11-9.62.19-5.4-.7-10.83-1.15-16.25,0-.11-.12-.2-.25-.4Z"/><path class="cls-1" d="M253.28,215.61c-2.94,2-3.55,5.12-4.89,7.82a18.68,18.68,0,0,1-3.3,4.11,59,59,0,0,1-4.45,4.21,4.44,4.44,0,0,1-2.23.78c2.2-6.67,1.1-13-.74-19.55-.58.19-1.69.29-1.76.62a9.15,9.15,0,0,0,0,3.13c.1.7.69,1.35.71,2,.08,3,.43,6.18-.12,9.13-.39,2.09-.55,4.42-2,6.34-.62.8-.33,2.3-.46,3.61-1.31.19-2.07.11-2.43-1.6a24.57,24.57,0,0,0-2.27-5.17c-.47-1-1.09-1.85-1.53-2.81-.6-1.3-1-2.67-1.65-4a12.26,12.26,0,0,0-1.78-3c-.32-.36-1.27-.15-1.93-.2a6.8,6.8,0,0,0,.19,2.33c.7,1.47,1.65,2.81,2.46,4.22.5.88.95,1.79,1.42,2.68,1.16,2.26,2.34,4.5,3.45,6.77a3.33,3.33,0,0,1,.19,1.42c0,4.91.17,9.84-.13,14.74-.12,1.93-1.3,3.79-2,5.68-.06.16-.17.31-.22.48-.54,2.07-1,4.16-1.63,6.21a27.55,27.55,0,0,1-1.34,2.73c-.93,2.18-1.69,4.44-2.74,6.55a32.21,32.21,0,0,0-2.54,6.26c-.47,1.76-1.75,3.29-2.67,4.93-.8,1.44-1.55,2.9-2.4,4.31-1.55,2.59-3.16,5.14-4.72,7.73a20.68,20.68,0,0,0-1.49,2.78c-.59,1.44-1,2.94-1.59,4.39-.74,2-1.63,3.89-2.25,5.89-.36,1.18-.23,2.5-.47,3.72-.31,1.64-.72,3.27-1.19,4.87a1.17,1.17,0,0,1-1,.49c-2.79-.43-5.78.48-8.37-1.3-.3-.2-.82-.1-1.24-.11-1.13,0-2.28,0-3.41-.09-3.1-.29-6.16,0-9.32-.86s-6.89-.5-10.36-.62c-1.86-.07-3.72,0-5.56-.11a2.47,2.47,0,0,1-2.45-2.3c-.13-1.37.16-2.85-.26-4.11-1.65-5-1.17-10.25-1.25-15.39-.1-6.16-.32-12.38.45-18.46.35-2.72.32-5.69,1.3-8.22s.65-5.24,1-7.84c.44-3,.5-6.13,1.54-8.9.83-2.21.36-4.57,1.24-6.52,1.61-3.62.19-7.45,1.22-10.93a47.11,47.11,0,0,0,1.39-7.65,30.79,30.79,0,0,1,1.2-4.86c.84-2.85,1.42-5.85,2.73-8.48,1.49-3,2.64-6.11,3.89-9.2.86-2.15,2.56-4,3.39-6.14,1.26-3.25,3.74-5.58,5.72-8.25,1-1.42,2.91-2.21,4.34-3.37,1.12-.9,2.1-2,3.2-2.88,1.42-1.21,2.88-2.35,4.33-3.52a15.62,15.62,0,0,1,1.47-1.1,17.56,17.56,0,0,1,9.54-2.89c.61,0,1.23-.5,1.84-.52,1.29,0,2.59.1,3.88.18a4.31,4.31,0,0,0,1.11.13,17.79,17.79,0,0,1,3.48-.84c16.61,0,33.21.12,49.82.07a13.11,13.11,0,0,1,6.31,1.18,23.45,23.45,0,0,1,2.19,1.84c2.34,1.63,4.84,3,7,4.83a5.87,5.87,0,0,0,3.67,1.24,1,1,0,0,1,.51.13c2.33,2.38,4.63,4.78,7,7.14.91.92,2,1.69,2.88,2.63,1.25,1.31,2.35,2.78,3.63,4.07s2.89,2.52,4.19,3.93,2.42,3,3.58,4.55,2.37,3.18,3.48,4.82c.65,1,1.15,2,1.74,3.06.73,1.23,1.5,2.45,2.23,3.69a29.46,29.46,0,0,1,1.42,2.66c.59,1.31,1,2.69,1.66,4,.29.61.92,1,1.28,1.63.55.89.77,2.24,1.55,2.68.93.54,2.78.86,3.37.32a47.52,47.52,0,0,0,4.46-5.38c.92-1.1,1.9-2.16,2.92-3.17,2-2,4-4.05,6.21-5.87a47.79,47.79,0,0,1,5.35-3.62c1.62-1,3.3-1.94,4.95-2.91a22.76,22.76,0,0,1,2.94-1.69c1.82-.72,3.71-1.28,5.58-1.87a14.48,14.48,0,0,1,1.74-.35l2.38-.4a24.76,24.76,0,0,1-.06,3.11c-.09.65-.68,1.21-.8,1.86a18.14,18.14,0,0,1-3.56,7.92c-.74,1-1.06,2.23-1.71,3.28a42.85,42.85,0,0,1-5,7c-1.64,1.75-3.63,3.22-4.69,5.63-.78,1.77-2.47,3.18-3.9,4.61a51.7,51.7,0,0,1-5,4.39c-2.24,1.72-4.61,3.27-6.94,4.86-1.58,1.07-3.2,2.08-4.79,3.12-.24.16-.42.44-.67.52-1.95.57-3.94,1-5.86,1.68-1.73.6-3.34,1.56-5.07,2.14a34.74,34.74,0,0,1-6.07,1.58c-2,.28-4.15-.22-6.09.23-5.6,1.31-11.4.52-16.9,1.53-8.23,1.53-16.39.22-24.55.76-2.89-1.69-6.44-.33-9.38-2.2-1.53-1-3.59-1.08-5.37-1.68a14.46,14.46,0,0,1-2.53-1.24c-3-1.64-6.29-2.67-8.93-5a3.59,3.59,0,0,1-1.18-3.32c.12-1.88-.87-4.08,2.29-5,1.71-.5,2.86-2.71,4.4-4,2.12-1.76,4.41-3.31,6.56-5a11.72,11.72,0,0,0,3.81-4.35,53.55,53.55,0,0,0,2.8-6.69C253.23,218.55,254,217.31,253.28,215.61Z"/><path class="cls-1" d="M375.52,216.94c-.29-3.11-.57-6-.85-8.94,1.53-.34,1.53-.34,3.9,3.5a6.65,6.65,0,0,0,3-6.07c-.27-3.4,1.8-5.39,3.45-7.71,1.88-2.65,4-5.12,4.82-8.42A7.34,7.34,0,0,1,391.2,187a14.82,14.82,0,0,0,2.55-5.76c.47-2.24,1.54-4.34,2.17-6.55s1.05-4.59,1.63-6.88c.17-.68.61-1.29.84-2a11.18,11.18,0,0,0,.47-2.06c.54-4.1.56-8.36,1.74-12.27.91-3,.24-6.05,1-8.91,1.32-4.95.58-10.09,1.58-15,.67-3.21.51-6.36,1-9.51.16-1.09.76-2.14.82-3.22a12,12,0,0,0-.45-3.51c-.12-.5-.66-.91-1.13-1.51a4.7,4.7,0,0,0-.47,1.1c-.56,3.79-1.83,7.46-1.55,11.4.1,1.37-.78,2.78-1,4.21-.22,1.71.06,3.52-.32,5.19-1.32,5.68-.46,11.58-1.57,17.17-.62,3.14-.68,6.25-1.17,9.34a60.9,60.9,0,0,1-1.36,6.55c-.57,2.09-1.39,4.11-2.11,6.15,0,.12-.11.22-.14.33-.5,2.4-.88,4.82-1.55,7.17a37.39,37.39,0,0,1-2.05,4.86c-.51,1.15-1.1,2.26-1.62,3.4-1,2.19-1.82,4.46-2.95,6.58a28.73,28.73,0,0,1-2.79,3.68l-.46-.13a20.93,20.93,0,0,1-.3-2.21c-.13-2.76.22-5.62-.42-8.24-.75-3-.77-6.06-1.22-9.07-.28-1.91-1.35-3.69-2.06-5.53a4.48,4.48,0,0,1-.16-.52c-.53-2.37-.94-4.78-1.63-7.1a50.85,50.85,0,0,0-2.15-5.12,4.28,4.28,0,0,1-.15-.51,54.64,54.64,0,0,0-1.7-6c-1-2.63-2.4-5.13-3.61-7.68-.46-1-.86-1.94-1.34-2.88-1.37-2.71-2.66-5.48-4.2-8.09A54.3,54.3,0,0,0,358,126c-1.51-1.76-3.7-2.94-5.6-4.38-1.56-1.18-3.1-2.4-4.71-3.53a16.48,16.48,0,0,0-2.74-1.57c-2.38-1.07-4.79-2.07-7.38-3.18-.07-.84-.43-1.66.85-2.62s1.95-2.72,2.95-4.08c1.14-1.56,2.38-3,3.52-4.61s2-3,3.1-4.48c.85-1.15,1.79-2.24,2.7-3.35,1.22-1.49,2.49-3,3.65-4.49,1.91-2.52,3.58-5.2,5.95-7.39a67.47,67.47,0,0,0,4.61-5.46A59.88,59.88,0,0,1,369.38,72c1.93-1.77,4-3.38,6.09-5a9.6,9.6,0,0,1,2.58-1.34,30.13,30.13,0,0,1,5.64-1.62,19.73,19.73,0,0,1,6.09.1,79,79,0,0,1,8,2.3,32.9,32.9,0,0,1,5.11,1.69,12.36,12.36,0,0,1,3.72,2.76,31.44,31.44,0,0,1,3.65,5.21,35.91,35.91,0,0,1,1.63,4.16c.7,1.68,1.47,3.33,2.21,5a1.27,1.27,0,0,1,.13.32c.54,2.69.75,5.5,1.7,8,1.37,3.63.4,7.53,1.53,11,1.39,4.25.6,8.47,1,12.69.51,5.4.22,11,1.56,16.16,1.62,6.18.22,12.37,1.32,18.42,1.69,9.38.07,18.88,1.27,28.19.49,3.81.46,7.71,1.35,11.37.57,2.36.49,4.84,1.33,7a25,25,0,0,1,1.13,5.47c.15,1,1,1.83,1.12,2.8a1.9,1.9,0,0,1-1.79,2.37,11,11,0,0,0-3.41,1.57c-2.6,1.56-5,3.31-8.19,3.84-2.26.38-4.35,1.7-6.59,2.3-3.83,1-7.69,2-11.72,1.69-2.45-.18-5,.14-7.34-.5C384.26,216.85,379.94,217.1,375.52,216.94Z"/><path class="cls-1" d="M379,206.13c-2.71-1.33-5.14-2.27-7.31-3.63-4.09-2.56-8.52-1.65-12.63-.92a14.28,14.28,0,0,0-7.57,3.32c-.76.74-2.14.8-3.19,1.29-2.11,1-4.25,1.93-6.25,3.1a25.06,25.06,0,0,0-3.36,2.75c-1.43,1.21-2.92,2.38-4.26,3.68s-2.4,2.61-3.59,3.92-2.3,2.56-3.48,3.82a12.65,12.65,0,0,1-1.65,1.54c-.68.5-1.44.9-2,1.24-.95-1.63-1.65-2.79-2.3-4-.83-1.51-1.6-3-2.43-4.54-.18-.33-.59-.52-.78-.84-1-1.63-1.9-3.3-2.92-4.91-.67-1.06-1.52-2-2.22-3s-1.2-2-1.83-3c-1.76-2.72-3.44-5.46-6.21-7.39-1.16-.81-1.88-2.22-2.88-3.28s-2.2-2.11-3.29-3.18-2-2-3-3a48.09,48.09,0,0,0-3.44-3.41c-1.74-1.44-3.82-2.52-5.33-4.15-.66-.71-.63-2.46-.33-3.59.37-1.37,1.49-2.53,2-3.88,1.08-2.68,2.94-4.84,4.52-7.18,1.2-1.78,2.34-3.61,3.61-5.34,1.57-2.13,3.71-4,4.75-6.33,1.42-3.21,4.27-5.16,6-8.1,1.87-3.16,4.61-5.79,6.95-8.68.61-.75,1.05-1.65,1.71-2.35,2-2.18,4.22-4.23,6.22-6.44,1.52-1.68,2.84-3.54,4.3-5.28a17.21,17.21,0,0,1,1.74-1.67c.17-.15.54-.18.6-.34,1-2.9,4.35-3.45,6-5.77.32-.45,1.81-.48,2.53-.16,2.2,1,4.3,2.2,6.42,3.37,1.79,1,3.56,2,5.32,3.07a9.29,9.29,0,0,1,2,1.38c1.95,2,4.63,3.15,5.94,6,1.05,2.27,3.06,4.09,4.53,6.19a17.81,17.81,0,0,1,1.34,2.9c1,2.23,1.95,4.47,3,6.67.7,1.47,1.59,2.85,2.3,4.31a26.3,26.3,0,0,1,1.36,3.45c.56,1.77.94,3.6,1.54,5.36.66,1.93,1.48,3.81,2.24,5.71a5.21,5.21,0,0,1,.2.5c.48,2.08.88,4.18,1.46,6.23.65,2.25,1.47,4.44,2.21,6.66a4.75,4.75,0,0,1,.24,1c.79,7.81,2,15.6,1.42,23.49C379.12,203.79,379.06,204.9,379,206.13Z"/><path class="cls-1" d="M176.76,14.75c-.31.85-.64,1.62-.88,2.41a8.85,8.85,0,0,0-.39,2.09c-.14,4.55-.24,9.11-.34,13.66A9.66,9.66,0,0,1,171,40.56a81,81,0,0,1-7.57,4.91,4.54,4.54,0,0,1-2.11.26c-1.86,0-3.72,0-5.58,0-3-.14-5,1.07-6.74,3.53a12.83,12.83,0,0,0-2.68,5.85,20.33,20.33,0,0,1-1,4.36,4.49,4.49,0,0,1-1.64,1.86c-.92.66-4.15,0-5.23-.62a52.31,52.31,0,0,0-6-2.94c-1.26-.52-2.51.66-2.86,2.05-1.27,5.07-.9,10.26-1.37,15.39C128,77.62,126.74,80,126,82.41c-.1.34-.17.69-.24,1a15.11,15.11,0,0,1-3.47,7.12,3.1,3.1,0,0,0-.61,1.07c-.42,1.45-1.35,1-2.27.68l-5.58-2.18a17.4,17.4,0,0,1-7.74-5.6,15.15,15.15,0,0,1-1.49-2.39,51.24,51.24,0,0,1-2.71-8c-.66-2.17-.59-4.49-1.38-6.45-1.55-3.9-.53-7.86-1-11.74a24.41,24.41,0,0,0-.68-2.71,7.71,7.71,0,0,1-.42-1.91c.12-3.49-.72-7.07,1-10.41a3.06,3.06,0,0,0,.15-.88A74.64,74.64,0,0,1,101,31.33,74.42,74.42,0,0,1,104.42,23c.57-1.35,1.15-2.69,1.8-4,.18-.36.74-.52,1-.87,1-1.42,1.86-2.92,2.91-4.29a20.69,20.69,0,0,1,3-3.3c1.61-1.37,3.38-2.54,5.09-3.79a.92.92,0,0,1,.34-.12c2.11-.47,4.24-.9,6.35-1.41,2.93-.71,5.83-1.53,8.77-2.2a4.16,4.16,0,0,1,2.79,0c1.94,1.25,4,.77,6.05.93a6.29,6.29,0,0,0,1.62,0c3.29-.58,6.24,1,9.38,1.5,1.37.19,2.62,1.25,3.93,1.9a5.26,5.26,0,0,0,1,.4c1.92.5,4,.68,5.74,1.53,3.07,1.49,6.65,2,9.19,4.63C174,14.56,175.28,14.44,176.76,14.75Z"/><path class="cls-1" d="M450.46,367.9a9.7,9.7,0,0,0,.63-2.1c.11-1.45,1.11-2,2.2-2.59,1.78-1,4-1.71,5.12-3.22s2.67-3.07,3.53-5.2a10.86,10.86,0,0,0,.58-7.51c-1.34-3.86-.79-7.67-1-11.49-.13-2.92,0-5.85,0-8.8-1.8-1.08-3,.35-3.64,1.46-1.14,2.05-3.23,2.28-4.91,3.27-2.21,1.32-4.75,1.41-7.29,1.68-2.32.24-4.53,1.47-6.84,2.05a34.34,34.34,0,0,1-4.8.47c0-2.85.11-5.42,0-8-.12-2-.66-4-.83-6-.26-3.12-1-6.28.59-9.29a3.45,3.45,0,0,0,.27-1.21c.51-4.22,1-8.43,1.5-12.64a1,1,0,0,1,.1-.37c2.34-1.05,4.44-2.05,6.59-2.94a21.55,21.55,0,0,1,4.13-1.38c3.14-.63,6.32-1.08,9.48-1.63,2.14-.38,4.64-.24,6.31-1.34,2.37-1.57,4.78-.9,7.15-1.29a43.75,43.75,0,0,1,4.66-.72,9.3,9.3,0,0,1,3.2.53,35,35,0,0,1,3.77,1.53c2.51,1.12,3.71,3,4.49,5.74a22,22,0,0,1,.8,7.46,55.34,55.34,0,0,1-1.37,8.66c-.69,3-1.65,5.86-2.57,8.76-.69,2.21-1.51,4.39-2.26,6.58a.57.57,0,0,0,0,.18c-.32,6.32-2.34,12.54-1.33,18.95.22,1.35,1.3,2.83,1,3.94-1.36,4.46-.77,9-1.22,13.5-.15,1.52-2.26,3.16-3.79,3.59-6.53,1.82-13.2,1.21-19.83,1.11-1.54,0-3.06-.83-4.59-1.27Z"/><path class="cls-1" d="M201.22,324.92c-.22.3-.63.61-.68,1-.56,4-2.11,8.28-1.34,12.06,1.08,5.3.05,10.67,1.3,15.75,1.11,4.47.5,8.88,1,13.28.38,3.44-.93,6.53-1.67,9.7-.68,2.91-2.93,4.86-5.68,6.38a9.21,9.21,0,0,1-4.69,1c-3.95,0-8.11.66-11.81-.34-4.43-1.19-8.74-.86-13.07-.69-3.15.12-6.27,1.35-9.41,2.07a12.06,12.06,0,0,1-1.6.2c-3,.3-6-.19-8.94,1.24-1.43.69-3.43.11-5.16.29s-3.31.82-5,.86c-2.33,0-4.68-.28-7-.47-.4,0-.79-.26-1.19-.31-3.16-.37-4.91-2.24-4.33-5.34a7.69,7.69,0,0,1,2.58-3.82,21.57,21.57,0,0,1,11-5.3c1.22-.28,2.68.31,3.53-1.13.06-.11.33-.11.51-.15,2.23-.46,4.51-.77,6.67-1.44a34.7,34.7,0,0,0,4.44-2.22c1.08-.52,2.21-.95,3.31-1.43a25.77,25.77,0,0,0,3.75-1.67,53.24,53.24,0,0,0,4.54-3.41q1.8-1.44,3.48-3a5.18,5.18,0,0,0,1.12-1.61c.67-1.51,1.2-3.08,1.87-4.59,2.29-5.16.34-10.81,1.67-15.91s.19-10.35,1.3-15.68c3.57.26,7.25-.59,10.83.84a7,7,0,0,0,2.3.28c2,.07,4,.06,5.94.15,1.19.05,2.34-.12,3.48.89.68.61,2.18.38,3.3.35C199.22,322.68,200.64,322.86,201.22,324.92Zm-20.63,24.24A6.21,6.21,0,0,0,181,351a6.85,6.85,0,0,1-1,8.16,4.56,4.56,0,0,0-.6,1.34c.74,0,1.91.31,2.15,0,1.52-2.15,2.93-4.49,2.75-7.2-.09-1.42-1-2.79-1.64-4.36Z"/><path class="cls-1" d="M163.37,232.72a40.52,40.52,0,0,1,0,4.14c-.3,2.76-.72,5.51-1.12,8.26-.45,3.07-.36,6.4-1.56,9.15-1.27,2.91-.55,5.73-1,8.54-.19,1.06-.55,2.09-.82,3.14a10.09,10.09,0,0,0-.32,1.4c-.53,4.88-1,9.77-1.56,14.65-.42,3.45-1,6.87-1.58,10.63-2.43-.38-5.21.94-7.79-.91a3.29,3.29,0,0,0-1.75-.26c-4.13-.07-8.35.37-12.38-.28-4.5-.73-9.06-.57-13.44-1.4-2.19-.42-4.63-.37-6.6-1.28-1.76-.82-3.51-.68-5.21-1.13a52.26,52.26,0,0,1-5.56-2.15l-.5-.19a71.78,71.78,0,0,1-8.34-3c-3.56-1.75-6.83-4.09-10.38-5.88a17.33,17.33,0,0,1-4.16-3,1.29,1.29,0,0,1-.3-1.17c1.26-2.09,2.52-4.18,4-6.13.33-.44,1.82-.71,2-.46,1.23,1.57,2.94,1.08,4.47,1.3a56.77,56.77,0,0,0,8.57,1,38,38,0,0,0,9.45-1.26c2.73-.76,5.13-2.61,7.84-3.49a19.1,19.1,0,0,0,5.72-3,63.43,63.43,0,0,0,6.44-5.35,65.65,65.65,0,0,0,4.53-5.42c1.75-2.12,3.51-4.22,5.25-6.35a1.61,1.61,0,0,0,.2-.86c0-1,.63-1.64,1.57-1.51a3.88,3.88,0,0,1,2.32,1,13.57,13.57,0,0,0,5.81,4.07c1.36.47,4.3-1.56,4.73-3.09a4.89,4.89,0,0,1,2.93-3.41,18.83,18.83,0,0,0,3.16-2.34C159.58,235.37,161.29,234.19,163.37,232.72Z"/><path class="cls-1" d="M411.6,218.46a6.3,6.3,0,0,1,.2.73c.52,4.15.87,8.33,1.61,12.44a40.37,40.37,0,0,0,2.25,6.41c.51,1.38.94,2.79,1.56,4.12a38.63,38.63,0,0,0,2.16,3.8c1.42,2.28,2.89,4.53,4.36,6.78a11.05,11.05,0,0,0,1.24,1.7,36.53,36.53,0,0,0,4.11,4.05,14.87,14.87,0,0,0,3.8,1.71c2,.76,4,1.45,6,2.17a2.26,2.26,0,0,0,.33.13c2.64.49,5.31.85,7.9,1.51a47.12,47.12,0,0,1,5.93,2.13c1.07.42,2,1.05,3.09,1.53a4.76,4.76,0,0,1,2.73,6.14,2.79,2.79,0,0,1-2.63,1.89l-17.43.18a42.11,42.11,0,0,1-4.49-.16c-4.4-.42-8.79-1.12-13.2-1.33s-9.1-.12-13.65.07a8.81,8.81,0,0,0-5,2.2,8.87,8.87,0,0,1-2.81,1.46c-1.78.57-3.74,1.56-5.4,1.24-2.62-.5-5.57-.2-7.8-2.18a7.41,7.41,0,0,1-2.09-3.26C382,267,383.34,260,383.28,253c0-2.79,1-5.59,1.12-8.4.2-4.07.12-8.15,0-12.23a20.34,20.34,0,0,0-.95-3.7c-.18-.74-.18-1.53-.33-2.28-.22-1.09.29-2.38-1.13-3.16-.37-.2-.34-1.35-.24-2,0-.2.91-.39,1.4-.39,2.64,0,5.38-.3,7.88.31a16.76,16.76,0,0,0,6,.83c3-.36,6-.53,8.63-2.24a.82.82,0,0,1,.35-.09c1.45-.09,2.89-.11,4.12-1.14C410.39,218.26,411,218.46,411.6,218.46Z"/><path class="cls-1" d="M132.4,60.94a45.5,45.5,0,0,1,5,2.36c1.48.93,5.39,1.06,6.81,0,.73-.52,1.64-.78,2.42-1.26,1.44-.89,1.48-2.37,1.5-3.84,0-2.34,1.24-4.3,2-6.43,1.29-3.83,4.11-3.51,7-3.49.84,0,1.68.06,2.52,0a16.74,16.74,0,0,0,9.62-3.43c1.31-1,2.81-1.58,3.79-3,.44-.62,2,.12,2,1a17.08,17.08,0,0,1-.55,2.87,8.29,8.29,0,0,0-.27,1.54c0,9.47-.05,19,.05,28.42,0,1.78.79,3.54.92,5.34.19,2.41-1,4.46-2.13,6.5a32.73,32.73,0,0,0-1.36,3.51,42.25,42.25,0,0,1-2.95,6.44c-1.11,1.69-2.85,3-4.29,4.44-1.73,1.78-3.92,1.51-6.08,1.43-1.86-.06-3.72-.11-5.57-.08a5,5,0,0,0-4.86,4.86c-.06,2.8-1.86,4-4.39,2.65a15.33,15.33,0,0,1-6.24-5.4,36.1,36.1,0,0,0-4.1-5.64c-1.11-1.23-2.74-2-4-3a7.17,7.17,0,0,0-3.89-1.53c-.74-.11-1.37-1.08-1.79-1.44.88-1.76,1.68-3.41,2.51-5,.29-.57.62-1.11,1-1.64a13.39,13.39,0,0,0,1.56-5.12c.34-1.8,1.46-3.45,2.2-5.18a3.32,3.32,0,0,0,.13-1.06c0-1.2,0-2.41.12-3.59C131.37,68.55,131.86,65,132.4,60.94Z"/><path class="cls-1" d="M96.87,240.34c-3.46.21-3.78,0-5.16-2.86a44.76,44.76,0,0,1-2.9-8.9c-.57-2.31-.72-4.61-1.17-6.89-.33-1.68-1.43-3.21-2.1-4.84-.45-1.13-.41-2.41-1.85-3.09-1-.46-4.09-1-5-.43a15.13,15.13,0,0,1-2.18.95,14.53,14.53,0,0,1-3.28,1.14,9.22,9.22,0,0,1-6.42-2,5.18,5.18,0,0,0-6.5.69,70.82,70.82,0,0,1-6.76,5.24.56.56,0,0,1-.52,0c-1.51-1.08-3-2.19-4.51-3.26-.92-.65-2.14-1-2.79-1.89a9.38,9.38,0,0,1-2.12-4.25c-.29-2.59-.57-5.23.82-7.82.64-1.18.07-3,.27-4.43s.7-3.07,1-4.61a9.9,9.9,0,0,0,.24-1.95c0-3.18.06-6.35.07-9.53,0-2.42.05-2.58,2.51-2.45,2.77.16,5.69,1.18,8.24.57,2.15-.52,4.72.36,6.61-1.66.78-.84,2.23-1,3.29-1.65a17.29,17.29,0,0,0,2.84-2.11c.87-.81,4.49-.68,5.17.28,1.6,2.24,3,4.66,5.33,6.28a32.39,32.39,0,0,0,3.52,1.93,13,13,0,0,0,3.11,1.49,24.79,24.79,0,0,0,3.76,0c1.51.07,3.89,2.3,3.89,3.81,0,4,.67,8.21-.34,12-1.15,4.23-.74,8.31-.71,12.44a21.82,21.82,0,0,0,1.41,7.54c1,2.68,2.88,5,4.44,7.42.75,1.17,0,3.32-.14,5,0,.36-.49.68-.57,1C97.82,235.79,97.36,238.06,96.87,240.34Z"/><path class="cls-1" d="M97.24,215.72c2.37,1.82,4.21,3.81,6.48,4.77,1.82.76,3.91,2.82,6.27.76.31-.27.94-.13,1.37-.31,1.75-.72,3.49-1.49,5.23-2.25a23.61,23.61,0,0,1,3.63-1.58,14.74,14.74,0,0,0,7-3.78c.92-.91,2.52-1.09,3.76-1.71s2.36-1.36,3.55-2c.33-.19.68-.37,1-.55,1.44,2.53,2.9,4.87,4.13,7.32.76,1.52,1.13,3.23,1.78,4.81a29,29,0,0,0,1.76,3.64c.59,1,1.46,1.93,2,3a2.1,2.1,0,0,1-.28,1.85c-2.68,2.91-5.53,5.66-8.18,8.6-1.57,1.74-2.85,3.73-4.29,5.59-2.3,3-4.53,6-7,8.83a18.47,18.47,0,0,1-4.11,3.46,31.82,31.82,0,0,1-5.4,2.92,37.71,37.71,0,0,0-5,2.48c-5,3-10.4,2.61-15.81,2.56a63.69,63.69,0,0,1-6.63-.29,13.69,13.69,0,0,1-3.17-1.2c1.86-2.67,3.41-4.91,5-7.13,1.18-1.68,2.46-3.29,3.58-5,.73-1.15,1.22-2.46,1.88-3.66.26-.48.76-.82,1-1.3a25.35,25.35,0,0,0,2.89-7.27,51.92,51.92,0,0,1,2.31-7c.58-1.5-.18-4.52-1.75-6.23a11.43,11.43,0,0,1-3.35-6.63A12.18,12.18,0,0,1,97.24,215.72Z"/><path class="cls-1" d="M321.44,93.29a30.9,30.9,0,0,1,1.73-3.1c2.12-3,4.26-5.93,6.5-8.8s4.27-5.45,6.61-8c2.88-3.1,5.91-6.06,9-8.94,1.27-1.18,3-1.9,4.3-3,1.63-1.36,3.76-1.77,5.29-3.54s4-3,6.19-4.07a36.35,36.35,0,0,1,5.75-1.7c.67-.19,1.32-.45,2-.65.45-.12,1-.41,1.35-.23,2.16,1.23,5.07.79,6.67,3.41,1.26,2.06,3.16,3.73,4.56,5.73.17.25-.93,2-1.53,2.08-3.38.29-5.63,2.7-8.16,4.37-2.24,1.47-3.78,4-5.71,6-1.52,1.55-3.3,2.86-4.72,4.49-2,2.31-3.79,4.83-5.69,7.25-2.45,3.12-5,6.2-7.35,9.36-1.16,1.52-2.06,3.25-3.2,4.8-1.52,2-3.18,4-4.74,6-.55.7-.9,1.56-1.48,2.23s-1.42,1.72-2,1.63c-.73-.12-1.43-1.13-1.93-1.89-1.2-1.87-2.18-3.9-3.43-5.73a12,12,0,0,0-6.31-4.35,11,11,0,0,1-2.79-1.42C321.91,94.81,321.79,94,321.44,93.29Z"/><path class="cls-1" d="M415.86,217.15c1.74-.81,3.49-1.56,5.18-2.42s2.35-.49,2.81,1.49c.57,2.46,1.48,4.85,2.25,7.27,0,.16.11.32.15.49.49,2.21.82,4.47,1.51,6.62a20.4,20.4,0,0,0,2.11,3.49c.58,1,.86,2.28,1.64,3.06a38,38,0,0,0,5.5,4.65,14.68,14.68,0,0,0,6.48,2.83c.55.06,1,.9,1.55,1.11,1.45.52,3,.72,4.44,1.35,5.14,2.31,10.55.63,15.78,1.27,3.31.4,6.63.83,9.89,1.52,2.73.59,3,2.82,1.05,5-1.52,1.71-3.46,2-5.44,2.41s-3.69.76-5.56,1c-.49.07-1.05-.55-1.57-.55-2.2,0-4.52-1-6.55.69a.31.31,0,0,1-.16.06c-4.27.2-8.26,2.77-12.69,1.57a26.58,26.58,0,0,1-2.51-1,2.86,2.86,0,0,0-.47-.22c-2.27-.49-4.52-1-6.8-1.43-2-.34-3-1.88-4.31-3.09a41,41,0,0,1-3.4-3.57,29.37,29.37,0,0,1-1.84-2.8c-1-1.54-2.1-3-3.07-4.62a30.82,30.82,0,0,1-2-3.71c-.89-2-1.66-4.05-2.48-6.08,0-.11,0-.23-.06-.35A48.38,48.38,0,0,1,415.86,217.15Z"/><path class="cls-1" d="M95.74,212.84V201.66c1.93-.58,4.08-.74,5.59-1.82s3.64-.58,4.92-2.26c.55-.72,1.76-1,2.72-1.35,1.74-.6,3.58-.93,5.26-1.66a40.45,40.45,0,0,0,5.85-3.11c1.24-.8,2.18-2.05,3.36-3,.4-.31,1.14-.19,1.37-.22,1.06,1.51,1.92,2.84,2.89,4.09,1.09,1.4,1,5.19-.19,6.6a3.21,3.21,0,0,0-.51,1.83c0,2.82,0,5.64,0,8.45a2.29,2.29,0,0,1-1.51,2.6c-2.28,1-4.32,2.47-6.58,3.5-2.47,1.14-5.08,2-7.62,3-.78.31-1.6,1.14-2.26,1a12.67,12.67,0,0,1-4.28-1.68c-2.08-1.32-3.89-3-6-4.38C98.06,212.81,96.92,213,95.74,212.84Z"/><path class="cls-1" d="M277.12,261.28l.84,3.52c-.95,2-.5,4.33-.29,6.6.12,1.21.67,2.39.7,3.6.17,5.39.23,10.79.29,16.19a17,17,0,0,1-.33,2.52c-2.87-.85-5.61-1.43-8.15-2.47a51.75,51.75,0,0,1-6.27-3.53c-1.43-.84-2.86-1.68-4.23-2.61a1.77,1.77,0,0,1-.66-1.27,73.67,73.67,0,0,1,.16-9.52c.29-2.33,1.5-4.53,2.11-6.84.37-1.43.25-3,.64-4.43.19-.68,1-1.66,1.62-1.68C268.08,261.22,272.63,261.28,277.12,261.28Z"/><path class="cls-1" d="M233.19,252.34c1.73-.68,2.52,1,3.74,1.59.5.25,1,.8,1.48.78,1.59-.06,2.6.53,2.85,1.74-.21,1.2-.33,2.13-.55,3-1.84,7.68-1,15.48-1.24,23.24a3.36,3.36,0,0,1-1.17,2.12,12,12,0,0,1-4.89,2.86c-1.28.32-2.36,1.4-3.55,2.09a3.17,3.17,0,0,1-1,.25,15.08,15.08,0,0,0-5.34,2.33c-.87.52-2.06.47-3.07.79s-1.81.72-2.94,1.18c-.18-1.48-.62-2.21.55-3.22,1-.88,1.18-2.69,1.77-4.06a36.19,36.19,0,0,1,1.64-3.51,16.55,16.55,0,0,0,2.44-5.42c.3-1.79,1.71-3.37,2.06-5.16.52-2.63,3.08-4.12,3.27-7,.13-2,1.61-3.81,2.19-5.79C232.13,257.65,232.58,255.06,233.19,252.34Z"/><path class="cls-1" d="M435.64,338.65c2.8-.53,5.6-1,8.35-1.6,1.85-.42,3.63-1.09,5.67-1.4-.41,3.47.84,6.75-.72,10-.6,1.25-.23,2.95-.45,4.42a37.13,37.13,0,0,1-.94,3.7c-.07.29-.21.56-.28.84a39.28,39.28,0,0,1-1.6,6.54,21.87,21.87,0,0,1-3.56,5.33c-1,1.24-2.55.7-2.82-.91-.46-2.85-.8-5.72-1.16-8.59-.16-1.19.2-2.54-1.09-3.38-.08,0-.11-.21-.12-.32q-.75-6.94-1.48-13.89A2.37,2.37,0,0,1,435.64,338.65Z"/><path class="cls-1" d="M145.85,231.49c2.93,2.6,3.68,5.86,3.5,9.4a2.6,2.6,0,0,1-1.13,1.79c-.35.21-1.13-.41-1.74-.5-2.59-.38-2.84-3.34-4.83-4.4a1.86,1.86,0,0,1,.25-1.41c.85-1,1.89-1.76,2.74-2.72A11.71,11.71,0,0,0,145.85,231.49Z"/><path class="cls-1" d="M116.56,189.29c0-2.44,0-5,0-7.54a1.74,1.74,0,0,1,1-1.18,1.81,1.81,0,0,1,1.43.47c1.18,1.07,2.28,2.22,3.38,3.37.2.22.42.77.32.86-1,1-1,2.73-2.86,3.12C118.9,188.6,118.2,190.11,116.56,189.29Z"/><path class="cls-1" d="M129.54,208.85c0-2.22-.08-4.48,0-6.73.06-1.44,1.11-1.19,1.69-.51a10.51,10.51,0,0,1,2.19,3.54C134.09,207.36,132.24,209.11,129.54,208.85Z"/><path d="M285.29,123.87c-.08-2.52-.23-5.05-.25-7.57,0-8,.33-16.08-.18-24.08a99.48,99.48,0,0,0-1.42-13.75,69,69,0,0,1-.94-10.37c0-.46.41-1,.63-1.43.25.43.49.88.77,1.29,1.73,2.6.64,5.75,1.52,8.37,1.05,3.12.25,6.38,1.19,9.29,1.85,5.8.89,11.66,1.11,17.48s-.09,11.74,0,17.61c0,1.75-1.25,2.17-1.91,3.21Z"/><path d="M262.78,66.5c.53,3.41.68,6.61,1.58,9.59,1.44,4.73.26,9.72,1.5,14.26,1.17,4.32.6,8.51.91,12.74.1,1.37-.91,2-1.86,1.35a2.46,2.46,0,0,1-.65-1.69c-.1-2.45.24-5-.18-7.35-1.06-5.88-.82-11.83-1.44-17.71-.28-2.63-1.11-5.29-1.21-8,0-.2-.25-.39-.32-.61-.2-.7-.37-1.42-.55-2.13Z"/><path d="M366.65,346c-1.68-1.8.49-2.57,1.07-3.55a34,34,0,0,1,3.67-4.42c1-1.14,1.95-2.26,2.83-3.46a53.19,53.19,0,0,0,3.55-5.17,39.11,39.11,0,0,0,3.1-8.44c1.2-4,.58-7.87.85-11.78a6.15,6.15,0,0,1,.09-1.43,1.15,1.15,0,0,1,.73-.59c.15,0,.48.28.58.51a14.25,14.25,0,0,1,.34,11.83,2.21,2.21,0,0,0-.2.87c0,2.94-1.22,5.43-2.51,8a45,45,0,0,1-8.85,12.48c-1.17,1.13-2.07,2.56-3.2,3.76A11.27,11.27,0,0,1,366.65,346Z"/><path d="M360.93,296.69a16,16,0,0,1,.05-2.86c.09-.44.81-1.12,1.14-1.07.52.09,1.35.72,1.34,1.1-.08,2.37.82,4.91-1,7-.13.15-.1.46-.1.7,0,2.7-1.09,5-2.39,7.3-1.2,2.14-1.89,4.57-3.1,6.7a80.46,80.46,0,0,1-4.69,7.09,20.14,20.14,0,0,1-2.94,3.25,5,5,0,0,1-2.11.86c-.16,0-.7-.51-.65-.63a4.5,4.5,0,0,1,1-1.91,22.64,22.64,0,0,0,5.88-7.32c1.39-2.92,3.26-5.62,4.69-8.53a29,29,0,0,0,1.69-5.25c.56-2.11,1-4.26,1.5-6.39Z"/><path d="M371.51,305c-.07,1.5.31,3.21-.3,4.43-.95,1.89-.6,4.15-2.11,5.86-.75.85-.92,2.2-1.34,3.33a47.74,47.74,0,0,1-1.72,4.6,28.42,28.42,0,0,1-2.82,4.67,22.65,22.65,0,0,1-3.28,3.21,5.36,5.36,0,0,1-1.63.61,6.07,6.07,0,0,1,.43-2.29c1.06-1.55,2.48-2.87,3.49-4.45,1.35-2.12,2.45-4.4,3.66-6.62a3,3,0,0,0,.16-.51c.55-1.94.76-4.07,1.72-5.78,1.31-2.31.76-4.7,1.09-7A51.5,51.5,0,0,1,370,299.7c.06-.26.48-.42.73-.62.23.3.64.59.66.9.06,1.67,0,3.35,0,5Z"/><path d="M314.06,283.49l2,.15c.13.2.24.29.25.4.45,5.42,1.34,10.85,1.15,16.25-.11,3.16-.38,6.58-2.11,9.62-.88,1.56-1,3.53-1.58,5.29a4.71,4.71,0,0,1-.68,1.07c-.21-.37-.63-.77-.59-1.1.26-1.93-.65-4.09,1.11-5.72.14-.13.09-.46.16-.69A42,42,0,0,0,315,294c-.16-2.58-.65-5.13-.93-7.71A25.58,25.58,0,0,1,314.06,283.49Z"/><path d="M180.59,349.16l2.08-.27c.62,1.57,1.55,2.94,1.64,4.36.18,2.71-1.23,5.05-2.75,7.2-.24.34-1.41,0-2.15,0a4.56,4.56,0,0,1,.6-1.34,6.85,6.85,0,0,0,1-8.16A6.21,6.21,0,0,1,180.59,349.16Z"/></g></g></svg>