<svg xmlns="http://www.w3.org/2000/svg" viewBox="0 0 333.52 563.76"><defs><style>.cls-1{fill:#fff;}</style></defs><g id="Layer_2" data-name="Layer 2"><g id="Layer_1-2" data-name="Layer 1"><path class="cls-1" d="M46.82,429.39A47.39,47.39,0,0,0,41.51,431c-2.45,1-4.79,2.28-7.18,3.44-.93.46-1.84,1-2.8,1.37-1.36.56-3.1.67-4.05,1.61s-2.06.65-2.94,1.17c-1.11.66-2,1.67-3.16,2.23a45.52,45.52,0,0,1-6.12,2.57c-2.91.95-5.38,2.34-7,5.07-.85,1.41-.58,4.71.8,5.57a11.43,11.43,0,0,0,3.22,1.79c2.28.5,4.2,2.11,6.76,1.84,4.81-.5,9.69.52,14.49-1.09,2.48-.83,5.22-.39,7.91-1.26,2.9-.94,6.31-.57,9.46-.34A91.67,91.67,0,0,1,60,456.46a2.3,2.3,0,0,1,.32.15c2.26.74,4.48,1.89,6.79,2.1,2.72.24,5.62.85,8.27-.87,1.19-.77,2.9-.84,3.92-1.73,2-1.78,3.58-4.08,5.64-5.81.68-.58,2.3-.17,3.47,0,.62.08,1.15.74,1.78.86A4.51,4.51,0,0,0,93.87,450c1.95-1.47,3.51-2.82,3.59-5.6.17-6-.74-12.1,1-18.12,1.12-3.94,0-8.18,1.33-12.29,1.11-3.38-.15-7.19,1.35-10.8.9-2.14.29-4.78,1.17-7.22,1-2.67.08-5.7,1.37-8.61.93-2.09.44-4.77,1.22-7.22s2.14-4.83,1.68-7.58a1.06,1.06,0,0,1,.12-.51,49,49,0,0,0,2.17-5.47,11.73,11.73,0,0,1,1.18-3.76c.82-1.26,1-2.92,1.58-4.35a29,29,0,0,1,1.79-3.34c.65-1.13,1.33-2.25,2-3.33,1-1.55,2.09-3.06,3.15-4.57s2.42-2.92,3.14-4.59a15.21,15.21,0,0,1,3.09-4.42c1.25-1.34,2.41-2.75,3.61-4.13a5.64,5.64,0,0,1,.68-.7,43.86,43.86,0,0,0,4.12-3.41,39.7,39.7,0,0,0,3.11-4.26c3,1.78,4.47,4.47,6,7.07.57.94,1,1.94,1.55,2.91.67,1.26,1.67,2.44,2,3.78.54,2.57.37,5.19,1.31,7.8s0,5.33,1.35,8c1,2,1,4.51,1.52,6.8,0,.17.09.34.13.52.39,1.37.8,2.73,1.17,4.11a30.53,30.53,0,0,1,1,4.27c.24,2.26,0,4.57.37,6.81.59,3.91,1.5,7.78,2.19,11.68.53,3-.39,6.16,1.19,9.23,1.08,2.08,1,4.77,1.36,7.2.54,3.74,1,7.49,1.5,11.24a3.19,3.19,0,0,0,.07.54c.78,2.89,1.65,5.76,2.33,8.68.64,2.74,1.08,5.53,1.62,8.3a1.94,1.94,0,0,0,.22.49c.88,1.91,2.21,3.64,2.26,5.87a3.26,3.26,0,0,0,.16.87c1,3.1,2.24,6.11,2.25,9.44a35.34,35.34,0,0,0,.19,4.49c.25,1.84.75,3.65,1,5.49s.1,3.82,1,5.82c1.11,2.4,1.15,5.32,1.59,8,.49,3.06.91,6.13,1.38,9.2a1.61,1.61,0,0,0,.19.5c1.55,3.11,1.54,6.59,2.13,9.9.5,2.84.2,5.57,3.72,7a6.84,6.84,0,0,0,4,.3c1.57-.26,3.08-.87,4.65-1.06,1.39-.17,1.69.53,1.06,1.81a3.48,3.48,0,0,0-.22,1.38c-.09,1.86-.08,3.72-.25,5.57a7.81,7.81,0,0,1-.77,1.81c-.58,1.52-1.23,3-1.66,4.58a44.32,44.32,0,0,0-.93,4.86,5.35,5.35,0,0,0,.08,1.59c.17,1.08.39,2.15.59,3.23.41,2.26-.77,4.84,1.41,6.73a12.84,12.84,0,0,1,1.34,1.21c.72.83,2.88,1.14,3.58.39,1-1,1.82-2.09,2.78-3.09.22-.23.86-.42,1-.29a10.48,10.48,0,0,1,1.63,1.76c.66.89,3.18,1.19,3.7.24.77-1.39,1.47-.74,2.27-.2.38.25.73.67,1.13.72,2.65.36,5.23.42,7-2.11.1-.14,1,0,1.11.22a3.58,3.58,0,0,0,4.42,1.8,12.21,12.21,0,0,0,2.92-2.07c.32.67.5,1.64.89,1.73,1.37.34,3,.84,4.16.36.89-.37,1.41-2,1.74-3.25.65-2.37,1.06-4.8,1.58-7.2a4.25,4.25,0,0,1,.21-.49c.68-1.81,1.42-3.59,2-5.42s1-3.75,1.57-5.63c.08-.27.44-.49.45-.75a60.49,60.49,0,0,0,.29-6.3,10.5,10.5,0,0,0-1-2.84c-.1-.28,0-.63-.17-.88a25.47,25.47,0,0,0-2.7-4.76c-2.31-2.72-.52-5.09.78-7s.83-3.24.52-4.81c-.57-2.89-1.51-5.7-2.09-8.59-.36-1.75-.05-3.65-.5-5.36-1-3.91-2.21-7.77-2.28-11.86,0-.52,0-1.28-.32-1.53a2.74,2.74,0,0,1-.65-3.55,5.06,5.06,0,0,1,3.43-1.63,13.84,13.84,0,0,1,7.26,1,42,42,0,0,0,6.48,1.71.33.33,0,0,1,.17.07c1.71,1.54,3.39,1,5.21-.17.45.65,1.21,1.24,1.31,1.94.48,3.11.1,6.24,1.32,9.37,1.1,2.78,1.15,6,1.66,9a3.45,3.45,0,0,0,.16.52c.66,1.93,1.42,3.85,2,5.82.65,2.28,1.11,4.6,1.66,6.91a5.08,5.08,0,0,0,.17.51,27.31,27.31,0,0,1,1,3c.22,1,.08,2.18.36,3.19.62,2.22,1.54,4.37,2.09,6.6.41,1.65.43,3.33,1,5.05.87,2.73,1.75,5.45,2.73,8.16a17.56,17.56,0,0,0,2.52,4.15c1.7,2.44,4.31,2.46,6.45,3.16,2.44.79,5.32.24,8,.22a1.75,1.75,0,0,0,1.12-.39c1.19-1.17,2.44-.65,4-.38-.95,1.43-1.78,2.61-2.53,3.84a33.71,33.71,0,0,1-6,7.89,44.14,44.14,0,0,1-8.89,5.9c-.63.34-1.2,1-1.85,1.07a10.88,10.88,0,0,0-5.83,2.72c-.49.42-1,.86-1.46,1.27s-1.76,4.18-1.5,4.79.67,1.22.93,1.86c.61,1.46.78,3.38,1.83,4.31a30.62,30.62,0,0,0,8,5.42c2.09.87,4.24,1.8,6.41,2.48a29.32,29.32,0,0,0,8.48,1.46c3,0,6.07-.77,9.1-1.24.31,0,.57-.36.87-.52,1.16-.62,2.28-1.58,3.51-1.77a18,18,0,0,0,6.18-2.44c3.36-1.87,5.62-4.88,8.46-7.28.74-.62.79-2.07,1.54-2.67,1.41-1.15,3-2.51,4.69-2.78a31.44,31.44,0,0,0,8.18-3,5.52,5.52,0,0,0,3.33-3.73c.75-3.42-1.43-6.37-1.44-9.65a.78.78,0,0,0-.14-.33c-.69-1.33-1.39-2.67-2.09-4a16.65,16.65,0,0,1-1.31-2.41c-.63-1.91-1.11-3.86-1.66-5.79,0-.17-.2-.3-.26-.47-.68-1.88-1.38-3.75-2-5.64a23.78,23.78,0,0,1-.87-3.07,3.63,3.63,0,0,1,.11-1.53c.19-.83.75-1.65.68-2.43-.38-4.53-.9-9.05-1.38-13.57a3.07,3.07,0,0,0-.14-.52c-.69-2.55-1.52-5.07-2.05-7.65-.67-3.26-1.1-6.57-1.64-9.86a3.1,3.1,0,0,0-.15-.52c-.71-2.31-1.6-4.58-2.11-6.93-.44-2.08-.22-4.18-1.06-6.33-.94-2.43-.53-5.26-1.33-7.92-1-3.36-.86-7.07-1.93-10.4a25.85,25.85,0,0,1-1-5.63,6.55,6.55,0,0,0-.32-1.21c-.69-2.18-1.45-4.34-2-6.54s-1-4.36-1.53-6.54a.35.35,0,0,0-.08-.16,14.68,14.68,0,0,1-2.45-6.91,2.14,2.14,0,0,0-.18-.69c-.73-1.9-1.55-3.77-2.2-5.71s-1-3.81-1.64-5.64c-1-2.73-2.38-5.32-3.31-8.07-.76-2.23-1.12-4.61-1.66-6.93a5.06,5.06,0,0,0-.21-.66c-.74-1.87-1.55-3.72-2.19-5.62s-1-3.74-1.57-5.6c-.06-.2-.36-.32-.44-.52a25.43,25.43,0,0,1-1.89-4.69c-.7-3.44.24-6.74,1.51-9.94a1.2,1.2,0,0,1,.32-.39c2-1.92,2.25-4.69,3.15-7.09a21,21,0,0,0,1.56-8.83,2.34,2.34,0,0,1,.26-.83c.69-1.89,1.52-3.75,2-5.69.67-2.54,1.08-5.14,1.6-7.71,0-.12,0-.24.07-.35a66.2,66.2,0,0,0,2.12-6.91c.53-2.63,0-5.38,1.18-8,.7-1.61.69-3.53,1.24-5.33.69-2.25,2.9-3.23,3.32-5.57.24-1.39,1.81-2.55,2.78-3.8.33-.3,1.27-.43,1.54-.06a21.61,21.61,0,0,1,2.79,4.52c1.18,2.87,2.84,4.21,5.94,4.27a14.62,14.62,0,0,1,1.62,0,4.14,4.14,0,0,0,3.94-1.76c1.33-2,3.35-3.35,4.57-5.53a56.77,56.77,0,0,1,6.12-8.18c1.93-2.33,1.13-4.89.71-7.3-.39-2.24-1.58-4.32-2.18-6.54s-1-4.68-1.45-7c-.05-.23-.11-.47-.18-.69a39.61,39.61,0,0,1-2.11-6.37c-.46-2.84-2.12-5.46-1.58-8.48a.7.7,0,0,0,0-.35c-.75-2-2.06-4.05-2.14-6.11-.13-3.1-1.16-6-1.51-9-.55-4.64-1-9.3-1.42-13.94,0-.18,0-.42-.12-.52-1.53-1.37-.87-3.2-1.1-4.86-.32-2.3-.88-4.56-1.34-6.83,0-.06-.07-.1-.09-.15a17.27,17.27,0,0,1-1.1-3.4c-.53-4.58-.91-9.17-1.35-13.75a4.57,4.57,0,0,0-.23-.86,19,19,0,0,1-.87-3c-.9-7.23,1.23-14.64-1.38-21.79a52.37,52.37,0,0,1-1.39-5.75c0-.05-.07-.09-.1-.14a18.61,18.61,0,0,0-5.39-6.23,42.22,42.22,0,0,0-9.36-5.19,80.59,80.59,0,0,0-7.87-2.61,73.14,73.14,0,0,0-7.31-2.48,8,8,0,0,1-4.76-2.71c-1.84-2.18-4-4.09-6.05-6.09-1.1-1.09-2.25-2.12-3.37-3.2a36.83,36.83,0,0,0-5.21-4.31,94.35,94.35,0,0,1-8.82-7.06c-1.6-1.37-3-2.94-4.5-4.46s-2.74-3.08-4.2-4.53-3.2-3.07-4.9-4.5c-1.38-1.15-2.33-2.74-4.16-3.46a31.62,31.62,0,0,1-4.47-2.7c-1.93-1.16-3.88-2.27-5.81-3.44s-3.92-2.38-5.86-3.61c-1.37-.86-2.64-1.88-4.05-2.66-1.14-.63-2.45-1-3.63-1.53A17.32,17.32,0,0,1,209,91.83c-2-1.48-4-3-6.07-4.53-1.39-1-2.86-2-4.2-3.09-1.49-1.22-3-2.28-5-2-.71.1-1.33.76-2,.87-3.59.57-7.2,1-10.78,1.58a3.61,3.61,0,0,1-3.75-1.93,18.61,18.61,0,0,0-5.76-6c-.54-.37-1-.79-1.58-1.16a33.07,33.07,0,0,1-4.31-3c-2.11-2-4.24-3.92-7.1-4.83a23.37,23.37,0,0,1-3.32-1.36c-2.36-1.19-4.67-2.49-7-3.67-1.16-.59-2.41-1-3.62-1.51l-5.36-2.16A25.47,25.47,0,0,1,135,57.39c-2.08-1.3-4.12-2.47-6.67-2.32-.36,0-.88.06-1-.13-1.2-1.44-2.84-1-4.32-1.07-4.13-.11-8.27-.11-12.4-.17a6.11,6.11,0,0,1-1.42-.13C106,52.83,103,52,99.86,51.36c-1.26-.25-2.67.15-3.93-.12a12.79,12.79,0,0,1-4.57-1.71c-1.64-1.12-2.82-2.9-4.42-4.1a6.62,6.62,0,0,0-3.66-1.35c-1.54,0-3.07.8-4.63,1a3.13,3.13,0,0,1-3.22-1.73c-1-1.8-2.29-3.43-3.35-5.2a8.87,8.87,0,0,1-1.43-3.25A47,47,0,0,0,68.2,24.36a24.43,24.43,0,0,0-2.7-5.95c-.83-1.18-1.7-2.32-2.58-3.46-.66-.85-1.42-1.64-2-2.52-.45-.65-.58-1.6-1.14-2.09A69.37,69.37,0,0,0,54.15,6,47,47,0,0,0,47,1.39,19.74,19.74,0,0,0,40.63.2,38.28,38.28,0,0,0,33.45.15a20.13,20.13,0,0,0-5,1.57c-1.69.65-3.31,1.49-5,2.19-1.25.52-2.73.69-3.76,1.48-2.45,1.88-4.55,4.25-7.08,6-2.29,1.6-3.41,3.93-4.86,6.08-.66,1-1.21,2-1.83,3A34,34,0,0,0,2.79,25.7a45.88,45.88,0,0,0-1.53,6.55c-.09.4-.27.78-.38,1.18a14.76,14.76,0,0,0-.82,3.25C0,40.09,0,43.51.08,46.92a5.68,5.68,0,0,0,.77,2.26,51.64,51.64,0,0,1,2.88,5.51c.9,2.46,2.75,4.09,4.55,5.66a10.4,10.4,0,0,1,3.06,4.84c1.05,3.39,1.44,6.9,3.86,9.85C16.54,76.66,17,78.92,19,80.27a26.71,26.71,0,0,1,4.93,4.58,27.78,27.78,0,0,1,3,4.65c.67,1.21.84,2.79,1.71,3.79a14.64,14.64,0,0,0,6.27,4.22c2.16.73,2.92,2,1.86,3.22-1.49,1.78-3.36,3.32-3.53,5.89,0,.17-.16.32-.23.49-.69,1.56-1.78,3.07-2,4.69a33.87,33.87,0,0,0,1.22,13.45l.06.17c.83,2.5,1.68,5,2.49,7.49.13.4.1.84.21,1.24.69,2.48,2,5,2,7.44.06,8.2,1.25,16.41-.78,24.61-1,4,.07,8.22-1.26,12.3-.46,1.4.78,3.27.82,4.93a24.4,24.4,0,0,0,2.59,10.8c1,2,1.72,4.21,2.56,6.32,1,2.41,1.91,4.82,2.9,7.22a30.87,30.87,0,0,0,1.61,3.39c.61,1.08,1.43,2.05,2,3.14,1,1.89,1.69,4.07,3,5.67,2,2.44,3,5.36,4.54,8.06,1,1.86,2.23,3.62,3.36,5.42.15.24.32.47.47.7,1.18,1.8,2.37,3.59,3.52,5.41,1,1.67,2.08,3.35,3.07,5.07a45.21,45.21,0,0,0,2.87,5.1c1.84,2.36,4.06,4.42,6,6.72,2.43,2.91,5.15,4.9,9.2,3.87a4.42,4.42,0,0,1,1,0,15.22,15.22,0,0,1,.09,2.2c-.36,3.14-.66,6.3-1.21,9.41a19.77,19.77,0,0,1-1.65,4.78c-1,2.22-2.23,4.37-3.42,6.52a50,50,0,0,1-3,5c-1.49,2.06-3.2,4-4.78,6-1,1.33-2,2.73-3,4.09-2,2.6-4,5.1-5.82,7.82-1,1.56-2.11,3.13-3.06,4.76a23,23,0,0,0-3.36,10.8c-.14,3.3-.88,6.77,1.09,9.88-.25,5,1.24,9.82,1.29,14.71.1,10.21,1,20.44-1,30.68-1.21,6.42-.07,13.1-1.12,19.7-.66,4.16-1.18,8.4-1.77,12.6a.9.9,0,0,1-.09.34c-1.61,2.13-1.93,4.68-2.42,7.19-.45,2.26-.94,4.51-1.42,6.77a1.86,1.86,0,0,1-.23.47Z"/><path d="M46.82,429.39l2.82-5.32a1.86,1.86,0,0,0,.23-.47c.48-2.26,1-4.51,1.42-6.77.49-2.51.81-5.06,2.42-7.19a.9.9,0,0,0,.09-.34c.59-4.2,1.11-8.44,1.77-12.6,1-6.6-.09-13.28,1.12-19.7,1.92-10.24,1.05-20.47,1-30.68,0-4.89-1.54-9.74-1.29-14.71-2-3.11-1.23-6.58-1.09-9.88a23,23,0,0,1,3.36-10.8c1-1.63,2-3.2,3.06-4.76,1.77-2.72,3.87-5.22,5.82-7.82,1-1.36,2-2.76,3-4.09,1.58-2,3.29-3.9,4.78-6a50,50,0,0,0,3-5c1.19-2.15,2.39-4.3,3.42-6.52A19.77,19.77,0,0,0,83.38,272c.55-3.11.85-6.27,1.21-9.41a15.22,15.22,0,0,0-.09-2.2,4.42,4.42,0,0,0-1,0c-4.05,1-6.77-1-9.2-3.87-1.92-2.3-4.14-4.36-6-6.72a45.21,45.21,0,0,1-2.87-5.1c-1-1.72-2-3.4-3.07-5.07-1.15-1.82-2.34-3.61-3.52-5.41-.15-.23-.32-.46-.47-.7-1.13-1.8-2.33-3.56-3.36-5.42-1.49-2.7-2.49-5.62-4.54-8.06-1.35-1.6-2-3.78-3-5.67-.61-1.09-1.43-2.06-2-3.14a30.87,30.87,0,0,1-1.61-3.39c-1-2.4-1.93-4.81-2.9-7.22-.84-2.11-1.52-4.31-2.56-6.32a24.4,24.4,0,0,1-2.59-10.8c0-1.66-1.28-3.53-.82-4.93,1.33-4.08.29-8.35,1.26-12.3,2-8.2.84-16.41.78-24.61,0-2.48-1.31-5-2-7.44-.11-.4-.08-.84-.21-1.24-.81-2.5-1.66-5-2.49-7.49l-.06-.17A33.87,33.87,0,0,1,31,111.8c.2-1.62,1.29-3.13,2-4.69.07-.17.22-.32.23-.49.17-2.57,2-4.11,3.53-5.89,1.06-1.26.3-2.49-1.86-3.22a14.64,14.64,0,0,1-6.27-4.22c-.87-1-1-2.58-1.71-3.79a27.78,27.78,0,0,0-3-4.65A26.71,26.71,0,0,0,19,80.27c-2-1.35-2.43-3.61-3.77-5.23-2.42-3-2.81-6.46-3.86-9.85a10.4,10.4,0,0,0-3.06-4.84c-1.8-1.57-3.65-3.2-4.55-5.66A51.64,51.64,0,0,0,.85,49.18a5.68,5.68,0,0,1-.77-2.26C0,43.51,0,40.09.06,36.68a14.76,14.76,0,0,1,.82-3.25c.11-.4.29-.78.38-1.18A45.88,45.88,0,0,1,2.79,25.7,34,34,0,0,1,6,20.49c.62-1,1.17-2,1.83-3,1.45-2.15,2.57-4.48,4.86-6.08,2.53-1.76,4.63-4.13,7.08-6,1-.79,2.51-1,3.76-1.48,1.67-.7,3.29-1.54,5-2.19a20.13,20.13,0,0,1,5-1.57A38.28,38.28,0,0,1,40.63.2,19.74,19.74,0,0,1,47,1.39,47,47,0,0,1,54.15,6a69.37,69.37,0,0,1,5.59,4.37c.56.49.69,1.44,1.14,2.09.62.88,1.38,1.67,2,2.52.88,1.14,1.75,2.28,2.58,3.46a24.43,24.43,0,0,1,2.7,5.95,47,47,0,0,1,2.45,10.49,8.87,8.87,0,0,0,1.43,3.25c1.06,1.77,2.35,3.4,3.35,5.2A3.13,3.13,0,0,0,78.65,45c1.56-.15,3.09-1,4.63-1a6.62,6.62,0,0,1,3.66,1.35c1.6,1.2,2.78,3,4.42,4.1a12.79,12.79,0,0,0,4.57,1.71c1.26.27,2.67-.13,3.93.12,3.11.63,6.17,1.47,9.26,2.21a6.11,6.11,0,0,0,1.42.13c4.13.06,8.27.06,12.4.17,1.48,0,3.12-.37,4.32,1.07.16.19.68.15,1,.13,2.55-.15,4.59,1,6.67,2.32a25.47,25.47,0,0,0,4.09,1.69l5.36,2.16c1.21.5,2.46.92,3.62,1.51,2.37,1.18,4.68,2.48,7,3.67a23.37,23.37,0,0,0,3.32,1.36c2.86.91,5,2.79,7.1,4.83a33.07,33.07,0,0,0,4.31,3c.54.37,1,.79,1.58,1.16a18.61,18.61,0,0,1,5.76,6,3.61,3.61,0,0,0,3.75,1.93c3.58-.61,7.19-1,10.78-1.58.71-.11,1.33-.77,2-.87,2-.3,3.54.76,5,2,1.34,1.1,2.81,2.05,4.2,3.09,2,1.5,4,3,6.07,4.53a17.32,17.32,0,0,0,2.57,1.57c1.18.57,2.49.9,3.63,1.53,1.41.78,2.68,1.8,4.05,2.66q2.91,1.84,5.86,3.61c1.93,1.17,3.88,2.28,5.81,3.44a31.62,31.62,0,0,0,4.47,2.7c1.83.72,2.78,2.31,4.16,3.46,1.7,1.43,3.33,2.94,4.9,4.5s2.77,3,4.2,4.53,2.9,3.09,4.5,4.46a94.35,94.35,0,0,0,8.82,7.06,36.83,36.83,0,0,1,5.21,4.31c1.12,1.08,2.27,2.11,3.37,3.2,2,2,4.21,3.91,6.05,6.09a8,8,0,0,0,4.76,2.71,73.14,73.14,0,0,1,7.31,2.48,80.59,80.59,0,0,1,7.87,2.61,42.22,42.22,0,0,1,9.36,5.19,18.61,18.61,0,0,1,5.39,6.23c0,.05.09.09.1.14a52.37,52.37,0,0,0,1.39,5.75c2.61,7.15.48,14.56,1.38,21.79a19,19,0,0,0,.87,3,4.57,4.57,0,0,1,.23.86c.44,4.58.82,9.17,1.35,13.75a17.27,17.27,0,0,0,1.1,3.4s.08.09.09.15c.46,2.27,1,4.53,1.34,6.83.23,1.66-.43,3.49,1.1,4.86.11.1.1.34.12.52.46,4.64.87,9.3,1.42,13.94.35,3,1.38,5.87,1.51,9,.08,2.06,1.39,4.07,2.14,6.11a.7.7,0,0,1,0,.35c-.54,3,1.12,5.64,1.58,8.48a39.61,39.61,0,0,0,2.11,6.37c.07.22.13.46.18.69.47,2.34.82,4.72,1.45,7s1.79,4.3,2.18,6.54c.42,2.41,1.22,5-.71,7.3a56.77,56.77,0,0,0-6.12,8.18c-1.22,2.18-3.24,3.52-4.57,5.53a4.14,4.14,0,0,1-3.94,1.76,14.62,14.62,0,0,0-1.62,0c-3.1-.06-4.76-1.4-5.94-4.27a21.61,21.61,0,0,0-2.79-4.52c-.27-.37-1.21-.24-1.54.06-1,1.25-2.54,2.41-2.78,3.8-.42,2.34-2.63,3.32-3.32,5.57-.55,1.8-.54,3.72-1.24,5.33-1.16,2.65-.65,5.4-1.18,8a66.2,66.2,0,0,1-2.12,6.91c0,.11-.05.23-.07.35-.52,2.57-.93,5.17-1.6,7.71-.51,1.94-1.34,3.8-2,5.69a2.34,2.34,0,0,0-.26.83,21,21,0,0,1-1.56,8.83c-.9,2.4-1.11,5.17-3.15,7.09a1.2,1.2,0,0,0-.32.39c-1.27,3.2-2.21,6.5-1.51,9.94a25.43,25.43,0,0,0,1.89,4.69c.08.2.38.32.44.52.53,1.86.95,3.76,1.57,5.6s1.45,3.75,2.19,5.62a5.06,5.06,0,0,1,.21.66c.54,2.32.9,4.7,1.66,6.93.93,2.75,2.29,5.34,3.31,8.07.68,1.83,1,3.79,1.64,5.64s1.47,3.81,2.2,5.71a2.14,2.14,0,0,1,.18.69,14.68,14.68,0,0,0,2.45,6.91.35.35,0,0,1,.08.16c.5,2.18.94,4.38,1.53,6.54s1.36,4.36,2,6.54a6.55,6.55,0,0,1,.32,1.21,25.85,25.85,0,0,0,1,5.63c1.07,3.33.92,7,1.93,10.4.8,2.66.39,5.49,1.33,7.92.84,2.15.62,4.25,1.06,6.33.51,2.35,1.4,4.62,2.11,6.93a3.1,3.1,0,0,1,.15.52c.54,3.29,1,6.6,1.64,9.86.53,2.58,1.36,5.1,2.05,7.65a3.07,3.07,0,0,1,.14.52c.48,4.52,1,9,1.38,13.57.07.78-.49,1.6-.68,2.43a3.63,3.63,0,0,0-.11,1.53,23.78,23.78,0,0,0,.87,3.07c.65,1.89,1.35,3.76,2,5.64.06.17.22.3.26.47.55,1.93,1,3.88,1.66,5.79a16.65,16.65,0,0,0,1.31,2.41c.7,1.32,1.4,2.66,2.09,4a.78.78,0,0,1,.14.33c0,3.28,2.19,6.23,1.44,9.65a5.52,5.52,0,0,1-3.33,3.73,31.44,31.44,0,0,1-8.18,3c-1.68.27-3.28,1.63-4.69,2.78-.75.6-.8,2-1.54,2.67-2.84,2.4-5.1,5.41-8.46,7.28a18,18,0,0,1-6.18,2.44c-1.23.19-2.35,1.15-3.51,1.77-.3.16-.56.47-.87.52-3,.47-6.07,1.25-9.1,1.24a29.32,29.32,0,0,1-8.48-1.46c-2.17-.68-4.32-1.61-6.41-2.48a30.62,30.62,0,0,1-8-5.42c-1.05-.93-1.22-2.85-1.83-4.31-.26-.64-.66-1.22-.93-1.86s1-4.36,1.5-4.79,1-.85,1.46-1.27a10.88,10.88,0,0,1,5.83-2.72c.65-.07,1.22-.73,1.85-1.07a44.14,44.14,0,0,0,8.89-5.9,33.71,33.71,0,0,0,6-7.89c.75-1.23,1.58-2.41,2.53-3.84-1.56-.27-2.81-.79-4,.38a1.75,1.75,0,0,1-1.12.39c-2.7,0-5.58.57-8-.22-2.14-.7-4.75-.72-6.45-3.16a17.56,17.56,0,0,1-2.52-4.15c-1-2.71-1.86-5.43-2.73-8.16-.55-1.72-.57-3.4-1-5.05-.55-2.23-1.47-4.38-2.09-6.6-.28-1-.14-2.15-.36-3.19a27.31,27.31,0,0,0-1-3,5.08,5.08,0,0,1-.17-.51c-.55-2.31-1-4.63-1.66-6.91-.55-2-1.31-3.89-2-5.82a3.45,3.45,0,0,1-.16-.52c-.51-3-.56-6.21-1.66-9-1.22-3.13-.84-6.26-1.32-9.37-.1-.7-.86-1.29-1.31-1.94-1.82,1.17-3.5,1.71-5.21.17a.33.33,0,0,0-.17-.07,42,42,0,0,1-6.48-1.71,13.84,13.84,0,0,0-7.26-1,5.06,5.06,0,0,0-3.43,1.63,2.74,2.74,0,0,0,.65,3.55c.31.25.31,1,.32,1.53.07,4.09,1.27,7.95,2.28,11.86.45,1.71.14,3.61.5,5.36.58,2.89,1.52,5.7,2.09,8.59.31,1.57.69,3.05-.52,4.81s-3.09,4.27-.78,7a25.47,25.47,0,0,1,2.7,4.76c.14.25.07.6.17.88a10.5,10.5,0,0,1,1,2.84,60.49,60.49,0,0,1-.29,6.3c0,.26-.37.48-.45.75-.53,1.88-1,3.78-1.57,5.63s-1.34,3.61-2,5.42a4.25,4.25,0,0,0-.21.49c-.52,2.4-.93,4.83-1.58,7.2-.33,1.2-.85,2.88-1.74,3.25-1.16.48-2.79,0-4.16-.36-.39-.09-.57-1.06-.89-1.73a12.21,12.21,0,0,1-2.92,2.07,3.58,3.58,0,0,1-4.42-1.8c-.15-.23-1-.36-1.11-.22-1.81,2.53-4.39,2.47-7,2.11-.4,0-.75-.47-1.13-.72-.8-.54-1.5-1.19-2.27.2-.52.95-3,.65-3.7-.24a10.48,10.48,0,0,0-1.63-1.76c-.16-.13-.8.06-1,.29-1,1-1.82,2.09-2.78,3.09-.7.75-2.86.44-3.58-.39a12.84,12.84,0,0,0-1.34-1.21c-2.18-1.89-1-4.47-1.41-6.73-.2-1.08-.42-2.15-.59-3.23a5.35,5.35,0,0,1-.08-1.59,44.32,44.32,0,0,1,.93-4.86c.43-1.56,1.08-3.06,1.66-4.58a7.81,7.81,0,0,0,.77-1.81c.17-1.85.16-3.71.25-5.57a3.48,3.48,0,0,1,.22-1.38c.63-1.28.33-2-1.06-1.81-1.57.19-3.08.8-4.65,1.06a6.84,6.84,0,0,1-4-.3c-3.52-1.4-3.22-4.13-3.72-7-.59-3.31-.58-6.79-2.13-9.9a1.61,1.61,0,0,1-.19-.5c-.47-3.07-.89-6.14-1.38-9.2-.44-2.7-.48-5.62-1.59-8-.92-2-.7-3.89-1-5.82s-.8-3.65-1-5.49a35.34,35.34,0,0,1-.19-4.49c0-3.33-1.27-6.34-2.25-9.44a3.26,3.26,0,0,1-.16-.87c-.05-2.23-1.38-4-2.26-5.87a1.94,1.94,0,0,1-.22-.49c-.54-2.77-1-5.56-1.62-8.3-.68-2.92-1.55-5.79-2.33-8.68a3.19,3.19,0,0,1-.07-.54c-.49-3.75-1-7.5-1.5-11.24-.35-2.43-.28-5.12-1.36-7.2-1.58-3.07-.66-6.19-1.19-9.23-.69-3.9-1.6-7.77-2.19-11.68-.34-2.24-.13-4.55-.37-6.81a30.53,30.53,0,0,0-1-4.27c-.37-1.38-.78-2.74-1.17-4.11,0-.18-.09-.35-.13-.52-.47-2.29-.5-4.79-1.52-6.8-1.34-2.66-.47-5.52-1.35-8s-.77-5.23-1.31-7.8c-.29-1.34-1.29-2.52-2-3.78-.52-1-1-2-1.55-2.91-1.58-2.6-3.08-5.29-6-7.07a39.7,39.7,0,0,1-3.11,4.26,43.86,43.86,0,0,1-4.12,3.41,5.64,5.64,0,0,0-.68.7c-1.2,1.38-2.36,2.79-3.61,4.13a15.21,15.21,0,0,0-3.09,4.42c-.72,1.67-2.08,3.06-3.14,4.59s-2.13,3-3.15,4.57c-.72,1.08-1.4,2.2-2,3.33a29,29,0,0,0-1.79,3.34c-.6,1.43-.76,3.09-1.58,4.35a11.73,11.73,0,0,0-1.18,3.76,49,49,0,0,1-2.17,5.47,1.06,1.06,0,0,0-.12.51c.46,2.75-.91,5.16-1.68,7.58s-.29,5.13-1.22,7.22c-1.29,2.91-.39,5.94-1.37,8.61-.88,2.44-.27,5.08-1.17,7.22-1.5,3.61-.24,7.42-1.35,10.8-1.34,4.11-.21,8.35-1.33,12.29-1.73,6-.82,12.08-1,18.12-.08,2.78-1.64,4.13-3.59,5.6a4.51,4.51,0,0,1-3.73,1.14c-.63-.12-1.16-.78-1.78-.86-1.17-.15-2.79-.56-3.47,0-2.06,1.73-3.62,4-5.64,5.81-1,.89-2.73,1-3.92,1.73-2.65,1.72-5.55,1.11-8.27.87-2.31-.21-4.53-1.36-6.79-2.1a2.3,2.3,0,0,0-.32-.15,91.67,91.67,0,0,0-9.09-1.52c-3.15-.23-6.56-.6-9.46.34-2.69.87-5.43.43-7.91,1.26-4.8,1.61-9.68.59-14.49,1.09-2.56.27-4.48-1.34-6.76-1.84A11.43,11.43,0,0,1,9,454c-1.38-.86-1.65-4.16-.8-5.57,1.66-2.73,4.13-4.12,7-5.07a45.52,45.52,0,0,0,6.12-2.57c1.14-.56,2.05-1.57,3.16-2.23.88-.52,2-.21,2.94-1.17s2.69-1.05,4.05-1.61c1-.39,1.87-.91,2.8-1.37,2.39-1.16,4.73-2.44,7.18-3.44A47.39,47.39,0,0,1,46.82,429.39Zm41.4-157.81c-1.46,1.08-2.49,1.93-2.3,3.61a2.64,2.64,0,0,1-.3,1.51c-.65,1.16-1.8,2.16-2.05,3.37-.71,3.43-3.41,5.53-5.12,8.26-1.59,2.53-3.58,4.8-5.37,7.2-1,1.41-1.83,3.09-3.09,4.25-3,2.72-4.68,6.32-7.06,9.44-1.24,1.62-1.78,3.77-2.9,5.51a12.33,12.33,0,0,0-2.19,6.92c0,3.45-.34,6.82.84,10.35,1,3,.91,6.41,1.45,9.64,1,6.32-.29,12.8,1.12,19.21a18,18,0,0,1-.61,8.95c-1,3.1-.51,6.53-1.25,9.84-1.13,5,0,10.24-1.35,15.38-1.07,4,.29,8.34-1.34,12.49-.9,2.29-.2,5-1.27,7.55-1.36,3.22-2,6.74-3,10.12-.07.25-.51.41-.55.64-.2,1.13-.86,2.86-.38,3.29a21.55,21.55,0,0,0,4.8,2.75c.86.43,1.78.75,2.68,1.1,1.32.51,2.62,1.08,4,1.47,2,.58,4.41.51,6,1.63,2.36,1.67,5,2.44,7.49,3.73a10.55,10.55,0,0,1,2.65,1.38,15.43,15.43,0,0,0,5.16,3.89c1.68.67,2.93,2.33,4.58,3.11a3.7,3.7,0,0,0,3.25-.28,5.29,5.29,0,0,0,1.34-3.17c.57-4,1-8,1.45-12,.44-3.6-.1-7.18.88-10.89,1.33-5.07,0-10.59,1.54-15.79.43-1.45.1-3.11.34-4.64s.84-2.91,1.12-4.39c.5-2.68.88-5.39,1.33-8.08,0-.21.27-.37.35-.58a11,11,0,0,0,.8-2.25c.51-3.25.94-6.52,1.4-9.78a4.4,4.4,0,0,1,.26-.65c.72-1.94,1.54-3.85,2.11-5.83.63-2.15,1-4.36,1.52-6.55a.49.49,0,0,1,.06-.17c.77-1.58,1.61-3.13,2.3-4.74.59-1.37.84-2.9,1.53-4.21,1.06-2,2.35-3.92,3.58-5.86.37-.58,1.2-1.09,1.22-1.65.08-2.35,2.9-3,3.08-5.42.09-1.22,1.67-2.34,2.61-3.47a12.76,12.76,0,0,1,1.79-1.81c1.33-1,3-1.78,4-3,2.28-2.52,3.84-5.62,6.49-7.87.66-.56,1.94-1.26,1.31-2.61a9.79,9.79,0,0,0-1.15-1.54c-.74-1-1.45-2-2.22-2.95-1.46-1.85-3-3.64-4.41-5.51-1.21-1.59-2.3-3.28-3.5-4.87-.82-1.09-1.89-2-2.6-3.15-1.09-1.72-1.77-3.72-3-5.35-1.75-2.36-3.87-4.44-5.69-6.76-.37-.47-.09-1.46-.11-2.21.67.08,1.57-.09,2,.28a24.18,24.18,0,0,1,2.5,3.08c1.42,1.82,2.84,3.63,4.24,5.47,1.21,1.59,2.41,3.2,3.55,4.85,1,1.45,1.9,3,2.92,4.43A27.64,27.64,0,0,0,129,310.3c1,1.14,2,2.28,3,3.44,1.48,1.79,2.69,3.89,4.45,5.32,2.55,2.1,3.83,5,5.78,7.52,1.37,1.73,2.5,3.65,3.74,5.48.89,1.31,2,2.5,1.71,4.31a3.16,3.16,0,0,0,.28,1.55c.65,1.78,1.67,3.49,2,5.32.56,3.69-.23,7.49,1.4,11.13.89,2,1,4.31,1.44,6.47a2.92,2.92,0,0,0,.23.47c.72,1.95,1.77,3.85,2.06,5.87a80,80,0,0,1,.24,8.21,11.28,11.28,0,0,0,.48,2.42c.18.71.52,1.37.66,2.08.6,3-.25,6,1,9.1a23.29,23.29,0,0,1,1.52,9.31c-.09,2.81,1.23,5.09,1.85,7.56.37,1.45.52,2.45.08,3.1.32,1.34.57,2.17.69,3,.16,1.06.09,2.15.32,3.18s.73,1.71,1,2.6c.2.68.16,1.43.32,2.12q1.11,4.78,2.3,9.54c.17.68.46,1.33.75,2.14-.09.33-.54,1-.35,1.44a18.36,18.36,0,0,1,2.22,7.29,2.34,2.34,0,0,0,.08.53c.76,2.74,1.7,5.45,2.23,8.23.47,2.47.36,4.95,1.09,7.48,1.1,3.8,1.12,7.9,1.63,11.87.14,1,.38,2.08.62,3.1.15.6.51,1.16.61,1.77.52,3.41,1,6.82,1.49,10.23a4.94,4.94,0,0,0,.13.52c.72,3,1.47,5.95,2.17,8.94.52,2.27,1,4.56,1.4,6.55,2.06-.31,3.67-.47,5.23-.83a16.47,16.47,0,0,0,2.95-1.17,13.66,13.66,0,0,1,5.31-1.62,50.12,50.12,0,0,0,7.59-1.34c.06,0,.14,0,.17,0,1.16-1.43,2.81-1.06,4.31-1.13,1.79-.08,3.61.13,5.39,0a64.08,64.08,0,0,0,6.73-1.07,28.6,28.6,0,0,0,5.58-1.53,46.33,46.33,0,0,0,5.28-3,10.49,10.49,0,0,0-.14-1.66c-.71-3.08-1.82-6.12-2.11-9.24a68.94,68.94,0,0,0-2.51-13.35c-.88-3-1-6.15-1.48-9.23-.46-2.86-.95-5.72-1.43-8.58a3.34,3.34,0,0,0-.18-.5,36,36,0,0,1-2.08-5.44c-.46-2.17-.48-4.37-1.11-6.6-1-3.61-1.51-7.37-2.68-11-1-3.06-1.7-6.26-2.55-9.4-1-3.54-1.12-7.29-1.63-11-.06-.47.09-1.21-.17-1.38-1.4-.94-.82-2.32-.93-3.54a25.52,25.52,0,0,0-.34-3.93c-.61-2.31-1.45-4.56-2.21-6.83-.55-1.65-1.12-3.28-1.69-4.92a43.21,43.21,0,0,1-2.16-6.48,14.33,14.33,0,0,0-3.42-7,26.84,26.84,0,0,1-3-5c-1-2-1.93-4.13-2.89-6.19a26,26,0,0,1-2.21-4.85c-.85-3.78.09-12.07,1.43-15.23a3.13,3.13,0,0,1,.15-.32,20.14,20.14,0,0,0,1.94-4.1c.56-2.38.75-4.84,1.2-7.26a110.77,110.77,0,0,0,1.46-16c.25-6.41,0-12.84.25-19.24.07-1.9,1-3.78,1.54-5.64a22.83,22.83,0,0,1,1.23-2.94,43.52,43.52,0,0,0,2.13-4.41c.71-2.11,1.05-4.36,1.74-6.48a28.62,28.62,0,0,1,1.9-4,2.34,2.34,0,0,0-1.34-3.3,10.59,10.59,0,0,1-2.21-1.49c-.47-.34-.9-.71-1.35-1.06a8.83,8.83,0,0,1-1.11-.89c-.79-.9-1.45-1.92-2.3-2.75a35,35,0,0,0-2.78-2.21,48.09,48.09,0,0,0-3.79-3.08c-1.57-1-3.57-1.56-4.87-2.83-2.23-2.2-5.23-3-7.61-4.89-1.06-.84-2.23-1.55-3.28-2.4-1.56-1.28-4.52-2.06-5.74-1.22a56.24,56.24,0,0,0-5.47,4.24,14.33,14.33,0,0,1-5.56,3.34,6.92,6.92,0,0,0-3.06,1.63,31.08,31.08,0,0,0-4.18,5.4,18,18,0,0,1-7.18,7c-.57.3-1.13,1.17-1.57,1.09a3.13,3.13,0,0,0-3.74,2.62,15.09,15.09,0,0,0-.09,6.1c.21,1.31,1.39,2.43,2,3.69s1,2.74,1.8,3.83c1.66,2.19,3.52,4.23,5.21,6.4,2,2.63,4.2,5.2,6.1,8a6.78,6.78,0,0,1,1.11,2c1,3.84-1.61,6.49-3.23,9.46-1,1.78-2.08,3.48-3,5.27-.48.89-3.11,3-4,2.75a11.44,11.44,0,0,1-3.77-2c-.79-.7-1-2-1.67-2.92-.71-1.09-1.62-2.05-2.34-3.13s-1.09-2.06-1.75-3c-1.43-2.08-3.15-4-3.36-6.68a3.35,3.35,0,0,0-.24-.86c-.72-1.83-1.56-3.62-2.16-5.49s-1-4-1.53-5.95a3.38,3.38,0,0,0-.11-.34c-.76-2-1.53-4-2.26-6A40.57,40.57,0,0,0,124.2,272c-.83-1.72-1.92-3.31-3-5.16-1,0-2.42-.52-3.5,1a6.67,6.67,0,0,1-2,1.31c-1.79,1.1-3.62,2.16-5.39,3.3-1.61,1-3.16,2.16-4.73,3.26a25,25,0,0,0-4,2.94c-1.46,1.57-2.25,3.65-3.95,5.16A47.05,47.05,0,0,0,93,289.2c-2-.9-2.31-.95-2-2.83.45-2.73-1.18-5-1.2-7.57,0-.21-.19-.42-.28-.63a11.14,11.14,0,0,1-.93-2.32A42.08,42.08,0,0,1,88.22,271.58ZM180.79,87.77a14.71,14.71,0,0,1,1.12,3.11,37.16,37.16,0,0,0,1.2,5.65c.95,3.16-.48,6.74,1.26,9.9-1,1.44,0,2.87.07,4.3a48.75,48.75,0,0,1-.78,8.59c-.76,4.71.24,9.6-1.38,14.35-.87,2.55-.33,5.38-1.16,8.15-1.15,3.85-1.09,8.06-1.59,12.11-.37,3-1.05,6-1.16,9-.18,5.51,0,11-.07,16.54a3.78,3.78,0,0,1-.86,2.61,10,10,0,0,1-6.53,2.35,14.39,14.39,0,0,0-8.83,3.13c-2.53,1.8-3.73,5-4.34,8.18s-.94,6.16-1.41,9.24a6.07,6.07,0,0,1-.25.67c-.32,1.24-.6,2.5-1,3.72-.24.79-.7,1.51-.88,2.3a2.62,2.62,0,0,0,.08,1.85c1.91,2.57,4,5,5.92,7.58.66.87.94,2.07,1.68,2.84,1.6,1.66,3.43,3.09,5.09,4.68,2,1.93,3.94,3.93,5.9,5.9,1.35,1.35,2.65,2.77,4.07,4.05a42.69,42.69,0,0,0,4.4,3.55c1.86,1.26,3.85,2.31,5.76,3.48,1.55,1,3,2.34,4.64,2.83,2.06.61,3.19,2.13,4.57,3.4,2.67,2.45,5,5.25,8.13,7.18a14.79,14.79,0,0,0,1.47,1.1,28.94,28.94,0,0,0,4.3,1.75c1.55.42,3.57,1.22,4.71.6,2.2-1.19,4.39-.82,6.59-1.1a5.54,5.54,0,0,0,1.23-.19,45.47,45.47,0,0,1,6.23-2.15,20.49,20.49,0,0,0,7.35-2.71c2.35-1.51,4.73-3,7-4.65,1.68-1.23,3-3.06,4.82-4,2.79-1.41,4.61-3.85,6.88-5.77,2.51-2.13,4.46-4.91,6.9-7.13a44.41,44.41,0,0,0,6-7.35,13.09,13.09,0,0,0,1.1-1.41c1.07-2.14,2.08-4.32,3.12-6.48.42-.89.64-2.27,1.33-2.58,1.43-.64,1.09-1.67.91-2.54a39.21,39.21,0,0,0-1.57-5.43c-.61-1.61-1.48-3.12-2.2-4.7-1-2.16-1.91-4.35-2.9-6.51a13.33,13.33,0,0,0-1.45-2.81,16.85,16.85,0,0,1-3.52-7.83c-.06-.36-.05-.89-.26-1-1.71-1-.56-2.52-.85-4.06,1.21,0,2.38-.34,3.16.08,1.54.82,3.32,1.43,4.32,3.08a2.17,2.17,0,0,0,.89.64c.07,0,.42-.27.44-.44.24-1.93,1.55-3.54,1.4-5.66-.09-1.25.95-2.53,1.17-3.85.34-2,1.58-3,4.12-2.5-.36.84-.66,1.64-1,2.41a18.28,18.28,0,0,0-1.55,3.18c-.66,2.73-1.08,5.51-1.63,8.26a1.57,1.57,0,0,1-.46.88c-1.11.82-.61,1.52,0,2.31,1.17-1.62,2.23-3.14,3.36-4.62a17,17,0,0,1,2-2.3A39.31,39.31,0,0,1,282,180c1.13-.79,1.89-2.72,3.84-1.62,1.11,2.12-1.09,2.71-1.95,3.69-1.73,2-4,3.5-5.8,5.4a41,41,0,0,0-4,5.09,23.86,23.86,0,0,0-2.36,4.21c-1.06,2.48.55,4.56,1.62,6.48s2.3,3.75,2.26,6.09a1.5,1.5,0,0,0,.09.71,19.45,19.45,0,0,1,2.6,8.74c.06,1.16.57,2.29.71,3.45a13,13,0,0,1,0,3c-.09.86-.48,1.68-.54,2.53-.2,2.81-.3,5.62-.46,8.43a4,4,0,0,1-.31,1c-.69,1.9-1.52,3.75-2,5.69-.67,2.47-1.09,5-1.63,7.51,0,.18-.06.41-.18.49-1.39.91-.75,2.29-.69,3.43.06,1.41,2.38,2.45,3.37,1.51s1.92-.53,2.93-.19a9.36,9.36,0,0,0,1.84.52c4.22.46,8.46-.1,12.71,1.15,2.74.81,5.92.15,8.91.1.31,0,.62-.31.94-.43,2.16-.77,4.31-1.18,6.36.31.79.56,1.18.33,1.29-.62.23-1.89.5-3.77.91-5.66.91-4.25,1.25-8.62,2.81-12.76a57.73,57.73,0,0,0,1.48-5.86c.07-.27.33-.48.49-.72a4.62,4.62,0,0,0,.17-4.76,5.18,5.18,0,0,1-.51-1.1c-.49-3.44-.88-6.9-1.44-10.32-.27-1.64-1-3.19-1.29-4.82-.45-2.65-.25-5.32-.94-8a76.37,76.37,0,0,1-1.66-13.37,53.26,53.26,0,0,1,.09-9.7c.42-3.77-1.29-7.1-1.62-10.69a1.32,1.32,0,0,0-.16-.51l-3.76-6c-.41-.66-.66-1.61-1.26-2-3.12-1.81-6.27-3.62-9.55-5.12a37.61,37.61,0,0,0-6-1.66c-.17-.05-.33-.14-.5-.2-2.05-.73-4.13-1.41-6.16-2.2-1.64-.64-3.17-1.61-4.85-2.09s-1.82-2.16-2.91-2.61c-2-.83-2.9-2.61-4.26-4-.81-.81-1.37-1.87-2.22-2.63-1.24-1.1-2.86-1.85-3.93-3.09a42.31,42.31,0,0,0-8.86-7.38c-.41-.27-.64-1-1-1.06-2.78-.65-4-3.13-5.91-4.83-1.6-1.44-3.14-3-4.68-4.45-1-.94-1.93-1.92-2.87-2.91a61.68,61.68,0,0,0-5.52-5.78,55.29,55.29,0,0,0-6.6-4c-.6-.36-1.12-.88-1.74-1.19-1.31-.65-2.65-1.22-4-1.82a15.28,15.28,0,0,1-2.43-1.1c-1.69-1.12-3.24-2.44-4.95-3.52s-3.6-1.91-5.33-3c-2.49-1.53-4.9-3.19-7.36-4.76-1.39-.89-3-1.49-4.19-2.59-2.3-2.15-4.79-3.26-8-2.69s-6.46,1.08-9.69,1.62A4.8,4.8,0,0,0,180.79,87.77Zm90.87,158.8-.55,0a28.15,28.15,0,0,0-3,2.64c-3.15,3.57-6.12,7.29-9.33,10.8-1.86,2-4.06,3.75-6.08,5.64-1.71,1.59-3.42,3.18-5.07,4.84a11.45,11.45,0,0,0-2.71,3.24,8.64,8.64,0,0,0-.29,4.24c.66,4.78-.64,9.19-2,13.65a45.42,45.42,0,0,0-1.4,7.26c-.35,2.4,0,4.84-1.47,7.12-1.24,1.93-1.84,4.26-2.84,6.36-.63,1.33-1.47,2.55-2.2,3.83a13.67,13.67,0,0,1-1.7,3c-2.16,2.15-3.29,5.51-1.82,8.27,1.05,2,.73,3.88.91,5.82.1,1.05,0,2.1-1.22,2.7a3,3,0,0,0-1.28,1.58,18.82,18.82,0,0,0-1.22,8.56c.2,1.71.79,3.37,1,5.07.45,3.44-.38,7,1.16,10.37.81,1.8.51,3.94,1.21,6,.93,2.67,0,5.77,1.31,8.61.9,1.9.41,4.17,1.25,6.32,1.12,2.89,1.16,6.19,1.61,9.33a33.62,33.62,0,0,0,.39,3.91c.54,2,1.58,4,2,6,.55,2.88.08,5.84,1.2,8.74.79,2.06.29,4.47,1.34,6.71.73,1.56.44,3.53,1.22,5.35,1,2.4,1.12,5.19,1.62,7.81.05.29.11.59.18.88.74,3.09,1.46,6.2,2.24,9.28.48,1.9.95,3.8,1.61,5.64.59,1.66,1.56,3.19,2.15,4.85a27.73,27.73,0,0,1,1.2,4.85c.56,3.49,1,7,1.52,10.5.44,2.77,1,5.52,1.54,8.27a.84.84,0,0,0,.05.17c.71,2.05,1.49,4.08,2.12,6.15.57,1.86,1,3.76,1.46,5.64,0,.16.17.3.23.47a39.27,39.27,0,0,1,2.08,5.42c.72,3.08,1.12,6.23,1.66,9.35a1.91,1.91,0,0,0,.1.34c.73,2.4,1.6,4.76,2.15,7.19.34,1.53.27,3,1.23,4.49,1.52,2.28,2.95,4.27,6.11,4.18a29.42,29.42,0,0,1,4.7.68,2.25,2.25,0,0,0,.83-.15c.74-.18,1.46-.41,2.19-.55,2.05-.41,4.13.27,6.22-1.21,1.55-1.09,4-1,6.07-1.27s4.07-.1,6.1-.21a9.51,9.51,0,0,0,2.23-.52c.68-.22,1.32-.57,2-.8a12.37,12.37,0,0,0,1.54-.38c1.25-.65,2.38-1.71,3.7-2a16.74,16.74,0,0,0,5.35-2.65c.5-.32.82-1,1.34-1.2a4.31,4.31,0,0,0,2.94-4.58c-.21-4.06-.83-8.1-1.29-12.15a1.91,1.91,0,0,0-.1-.34c-.71-2.3-1.53-4.56-2.11-6.89s-.92-4.59-1.34-6.89c-.37-2-.3-3.93-1.08-6-1.11-2.95-1.11-6.32-1.63-9.5-.46-2.84-1-5.67-1.47-8.5a3.4,3.4,0,0,0-.12-.34c-.74-2.82-1.57-5.61-2.18-8.45-.3-1.38.22-3-.33-4.26-1.34-3-1.45-6.31-2.3-9.43-.6-2.22-1-4.5-1.62-6.71-.69-2.43-1.55-4.81-2.33-7.21a8.44,8.44,0,0,0-.2-.87c-.71-1.71-1.56-3.37-2.15-5.12s-1-3.69-1.47-5.54a8.33,8.33,0,0,0-.29-.84c-.68-1.66-1.45-3.29-2-5-.66-2-.91-4.09-1.77-6-1.14-2.48-2.34-4.87-2.3-7.69a3.63,3.63,0,0,0-.41-1.12c-.68-1.82-1.37-3.63-2-5.45-.77-2.09-1.49-4.19-2.27-6.27-.52-1.39-1.13-2.75-1.62-4.15-.31-.9-.47-1.85-.72-2.87a16.34,16.34,0,0,0,.62-1.56c.52-1.95.95-3.93,1.52-5.87a21.43,21.43,0,0,1,1.31-3c.73-1.5,1.89-2.9,2.2-4.48.56-2.8,2.14-5.44,1.57-8.45a1.82,1.82,0,0,1,.1-.89c.74-2.12,1.83-4.18,2.2-6.37a61.73,61.73,0,0,1,2.49-9.19,47.89,47.89,0,0,0,1.43-8c.46-3.19-.25-6.41,1.09-9.65.85-2,1.18-4.27,2.63-6.13s2.67-4.07,4-6.09a25.19,25.19,0,0,0,3.71-9.9c.59-3.55.21-7.28,0-10.92a3,3,0,0,0-1.71-2.14,4.56,4.56,0,0,0-6,4.08,54.77,54.77,0,0,1-1.25,5.76.84.84,0,0,1-.05.17c-.79,2.31-1.59,4.61-2.35,6.93-.53,1.61-.92,3.27-1.53,4.84a5,5,0,0,1-1.63,2.42,40.31,40.31,0,0,1-5.15,2.41c-.18.08-.45-.06-.67-.11-1-.25-2-.49-3-.77A5.86,5.86,0,0,1,281,298c-1.38-1-2.67-2-4.6-1.83a36.26,36.26,0,0,1-5.21,0,3.25,3.25,0,0,1-1.72-.37c-2.13-1.48-3.78-3.34-4.11-5.52-1.8-.94-3.66-1.39-4.62-2.57a9,9,0,0,1-1.53-4.76c-.27-3.1-.18-6.23-.2-9.35a7.93,7.93,0,0,1,4.61-6.76,18.86,18.86,0,0,0,6.75-4c1.61-1.52,1.65-2.07.5-4.18a3.19,3.19,0,0,1-.24-1.39c0-2.1,0-4.19,0-6.29a5.51,5.51,0,0,1,.3-1.16C271.15,248.69,271.41,247.63,271.66,246.57ZM83.66,46.4a.51.51,0,0,1-.19.29c-1.25.82-2.89,1.13-3,3.18,0,.91-.84,1.76-1.25,2.66Q78,55.14,76.91,57.77c-.14.32-.12.7-.25,1-.75,1.84-1.53,3.66-2.29,5.5-.15.38-.21.79-.35,1.18-.69,2-1.48,4-2.06,6.07-.64,2.24-1.08,4.53-1.62,6.8a5.27,5.27,0,0,1-.22.49c-.68,1.91-1.48,3.8-2,5.75a57.7,57.7,0,0,0-1.14,6c-.43,2.71-.08,5.47-1.35,8.15-.78,1.66-.64,3.76-1.11,5.67-.87,3.56-.51,7.34-1.46,11-.69,2.64-.31,5.61-.1,8.42.19,2.58.79,5.14,1.21,7.71,0,.11,0,.28.12.33,1.57.87.91,2.41,1.12,3.69a16.79,16.79,0,0,0,.38,2.46c.67,2.14,1.51,4.22,2.15,6.37s1,4.25,1.57,6.38a.6.6,0,0,0,.08.16c1.2,2.3,2.42,4.59,3.57,6.92.57,1.14,1,2.35,1.53,3.53.77,1.79,1.51,3.6,2.31,5.38.57,1.26,1.17,2.5,1.83,3.72s1.34,2.24,2,3.38c.75,1.35,1.43,2.75,2.21,4.09q1.44,2.46,3,4.86c.67,1.06,1.46,2,2.12,3.12,1,1.58,2.3,3.11,2.71,4.85.57,2.35,2.25,3.75,3.58,5.45.81,1,2,1.74,2.89,2.76,1.45,1.75,2.66,3.71,4.15,5.42a2.32,2.32,0,0,0,2.15.5,10.77,10.77,0,0,0,4-4.4c1-1.75,1.8-3.55,2.75-5.29a13.76,13.76,0,0,1,1.07-1.24c1.13-1.5,2.14-3.1,3.37-4.51.91-1,2.19-1.73,3.13-2.74a3,3,0,0,1,4.06-.14c1.07.8.74,2.2,1.45,2.71,1.32.93.88,1.53.39,2a17.07,17.07,0,0,0,.4,2.53c.15.45.65,1.19.88,1.15,1.09-.18,2.26.07,3.14-1.19a30.54,30.54,0,0,0,2.74-3.91,31.55,31.55,0,0,0,2.44-6.35,8.82,8.82,0,0,0,.07-4.39c-.71-3.43-.49-3.47-4-3.47a7.87,7.87,0,0,1-1.61-.07,1.81,1.81,0,0,1-1-.5,2.34,2.34,0,0,0-3.94.23c-.47.7-1,1.37-1.48,2.06-.61.86-4.23,1.33-4.79.52-2.15-3.1-4.37-6.17-6.27-9.42a12.63,12.63,0,0,0-4.52-4.27,22.48,22.48,0,0,0-4.06-1.57c-.18-.07-.28-.33-.44-.48-1.42-1.3-2.65-2.83-4.69-3.34a8,8,0,0,1-2.94-1.39c-2-1.56-4-3.29-6-4.95a23.71,23.71,0,0,1-5.6-7.52c-1-2-3.07-3.5-3.07-6,0-.05-.08-.09-.11-.14a32.56,32.56,0,0,1-2-4.49c-.69-2.47-1.08-5-1.6-7.55a1.82,1.82,0,0,0-.14-.52c-1.76-3-.62-6.15-.65-9.23a23.73,23.73,0,0,1,1-5.11c.47-2.15.93-4.29,1.41-6.43,0-.1.12-.18.18-.28.74-1.08,1.52-2.12,2.18-3.25s.83-2.43,1.66-3.2a36.15,36.15,0,0,0,4.47-5.83,22.71,22.71,0,0,1,7.78-7.12c1.74-1,3.44-2,5.24-2.82,2-.88,4-2,6-2.22A32.91,32.91,0,0,1,122,83.4a17.21,17.21,0,0,1,3.19,1.47c2.17,1.62,4.24,3.38,6.25,5.18.47.42.43,1.38.87,1.88a58.05,58.05,0,0,0,5,5.25c.91.79,1.82,2.27,3.74,1.27-.12-1.59-.33-3.29-.34-5a8.83,8.83,0,0,1,.56-2.25,4.34,4.34,0,0,1,1.38.75,3.15,3.15,0,0,1,.83,1.73,73,73,0,0,1-.87,13.67c-1,6.16.06,12.47-1.33,18.74-1.14,5.16-.8,10.63-1.36,15.94-.59,5.62,1,11.37-1.28,16.91-.73,1.75-.42,3.84-1.14,5.81-.88,2.44-.26,5.25-1.42,7.86-.69,1.56-.42,3.72-.07,5.5a7.47,7.47,0,0,0,2.14,3.55c2,2,5.1,2.2,7.59,2.63,4.37.74,8.95.2,13.44.19a2.19,2.19,0,0,0,.71-.14,48.21,48.21,0,0,1,6.16-2.12c2.45-.5,5-.26,7.42-1.32,1.19-.53,1.84-.76,2-2.2.58-7.53-1.2-15.17,1.33-22.66.91-2.71.13-5.82,1.07-8.76.86-2.7.41-5.66,1.33-8.54s.91-6.41,1.15-9.59c.62-7.92.43-15.92.31-23.88a78.84,78.84,0,0,0-1.18-10.12c-.3-2.11-.32-4.5-1.4-6.16a8.74,8.74,0,0,1-1.2-3.8,1.07,1.07,0,0,0-.38-.51,33.44,33.44,0,0,1-3.32-3,24.5,24.5,0,0,0-5.74-5.1c-1.63-1-3.05-2.31-4.63-3.38a54.73,54.73,0,0,0-4.87-2.94c-1.07-.57-2.43-.68-3.37-1.39A23.32,23.32,0,0,0,146.8,65a22.77,22.77,0,0,1-3.23-1.21c-2.47-1.13-4.9-2.36-7.38-3.48-1.29-.58-2.87-.72-3.92-1.56-2.22-1.77-5.06-.88-7.42-2.13-1.09-.58-2.73-.39-4.08-.22-5.86.71-11.51-1.14-17.3-1.36a3.38,3.38,0,0,1-.69-.14c-1.14-.34-2.29-1-3.41-1a15.35,15.35,0,0,1-9-2.31C87.91,50.14,86.46,47.72,83.66,46.4ZM40.12,99.88c-1,1.63-2.08,3.2-3.06,4.82-.54.89-.86,1.93-1.46,2.78a9.75,9.75,0,0,0-2.19,5.2c-.06,1.13.09,2.29-.07,3.41-.49,3.55.81,6.8,1.55,10.15a3.05,3.05,0,0,0,.17.51c1.09,2.51,2.5,4.93,3.19,7.55a39.56,39.56,0,0,1,1.26,9.14c.18,7.14,1.12,14.29-.8,21.41-.91,3.37-.05,7-1.09,10.51-1.32,4.48.62,9.08,1,13.64a1.88,1.88,0,0,0,.18.5c.74,1.82,1.53,3.63,2.22,5.48.58,1.56.94,3.21,1.57,4.75S44.16,203,45,204.55a4.91,4.91,0,0,0,.38.55c.71,1.2,1.77,2.34,2,3.63.33,1.64.78,2.82,2.36,3,.28.84.46,1.52.73,2.16s.84,1.09.88,1.66c.07,1.26.08,2.35,1.72,2.58.33.05.6.76.83,1.2s.23.76.39,1.13c.71,1.6,1.45,3.19,2.14,4.8.16.37,0,1,.24,1.2,2.08,1.6,2.58,4.12,3.76,6.24a32.65,32.65,0,0,0,2,2.9c1.41,2,2.91,3.9,4.23,5.93,2,3,3.67,6.25,5.74,9.21a42.92,42.92,0,0,0,4.7,5.13c.13.14,1-.12,1-.29.43-2.47,1.83-4.72,1.5-7.39a12.27,12.27,0,0,1,.37-4.08c.59-2.52,1.41-5,2-7.49.58-2.32,1-4.66,1.56-7,0-.11.12-.2.17-.3.75-1.44,1.48-2.88,2.24-4.3.38-.72.87-1.4,1.21-2.14.53-1.15.86-2.41,1.49-3.51a32.44,32.44,0,0,1,2.52-3.65,29,29,0,0,1,3.1-3.85c1.79-1.68,3.8-3.13,5.71-4.68-1.93-2.32-3.69-4.48-5.49-6.59-.61-.72-1.38-1.31-2-2a37.11,37.11,0,0,1-2.6-3.42c-1.11-1.71-1.88-3.7-3.21-5.18a22.16,22.16,0,0,1-3.41-5.78c-.51-1.11-1-2.24-1.59-3.29s-1.5-2.07-2.16-3.16q-1.83-3.06-3.53-6.21a25.54,25.54,0,0,1-1.53-3.32c-.61-1.67-1-3.41-1.68-5.06s-1.56-3.27-2.34-4.91c-.52-1.1-1-2.22-1.53-3.33-1.14-2.46-2.35-4.9-3.41-7.4-.68-1.62-1.14-3.33-1.68-5-1.12-3.39-2.35-6.74-2.38-10.4a8.72,8.72,0,0,0-.83-2.93c-.43-1.09-1-2.12-1.51-3.2-.57-1.27-1-2.59-1.67-3.84-.52-1-1.23-2-1.79-3-1.06-1.92-2.13-3.85-3.06-5.83-.59-1.27-.84-2.7-1.43-4-.32-.68-1-1.52-1.6-1.66a5.82,5.82,0,0,1-3.77-3,10,10,0,0,0-2.15-2.15C42.64,101.69,41.53,100.93,40.12,99.88ZM240.64,429.47a3.82,3.82,0,0,1-.53-1.12c-.55-2.64-1.17-5.27-1.49-7.94a81.22,81.22,0,0,0-2.43-11.24c-.76-2.87-.29-5.9-1.37-8.88s-1.14-6.46-1.64-9.72c0-.11,0-.28-.07-.34-1.62-1.33-.82-3.19-1.06-4.81a16.74,16.74,0,0,0-.36-2.25c-.68-2.41-1.56-4.77-2.09-7.21-.36-1.67-.09-3.48-.41-5.17-.64-3.48-1.71-6.89-2.18-10.38a72.78,72.78,0,0,1-.17-8.62,8.8,8.8,0,0,0-.16-1.78,29.3,29.3,0,0,1-.93-4.08,41.84,41.84,0,0,1,.14-5.92c.1-1.35-.35-1.83-1.71-1.75-1.85.1-3.71.05-5.57,0a2.88,2.88,0,0,1-1.55-.29,8.2,8.2,0,0,1-2.82-5.1c-.52-2.74-.24-5.54-1.07-8.37-1-3.32-.61-6.93-1.36-10.45-.88-4.19-1.13-8.47-2.59-12.62-1-3-1.12-6.25-1.62-9.4-.1-.59-.11-1.19-.21-1.78-.25-1.6-.65-3.19-.76-4.81-.19-2.56-.17-5.14-.28-7.72,0-.3-.28-.58-.43-.88-.27.18-.66.28-.79.53-.48.94-.91,1.92-1.31,2.91-.57,1.43-1,2.93-1.67,4.33-.88,1.93-2.07,3.73-2.12,5.94-.24,9.41.65,18.86-1,28.23-.38,2.12.15,4.57-.72,6.39-1.47,3.05,0,6.5-2,9.47-1.06,1.55-1,3.84-1.49,5.8,0,.16-.2.29-.26.45a9.54,9.54,0,0,0-.95,2.55c-.36,4.2,0,8.27,2.42,11.93A16.14,16.14,0,0,1,197.4,358c.95,2.25,1.82,4.54,2.73,6.81a.85.85,0,0,0,.33.37c3.12,1.76,3.33,5.17,4.58,8,.33.73.6,1.49,1,2.19a51.62,51.62,0,0,1,2.76,5,31.44,31.44,0,0,1,1.24,5c.47,2.06,1,4.11,1.34,6.2.4,2.58.19,5.21,1.17,7.78s0,5.32,1.29,8c.86,1.81.68,4.05,1.33,6.13.94,3,1.18,6.23,2.59,9.23.73,1.55.6,3.51,1.22,5.3.68,2,.27,4.18,1.33,6.27.75,1.48.36,3.44,1.18,5.18.93,2,1.17,4.28,1.73,6.53,1.52-.16,3,.59,4.24-.84.71-.79,2-1.07,3-1.63a13,13,0,0,0,3.07-1.93,43.49,43.49,0,0,0,3.6-4.56,29.71,29.71,0,0,0,2.55-3.87A20.87,20.87,0,0,0,240.64,429.47ZM53.18,37.48c.63.4,1.07.74,1.56,1,1.64.8,3.33,1.53,4.94,2.38.51.27.77,1,1.28,1.27,2.39,1.25,3.11,3.78,4.37,5.81.9,1.46,1,3.39,1.48,5.11.25.91,1.76,1.51,2.2.8a7.94,7.94,0,0,0,1.39-3.21c.25-2.56.19-5.15.21-7.72a5.17,5.17,0,0,0-.27-1.75c-.27-.82-.72-1.57-1-2.39-.16-.44,0-1-.24-1.4-1.59-2.62-1.4-5.7-2.2-8.52A50.75,50.75,0,0,0,65,22.19c-.82-1.86-2.29-3.42-3.41-5.16-.57-.87-.8-2-1.5-2.71-1.93-1.93-4.26-3.51-6-5.58-2-2.39-4.81-3.41-7.39-4.67A20.2,20.2,0,0,0,40,2.67a60.48,60.48,0,0,0-6.46-.06,3.24,3.24,0,0,0-1.19.28c-1.63.71-3.22,1.5-4.86,2.19-1.42.6-2.89,1.08-4.31,1.66a9.06,9.06,0,0,0-2.41,1.2c-2.37,2-4.65,4.05-7,6.09-1.48,1.3-3.06,2.42-3.61,4.58C9.91,19.85,8.77,20.88,8,22c-.92,1.44-2.23,2.78-2.64,4.36-.63,2.41-2,4.71-1.59,7.37,0,.25-.17.54-.27.8-.31.87-.95,1.76-.89,2.59.32,4.11-1.2,8.38,1.17,12.32a41.12,41.12,0,0,1,1.68,4A10.29,10.29,0,0,0,7,56.11a16.81,16.81,0,0,0,3.61,3.3,4.19,4.19,0,0,0,3.39.41c2-1,3.78-2.38,6.19-2.22a2.3,2.3,0,0,0,1.23-.16c1.95-1.08,3.81-2.34,6.15-2.43a.74.74,0,0,0,.46-.2,36.76,36.76,0,0,0,4.18-4.09c2-2.73,4.46-4.14,7.91-3.33.29.06.6,0,.9.06.69.13,1.57.07,2,.48,1.57,1.36,2.86,3.07,4.53,4.27,1,.69,1.79,2.6,3.89,1-.18-1.35-.34-2.91-.63-4.45-.12-.64-.69-1.2-.76-1.83A37.84,37.84,0,0,1,50,42.83c0-1.43-.15-2.95,1.3-3.93C51.94,38.44,52.56,37.94,53.18,37.48Zm0,2.6a6.52,6.52,0,0,0-.57,1.64c0,2,0,4.07,0,6.11a1.44,1.44,0,0,0,.18.68c1.71,2.6,1.64,5.2-.23,7.19A3.49,3.49,0,0,1,47.33,55,3.93,3.93,0,0,0,46,53.84c-.31-.22-.8-.26-1-.53a13,13,0,0,0-5.55-4.18,2.24,2.24,0,0,0-1.86.16c-2,1.72-3.78,3.66-5.77,5.38a20.22,20.22,0,0,1-4.27,2.9,52.55,52.55,0,0,1-5.15,1.69c-2.11.73-4.18,1.61-6.3,2.31-1.4.47-2.7,2.57-1.74,3.31,1.71,1.3,1.49,3.38,2.07,4.91.81,2.19,1.71,4.32,2.59,6.49,1.06,2.63,3.42,3.71,5,5.62,1.76,2.07,4.08,3.91,5.13,6.29a13.25,13.25,0,0,0,6,6.62c.73.4,1.37.94,2.11,1.3,2,1,4.26,1.6,6,2.88a27.66,27.66,0,0,1,5.25,5.23c1.12,1.4,1.67.9,2.72,0a49.84,49.84,0,0,1,4.59-3.1,28.86,28.86,0,0,0,4.24-2.81,15.9,15.9,0,0,0,2.52-3.8,11.57,11.57,0,0,0,1.34-3.14c.6-2.72,1-5.49,1.52-8.24a1.66,1.66,0,0,1,.14-.52c1.4-2,1.31-4.59,2.28-6.76a15.39,15.39,0,0,0,1.45-7.36.58.58,0,0,1,.11-.34A10.77,10.77,0,0,0,72,62.39a2.23,2.23,0,0,1,.19-.67c.75-1.8,1.53-3.58,2.26-5.38.6-1.46,1.1-3,1.73-4.4S77.44,49.3,78,48.09l-4.58-3c-.14,1-.25,1.89-.38,2.79a22.32,22.32,0,0,1-.54,3.48c-.58,1.82-1.47,3.54-2,5.36S68.41,59,66.81,58.13c-1.29-.72-1.26-1.73-1.59-2.8a53.92,53.92,0,0,0-2.37-6.71,14.5,14.5,0,0,0-3.26-5C57.8,42.12,55.45,41.29,53.17,40.08ZM288.5,519.74c.56,3-1.46,5.25-3.4,7.57-1.54,1.84-2.91,3.82-4.41,5.71a9.64,9.64,0,0,1-2.21,2.41c-2.37,1.49-4.89,2.76-7.32,4.17-.51.29-.86,1.08-1.34,1.14-1.5.17-2.95.26-4.2,1.34a6.55,6.55,0,0,1-2.36,1.25c-2.08.63-3,1.62-3.15,3.79a9.09,9.09,0,0,0,1.18,5.18c.92,1.74,2.48,2.51,3.68,3.77,1.59,1.67,4.13,1.23,6,2.61,1.51,1.09,3.82,1.06,5.77,1.56a11,11,0,0,0,1.81.6,34.3,34.3,0,0,0,6.64,0c2.16-.33,4.21-1.32,6.33-1.95,1.86-.56,3.75-1,5.62-1.53.14,0,.23-.25.36-.36,1.79-1.5,3.63-3,5.39-4.51,2-1.81,4.3-3.46,5.95-5.58a13.54,13.54,0,0,1,6.6-4.64c2.55-.85,5.2-1.32,7.63-2.64,2.62-1.42,2.77-1.45,1.44-4.18a2.08,2.08,0,0,1-.12-.71c-.24-2.36-2-4.4-1.5-6.92a1.09,1.09,0,0,0-.11-.52c-.75-1.83-1.56-3.65-2.26-5.5-.6-1.6-1-3.29-1.65-4.85-.82-1.85-1.85-3.61-3-5.74a5.57,5.57,0,0,0-1.9.4c-2,1.1-3.74,2.69-5.82,3.46-2.28.85-4.82,1-7.25,1.48a6.38,6.38,0,0,0-1.08.48,5.45,5.45,0,0,1-1.76.67C294.94,517.87,291.67,517.52,288.5,519.74ZM218.38,528c2.12-.61,2.64,1.79,4.38,2.49a29.89,29.89,0,0,0,1.58-2.65,19.93,19.93,0,0,0,1.18-3.27c.56-2.15.71-4.48,1.6-6.47,1.07-2.4,2.3-4.69,2.47-7.36,0-.17.15-.33.18-.5.31-1.51.93-3.05.82-4.53a14.84,14.84,0,0,0-1.53-4.49c-.58-1.32-1.44-2.51-2.05-3.81-.72-1.54-1.3-3.14-1.84-4.48l-7.58,1.95c-.29.07-.59.09-.87.18-2.33.71-4.61,1.77-7,2.07a93.86,93.86,0,0,1-9.5.25,4.11,4.11,0,0,0-1.41.16c-2.14.88-4.24,1.82-6.5,2.8a1.3,1.3,0,0,0-.07.49c.53,3.78-.54,7.36-1.29,11,0,.23,0,.54-.17.66-1.72,1.51-1.72,3.84-2.06,5.67-.66,3.48-.27,7.16-.41,10.75-.05,1.39.89,2.07,1.72,2.83a5.48,5.48,0,0,0,1.34-1.08c1.42-1.52,2.81-3.09,4.21-4.64,1.16-.65,1.85-.09,2,1.48a2.74,2.74,0,0,0,1.09,1.79c.7.46,1.13,0,1.5-.83s3.25-.43,3.78.52,1.17,1.89,1.86,3c.32-.36.57-.9.91-1,2.07-.37,3.15-1.67,3.93-3.5a2.09,2.09,0,0,1,1.94-.36,8,8,0,0,1,1.55,2.54c.36.76,1.81,1.41,2.31.86C217.15,529.75,217.72,528.87,218.38,528ZM83.58,447.93c-1.45-1-2.63-1.95-3.88-2.74-1.68-1.06-3.41-2-5.14-3s-3.43-2-5.2-2.88c-1.6-.81-3.27-1.5-4.93-2.2-.9-.38-1.84-.66-2.75-1-1.41-.53-2.81-1.09-4.21-1.63-.75-.29-1.5-.57-2.26-.84-1.69-.6-3.35-1.32-5.08-1.75-2.73-.68-5,.91-7.46,1.75-1.64.58-3.15,1.5-4.75,2.19-1.4.6-2.84,1.08-4.25,1.65-.89.36-1.78.74-2.62,1.18-1.42.75-2.79,1.61-4.23,2.34-1.11.56-2.32.95-3.43,1.51-2.15,1.09-4.16,2.69-6.43,3.25-3,.74-4.55,2.79-6.35,4.56a7.41,7.41,0,0,0,.85,1.78c.56.62,1.23,1.45,1.95,1.57,3.54.56,7.12.45,10.71.94,4.64.63,9.52-.53,14.3-.93a2.53,2.53,0,0,0,.85-.25,26,26,0,0,1,9.47-2c1-.06,2,.75,3.07,1,1.88.37,3.75,0,5.69,1.1S62,454.52,64.26,455c1.43.31,2.89,1,4.29.88,2.73-.2,5.78-.19,8-1.44C79.24,453,81.18,450.25,83.58,447.93ZM265.53,274c.93.35,2.05.46,2.19.88a25.33,25.33,0,0,1,1.36,5.91,72.77,72.77,0,0,1,0,9.34c-.15,2.47,1.7,3.68,3.8,3.49a40.33,40.33,0,0,1,4.66-.17,2.43,2.43,0,0,1,2.2,1c.66.87,2.24,1.11,3.47,1.46a31,31,0,0,0,3.49.61c.24.16.52-.29.85-.33,2.32-.24,2.74-2.26,3.47-3.84s1-3.21,1.53-4.79c.65-1.85,1.54-3.63,2.08-5.51.65-2.27,1.05-4.62,1.56-6.94,0-.17,0-.43.11-.51,1.61-1.18.92-2.94,1.14-4.46.17-1.17-.23-2.61.32-3.5,1.31-2.12.74-4.19.73-6.52-2.37,0-4.54.16-6.67-.05s-4.25-1-6.4-1.15c-2.92-.23-5.87-.12-8.8-.14-1.31,0-1.86.59-2.3,1.93a11.4,11.4,0,0,1-2.66,4.39,22.37,22.37,0,0,1-4.31,2.77,40.82,40.82,0,0,0-4,2.46,4.63,4.63,0,0,0-1.94,3.48c-.38,4,1.35,7.66,1.54,11.54,0,.09.13.18.44.6.88-.29,2.6-.45,2.74-1,.42-1.63.83-3.77.1-5.06C265.21,278.06,265.43,276.37,265.53,274ZM136.79,230.5a34.61,34.61,0,0,0,1.63-5,12.73,12.73,0,0,1,2.34-5,38.9,38.9,0,0,0,2.68-4.63,6.36,6.36,0,0,0,.22-2.49.82.82,0,0,0-.42-.66,1,1,0,0,0-.81.16c-1.16.86-2.26,1.79-3.41,2.64a5.79,5.79,0,0,1-1.77,1c-2.69.72-5.17-.67-7.19-1.79-2.19-1.21-4.15-2.22-6.64-2-3.42.22-5.31-2.13-6.49-4.65-1.45-3.09.38-6.16,1.23-9.18,2.88-1,2-4.22,3.45-6.16,1.06-1.47-.91-2-1.64-3a14.4,14.4,0,0,1-2.69,2.36,5.74,5.74,0,0,0-3.23,3.45,11.74,11.74,0,0,1-1.63,3c-1.07,1.55-2.67,2.87-3.25,4.55a6.57,6.57,0,0,1-3,3.52c-1.69,1.11-3.3,2.34-4.94,3.53-1.26.92-2.5,1.89-3.77,2.79a15.28,15.28,0,0,0-3.84,4.37A50.73,50.73,0,0,0,90.27,223c-.73,1.59-2.49,2.91-1.71,5.17.45,0,.87,0,1.28,0,3.37-.2,6.66-.15,10.09-1,4.13-1,8.68-.3,13-.33a3.48,3.48,0,0,1,1,.2c2.3.73,4.57,1.59,6.91,2.2,2.5.65,5.08,1,7.6,1.61.86.2,1.62.86,2.47,1A6.53,6.53,0,0,0,136.79,230.5Zm33.26,6,.46.34c-.07-.64.09-1.51-.26-1.87-1.49-1.51-3.13-2.88-4.73-4.28a43,43,0,0,1-4.91-4.39c-2-2.4-3.62-5.1-5.43-7.66-.23-.33-.74-.8-1-.73a2.19,2.19,0,0,0-1.31,1c-.29.76-.12,1.68-.38,2.45a12.23,12.23,0,0,1-1.75,4,74.6,74.6,0,0,1-6.16,6.16c-1.18,1.1-2.44,2-4.3,1.69a8.13,8.13,0,0,0-3,.24c-1.1.25-2.13.94-3.22,1a11.71,11.71,0,0,1-6.56-1c-2-1-4.43-1.14-6.67-1.66a2.07,2.07,0,0,1-.85-.26c-1.79-1.46-3.83-.66-6.11-1a15.9,15.9,0,0,0,.59,3.37c.61,1.49,1.53,2.85,2.25,4.3.6,1.18,1.07,2.43,1.65,3.63a27.75,27.75,0,0,1,2.07,4.11c.56,1.85,2.89,3.77,4.7,3.78,3.41,0,6.83,0,10.25,0a5.86,5.86,0,0,0,1.55-.27,17.58,17.58,0,0,1,2.16-.71c4.34-.56,8.84,1.1,13.1-1.35,2.31-1.33,5-1.83,7.22-3.6s4.64-2.94,6.92-4.48C167.66,238.52,168.83,237.47,170.05,236.5Zm-47.48-66c2-.58,4.06.14,6.13,1.75,1,.74,2.68.66,4,.62.25,0,.49-1.61.67-2.49.55-2.64,1.06-5.28,1.59-7.91,0-.06.05-.11.06-.17.68-2.5,1.75-5,2-7.51.38-4.65.26-9.34.29-14,0-.41-.45-1.17-.69-1.17-2.76,0-4.47-2-6.55-3.26-1.37-.85-2.63-2.22-4.5-1.87-.77.15-2.08.37-2.15.73a9.12,9.12,0,0,0,.32,3.21c.1.54.57,1,.61,1.56.24,2.72-1.29,4.41-4.24,4.67-1,.09-2.16.28-2.82-.19-2-1.43-4.18-.94-6.32-.9a1.7,1.7,0,0,0-.94.41c-2.59,2.17-3.65,5.29-4.77,8.27a6.21,6.21,0,0,1-2.08,2.94,11.42,11.42,0,0,0-2,2.9c2.31,1,4.43,1.55,5.93,2.8a27.74,27.74,0,0,1,5.49,6.15c1.75,2.67,3,5.71,5.41,7.89.3.28,1.23.41,1.37.22C120.43,173.76,121.37,172.28,122.57,170.5Zm195.92,66.79a16.9,16.9,0,0,0-1.72,3.7c-.65,3.16-1,6.37-1.49,9.56-.08.53,0,1.25-.3,1.56-1.21,1.22-.72,2.69-.76,4.07a3.58,3.58,0,0,0,.43,1.5,3.87,3.87,0,0,1-.11,3.82c-.82,1.55-.39,3.59-1.75,5.06-1.16,1.26-2,3-3.34,3.88-1.73,1.07-2.37,2.37-1.2,4.15a4.4,4.4,0,0,1,.65,2.16c.07,3.59.1,7.19,0,10.78a24.3,24.3,0,0,1-.72,2.65,13.24,13.24,0,0,0-.31,4.53c.24,1.07,1.54,1.88,2.22,2.9,1.45,2.17,2.74,4.45,4.24,6.58a1.92,1.92,0,0,0,1.84.38,11.05,11.05,0,0,0,2-1.83c.57-.51,1.13-1.22,1.81-1.4,2.52-.67,3.87-2.8,5.42-4.49,1.79-2,2.9-4.52,4.4-6.76a9.16,9.16,0,0,0,.56-6.7,48.14,48.14,0,0,1-2.18-6.67c-.65-2.53-1.06-5.13-1.57-7.71a5.08,5.08,0,0,0-.17-.51,26.62,26.62,0,0,1-1.94-5.15,62.67,62.67,0,0,0-2.53-9.73c-.85-2.54-.95-5.33-1.45-8s-1.12-5.5-1.7-8.24C318.85,237.36,318.74,237.35,318.49,237.29ZM140.86,229l.65.69a16.74,16.74,0,0,0,3.22-2.19c1.58-1.72,3.6-2.93,4.51-5.47.56-1.59,1.29-3.35,1.9-4.95.74-1.93.56-4.2,1.13-6.36.84-3.19.11-6.65,1.52-9.91.91-2.08.64-4.67,1.55-6.75a10.31,10.31,0,0,0,1.2-3.74c0-.19.23-.36.33-.55.39-.76.77-1.52,1.31-2.6a41.08,41.08,0,0,0-4.39,0c-4.53.55-8.81-1-13.2-1.51a2.46,2.46,0,0,1-.51-.15l-3.76-1.37a25.79,25.79,0,0,1-.81,3c-.67,1.56-1.53,3.05-2.18,4.62a10.49,10.49,0,0,1-5.82,5.57,35.8,35.8,0,0,1-5.13,1.37,1.14,1.14,0,0,0-.53.57c-.55,1.09-.86,2.41-1.67,3.25a4,4,0,0,0-.67,4.76c.75,1.36,2.2,3.1,4.19,2.8,3.76-.58,6.48,1.86,9.59,3,2.35.9,4.6,1,6.24-.79,1-1.06,1.95-2.17,3-3.18.19-.19.8-.13,1.1,0a27.08,27.08,0,0,1,2.31,1.53c1.51,3.3.16,6.54-1.26,9.52-.92,1.93-2.35,3.57-2.36,5.86,0,.36-.35.71-.53,1.06Zm-16.35,23.69.78-.16a38.81,38.81,0,0,1,2.44,3.84c.27.55,0,1.38-.08,2.08-.64-.13-1.47-.05-1.88-.43a31.4,31.4,0,0,1-2.63-3.1,21.56,21.56,0,0,1-2.46-3.06c-1.44-2.55-2.69-5.2-4-7.81-.52-1-1-2-1.58-3-.7-1.3-1.49-2.56-2.08-3.91-.7-1.6-1.22-3.28-2-5.44-2.94,3.95-5.65,7.54-8.28,11.18-.3.42-.2,1.13-.26,1.57,1,.63,1.78,1.13,2.55,1.68,1.65,1.2,3.66,2.07,4.11,4.42,0,.26.41.46.63.68a12.06,12.06,0,0,1,1.71,1.8c1.34,2.12,2.64,4.28,3.85,6.49,1.63,3,4.49,3.85,7.46,4.5,1.42.31,2.66-.68,3.94-.94,3-.62,6.25.15,9.22-1.43.92-.49,2-.38,3-1.2a48.83,48.83,0,0,1,6.94-4.09c3-1.64,3.34-2.41,2.35-4.95-.69,0-1.41,0-2.12,0a4.33,4.33,0,0,0-.71.1c-3.76.73-7.5,1.71-11.3,2.09-2,.19-4-.81-6-1.07A19.51,19.51,0,0,0,124.51,252.67ZM81,257.4l.48.62a11.54,11.54,0,0,0,2.55-1.3c1.77-1.6,3.38-3.38,5.56-4.47.42-.21.7-.66,1.07-1,1.43-1.17,3-2.23,4.29-3.52s2.32-2.78,3.52-4.14,2.77-2.8,3.94-4.37c1.8-2.41,3.46-4.95,5.06-7.5.33-.51.15-1.34.21-2-.51.18-1,.39-1.54.54a5.38,5.38,0,0,1-1.37.28c-2.21.05-4.44-.07-6.64.13-2.91.27-6-.76-8.73,1-.13.09-.44,0-.65-.14-.79-.3-1.57-.62-2.18-.87-.7,1.56-1.32,2.71-1.74,3.93a32.06,32.06,0,0,0-1.22,4.49c-.56,3-1,6-1.46,9-.2,1.35.21,3-.4,4.06C80.71,253.91,81,255.62,81,257.4Zm6.17,8.25c.39.79.55,1.62,1,2a1.18,1.18,0,0,0,2-.61c0-.12.29-.17.46-.23a17.35,17.35,0,0,0,7.06-5.17c2.63-3,5.37-5.78,6.32-9.81.06-.21.35-.38.57-.54a1.62,1.62,0,0,0,.09-2.47c-.45-.35-.9-.7-1.37-1-.84-.56-1.85-1.68-2.5-1.5a8.33,8.33,0,0,0-3.25,2.22c-.72.68-1,1.86-1.72,2.49-2.14,1.81-4.41,3.47-6.66,5.14a4.48,4.48,0,0,0-1.09,6.52,1.77,1.77,0,0,1,0,1.36A9.23,9.23,0,0,1,87.14,265.65ZM241.59,436c-3.32,5.29-6.63,10.41-13.33,12.07a13.1,13.1,0,0,0,3.08.73c2.18.39,4.34.83,6.51,1.26.11,0,.29.07.31.14.33,1.28,1.39,1,2.29,1.14a2.73,2.73,0,0,1,1.33.47c1.51,1.27,3,.92,3.81-.55a5.47,5.47,0,0,0,.12-3.65c-.48-1.76-1.5-3.37-2.08-5.11-.68-2.06-1.13-4.19-1.69-6.28C241.91,436.09,241.75,436.05,241.59,436ZM62.76,100.36l-.7-.24c-2.72,3.16-6.23,5.4-9.35,8a9.31,9.31,0,0,1,1.13,1.59,39.85,39.85,0,0,0,1.47,4.1c1.1,2.07,2.42,4,3.68,6a5,5,0,0,0,.75.78c.19-.33.54-.65.53-1a60,60,0,0,1,1.27-13.3c.23-1.06.67-2.08.9-3.14A26.52,26.52,0,0,0,62.76,100.36Zm236.87,170a9,9,0,0,0,7.5-2.28c2-1.74,3.9-3.66,3.2-6.78a2.62,2.62,0,0,0-3.51-1.88,14.13,14.13,0,0,1-2.8.76,24.84,24.84,0,0,1-2.65.19c-.14,1.72-.16,3.28-.43,4.8C300.65,266.82,300.11,268.46,299.63,270.33ZM223.17,288a20.4,20.4,0,0,0,.05,3.36c.11.76.86,1.41,1.12,2.18.52,1.52.88,3.11,1.36,4.65a.9.9,0,0,0,.62.47c.13,0,.45-.2.5-.37a17.68,17.68,0,0,0,1.24-4.14c.2-2.85.12-5.72.08-8.58,0-1.06-.55-1.24-1.37-.54C225.7,285.93,224.6,286.81,223.17,288ZM268,190.36l.31-.17c-.54-1.12-1.06-2.24-1.63-3.34a7.58,7.58,0,0,0-.71-1c-.18.43-.61.93-.52,1.3.39,1.59.92,3.16,1.43,4.72a.64.64,0,0,0,.55.29,1,1,0,0,0,.55-.55A5.78,5.78,0,0,0,268,190.36Z"/><path class="cls-1" d="M88.22,271.58a42.08,42.08,0,0,0,.34,4.27,11.14,11.14,0,0,0,.93,2.32c.09.21.28.42.28.63,0,2.57,1.65,4.84,1.2,7.57-.31,1.88,0,1.93,2,2.83a47.05,47.05,0,0,1,4.65-5.48c1.7-1.51,2.49-3.59,3.95-5.16a25,25,0,0,1,4-2.94c1.57-1.1,3.12-2.22,4.73-3.26,1.77-1.14,3.6-2.2,5.39-3.3a6.67,6.67,0,0,0,2-1.31c1.08-1.48,2.49-1,3.5-1,1.1,1.85,2.19,3.44,3,5.16a40.57,40.57,0,0,1,1.48,4.27c.73,2,1.5,4,2.26,6a3.38,3.38,0,0,1,.11.34c.5,2,.91,4,1.53,5.95s1.44,3.66,2.16,5.49a3.35,3.35,0,0,1,.24.86c.21,2.69,1.93,4.6,3.36,6.68.66,1,1.1,2.06,1.75,3s1.63,2,2.34,3.13c.62.94.88,2.22,1.67,2.92a11.44,11.44,0,0,0,3.77,2c.89.29,3.52-1.86,4-2.75,1-1.79,2.07-3.49,3-5.27,1.62-3,4.25-5.62,3.23-9.46a6.78,6.78,0,0,0-1.11-2c-1.9-2.76-4.05-5.33-6.1-8-1.69-2.17-3.55-4.21-5.21-6.4-.84-1.09-1.15-2.57-1.8-3.83s-1.83-2.38-2-3.69a15.09,15.09,0,0,1,.09-6.1,3.13,3.13,0,0,1,3.74-2.62c.44.08,1-.79,1.57-1.09a18,18,0,0,0,7.18-7,31.08,31.08,0,0,1,4.18-5.4,6.92,6.92,0,0,1,3.06-1.63,14.33,14.33,0,0,0,5.56-3.34,56.24,56.24,0,0,1,5.47-4.24c1.22-.84,4.18-.06,5.74,1.22,1.05.85,2.22,1.56,3.28,2.4,2.38,1.87,5.38,2.69,7.61,4.89,1.3,1.27,3.3,1.79,4.87,2.83a48.09,48.09,0,0,1,3.79,3.08,35,35,0,0,1,2.78,2.21c.85.83,1.51,1.85,2.3,2.75a8.83,8.83,0,0,0,1.11.89c.45.35.88.72,1.35,1.06a10.59,10.59,0,0,0,2.21,1.49,2.34,2.34,0,0,1,1.34,3.3,28.62,28.62,0,0,0-1.9,4c-.69,2.12-1,4.37-1.74,6.48a43.52,43.52,0,0,1-2.13,4.41,22.83,22.83,0,0,0-1.23,2.94c-.59,1.86-1.47,3.74-1.54,5.64-.23,6.4,0,12.83-.25,19.24a110.77,110.77,0,0,1-1.46,16c-.45,2.42-.64,4.88-1.2,7.26a20.14,20.14,0,0,1-1.94,4.1,3.13,3.13,0,0,0-.15.32c-1.34,3.16-2.28,11.45-1.43,15.23a26,26,0,0,0,2.21,4.85c1,2.06,1.85,4.17,2.89,6.19a26.84,26.84,0,0,0,3,5,14.33,14.33,0,0,1,3.42,7,43.21,43.21,0,0,0,2.16,6.48c.57,1.64,1.14,3.27,1.69,4.92.76,2.27,1.6,4.52,2.21,6.83a25.52,25.52,0,0,1,.34,3.93c.11,1.22-.47,2.6.93,3.54.26.17.11.91.17,1.38.51,3.67.67,7.42,1.63,11,.85,3.14,1.56,6.34,2.55,9.4,1.17,3.65,1.64,7.41,2.68,11,.63,2.23.65,4.43,1.11,6.6a36,36,0,0,0,2.08,5.44,3.34,3.34,0,0,1,.18.5c.48,2.86,1,5.72,1.43,8.58.48,3.08.6,6.27,1.48,9.23a68.94,68.94,0,0,1,2.51,13.35c.29,3.12,1.4,6.16,2.11,9.24a10.49,10.49,0,0,1,.14,1.66,46.33,46.33,0,0,1-5.28,3,28.6,28.6,0,0,1-5.58,1.53,64.08,64.08,0,0,1-6.73,1.07c-1.78.17-3.6,0-5.39,0-1.5.07-3.15-.3-4.31,1.13,0,0-.11,0-.17,0a50.12,50.12,0,0,1-7.59,1.34,13.66,13.66,0,0,0-5.31,1.62,16.47,16.47,0,0,1-2.95,1.17c-1.56.36-3.17.52-5.23.83-.43-2-.88-4.28-1.4-6.55-.7-3-1.45-6-2.17-8.94a4.94,4.94,0,0,1-.13-.52c-.49-3.41-1-6.82-1.49-10.23-.1-.61-.46-1.17-.61-1.77-.24-1-.48-2.06-.62-3.1-.51-4-.53-8.07-1.63-11.87-.73-2.53-.62-5-1.09-7.48-.53-2.78-1.47-5.49-2.23-8.23a2.34,2.34,0,0,1-.08-.53,18.36,18.36,0,0,0-2.22-7.29c-.19-.41.26-1.11.35-1.44-.29-.81-.58-1.46-.75-2.14q-1.19-4.76-2.3-9.54c-.16-.69-.12-1.44-.32-2.12-.26-.89-.79-1.7-1-2.6s-.16-2.12-.32-3.18c-.12-.84-.37-1.67-.69-3,.44-.65.29-1.65-.08-3.1-.62-2.47-1.94-4.75-1.85-7.56a23.29,23.29,0,0,0-1.52-9.31c-1.28-3.09-.43-6.12-1-9.1-.14-.71-.48-1.37-.66-2.08a11.28,11.28,0,0,1-.48-2.42,80,80,0,0,0-.24-8.21c-.29-2-1.34-3.92-2.06-5.87a2.92,2.92,0,0,1-.23-.47c-.46-2.16-.55-4.49-1.44-6.47-1.63-3.64-.84-7.44-1.4-11.13-.28-1.83-1.3-3.54-2-5.32a3.16,3.16,0,0,1-.28-1.55c.31-1.81-.82-3-1.71-4.31-1.24-1.83-2.37-3.75-3.74-5.48-2-2.48-3.23-5.42-5.78-7.52-1.76-1.43-3-3.53-4.45-5.32-1-1.16-2-2.3-3-3.44a27.64,27.64,0,0,1-1.83-2.09c-1-1.45-1.91-3-2.92-4.43-1.14-1.65-2.34-3.26-3.55-4.85-1.4-1.84-2.82-3.65-4.24-5.47a24.18,24.18,0,0,0-2.5-3.08c-.4-.37-1.3-.2-2-.28,0,.75-.26,1.74.11,2.21,1.82,2.32,3.94,4.4,5.69,6.76,1.21,1.63,1.89,3.63,3,5.35.71,1.14,1.78,2.06,2.6,3.15,1.2,1.59,2.29,3.28,3.5,4.87,1.43,1.87,3,3.66,4.41,5.51.77,1,1.48,2,2.22,2.95a9.79,9.79,0,0,1,1.15,1.54c.63,1.35-.65,2.05-1.31,2.61-2.65,2.25-4.21,5.35-6.49,7.87-1.1,1.22-2.72,2-4,3a12.76,12.76,0,0,0-1.79,1.81c-.94,1.13-2.52,2.25-2.61,3.47-.18,2.44-3,3.07-3.08,5.42,0,.56-.85,1.07-1.22,1.65-1.23,1.94-2.52,3.84-3.58,5.86-.69,1.31-.94,2.84-1.53,4.21-.69,1.61-1.53,3.16-2.3,4.74a.49.49,0,0,0-.06.17c-.5,2.19-.89,4.4-1.52,6.55-.57,2-1.39,3.89-2.11,5.83a4.4,4.4,0,0,0-.26.65c-.46,3.26-.89,6.53-1.4,9.78a11,11,0,0,1-.8,2.25c-.08.21-.32.37-.35.58-.45,2.69-.83,5.4-1.33,8.08-.28,1.48-.89,2.9-1.12,4.39s.09,3.19-.34,4.64c-1.58,5.2-.21,10.72-1.54,15.79-1,3.71-.44,7.29-.88,10.89-.49,4-.88,8-1.45,12a5.29,5.29,0,0,1-1.34,3.17,3.7,3.7,0,0,1-3.25.28c-1.65-.78-2.9-2.44-4.58-3.11a15.43,15.43,0,0,1-5.16-3.89,10.55,10.55,0,0,0-2.65-1.38c-2.47-1.29-5.13-2.06-7.49-3.73-1.59-1.12-4-1.05-6-1.63-1.36-.39-2.66-1-4-1.47-.9-.35-1.82-.67-2.68-1.1a21.55,21.55,0,0,1-4.8-2.75c-.48-.43.18-2.16.38-3.29,0-.23.48-.39.55-.64,1-3.38,1.59-6.9,3-10.12,1.07-2.53.37-5.26,1.27-7.55C58.33,403.36,57,399,58,395c1.38-5.14.22-10.38,1.35-15.38.74-3.31.3-6.74,1.25-9.84a18,18,0,0,0,.61-8.95c-1.41-6.41-.07-12.89-1.12-19.21-.54-3.23-.44-6.66-1.45-9.64-1.18-3.53-.8-6.9-.84-10.35A12.33,12.33,0,0,1,60,314.73c1.12-1.74,1.66-3.89,2.9-5.51,2.38-3.12,4.1-6.72,7.06-9.44,1.26-1.16,2.05-2.84,3.09-4.25,1.79-2.4,3.78-4.67,5.37-7.2,1.71-2.73,4.41-4.83,5.12-8.26.25-1.21,1.4-2.21,2.05-3.37a2.64,2.64,0,0,0,.3-1.51C85.73,273.51,86.76,272.66,88.22,271.58ZM195.11,448.67c-.31-1.1-.45-1.83-.72-2.52a45.45,45.45,0,0,1-1.81-4.5c-.69-2.56-1.14-5.18-1.69-7.77a.85.85,0,0,0,0-.17c-.76-2.08-1.71-4.12-2.26-6.25-.7-2.72-.74-5.65-1.73-8.24-.84-2.19-.76-4.36-1.06-6.54a6.07,6.07,0,0,0-.35-1,13.36,13.36,0,0,1-.79-2.82c-.15-2.57,0-5.16-.26-7.71-.1-.87-1.14-1.63-1.75-2.44a7.91,7.91,0,0,0-.72,2.26c0,4.07.09,8.14.18,12.21a6.92,6.92,0,0,0,.24,1.76c.32,1.16.81,2.28,1.07,3.44.49,2.23.86,4.49,1.29,6.73a5.21,5.21,0,0,0,.24.47c.74,2.1,1.61,4.17,2.18,6.32.63,2.42.91,4.92,1.48,7.36A18.52,18.52,0,0,0,190,443c.85,1.81,1.84,3.56,2.89,5.56ZM91.3,317.71h11.41a2.84,2.84,0,0,0,.7-.16c2.76-.76,5.48-1.85,8.29-2.15,1.75-.18,3-1.3,4.56-1.58.16,0,.25-.47.38-.72.7-1.4-.77-1.78-1.31-2.51-.27-.37-1.35-.4-2-.23a7,7,0,0,0-2.81,1.32c-1.83,1.66-4.21,1.72-6.33,2.06-3.34.52-6.8.29-10.2.43C91.84,314.26,91,315.4,91.3,317.71Zm88.59-52-.55-.6c-.75.09-1.81-.11-2.19.31a58.09,58.09,0,0,0-4.14,5.24,52.1,52.1,0,0,0-3.29,5,20.7,20.7,0,0,0-1.69,4.06c-.6,1.89-1,3.83-1.55,5.75,0,.19-.34.3-.48.47-1,1.21-.55,4.27.84,5,.23.12,1.07-.28,1.09-.49a11.25,11.25,0,0,1,1-4.14c.91-1.81,1.13-4,1.65-6a2,2,0,0,1,.07-.35c1.26-2.14,2.5-4.28,3.79-6.4.28-.46.76-.79,1.06-1.25,1-1.45,1.91-2.93,2.87-4.4C178.9,267.17,179.4,266.44,179.89,265.7ZM87.47,346.22a10.92,10.92,0,0,0,2.22-.61c1.21-.65,2.35-1.41,3.49-2.17a28.55,28.55,0,0,0,2.87-2.1c1.56-1.37,3-2.81,4.55-4.24,2-1.89,4-3.74,5.88-5.72a18.43,18.43,0,0,0,2.28-3.23c.19-.31,0-.86,0-1.29a3.42,3.42,0,0,0-1,.41c-1,.83-1.47,2.37-3.21,2.1-.18,0-.43.44-.65.67-1.51,1.54-3,3.08-4.55,4.61a56,56,0,0,1-4.3,4.14,22,22,0,0,1-5.21,3.42C88,342.93,87.09,343.71,87.47,346.22ZM182,373.47c.15.61.12,1.46.53,1.95A46.22,46.22,0,0,0,186,379c1,1,1.82,2.42,3,2.72,1.92.49,3.32,1.62,4.94,2.54a2.89,2.89,0,0,0,3.84-.62c-1.91-1.09-3.67-2.06-5.4-3.08a17.24,17.24,0,0,1-3-2c-1.22-1.15-2.16-2.6-3.39-3.74C184.94,374,184.25,372.16,182,373.47Zm-16.38,8.74c-.28,2.46.2,3.17,2.44,3.64.29.06.79.06.83.21.52,1.58,1.84.88,2.86,1.09,1.95.41,3.48-.63,5-1.5.69-.4,1.54-1.78,1.32-2.2-.46-.9-1.49-1.76-2.62-.31a4.18,4.18,0,0,1-1.76,1,4.41,4.41,0,0,1-4.36-.31C168.21,383.14,167.59,381.27,165.61,382.21ZM82.7,418.09c-.34-.5-.4-2.41-1.84-1.17a27,27,0,0,0-7,9c-.22.47.48,1.37.76,2.07a5.15,5.15,0,0,0,1-.8c.93-1.2,1.76-2.47,2.69-3.66C79.75,421.74,81.17,420,82.7,418.09ZM72.18,363.58c.14.17.47.55.81.92s.58.58.87.87a9.86,9.86,0,0,1,.58-.94,23.11,23.11,0,0,1,2.25-2.92c1.16-1.11,2.49-2,3.75-3l-1.36-1.78A9.17,9.17,0,0,0,72.18,363.58Z"/><path class="cls-1" d="M180.79,87.77a4.8,4.8,0,0,1,.52-.39c3.23-.54,6.47-1,9.69-1.62s5.66.54,8,2.69c1.17,1.1,2.8,1.7,4.19,2.59,2.46,1.57,4.87,3.23,7.36,4.76,1.73,1.06,3.61,1.88,5.33,3s3.26,2.4,4.95,3.52a15.28,15.28,0,0,0,2.43,1.1c1.33.6,2.67,1.17,4,1.82.62.31,1.14.83,1.74,1.19a55.29,55.29,0,0,1,6.6,4,61.68,61.68,0,0,1,5.52,5.78c.94,1,1.89,2,2.87,2.91,1.54,1.5,3.08,3,4.68,4.45,1.89,1.7,3.13,4.18,5.91,4.83.4.1.63.79,1,1.06a42.31,42.31,0,0,1,8.86,7.38c1.07,1.24,2.69,2,3.93,3.09.85.76,1.41,1.82,2.22,2.63,1.36,1.36,2.26,3.14,4.26,4,1.09.45,1.38,2.17,2.91,2.61s3.21,1.45,4.85,2.09c2,.79,4.11,1.47,6.16,2.2.17.06.33.15.5.2a37.61,37.61,0,0,1,6,1.66c3.28,1.5,6.43,3.31,9.55,5.12.6.35.85,1.3,1.26,2l3.76,6a1.32,1.32,0,0,1,.16.51c.33,3.59,2,6.92,1.62,10.69a53.26,53.26,0,0,0-.09,9.7,76.37,76.37,0,0,0,1.66,13.37c.69,2.73.49,5.4.94,8,.28,1.63,1,3.18,1.29,4.82.56,3.42.95,6.88,1.44,10.32a5.18,5.18,0,0,0,.51,1.1,4.62,4.62,0,0,1-.17,4.76c-.16.24-.42.45-.49.72a57.73,57.73,0,0,1-1.48,5.86c-1.56,4.14-1.9,8.51-2.81,12.76-.41,1.89-.68,3.77-.91,5.66-.11.95-.5,1.18-1.29.62-2.05-1.49-4.2-1.08-6.36-.31-.32.12-.63.42-.94.43-3,.05-6.17.71-8.91-.1-4.25-1.25-8.49-.69-12.71-1.15a9.36,9.36,0,0,1-1.84-.52c-1-.34-1.89-.8-2.93.19s-3.31-.1-3.37-1.51c-.06-1.14-.7-2.52.69-3.43.12-.08.15-.31.18-.49.54-2.5,1-5,1.63-7.51.52-1.94,1.35-3.79,2-5.69a4,4,0,0,0,.31-1c.16-2.81.26-5.62.46-8.43.06-.85.45-1.67.54-2.53a13,13,0,0,0,0-3c-.14-1.16-.65-2.29-.71-3.45a19.45,19.45,0,0,0-2.6-8.74,1.5,1.5,0,0,1-.09-.71c0-2.34-1.16-4.13-2.26-6.09s-2.68-4-1.62-6.48a23.86,23.86,0,0,1,2.36-4.21,41,41,0,0,1,4-5.09c1.83-1.9,4.07-3.42,5.8-5.4.86-1,3.06-1.57,1.95-3.69-1.95-1.1-2.71.83-3.84,1.62a39.31,39.31,0,0,0-4.19,3.55,17,17,0,0,0-2,2.3c-1.13,1.48-2.19,3-3.36,4.62-.58-.79-1.08-1.49,0-2.31a1.57,1.57,0,0,0,.46-.88c.55-2.75,1-5.53,1.63-8.26a18.28,18.28,0,0,1,1.55-3.18c.37-.77.67-1.57,1-2.41-2.54-.52-3.78.45-4.12,2.5-.22,1.32-1.26,2.6-1.17,3.85.15,2.12-1.16,3.73-1.4,5.66,0,.17-.37.47-.44.44a2.17,2.17,0,0,1-.89-.64c-1-1.65-2.78-2.26-4.32-3.08-.78-.42-1.95-.08-3.16-.08.29,1.54-.86,3,.85,4.06.21.13.2.66.26,1a16.85,16.85,0,0,0,3.52,7.83,13.33,13.33,0,0,1,1.45,2.81c1,2.16,1.92,4.35,2.9,6.51.72,1.58,1.59,3.09,2.2,4.7a39.21,39.21,0,0,1,1.57,5.43c.18.87.52,1.9-.91,2.54-.69.31-.91,1.69-1.33,2.58-1,2.16-2.05,4.34-3.12,6.48a13.09,13.09,0,0,1-1.1,1.41,44.41,44.41,0,0,1-6,7.35c-2.44,2.22-4.39,5-6.9,7.13-2.27,1.92-4.09,4.36-6.88,5.77-1.82.92-3.14,2.75-4.82,4-2.26,1.65-4.64,3.14-7,4.65a20.49,20.49,0,0,1-7.35,2.71,45.47,45.47,0,0,0-6.23,2.15,5.54,5.54,0,0,1-1.23.19c-2.2.28-4.39-.09-6.59,1.1-1.14.62-3.16-.18-4.71-.6a28.94,28.94,0,0,1-4.3-1.75,14.79,14.79,0,0,1-1.47-1.1c-3.11-1.93-5.46-4.73-8.13-7.18-1.38-1.27-2.51-2.79-4.57-3.4-1.68-.49-3.09-1.88-4.64-2.83-1.91-1.17-3.9-2.22-5.76-3.48a42.69,42.69,0,0,1-4.4-3.55c-1.42-1.28-2.72-2.7-4.07-4.05-2-2-3.9-4-5.9-5.9-1.66-1.59-3.49-3-5.09-4.68-.74-.77-1-2-1.68-2.84-1.94-2.55-4-5-5.92-7.58a2.62,2.62,0,0,1-.08-1.85c.18-.79.64-1.51.88-2.3.37-1.22.65-2.48,1-3.72a6.07,6.07,0,0,0,.25-.67c.47-3.08.81-6.18,1.41-9.24s1.81-6.38,4.34-8.18a14.39,14.39,0,0,1,8.83-3.13,10,10,0,0,0,6.53-2.35,3.78,3.78,0,0,0,.86-2.61c.07-5.52-.11-11,.07-16.54.11-3,.79-6,1.16-9,.5-4.05.44-8.26,1.59-12.11.83-2.77.29-5.6,1.16-8.15,1.62-4.75.62-9.64,1.38-14.35a48.75,48.75,0,0,0,.78-8.59c0-1.43-1.1-2.86-.07-4.3-1.74-3.16-.31-6.74-1.26-9.9a37.16,37.16,0,0,1-1.2-5.65A14.71,14.71,0,0,0,180.79,87.77Zm60,124.94c2.78,0,4.87,0,7,0a7.84,7.84,0,0,1,2.38.5,37.49,37.49,0,0,0,4.91,1.92c4.23.88,8.29-.6,12.4-1.27a6.52,6.52,0,0,0,2.68-1.28,13.78,13.78,0,0,0,1.9-2.43,23.31,23.31,0,0,0-2.86,0c-2.88.43-5.74,1-8.63,1.37-4.72.56-9.32-.41-13.9-1.41-.25,0-.46-.3-.66-.48-.92-.82-3.54-1.23-4.29-.34C241.07,210,241.11,211.28,240.77,212.71Zm-18.51,10.45c-.76,1.23-1.19,2.58-2.1,3.18s-2.08.89-2.83,1.87a5,5,0,0,1-1.51,1.2c-1.6.89-3.24,1.7-4.83,2.58-.3.17-.49.54-.73.81.32.18.67.55,1,.51,1.59-.2,3.29.46,4.68-1.16.75-.87,2.29-1,3.24-1.79a16.08,16.08,0,0,0,3.45-3.54c.69-1,2.53-1.77,1.5-3.66ZM216.48,122c-5.59-1.27-12,3.63-11.24,9,.8-.34,2-.48,2.14-1a8.3,8.3,0,0,1,1.38-2.35c1.6-2.09,3.29-3.58,6.08-3.39C216.53,124.37,216.84,123.42,216.48,122Zm2.71,78.57c-.56-.26-1-.48-1.46-.66-1.11-.46-2.62-.59-3.28-1.41-1.56-1.91-4.41-3-4.32-6.11,0-.39-.88-.81-1.35-1.22-.37.45-1.08.93-1,1.34a6.52,6.52,0,0,0,.84,3.34,48.66,48.66,0,0,0,4.86,5C214.19,201.57,218.06,201.39,219.19,200.58Zm-23.79-36.5c-.66,1.61-1.63,3-1.65,4.32a8.51,8.51,0,0,0,1.38,4.4,2.59,2.59,0,0,0,3.52,1.23Zm2.77-27.46.89.15c-.31-.73-.65-2.09-.92-2.07a7,7,0,0,0-3.15.93,25.81,25.81,0,0,0-3.62,3c-.15.14,0,.84.18,1.06a6.12,6.12,0,0,0,1.36.89Zm56.94,96.65c-.35-2.77,1-5.62-1-8.13a8.49,8.49,0,0,0-1.17-1,7.77,7.77,0,0,0-.43,1.55c-.17,2.28,1.48,4.53.16,6.86-.08.14.12.42.2.69Zm-27.78-27.33-.69.84c.42.64.73,1.7,1.27,1.83a18.39,18.39,0,0,0,4.27.33c.42,0,.85-.4,1.28-.62l-.1-.52Z"/><path class="cls-1" d="M271.66,246.57c-.25,1.06-.51,2.12-.77,3.17a5.51,5.51,0,0,0-.3,1.16c0,2.1,0,4.19,0,6.29a3.19,3.19,0,0,0,.24,1.39c1.15,2.11,1.11,2.66-.5,4.18a18.86,18.86,0,0,1-6.75,4,7.93,7.93,0,0,0-4.61,6.76c0,3.12-.07,6.25.2,9.35a9,9,0,0,0,1.53,4.76c1,1.18,2.82,1.63,4.62,2.57.33,2.18,2,4,4.11,5.52a3.25,3.25,0,0,0,1.72.37,36.26,36.26,0,0,0,5.21,0c1.93-.19,3.22.79,4.6,1.83a5.86,5.86,0,0,0,1.92.74c1,.28,2,.52,3,.77.22.05.49.19.67.11a40.31,40.31,0,0,0,5.15-2.41,5,5,0,0,0,1.63-2.42c.61-1.57,1-3.23,1.53-4.84.76-2.32,1.56-4.62,2.35-6.93a.84.84,0,0,0,.05-.17,54.77,54.77,0,0,0,1.25-5.76,4.56,4.56,0,0,1,6-4.08,3,3,0,0,1,1.71,2.14c.19,3.64.57,7.37,0,10.92a25.19,25.19,0,0,1-3.71,9.9c-1.36,2-2.54,4.17-4,6.09s-1.78,4.09-2.63,6.13c-1.34,3.24-.63,6.46-1.09,9.65a47.89,47.89,0,0,1-1.43,8,61.73,61.73,0,0,0-2.49,9.19c-.37,2.19-1.46,4.25-2.2,6.37a1.82,1.82,0,0,0-.1.89c.57,3-1,5.65-1.57,8.45-.31,1.58-1.47,3-2.2,4.48a21.43,21.43,0,0,0-1.31,3c-.57,1.94-1,3.92-1.52,5.87a16.34,16.34,0,0,1-.62,1.56c.25,1,.41,2,.72,2.87.49,1.4,1.1,2.76,1.62,4.15.78,2.08,1.5,4.18,2.27,6.27.67,1.82,1.36,3.63,2,5.45a3.63,3.63,0,0,1,.41,1.12c0,2.82,1.16,5.21,2.3,7.69.86,1.87,1.11,4,1.77,6,.57,1.7,1.34,3.33,2,5a8.33,8.33,0,0,1,.29.84c.48,1.85.86,3.73,1.47,5.54s1.44,3.41,2.15,5.12a8.44,8.44,0,0,1,.2.87c.78,2.4,1.64,4.78,2.33,7.21.63,2.21,1,4.49,1.62,6.71.85,3.12,1,6.39,2.3,9.43.55,1.23,0,2.88.33,4.26.61,2.84,1.44,5.63,2.18,8.45a3.4,3.4,0,0,1,.12.34c.49,2.83,1,5.66,1.47,8.5.52,3.18.52,6.55,1.63,9.5.78,2,.71,4,1.08,6,.42,2.3.77,4.62,1.34,6.89s1.4,4.59,2.11,6.89a1.91,1.91,0,0,1,.1.34c.46,4,1.08,8.09,1.29,12.15a4.31,4.31,0,0,1-2.94,4.58c-.52.18-.84.88-1.34,1.2a16.74,16.74,0,0,1-5.35,2.65c-1.32.31-2.45,1.37-3.7,2a12.37,12.37,0,0,1-1.54.38c-.67.23-1.31.58-2,.8a9.51,9.51,0,0,1-2.23.52c-2,.11-4.08,0-6.1.21s-4.52.18-6.07,1.27c-2.09,1.48-4.17.8-6.22,1.21-.73.14-1.45.37-2.19.55a2.25,2.25,0,0,1-.83.15,29.42,29.42,0,0,0-4.7-.68c-3.16.09-4.59-1.9-6.11-4.18-1-1.45-.89-3-1.23-4.49-.55-2.43-1.42-4.79-2.15-7.19a1.91,1.91,0,0,1-.1-.34c-.54-3.12-.94-6.27-1.66-9.35A39.27,39.27,0,0,0,258,487c-.06-.17-.19-.31-.23-.47-.49-1.88-.89-3.78-1.46-5.64-.63-2.07-1.41-4.1-2.12-6.15a.84.84,0,0,1-.05-.17c-.52-2.75-1.1-5.5-1.54-8.27-.56-3.49-1-7-1.52-10.5a27.73,27.73,0,0,0-1.2-4.85c-.59-1.66-1.56-3.19-2.15-4.85-.66-1.84-1.13-3.74-1.61-5.64-.78-3.08-1.5-6.19-2.24-9.28-.07-.29-.13-.59-.18-.88-.5-2.62-.6-5.41-1.62-7.81-.78-1.82-.49-3.79-1.22-5.35-1-2.24-.55-4.65-1.34-6.71-1.12-2.9-.65-5.86-1.2-8.74-.4-2.06-1.44-4-2-6a33.62,33.62,0,0,1-.39-3.91c-.45-3.14-.49-6.44-1.61-9.33-.84-2.15-.35-4.42-1.25-6.32-1.33-2.84-.38-5.94-1.31-8.61-.7-2-.4-4.17-1.21-6-1.54-3.4-.71-6.93-1.16-10.37-.23-1.7-.82-3.36-1-5.07a18.82,18.82,0,0,1,1.22-8.56,3,3,0,0,1,1.28-1.58c1.26-.6,1.32-1.65,1.22-2.7-.18-1.94.14-3.85-.91-5.82-1.47-2.76-.34-6.12,1.82-8.27a13.67,13.67,0,0,0,1.7-3c.73-1.28,1.57-2.5,2.2-3.83,1-2.1,1.6-4.43,2.84-6.36,1.47-2.28,1.12-4.72,1.47-7.12a45.42,45.42,0,0,1,1.4-7.26c1.39-4.46,2.69-8.87,2-13.65a8.64,8.64,0,0,1,.29-4.24,11.45,11.45,0,0,1,2.71-3.24c1.65-1.66,3.36-3.25,5.07-4.84,2-1.89,4.22-3.61,6.08-5.64,3.21-3.51,6.18-7.23,9.33-10.8a28.15,28.15,0,0,1,3-2.64Zm-4.78,122.11a5.57,5.57,0,0,0-6.65.87c-1.4,1.28-2.89,2.45-5,2.27a8.38,8.38,0,0,0-2.5.11,2.67,2.67,0,0,0-1.43,1c-.21.27-.21,1.09,0,1.24a3.64,3.64,0,0,0,2,.81,28,28,0,0,0,3.71-.59c1.24-.2,2.62.21,3.52-1.18a6,6,0,0,1,1.67-1.31C263.68,370.83,265.19,369.82,266.88,368.68Zm5.37,60.21a5.23,5.23,0,0,0,1.13,5.59,9.73,9.73,0,0,1,2.23,5,62.8,62.8,0,0,0,1.51,6.27l.82.08c.42-.9,1.33-1.9,1.17-2.67a36.11,36.11,0,0,0-2-5.52c-.92-2.32-1.8-4.66-2.85-6.93C274,430.1,273.12,429.67,272.25,428.89Zm8.47,36.66c-2.59-.78-2.62-.75-2.57,1.61a21.23,21.23,0,0,0,.12,3.39,1.92,1.92,0,0,0,1.31,1.11c.29.06,1.05-.66,1.08-1.06C280.79,468.94,280.72,467.27,280.72,465.55Z"/><path class="cls-1" d="M83.66,46.4c2.8,1.32,4.25,3.74,6.71,5.21a15.35,15.35,0,0,0,9,2.31c1.12,0,2.27.64,3.41,1a3.38,3.38,0,0,0,.69.14c5.79.22,11.44,2.07,17.3,1.36,1.35-.17,3-.36,4.08.22,2.36,1.25,5.2.36,7.42,2.13,1,.84,2.63,1,3.92,1.56,2.48,1.12,4.91,2.35,7.38,3.48A22.77,22.77,0,0,0,146.8,65a23.32,23.32,0,0,1,7.76,3.93c.94.71,2.3.82,3.37,1.39a54.73,54.73,0,0,1,4.87,2.94c1.58,1.07,3,2.39,4.63,3.38a24.5,24.5,0,0,1,5.74,5.1,33.44,33.44,0,0,0,3.32,3,1.07,1.07,0,0,1,.38.51,8.74,8.74,0,0,0,1.2,3.8c1.08,1.66,1.1,4,1.4,6.16a78.84,78.84,0,0,1,1.18,10.12c.12,8,.31,16-.31,23.88-.24,3.18-.2,6.59-1.15,9.59s-.47,5.84-1.33,8.54c-.94,2.94-.16,6.05-1.07,8.76-2.53,7.49-.75,15.13-1.33,22.66-.12,1.44-.77,1.67-2,2.2-2.43,1.06-5,.82-7.42,1.32a48.21,48.21,0,0,0-6.16,2.12,2.19,2.19,0,0,1-.71.14c-4.49,0-9.07.55-13.44-.19-2.49-.43-5.54-.61-7.59-2.63a7.47,7.47,0,0,1-2.14-3.55c-.35-1.78-.62-3.94.07-5.5,1.16-2.61.54-5.42,1.42-7.86.72-2,.41-4.06,1.14-5.81,2.32-5.54.69-11.29,1.28-16.91.56-5.31.22-10.78,1.36-15.94,1.39-6.27.3-12.58,1.33-18.74a73,73,0,0,0,.87-13.67,3.15,3.15,0,0,0-.83-1.73,4.34,4.34,0,0,0-1.38-.75,8.83,8.83,0,0,0-.56,2.25c0,1.7.22,3.4.34,5-1.92,1-2.83-.48-3.74-1.27a58.05,58.05,0,0,1-5-5.25c-.44-.5-.4-1.46-.87-1.88-2-1.8-4.08-3.56-6.25-5.18A17.21,17.21,0,0,0,122,83.4a32.91,32.91,0,0,0-17.38-2.62c-2.07.22-4.07,1.34-6,2.22-1.8.81-3.5,1.86-5.24,2.82a22.71,22.71,0,0,0-7.78,7.12,36.15,36.15,0,0,1-4.47,5.83c-.83.77-1,2.16-1.66,3.2s-1.44,2.17-2.18,3.25c-.06.1-.16.18-.18.28-.48,2.14-.94,4.28-1.41,6.43a23.73,23.73,0,0,0-1,5.11c0,3.08-1.11,6.27.65,9.23a1.82,1.82,0,0,1,.14.52c.52,2.52.91,5.08,1.6,7.55a32.56,32.56,0,0,0,2,4.49s.11.09.11.14c0,2.51,2,4,3.07,6a23.71,23.71,0,0,0,5.6,7.52c2,1.66,3.92,3.39,6,4.95a8,8,0,0,0,2.94,1.39c2,.51,3.27,2,4.69,3.34.16.15.26.41.44.48a22.48,22.48,0,0,1,4.06,1.57,12.63,12.63,0,0,1,4.52,4.27c1.9,3.25,4.12,6.32,6.27,9.42.56.81,4.18.34,4.79-.52.5-.69,1-1.36,1.48-2.06a2.34,2.34,0,0,1,3.94-.23,1.81,1.81,0,0,0,1,.5,7.87,7.87,0,0,0,1.61.07c3.51,0,3.29,0,4,3.47a8.82,8.82,0,0,1-.07,4.39,31.55,31.55,0,0,1-2.44,6.35,30.54,30.54,0,0,1-2.74,3.91c-.88,1.26-2,1-3.14,1.19-.23,0-.73-.7-.88-1.15a17.07,17.07,0,0,1-.4-2.53c.49-.46.93-1.06-.39-2-.71-.51-.38-1.91-1.45-2.71a3,3,0,0,0-4.06.14c-.94,1-2.22,1.71-3.13,2.74-1.23,1.41-2.24,3-3.37,4.51a13.76,13.76,0,0,0-1.07,1.24c-1,1.74-1.8,3.54-2.75,5.29a10.77,10.77,0,0,1-4,4.4,2.32,2.32,0,0,1-2.15-.5c-1.49-1.71-2.7-3.67-4.15-5.42-.84-1-2.08-1.72-2.89-2.76-1.33-1.7-3-3.1-3.58-5.45-.41-1.74-1.74-3.27-2.71-4.85-.66-1.07-1.45-2.06-2.12-3.12q-1.55-2.4-3-4.86c-.78-1.34-1.46-2.74-2.21-4.09-.64-1.14-1.37-2.23-2-3.38S77.57,168,77,166.78c-.8-1.78-1.54-3.59-2.31-5.38-.51-1.18-1-2.39-1.53-3.53-1.15-2.33-2.37-4.62-3.57-6.92a.6.6,0,0,1-.08-.16c-.52-2.13-1-4.28-1.57-6.38s-1.48-4.23-2.15-6.37a16.79,16.79,0,0,1-.38-2.46c-.21-1.28.45-2.82-1.12-3.69-.08,0-.1-.22-.12-.33-.42-2.57-1-5.13-1.21-7.71-.21-2.81-.59-5.78.1-8.42,1-3.68.59-7.46,1.46-11,.47-1.91.33-4,1.11-5.67,1.27-2.68.92-5.44,1.35-8.15a57.7,57.7,0,0,1,1.14-6c.52-2,1.32-3.84,2-5.75a5.27,5.27,0,0,0,.22-.49c.54-2.27,1-4.56,1.62-6.8.58-2.06,1.37-4,2.06-6.07.14-.39.2-.8.35-1.18.76-1.84,1.54-3.66,2.29-5.5.13-.33.11-.71.25-1q1.14-2.62,2.32-5.24c.41-.9,1.2-1.75,1.25-2.66.1-2,1.74-2.36,3-3.18A.51.51,0,0,0,83.66,46.4ZM86.81,66a6.76,6.76,0,0,0-.89-1.28c-.27-.25-1-.51-1.11-.37-1,.91-2.25,1.8-2.59,3-.52,1.79-1.91,3.38-1.52,5.46.07.41-.48.91-.66,1.4a44.25,44.25,0,0,0-1.61,5c-.08.37.85,1,1.31,1.45a5.68,5.68,0,0,0,1.08-1.51c.54-1.81.94-3.67,1.41-5.52,0-.15.2-.28.29-.43.69-1.13,1.38-2.25,2.06-3.39S86.05,67.24,86.81,66ZM69.47,106c1.82.11,2.11,0,2.36-1.12.49-2.1.92-4.21,1.41-6.31.14-.57.45-1.09.61-1.66.29-1.09.52-2.19.78-3.29L74,93.26c-.66.38-1.68.62-1.9,1.17-.71,1.8-2.11,3.43-1.68,5.59a1.08,1.08,0,0,1-.15.85C68.48,102.41,69.45,104.27,69.47,106Zm36.66-45.79c-.32.13-.78.17-1,.43-.59.66-1,1.45-1.6,2.14-1.49,1.88-3.08,3.69-4.47,5.63-.23.32.15,1.37.56,1.75.24.21,1.28-.09,1.64-.46,1-1,1.81-2.18,2.7-3.28C105.36,64.72,107.43,63.26,106.13,60.24Zm36,17.9a21.14,21.14,0,0,1-2.3,1.29c-1.31.53-2.71.89-4,1.49a3.11,3.11,0,0,0-1.14,1.45,1,1,0,0,0,.31.87c1.1,0,2.73.3,3.18-.28.72-.94,1.5-.64,2.24-.94a3.44,3.44,0,0,0,1.86-1.36C142.59,80,142.23,79.1,142.14,78.14Z"/><path class="cls-1" d="M40.12,99.88c1.41,1.05,2.52,1.81,3.55,2.66a10,10,0,0,1,2.15,2.15,5.82,5.82,0,0,0,3.77,3c.64.14,1.28,1,1.6,1.66.59,1.26.84,2.69,1.43,4,.93,2,2,3.91,3.06,5.83.56,1,1.27,2,1.79,3,.62,1.25,1.1,2.57,1.67,3.84.48,1.08,1.08,2.11,1.51,3.2a8.72,8.72,0,0,1,.83,2.93c0,3.66,1.26,7,2.38,10.4.54,1.68,1,3.39,1.68,5,1.06,2.5,2.27,4.94,3.41,7.4.52,1.11,1,2.23,1.53,3.33.78,1.64,1.67,3.23,2.34,4.91s1.07,3.39,1.68,5.06A25.54,25.54,0,0,0,76,171.57q1.69,3.15,3.53,6.21c.66,1.09,1.52,2.06,2.16,3.16s1.08,2.18,1.59,3.29A22.16,22.16,0,0,0,86.72,190c1.33,1.48,2.1,3.47,3.21,5.18a37.11,37.11,0,0,0,2.6,3.42c.61.72,1.38,1.31,2,2,1.8,2.11,3.56,4.27,5.49,6.59-1.91,1.55-3.92,3-5.71,4.68a29,29,0,0,0-3.1,3.85,32.44,32.44,0,0,0-2.52,3.65c-.63,1.1-1,2.36-1.49,3.51-.34.74-.83,1.42-1.21,2.14-.76,1.42-1.49,2.86-2.24,4.3,0,.1-.15.19-.17.3-.52,2.33-1,4.67-1.56,7-.63,2.51-1.45,5-2,7.49a12.27,12.27,0,0,0-.37,4.08c.33,2.67-1.07,4.92-1.5,7.39,0,.17-.92.43-1,.29a42.92,42.92,0,0,1-4.7-5.13c-2.07-3-3.78-6.17-5.74-9.21-1.32-2-2.82-3.95-4.23-5.93a32.65,32.65,0,0,1-2-2.9c-1.18-2.12-1.68-4.64-3.76-6.24-.24-.19-.08-.83-.24-1.2-.69-1.61-1.43-3.2-2.14-4.8-.16-.37-.21-.78-.39-1.13s-.5-1.15-.83-1.2c-1.64-.23-1.65-1.32-1.72-2.58,0-.57-.63-1.09-.88-1.66s-.45-1.32-.73-2.16c-1.58-.21-2-1.39-2.36-3-.26-1.29-1.32-2.43-2-3.63a4.91,4.91,0,0,1-.38-.55c-.81-1.6-1.69-3.17-2.37-4.82s-1-3.19-1.57-4.75c-.69-1.85-1.48-3.66-2.22-5.48a1.88,1.88,0,0,1-.18-.5c-.39-4.56-2.33-9.16-1-13.64,1-3.55.18-7.14,1.09-10.51,1.92-7.12,1-14.27.8-21.41a39.56,39.56,0,0,0-1.26-9.14c-.69-2.62-2.1-5-3.19-7.55a3.05,3.05,0,0,1-.17-.51c-.74-3.35-2-6.6-1.55-10.15.16-1.12,0-2.28.07-3.41a9.75,9.75,0,0,1,2.19-5.2c.6-.85.92-1.89,1.46-2.78C38,103.08,39.09,101.51,40.12,99.88Zm54.75,104c-2-.56-3.81-1-5.61-1.61a25.73,25.73,0,0,1-3.17-1.44c-1.34-.66-2.62-1.45-4-2.05-1.53-.66-3.32-.88-4.63-1.81a65.07,65.07,0,0,1-5.63-5c-2.28-2.06-4.64-4-6.84-6.18-1.71-1.65-3.17-3.55-4.86-5.23a7.47,7.47,0,0,0-2.14-1c0,.79-.41,2.08-.09,2.29,1.83,1.17,2.12,3.74,4.35,4.54.72.27,1.21,1.15,1.81,1.75l4.25,4.18c.31.3.64.58,1,.88a4.12,4.12,0,0,1-1.58.1c-1.56-.62-3.08-1.35-4.59-2.11-.75-.38-1.38-1.21-2.13-1.32-2.06-.27-3.07-2-4.63-2.93-.72-.44-1.46-.84-2.18-1.26l-.44.46c.09.75-.1,1.85.32,2.17a62.41,62.41,0,0,0,5.8,4,47,47,0,0,0,4.21,2.23,24.4,24.4,0,0,0,3.9,1.63c2.21.62,4.48,1,6.71,1.52a3.71,3.71,0,0,1,.87.52c1.95,1.06,3.87,2.18,5.87,3.14,1.34.64,2.88.89,4.2,1.58,2,1,3.77,2.3,6.09,2.36a2,2,0,0,1,.65.23l2.52,1.13ZM67.92,167.57c0-.7-.07-1.37-.1-2.11-1.71.07-1.95-1.3-2.77-2.06-2.74-2.54-3.89-6-5.95-9a4.46,4.46,0,0,0-.94-.76c-.22.38-.67.78-.62,1.11a9.53,9.53,0,0,0,1.21,3.28,35.94,35.94,0,0,0,5.47,7.85C65.09,166.85,65.84,168.48,67.92,167.57Z"/><path class="cls-1" d="M240.64,429.47a20.87,20.87,0,0,1-1,3.64,29.71,29.71,0,0,1-2.55,3.87,43.49,43.49,0,0,1-3.6,4.56,13,13,0,0,1-3.07,1.93c-1,.56-2.27.84-3,1.63-1.29,1.43-2.72.68-4.24.84-.56-2.25-.8-4.55-1.73-6.53-.82-1.74-.43-3.7-1.18-5.18-1.06-2.09-.65-4.31-1.33-6.27-.62-1.79-.49-3.75-1.22-5.3-1.41-3-1.65-6.21-2.59-9.23-.65-2.08-.47-4.32-1.33-6.13-1.26-2.64-.35-5.47-1.29-8s-.77-5.2-1.17-7.78c-.33-2.09-.87-4.14-1.34-6.2a31.44,31.44,0,0,0-1.24-5,51.62,51.62,0,0,0-2.76-5c-.38-.7-.65-1.46-1-2.19-1.25-2.82-1.46-6.23-4.58-8a.85.85,0,0,1-.33-.37c-.91-2.27-1.78-4.56-2.73-6.81A16.14,16.14,0,0,0,196,355.4c-2.4-3.66-2.78-7.73-2.42-11.93a9.54,9.54,0,0,1,.95-2.55c.06-.16.22-.29.26-.45.47-2,.43-4.25,1.49-5.8,2-3,.56-6.42,2-9.47.87-1.82.34-4.27.72-6.39,1.64-9.37.75-18.82,1-28.23.05-2.21,1.24-4,2.12-5.94.65-1.4,1.1-2.9,1.67-4.33.4-1,.83-2,1.31-2.91.13-.25.52-.35.79-.53.15.3.42.58.43.88.11,2.58.09,5.16.28,7.72.11,1.62.51,3.21.76,4.81.1.59.11,1.19.21,1.78.5,3.15.58,6.44,1.62,9.4,1.46,4.15,1.71,8.43,2.59,12.62.75,3.52.39,7.13,1.36,10.45.83,2.83.55,5.63,1.07,8.37a8.2,8.2,0,0,0,2.82,5.1,2.88,2.88,0,0,0,1.55.29c1.86,0,3.72.07,5.57,0,1.36-.08,1.81.4,1.71,1.75a41.84,41.84,0,0,0-.14,5.92,29.3,29.3,0,0,0,.93,4.08,8.8,8.8,0,0,1,.16,1.78,72.78,72.78,0,0,0,.17,8.62c.47,3.49,1.54,6.9,2.18,10.38.32,1.69.05,3.5.41,5.17.53,2.44,1.41,4.8,2.09,7.21a16.74,16.74,0,0,1,.36,2.25c.24,1.62-.56,3.48,1.06,4.81.07.06,0,.23.07.34.5,3.26.53,6.68,1.64,9.72s.61,6,1.37,8.88a81.22,81.22,0,0,1,2.43,11.24c.32,2.67.94,5.3,1.49,7.94A3.82,3.82,0,0,0,240.64,429.47ZM224.71,354.6c-.35-.7-.68-1.93-1-1.94a9.31,9.31,0,0,0-3.15.73c-1.24.44-2.45,1.42-3.67,1.4a7.59,7.59,0,0,1-4.2-1.44,3.46,3.46,0,0,0-3.43-.56,2.73,2.73,0,0,0,2.57,3.56c1.35.18,2.65.68,4,.95a3.65,3.65,0,0,0,1.77-.05C219.82,356.47,222,355.6,224.71,354.6Z"/><path class="cls-1" d="M53.18,37.48c-.62.46-1.24,1-1.9,1.42-1.45,1-1.28,2.5-1.3,3.93A37.84,37.84,0,0,0,50.09,47c.07.63.64,1.19.76,1.83.29,1.54.45,3.1.63,4.45-2.1,1.56-2.93-.35-3.89-1-1.67-1.2-3-2.91-4.53-4.27-.47-.41-1.35-.35-2-.48-.3-.06-.61,0-.9-.06-3.45-.81-5.87.6-7.91,3.33A36.76,36.76,0,0,1,28,54.81a.74.74,0,0,1-.46.2c-2.34.09-4.2,1.35-6.15,2.43a2.3,2.3,0,0,1-1.23.16C17.78,57.44,16,58.86,14,59.82a4.19,4.19,0,0,1-3.39-.41A16.81,16.81,0,0,1,7,56.11a10.29,10.29,0,0,1-1.51-2.62,41.12,41.12,0,0,0-1.68-4C1.44,45.52,3,41.25,2.64,37.14c-.06-.83.58-1.72.89-2.59.1-.26.31-.55.27-.8-.45-2.66,1-5,1.59-7.37C5.8,24.8,7.11,23.46,8,22c.74-1.14,1.88-2.17,2.19-3.41.55-2.16,2.13-3.28,3.61-4.58,2.31-2,4.59-4.11,7-6.09a9.06,9.06,0,0,1,2.41-1.2c1.42-.58,2.89-1.06,4.31-1.66,1.64-.69,3.23-1.48,4.86-2.19a3.24,3.24,0,0,1,1.19-.28A60.48,60.48,0,0,1,40,2.67a20.2,20.2,0,0,1,6.67,1.4c2.58,1.26,5.37,2.28,7.39,4.67,1.74,2.07,4.07,3.65,6,5.58.7.7.93,1.84,1.5,2.71,1.12,1.74,2.59,3.3,3.41,5.16a50.75,50.75,0,0,1,1.9,6.65c.8,2.82.61,5.9,2.2,8.52.23.38.08,1,.24,1.4.29.82.74,1.57,1,2.39a5.17,5.17,0,0,1,.27,1.75c0,2.57,0,5.16-.21,7.72A7.94,7.94,0,0,1,69,53.83c-.44.71-2,.11-2.2-.8-.47-1.72-.58-3.65-1.48-5.11-1.26-2-2-4.56-4.37-5.81-.51-.27-.77-1-1.28-1.27-1.61-.85-3.3-1.58-4.94-2.38C54.25,38.22,53.81,37.88,53.18,37.48Z"/><path class="cls-1" d="M53.17,40.08c2.28,1.21,4.63,2,6.42,3.55a14.5,14.5,0,0,1,3.26,5,53.92,53.92,0,0,1,2.37,6.71c.33,1.07.3,2.08,1.59,2.8,1.6.88,3.08.47,3.67-1.39s1.47-3.54,2-5.36a22.32,22.32,0,0,0,.54-3.48c.13-.9.24-1.8.38-2.79l4.58,3c-.59,1.21-1.29,2.51-1.87,3.85s-1.13,2.94-1.73,4.4c-.73,1.8-1.51,3.58-2.26,5.38a2.23,2.23,0,0,0-.19.67,10.77,10.77,0,0,1-2.42,5.8.58.58,0,0,0-.11.34A15.39,15.39,0,0,1,68,75.89c-1,2.17-.88,4.72-2.28,6.76a1.66,1.66,0,0,0-.14.52c-.49,2.75-.92,5.52-1.52,8.24a11.57,11.57,0,0,1-1.34,3.14,15.9,15.9,0,0,1-2.52,3.8A28.86,28.86,0,0,1,56,101.16a49.84,49.84,0,0,0-4.59,3.1c-1,.86-1.6,1.36-2.72,0A27.66,27.66,0,0,0,43.4,99c-1.78-1.28-4-1.91-6-2.88-.74-.36-1.38-.9-2.11-1.3a13.25,13.25,0,0,1-6-6.62c-1.05-2.38-3.37-4.22-5.13-6.29-1.63-1.91-4-3-5-5.62-.88-2.17-1.78-4.3-2.59-6.49-.58-1.53-.36-3.61-2.07-4.91-1-.74.34-2.84,1.74-3.31,2.12-.7,4.19-1.58,6.3-2.31a52.55,52.55,0,0,0,5.15-1.69,20.22,20.22,0,0,0,4.27-2.9c2-1.72,3.79-3.66,5.77-5.38a2.24,2.24,0,0,1,1.86-.16A13,13,0,0,1,45,53.31c.23.27.72.31,1,.53A3.93,3.93,0,0,1,47.33,55a3.49,3.49,0,0,0,5.27.74c1.87-2,1.94-4.59.23-7.19a1.44,1.44,0,0,1-.18-.68c0-2-.08-4.07,0-6.11A6.52,6.52,0,0,1,53.17,40.08Z"/><path class="cls-1" d="M288.5,519.74c3.17-2.22,6.44-1.87,9.64-2a5.45,5.45,0,0,0,1.76-.67,6.38,6.38,0,0,1,1.08-.48c2.43-.49,5-.63,7.25-1.48,2.08-.77,3.84-2.36,5.82-3.46a5.57,5.57,0,0,1,1.9-.4c1.11,2.13,2.14,3.89,3,5.74.68,1.56,1,3.25,1.65,4.85.7,1.85,1.51,3.67,2.26,5.5a1.09,1.09,0,0,1,.11.52c-.46,2.52,1.26,4.56,1.5,6.92a2.08,2.08,0,0,0,.12.71c1.33,2.73,1.18,2.76-1.44,4.18-2.43,1.32-5.08,1.79-7.63,2.64a13.54,13.54,0,0,0-6.6,4.64c-1.65,2.12-3.91,3.77-5.95,5.58-1.76,1.54-3.6,3-5.39,4.51-.13.11-.22.33-.36.36-1.87.52-3.76,1-5.62,1.53-2.12.63-4.17,1.62-6.33,1.95a34.3,34.3,0,0,1-6.64,0,11,11,0,0,1-1.81-.6c-1.95-.5-4.26-.47-5.77-1.56-1.91-1.38-4.45-.94-6-2.61-1.2-1.26-2.76-2-3.68-3.77a9.09,9.09,0,0,1-1.18-5.18c.15-2.17,1.07-3.16,3.15-3.79a6.55,6.55,0,0,0,2.36-1.25c1.25-1.08,2.7-1.17,4.2-1.34.48-.06.83-.85,1.34-1.14,2.43-1.41,4.95-2.68,7.32-4.17a9.64,9.64,0,0,0,2.21-2.41c1.5-1.89,2.87-3.87,4.41-5.71C287,525,289.06,522.77,288.5,519.74Z"/><path class="cls-1" d="M218.38,528c-.66.89-1.23,1.77-1.91,2.53-.5.55-1.95-.1-2.31-.86a8,8,0,0,0-1.55-2.54,2.09,2.09,0,0,0-1.94.36c-.78,1.83-1.86,3.13-3.93,3.5-.34.06-.59.6-.91,1-.69-1.09-1.31-2-1.86-3s-3.39-1.44-3.78-.52-.8,1.29-1.5.83a2.74,2.74,0,0,1-1.09-1.79c-.15-1.57-.84-2.13-2-1.48-1.4,1.55-2.79,3.12-4.21,4.64a5.48,5.48,0,0,1-1.34,1.08c-.83-.76-1.77-1.44-1.72-2.83.14-3.59-.25-7.27.41-10.75.34-1.83.34-4.16,2.06-5.67.14-.12.13-.43.17-.66.75-3.63,1.82-7.21,1.29-11a1.3,1.3,0,0,1,.07-.49c2.26-1,4.36-1.92,6.5-2.8a4.11,4.11,0,0,1,1.41-.16,93.86,93.86,0,0,0,9.5-.25c2.37-.3,4.65-1.36,7-2.07.28-.09.58-.11.87-.18l7.58-1.95c.54,1.34,1.12,2.94,1.84,4.48.61,1.3,1.47,2.49,2.05,3.81a14.84,14.84,0,0,1,1.53,4.49c.11,1.48-.51,3-.82,4.53,0,.17-.16.33-.18.5-.17,2.67-1.4,5-2.47,7.36-.89,2-1,4.32-1.6,6.47a19.93,19.93,0,0,1-1.18,3.27,29.89,29.89,0,0,1-1.58,2.65C221,529.77,220.5,527.37,218.38,528Z"/><path class="cls-1" d="M83.58,447.93c-2.4,2.32-4.34,5.05-7,6.51-2.27,1.25-5.32,1.24-8,1.44-1.4.1-2.86-.57-4.29-.88-2.28-.48-4.84-.46-6.76-1.57s-3.81-.73-5.69-1.1c-1.05-.21-2.07-1-3.07-1a26,26,0,0,0-9.47,2,2.53,2.53,0,0,1-.85.25c-4.78.4-9.66,1.56-14.3.93-3.59-.49-7.17-.38-10.71-.94-.72-.12-1.39-.95-1.95-1.57a7.41,7.41,0,0,1-.85-1.78c1.8-1.77,3.39-3.82,6.35-4.56,2.27-.56,4.28-2.16,6.43-3.25,1.11-.56,2.32-.95,3.43-1.51,1.44-.73,2.81-1.59,4.23-2.34.84-.44,1.73-.82,2.62-1.18,1.41-.57,2.85-1,4.25-1.65,1.6-.69,3.11-1.61,4.75-2.19,2.42-.84,4.73-2.43,7.46-1.75,1.73.43,3.39,1.15,5.08,1.75.76.27,1.51.55,2.26.84,1.4.54,2.8,1.1,4.21,1.63.91.35,1.85.63,2.75,1,1.66.7,3.33,1.39,4.93,2.2,1.77.89,3.48,1.9,5.2,2.88s3.46,1.95,5.14,3C81,446,82.13,446.9,83.58,447.93Z"/><path class="cls-1" d="M265.53,274c-.1,2.33-.32,4,.75,5.91.73,1.29.32,3.43-.1,5.06-.14.56-1.86.72-2.74,1-.31-.42-.44-.51-.44-.6-.19-3.88-1.92-7.53-1.54-11.54a4.63,4.63,0,0,1,1.94-3.48,40.82,40.82,0,0,1,4-2.46,22.37,22.37,0,0,0,4.31-2.77,11.4,11.4,0,0,0,2.66-4.39c.44-1.34,1-1.94,2.3-1.93,2.93,0,5.88-.09,8.8.14,2.15.16,4.25.94,6.4,1.15s4.3.05,6.67.05c0,2.33.58,4.4-.73,6.52-.55.89-.15,2.33-.32,3.5-.22,1.52.47,3.28-1.14,4.46-.11.08-.07.34-.11.51-.51,2.32-.91,4.67-1.56,6.94-.54,1.88-1.43,3.66-2.08,5.51-.55,1.58-.83,3.28-1.53,4.79s-1.15,3.6-3.47,3.84c-.33,0-.61.49-.85.33a31,31,0,0,1-3.49-.61c-1.23-.35-2.81-.59-3.47-1.46a2.43,2.43,0,0,0-2.2-1,40.33,40.33,0,0,0-4.66.17c-2.1.19-3.95-1-3.8-3.49a72.77,72.77,0,0,0,0-9.34,25.33,25.33,0,0,0-1.36-5.91C267.58,274.5,266.46,274.39,265.53,274Z"/><path class="cls-1" d="M136.79,230.5a6.53,6.53,0,0,1-5.79,1.4c-.85-.15-1.61-.81-2.47-1-2.52-.59-5.1-1-7.6-1.61-2.34-.61-4.61-1.47-6.91-2.2a3.48,3.48,0,0,0-1-.2c-4.36,0-8.91-.67-13,.33-3.43.83-6.72.78-10.09,1-.41,0-.83,0-1.28,0-.78-2.26,1-3.58,1.71-5.17a50.73,50.73,0,0,1,3.34-5.74,15.28,15.28,0,0,1,3.84-4.37c1.27-.9,2.51-1.87,3.77-2.79,1.64-1.19,3.25-2.42,4.94-3.53a6.57,6.57,0,0,0,3-3.52c.58-1.68,2.18-3,3.25-4.55a11.74,11.74,0,0,0,1.63-3,5.74,5.74,0,0,1,3.23-3.45A14.4,14.4,0,0,0,120,189.7c.73,1,2.7,1.55,1.64,3-1.41,1.94-.57,5.11-3.45,6.16-.85,3-2.68,6.09-1.23,9.18,1.18,2.52,3.07,4.87,6.49,4.65,2.49-.17,4.45.84,6.64,2,2,1.12,4.5,2.51,7.19,1.79a5.79,5.79,0,0,0,1.77-1c1.15-.85,2.25-1.78,3.41-2.64a1,1,0,0,1,.81-.16.82.82,0,0,1,.42.66,6.36,6.36,0,0,1-.22,2.49,38.9,38.9,0,0,1-2.68,4.63,12.73,12.73,0,0,0-2.34,5A34.61,34.61,0,0,1,136.79,230.5Z"/><path class="cls-1" d="M170.05,236.5c-1.22,1-2.39,2-3.68,2.89-2.28,1.54-4.79,2.76-6.92,4.48s-4.91,2.27-7.22,3.6c-4.26,2.45-8.76.79-13.1,1.35a17.58,17.58,0,0,0-2.16.71,5.86,5.86,0,0,1-1.55.27c-3.42,0-6.84.06-10.25,0-1.81,0-4.14-1.93-4.7-3.78A27.75,27.75,0,0,0,118.4,242c-.58-1.2-1.05-2.45-1.65-3.63-.72-1.45-1.64-2.81-2.25-4.3a15.9,15.9,0,0,1-.59-3.37c2.28.3,4.32-.5,6.11,1a2.07,2.07,0,0,0,.85.26c2.24.52,4.7.62,6.67,1.66a11.71,11.71,0,0,0,6.56,1c1.09-.08,2.12-.77,3.22-1a8.13,8.13,0,0,1,3-.24c1.86.35,3.12-.59,4.3-1.69a74.6,74.6,0,0,0,6.16-6.16,12.23,12.23,0,0,0,1.75-4c.26-.77.09-1.69.38-2.45a2.19,2.19,0,0,1,1.31-1c.21-.07.72.4,1,.73,1.81,2.56,3.44,5.26,5.43,7.66a43,43,0,0,0,4.91,4.39c1.6,1.4,3.24,2.77,4.73,4.28.35.36.19,1.23.26,1.87Z"/><path class="cls-1" d="M122.57,170.5c-1.2,1.78-2.14,3.26-3.21,4.64-.14.19-1.07.06-1.37-.22-2.46-2.18-3.66-5.22-5.41-7.89a27.74,27.74,0,0,0-5.49-6.15c-1.5-1.25-3.62-1.75-5.93-2.8a11.42,11.42,0,0,1,2-2.9,6.21,6.21,0,0,0,2.08-2.94c1.12-3,2.18-6.1,4.77-8.27a1.7,1.7,0,0,1,.94-.41c2.14,0,4.3-.53,6.32.9.66.47,1.87.28,2.82.19,3-.26,4.48-2,4.24-4.67,0-.53-.51-1-.61-1.56a9.12,9.12,0,0,1-.32-3.21c.07-.36,1.38-.58,2.15-.73,1.87-.35,3.13,1,4.5,1.87,2.08,1.29,3.79,3.26,6.55,3.26.24,0,.69.76.69,1.17,0,4.67.09,9.36-.29,14-.21,2.54-1.28,5-2,7.51,0,.06-.05.11-.06.17-.53,2.63-1,5.27-1.59,7.91-.18.88-.42,2.48-.67,2.49-1.36,0-3.08.12-4-.62C126.63,170.64,124.6,169.92,122.57,170.5Z"/><path class="cls-1" d="M318.49,237.29c.25.06.36.07.36.1.58,2.74,1.18,5.48,1.7,8.24s.6,5.45,1.45,8a62.67,62.67,0,0,1,2.53,9.73,26.62,26.62,0,0,0,1.94,5.15,5.08,5.08,0,0,1,.17.51c.51,2.58.92,5.18,1.57,7.71a48.14,48.14,0,0,0,2.18,6.67,9.16,9.16,0,0,1-.56,6.7c-1.5,2.24-2.61,4.8-4.4,6.76-1.55,1.69-2.9,3.82-5.42,4.49-.68.18-1.24.89-1.81,1.4a11.05,11.05,0,0,1-2,1.83,1.92,1.92,0,0,1-1.84-.38c-1.5-2.13-2.79-4.41-4.24-6.58-.68-1-2-1.83-2.22-2.9a13.24,13.24,0,0,1,.31-4.53,24.3,24.3,0,0,0,.72-2.65c.07-3.59,0-7.19,0-10.78a4.4,4.4,0,0,0-.65-2.16c-1.17-1.78-.53-3.08,1.2-4.15,1.38-.85,2.18-2.62,3.34-3.88,1.36-1.47.93-3.51,1.75-5.06a3.87,3.87,0,0,0,.11-3.82,3.58,3.58,0,0,1-.43-1.5c0-1.38-.45-2.85.76-4.07.31-.31.22-1,.3-1.56.48-3.19.84-6.4,1.49-9.56A16.9,16.9,0,0,1,318.49,237.29Z"/><path class="cls-1" d="M140.86,229l.92-1.81c.18-.35.53-.7.53-1.06,0-2.29,1.44-3.93,2.36-5.86,1.42-3,2.77-6.22,1.26-9.52a27.08,27.08,0,0,0-2.31-1.53c-.3-.16-.91-.22-1.1,0-1,1-2,2.12-3,3.18-1.64,1.74-3.89,1.69-6.24.79-3.11-1.18-5.83-3.62-9.59-3-2,.3-3.44-1.44-4.19-2.8a4,4,0,0,1,.67-4.76c.81-.84,1.12-2.16,1.67-3.25a1.14,1.14,0,0,1,.53-.57,35.8,35.8,0,0,0,5.13-1.37,10.49,10.49,0,0,0,5.82-5.57c.65-1.57,1.51-3.06,2.18-4.62a25.79,25.79,0,0,0,.81-3l3.76,1.37a2.46,2.46,0,0,0,.51.15c4.39.56,8.67,2.06,13.2,1.51a41.08,41.08,0,0,1,4.39,0c-.54,1.08-.92,1.84-1.31,2.6-.1.19-.32.36-.33.55a10.31,10.31,0,0,1-1.2,3.74c-.91,2.08-.64,4.67-1.55,6.75-1.41,3.26-.68,6.72-1.52,9.91-.57,2.16-.39,4.43-1.13,6.36-.61,1.6-1.34,3.36-1.9,4.95-.91,2.54-2.93,3.75-4.51,5.47a16.74,16.74,0,0,1-3.22,2.19Z"/><path class="cls-1" d="M124.51,252.67a19.51,19.51,0,0,1,3.57-.18c2,.26,4.08,1.26,6,1.07,3.8-.38,7.54-1.36,11.3-2.09a4.33,4.33,0,0,1,.71-.1c.71,0,1.43,0,2.12,0,1,2.54.6,3.31-2.35,4.95A48.83,48.83,0,0,0,139,260.4c-1,.82-2.11.71-3,1.2-3,1.58-6.2.81-9.22,1.43-1.28.26-2.52,1.25-3.94.94-3-.65-5.83-1.53-7.46-4.5-1.21-2.21-2.51-4.37-3.85-6.49a12.06,12.06,0,0,0-1.71-1.8c-.22-.22-.58-.42-.63-.68-.45-2.35-2.46-3.22-4.11-4.42-.77-.55-1.58-1.05-2.55-1.68.06-.44,0-1.15.26-1.57,2.63-3.64,5.34-7.23,8.28-11.18.79,2.16,1.31,3.84,2,5.44.59,1.35,1.38,2.61,2.08,3.91.53,1,1.06,2,1.58,3,1.33,2.61,2.58,5.26,4,7.81a21.56,21.56,0,0,0,2.46,3.06,31.4,31.4,0,0,0,2.63,3.1c.41.38,1.24.3,1.88.43,0-.7.35-1.53.08-2.08a38.81,38.81,0,0,0-2.44-3.84Z"/><path class="cls-1" d="M81,257.4c.06-1.78-.26-3.49.75-5.29.61-1.08.2-2.71.4-4.06.43-3,.9-6,1.46-9a32.06,32.06,0,0,1,1.22-4.49c.42-1.22,1-2.37,1.74-3.93.61.25,1.39.57,2.18.87.21.09.52.23.65.14,2.75-1.76,5.82-.73,8.73-1,2.2-.2,4.43-.08,6.64-.13a5.38,5.38,0,0,0,1.37-.28c.52-.15,1-.36,1.54-.54-.06.69.12,1.52-.21,2-1.6,2.55-3.26,5.09-5.06,7.5-1.17,1.57-2.65,2.89-3.94,4.37s-2.23,2.88-3.52,4.14-2.86,2.35-4.29,3.52c-.37.31-.65.76-1.07,1-2.18,1.09-3.79,2.87-5.56,4.47a11.54,11.54,0,0,1-2.55,1.3Z"/><path class="cls-1" d="M87.14,265.65a9.23,9.23,0,0,0,1-1.6,1.77,1.77,0,0,0,0-1.36,4.48,4.48,0,0,1,1.09-6.52c2.25-1.67,4.52-3.33,6.66-5.14.74-.63,1-1.81,1.72-2.49a8.33,8.33,0,0,1,3.25-2.22c.65-.18,1.66.94,2.5,1.5.47.31.92.66,1.37,1a1.62,1.62,0,0,1-.09,2.47c-.22.16-.51.33-.57.54-1,4-3.69,6.82-6.32,9.81a17.35,17.35,0,0,1-7.06,5.17c-.17.06-.41.11-.46.23a1.18,1.18,0,0,1-2,.61C87.69,267.27,87.53,266.44,87.14,265.65Z"/><path class="cls-1" d="M241.59,436c.16.1.32.14.35.22.56,2.09,1,4.22,1.69,6.28.58,1.74,1.6,3.35,2.08,5.11a5.47,5.47,0,0,1-.12,3.65c-.8,1.47-2.3,1.82-3.81.55a2.73,2.73,0,0,0-1.33-.47c-.9-.13-2,.14-2.29-1.14,0-.07-.2-.12-.31-.14-2.17-.43-4.33-.87-6.51-1.26a13.1,13.1,0,0,1-3.08-.73C235,446.36,238.27,441.24,241.59,436Z"/><path class="cls-1" d="M62.76,100.36a26.52,26.52,0,0,1-.32,2.84c-.23,1.06-.67,2.08-.9,3.14a60,60,0,0,0-1.27,13.3c0,.33-.34.65-.53,1a5,5,0,0,1-.75-.78c-1.26-2-2.58-3.93-3.68-6a39.85,39.85,0,0,1-1.47-4.1,9.31,9.31,0,0,0-1.13-1.59c3.12-2.63,6.63-4.87,9.35-8Z"/><path class="cls-1" d="M299.63,270.33c.48-1.87,1-3.51,1.31-5.19.27-1.52.29-3.08.43-4.8a24.84,24.84,0,0,0,2.65-.19,14.13,14.13,0,0,0,2.8-.76,2.62,2.62,0,0,1,3.51,1.88c.7,3.12-1.19,5-3.2,6.78A9,9,0,0,1,299.63,270.33Z"/><path class="cls-1" d="M223.17,288c1.43-1.18,2.53-2.06,3.6-3,.82-.7,1.35-.52,1.37.54,0,2.86.12,5.73-.08,8.58a17.68,17.68,0,0,1-1.24,4.14c0,.17-.37.41-.5.37a.9.9,0,0,1-.62-.47c-.48-1.54-.84-3.13-1.36-4.65-.26-.77-1-1.42-1.12-2.18A20.4,20.4,0,0,1,223.17,288Z"/><path class="cls-1" d="M268,190.36a5.78,5.78,0,0,1,0,1.25,1,1,0,0,1-.55.55.64.64,0,0,1-.55-.29c-.51-1.56-1-3.13-1.43-4.72-.09-.37.34-.87.52-1.3a7.58,7.58,0,0,1,.71,1c.57,1.1,1.09,2.22,1.63,3.34Z"/><path d="M195.11,448.67l-2.25-.13c-1.05-2-2-3.75-2.89-5.56a18.52,18.52,0,0,1-1.36-3.73c-.57-2.44-.85-4.94-1.48-7.36-.57-2.15-1.44-4.22-2.18-6.32a5.21,5.21,0,0,1-.24-.47c-.43-2.24-.8-4.5-1.29-6.73-.26-1.16-.75-2.28-1.07-3.44a6.92,6.92,0,0,1-.24-1.76c-.09-4.07-.19-8.14-.18-12.21a7.91,7.91,0,0,1,.72-2.26c.61.81,1.65,1.57,1.75,2.44.28,2.55.11,5.14.26,7.71a13.36,13.36,0,0,0,.79,2.82,6.07,6.07,0,0,1,.35,1c.3,2.18.22,4.35,1.06,6.54,1,2.59,1,5.52,1.73,8.24.55,2.13,1.5,4.17,2.26,6.25a.85.85,0,0,1,0,.17c.55,2.59,1,5.21,1.69,7.77a45.45,45.45,0,0,0,1.81,4.5C194.66,446.84,194.8,447.57,195.11,448.67Z"/><path d="M91.3,317.71c-.33-2.31.54-3.45,2.73-3.55,3.4-.14,6.86.09,10.2-.43,2.12-.34,4.5-.4,6.33-2.06a7,7,0,0,1,2.81-1.32c.61-.17,1.69-.14,2,.23.54.73,2,1.11,1.31,2.51-.13.25-.22.69-.38.72-1.59.28-2.81,1.4-4.56,1.58-2.81.3-5.53,1.39-8.29,2.15a2.84,2.84,0,0,1-.7.16Z"/><path d="M179.89,265.7c-.49.74-1,1.47-1.47,2.21-1,1.47-1.89,2.95-2.87,4.4-.3.46-.78.79-1.06,1.25-1.29,2.12-2.53,4.26-3.79,6.4a2,2,0,0,0-.07.35c-.52,2-.74,4.15-1.65,6a11.25,11.25,0,0,0-1,4.14c0,.21-.86.61-1.09.49-1.39-.73-1.86-3.79-.84-5,.14-.17.43-.28.48-.47.53-1.92,1-3.86,1.55-5.75a20.7,20.7,0,0,1,1.69-4.06,52.1,52.1,0,0,1,3.29-5,58.09,58.09,0,0,1,4.14-5.24c.38-.42,1.44-.22,2.19-.31Z"/><path d="M87.47,346.22c-.38-2.51.5-3.29,2.29-4A22,22,0,0,0,95,338.79a56,56,0,0,0,4.3-4.14c1.53-1.53,3-3.07,4.55-4.61.22-.23.47-.7.65-.67,1.74.27,2.23-1.27,3.21-2.1a3.42,3.42,0,0,1,1-.41c0,.43.23,1,0,1.29a18.43,18.43,0,0,1-2.28,3.23c-1.89,2-3.9,3.83-5.88,5.72-1.5,1.43-3,2.87-4.55,4.24a28.55,28.55,0,0,1-2.87,2.1c-1.14.76-2.28,1.52-3.49,2.17A10.92,10.92,0,0,1,87.47,346.22Z"/><path d="M182,373.47c2.26-1.31,2.95.49,3.9,1.37,1.23,1.14,2.17,2.59,3.39,3.74a17.24,17.24,0,0,0,3,2c1.73,1,3.49,2,5.4,3.08a2.89,2.89,0,0,1-3.84.62c-1.62-.92-3-2.05-4.94-2.54-1.15-.3-2-1.76-3-2.72a46.22,46.22,0,0,1-3.43-3.57C182.11,374.93,182.14,374.08,182,373.47Z"/><path d="M165.61,382.21c2-.94,2.6.93,3.68,1.63a4.41,4.41,0,0,0,4.36.31,4.18,4.18,0,0,0,1.76-1c1.13-1.45,2.16-.59,2.62.31.22.42-.63,1.8-1.32,2.2-1.49.87-3,1.91-5,1.5-1-.21-2.34.49-2.86-1.09,0-.15-.54-.15-.83-.21C165.81,385.38,165.33,384.67,165.61,382.21Z"/><path d="M82.7,418.09c-1.53,1.91-3,3.65-4.33,5.43-.93,1.19-1.76,2.46-2.69,3.66a5.15,5.15,0,0,1-1,.8c-.28-.7-1-1.6-.76-2.07a27,27,0,0,1,7-9C82.3,415.68,82.36,417.59,82.7,418.09Z"/><path d="M72.18,363.58a9.17,9.17,0,0,1,6.9-6.89l1.36,1.78c-1.26,1-2.59,1.93-3.75,3a23.11,23.11,0,0,0-2.25,2.92,9.86,9.86,0,0,0-.58.94c-.29-.29-.59-.57-.87-.87S72.32,363.75,72.18,363.58Z"/><path d="M240.77,212.71c.34-1.43.3-2.67.89-3.37.75-.89,3.37-.48,4.29.34.2.18.41.43.66.48,4.58,1,9.18,2,13.9,1.41,2.89-.35,5.75-.94,8.63-1.37a23.31,23.31,0,0,1,2.86,0,13.78,13.78,0,0,1-1.9,2.43,6.52,6.52,0,0,1-2.68,1.28c-4.11.67-8.17,2.15-12.4,1.27a37.49,37.49,0,0,1-4.91-1.92,7.84,7.84,0,0,0-2.38-.5C245.64,212.67,243.55,212.71,240.77,212.71Z"/><path d="M222.26,223.16h1.83c1,1.89-.81,2.62-1.5,3.66a16.08,16.08,0,0,1-3.45,3.54c-.95.76-2.49.92-3.24,1.79-1.39,1.62-3.09,1-4.68,1.16-.29,0-.64-.33-1-.51.24-.27.43-.64.73-.81,1.59-.88,3.23-1.69,4.83-2.58a5,5,0,0,0,1.51-1.2c.75-1,1.89-1.26,2.83-1.87S221.5,224.39,222.26,223.16Z"/><path d="M216.48,122c.36,1.41.05,2.36-1.64,2.24-2.79-.19-4.48,1.3-6.08,3.39a8.3,8.3,0,0,0-1.38,2.35c-.18.5-1.34.64-2.14,1C204.45,125.64,210.89,120.74,216.48,122Z"/><path d="M219.19,200.58c-1.13.81-5,1-5.75.27a48.66,48.66,0,0,1-4.86-5,6.52,6.52,0,0,1-.84-3.34c0-.41.67-.89,1-1.34.47.41,1.36.83,1.35,1.22-.09,3.14,2.76,4.2,4.32,6.11.66.82,2.17,1,3.28,1.41C218.19,200.1,218.63,200.32,219.19,200.58Z"/><path d="M195.4,164.08l3.25,9.95a2.59,2.59,0,0,1-3.52-1.23,8.51,8.51,0,0,1-1.38-4.4C193.77,167,194.74,165.69,195.4,164.08Z"/><path d="M198.17,136.62l-5.26,4a6.12,6.12,0,0,1-1.36-.89c-.21-.22-.33-.92-.18-1.06a25.81,25.81,0,0,1,3.62-3,7,7,0,0,1,3.15-.93c.27,0,.61,1.34.92,2.07Z"/><path d="M255.11,233.27h-2.27c-.08-.27-.28-.55-.2-.69,1.32-2.33-.33-4.58-.16-6.86a7.77,7.77,0,0,1,.43-1.55,8.49,8.49,0,0,1,1.17,1C256.15,227.65,254.76,230.5,255.11,233.27Z"/><path d="M227.33,205.94l6,1.86.1.52c-.43.22-.86.62-1.28.62a18.39,18.39,0,0,1-4.27-.33c-.54-.13-.85-1.19-1.27-1.83Z"/><path d="M266.88,368.68c-1.69,1.14-3.2,2.15-4.69,3.18a6,6,0,0,0-1.67,1.31c-.9,1.39-2.28,1-3.52,1.18a28,28,0,0,1-3.71.59,3.64,3.64,0,0,1-2-.81c-.21-.15-.21-1,0-1.24a2.67,2.67,0,0,1,1.43-1,8.38,8.38,0,0,1,2.5-.11c2.11.18,3.6-1,5-2.27A5.57,5.57,0,0,1,266.88,368.68Z"/><path d="M272.25,428.89c.87.78,1.7,1.21,2,1.87,1.05,2.27,1.93,4.61,2.85,6.93a36.11,36.11,0,0,1,2,5.52c.16.77-.75,1.77-1.17,2.67l-.82-.08a62.8,62.8,0,0,1-1.51-6.27,9.73,9.73,0,0,0-2.23-5A5.23,5.23,0,0,1,272.25,428.89Z"/><path d="M280.72,465.55c0,1.72.07,3.39-.06,5.05,0,.4-.79,1.12-1.08,1.06a1.92,1.92,0,0,1-1.31-1.11,21.23,21.23,0,0,1-.12-3.39C278.1,464.8,278.13,464.77,280.72,465.55Z"/><path d="M86.81,66c-.76,1.29-1.49,2.53-2.23,3.77S83.21,72,82.52,73.11c-.09.15-.25.28-.29.43-.47,1.85-.87,3.71-1.41,5.52a5.68,5.68,0,0,1-1.08,1.51c-.46-.49-1.39-1.08-1.31-1.45a44.25,44.25,0,0,1,1.61-5c.18-.49.73-1,.66-1.4-.39-2.08,1-3.67,1.52-5.46.34-1.15,1.64-2,2.59-3,.14-.14.84.12,1.11.37A6.76,6.76,0,0,1,86.81,66Z"/><path d="M69.47,106c0-1.76-1-3.62.84-5.16a1.08,1.08,0,0,0,.15-.85c-.43-2.16,1-3.79,1.68-5.59.22-.55,1.24-.79,1.9-1.17l.59.39c-.26,1.1-.49,2.2-.78,3.29-.16.57-.47,1.09-.61,1.66-.49,2.1-.92,4.21-1.41,6.31C71.58,106,71.29,106.14,69.47,106Z"/><path d="M106.13,60.24c1.3,3-.77,4.48-2.17,6.21-.89,1.1-1.71,2.28-2.7,3.28-.36.37-1.4.67-1.64.46-.41-.38-.79-1.43-.56-1.75,1.39-1.94,3-3.75,4.47-5.63.56-.69,1-1.48,1.6-2.14C105.35,60.41,105.81,60.37,106.13,60.24Z"/><path d="M142.14,78.14c.09,1,.45,1.88.16,2.52A3.44,3.44,0,0,1,140.44,82c-.74.3-1.52,0-2.24.94-.45.58-2.08.27-3.18.28a1,1,0,0,1-.31-.87,3.11,3.11,0,0,1,1.14-1.45c1.28-.6,2.68-1,4-1.49A21.14,21.14,0,0,0,142.14,78.14Z"/><path d="M94.87,203.88v2.66l-2.52-1.13a2,2,0,0,0-.65-.23c-2.32-.06-4.14-1.34-6.09-2.36-1.32-.69-2.86-.94-4.2-1.58-2-1-3.92-2.08-5.87-3.14a3.71,3.71,0,0,0-.87-.52c-2.23-.52-4.5-.9-6.71-1.52a24.4,24.4,0,0,1-3.9-1.63,47,47,0,0,1-4.21-2.23,62.41,62.41,0,0,1-5.8-4c-.42-.32-.23-1.42-.32-2.17l.44-.46c.72.42,1.46.82,2.18,1.26,1.56.93,2.57,2.66,4.63,2.93.75.11,1.38.94,2.13,1.32,1.51.76,3,1.49,4.59,2.11a4.12,4.12,0,0,0,1.58-.1c-.32-.3-.65-.58-1-.88l-4.25-4.18c-.6-.6-1.09-1.48-1.81-1.75-2.23-.8-2.52-3.37-4.35-4.54-.32-.21,0-1.5.09-2.29a7.47,7.47,0,0,1,2.14,1c1.69,1.68,3.15,3.58,4.86,5.23,2.2,2.14,4.56,4.12,6.84,6.18a65.07,65.07,0,0,0,5.63,5c1.31.93,3.1,1.15,4.63,1.81,1.37.6,2.65,1.39,4,2.05a25.73,25.73,0,0,0,3.17,1.44C91.06,202.87,92.91,203.32,94.87,203.88Z"/><path d="M67.92,167.57c-2.08.91-2.83-.72-3.7-1.64a35.94,35.94,0,0,1-5.47-7.85,9.53,9.53,0,0,1-1.21-3.28c0-.33.4-.73.62-1.11a4.46,4.46,0,0,1,.94.76c2.06,2.92,3.21,6.41,5.95,9,.82.76,1.06,2.13,2.77,2.06C67.85,166.2,67.89,166.87,67.92,167.57Z"/><path d="M224.71,354.6c-2.67,1-4.89,1.87-7.15,2.65a3.65,3.65,0,0,1-1.77.05c-1.34-.27-2.64-.77-4-.95a2.73,2.73,0,0,1-2.57-3.56,3.46,3.46,0,0,1,3.43.56,7.59,7.59,0,0,0,4.2,1.44c1.22,0,2.43-1,3.67-1.4a9.31,9.31,0,0,1,3.15-.73C224,352.67,224.36,353.9,224.71,354.6Z"/></g></g></svg>