<svg xmlns="http://www.w3.org/2000/svg" viewBox="0 0 473.63 554.74"><defs><style>.cls-1{fill:#fff;}</style></defs><g id="Layer_2" data-name="Layer 2"><g id="Layer_1-2" data-name="Layer 1"><path class="cls-1" d="M226.16,111.12c-8.31,1.11-15.31-2.32-22.22-6.07-8.21-4.46-16.45-8.87-24.62-13.4a20.73,20.73,0,0,1-3.35-3c.24-.19.5-.59.71-.56,10.63,1.42,10.36-8.7,13.73-14.1,1.8-2.89,3-4.42,6-5,.59-.12,1.4-1.62,1.28-2.35-.44-2.75-1.92-5.49-1.73-8.14.38-5.43,2.46-10.84,2.26-16.2a77.71,77.71,0,0,0-3.41-19.56c-3.16-10.39-12.47-13.88-21.71-15.52-10-1.77-20.2,0-26.88,8.82-4.69,6.23-9.26,13-11.83,20.25-2.41,6.8-2,14.56-3.12,21.86-.16,1.13-1.5,2.13-2.4,3.09-1.23,1.32-2.7,2.44-3.8,3.86-.85,1.09-1,3.38-1.93,3.64-6.88,2-14,3.12-20.76,5.39-4.84,1.62-10.21,3.6-13.64,7.1-5.91,6-10.48,13.34-15.63,20.1-3.74,4.9-7.34,9.91-11.32,14.61s-8.93,9-12.74,14c-4.89,6.41-9.21,13.27-13.52,20.09-2.09,3.31-4.5,6.82-5.18,10.53-1.85,10.23,2.88,19.28,6.39,28.49,2.5,6.54,5,13.1,7.22,19.73,1.48,4.36,4,7.77,8.66,8.05a33.89,33.89,0,0,0,20.67-5.71,8.72,8.72,0,0,1,5.87-1,23.6,23.6,0,0,1,8.18,3.28,7.1,7.1,0,0,1,2.71,4.94c.26,6.26.11,12.53-.12,18.79A86.86,86.86,0,0,1,88.81,250c-1,5.32-3.78,10.55-3.67,15.77.19,8.63,2.12,17.22,3.25,25.83,1,7.37,1.83,14.75,2.75,22.13a2.47,2.47,0,0,0,.48.92c1,1.62,3.07,3.32,2.93,4.82a47.45,47.45,0,0,1-2.72,10.33c-2.31,6.87-4.83,13.66-7.19,20.5-1.27,3.67-2.14,7.5-3.62,11.07a87.89,87.89,0,0,1-5.26,10.15C72.36,377.43,69,383.34,65.28,389c-4.75,7.21-10.16,14-14.71,21.33-4.34,7-8.1,14.31-11.81,21.65-3.1,6.12-5.53,12.57-8.66,18.67-3.41,6.64-7.48,12.94-10.84,19.59-1.42,2.83-8.5,4.87-2,9.48.15.1.12.6,0,.86-1,2.77-1.61,5.83-3.19,8.24C9.85,495.3,4.36,501.1,1,508c-1.64,3.36-1.25,10.58,1.07,12.38,3.89,3,10.14,2.83,15.25,4.46a123.49,123.49,0,0,1,15.2,5.91c4.74,2.24,8.92,5.87,13.81,7.53,5.49,1.85,10.79-.34,15-4.43,1.67-1.64,3.77-3.61,4-5.65.17-1.34-2.34-3.46-4.08-4.53C55.92,520.4,50,518,45.11,514.27c-2.79-2.13-4.42-6.11-5.82-9.56-.43-1.07,1.62-3.15,2.57-4.75.06-.08.53,0,.7.08,4.2,3,7.9,1.84,10.39-2.6s5.63-8.8,8.6-13.1c3.39-4.89,7.54-9.37,10.23-14.61,3.85-7.5,5.37-16.07,12.86-21.69S98.55,435.43,106,429.79A55.61,55.61,0,0,0,122.69,409c2.31-4.79,4.33-9.74,6.75-14.47,3-5.89,6.71-11.45,9.41-17.46s4.51-12.46,6.84-18.66c.25-.67,1.78-1.59,2-1.41a31,31,0,0,1,12.64,19.39A173,173,0,0,1,163,398.53c.63,8,.61,16.09,1.16,24.12.7,10,1.26,20.07,2.71,30,1,7.11-1.77,14.94,4.85,21.37,1.87,1.82-.39,7.7-.41,11.71a41.37,41.37,0,0,0,1,8.95c.11.53,2.41,1,3.57.82,3.33-.62,6.58-2.22,9.89-2.31a65.63,65.63,0,0,1,13.44,1.36,7.25,7.25,0,0,1,4.13,3c.37.54-1.83,2.47-1.63,3.55.42,2.44,1.07,5.26,2.67,6.93,1.28,1.33,4.1,1.64,6.23,1.63,8.49-.06,17-.44,25.47-.66a89.18,89.18,0,0,1,10.72,0c6.91.66,13.9,3.09,20.41-1.29,4.81-3.23,6.31-12.11,3.26-17.09a3.4,3.4,0,0,1,.2-3.07c1.89-2.5,5.42-4.53,5.92-7.19,2.25-12,3.74-24.15,5.39-36.26,1.38-10.15,2.58-20.32,3.87-30.48.9-7,1.35-14.15,2.9-21,1-4.33,2.68-9.19,5.69-12.19,4.26-4.24,10.42-6.51,15.05-10.46,7.25-6.19,13.83-13.15,20.83-19.64a16.71,16.71,0,0,1,6-3.84c1.48-.46,3.51,1.18,5.18,1,4.94-.64,5.63,2.28,6.47,6.11a57.45,57.45,0,0,0,4.24,11.6c2.14,4.62,4.7,9.05,7.12,13.55,2.34,4.33,4.56,8.75,7.15,12.93,2.89,4.68,6.33,9,9.2,13.74,3,4.88,5,10.41,8.44,14.93,4.29,5.7,10.18,10.23,14.15,16.1,2.53,3.74,3,9,4.07,13.58.77,3.18.82,6.54,1.7,9.68,1.35,4.84,3.09,9.57,4.73,14.32,1.05,3,2.08,6.1,3.35,9,1.73,4,3.69,7.94,5.51,11.91,1.48,3.21,2.84,6.48,4.37,9.66,1.83,3.79,4,7.45,5.65,11.31,1.58,3.6,2.49,7.52,4.26,11,.54,1.06,3,1,4.5,1.74,1,.51,2.51,1.5,2.51,2.26a24.3,24.3,0,0,1-1.21,5.74,50,50,0,0,0-1.57,5.65c-.41,2.81-1.44,6.15-.37,8.38,1,2,4.43,4.1,6.76,4.06a61.7,61.7,0,0,0,14.88-2.5c3.37-.92,7.79-2,9.39-4.54,3.06-4.84,4.66-10.67,6.42-16.23a9,9,0,0,0-.38-6.32c-2.66-4.94-5.3-9.08-5.07-15.62.37-10.26-2-20.63-3.46-30.93a75.46,75.46,0,0,0-2.74-11.74c-2.26-7.21-4.84-14.32-7.23-21.49-1-2.95-1.6-6.05-2.8-8.91-1.8-4.29-3.95-8.44-6-12.62-2.78-5.71-5.65-11.37-8.39-17.1-2.33-4.86-5.14-9.61-6.62-14.73-1.65-5.7-2.16-11.75-2.94-17.68-.36-2.71,0-5.52-.3-8.25-.57-5.83-1.36-11.63-2-17.45-.56-5.06-.94-10.15-1.58-15.19-.56-4.37-1.49-8.69-2-13.06-.12-1,.71-2.32,1.4-3.28,1.44-2,4.54-4,4.37-5.78-.83-8.79-2.35-17.52-3.94-26.21-.67-3.66-2.18-7.17-3.21-10.77-1.17-4.1,2.1-8.09,5.88-9.41,3-1.05,7.2-3.64,7.62-6.1,1.36-8,1.52-16.17,1.56-24.29,0-7.23-.86-14.46-1.08-21.7-.6-19.71-1-39.42-1.63-59.12a35.67,35.67,0,0,0-1.74-9.53A110.9,110.9,0,0,0,425.21,129c-2.82-5.79-5.73-11.72-9.7-16.72-5.05-6.35-11.11-11.92-16.94-17.62a50.65,50.65,0,0,0-8.41-6.6c-4.22-2.67-9.21-4.32-13-7.48-4.88-4.12-8.89-9.27-13.22-14a2.4,2.4,0,0,1-.41-1.86c.67-3.46,2.32-7,2-10.33-.76-9-1.69-18-3.8-26.76a42.56,42.56,0,0,0-7.73-16c-3.52-4.44-8.51-9.35-13.65-10.49-7.93-1.75-16.58-1-24.81-.19-3.64.36-7.7,2.86-10.34,5.58-7.75,8-8.11,17.88-5.71,28.16.58,2.5,1.5,5.08,1.29,7.55-.16,1.89-1.79,3.68-3,5.37a10.68,10.68,0,0,1-3-1.67c-2.27-1.87-4.15-4.77-6.71-5.57s-5.83,0-8.37,1.11c-5.54,2.39-7.66,7.54-9.08,13-1.93,7.48,1.21,15.79-5.95,22.58-5.47,5.19-8.33,13-13.14,19.06a65.62,65.62,0,0,1-14,13.45C234.76,111.48,230,110.68,226.16,111.12Z"/><path d="M226.16,111.12c3.88-.44,8.6.36,11.46-1.59a65.62,65.62,0,0,0,14-13.45c4.81-6,7.67-13.87,13.14-19.06,7.16-6.79,4-15.1,5.95-22.58,1.42-5.49,3.54-10.64,9.08-13,2.54-1.09,5.91-1.88,8.37-1.11s4.44,3.7,6.71,5.57a10.68,10.68,0,0,0,3,1.67c1.18-1.69,2.81-3.48,3-5.37.21-2.47-.71-5.05-1.29-7.55-2.4-10.28-2-20.18,5.71-28.16,2.64-2.72,6.7-5.22,10.34-5.58,8.23-.83,16.88-1.56,24.81.19,5.14,1.14,10.13,6.05,13.65,10.49a42.56,42.56,0,0,1,7.73,16c2.11,8.73,3,17.78,3.8,26.76.29,3.35-1.36,6.87-2,10.33a2.4,2.4,0,0,0,.41,1.86c4.33,4.77,8.34,9.92,13.22,14,3.75,3.16,8.74,4.81,13,7.48a50.65,50.65,0,0,1,8.41,6.6c5.83,5.7,11.89,11.27,16.94,17.62,4,5,6.88,10.93,9.7,16.72A110.9,110.9,0,0,1,431,144.19a35.67,35.67,0,0,1,1.74,9.53c.64,19.7,1,39.41,1.63,59.12.22,7.24,1.11,14.47,1.08,21.7,0,8.12-.2,16.33-1.56,24.29-.42,2.46-4.63,5.05-7.62,6.1-3.78,1.32-7.05,5.31-5.88,9.41,1,3.6,2.54,7.11,3.21,10.77,1.59,8.69,3.11,17.42,3.94,26.21.17,1.76-2.93,3.77-4.37,5.78-.69,1-1.52,2.24-1.4,3.28.48,4.37,1.41,8.69,2,13.06.64,5,1,10.13,1.58,15.19.65,5.82,1.44,11.62,2,17.45.27,2.73-.06,5.54.3,8.25.78,5.93,1.29,12,2.94,17.68,1.48,5.12,4.29,9.87,6.62,14.73,2.74,5.73,5.61,11.39,8.39,17.1,2.05,4.18,4.2,8.33,6,12.62,1.2,2.86,1.81,6,2.8,8.91,2.39,7.17,5,14.28,7.23,21.49a75.46,75.46,0,0,1,2.74,11.74c1.45,10.3,3.83,20.67,3.46,30.93-.23,6.54,2.41,10.68,5.07,15.62a9,9,0,0,1,.38,6.32c-1.76,5.56-3.36,11.39-6.42,16.23-1.6,2.51-6,3.62-9.39,4.54a61.7,61.7,0,0,1-14.88,2.5c-2.33,0-5.77-2-6.76-4.06-1.07-2.23,0-5.57.37-8.38a50,50,0,0,1,1.57-5.65,24.3,24.3,0,0,0,1.21-5.74c0-.76-1.5-1.75-2.51-2.26-1.46-.73-4-.68-4.5-1.74-1.77-3.49-2.68-7.41-4.26-11-1.69-3.86-3.82-7.52-5.65-11.31-1.53-3.18-2.89-6.45-4.37-9.66-1.82-4-3.78-7.89-5.51-11.91-1.27-2.95-2.3-6-3.35-9-1.64-4.75-3.38-9.48-4.73-14.32-.88-3.14-.93-6.5-1.7-9.68-1.12-4.62-1.54-9.84-4.07-13.58-4-5.87-9.86-10.4-14.15-16.1-3.41-4.52-5.46-10.05-8.44-14.93-2.87-4.7-6.31-9.06-9.2-13.74-2.59-4.18-4.81-8.6-7.15-12.93-2.42-4.5-5-8.93-7.12-13.55a57.45,57.45,0,0,1-4.24-11.6c-.84-3.83-1.53-6.75-6.47-6.11-1.67.22-3.7-1.42-5.18-1a16.71,16.71,0,0,0-6,3.84c-7,6.49-13.58,13.45-20.83,19.64-4.63,3.95-10.79,6.22-15.05,10.46-3,3-4.72,7.86-5.69,12.19-1.55,6.88-2,14-2.9,21-1.29,10.16-2.49,20.33-3.87,30.48-1.65,12.11-3.14,24.26-5.39,36.26-.5,2.66-4,4.69-5.92,7.19a3.4,3.4,0,0,0-.2,3.07c3.05,5,1.55,13.86-3.26,17.09-6.51,4.38-13.5,1.95-20.41,1.29a89.18,89.18,0,0,0-10.72,0c-8.49.22-17,.6-25.47.66-2.13,0-5-.3-6.23-1.63-1.6-1.67-2.25-4.49-2.67-6.93-.2-1.08,2-3,1.63-3.55a7.25,7.25,0,0,0-4.13-3,65.63,65.63,0,0,0-13.44-1.36c-3.31.09-6.56,1.69-9.89,2.31-1.16.21-3.46-.29-3.57-.82a41.37,41.37,0,0,1-1-8.95c0-4,2.28-9.89.41-11.71-6.62-6.43-3.81-14.26-4.85-21.37-1.45-9.92-2-20-2.71-30-.55-8-.53-16.1-1.16-24.12a173,173,0,0,0-2.66-22.18A31,31,0,0,0,147.72,357c-.25-.18-1.78.74-2,1.41-2.33,6.2-4.14,12.63-6.84,18.66s-6.39,11.57-9.41,17.46c-2.42,4.73-4.44,9.68-6.75,14.47A55.61,55.61,0,0,1,106,429.79c-7.45,5.64-13.88,12.64-21.36,18.25s-9,14.19-12.86,21.69c-2.69,5.24-6.84,9.72-10.23,14.61-3,4.3-6,8.56-8.6,13.1S46.76,503,42.56,500c-.17-.12-.64-.16-.7-.08-1,1.6-3,3.68-2.57,4.75,1.4,3.45,3,7.43,5.82,9.56,4.9,3.74,10.81,6.13,16.12,9.37,1.74,1.07,4.25,3.19,4.08,4.53-.26,2-2.36,4-4,5.65-4.16,4.09-9.46,6.28-15,4.43-4.89-1.66-9.07-5.29-13.81-7.53a123.49,123.49,0,0,0-15.2-5.91c-5.11-1.63-11.36-1.45-15.25-4.46-2.32-1.8-2.71-9-1.07-12.38,3.36-6.87,8.85-12.67,13.1-19.15,1.58-2.41,2.18-5.47,3.19-8.24.1-.26.13-.76,0-.86-6.51-4.61.57-6.65,2-9.48,3.36-6.65,7.43-12.95,10.84-19.59,3.13-6.1,5.56-12.55,8.66-18.67,3.71-7.34,7.47-14.68,11.81-21.65,4.55-7.33,10-14.12,14.71-21.33,3.73-5.66,7.08-11.57,10.48-17.44A87.89,87.89,0,0,0,81,361.41c1.48-3.57,2.35-7.4,3.62-11.07,2.36-6.84,4.88-13.63,7.19-20.5a47.45,47.45,0,0,0,2.72-10.33c.14-1.5-1.9-3.2-2.93-4.82a2.47,2.47,0,0,1-.48-.92c-.92-7.38-1.78-14.76-2.75-22.13-1.13-8.61-3.06-17.2-3.25-25.83-.11-5.22,2.68-10.45,3.67-15.77A86.86,86.86,0,0,0,90,237.14c.23-6.26.38-12.53.12-18.79a7.1,7.1,0,0,0-2.71-4.94,23.6,23.6,0,0,0-8.18-3.28,8.72,8.72,0,0,0-5.87,1,33.89,33.89,0,0,1-20.67,5.71c-4.68-.28-7.18-3.69-8.66-8.05-2.25-6.63-4.72-13.19-7.22-19.73-3.51-9.21-8.24-18.26-6.39-28.49.68-3.71,3.09-7.22,5.18-10.53,4.31-6.82,8.63-13.68,13.52-20.09,3.81-5,8.66-9.2,12.74-14s7.58-9.71,11.32-14.61c5.15-6.76,9.72-14.09,15.63-20.1,3.43-3.5,8.8-5.48,13.64-7.1,6.76-2.27,13.88-3.44,20.76-5.39.9-.26,1.08-2.55,1.93-3.64,1.1-1.42,2.57-2.54,3.8-3.86.9-1,2.24-2,2.4-3.09,1.08-7.3.71-15.06,3.12-21.86C137,29,141.56,22.26,146.25,16c6.68-8.87,16.83-10.59,26.88-8.82,9.24,1.64,18.55,5.13,21.71,15.52a77.71,77.71,0,0,1,3.41,19.56c.2,5.36-1.88,10.77-2.26,16.2-.19,2.65,1.29,5.39,1.73,8.14.12.73-.69,2.23-1.28,2.35-3.07.62-4.23,2.15-6,5-3.37,5.4-3.1,15.52-13.73,14.1-.21,0-.47.37-.71.56a20.73,20.73,0,0,0,3.35,3c8.17,4.53,16.41,8.94,24.62,13.4C210.85,108.8,217.85,112.23,226.16,111.12ZM211,172.8l.12,1c8.11-1.14,16.48-1.38,24.23-3.71a51.9,51.9,0,0,0,17.9-9.84c5.77-4.84,10.13-11.35,15.15-17.09,2.4-2.74,5.13-5.22,7.31-8.11,3.46-4.58,6.49-9.48,9.87-14.11,2.51-3.44,6.48-6.34,2.7-11.31-1.74-2.28-3.11-4.83-4.73-7.21-4.39-6.42-8.65-12.94-13.36-19.12-1.35-1.77-3.46-6.55-6.48-1.06-.46.82-.42,2-1,2.65-6,7.13-12.16,14.14-18.11,21.32-.87,1.06-1.61,3.77-1.17,4.11,4.29,3.35,4.47,8,4.34,12.67,0,.58-.95,1.14-1.46,1.72-.29-.6-.8-1.18-.82-1.78-.17-4.46.59-9.33-5.06-11.26a3.37,3.37,0,0,0-2.35.63c-.26.16-.19,1.11-.07,1.65.77,3.62,1.65,7.21,2.35,10.83.12.62-.43,1.38-.67,2.07-.6-.71-1.55-1.35-1.74-2.16-.29-1.25.27-2.73-.14-3.91-.75-2.18-1.52-5.57-3-6a36.48,36.48,0,0,0-12.32-1.44c-8.9.39-15.89-3.51-22.75-8.49a121.24,121.24,0,0,0-13.6-8c-3.6-2-7.86-3-11-5.49-5-4.07-9.09-9.26-14-13.52a64.53,64.53,0,0,0-12.7-9,55.24,55.24,0,0,0-14.11-4.64c-2.53-.53-6.21-2-7.72,2.3-.44,1.27-.73,3.37-1.55,3.63-8.76,2.77-17.74,4.88-26.39,7.95-4.12,1.46-8.46,3.88-11.28,7.11C82.8,90.45,79.65,97,75.34,102.54c-6.17,8-12.78,15.64-19.33,23.33-2,2.29-4.77,3.92-6.48,6.35-4,5.68-7.68,11.55-11.13,17.55-2.26,3.93-4.79,8.06-5.61,12.4-1.87,10,3.72,18.5,6.69,27.5,1.88,5.68,3.87,11.33,6,16.91,1.54,4,3.2,8,8.65,8.09,9.2.07,17.44-2.92,23.57-9.53,5.58-6,9.09-13.45,6.78-22.21a8.27,8.27,0,0,0-2.1-3.81c-2.79-2.6-6.26-4.58-8.62-7.48-1.6-2-3.08-5.54-2.37-7.62,1.72-5,7.15-8.54,5.81-14.89-.1-.45,1-1.51,1.59-1.63a2.22,2.22,0,0,1,1.82,1.21c.66,2.76,1.06,5.58,1.57,8.37C83.07,162,84,167,84.87,171.9q2.49,14.53,4.87,29.09c.56,3.44.85,6.92,1.46,10.35.26,1.49.62,3.76,1.58,4.19A127.08,127.08,0,0,0,107,220.7c7.85,2.4,15.73,4.76,23.7,6.7,9.41,2.28,18.91,4.16,28.39,6.08a89.88,89.88,0,0,0,11.41,1.66c2.92.21,7.25,1,8.55-.58a61,61,0,0,0,9.19-15.08c1.79-4.13,2.28-8.91,2.91-13.46q2-14.58,3.44-29.24c.07-.71-2.63-2.62-3.26-2.32-4.08,2-7.93,4.42-11.91,6.62-.54.3-1.37.11-2.06.15.21-.63.23-1.5.66-1.85,1.92-1.52,4-2.86,5.92-4.35.41-.31.56-1,.83-1.48a14,14,0,0,0-1.27-.66c-2.92-1.18-5.87-2.24-8.74-3.51-3.91-1.73-7.76-3.61-11.64-5.4-.73-.34-1.52-.56-2.28-.83.9-.58,2.06-1.85,2.67-1.62,4.12,1.51,8,3.68,12.17,5a212.76,212.76,0,0,0,22.24,6.11C202.08,173.49,206.6,172.8,211,172.8ZM466.41,503.7c-1.53-9.06-3-18.16-4.66-27.23a73.73,73.73,0,0,0-2.62-9.63c-2.37-7.16-4.87-14.27-7.35-21.4-1.78-5.13-3.34-10.37-5.52-15.33-2.46-5.58-5.64-10.84-8.26-16.36-2.4-5.05-4.73-10.16-6.62-15.42-2.3-6.4-4.79-12.87-5.94-19.52-1.51-8.75-1.77-17.72-2.59-26.59-.9-9.77-1.9-19.54-2.71-29.33-.43-5.17-1.87-6-6.56-3.41-.52.29-2.2-.27-2.3-.68-.57-2.56-.8-5.19-1.25-7.79-.79-4.59-1.65-9.18-2.52-13.76-.07-.38-.49-.71-.75-1.06a3.86,3.86,0,0,0-.53,1.08c-.9,7.08-1.72,14.18-2.7,21.26-.23,1.64-.66,4.36-1.56,4.62-5.35,1.55-10.85,3.32-16.34,3.48-6.29.19-12.63-1.19-18.93-2-2.72-.33-5.42-.84-8.12-1.33-1.37-.25-2.72-.63-4.07-.94.26,1.79.6,3.58.76,5.38.24,2.69,1.65,6-3.41,5.82-2.85-.08-5.71.75-8.58.93s-5.86.08-5.51-4.25a40.43,40.43,0,0,0-.07-4.67c-.15-4.33-1.23-7.53-6.31-8.84a30.58,30.58,0,0,1-11.12-5.64c-5.11-4.1-9.59-9-14.37-13.5-.12-.12-.79.05-.9.25-1.74,3.16-4,6.17-5,9.55-1.76,5.84-2.61,11.95-4.18,17.86-.32,1.22-2.31,3.07-3.14,2.89a64.1,64.1,0,0,1-11.47-3.75c-1.27-.55-2.86-2.56-2.73-3.72a30,30,0,0,1,2.49-8.36c1.74-4,3.88-7.74,5.8-11.62q4.11-8.34,8.09-16.75c.2-.44-.29-1.21-.45-1.82-.2.06-.49.06-.58.2-1.82,2.86-5.65,4-5.68,8.64,0,3.21-2.19,7-4.49,9.47-3.16,3.45-7.74,5.57-11,9-3.54,3.67-6.27,8.12-9.37,12.22-3.7,4.9-8,9.48-11,14.75-3.64,6.29-7.07,12.94-9.08,19.87-1.64,5.61-1,11.88-1.46,17.84-1.23,14.25-2.67,28.48-3.8,42.73-.65,8.18-.72,16.41-1.29,24.59-.82,11.88-1.89,23.75-2.75,35.62-.07,1,.44,2.81,1.09,3,4.53,1.52,9.14,2.84,13.79,4,3.62.91,7.31,1.53,11,2.23,5.59,1.08,13.66-.31,14.58-6q2.68-16.44,5-32.94c1.45-10.44,2.59-20.92,4-31.37,1.22-9.22,1.93-18.58,4.16-27.56,1.09-4.36,4.49-8.71,8-11.78,4.33-3.81,10.27-5.76,14.7-9.48a231.41,231.41,0,0,0,18.32-17.81c1.54-1.61,5.25-4.45-.42-6.24-1-.33-1.69-1.89-2.52-2.88,1.52.31,3.06.55,4.55,1,.4.11.62,1,1,1.05,5.73,1,11.48,1.84,17.2,2.82a1.89,1.89,0,0,1,1.15,1.36c.14,1.9-.53,4.09.18,5.7,3.89,8.78,7.89,17.53,12.27,26.08,3.63,7.07,7.64,14,11.85,20.7,5.06,8.08,9.87,16.46,16,23.71,6.81,8.09,15,15.05,22.47,22.57a12.66,12.66,0,0,1,1.73,3.26,10.8,10.8,0,0,1-2.88-1c-2-1.44-3.85-3.08-5.78-4.61a4.79,4.79,0,0,0-1.08-.48c-.15.36-.46.74-.4,1.06,1,5.72,1.82,11.52,3.3,17.13a147.62,147.62,0,0,0,5.56,16.3c2.63,6.72,5.52,13.33,8.43,19.93,2.15,4.87,4.62,9.6,6.74,14.48,1.9,4.34,3.38,8.87,5.36,13.17.52,1.11,2.68,2.62,3.38,2.32,6.07-2.64,11.95-5.69,17.93-8.51,3.22-1.52,7.45-2,9.54-4.46C465.92,511.53,465.64,507.36,466.41,503.7ZM211.91,176l0-.51a37.57,37.57,0,0,1-6.28-.05c-6.44-1.13-10.2.36-8.57,7.88a3.89,3.89,0,0,1-.12,1.43c-2,11.22-3.49,22.54-6.1,33.61-1.16,5-4.47,9.41-6.82,14.09-1.39,2.78-4.21,5.71-3.91,8.28.78,6.52,6.1,12.14,3.55,19.55-.85,2.45-.51,5.56.06,8.2,1.9,8.88,4.23,17.68,6.19,26.55.57,2.55-.37,5.68.78,7.79,2.64,4.88,6.37,9.16,9.24,13.93,4.5,7.45,9.13,14.89,12.81,22.75a52.75,52.75,0,0,1,5.14,17.6c.75,9.44,0,19-.19,28.5q-.44,18.54-1.08,37.08c-.45,12.07-1,24.13-1.66,36.19a21.39,21.39,0,0,1-1.3,7.39c-.73,1.67-2.81,2.74-4.24,4.12-.67.64-1.86,1.86-1.74,2,2,2.74,3.79,6,6.48,7.83,3.23,2.23,7.22,3.48,11,4.74,1.89.62,4.08.32,6.13.43-.2-2-.38-4-.59-6-.06-.55-.39-1.13-.29-1.63.7-3.27,1.8-6.49,2.16-9.79q1.53-14,2.57-28c1-13.09,1.71-26.19,2.61-39.28.35-5.16.91-10.3,1.25-15.45.52-7.95.84-15.92,1.41-23.86a58,58,0,0,1,1.5-11.27,29.19,29.19,0,0,1,4.34-8.81c4.13-5.85,8.72-11.36,13-17.13,3.86-5.26,7.6-10.62,11.12-16.12.36-.56,5-2.69-.26-3.84a19,19,0,0,1-8.12-4.11c-4.63-4-3.5-9.46-1.38-14.07,3.71-8.05,8.3-15.68,12.3-23.59a84.29,84.29,0,0,0,4.23-10.54c1.51-4.38,2.72-8.85,4.13-13.26,1.51-4.7,3.34-9.3,4.61-14.06a119.93,119.93,0,0,0,2.49-13c1.38-9.06,2.72-18.13,3.88-27.22,1-7.56,1.45-15.19,2.48-22.74,1.09-8,2.27-16.06,4-24,1.38-6.55,2.33-13.65,5.62-19.23,5.06-8.6,12-16.1,18.07-24.09a41.77,41.77,0,0,0,2.29-3.67c-1.82.16-3.7.67-5.47.42-4.33-.62-9.48-.43-12.66-2.79-2.53-1.88-2.62-7-3.81-10.72-.22-.69-.5-1.36-.76-2a6.71,6.71,0,0,0-1.59,1.2C296.83,81.34,293,85.88,290.14,91c-2.67,4.77-5.09,9.9-.71,15.49,3.06,3.91,4.74,8.37.35,12.89a65.69,65.69,0,0,0-6.38,7.91c-2.91,4.09-5.27,8.6-8.45,12.46-4.9,6-10.78,11.15-15.36,17.32a41.18,41.18,0,0,1-26.89,16.79C225.86,175.05,218.85,175.29,211.91,176ZM431.65,186.4c.44-16.35.08-32.67-5.31-48.31-2.34-6.77-5.14-13.68-9.25-19.45a145.3,145.3,0,0,0-18.74-21.09,70.77,70.77,0,0,0-17-11.79C376,83.1,371.94,80,369.24,74.62c-1.12-2.23-2.75-7.11-6.74-3.18-6,5.88-11.55,12.21-17.09,18.52a108.23,108.23,0,0,0-8,10.49,90.06,90.06,0,0,0-5.29,9.14c-2.41,4.6-4.92,9.19-6.89,14-2.12,5.14-3.43,10.61-5.51,15.76-2.61,6.46-5.8,12.67-8.45,19.11-2.38,5.8-4.47,11.72-6.52,17.65-2.52,7.3-5.9,14.5-7,22-1.53,10.35-1.28,21-1.8,31.46-.29,5.86-.83,11.72-.85,17.59a131.49,131.49,0,0,0,1,14.56,3.31,3.31,0,0,0,2.37,2.18c4.22-.2,8.41-.83,12.62-1.19,5.72-.49,11.48-.71,17.19-1.34A103,103,0,0,0,343.56,259c8.16-2.19,16.21-4.84,24.2-7.62,6.55-2.28,13-4.93,19.39-7.58,9.39-3.86,11.77-7.14,11.26-17.22a84.17,84.17,0,0,0-2.83-18.36c-1.6-5.69-5.36-10.8-6.79-16.51-2.41-9.65-3.69-19.58-5.53-29.37-.8-4.27-.87-9-2.89-12.64-4.26-7.64-5.12-15.55-4.48-23.92,0-.33.37-.63.56-1,.19.24.52.46.56.73.88,5.47,1.72,10.94,2.6,16.41a9.47,9.47,0,0,0,.65,1.72c.49-.38,1.23-.67,1.43-1.17.68-1.71,1.16-3.5,1.74-5.25a10.63,10.63,0,0,1,.89-2.26c.08-.14,1.37.19,1.37.3a15,15,0,0,1-.34,2.91c-.57,2.64-1.22,5.26-1.79,7.89-.06.29.21.65.32,1,.19-.09.46-.13.54-.28,1.39-2.53,2.7-5.1,4.15-7.6a8,8,0,0,1,1.79-1.73s.6.34.58.46a14.71,14.71,0,0,1-.62,2.39c-2.06,5.26-7.62,9.07-5.74,16,1.73,6.45,2.28,13.21,3.92,19.69,2.28,9,5,17.86,7.77,26.7.51,1.61,1.22,6.13,4.47,1.6a19.64,19.64,0,0,1,1.35-2.16c2.76-3,5.57-5.92,8.4-8.84a10.71,10.71,0,0,1,1.78-1.21c.07.68.47,1.61.17,2-1.37,1.83-2.91,3.53-4.44,5.24-4.24,4.74-10.64,8.16-8.17,16.54,1.19,4,1.09,8.48,1.11,12.74s-.67,8.31-.8,12.47c-.19,5.63-.21,11.27-.17,16.9,0,4,2,6.12,6.27,6,5.1-.16,10.3.47,15.28-.33,3.44-.55,8-2.11,9.52-4.71,2.18-3.6,2.54-8.57,2.76-13,.25-4.94-.57-9.92-.86-14.88-.46-7.92-1-15.84-1.25-23.76C431.49,200.32,431.65,193.36,431.65,186.4ZM187.34,470.31v-.12c5,0,10.11.37,15.11-.11,4.5-.44,9.38-1.55,9.86-7.34,1-12.5,1.95-25,2.51-37.53.66-14.9,1-29.82,1.28-44.73.14-6.29-.5-12.63,0-18.88.7-8.85-2.67-16.56-6.53-23.84-5.11-9.62-11.43-18.61-17.29-27.83-.36-.57-1.21-.82-1.83-1.23a8.13,8.13,0,0,0-.45,1.76c-.1,3.31.08,6.64-.33,9.91a4.75,4.75,0,0,1-2.64,3,76.26,76.26,0,0,1-8.68,2.78c-1.52.44-3.1.71-4.66,1.05-.15-1.3-.23-2.63-.48-3.92s-.55-3.54-1-3.58c-6.74-.6-13.5-.91-20.26-1.27-1.44-.08-2.89,0-4.31-.17-5.27-.67-9.68-1.6-8.82-9,.63-5.45-.56-11.11-1-16.67a5.77,5.77,0,0,0-.7-1.68,9.22,9.22,0,0,0-.52,1.75c-.46,4.47-.76,9-1.41,13.42a4.87,4.87,0,0,1-2.18,3.27,47.18,47.18,0,0,1-8.35,3c-8.09,2.16-16.23,4.11-24.32,6.26-1.15.31-2.7,1-3.09,1.92-1.24,2.91-1.93,6-3,9.05-1.46,4.22-3.12,8.38-4.54,12.62-1.62,4.79-3.58,9.55-4.44,14.49-.93,5.3-5.72,10-3,15.78.94,2,2.92,3.58,4.53,5.26.28.29,1.31-.07,1.52.21a9.51,9.51,0,0,1,.9,2.28c-1.23-.17-2.9.1-3.62-.6-2.2-2.14-4-4.65-6-7a9.45,9.45,0,0,0-.79-.76c-.16.49-.59,1.1-.44,1.46,1.8,4.07,1.53,9.44,7,11.25a2.24,2.24,0,0,1,1.11,1.8c0,.47-1.39,1.33-1.48,1.26q-3.44-3.06-6.7-6.31a6.43,6.43,0,0,1-.92-1.6c-.11.74-.56,1.69-.26,2.18a52.1,52.1,0,0,0,3.55,4.83c.43.55,1,.94,1.44,1.51.13.19-.22,1-.33,1-.79,0-1.92.12-2.31-.34a62.59,62.59,0,0,1-4-5.4c-.45-.66-.65-1.85-1.18-2a2.61,2.61,0,0,0-2.19.91c-3.73,5.14-7.51,10.25-11,15.56-4.55,7-9,14-13.17,21.21-3.4,5.88-6.4,12-9.38,18.1-2.55,5.22-4.67,10.64-7.22,15.84-2.65,5.39-6.1,10.44-8.18,16-1.12,3-9.36,4.21-2.83,9.39.53.42,1.42.41,1.91.85,6.09,5.64,12.22,11.24,18.16,17,3.88,3.78,8.17,3.89,10,.42,2.35-4.39,5.41-8.39,8.21-12.52,3.6-5.31,7.54-10.41,10.77-15.94,2.34-4,3.09-9.08,5.8-12.76,3.58-4.87,8.16-9.08,12.7-13.14,6.25-5.6,13.76-10,19.09-16.36,6.86-8.15,12.29-17.56,17.94-26.67,2.67-4.3,4.39-9.18,6.59-13.77,2.08-4.34,4.4-8.58,6.31-13s3.53-9.12,5.29-13.68c2-5.17,4-10.33,6-15.47,1.52-3.86,3.08-7.71,4.71-11.52.18-.44.88-.67,1.34-1a6.41,6.41,0,0,1,.18,2.35c-2,5.75-4.19,11.43-6.06,17.22-.43,1.35-.45,3.85.34,4.41,7.89,5.55,11.5,13.7,13.24,22.57,1.53,7.76,2,15.76,2.56,23.68.67,9.56.86,19.16,1.39,28.74.22,4.06.79,8.09,1.19,12.13.88,8.76,1.72,17.52,2.7,26.27a2.69,2.69,0,0,0,1.79,1.88C177.5,470.38,182.42,470.31,187.34,470.31ZM140.61,291.23l-.35,0c.47,6.82.77,13.66,1.55,20.44.17,1.44,2,3.75,3.21,3.84,9.39.74,18.8,1.08,28.21,1.36a3.23,3.23,0,0,0,2.29-2.11c.63-4,1.64-8.21,1.2-12.18-1.17-10.57-3.52-21-4.43-31.61-.77-9-8-13.25-13.15-18.54-2.87-3-9.2-2.92-14-3.46-10.17-1.15-20.42-1.62-30.6-2.71a79,79,0,0,1-14.71-2.93c-3.35-1-6.12-3.91-7.08,2.48-.79,5.22-4.2,10.24-4.16,15.33.08,10.77,1.57,21.55,2.66,32.3.63,6.28,1.6,12.53,2.44,18.8a4.6,4.6,0,0,0,.66,2.1c1.52,2,13.2,2.29,16.27,1.08,5.73-2.26,11.7-3.93,17.47-6.12,1.69-.64,4.08-1.95,4.38-3.35,1.29-5.83,2-11.8,2.74-17.74.62-4.86.94-9.75,1.56-14.61.1-.75,1.07-1.39,1.64-2.08.27.44.75.86.79,1.31C139.67,279,140.13,285.11,140.61,291.23Zm242.58,33.43c6.18-1,11.61-1.91,17-2.9.37-.07.83-.86.87-1.35.48-5.07.85-10.15,1.33-15.21.08-.75.81-1.46.83-2.19.06-2.45.67-6.69-.24-7.06a17.52,17.52,0,0,1-9.93-8.89c-3.28-6.2-2.05-10.44,1.22-15.5a35.92,35.92,0,0,0,4.06-9.23c.21-.73-2.53-3.32-3-3.1-6.84,3.18-13.29,7.28-20.29,10-8.91,3.45-18.23,5.83-27.36,8.7-1.59.49-3.78.71-4.49,1.83-.53.84.82,2.92,1.4,4.41,1.92,4.93,4.37,9.71,5.67,14.79,1.53,6,2,12.3,3.12,18.45a2.91,2.91,0,0,0,1.68,2C364.65,321.27,374.25,323,383.19,324.66ZM196.25,36.89a45.49,45.49,0,0,1-1.33-6.37c-.71-9-6.15-15.12-13.67-18-6.35-2.45-13.84-2.86-20.77-2.59-3.82.15-8.2,2.84-11.09,5.66a42.25,42.25,0,0,0-9.09,13.05c-2.79,6.43-4.36,13.4-6.21,20.21A43.71,43.71,0,0,0,133,57c-.11,1.37,0,3.9.39,4a77.39,77.39,0,0,0,12,1.56c1.09.05,2.13-1.82,3.39-2.37,5.22-2.27,11.49-3,8.26-12-1.2-3.31,2.94-6.59,7.16-7,4.5-.46,6.2,2.29,6.6,6.32,0,.47.71,1,1.21,1.22.24.1,1.06-.46,1.13-.81,1.37-7.34,10.93-11.39,17.44-7.46,1.47.89,3.32,1.16,5,1.72Zm112-.7c-4.19-1-5.43.69-4.79,4.48.11.63-.36,1.35-.48,2a98.25,98.25,0,0,0-1.7,11.23c-.08,1.57,1.41,3.18,2,4.83.82,2.24,2,4.53,2,6.82.05,2.54-1.59,5.12-1.46,7.63.14,2.85,1.81,5.61,2.13,8.48.62,5.55,4.11,7.73,8.93,7.45,5.57-.33,11.08-1.6,16.63-2.37a8.49,8.49,0,0,1,2.53.45,14.41,14.41,0,0,1-1.59,2.17c-1.09,1-3.08,1.77-3.35,2.94-1.17,5-1.66,10.16-2.77,15.17-.93,4.19-2.41,8.26-3.55,12.4a6.57,6.57,0,0,0,.2,2.17c.22-.14.54-.23.64-.42,1.31-2.57,2.53-5.18,3.88-7.71,3-5.5,5.44-11.34,9.08-16.35,4.8-6.62,10.54-12.56,15.8-18.86a19.07,19.07,0,0,0,1.87-3.59,31.45,31.45,0,0,1-3.2-1A28.86,28.86,0,0,1,346,71.53C338.12,66,336.08,57.69,340,49.3c.65-1.39.31-3.45-.14-5-.14-.47-2.59-.9-3.36-.4A7.81,7.81,0,0,0,334,47.43c-.84,2-.8,4.68-2.16,6s-4.64,2-5.73,1.21c-1.75-1.31-2.65-4-3.4-6.32-.6-1.83.07-4.16-.72-5.85C319.25,36.54,313.31,37,308.29,36.19Zm18.2,60c-.24-.68-.42-1.2-.61-1.71a5.83,5.83,0,0,0-1.72,1c-2.52,2.91-4.86,6-7.47,8.83A55.29,55.29,0,0,0,302.42,132c-.91,4.84-1.95,9.66-2.74,14.52q-2.54,15.64-4.83,31.34c-.9,6.26-1.34,12.59-2.3,18.83-1.62,10.57-3.3,21.13-5.32,31.62-.9,4.63-2.68,9.09-4.09,13.62-2,6.37-4.05,12.73-6,19.12a1.7,1.7,0,0,0,.57,1.49c4.1,2.83,8.24,5.58,12.39,8.33a2.1,2.1,0,0,0,1.29.42c.25,0,.61-.54.66-.87a79.69,79.69,0,0,0,1.35-9.4c.94-23.8-2.44-47.83,4-71.3.83-3,1.82-6,2.88-8.95,1.86-5.16,3.76-10.3,5.79-15.4C308,160.65,310,156,312,151.31c1.87-4.41,4.15-8.7,5.47-13.27,1.11-3.85,1-8,1.6-12a62.07,62.07,0,0,1,1.37-6.75C322.41,111.54,324.47,103.85,326.49,96.19ZM2.22,512.34c-1,7.15,3.11,9.52,9.36,9.58,8.75.1,16.25,3,23.64,7.37a55.41,55.41,0,0,0,15.54,6.5c2.41.57,5.65-2,8.38-3.46a25.52,25.52,0,0,0,4-3.13A19.84,19.84,0,0,0,59.8,526c-5.81-3.52-12.09-6.39-17.47-10.45-3.62-2.73-7.74-6.3-4.75-12.31.83-1.68,1.22-4.83.26-5.93-4.43-5-9.36-9.55-14.23-14.14a22.92,22.92,0,0,0-4.25-2.58c-.2,1.48,0,3.18-.67,4.42A58.12,58.12,0,0,1,13,494.08C8.56,499.69,1.79,503.86,2.22,512.34ZM194.8,45.15A28.55,28.55,0,0,1,190,43a9.17,9.17,0,0,0-14.36,6c-.19,1.22-1.87,2.45-3.15,3.16-.57.3-2.27-.45-2.72-1.18-.8-1.29-.9-3-1.55-4.39-.47-1-1.22-2.41-2.09-2.62a5.85,5.85,0,0,0-4.11.56c-3,1.82-3.34,4.07-1.58,7.46,1.94,3.73-2.76,8.26-8.76,9.52-1.67.34-3.07,2-4.59,3a14.28,14.28,0,0,1,1.54,1c6.19,5,12.94,9.53,18.37,15.28,5.24,5.56,9.89,7.77,15.52,3.19,2.95-2.4,3.77-7.26,6-10.69,1.43-2.16,3.77-3.71,5.67-5.57.38-.37.91-1,.83-1.36-.76-3.51-2.2-7-2.32-10.51C192.59,52.64,193.89,49.45,194.8,45.15Zm74.84,454.21c-.61-2.72-.36-6.35-2-7.94-2.12-2-5.75-2.65-8.85-3.31-4-.86-8.11-1-12.14-1.73-1.89-.33-3.64-1.37-5.51-1.85-2.94-.76-5.47-1-8.15,1.69a31.26,31.26,0,0,1-10.28,6.67c-4.87,1.92-10.25,2.51-15.25,4.17-3.5,1.17-5.19,7.58-2.54,8.42,5.36,1.72,11.12,3.16,16.67,3,7.93-.17,15.8-2.28,23.74-2.71,5.91-.32,11.92,1.31,17.81.92C266.52,506.51,270.13,504.3,269.64,499.36ZM280.42,43.47a10.79,10.79,0,0,0-1.92,1.22c-5.93,5.71-6,13.23-6.43,20.67a46.77,46.77,0,0,1-1.15,7.22c-.43,2-2.23,4.58-1.53,5.65,4.15,6.29,8.84,12.22,13.38,18.25a10,10,0,0,0,1.66,1.43c.49-.86,1-1.69,1.45-2.58,1.16-2.49,2-5.16,3.45-7.47,2.06-3.32,4.61-6.32,6.8-9.56s4.5-6.22,5.86-9.68c.91-2.3,4.44-5.65-.71-7.85-.72-.3-.88-1.82-1.38-2.73-1.67-3-3.29-6.09-5.09-9A10,10,0,0,0,292,46c-1.6-1.06-4.85-2.65-5-2.46-2.28,3.55-4.23,7.32-6.19,11.07-.71,1.35-1.29,2.77-1.94,4.16-.45-.58-1.4-1.3-1.28-1.71.82-2.8,1.86-5.53,2.83-8.29.51-1.49,1-3,1.45-4.49A8.8,8.8,0,0,0,280.42,43.47Zm191,485.88a87.08,87.08,0,0,0-5-9.64c-.83-1.26-3.32-2.52-4.63-2.17a78.18,78.18,0,0,0-13,4.72c-3.3,1.53-7.7,1.75-7.41,7.75.19,4.06-2.67,8.18-3.08,12.38-.32,3.2.84,9.31,1.76,9.39,5.08.44,10.3-.49,15.45-1.1,2.16-.26,4.5-.43,6.38-1.39C469.64,545.33,469.2,537.35,471.43,529.35ZM188.1,473.26l0-.56c-3.84,0-7.68-.09-11.51.1-.59,0-1.49,1.34-1.6,2.15-.48,3.53-.75,7.1-1.05,10.66-.2,2.29-.36,4.58-.37,6.88a3.37,3.37,0,0,0,2,.46c3.78-.76,7.55-2.47,11.27-2.34,7.88.29,15.72,2,23.59,2.19,4.69.11,9.43-1.48,14.12-2.45.69-.15,1.22-1.11,1.79-1.72a1.27,1.27,0,0,0-.49-.55c-3.33-1.36-6.72-2.57-10-4-5.17-2.33-10.54-4.54-11-11.49,0-.33-1.16-.9-1.74-.84C198.1,472.16,193.1,472.73,188.1,473.26Zm73.2-182c-1.45,7.71,5.13,9.32,9.37,10.24,10.33,2.23,13.64-1.71,15.19-11.5.55-3.47,1.79-6.84,2.29-10.31.36-2.57,1.1-6.54-.21-7.62-3.54-2.93-7.38-8.89-13-3-3,3.17-6,6.74-7.77,10.69-1,2.2.54,5.57,1.15,8.37a14.44,14.44,0,0,0,1.76,3.76c.07.11,1.38-.19,1.4-.38.18-1.52.66-3.24.15-4.55-1.45-3.74-2-7.25,1.95-9.57,1.41-.83,3.54-.46,5.35-.53.16,0,.61,1,.49,1.09-.83.94-1.9,1.68-2.64,2.68-1.22,1.64-2.69,3.3-3.24,5.19-.59,2,.13,4.49-.49,6.53-.3,1-2.34,1.85-3.65,1.95-.78.05-2.08-1.33-2.44-2.33-.74-2-.88-4.21-1.49-6.27a12.32,12.32,0,0,0-1.68-2.74c-.18.19-.46.36-.52.59C262.61,286,262,288.63,261.3,291.22Zm74.93,24c-1.14-3-1.69-4.12-2-5.33-2.23-8.22-4.39-16.46-6.59-24.7-.65-2.39-6-4.27-7.9-2.73-2.79,2.27-5.79,4.36-8.17,7-1.72,1.9-4.21,5.44-3.52,6.74,1.71,3.21,4.78,5.91,7.79,8.16,4.79,3.56,9.92,6.68,15,9.78C332.06,314.9,333.75,314.79,336.23,315.25ZM410,266.54l0-.2c-2.94.16-7-.83-8.61.72-3.6,3.54-6,8.32-8.8,12.65-.27.42.06,1.23.11,1.86a5.47,5.47,0,0,0,1.07-1c.84-1.4,1.48-2.93,2.44-4.23a27.13,27.13,0,0,1,3.05-3,24.23,24.23,0,0,1-.58,3.1c-1.42,4.43-5.72,9.23-1.09,13.33,2.63,2.34,7.31,2.86,11.14,3.09,1.58.1,4.19-2.43,4.84-4.29,2.06-5.94,3.48-12.12,5-18.23.6-2.37.46-4.36-3-3.82A36.82,36.82,0,0,1,410,266.54Zm15.91,45.86c-.91-3.2-1.56-4.87-1.84-6.59-1.36-8.34-2.62-16.7-3.93-25.05a5.38,5.38,0,0,0-.57-1.25c-.25.43-.52.85-.73,1.3-1.79,3.93-2.94,8.37-5.56,11.63-1.83,2.27-3.85,3.75-3.09,7,.53,2.27.73,4.61,1.14,6.92a60.86,60.86,0,0,0,1.62,7.95c.25.79,1.94,1.65,2.9,1.59a23.24,23.24,0,0,0,5.88-1.41A34.67,34.67,0,0,0,425.93,312.4ZM72.22,166.26c3,2.7,5.69,5.25,8.51,7.72a10.44,10.44,0,0,0,2.36,1.19,9,9,0,0,0,.08-1.93c-.8-4.48-1.57-9-2.55-13.43-.24-1.07-1.26-2-1.91-2.94C76.76,159.69,74.8,162.51,72.22,166.26Zm16.17,42.91c-.49-4.14-.86-7.41-1.3-10.66a1.7,1.7,0,0,0-.77-.93,3.84,3.84,0,0,0-1.58,1.16,28.09,28.09,0,0,0-2.43,4.6c-.68,1.77-5.39,3.57-.2,5.53,1.91.73,3.91,1.25,5.87,1.87ZM293,279.09l-1.29-2.3c-.62,1.42-1.3,2.82-1.79,4.29-.13.39.36,1,.56,1.47C291.28,281.4,292.12,280.25,293,279.09Z"/><path class="cls-1" d="M211,172.8c-4.38,0-8.9.69-13.1-.16a212.76,212.76,0,0,1-22.24-6.11c-4.17-1.32-8-3.49-12.17-5-.61-.23-1.77,1-2.67,1.62.76.27,1.55.49,2.28.83,3.88,1.79,7.73,3.67,11.64,5.4,2.87,1.27,5.82,2.33,8.74,3.51a14,14,0,0,1,1.27.66c-.27.5-.42,1.17-.83,1.48-1.94,1.49-4,2.83-5.92,4.35-.43.35-.45,1.22-.66,1.85.69,0,1.52.15,2.06-.15,4-2.2,7.83-4.66,11.91-6.62.63-.3,3.33,1.61,3.26,2.32q-1.41,14.64-3.44,29.24c-.63,4.55-1.12,9.33-2.91,13.46A61,61,0,0,1,179,234.56c-1.3,1.53-5.63.79-8.55.58a89.88,89.88,0,0,1-11.41-1.66c-9.48-1.92-19-3.8-28.39-6.08-8-1.94-15.85-4.3-23.7-6.7a127.08,127.08,0,0,1-14.18-5.17c-1-.43-1.32-2.7-1.58-4.19-.61-3.43-.9-6.91-1.46-10.35q-2.37-14.55-4.87-29.09c-.85-5-1.8-9.88-2.69-14.82-.51-2.79-.91-5.61-1.57-8.37a2.22,2.22,0,0,0-1.82-1.21c-.64.12-1.69,1.18-1.59,1.63,1.34,6.35-4.09,9.9-5.81,14.89-.71,2.08.77,5.64,2.37,7.62,2.36,2.9,5.83,4.88,8.62,7.48a8.27,8.27,0,0,1,2.1,3.81c2.31,8.76-1.2,16.19-6.78,22.21-6.13,6.61-14.37,9.6-23.57,9.53-5.45,0-7.11-4.06-8.65-8.09-2.13-5.58-4.12-11.23-6-16.91-3-9-8.56-17.54-6.69-27.5.82-4.34,3.35-8.47,5.61-12.4,3.45-6,7.17-11.87,11.13-17.55,1.71-2.43,4.52-4.06,6.48-6.35,6.55-7.69,13.16-15.34,19.33-23.33C79.65,97,82.8,90.45,87.41,85.18c2.82-3.23,7.16-5.65,11.28-7.11,8.65-3.07,17.63-5.18,26.39-7.95.82-.26,1.11-2.36,1.55-3.63,1.51-4.28,5.19-2.83,7.72-2.3a55.24,55.24,0,0,1,14.11,4.64,64.53,64.53,0,0,1,12.7,9c4.88,4.26,9,9.45,14,13.52,3.1,2.51,7.36,3.54,11,5.49a121.24,121.24,0,0,1,13.6,8c6.86,5,13.85,8.88,22.75,8.49a36.48,36.48,0,0,1,12.32,1.44c1.52.48,2.29,3.87,3,6,.41,1.18-.15,2.66.14,3.91.19.81,1.14,1.45,1.74,2.16.24-.69.79-1.45.67-2.07-.7-3.62-1.58-7.21-2.35-10.83-.12-.54-.19-1.49.07-1.65a3.37,3.37,0,0,1,2.35-.63c5.65,1.93,4.89,6.8,5.06,11.26,0,.6.53,1.18.82,1.78.51-.58,1.45-1.14,1.46-1.72.13-4.72,0-9.32-4.34-12.67-.44-.34.3-3,1.17-4.11,5.95-7.18,12.1-14.19,18.11-21.32.57-.68.53-1.83,1-2.65,3-5.49,5.13-.71,6.48,1.06,4.71,6.18,9,12.7,13.36,19.12,1.62,2.38,3,4.93,4.73,7.21,3.78,5-.19,7.87-2.7,11.31-3.38,4.63-6.41,9.53-9.87,14.11-2.18,2.89-4.91,5.37-7.31,8.11-5,5.74-9.38,12.25-15.15,17.09a51.9,51.9,0,0,1-17.9,9.84c-7.75,2.33-16.12,2.57-24.23,3.71ZM132,69.73l-2.71,1.09c.65.66,1.18,1.62,2,1.94,2.73,1.1,6,1.4,8.26,3,7.28,5.24,14.21,11,21.33,16.43a6.14,6.14,0,0,0,2.14.61c-.2-.81-.13-1.89-.64-2.37-3.89-3.68-7.53-7.81-12-10.72C144.45,75.82,137.85,72.85,132,69.73Zm18.14,155.08c4.87-.89,9.38-1.7,13.87-2.56a5.86,5.86,0,0,0,1.54-.85,4.67,4.67,0,0,0-1.58-.55c-5.26.38-10.51,1.18-15.77,1.17-6.16,0-12.32-.75-18.49-1.08a6.41,6.41,0,0,0-2.19.75c.3.56.52,1.53.92,1.6a68.23,68.23,0,0,0,9.29,1.46C142,225,146.21,224.81,150.14,224.81Zm-56-61.56,1.32.42q-1.5,4.92-3,9.84c-.9,3-1.83,5.89-2.67,8.86-.1.37.26.87.41,1.3.27-.26.69-.48.8-.8,2.11-6.46,4.37-12.88,6.15-19.43.47-1.7-.59-3.8-1-5.72Zm166-41.41c-1.18-3.3-2.14-6.21-3.31-9-.17-.42-1.32-.43-2-.63-.06.64-.4,1.47-.12,1.88,4.16,6.25,1.87,12.42,0,18.64a11.8,11.8,0,0,0,0,3.41c.37-.27.95-.46,1.07-.81C257.18,130.84,258.62,126.36,260.08,121.84Zm-216.57,58a7.4,7.4,0,0,0-1.51.82c-.12.11,0,.6.12.77,4.93,5.52,9.8,11.07,14.89,16.43.67.7,2.44.35,3.71.48a16.36,16.36,0,0,0-1.66-2.19c-3.89-3.67-7.91-7.2-11.7-11A38.52,38.52,0,0,1,43.51,179.87Zm97.19,25.56c5.8-3,11.76-6.12,17.7-9.25a17.5,17.5,0,0,0,2-1.53,11,11,0,0,0-3.38.19c-5.78,2.26-11.5,4.66-17.21,7.07a7.72,7.72,0,0,0-1.74,1.37ZM206.12,157l2.68-2.29c-.27-.3-.49-.76-.82-.86q-7.17-2.19-14.38-4.27a3.84,3.84,0,0,0-1.24.12c.06.53,0,1.43.21,1.54C196.92,153.15,201.32,155,206.12,157Zm-149.6,3.39a8.37,8.37,0,0,0,2.35-1.51c1.94-2.47,3.74-5.06,5.52-7.65.12-.18-.36-.76-.55-1.16-.26.25-.53.49-.78.75q-3.53,3.57-7,7.16c-.53.54-1,1.16-1.46,1.74Zm14-18.87,3.2-.79c-.11-.23-.18-.66-.32-.68-3.2-.45-6.42-.87-9.64-1.25-.16,0-.37.33-.56.51.2.17.38.44.62.5C66,140.37,68.14,140.91,70.54,141.51Z"/><path class="cls-1" d="M466.41,503.7c-.77,3.66-.49,7.83-2.44,10.08-2.09,2.42-6.32,2.94-9.54,4.46-6,2.82-11.86,5.87-17.93,8.51-.7.3-2.86-1.21-3.38-2.32-2-4.3-3.46-8.83-5.36-13.17-2.12-4.88-4.59-9.61-6.74-14.48-2.91-6.6-5.8-13.21-8.43-19.93a147.62,147.62,0,0,1-5.56-16.3c-1.48-5.61-2.26-11.41-3.3-17.13-.06-.32.25-.7.4-1.06a4.79,4.79,0,0,1,1.08.48c1.93,1.53,3.78,3.17,5.78,4.61a10.8,10.8,0,0,0,2.88,1,12.66,12.66,0,0,0-1.73-3.26c-7.5-7.52-15.66-14.48-22.47-22.57-6.1-7.25-10.91-15.63-16-23.71-4.21-6.73-8.22-13.63-11.85-20.7-4.38-8.55-8.38-17.3-12.27-26.08-.71-1.61,0-3.8-.18-5.7a1.89,1.89,0,0,0-1.15-1.36c-5.72-1-11.47-1.85-17.2-2.82-.37-.06-.59-.94-1-1.05-1.49-.41-3-.65-4.55-1,.83,1,1.48,2.55,2.52,2.88,5.67,1.79,2,4.63.42,6.24a231.41,231.41,0,0,1-18.32,17.81c-4.43,3.72-10.37,5.67-14.7,9.48-3.48,3.07-6.88,7.42-8,11.78-2.23,9-2.94,18.34-4.16,27.56-1.38,10.45-2.52,20.93-4,31.37q-2.28,16.5-5,32.94c-.92,5.68-9,7.07-14.58,6-3.67-.7-7.36-1.32-11-2.23-4.65-1.17-9.26-2.49-13.79-4-.65-.22-1.16-2-1.09-3,.86-11.87,1.93-23.74,2.75-35.62.57-8.18.64-16.41,1.29-24.59,1.13-14.25,2.57-28.48,3.8-42.73.51-6-.18-12.23,1.46-17.84,2-6.93,5.44-13.58,9.08-19.87,3.05-5.27,7.3-9.85,11-14.75,3.1-4.1,5.83-8.55,9.37-12.22,3.26-3.38,7.84-5.5,11-9,2.3-2.51,4.46-6.26,4.49-9.47,0-4.68,3.86-5.78,5.68-8.64.09-.14.38-.14.58-.2.16.61.65,1.38.45,1.82q-4,8.41-8.09,16.75c-1.92,3.88-4.06,7.66-5.8,11.62a30,30,0,0,0-2.49,8.36c-.13,1.16,1.46,3.17,2.73,3.72a64.1,64.1,0,0,0,11.47,3.75c.83.18,2.82-1.67,3.14-2.89,1.57-5.91,2.42-12,4.18-17.86,1-3.38,3.26-6.39,5-9.55.11-.2.78-.37.9-.25,4.78,4.52,9.26,9.4,14.37,13.5a30.58,30.58,0,0,0,11.12,5.64c5.08,1.31,6.16,4.51,6.31,8.84a40.43,40.43,0,0,1,.07,4.67c-.35,4.33,2.57,4.43,5.51,4.25s5.73-1,8.58-.93c5.06.15,3.65-3.13,3.41-5.82-.16-1.8-.5-3.59-.76-5.38,1.35.31,2.7.69,4.07.94,2.7.49,5.4,1,8.12,1.33,6.3.78,12.64,2.16,18.93,2,5.49-.16,11-1.93,16.34-3.48.9-.26,1.33-3,1.56-4.62,1-7.08,1.8-14.18,2.7-21.26a3.86,3.86,0,0,1,.53-1.08c.26.35.68.68.75,1.06.87,4.58,1.73,9.17,2.52,13.76.45,2.6.68,5.23,1.25,7.79.1.41,1.78,1,2.3.68,4.69-2.55,6.13-1.76,6.56,3.41.81,9.79,1.81,19.56,2.71,29.33.82,8.87,1.08,17.84,2.59,26.59,1.15,6.65,3.64,13.12,5.94,19.52,1.89,5.26,4.22,10.37,6.62,15.42,2.62,5.52,5.8,10.78,8.26,16.36,2.18,5,3.74,10.2,5.52,15.33,2.48,7.13,5,14.24,7.35,21.4a73.73,73.73,0,0,1,2.62,9.63C463.42,485.54,464.88,494.64,466.41,503.7ZM258.92,369.61l1.12,1.12c3.88-2.74,7.78-5.47,11.61-8.29a5.72,5.72,0,0,0-1-1.61c-.12-.13-.95.1-1.11.37a12.29,12.29,0,0,1-16.68,4.32c-.86-.52-2.2-.27-3.32-.28a1.29,1.29,0,0,0-.32,1c.21.5.58,1.17,1,1.29C253.11,368.3,256,368.94,258.92,369.61Zm137.71-3.2L394,368.58c4.74,4.38,9.45,8.78,14.28,13.05.39.34,1.63-.28,2.47-.46a7.57,7.57,0,0,0-1.18-1.83c-2.37-2-5-3.76-7.19-5.94A86,86,0,0,1,396.63,366.41Zm-81.2-29.8,2-1.08c-.71-.89-1.41-1.8-2.14-2.68-2.74-3.31-5.42-6.69-8.3-9.88-.59-.65-2-.6-3-.88a8.1,8.1,0,0,0,.66,2,33.71,33.71,0,0,0,2.91,3.92C310.22,331,312.9,333.82,315.43,336.61Zm-70.34,80.72L244,418.45c3.14,4.15,6.24,8.33,9.48,12.4.24.31,1.38-.11,2.11-.19-.16-.7-.07-1.73-.51-2.06-3.56-2.68-6.86-5.39-7.29-10.34-.11-1.27-1.19-2.45-1.82-3.67Zm167,10.24c1.59-.54,2.75-.92,3.89-1.34.85-.3,1.67-.67,2.51-1l-3-.69c-3.24-.77-6.47-1.66-9.74-2.25a20.27,20.27,0,0,0-4.52.17c.15.33.23.85.47,1C405.22,424.85,408.74,426.23,412.09,427.57ZM310.5,342.48c-.39-.6-.62-1-.84-1.33a6.24,6.24,0,0,0-1,.76c-2.79,3.28-5.61,6.53-8.31,9.88a15.93,15.93,0,0,0-1.55,3.12c1.17-.59,2.61-.91,3.43-1.81,1.92-2.1,3.53-4.48,5.27-6.74Z"/><path class="cls-1" d="M211.91,176c6.94-.68,14-.92,20.79-2.13a41.18,41.18,0,0,0,26.89-16.79c4.58-6.17,10.46-11.36,15.36-17.32,3.18-3.86,5.54-8.37,8.45-12.46a65.69,65.69,0,0,1,6.38-7.91c4.39-4.52,2.71-9-.35-12.89-4.38-5.59-2-10.72.71-15.49,2.86-5.1,6.69-9.64,10.15-14.39a6.71,6.71,0,0,1,1.59-1.2c.26.68.54,1.35.76,2,1.19,3.69,1.28,8.84,3.81,10.72,3.18,2.36,8.33,2.17,12.66,2.79,1.77.25,3.65-.26,5.47-.42a41.77,41.77,0,0,1-2.29,3.67c-6.09,8-13,15.49-18.07,24.09-3.29,5.58-4.24,12.68-5.62,19.23-1.68,7.92-2.86,16-4,24-1,7.55-1.52,15.18-2.48,22.74-1.16,9.09-2.5,18.16-3.88,27.22a119.93,119.93,0,0,1-2.49,13c-1.27,4.76-3.1,9.36-4.61,14.06-1.41,4.41-2.62,8.88-4.13,13.26a84.29,84.29,0,0,1-4.23,10.54c-4,7.91-8.59,15.54-12.3,23.59-2.12,4.61-3.25,10,1.38,14.07a19,19,0,0,0,8.12,4.11c5.28,1.15.62,3.28.26,3.84-3.52,5.5-7.26,10.86-11.12,16.12-4.24,5.77-8.83,11.28-13,17.13a29.19,29.19,0,0,0-4.34,8.81,58,58,0,0,0-1.5,11.27c-.57,7.94-.89,15.91-1.41,23.86-.34,5.15-.9,10.29-1.25,15.45-.9,13.09-1.63,26.19-2.61,39.28q-1,14-2.57,28c-.36,3.3-1.46,6.52-2.16,9.79-.1.5.23,1.08.29,1.63.21,2,.39,4,.59,6-2.05-.11-4.24.19-6.13-.43-3.8-1.26-7.79-2.51-11-4.74-2.69-1.86-4.46-5.09-6.48-7.83-.12-.16,1.07-1.38,1.74-2,1.43-1.38,3.51-2.45,4.24-4.12a21.39,21.39,0,0,0,1.3-7.39c.63-12.06,1.21-24.12,1.66-36.19q.67-18.54,1.08-37.08c.22-9.5.94-19.06.19-28.5a52.75,52.75,0,0,0-5.14-17.6c-3.68-7.86-8.31-15.3-12.81-22.75-2.87-4.77-6.6-9.05-9.24-13.93-1.15-2.11-.21-5.24-.78-7.79-2-8.87-4.29-17.67-6.19-26.55-.57-2.64-.91-5.75-.06-8.2,2.55-7.41-2.77-13-3.55-19.55-.3-2.57,2.52-5.5,3.91-8.28,2.35-4.68,5.66-9.13,6.82-14.09,2.61-11.07,4.14-22.39,6.1-33.61a3.89,3.89,0,0,0,.12-1.43c-1.63-7.52,2.13-9,8.57-7.88a37.57,37.57,0,0,0,6.28.05Z"/><path class="cls-1" d="M431.65,186.4c0,7-.16,13.92,0,20.88.24,7.92.79,15.84,1.25,23.76.29,5,1.11,9.94.86,14.88-.22,4.43-.58,9.4-2.76,13-1.57,2.6-6.08,4.16-9.52,4.71-5,.8-10.18.17-15.28.33C402,264.1,400,262,400,258c0-5.63,0-11.27.17-16.9.13-4.16.83-8.31.8-12.47s.08-8.73-1.11-12.74c-2.47-8.38,3.93-11.8,8.17-16.54,1.53-1.71,3.07-3.41,4.44-5.24.3-.4-.1-1.33-.17-2a10.71,10.71,0,0,0-1.78,1.21c-2.83,2.92-5.64,5.85-8.4,8.84a19.64,19.64,0,0,0-1.35,2.16c-3.25,4.53-4,0-4.47-1.6-2.8-8.84-5.49-17.72-7.77-26.7-1.64-6.48-2.19-13.24-3.92-19.69-1.88-6.94,3.68-10.75,5.74-16a14.71,14.71,0,0,0,.62-2.39c0-.12-.54-.49-.58-.46a8,8,0,0,0-1.79,1.73c-1.45,2.5-2.76,5.07-4.15,7.6-.08.15-.35.19-.54.28-.11-.32-.38-.68-.32-1,.57-2.63,1.22-5.25,1.79-7.89a15,15,0,0,0,.34-2.91c0-.11-1.29-.44-1.37-.3a10.63,10.63,0,0,0-.89,2.26c-.58,1.75-1.06,3.54-1.74,5.25-.2.5-.94.79-1.43,1.17a9.47,9.47,0,0,1-.65-1.72c-.88-5.47-1.72-10.94-2.6-16.41,0-.27-.37-.49-.56-.73-.19.32-.54.62-.56,1-.64,8.37.22,16.28,4.48,23.92,2,3.62,2.09,8.37,2.89,12.64,1.84,9.79,3.12,19.72,5.53,29.37,1.43,5.71,5.19,10.82,6.79,16.51a84.17,84.17,0,0,1,2.83,18.36c.51,10.08-1.87,13.36-11.26,17.22-6.42,2.65-12.84,5.3-19.39,7.58-8,2.78-16,5.43-24.2,7.62a103,103,0,0,1-15.28,2.41c-5.71.63-11.47.85-17.19,1.34-4.21.36-8.4,1-12.62,1.19a3.31,3.31,0,0,1-2.37-2.18,131.49,131.49,0,0,1-1-14.56c0-5.87.56-11.73.85-17.59.52-10.5.27-21.11,1.8-31.46,1.11-7.53,4.49-14.73,7-22,2.05-5.93,4.14-11.85,6.52-17.65,2.65-6.44,5.84-12.65,8.45-19.11,2.08-5.15,3.39-10.62,5.51-15.76,2-4.79,4.48-9.38,6.89-14a90.06,90.06,0,0,1,5.29-9.14,108.23,108.23,0,0,1,8-10.49c5.54-6.31,11.1-12.64,17.09-18.52,4-3.93,5.62,1,6.74,3.18,2.7,5.39,6.76,8.48,12.12,11.14a70.77,70.77,0,0,1,17,11.79,145.3,145.3,0,0,1,18.74,21.09c4.11,5.77,6.91,12.68,9.25,19.45C431.73,153.73,432.09,170.05,431.65,186.4ZM317.72,247.55l-.46-1.41c-.5.39-1.31.69-1.45,1.18-.77,2.76-1.38,5.58-2.06,8.37-.12.5-.31,1-.47,1.48-.18-.1-.44-.16-.53-.31-2.18-3.78-5.15-7.34-6.32-11.41-1.94-6.78-2.7-13.88-4-20.84-.09-.49-.64-.89-1-1.33-.47.43-1.36.91-1.32,1.29.15,1.55.8,3.07.87,4.62.43,10.16,3.18,19.57,9.17,27.84,1,1.33,3.22,1.74,4.88,2.58C315.9,255.71,316.77,251.82,317.72,247.55ZM366,80.89c-1.74,1-3.18,1.37-3.86,2.29q-9,12.1-17.65,24.42c-.54.76-.33,2.06-.46,3.11.86-.48,2-.76,2.54-1.49,1.47-2.1,2.51-4.52,4-6.58,4.4-5.89,8.95-11.68,13.48-17.48.69-.87,1.73-1.46,2.42-2.34C366.67,82.57,366.22,81.81,366,80.89Zm-46.18,69.39c.31,1.15.47,1.75.64,2.34.43-.36,1-.64,1.26-1.1.59-1.25.91-2.63,1.52-3.87q3.45-7.05,7-14.05c1.57-3.06,3.29-6,4.89-9.08.57-1.1,1-2.29,1.45-3.44-.65,0-1.69-.19-1.91.14a71.48,71.48,0,0,0-4.43,7.11c-2,3.8-3.8,7.7-5.65,11.59C322.91,143.46,321.28,147,319.78,150.28Zm15.84,88.35c.3,0,.6,0,.75-.15q7.78-7.28,15.52-14.59c.34-.33.33-1,.48-1.53-.64,0-1.51-.24-1.87.08q-7.61,6.87-15.07,13.9a6.24,6.24,0,0,0-.93,1.86Zm35.69-33.72c-.55-1.06-.65-1.5-.93-1.7s-.71,0-.93.2q-5,4.41-9.88,8.87c-.36.32-.9.75-.88,1.11a9.31,9.31,0,0,0,.61,2.19c1.92-1.66,3.85-3.3,5.75-5C367.18,208.7,369.28,206.76,371.31,204.91Zm-48.24,20c-.38-1.19-.64-2-.89-2.76-.36.66-.75,1.31-1.07,2a33.56,33.56,0,0,0-2.1,4.67,9.63,9.63,0,0,0,.13,3.1c.29-.08.76-.08.85-.26C321.07,229.38,322.1,227.07,323.07,224.93ZM380,160.23c-.63-.28-1.31-.72-1.43-.6a34.14,34.14,0,0,0-3.94,4.31c-.38.54.07,1.68.13,2.54Z"/><path class="cls-1" d="M187.34,470.31c-4.92,0-9.84.07-14.75-.09a2.69,2.69,0,0,1-1.79-1.88c-1-8.75-1.82-17.51-2.7-26.27-.4-4-1-8.07-1.19-12.13-.53-9.58-.72-19.18-1.39-28.74-.55-7.92-1-15.92-2.56-23.68-1.74-8.87-5.35-17-13.24-22.57-.79-.56-.77-3.06-.34-4.41,1.87-5.79,4.07-11.47,6.06-17.22a6.41,6.41,0,0,0-.18-2.35c-.46.32-1.16.55-1.34,1-1.63,3.81-3.19,7.66-4.71,11.52-2,5.14-4,10.3-6,15.47-1.76,4.56-3.34,9.2-5.29,13.68s-4.23,8.66-6.31,13c-2.2,4.59-3.92,9.47-6.59,13.77-5.65,9.11-11.08,18.52-17.94,26.67-5.33,6.32-12.84,10.76-19.09,16.36-4.54,4.06-9.12,8.27-12.7,13.14-2.71,3.68-3.46,8.74-5.8,12.76-3.23,5.53-7.17,10.63-10.77,15.94-2.8,4.13-5.86,8.13-8.21,12.52-1.86,3.47-6.15,3.36-10-.42-5.94-5.79-12.07-11.39-18.16-17-.49-.44-1.38-.43-1.91-.85-6.53-5.18,1.71-6.4,2.83-9.39,2.08-5.57,5.53-10.62,8.18-16,2.55-5.2,4.67-10.62,7.22-15.84,3-6.1,6-12.22,9.38-18.1,4.16-7.2,8.62-14.24,13.17-21.21,3.47-5.31,7.25-10.42,11-15.56a2.61,2.61,0,0,1,2.19-.91c.53.14.73,1.33,1.18,2a62.59,62.59,0,0,0,4,5.4c.39.46,1.52.33,2.31.34.11,0,.46-.82.33-1-.39-.57-1-1-1.44-1.51a52.1,52.1,0,0,1-3.55-4.83c-.3-.49.15-1.44.26-2.18a6.43,6.43,0,0,0,.92,1.6q3.27,3.24,6.7,6.31c.09.07,1.45-.79,1.48-1.26a2.24,2.24,0,0,0-1.11-1.8c-5.5-1.81-5.23-7.18-7-11.25-.15-.36.28-1,.44-1.46a9.45,9.45,0,0,1,.79.76c2,2.36,3.81,4.87,6,7,.72.7,2.39.43,3.62.6a9.51,9.51,0,0,0-.9-2.28c-.21-.28-1.24.08-1.52-.21-1.61-1.68-3.59-3.23-4.53-5.26-2.71-5.8,2.08-10.48,3-15.78.86-4.94,2.82-9.7,4.44-14.49,1.42-4.24,3.08-8.4,4.54-12.62,1-3,1.72-6.14,3-9.05.39-.92,1.94-1.61,3.09-1.92,8.09-2.15,16.23-4.1,24.32-6.26a47.18,47.18,0,0,0,8.35-3,4.87,4.87,0,0,0,2.18-3.27c.65-4.45,1-8.95,1.41-13.42a9.22,9.22,0,0,1,.52-1.75,5.77,5.77,0,0,1,.7,1.68c.44,5.56,1.63,11.22,1,16.67-.86,7.43,3.55,8.36,8.82,9,1.42.18,2.87.09,4.31.17,6.76.36,13.52.67,20.26,1.27.44,0,.76,2.32,1,3.58s.33,2.62.48,3.92c1.56-.34,3.14-.61,4.66-1.05a76.26,76.26,0,0,0,8.68-2.78,4.75,4.75,0,0,0,2.64-3c.41-3.27.23-6.6.33-9.91a8.13,8.13,0,0,1,.45-1.76c.62.41,1.47.66,1.83,1.23,5.86,9.22,12.18,18.21,17.29,27.83,3.86,7.28,7.23,15,6.53,23.84-.5,6.25.14,12.59,0,18.88-.33,14.91-.62,29.83-1.28,44.73-.56,12.52-1.47,25-2.51,37.53-.48,5.79-5.36,6.9-9.86,7.34-5,.48-10.07.11-15.11.11Zm-128.67-4c-.65.14-1.23.1-1.55.36-6.31,5.19-12.46,10.6-21.15,11.47-1,.1-2,1.44-2.91,2.24a1.71,1.71,0,0,0,.32.68c4.44-1.24,9.08-2,13.23-3.95,3.73-1.7,7-4.52,10.32-7a24.72,24.72,0,0,0,3-3.18Zm48.63-88.44a17.38,17.38,0,0,0,3.61-1.58q8.81-6.76,17.45-13.75c.44-.37.32-1.43.46-2.17-.71.09-1.63-.07-2.12.31q-8.67,6.64-17.21,13.45a37.34,37.34,0,0,0-3.14,3.15Zm97.58,5.37.78-1.42a4.25,4.25,0,0,0,1.07,0,22.86,22.86,0,0,0,3.07-1c.15-.06,0-.87,0-1.33-.95.24-1.9.54-2.86.7a3.31,3.31,0,0,1-2,0c-4.75-2.65-9.42-5.45-14.19-8.06-.93-.51-2.2-.4-3.31-.57.26.68.32,1.69.81,2C193.76,376.81,199.33,380,204.88,383.21Zm-15,72.66a6.39,6.39,0,0,0-.25-1.66c-2.49-4.9-5-9.81-7.58-14.65-.25-.46-1.2-.55-1.83-.81-.1.59-.46,1.3-.26,1.74q3.63,7.72,7.46,15.35c.31.62,1.2,1,1.83,1.41Zm-100-31.73c2.63-.62,4.4-1,6.12-1.5.52-.16.87-.88,1.29-1.35a6.34,6.34,0,0,0-2-.4c-1.64.24-3.49,1.34-4.83.87-3.4-1.19-6.54-3.1-9.85-4.58-.61-.27-1.54.14-2.32.23.19.69.18,1.81.6,2C82.67,421.15,86.5,422.72,89.85,424.14Z"/><path class="cls-1" d="M140.61,291.23c-.48-6.12-.94-12.25-1.46-18.37,0-.45-.52-.87-.79-1.31-.57.69-1.54,1.33-1.64,2.08-.62,4.86-.94,9.75-1.56,14.61-.75,5.94-1.45,11.91-2.74,17.74-.3,1.4-2.69,2.71-4.38,3.35-5.77,2.19-11.74,3.86-17.47,6.12-3.07,1.21-14.75.91-16.27-1.08a4.6,4.6,0,0,1-.66-2.1c-.84-6.27-1.81-12.52-2.44-18.8-1.09-10.75-2.58-21.53-2.66-32.3,0-5.09,3.37-10.11,4.16-15.33,1-6.39,3.73-3.51,7.08-2.48a79,79,0,0,0,14.71,2.93c10.18,1.09,20.43,1.56,30.6,2.71,4.85.54,11.18.51,14,3.46,5.17,5.29,12.38,9.51,13.15,18.54.91,10.59,3.26,21,4.43,31.61.44,4-.57,8.14-1.2,12.18a3.23,3.23,0,0,1-2.29,2.11c-9.41-.28-18.82-.62-28.21-1.36-1.21-.09-3-2.4-3.21-3.84-.78-6.78-1.08-13.62-1.55-20.44Zm-38.89-31.44a22.81,22.81,0,0,0-1-2.09s-.73.15-.81.36c-.52,1.39-.86,2.85-1.44,4.22-1.89,4.41-3.88,8.78-5.79,13.19-.55,1.28-1,2.63-1.37,4,0,.1.52.51.56.47a19.52,19.52,0,0,0,2.77-2.33,6.9,6.9,0,0,0,.82-2.08Z"/><path class="cls-1" d="M383.19,324.66c-8.94-1.65-18.54-3.39-28.12-5.27a2.91,2.91,0,0,1-1.68-2c-1.09-6.15-1.59-12.43-3.12-18.45-1.3-5.08-3.75-9.86-5.67-14.79-.58-1.49-1.93-3.57-1.4-4.41.71-1.12,2.9-1.34,4.49-1.83,9.13-2.87,18.45-5.25,27.36-8.7,7-2.71,13.45-6.81,20.29-10,.47-.22,3.21,2.37,3,3.1a35.92,35.92,0,0,1-4.06,9.23c-3.27,5.06-4.5,9.3-1.22,15.5A17.52,17.52,0,0,0,403,296c.91.37.3,4.61.24,7.06,0,.73-.75,1.44-.83,2.19-.48,5.06-.85,10.14-1.33,15.21,0,.49-.5,1.28-.87,1.35C394.8,322.75,389.37,323.63,383.19,324.66Z"/><path class="cls-1" d="M196.25,36.89l-.62,5.31c-1.67-.56-3.52-.83-5-1.72-6.51-3.93-16.07.12-17.44,7.46-.07.35-.89.91-1.13.81-.5-.21-1.17-.75-1.21-1.22-.4-4-2.1-6.78-6.6-6.32-4.22.42-8.36,3.7-7.16,7,3.23,8.92-3,9.69-8.26,12-1.26.55-2.3,2.42-3.39,2.37a77.39,77.39,0,0,1-12-1.56c-.39-.08-.5-2.61-.39-4a43.71,43.71,0,0,1,1.05-8.18c1.85-6.81,3.42-13.78,6.21-20.21a42.25,42.25,0,0,1,9.09-13c2.89-2.82,7.27-5.51,11.09-5.66,6.93-.27,14.42.14,20.77,2.59,7.52,2.9,13,9,13.67,18A45.49,45.49,0,0,0,196.25,36.89Z"/><path class="cls-1" d="M308.29,36.19c5,.84,11,.35,13.73,6.28.79,1.69.12,4,.72,5.85.75,2.29,1.65,5,3.4,6.32,1.09.82,4.47,0,5.73-1.21s1.32-4,2.16-6a7.81,7.81,0,0,1,2.48-3.56c.77-.5,3.22-.07,3.36.4.45,1.58.79,3.64.14,5C336.08,57.69,338.12,66,346,71.53a28.86,28.86,0,0,0,5.19,2.58,31.45,31.45,0,0,0,3.2,1,19.07,19.07,0,0,1-1.87,3.59c-5.26,6.3-11,12.24-15.8,18.86-3.64,5-6.13,10.85-9.08,16.35-1.35,2.53-2.57,5.14-3.88,7.71-.1.19-.42.28-.64.42a6.57,6.57,0,0,1-.2-2.17c1.14-4.14,2.62-8.21,3.55-12.4,1.11-5,1.6-10.17,2.77-15.17.27-1.17,2.26-1.9,3.35-2.94a14.41,14.41,0,0,0,1.59-2.17,8.49,8.49,0,0,0-2.53-.45c-5.55.77-11.06,2-16.63,2.37-4.82.28-8.31-1.9-8.93-7.45-.32-2.87-2-5.63-2.13-8.48-.13-2.51,1.51-5.09,1.46-7.63,0-2.29-1.22-4.58-2-6.82-.6-1.65-2.09-3.26-2-4.83A98.25,98.25,0,0,1,303,42.71c.12-.69.59-1.41.48-2C302.86,36.88,304.1,35.16,308.29,36.19Z"/><path class="cls-1" d="M326.49,96.19c-2,7.66-4.08,15.35-6.07,23a62.07,62.07,0,0,0-1.37,6.75c-.57,4-.49,8.2-1.6,12-1.32,4.57-3.6,8.86-5.47,13.27-2,4.68-4,9.34-5.89,14.06-2,5.1-3.93,10.24-5.79,15.4-1.06,2.94-2.05,5.93-2.88,8.95-6.46,23.47-3.08,47.5-4,71.3a79.69,79.69,0,0,1-1.35,9.4c-.05.33-.41.85-.66.87a2.1,2.1,0,0,1-1.29-.42c-4.15-2.75-8.29-5.5-12.39-8.33a1.7,1.7,0,0,1-.57-1.49c1.95-6.39,4-12.75,6-19.12,1.41-4.53,3.19-9,4.09-13.62,2-10.49,3.7-21.05,5.32-31.62,1-6.24,1.4-12.57,2.3-18.83q2.26-15.69,4.83-31.34c.79-4.86,1.83-9.68,2.74-14.52a55.29,55.29,0,0,1,14.27-27.74c2.61-2.83,4.95-5.92,7.47-8.83a5.83,5.83,0,0,1,1.72-1C326.07,95,326.25,95.51,326.49,96.19Z"/><path class="cls-1" d="M2.22,512.34c-.43-8.48,6.34-12.65,10.79-18.26A58.12,58.12,0,0,0,18.69,485c.66-1.24.47-2.94.67-4.42a22.92,22.92,0,0,1,4.25,2.58c4.87,4.59,9.8,9.15,14.23,14.14,1,1.1.57,4.25-.26,5.93-3,6,1.13,9.58,4.75,12.31C47.71,519.57,54,522.44,59.8,526a19.84,19.84,0,0,1,3.31,3.24,25.52,25.52,0,0,1-4,3.13c-2.73,1.42-6,4-8.38,3.46a55.41,55.41,0,0,1-15.54-6.5c-7.39-4.37-14.89-7.27-23.64-7.37C5.33,521.86,1.26,519.49,2.22,512.34Z"/><path class="cls-1" d="M194.8,45.15c-.91,4.3-2.21,7.49-2.09,10.64.12,3.52,1.56,7,2.32,10.51.08.38-.45,1-.83,1.36-1.9,1.86-4.24,3.41-5.67,5.57-2.27,3.43-3.09,8.29-6,10.69-5.63,4.58-10.28,2.37-15.52-3.19C161.54,75,154.79,70.48,148.6,65.45a14.28,14.28,0,0,0-1.54-1c1.52-1,2.92-2.66,4.59-3,6-1.26,10.7-5.79,8.76-9.52-1.76-3.39-1.37-5.64,1.58-7.46a5.85,5.85,0,0,1,4.11-.56c.87.21,1.62,1.6,2.09,2.62.65,1.41.75,3.1,1.55,4.39.45.73,2.15,1.48,2.72,1.18,1.28-.71,3-1.94,3.15-3.16A9.17,9.17,0,0,1,190,43,28.55,28.55,0,0,0,194.8,45.15Z"/><path class="cls-1" d="M269.64,499.36c.49,4.94-3.12,7.15-6.54,7.38-5.89.39-11.9-1.24-17.81-.92-7.94.43-15.81,2.54-23.74,2.71-5.55.11-11.31-1.33-16.67-3-2.65-.84-1-7.25,2.54-8.42,5-1.66,10.38-2.25,15.25-4.17A31.26,31.26,0,0,0,233,486.22c2.68-2.65,5.21-2.45,8.15-1.69,1.87.48,3.62,1.52,5.51,1.85,4,.71,8.16.87,12.14,1.73,3.1.66,6.73,1.31,8.85,3.31C269.28,493,269,496.64,269.64,499.36Z"/><path class="cls-1" d="M280.42,43.47a8.8,8.8,0,0,1,1.51.76c-.42,1.51-.94,3-1.45,4.49-1,2.76-2,5.49-2.83,8.29-.12.41.83,1.13,1.28,1.71.65-1.39,1.23-2.81,1.94-4.16,2-3.75,3.91-7.52,6.19-11.07.12-.19,3.37,1.4,5,2.46a10,10,0,0,1,2.78,3c1.8,3,3.42,6,5.09,9,.5.91.66,2.43,1.38,2.73,5.15,2.2,1.62,5.55.71,7.85-1.36,3.46-3.74,6.54-5.86,9.68s-4.74,6.24-6.8,9.56c-1.44,2.31-2.29,5-3.45,7.47-.42.89-1,1.72-1.45,2.58a10,10,0,0,1-1.66-1.43c-4.54-6-9.23-12-13.38-18.25-.7-1.07,1.1-3.7,1.53-5.65a46.77,46.77,0,0,0,1.15-7.22c.45-7.44.5-15,6.43-20.67A10.79,10.79,0,0,1,280.42,43.47Z"/><path class="cls-1" d="M471.43,529.35c-2.23,8-1.79,16-9.51,19.94-1.88,1-4.22,1.13-6.38,1.39-5.15.61-10.37,1.54-15.45,1.1-.92-.08-2.08-6.19-1.76-9.39.41-4.2,3.27-8.32,3.08-12.38-.29-6,4.11-6.22,7.41-7.75a78.18,78.18,0,0,1,13-4.72c1.31-.35,3.8.91,4.63,2.17A87.08,87.08,0,0,1,471.43,529.35Z"/><path class="cls-1" d="M188.1,473.26c5-.53,10-1.1,15-1.55.58-.06,1.72.51,1.74.84.45,6.95,5.82,9.16,11,11.49,3.28,1.47,6.67,2.68,10,4a1.27,1.27,0,0,1,.49.55c-.57.61-1.1,1.57-1.79,1.72-4.69,1-9.43,2.56-14.12,2.45-7.87-.2-15.71-1.9-23.59-2.19-3.72-.13-7.49,1.58-11.27,2.34a3.37,3.37,0,0,1-2-.46c0-2.3.17-4.59.37-6.88.3-3.56.57-7.13,1.05-10.66.11-.81,1-2.12,1.6-2.15,3.83-.19,7.67-.1,11.51-.1Z"/><path class="cls-1" d="M261.3,291.22c.66-2.59,1.31-5.18,2-7.76.06-.23.34-.4.52-.59a12.32,12.32,0,0,1,1.68,2.74c.61,2.06.75,4.27,1.49,6.27.36,1,1.66,2.38,2.44,2.33,1.31-.1,3.35-1,3.65-1.95.62-2-.1-4.48.49-6.53.55-1.89,2-3.55,3.24-5.19.74-1,1.81-1.74,2.64-2.68.12-.14-.33-1.1-.49-1.09-1.81.07-3.94-.3-5.35.53-3.93,2.32-3.4,5.83-1.95,9.57.51,1.31,0,3-.15,4.55,0,.19-1.33.49-1.4.38a14.44,14.44,0,0,1-1.76-3.76c-.61-2.8-2.12-6.17-1.15-8.37,1.75-3.95,4.73-7.52,7.77-10.69,5.59-5.84,9.43.12,13,3,1.31,1.08.57,5.05.21,7.62-.5,3.47-1.74,6.84-2.29,10.31-1.55,9.79-4.86,13.73-15.19,11.5C266.43,300.54,259.85,298.93,261.3,291.22Z"/><path class="cls-1" d="M336.23,315.25c-2.48-.46-4.17-.35-5.37-1.07-5.11-3.1-10.24-6.22-15-9.78-3-2.25-6.08-4.95-7.79-8.16-.69-1.3,1.8-4.84,3.52-6.74,2.38-2.65,5.38-4.74,8.17-7,1.9-1.54,7.25.34,7.9,2.73,2.2,8.24,4.36,16.48,6.59,24.7C334.54,311.13,335.09,312.27,336.23,315.25Z"/><path class="cls-1" d="M410,266.54a36.82,36.82,0,0,0,5.56-.05c3.48-.54,3.62,1.45,3,3.82-1.55,6.11-3,12.29-5,18.23-.65,1.86-3.26,4.39-4.84,4.29-3.83-.23-8.51-.75-11.14-3.09-4.63-4.1-.33-8.9,1.09-13.33a24.23,24.23,0,0,0,.58-3.1,27.13,27.13,0,0,0-3.05,3c-1,1.3-1.6,2.83-2.44,4.23a5.47,5.47,0,0,1-1.07,1c-.05-.63-.38-1.44-.11-1.86,2.8-4.33,5.2-9.11,8.8-12.65,1.58-1.55,5.67-.56,8.61-.72Z"/><path class="cls-1" d="M425.93,312.4a34.67,34.67,0,0,1-4.18,2.09,23.24,23.24,0,0,1-5.88,1.41c-1,.06-2.65-.8-2.9-1.59a60.86,60.86,0,0,1-1.62-7.95c-.41-2.31-.61-4.65-1.14-6.92-.76-3.25,1.26-4.73,3.09-7,2.62-3.26,3.77-7.7,5.56-11.63.21-.45.48-.87.73-1.3a5.38,5.38,0,0,1,.57,1.25c1.31,8.35,2.57,16.71,3.93,25.05C424.37,307.53,425,309.2,425.93,312.4Z"/><path class="cls-1" d="M72.22,166.26c2.58-3.75,4.54-6.57,6.49-9.39.65,1,1.67,1.87,1.91,2.94,1,4.45,1.75,8.95,2.55,13.43a9,9,0,0,1-.08,1.93A10.44,10.44,0,0,1,80.73,174C77.91,171.51,75.18,169,72.22,166.26Z"/><path class="cls-1" d="M88.39,209.17,88,210.74c-2-.62-4-1.14-5.87-1.87-5.19-2-.48-3.76.2-5.53a28.09,28.09,0,0,1,2.43-4.6,3.84,3.84,0,0,1,1.58-1.16,1.7,1.7,0,0,1,.77.93C87.53,201.76,87.9,205,88.39,209.17Z"/><path class="cls-1" d="M293,279.09c-.85,1.16-1.69,2.31-2.52,3.46-.2-.49-.69-1.08-.56-1.47.49-1.47,1.17-2.87,1.79-4.29Z"/><path d="M132,69.73c5.85,3.12,12.45,6.09,18.41,10,4.42,2.91,8.06,7,12,10.72.51.48.44,1.56.64,2.37a6.14,6.14,0,0,1-2.14-.61C153.74,86.76,146.81,81,139.53,75.8c-2.3-1.64-5.53-1.94-8.26-3-.8-.32-1.33-1.28-2-1.94Z"/><path d="M150.14,224.81c-3.93,0-8.18.18-12.41-.06a68.23,68.23,0,0,1-9.29-1.46c-.4-.07-.62-1-.92-1.6a6.41,6.41,0,0,1,2.19-.75c6.17.33,12.33,1.06,18.49,1.08,5.26,0,10.51-.79,15.77-1.17a4.67,4.67,0,0,1,1.58.55,5.86,5.86,0,0,1-1.54.85C159.52,223.11,155,223.92,150.14,224.81Z"/><path d="M94.12,163.25l2.07-5.53c.36,1.92,1.42,4,1,5.72-1.78,6.55-4,13-6.15,19.43-.11.32-.53.54-.8.8-.15-.43-.51-.93-.41-1.3.84-3,1.77-5.91,2.67-8.86q1.5-4.92,3-9.84Z"/><path d="M260.08,121.84c-1.46,4.52-2.9,9-4.4,13.46-.12.35-.7.54-1.07.81a11.8,11.8,0,0,1,0-3.41c1.89-6.22,4.18-12.39,0-18.64-.28-.41.06-1.24.12-1.88.7.2,1.85.21,2,.63C257.94,115.63,258.9,118.54,260.08,121.84Z"/><path d="M43.51,179.87a38.52,38.52,0,0,0,3.85,5.33c3.79,3.78,7.81,7.31,11.7,11a16.36,16.36,0,0,1,1.66,2.19c-1.27-.13-3,.22-3.71-.48-5.09-5.36-10-10.91-14.89-16.43-.15-.17-.24-.66-.12-.77A7.4,7.4,0,0,1,43.51,179.87Z"/><path d="M140.7,205.43l-2.59-2.15a7.72,7.72,0,0,1,1.74-1.37c5.71-2.41,11.43-4.81,17.21-7.07a11,11,0,0,1,3.38-.19,17.5,17.5,0,0,1-2,1.53C152.46,199.31,146.5,202.41,140.7,205.43Z"/><path d="M206.12,157c-4.8-2-9.2-3.84-13.55-5.76-.25-.11-.15-1-.21-1.54a3.84,3.84,0,0,1,1.24-.12q7.2,2.09,14.38,4.27c.33.1.55.56.82.86Z"/><path d="M56.52,160.38l-2-.67c.49-.58.93-1.2,1.46-1.74q3.49-3.6,7-7.16c.25-.26.52-.5.78-.75.19.4.67,1,.55,1.16-1.78,2.59-3.58,5.18-5.52,7.65A8.37,8.37,0,0,1,56.52,160.38Z"/><path d="M70.54,141.51c-2.4-.6-4.55-1.14-6.7-1.71-.24-.06-.42-.33-.62-.5.19-.18.4-.53.56-.51,3.22.38,6.44.8,9.64,1.25.14,0,.21.45.32.68Z"/><path d="M258.92,369.61c-2.9-.67-5.81-1.31-8.69-2.07-.43-.12-.8-.79-1-1.29a1.29,1.29,0,0,1,.32-1c1.12,0,2.46-.24,3.32.28a12.29,12.29,0,0,0,16.68-4.32c.16-.27,1-.5,1.11-.37a5.72,5.72,0,0,1,1,1.61c-3.83,2.82-7.73,5.55-11.61,8.29Z"/><path d="M396.63,366.41a86,86,0,0,0,5.7,7c2.2,2.18,4.82,3.93,7.19,5.94a7.57,7.57,0,0,1,1.18,1.83c-.84.18-2.08.8-2.47.46-4.83-4.27-9.54-8.67-14.28-13.05Z"/><path d="M315.43,336.61c-2.53-2.79-5.21-5.66-7.8-8.6a33.71,33.71,0,0,1-2.91-3.92,8.1,8.1,0,0,1-.66-2c1,.28,2.38.23,3,.88,2.88,3.19,5.56,6.57,8.3,9.88.73.88,1.43,1.79,2.14,2.68Z"/><path d="M245.09,417.33l.84-2.74c.63,1.22,1.71,2.4,1.82,3.67.43,4.95,3.73,7.66,7.29,10.34.44.33.35,1.36.51,2.06-.73.08-1.87.5-2.11.19-3.24-4.07-6.34-8.25-9.48-12.4Z"/><path d="M412.09,427.57c-3.35-1.34-6.87-2.72-10.36-4.16-.24-.1-.32-.62-.47-1a20.27,20.27,0,0,1,4.52-.17c3.27.59,6.5,1.48,9.74,2.25l3,.69c-.84.33-1.66.7-2.51,1C414.84,426.65,413.68,427,412.09,427.57Z"/><path d="M310.5,342.48l-3,3.88c-1.74,2.26-3.35,4.64-5.27,6.74-.82.9-2.26,1.22-3.43,1.81a15.93,15.93,0,0,1,1.55-3.12c2.7-3.35,5.52-6.6,8.31-9.88a6.24,6.24,0,0,1,1-.76C309.88,341.52,310.11,341.88,310.5,342.48Z"/><path d="M317.72,247.55c-1,4.27-1.82,8.16-2.68,12.06-1.66-.84-3.91-1.25-4.88-2.58-6-8.27-8.74-17.68-9.17-27.84-.07-1.55-.72-3.07-.87-4.62,0-.38.85-.86,1.32-1.29.33.44.88.84,1,1.33,1.32,7,2.08,14.06,4,20.84,1.17,4.07,4.14,7.63,6.32,11.41.09.15.35.21.53.31.16-.49.35-1,.47-1.48.68-2.79,1.29-5.61,2.06-8.37.14-.49.95-.79,1.45-1.18Z"/><path d="M366,80.89c.26.92.71,1.68.51,1.93-.69.88-1.73,1.47-2.42,2.34-4.53,5.8-9.08,11.59-13.48,17.48-1.53,2.06-2.57,4.48-4,6.58-.52.73-1.68,1-2.54,1.49.13-1-.08-2.35.46-3.11q8.7-12.3,17.65-24.42C362.78,82.26,364.22,81.89,366,80.89Z"/><path d="M319.78,150.28c1.5-3.25,3.13-6.82,4.81-10.36,1.85-3.89,3.65-7.79,5.65-11.59a71.48,71.48,0,0,1,4.43-7.11c.22-.33,1.26-.11,1.91-.14-.48,1.15-.88,2.34-1.45,3.44-1.6,3-3.32,6-4.89,9.08q-3.6,7-7,14.05c-.61,1.24-.93,2.62-1.52,3.87-.22.46-.83.74-1.26,1.1C320.25,152,320.09,151.43,319.78,150.28Z"/><path d="M335.62,238.63l-1.12-.43a6.24,6.24,0,0,1,.93-1.86q7.49-7,15.07-13.9c.36-.32,1.23-.07,1.87-.08-.15.52-.14,1.2-.48,1.53q-7.71,7.34-15.52,14.59C336.22,238.61,335.92,238.58,335.62,238.63Z"/><path d="M371.31,204.91c-2,1.85-4.13,3.79-6.26,5.69-1.9,1.68-3.83,3.32-5.75,5a9.31,9.31,0,0,1-.61-2.19c0-.36.52-.79.88-1.11q4.92-4.46,9.88-8.87c.22-.19.75-.33.93-.2S370.76,203.85,371.31,204.91Z"/><path d="M323.07,224.93c-1,2.14-2,4.45-3.08,6.73-.09.18-.56.18-.85.26a9.63,9.63,0,0,1-.13-3.1,33.56,33.56,0,0,1,2.1-4.67c.32-.67.71-1.32,1.07-2C322.43,223,322.69,223.74,323.07,224.93Z"/><path d="M380,160.23l-5.24,6.25c-.06-.86-.51-2-.13-2.54a34.14,34.14,0,0,1,3.94-4.31C378.68,159.51,379.36,160,380,160.23Z"/><path d="M58.67,466.28l1.29.64a24.72,24.72,0,0,1-3,3.18c-3.36,2.46-6.59,5.28-10.32,7-4.15,1.9-8.79,2.71-13.23,3.95a1.71,1.71,0,0,1-.32-.68c.94-.8,1.87-2.14,2.91-2.24,8.69-.87,14.84-6.28,21.15-11.47C57.44,466.38,58,466.42,58.67,466.28Z"/><path d="M107.3,377.84l-1-.59a37.34,37.34,0,0,1,3.14-3.15q8.55-6.8,17.21-13.45c.49-.38,1.41-.22,2.12-.31-.14.74,0,1.8-.46,2.17q-8.64,7-17.45,13.75A17.38,17.38,0,0,1,107.3,377.84Z"/><path d="M204.88,383.21c-5.55-3.22-11.12-6.4-16.62-9.69-.49-.3-.55-1.31-.81-2,1.11.17,2.38.06,3.31.57,4.77,2.61,9.44,5.41,14.19,8.06a3.31,3.31,0,0,0,2,0c1-.16,1.91-.46,2.86-.7,0,.46.19,1.27,0,1.33a22.86,22.86,0,0,1-3.07,1,4.25,4.25,0,0,1-1.07,0Z"/><path d="M189.87,455.87l-.63,1.38c-.63-.46-1.52-.79-1.83-1.41q-3.84-7.62-7.46-15.35c-.2-.44.16-1.15.26-1.74.63.26,1.58.35,1.83.81,2.6,4.84,5.09,9.75,7.58,14.65A6.39,6.39,0,0,1,189.87,455.87Z"/><path d="M89.85,424.14c-3.35-1.42-7.18-3-10.94-4.73-.42-.19-.41-1.31-.6-2,.78-.09,1.71-.5,2.32-.23,3.31,1.48,6.45,3.39,9.85,4.58,1.34.47,3.19-.63,4.83-.87a6.34,6.34,0,0,1,2,.4c-.42.47-.77,1.19-1.29,1.35C94.25,423.18,92.48,423.52,89.85,424.14Z"/><path d="M101.72,259.79l-6.26,15.7a6.9,6.9,0,0,1-.82,2.08,19.52,19.52,0,0,1-2.77,2.33s-.59-.37-.56-.47c.42-1.33.82-2.68,1.37-4,1.91-4.41,3.9-8.78,5.79-13.19.58-1.37.92-2.83,1.44-4.22.08-.21.79-.39.81-.36A22.81,22.81,0,0,1,101.72,259.79Z"/></g></g></svg>