<svg xmlns="http://www.w3.org/2000/svg" viewBox="0 0 315.78 538.62"><defs><style>.cls-1{fill:#fff;}</style></defs><g id="Layer_2" data-name="Layer 2"><g id="Layer_1-2" data-name="Layer 1"><path class="cls-1" d="M138.06,40.15a18.42,18.42,0,0,1-.91-2.84c-.22-1.28,0-2.67-.31-3.93-.66-2.6-1.7-5.11-2.28-7.73-.67-3.09-2.28-5.66-3.81-8.34a54.22,54.22,0,0,0-6.3-9,15.12,15.12,0,0,0-8-4.84,5.31,5.31,0,0,1-.68-.2c-1.68-.7-3.3-1.75-5-2-2.93-.48-6,0-8.86-1.2-.76-.31-2,.69-3,.88-2.92.51-5.88.79-8.78,1.38-1.76.36-4.12.63-5,1.83C83.54,6.18,81.28,7,79.7,8.7a55,55,0,0,0-3.84,4,15.5,15.5,0,0,0-1.52,3.66,15.48,15.48,0,0,1-1.5,3.74,11,11,0,0,0-2.17,6c-.24,5-.21,10.07-.08,15.1s.06,10.2-1.42,15.16A4,4,0,0,1,69,57c-.85,1.77-1.79,3.5-2.58,5.3a3.41,3.41,0,0,0,1.89,4,2.6,2.6,0,0,1,.74.38c1.18.88,2.35,1.79,3.52,2.69L73,69c.07.88.09,1.77.22,2.65a4,4,0,0,0,.51,1.82c1.26,1.61,2.2,3.23,1.91,5.4a14.44,14.44,0,0,0,.1,3.41c.22,2.08,1.9,3.15,3.33,4.22,1.15.86,2.68,1.2,4.32,1.89a13.19,13.19,0,0,1-.93,1.8c-.52.73-1.22,1.34-1.73,2.08-2,2.86-4.09,5.67-5.84,8.67a62.21,62.21,0,0,0-3,7c-.56,1.32-1.13,2.63-1.9,4.42a7.59,7.59,0,0,1-.6-1.75A37.52,37.52,0,0,0,67,97.93a38.36,38.36,0,0,0-3.07-6.8c-1-1.78-2.49-3.26-5-3.21-1.39,0-2-1.16-2.4-2.51a13.47,13.47,0,0,0-1.58-3.63,26.78,26.78,0,0,0-2.31-2.34c-1.51-1.81-5.83-2.38-7.71-.89-1.41,1.11-2.72,2.41-4.62,1.73-.59-1.14-1.11-2.17-1.64-3.2-1-1.87-1.65-4-2.95-5.56s-2.94-3-3.84-5a2.91,2.91,0,0,0-3.41-1.67,2.83,2.83,0,0,1-2.85-1.23c-2.78-3.36-6.24-5.61-10.87-4.85A14.39,14.39,0,0,0,10,60.9C7.35,62.43,6.78,65,5.63,67.4a1.8,1.8,0,0,0,0,1c.15.75.34,1.49.52,2.24-.14.47.28.81.35,1.22.52,3,1.34,5.94,1.31,8.9,0,2.58,1.65,4.5,1.79,6.94a6.73,6.73,0,0,0,1.17,3.59c1.9,2.37,2.45,5.5,4.71,7.69a64.89,64.89,0,0,1,4.31,5.37c2.12,2.57,5.37,3.78,7.54,6.37,1.27,1.5,1.51,2.6.34,4.22a16.28,16.28,0,0,0-1.81,4,24.33,24.33,0,0,0-.75,3,6.74,6.74,0,0,0,1.31,1.68c3.15,2.17,4.65,5.68,7,8.52,1.24,1.52,2,3.45,3,5.12,1.53,2.35,3.21,4.6,4.76,6.94,1,1.49,1.82,3.06,2.75,4.58.28.46.72.83,1,1.29,1,1.7,1.76,3.7,3.12,5.08,1.93,2,3,4.4,4.42,6.61a16.81,16.81,0,0,1,1.39,2.25c1,2.2,1.79,4.51,2.89,6.65s2.33,4.34,2.15,6.85c-.11,1.59-.84,3.14-1,4.74-.22,2.38-.21,4.79-.21,7.18,0,2.64,0,5.29.17,7.91.14,1.68,1,3.31,1,5,.11,11.27.14,22.55,0,33.82a8.82,8.82,0,0,1-1.59,4.75c-1.3,1.8-2.29,3.51-2.27,5.8a9.16,9.16,0,0,1-.78,3.21,8.39,8.39,0,0,0,.57,5.16,10.73,10.73,0,0,1,1.52,4.18,17.5,17.5,0,0,1-1,6.94c-1.16,3.58-1,7.59-1.44,11.41-.21,2.09-.32,4.18-.55,6.26a36.43,36.43,0,0,0-.63,4.71c.07,2.44.66,4.87.68,7.3,0,1.81-.7,3.62-.78,5.44a79.57,79.57,0,0,0,0,9.52A23.59,23.59,0,0,0,54.22,316c.05.15.42.16.59.31,1.85,1.63,2.72,2.76.84,5a18.59,18.59,0,0,0-1.58,2.62c-1.11,1.83-2.24,3.65-3.32,5.5s-2.18,3.73-3.15,5.65c-.66,1.29-1.07,2.69-1.65,4-.71,1.62-1.81,3.15-2.14,4.84-.68,3.46-1,7-1.39,10.5a7,7,0,0,1-.2.88c-.72,2.67-1.65,5.31-2.13,8A62.53,62.53,0,0,0,38.9,373.6c-.17,13.43-.14,26.86-.14,40.29,0,.73.59,1.45.65,2.19a10.8,10.8,0,0,1-.25,2.58c-.07.46-.38.89-.41,1.34-.36,5.57-.77,11.16-1,16.7-.67,15-.39,30.09-.5,45.13a22,22,0,0,1-.19,2.69c-.28,1.92-.75,3.83-.91,5.76-.18,2.26,0,4.57-.21,6.82a17.32,17.32,0,0,1-1.51,6.12,9.13,9.13,0,0,0-.93,4.19c-.06,1.38,0,2.76-.06,4.14a2.05,2.05,0,0,1-.24,1.16,22.93,22.93,0,0,1-7.57,5.39,14.13,14.13,0,0,1-2.84,1.13c-2.53.6-5.1,1.08-7.65,1.61a.53.53,0,0,0-.18,0c-2.8,1.59-5.56,3.27-8.88,3.56-.22,0-.41.34-.63.5-.43.3-.86.59-1.3.86s-.8.39-1.17.63a6.51,6.51,0,0,0-2.86,4c-.37,1.55.17,3.64,1.65,4,2,.5,4,.88,6,1.3s4.07.22,6.22,1.11c2.88,1.2,6.32,1.38,9.53,1.4,7.77,0,15.6,1.12,23.31-.93,2.56-.68,5.23.12,7.92-1.22,2.4-1.19,5.47-1.28,8.26-1.38,3.11-.1,5.32-1.8,7.47-3.57,1.72-1.42,3.26-2.09,4.65-1.28a15.47,15.47,0,0,0,3.55,2,39.38,39.38,0,0,0,7.45,1.36c3.1.22,6.23,0,9.35,0a7.61,7.61,0,0,0,1.42-.15,19.79,19.79,0,0,1,4.22-.82c1.53,0,3.07,1,4.58,1,4.93-.22,10,1.14,14.8-1,1.18-.52,2.82-.7,3.49-1.6,1.67-2.24,3.68-4.36,4.14-7.35.21-1.41.76-2.68,2.59-2.72,3.89-.09,6.21-2.33,6-6.21-.19-3.72.17-7.41-.6-11.19a18.94,18.94,0,0,1,.44-10.17c.68-2,.56-3.56,3.26-3.4,1.25.08,2.54-.62,3.81-.95.23-.06.48,0,.71-.08l9.27-2.38c2-.51,3.93-1,5.88-1.57a21.56,21.56,0,0,0,3.56-1.19c2.36-1.14,3.88-3.27,5.64-5.1.14-.14.07-.46.13-.69.89-3.31-1-6.13-1.62-9.16a9.06,9.06,0,0,0-1.32-2.73,19,19,0,0,1-2-3c-.32-.87-.42-2.49.08-2.87,1.6-1.24,1.16-2.8,1-4.2a53.05,53.05,0,0,0-1.37-6.7,25.77,25.77,0,0,0-1.37-3.77c-.71-1.68-1.59-3.29-2.21-5s-1-3.64-1.61-5.45c-.37-1.13-.9-2.2-1.32-3.32-.77-2-1.48-4.1-2.27-6.12-.56-1.43-1.28-2.79-1.81-4.23a3.94,3.94,0,0,1-.35-2.32c.62-1.91,1.54-3.71,2.28-5.58.56-1.43,1-2.89,1.54-4.35.77-2.21,1.51-4.42,2.27-6.63a23.33,23.33,0,0,1,1.49-4c1-1.81,2.37-3.43,3.51-5.17a24.32,24.32,0,0,0,2.35-4c.54-1.31,1.92-.84,2.55-1.52,2-2.14,3.85-4.42,5.72-6.67a23.46,23.46,0,0,1,2.51-3.12c2.13-1.77,4.42-3.34,6.65-5,2.65-2,5.33-3.9,8-5.88,1.91-1.42,3.76-2.92,5.67-4.33a1,1,0,0,1,.95.1c1,1.08,2.72,1.36,2.9,3.29.07.86,1,1.64,1.51,2.46,1.58,2.43,3.2,4.85,4.73,7.32a21,21,0,0,1,1.43,3c.78,1.89,1.58,3.77,2.22,5.7s1,3.87,1.61,5.77c.72,2.33,1.56,4.63,2.35,6.93.28.82.59,1.62.86,2.43.56,1.64,1.13,3.26,1.63,4.91s.95,3.42,1.46,5.11a4.25,4.25,0,0,0,.57.88c1.27,2.24,3.31,4.12,3.17,7a2,2,0,0,0,.25.83c.31.67.71,1.31,1,2,.17.5.06,1.09.23,1.59.74,2.17,1.64,4.3,2.26,6.5s1,4.33,1.42,6.49a2.41,2.41,0,0,0,.29.66c1.08,1.83,2.2,3.63,2.26,5.86a3.68,3.68,0,0,0,.33,1c.67,2,1.43,4,2,6.06.62,2.22,1.06,4.48,1.59,6.73,0,.11.12.2.17.3a26.58,26.58,0,0,1,2,4.63,28.07,28.07,0,0,0,1.24,4.87c.94,2.2,1.1,4.73,1.59,7.12a2.18,2.18,0,0,0,.16.69c1.32,2.08,2.43,4.22,2.35,6.78a3.6,3.6,0,0,0,.28,1c.35,1.09.74,2.18,1,3.28.16.57.09,1.21.29,1.76.64,1.69,1.76,3.31,2,5a28.57,28.57,0,0,0,2.63,8.78c.94,2,1.76,4,2.51,6a20.3,20.3,0,0,0,3.84,6.6,9.23,9.23,0,0,0,6.4,3.43,19.06,19.06,0,0,1,4.08,1.33l-.12.54a40.17,40.17,0,0,1-5.21,1.63c-2.17.38-4.33.76-6.47,1.19-3.26.66-6.16,2.11-9.27,3.05-2.4.72-3.58,3.37-3,6.15,1.51.08,3.11.15,4.7.25a17.41,17.41,0,0,1,2.29.23,18.27,18.27,0,0,0,2.45.61c3.11.17,6.34-.25,9.31.47a33.44,33.44,0,0,0,7.87.79c5.69.06,11.39.21,17.08.34a6.18,6.18,0,0,1,1.41.22,25.46,25.46,0,0,0,3.26.9c1.36.17,2.76,0,4.12.16s3,.85,4.49.93c2.36.13,4.67.58,7.07-.8,1.23-.71,3.13-.54,4.46-1.61.69-.56,1.4-1.11,2.11-1.67a24.19,24.19,0,0,0,1.69-3.88c.77-3-.15-5.94-1.59-8.5a6.24,6.24,0,0,1-.71-4.77c.86-.25,1.83-.24,2.27-.72,1.67-1.81,3.16-3.77,2.74-6.52a11.1,11.1,0,0,1,.1-2.15,16.32,16.32,0,0,0-1.57-8.56c-.82-1.63-1.68-3.26-2.37-5s-.94-3.32-1.65-4.87c-1.42-3.12-3.23-6.07-4.5-9.24a38.53,38.53,0,0,0-4-7c-2.26-3.37-4.35-6.86-6.37-10.38-1.43-2.49-2.6-5.11-3.91-7.66-.82-1.62-1.69-3.22-2.51-4.84-1.29-2.57-2.55-5.15-3.83-7.73-.44-.87-.93-1.72-1.32-2.62-1.09-2.48-1.14-5.24-2.46-7.76-1-2-1.14-4.62-1.31-7-.26-3.65-.14-7.32-.34-11-.08-1.36-.92-2.72-.88-4.06A35.71,35.71,0,0,0,277.11,395a17,17,0,0,0-1.38-4.06,13.16,13.16,0,0,1-2.34-5.76,3.77,3.77,0,0,0-.28-.84,52.31,52.31,0,0,1-2.13-6.68c-.68-3.65-1-7.37-1.47-11.06a.52.52,0,0,0,0-.18c-1.39-2.63-2.66-5.3-2.57-8.39a.94.94,0,0,0-.15-.5,16,16,0,0,1-2.23-7c-.5-7.66.93-15.39-1-23-.47-1.83.17-4.08-.64-5.65a10.4,10.4,0,0,1-.81-6.21c.16-1.62,1-3.19,1.11-4.82.2-2.8-.09-5.64.15-8.44.29-3.35-.34-6.74.95-10.07.6-1.57,0-3.38-.66-5.12-.79-2-.58-4.32-1.33-6.52-1.06-3.13-.9-6.65-1.71-9.89s-.62-6.74-2.28-9.86c-.83-1.56-1-3.46-1.68-5.11-.94-2.24-2.12-4.37-3.13-6.57a2.26,2.26,0,0,1-.13-1.53c1.1-2.92,2.58-5.73,3.35-8.73a55.15,55.15,0,0,0,1.15-9.27c.07-.87-.73-1.79-.72-2.67a48.71,48.71,0,0,0-2.57-15.18c-.87-2.79-1.26-5.68-2.64-8.35-1.07-2.07-1.48-4.44-2.51-6.61a50.3,50.3,0,0,1-2.65-8.17c-.59-2.11-1-4.27-1.47-6.4a8.1,8.1,0,0,0-.52-1.12,5.1,5.1,0,0,1-.63-1.74q-.08-9.81,0-19.61c0-.77.57-1.54.64-2.33a22.45,22.45,0,0,0,.23-5.77c-.41-2.48-1.78-4.82-2-7.3a66.1,66.1,0,0,1,0-10c.05-1.17,1-2.35.86-3.47-.24-3-.81-5.91-1.27-8.86a3.45,3.45,0,0,0-.3-.65,23.15,23.15,0,0,1-1.77-4.68c-.64-4-1-8.16-1.44-12.24-.12-1,.07-2.12-1.13-2.8a2.82,2.82,0,0,1-1.28-1.71c-.36-2-1.6-3.41-2.73-4.93-.44-.59-.86-1.22-1.33-1.79q-1.76-2.08-3.54-4.14L223.62,83c-.39-.46-.75-1-1.16-1.4A12.24,12.24,0,0,0,220,79.12a2.91,2.91,0,0,1-1.27-3.94c.83-1.67,1.87-3.41,2.07-5.2a67.87,67.87,0,0,0-1.13-22.82c-.69-3-1.45-6-2.38-8.87a12.43,12.43,0,0,0-2.11-3.84c-1.27-1.59-2.79-3-4.22-4.46-2.23-2.27-3.94-5-7.27-6.17-2.28-.77-4.21-2.6-6.5-3.32a45.08,45.08,0,0,0-8.16-1.3,30.18,30.18,0,0,0-4.85-.14c-6.23.27-12.59-1.28-18.7,1.13-1.37.54-2.77,1-4.13,1.57a24.73,24.73,0,0,0-2.74,1.33,69.08,69.08,0,0,0-6,3.49A21.85,21.85,0,0,0,147.3,31c-1.82,2.47-3,5.39-4.42,8Z"/><path d="M138.06,40.15l4.82-1.09c1.41-2.63,2.6-5.55,4.42-8a21.85,21.85,0,0,1,5.33-4.46,69.08,69.08,0,0,1,6-3.49,24.73,24.73,0,0,1,2.74-1.33c1.36-.56,2.76-1,4.13-1.57,6.11-2.41,12.47-.86,18.7-1.13a30.18,30.18,0,0,1,4.85.14,45.08,45.08,0,0,1,8.16,1.3c2.29.72,4.22,2.55,6.5,3.32,3.33,1.14,5,3.9,7.27,6.17,1.43,1.47,2.95,2.87,4.22,4.46a12.43,12.43,0,0,1,2.11,3.84c.93,2.91,1.69,5.89,2.38,8.87A67.87,67.87,0,0,1,220.83,70c-.2,1.79-1.24,3.53-2.07,5.2A2.91,2.91,0,0,0,220,79.12a12.24,12.24,0,0,1,2.43,2.49c.41.45.77.94,1.16,1.4L229,89.22q1.78,2.06,3.54,4.14c.47.57.89,1.2,1.33,1.79,1.13,1.52,2.37,2.95,2.73,4.93a2.82,2.82,0,0,0,1.28,1.71c1.2.68,1,1.76,1.13,2.8.45,4.08.8,8.19,1.44,12.24a23.15,23.15,0,0,0,1.77,4.68,3.45,3.45,0,0,1,.3.65c.46,3,1,5.89,1.27,8.86.1,1.12-.81,2.3-.86,3.47a66.1,66.1,0,0,0,0,10c.27,2.48,1.64,4.82,2,7.3a22.45,22.45,0,0,1-.23,5.77c-.07.79-.63,1.56-.64,2.33q-.07,9.81,0,19.61a5.1,5.1,0,0,0,.63,1.74,8.1,8.1,0,0,1,.52,1.12c.51,2.13.88,4.29,1.47,6.4a50.3,50.3,0,0,0,2.65,8.17c1,2.17,1.44,4.54,2.51,6.61,1.38,2.67,1.77,5.56,2.64,8.35a48.71,48.71,0,0,1,2.57,15.18c0,.88.79,1.8.72,2.67a55.15,55.15,0,0,1-1.15,9.27c-.77,3-2.25,5.81-3.35,8.73a2.26,2.26,0,0,0,.13,1.53c1,2.2,2.19,4.33,3.13,6.57.69,1.65.85,3.55,1.68,5.11,1.66,3.12,1.47,6.59,2.28,9.86s.65,6.76,1.71,9.89c.75,2.2.54,4.49,1.33,6.52.68,1.74,1.26,3.55.66,5.12-1.29,3.33-.66,6.72-.95,10.07-.24,2.8.05,5.64-.15,8.44-.12,1.63-.95,3.2-1.11,4.82a10.4,10.4,0,0,0,.81,6.21c.81,1.57.17,3.82.64,5.65,2,7.61.52,15.34,1,23a16,16,0,0,0,2.23,7,.94.94,0,0,1,.15.5c-.09,3.09,1.18,5.76,2.57,8.39a.52.52,0,0,1,0,.18c.47,3.69.79,7.41,1.47,11.06a52.31,52.31,0,0,0,2.13,6.68,3.77,3.77,0,0,1,.28.84,13.16,13.16,0,0,0,2.34,5.76,17,17,0,0,1,1.38,4.06,35.71,35.71,0,0,1,1.64,11.12c0,1.34.8,2.7.88,4.06.2,3.65.08,7.32.34,11,.17,2.36.26,5,1.31,7,1.32,2.52,1.37,5.28,2.46,7.76.39.9.88,1.75,1.32,2.62,1.28,2.58,2.54,5.16,3.83,7.73.82,1.62,1.69,3.22,2.51,4.84,1.31,2.55,2.48,5.17,3.91,7.66,2,3.52,4.11,7,6.37,10.38a38.53,38.53,0,0,1,4,7c1.27,3.17,3.08,6.12,4.5,9.24.71,1.55,1,3.29,1.65,4.87s1.55,3.32,2.37,5a16.32,16.32,0,0,1,1.57,8.56,11.1,11.1,0,0,0-.1,2.15c.42,2.75-1.07,4.71-2.74,6.52-.44.48-1.41.47-2.27.72a6.24,6.24,0,0,0,.71,4.77c1.44,2.56,2.36,5.47,1.59,8.5a24.19,24.19,0,0,1-1.69,3.88c-.71.56-1.42,1.11-2.11,1.67-1.33,1.07-3.23.9-4.46,1.61-2.4,1.38-4.71.93-7.07.8-1.51-.08-3-.73-4.49-.93s-2.76,0-4.12-.16a25.46,25.46,0,0,1-3.26-.9,6.18,6.18,0,0,0-1.41-.22c-5.69-.13-11.39-.28-17.08-.34a33.44,33.44,0,0,1-7.87-.79c-3-.72-6.2-.3-9.31-.47a18.27,18.27,0,0,1-2.45-.61,17.41,17.41,0,0,0-2.29-.23c-1.59-.1-3.19-.17-4.7-.25-.62-2.78.56-5.43,3-6.15,3.11-.94,6-2.39,9.27-3.05,2.14-.43,4.3-.81,6.47-1.19a40.17,40.17,0,0,0,5.21-1.63l.12-.54a19.06,19.06,0,0,0-4.08-1.33,9.23,9.23,0,0,1-6.4-3.43,20.3,20.3,0,0,1-3.84-6.6c-.75-2-1.57-4.06-2.51-6a28.57,28.57,0,0,1-2.63-8.78c-.22-1.74-1.34-3.36-2-5-.2-.55-.13-1.19-.29-1.76-.3-1.1-.69-2.19-1-3.28a3.6,3.6,0,0,1-.28-1c.08-2.56-1-4.7-2.35-6.78a2.18,2.18,0,0,1-.16-.69c-.49-2.39-.65-4.92-1.59-7.12a28.07,28.07,0,0,1-1.24-4.87,26.58,26.58,0,0,0-2-4.63c0-.1-.15-.19-.17-.3-.53-2.25-1-4.51-1.59-6.73-.57-2.05-1.33-4.05-2-6.06a3.68,3.68,0,0,1-.33-1c-.06-2.23-1.18-4-2.26-5.86a2.41,2.41,0,0,1-.29-.66c-.47-2.16-.81-4.37-1.42-6.49s-1.52-4.33-2.26-6.5c-.17-.5-.06-1.09-.23-1.59-.24-.69-.64-1.33-1-2a2,2,0,0,1-.25-.83c.14-2.89-1.9-4.77-3.17-7a4.25,4.25,0,0,1-.57-.88c-.51-1.69-.94-3.42-1.46-5.11s-1.07-3.27-1.63-4.91c-.27-.81-.58-1.61-.86-2.43-.79-2.3-1.63-4.6-2.35-6.93-.6-1.9-1-3.88-1.61-5.77s-1.44-3.81-2.22-5.7a21,21,0,0,0-1.43-3c-1.53-2.47-3.15-4.89-4.73-7.32-.53-.82-1.44-1.6-1.51-2.46-.18-1.93-1.94-2.21-2.9-3.29a1,1,0,0,0-.95-.1c-1.91,1.41-3.76,2.91-5.67,4.33-2.64,2-5.32,3.92-8,5.88-2.23,1.65-4.52,3.22-6.65,5a23.46,23.46,0,0,0-2.51,3.12c-1.87,2.25-3.72,4.53-5.72,6.67-.63.68-2,.21-2.55,1.52a24.32,24.32,0,0,1-2.35,4c-1.14,1.74-2.48,3.36-3.51,5.17a23.33,23.33,0,0,0-1.49,4c-.76,2.21-1.5,4.42-2.27,6.63-.5,1.46-1,2.92-1.54,4.35-.74,1.87-1.66,3.67-2.28,5.58a3.94,3.94,0,0,0,.35,2.32c.53,1.44,1.25,2.8,1.81,4.23.79,2,1.5,4.08,2.27,6.12.42,1.12,1,2.19,1.32,3.32.58,1.81,1,3.67,1.61,5.45s1.5,3.31,2.21,5a25.77,25.77,0,0,1,1.37,3.77,53.05,53.05,0,0,1,1.37,6.7c.17,1.4.61,3-1,4.2-.5.38-.4,2-.08,2.87a19,19,0,0,0,2,3,9.06,9.06,0,0,1,1.32,2.73c.62,3,2.51,5.85,1.62,9.16-.06.23,0,.55-.13.69-1.76,1.83-3.28,4-5.64,5.1a21.56,21.56,0,0,1-3.56,1.19c-1.95.56-3.92,1.06-5.88,1.57l-9.27,2.38c-.23.06-.48,0-.71.08-1.27.33-2.56,1-3.81.95-2.7-.16-2.58,1.43-3.26,3.4a18.94,18.94,0,0,0-.44,10.17c.77,3.78.41,7.47.6,11.19.2,3.88-2.12,6.12-6,6.21-1.83,0-2.38,1.31-2.59,2.72-.46,3-2.47,5.11-4.14,7.35-.67.9-2.31,1.08-3.49,1.6-4.81,2.13-9.87.77-14.8,1-1.51.06-3-.9-4.58-1a19.79,19.79,0,0,0-4.22.82,7.61,7.61,0,0,1-1.42.15c-3.12,0-6.25.22-9.35,0a39.38,39.38,0,0,1-7.45-1.36,15.47,15.47,0,0,1-3.55-2c-1.39-.81-2.93-.14-4.65,1.28-2.15,1.77-4.36,3.47-7.47,3.57-2.79.1-5.86.19-8.26,1.38-2.69,1.34-5.36.54-7.92,1.22-7.71,2-15.54,1-23.31.93-3.21,0-6.65-.2-9.53-1.4-2.15-.89-4.17-.69-6.22-1.11s-4-.8-5.95-1.3c-1.48-.38-2-2.47-1.65-4a6.51,6.51,0,0,1,2.86-4c.37-.24.79-.4,1.17-.63s.87-.56,1.3-.86c.22-.16.41-.48.63-.5,3.32-.29,6.08-2,8.88-3.56a.53.53,0,0,1,.18,0c2.55-.53,5.12-1,7.65-1.61a14.13,14.13,0,0,0,2.84-1.13,22.93,22.93,0,0,0,7.57-5.39,2.05,2.05,0,0,0,.24-1.16c0-1.38,0-2.76.06-4.14a9.13,9.13,0,0,1,.93-4.19,17.32,17.32,0,0,0,1.51-6.12c.26-2.25,0-4.56.21-6.82.16-1.93.63-3.84.91-5.76a22,22,0,0,0,.19-2.69c.11-15-.17-30.11.5-45.13.24-5.54.65-11.13,1-16.7,0-.45.34-.88.41-1.34a10.8,10.8,0,0,0,.25-2.58c-.06-.74-.65-1.46-.65-2.19,0-13.43,0-26.86.14-40.29a62.53,62.53,0,0,1,1.19-10.27c.48-2.72,1.41-5.36,2.13-8a7,7,0,0,0,.2-.88c.44-3.51.71-7,1.39-10.5.33-1.69,1.43-3.22,2.14-4.84.58-1.33,1-2.73,1.65-4,1-1.92,2.07-3.79,3.15-5.65s2.21-3.67,3.32-5.5a18.59,18.59,0,0,1,1.58-2.62c1.88-2.22,1-3.35-.84-5-.17-.15-.54-.16-.59-.31a23.59,23.59,0,0,1-1.47-5.14,79.57,79.57,0,0,1,0-9.52c.08-1.82.79-3.63.78-5.44,0-2.43-.61-4.86-.68-7.3a36.43,36.43,0,0,1,.63-4.71c.23-2.08.34-4.17.55-6.26.4-3.82.28-7.83,1.44-11.41a17.5,17.5,0,0,0,1-6.94,10.73,10.73,0,0,0-1.52-4.18,8.39,8.39,0,0,1-.57-5.16,9.16,9.16,0,0,0,.78-3.21c0-2.29,1-4,2.27-5.8A8.82,8.82,0,0,0,59,236.18c.12-11.27.09-22.55,0-33.82,0-1.66-.89-3.29-1-5-.21-2.62-.18-5.27-.17-7.91,0-2.39,0-4.8.21-7.18.14-1.6.87-3.15,1-4.74.18-2.51-1-4.66-2.15-6.85s-1.89-4.45-2.89-6.65a16.81,16.81,0,0,0-1.39-2.25c-1.46-2.21-2.49-4.65-4.42-6.61-1.36-1.38-2.08-3.38-3.12-5.08-.28-.46-.72-.83-1-1.29-.93-1.52-1.77-3.09-2.75-4.58-1.55-2.34-3.23-4.59-4.76-6.94-1.08-1.67-1.81-3.6-3-5.12-2.32-2.84-3.82-6.35-7-8.52A6.74,6.74,0,0,1,25.14,122a24.33,24.33,0,0,1,.75-3,16.28,16.28,0,0,1,1.81-4c1.17-1.62.93-2.72-.34-4.22-2.17-2.59-5.42-3.8-7.54-6.37A64.89,64.89,0,0,0,15.51,99c-2.26-2.19-2.81-5.32-4.71-7.69a6.73,6.73,0,0,1-1.17-3.59c-.14-2.44-1.82-4.36-1.79-6.94,0-3-.79-5.94-1.31-8.9-.07-.41-.49-.75-.35-1.22-.18-.75-.37-1.49-.52-2.24a1.8,1.8,0,0,1,0-1c1.15-2.36,1.72-5,4.37-6.5a14.39,14.39,0,0,1,4.73-2.11c4.63-.76,8.09,1.49,10.87,4.85a2.83,2.83,0,0,0,2.85,1.23,2.91,2.91,0,0,1,3.41,1.67c.9,2,2.53,3.35,3.84,5s2,3.69,2.95,5.56c.53,1,1.05,2.06,1.64,3.2,1.9.68,3.21-.62,4.62-1.73,1.88-1.49,6.2-.92,7.71.89a26.78,26.78,0,0,1,2.31,2.34,13.47,13.47,0,0,1,1.58,3.63c.38,1.35,1,2.54,2.4,2.51,2.49,0,3.94,1.43,5,3.21A38.36,38.36,0,0,1,67,97.93a37.52,37.52,0,0,1,2.39,12.65,7.59,7.59,0,0,0,.6,1.75c.77-1.79,1.34-3.1,1.9-4.42a62.21,62.21,0,0,1,3-7c1.75-3,3.85-5.81,5.84-8.67.51-.74,1.21-1.35,1.73-2.08a13.19,13.19,0,0,0,.93-1.8c-1.64-.69-3.17-1-4.32-1.89-1.43-1.07-3.11-2.14-3.33-4.22a14.44,14.44,0,0,1-.1-3.41c.29-2.17-.65-3.79-1.91-5.4a4,4,0,0,1-.51-1.82C73.05,70.79,73,69.9,73,69l-.41.34c-1.17-.9-2.34-1.81-3.52-2.69a2.6,2.6,0,0,0-.74-.38,3.41,3.41,0,0,1-1.89-4c.79-1.8,1.73-3.53,2.58-5.3a4,4,0,0,0,.19-.68c1.48-5,1.56-10,1.42-15.16s-.16-10.08.08-15.1a11,11,0,0,1,2.17-6,15.48,15.48,0,0,0,1.5-3.74,15.5,15.5,0,0,1,1.52-3.66,55,55,0,0,1,3.84-4C81.28,7,83.54,6.18,85,4.15c.88-1.2,3.24-1.47,5-1.83,2.9-.59,5.86-.87,8.78-1.38,1.06-.19,2.29-1.19,3-.88,2.9,1.21,5.93.72,8.86,1.2,1.74.29,3.36,1.34,5,2a5.31,5.31,0,0,0,.68.2,15.12,15.12,0,0,1,8,4.84,54.22,54.22,0,0,1,6.3,9c1.53,2.68,3.14,5.25,3.81,8.34.58,2.62,1.62,5.13,2.28,7.73.31,1.26.09,2.65.31,3.93A18.42,18.42,0,0,0,138.06,40.15Zm19.19,81.16c.78-2.44-1-4.22-1.67-6.27-.55-1.68-1.44-3.25-2.13-4.89-.58-1.4-1.09-2.83-1.67-4.34-1.61,2.21-1.38,7.41.16,9.27,1.08,1.3,1.88,2.83,2.95,4.14a17.05,17.05,0,0,0,2.4,2,32.47,32.47,0,0,0,.08,4c.72,5.1-.69,10-1.49,14.89a4.54,4.54,0,0,1-.21.69c-.72,1.94-1.47,3.87-2.14,5.83-.23.67-.18,1.43-.38,2.11-.71,2.46-1.82,4.87-2.09,7.38a12.93,12.93,0,0,1-2.66,6.68c-.3.4-1,.66-1.06,1.07-.5,2.65-2.69,4.09-4.47,5.47a30,30,0,0,1-6.71,4.46,36.77,36.77,0,0,1-7.6,1.9c-1.7.31-3.67-.69-5.49-1.19a18.58,18.58,0,0,1-3.74-1.29c-2.14-1.13-4.21-2.42-6.27-3.71s-4.06-2.56-6-4c-.61-.46-.75-1.5-1.28-2.13-2-2.44-4-4.81-6.07-7.21-1.82-2.17-3.64-4.34-5.41-6.54-2-2.49-3.94-5-5.87-7.55-1.34-1.76-2.59-3.58-3.93-5.34s-2.17-1.85-3.51-.45c-.57.59-1,1.28-1.6,1.89-1.36,1.5-2.65,3.08-4.14,4.44-1.65,1.51-3.54,2.77-5.26,4.22-2.44,2.06-4.82,4.2-7.23,6.3-1.52,1.34-1.58,2.54-.38,4.22a13.85,13.85,0,0,1,1.66,2.95A19.16,19.16,0,0,0,67.32,166c1.16,1.33,2.65,2.68,3.05,4.27.78,3.08,3,5.23,4.48,7.81A68.26,68.26,0,0,1,79.63,187c.09.23.4.38.58.58,1.35,1.47,2.5,3.07,4,4.46,1.81,1.65,2.76,4.22,4.16,6.34a34.27,34.27,0,0,0,2.52,3.24c.9,1.06,1.92,2,2.8,3.07,1.21,1.46,2.33,3,3.51,4.49,1.33,1.68,2.57,3.43,4.05,5a29,29,0,0,0,4.75,4,34.55,34.55,0,0,0,4.8,2.26,7.7,7.7,0,0,1,2.91-.84c1.23-.2,2.94,0,3.6-.7,2.82-3.08,6.86-4.77,9.23-8.32,1.68-2.5,3.46-4.93,5.22-7.37a42,42,0,0,1,3.12-4.12c1.46-1.58,2.37-3.59,4.32-4.85,1.2-.78,1.83-2.43,2.75-3.66.36-.47,1-.78,1.23-1.28,1-2,1.91-4.08,2.88-6.1a28.2,28.2,0,0,1,1.55-2.93c1.1-1.73,2.28-3.4,3.41-5.11s2.39-3.6,3.54-5.43c.92-1.47,2.13-2.9,2.54-4.52s.77-3.21,1.33-4.81c.72-2,2.05-4,1.58-6.33,0-.23.21-.53.33-.8.27-.59.78-1.19.79-1.78,0-5.7,0-11.39,0-17.09a10.31,10.31,0,0,0-.3-2.13c-.71-3.12-1.44-6.25-2.2-9.36C158.43,122.17,158.65,121,157.25,121.31ZM138.89,468.74c-.11-.62-.47-1.32-.29-1.82,1-2.69,2.09-5.34,2.1-8.29a30.11,30.11,0,0,1,.29-5.55c.58-3,1.71-5.82,2.16-8.79.6-4-.52-8.08,1.27-12,.73-1.6,1.15-3.33,1.74-5a12.25,12.25,0,0,1,1.44-3.56,8.81,8.81,0,0,0,2.23-5.35,8.27,8.27,0,0,1,1.35-3.71c1.71-2.74,3.66-5.34,3.67-8.78a2.79,2.79,0,0,1,.31-1c.7-1.63,1.47-3.24,2.12-4.89a39,39,0,0,1,1.51-4.38,32.49,32.49,0,0,1,3.64-5.54c2.2-2.61,4.62-5,7-7.5,1.8-1.88,4.16-3.41,5.42-5.59,1.58-2.75,4.32-3.82,6.46-5.69,2.38-2.08,5.12-3.73,7.68-5.6,2.11-1.54,4.19-3.13,6.28-4.72,2.68-2,5.32-4.16,8.07-6.11.55-.39,1.54-.18,2.32-.25,0,.68.27,1.62-.07,2a6.48,6.48,0,0,1-2.64,1.78c-2.26.75-2.84,2.32-1.32,4.05a13.3,13.3,0,0,1,1.43,1.9c1.5,2.48,2.79,5.1,4.46,7.46,2.21,3.13,4.31,6.24,4.87,10.14a3.5,3.5,0,0,0,.27.64c.71,1.88,1.51,3.73,2.1,5.66s1,4.18,1.55,6.26c.33,1.2.86,2.35,1.29,3.52.77,2.11,1.54,4.22,2.29,6.33.11.34,0,.78.17,1.06,1.11,1.83,2.57,3.5,2.51,5.83a.92.92,0,0,0,.18.49c1.11,1.7,2.29,3.37,2.29,5.54a2.36,2.36,0,0,0,.17.87c.71,1.73,1.6,3.41,2.15,5.19.7,2.27,1.14,4.62,1.7,6.93a3.37,3.37,0,0,0,.1.34c.71,1.75,1.57,3.44,2.1,5.24.64,2.19,1,4.46,1.48,6.69.05.24.05.54.2.68,1.9,1.8.5,4.52,2,6.64,1.15,1.61,1.1,4.09,1.58,6.17,0,.12,0,.26.06.35a16.74,16.74,0,0,1,2.5,7.14,3.18,3.18,0,0,0,.1.52q1.14,3.69,2.29,7.36c.28.87.62,1.72.92,2.59.53,1.58,1.14,3.14,1.56,4.74.6,2.31,1,4.65,1.57,7,0,.11.1.22.14.33.75,2.19,1.53,4.38,2.26,6.59.51,1.57.89,3.2,1.45,4.76a22.26,22.26,0,0,0,1.43,2.79A32.4,32.4,0,0,1,252.9,504a15.93,15.93,0,0,0,4.64,6.89c2.79,2.37,6.2,2.66,9.31,3.13,6.56,1,13.28-.28,19.92,1.13,3.27.7,6.8.13,10.22.12.47,0,1.09,0,1.38-.23,1.72-1.62,3.85-1.82,6-2.13a18.22,18.22,0,0,0,5.37-1.61c2.15-1,3.72-2.72,3.34-5.48a9.36,9.36,0,0,1,.09-2,18.17,18.17,0,0,0-1.77-9.47c-1.15-2.45-2.44-4.83-3.69-7.22-.67-1.28-1.46-2.49-2.09-3.78s-1-2.48-1.57-3.71c-.71-1.63-1.39-3.28-2.21-4.86s-1.88-3.2-2.79-4.81c-1-1.8-1.66-4-3.07-5.34-2.19-2.15-3-5-4.62-7.42a48.91,48.91,0,0,1-2.64-5.09c-.3-.57-.89-1-1.13-1.59-.66-1.57-1.19-3.18-1.79-4.77-.75-2-1.51-3.95-2.26-5.93a4.84,4.84,0,0,0-.18-.68,39.1,39.1,0,0,0-2.19-3.7c-1.65-2.29-1.18-5.17-2.38-7.68-1.07-2.22-1.05-5-1.3-7.59-.56-5.59.05-11.22-1.22-16.85-.82-3.63-1.18-7.34-2.73-10.8-1-2.3-1.76-4.72-2.79-7a28,28,0,0,1-2.44-9.77c-.21-3.1-.89-6.16-1.36-9.23a1,1,0,0,0-.1-.35,14.94,14.94,0,0,1-2.43-7.73c0-.43-.43-.86-.62-1.3a20.51,20.51,0,0,1-1.65-4.15,28.22,28.22,0,0,1-.24-5.74,117,117,0,0,0-1.38-24.59c0-.18,0-.41-.07-.53a12,12,0,0,0-1.58-1.76c-.08-.07-.69.63-1.13.81-1.65.68-3.05,1.8-5.09,1.69-4.13-.22-8.28.06-12.41-.09-15.21-.56-30.48,1.06-45.66-1.1-2-.29-4.07-.17-6.1-.35a14.09,14.09,0,0,1-2.4-.58,9.5,9.5,0,0,1-5.49-1.23c-1.66-1-3.17-2.26-4.82-3.27a5.91,5.91,0,0,1-2.6-4.59c-.24-2.28.46-4.66.78-7a3,3,0,0,1,.26-.82c.33-.83.7-1.65,1-2.49.17-.49.16-1,.33-1.53.25-.74.59-1.46.9-2.18l-.69-.58c-.62.42-1.27.81-1.87,1.26-2,1.52-4,3.06-6,4.59-2.82,2.15-5.73,4.11-9.36,4.63a2,2,0,0,0-1.13.45,2,2,0,0,1-2.85.1c-1.33-1-2.65-1.91-3.94-2.9a2.35,2.35,0,0,0-3.57,1,8.21,8.21,0,0,1-2.15,2.51,22.22,22.22,0,0,1-3.91,3c-1.6.78-2.62,2.78-3.85,4.27-.73.9-1.32,1.93-2.1,2.79-1.4,1.56-3,3-4.35,4.57-2.33,2.74-4.53,5.59-6.83,8.35-1.6,1.93-3.31,3.75-4.91,5.68-1.21,1.46-2.38,3-3.46,4.54-1,1.41-2.32,2.84-2.61,4.42s-1.39,2.73-2.12,4c-1.23,2.12-3,3.9-4.41,6a57,57,0,0,0-3.68,6.56c-1.52,3.17-2.09,6.66-2.69,10.07-.69,3.86-1,7.79-1.46,11.69,0,.12,0,.29,0,.35-1.57,1.48-1,3.44-1.21,5.24-.11.93-.32,1.85-.42,2.78a42.79,42.79,0,0,0-.45,5.52c0,1.24.77,2.47.81,3.71.1,3.6.06,7.2-.06,10.79,0,1.14-.59,2.25-.73,3.4a6.85,6.85,0,0,0,.34,2.12c.08.38.37.74.37,1.12,0,3.17.15,6.35,0,9.52-.11,2.22-.8,4.4-.91,6.62-.19,3.7,0,7.43-.17,11.14-.07,2.38-.38,4.75-.54,7.12a28.86,28.86,0,0,0-.08,3.08c.08,2.55.69,5.19.2,7.62-.83,4.14-1.92,8.22-2.12,12.47a23.87,23.87,0,0,1-.25,2.67c-.3,1.92-.8,3.82-1,5.75-.17,2.32,0,4.67-.12,7a26,26,0,0,1-.6,3.38A32,32,0,0,0,95,500.63a38.12,38.12,0,0,0,5.69,4.47c1.21.81,2.71,1.17,4,1.86,2,1.05,4,2.23,6,3.32a20,20,0,0,0,2.76,1.33c1.53.56,3.12,1,4.66,1.51a14.47,14.47,0,0,1,3.42,1.47,10.79,10.79,0,0,0,6,2.24c.52,0,1.22,0,1.53.29,1.22,1.17,2.52,1,3.85.64.47-2,1.25-4,1.3-5.9.18-7.31.34-14.63.05-21.93-.1-2.48,1.14-4.3,1.76-6.37.82-2.73,2.3-5.24,2.18-8.24a33.67,33.67,0,0,1,.1-4.14A16,16,0,0,1,138.89,468.74Zm66.92-334.82c.55,2.39,1.05,4.58,1.55,6.78a2.25,2.25,0,0,0,.09.35,37.89,37.89,0,0,1,1.87,5.53,31.28,31.28,0,0,1,.33,6.63c-.13,3.22.36,6.46-1.06,9.64-1,2.15-1.11,4.65-1.64,7a4.36,4.36,0,0,1-.38,1,36.05,36.05,0,0,0-1.91,4.21c-.41,1.33-.12,2.73-1.22,4-1.55,1.84-2.58,4.11-4,6.11a25,25,0,0,1-2.5,2.66c-1.92,2.06-3.74,4.23-5.79,6.16a29,29,0,0,1-4.61,3.37c-1.59,1-3.31,1.83-5,2.75-1.35.75-2.67,1.56-4,2.27-1.17.6-2.37,1.14-3.6,1.63-1.56.61-3.15,1.12-4.73,1.69L163.16,208c-1.4.51-2.82,1-4.21,1.51-1.89.7-3.72,1.85-5.65,2.07-3.8.43-7.77.9-10.8-2.46a6,6,0,0,0-1.74-1.25c-.93-.48-1.22,0-1.36.93-.87,5.66,1.48,11,1.45,16.59a.37.37,0,0,0,0,.18,16.71,16.71,0,0,1,2.49,8,1.84,1.84,0,0,0,.17.69c.74,1.6,1.87,3.14,2.14,4.81a26.26,26.26,0,0,0,2.53,7.79c.95,1.87,1.87,3.76,2.91,5.58,1.15,2,2.47,3.87,3.61,5.85a8.28,8.28,0,0,0,6.46,4.46c2.65.34,5.27,1,7.9,1.53.17,0,.33.15.5.2,2.33.69,4.65,1.91,7,2,8.81.24,17.63.12,26.44.1a9.1,9.1,0,0,0,2.13-.29c2.9-.68,5.78-1.47,8.7-2.08s5.95-1.07,8.93-1.59c.12,0,.24,0,.35-.06,2.92-.78,5.84-1.55,8.76-2.36a11.58,11.58,0,0,0,1.77-.69c1.29-.58,2.54-1.25,3.86-1.74,1.62-.62,3.35-1,4.93-1.68a19.4,19.4,0,0,0,3.31-2.23c1.07-.81,2-2,3.17-2.45s1.39-1.27,1.61-2.38a35.08,35.08,0,0,1,1.71-6c.83-2.09,2-4,2.07-6.37,0-3.9.12-7.79.11-11.69a16.17,16.17,0,0,0-.4-3.74c-.65-2.75-1.47-5.46-2.17-8.19-.53-2-1-4.08-1.47-6.12a3,3,0,0,0-.15-.31c-.76-2-1.55-4-2.26-6.05-.6-1.7-1.05-3.45-1.68-5.14s-1.56-3.38-2.12-5.15c-.62-2-1-4-1.43-6,0-.11,0-.29-.11-.33-1.6-.89-1-2.5-1.24-3.82-.42-2.41.63-5-.91-7.29-.21-.32,0-.95.07-1.41.29-1.48.72-2.94.9-4.42.43-3.58-.15-7.15.87-10.82.68-2.44-.53-5.49-1.17-8.2-.46-2-1.42-3.79-2.07-5.71a3.39,3.39,0,0,1,0-1.61c.36-2.07.76-4.15,1.16-6.22.32-1.65.71-3.3,1-5,.1-.57.21-1.4-.1-1.73-1.6-1.73-.29-4.34-2.09-6.12-.84-.83-.91-2.53-1.15-3.87a84,84,0,0,1-1.3-8.34c-.23-2.84-.08-5.73-1.81-8.22-1.58-2.27-3.21-4.5-4.85-6.73A29.68,29.68,0,0,0,227,90.54c-2.66-2.56-5.35-5.06-7.25-8.28-.56-1-2.87-1.4-3.5-.59a13,13,0,0,1-5.09,4.49l2.56.77c-.13.71,0,1.64-.41,2-1.87,1.84-3.85,3.58-5.86,5.28-1.29,1.09-2.71,2-4.07,3-1.53,1.14-3,2.35-4.59,3.42-.89.6-2.26.75-2.8,1.54-.84,1.23-1.7.93-2.83.77-.24-2.45,1.92-2.73,3.2-3.63,1.65-1.15,3.67-1.8,5.22-3.05,2.72-2.22,5.23-4.7,7.78-7.13A16.77,16.77,0,0,0,211,87l-.44-.54a38.22,38.22,0,0,0-4.49,1.66c-2.15,1.09-4.21,2.36-6.26,3.66a29,29,0,0,0-3,2.35,33.72,33.72,0,0,1-2.8,2.44c-2.27,1.54-4.69,2.86-6.94,4.43-3,2.11-5.91,4.42-8.92,6.57-2.27,1.63-4.62,3.16-7,4.68-1.56,1-3.27,1.8-4.75,2.92a24.69,24.69,0,0,0-3.67,3.56c-.91,1-2.09,2.09-1.53,3.78a10.68,10.68,0,0,1,.92,2.93c.1,4,2.15,7.79,1.6,11.93a20.49,20.49,0,0,0,.13,4.49c0,.61.58,1.2.54,1.78-.1,1.69-.44,3.37-.58,5-.17,2.15.15,4.43-.45,6.43-.74,2.48-2.22,4.73-2.34,7.42,0,.21-.2.41-.31.61-.7,1.26-1.45,2.49-2.07,3.79s-.93,2.67-1.61,3.88c-1.12,2-2.42,3.83-3.67,5.72-.78,1.19-1.65,2.32-2.4,3.52q-1.39,2.24-2.65,4.55c-.71,1.29-1.24,2.69-2,3.95-1,1.63-2.12,3.16-3.19,4.73a44.08,44.08,0,0,1-2.86,4.14c-1.13,1.31-1.38,2.52-.42,3.75.79,1,1.53,2.07,2.31,3.09a25.17,25.17,0,0,0,2.71,3.34,5.08,5.08,0,0,0,3.95,1.56c2.19-.2,4.34.3,6.52-.95,1.75-1,4-1.16,6-1.69a3.85,3.85,0,0,0,.69-.16c1.63-.73,3.2-2,4.87-2.13,2.83-.27,4.95-2,7.32-3,3.65-1.64,6.9-4.14,10.53-5.83a21.26,21.26,0,0,0,6.36-4.45c1.34-1.36,3-2.47,4.13-4,1.82-2.42,3.37-5,5-7.64a16.29,16.29,0,0,0,1.64-3.42c.61-1.92,1-3.9,1.52-5.85a3.29,3.29,0,0,1,.23-.46,53.74,53.74,0,0,0,2.09-5.2,40.75,40.75,0,0,0,1.09-5.83c.68-5.13-.42-10.15-1.12-15.18a1.92,1.92,0,0,0-.14-.33c-.38-1.06-.79-2.11-1.13-3.18-.2-.61-.25-1.27-.4-1.89-.31-1.3-.65-2.59-1-4ZM111.19,279a18.1,18.1,0,0,0-2.43,2.17c-1.78,2.31-4.29,4-5.56,6.78a43.85,43.85,0,0,1-3.21,4.94,16.14,16.14,0,0,0-1.29,2.6c-1,2.49-1.89,5-3.81,7a6.06,6.06,0,0,0-1.23,1.59c-1.42,3-2.65,6.08-4.2,9a6.43,6.43,0,0,1-3,3.05,38.69,38.69,0,0,1-7.46,1.4c-1.6.21-3.24,0-4.85.17-3.68.36-7.36.85-11,1.24-.83.09-1.68-.07-2.51,0a2,2,0,0,0-1.37.63c-1,1.67-1.75,3.47-2.74,5.13-1.17,2-2.53,3.77-3.71,5.7a55,55,0,0,0-2.65,4.82c-.6,1.26-.73,2.86-1.59,3.86-1.37,1.59-1.65,3.58-2.12,5.32-.92,3.44-1,7.1-1.5,10.66a9.75,9.75,0,0,1-.21,1.05c-.72,2.92-1.65,5.81-2.13,8.77a86.84,86.84,0,0,0-1.16,11c-.23,6.52-.23,13.06-.24,19.59,0,3.53,0,7.08.34,10.6a15.27,15.27,0,0,1-.12,5.39,6.8,6.8,0,0,0,.16,2.82,24.3,24.3,0,0,1,.81,3.15,20.31,20.31,0,0,1-.89,7,38,38,0,0,0-1.34,9.41c-.22,6.17-.19,12.35-.11,18.52,0,2,1.23,4.13.68,5.8a21.75,21.75,0,0,0-.69,6.66c-.13,6.53-.13,13.07-.2,19.6a14.1,14.1,0,0,1-.21,2.14c-.32,1.91-.76,3.81-1,5.73-.18,1.54.4,3.41-.28,4.6-1.18,2.06-.69,4.13-1,6.18-.2,1.25-.82,2.43-1,3.68a23.36,23.36,0,0,0-.13,5.15c0,.43,1.26.74,1.94,1.12.1.05.17.15.28.2,1.44.75,2.83,2,4.34,2.15a94.85,94.85,0,0,0,10.4.28,54.38,54.38,0,0,0,14.49-1.55,33.24,33.24,0,0,0,3.9-1.54,10.05,10.05,0,0,0,2.57-1.25c1.56-1.33,2.9-3,4.49-4.25,2.21-1.81,2.14-4.21,2.13-6.67q0-9.18,0-18.35a3.75,3.75,0,0,1,.27-1.92c1.34-2,1.59-4.43,2-6.68.73-3.68,0-7.45,1.18-11.26s.8-8,1.34-12c.67-5,.11-10.06,1.17-15.1a24.56,24.56,0,0,0,.5-8.84c-.17-1.13.65-2.39.87-3.62.55-3.18,1-6.38,1.53-9.55.41-2.31,1-4.6,1.45-6.9a.48.48,0,0,1,0-.17c1.55-2.3,1.53-5.09,2-7.63.91-4.47,1.07-9.1,1.58-13.66a2.48,2.48,0,0,1,.58-1,4.54,4.54,0,0,0,0-4.69,20.88,20.88,0,0,0-3.1,2.74,68.78,68.78,0,0,1-5.09,6.41c-2.89,3-5.21,6.54-8,9.68-.68.77-1.83,2.35-3.34.75q.54-.65,1-1.29c1.12-1.44,2.19-2.91,3.36-4.31,1.79-2.13,3.66-4.2,5.46-6.33.69-.82,1.24-1.75,1.91-2.59,1-1.31,2.12-2.6,3.21-3.89,1.23-1.46,2.47-2.86,4.7-2.57.49.07,1.47-.34,1.5-.6a43.92,43.92,0,0,0,.07-4.46,3.76,3.76,0,0,0-1,0c-2.07.88-4.14,1.77-6.19,2.68a18.4,18.4,0,0,0-2.39,1.2,21.73,21.73,0,0,1-3.27,2.16,6.32,6.32,0,0,1-3.32.11c-.25,0-.25-1.42-.36-2.18l.51.25a14.18,14.18,0,0,1,2.43-1.7c1.37-.59,2.86-.91,4.28-1.39a43.27,43.27,0,0,0,4.21-1.57c1.32-.61,2.47-1.65,3.83-2.09,1.83-.6,2.74-1.59,2.67-3.51a3.12,3.12,0,0,1,.2-1.59c1.52-2.78,3.14-5.5,4.68-8.27,1.44-2.59,2.77-5.25,4.26-7.82.59-1,1.57-1.77,2.21-2.74,1.11-1.69,2.05-3.5,3.17-5.18s2.29-3.18,3.45-4.76,2.33-2.93,3.31-4.5c.71-1.14,2.58-1.8,1.53-4a25.57,25.57,0,0,1-4.27-.06c-1.12-.18-2.76-.64-3.08-1.42-.39-1,.34-2.38.62-3.6a9.08,9.08,0,0,0,.41-1.48c.08-2.45.26-4.92.11-7.36-.3-5.16-.8-10.3-1.2-15.44-.08-1.14,0-2.29-.13-3.42-.4-2.89-.88-5.77-1.34-8.66,0-.11,0-.29-.1-.32-1.69-.71-1-2.22-1.11-3.41S111.24,280.33,111.19,279Zm34.15,22.53c-.64-1.59-1.69-3.25-1.94-5-.4-2.7,1.89-4.49,3.17-6.53,1-1.54,2-2.8,1.85-4.79-.08-1.56.59-3.15.72-4.74.16-1.95.69-4.15,0-5.83-1.94-4.86.16-9.33.66-14,0-.11.07-.27.15-.31,1.56-.85,1.23-2.43.82-3.46a31.45,31.45,0,0,0-3.16-5.62c-1.3-1.95-2.69-3.82-3.1-6.22-.35-2.11-1.33-2.89-3.45-2.87s-4,0-5.93.18c-4.52.43-9,1.66-13.56,1.34a2.59,2.59,0,0,0-.53.1c-3.71.77-7.41,1.57-11.13,2.29-1.05.2-2.19,0-3.21.25-2.2.61-4.32,1.5-6.52,2.14-3.46,1-7,1.88-10.42,2.83a5.43,5.43,0,0,0-1,.49A62.15,62.15,0,0,1,82.54,255c-2.91,1.08-6,1.82-8.92,2.72a2.1,2.1,0,0,0-.68.49c-1.89,1.66-1.75,4.22-2.06,6.26-.61,4.05-.27,8.24-.3,12.37,0,1.14-.31,2.55.23,3.36,1.16,1.73.83,3.54,1,5.34a18.57,18.57,0,0,0,.49,4.63c1,2.75,1.72,5.32-.46,7.86-.89,1-1.55,2.25-2.41,3.32a23.15,23.15,0,0,1-2.76,3.08c-2.1,1.82-4.22,3.73-7.35,2.73-.55-1.72-1.06-3.37-1.6-5-.13-.41-.34-1.11-.55-1.12a3.41,3.41,0,0,0-1.28.37,21.3,21.3,0,0,1,.51,2.88c.09,2.76.12,5.52.15,8.27s1.09,3.73,3.73,3.8a33,33,0,0,0,8-.9c5.12-1.1,10.52.48,15.66-1.45A6,6,0,0,0,87,311.8c1-1.65,1.8-3.5,2.71-5.25a18,18,0,0,1,1.71-3,43.74,43.74,0,0,0,5.73-9.88c.38-.86.91-1.65,1.37-2.48a53.07,53.07,0,0,1,2.93-5.35c1.47-2.11,3.28-4,4.84-6,1-1.3,1.83-2.73,2.72-4.12a36.83,36.83,0,0,0,2.18-3.53c.65-1.31,1-2.75,1.66-4.08a5.08,5.08,0,0,1,1.45-1.9c.4-.29,1.17-.08,1.78-.09a32.19,32.19,0,0,1,0,4,17.17,17.17,0,0,1-1,2.83,11.21,11.21,0,0,1-.37,1.9c-1.68,3.09-.94,6.27-.35,9.39.37,1.91,1.57,3.68,1.79,5.58.61,5.09.6,10.23,1.3,15.36.78,5.69.19,11.58.09,17.39a2.33,2.33,0,0,0,2.08,2.59,41.12,41.12,0,0,0,5.56.18c.41,0,1,0,1.2-.25,1.32-1.41,2.59-2.87,3.83-4.36,1.59-1.9,3.08-3.86,4.7-5.73,1-1.18,2.23-2.16,3.21-3.35,1.34-1.61,2.52-3.35,3.8-5,.36-.47.94-.78,1.24-1.27C144,304.2,144.6,302.94,145.34,301.57Zm36-13.09c0,.73.27,1.69-.05,2-2,1.73-.62,4.39-2.06,6.47-1.26,1.8-1.15,4.55-1.65,6.87a1.85,1.85,0,0,1-.2.69c-1.43,1.93-1.25,4.24-.78,6.23a9.28,9.28,0,0,0,3,5.19,14.55,14.55,0,0,0,7.12,2.71c6.55.41,13.08,1.19,19.61,1.44,13.34.52,26.72.24,40.09.31a12.72,12.72,0,0,1,3.39.2c2.14.6,3.93-.22,5.59-1.22,1.2-.73,2-2.07,3.19-2.88a4.14,4.14,0,0,0,2-3.6c.05-5.8.06-11.61.17-17.42a40.47,40.47,0,0,1,.61-4.2,16.92,16.92,0,0,0,.35-3.8,52.55,52.55,0,0,0-1.07-5.16c-.1-.46-.05-1-.19-1.42-.68-2.31-1.48-4.59-2.08-6.92a30,30,0,0,1-.38-3.57c-.25-1.87-1.81-3.22-2.86-2.37s-2.09.85-2.89,1.39a19.37,19.37,0,0,1-5.15,2.56c-3.26,1-6.38,2.5-9.66,3.47a76.22,76.22,0,0,1-7.72,1.48c-.23,0-.46.11-.69.16-3.29.72-6.54,1.79-9.87,2.07-4.64.4-9.34.19-14,.29a31,31,0,0,0-5.2.37c-5.89,1.17-11.81.86-17.71.4s-12-1.34-18-2.05c-1.58-.19-2.93-.08-3.06,2,0,.18-.26.37-.44.5-1.84,1.44-3.8,2.74-5.5,4.32-3.14,2.94-6.59,5.62-8.5,9.65-.14.31-.54.57-.54.85a6.68,6.68,0,0,0,2.62,5.46,76.53,76.53,0,0,0,7.34,4.94,2.06,2.06,0,0,0,1.68,0,56.41,56.41,0,0,0,6.57-3.48c3-2,5.77-4.29,8.73-6.34a15.64,15.64,0,0,0,4.57-5.71C178.56,288.69,179.41,288,181.37,288.48ZM103.45,60.91a42.13,42.13,0,0,1,1.83-6.52c.78-1.74,1.08-4,3.21-4.89.69-.31,1.27-1.15,1.92-1.17,2-.07,3.8-.61,5.31,1.94a12.35,12.35,0,0,1,2.12,5.61,19.37,19.37,0,0,0,1.44,6.17,6.15,6.15,0,0,0,3.15,2.68c2,.81,3.69-.74,5.35-1.5a22.41,22.41,0,0,0,4.9-3.57c1.53-1.31,3.35-2.42,3.11-5-.3-3.16-.23-6.35-.33-9.52-.06-1.67.31-3.55-.32-5-1.56-3.53.06-7.47-1.91-10.95-1-1.73-1.11-3.94-1.63-5.94,0-.1-.14-.18-.2-.28-1.09-1.53-2.27-3-3.23-4.61-1.91-3.19-3.48-6.52-6.19-9.28a18.14,18.14,0,0,0-3.88-2.64c-1.53-.93-3.52-1.1-5.31-1.6a3.3,3.3,0,0,1-.86-.24c-2.7-1.69-5.9-1.23-8.83-1.91-2-.47-4.45.51-6.67,1s-4.23.94-6.32,1.52a12.58,12.58,0,0,0-2.4,1.09,13,13,0,0,0-3,1.6c-1.55,1.37-2.79,3.12-4.38,4.44a12,12,0,0,0-4.77,8.49,1.71,1.71,0,0,1-.17.68A15.63,15.63,0,0,0,73,28.94c0,1.86-.55,3.71-.79,5.58a6.38,6.38,0,0,0,.05,1.95c.21,1.2.55,2.37.77,3.57a15.56,15.56,0,0,1,.15,2c3.21.41,6.19.71,9.14,1.21,1.89.32,3.74.92,5.6,1.42.2.06.34.3.52.44C90.78,47,93,49,95.49,50.56s3.35,4.32,4.32,6.83C100.52,59.21,101.67,60.78,103.45,60.91Zm33.41,17.73c-.13-2.29.94-4.87-2.43-5.33,0,0-.05-.11-.1-.14-1.51-1.08-3-2.19-4.56-3.23a11.9,11.9,0,0,0-2.29-1.2c-1.86-.69-2.84,1.32-4.47,1.56a6.54,6.54,0,0,0-2.61,1.45c-1.92,1.45-3.59,3.4-5.72,4.35-2.39,1.06-3.83,3.07-5.73,4.56-2.24,1.74-4,4.07-6,6.15a12,12,0,0,0-1.68,1.82c-1.07,1.77-2,3.65-3.06,5.42s-2.23,3.35-3.39,5c-1,1.46-2.1,2.89-3.15,4.33s-2.19,2.82-3.1,4.34c-1,1.73-1.8,3.61-2.74,5.39-.31.6-.89,1.07-1.18,1.67-.8,1.66-1.52,3.35-2.26,5l-1.62,3.64a11.32,11.32,0,0,1-.83,1.8,2.19,2.19,0,0,0,1.14,3.54,1.94,1.94,0,0,1,1,.59c.58.82,1,1.76,1.62,2.56,1.69,2.23,3.59,4.29,5.26,6.57,2,2.77,4.84,5,6.88,7.9,1.76,2.48,3.53,5,5.41,7.34,1.65,2.07,3.43,4,5.24,6a2.43,2.43,0,0,0,1.69.52c.16,0,.41-.87.48-1.36.45-3.55-.43-7.18,1.26-10.7.9-1.87.1-4.25,1.27-6.37,1-1.81,1.09-4.1,1.59-6.18a1.22,1.22,0,0,1,.1-.34c1.15-2.38,2.45-4.69,3.43-7.14,1.12-2.8,1.93-5.72,2.9-8.57a4.66,4.66,0,0,1,.57-1c.61-1,1.28-2,1.85-3,.36-.64.54-1.39.91-2a47.86,47.86,0,0,1,2.9-4.83c1.19-1.63,2-3.62,4.17-4.41a1.26,1.26,0,0,0,.67-.71c.53-1.75,1-3.53,1.51-5.28.49-1.59,1-3.18,1.64-4.72s1.74-3,2-4.54C136.13,85.53,136.44,81.94,136.86,78.64ZM65.11,167.19a8,8,0,0,0-2.37,5.93,8.64,8.64,0,0,1-.2,2c-.7,2.91-1.64,5.77-2.09,8.72a33.77,33.77,0,0,0-.08,7.18c.28,4.18,1,8.35,1.1,12.53.17,9.71.06,19.42.09,29.13,0,1,.16,1.93.24,2.85a27.34,27.34,0,0,1,4.58-1.79c3.2-.6,6.48-.24,9.73-1.36,2.26-.78,5-.24,7.5-.3a12.87,12.87,0,0,0,2-.11c1.78-.32,3.55-.73,5.33-1.06,2.34-.42,4.67-.06,7.1-1,2.73-1,5.95-.44,9-1.27,2.76-.75,5.84-.29,8.77-.39.77,0,1.74.13,2.28-.27,1.68-1.22,3.53-.82,5.33-.92.72,0,1.44,0,2.15-.06q6.21-.67,12.41-1.39s.08-.08.41-.41c-.16-1.55-.28-3.38-.56-5.18-.18-1.14-.81-2.25-.84-3.38-.11-3.47,0-6.94,0-10.42,0-1.13-.09-2.26-.14-3.49-.59.14-.83.13-.92.24-2.19,2.62-4.3,5.31-6.54,7.89-1.82,2.11-3.7,4.19-5.71,6.11-1.27,1.2-3,1.93-4.2,3.18a5,5,0,0,1-4.17,1.87c-.83-.06-1.67.1-2.51.1-4,0-7.75-.23-10.79-3.69-3.75-4.27-8.16-8-12-12.16-1.72-1.89-2.63-4.49-4.11-6.64s-2.24-4.67-4.23-6.48a19.93,19.93,0,0,1-2.41-3c-1.17-1.61-2.39-3.19-3.42-4.88a38.14,38.14,0,0,1-1.69-3.8c-.44-.94-.72-2.14-1.47-2.7-2.16-1.6-3-4.07-4.41-6.15C67.07,170.94,66.21,169.14,65.11,167.19Zm86.25-47.4c-.5,2.09-.1,4.17-1.66,5.87-2,2.16-4.39,2.53-6.54.56l-2.17-2c-1.75-1.58-3.66-3-4.33-5.47-.15-.56-.82-1-1.34-1.43-2.75-2-5.52-4-8.28-6.06-.4.36-1.17.76-1.51,1.4-1,1.9-1.81,3.89-2.74,5.83-.32.67-.86,1.23-1.12,1.91-1,2.55-1.93,5.14-2.91,7.7-.78,2.05-1.62,4.08-2.4,6.14-.52,1.38-.93,2.81-1.46,4.19-.67,1.73-1.72,3.36-2.06,5.14-.43,2.29-.81,4.61-1.18,6.88-.65,4-.18,8.23-.16,12.36a2.66,2.66,0,0,0,.26,1c1.76,3.52,5.15,5.12,8.33,6.9a8.61,8.61,0,0,0,5.71,1.3c.24,0,.72.14.76.3.32,1.28,1.36,1,2.18,1a14.11,14.11,0,0,0,5.29-.91,25.78,25.78,0,0,0,8.15-6.08,33.27,33.27,0,0,0,4.64-5.8,8.28,8.28,0,0,0,1.42-4.71c-.29-3.13,1.48-5.74,1.57-8.7a.77.77,0,0,1,.12-.33c1.23-1.77,2.53-3.51,2.37-5.86a2.71,2.71,0,0,1,.25-.83c.73-2.28,1.93-4.53,2.09-6.86.23-3.28.87-6.67-.89-9.93C153.1,122.17,153.05,120.65,151.36,119.79ZM49.51,80.08l-.58.47c0,1.61,0,3.22,0,4.83,0,1,.07,1.91.12,2.87a1.29,1.29,0,0,0,.19.68c1.49,1.82.7,4,.89,6a.62.62,0,0,1-1.17.29,34.47,34.47,0,0,1-1.34-4.71c-.26-1.64.25-3.56-.42-5a3,3,0,0,1,.12-3.46c-2-1.2-2.83-1-3.27,1.29a32,32,0,0,0-.38,5.72c0,1.7.13,3.4.21,5.11-1.89.38-2.7-.2-2.69-1.86,0-2.09,0-4.19,0-6.29a13.68,13.68,0,0,0-.32-1.88H40.3c-.33,1.16-.68,2.31-1,3.48a4.68,4.68,0,0,0-.13,1.49c.21,2.71.48,5.42.68,8.13,0,.24-.34.59-.6.71s-.48-.21-.67-.41a9.58,9.58,0,0,1-.76-1.16,6,6,0,0,0-.46,1.6c.45,4,1,8,1.44,11.92a.82.82,0,0,0,.12.33c1.18,2.2,2.3,4.42,3.56,6.57A33.57,33.57,0,0,0,44.83,120c.91,1.2,1.88,2.36,2.74,3.59,1,1.49,1.9,3.11,3,4.54,1.92,2.52,4,4.92,5.95,7.41,1.73,2.19,3.38,4.44,5,6.61-2.34,3.29-1.72,6.93-2.36,10.68,1-.65,2.1-.94,2.22-1.45.62-2.6,3.25-3.1,4.74-4.76,1.14-1.26,3-1.88,4.22-3.06,3-2.81,5.76-5.78,8.61-8.7,1-1,.77-3.34-.32-3.46a46.31,46.31,0,0,0-4.77,0c.52,1.68.95,3.06,1.45,4.65l-2.07.38c-.61-1.69-1.19-3.26-1.75-4.83a45.7,45.7,0,0,1-2.16-6.28c-.57-2.92.06-5.93-1.1-8.91-.81-2.06-.51-4.46-1.29-6.74-1-2.82-1.31-5.84-2.57-8.65A26.51,26.51,0,0,1,63,94.78c-.25-1.42-1.1-2.22-2.51-3.34V101.9l-2.06-.13c-.69-3.75-1.33-7.2-2-10.64a2.18,2.18,0,0,0-.21-.67c-1.64-3-3.25-6.07-5-9C50.91,80.83,50.1,80.52,49.51,80.08Zm51,6.1c5.88-7.45,13.38-12.78,21.16-17.81,0-2,0-1.92-1.84-2.16-.62-.08-1.55-.25-1.73-.65-1.18-2.62-3.06-5-2.76-8.16a20.62,20.62,0,0,0-.14-3.59,3.44,3.44,0,0,0-3.57-3.1c-1.44,0-3.86,2.62-4,4.4a14.24,14.24,0,0,1-2.68,7,3.51,3.51,0,0,1-6.14-.51c-1-2.29-1.88-4.65-2.83-7a2.61,2.61,0,0,0-.66-1c-1.35-1.13-2.83-2.12-4.1-3.33-1.67-1.6-3.2-3.35-5.79-3.28a1.37,1.37,0,0,1-.69-.15c-3.68-2.12-7.64-.63-11.4-1.29a3.9,3.9,0,0,0-.2.88c.58,3.46-1,6.59-1.55,9.87a12.89,12.89,0,0,1-1.86,3.94c-.69,1.19-.82,3.56,0,4.22s1.92,1.05,2.74,1.75C74,67.48,76,68.47,75.74,71a2.15,2.15,0,0,0,.32,1.49,7.73,7.73,0,0,1,2.08,5.94,5.94,5.94,0,0,0,1.34,4.8C81,85,86.1,86.15,88.09,85a15.56,15.56,0,0,1,7.28-2.33A20,20,0,0,0,98.62,82C100.57,82.31,100.11,84.39,100.48,86.18ZM141,42.33a17.31,17.31,0,0,0-1.29,4.23c-.17,3.16,0,6.34.07,9.52,0,.29.15.57.18.86a63,63,0,0,1,.44,6.84c-.08,2.41-.58,4.81-.88,7.22-.55,4.51.49,9.09-1.12,13.61-.83,2.35,0,5.16-1.5,7.56-.79,1.27-1,2.87-1.62,4.28a45.3,45.3,0,0,0-2.13,4.6c-.69,2.41-1,4.91-1.58,7.36-.09.44-.62.81-.64,1.23,0,.74-.11,1.84.32,2.2,2.38,2,5,3.66,7.36,5.6.69.57.87,1.73,1.51,2.4,1.33,1.4,3.1,2.47,4.15,4,.84,1.27,1.62,1,2.77.9,0-.7,0-1.36.13-2,.14-.93.41-1.83.53-2.75s.49-2.11.15-2.91c-.7-1.61-.86-3-.08-4a15.87,15.87,0,0,1-.25-2.91,13.8,13.8,0,0,1,.8-3c.67-1.87,1.41-3.71,2.16-5.54.53-1.3,1.19-2.54,1.66-3.86.64-1.77,1.17-3.57,1.71-5.38a67.8,67.8,0,0,0,2-7.08c.61-3.37.14-6.81,1.16-10.24,1.22-4.13-.63-8.25-1.3-12.36-.07-.46-.53-.88-.86-1.28a5,5,0,0,0-.74-.63,3.38,3.38,0,0,0-.69.9c-.35,1.12-.62,2.27-.89,3.41a.92.92,0,0,0,.08.68c1.39,1.72.54,2.74-1.06,3.52l-2-1.12C150.79,58.43,148.46,49.63,141,42.33ZM113.29,530.78h0c1.38,0,2.76,0,4.13,0a7.61,7.61,0,0,0,6.89-5.17c.63-1.78,1.52-3.46,2.22-5.21a1.1,1.1,0,0,0-.31-1A34.28,34.28,0,0,0,123,518c-1.36-.51-2.75-1-4.11-1.51-1.18-.45-2.38-.89-3.51-1.45s-2.32-1.47-3.56-2c-1.48-.64-3.1-1-4.58-1.59a39.11,39.11,0,0,1-3.55-2c-1.79-1-3.61-1.93-5.38-3a20.32,20.32,0,0,1-3.48-2.33c-1.68-1.54-3.8-2.18-4.73-.93-1.54,2-4,2.3-6,3.13-1.69.69-2.89,1.43-3.56,3.09a1.47,1.47,0,0,1-.81.74,6,6,0,0,0-4,5.65c0,2.34,0,4.67-.1,7a5.36,5.36,0,0,1-.36,1.51c-.27.79-1.06,1.89-.8,2.26a6.08,6.08,0,0,0,2.5,1.61c.68.31,1.69.16,2.15.61a6.76,6.76,0,0,0,5.56,1.94c2.93-.13,5.88,0,8.81,0a3.89,3.89,0,0,0,1.76-.22c3.3-1.82,6.76-1,10.16-.68,2,.17,4,.64,6.07.93A13.51,13.51,0,0,0,113.29,530.78Zm-57.4,2.56v-.07c1.44,0,2.87,0,4.31,0a4,4,0,0,0,1.37-.26,42.81,42.81,0,0,1,4.85-2.07c2-.56,3.06-2.1,4.09-3.58.76-1.1.75-2.74,1.54-3.79,1.64-2.18.89-4.58,1.11-6.9.11-1-.28-1.66-1.43-1.32a38.36,38.36,0,0,1-4.24,1.31A82.51,82.51,0,0,1,57.75,518c-4.42.21-8.87.19-13.29,0a35.64,35.64,0,0,1-6.36-1.39c-.24-.06-.39-.41-.61-.59-1-.78-3.34-.81-4-.14a21,21,0,0,1-2.7,2.38,16.81,16.81,0,0,1-3,1.57c-1.73.74-3.48,1.45-5.25,2.06s-3.6.95-5.34,1.61-3.07,1.56-4.67,2.18-3.06.86-4.58,1.34-3.11,2.51-2.4,3.38a10.81,10.81,0,0,0,3.68,2.84,17.23,17.23,0,0,0,4.54,1.17,85.69,85.69,0,0,0,9.78,1.43,138.3,138.3,0,0,0,14,0c3.76-.18,7.5-.84,11.25-1.31a5,5,0,0,0,1-.32,11.23,11.23,0,0,1,2.38-.78A33.82,33.82,0,0,1,55.89,533.34ZM160.24,66.44c-.13.15-.29.26-.35.41a1.72,1.72,0,0,0-.14.7,48.26,48.26,0,0,1-.88,11.67c-.85,4.09-1.12,8.31-1.65,12.47a1.33,1.33,0,0,1-.13.52A30.27,30.27,0,0,0,155,95.94c-.34.91-.54,2.74-.19,2.9,2.07,1,2.14,3.21,3.26,4.72a8.63,8.63,0,0,0,6.56,3.29c1.32.11,2.66,0,4,.16,1,.15,1.85.83,2.82,1a4.41,4.41,0,0,0,2.45-.39c.68-.33,1.09-1.16,1.73-1.63,3.17-2.36,6.41-4.63,9.58-7,3-2.22,5.86-4.52,8.9-6.87-.49-.53-1.08-1.22-1.72-1.87-1.74-1.79-3.14-3.6-3.27-6.36a71.34,71.34,0,0,0-1.4-8.54c-2.12-.4-4.29.33-4.7,1.83-.81,3-3.44,3.33-5.7,4.11-.7.24-1.69-.51-2.57-.62-2.23-.3-3.22-2.42-5.06-3.33a10.38,10.38,0,0,1-3.24-2.79C164.32,71.93,162.36,69.22,160.24,66.44Zm-143,17.3c-2.29.58-2.27-.86-3-1.7-1.64-1.79-1.07-4.1-2.21-6-1-1.66-1.19-3.81-1.76-5.74,0-.06-.33,0-.74-.06,0,1.87-.12,3.7,0,5.51a31.69,31.69,0,0,0,1,3.26c.56,2.7,1,5.44,1.56,8.13a10.73,10.73,0,0,0,1.39,3.66,88.17,88.17,0,0,0,6.29,8.42c2.16,2.48,4.82,4.52,7.06,6.93,1.64,1.78,2.77,4.06,4.49,5.74,2.26,2.21,3.54,5,5.48,7.66l3-2.78a19.73,19.73,0,0,1-1.14-1.89c-.53-1.15-.7-2.6-1.52-3.45-1.82-1.9-.88-4.43-1.92-6.6s-.84-5-1.36-7.55A25,25,0,0,1,35,84.37c.09-.24.45-.38.59-.63.61-1.15,1.63-2.31,1.65-3.48a7.43,7.43,0,0,0-1.47-3.8c-1.7-2.56-3.6-5-5.8-8,0,1.23-.31,2.22.06,2.7,1.6,2.11.91,4.48,1,6.75,0,.31-.36.63-.55,1a3.74,3.74,0,0,1-.73-.82c-.65-1.35-1.21-2.75-1.86-4.1s-1.63-2.32-1.76-3.55c-.34-3.35-2.21-5.58-4.91-7.55a15.62,15.62,0,0,0,0,4.1c.13,1,.63,1.85.76,2.81s0,2.17.12,3.22a14.55,14.55,0,0,0,.85,2.51c.52,1.46,1,2.92-.47,4.75-1-2.44-2.35-4.49-2.81-6.71-.75-3.66-1-7.42-1.41-11.14a8.74,8.74,0,0,0-.32-1.27l-2,.26c0,.36-.07.58,0,.71,1,1.59,1.5,3.06,0,4.8-.51.6-.3,2-.13,2.94a29.45,29.45,0,0,0,1.15,4c.17.51.61,1,.7,1.47.26,1.44.42,2.89.55,4.35,0,.15-.37.47-.59.49s-.6-.24-.62-.41c-.18-1.82-2.09-3.1-1.62-5.14,0-.15-.29-.39-.49-.65C14,76,14.77,80,16.1,81.51A10.28,10.28,0,0,1,17.23,83.74ZM244.2,528c5.33.71,10.53-.58,15.59,1.22,1.77.63,3.92.16,5.89.24,6.7.26,13.41-.39,20.09,1.14A72.08,72.08,0,0,0,298.83,532c2.14.09,4.31-.77,6.49-1.07a6.23,6.23,0,0,0,5.18-5.65c.25-3-1-5.36-2.48-7.75-1.27-2-2.76-2.87-4.63-1.69a5.79,5.79,0,0,1-4.19.86c-3.79-.61-7.48,2.11-11.26.19-6,.47-12.24-1.57-18.16,1.13-1.26.58-2.58,1-3.89,1.51-2.17.76-4.31,1.91-6.53,2.11a23.53,23.53,0,0,0-9.47,2.55c-1.71.93-3.77,1.21-5.69,1.79ZM62.3,164.24c-.34-1.38-.34-2.52-.86-3.32-1-1.54-2.4-2.82-3.41-4.36-.65-1-1.73-1.74-1.61-3.27.22-2.56.12-5.14.19-7.71a3,3,0,0,1,.39-1.49c1.09-1.66,1.07-2.82-.21-4.35-.44-.52-.89-1-1.3-1.57-1.76-2.32-3.53-4.63-5.24-7-2.24-3.09-4.47-6.2-6.65-9.34-1.7-2.45-2-2.56-4.5-1a17.58,17.58,0,0,1-2.27,1.43c-1.83.72-3.72,1.29-5.73,2,0,.31-.08,1,.18,1.2,1.71,1.58,2.45,3.91,3.93,5.5,2.38,2.57,3.64,5.8,5.87,8.41a15.17,15.17,0,0,1,1.37,2.13c.71,1.21,1.32,2.49,2.09,3.66,1.33,2,2.79,3.94,4.11,6,1.59,2.44,3.11,4.94,4.64,7.43,1.06,1.74,2.18,3.46,3.1,5.27,1.09,2.16,2,4.4,3,6.61H60ZM150.55,425l-.46,0c-.7,1.61-1.47,3.21-2.08,4.86a34.4,34.4,0,0,0-2.09,6.5c-.7,4.68-1,9.4-1.53,14.11,0,.24,0,.58-.15.69-1.29,1-.82,2.49-.93,3.8s.31,3.07-.35,4.05c-1.47,2.17-.46,4.24-.68,6.44.62,0,1.22.17,1.41,0,1.23-1.32,2.85-.91,4.33-1.12a3.75,3.75,0,0,0,1.22-.28c1.9-1,3.74-2.19,6-2.29a1.9,1.9,0,0,0,.84-.24,22.37,22.37,0,0,1,3.79-2.08c1.8-.55,2-2.23,2.23-3.38a6.51,6.51,0,0,0-1-4.14,19.87,19.87,0,0,1-2.6-7.11,1.68,1.68,0,0,0-.23-.66,16.17,16.17,0,0,1-2.34-5.63,29.91,29.91,0,0,0-2-4.86c-.57-1.37-1.11-2.77-1.64-4.16S151.12,426.51,150.55,425ZM97.12,85.38c-4.07-.73-7.28,1.56-10.79,2.65-.17,0-.27.35-.38.55-1,1.79-1.88,3.65-3,5.36-2,3-4.06,5.87-6.11,8.8-.34.49-.9.88-1.09,1.42-.59,1.69-1,3.43-1.57,5.12-.78,2.33-1.63,4.62-2.45,6.93-.12.33-.15.78-.39,1-1.32,1-.68,2.26-.53,3.4s.63,2.33.88,3.51c.17.81.11,1.67.27,2.49.33,1.65,2,2.67,3.17,1.89a4.51,4.51,0,0,0,1.52-1.61c1.34-2.64,3-5.24,3.74-8.06.7-2.56,2.27-4.59,3.17-7a25.19,25.19,0,0,1,1.59-3.21c.65-1.18,1.37-2.31,2-3.48.55-1,1-2,1.62-3,.73-1.12,1.58-2.16,2.36-3.24,1.11-1.54,2.25-3.06,3.3-4.64C96.23,91.59,98.2,89,97.12,85.38ZM138.07,486a11.49,11.49,0,0,0,2.39,0c1.39-.33,2.73-.81,4.1-1.22.34-.1.71-.11,1.05-.22,2.16-.73,4.26-1.82,6.48-2.14a45.07,45.07,0,0,0,11.13-2.78c1-.42,2.5-1.06,2.69-1.86a9.78,9.78,0,0,0,0-5.26c-.82-2.4-2.38-4.54-3.52-6.84s-3.16-3.42-4.88-2.4c-2.34,1.38-4.7,2.51-7.49,2.47a2.77,2.77,0,0,0-1,.32c-1.86.74-3.69,1.58-5.59,2.2a3.67,3.67,0,0,0-2.72,3.24c-.36,3.34-.86,6.67-1.3,10,0,.17,0,.44-.14.5C137.58,482.94,138.52,484.55,138.07,486ZM90.61,499.55c-.7-.91-2-1.83-2.07-2.83-.2-3.31-.45-6.77.32-9.93a39.76,39.76,0,0,0,.85-5.45c.11-1.13.1-2.28.29-3.39.66-3.82,1.76-7.61,2-11.45.37-6,.17-12.09.25-18.14a12.76,12.76,0,0,1,.4-3.72,10.24,10.24,0,0,0,.16-6.43,9.55,9.55,0,0,1,0-5.14c1.35-4.55.68-9.14.74-13.71,0-.26-.34-.52-.53-.79-.23.27-.61.51-.68.81-.18.81-.12,1.69-.36,2.48-.67,2.16-2,4.26-2.06,6.43-.31,5.74-.58,11.47-1.42,17.17-.17,1.12.13,2.52-.44,3.32-1.17,1.63-.83,3-.17,4.56a5.62,5.62,0,0,1,.13,3c-.54,2.78-1.45,5.49-1.83,8.29-.72,5.38-1.17,10.8-1.73,16.21,0,.18-.13.34-.16.51-.32,1.61-.71,3.21-.91,4.83a26.83,26.83,0,0,0-.07,3.59c0,4.08.06,8.15.15,12.23,0,1.64.73,2.13,1.91,1.56C87.36,502.56,89.35,501.55,90.61,499.55Zm60.57-215.28.49.4c.59-.36,1.2-.69,1.75-1.09s1.12-1.21,1.81-1.47c2.81-1.05,3.65-3.63,4.41-6,1-3.1-.39-6.1-1.34-9.05,0-.14-.28-.2-.38-.34q-1.89-2.34-3.77-4.7l.38-.39-2.11-.33a8.46,8.46,0,0,1-.49,2.26c-1.64,2.9-1.08,6-.48,8.9.69,3.32,1.24,6.49-.14,9.74A6.39,6.39,0,0,0,151.18,284.27Zm3.66-179.52a6.49,6.49,0,0,0,.89,4c1.41,2.13,2,4.78,3.09,7.17a3.5,3.5,0,0,0,1.45,1.37c.16.09.74-.48,1.08-.79,1.1-1,2.12-2,3.28-3,.94-.73,2.09-1.18,3.05-1.89a6.72,6.72,0,0,0,1.16-1.58,14.93,14.93,0,0,0-1.94-.59c-2.59-.43-5.2-.8-7.79-1.24-.29,0-.53-.4-.79-.62ZM137.63,60.94c.55-1.07-.19-1.58-1.3-1a15.22,15.22,0,0,0-2.74,1.65c-1.38,1.07-2.69,2.22-4,3.41a1.22,1.22,0,0,0-.19,1.19A6.3,6.3,0,0,0,131,67.46c1.48,1,3,2,4.49,3,.34.23.65.49,1,.74A4.4,4.4,0,0,0,137,70C137.23,67,137.42,64,137.63,60.94Zm-109,61.35a9.77,9.77,0,0,0,2.68-.05,3.67,3.67,0,0,0,2.16-1.46c.26-.63-.32-1.65-.59-2.47-.14-.43-.45-.8-.61-1.23a1.58,1.58,0,0,0-2.78-.65C27.81,118.12,28.39,120.09,28.63,122.29Zm8.27-34c-1.06,1.71-1,6.8.16,8.42A23.57,23.57,0,0,0,36.9,88.31ZM12.25,68.45h.54V62.27L11.24,64C11.63,65.67,11.94,67.06,12.25,68.45Z"/><path class="cls-1" d="M138.89,468.74a16,16,0,0,0-.6,2.44,33.67,33.67,0,0,0-.1,4.14c.12,3-1.36,5.51-2.18,8.24-.62,2.07-1.86,3.89-1.76,6.37.29,7.3.13,14.62-.05,21.93,0,1.93-.83,3.85-1.3,5.9-1.33.38-2.63.53-3.85-.64-.31-.31-1-.29-1.53-.29a10.79,10.79,0,0,1-6-2.24,14.47,14.47,0,0,0-3.42-1.47c-1.54-.55-3.13-1-4.66-1.51a20,20,0,0,1-2.76-1.33c-2-1.09-4-2.27-6-3.32-1.3-.69-2.8-1-4-1.86A38.12,38.12,0,0,1,95,500.63,32,32,0,0,1,91.58,496a26,26,0,0,0,.6-3.38c.1-2.34-.05-4.69.12-7,.15-1.93.65-3.83,1-5.75a23.87,23.87,0,0,0,.25-2.67c.2-4.25,1.29-8.33,2.12-12.47.49-2.43-.12-5.07-.2-7.62A28.86,28.86,0,0,1,95.5,454c.16-2.37.47-4.74.54-7.12.12-3.71,0-7.44.17-11.14.11-2.22.8-4.4.91-6.62.16-3.17,0-6.35,0-9.52,0-.38-.29-.74-.37-1.12a6.85,6.85,0,0,1-.34-2.12c.14-1.15.7-2.26.73-3.4.12-3.59.16-7.19.06-10.79,0-1.24-.79-2.47-.81-3.71a42.79,42.79,0,0,1,.45-5.52c.1-.93.31-1.85.42-2.78.2-1.8-.36-3.76,1.21-5.24.07-.06,0-.23,0-.35.47-3.9.77-7.83,1.46-11.69.6-3.41,1.17-6.9,2.69-10.07a57,57,0,0,1,3.68-6.56c1.36-2.06,3.18-3.84,4.41-6,.73-1.27,1.81-2.32,2.12-4s1.62-3,2.61-4.42c1.08-1.57,2.25-3.08,3.46-4.54,1.6-1.93,3.31-3.75,4.91-5.68,2.3-2.76,4.5-5.61,6.83-8.35,1.36-1.6,3-3,4.35-4.57.78-.86,1.37-1.89,2.1-2.79,1.23-1.49,2.25-3.49,3.85-4.27a22.22,22.22,0,0,0,3.91-3,8.21,8.21,0,0,0,2.15-2.51,2.35,2.35,0,0,1,3.57-1c1.29,1,2.61,1.94,3.94,2.9a2,2,0,0,0,2.85-.1,2,2,0,0,1,1.13-.45c3.63-.52,6.54-2.48,9.36-4.63,2-1.53,4-3.07,6-4.59.6-.45,1.25-.84,1.87-1.26l.69.58c-.31.72-.65,1.44-.9,2.18-.17.49-.16,1-.33,1.53-.29.84-.66,1.66-1,2.49a3,3,0,0,0-.26.82c-.32,2.34-1,4.72-.78,7a5.91,5.91,0,0,0,2.6,4.59c1.65,1,3.16,2.28,4.82,3.27a9.5,9.5,0,0,0,5.49,1.23,14.09,14.09,0,0,0,2.4.58c2,.18,4.09.06,6.1.35,15.18,2.16,30.45.54,45.66,1.1,4.13.15,8.28-.13,12.41.09,2,.11,3.44-1,5.09-1.69.44-.18,1-.88,1.13-.81a12,12,0,0,1,1.58,1.76c.1.12,0,.35.07.53A117,117,0,0,1,262,347.25a28.22,28.22,0,0,0,.24,5.74,20.51,20.51,0,0,0,1.65,4.15c.19.44.62.87.62,1.3a14.94,14.94,0,0,0,2.43,7.73,1,1,0,0,1,.1.35c.47,3.07,1.15,6.13,1.36,9.23a28,28,0,0,0,2.44,9.77c1,2.29,1.76,4.71,2.79,7,1.55,3.46,1.91,7.17,2.73,10.8,1.27,5.63.66,11.26,1.22,16.85.25,2.57.23,5.37,1.3,7.59,1.2,2.51.73,5.39,2.38,7.68a39.1,39.1,0,0,1,2.19,3.7,4.84,4.84,0,0,1,.18.68c.75,2,1.51,3.95,2.26,5.93.6,1.59,1.13,3.2,1.79,4.77.24.58.83,1,1.13,1.59a48.91,48.91,0,0,0,2.64,5.09c1.66,2.39,2.43,5.27,4.62,7.42,1.41,1.38,2.05,3.54,3.07,5.34.91,1.61,1.93,3.17,2.79,4.81s1.5,3.23,2.21,4.86c.54,1.23,1,2.51,1.57,3.71s1.42,2.5,2.09,3.78c1.25,2.39,2.54,4.77,3.69,7.22a18.17,18.17,0,0,1,1.77,9.47,9.36,9.36,0,0,0-.09,2c.38,2.76-1.19,4.43-3.34,5.48a18.22,18.22,0,0,1-5.37,1.61c-2.19.31-4.32.51-6,2.13-.29.27-.91.22-1.38.23-3.42,0-6.95.58-10.22-.12-6.64-1.41-13.36-.13-19.92-1.13-3.11-.47-6.52-.76-9.31-3.13A15.93,15.93,0,0,1,252.9,504a32.4,32.4,0,0,0-2.09-3.77,22.26,22.26,0,0,1-1.43-2.79c-.56-1.56-.94-3.19-1.45-4.76-.73-2.21-1.51-4.4-2.26-6.59,0-.11-.11-.22-.14-.33-.52-2.32-1-4.66-1.57-7-.42-1.6-1-3.16-1.56-4.74-.3-.87-.64-1.72-.92-2.59q-1.15-3.68-2.29-7.36a3.18,3.18,0,0,1-.1-.52,16.74,16.74,0,0,0-2.5-7.14c-.06-.09,0-.23-.06-.35-.48-2.08-.43-4.56-1.58-6.17-1.52-2.12-.12-4.84-2-6.64-.15-.14-.15-.44-.2-.68-.49-2.23-.84-4.5-1.48-6.69-.53-1.8-1.39-3.49-2.1-5.24a3.37,3.37,0,0,1-.1-.34c-.56-2.31-1-4.66-1.7-6.93-.55-1.78-1.44-3.46-2.15-5.19a2.36,2.36,0,0,1-.17-.87c0-2.17-1.18-3.84-2.29-5.54a.92.92,0,0,1-.18-.49c.06-2.33-1.4-4-2.51-5.83-.17-.28-.06-.72-.17-1.06-.75-2.11-1.52-4.22-2.29-6.33-.43-1.17-1-2.32-1.29-3.52-.57-2.08-.93-4.21-1.55-6.26s-1.39-3.78-2.1-5.66a3.5,3.5,0,0,1-.27-.64c-.56-3.9-2.66-7-4.87-10.14-1.67-2.36-3-5-4.46-7.46a13.3,13.3,0,0,0-1.43-1.9c-1.52-1.73-.94-3.3,1.32-4.05a6.48,6.48,0,0,0,2.64-1.78c.34-.37.07-1.31.07-2-.78.07-1.77-.14-2.32.25-2.75,1.95-5.39,4.07-8.07,6.11-2.09,1.59-4.17,3.18-6.28,4.72-2.56,1.87-5.3,3.52-7.68,5.6-2.14,1.87-4.88,2.94-6.46,5.69-1.26,2.18-3.62,3.71-5.42,5.59-2.37,2.46-4.79,4.89-7,7.5a32.49,32.49,0,0,0-3.64,5.54,39,39,0,0,0-1.51,4.38c-.65,1.65-1.42,3.26-2.12,4.89a2.79,2.79,0,0,0-.31,1c0,3.44-2,6-3.67,8.78a8.27,8.27,0,0,0-1.35,3.71,8.81,8.81,0,0,1-2.23,5.35,12.25,12.25,0,0,0-1.44,3.56c-.59,1.66-1,3.39-1.74,5-1.79,3.87-.67,8-1.27,12-.45,3-1.58,5.83-2.16,8.79a30.11,30.11,0,0,0-.29,5.55c0,2.95-1.07,5.6-2.1,8.29C138.42,467.42,138.78,468.12,138.89,468.74Zm.58-103.22c0,.31.08.93.14,1.56.49-.25,1-.53,1.46-.75a2.77,2.77,0,0,1,.71-.11,27,27,0,0,0,9.1-2.49c2.71-1.37,5.46-2.65,8.17-4,.58-.3,1-.89,1.57-1.19a40.89,40.89,0,0,0,3.71-1.78,75.29,75.29,0,0,0,6.48-4.75,57.24,57.24,0,0,0,4.24-4.28c-1.56-1-2.61-.9-3.62.26a13.81,13.81,0,0,1-2.65,2.59c-3.51,2.34-7.08,4.59-10.67,6.8-1,.59-2.07.87-3.06,1.4-1.35.7-2.6,1.61-4,2.24s-3,1.09-4.51,1.67C144.32,363.54,142.1,364.46,139.47,365.52Z"/><path class="cls-1" d="M205.81,133.92H203c.36,1.43.7,2.72,1,4,.15.62.2,1.28.4,1.89.34,1.07.75,2.12,1.13,3.18a1.92,1.92,0,0,1,.14.33c.7,5,1.8,10,1.12,15.18a40.75,40.75,0,0,1-1.09,5.83,53.74,53.74,0,0,1-2.09,5.2,3.29,3.29,0,0,0-.23.46c-.5,2-.91,3.93-1.52,5.85a16.29,16.29,0,0,1-1.64,3.42c-1.59,2.59-3.14,5.22-5,7.64-1.14,1.51-2.79,2.62-4.13,4a21.26,21.26,0,0,1-6.36,4.45c-3.63,1.69-6.88,4.19-10.53,5.83-2.37,1.07-4.49,2.76-7.32,3-1.67.16-3.24,1.4-4.87,2.13a3.85,3.85,0,0,1-.69.16c-2,.53-4.24.69-6,1.69-2.18,1.25-4.33.75-6.52.95a5.08,5.08,0,0,1-3.95-1.56,25.17,25.17,0,0,1-2.71-3.34c-.78-1-1.52-2.08-2.31-3.09-1-1.23-.71-2.44.42-3.75a44.08,44.08,0,0,0,2.86-4.14c1.07-1.57,2.2-3.1,3.19-4.73.76-1.26,1.29-2.66,2-3.95q1.26-2.31,2.65-4.55c.75-1.2,1.62-2.33,2.4-3.52,1.25-1.89,2.55-3.75,3.67-5.72.68-1.21,1-2.62,1.61-3.88s1.37-2.53,2.07-3.79c.11-.2.3-.4.31-.61.12-2.69,1.6-4.94,2.34-7.42.6-2,.28-4.28.45-6.43.14-1.68.48-3.36.58-5,0-.58-.49-1.17-.54-1.78a20.49,20.49,0,0,1-.13-4.49c.55-4.14-1.5-7.89-1.6-11.93a10.68,10.68,0,0,0-.92-2.93c-.56-1.69.62-2.73,1.53-3.78a24.69,24.69,0,0,1,3.67-3.56c1.48-1.12,3.19-1.91,4.75-2.92,2.36-1.52,4.71-3,7-4.68,3-2.15,5.9-4.46,8.92-6.57,2.25-1.57,4.67-2.89,6.94-4.43a33.72,33.72,0,0,0,2.8-2.44,29,29,0,0,1,3-2.35c2.05-1.3,4.11-2.57,6.26-3.66a38.22,38.22,0,0,1,4.49-1.66L211,87a16.77,16.77,0,0,1-1.73,2.25c-2.55,2.43-5.06,4.91-7.78,7.13-1.55,1.25-3.57,1.9-5.22,3.05-1.28.9-3.44,1.18-3.2,3.63,1.13.16,2,.46,2.83-.77.54-.79,1.91-.94,2.8-1.54,1.57-1.07,3.06-2.28,4.59-3.42,1.36-1,2.78-2,4.07-3,2-1.7,4-3.44,5.86-5.28.41-.4.28-1.33.41-2l-2.56-.77a13,13,0,0,0,5.09-4.49c.63-.81,2.94-.36,3.5.59,1.9,3.22,4.59,5.72,7.25,8.28A29.68,29.68,0,0,1,230,94.42c1.64,2.23,3.27,4.46,4.85,6.73,1.73,2.49,1.58,5.38,1.81,8.22a84,84,0,0,0,1.3,8.34c.24,1.34.31,3,1.15,3.87,1.8,1.78.49,4.39,2.09,6.12.31.33.2,1.16.1,1.73-.28,1.66-.67,3.31-1,5-.4,2.07-.8,4.15-1.16,6.22a3.39,3.39,0,0,0,0,1.61c.65,1.92,1.61,3.75,2.07,5.71.64,2.71,1.85,5.76,1.17,8.2-1,3.67-.44,7.24-.87,10.82-.18,1.48-.61,2.94-.9,4.42-.09.46-.28,1.09-.07,1.41,1.54,2.29.49,4.88.91,7.29.23,1.32-.36,2.93,1.24,3.82.08,0,.08.22.11.33.47,2,.81,4.07,1.43,6,.56,1.77,1.48,3.41,2.12,5.15s1.08,3.44,1.68,5.14c.71,2,1.5,4,2.26,6.05a3,3,0,0,1,.15.31c.49,2,.94,4.08,1.47,6.12.7,2.73,1.52,5.44,2.17,8.19a16.17,16.17,0,0,1,.4,3.74c0,3.9-.08,7.79-.11,11.69,0,2.35-1.24,4.28-2.07,6.37a35.08,35.08,0,0,0-1.71,6c-.22,1.11-.31,1.87-1.61,2.38s-2.1,1.64-3.17,2.45a19.4,19.4,0,0,1-3.31,2.23c-1.58.71-3.31,1.06-4.93,1.68-1.32.49-2.57,1.16-3.86,1.74a11.58,11.58,0,0,1-1.77.69c-2.92.81-5.84,1.58-8.76,2.36-.11,0-.23,0-.35.06-3,.52-6,1-8.93,1.59s-5.8,1.4-8.7,2.08a9.1,9.1,0,0,1-2.13.29c-8.81,0-17.63.14-26.44-.1-2.35-.06-4.67-1.28-7-2-.17-.05-.33-.16-.5-.2-2.63-.53-5.25-1.19-7.9-1.53a8.28,8.28,0,0,1-6.46-4.46c-1.14-2-2.46-3.87-3.61-5.85-1-1.82-2-3.71-2.91-5.58a26.26,26.26,0,0,1-2.53-7.79c-.27-1.67-1.4-3.21-2.14-4.81a1.84,1.84,0,0,1-.17-.69,16.71,16.71,0,0,0-2.49-8,.37.37,0,0,1,0-.18c0-5.57-2.32-10.93-1.45-16.59.14-.92.43-1.41,1.36-.93a6,6,0,0,1,1.74,1.25c3,3.36,7,2.89,10.8,2.46,1.93-.22,3.76-1.37,5.65-2.07,1.39-.53,2.81-1,4.21-1.51l6.09-2.28c1.58-.57,3.17-1.08,4.73-1.69,1.23-.49,2.43-1,3.6-1.63,1.37-.71,2.69-1.52,4-2.27,1.65-.92,3.37-1.74,5-2.75a29,29,0,0,0,4.61-3.37c2.05-1.93,3.87-4.1,5.79-6.16a25,25,0,0,0,2.5-2.66c1.38-2,2.41-4.27,4-6.11,1.1-1.3.81-2.7,1.22-4a36.05,36.05,0,0,1,1.91-4.21,4.36,4.36,0,0,0,.38-1c.53-2.34.68-4.84,1.64-7,1.42-3.18.93-6.42,1.06-9.64a31.28,31.28,0,0,0-.33-6.63,37.89,37.89,0,0,0-1.87-5.53,2.25,2.25,0,0,1-.09-.35C206.86,138.5,206.36,136.31,205.81,133.92Zm-22.89-18.16c-.51.32-1.23.53-1.44,1s0,1.41.32,1.55a15.16,15.16,0,0,0,4.13,1.4c3.15.43,5.24,2.3,7.12,4.6a4.52,4.52,0,0,0,.76.59c.21-.31.55-.58.62-.91.27-1.44-.39-2.36-1.38-3.48C190.34,117.4,186.48,117.27,182.92,115.76Zm-6.37,25.82c0,1.39-.31,2.58.86,3.93.91,1.06.94,2.91,1.29,4.42.05.19-.39.44-.46.7a9.82,9.82,0,0,0,0,6.18c.83-.72,1.76-1.46,1.91-2.33.32-1.78,1.07-3.46.33-5.5-.68-1.88,0-4.11-1.41-6C178.39,141.93,177.9,141.3,176.55,141.58Zm8,77.33a3.71,3.71,0,0,0,2.18-3.8c0-.28,0-.71.21-.83,1.51-1,.88-2.37.75-3.66-1.78-.36-2.39.43-2.39,2a3.19,3.19,0,0,1-.46,1.77A4.14,4.14,0,0,0,184.58,218.91Zm-8.41,15.57c-3.62,2.62-1.89,6-2,9.1a2.86,2.86,0,0,0,1.68-1.49A13.64,13.64,0,0,0,176.17,234.48Zm-7.54-69.58c-1.78-.79-3.25-.8-4.66.37a2.31,2.31,0,0,1-1.24.54c-1.81.08-1.8,1.12-1.38,2.83,2-.61,3.9-1.09,5.72-1.82C167.67,166.58,168,165.7,168.63,164.9Z"/><path class="cls-1" d="M111.19,279c0,1.29,0,2.43.17,3.55s-.58,2.7,1.11,3.41c.07,0,.08.21.1.32.46,2.89.94,5.77,1.34,8.66.15,1.13,0,2.28.13,3.42.4,5.14.9,10.28,1.2,15.44.15,2.44,0,4.91-.11,7.36a9.08,9.08,0,0,1-.41,1.48c-.28,1.22-1,2.64-.62,3.6.32.78,2,1.24,3.08,1.42a25.57,25.57,0,0,0,4.27.06c1,2.19-.82,2.85-1.53,4-1,1.57-2.2,3-3.31,4.5s-2.37,3.13-3.45,4.76-2.06,3.49-3.17,5.18c-.64,1-1.62,1.74-2.21,2.74-1.49,2.57-2.82,5.23-4.26,7.82-1.54,2.77-3.16,5.49-4.68,8.27a3.12,3.12,0,0,0-.2,1.59c.07,1.92-.84,2.91-2.67,3.51-1.36.44-2.51,1.48-3.83,2.09a43.27,43.27,0,0,1-4.21,1.57c-1.42.48-2.91.8-4.28,1.39a14.18,14.18,0,0,0-2.43,1.7l-.51-.25c.11.76.11,2.14.36,2.18a6.32,6.32,0,0,0,3.32-.11,21.73,21.73,0,0,0,3.27-2.16,18.4,18.4,0,0,1,2.39-1.2c2-.91,4.12-1.8,6.19-2.68a3.76,3.76,0,0,1,1,0,43.92,43.92,0,0,1-.07,4.46c0,.26-1,.67-1.5.6-2.23-.29-3.47,1.11-4.7,2.57-1.09,1.29-2.16,2.58-3.21,3.89-.67.84-1.22,1.77-1.91,2.59-1.8,2.13-3.67,4.2-5.46,6.33-1.17,1.4-2.24,2.87-3.36,4.31q-.51.64-1,1.29c1.51,1.6,2.66,0,3.34-.75,2.76-3.14,5.08-6.68,8-9.68a68.78,68.78,0,0,0,5.09-6.41,20.88,20.88,0,0,1,3.1-2.74,4.54,4.54,0,0,1,0,4.69,2.48,2.48,0,0,0-.58,1c-.51,4.56-.67,9.19-1.58,13.66-.52,2.54-.5,5.33-2,7.63a.48.48,0,0,0,0,.17c-.49,2.3-1,4.59-1.45,6.9-.56,3.17-1,6.37-1.53,9.55-.22,1.23-1,2.49-.87,3.62a24.56,24.56,0,0,1-.5,8.84c-1.06,5-.5,10.09-1.17,15.1-.54,4-.15,8.21-1.34,12s-.45,7.58-1.18,11.26c-.45,2.25-.7,4.64-2,6.68a3.75,3.75,0,0,0-.27,1.92q0,9.18,0,18.35c0,2.46.08,4.86-2.13,6.67-1.59,1.3-2.93,2.92-4.49,4.25a10.05,10.05,0,0,1-2.57,1.25,33.24,33.24,0,0,1-3.9,1.54,54.38,54.38,0,0,1-14.49,1.55,94.85,94.85,0,0,1-10.4-.28c-1.51-.17-2.9-1.4-4.34-2.15-.11,0-.18-.15-.28-.2-.68-.38-1.9-.69-1.94-1.12a23.36,23.36,0,0,1,.13-5.15c.15-1.25.77-2.43,1-3.68.33-2.05-.16-4.12,1-6.18.68-1.19.1-3.06.28-4.6.23-1.92.67-3.82,1-5.73a14.1,14.1,0,0,0,.21-2.14c.07-6.53.07-13.07.2-19.6a21.75,21.75,0,0,1,.69-6.66c.55-1.67-.66-3.84-.68-5.8-.08-6.17-.11-12.35.11-18.52a38,38,0,0,1,1.34-9.41,20.31,20.31,0,0,0,.89-7,24.3,24.3,0,0,0-.81-3.15,6.8,6.8,0,0,1-.16-2.82,15.27,15.27,0,0,0,.12-5.39c-.29-3.52-.34-7.07-.34-10.6,0-6.53,0-13.07.24-19.59a86.84,86.84,0,0,1,1.16-11c.48-3,1.41-5.85,2.13-8.77a9.75,9.75,0,0,0,.21-1.05c.46-3.56.58-7.22,1.5-10.66.47-1.74.75-3.73,2.12-5.32.86-1,1-2.6,1.59-3.86a55,55,0,0,1,2.65-4.82c1.18-1.93,2.54-3.75,3.71-5.7,1-1.66,1.76-3.46,2.74-5.13a2,2,0,0,1,1.37-.63c.83-.09,1.68.07,2.51,0,3.68-.39,7.36-.88,11-1.24,1.61-.15,3.25,0,4.85-.17a38.69,38.69,0,0,0,7.46-1.4,6.43,6.43,0,0,0,3-3.05c1.55-2.92,2.78-6,4.2-9a6.06,6.06,0,0,1,1.23-1.59c1.92-2,2.84-4.46,3.81-7a16.14,16.14,0,0,1,1.29-2.6A43.85,43.85,0,0,0,103.2,288c1.27-2.79,3.78-4.47,5.56-6.78A18.1,18.1,0,0,1,111.19,279ZM54.64,426.56c-1.34,1.49-2.28,2.89-2,4.95a12.42,12.42,0,0,1-.09,4.3c-.6,2.89.93,5.32,1.68,7.83s2.13,4.78,2.35,7.45c0,.14.15.28.38.68,1.87-2.09,5.25-1.51,6.48-4.93.92-2.57,2.74-4.83,3.37-8.08-.78.34-1.26.39-1.41.64a18.33,18.33,0,0,1-1.68,3.06,19.18,19.18,0,0,0-3.52,6.07c-.11.27-.44.45-.67.66a3.56,3.56,0,0,1-.5-.8c-.17-.5-.2-1.05-.36-1.55a45.87,45.87,0,0,1-2.05-6.41c-.71-4.31-1.07-8.68-1.59-13A3.11,3.11,0,0,0,54.64,426.56Zm36.65-98.64a33.08,33.08,0,0,1-1.84,4.77,83.73,83.73,0,0,1-4.76,7.2c-1.75,2.4-3.68,4.67-5.5,7a10.06,10.06,0,0,0-.76,1.32c.74,0,1.74.29,2.17-.08a53.66,53.66,0,0,0,4.34-4.45,11.8,11.8,0,0,0,2.49-3.89c.84-2.27,2.41-4.26,3.62-6.4.52-.92.67-2.29,1.43-2.76,1.23-.77,1-1.62,1-2.83ZM47.61,503.28c.94.46,1.78.79,2.54,1.26,1.74,1.06,3.69,2.42,5.58,1.57,2.15-1,4.26-.76,6.39-.92s2.12-.19,1.79-2.38c-2.86,0-5.71,0-8.56,0-1.55,0-3.56.43-4.55-.35C49,501,48.59,502.34,47.61,503.28Zm9.15-81.47c-.35-.6-.55-1.45-1-1.62-2.06-.73-3.19-2.5-4.65-3.89a24.28,24.28,0,0,0-2.41-2.45,5.86,5.86,0,0,0-2.25-.48c0,.59-.2,1.37.09,1.75a31.36,31.36,0,0,0,3.11,3.41c1.46,1.42,3,2.8,4.5,4.12a2.83,2.83,0,0,0,1.75.68C56.2,423.31,56.44,422.42,56.76,421.81Z"/><path class="cls-1" d="M145.34,301.57c-.74,1.37-1.37,2.63-2.1,3.83-.3.49-.88.8-1.24,1.27-1.28,1.66-2.46,3.4-3.8,5-1,1.19-2.21,2.17-3.21,3.35-1.62,1.87-3.11,3.83-4.7,5.73-1.24,1.49-2.51,2.95-3.83,4.36-.23.24-.79.25-1.2.25a41.12,41.12,0,0,1-5.56-.18,2.33,2.33,0,0,1-2.08-2.59c.1-5.81.69-11.7-.09-17.39-.7-5.13-.69-10.27-1.3-15.36-.22-1.9-1.42-3.67-1.79-5.58-.59-3.12-1.33-6.3.35-9.39a11.21,11.21,0,0,0,.37-1.9,17.17,17.17,0,0,0,1-2.83,32.19,32.19,0,0,0,0-4c-.61,0-1.38-.2-1.78.09a5.08,5.08,0,0,0-1.45,1.9c-.62,1.33-1,2.77-1.66,4.08a36.83,36.83,0,0,1-2.18,3.53c-.89,1.39-1.72,2.82-2.72,4.12-1.56,2-3.37,3.91-4.84,6a53.07,53.07,0,0,0-2.93,5.35c-.46.83-1,1.62-1.37,2.48a43.74,43.74,0,0,1-5.73,9.88,18,18,0,0,0-1.71,3c-.91,1.75-1.66,3.6-2.71,5.25A6,6,0,0,1,83.93,314c-5.14,1.93-10.54.35-15.66,1.45a33,33,0,0,1-8,.9c-2.64-.07-3.7-1.17-3.73-3.8s-.06-5.51-.15-8.27a21.3,21.3,0,0,0-.51-2.88,3.41,3.41,0,0,1,1.28-.37c.21,0,.42.71.55,1.12.54,1.64,1,3.29,1.6,5,3.13,1,5.25-.91,7.35-2.73a23.15,23.15,0,0,0,2.76-3.08c.86-1.07,1.52-2.29,2.41-3.32,2.18-2.54,1.43-5.11.46-7.86a18.57,18.57,0,0,1-.49-4.63c-.15-1.8.18-3.61-1-5.34-.54-.81-.24-2.22-.23-3.36,0-4.13-.31-8.32.3-12.37.31-2,.17-4.6,2.06-6.26a2.1,2.1,0,0,1,.68-.49c3-.9,6-1.64,8.92-2.72a62.15,62.15,0,0,0,6.28-3.12,5.43,5.43,0,0,1,1-.49c3.47-1,7-1.83,10.42-2.83,2.2-.64,4.32-1.53,6.52-2.14,1-.28,2.16,0,3.21-.25,3.72-.72,7.42-1.52,11.13-2.29a2.59,2.59,0,0,1,.53-.1c4.6.32,9-.91,13.56-1.34,2-.19,3.95-.15,5.93-.18s3.1.76,3.45,2.87c.41,2.4,1.8,4.27,3.1,6.22a31.45,31.45,0,0,1,3.16,5.62c.41,1,.74,2.61-.82,3.46-.08,0-.13.2-.15.31-.5,4.62-2.6,9.09-.66,14,.67,1.68.14,3.88,0,5.83-.13,1.59-.8,3.18-.72,4.74.1,2-.89,3.25-1.85,4.79-1.28,2-3.57,3.83-3.17,6.53C143.65,298.32,144.7,300,145.34,301.57ZM86.06,269.68l-.5-.59c-.75.15-1.8,0-2.2.48-1.09,1.23-1.88,2.73-2.85,4.07a2.21,2.21,0,0,1-1,.55c-.38.15-.92.11-1.16.36-1.4,1.49-2.75,3-4.1,4.57-.33.39-.61.83-.91,1.25.68.09,1.57.5,2,.21,2.5-1.64,5.07-3.23,6.84-5.77.75-1.06,1.65-2,2.44-3C85.14,271.11,85.58,270.39,86.06,269.68Z"/><path class="cls-1" d="M181.37,288.48c-2-.5-2.81.21-3.67,1.79a15.64,15.64,0,0,1-4.57,5.71c-3,2-5.73,4.36-8.73,6.34a56.41,56.41,0,0,1-6.57,3.48,2.06,2.06,0,0,1-1.68,0,76.53,76.53,0,0,1-7.34-4.94,6.68,6.68,0,0,1-2.62-5.46c0-.28.4-.54.54-.85,1.91-4,5.36-6.71,8.5-9.65,1.7-1.58,3.66-2.88,5.5-4.32.18-.13.43-.32.44-.5.13-2.06,1.48-2.17,3.06-2,6,.71,12,1.59,18,2.05s11.82.77,17.71-.4a31,31,0,0,1,5.2-.37c4.67-.1,9.37.11,14-.29,3.33-.28,6.58-1.35,9.87-2.07.23-.05.46-.12.69-.16a76.22,76.22,0,0,0,7.72-1.48c3.28-1,6.4-2.46,9.66-3.47a19.37,19.37,0,0,0,5.15-2.56c.8-.54,1.95-.62,2.89-1.39s2.61.5,2.86,2.37a30,30,0,0,0,.38,3.57c.6,2.33,1.4,4.61,2.08,6.92.14.45.09,1,.19,1.42a52.55,52.55,0,0,1,1.07,5.16,16.92,16.92,0,0,1-.35,3.8,40.47,40.47,0,0,0-.61,4.2c-.11,5.81-.12,11.62-.17,17.42a4.14,4.14,0,0,1-2,3.6c-1.17.81-2,2.15-3.19,2.88-1.66,1-3.45,1.82-5.59,1.22a12.72,12.72,0,0,0-3.39-.2c-13.37-.07-26.75.21-40.09-.31-6.53-.25-13.06-1-19.61-1.44a14.55,14.55,0,0,1-7.12-2.71,9.28,9.28,0,0,1-3-5.19c-.47-2-.65-4.3.78-6.23a1.85,1.85,0,0,0,.2-.69c.5-2.32.39-5.07,1.65-6.87,1.44-2.08.08-4.74,2.06-6.47C181.64,290.17,181.37,289.21,181.37,288.48Z"/><path class="cls-1" d="M157.25,121.31c1.4-.31,1.18.86,1.36,1.57.76,3.11,1.49,6.24,2.2,9.36a10.31,10.31,0,0,1,.3,2.13c0,5.7.07,11.39,0,17.09,0,.59-.52,1.19-.79,1.78-.12.27-.37.57-.33.8.47,2.35-.86,4.31-1.58,6.33-.56,1.6-.91,3.19-1.33,4.81s-1.62,3-2.54,4.52c-1.15,1.83-2.35,3.63-3.54,5.43s-2.31,3.38-3.41,5.11a28.2,28.2,0,0,0-1.55,2.93c-1,2-1.87,4.09-2.88,6.1-.26.5-.87.81-1.23,1.28-.92,1.23-1.55,2.88-2.75,3.66-2,1.26-2.86,3.27-4.32,4.85a42,42,0,0,0-3.12,4.12c-1.76,2.44-3.54,4.87-5.22,7.37-2.37,3.55-6.41,5.24-9.23,8.32-.66.73-2.37.5-3.6.7a7.7,7.7,0,0,0-2.91.84,34.55,34.55,0,0,1-4.8-2.26,29,29,0,0,1-4.75-4c-1.48-1.53-2.72-3.28-4.05-5-1.18-1.48-2.3-3-3.51-4.49-.88-1.06-1.9-2-2.8-3.07a34.27,34.27,0,0,1-2.52-3.24C87,196.24,86,193.67,84.22,192c-1.51-1.39-2.66-3-4-4.46-.18-.2-.49-.35-.58-.58a68.26,68.26,0,0,0-4.78-8.87c-1.49-2.58-3.7-4.73-4.48-7.81-.4-1.59-1.89-2.94-3.05-4.27a19.16,19.16,0,0,1-3.25-5.71,13.85,13.85,0,0,0-1.66-2.95c-1.2-1.68-1.14-2.88.38-4.22,2.41-2.1,4.79-4.24,7.23-6.3,1.72-1.45,3.61-2.71,5.26-4.22,1.49-1.36,2.78-2.94,4.14-4.44.55-.61,1-1.3,1.6-1.89,1.34-1.4,2.2-1.29,3.51.45s2.59,3.58,3.93,5.34c1.93,2.53,3.88,5.06,5.87,7.55,1.77,2.2,3.59,4.37,5.41,6.54,2,2.4,4.08,4.77,6.07,7.21.53.63.67,1.67,1.28,2.13,1.91,1.43,3.94,2.72,6,4s4.13,2.58,6.27,3.71a18.58,18.58,0,0,0,3.74,1.29c1.82.5,3.79,1.5,5.49,1.19a36.77,36.77,0,0,0,7.6-1.9,30,30,0,0,0,6.71-4.46c1.78-1.38,4-2.82,4.47-5.47.08-.41.76-.67,1.06-1.07a12.93,12.93,0,0,0,2.66-6.68c.27-2.51,1.38-4.92,2.09-7.38.2-.68.15-1.44.38-2.11.67-2,1.42-3.89,2.14-5.83a4.54,4.54,0,0,0,.21-.69c.8-4.93,2.21-9.79,1.49-14.89a32.47,32.47,0,0,1-.08-4Z"/><path class="cls-1" d="M103.45,60.91c-1.78-.13-2.93-1.7-3.64-3.52-1-2.51-1.73-5.18-4.32-6.83s-4.71-3.59-7-5.41c-.18-.14-.32-.38-.52-.44-1.86-.5-3.71-1.1-5.6-1.42-2.95-.5-5.93-.8-9.14-1.21A15.56,15.56,0,0,0,73,40c-.22-1.2-.56-2.37-.77-3.57a6.38,6.38,0,0,1-.05-1.95c.24-1.87.74-3.72.79-5.58a15.63,15.63,0,0,1,2.4-7.48,1.71,1.71,0,0,0,.17-.68,12,12,0,0,1,4.77-8.49c1.59-1.32,2.83-3.07,4.38-4.44a13,13,0,0,1,3-1.6,12.58,12.58,0,0,1,2.4-1.09c2.09-.58,4.2-1.1,6.32-1.52s4.63-1.42,6.67-1c2.93.68,6.13.22,8.83,1.91a3.3,3.3,0,0,0,.86.24c1.79.5,3.78.67,5.31,1.6A18.14,18.14,0,0,1,122,9.08c2.71,2.76,4.28,6.09,6.19,9.28,1,1.61,2.14,3.08,3.23,4.61.06.1.17.18.2.28.52,2,.65,4.21,1.63,5.94,2,3.48.35,7.42,1.91,11,.63,1.43.26,3.31.32,5,.1,3.17,0,6.36.33,9.52.24,2.6-1.58,3.71-3.11,5a22.41,22.41,0,0,1-4.9,3.57c-1.66.76-3.37,2.31-5.35,1.5a6.15,6.15,0,0,1-3.15-2.68,19.37,19.37,0,0,1-1.44-6.17,12.35,12.35,0,0,0-2.12-5.61c-1.51-2.55-3.36-2-5.31-1.94-.65,0-1.23.86-1.92,1.17-2.13.94-2.43,3.15-3.21,4.89A42.13,42.13,0,0,0,103.45,60.91Z"/><path class="cls-1" d="M136.86,78.64c-.42,3.3-.73,6.89-1.41,10.41-.31,1.59-1.42,3-2,4.54s-1.15,3.13-1.64,4.72c-.54,1.75-1,3.53-1.51,5.28a1.26,1.26,0,0,1-.67.71c-2.12.79-3,2.78-4.17,4.41a47.86,47.86,0,0,0-2.9,4.83c-.37.64-.55,1.39-.91,2-.57,1-1.24,2-1.85,3a4.66,4.66,0,0,0-.57,1c-1,2.85-1.78,5.77-2.9,8.57-1,2.45-2.28,4.76-3.43,7.14a1.22,1.22,0,0,0-.1.34c-.5,2.08-.61,4.37-1.59,6.18-1.17,2.12-.37,4.5-1.27,6.37-1.69,3.52-.81,7.15-1.26,10.7-.07.49-.32,1.36-.48,1.36a2.43,2.43,0,0,1-1.69-.52c-1.81-1.93-3.59-3.9-5.24-6-1.88-2.38-3.65-4.86-5.41-7.34-2-2.88-4.84-5.13-6.88-7.9-1.67-2.28-3.57-4.34-5.26-6.57-.61-.8-1-1.74-1.62-2.56a1.94,1.94,0,0,0-1-.59,2.19,2.19,0,0,1-1.14-3.54,11.32,11.32,0,0,0,.83-1.8l1.62-3.64c.74-1.69,1.46-3.38,2.26-5,.29-.6.87-1.07,1.18-1.67.94-1.78,1.72-3.66,2.74-5.39.91-1.52,2.05-2.9,3.1-4.34s2.12-2.87,3.15-4.33c1.16-1.65,2.34-3.29,3.39-5s2-3.65,3.06-5.42A12,12,0,0,1,103,86.81c2-2.08,3.76-4.41,6-6.15,1.9-1.49,3.34-3.5,5.73-4.56,2.13-.95,3.8-2.9,5.72-4.35A6.54,6.54,0,0,1,123,70.3c1.63-.24,2.61-2.25,4.47-1.56a11.9,11.9,0,0,1,2.29,1.2c1.54,1,3,2.15,4.56,3.23,0,0,.06.14.1.14C137.8,73.77,136.73,76.35,136.86,78.64Zm-50.62,47.2.71.29,1.72-2.78a26.59,26.59,0,0,1,1.44-2.28,64.72,64.72,0,0,0,4.56-5.95c1.33-2.29,3.15-4.2,4.42-6.58,1.42-2.68,3.9-4.78,5.9-7.15,1.7-2,3.46-4,5-6.12.66-.92,2.23-1.76,1-3.55-.5.15-1.27.15-1.65.54-1.12,1.15-2.08,2.45-3.1,3.69l-4.74,5.84c-.91,1.11-1.89,2.17-2.71,3.34-1.29,1.82-2.4,3.77-3.7,5.56-1.19,1.63-2.9,3-3.73,4.72-1.18,2.52-3.64,4-4.67,6.76A5.24,5.24,0,0,0,86.24,125.84Z"/><path class="cls-1" d="M65.11,167.19c1.1,1.95,2,3.75,3.07,5.37,1.42,2.08,2.25,4.55,4.41,6.15.75.56,1,1.76,1.47,2.7a38.14,38.14,0,0,0,1.69,3.8c1,1.69,2.25,3.27,3.42,4.88a19.93,19.93,0,0,0,2.41,3c2,1.81,2.77,4.35,4.23,6.48s2.39,4.75,4.11,6.64c3.84,4.21,8.25,7.89,12,12.16,3,3.46,6.78,3.71,10.79,3.69.84,0,1.68-.16,2.51-.1a5,5,0,0,0,4.17-1.87c1.2-1.25,2.93-2,4.2-3.18,2-1.92,3.89-4,5.71-6.11,2.24-2.58,4.35-5.27,6.54-7.89.09-.11.33-.1.92-.24.05,1.23.13,2.36.14,3.49,0,3.48-.08,6.95,0,10.42,0,1.13.66,2.24.84,3.38.28,1.8.4,3.63.56,5.18-.33.33-.37.4-.41.41q-6.21.71-12.41,1.39c-.71.08-1.43,0-2.15.06-1.8.1-3.65-.3-5.33.92-.54.4-1.51.24-2.28.27-2.93.1-6-.36-8.77.39-3,.83-6.24.22-9,1.27-2.43.93-4.76.57-7.1,1-1.78.33-3.55.74-5.33,1.06a12.87,12.87,0,0,1-2,.11c-2.52.06-5.24-.48-7.5.3-3.25,1.12-6.53.76-9.73,1.36a27.34,27.34,0,0,0-4.58,1.79c-.08-.92-.24-1.89-.24-2.85,0-9.71.08-19.42-.09-29.13-.08-4.18-.82-8.35-1.1-12.53a33.77,33.77,0,0,1,.08-7.18c.45-3,1.39-5.81,2.09-8.72a8.64,8.64,0,0,0,.2-2A8,8,0,0,1,65.11,167.19Z"/><path class="cls-1" d="M151.36,119.79c1.69.86,1.74,2.38,2.39,3.59,1.76,3.26,1.12,6.65.89,9.93-.16,2.33-1.36,4.58-2.09,6.86a2.71,2.71,0,0,0-.25.83c.16,2.35-1.14,4.09-2.37,5.86a.77.77,0,0,0-.12.33c-.09,3-1.86,5.57-1.57,8.7a8.28,8.28,0,0,1-1.42,4.71,33.27,33.27,0,0,1-4.64,5.8,25.78,25.78,0,0,1-8.15,6.08,14.11,14.11,0,0,1-5.29.91c-.82,0-1.86.28-2.18-1,0-.16-.52-.34-.76-.3a8.61,8.61,0,0,1-5.71-1.3c-3.18-1.78-6.57-3.38-8.33-6.9a2.66,2.66,0,0,1-.26-1c0-4.13-.49-8.34.16-12.36.37-2.27.75-4.59,1.18-6.88.34-1.78,1.39-3.41,2.06-5.14.53-1.38.94-2.81,1.46-4.19.78-2.06,1.62-4.09,2.4-6.14,1-2.56,1.9-5.15,2.91-7.7.26-.68.8-1.24,1.12-1.91.93-1.94,1.74-3.93,2.74-5.83.34-.64,1.11-1,1.51-1.4,2.76,2,5.53,4,8.28,6.06.52.39,1.19.87,1.34,1.43.67,2.48,2.58,3.89,4.33,5.47l2.17,2c2.15,2,4.56,1.6,6.54-.56C151.26,124,150.86,121.88,151.36,119.79Z"/><path class="cls-1" d="M49.51,80.08c.59.44,1.4.75,1.74,1.33,1.72,3,3.33,6,5,9a2.18,2.18,0,0,1,.21.67c.64,3.44,1.28,6.89,2,10.64l2.06.13V91.44c1.41,1.12,2.26,1.92,2.51,3.34a26.51,26.51,0,0,0,1.41,6.2c1.26,2.81,1.6,5.83,2.57,8.65.78,2.28.48,4.68,1.29,6.74,1.16,3,.53,6,1.1,8.91a45.7,45.7,0,0,0,2.16,6.28c.56,1.57,1.14,3.14,1.75,4.83l2.07-.38c-.5-1.59-.93-3-1.45-4.65a46.31,46.31,0,0,1,4.77,0c1.09.12,1.28,2.48.32,3.46-2.85,2.92-5.65,5.89-8.61,8.7-1.25,1.18-3.08,1.8-4.22,3.06-1.49,1.66-4.12,2.16-4.74,4.76-.12.51-1.17.8-2.22,1.45.64-3.75,0-7.39,2.36-10.68-1.64-2.17-3.29-4.42-5-6.61-1.95-2.49-4-4.89-5.95-7.41-1.09-1.43-2-3-3-4.54-.86-1.23-1.83-2.39-2.74-3.59a33.57,33.57,0,0,1-2.32-3.15c-1.26-2.15-2.38-4.37-3.56-6.57a.82.82,0,0,1-.12-.33c-.49-4-1-7.94-1.44-11.92a6,6,0,0,1,.46-1.6,9.58,9.58,0,0,0,.76,1.16c.19.2.54.48.67.41s.61-.47.6-.71c-.2-2.71-.47-5.42-.68-8.13a4.68,4.68,0,0,1,.13-1.49c.29-1.17.64-2.32,1-3.48h.55a13.68,13.68,0,0,1,.32,1.88c0,2.1,0,4.2,0,6.29,0,1.66.8,2.24,2.69,1.86-.08-1.71-.24-3.41-.21-5.11a32,32,0,0,1,.38-5.72c.44-2.25,1.27-2.49,3.27-1.29a3,3,0,0,0-.12,3.46c.67,1.39.16,3.31.42,5A34.47,34.47,0,0,0,49,95.23a.62.62,0,0,0,1.17-.29c-.19-2,.6-4.19-.89-6a1.29,1.29,0,0,1-.19-.68c0-1-.11-1.92-.12-2.87,0-1.61,0-3.22,0-4.83Z"/><path class="cls-1" d="M100.48,86.18c-.37-1.79.09-3.87-1.86-4.15a20,20,0,0,1-3.25.66A15.56,15.56,0,0,0,88.09,85c-2,1.13-7.1-.07-8.61-1.78a5.94,5.94,0,0,1-1.34-4.8,7.73,7.73,0,0,0-2.08-5.94A2.15,2.15,0,0,1,75.74,71c.29-2.54-1.71-3.53-3.22-4.8-.82-.7-1.88-1.09-2.74-1.75s-.73-3,0-4.22A12.89,12.89,0,0,0,71.6,56.3c.55-3.28,2.13-6.41,1.55-9.87a3.9,3.9,0,0,1,.2-.88c3.76.66,7.72-.83,11.4,1.29a1.37,1.37,0,0,0,.69.15c2.59-.07,4.12,1.68,5.79,3.28,1.27,1.21,2.75,2.2,4.1,3.33a2.61,2.61,0,0,1,.66,1c1,2.32,1.8,4.68,2.83,7a3.51,3.51,0,0,0,6.14.51,14.24,14.24,0,0,0,2.68-7c.1-1.78,2.52-4.35,4-4.4a3.44,3.44,0,0,1,3.57,3.1,20.62,20.62,0,0,1,.14,3.59c-.3,3.15,1.58,5.54,2.76,8.16.18.4,1.11.57,1.73.65,1.79.24,1.8.2,1.84,2.16C113.86,73.4,106.36,78.73,100.48,86.18Z"/><path class="cls-1" d="M141,42.33c7.43,7.3,9.76,16.1,8.61,25.94l2,1.12c1.6-.78,2.45-1.8,1.06-3.52a.92.92,0,0,1-.08-.68c.27-1.14.54-2.29.89-3.41a3.38,3.38,0,0,1,.69-.9,5,5,0,0,1,.74.63c.33.4.79.82.86,1.28.67,4.11,2.52,8.23,1.3,12.36-1,3.43-.55,6.87-1.16,10.24a67.8,67.8,0,0,1-2,7.08c-.54,1.81-1.07,3.61-1.71,5.38-.47,1.32-1.13,2.56-1.66,3.86-.75,1.83-1.49,3.67-2.16,5.54a13.8,13.8,0,0,0-.8,3,15.87,15.87,0,0,0,.25,2.91c-.78.94-.62,2.34.08,4,.34.8,0,1.93-.15,2.91s-.39,1.82-.53,2.75c-.1.63-.09,1.29-.13,2-1.15.1-1.93.37-2.77-.9-1.05-1.56-2.82-2.63-4.15-4-.64-.67-.82-1.83-1.51-2.4-2.4-1.94-5-3.65-7.36-5.6-.43-.36-.35-1.46-.32-2.2,0-.42.55-.79.64-1.23.55-2.45.89-5,1.58-7.36a45.3,45.3,0,0,1,2.13-4.6c.59-1.41.83-3,1.62-4.28,1.48-2.4.67-5.21,1.5-7.56,1.61-4.52.57-9.1,1.12-13.61.3-2.41.8-4.81.88-7.22a63,63,0,0,0-.44-6.84c0-.29-.17-.57-.18-.86-.05-3.18-.24-6.36-.07-9.52A17.31,17.31,0,0,1,141,42.33Z"/><path class="cls-1" d="M113.29,530.78a13.51,13.51,0,0,1-1.8,0c-2-.29-4-.76-6.07-.93-3.4-.29-6.86-1.14-10.16.68a3.89,3.89,0,0,1-1.76.22c-2.93,0-5.88-.08-8.81,0a6.76,6.76,0,0,1-5.56-1.94c-.46-.45-1.47-.3-2.15-.61a6.08,6.08,0,0,1-2.5-1.61c-.26-.37.53-1.47.8-2.26a5.36,5.36,0,0,0,.36-1.51c.06-2.34.11-4.67.1-7a6,6,0,0,1,4-5.65,1.47,1.47,0,0,0,.81-.74c.67-1.66,1.87-2.4,3.56-3.09,2.05-.83,4.47-1.09,6-3.13.93-1.25,3-.61,4.73.93a20.32,20.32,0,0,0,3.48,2.33c1.77,1,3.59,2,5.38,3a39.11,39.11,0,0,0,3.55,2c1.48.64,3.1,1,4.58,1.59,1.24.53,2.34,1.4,3.56,2s2.33,1,3.51,1.45c1.36.53,2.75,1,4.11,1.51a34.28,34.28,0,0,1,3.18,1.32,1.1,1.1,0,0,1,.31,1c-.7,1.75-1.59,3.43-2.22,5.21a7.61,7.61,0,0,1-6.89,5.17c-1.37,0-2.75,0-4.13,0Z"/><path class="cls-1" d="M55.89,533.34a33.82,33.82,0,0,0-3.77,0,11.23,11.23,0,0,0-2.38.78,5,5,0,0,1-1,.32c-3.75.47-7.49,1.13-11.25,1.31a138.3,138.3,0,0,1-14,0,85.69,85.69,0,0,1-9.78-1.43,17.23,17.23,0,0,1-4.54-1.17,10.81,10.81,0,0,1-3.68-2.84c-.71-.87.83-2.89,2.4-3.38s3.1-.77,4.58-1.34,3.07-1.58,4.67-2.18,3.58-1,5.34-1.61,3.52-1.32,5.25-2.06a16.81,16.81,0,0,0,3-1.57,21,21,0,0,0,2.7-2.38c.66-.67,3-.64,4,.14.22.18.37.53.61.59a35.64,35.64,0,0,0,6.36,1.39c4.42.22,8.87.24,13.29,0a82.51,82.51,0,0,0,9.74-1.31,38.36,38.36,0,0,0,4.24-1.31c1.15-.34,1.54.27,1.43,1.32-.22,2.32.53,4.72-1.11,6.9-.79,1.05-.78,2.69-1.54,3.79-1,1.48-2.08,3-4.09,3.58A42.81,42.81,0,0,0,61.57,533a4,4,0,0,1-1.37.26c-1.44,0-2.87,0-4.31,0Z"/><path class="cls-1" d="M160.24,66.44c2.12,2.78,4.08,5.49,6.19,8.07a10.38,10.38,0,0,0,3.24,2.79c1.84.91,2.83,3,5.06,3.33.88.11,1.87.86,2.57.62,2.26-.78,4.89-1.14,5.7-4.11.41-1.5,2.58-2.23,4.7-1.83a71.34,71.34,0,0,1,1.4,8.54c.13,2.76,1.53,4.57,3.27,6.36.64.65,1.23,1.34,1.72,1.87-3,2.35-5.94,4.65-8.9,6.87-3.17,2.38-6.41,4.65-9.58,7-.64.47-1.05,1.3-1.73,1.63a4.41,4.41,0,0,1-2.45.39c-1-.14-1.86-.82-2.82-1-1.29-.19-2.63-.05-4-.16a8.63,8.63,0,0,1-6.56-3.29c-1.12-1.51-1.19-3.72-3.26-4.72-.35-.16-.15-2,.19-2.9a30.27,30.27,0,0,1,2.06-3.73,1.33,1.33,0,0,0,.13-.52c.53-4.16.8-8.38,1.65-12.47a48.26,48.26,0,0,0,.88-11.67,1.72,1.72,0,0,1,.14-.7C160,66.7,160.11,66.59,160.24,66.44Z"/><path class="cls-1" d="M17.23,83.74a10.28,10.28,0,0,0-1.13-2.23C14.77,80,14,76,14.94,73.91c.2.26.53.5.49.65-.47,2,1.44,3.32,1.62,5.14,0,.17.42.43.62.41s.61-.34.59-.49c-.13-1.46-.29-2.91-.55-4.35-.09-.51-.53-1-.7-1.47a29.45,29.45,0,0,1-1.15-4c-.17-1-.38-2.34.13-2.94,1.49-1.74,1-3.21,0-4.8-.08-.13,0-.35,0-.71l2-.26a8.74,8.74,0,0,1,.32,1.27c.45,3.72.66,7.48,1.41,11.14.46,2.22,1.76,4.27,2.81,6.71,1.44-1.83,1-3.29.47-4.75A14.55,14.55,0,0,1,22.09,73c-.16-1,0-2.16-.12-3.22s-.63-1.86-.76-2.81a15.62,15.62,0,0,1,0-4.1c2.7,2,4.57,4.2,4.91,7.55.13,1.23,1.19,2.35,1.76,3.55s1.21,2.75,1.86,4.1a3.74,3.74,0,0,0,.73.82c.19-.32.56-.64.55-1-.07-2.27.62-4.64-1-6.75-.37-.48-.06-1.47-.06-2.7,2.2,3,4.1,5.43,5.8,8a7.43,7.43,0,0,1,1.47,3.8c0,1.17-1,2.33-1.65,3.48-.14.25-.5.39-.59.63a25,25,0,0,0-1.19,12.94c.52,2.55.3,5.37,1.36,7.55s.1,4.7,1.92,6.6c.82.85,1,2.3,1.52,3.45a19.73,19.73,0,0,0,1.14,1.89l-3,2.78c-1.94-2.64-3.22-5.45-5.48-7.66-1.72-1.68-2.85-4-4.49-5.74-2.24-2.41-4.9-4.45-7.06-6.93a88.17,88.17,0,0,1-6.29-8.42,10.73,10.73,0,0,1-1.39-3.66c-.6-2.69-1-5.43-1.56-8.13a31.69,31.69,0,0,1-1-3.26c-.17-1.81,0-3.64,0-5.51.41,0,.72,0,.74.06.57,1.93.76,4.08,1.76,5.74,1.14,1.87.57,4.18,2.21,6C15,82.88,14.94,84.32,17.23,83.74Z"/><path class="cls-1" d="M244.2,528v-2c1.92-.58,4-.86,5.69-1.79a23.53,23.53,0,0,1,9.47-2.55c2.22-.2,4.36-1.35,6.53-2.11,1.31-.46,2.63-.93,3.89-1.51,5.92-2.7,12.12-.66,18.16-1.13,3.78,1.92,7.47-.8,11.26-.19a5.79,5.79,0,0,0,4.19-.86c1.87-1.18,3.36-.36,4.63,1.69,1.47,2.39,2.73,4.76,2.48,7.75a6.23,6.23,0,0,1-5.18,5.65c-2.18.3-4.35,1.16-6.49,1.07a72.08,72.08,0,0,1-13.06-1.39c-6.68-1.53-13.39-.88-20.09-1.14-2-.08-4.12.39-5.89-.24C254.73,527.4,249.53,528.69,244.2,528Z"/><path class="cls-1" d="M62.3,164.24,60,170.37h-.58c-1-2.21-1.9-4.45-3-6.61-.92-1.81-2-3.53-3.1-5.27-1.53-2.49-3-5-4.64-7.43-1.32-2-2.78-4-4.11-6-.77-1.17-1.38-2.45-2.09-3.66a15.17,15.17,0,0,0-1.37-2.13c-2.23-2.61-3.49-5.84-5.87-8.41-1.48-1.59-2.22-3.92-3.93-5.5-.26-.24-.14-.89-.18-1.2,2-.68,3.9-1.25,5.73-2a17.58,17.58,0,0,0,2.27-1.43c2.51-1.51,2.8-1.4,4.5,1,2.18,3.14,4.41,6.25,6.65,9.34,1.71,2.36,3.48,4.67,5.24,7,.41.54.86,1.05,1.3,1.57,1.28,1.53,1.3,2.69.21,4.35a3,3,0,0,0-.39,1.49c-.07,2.57,0,5.15-.19,7.71-.12,1.53,1,2.28,1.61,3.27,1,1.54,2.41,2.82,3.41,4.36C62,161.72,62,162.86,62.3,164.24Z"/><path class="cls-1" d="M150.55,425c.57,1.5,1.12,3,1.69,4.49s1.07,2.79,1.64,4.16a29.91,29.91,0,0,1,2,4.86,16.17,16.17,0,0,0,2.34,5.63,1.68,1.68,0,0,1,.23.66,19.87,19.87,0,0,0,2.6,7.11,6.51,6.51,0,0,1,1,4.14c-.23,1.15-.43,2.83-2.23,3.38a22.37,22.37,0,0,0-3.79,2.08,1.9,1.9,0,0,1-.84.24c-2.26.1-4.1,1.25-6,2.29a3.75,3.75,0,0,1-1.22.28c-1.48.21-3.1-.2-4.33,1.12-.19.2-.79,0-1.41,0,.22-2.2-.79-4.27.68-6.44.66-1,.24-2.68.35-4.05s-.36-2.76.93-3.8c.15-.11.12-.45.15-.69.49-4.71.83-9.43,1.53-14.11a34.4,34.4,0,0,1,2.09-6.5c.61-1.65,1.38-3.25,2.08-4.86Z"/><path class="cls-1" d="M97.12,85.38c1.08,3.6-.89,6.21-2.66,8.87-1,1.58-2.19,3.1-3.3,4.64-.78,1.08-1.63,2.12-2.36,3.24-.61,1-1.07,2-1.62,3-.66,1.17-1.38,2.3-2,3.48a25.19,25.19,0,0,0-1.59,3.21c-.9,2.4-2.47,4.43-3.17,7-.78,2.82-2.4,5.42-3.74,8.06a4.51,4.51,0,0,1-1.52,1.61c-1.15.78-2.84-.24-3.17-1.89-.16-.82-.1-1.68-.27-2.49-.25-1.18-.73-2.32-.88-3.51s-.79-2.43.53-3.4c.24-.18.27-.63.39-1,.82-2.31,1.67-4.6,2.45-6.93.56-1.69,1-3.43,1.57-5.12.19-.54.75-.93,1.09-1.42,2-2.93,4.15-5.82,6.11-8.8,1.12-1.71,2-3.57,3-5.36.11-.2.21-.5.38-.55C89.84,86.94,93.05,84.65,97.12,85.38Z"/><path class="cls-1" d="M138.07,486c.45-1.48-.49-3.09,1.18-4,.11-.06.11-.33.14-.5.44-3.33.94-6.66,1.3-10a3.67,3.67,0,0,1,2.72-3.24c1.9-.62,3.73-1.46,5.59-2.2a2.77,2.77,0,0,1,1-.32c2.79,0,5.15-1.09,7.49-2.47,1.72-1,3.76.15,4.88,2.4s2.7,4.44,3.52,6.84a9.78,9.78,0,0,1,0,5.26c-.19.8-1.67,1.44-2.69,1.86a45.07,45.07,0,0,1-11.13,2.78c-2.22.32-4.32,1.41-6.48,2.14-.34.11-.71.12-1.05.22-1.37.41-2.71.89-4.1,1.22A11.49,11.49,0,0,1,138.07,486Z"/><path class="cls-1" d="M90.61,499.55c-1.26,2-3.25,3-5.27,4-1.18.57-1.88.08-1.91-1.56-.09-4.08-.11-8.15-.15-12.23a26.83,26.83,0,0,1,.07-3.59c.2-1.62.59-3.22.91-4.83,0-.17.14-.33.16-.51.56-5.41,1-10.83,1.73-16.21.38-2.8,1.29-5.51,1.83-8.29a5.62,5.62,0,0,0-.13-3c-.66-1.61-1-2.93.17-4.56.57-.8.27-2.2.44-3.32.84-5.7,1.11-11.43,1.42-17.17.11-2.17,1.39-4.27,2.06-6.43.24-.79.18-1.67.36-2.48.07-.3.45-.54.68-.81.19.27.53.53.53.79-.06,4.57.61,9.16-.74,13.71a9.55,9.55,0,0,0,0,5.14,10.24,10.24,0,0,1-.16,6.43,12.76,12.76,0,0,0-.4,3.72c-.08,6.05.12,12.11-.25,18.14-.24,3.84-1.34,7.63-2,11.45-.19,1.11-.18,2.26-.29,3.39a39.76,39.76,0,0,1-.85,5.45c-.77,3.16-.52,6.62-.32,9.93C88.6,497.72,89.91,498.64,90.61,499.55Z"/><path class="cls-1" d="M151.18,284.27a6.39,6.39,0,0,1,.13-2.07c1.38-3.25.83-6.42.14-9.74-.6-2.91-1.16-6,.48-8.9a8.46,8.46,0,0,0,.49-2.26l2.11.33-.38.39q1.88,2.36,3.77,4.7c.1.14.34.2.38.34.95,2.95,2.34,5.95,1.34,9.05-.76,2.37-1.6,4.95-4.41,6-.69.26-1.18,1-1.81,1.47s-1.16.73-1.75,1.09Z"/><path class="cls-1" d="M154.84,104.75l3.48,2.86c.26.22.5.57.79.62,2.59.44,5.2.81,7.79,1.24a14.93,14.93,0,0,1,1.94.59,6.72,6.72,0,0,1-1.16,1.58c-1,.71-2.11,1.16-3.05,1.89-1.16.9-2.18,2-3.28,3-.34.31-.92.88-1.08.79a3.5,3.5,0,0,1-1.45-1.37c-1.06-2.39-1.68-5-3.09-7.17A6.49,6.49,0,0,1,154.84,104.75Z"/><path class="cls-1" d="M137.63,60.94c-.21,3-.4,6-.65,9a4.4,4.4,0,0,1-.51,1.22c-.32-.25-.63-.51-1-.74-1.5-1-3-2-4.49-3a6.3,6.3,0,0,1-1.57-1.32,1.22,1.22,0,0,1,.19-1.19c1.27-1.19,2.58-2.34,4-3.41a15.22,15.22,0,0,1,2.74-1.65C137.44,59.36,138.18,59.87,137.63,60.94Z"/><path class="cls-1" d="M157.29,121.27a17.05,17.05,0,0,1-2.4-2c-1.07-1.31-1.87-2.84-2.95-4.14-1.54-1.86-1.77-7.06-.16-9.27.58,1.51,1.09,2.94,1.67,4.34.69,1.64,1.58,3.21,2.13,4.89.67,2,2.45,3.83,1.67,6.27Z"/><path class="cls-1" d="M28.63,122.29c-.24-2.2-.82-4.17.86-5.86a1.58,1.58,0,0,1,2.78.65c.16.43.47.8.61,1.23.27.82.85,1.84.59,2.47a3.67,3.67,0,0,1-2.16,1.46A9.77,9.77,0,0,1,28.63,122.29Z"/><path class="cls-1" d="M36.9,88.31a23.57,23.57,0,0,1,.16,8.42C35.91,95.11,35.84,90,36.9,88.31Z"/><path class="cls-1" d="M12.25,68.45c-.31-1.39-.62-2.78-1-4.49l1.55-1.69v6.17Z"/><path d="M139.47,365.52c2.63-1.06,4.85-2,7.09-2.85,1.49-.58,3.06-1,4.51-1.67s2.63-1.54,4-2.24c1-.53,2.11-.81,3.06-1.4,3.59-2.21,7.16-4.46,10.67-6.8a13.81,13.81,0,0,0,2.65-2.59c1-1.16,2.06-1.22,3.62-.26a57.24,57.24,0,0,1-4.24,4.28,75.29,75.29,0,0,1-6.48,4.75,40.89,40.89,0,0,1-3.71,1.78c-.57.3-1,.89-1.57,1.19-2.71,1.37-5.46,2.65-8.17,4a27,27,0,0,1-9.1,2.49,2.77,2.77,0,0,0-.71.11c-.5.22-1,.5-1.46.75C139.55,366.45,139.5,365.83,139.47,365.52Z"/><path d="M182.92,115.76c3.56,1.51,7.42,1.64,10.13,4.73,1,1.12,1.65,2,1.38,3.48-.07.33-.41.6-.62.91a4.52,4.52,0,0,1-.76-.59c-1.88-2.3-4-4.17-7.12-4.6a15.16,15.16,0,0,1-4.13-1.4c-.3-.14-.5-1.15-.32-1.55S182.41,116.08,182.92,115.76Z"/><path d="M176.55,141.58c1.35-.28,1.84.35,2.55,1.36,1.36,1.93.73,4.16,1.41,6,.74,2,0,3.72-.33,5.5-.15.87-1.08,1.61-1.91,2.33a9.82,9.82,0,0,1,0-6.18c.07-.26.51-.51.46-.7-.35-1.51-.38-3.36-1.29-4.42C176.24,144.16,176.51,143,176.55,141.58Z"/><path d="M184.58,218.91a4.14,4.14,0,0,1,.29-4.49,3.19,3.19,0,0,0,.46-1.77c0-1.6.61-2.39,2.39-2,.13,1.29.76,2.64-.75,3.66-.18.12-.24.55-.21.83A3.71,3.71,0,0,1,184.58,218.91Z"/><path d="M176.17,234.48a13.64,13.64,0,0,1-.37,7.61,2.86,2.86,0,0,1-1.68,1.49C174.28,240.48,172.55,237.1,176.17,234.48Z"/><path d="M168.63,164.9c-.62.8-1,1.68-1.56,1.92-1.82.73-3.74,1.21-5.72,1.82-.42-1.71-.43-2.75,1.38-2.83a2.31,2.31,0,0,0,1.24-.54C165.38,164.1,166.85,164.11,168.63,164.9Z"/><path d="M54.64,426.56a3.11,3.11,0,0,1,.42.84c.52,4.35.88,8.72,1.59,13a45.87,45.87,0,0,0,2.05,6.41c.16.5.19,1.05.36,1.55a3.56,3.56,0,0,0,.5.8c.23-.21.56-.39.67-.66a19.18,19.18,0,0,1,3.52-6.07,18.33,18.33,0,0,0,1.68-3.06c.15-.25.63-.3,1.41-.64-.63,3.25-2.45,5.51-3.37,8.08-1.23,3.42-4.61,2.84-6.48,4.93-.23-.4-.37-.54-.38-.68-.22-2.67-1.6-5-2.35-7.45s-2.28-4.94-1.68-7.83a12.42,12.42,0,0,0,.09-4.3C52.36,429.45,53.3,428.05,54.64,426.56Z"/><path d="M91.29,327.92l2.15-.11c.09,1.21.27,2.06-1,2.83-.76.47-.91,1.84-1.43,2.76-1.21,2.14-2.78,4.13-3.62,6.4a11.8,11.8,0,0,1-2.49,3.89,53.66,53.66,0,0,1-4.34,4.45c-.43.37-1.43.07-2.17.08a10.06,10.06,0,0,1,.76-1.32c1.82-2.34,3.75-4.61,5.5-7a83.73,83.73,0,0,0,4.76-7.2A33.08,33.08,0,0,0,91.29,327.92Z"/><path d="M47.61,503.28c1-.94,1.36-2.29,3.19-.83,1,.78,3,.33,4.55.35,2.85,0,5.7,0,8.56,0,.33,2.19.23,2.23-1.79,2.38s-4.24-.06-6.39.92c-1.89.85-3.84-.51-5.58-1.57C49.39,504.07,48.55,503.74,47.61,503.28Z"/><path d="M56.76,421.81c-.32.61-.56,1.5-.86,1.52a2.83,2.83,0,0,1-1.75-.68c-1.54-1.32-3-2.7-4.5-4.12a31.36,31.36,0,0,1-3.11-3.41c-.29-.38-.07-1.16-.09-1.75a5.86,5.86,0,0,1,2.25.48,24.28,24.28,0,0,1,2.41,2.45c1.46,1.39,2.59,3.16,4.65,3.89C56.21,420.36,56.41,421.21,56.76,421.81Z"/><path d="M86.06,269.68c-.48.71-.92,1.43-1.44,2.11-.79,1-1.69,2-2.44,3-1.77,2.54-4.34,4.13-6.84,5.77-.43.29-1.32-.12-2-.21.3-.42.58-.86.91-1.25,1.35-1.54,2.7-3.08,4.1-4.57.24-.25.78-.21,1.16-.36a2.21,2.21,0,0,0,1-.55c1-1.34,1.76-2.84,2.85-4.07.4-.45,1.45-.33,2.2-.48Z"/><path d="M86.24,125.84a5.24,5.24,0,0,1,.42-3.67c1-2.76,3.49-4.24,4.67-6.76.83-1.76,2.54-3.09,3.73-4.72,1.3-1.79,2.41-3.74,3.7-5.56.82-1.17,1.8-2.23,2.71-3.34L106.21,96c1-1.24,2-2.54,3.1-3.69.38-.39,1.15-.39,1.65-.54,1.23,1.79-.34,2.63-1,3.55-1.51,2.14-3.27,4.11-5,6.12-2,2.37-4.48,4.47-5.9,7.15-1.27,2.38-3.09,4.29-4.42,6.58a64.72,64.72,0,0,1-4.56,5.95,26.59,26.59,0,0,0-1.44,2.28L87,126.13Z"/></g></g></svg>