<svg xmlns="http://www.w3.org/2000/svg" viewBox="0 0 455.67 547.64"><defs><style>.cls-1{fill:#fff;}</style></defs><g id="Layer_2" data-name="Layer 2"><g id="Layer_1-2" data-name="Layer 1"><path class="cls-1" d="M391.05,511.11a36.6,36.6,0,0,1,4-1.58c1.5-.39,1.26-1.3.93-2.33a12.42,12.42,0,0,1-.81-2.58c-.6-6.75.25-13.51-1.07-20.31-1.16-5.94-.3-12.16-1.26-18.28-1.06-6.81-.28-13.8-1.26-20.73-1.18-8.41.89-17.07-1.43-25.48.63-4.51-1.32-8.73-1.46-13.15a3.38,3.38,0,0,0-.16-.7c-.71-2.54-1.82-5.05-2.05-7.63a120.33,120.33,0,0,1,1.26-28.93,1.53,1.53,0,0,1,.13-.52c1.09-2.47,2.23-4.93,3.29-7.41.88-2.05,1.77-4.1,2.49-6.21a50.72,50.72,0,0,0,2.42-8.18,31.8,31.8,0,0,1,2.5-8c.88-2,1-4.28,1.47-6.43.36-1.59.8-3.17,1.27-4.73a1.48,1.48,0,0,1,.69-.71c2.12-1.17,3.15-3.28,4-5.28,1.14-2.61,1.67-5.48,2.55-8.22a24,24,0,0,1,1.73-4.38c1.19-2.11,2.33-4.17,2.2-6.7a2.33,2.33,0,0,1,.18-1.05c.72-1.52,1.55-3,2.22-4.53.56-1.31.95-2.69,1.4-4,.8-2.39,1.65-4.76,2.34-7.17.59-2.06.95-4.19,1.49-6.27.65-2.53,1.29-5.07,2.1-7.56a24.46,24.46,0,0,1,2-4.43c.84-1.47,2-2.76,2.83-4.23,1.37-2.4,2.46-5,3.89-7.31s3.19-4.37,4.66-6.64a19.26,19.26,0,0,0,2.56-5c.57-2,.32-4.08,1.27-6.11s1.11-4.51,1.63-6.79a4.52,4.52,0,0,1,.29-.64,31,31,0,0,0,1.87-4.58c.64-2.64,1-5.35,1.45-8a5.91,5.91,0,0,1,.19-.69,51.93,51.93,0,0,0,2.05-7c.57-3.78-.07-7.64,1.06-11.46,1-3.41,1.08-7.1,1.73-10.63a34.65,34.65,0,0,1,1.51-4.66c.67-2,1.36-3.95,2-5.94.15-.45.17-.94.28-1.4a29.71,29.71,0,0,0,.95-4.21c.16-2.26-.09-4.56.09-6.83.22-2.67,1-5.31,1-8,.16-7.37.13-14.75.09-22.13a19.37,19.37,0,0,0-.82-7c-1-2.77-1-5.91-1.61-8.86a24.42,24.42,0,0,0-1.41-5c-1.06-2.49-2.39-4.88-3.6-7.31-.5-1-1.06-2-1.47-3a40.15,40.15,0,0,1-2.13-5.91c-.41-1.75.34-3.44.88-5.2a14,14,0,0,0,.43-8.36c-.75-2.41-1.14-5.1-4-5.91a8.1,8.1,0,0,0-5-.1,6.88,6.88,0,0,1-4.49.56c-1-4.76.13-9.24,1.09-13.73.31-1.42.79-2.8,1.24-4.19.69-2.12,1.73-4.18,2.06-6.35.68-4.43,1-8.91,1.45-13.38.47-4.8-.51-9.47-1.35-14.14A10.6,10.6,0,0,0,435.57,24a45.42,45.42,0,0,0-3.29-4.65c-1.84-2.31-3.66-4.67-5.72-6.79a59.9,59.9,0,0,0-6.63-5.79,39.33,39.33,0,0,0-6.48-4c-1.72-.84-3.79-.93-5.54-1.72-4-1.77-7.75-1.07-11.44.53a41.81,41.81,0,0,0-10.2,6.86c-1.64,1.45-3.24,2.84-4.09,5.05-.59,1.53-2.09,2.68-3,4.1a16.45,16.45,0,0,0-1.44,3.16c-.73,1.89-1.41,3.8-2.09,5.71A27,27,0,0,0,374,31.14c-.88,5.71,1.06,11.23,1.46,16.86,0,.34.39.65.4,1,.11,4.54.18,9.07.26,13.61a1.78,1.78,0,0,1-.18.5c-.81,2.79-1.94,5.5-2.06,8.48a19.2,19.2,0,0,1-.89,3.09,4.07,4.07,0,0,0,0,2.08,15.5,15.5,0,0,0,1.47,2.6l6,.31c-.51,1.09-.86,1.8-1.18,2.52a4.4,4.4,0,0,0-.29,1,5.34,5.34,0,0,0,1.83,5.12c2.07,1.9,2.06,2,.8,4.24.65.86,1.62,1.61,1.87,2.56,1,3.58,3.87,5.16,6.71,6.81,1,.56,1.41,1.58.69,2.09-2,1.39-4.1,2.65-6.06,4.1-1.77,1.31-3.43,2.76-5.1,4.2a20.31,20.31,0,0,0-1.76,1.83c-1,1.1-2,2.17-2.91,3.32-1.5,1.89-3,3.81-4.36,5.79a36.77,36.77,0,0,0-2.9,4.81c-.68,1.39-1,3-1.56,4.39a17.11,17.11,0,0,1-1.39,2.39c-2.34-1.16-4.48-2.37-6.74-3.28-1.8-.72-4-.65-5.58-1.65-3-1.95-5.48.16-8.18.56-.11,0-.16.31-.29.41-1.28,1-1,2.4-1.08,3.73,0,.6-.14,1.55-.49,1.71-1.92.85-2.18,2.38-2.12,4.18,0,.69.13,1.6-.24,2a8.24,8.24,0,0,0-2.23,5.11,15.86,15.86,0,0,1-1.48,4.52c-.11.28-.79.36-1.23.46-1.68.38-4.12-2.35-4.58-3.94a30.88,30.88,0,0,1-1.34-8.15c0-2.33-1-4.65-1.5-7a1.92,1.92,0,0,0-.14-.33c-.64-1.32-1.32-2.63-1.92-4s-.77-2.81-1.62-3.82c-1.91-2.27-3.07-5.15-5.83-6.78-1.91-1.12-3.58-2.54-6.07-1.84-.54,2.28-1.7,3.7-4.38,3.65-1.91,0-4.2,2.52-4.6,4.25a15.37,15.37,0,0,1-1.36,3.09c-.31.65-.71,1.25-1.06,1.87-1.11,2-.56,4.54-2.55,6.22a7.09,7.09,0,0,0-1.36,2.62c-.71,1.63-1.33,3.31-2,4.95-.41.94-1.07,1.8-1.38,2.77-.72,2.29.44,4.31,1.6,6a51.58,51.58,0,0,0,6,7.13,29.72,29.72,0,0,0,6.44,5.34c3.28,1.83,5.77,4.5,8.62,6.78a10.66,10.66,0,0,1,1.77,2.11c1.54,2.14,3.38,4.25,2.79,7.16-.66,3.25-1.64,6.43-2.29,9.68-.61,3-1,6.1-1.44,9.17a2.24,2.24,0,0,1-2.78,2.13c-1.79-.35-3.6-.64-5.41-.95a13.11,13.11,0,0,1-1.42-.18c-2.54-.77-5.07-1.58-7.61-2.36-.29-.08-.6-.07-.88-.17-1.94-.68-3.82-1.54-5.8-2a44.8,44.8,0,0,0-6.81-1.13c-4.18-.36-8.38-.2-12.55-1.12-1.6-.35-3.46.58-5.22.83-1.48.21-2.92.53-4.37.88-3.13.76-5.14,3.09-7.57,4.68s-5.31,2.77-7.85,4.34c-1.83,1.13-3.88,1.88-5.82,2.83a23.72,23.72,0,0,0-2.62,1.43c-1,.66-1.92,1.42-2.88,2.12-2,1.41-3.94,2.79-5.88,4.23s-3.74,2.91-5.69,4.26a42,42,0,0,1-5.34,3.22,3.49,3.49,0,0,1-2.71,0,52.53,52.53,0,0,1-4.54-3c-1.64-1-3.38-2-5-3.09-2-1.46-3.87-3.14-5.86-4.63-1.33-1-2.93-1.66-4.16-2.75-2-1.82-3.8-3.95-5.81-5.81-2.83-2.6-5.81-5-8.65-7.62-2.3-2.1-4.53-4.29-6.73-6.5s-4.54-4.76-6.86-7.09-5-4.68-7.28-7.16c-2-2.19-3.85-4.62-5.81-6.9-.94-1.09-1.81-2.53-3-3-2.44-1-3.15-2.75-3.2-5.08a9,9,0,0,0-.1-2.15c-.69-2.5-1.5-5-2.22-7.47-.81-2.84-1.92-5.65-2.27-8.56-.39-3.13-2.08-5.66-3-8.52a30.18,30.18,0,0,0-1.84-3.63c-.59-1.25-1.08-2.54-1.64-3.8s-1.19-2.67-1.81-4c-.92-2-1.87-3.91-2.89-6a20.14,20.14,0,0,1,2.36-.32,5.24,5.24,0,0,0,4.55-3.18,12.8,12.8,0,0,0,1.3-6.31c-.13-2.63,1.21-4,3-5.38a2.51,2.51,0,0,0,.93-1.6c.12-1.9.05-3.81.05-6a33.17,33.17,0,0,0,5.78-.1,4.39,4.39,0,0,0,2.55-2,3.28,3.28,0,0,0-.06-2.67c-.86-1.67-2.12-3.13-2.19-5.14a3.41,3.41,0,0,0-.34-1,37.76,37.76,0,0,1-2-5.77,33.29,33.29,0,0,1-.18-5.92c-.05-4.56.3-9,2.44-13.23.83-1.63,1-3.6,1.43-5.42a40.53,40.53,0,0,0,1-4.82,8.24,8.24,0,0,0-.38-3.11c-.52-1.81-1.55-3.54-1.74-5.37-.28-2.71-1.8-4.85-3.16-6.83a43.21,43.21,0,0,0-7.15-7.42,18.28,18.28,0,0,0-4.86-2.89c-1.67-.72-3.62-.85-5.26-1.62a23.8,23.8,0,0,0-8.74-1.89c-3.14-.19-6.33.58-9.51.89-1.49.14-2.93,0-4.21,1.23-1.65,1.53-3.86,2.54-5.27,4.23A64.84,64.84,0,0,0,99,33.33a30.66,30.66,0,0,0-3.57,8.54c-.88,4.14-1,8.43-1.42,12.66-.17,1.79-.22,3.59-.36,5.38-.28,3.5-.61,7-.83,10.49a14.32,14.32,0,0,0,.39,2.28c.25,2.23.52,4.47.61,6.71,0,.44-.69,1-1.16,1.36A13.13,13.13,0,0,0,87.7,88a6.44,6.44,0,0,1-4.19,3.82c-3.54.43-7.09.93-10.63,1.4a1.67,1.67,0,0,0-.68.18c-2.91,1.92-5.55,4.09-7,7.38a12.35,12.35,0,0,1-1.35,2.78c-1.92,2.37-2,5.44-3.24,8.07A41.21,41.21,0,0,0,59,116.91c-.44,1.38-1,2.71-1.47,4.08-.68,2-1.37,4-2,6.08-.56,1.83-1,3.72-1.57,5.54s-1.71,3.32-1.94,5.06a25.15,25.15,0,0,1-2.75,8.59A47.41,47.41,0,0,1,45,152.49c-.87,1.14-2.06,2-2.91,3.2-2,2.69-3.82,5.46-5.69,8.22s-3.69,5.49-5.51,8.25c-1.11,1.7-2.14,3.45-3.25,5.16-.94,1.45-2,2.81-2.9,4.3-1,1.78-2,3.62-2.85,5.49-1.21,2.64-2.43,5.29-3.41,8a60.56,60.56,0,0,0-1.57,6.17c-.72,2.9-1.57,5.78-2.12,8.72-.48,2.57,0,5.18-1,7.82s-1.2,5.9-1.48,8.9c-.7,7.17.11,14.4-1.08,21.59-1,6.13.42,12.46-1.11,18.68-.71,2.9-.35,6.08-.32,9.13a3,3,0,0,0,1,2.07c1.86,1.43,3.56,3.07,6.18,3.33a7.5,7.5,0,0,1,4.07,2c1.05,1,1.54,2.59,2.22,4a11.41,11.41,0,0,1,1.27,3.06c.58,3.48.94,7,1.46,10.49.34,2.28.81,4.54,1.23,6.81a1.68,1.68,0,0,0,.19.68c1.49,2.1,3,4.21,4.53,6.26,1.08,1.42,2.11,1.38,3.69.59a3.31,3.31,0,0,1,2.69,0c1.45.86,4.36,1.51,5.55.39,1.71-1.61,3.52-.69,5.45-1,0,5.05,0,9.89,0,14.73a6.81,6.81,0,0,1-.56,2.59c-1.1,2.51.24,4.88,2.93,5a14.8,14.8,0,0,1,2.5.15c.48.11,1.18.57,1.25,1,.51,3,1,6,1.29,9,.19,1.73.06,3.48.19,5.21q.59,7.94,1.26,15.85c.12,1.43-.44,3,.83,4.24.22.21,0,.92-.07,1.37a27.46,27.46,0,0,0-.71,3.05c-.2,2.09.4,4.51-.47,6.21-1.61,3.15-.25,6.65-1.95,9.77-1.07,2-1.1,4.47-1.73,6.7a5.93,5.93,0,0,1-1.41,2.92,5.59,5.59,0,0,0-2.09,5.23,1.87,1.87,0,0,1-.08.89c-1.1,2.41-2.34,4.77-3.32,7.22-1.06,2.65-1.88,5.4-2.81,8.1-.08.23-.15.45-.24.67-.69,1.74-1.44,3.45-2.06,5.21-.56,1.57-.94,3.2-1.5,4.77a21,21,0,0,1-1.38,2.87c-1.07,2-2.23,3.88-3.26,5.87s-1.94,4-2.93,6c-1.14,2.32-2.33,4.63-3.49,6.94-.65,1.29-1.24,2.62-1.94,3.89-1.42,2.53-2.93,5-4.34,7.55-.53,1-.64,2.22-1.33,3-1.75,2-2.34,4.55-3.54,6.8-.69,1.3-1.34,2.63-2,3.94-.92,1.76-1.85,3.51-2.76,5.27-.64,1.26-1.2,2.57-1.9,3.8-1.39,2.47-2.92,4.87-4.28,7.36-1.23,2.25-2.38,4.57-3.44,6.91-.67,1.47-1.08,3.06-1.69,4.57a39,39,0,0,0-1.73,3.8c-.34,1.16-.73,2.71-.23,3.6s1.63,2.59,3.58,1.52a2,2,0,0,1,1.91.68,40,40,0,0,1,2.61,6,28,28,0,0,1,1.11,5.29c.44,3.23.24,6.47,1.34,9.7.9,2.63,1.89,4.17,4.75,4.14.78,0,1.56-.14,2.33-.1a3.23,3.23,0,0,1,1.66.42c1.31,1,2.34.8,3.76,0,.92-.52,2.38-.25,3.55-.08s2.12.82,3.21,1c1.39.22,2.91-.47,4.17.82a2,2,0,0,0,1.86,0c1.73-.89,2.93.52,4.38.81s3.26.87,4.54.38c1-.36,1.83-2.25,1.82-3.45,0-2.69.84-5.54-1.11-8.06a28.31,28.31,0,0,1-2.35-4.39L41.51,528a14.41,14.41,0,0,1,2.92-.12c1.53.31,2.53-.66,3.39-1.48a26.14,26.14,0,0,0,2.83-3.79c.77-1.06,1.59-2.08,2.29-3.18s1.43-2.55,2.21-3.78c.91-1.45,1.94-2.82,2.85-4.26.71-1.14,1.26-2.38,2-3.52,1.83-2.95,3.71-5.86,5.56-8.79,1-1.66,2.07-3.34,3.13-5,1.4-2.2,2.83-4.37,4.22-6.57,1.17-1.85,2.37-3.68,3.45-5.59a24.09,24.09,0,0,0,1.49-3.45c.56-1.46.93-3,1.57-4.41,1-2.24,2.29-4.35,3.22-6.62,1.08-2.67,1.93-5.44,2.84-8.18.44-1.35.64-2.8,1.2-4.11,1-2.38,2.34-4.64,3.29-7a52.69,52.69,0,0,0,2.56-7.8c.93-4.12,1.71-8.21,3.65-12,1-1.93.89-4.35,1.59-6.44.87-2.66,2.05-5.21,3.09-7.81a8.29,8.29,0,0,0,.41-1.12c.55-2,1.07-4,1.62-5.94.76-2.76,1.67-5.49,2.26-8.28s.86-5.8,1.28-8.7a2.23,2.23,0,0,1,.12-.51c.74-2.1,1.51-4.18,2.22-6.28.53-1.6,1-3.23,1.55-5.09,1,.83,1.62,1.28,2.16,1.82q3,3,6,6.14c.54.56,1,1.19,1.53,1.78,1.14,1.3,2.29,2.58,3.41,3.89,1.33,1.55,2.62,3.12,3.94,4.67,1.48,1.76,3,3.53,4.48,5.26s2.94,3.13,4.34,4.75c1,1.2,1.73,2.73,2.91,3.71,2.08,1.72,3,4.16,4.29,6.32a75.74,75.74,0,0,1,3.13,6.92c1,2.14,2.17,4.21,2,6.69a4.21,4.21,0,0,0,.12,1.06c.37,1.57.81,3.13,1.13,4.71a25.75,25.75,0,0,0,.22,2.67,59.51,59.51,0,0,1,2.17,11.68c.38,3.87-.05,7.72,1,11.64,1.15,4.15,1.15,8.66,1.37,13,.24,4.85.13,9.72.26,14.57,0,1.11.59,2.2.62,3.3.08,3.07.07,6.15,0,9.22,0,1.28-.64,2.58-.51,3.81.26,2.63,1.72,3.75,4.38,3.74,1.56,0,3.12,0,4.68-.07,1.41-.07,1.91.57,1.87,1.91-.07,2.16-.06,4.32-.11,6.48a4.51,4.51,0,0,0,1.34,3.57c2.43,2.47,5.08,4.22,8.72,4.1,3-.1,6,.16,9,0,2.8-.19,5.57-.79,8.35-1.22a5.27,5.27,0,0,0,.49-.22c2.29-.68,4.57-1.9,6.86-1.91a52.17,52.17,0,0,1,11.6,1.31c1.24.27,2.53.9,3.9,1.08a2.42,2.42,0,0,1,.47.21c2,.7,4,1.82,6.08,2,4.05.35,8.14.21,12.22.22s7.4-1.57,8.81-5.33c-.37-1-.6-1.72-.87-2.39a8.11,8.11,0,0,0-1-2.17c-1.38-1.65-2.67-3.37-5-4-1.88-.52-3.59-1.66-5.45-2.25-2.21-.7-4.52-1.09-6.78-1.63-.11,0-.21-.12-.32-.16L218.51,507c-.8-.28-1.58-.62-2.37-.92-1.45-.55-2.91-1.07-4.35-1.65-1.16-.47-2.32-1-3.44-1.53-.23-.12-.34-.61-.39-.94-.32-2.33.61-4.88-1.23-6.94a78.77,78.77,0,0,0-1.1-13.77c-.58-2.84-.29-5.85-.41-8.79,0-.41,0-1-.2-1.2-1.26-1.15-.6-2.44-.4-3.69a31.39,31.39,0,0,0,.57-3.14c.19-3.64-.56-7.23-.78-10.81-.81-13.6.42-27.26-1.18-40.85-.31-2.56-.16-5.17-.58-7.7-.45-2.72-1.8-5.36-1.9-8.07-.14-4.22-2.27-7.84-2.86-11.88a1.82,1.82,0,0,0-.16-.5c-.74-1.73-1.55-3.43-2.22-5.19-.57-1.51-1-3.09-1.5-4.63-.69-2.12-1.39-4.23-2.09-6.35-.56-1.71-1.08-3.44-1.67-5.14-.7-2-1.49-3.95-2.16-5.95-.52-1.52-.87-3.1-1.4-4.61a16.18,16.18,0,0,0-1.34-2.93c-1.1-1.88-2.3-3.7-3.43-5.56s-2.14-3.7-3.24-5.53c-1.42-2.39-2.91-4.74-4.3-7.15-.54-.94-.67-2.21-1.38-2.95-2.73-2.81-2.06-6.71-3.42-9.94-.42-1-.63-2.11-1-3.16q-.73-2.26-1.52-4.51a31.14,31.14,0,0,0-1.65-4.55c-.87-1.62-2.28-3-3.12-4.6-1.1-2.15-1.87-4.47-2.8-6.71-.49-1.18-1-2.35-1.55-3.51-.64-1.4-1.42-2.76-1.93-4.2-.62-1.8-1-3.67-1.54-5.5-.05-.16-.19-.29-.26-.45L153,278.81c.92.13,1.31.07,1.47.23,3.75,3.8,7.5,7.6,11.21,11.44,2.85,3,5.88,5.36,10.4,4.62A32.39,32.39,0,0,1,180,295a10.62,10.62,0,0,0,1.58-.26,45,45,0,0,1,5-.93c.5-.05,1.25.64,1.58,1.18a19.18,19.18,0,0,1,1.46,3.19,55.94,55.94,0,0,1,2.26,6.27c.33,1.3.85,1.92,2.12,1.89,1.62,0,3.25,0,4.85-.2a5.43,5.43,0,0,0,1.79-.78c1-.51,2-1.07,3-1.59,2.57-1.31,5.16-2.57,7.7-3.93,2-1.09,3.94-2.38,6-3.42s4.13-1.84,6.19-2.77c1-.44,1.91-.9,2.82-1.43,1.15-.66,2.23-1.45,3.39-2.09,1.75-1,3.87-1.56,5.25-2.91,2.64-2.57,6-3.26,9.23-4.5,1.42-.55,2.89-1,4.31-1.53,1.77-.7,3.46-1.88,5.28-2.11a35.16,35.16,0,0,1,7.87.15c5.46.58,10.89,1.37,16.34,2,1.52.18,2.9-.63,4.63-.12,2.69.79,5.6.13,8.48,1.15s6.53.08,9.72,1.44c1.48.63,3.25.26,4.9,1.11,3.11,1.61,6.46,2.75,9.68,4.16a16.33,16.33,0,0,1,2.69,1.65c1.55,1.07,3.08,2.16,4.58,3.29.63.47,1.7,1.12,1.65,1.61-.21,2.35.63,4.39,1.38,6.49.48,1.34.76,2.76,1.33,4.06,1.05,2.38,2.51,4.62,3.3,7.08.69,2.13,2.1,4.17,1.64,6.61a1.61,1.61,0,0,0,.12.71c.73,2.52,1.83,5,2.14,7.57,1,8.29-.55,16.71,1.07,25,.29,1.49-.43,3.21-.77,4.8-.46,2.17.72,4.12.79,6.16.21,6.17.13,12.35.21,18.52A6.72,6.72,0,0,0,336,385c1,2.39,2.13,4.74,3.18,7.11.46,1,.91,2.1,1.27,3.17.53,1.54.6,3.39,1.53,4.6,1.63,2.1,1.59,4.7,1.9,6.88a187,187,0,0,1,1.15,19c.2,5.39.3,10.79.23,16.18-.06,3.79-.59,7.57-.7,11.37-.15,4.91-.14,9.82-.07,14.74,0,2.07.43,4.13.58,6.2a12,12,0,0,1-.12,2.67c-.18,1.22-.54,2.42-.7,3.65-.57,4.34,1.08,8.62.33,13a2,2,0,0,0,.07.53c.22,1.71.52,3.41.63,5.13.13,2,0,4,.18,5.92a2.35,2.35,0,0,0,1.19,1.7c1.7.61,3.5.95,5.26,1.4a5.4,5.4,0,0,1,.7.13c2.42.77,4.81,1.67,7.27,2.27,1.12.28,1.59.63,1.4,1.74-.22,1.36-2.39,3.34-3.78,3.26-4.36-.24-8.75.7-13.09-1-1.91-.73-4.27-.23-6.42-.39a6.39,6.39,0,0,0-5.74,2.44c-2.82,3.4-1.66,5.88,1.79,7.51,1.77.83,3.54,1.63,5.34,2.39a23.9,23.9,0,0,0,3.66,1.33c2.47.58,5,.94,7.45,1.52a17.94,17.94,0,0,1,3.4,1.23,39.68,39.68,0,0,0,4.4,2.15c2.2.68,4.52,1,6.78,1.51a5.1,5.1,0,0,1,.7.16c2,.75,4.06,1.49,6.09,2.26,1.4.53,2.81,1.07,4.18,1.69s2.77,1.42,4.18,2.08c1.08.51,2.2.93,3.3,1.38A29.1,29.1,0,0,0,388.9,544a27.51,27.51,0,0,0,6.09.1c2.48-.1,4.41-3.68,3.36-5.94a17.88,17.88,0,0,1-.92-3.18c-.13-.52,0-1.1-.2-1.6-.7-2-1.46-3.94-2.21-5.91a25.61,25.61,0,0,1-1.19-3.19c-.59-2.6-1-5.23-1.56-7.85,0-.18-.08-.35-.12-.52C391.77,514.25,391.4,512.62,391.05,511.11Z"/><path d="M391.05,511.11c.35,1.51.72,3.14,1.1,4.77,0,.17.09.34.12.52.52,2.62,1,5.25,1.56,7.85a25.61,25.61,0,0,0,1.19,3.19c.75,2,1.51,3.93,2.21,5.91.17.5.07,1.08.2,1.6a17.88,17.88,0,0,0,.92,3.18c1,2.26-.88,5.84-3.36,5.94a27.51,27.51,0,0,1-6.09-.1,29.1,29.1,0,0,1-5.36-2.08c-1.1-.45-2.22-.87-3.3-1.38-1.41-.66-2.76-1.43-4.18-2.08s-2.78-1.16-4.18-1.69c-2-.77-4.06-1.51-6.09-2.26a5.1,5.1,0,0,0-.7-.16c-2.26-.49-4.58-.83-6.78-1.51a39.68,39.68,0,0,1-4.4-2.15,17.94,17.94,0,0,0-3.4-1.23c-2.47-.58-5-.94-7.45-1.52a23.9,23.9,0,0,1-3.66-1.33c-1.8-.76-3.57-1.56-5.34-2.39-3.45-1.63-4.61-4.11-1.79-7.51a6.39,6.39,0,0,1,5.74-2.44c2.15.16,4.51-.34,6.42.39,4.34,1.67,8.73.73,13.09,1,1.39.08,3.56-1.9,3.78-3.26.19-1.11-.28-1.46-1.4-1.74-2.46-.6-4.85-1.5-7.27-2.27a5.4,5.4,0,0,0-.7-.13c-1.76-.45-3.56-.79-5.26-1.4a2.35,2.35,0,0,1-1.19-1.7c-.18-2-.05-4-.18-5.92-.11-1.72-.41-3.42-.63-5.13a2,2,0,0,1-.07-.53c.75-4.36-.9-8.64-.33-13,.16-1.23.52-2.43.7-3.65a12,12,0,0,0,.12-2.67c-.15-2.07-.55-4.13-.58-6.2-.07-4.92-.08-9.83.07-14.74.11-3.8.64-7.58.7-11.37.07-5.39,0-10.79-.23-16.18a187,187,0,0,0-1.15-19c-.31-2.18-.27-4.78-1.9-6.88-.93-1.21-1-3.06-1.53-4.6-.36-1.07-.81-2.13-1.27-3.17-1.05-2.37-2.17-4.72-3.18-7.11a6.72,6.72,0,0,1-.5-2.43c-.08-6.17,0-12.35-.21-18.52-.07-2-1.25-4-.79-6.16.34-1.59,1.06-3.31.77-4.8-1.62-8.31-.09-16.73-1.07-25-.31-2.57-1.41-5.05-2.14-7.57a1.61,1.61,0,0,1-.12-.71c.46-2.44-.95-4.48-1.64-6.61-.79-2.46-2.25-4.7-3.3-7.08-.57-1.3-.85-2.72-1.33-4.06-.75-2.1-1.59-4.14-1.38-6.49.05-.49-1-1.14-1.65-1.61-1.5-1.13-3-2.22-4.58-3.29a16.33,16.33,0,0,0-2.69-1.65c-3.22-1.41-6.57-2.55-9.68-4.16-1.65-.85-3.42-.48-4.9-1.11-3.19-1.36-6.7-.36-9.72-1.44s-5.79-.36-8.48-1.15c-1.73-.51-3.11.3-4.63.12-5.45-.65-10.88-1.44-16.34-2a35.16,35.16,0,0,0-7.87-.15c-1.82.23-3.51,1.41-5.28,2.11-1.42.55-2.89,1-4.31,1.53-3.19,1.24-6.59,1.93-9.23,4.5-1.38,1.35-3.5,1.92-5.25,2.91-1.16.64-2.24,1.43-3.39,2.09-.91.53-1.86,1-2.82,1.43-2.06.93-4.18,1.74-6.19,2.77s-4,2.33-6,3.42c-2.54,1.36-5.13,2.62-7.7,3.93-1,.52-2,1.08-3,1.59a5.43,5.43,0,0,1-1.79.78c-1.6.16-3.23.17-4.85.2-1.27,0-1.79-.59-2.12-1.89a55.94,55.94,0,0,0-2.26-6.27,19.18,19.18,0,0,0-1.46-3.19c-.33-.54-1.08-1.23-1.58-1.18a45,45,0,0,0-5,.93A10.62,10.62,0,0,1,180,295a32.39,32.39,0,0,0-3.95.08c-4.52.74-7.55-1.66-10.4-4.62-3.71-3.84-7.46-7.64-11.21-11.44-.16-.16-.55-.1-1.47-.23l1.25,2.68c.07.16.21.29.26.45.51,1.83.92,3.7,1.54,5.5.51,1.44,1.29,2.8,1.93,4.2.53,1.16,1.06,2.33,1.55,3.51.93,2.24,1.7,4.56,2.8,6.71.84,1.64,2.25,3,3.12,4.6a31.14,31.14,0,0,1,1.65,4.55q.78,2.25,1.52,4.51c.35,1.05.56,2.15,1,3.16,1.36,3.23.69,7.13,3.42,9.94.71.74.84,2,1.38,2.95,1.39,2.41,2.88,4.76,4.3,7.15,1.1,1.83,2.14,3.7,3.24,5.53s2.33,3.68,3.43,5.56a16.18,16.18,0,0,1,1.34,2.93c.53,1.51.88,3.09,1.4,4.61.67,2,1.46,4,2.16,5.95.59,1.7,1.11,3.43,1.67,5.14.7,2.12,1.4,4.23,2.09,6.35.51,1.54.93,3.12,1.5,4.63.67,1.76,1.48,3.46,2.22,5.19a1.82,1.82,0,0,1,.16.5c.59,4,2.72,7.66,2.86,11.88.1,2.71,1.45,5.35,1.9,8.07.42,2.53.27,5.14.58,7.7,1.6,13.59.37,27.25,1.18,40.85.22,3.58,1,7.17.78,10.81a31.39,31.39,0,0,1-.57,3.14c-.2,1.25-.86,2.54.4,3.69.24.21.18.79.2,1.2.12,2.94-.17,5.95.41,8.79a78.77,78.77,0,0,1,1.1,13.77c1.84,2.06.91,4.61,1.23,6.94,0,.33.16.82.39.94,1.12.57,2.28,1.06,3.44,1.53,1.44.58,2.9,1.1,4.35,1.65.79.3,1.57.64,2.37.92l5.63,1.93c.11,0,.21.14.32.16,2.26.54,4.57.93,6.78,1.63,1.86.59,3.57,1.73,5.45,2.25,2.31.63,3.6,2.35,5,4a8.11,8.11,0,0,1,1,2.17c.27.67.5,1.35.87,2.39-1.41,3.76-4.62,5.34-8.81,5.33s-8.17.13-12.22-.22c-2.07-.19-4.06-1.31-6.08-2a2.42,2.42,0,0,0-.47-.21c-1.37-.18-2.66-.81-3.9-1.08a52.17,52.17,0,0,0-11.6-1.31c-2.29,0-4.57,1.23-6.86,1.91a5.27,5.27,0,0,1-.49.22c-2.78.43-5.55,1-8.35,1.22-3,.21-6,0-9,0-3.64.12-6.29-1.63-8.72-4.1a4.51,4.51,0,0,1-1.34-3.57c.05-2.16,0-4.32.11-6.48,0-1.34-.46-2-1.87-1.91-1.56.08-3.12.07-4.68.07-2.66,0-4.12-1.11-4.38-3.74-.13-1.23.47-2.53.51-3.81.09-3.07.1-6.15,0-9.22,0-1.1-.59-2.19-.62-3.3-.13-4.85,0-9.72-.26-14.57-.22-4.37-.22-8.88-1.37-13-1.09-3.92-.66-7.77-1-11.64A59.51,59.51,0,0,0,150,438.44a25.75,25.75,0,0,1-.22-2.67c-.32-1.58-.76-3.14-1.13-4.71a4.21,4.21,0,0,1-.12-1.06c.12-2.48-1-4.55-2-6.69a75.74,75.74,0,0,0-3.13-6.92c-1.3-2.16-2.21-4.6-4.29-6.32-1.18-1-1.89-2.51-2.91-3.71-1.4-1.62-2.92-3.14-4.34-4.75s-3-3.5-4.48-5.26c-1.32-1.55-2.61-3.12-3.94-4.67-1.12-1.31-2.27-2.59-3.41-3.89-.51-.59-1-1.22-1.53-1.78q-3-3.09-6-6.14c-.54-.54-1.17-1-2.16-1.82-.56,1.86-1,3.49-1.55,5.09-.71,2.1-1.48,4.18-2.22,6.28a2.23,2.23,0,0,0-.12.51c-.42,2.9-.69,5.83-1.28,8.7s-1.5,5.52-2.26,8.28c-.55,2-1.07,4-1.62,5.94a8.29,8.29,0,0,1-.41,1.12c-1,2.6-2.22,5.15-3.09,7.81-.7,2.09-.63,4.51-1.59,6.44-1.94,3.84-2.72,7.93-3.65,12a52.69,52.69,0,0,1-2.56,7.8c-1,2.4-2.28,4.66-3.29,7-.56,1.31-.76,2.76-1.2,4.11-.91,2.74-1.76,5.51-2.84,8.18-.93,2.27-2.22,4.38-3.22,6.62-.64,1.42-1,3-1.57,4.41a24.09,24.09,0,0,1-1.49,3.45c-1.08,1.91-2.28,3.74-3.45,5.59-1.39,2.2-2.82,4.37-4.22,6.57-1.06,1.66-2.08,3.34-3.13,5-1.85,2.93-3.73,5.84-5.56,8.79-.71,1.14-1.26,2.38-2,3.52-.91,1.44-1.94,2.81-2.85,4.26-.78,1.23-1.42,2.55-2.21,3.78s-1.52,2.12-2.29,3.18a26.14,26.14,0,0,1-2.83,3.79c-.86.82-1.86,1.79-3.39,1.48a14.41,14.41,0,0,0-2.92.12l1.85,3.59a28.31,28.31,0,0,0,2.35,4.39c1.95,2.52,1.08,5.37,1.11,8.06,0,1.2-.87,3.09-1.82,3.45-1.28.49-3-.08-4.54-.38s-2.65-1.7-4.38-.81a2,2,0,0,1-1.86,0c-1.26-1.29-2.78-.6-4.17-.82-1.09-.18-2.11-.83-3.21-1s-2.63-.44-3.55.08c-1.42.79-2.45,1-3.76,0a3.23,3.23,0,0,0-1.66-.42c-.77,0-1.55.1-2.33.1-2.86,0-3.85-1.51-4.75-4.14-1.1-3.23-.9-6.47-1.34-9.7A28,28,0,0,0,8.34,525a40,40,0,0,0-2.61-6,2,2,0,0,0-1.91-.68c-1.95,1.07-3-.48-3.58-1.52s-.11-2.44.23-3.6a39,39,0,0,1,1.73-3.8c.61-1.51,1-3.1,1.69-4.57C5,502.55,6.1,500.23,7.33,498c1.36-2.49,2.89-4.89,4.28-7.36.7-1.23,1.26-2.54,1.9-3.8.91-1.76,1.84-3.51,2.76-5.27.68-1.31,1.33-2.64,2-3.94,1.2-2.25,1.79-4.8,3.54-6.8.69-.79.8-2.05,1.33-3,1.41-2.54,2.92-5,4.34-7.55.7-1.27,1.29-2.6,1.94-3.89,1.16-2.31,2.35-4.62,3.49-6.94,1-2,1.9-4,2.93-6s2.19-3.91,3.26-5.87a21,21,0,0,0,1.38-2.87c.56-1.57.94-3.2,1.5-4.77.62-1.76,1.37-3.47,2.06-5.21.09-.22.16-.44.24-.67.93-2.7,1.75-5.45,2.81-8.1,1-2.45,2.22-4.81,3.32-7.22a1.87,1.87,0,0,0,.08-.89,5.59,5.59,0,0,1,2.09-5.23A5.93,5.93,0,0,0,54,399.65c.63-2.23.66-4.74,1.73-6.7,1.7-3.12.34-6.62,1.95-9.77.87-1.7.27-4.12.47-6.21a27.46,27.46,0,0,1,.71-3.05c.1-.45.29-1.16.07-1.37-1.27-1.25-.71-2.81-.83-4.24q-.68-7.92-1.26-15.85c-.13-1.73,0-3.48-.19-5.21-.33-3-.78-6-1.29-9-.07-.39-.77-.85-1.25-1a14.8,14.8,0,0,0-2.5-.15c-2.69-.13-4-2.5-2.93-5a6.81,6.81,0,0,0,.56-2.59c0-4.84,0-9.68,0-14.73-1.93.29-3.74-.63-5.45,1-1.19,1.12-4.1.47-5.55-.39a3.31,3.31,0,0,0-2.69,0c-1.58.79-2.61.83-3.69-.59-1.56-2-3-4.16-4.53-6.26a1.68,1.68,0,0,1-.19-.68c-.42-2.27-.89-4.53-1.23-6.81-.52-3.49-.88-7-1.46-10.49a11.41,11.41,0,0,0-1.27-3.06c-.68-1.37-1.17-3-2.22-4a7.5,7.5,0,0,0-4.07-2c-2.62-.26-4.32-1.9-6.18-3.33a3,3,0,0,1-1-2.07c0-3.05-.39-6.23.32-9.13,1.53-6.22.09-12.55,1.11-18.68,1.19-7.19.38-14.42,1.08-21.59.28-3,.43-6.14,1.48-8.9s.54-5.25,1-7.82c.55-2.94,1.4-5.82,2.12-8.72a60.56,60.56,0,0,1,1.57-6.17c1-2.73,2.2-5.38,3.41-8,.86-1.87,1.81-3.71,2.85-5.49.87-1.49,2-2.85,2.9-4.3,1.11-1.71,2.14-3.46,3.25-5.16q2.73-4.14,5.51-8.25c1.87-2.76,3.73-5.53,5.69-8.22.85-1.16,2-2.06,2.91-3.2a47.41,47.41,0,0,0,4.36-6.23,25.15,25.15,0,0,0,2.75-8.59c.23-1.74,1.36-3.35,1.94-5.06s1-3.71,1.57-5.54c.62-2,1.31-4.06,2-6.08.47-1.37,1-2.7,1.47-4.08a41.21,41.21,0,0,1,1.57-5.24c1.24-2.63,1.32-5.7,3.24-8.07a12.35,12.35,0,0,0,1.35-2.78c1.46-3.29,4.1-5.46,7-7.38a1.67,1.67,0,0,1,.68-.18c3.54-.47,7.09-1,10.63-1.4A6.44,6.44,0,0,0,87.7,88a13.13,13.13,0,0,1,4.92-7.29c.47-.38,1.18-.92,1.16-1.36-.09-2.24-.36-4.48-.61-6.71a14.32,14.32,0,0,1-.39-2.28c.22-3.5.55-7,.83-10.49.14-1.79.19-3.59.36-5.38.41-4.23.54-8.52,1.42-12.66A30.66,30.66,0,0,1,99,33.33a64.84,64.84,0,0,1,6.42-9.18c1.41-1.69,3.62-2.7,5.27-4.23,1.28-1.19,2.72-1.09,4.21-1.23,3.18-.31,6.37-1.08,9.51-.89a23.8,23.8,0,0,1,8.74,1.89c1.64.77,3.59.9,5.26,1.62a18.28,18.28,0,0,1,4.86,2.89,43.21,43.21,0,0,1,7.15,7.42c1.36,2,2.88,4.12,3.16,6.83.19,1.83,1.22,3.56,1.74,5.37a8.24,8.24,0,0,1,.38,3.11,40.53,40.53,0,0,1-1,4.82c-.43,1.82-.6,3.79-1.43,5.42-2.14,4.21-2.49,8.67-2.44,13.23a33.29,33.29,0,0,0,.18,5.92,37.76,37.76,0,0,0,2,5.77,3.41,3.41,0,0,1,.34,1c.07,2,1.33,3.47,2.19,5.14a3.28,3.28,0,0,1,.06,2.67,4.39,4.39,0,0,1-2.55,2,33.17,33.17,0,0,1-5.78.1c0,2.2.07,4.11-.05,6a2.51,2.51,0,0,1-.93,1.6c-1.75,1.4-3.09,2.75-3,5.38a12.8,12.8,0,0,1-1.3,6.31,5.24,5.24,0,0,1-4.55,3.18,20.14,20.14,0,0,0-2.36.32c1,2.14,2,4.09,2.89,6,.62,1.32,1.22,2.65,1.81,4s1,2.55,1.64,3.8a30.18,30.18,0,0,1,1.84,3.63c.92,2.86,2.61,5.39,3,8.52.35,2.91,1.46,5.72,2.27,8.56.72,2.5,1.53,5,2.22,7.47a9,9,0,0,1,.1,2.15c0,2.33.76,4.07,3.2,5.08,1.22.5,2.09,1.94,3,3,2,2.28,3.76,4.71,5.81,6.9,2.32,2.48,4.88,4.74,7.28,7.16s4.54,4.76,6.86,7.09,4.43,4.4,6.73,6.5c2.84,2.59,5.82,5,8.65,7.62,2,1.86,3.77,4,5.81,5.81,1.23,1.09,2.83,1.76,4.16,2.75,2,1.49,3.85,3.17,5.86,4.63,1.57,1.13,3.31,2,5,3.09a52.53,52.53,0,0,0,4.54,3,3.49,3.49,0,0,0,2.71,0,42,42,0,0,0,5.34-3.22c1.95-1.35,3.78-2.86,5.69-4.26s3.92-2.82,5.88-4.23c1-.7,1.89-1.46,2.88-2.12a23.72,23.72,0,0,1,2.62-1.43c1.94-1,4-1.7,5.82-2.83,2.54-1.57,5.32-2.67,7.85-4.34s4.44-3.92,7.57-4.68c1.45-.35,2.89-.67,4.37-.88,1.76-.25,3.62-1.18,5.22-.83,4.17.92,8.37.76,12.55,1.12a44.8,44.8,0,0,1,6.81,1.13c2,.5,3.86,1.36,5.8,2,.28.1.59.09.88.17,2.54.78,5.07,1.59,7.61,2.36a13.11,13.11,0,0,0,1.42.18c1.81.31,3.62.6,5.41.95a2.24,2.24,0,0,0,2.78-2.13c.4-3.07.83-6.14,1.44-9.17.65-3.25,1.63-6.43,2.29-9.68.59-2.91-1.25-5-2.79-7.16a10.66,10.66,0,0,0-1.77-2.11c-2.85-2.28-5.34-4.95-8.62-6.78a29.72,29.72,0,0,1-6.44-5.34,51.58,51.58,0,0,1-6-7.13c-1.16-1.7-2.32-3.72-1.6-6,.31-1,1-1.83,1.38-2.77.71-1.64,1.33-3.32,2-4.95a7.09,7.09,0,0,1,1.36-2.62c2-1.68,1.44-4.26,2.55-6.22.35-.62.75-1.22,1.06-1.87a15.37,15.37,0,0,0,1.36-3.09c.4-1.73,2.69-4.29,4.6-4.25,2.68,0,3.84-1.37,4.38-3.65,2.49-.7,4.16.72,6.07,1.84,2.76,1.63,3.92,4.51,5.83,6.78.85,1,1.06,2.55,1.62,3.82s1.28,2.65,1.92,4a1.92,1.92,0,0,1,.14.33c.53,2.32,1.46,4.64,1.5,7a30.88,30.88,0,0,0,1.34,8.15c.46,1.59,2.9,4.32,4.58,3.94.44-.1,1.12-.18,1.23-.46a15.86,15.86,0,0,0,1.48-4.52,8.24,8.24,0,0,1,2.23-5.11c.37-.42.27-1.33.24-2-.06-1.8.2-3.33,2.12-4.18.35-.16.45-1.11.49-1.71.09-1.33-.2-2.74,1.08-3.73.13-.1.18-.39.29-.41,2.7-.4,5.15-2.51,8.18-.56,1.57,1,3.78.93,5.58,1.65,2.26.91,4.4,2.12,6.74,3.28a17.11,17.11,0,0,0,1.39-2.39c.6-1.43.88-3,1.56-4.39a36.77,36.77,0,0,1,2.9-4.81c1.38-2,2.86-3.9,4.36-5.79.91-1.15,1.93-2.22,2.91-3.32a20.31,20.31,0,0,1,1.76-1.83c1.67-1.44,3.33-2.89,5.1-4.2,2-1.45,4.05-2.71,6.06-4.1.72-.51.27-1.53-.69-2.09-2.84-1.65-5.73-3.23-6.71-6.81-.25-1-1.22-1.7-1.87-2.56,1.26-2.2,1.27-2.34-.8-4.24A5.34,5.34,0,0,1,379,83.17a4.4,4.4,0,0,1,.29-1c.32-.72.67-1.43,1.18-2.52l-6-.31a15.5,15.5,0,0,1-1.47-2.6,4.07,4.07,0,0,1,0-2.08,19.2,19.2,0,0,0,.89-3.09c.12-3,1.25-5.69,2.06-8.48a1.78,1.78,0,0,0,.18-.5c-.08-4.54-.15-9.07-.26-13.61,0-.33-.38-.64-.4-1-.4-5.63-2.34-11.15-1.46-16.86a27,27,0,0,1,1.58-4.69c.68-1.91,1.36-3.82,2.09-5.71a16.45,16.45,0,0,1,1.44-3.16c.94-1.42,2.44-2.57,3-4.1.85-2.21,2.45-3.6,4.09-5.05a41.81,41.81,0,0,1,10.2-6.86C400.16,0,404-.73,407.91,1c1.75.79,3.82.88,5.54,1.72a39.33,39.33,0,0,1,6.48,4,59.9,59.9,0,0,1,6.63,5.79c2.06,2.12,3.88,4.48,5.72,6.79A45.42,45.42,0,0,1,435.57,24,10.6,10.6,0,0,1,437,27.48c.84,4.67,1.82,9.34,1.35,14.14-.45,4.47-.77,9-1.45,13.38-.33,2.17-1.37,4.23-2.06,6.35-.45,1.39-.93,2.77-1.24,4.19-1,4.49-2.07,9-1.09,13.73a6.88,6.88,0,0,0,4.49-.56,8.1,8.1,0,0,1,5,.1c2.82.81,3.21,3.5,4,5.91a14,14,0,0,1-.43,8.36c-.54,1.76-1.29,3.45-.88,5.2a40.15,40.15,0,0,0,2.13,5.91c.41,1,1,2,1.47,3,1.21,2.43,2.54,4.82,3.6,7.31a24.42,24.42,0,0,1,1.41,5c.58,2.95.58,6.09,1.61,8.86a19.37,19.37,0,0,1,.82,7c0,7.38.07,14.76-.09,22.13-.06,2.67-.82,5.31-1,8-.18,2.27.07,4.57-.09,6.83a29.71,29.71,0,0,1-.95,4.21c-.11.46-.13,1-.28,1.4-.65,2-1.34,4-2,5.94a34.65,34.65,0,0,0-1.51,4.66c-.65,3.53-.71,7.22-1.73,10.63-1.13,3.82-.49,7.68-1.06,11.46a51.93,51.93,0,0,1-2.05,7,5.91,5.91,0,0,0-.19.69c-.47,2.68-.81,5.39-1.45,8a31,31,0,0,1-1.87,4.58,4.52,4.52,0,0,0-.29.64c-.52,2.28-.67,4.72-1.63,6.79s-.7,4.14-1.27,6.11a19.26,19.26,0,0,1-2.56,5c-1.47,2.27-3.25,4.34-4.66,6.64s-2.52,4.91-3.89,7.31c-.83,1.47-2,2.76-2.83,4.23a24.46,24.46,0,0,0-2,4.43c-.81,2.49-1.45,5-2.1,7.56-.54,2.08-.9,4.21-1.49,6.27-.69,2.41-1.54,4.78-2.34,7.17-.45,1.35-.84,2.73-1.4,4-.67,1.55-1.5,3-2.22,4.53a2.33,2.33,0,0,0-.18,1.05c.13,2.53-1,4.59-2.2,6.7a24,24,0,0,0-1.73,4.38c-.88,2.74-1.41,5.61-2.55,8.22-.86,2-1.89,4.11-4,5.28a1.48,1.48,0,0,0-.69.71c-.47,1.56-.91,3.14-1.27,4.73-.5,2.15-.59,4.46-1.47,6.43a31.8,31.8,0,0,0-2.5,8,50.72,50.72,0,0,1-2.42,8.18c-.72,2.11-1.61,4.16-2.49,6.21-1.06,2.48-2.2,4.94-3.29,7.41a1.53,1.53,0,0,0-.13.52,120.33,120.33,0,0,0-1.26,28.93c.23,2.58,1.34,5.09,2.05,7.63a3.38,3.38,0,0,1,.16.7c.14,4.42,2.09,8.64,1.46,13.15,2.32,8.41.25,17.07,1.43,25.48,1,6.93.2,13.92,1.26,20.73,1,6.12.1,12.34,1.26,18.28,1.32,6.8.47,13.56,1.07,20.31a12.42,12.42,0,0,0,.81,2.58c.33,1,.57,1.94-.93,2.33A36.6,36.6,0,0,0,391.05,511.11ZM195.23,303.61c1.76.31,1.84.47,5.25-1.06,2.94-1.32,5.67-3.11,8.53-4.63,2.07-1.11,3.88-2.82,6.41-2.95a1.53,1.53,0,0,0,.67-.23c1.21-.72,2.38-1.53,3.62-2.19s2.71-1.19,4-1.87c1.83-1,3.63-2,5.42-3.05,2.34-1.37,4.61-2.86,7-4.14s4.57-2.26,6.91-3.27c1.49-.64,3.09-1,4.61-1.59,1.9-.69,3.71-1.74,5.66-2.1a24.49,24.49,0,0,1,6.46-.13c3.19.27,6.34,1,9.53,1.2,3.58.25,7.19.16,10.78.23a36.4,36.4,0,0,1,5,.2c3.7.6,7.35,1.47,11,2.09,3.34.56,6.7.93,10.05,1.39a1.82,1.82,0,0,1,.51.13c2.47,1.17,4.92,2.37,7.39,3.53a27.93,27.93,0,0,1,3.65,1.63c2.28,1.5,4.45,3.19,6.67,4.79.43.31.83.65,1.28.91,2,1.15,4.07,2.17,6,3.46,1.6,1.09,2.83,2.75,4.49,3.72,4.08,2.38,7.95,5.21,12.54,6.68a20.36,20.36,0,0,1,3,1.43c2.19,1.14,4.4,2.26,6.54,3.5a2.36,2.36,0,0,1,.88,1.49c.06.29-.45,1-.67,1a9.11,9.11,0,0,1-3-.53c-1.33-.56-2.52-1.45-3.83-2.07-2.05-1-4.19-1.71-6.21-2.72-2.27-1.14-4.43-2.5-6.66-3.71a24.31,24.31,0,0,1-2.92-1.34c-2.18-1.61-4.25-3.38-6.37-5.08-.32-.26-.69-.47-1-.7a3.78,3.78,0,0,0-.47,1.27,5,5,0,0,0,.32,1.92c.7,1.8,1.5,3.56,2.25,5.34.55,1.31.81,2.85,1.67,3.9,2.05,2.5,2,5.7,3.1,8.48.61,1.5.52,3.26,1,4.93a41,41,0,0,1,1.53,10.29c.21,8.39-.17,16.8.16,25.19s-1.33,16.75,1.12,25c.51,1.7,1.26,3.32,1.93,5s1.34,3,1.92,4.53,1,3.1,1.54,4.6,1.61,2.83,1.9,4.34a58.28,58.28,0,0,1,1.31,10.15c.17,13.49.12,27,.13,40.47,0,8.27-.06,16.55-.06,24.82q0,12.68,0,25.36c0,1.45,1.09,2.08,2.22,2.39,2.31.62,4.67,1.05,7,1.56a2,2,0,0,1,.35.1c1.87.71,3.71,1.88,5.61,2,2.37.16,4.63,1.06,7.16.56a12.49,12.49,0,0,1,6.82.51c1.62.59,3.83-.43,5.78-.73l9.66-1.55a5.81,5.81,0,0,0,.12-1c-.54-7.19.64-14.42-1.12-21.61-1-4.26-.33-8.77-1.08-13.23-1.14-6.72-.27-13.67-1.25-20.54-1.31-9.21.26-18.6-1.34-27.89-.95-5.54-.93-11.24-2.56-16.72-.59-2-.69-4.09-1.19-6.16a50.88,50.88,0,0,1-1.32-12.5c.05-5.17.73-10.35,1.25-15.51a22.25,22.25,0,0,1,1.07-3.62c.54-1.93,1-3.89,1.59-5.81a28.89,28.89,0,0,1,1.38-3.59c.64-1.44,1.46-2.81,2-4.27s.91-2.92,1.39-4.37c.71-2.13,1.49-4.23,2.18-6.36.57-1.78.85-3.68,1.59-5.39a25.8,25.8,0,0,0,2.4-8.7,20.45,20.45,0,0,1,.79-2.45,3,3,0,0,0,0-2c-.76-1.05-1.91-1.82-2.74-2.84a39.28,39.28,0,0,1-5.44-9.47c-1-2.39-1.67-4.94-2.65-7.35s-2.26-5-3.44-7.48c-.44-.94-1-1.84-1.47-2.75-1.12-2-2.14-4.09-3.41-6a68,68,0,0,0-4.53-5.91,29.9,29.9,0,0,0-3.06-3c-1.77-1.61-3.6-3.17-5.36-4.79s-3.86-3.45-5.62-5.34a67,67,0,0,1-4.27-5.34c-.7-.93-1.17-2-1.93-2.93-1.38-1.6-2.89-3.09-4.37-4.61-1.7-1.75-3.36-3.57-5.17-5.22s-4.07-3.32-6-5a2.74,2.74,0,0,1-.25-4c1.83-2.35,3.67-4.69,5.46-7.08,2-2.65,4-5.31,5.82-8a2,2,0,0,0-.09-1.9c-.85-1-2-1.75-3-2.69-1.47-1.48-2.93-3-4.27-4.57s-2.6-3.54-4-5.22c-1.22-1.44-2.76-2.55-3.32-4.56a2.59,2.59,0,0,0-2.65-1.8c-3.95.09-7.91,0-11.87,0a4.58,4.58,0,0,1-4-2,5.15,5.15,0,0,0-2.78-1.73c-2.51-.59-5.09-.88-7.64-1.28a1.28,1.28,0,0,1-.35-.07,20.26,20.26,0,0,0-7.75-2.48,1.8,1.8,0,0,1-.52-.13,36.6,36.6,0,0,0-5.66-2c-3.35-.6-6.77-.66-10.16-1.17-4.87-.72-9.93-.3-14.9-.12a7.78,7.78,0,0,0-4.32,1.56c-2.9,2.36-5.75,4.69-9.33,6a18.26,18.26,0,0,0-3,1.34c-2.58,1.48-5.12,3-7.66,4.54s-4.91,2.91-7.24,4.53c-2.48,1.73-4.77,3.72-7.22,5.49-2.09,1.51-4.4,2.72-6.4,4.32-2.48,2-5.4,3-8.23,4.31-1.32.6-2.72,1-4.07,1.58-1.82.73-3.63,1.5-5.45,2.27a5.23,5.23,0,0,0-.91.47c-1.49,1-2.94,2-4.44,3-2,1.26-3.93,2.46-5.89,3.69-.67.42-1.32.88-2,1.31-1.77,1.13-3.52,2.29-5.33,3.35s-3.6,2.1-5.47,3a37.69,37.69,0,0,1-4.07,1.43c-2.05.71-4.07,1.58-6.17,2.1a4,4,0,0,0-2.41,6c1.19,1.89,2.11,4,3.18,5.93.79,1.47,1.57,3,2.47,4.34.76,1.17,1.74,2.19,2.53,3.34,1.14,1.66,2.14,3.42,3.33,5,.81,1.11,2,2,2.76,3.09,1.49,2.1,2.83,4.32,4.23,6.49A82.63,82.63,0,0,1,190.5,293C192.21,296.3,193.56,299.81,195.23,303.61ZM2.7,515.22a18.65,18.65,0,0,0,4,1.26,15.31,15.31,0,0,0,3.71-.65c.47-.08,1.12-.25,1.4,0,1.8,1.43,3.91.72,5.87,1a21.28,21.28,0,0,1,3,.46c2.2.65,4.37,1.42,6.55,2.14a7,7,0,0,1,.69.18c1.58.71,3.12,1.55,4.75,2.13,1.79.63,3.69,1,5.52,1.55a20.16,20.16,0,0,1,3.68,1.33c1.39.74,4.13.24,5.06-1.08,1.09-1.53,2.28-3,3.32-4.55s1.88-3,2.73-4.59c.62-1.14,1-2.4,1.69-3.5,1-1.64,2.24-3.17,3.33-4.78s2.38-3.55,3.52-5.35c.9-1.43,1.77-2.89,2.59-4.37,1-1.77,1.62-3.85,3-5.29A24.26,24.26,0,0,0,71.85,484c.39-.93.91-1.8,1.36-2.71,1.11-2.23,2.23-4.44,3.3-6.68.76-1.6,1.45-3.23,2.15-4.85.59-1.38,1.2-2.76,1.71-4.18s.59-2.88,1.29-4.09a16.65,16.65,0,0,0,2.4-7.3,1.39,1.39,0,0,1,.19-.5c1.18-2.66,2.41-5.31,3.53-8a42.05,42.05,0,0,0,1.31-4.17c.81-2.75,1.58-5.51,2.4-8.25.53-1.77,1.07-3.54,1.67-5.28s1.35-3.5,1.92-5.28,1-3.82,1.65-5.71c.33-1,.93-1.94,1.31-2.94.73-2,1.51-3.92,2.08-5.93.61-2.17,1-4.42,1.5-6.63.69-3,1.48-6,2-9,.4-2.12.19-4.23,1.17-6.38,1.13-2.51,1.39-5.43,2.63-8,.89-1.84,1.42-3.94,2.64-5.51a6.76,6.76,0,0,0,1.26-3.87,3.47,3.47,0,0,1,.43-1.33c.78-1.34,1.63-2.63,2.63-4.22.42.15,1.47.27,1.54.61a4.88,4.88,0,0,1-.45,2.14c-.1.34-.38.61-.48.95-.47,1.66-.89,3.33-1.39,5-.13.42-.64.76-.7,1.18-.16,1.17-.71,2.77-.17,3.47a51.07,51.07,0,0,0,5.35,5.36c1.38,1.32,2.89,2.51,4.16,3.93,1.5,1.67,2.77,3.55,4.2,5.29,2,2.44,4,4.88,6.15,7.22,2.63,2.93,5.42,5.71,8,8.66a31.92,31.92,0,0,1,3.93,5.21c1.15,2,1.85,4.22,2.81,6.31,1.1,2.4,2.59,4.67,3.33,7.16a71.79,71.79,0,0,1,1.55,8.81c.08.53.1,1.08.21,1.6.68,3.19,1.52,6.36,2,9.57.55,3.4.82,6.83,1.18,10.25.48,4.51,1.07,9,1.34,13.54s.14,9.35.37,14,.78,9,1,13.56c.13,2.62-.15,5.27-.13,7.9,0,.67.42,1.89.7,1.9,2.14.13,4.51.58,6.4-.14a40.4,40.4,0,0,1,9.72-2c3.79-.46,7.67,0,11.49-.26a27.68,27.68,0,0,0,6.15-1.47c1.84-.58,3.57-1.5,5.42-2s4.05-.92,6.54-1.46a69.82,69.82,0,0,1-1.49-7c-.6-5.63-1.22-11.28-1.43-16.93-.28-7.49.16-15-.39-22.47-.24-3.26-.72-6.54-.76-9.84,0-1.38.16-2.77.05-4.14-.92-11.46,1.17-23.06-1.51-34.45-.6-2.58-.89-5.24-1.34-7.85a4.21,4.21,0,0,0-.28-.66c-.65-1.85-1.36-3.68-1.91-5.56s-.67-4.08-1.55-5.84a24.25,24.25,0,0,1-2.59-7.14,53.8,53.8,0,0,0-2.26-7.61,5.16,5.16,0,0,0-.21-.49c-.69-1.56-1.5-3.08-2.05-4.69-.64-1.88-1-3.84-1.55-5.76a4.25,4.25,0,0,0-.14-.51c-.71-1.71-1.39-3.42-2.15-5.1-.62-1.36-1.31-2.68-2-4-.57-1.11-1.15-2.23-1.78-3.31-1-1.72-2-3.44-3.1-5.13-1.4-2.25-2.83-4.48-4.28-6.71-.23-.34-.62-.84-.92-.84a34.14,34.14,0,0,0-5.91.43c-2.42.49-4.76,1.42-7.17,2a8.52,8.52,0,0,1-2.85.19,1.68,1.68,0,0,1-1.7-1.67,39.63,39.63,0,0,0-1.39-5.29c-.07-.23-.4-.54-.6-.53a12.34,12.34,0,0,0-3.72.28c-2.15.77-4.17,1.87-6.7,3,.23.77.61,1.89.88,3a3,3,0,0,1,.07,1.73c-1.2,2.65-3.35,4.54-5.42,6.47a70.59,70.59,0,0,1-5.57,4.81,4.33,4.33,0,0,1-2.64.33c-.3,0-.74-.68-.81-1.1-.56-3.19-1-6.38-1.56-9.57,0-.1-.14-.18-.22-.27-1.38-.18-2.65-.74-4-1a15.77,15.77,0,0,0-3.23-.15c-3.23,0-6.61-.57-9.65.2a51.61,51.61,0,0,1-8,1c-.59.06-1.31-.08-1.76.2-2.39,1.48-5,.6-7.55.94,0-1,0-1.75,0-2.52-.07-3.05.5-6.32-.4-9.1-1-3.09-.79-6.1-1.09-9.15a12.64,12.64,0,0,0-.2-2c-.64-2.52-1.36-5-2-7.53-.51-2.09-.91-4.21-1.41-6.31-.06-.25-.41-.44-.63-.65-.18.21-.44.39-.51.62-.81,3-1.62,6.07-2.36,9.12-.5,2-1,4.1-1.31,6.18q-.78,4.66-1.35,9.35c-.52,4.36-.91,8.74-1.43,13.1-.2,1.69-2.25,2.91-3.47,2.33a22.85,22.85,0,0,0-5-2c-3.27-.68-6.6-1-9.92-1.43a6.09,6.09,0,0,0-2,.35,31.26,31.26,0,0,1,.68,3.55c.19,2.5.12,5,.41,7.52.57,5,1.61,10,1.9,15,.34,5.73.45,11.48-.89,17.2-.88,3.73-1,7.63-1.54,11.45a2.17,2.17,0,0,1-.07.35c-.76,1.91-1.53,3.82-2.27,5.74-.5,1.31-.7,2.85-1.51,3.92-2,2.65-2.24,5.91-3.44,8.82-.52,1.27-1,2.58-1.5,3.85-.71,1.68-1.54,3.32-2.22,5S47,424.4,46.44,426c-.65,1.81-1.35,3.6-2,5.4a47.36,47.36,0,0,1-1.65,4.6c-1,2-2.24,3.83-3.3,5.79-1.27,2.34-2.45,4.73-3.67,7.1-.42.83-.89,1.63-1.26,2.47-1,2.25-1.94,4.52-2.91,6.78a24.49,24.49,0,0,1-1.27,2.75c-.64,1.11-1.46,2.12-2.13,3.22-1.12,1.84-2.23,3.7-3.25,5.6s-2,3.84-2.84,5.82c-.68,1.56-1,3.27-1.77,4.81-1,2.18-2.28,4.26-3.42,6.38-.48.89-.87,1.84-1.43,2.67-1,1.52-2.29,2.87-3.16,4.46-1.11,2-1.93,4.18-2.9,6.28-.42.92-.91,1.82-1.34,2.74-1.14,2.43-2.31,4.85-3.4,7.31C4,511.73,3.44,513.36,2.7,515.22ZM75.54,220.57c-1.84.28-2.75-.47-2.6-1.9.24-2.15-.82-3.88-1.46-5.75A12.1,12.1,0,0,0,70,209.74a17.64,17.64,0,0,0-3.23-3.5c-.53-.41-1.65-.15-2.48-.05-.25,0-.42.57-.67.84-1.4,1.5-3.33,2.76-4.1,4.53-1.31,3-3.82,5.3-4.2,8.81-.27,2.61-1.64,5.08-2.06,7.68a42,42,0,0,0-.17,7.36c0,.52.49,1.06.81,1.55.91,1.38,2,2.68,2.75,4.13,1.09,2.07,2,4.26,2.94,6.38.07.14.26.22.46.39l.79-.65a20.46,20.46,0,0,0,2.68.67,44.63,44.63,0,0,1,4.79.45c2.12.51,4.14,1.43,6.25,2s4.43,1,6.64,1.49a5.24,5.24,0,0,1,.48.23c2.06.67,4.09,1.67,6.2,1.92,3.7.43,7.39.31,11.14,1.12,4.85,1,10,.57,15,1.25s10.29.19,15.44.2c.52,0,1-.08,1.66-.13.06-.81.17-1.51.17-2.22,0-3.24-.08-6.48,0-9.71.05-2-.48-4.06.92-6,.54-.73.58-1.86,1.78-1.85s2.58-.51,3.43,1.08c.36.67,1.28,1,2,1.56.68-1.76,1.24-3.36,1.9-4.91s1.58-3.18,2.21-4.84,1-3.34,1.52-5c.67-2,1.81-3.86,2.07-5.87.51-3.86.76-7.77,1.11-11.64.62-6.9.21-13.9.08-20.85,0-2-.73-3.92-.89-5.9-.18-2.33-.08-4.67-.14-7a9.23,9.23,0,0,0-.31-1.94c-.28-1.18-.71-2.34-.92-3.54s.06-2.51-.39-3.55c-.89-2.06-2.18-3.94-3.23-5.94-1-1.85-1.82-3.77-2.81-5.62-1.09-2-2.29-4-3.43-6-.93-1.64-1.83-3.3-2.76-5l-3.46-6.08c-1-1.72-1.83-3.52-2.95-5.14-1.77-2.54-3.79-4.9-5.55-7.44s-3.43-5.34-5.15-8c-.36-.56-.81-1.07-1.15-1.65-1-1.71-1.89-3.5-3-5.15-2.23-3.31-4.58-6.56-6.88-9.82-1-1.39-2-2.78-3-4.14-1.5-2-3.07-3.94-4.56-5.93C96.74,87.16,96,85.83,95,84.61c-.67-.86-3-.5-3.42.49a59.55,59.55,0,0,1-2.71,6.16,6.25,6.25,0,0,1-3.08,2.84,73.12,73.12,0,0,1-8.64,1.45c-.89.13-2-.07-2.64.36-1.62,1-3.61,1.46-4.72,3.28-1.33,2.17-3,4.15-4.19,6.41a27.56,27.56,0,0,0-1.55,5.26c-.07.21-.26.38-.34.59A49.2,49.2,0,0,0,61.8,116c-.63,2-.87,4.09-1.58,6-.91,2.5-2.14,4.87-2.28,7.59a1.59,1.59,0,0,1-.16.51c-1.09,2.87-2.54,5.66-3.17,8.62a24,24,0,0,1-2.7,8.06c-1.17,1.88-2.28,3.8-3.54,5.62-1.7,2.44-3.51,4.79-5.29,7.17-1.45,1.92-2.94,3.82-4.37,5.76-1.07,1.45-2.11,2.93-3.08,4.45s-1.85,3.17-2.84,4.71-2.21,3.21-3.29,4.83c-1.21,1.81-2.41,3.63-3.57,5.47a37.9,37.9,0,0,0-2.55,4.34,41,41,0,0,0-1.52,4.54c-1.11,3.47-2.4,6.9-3.27,10.43a88.9,88.9,0,0,0-1.4,8.94c-.29,2-.23,3.88-1,5.87a35.71,35.71,0,0,0-1.5,8.73c-.72,7.71.42,15.46-1,23.21-.86,4.65-.27,9.56-.36,14.36,0,.76-.28,1.51-.36,2.28q-.44,4.14-.79,8.28a.76.76,0,0,0,.3.61A49,49,0,0,0,17,278.93c1.49.67,3.08,1.11,4.64,1.64,2,.69,4,1.81,6.08,2a107.42,107.42,0,0,0,12.94.07,15.51,15.51,0,0,0,6.14-1.46c3.13-1.6,4.81-8.5,3.63-11.93a36.4,36.4,0,0,1-2.21-9.34c-.33-5.32,0-10.67,0-16a5.77,5.77,0,0,1,.23-1.42c.64-2.61,1.48-5.2,1.92-7.84.48-2.9.25-5.82,1.18-8.77,1-3.31,1.22-6.9,2.8-10.08a51.34,51.34,0,0,1,2.9-5.24,34.63,34.63,0,0,1,3.44-4.39,12.58,12.58,0,0,1,3.14-2.65c2-1.07,4.15-1.84,6.21-2.79a10.09,10.09,0,0,0,2.5-1.43c1.75-1.55,3.77-3,5-4.88,1.88-3,4.75-5.35,5.48-9a24.15,24.15,0,0,1,1.28-3.94,39.32,39.32,0,0,0,2-5c.65-2.8.81-5.71,1.38-8.52a55.48,55.48,0,0,1,1.83-6.4c.59-1.76,1.37-3.46,2-5.21.16-.43-.07-1.05.15-1.41.56-.9.67-2.46,2.24-2.16s1.17,1.78,1,2.79a22.6,22.6,0,0,1-1.12,3.65c-.45,1.33-.91,2.65-1.43,3.95a48.37,48.37,0,0,0-2,4.9,49.18,49.18,0,0,0-1.24,6.51,14,14,0,0,1-1.1,4.71c-1.3,2.58-1.77,5.58-2.89,8.27-.7,1.69-2,3.12-2.91,4.74a3,3,0,0,0-.37,2.19c.25.7,1.06,1.21,1.64,1.78,1.66,1.6,3.28,3.25,5,4.77,1.58,1.38,3.27,2.64,5,3.9,1.35,1,2.78,1.9,4.31,2.94l-1.81,1.53c-6.67-3.05-11.41-8.24-16.37-13.39-.68.74-1.28,1.4-1.87,2.06-2.12,2.35-4.9,3.78-7.56,5.39-.34.21-.82.57-.83.88a2.58,2.58,0,0,0,.5,1.51c.6.78,1.45,1.38,2,2.19s.92,2,1.46,2.92,1.69,2,1.9,3.14A52.76,52.76,0,0,1,75.54,220.57Zm352.9-98.41.43-.66c1.1.16,2.85,0,3.2.56a21.51,21.51,0,0,1,2.46,6.28c.71,3.3,1,6.7,1.45,10.06a1.56,1.56,0,0,0,.1.53c.95,1.94.73,3.68.11,5.85-.8,2.79-.59,5.85-1.43,8.78s-1.05,6.17-1.54,9.26a1.43,1.43,0,0,1-.06.36c-.82,1.94-1.65,3.87-2.45,5.82-.43,1.06-.73,2.19-1.22,3.23-1.1,2.32-2.34,4.57-3.41,6.9a14.12,14.12,0,0,0-1.27,3.72c-.6,3.84,0,7.71-1,11.64a44.92,44.92,0,0,1-2.75,8.38c-.29.61-1,1.13-1.06,1.73-.29,2.6-2.1,3.88-4.08,5.07-1.22.73-2.42,1.51-3.64,2.23a45.82,45.82,0,0,1-4.42,2.49c-1.56.71-3.24,1.15-4.87,1.71a57.4,57.4,0,0,1-5.78,1.9c-3.15.7-6.46-.05-9.6,1.34-1.63.73-3.62.68-5.45,1-.15,0-.32-.1-.49-.14-2.39-.63-4.78-1.28-7.18-1.89-2-.51-4-1-6-1.48-.11,0-.2-.12-.31-.16-1.88-.7-3.73-1.51-5.65-2.06-1.31-.37-2.84.12-3.95-1.09-.07-.07-.46.15-.73.24a19,19,0,0,0,1.27,2.44,7.72,7.72,0,0,0,1.86,2c1.61,1.09,3.47,1.84,4.95,3.06a44.56,44.56,0,0,0,9.82,5.94c.91.43,1.87.76,2.75,1.25,2,1.09,3.87,2.27,5.82,3.38a24.85,24.85,0,0,0,2.78,1.39c1.26.52,2.59.86,3.81,1.45,2.3,1.13,4.56,2.37,6.82,3.59,1.23.67,2.44,1.38,3.64,2.11,1.46.88,2.88,1.8,4.33,2.7,2.19,1.37,4.42,2.7,6.58,4.12,1.53,1,2.87,2.39,4.51,3.15,2.13,1,3.48,2.9,5.44,4.05,1,.61,1.83,1.7,2.89,2.3a2.06,2.06,0,0,0,1.95-.3,31.49,31.49,0,0,0,2.73-3.82,33.46,33.46,0,0,1,2.69-4.24,8.73,8.73,0,0,0,2.33-5.42A3.72,3.72,0,0,1,435,242c.69-2.15,1.46-4.27,2.08-6.43.55-1.91.95-3.87,1.42-5.8a2.3,2.3,0,0,1,.15-.32,56,56,0,0,0,2.14-6.15c.65-2.89,1-5.85,1.42-8.78a1.87,1.87,0,0,1,.13-.53c1.52-3.18,1.64-6.66,2.1-10.06.24-1.82.09-3.71.15-5.56a9.39,9.39,0,0,1,.23-2.13c.69-2.62,1.43-5.23,2.17-7.84.58-2.05,1.16-4.11,1.77-6.16a61.15,61.15,0,0,0,1.87-6.1c.86-4.55-.79-9.36,1.34-13.8q0-17.27,0-34.53a6,6,0,0,0-.29-1.57c-.68-2.58-1.37-5.17-2.1-7.74a14.66,14.66,0,0,0-.89-2.14c-.49-1-1.07-2.06-1.55-3.12-1-2.19-1.9-4.42-2.94-6.59-.93-1.93-2.18-3.72-2.18-6a5.33,5.33,0,0,0-.15-2c-.88-2.25.42-4.27.58-6.4.11-1.43.9-2.84.83-4.24a21.38,21.38,0,0,0-1.18-4.52c-.25-.94-2.3-2.61-3.16-2.36-2.21.65-4.67,1-6.53,2.27a119.45,119.45,0,0,1-10.71,6.24c-1.09.57-2.05,1.37-3.1,2-1.4.87-2.8,1.76-4.25,2.54-2.65,1.42-5.33,2.79-8,4.14-2.3,1.17-4.62,2.27-6.92,3.44a60.1,60.1,0,0,0-5.51,2.9c-2.22,1.42-4.3,3-6.44,4.59-1.93,1.4-4.33,2.45-5.66,4.29-1.87,2.57-4.5,4.47-5.85,7.57-1,2.38-3.93,3.66-4.75,6.48-.38,1.33-1.66,2.4-2.08,3.73a65.45,65.45,0,0,0-1.42,6.45,2.66,2.66,0,0,1-.23.86c-1.32,1.92-1.53,4.2-2.15,6.35-.29,1-.56,2-.89,3a23.75,23.75,0,0,0-1.48,4.24,14.61,14.61,0,0,1-3.71,8.18,7.65,7.65,0,0,0-1.33,1.59,21.9,21.9,0,0,0-1,2.85c1.75,1.85,4.49,1.81,7.15,2.94,0-1.21,0-2,0-2.72a34.26,34.26,0,0,1,.3-4.65c.59-3.2,1.34-6.37,2.07-9.55.24-1.07.61-2.12.92-3.19.53-1.82,1-3.65,1.59-5.46.24-.78.6-1.53.91-2.28.55-1.32,1-2.66,1.66-3.94a23.59,23.59,0,0,1,1.8-3.12c1.33-2,3.1-3.68,4-5.8.84-1.93,2.4-2.9,3.73-4.19,2.11-2,4.37-3.9,6.6-5.81,2-1.74,4.05-3.51,6.21-5.07.31-.23,1.41.61,2.09,1a2.37,2.37,0,0,1-.51,1.08c-1,.86-2.05,1.61-3.05,2.45a24.83,24.83,0,0,1-2.77,2.39,38.66,38.66,0,0,0-8.35,7.26,51.6,51.6,0,0,0-3.54,4.4,27.6,27.6,0,0,0-2.52,3.84,68.18,68.18,0,0,0-2.86,6.42c-.84,2.17-1.48,4.4-2.2,6.61-.12.4-.13.83-.24,1.23-.69,2.52-1.55,5-2,7.56a28.55,28.55,0,0,0-.4,6.27c.1,2.73.49,5.44.77,8.4a2.06,2.06,0,0,1-1.19.37,75.33,75.33,0,0,1-7.59-1.78,34.48,34.48,0,0,1-4.62-2.15c-1.87-.89-3.75-1.77-5.6-2.7-.4-.2-.67-.67-1.07-.9-1.2-.68-2.46-1.25-3.64-2-1.63-1-3.17-2.15-4.82-3.08-2.06-1.17-4.21-2.19-6.44-3.34a14.09,14.09,0,0,0-4.06,6.47c-.43,1.37-1,2.7-1.42,4-.73,2.21-1.51,4.4-2.11,6.64s-1,4.54-1.48,6.82a1.54,1.54,0,0,1-.05.17c-.76,2.61-1.68,5.18-2.25,7.83-.63,3-.94,6-1.39,9a1.49,1.49,0,0,1-.15.52c-1.69,2.82-1.06,5.8-.84,8.84,3.21,0,6.2-.05,9.2,0a47.4,47.4,0,0,1,9.6,1c4.67,1,9.54,1.18,14.33,1.71a1.59,1.59,0,0,1,.68.21,23.19,23.19,0,0,0,10.37,3.4,2.81,2.81,0,0,1,.88.17,22.73,22.73,0,0,0,7.27,2.32,1.52,1.52,0,0,1,.53.11,20,20,0,0,0,8.45,2.28,27,27,0,0,0,8.84-.78c3.54-1,7.51-.19,11.13-1.62,1.61-.63,3.35-.92,4.95-1.56a17.35,17.35,0,0,0,2.82-1.75,37.59,37.59,0,0,1,4.4-2.76,7.74,7.74,0,0,0,4.48-4.26c.42-1.11,1-2.17,1.39-3.28a37,37,0,0,0,2.06-5.57c.36-1.6,0-3.35.17-5,.31-2.9.79-5.79,1.2-8.69a2.26,2.26,0,0,1,.19-.49c.71-1.6,1.47-3.18,2.13-4.8s1.12-3.06,1.69-4.59c.35-1,.68-1.93,1.1-2.86a32.52,32.52,0,0,0,2.16-4.6c.66-2.45.93-5,1.37-7.51.06-.35.13-.71.21-1.06a80.35,80.35,0,0,0,2-8.3c.84-5.78-.21-11.49-1.27-17.14-.34-1.84-1.41-3.55-2.17-5.31C429.35,124,428.88,123.11,428.44,122.16ZM120.26,276.3c-3.47.73-6.22-1.12-9.16-.08a4.08,4.08,0,0,1-1.94-.14,24.63,24.63,0,0,0-2.87-.64c-2.27-.15-4.55-.15-6.83-.21-.42,0-1,.08-1.23-.14-2-1.73-4.29-1-6.49-1.12a11.43,11.43,0,0,1-2.49-.23c-2.29-.66-4.51-1.56-6.82-2.15s-4.91-1-7.37-1.48a2,2,0,0,1-.35-.07c-2.24-.73-4.49-1.42-6.71-2.21a25.51,25.51,0,0,1-4.62-1.95c-2.15-1.3-4.51-.65-5.22,1.66a34.72,34.72,0,0,1-1.61,4.77,15,15,0,0,1-2.48,3.36c-1.42,1.59-1.46,2.82-.07,4.52,1,1.23,1.9,2.53,2.85,3.79,1.54,2,3.16,4.06,4.6,6.18a10,10,0,0,1,1.45,3.42c.21,1-2.19,3.92-3.25,4-1.4.13-1.64.95-1.63,2.08a39.34,39.34,0,0,0,0,5.21c.25,1.92-.84,3.31-1.6,4.78A4.4,4.4,0,0,1,54,311.21c-1.41.46-2.17,1.14-2.16,2.73,0,5.93,0,11.87,0,17.8,0,.93.13,1.86.17,2.38,2.84.62,5.33,1.31,7.86,1.66,2.37.33,4.81.11,7.16.48,1.7.27,3.28,1.23,5,1.66a9.89,9.89,0,0,0,3.82.28c.35,0,.62-1.45.73-2.26.37-2.79.08-5.58,1-8.41s.15-5.88,1.28-8.84c1-2.57,1.1-5.48,1.61-8.23a1.13,1.13,0,0,1,0-.18,49.83,49.83,0,0,0,2.07-7.13,30.5,30.5,0,0,1,2.44-8c.63-1.47,1.36-1.5,2.49-1.17a23.09,23.09,0,0,0,.64,2.31c.6,1.49,1.69,2.9,1.85,4.43a109.39,109.39,0,0,0,2.48,12.46c.9,4,1,8.22,1.5,12.34.36,3,.77,6,1.21,9.05.12.83.51,1.2,1.52.81a11.3,11.3,0,0,1,3.28-.64c2.21-.16,4.61.31,6.59-.42a15.52,15.52,0,0,1,5.54-.83c3.83,0,7.67.05,11.5.19,1.25.05,1.55-.4,1.51-1.54-.08-3-.07-6-.13-9a8.86,8.86,0,0,0-.25-3,28.91,28.91,0,0,1-2.35-10.19,2.42,2.42,0,0,0-.08-.71c-.74-2.47-1.68-4.9-2.2-7.42a53.69,53.69,0,0,1-1.11-8.39c-.21-3.94-.13-7.9-.12-11.86a8.56,8.56,0,0,1,.43-2.08C119.54,278.6,119.83,277.74,120.26,276.3Zm279.88,48.52c3.87-2.25,3.42-6.08,4.69-9.09.73-1.76,1.17-3.64,1.86-5.42.93-2.41,2.3-4.71,2.89-7.19a19.34,19.34,0,0,1,2.75-7.11,6.13,6.13,0,0,0,1.08-1.69c.5-1.61.89-3.27,1.26-4.92.55-2.37,1-4.75,1.55-7.12,0-.17,0-.4.17-.49,1.44-1.15.77-2.74.82-4.14,0-.37-.45-.88-.83-1.12-1.73-1.14-3.54-2.14-5.24-3.31-1.18-.81-2.19-1.85-3.31-2.76-2.29-1.86-4.64-3.66-6.89-5.57-1.27-1.08-2.38-2.36-3.59-3.51s-2.51-2.36-3.81-3.49a30.42,30.42,0,0,0-3-2.39c-1.63-1.07-3.4-1.93-5-3-3.23-2.22-6.3-4.68-9.6-6.77-2.37-1.5-5-2.56-7.51-3.84-1.76-.9-3.56-1.74-5.22-2.8a46.46,46.46,0,0,1-4.94-3.67c-1.58-1.33-3-2.85-4.53-4.22-.77-.68-1.62-1-2.42.08-1.48,2.05-3,4.09-4.52,6.09-1.83,2.37-3.77,4.65-5.53,7.07-.44.59-.79,1.94-.47,2.28a43.85,43.85,0,0,0,4.32,3.7c1.29,1.05,2.65,2,3.86,3.14a55.34,55.34,0,0,1,4.59,4.6c1.54,1.78,2.86,3.74,4.3,5.6,1.06,1.37,2.09,2.78,3.25,4.07,1.37,1.54,2.82,3,4.3,4.43s3.13,2.94,4.72,4.37a48.44,48.44,0,0,1,3.81,3.32c1.88,2.06,3.64,4.24,5.35,6.45s3.23,4.33,4.74,6.57a26.73,26.73,0,0,1,1.5,3.09c.72,1.42,1.46,2.83,2.18,4.25.6,1.21,1.21,2.41,1.75,3.64.64,1.47,1.28,2.94,1.78,4.45.61,1.84,1.05,3.73,1.62,5.58a9.82,9.82,0,0,0,1.16,3C396,319.65,398.08,322.21,400.14,324.82ZM215.35,225.28c-.1-.25-.13-.7-.35-.85-.91-.58-1.92-1-2.83-1.6a72.81,72.81,0,0,1-8.45-6.31c-2.74-2.41-6.05-3.93-8.57-6.74-3.07-3.43-7.06-6-10.52-9.1-2.62-2.35-5-4.94-7.54-7.42-3.32-3.31-6.66-6.6-10-9.93Q163,179.19,159,175c-1.46-1.54-2.89-3.12-4.22-4.77-.5-.63-.71-1.8-1.72-1.28-.5.25-.8,1.34-.81,2.05-.06,4.2.14,8.4,0,12.58-.27,6.88-.31,13.75-1,20.63-.62,5.76-.87,11.58-1.67,17.34-.08.54-.58,1-.64,1.56-.1.89-.37,2.2.09,2.63,1.94,1.82,4.11,3.4,6.22,5,1.42,1.1,2.95,2.07,4.29,3.25,1.87,1.65,3.55,3.51,5.42,5.15,2.43,2.11,5.12,3.94,7.44,6.16a4.72,4.72,0,0,0,5.46,1.13,53.84,53.84,0,0,0,6.32-3.54c2.05-1.2,4.1-2.41,6.09-3.7,1.74-1.13,3.36-2.45,5.11-3.57,1.56-1,3.59-1.54,4.75-2.86,1.79-2,4.38-2,6.44-3.26a57.56,57.56,0,0,1,6.57-3C213.79,226.17,214.43,225.77,215.35,225.28ZM408.6,59.71c.11-1.32.11-2.58.33-3.79s.79-2.39,1-3.62c.39-2.74,4.75-4.91,7.14-3.52.82.47,1.86.58,2.65,1.09,3,1.93,5,4.46,5,8.23,0,2.52,0,5-.07,7.55,0,.36.06.88-.14,1-1.71,1.4-.84,3.34-1,5a2.6,2.6,0,0,0,2.34,2.83c2,.14,3.54-.81,3.81-2.45s.19-3.26,1-4.94a39.69,39.69,0,0,0,2.55-8.45,78.4,78.4,0,0,0,1.44-8.76c.26-2.32.15-4.67.3-7a26.89,26.89,0,0,0,.52-2.71c-.06-1.53-.42-3-.57-4.56-.21-2.08,0-4.29-.58-6.22-.7-2.18-2.46-4-3.19-6.18-.89-2.62-3.15-4-4.53-6.2a21.48,21.48,0,0,0-6.87-6.58c-2.29-1.44-4.13-3.61-7-4.23a37.2,37.2,0,0,1-3.68-1.48,38.58,38.58,0,0,0-6.95-2c-1.34-.18-2.89.6-4.25,1.18a30.16,30.16,0,0,0-4.19,2.33c-1.09.69-2,1.86-3.14,2.25-2.38.81-3.95,2.74-5.2,4.44-2.24,3-4.94,6-5.39,10.08-.15,1.38-1,2.68-1.44,4-.68,2.11-1.41,4.23-1.88,6.39-.6,2.8.38,5.47.91,8.19.46,2.37,2.68,4.49,5,3.72s4.73-.45,7.13-1.49c3.22-1.39,6.46-2.42,9-5a2.5,2.5,0,0,1,2.4.07,25.35,25.35,0,0,1,2.39,5.47,49.54,49.54,0,0,1,1.32,6.52c.38,2.39-.11,4.83,1.19,7.17C406.62,59.27,407,60,408.6,59.71ZM376.43,76.87l3,.15c2.7.16,4.56,3.72,2.91,5.84-.6.76-1.15,1-.29,1.92.52.54.57,1.63,1.14,2,1.4.92,2.19,2,1.89,3.71-.36,2.15.91,3.71,2,5.32a13.49,13.49,0,0,0,5.87,4.36,6.74,6.74,0,0,0,4.19,0c1.41-.39,2.63-1.42,4-2.09,1.84-.91,3.74-1.71,5.59-2.6.65-.32,1.22-.82,1.86-1.17,2-1.09,4.08-2.1,6.06-3.25,1.51-.86,2.89-2,4.4-2.82,1.77-1,3.65-1.81,5.44-2.8,2-1.11,4-2.3,5.91-3.54a1.4,1.4,0,0,0,.31-1.24c-.25-.91-.71-1.76-1-2.66a14,14,0,0,1-.39-1.93c-1.2.85-4.9,1.33-5.59.65-1.52-1.48-3.48-2.79-2.88-5.41A46.71,46.71,0,0,0,422,66.06a48.13,48.13,0,0,0,.17-6.47A7.89,7.89,0,0,0,419,53a16.4,16.4,0,0,0-4.73-2,1.88,1.88,0,0,0-1.66.83c-.6,2.28-1.8,4.38-1.56,6.94.22,2.25-1.17,3.45-3.43,3.45-.91,0-2.21,0-2.67-.55a11.48,11.48,0,0,1-2.37-4.29c-.51-2.06-.2-4.22-1.07-6.35-.94-2.3-1.06-4.93-1.56-7.41a1.4,1.4,0,0,0-2.47-.81,4.12,4.12,0,0,1-1,.64c-1.45.68-2.88,1.4-4.38,2a25.41,25.41,0,0,1-5.31,1.63c-2.53.36-5.11.32-8,.46,0,.93-.06,1.87,0,2.81.44,6.14.4,12.24-1.36,18.21-.05.17,0,.38-.12.52C375.75,71.48,376.69,74.13,376.43,76.87ZM151.54,90.09l.63-.17c-.23-.89-.43-1.78-.69-2.65-.13-.43-.4-.81-.54-1.23-.59-1.68-1.11-3.38-1.73-5-.85-2.27-2-4.44-2-7a24.12,24.12,0,0,1,0-2.69c.27-2,.74-4,.92-6.09.16-1.78,0-3.58,0-5.16-1.83.25-3.34.39-4.81.69a18.58,18.58,0,0,0-4,1.16c-1.39.65-2.55,1.82-4,2.38-2.88,1.15-4.26,3.63-5.36,6.13-1,2.16-1.88,4.48-1.58,7a2.69,2.69,0,0,1-2.27,2.94,78.2,78.2,0,0,1-8.66.11c-.55-3.94.48-7.81-1.36-11.28a6.82,6.82,0,0,0-2-2.19c-.3-.22-1.47.07-1.56.36a10.39,10.39,0,0,0-.9,4.23c.18,1.48,1.2,2.84,1.75,4.29a21.74,21.74,0,0,1,1.38,4.3c.36,2.34-1.1,4-2.35,5.87-1.67,2.45-4.47,2-6.68,3-.41.19-1.1-.26-1.67-.39-.81-.2-1.63-.37-2.44-.55l-.15.53a13.34,13.34,0,0,1,1,1.13c1.06,1.47,2,3,3.16,4.42.91,1.17,2.08,2.17,2.9,3.39,1.16,1.73,2,3.65,3.17,5.4.93,1.45,2.11,2.74,3,4.18,1.47,2.24,2.81,4.56,4.24,6.82,1.12,1.78,2.24,3.57,3.46,5.28.58.82,1.38,2.07,2.11,2.09,1.55,0,1.3-1.54,1.4-2.62a23.54,23.54,0,0,0,0-2.52c0-1.66-.1-3.24,1.12-4.71,1-1.23,1.72-1.58,3-.43a7.75,7.75,0,0,0,6.26,1.85,3.81,3.81,0,0,0,3.29-3.3q.51-3.83,1.2-7.64a2.32,2.32,0,0,1,.9-1.41,5.63,5.63,0,0,0,2.83-6.08,3.89,3.89,0,0,1,1-3.32C147.42,89.35,149.6,88.71,151.54,90.09ZM318.36,134c-.62-2.34-1.09-4.46-1.78-6.51a4.73,4.73,0,0,0-1.59-2.11c-.83-.62-2.23-.69-2.78-1.44-1.28-1.74-2.92-1.33-4.31-.85a3.09,3.09,0,0,0-2.21,3.62,2.29,2.29,0,0,1-1.54,2.52,2.11,2.11,0,0,0-1.26,2.8c.8,2.66.48,3.49-1.34,4.31a4.61,4.61,0,0,0-3,5.11c.1,1.08.11,2.09-1.18,2.85-.83.5-2,1.44-1.38,2.85.21.52.83,1,.86,1.47.14,3.41,3.32,4.84,4.82,7.38a13.62,13.62,0,0,0,5.17,4.54,49.12,49.12,0,0,1,7.95,5.87c2.17,1.89,4,4.17,6,6.24a8.51,8.51,0,0,0,1.58,1,5.09,5.09,0,0,0,.74-1.23c.49-2.08.8-4.21,1.4-6.25a26.9,26.9,0,0,1,2-4.79c1.22-2.28,2.68-4.43,3.89-6.71a2,2,0,0,0-.28-1.85c-2.58-2.36-3.33-5.24-3.38-8.67,0-2.76-.87-5.51-1.35-8.26a1.16,1.16,0,0,0,0-.18c-.75-2.15-1.5-4.31-2.28-6.45a4.69,4.69,0,0,0-.63-1.08c-1.05-1.58-2.05-3.2-3.21-4.7a17.44,17.44,0,0,0-2.86-2.9c-.33-.27-1.1,0-1.67,0a8.44,8.44,0,0,1,.79,1c.82,1.5,2.57,2.29,2.86,4.26a24.83,24.83,0,0,0,1.47,3.88c.45,1.32.76,2.69,1.18,4.23ZM185.48,291.06c-.07-.57,0-1.14-.21-1.47-1.69-2.37-3.45-4.7-5.2-7-1.41-1.88-2.91-3.69-4.24-5.63-1.12-1.62-1.77-3.65-3.11-5a23.24,23.24,0,0,1-4.62-6.78c-.5-1.1-1.06-2.17-1.53-3.28a27.41,27.41,0,0,1-2-5.14c-.51-2.58-1.5-3.71-4.07-3.72-.3,0-.61,0-.9,0a27.44,27.44,0,0,1-10.49-1.43,15.1,15.1,0,0,1-3.06-1.4,33.06,33.06,0,0,1-3.29-2.2,25.39,25.39,0,0,1-4.18-3.43,40.61,40.61,0,0,1-3.25-5.11h-.5l-.27,2.68c-.2,2-.42,4.06-.61,6.1a3.16,3.16,0,0,0,.17.82,13.08,13.08,0,0,1,.47,2.2,68,68,0,0,0,.31,7.71,6.92,6.92,0,0,0,2.24,3.68c1.91,1.69,4.13,3,6.2,4.55s3.94,2.95,5.9,4.43c1.41,1.06,2.83,2.11,4.18,3.23,1.53,1.26,2.82,2.95,4.54,3.81a12.48,12.48,0,0,1,3.88,3.49c3,3.53,5.77,7.2,9.94,9.43a8.91,8.91,0,0,0,2.82,1C178.27,293.05,181.69,291.66,185.48,291.06ZM239.9,522.77c1.27-3-1-4.5-2.73-6a14.64,14.64,0,0,0-9.11-3.69,3.9,3.9,0,0,1-1.19-.36c-1.64-.65-3.23-1.71-4.92-1.89-2.93-.33-5.47-1.55-8.18-2.45a29.44,29.44,0,0,1-8.47-4.05c-2-1.52-4.13-1.43-6.21-1s-4.18,1.51-6.31,2.13a30.34,30.34,0,0,1-6.18,1.4c-3.16.25-6.36-.07-9.52.18-2.87.22-5.72.88-8.72,1.37,0,2.75-.4,5.45.12,8a8.68,8.68,0,0,0,3.1,5.14c1.67,1.08,4.16,1.25,6.29,1.21,3.33-.05,6.7.61,10-.73,1.81-.73,3.91-.57,5.92-1.08,3.77-1,7.67-2.23,11.74-1.54,2.36.4,4.75.7,7.09,1.18,2,.4,3.87,1,5.79,1.52.11,0,.18.18.28.22,1.68.64,3.37,1.83,5,1.81C229.18,524,234.77,525.6,239.9,522.77Zm154.94,18.82c1-3.67-1-6.7-1.57-10a18.63,18.63,0,0,0-1-3.51c-.62-1.64-1.64-3.18-2-4.86-.71-3.53-1.08-7.13-1.59-10.7a6,6,0,0,0-.23-.75c-2.65.16-5.36-.41-8,.91a4.23,4.23,0,0,1-2.43.14c-1.32-.2-2.59-.81-3.9-.88-2.8-.14-5.62-.09-8.43,0a2.1,2.1,0,0,0-1.48.65c-.59.81-.78,2-1.46,2.64-1.41,1.4-2.66,3.09-5.08,3-3.89-.16-7.79-.1-11.68-.17a4.38,4.38,0,0,1-2.11-.31c-2.17-1.35-4.52-.91-6.81-.85-2.13.07-3,1.42-2.51,3.55a13.77,13.77,0,0,1,1.84.64c1.24.64,2.42,1.42,3.68,2a35.92,35.92,0,0,0,3.66,1.41c2.11.75,4.23,1.5,6.37,2.18,1.82.58,3.71.95,5.5,1.6,2.71,1,5.31,2.27,8,3.2,3,1,6.07,1.69,9.06,2.68a50.34,50.34,0,0,1,5,2.21c1.87.86,3.7,1.82,5.6,2.6,1.59.65,3.47.79,4.84,1.71C390.35,542.19,392.59,541.34,394.84,541.59ZM55.42,295.32l4.34-.33A37.25,37.25,0,0,0,50,281.34a4.3,4.3,0,0,1-.51,1,4.17,4.17,0,0,1-.74.45A17.74,17.74,0,0,1,40.64,285c-4.4.36-8.85,0-13.29,0-1.62,0-1.85.41-1.3,1.78.75,1.86,1.82,3.73,1.95,5.65a62,62,0,0,0,1.47,9.21c.46,2.06,0,4.16,1,6.33a21.54,21.54,0,0,0,2.94,4.2c.3.39,1.65.33,2.25,0s1.15-1.3,1.7-2a10,10,0,0,1,1.4,1.08,13.59,13.59,0,0,1,.82,1.45c.59.94,2.84,1.43,3.34.61,1.14-1.9,2.81-2.06,4.73-2a2.24,2.24,0,0,0,1.67-.79,17.47,17.47,0,0,0,1.38-2.89l.37.5c.93.15,2.13.72,2.71.34a4,4,0,0,0,1.55-2.69c.1-1.34-.63-2.73-.61-4.1C54.8,299.59,55.18,297.47,55.42,295.32ZM44.65,544c-.65-2.8-1.24-5.33-1.85-7.86,0-.2-.34-.33-.43-.53-1-2.17-2-4.38-3.09-6.53-.61-1.19-1.16-2.8-2.19-3.31a48.8,48.8,0,0,0-7.42-2.55c-1.86-.57-3.76-1-5.65-1.55-.16,0-.31-.14-.47-.2-2.08-.73-4.14-1.49-6.23-2.18a27.31,27.31,0,0,0-3.35-.83,4.66,4.66,0,0,0-2.46-.14c-.8.36-2.13.66-1.64,2.22.8,2.57,1.61,5.16,2.18,7.78s-.35,5.37,1.19,8c.9,1.52,1,3.51,1.6,5.81a12.47,12.47,0,0,1,2.5-1.41,2.8,2.8,0,0,1,2.21.14c1.23,1.13,3.61,1.39,4.84.2a1.74,1.74,0,0,1,2.83,0c2,2.1,2.05,2,4.83.75.6-.28,1.58.22,2.38.39s1.88.83,2.3.52a2.51,2.51,0,0,1,3.39.45C41.39,544.63,42.72,544.08,44.65,544Zm102.8-315.77c-.79,1.58-1.65,3.24-2.46,4.92-.9,1.84-1.75,3.7-2.63,5.55a8.6,8.6,0,0,0-1,2.24,3.36,3.36,0,0,0,.45,2.31c1.54,1.95,4.21,2.42,5.94,3.94,2.82,2.48,6.34,2.05,9.47,3,2.4.75,5.25.42,7.84.08a17.72,17.72,0,0,0,5.09-2,1.53,1.53,0,0,0,.09-1.43c-1.22-1.11-2.61-2-3.87-3.09-3.31-2.78-6.59-5.6-9.89-8.4-.81-.69-1.61-1.39-2.45-2C151.94,231.65,149.84,230.06,147.45,228.23Zm0-70.89c-.38-1.26-.78-2.54-1.13-3.84-.52-1.94-1-3.9-1.49-5.86-.54-2.26-1-4.54-1.58-6.78a19.74,19.74,0,0,0-1.23-3.2c-1.09-2.35-2.24-4.67-3.36-7-.45-.93-.89-1.86-1.3-2.8-.54-1.26-1-2.57-1.6-3.79-1.12-2.26-2.26-4.52-3.53-6.7-.58-1-1.26-2.38-2.71-2.11s-.65,1.66-.77,2.55c-.25,2,.2,4-1,5.84a2.77,2.77,0,0,0,.5,3.4,48.57,48.57,0,0,1,4,6.23c.84,1.41,1.5,2.91,2.31,4.33s1.83,2.86,2.64,4.35c1,1.83,1.72,3.8,2.81,5.56a59.36,59.36,0,0,1,5,9.61c.28.71,1.24,1.16,1.88,1.72ZM140.86,329c3.68-1.66,7.32-2,9.63-4.56-.42-1.44-.65-2.58-1.08-3.64-1.06-2.58-2.28-5.09-3.29-7.68-.62-1.6-1-3.31-1.43-5-.05-.17-.08-.35-.14-.52-.77-2.27-1.55-4.53-2.31-6.8-.08-.22-.06-.48-.14-.7-.92-2.49-1.85-5-2.93-7.86-.27.55-.68,1-.69,1.45-.08,2.94-.22,5.88-.07,8.81.3,5.92-.12,11.89,1.3,17.75A81.38,81.38,0,0,1,140.86,329ZM355.53,142.56a12.54,12.54,0,0,0-1.06-2.24c-.69-.89-1.67-1.59-2.26-2.53-.35-.55-.19-1.43-.25-2.16.7,0,1.54-.16,2.06.17.71.44,1,1.57,1.76,1.88,1.85.82,2,2.83,3.12,4.11a1.71,1.71,0,0,1-.13,1.67c-1.35.91-.87,2.19-.9,3.37,0,1.4.12,2.79-1.47,3.65-1.17.63-1.2,1.87-1.13,3.13a3.69,3.69,0,0,1-.48,2.45c-1.13,1.21-2.48,2.16-2.12,4.13a1,1,0,0,1-.43.86,1.08,1.08,0,0,0-.13,2,2.38,2.38,0,0,0,2.22.13,14.08,14.08,0,0,0,2.86-3.43,35.91,35.91,0,0,0,3-6c.74-2,.77-4.24,1.6-6.16a11,11,0,0,0,1.08-4.35c0-.29.45-.55.5-.85.27-1.53,1.21-3.75.55-4.47A16.66,16.66,0,0,0,358,134.1c-2.16-.87-4.88-.55-6.84-1.66-2.4-1.36-3.79,0-5.31.58.33,1.24.6,2.3.9,3.35a2.78,2.78,0,0,0,.4,1.1C349.24,139.92,352,141.4,355.53,142.56ZM53.2,271.39c.42,0,.62,0,.64-.07.59-1.45,1.16-2.92,1.75-4.37.2-.48.43-.94.67-1.39.57-1.12,1.56-2.2,1.66-3.35a40.81,40.81,0,0,0-.11-7.33,33,33,0,0,0-1.11-5.35,24.3,24.3,0,0,0-1.48-4.14c-.77-1.62-1.75-3.15-2.75-4.92a2.81,2.81,0,0,0-1.8,2.93c.31,6.67-1.22,13.42,1,20A56.16,56.16,0,0,1,53.2,271.39Zm287.38-126c0,.68-.17,1.52.15,1.92a39,39,0,0,0,4.33,4.65c1.66,1.43,3,3.55,5.56,3.54a5.06,5.06,0,0,0,2-.59c.15-.06.19-.68.08-1-.47-1.19-1-2.34-1.57-3.61-.64-.37-1.51-1.28-2.38-1.28-2.08,0-3.24-1.51-4.21-2.69C343.29,144.82,342.16,145,340.58,145.38Zm14.92,1.48c-1.18-.94-2.25-2.47-3.55-2.7-2.49-.44-3.82-2-5.42-3.61-.81-.81-1.68-2.46-3.88-1.17a18.92,18.92,0,0,0,1.38,2.4c.84,1.07,1.8,2.05,2.75,3C349.06,147.21,351.78,148.28,355.5,146.86ZM348,160.51c.55-.35,1-.5,1.14-.78a1.52,1.52,0,0,0-.24-1.11,4.1,4.1,0,0,0-1-1c-2.37-1.78-4.76-3.53-7.13-5.31-.41-.3-.75-.67-1.13-1a5.74,5.74,0,0,0-.42,1.92,3.39,3.39,0,0,0,1,1.94c1.49,1.26,3.1,2.4,4.72,3.52C345.85,159.37,346.91,159.9,348,160.51Z"/><path class="cls-1" d="M195.23,303.61c-1.67-3.8-3-7.31-4.73-10.64a82.63,82.63,0,0,0-4.53-7.15c-1.4-2.17-2.74-4.39-4.23-6.49-.79-1.12-2-2-2.76-3.09-1.19-1.62-2.19-3.38-3.33-5-.79-1.15-1.77-2.17-2.53-3.34-.9-1.39-1.68-2.87-2.47-4.34-1.07-2-2-4-3.18-5.93a4,4,0,0,1,2.41-6c2.1-.52,4.12-1.39,6.17-2.1a37.69,37.69,0,0,0,4.07-1.43c1.87-.89,3.68-1.93,5.47-3s3.56-2.22,5.33-3.35c.67-.43,1.32-.89,2-1.31,2-1.23,3.94-2.43,5.89-3.69,1.5-1,2.95-2,4.44-3a5.23,5.23,0,0,1,.91-.47c1.82-.77,3.63-1.54,5.45-2.27,1.35-.55,2.75-1,4.07-1.58,2.83-1.27,5.75-2.32,8.23-4.31,2-1.6,4.31-2.81,6.4-4.32,2.45-1.77,4.74-3.76,7.22-5.49,2.33-1.62,4.81-3,7.24-4.53s5.08-3.06,7.66-4.54a18.26,18.26,0,0,1,3-1.34c3.58-1.27,6.43-3.6,9.33-6a7.78,7.78,0,0,1,4.32-1.56c5-.18,10-.6,14.9.12,3.39.51,6.81.57,10.16,1.17a36.6,36.6,0,0,1,5.66,2,1.8,1.8,0,0,0,.52.13,20.26,20.26,0,0,1,7.75,2.48,1.28,1.28,0,0,0,.35.07c2.55.4,5.13.69,7.64,1.28a5.15,5.15,0,0,1,2.78,1.73,4.58,4.58,0,0,0,4,2c4-.06,7.92.07,11.87,0a2.59,2.59,0,0,1,2.65,1.8c.56,2,2.1,3.12,3.32,4.56,1.41,1.68,2.6,3.54,4,5.22s2.8,3.09,4.27,4.57c.94.94,2.1,1.68,3,2.69a2,2,0,0,1,.09,1.9c-1.86,2.73-3.84,5.39-5.82,8-1.79,2.39-3.63,4.73-5.46,7.08a2.74,2.74,0,0,0,.25,4c2,1.72,4.11,3.28,6,5s3.47,3.47,5.17,5.22c1.48,1.52,3,3,4.37,4.61.76.88,1.23,2,1.93,2.93a67,67,0,0,0,4.27,5.34c1.76,1.89,3.71,3.59,5.62,5.34s3.59,3.18,5.36,4.79a29.9,29.9,0,0,1,3.06,3,68,68,0,0,1,4.53,5.91c1.27,1.9,2.29,4,3.41,6,.5.91,1,1.81,1.47,2.75,1.18,2.48,2.4,4.95,3.44,7.48s1.63,5,2.65,7.35a39.28,39.28,0,0,0,5.44,9.47c.83,1,2,1.79,2.74,2.84a3,3,0,0,1,0,2,20.45,20.45,0,0,0-.79,2.45,25.8,25.8,0,0,1-2.4,8.7c-.74,1.71-1,3.61-1.59,5.39-.69,2.13-1.47,4.23-2.18,6.36-.48,1.45-.82,2.95-1.39,4.37s-1.4,2.83-2,4.27a28.89,28.89,0,0,0-1.38,3.59c-.59,1.92-1.05,3.88-1.59,5.81a22.25,22.25,0,0,0-1.07,3.62c-.52,5.16-1.2,10.34-1.25,15.51a50.88,50.88,0,0,0,1.32,12.5c.5,2.07.6,4.19,1.19,6.16,1.63,5.48,1.61,11.18,2.56,16.72,1.6,9.29,0,18.68,1.34,27.89,1,6.87.11,13.82,1.25,20.54.75,4.46,0,9,1.08,13.23,1.76,7.19.58,14.42,1.12,21.61a5.81,5.81,0,0,1-.12,1l-9.66,1.55c-2,.3-4.16,1.32-5.78.73a12.49,12.49,0,0,0-6.82-.51c-2.53.5-4.79-.4-7.16-.56-1.9-.13-3.74-1.3-5.61-2a2,2,0,0,0-.35-.1c-2.34-.51-4.7-.94-7-1.56-1.13-.31-2.21-.94-2.22-2.39q0-12.68,0-25.36c0-8.27.06-16.55.06-24.82,0-13.49,0-27-.13-40.47a58.28,58.28,0,0,0-1.31-10.15c-.29-1.51-1.33-2.87-1.9-4.34s-1-3.09-1.54-4.6-1.3-3-1.92-4.53-1.42-3.27-1.93-5c-2.45-8.22-.79-16.65-1.12-25s.05-16.8-.16-25.19a41,41,0,0,0-1.53-10.29c-.48-1.67-.39-3.43-1-4.93-1.13-2.78-1.05-6-3.1-8.48-.86-1.05-1.12-2.59-1.67-3.9-.75-1.78-1.55-3.54-2.25-5.34a5,5,0,0,1-.32-1.92,3.78,3.78,0,0,1,.47-1.27c.35.23.72.44,1,.7,2.12,1.7,4.19,3.47,6.37,5.08a24.31,24.31,0,0,0,2.92,1.34c2.23,1.21,4.39,2.57,6.66,3.71,2,1,4.16,1.76,6.21,2.72,1.31.62,2.5,1.51,3.83,2.07a9.11,9.11,0,0,0,3,.53c.22,0,.73-.71.67-1a2.36,2.36,0,0,0-.88-1.49c-2.14-1.24-4.35-2.36-6.54-3.5a20.36,20.36,0,0,0-3-1.43c-4.59-1.47-8.46-4.3-12.54-6.68-1.66-1-2.89-2.63-4.49-3.72-1.9-1.29-4-2.31-6-3.46-.45-.26-.85-.6-1.28-.91-2.22-1.6-4.39-3.29-6.67-4.79a27.93,27.93,0,0,0-3.65-1.63c-2.47-1.16-4.92-2.36-7.39-3.53a1.82,1.82,0,0,0-.51-.13c-3.35-.46-6.71-.83-10.05-1.39-3.69-.62-7.34-1.49-11-2.09a36.4,36.4,0,0,0-5-.2c-3.59-.07-7.2,0-10.78-.23-3.19-.22-6.34-.93-9.53-1.2a24.49,24.49,0,0,0-6.46.13c-1.95.36-3.76,1.41-5.66,2.1-1.52.56-3.12.95-4.61,1.59-2.34,1-4.67,2.07-6.91,3.27s-4.66,2.77-7,4.14c-1.79,1-3.59,2.08-5.42,3.05-1.3.68-2.71,1.18-4,1.87s-2.41,1.47-3.62,2.19a1.53,1.53,0,0,1-.67.23c-2.53.13-4.34,1.84-6.41,2.95-2.86,1.52-5.59,3.31-8.53,4.63C197.07,304.08,197,303.92,195.23,303.61Zm83.91-72.78c-1.24,1.48-.06,2.17.46,3.08,1,1.72,1.78,3.57,2.85,5.24,1.54,2.4,3.19,4.75,4.91,7s3.58,4.67,5.56,6.83,4.33,4.25,6.46,6.41c1.94,2,3.81,4,5.74,6,1.47,1.53,2.94,3.06,4.49,4.51,2.35,2.2,4.69,4.41,7.17,6.45a67,67,0,0,0,5.62,3.91c1,.69,2.22,1.21,3.2,2,1.51,1.18,2.9,2.51,4.35,3.77l.58-.23c-.14-1,0-2.16-.47-2.9-2-2.9-5.33-4.13-8-6.25-2-1.61-4.28-2.91-6.2-4.61-2.37-2.11-4.45-4.54-6.75-6.75s-4.87-4.11-7-6.45c-3.48-3.82-7.51-7.16-10.25-11.65-.9-1.48-2.09-2.78-3.09-4.19-1.38-1.93-2.77-3.86-4.05-5.85-1-1.53-1.67-3.28-2.79-4.7C281.3,231.63,280.61,230.17,279.14,230.83Zm65.21,117.85a5.24,5.24,0,0,0,0,1.9c.64,1.56,1.5,3,2.19,4.56.95,2.12,1.77,4.3,2.76,6.39a34.86,34.86,0,0,0,1.91,3.07c1,1.61,1.9,3.24,2.86,4.85s1.91,3.17,2.92,4.73c.58.88,1.29,1.67,1.9,2.54,1.5,2.16,2.88,4.41,4.49,6.5,1.9,2.47,4,4.81,6,7.21l.63-.08c0-1.1.5-2.42,0-3.23a56.22,56.22,0,0,0-3.9-5.29c-2.36-3.22-4.73-6.44-7-9.72-1.11-1.6-2-3.34-3-5s-2.2-3.41-3.16-5.2c-.88-1.64-1.56-3.39-2.35-5.08-.47-1-1-1.95-1.47-3a27.24,27.24,0,0,0-1.61-4C347,349,346.19,347.48,344.35,348.68Zm-151.23-70,.88.16c3.15.49,6.29,1,9.43,1.47a5.76,5.76,0,0,1,.68.19c2.12.68,4.22,1.46,6.38,2,1.54.38,3.4,0,4.68.73,1.69.95,3.06.65,5,.28-.63-.86-1-1.79-1.52-2a53.6,53.6,0,0,0-5.79-1.38c-.93-.19-1.92-.12-2.84-.35-2.79-.73-5.55-1.55-8.33-2.33a2.84,2.84,0,0,1-.68-.2c-2.54-1.55-5.22-.64-8-.82C193.06,277.36,193.08,278,193.12,278.67Zm93-6.17c-.71-.9-1.08-1.78-1.74-2.14a24.41,24.41,0,0,1-7.42-6.09,61.09,61.09,0,0,1-4.66-6.49c-.83-1.33-1.42-2.82-2.21-4.19-.17-.31-.7-.42-1.07-.63-.18.39-.51.77-.52,1.15a9.32,9.32,0,0,0,1.28,5,27.39,27.39,0,0,0,4.38,6.16c2.43,2.41,4.48,5.19,7.82,6.74A7.42,7.42,0,0,0,286.08,272.5ZM261,214.63c.29.85.34,2,.78,2.15,2.74,1.09,5.24,2.93,8.42,2.77a9.45,9.45,0,0,1,2.49.68,3.09,3.09,0,0,0,1.56.18,5,5,0,0,0,2.78-5.82c-2.18-.66-2,1.14-2.43,2.45-3.26.17-6.55.15-9.39-1.56A5.24,5.24,0,0,0,261,214.63Zm120,197.8c-1.6-2.21-3.21-4.16-4.49-6.3-1.39-2.34-1.82-2.51-3.27-.46a.75.75,0,0,0-.08.35c.61.8,1.29,1.56,1.84,2.4a23.09,23.09,0,0,0,1.54,2.72,15.43,15.43,0,0,0,3,2.59C379.73,413.82,380.55,412.88,381,412.43Z"/><path class="cls-1" d="M2.7,515.22c.74-1.86,1.34-3.49,2-5.06,1.09-2.46,2.26-4.88,3.4-7.31.43-.92.92-1.82,1.34-2.74,1-2.1,1.79-4.27,2.9-6.28.87-1.59,2.14-2.94,3.16-4.46.56-.83.95-1.78,1.43-2.67,1.14-2.12,2.39-4.2,3.42-6.38.73-1.54,1.09-3.25,1.77-4.81.86-2,1.82-3.91,2.84-5.82s2.13-3.76,3.25-5.6c.67-1.1,1.49-2.11,2.13-3.22a24.49,24.49,0,0,0,1.27-2.75c1-2.26,1.92-4.53,2.91-6.78.37-.84.84-1.64,1.26-2.47,1.22-2.37,2.4-4.76,3.67-7.1,1.06-2,2.33-3.8,3.3-5.79a47.36,47.36,0,0,0,1.65-4.6c.65-1.8,1.35-3.59,2-5.4.57-1.58,1-3.21,1.65-4.77s1.51-3.33,2.22-5c.54-1.27,1-2.58,1.5-3.85,1.2-2.91,1.43-6.17,3.44-8.82.81-1.07,1-2.61,1.51-3.92.74-1.92,1.51-3.83,2.27-5.74a2.17,2.17,0,0,0,.07-.35c.49-3.82.66-7.72,1.54-11.45,1.34-5.72,1.23-11.47.89-17.2-.29-5-1.33-10-1.9-15-.29-2.49-.22-5-.41-7.52a31.26,31.26,0,0,0-.68-3.55,6.09,6.09,0,0,1,2-.35c3.32.39,6.65.75,9.92,1.43a22.85,22.85,0,0,1,5,2c1.22.58,3.27-.64,3.47-2.33.52-4.36.91-8.74,1.43-13.1q.57-4.68,1.35-9.35C82,315,82.51,313,83,310.92c.74-3.05,1.55-6.09,2.36-9.12.07-.23.33-.41.51-.62.22.21.57.4.63.65.5,2.1.9,4.22,1.41,6.31.62,2.52,1.34,5,2,7.53a12.64,12.64,0,0,1,.2,2c.3,3.05.08,6.06,1.09,9.15.9,2.78.33,6.05.4,9.1,0,.77,0,1.53,0,2.52,2.59-.34,5.16.54,7.55-.94.45-.28,1.17-.14,1.76-.2a51.61,51.61,0,0,0,8-1c3-.77,6.42-.21,9.65-.2a15.77,15.77,0,0,1,3.23.15c1.32.29,2.59.85,4,1,.08.09.21.17.22.27.52,3.19,1,6.38,1.56,9.57.07.42.51,1.09.81,1.1a4.33,4.33,0,0,0,2.64-.33,70.59,70.59,0,0,0,5.57-4.81c2.07-1.93,4.22-3.82,5.42-6.47a3,3,0,0,0-.07-1.73c-.27-1.14-.65-2.26-.88-3,2.53-1.18,4.55-2.28,6.7-3a12.34,12.34,0,0,1,3.72-.28c.2,0,.53.3.6.53a39.63,39.63,0,0,1,1.39,5.29,1.68,1.68,0,0,0,1.7,1.67,8.52,8.52,0,0,0,2.85-.19c2.41-.62,4.75-1.55,7.17-2a34.14,34.14,0,0,1,5.91-.43c.3,0,.69.5.92.84,1.45,2.23,2.88,4.46,4.28,6.71,1.06,1.69,2.1,3.41,3.1,5.13.63,1.08,1.21,2.2,1.78,3.31.69,1.33,1.38,2.65,2,4,.76,1.68,1.44,3.39,2.15,5.1a4.25,4.25,0,0,1,.14.51c.51,1.92.91,3.88,1.55,5.76.55,1.61,1.36,3.13,2.05,4.69a5.16,5.16,0,0,1,.21.49,53.8,53.8,0,0,1,2.26,7.61,24.25,24.25,0,0,0,2.59,7.14c.88,1.76,1,3.91,1.55,5.84s1.26,3.71,1.91,5.56a4.21,4.21,0,0,1,.28.66c.45,2.61.74,5.27,1.34,7.85,2.68,11.39.59,23,1.51,34.45.11,1.37-.07,2.76-.05,4.14,0,3.3.52,6.58.76,9.84.55,7.46.11,15,.39,22.47.21,5.65.83,11.3,1.43,16.93a69.82,69.82,0,0,0,1.49,7c-2.49.54-4.55.87-6.54,1.46s-3.58,1.46-5.42,2a27.68,27.68,0,0,1-6.15,1.47c-3.82.26-7.7-.2-11.49.26a40.4,40.4,0,0,0-9.72,2c-1.89.72-4.26.27-6.4.14-.28,0-.7-1.23-.7-1.9,0-2.63.26-5.28.13-7.9-.23-4.53-.78-9-1-13.56s-.09-9.35-.37-14-.86-9-1.34-13.54c-.36-3.42-.63-6.85-1.18-10.25-.52-3.21-1.36-6.38-2-9.57-.11-.52-.13-1.07-.21-1.6a71.79,71.79,0,0,0-1.55-8.81c-.74-2.49-2.23-4.76-3.33-7.16-1-2.09-1.66-4.32-2.81-6.31a31.92,31.92,0,0,0-3.93-5.21c-2.61-2.95-5.4-5.73-8-8.66-2.12-2.34-4.14-4.78-6.15-7.22-1.43-1.74-2.7-3.62-4.2-5.29-1.27-1.42-2.78-2.61-4.16-3.93a51.07,51.07,0,0,1-5.35-5.36c-.54-.7,0-2.3.17-3.47.06-.42.57-.76.7-1.18.5-1.66.92-3.33,1.39-5,.1-.34.38-.61.48-.95a4.88,4.88,0,0,0,.45-2.14c-.07-.34-1.12-.46-1.54-.61-1,1.59-1.85,2.88-2.63,4.22a3.47,3.47,0,0,0-.43,1.33,6.76,6.76,0,0,1-1.26,3.87c-1.22,1.57-1.75,3.67-2.64,5.51-1.24,2.56-1.5,5.48-2.63,8-1,2.15-.77,4.26-1.17,6.38-.57,3-1.36,6-2,9-.5,2.21-.89,4.46-1.5,6.63-.57,2-1.35,4-2.08,5.93-.38,1-1,1.93-1.31,2.94-.61,1.89-1,3.83-1.65,5.71s-1.31,3.51-1.92,5.28-1.14,3.51-1.67,5.28c-.82,2.74-1.59,5.5-2.4,8.25a42.05,42.05,0,0,1-1.31,4.17c-1.12,2.7-2.35,5.35-3.53,8a1.39,1.39,0,0,0-.19.5,16.65,16.65,0,0,1-2.4,7.3c-.7,1.21-.81,2.74-1.29,4.09s-1.12,2.8-1.71,4.18c-.7,1.62-1.39,3.25-2.15,4.85-1.07,2.24-2.19,4.45-3.3,6.68-.45.91-1,1.78-1.36,2.71a24.26,24.26,0,0,1-4.77,7.11c-1.34,1.44-2,3.52-3,5.29-.82,1.48-1.69,2.94-2.59,4.37-1.14,1.8-2.32,3.59-3.52,5.35s-2.3,3.14-3.33,4.78c-.68,1.1-1.07,2.36-1.69,3.5-.85,1.56-1.74,3.11-2.73,4.59s-2.23,3-3.32,4.55c-.93,1.32-3.67,1.82-5.06,1.08a20.16,20.16,0,0,0-3.68-1.33c-1.83-.55-3.73-.92-5.52-1.55-1.63-.58-3.17-1.42-4.75-2.13a7,7,0,0,0-.69-.18c-2.18-.72-4.35-1.49-6.55-2.14a21.28,21.28,0,0,0-3-.46c-2-.27-4.07.44-5.87-1-.28-.23-.93-.06-1.4,0a15.31,15.31,0,0,1-3.71.65A18.65,18.65,0,0,1,2.7,515.22ZM135,361c-.32,1.89,1.26,1.86,2,2.61a32.49,32.49,0,0,0,9.61,5.89A27.23,27.23,0,0,1,150.4,371c2.08,1.33,4.18,2.37,6.73,2.21a1.67,1.67,0,0,1,1,.14c1.9,1.57,4.23.78,6.34,1.18.35.07,1.2-.62,1.17-.89a2.48,2.48,0,0,0-.92-1.47c-.32-.26-.91-.17-1.38-.25l-8.28-1.35a1.75,1.75,0,0,1-.47-.2c-2.92-1.54-5.84-3.07-8.74-4.64-2.33-1.26-4.89-2.28-6.86-4C137.6,360.51,136.48,360.68,135,361ZM54.5,444.9c0,1.4-.42,2.82.09,3.36a10.59,10.59,0,0,0,4.15,2.79,21.07,21.07,0,0,0,6.67,1.12,42.44,42.44,0,0,0,6.9-1.14.56.56,0,0,0,.16-.07l5-2.87.32.38v-2.25a5.85,5.85,0,0,0-2.27.19c-2.13,1.18-4.17,2.47-6.73,2.44-.37,0-.73.34-1.11.45a3.21,3.21,0,0,1-1.34.27c-1.9-.26-3.8-.57-5.68-.95a5,5,0,0,1-1.66-.73C57.63,447,56.31,446.11,54.5,444.9ZM175,466.34c-.68,1.31-1.45,2.49-.85,4.11s.93,3.45,1.6,5.09a23.14,23.14,0,0,0,2.42,4.49c.3.43,1.34.35,2,.51a5.89,5.89,0,0,0-.13-2.24c-1.27-2.58-3.14-4.94-3.19-7.95A4.39,4.39,0,0,0,175,466.34Zm-13-63a13.17,13.17,0,0,0,.88,2.39c1,1.7,2.19,3.31,3.24,5,.9,1.43,1.73,2.92,2.83,4.79,2-5-1.45-7.55-3.38-10.57C164.91,404,164,402.77,162,403.36Zm8.31,24-.66.27a13.58,13.58,0,0,0-.09,2.38c.37,2.78,1,5.53,1.19,8.32.14,1.72.84,2,2.24,1.66,1-3.91-.52-7.49-1.17-11.16C171.68,428.28,170.79,427.86,170.27,427.37Zm-127,36c1.49.26,5.42-1.67,5.85-2.94.23-.65.75-1.81-.71-1.83S43.81,461.66,43.3,463.33Z"/><path class="cls-1" d="M75.54,220.57a52.76,52.76,0,0,0-.4-6.56c-.21-1.12-1.3-2.07-1.9-3.14s-.86-2-1.46-2.92-1.39-1.41-2-2.19a2.58,2.58,0,0,1-.5-1.51c0-.31.49-.67.83-.88,2.66-1.61,5.44-3,7.56-5.39.59-.66,1.19-1.32,1.87-2.06,5,5.15,9.7,10.34,16.37,13.39l1.81-1.53c-1.53-1-3-1.94-4.31-2.94-1.68-1.26-3.37-2.52-5-3.9-1.73-1.52-3.35-3.17-5-4.77-.58-.57-1.39-1.08-1.64-1.78a3,3,0,0,1,.37-2.19c.89-1.62,2.21-3,2.91-4.74,1.12-2.69,1.59-5.69,2.89-8.27a14,14,0,0,0,1.1-4.71A49.18,49.18,0,0,1,90.33,168a48.37,48.37,0,0,1,2-4.9c.52-1.3,1-2.62,1.43-3.95a22.6,22.6,0,0,0,1.12-3.65c.16-1,.67-2.47-1-2.79s-1.68,1.26-2.24,2.16c-.22.36,0,1-.15,1.41-.63,1.75-1.41,3.45-2,5.21a55.48,55.48,0,0,0-1.83,6.4c-.57,2.81-.73,5.72-1.38,8.52a39.32,39.32,0,0,1-2,5A24.15,24.15,0,0,0,83,185.35c-.73,3.68-3.6,6.06-5.48,9-1.21,1.91-3.23,3.33-5,4.88a10.09,10.09,0,0,1-2.5,1.43c-2.06.95-4.22,1.72-6.21,2.79a12.58,12.58,0,0,0-3.14,2.65,34.63,34.63,0,0,0-3.44,4.39,51.34,51.34,0,0,0-2.9,5.24c-1.58,3.18-1.76,6.77-2.8,10.08-.93,2.95-.7,5.87-1.18,8.77-.44,2.64-1.28,5.23-1.92,7.84a5.77,5.77,0,0,0-.23,1.42c-.05,5.33-.34,10.68,0,16a36.4,36.4,0,0,0,2.21,9.34c1.18,3.43-.5,10.33-3.63,11.93a15.51,15.51,0,0,1-6.14,1.46,107.42,107.42,0,0,1-12.94-.07c-2.06-.15-4.06-1.27-6.08-2-1.56-.53-3.15-1-4.64-1.64a49,49,0,0,1-4.48-2.49.76.76,0,0,1-.3-.61q.36-4.14.79-8.28c.08-.77.34-1.52.36-2.28.09-4.8-.5-9.71.36-14.36,1.44-7.75.3-15.5,1-23.21a35.71,35.71,0,0,1,1.5-8.73c.73-2,.67-3.91,1-5.87a88.9,88.9,0,0,1,1.4-8.94c.87-3.53,2.16-7,3.27-10.43a41,41,0,0,1,1.52-4.54,37.9,37.9,0,0,1,2.55-4.34c1.16-1.84,2.36-3.66,3.57-5.47,1.08-1.62,2.24-3.19,3.29-4.83s1.85-3.17,2.84-4.71,2-3,3.08-4.45c1.43-1.94,2.92-3.84,4.37-5.76,1.78-2.38,3.59-4.73,5.29-7.17,1.26-1.82,2.37-3.74,3.54-5.62a24,24,0,0,0,2.7-8.06c.63-3,2.08-5.75,3.17-8.62a1.59,1.59,0,0,0,.16-.51c.14-2.72,1.37-5.09,2.28-7.59.71-2,1-4.06,1.58-6a49.2,49.2,0,0,1,1.93-4.57c.08-.21.27-.38.34-.59a27.56,27.56,0,0,1,1.55-5.26c1.17-2.26,2.86-4.24,4.19-6.41,1.11-1.82,3.1-2.28,4.72-3.28.69-.43,1.75-.23,2.64-.36a73.12,73.12,0,0,0,8.64-1.45,6.25,6.25,0,0,0,3.08-2.84A59.55,59.55,0,0,0,91.6,85.1c.43-1,2.75-1.35,3.42-.49.93,1.22,1.72,2.55,2.64,3.78,1.49,2,3.06,3.94,4.56,5.93,1,1.36,2,2.75,3,4.14,2.3,3.26,4.65,6.51,6.88,9.82,1.11,1.65,2,3.44,3,5.15.34.58.79,1.09,1.15,1.65,1.72,2.68,3.34,5.41,5.15,8s3.78,4.9,5.55,7.44c1.12,1.62,2,3.42,2.95,5.14l3.46,6.08c.93,1.65,1.83,3.31,2.76,5,1.14,2,2.34,4,3.43,6,1,1.85,1.83,3.77,2.81,5.62,1.05,2,2.34,3.88,3.23,5.94.45,1,.18,2.38.39,3.55s.64,2.36.92,3.54a9.23,9.23,0,0,1,.31,1.94c.06,2.34,0,4.68.14,7,.16,2,.85,3.93.89,5.9.13,6.95.54,13.95-.08,20.85-.35,3.87-.6,7.78-1.11,11.64-.26,2-1.4,3.9-2.07,5.87-.55,1.65-.9,3.37-1.52,5s-1.51,3.21-2.21,4.84-1.22,3.15-1.9,4.91c-.71-.53-1.63-.89-2-1.56-.85-1.59-2.2-1.08-3.43-1.08s-1.24,1.12-1.78,1.85c-1.4,1.9-.87,4-.92,6-.09,3.23,0,6.47,0,9.71,0,.71-.11,1.41-.17,2.22-.62.05-1.14.13-1.66.13-5.15,0-10.38.5-15.44-.2s-10.11-.22-15-1.25c-3.75-.81-7.44-.69-11.14-1.12-2.11-.25-4.14-1.25-6.2-1.92a5.24,5.24,0,0,0-.48-.23c-2.21-.5-4.45-.89-6.64-1.49s-4.13-1.5-6.25-2a44.63,44.63,0,0,0-4.79-.45,20.46,20.46,0,0,1-2.68-.67l-.79.65c-.2-.17-.39-.25-.46-.39-1-2.12-1.85-4.31-2.94-6.38-.77-1.45-1.84-2.75-2.75-4.13-.32-.49-.8-1-.81-1.55a42,42,0,0,1,.17-7.36c.42-2.6,1.79-5.07,2.06-7.68.38-3.51,2.89-5.84,4.2-8.81.77-1.77,2.7-3,4.1-4.53.25-.27.42-.81.67-.84.83-.1,2-.36,2.48.05a17.64,17.64,0,0,1,3.23,3.5,12.1,12.1,0,0,1,1.52,3.18c.64,1.87,1.7,3.6,1.46,5.75C72.79,220.1,73.7,220.85,75.54,220.57Zm42.82-81.43c.58,1.25,1,2.29,1.53,3.26.94,1.7,1.89,3.4,3,5,1.36,2,3.09,3.79,4.29,5.88,2.25,3.93,4.27,8,6.34,12.05,1.36,2.66,2.44,5.49,4,8a26.8,26.8,0,0,1,3.65,8.9,5.22,5.22,0,0,0,.5,1.08c1.92-1.17,1.91-1.17,1.82-3.1-.13-2.66-1.62-4.73-2.9-6.9a15,15,0,0,1-.78-1.55c-.62-1.36-1.16-2.77-1.87-4.09-.91-1.7-2-3.29-2.93-5-1-2-1.84-4.19-2.84-6.25a24.09,24.09,0,0,0-1.85-3c-.9-1.36-1.85-2.7-2.77-4.05-1.52-2.26-3-4.53-4.55-6.78a12.52,12.52,0,0,1-1.63-2.37C120.9,139.06,120.21,138.73,118.36,139.14Zm-11.73-16.38.67-.14a6.17,6.17,0,0,0,.4-2.4,11.58,11.58,0,0,0-1.54-3.59c-2.11-3.18-4.69-6-6.4-9.49-1.2-2.48-3.63-4.39-5.56-6.51-.81-.89-2.06-1.53-2.54-2.55-.6-1.27-1.38-1.41-2.63-1.33-.49,2.64,1.86,3.56,3,5.12,1.42,1.94,3.76,3.13,4.49,5.66a10,10,0,0,0,1.37,2.88c1.92,2.8,3.92,5.54,5.89,8.31C104.74,120.06,105.69,121.42,106.63,122.76Zm-62.12,96a20.2,20.2,0,0,0-.62-3.65c-.57-1.52-2.2-2.54-2.12-4.43,0-.27-.4-.55-.61-.83-.57-.77-1.12-1.55-1.72-2.29-1.34-1.65-2.61-3.36-4.08-4.87-1.18-1.23-3-1.09-4.45,0,.85,1.84,3,2.2,4.15,3.93,2,3,4.37,5.78,5.76,9.21C41.36,217.23,42,218.64,44.51,218.79Zm34,17.84c-.47.25-1.37.44-1.52.88s.27,1.31.44,2,.3,1.26.46,1.88a6.51,6.51,0,0,0,.45,1.44C79,244,80,245,80.2,246.21c.33,2.1,2.06,2.83,3.28,4,.29.29,1.26-.11,1.91-.19a9.4,9.4,0,0,0-.69-2.14c-.45-.74-1.32-1.26-1.71-2-1-2-1.75-4-2.66-6C79.87,238.93,79.29,238,78.52,236.63ZM86,211.69c-2-2.48-3.94-4.89-5.86-7.35-.77-1-1.4-2.12-2.2-3.09-.14-.17-1.25.16-1.25.21.11,1.35-.09,2.92.56,4a57.7,57.7,0,0,0,4.7,6.05C83.58,213.55,84.41,213.53,86,211.69Zm5.82-80.13.57-.26c1.35-3.33-.24-6.43-1.23-9.42-.49-1.49-2.22-2.66-3.57-3.74-.47-.37-1.49,0-2.26,0,.14.75,0,1.85.47,2.19,2.76,2,3.66,4.95,4.4,8.07A14.38,14.38,0,0,0,91.78,131.56Z"/><path class="cls-1" d="M428.44,122.16c.44,1,.91,1.88,1.33,2.83.76,1.76,1.83,3.47,2.17,5.31,1.06,5.65,2.11,11.36,1.27,17.14a80.35,80.35,0,0,1-2,8.3c-.08.35-.15.71-.21,1.06-.44,2.51-.71,5.06-1.37,7.51a32.52,32.52,0,0,1-2.16,4.6c-.42.93-.75,1.9-1.1,2.86-.57,1.53-1.08,3.08-1.69,4.59s-1.42,3.2-2.13,4.8a2.26,2.26,0,0,0-.19.49c-.41,2.9-.89,5.79-1.2,8.69-.18,1.67.19,3.42-.17,5a37,37,0,0,1-2.06,5.57c-.43,1.11-1,2.17-1.39,3.28a7.74,7.74,0,0,1-4.48,4.26,37.59,37.59,0,0,0-4.4,2.76A17.35,17.35,0,0,1,405.8,213c-1.6.64-3.34.93-4.95,1.56-3.62,1.43-7.59.62-11.13,1.62a27,27,0,0,1-8.84.78,20,20,0,0,1-8.45-2.28,1.52,1.52,0,0,0-.53-.11,22.73,22.73,0,0,1-7.27-2.32,2.81,2.81,0,0,0-.88-.17,23.19,23.19,0,0,1-10.37-3.4,1.59,1.59,0,0,0-.68-.21c-4.79-.53-9.66-.67-14.33-1.71a47.4,47.4,0,0,0-9.6-1c-3-.06-6,0-9.2,0-.22-3-.85-6,.84-8.84a1.49,1.49,0,0,0,.15-.52c.45-3,.76-6,1.39-9,.57-2.65,1.49-5.22,2.25-7.83a1.54,1.54,0,0,0,.05-.17c.48-2.28.88-4.58,1.48-6.82s1.38-4.43,2.11-6.64c.45-1.35,1-2.68,1.42-4a14.09,14.09,0,0,1,4.06-6.47c2.23,1.15,4.38,2.17,6.44,3.34,1.65.93,3.19,2.09,4.82,3.08,1.18.71,2.44,1.28,3.64,2,.4.23.67.7,1.07.9,1.85.93,3.73,1.81,5.6,2.7a34.48,34.48,0,0,0,4.62,2.15,75.33,75.33,0,0,0,7.59,1.78,2.06,2.06,0,0,0,1.19-.37c-.28-3-.67-5.67-.77-8.4a28.55,28.55,0,0,1,.4-6.27c.47-2.56,1.33-5,2-7.56.11-.4.12-.83.24-1.23.72-2.21,1.36-4.44,2.2-6.61a68.18,68.18,0,0,1,2.86-6.42,27.6,27.6,0,0,1,2.52-3.84,51.6,51.6,0,0,1,3.54-4.4,38.66,38.66,0,0,1,8.35-7.26,24.83,24.83,0,0,0,2.77-2.39c1-.84,2.07-1.59,3.05-2.45A2.37,2.37,0,0,0,396,113c-.68-.42-1.78-1.26-2.09-1-2.16,1.56-4.18,3.33-6.21,5.07-2.23,1.91-4.49,3.78-6.6,5.81-1.33,1.29-2.89,2.26-3.73,4.19-.91,2.12-2.68,3.85-4,5.8a23.59,23.59,0,0,0-1.8,3.12c-.62,1.28-1.11,2.62-1.66,3.94-.31.75-.67,1.5-.91,2.28-.56,1.81-1.06,3.64-1.59,5.46-.31,1.07-.68,2.12-.92,3.19-.73,3.18-1.48,6.35-2.07,9.55a34.26,34.26,0,0,0-.3,4.65c0,.76,0,1.51,0,2.72-2.66-1.13-5.4-1.09-7.15-2.94a21.9,21.9,0,0,1,1-2.85,7.65,7.65,0,0,1,1.33-1.59,14.61,14.61,0,0,0,3.71-8.18,23.75,23.75,0,0,1,1.48-4.24c.33-1,.6-2,.89-3,.62-2.15.83-4.43,2.15-6.35a2.66,2.66,0,0,0,.23-.86,65.45,65.45,0,0,1,1.42-6.45c.42-1.33,1.7-2.4,2.08-3.73.82-2.82,3.71-4.1,4.75-6.48,1.35-3.1,4-5,5.85-7.57,1.33-1.84,3.73-2.89,5.66-4.29,2.14-1.54,4.22-3.17,6.44-4.59a60.1,60.1,0,0,1,5.51-2.9c2.3-1.17,4.62-2.27,6.92-3.44,2.68-1.35,5.36-2.72,8-4.14,1.45-.78,2.85-1.67,4.25-2.54,1.05-.66,2-1.46,3.1-2a119.45,119.45,0,0,0,10.71-6.24c1.86-1.24,4.32-1.62,6.53-2.27.86-.25,2.91,1.42,3.16,2.36A21.38,21.38,0,0,1,443.25,88c.07,1.4-.72,2.81-.83,4.24-.16,2.13-1.46,4.15-.58,6.4a5.33,5.33,0,0,1,.15,2c0,2.28,1.25,4.07,2.18,6,1,2.17,1.95,4.4,2.94,6.59.48,1.06,1.06,2.07,1.55,3.12a14.66,14.66,0,0,1,.89,2.14c.73,2.57,1.42,5.16,2.1,7.74a6,6,0,0,1,.29,1.57q0,17.27,0,34.53c-2.13,4.44-.48,9.25-1.34,13.8a61.15,61.15,0,0,1-1.87,6.1c-.61,2.05-1.19,4.11-1.77,6.16-.74,2.61-1.48,5.22-2.17,7.84a9.39,9.39,0,0,0-.23,2.13c-.06,1.85.09,3.74-.15,5.56-.46,3.4-.58,6.88-2.1,10.06a1.87,1.87,0,0,0-.13.53c-.46,2.93-.77,5.89-1.42,8.78a56,56,0,0,1-2.14,6.15,2.3,2.3,0,0,0-.15.32c-.47,1.93-.87,3.89-1.42,5.8-.62,2.16-1.39,4.28-2.08,6.43a3.72,3.72,0,0,0-.17.87,8.73,8.73,0,0,1-2.33,5.42,33.46,33.46,0,0,0-2.69,4.24,31.49,31.49,0,0,1-2.73,3.82,2.06,2.06,0,0,1-1.95.3c-1.06-.6-1.84-1.69-2.89-2.3-2-1.15-3.31-3.06-5.44-4.05-1.64-.76-3-2.15-4.51-3.15-2.16-1.42-4.39-2.75-6.58-4.12-1.45-.9-2.87-1.82-4.33-2.7-1.2-.73-2.41-1.44-3.64-2.11-2.26-1.22-4.52-2.46-6.82-3.59-1.22-.59-2.55-.93-3.81-1.45a24.85,24.85,0,0,1-2.78-1.39c-1.95-1.11-3.86-2.29-5.82-3.38-.88-.49-1.84-.82-2.75-1.25a44.56,44.56,0,0,1-9.82-5.94c-1.48-1.22-3.34-2-4.95-3.06a7.72,7.72,0,0,1-1.86-2,19,19,0,0,1-1.27-2.44c.27-.09.66-.31.73-.24,1.11,1.21,2.64.72,3.95,1.09,1.92.55,3.77,1.36,5.65,2.06.11,0,.2.13.31.16,2,.5,4,1,6,1.48,2.4.61,4.79,1.26,7.18,1.89.17,0,.34.16.49.14,1.83-.28,3.82-.23,5.45-1,3.14-1.39,6.45-.64,9.6-1.34a57.4,57.4,0,0,0,5.78-1.9c1.63-.56,3.31-1,4.87-1.71a45.82,45.82,0,0,0,4.42-2.49c1.22-.72,2.42-1.5,3.64-2.23,2-1.19,3.79-2.47,4.08-5.07.07-.6.77-1.12,1.06-1.73a44.92,44.92,0,0,0,2.75-8.38c1-3.93.4-7.8,1-11.64a14.12,14.12,0,0,1,1.27-3.72c1.07-2.33,2.31-4.58,3.41-6.9.49-1,.79-2.17,1.22-3.23.8-1.95,1.63-3.88,2.45-5.82a1.43,1.43,0,0,0,.06-.36c.49-3.09.67-6.28,1.54-9.26s.63-6,1.43-8.78c.62-2.17.84-3.91-.11-5.85a1.56,1.56,0,0,1-.1-.53c-.46-3.36-.74-6.76-1.45-10.06a21.51,21.51,0,0,0-2.46-6.28c-.35-.6-2.1-.4-3.2-.56Zm-72.81,51.42L355,174c.49,1.44,1,2.87,1.46,4.32.53,1.82,1,3.67,1.45,5.5a3.71,3.71,0,0,0,.27.65l2.64,5.07c2.32.54,3.28-1.59,4.5-3a28.19,28.19,0,0,0,4.28-6c.68-1.35,2.49-2.47,1.56-4.7-.71.22-1.71.23-2,.7-1.83,2.67-3.46,5.48-5.27,8.18a8.29,8.29,0,0,1-2,1.55l-1.68-5.82a1.93,1.93,0,0,0-.11-.34c-.87-2.11-1.75-4.21-2.68-6.46Zm-.92,29.87.74-.69c-.31-.71-.58-1.43-.92-2.12-.54-1.07-1.16-2.09-1.67-3.16-1-2-1.82-4.11-2.88-6.09s-2.33-4.19-2.22-6.71c.05-1,.07-1.92.05-2.88,0-1.28-.56-2.06-2.42-1.65,0,1.83,0,3.72,0,5.61a10.44,10.44,0,0,0,.3,3.56c1,2.48,2.26,4.85,3.45,7.24.27.53.92,1,1,1.49a6.52,6.52,0,0,0,2.74,4.31A16.52,16.52,0,0,0,354.71,203.45ZM439.49,96.79c-5.31.38-10.52-.4-16,.08,1.49,2.26,1.49,2.27,3.37,2.33,2.51.08,5,.16,7.54.2,1.71,0,3.42,0,5.29,0C439.63,98.37,439.57,97.68,439.49,96.79Zm-25,11.62c.87-1.54.67-1.91-1.62-1.89-.53,0-1.07.07-1.6.09-1.18,0-1.84.74-1.45,1.8.14.38,1.32.5,2,.5A15.67,15.67,0,0,0,414.5,108.41Z"/><path class="cls-1" d="M120.26,276.3c-.43,1.44-.72,2.3-1,3.17a8.56,8.56,0,0,0-.43,2.08c0,4-.09,7.92.12,11.86a53.69,53.69,0,0,0,1.11,8.39c.52,2.52,1.46,4.95,2.2,7.42a2.42,2.42,0,0,1,.08.71,28.91,28.91,0,0,0,2.35,10.19,8.86,8.86,0,0,1,.25,3c.06,3,.05,6,.13,9,0,1.14-.26,1.59-1.51,1.54-3.83-.14-7.67-.2-11.5-.19a15.52,15.52,0,0,0-5.54.83c-2,.73-4.38.26-6.59.42a11.3,11.3,0,0,0-3.28.64c-1,.39-1.4,0-1.52-.81-.44-3-.85-6-1.21-9.05-.5-4.12-.6-8.32-1.5-12.34A109.39,109.39,0,0,1,90,300.72c-.16-1.53-1.25-2.94-1.85-4.43A23.09,23.09,0,0,1,87.5,294c-1.13-.33-1.86-.3-2.49,1.17a30.5,30.5,0,0,0-2.44,8,49.83,49.83,0,0,1-2.07,7.13,1.13,1.13,0,0,0,0,.18c-.51,2.75-.62,5.66-1.61,8.23-1.13,3-.34,6.1-1.28,8.84s-.68,5.62-1,8.41c-.11.81-.38,2.22-.73,2.26a9.89,9.89,0,0,1-3.82-.28c-1.69-.43-3.27-1.39-5-1.66-2.35-.37-4.79-.15-7.16-.48-2.53-.35-5-1-7.86-1.66,0-.52-.17-1.45-.17-2.38,0-5.93,0-11.87,0-17.8,0-1.59.75-2.27,2.16-2.73a4.4,4.4,0,0,0,2.48-1.54c.76-1.47,1.85-2.86,1.6-4.78a39.34,39.34,0,0,1,0-5.21c0-1.13.23-1.95,1.63-2.08,1.06-.1,3.46-3,3.25-4a10,10,0,0,0-1.45-3.42C60,288,58.39,286,56.85,284c-1-1.26-1.86-2.56-2.85-3.79-1.39-1.7-1.35-2.93.07-4.52a15,15,0,0,0,2.48-3.36,34.72,34.72,0,0,0,1.61-4.77c.71-2.31,3.07-3,5.22-1.66A25.51,25.51,0,0,0,68,267.83c2.22.79,4.47,1.48,6.71,2.21a2,2,0,0,0,.35.07c2.46.48,5,.85,7.37,1.48s4.53,1.49,6.82,2.15a11.43,11.43,0,0,0,2.49.23c2.2.15,4.54-.61,6.49,1.12.26.22.81.12,1.23.14,2.28.06,4.56.06,6.83.21a24.63,24.63,0,0,1,2.87.64,4.08,4.08,0,0,0,1.94.14C114,275.18,116.79,277,120.26,276.3Z"/><path class="cls-1" d="M400.14,324.82c-2.06-2.61-4.19-5.17-6.16-7.85a9.82,9.82,0,0,1-1.16-3c-.57-1.85-1-3.74-1.62-5.58-.5-1.51-1.14-3-1.78-4.45-.54-1.23-1.15-2.43-1.75-3.64-.72-1.42-1.46-2.83-2.18-4.25a26.73,26.73,0,0,0-1.5-3.09c-1.51-2.24-3.08-4.44-4.74-6.57s-3.47-4.39-5.35-6.45a48.44,48.44,0,0,0-3.81-3.32c-1.59-1.43-3.19-2.87-4.72-4.37s-2.93-2.89-4.3-4.43c-1.16-1.29-2.19-2.7-3.25-4.07-1.44-1.86-2.76-3.82-4.3-5.6a55.34,55.34,0,0,0-4.59-4.6c-1.21-1.12-2.57-2.09-3.86-3.14a43.85,43.85,0,0,1-4.32-3.7c-.32-.34,0-1.69.47-2.28,1.76-2.42,3.7-4.7,5.53-7.07,1.55-2,3-4,4.52-6.09.8-1.11,1.65-.76,2.42-.08,1.54,1.37,2.95,2.89,4.53,4.22a46.46,46.46,0,0,0,4.94,3.67c1.66,1.06,3.46,1.9,5.22,2.8,2.5,1.28,5.14,2.34,7.51,3.84,3.3,2.09,6.37,4.55,9.6,6.77,1.61,1.1,3.38,2,5,3a30.42,30.42,0,0,1,3,2.39c1.3,1.13,2.56,2.3,3.81,3.49s2.32,2.43,3.59,3.51c2.25,1.91,4.6,3.71,6.89,5.57,1.12.91,2.13,2,3.31,2.76,1.7,1.17,3.51,2.17,5.24,3.31.38.24.85.75.83,1.12,0,1.4.62,3-.82,4.14-.12.09-.13.32-.17.49-.51,2.37-1,4.75-1.55,7.12-.37,1.65-.76,3.31-1.26,4.92a6.13,6.13,0,0,1-1.08,1.69,19.34,19.34,0,0,0-2.75,7.11c-.59,2.48-2,4.78-2.89,7.19-.69,1.78-1.13,3.66-1.86,5.42C403.56,318.74,404,322.57,400.14,324.82ZM398.65,279c0,1.19.05,2.43,0,3.67-.05.75-.31,1.49-.42,2.25-.28,1.9-.57,3.81-.74,5.72,0,.18.94.68,1,.59a3.88,3.88,0,0,0,1.33-1.73c.54-2.9,1-5.82,1.33-8.74C401.37,279.13,400.58,278.48,398.65,279Z"/><path class="cls-1" d="M215.35,225.28c-.92.49-1.56.89-2.25,1.21a57.56,57.56,0,0,0-6.57,3c-2.06,1.26-4.65,1.22-6.44,3.26-1.16,1.32-3.19,1.85-4.75,2.86-1.75,1.12-3.37,2.44-5.11,3.57-2,1.29-4,2.5-6.09,3.7a53.84,53.84,0,0,1-6.32,3.54,4.72,4.72,0,0,1-5.46-1.13c-2.32-2.22-5-4.05-7.44-6.16-1.87-1.64-3.55-3.5-5.42-5.15-1.34-1.18-2.87-2.15-4.29-3.25-2.11-1.64-4.28-3.22-6.22-5-.46-.43-.19-1.74-.09-2.63.06-.53.56-1,.64-1.56.8-5.76,1.05-11.58,1.67-17.34.74-6.88.78-13.75,1-20.63.16-4.18,0-8.38,0-12.58,0-.71.31-1.8.81-2.05,1-.52,1.22.65,1.72,1.28,1.33,1.65,2.76,3.23,4.22,4.77q4,4.22,8.1,8.36c3.3,3.33,6.64,6.62,10,9.93,2.5,2.48,4.92,5.07,7.54,7.42,3.46,3.1,7.45,5.67,10.52,9.1,2.52,2.81,5.83,4.33,8.57,6.74a72.81,72.81,0,0,0,8.45,6.31c.91.59,1.92,1,2.83,1.6C215.22,224.58,215.25,225,215.35,225.28Zm-57-16.05.48.41c.6-.24,1.49-.32,1.73-.76a9.86,9.86,0,0,0,1.38-3.7,65.6,65.6,0,0,0,.06-6.58c-1.73-.42-2.45.17-2.43,1.74,0,1.26.05,2.52,0,3.78a16.58,16.58,0,0,1-.47,2.59C158.86,207.56,158.59,208.39,158.35,209.23Zm21.77,5.58-4.2,6.68c1.57.71,1.57.71,3.23-1.18C181,218.23,181.26,216.65,180.12,214.81Z"/><path class="cls-1" d="M408.6,59.71c-1.65.3-2-.44-2.63-1.6-1.3-2.34-.81-4.78-1.19-7.17a49.54,49.54,0,0,0-1.32-6.52A25.35,25.35,0,0,0,401.07,39a2.5,2.5,0,0,0-2.4-.07c-2.58,2.55-5.82,3.58-9,5-2.4,1-4.81.71-7.13,1.49s-4.51-1.35-5-3.72c-.53-2.72-1.51-5.39-.91-8.19.47-2.16,1.2-4.28,1.88-6.39.43-1.36,1.29-2.66,1.44-4,.45-4.11,3.15-7,5.39-10.08,1.25-1.7,2.82-3.63,5.2-4.44,1.16-.39,2.05-1.56,3.14-2.25a30.16,30.16,0,0,1,4.19-2.33c1.36-.58,2.91-1.36,4.25-1.18a38.58,38.58,0,0,1,6.95,2,37.2,37.2,0,0,0,3.68,1.48c2.83.62,4.67,2.79,7,4.23a21.48,21.48,0,0,1,6.87,6.58c1.38,2.16,3.64,3.58,4.53,6.2.73,2.17,2.49,4,3.19,6.18.62,1.93.37,4.14.58,6.22.15,1.53.51,3,.57,4.56a26.89,26.89,0,0,1-.52,2.71c-.15,2.34,0,4.69-.3,7a78.4,78.4,0,0,1-1.44,8.76,39.69,39.69,0,0,1-2.55,8.45c-.81,1.68-.73,3.28-1,4.94s-1.79,2.59-3.81,2.45a2.6,2.6,0,0,1-2.34-2.83c.18-1.67-.69-3.61,1-5,.2-.16.13-.68.14-1,0-2.52.06-5,.07-7.55,0-3.77-2.07-6.3-5-8.23-.79-.51-1.83-.62-2.65-1.09-2.39-1.39-6.75.78-7.14,3.52-.17,1.23-.74,2.39-1,3.62S408.71,58.39,408.6,59.71Z"/><path class="cls-1" d="M376.43,76.87c.26-2.74-.68-5.39.95-7.79.1-.14.07-.35.12-.52,1.76-6,1.8-12.07,1.36-18.21-.07-.94,0-1.88,0-2.81,2.86-.14,5.44-.1,8-.46a25.41,25.41,0,0,0,5.31-1.63c1.5-.56,2.93-1.28,4.38-2a4.12,4.12,0,0,0,1-.64,1.4,1.4,0,0,1,2.47.81c.5,2.48.62,5.11,1.56,7.41.87,2.13.56,4.29,1.07,6.35a11.48,11.48,0,0,0,2.37,4.29c.46.55,1.76.56,2.67.55,2.26,0,3.65-1.2,3.43-3.45-.24-2.56,1-4.66,1.56-6.94a1.88,1.88,0,0,1,1.66-.83A16.4,16.4,0,0,1,419,53a7.89,7.89,0,0,1,3.2,6.57,48.13,48.13,0,0,1-.17,6.47,46.71,46.71,0,0,1-1.16,5.26c-.6,2.62,1.36,3.93,2.88,5.41.69.68,4.39.2,5.59-.65a14,14,0,0,0,.39,1.93c.29.9.75,1.75,1,2.66a1.4,1.4,0,0,1-.31,1.24c-1.93,1.24-3.9,2.43-5.91,3.54-1.79,1-3.67,1.79-5.44,2.8-1.51.86-2.89,2-4.4,2.82-2,1.15-4.05,2.16-6.06,3.25-.64.35-1.21.85-1.86,1.17-1.85.89-3.75,1.69-5.59,2.6-1.35.67-2.57,1.7-4,2.09a6.74,6.74,0,0,1-4.19,0,13.49,13.49,0,0,1-5.87-4.36c-1.13-1.61-2.4-3.17-2-5.32.3-1.74-.49-2.79-1.89-3.71-.57-.38-.62-1.47-1.14-2-.86-.9-.31-1.16.29-1.92,1.65-2.12-.21-5.68-2.91-5.84Z"/><path class="cls-1" d="M151.54,90.09c-1.94-1.38-4.12-.74-5.76,1.17a3.89,3.89,0,0,0-1,3.32,5.63,5.63,0,0,1-2.83,6.08,2.32,2.32,0,0,0-.9,1.41q-.69,3.81-1.2,7.64a3.81,3.81,0,0,1-3.29,3.3,7.75,7.75,0,0,1-6.26-1.85c-1.29-1.15-2-.8-3,.43-1.22,1.47-1.13,3-1.12,4.71a23.54,23.54,0,0,1,0,2.52c-.1,1.08.15,2.67-1.4,2.62-.73,0-1.53-1.27-2.11-2.09-1.22-1.71-2.34-3.5-3.46-5.28-1.43-2.26-2.77-4.58-4.24-6.82-.94-1.44-2.12-2.73-3-4.18-1.12-1.75-2-3.67-3.17-5.4-.82-1.22-2-2.22-2.9-3.39-1.11-1.43-2.1-3-3.16-4.42a13.34,13.34,0,0,0-1-1.13l.15-.53c.81.18,1.63.35,2.44.55.57.13,1.26.58,1.67.39,2.21-1,5-.57,6.68-3,1.25-1.83,2.71-3.53,2.35-5.87a21.74,21.74,0,0,0-1.38-4.3c-.55-1.45-1.57-2.81-1.75-4.29a10.39,10.39,0,0,1,.9-4.23c.09-.29,1.26-.58,1.56-.36a6.82,6.82,0,0,1,2,2.19c1.84,3.47.81,7.34,1.36,11.28a78.2,78.2,0,0,0,8.66-.11,2.69,2.69,0,0,0,2.27-2.94c-.3-2.55.62-4.87,1.58-7,1.1-2.5,2.48-5,5.36-6.13,1.42-.56,2.58-1.73,4-2.38a18.58,18.58,0,0,1,4-1.16c1.47-.3,3-.44,4.81-.69,0,1.58.13,3.38,0,5.16-.18,2-.65,4-.92,6.09a24.12,24.12,0,0,0,0,2.69c-.05,2.52,1.11,4.69,2,7,.62,1.66,1.14,3.36,1.73,5,.14.42.41.8.54,1.23.26.87.46,1.76.69,2.65Z"/><path class="cls-1" d="M318.36,134H321c-.42-1.54-.73-2.91-1.18-4.23a24.83,24.83,0,0,1-1.47-3.88c-.29-2-2-2.76-2.86-4.26a8.44,8.44,0,0,0-.79-1c.57,0,1.34-.29,1.67,0a17.44,17.44,0,0,1,2.86,2.9c1.16,1.5,2.16,3.12,3.21,4.7a4.69,4.69,0,0,1,.63,1.08c.78,2.14,1.53,4.3,2.28,6.45a1.16,1.16,0,0,1,0,.18c.48,2.75,1.31,5.5,1.35,8.26.05,3.43.8,6.31,3.38,8.67a2,2,0,0,1,.28,1.85c-1.21,2.28-2.67,4.43-3.89,6.71a26.9,26.9,0,0,0-2,4.79c-.6,2-.91,4.17-1.4,6.25a5.09,5.09,0,0,1-.74,1.23,8.51,8.51,0,0,1-1.58-1c-2-2.07-3.86-4.35-6-6.24a49.12,49.12,0,0,0-7.95-5.87,13.62,13.62,0,0,1-5.17-4.54c-1.5-2.54-4.68-4-4.82-7.38,0-.5-.65-1-.86-1.47-.57-1.41.55-2.35,1.38-2.85,1.29-.76,1.28-1.77,1.18-2.85a4.61,4.61,0,0,1,3-5.11c1.82-.82,2.14-1.65,1.34-4.31a2.11,2.11,0,0,1,1.26-2.8,2.29,2.29,0,0,0,1.54-2.52,3.09,3.09,0,0,1,2.21-3.62c1.39-.48,3-.89,4.31.85.55.75,2,.82,2.78,1.44a4.73,4.73,0,0,1,1.59,2.11C317.27,129.51,317.74,131.63,318.36,134Zm-1.17-.63-2.12-1.5c-.43.28-1.13.5-1.33.94a9.8,9.8,0,0,0-.41,2.4c.5-.21,1-.39,1.49-.62S316.07,133.92,317.19,133.34Zm-6.63,4.35a14.4,14.4,0,0,0,.48,2.38,2.12,2.12,0,0,0,1.41-.28,7.92,7.92,0,0,0,1-2.1Zm-.22,6.23a7.9,7.9,0,0,0-2,1.53c-.27.38.07,1.22.21,1.84,0,.06.71.11.75,0C309.71,146.25,311.42,145.61,310.34,143.92Zm-5.66,8.53c2.41.05,2.48,0,2.19-2.47l-2.19.23Z"/><path class="cls-1" d="M185.48,291.06c-3.79.6-7.21,2-10.87,1.47a8.91,8.91,0,0,1-2.82-1c-4.17-2.23-7-5.9-9.94-9.43a12.48,12.48,0,0,0-3.88-3.49c-1.72-.86-3-2.55-4.54-3.81-1.35-1.12-2.77-2.17-4.18-3.23-2-1.48-3.92-3-5.9-4.43s-4.29-2.86-6.2-4.55a6.92,6.92,0,0,1-2.24-3.68,68,68,0,0,1-.31-7.71,13.08,13.08,0,0,0-.47-2.2,3.16,3.16,0,0,1-.17-.82c.19-2,.41-4.07.61-6.1l.27-2.68h.5a40.61,40.61,0,0,0,3.25,5.11,25.39,25.39,0,0,0,4.18,3.43,33.06,33.06,0,0,0,3.29,2.2,15.1,15.1,0,0,0,3.06,1.4A27.44,27.44,0,0,0,159.61,253c.29,0,.6,0,.9,0,2.57,0,3.56,1.14,4.07,3.72a27.41,27.41,0,0,0,2,5.14c.47,1.11,1,2.18,1.53,3.28a23.24,23.24,0,0,0,4.62,6.78c1.34,1.36,2,3.39,3.11,5,1.33,1.94,2.83,3.75,4.24,5.63,1.75,2.33,3.51,4.66,5.2,7C185.51,289.92,185.41,290.49,185.48,291.06Z"/><path class="cls-1" d="M239.9,522.77c-5.13,2.83-10.72,1.25-16.14,1.32-1.67,0-3.36-1.17-5-1.81-.1,0-.17-.19-.28-.22-1.92-.52-3.83-1.12-5.79-1.52-2.34-.48-4.73-.78-7.09-1.18-4.07-.69-8,.56-11.74,1.54-2,.51-4.11.35-5.92,1.08-3.33,1.34-6.7.68-10,.73-2.13,0-4.62-.13-6.29-1.21a8.68,8.68,0,0,1-3.1-5.14c-.52-2.52-.12-5.22-.12-8,3-.49,5.85-1.15,8.72-1.37,3.16-.25,6.36.07,9.52-.18a30.34,30.34,0,0,0,6.18-1.4c2.13-.62,4.15-1.68,6.31-2.13s4.17-.52,6.21,1a29.44,29.44,0,0,0,8.47,4.05c2.71.9,5.25,2.12,8.18,2.45,1.69.18,3.28,1.24,4.92,1.89a3.9,3.9,0,0,0,1.19.36,14.64,14.64,0,0,1,9.11,3.69C238.91,518.27,241.17,519.79,239.9,522.77Z"/><path class="cls-1" d="M394.84,541.59c-2.25-.25-4.49.6-6.69-.89-1.37-.92-3.25-1.06-4.84-1.71-1.9-.78-3.73-1.74-5.6-2.6a50.34,50.34,0,0,0-5-2.21c-3-1-6.08-1.67-9.06-2.68-2.73-.93-5.33-2.21-8-3.2-1.79-.65-3.68-1-5.5-1.6-2.14-.68-4.26-1.43-6.37-2.18a35.92,35.92,0,0,1-3.66-1.41c-1.26-.6-2.44-1.38-3.68-2a13.77,13.77,0,0,0-1.84-.64c-.49-2.13.38-3.48,2.51-3.55,2.29-.06,4.64-.5,6.81.85a4.38,4.38,0,0,0,2.11.31c3.89.07,7.79,0,11.68.17,2.42.1,3.67-1.59,5.08-3,.68-.67.87-1.83,1.46-2.64a2.1,2.1,0,0,1,1.48-.65c2.81-.06,5.63-.11,8.43,0,1.31.07,2.58.68,3.9.88a4.23,4.23,0,0,0,2.43-.14c2.63-1.32,5.34-.75,8-.91a6,6,0,0,1,.23.75c.51,3.57.88,7.17,1.59,10.7.33,1.68,1.35,3.22,2,4.86a18.63,18.63,0,0,1,1,3.51C393.82,534.89,395.85,537.92,394.84,541.59Z"/><path class="cls-1" d="M55.42,295.32c-.24,2.15-.62,4.27-.66,6.39,0,1.37.71,2.76.61,4.1a4,4,0,0,1-1.55,2.69c-.58.38-1.78-.19-2.71-.34l-.37-.5a17.47,17.47,0,0,1-1.38,2.89,2.24,2.24,0,0,1-1.67.79c-1.92-.08-3.59.08-4.73,2-.5.82-2.75.33-3.34-.61a13.59,13.59,0,0,0-.82-1.45,10,10,0,0,0-1.4-1.08c-.55.67-1,1.58-1.7,2s-2,.39-2.25,0a21.54,21.54,0,0,1-2.94-4.2c-1-2.17-.58-4.27-1-6.33A62,62,0,0,1,28,292.41c-.13-1.92-1.2-3.79-1.95-5.65-.55-1.37-.32-1.79,1.3-1.78,4.44,0,8.89.37,13.29,0a17.74,17.74,0,0,0,8.06-2.19,4.17,4.17,0,0,0,.74-.45,4.3,4.3,0,0,0,.51-1A37.25,37.25,0,0,1,59.76,295ZM33.18,306.27l2.48-.17v-2.42l-2.25.23Zm7.43-4.41a7.53,7.53,0,0,0-1.21,1.77c-.08.27.47.72.74,1.09l1.79-1.62Zm10.07-1.69H48.17l-.29.51,2.28,1.72Zm-4,3.47.25-.73a6.36,6.36,0,0,0-1.8-.49c-.33,0-.64.59-1,.91l.28.42Z"/><path class="cls-1" d="M44.65,544c-1.93.08-3.26.63-4.53-.87a2.51,2.51,0,0,0-3.39-.45c-.42.31-1.51-.34-2.3-.52s-1.78-.67-2.38-.39c-2.78,1.29-2.87,1.35-4.83-.75a1.74,1.74,0,0,0-2.83,0c-1.23,1.19-3.61.93-4.84-.2a2.8,2.8,0,0,0-2.21-.14,12.47,12.47,0,0,0-2.5,1.41c-.6-2.3-.7-4.29-1.6-5.81-1.54-2.59-.61-5.35-1.19-8s-1.38-5.21-2.18-7.78c-.49-1.56.84-1.86,1.64-2.22a4.66,4.66,0,0,1,2.46.14,27.31,27.31,0,0,1,3.35.83c2.09.69,4.15,1.45,6.23,2.18.16.06.31.15.47.2,1.89.52,3.79,1,5.65,1.55a48.8,48.8,0,0,1,7.42,2.55c1,.51,1.58,2.12,2.19,3.31,1.09,2.15,2.06,4.36,3.09,6.53.09.2.38.33.43.53C43.41,538.67,44,541.2,44.65,544Z"/><path class="cls-1" d="M147.45,228.23c2.39,1.83,4.49,3.42,6.57,5,.84.66,1.64,1.36,2.45,2,3.3,2.8,6.58,5.62,9.89,8.4,1.26,1.06,2.65,2,3.87,3.09a1.53,1.53,0,0,1-.09,1.43,17.72,17.72,0,0,1-5.09,2c-2.59.34-5.44.67-7.84-.08-3.13-1-6.65-.54-9.47-3-1.73-1.52-4.4-2-5.94-3.94a3.36,3.36,0,0,1-.45-2.31,8.6,8.6,0,0,1,1-2.24c.88-1.85,1.73-3.71,2.63-5.55C145.8,231.47,146.66,229.81,147.45,228.23Z"/><path class="cls-1" d="M147.41,157.34l-.63,1.5c-.64-.56-1.6-1-1.88-1.72a59.36,59.36,0,0,0-5-9.61c-1.09-1.76-1.82-3.73-2.81-5.56-.81-1.49-1.8-2.87-2.64-4.35s-1.47-2.92-2.31-4.33a48.57,48.57,0,0,0-4-6.23,2.77,2.77,0,0,1-.5-3.4c1.22-1.88.77-3.88,1-5.84.12-.89-.71-2.27.77-2.55s2.13,1.1,2.71,2.11c1.27,2.18,2.41,4.44,3.53,6.7.6,1.22,1.06,2.53,1.6,3.79.41.94.85,1.87,1.3,2.8,1.12,2.34,2.27,4.66,3.36,7a19.74,19.74,0,0,1,1.23,3.2c.59,2.24,1,4.52,1.58,6.78.47,2,1,3.92,1.49,5.86C146.63,154.8,147,156.08,147.41,157.34Z"/><path class="cls-1" d="M140.86,329a81.38,81.38,0,0,0-1.15-8.72c-1.42-5.86-1-11.83-1.3-17.75-.15-2.93,0-5.87.07-8.81,0-.45.42-.9.69-1.45,1.08,2.89,2,5.37,2.93,7.86.08.22.06.48.14.7.76,2.27,1.54,4.53,2.31,6.8.06.17.09.35.14.52.46,1.66.81,3.37,1.43,5,1,2.59,2.23,5.1,3.29,7.68.43,1.06.66,2.2,1.08,3.64C148.18,327,144.54,327.32,140.86,329Z"/><path class="cls-1" d="M355.53,142.56c-3.58-1.16-6.29-2.64-8.38-5.09a2.78,2.78,0,0,1-.4-1.1c-.3-1.05-.57-2.11-.9-3.35,1.52-.56,2.91-1.94,5.31-.58,2,1.11,4.68.79,6.84,1.66a16.66,16.66,0,0,1,5.93,3.83c.66.72-.28,2.94-.55,4.47-.05.3-.49.56-.5.85a11,11,0,0,1-1.08,4.35c-.83,1.92-.86,4.18-1.6,6.16a35.91,35.91,0,0,1-3,6,14.08,14.08,0,0,1-2.86,3.43,2.38,2.38,0,0,1-2.22-.13,1.08,1.08,0,0,1,.13-2,1,1,0,0,0,.43-.86c-.36-2,1-2.92,2.12-4.13a3.69,3.69,0,0,0,.48-2.45c-.07-1.26,0-2.5,1.13-3.13,1.59-.86,1.43-2.25,1.47-3.65,0-1.18-.45-2.46.9-3.37a1.71,1.71,0,0,0,.13-1.67c-1.15-1.28-1.27-3.29-3.12-4.11-.72-.31-1-1.44-1.76-1.88-.52-.33-1.36-.13-2.06-.17.06.73-.1,1.61.25,2.16.59.94,1.57,1.64,2.26,2.53A12.54,12.54,0,0,1,355.53,142.56Z"/><path class="cls-1" d="M53.2,271.39a56.16,56.16,0,0,0-1.52-7.95c-2.23-6.62-.7-13.37-1-20a2.81,2.81,0,0,1,1.8-2.93c1,1.77,2,3.3,2.75,4.92a24.3,24.3,0,0,1,1.48,4.14,33,33,0,0,1,1.11,5.35,40.81,40.81,0,0,1,.11,7.33c-.1,1.15-1.09,2.23-1.66,3.35-.24.45-.47.91-.67,1.39-.59,1.45-1.16,2.92-1.75,4.37C53.82,271.37,53.62,271.35,53.2,271.39Z"/><path class="cls-1" d="M340.58,145.38c1.58-.37,2.71-.56,4,1,1,1.18,2.13,2.68,4.21,2.69.87,0,1.74.91,2.38,1.28.56,1.27,1.1,2.42,1.57,3.61.11.29.07.91-.08,1a5.06,5.06,0,0,1-2,.59c-2.57,0-3.9-2.11-5.56-3.54a39,39,0,0,1-4.33-4.65C340.41,146.9,340.62,146.06,340.58,145.38Z"/><path class="cls-1" d="M355.5,146.86c-3.72,1.42-6.44.35-8.72-2-.95-1-1.91-2-2.75-3a18.92,18.92,0,0,1-1.38-2.4c2.2-1.29,3.07.36,3.88,1.17,1.6,1.58,2.93,3.17,5.42,3.61C353.25,144.39,354.32,145.92,355.5,146.86Z"/><path class="cls-1" d="M348,160.51c-1-.61-2.11-1.14-3.08-1.81-1.62-1.12-3.23-2.26-4.72-3.52a3.39,3.39,0,0,1-1-1.94,5.74,5.74,0,0,1,.42-1.92c.38.34.72.71,1.13,1,2.37,1.78,4.76,3.53,7.13,5.31a4.1,4.1,0,0,1,1,1,1.52,1.52,0,0,1,.24,1.11C349,160,348.51,160.16,348,160.51Z"/><path d="M279.14,230.83c1.47-.66,2.16.8,2.82,1.64,1.12,1.42,1.8,3.17,2.79,4.7,1.28,2,2.67,3.92,4.05,5.85,1,1.41,2.19,2.71,3.09,4.19,2.74,4.49,6.77,7.83,10.25,11.65,2.13,2.34,4.71,4.25,7,6.45s4.38,4.64,6.75,6.75c1.92,1.7,4.19,3,6.2,4.61,2.64,2.12,6,3.35,8,6.25.5.74.33,1.92.47,2.9l-.58.23c-1.45-1.26-2.84-2.59-4.35-3.77-1-.76-2.16-1.28-3.2-2a67,67,0,0,1-5.62-3.91c-2.48-2-4.82-4.25-7.17-6.45-1.55-1.45-3-3-4.49-4.51-1.93-2-3.8-4-5.74-6-2.13-2.16-4.42-4.17-6.46-6.41s-3.79-4.48-5.56-6.83-3.37-4.63-4.91-7c-1.07-1.67-1.85-3.52-2.85-5.24C279.08,233,277.9,232.31,279.14,230.83Z"/><path d="M344.35,348.68c1.84-1.2,2.6.27,3.21,1.2a27.24,27.24,0,0,1,1.61,4c.43,1,1,2,1.47,3,.79,1.69,1.47,3.44,2.35,5.08,1,1.79,2.11,3.47,3.16,5.2s1.9,3.41,3,5c2.28,3.28,4.65,6.5,7,9.72a56.22,56.22,0,0,1,3.9,5.29c.46.81,0,2.13,0,3.23l-.63.08c-2-2.4-4.08-4.74-6-7.21-1.61-2.09-3-4.34-4.49-6.5-.61-.87-1.32-1.66-1.9-2.54-1-1.56-2-3.14-2.92-4.73s-1.89-3.24-2.86-4.85a34.86,34.86,0,0,1-1.91-3.07c-1-2.09-1.81-4.27-2.76-6.39-.69-1.54-1.55-3-2.19-4.56A5.24,5.24,0,0,1,344.35,348.68Z"/><path d="M193.12,278.67c0-.72-.06-1.31-.11-2.23,2.76.18,5.44-.73,8,.82a2.84,2.84,0,0,0,.68.2c2.78.78,5.54,1.6,8.33,2.33.92.23,1.91.16,2.84.35a53.6,53.6,0,0,1,5.79,1.38c.57.19.89,1.12,1.52,2-1.92.37-3.29.67-5-.28-1.28-.72-3.14-.35-4.68-.73-2.16-.54-4.26-1.32-6.38-2a5.76,5.76,0,0,0-.68-.19c-3.14-.5-6.28-1-9.43-1.47Z"/><path d="M286.08,272.5a7.42,7.42,0,0,1-4.14-.49c-3.34-1.55-5.39-4.33-7.82-6.74a27.39,27.39,0,0,1-4.38-6.16,9.32,9.32,0,0,1-1.28-5c0-.38.34-.76.52-1.15.37.21.9.32,1.07.63.79,1.37,1.38,2.86,2.21,4.19a61.09,61.09,0,0,0,4.66,6.49,24.41,24.41,0,0,0,7.42,6.09C285,270.72,285.37,271.6,286.08,272.5Z"/><path d="M261,214.63a5.24,5.24,0,0,1,4.21.85c2.84,1.71,6.13,1.73,9.39,1.56.41-1.31.25-3.11,2.43-2.45a5,5,0,0,1-2.78,5.82,3.09,3.09,0,0,1-1.56-.18,9.45,9.45,0,0,0-2.49-.68c-3.18.16-5.68-1.68-8.42-2.77C261.37,216.61,261.32,215.48,261,214.63Z"/><path d="M381,412.43c-.48.45-1.3,1.39-1.42,1.3a15.43,15.43,0,0,1-3-2.59,23.09,23.09,0,0,1-1.54-2.72c-.55-.84-1.23-1.6-1.84-2.4a.75.75,0,0,1,.08-.35c1.45-2.05,1.88-1.88,3.27.46C377.82,408.27,379.43,410.22,381,412.43Z"/><path d="M135,361c1.5-.28,2.62-.45,4.05.77,2,1.7,4.53,2.72,6.86,4,2.9,1.57,5.82,3.1,8.74,4.64a1.75,1.75,0,0,0,.47.2l8.28,1.35c.47.08,1.06,0,1.38.25a2.48,2.48,0,0,1,.92,1.47c0,.27-.82,1-1.17.89-2.11-.4-4.44.39-6.34-1.18a1.67,1.67,0,0,0-1-.14c-2.55.16-4.65-.88-6.73-2.21a27.23,27.23,0,0,0-3.77-1.52,32.49,32.49,0,0,1-9.61-5.89C136.24,362.82,134.66,362.85,135,361Z"/><path d="M54.5,444.9c1.81,1.21,3.13,2.13,4.48,3a5,5,0,0,0,1.66.73c1.88.38,3.78.69,5.68.95a3.21,3.21,0,0,0,1.34-.27c.38-.11.74-.45,1.11-.45,2.56,0,4.6-1.26,6.73-2.44a5.85,5.85,0,0,1,2.27-.19v2.25l-.32-.38-5,2.87a.56.56,0,0,1-.16.07,42.44,42.44,0,0,1-6.9,1.14,21.07,21.07,0,0,1-6.67-1.12,10.59,10.59,0,0,1-4.15-2.79C54.08,447.72,54.5,446.3,54.5,444.9Z"/><path d="M175,466.34a4.39,4.39,0,0,1,1.89,4c.05,3,1.92,5.37,3.19,7.95a5.89,5.89,0,0,1,.13,2.24c-.7-.16-1.74-.08-2-.51a23.14,23.14,0,0,1-2.42-4.49c-.67-1.64-1-3.42-1.6-5.09S174.31,467.65,175,466.34Z"/><path d="M162,403.36c2.07-.59,2.95.64,3.57,1.6,1.93,3,5.4,5.6,3.38,10.57-1.1-1.87-1.93-3.36-2.83-4.79-1.05-1.68-2.22-3.29-3.24-5A13.17,13.17,0,0,1,162,403.36Z"/><path d="M170.27,427.37c.52.49,1.41.91,1.51,1.47.65,3.67,2.21,7.25,1.17,11.16-1.4.34-2.1.06-2.24-1.66-.22-2.79-.82-5.54-1.19-8.32a13.58,13.58,0,0,1,.09-2.38Z"/><path d="M43.3,463.33c.51-1.67,3.81-4.79,5.14-4.77s.94,1.18.71,1.83C48.72,461.66,44.79,463.59,43.3,463.33Z"/><path d="M118.36,139.14c1.85-.41,2.54-.08,3,1.12a12.52,12.52,0,0,0,1.63,2.37c1.52,2.25,3,4.52,4.55,6.78.92,1.35,1.87,2.69,2.77,4.05a24.09,24.09,0,0,1,1.85,3c1,2.06,1.81,4.21,2.84,6.25.88,1.72,2,3.31,2.93,5,.71,1.32,1.25,2.73,1.87,4.09a15,15,0,0,0,.78,1.55c1.28,2.17,2.77,4.24,2.9,6.9.09,1.93.1,1.93-1.82,3.1a5.22,5.22,0,0,1-.5-1.08,26.8,26.8,0,0,0-3.65-8.9c-1.56-2.52-2.64-5.35-4-8-2.07-4-4.09-8.12-6.34-12.05-1.2-2.09-2.93-3.88-4.29-5.88-1.09-1.61-2-3.31-3-5C119.35,141.43,118.94,140.39,118.36,139.14Z"/><path d="M106.63,122.76c-.94-1.34-1.89-2.7-2.84-4-2-2.77-4-5.51-5.89-8.31a10,10,0,0,1-1.37-2.88c-.73-2.53-3.07-3.72-4.49-5.66-1.15-1.56-3.5-2.48-3-5.12,1.25-.08,2,.06,2.63,1.33.48,1,1.73,1.66,2.54,2.55,1.93,2.12,4.36,4,5.56,6.51,1.71,3.53,4.29,6.31,6.4,9.49a11.58,11.58,0,0,1,1.54,3.59,6.17,6.17,0,0,1-.4,2.4Z"/><path d="M44.51,218.79c-2.47-.15-3.15-1.56-3.69-2.89-1.39-3.43-3.73-6.2-5.76-9.21-1.16-1.73-3.3-2.09-4.15-3.93,1.43-1.13,3.27-1.27,4.45,0,1.47,1.51,2.74,3.22,4.08,4.87.6.74,1.15,1.52,1.72,2.29.21.28.62.56.61.83-.08,1.89,1.55,2.91,2.12,4.43A20.2,20.2,0,0,1,44.51,218.79Z"/><path d="M78.52,236.63c.77,1.38,1.35,2.3,1.81,3.29.91,2,1.69,4,2.66,6,.39.76,1.26,1.28,1.71,2a9.4,9.4,0,0,1,.69,2.14c-.65.08-1.62.48-1.91.19-1.22-1.21-3-1.94-3.28-4C80,245,79,244,78.35,242.81a6.51,6.51,0,0,1-.45-1.44c-.16-.62-.3-1.25-.46-1.88s-.62-1.42-.44-2S78.05,236.88,78.52,236.63Z"/><path d="M86,211.69c-1.55,1.84-2.38,1.86-4-.2a57.7,57.7,0,0,1-4.7-6.05c-.65-1.06-.45-2.63-.56-4,0-.05,1.11-.38,1.25-.21.8,1,1.43,2.09,2.2,3.09C82,206.8,84,209.21,86,211.69Z"/><path d="M91.78,131.56a14.38,14.38,0,0,1-1.62-3.2c-.74-3.12-1.64-6-4.4-8.07-.45-.34-.33-1.44-.47-2.19.77,0,1.79-.33,2.26,0,1.35,1.08,3.08,2.25,3.57,3.74,1,3,2.58,6.09,1.23,9.42Z"/><path d="M355.63,173.58l1.76.14c.93,2.25,1.81,4.35,2.68,6.46a1.93,1.93,0,0,1,.11.34l1.68,5.82a8.29,8.29,0,0,0,2-1.55c1.81-2.7,3.44-5.51,5.27-8.18.33-.47,1.33-.48,2-.7.93,2.23-.88,3.35-1.56,4.7a28.19,28.19,0,0,1-4.28,6c-1.22,1.38-2.18,3.51-4.5,3l-2.64-5.07a3.71,3.71,0,0,1-.27-.65c-.48-1.83-.92-3.68-1.45-5.5-.43-1.45-1-2.88-1.46-4.32Z"/><path d="M354.71,203.45a16.52,16.52,0,0,1-1.82-1.09,6.52,6.52,0,0,1-2.74-4.31c-.07-.53-.72-1-1-1.49-1.19-2.39-2.46-4.76-3.45-7.24a10.44,10.44,0,0,1-.3-3.56c-.05-1.89,0-3.78,0-5.61,1.86-.41,2.39.37,2.42,1.65,0,1,0,1.92-.05,2.88-.11,2.52,1.08,4.59,2.22,6.71s1.9,4.07,2.88,6.09c.51,1.07,1.13,2.09,1.67,3.16.34.69.61,1.41.92,2.12Z"/><path d="M439.49,96.79c.08.89.14,1.58.22,2.62-1.87,0-3.58,0-5.29,0-2.52,0-5-.12-7.54-.2-1.88-.06-1.88-.07-3.37-2.33C429,96.39,434.18,97.17,439.49,96.79Z"/><path d="M414.5,108.41a15.67,15.67,0,0,1-2.64.5c-.71,0-1.89-.12-2-.5-.39-1.06.27-1.75,1.45-1.8.53,0,1.07-.08,1.6-.09C415.17,106.5,415.37,106.87,414.5,108.41Z"/><path d="M398.65,279c1.93-.54,2.72.11,2.51,1.76-.37,2.92-.79,5.84-1.33,8.74a3.88,3.88,0,0,1-1.33,1.73c-.09.09-1.05-.41-1-.59.17-1.91.46-3.82.74-5.72.11-.76.37-1.5.42-2.25C398.7,281.45,398.65,280.21,398.65,279Z"/><path d="M158.35,209.23c.24-.84.51-1.67.71-2.52a16.58,16.58,0,0,0,.47-2.59c.09-1.26.05-2.52,0-3.78,0-1.57.7-2.16,2.43-1.74a65.6,65.6,0,0,1-.06,6.58,9.86,9.86,0,0,1-1.38,3.7c-.24.44-1.13.52-1.73.76Z"/><path d="M180.12,214.81c1.14,1.84.87,3.42-1,5.5-1.66,1.89-1.66,1.89-3.23,1.18Z"/><path d="M317.19,133.34c-1.12.58-1.74.92-2.37,1.22s-1,.41-1.49.62a9.8,9.8,0,0,1,.41-2.4c.2-.44.9-.66,1.33-.94Z"/><path d="M310.56,137.69h2.89a7.92,7.92,0,0,1-1,2.1,2.12,2.12,0,0,1-1.41.28A14.4,14.4,0,0,1,310.56,137.69Z"/><path d="M310.34,143.92c1.08,1.69-.63,2.33-1.06,3.39,0,.09-.74,0-.75,0-.14-.62-.48-1.46-.21-1.84A7.9,7.9,0,0,1,310.34,143.92Z"/><path d="M304.68,152.45v-2.24l2.19-.23C307.16,152.43,307.09,152.5,304.68,152.45Z"/><path d="M33.18,306.27l.23-2.36,2.25-.23v2.42Z"/><path d="M40.61,301.86l1.32,1.24-1.79,1.62c-.27-.37-.82-.82-.74-1.09A7.53,7.53,0,0,1,40.61,301.86Z"/><path d="M50.68,300.17l-.52,2.23-2.28-1.72.29-.51Z"/><path d="M46.7,303.64l-2.24.11-.28-.42c.33-.32.64-.9,1-.91a6.36,6.36,0,0,1,1.8.49Z"/></g></g></svg>