<svg xmlns="http://www.w3.org/2000/svg" viewBox="0 0 324.28 561.68"><defs><style>.cls-1{fill:#fff;}</style></defs><g id="Layer_2" data-name="Layer 2"><g id="Layer_1-2" data-name="Layer 1"><path class="cls-1" d="M45.05,406.09l-1.75.21c0,5.2.69,10.52-.15,15.59-1.43,8.71-3.79,17.27-5.8,25.88-1.29,5.53-2.67,11-4,16.56-2.47,10.61-4.81,21.25-7.39,31.83-.8,3.29-2.25,6.42-3.33,9.65-1.36,4-4.21,8.35-3.52,12,.73,3.89,5.22,6.93,7.38,10.73a162.49,162.49,0,0,1,7,15.06c1.74,4,3.22,8,8.87,7.19q6-.85,12.13-1.21a89.32,89.32,0,0,1,9.11.06c1.34.05,3,1.06,3.92.55,5.36-3.08.23-5.68-.72-8.35-1.15-3.26-4-6.31-4-9.48,0-3.62,1.89-7.4,3.5-10.87.94-2,.44-5.64,5.33-4.49,5.37,1.27,11.61,2.24,16.66.69,8.58-2.64,16.74-2.7,25.33-1.24,3,.5,6.27-.15,9.32-.74,2.75-.54,5.31-2.25,8.05-2.54,8.16-.88,11.23-.38,11.87-10.13.05-.78,1.76-2.08,2.68-2.07,3,.06,6,.71,9,.9.52,0,1.66-1.46,1.59-1.54-1.59-2.08-3.31-4.06-5-6.06-1.53-1.82-4.32-3.64-4.33-5.47,0-3.34,1.61-6.69,2.57-10l5.91-20.36c.9-3.11,1.7-6.25,2.72-9.32q3.57-10.86,7.32-21.65c1.69-4.84,3-9.92,5.41-14.4,4.53-8.43,9.45-16.68,14.71-24.67s10.93-15.45,16.57-23c3.55-4.79,7.34-9.4,11.06-14.06a7.14,7.14,0,0,1,1.48-1.08,10.56,10.56,0,0,1,.8,1.57c1.13,3.62,2,7.34,3.36,10.87,2.06,5.39,4.75,10.56,6.6,16,1.77,5.26,2.85,10.77,4.16,16.18,2,8.38,4.06,16.77,6,25.17,1,4.51,1.69,9.11,2.83,13.58,1.43,5.57,3.22,11.06,4.8,16.59.94,3.32,1.7,6.7,2.71,10,1.95,6.33,4.13,12.6,6,18.95,1.48,5,2.69,10.07,4,15.12q2.47,9.86,4.83,19.75c.31,1.31.11,2.77.56,4,1.83,5,3.55,10,5.83,14.83,1.75,3.68,2.06,9.37,8.66,8.11a1.36,1.36,0,0,1,1.1.75c.57,2.94,1.09,5.9,1.54,8.86s.28,5.89,1.32,8.47c.55,1.35,3.4,3,4.73,2.6a137.18,137.18,0,0,0,17.52-5.91c2.38-1,6.1-3.42,6-5-.48-6.08-2.29-12-3.45-18.09-.26-1.34-.41-3.41.35-4.12,4.19-3.9,5.2-9,4.49-14-.82-5.88-3-11.57-4.53-17.34-2.07-7.68-4.56-15.27-6.1-23.05-1.81-9.21-2.73-18.58-4.18-27.86-.73-4.69-1.7-9.34-2.67-14-1.54-7.39-3.37-14.73-4.69-22.17-.88-5-1.05-10.12-1.62-15.19-.3-2.59-.7-5.19-1.2-7.76-1.53-7.79-3.83-15.51-4.55-23.38-1.05-11.38-1-22.87-1.33-34.32-.05-2,1.42-4.43.76-6.09-1.71-4.26,1.84-3.24,3.28-3.38,3.78-.37,6.19-1,3.51-5.45a17.89,17.89,0,0,1-1.4-3.94q-2.67-8.34-5.3-16.67c-2-6.31-4.14-12.58-6-18.94a64.53,64.53,0,0,1-2.2-10.93c-.41-3.84-1.2-8.08,0-11.56,1.58-4.75,4.61-9.11,7.51-13.29,1.05-1.52,4.19-3.35,5.2-2.81a15.83,15.83,0,0,1,5.69,5.93c2,3.34,8.24,6.14,10.89,3.64a27.68,27.68,0,0,0,5.73-8.83c2.7-6,5.08-12.15,7.25-18.36,1.27-3.63,1.83-7.51,2.81-11.25,2-7.65,4.22-15.26,6.13-22.94,1-3.79,2.06-7.7,2-11.53-.09-5.51-.3-11.32-2.16-16.38-1.51-4.09-5.34-7.43-8.47-10.8-5.66-6.08-11.5-12-17.38-17.86-9.61-9.56-19.41-18.92-28.95-28.55-4.82-4.87-8.62-11-14-14.94-4.22-3.1-10.27-3.61-15.39-5.57a41.24,41.24,0,0,1-9.77-4.85c-3.56-2.61-6.55-6-9.74-9.1a1.78,1.78,0,0,1-.27-1.28c.34-3.12,1.08-6.24,1-9.35a108.66,108.66,0,0,0-1.29-16.34c-.77-4.35-2-8.94-4.21-12.66C207.53,15.34,197,12.32,186.37,11.75c-5.75-.31-12.25,2.37-17.39,5.42-4.07,2.41-7.21,7.1-9.61,11.42a38.64,38.64,0,0,0-4.73,14.2c-.46,4.3,1,8.86,1.94,13.25.69,3.32,2.28,6.51,2.67,9.85.71,6.11.71,12.3,1.26,18.44.19,2,.62,5.25,1.89,5.82,4.38,2,7.44,4.53,8.06,9.48a9.93,9.93,0,0,0,.72,3c1.26,2.65,2.67,5.22,4,7.83.41.79,1.28,1.81,1.06,2.4-.91,2.43-2.73,4.64-3.16,7.11a167.06,167.06,0,0,0-2.5,20.52c-.28,6.07.48,12.18.77,18.27.57,11.76,1.07,23.52,1.72,35.27.19,3.47.76,6.93,1.15,10.39.08.79.11,1.58.17,2.38a13.35,13.35,0,0,1-3.53-.12,43.1,43.1,0,0,1-5.47-2.25c-3.89-1.76-8.37-2.44-9.09-8.27-.49-4-2.58-7.77-4-11.63-1.49-4.11-3.29-8.13-4.44-12.32-1.23-4.48-1.69-9.16-2.8-13.67-2.32-9.54-4.69-19.08-7.35-28.53a200.42,200.42,0,0,0-6.43-19.31c-2-5.1-4.8-9.87-7.12-14.85-.35-.76,0-1.86,0-2.8a9.26,9.26,0,0,1,2.41.6c3.77,2.14,11,1.6,11.93-1.47,1.83-5.88,2.7-12.06,4.33-18,.4-1.48,2-3.41,3.36-3.69,3.64-.75,4.61-4.1,3.6-7.63-1.69-5.87-3.47-12.3-2.69-18.15,1.16-8.73,5.7-16.89,3.31-26.27-1.15-4.51-6.83-11.07-11.61-12.19a83.12,83.12,0,0,1-12.39-4.07c-8.14-3.35-16.08-2.51-24,.61C95.45,5.56,92,11.46,90.28,18.33A55.89,55.89,0,0,0,91,48.19a7.74,7.74,0,0,1-.52,5.42c-1.5,2.78-3.74,5.16-5.55,7.79-.78,1.13-1,3.24-1.9,3.6a94.32,94.32,0,0,1-10,2.69c-2.25.56-5.16.41-6.62,1.8-4.19,3.94-8.69,8-11.4,12.92-4.47,8.09-7.63,16.9-11.33,25.41-1.78,4.1-2.65,9-5.47,12.15-6,6.69-11.79,12.91-13.85,22.25-1.85,8.38-5.4,16.4-8.25,24.56-1.74,5-3.87,9.84-5.29,14.9C8.63,189.33,6,197,5.27,204.88c-1,11.43-.57,23-.77,34.51,0,.46-.23.92-.25,1.38q-.37,10.5-.72,21c-.14,4.32.07,8.69-.48,13-.74,5.78-2.21,11.45-3,17.21a5.11,5.11,0,0,0,1.69,4.11c5.79,4.13,15.05,3.3,21-.4,3.79-2.37,4.84-5,4.3-9-.67-4.95-1.48-9.9-1.8-14.88-.07-1,1.67-2.25,2.73-3.22.11-.1,1.73.83,1.77,1.36q.8,9.62,1.27,19.26c.22,4.51-.07,9.06.44,13.53a12.44,12.44,0,0,0,2.88,7c1.3,1.34,4.15,1.11,6.27,1.72,2.73.79,3.85,2.42,2.9,5.4A83.57,83.57,0,0,0,40,329.49c-1.16,7.68-2.39,15.44-2.39,23.16,0,7.47,1.36,15,2.44,22.4C41.57,385.42,43.37,395.74,45.05,406.09Z"/><path d="M45.05,406.09c-1.68-10.35-3.48-20.67-5-31-1.08-7.44-2.43-14.93-2.44-22.4,0-7.72,1.23-15.48,2.39-23.16a83.57,83.57,0,0,1,3.45-12.71c.95-3-.17-4.61-2.9-5.4-2.12-.61-5-.38-6.27-1.72a12.44,12.44,0,0,1-2.88-7c-.51-4.47-.22-9-.44-13.53q-.46-9.65-1.27-19.26c0-.53-1.66-1.46-1.77-1.36-1.06,1-2.8,2.18-2.73,3.22.32,5,1.13,9.93,1.8,14.88.54,4-.51,6.64-4.3,9-5.93,3.7-15.19,4.53-21,.4A5.11,5.11,0,0,1,0,291.94c.81-5.76,2.28-11.43,3-17.21.55-4.26.34-8.63.48-13q.35-10.51.72-21c0-.46.25-.92.25-1.38.2-11.51-.28-23.08.77-34.51.72-7.84,3.36-15.55,5.52-23.2,1.42-5.06,3.55-9.92,5.29-14.9,2.85-8.16,6.4-16.18,8.25-24.56,2.06-9.34,7.89-15.56,13.85-22.25,2.82-3.16,3.69-8,5.47-12.15C47.35,99.31,50.51,90.5,55,82.41c2.71-4.92,7.21-9,11.4-12.92,1.46-1.39,4.37-1.24,6.62-1.8A94.32,94.32,0,0,0,83,65c.94-.36,1.12-2.47,1.9-3.6,1.81-2.63,4-5,5.55-7.79A7.74,7.74,0,0,0,91,48.19a55.89,55.89,0,0,1-.72-29.86C92,11.46,95.45,5.56,102.51,2.76c7.89-3.12,15.83-4,24-.61a83.12,83.12,0,0,0,12.39,4.07c4.78,1.12,10.46,7.68,11.61,12.19,2.39,9.38-2.15,17.54-3.31,26.27-.78,5.85,1,12.28,2.69,18.15,1,3.53,0,6.88-3.6,7.63-1.35.28-3,2.21-3.36,3.69-1.63,5.95-2.5,12.13-4.33,18-.95,3.07-8.16,3.61-11.93,1.47a9.26,9.26,0,0,0-2.41-.6c0,.94-.39,2,0,2.8,2.32,5,5.12,9.75,7.12,14.85A200.42,200.42,0,0,1,137.74,130c2.66,9.45,5,19,7.35,28.53,1.11,4.51,1.57,9.19,2.8,13.67,1.15,4.19,3,8.21,4.44,12.32,1.4,3.86,3.49,7.65,4,11.63.72,5.83,5.2,6.51,9.09,8.27a43.1,43.1,0,0,0,5.47,2.25,13.35,13.35,0,0,0,3.53.12c-.06-.8-.09-1.59-.17-2.38-.39-3.46-1-6.92-1.15-10.39-.65-11.75-1.15-23.51-1.72-35.27-.29-6.09-1.05-12.2-.77-18.27a167.06,167.06,0,0,1,2.5-20.52c.43-2.47,2.25-4.68,3.16-7.11.22-.59-.65-1.61-1.06-2.4-1.34-2.61-2.75-5.18-4-7.83a9.93,9.93,0,0,1-.72-3c-.62-4.95-3.68-7.5-8.06-9.48-1.27-.57-1.7-3.77-1.89-5.82C160,78.19,160,72,159.25,65.89c-.39-3.34-2-6.53-2.67-9.85-.91-4.39-2.4-8.95-1.94-13.25a38.64,38.64,0,0,1,4.73-14.2c2.4-4.32,5.54-9,9.61-11.42,5.14-3.05,11.64-5.73,17.39-5.42,10.59.57,21.16,3.59,27.25,13.65,2.26,3.72,3.44,8.31,4.21,12.66a108.66,108.66,0,0,1,1.29,16.34c.07,3.11-.67,6.23-1,9.35a1.78,1.78,0,0,0,.27,1.28c3.19,3.1,6.18,6.49,9.74,9.1A41.24,41.24,0,0,0,237.89,79c5.12,2,11.17,2.47,15.39,5.57,5.41,4,9.21,10.07,14,14.94,9.54,9.63,19.34,19,28.95,28.55,5.88,5.86,11.72,11.78,17.38,17.86,3.13,3.37,7,6.71,8.47,10.8,1.86,5.06,2.07,10.87,2.16,16.38.07,3.83-1,7.74-2,11.53-1.91,7.68-4.11,15.29-6.13,22.94-1,3.74-1.54,7.62-2.81,11.25-2.17,6.21-4.55,12.36-7.25,18.36a27.68,27.68,0,0,1-5.73,8.83c-2.65,2.5-8.93-.3-10.89-3.64a15.83,15.83,0,0,0-5.69-5.93c-1-.54-4.15,1.29-5.2,2.81-2.9,4.18-5.93,8.54-7.51,13.29-1.16,3.48-.37,7.72,0,11.56a64.53,64.53,0,0,0,2.2,10.93c1.83,6.36,4,12.63,6,18.94q2.64,8.32,5.3,16.67a17.89,17.89,0,0,0,1.4,3.94c2.68,4.41.27,5.08-3.51,5.45-1.44.14-5-.88-3.28,3.38.66,1.66-.81,4.05-.76,6.09.3,11.45.28,22.94,1.33,34.32.72,7.87,3,15.59,4.55,23.38.5,2.57.9,5.17,1.2,7.76.57,5.07.74,10.19,1.62,15.19,1.32,7.44,3.15,14.78,4.69,22.17,1,4.65,1.94,9.3,2.67,14,1.45,9.28,2.37,18.65,4.18,27.86,1.54,7.78,4,15.37,6.1,23.05,1.56,5.77,3.71,11.46,4.53,17.34.71,5-.3,10.12-4.49,14-.76.71-.61,2.78-.35,4.12,1.16,6,3,12,3.45,18.09.12,1.53-3.6,4-6,5a137.18,137.18,0,0,1-17.52,5.91c-1.33.35-4.18-1.25-4.73-2.6-1-2.58-.89-5.63-1.32-8.47s-1-5.92-1.54-8.86a1.36,1.36,0,0,0-1.1-.75c-6.6,1.26-6.91-4.43-8.66-8.11-2.28-4.79-4-9.84-5.83-14.83-.45-1.24-.25-2.7-.56-4q-2.35-9.88-4.83-19.75c-1.27-5.05-2.48-10.13-4-15.12-1.88-6.35-4.06-12.62-6-18.95-1-3.3-1.77-6.68-2.71-10-1.58-5.53-3.37-11-4.8-16.59-1.14-4.47-1.79-9.07-2.83-13.58-1.92-8.4-3.95-16.79-6-25.17-1.31-5.41-2.39-10.92-4.16-16.18-1.85-5.46-4.54-10.63-6.6-16-1.35-3.53-2.23-7.25-3.36-10.87a10.56,10.56,0,0,0-.8-1.57,7.14,7.14,0,0,0-1.48,1.08c-3.72,4.66-7.51,9.27-11.06,14.06-5.64,7.59-11.38,15.14-16.57,23s-10.18,16.24-14.71,24.67c-2.4,4.48-3.72,9.56-5.41,14.4q-3.75,10.79-7.32,21.65c-1,3.07-1.82,6.21-2.72,9.32l-5.91,20.36c-1,3.33-2.58,6.68-2.57,10,0,1.83,2.8,3.65,4.33,5.47,1.69,2,3.41,4,5,6.06.07.08-1.07,1.57-1.59,1.54-3-.19-6-.84-9-.9-.92,0-2.63,1.29-2.68,2.07-.64,9.75-3.71,9.25-11.87,10.13-2.74.29-5.3,2-8.05,2.54-3,.59-6.33,1.24-9.32.74-8.59-1.46-16.75-1.4-25.33,1.24-5,1.55-11.29.58-16.66-.69-4.89-1.15-4.39,2.47-5.33,4.49-1.61,3.47-3.55,7.25-3.5,10.87,0,3.17,2.85,6.22,4,9.48,1,2.67,6.08,5.27.72,8.35-.9.51-2.58-.5-3.92-.55a89.32,89.32,0,0,0-9.11-.06q-6.09.36-12.13,1.21c-5.65.81-7.13-3.2-8.87-7.19a162.49,162.49,0,0,0-7-15.06c-2.16-3.8-6.65-6.84-7.38-10.73-.69-3.65,2.16-8,3.52-12,1.08-3.23,2.53-6.36,3.33-9.65,2.58-10.58,4.92-21.22,7.39-31.83,1.28-5.53,2.66-11,4-16.56,2-8.61,4.37-17.17,5.8-25.88.84-5.07.15-10.39.15-15.59Zm82.4-217.78c1.75-.71,4.72-1.08,5-2.19a70.06,70.06,0,0,0,2.47-14.43,84.24,84.24,0,0,0-.78-13.25c-.77-7.66-.62-15.64-2.89-22.86-2.36-7.51-6.64-14.59-11-21.27-3.49-5.36-9.11-9.38-12.37-14.83a171.25,171.25,0,0,1-11.41-24c-2-5-2.73-10.45-4.15-15.67a18.46,18.46,0,0,0-1.73-3.4,11.66,11.66,0,0,0-2,2.44c-1.09,2.43-1.25,6.1-3,7.21-3.46,2.14-7.85,2.72-11.76,4.19s-8.41,2.3-11,5C59,79.07,56.46,84.16,54.07,89c-2.61,5.33-4.46,11-6.67,16.57-1.49,3.71-2.65,7.62-4.64,11-2.22,3.83-5.64,7-7.77,10.83a169,169,0,0,0-9,18.94c-2.84,7.19-4.92,14.68-7.49,22-1.7,4.83-3.75,9.54-5.48,14.35-1.59,4.41-3.48,8.8-4.31,13.37A110.67,110.67,0,0,0,7.48,212c-.56,15.4-1,30.81-1.42,46.21a2,2,0,0,0,1.16,1.43c4.7,1.64,9.34,3.77,14.19,4.51,2.66.4,7.51,6.32,8.72-1.8a28.56,28.56,0,0,1,.61-2.86c1.39-5.46,2.71-10.94,4.21-16.37,1-3.5,2.34-6.9,3.33-10.39s1.8-6.87,2.48-10.34c.8-4.06.9-8.31,2.13-12.21,2.48-7.9,5.47-15.64,8.33-23.42,2.14-5.79,3.62-12,6.8-17.18,4.58-7.44,10.38-14.13,15.81-21,.74-.94,2.35-1.18,3.55-1.75a12,12,0,0,1-1.24,3.08c-4.81,6.16-10.21,11.94-14.43,18.47-3.06,4.73-4.8,10.36-6.75,15.72-1.45,4-2.26,8.21-3.38,12.32-1.25,4.52-3,9,3,11.87,2.8,1.34,5,3.84,7.79,5.32q11.89,6.35,24,12.25a116.6,116.6,0,0,0,13.64,5.77,42.52,42.52,0,0,0,11.77,2.5c3.85.14,7.77-.87,11.59-1.68a4.64,4.64,0,0,0,2.52-2.37c.42-.81.54-2.58.07-2.91-10-7.16-8.49-17.3-6.86-27.24.34-2,3.07-3.58,4.48-5.51s2.57-4.08,3.83-6.13ZM274.36,540.42l1.52-.89a10.73,10.73,0,0,0,3.16-.45c6.47-3.16,13-6.26,19.28-9.72,5.54-3.05,10-7.11,8.75-14.35a123.41,123.41,0,0,0-2.68-12.84c-2.25-7.91-5.18-15.64-7.14-23.61-1.76-7.12-2.62-14.47-3.83-21.73-1-5.9-1.89-11.82-2.85-17.72-.4-2.48-.74-5-1.3-7.41-1.51-6.63-3.44-13.18-4.61-19.87-1-5.52-1.05-11.2-1.62-16.8-.28-2.7-.74-5.39-1.2-8.07-1.58-9.18-3.69-18.29-4.63-27.53-.81-7.9-.32-15.93-.36-23.91,0-4.11.06-8.22,0-12.34a5.22,5.22,0,0,0-.67-1.65c-3.44,1.83-6.77,3.9-10.36,5.38-1.41.58-4.74.14-4.86-.37-2-8.67-3.67-17.42-5.42-26.14a5.22,5.22,0,0,0-.56-1.17,5.21,5.21,0,0,0-.47,1.28c-.5,5.8-.61,11.67-1.58,17.39-.7,4.09-1.5,9.1-4.2,11.63-2.51,2.36-7.55,2.26-11.53,2.76-8.16,1-16.35,2.14-24.56,2.44a128.59,128.59,0,0,1-20.27-1.13c-3.31-.4-6.38-2.45-9.68-3.29-2.14-.54-5.52-1.23-6.59-.14-5.39,5.48-6.7,7.58-14,2.34-6.36-4.55-7.1-7.39-2.09-12.76.76-.81,1-2.15,1.41-3.25-1-.09-2.13-.54-2.84-.16s-.57,1.72-1.07,2.47c-3.3,5-6.95,9.82-10,15a207,207,0,0,0-10.8,20.53c-3.5,7.92-6.39,16.12-9.16,24.32-3.06,9.13-6.31,18.27-8.34,27.65-2.1,9.72-2.64,19.78-4.28,29.62-.74,4.45-2.37,8.76-3.78,13.07q-3.51,10.8-7.28,21.51c-1.51,4.3-3.29,8.49-4.9,12.75-.42,1.12-1.32,2.73-.89,3.38a71.3,71.3,0,0,0,7.19,9.47c3.11,3.34,6.29,6.84,10.08,9.24,3.52,2.22,8,2.81,11.86,4.63,3.29,1.56,10.65.68,12.42-2.36.75-1.28.39-3.15.8-4.68,1.94-7.21,4-14.4,6-21.61,1.39-5.11,2.6-10.26,4-15.35,1.94-6.79,4-13.53,6.05-20.31,1.35-4.56,2.42-9.23,4-13.7,1.69-4.69,3.84-9.22,5.86-13.8,2.22-5,4.16-10.22,6.85-15,3.7-6.55,7.83-12.86,12.06-19.07,4.64-6.8,9.53-13.44,14.47-20,4.34-5.77,8.89-11.39,13.42-17a2.81,2.81,0,0,1,2-.87,1.91,1.91,0,0,1,1.44,1.05c1.78,5.47,3.35,11,5.21,16.45,2,5.88,4.47,11.62,6.37,17.53S231.6,393,233.09,399c1.08,4.3,1.75,8.7,2.79,13,1.92,8,4,15.9,6,23.84,1.29,5.11,2.45,10.25,3.93,15.31,1.89,6.44,4.14,12.79,6.06,19.23,1.47,4.93,2.67,9.94,4,14.92,2.12,8,4.32,16,6.29,24.09.78,3.21.6,6.68,1.62,9.78a116.63,116.63,0,0,0,5.83,14.13C270.8,535.85,272.74,538.06,274.36,540.42ZM175.83,232.49l.85.08c0,4.5-.16,9,.1,13.49.07,1.24,1.25,3.36,2.11,3.46a78.39,78.39,0,0,0,10.17.08c1.31,0,2.69-.53,3.89-.23,3.09.78,6.09,2.6,9.15,2.68a64.63,64.63,0,0,0,14.25-1.46c8.61-1.73,17.12-3.94,25.68-5.9,3.64-.83,6.8-1.42,6.28-6.75-.31-3.24,1.89-6.65,2.22-10.05.58-5.92,5.62-7.32,9.44-9.54,5.11-3,6-7.79,5.6-13.3-.57-8,1.28-16.19,2.2-24.29.23-2.06,1.93-5,1.11-6-6.29-7.8-13-15.22-19.62-22.78-.24-.27-.15-.82-.22-1.25.9,0,2.21-.3,2.64.17a53,53,0,0,1,4,5.36c6,8.38,12.26,16.52,21.61,21.48a14,14,0,0,0,5.56,1.55c.45,0,1.06-2.28,1.56-3.53.74-1.84,1.18-3.88,2.28-5.47.73-1.06,2.39-1.48,3.63-2.18a18.45,18.45,0,0,0-1.72,3.17,34,34,0,0,0-.86,4.41c4.95-.4,9.9-.83,14.86-1.17a2.43,2.43,0,0,1,1.8.57c.22.23-.17,1.58-.4,1.61-3.43.5-6.87.85-10.31,1.26-1.88.23-4.9-.09-5.43.89-1.73,3.26-2,7.29-3.86,10.47A100.52,100.52,0,0,1,274,204.52c-2.05,2.39-6.6,2.84-5.53,7.42.33,1.44,1.6,2.66,2.39,4,1.93,3.3,3.37,7,5.83,9.85,4.86,5.61,10.15,10.88,15.54,16,1.61,1.53,5.56,3.37,6,2.87a42.84,42.84,0,0,0,6.69-9.91,123.1,123.1,0,0,0,5.92-14.71c1.25-3.69,1.81-7.61,2.8-11.39,2-7.61,4.26-15.15,6-22.8a116.71,116.71,0,0,0,2.29-15c.36-3.73,1.56-8.45-.14-11.11a115.18,115.18,0,0,0-15.55-19.08c-6.3-6.3-13.79-11.4-20.23-17.59-5.46-5.26-10.06-11.41-15.22-17-4-4.35-8.92-8-12.33-12.78-4.64-6.47-10.06-10.73-18.11-11.68C233,80.74,226.68,77.83,222.72,71c-.6-1-3.9-1.92-4.17-1.55A57.51,57.51,0,0,0,212,79.92a140.09,140.09,0,0,0-5.29,15c-2.17,7-4.16,14-6.17,21-1.07,3.74-1.93,7.55-3,11.28-1.87,6.42-3.88,12.8-5.77,19.22-1.36,4.59-2.58,9.22-3.93,13.81-1.55,5.3-3.68,10.48-4.66,15.87-1.67,9.24-2.71,18.6-3.9,27.92C178,213.51,177,223,175.83,232.49ZM93.68,348.43H95c0-2.22-.08-4.44,0-6.66a15.14,15.14,0,0,1,.77-3c.58,1,1.66,2,1.66,3.08,0,6,0,12-.37,18-.93,13.63-2.52,27.22-3,40.86-.35,9.4,1.12,18.86.94,28.28-.19,9.67-1.48,19.31-2.15,29q-.87,12.33-1.37,24.69c-.06,1.34.8,2.72,1.23,4.08,1.23-1.07,3-1.9,3.59-3.25,3-7.47,6-15,8.56-22.63a243,243,0,0,0,7.48-25.46c2-9.16,2.67-18.59,4.24-27.84a128.76,128.76,0,0,1,3.77-16c2.21-7.3,4.7-14.52,7.37-21.66,2.08-5.57,4.73-10.93,6.89-16.48,1.25-3.2,2.9-6.6,2.78-9.86-.13-3.65-2.48-7.17-3.1-10.88-1.61-9.52-2.79-19.12-4.17-28.68a10.21,10.21,0,0,0-.47-1.61,7.69,7.69,0,0,0-1.72.71c-4.77,3.58-9,9-14.38,10.41-9.22,2.51-19.09,2.82-28.73,3.51-2.34.17-6.5-1.26-7-2.8-1.59-5.36-2-11.08-2.7-16.69s-.94-11.28-1.56-16.91a21.27,21.27,0,0,0-1.5-4.41,6.93,6.93,0,0,0-1.7,1.27,8.58,8.58,0,0,0-1.53,3c-2.15,10-4.22,20.07-6.28,30.11-.29,1.4-.29,4.06-.51,4.07-2.38.1-4.77-.34-7.17-.37-2.85,0-7.67-.72-8.2.45a55.81,55.81,0,0,0-4.07,15c-1.21,8.38-2.79,16.9-2.39,25.27.49,10,3.17,19.81,4.41,29.76,1,7.73,1.36,15.53,1.65,23.32a70.73,70.73,0,0,1-.56,15.06c-1.5,8.37-3.82,16.6-5.79,24.88-1.35,5.63-2.72,11.25-4,16.89-2.44,10.45-4.63,21-7.36,31.36a127,127,0,0,1-5.83,16c-1.25,3-2.6,6,.63,8.23,3.84,2.62,8.22,4.44,12.1,7,6.94,4.58,14.39,6.73,22.68,5.76.59-.07,1.54-.24,1.67-.61,1.37-3.68,2.74-7.38,3.85-11.16,1.5-5.13,2.73-10.34,4.16-15.5,1.53-5.54,3.25-11,4.71-16.58,1.05-4,1.67-8.06,2.75-12C77.08,470.57,79.63,464,81,457.1c1.49-7.77,1.9-15.74,2.9-23.61a55.81,55.81,0,0,1,1.47-6.71c1.94-7.64,4.38-15.2,5.77-22.94a172.22,172.22,0,0,0,2.48-23.67C94,369.6,93.68,359,93.68,348.43Zm11.85-79.68-.53,0c0-3.05-.13-6.11,0-9.16.29-5.82-3.32-8.06-8.09-9.91-6.17-2.39-12.14-5.3-18.13-8.13-4.62-2.17-9.13-4.56-13.69-6.86-5.55-2.81-11-5.81-16.72-8.31-1.69-.75-4.62-3.93-5.92.66-1.86,6.57-3.67,13.16-5.25,19.81-1.75,7.36-4.13,14.74-4.59,22.21-.55,8.77.63,17.64,1.15,26.46.21,3.67.56,7.34,1.05,11a2.83,2.83,0,0,0,1.72,2c7.36,1.42,14.74,2.69,22.12,3.91.36.06,1.16-.66,1.24-1.11.87-5,1.21-10.1,2.53-14.95,2.28-8.39,5.14-16.63,7.84-24.9A3,3,0,0,1,72,269.84a1.75,1.75,0,0,1,1.51.84,107.2,107.2,0,0,1,2.67,11.65c1.11,8.06,1.6,16.21,2.87,24.23s2.57,8.67,10.39,8.22c6-.35,12.17-.32,18.11-1.33a20.75,20.75,0,0,0,9.89-4.56c5.76-5.13,10.87-11,16.19-16.59.56-.58,1.2-1.82,1-2.29a12.7,12.7,0,0,0-2.55-2.58,4.65,4.65,0,0,0-.5,1c-1.19,6.25-4.34,7.66-9.34,3.77-1.79-1.4-3.93-3.78-4-5.73,0-4.63,1.13-9.27,1.65-13.92.09-.81-.62-1.73-1-2.56,0,0-1.17.26-1.19.46-.45,5-1,10-1.13,14.95-.09,2.72.6,5.46.78,8.2.28,4.28.53,8.57.51,12.85,0,.48-1.77,1.23-2.78,1.36a46.81,46.81,0,0,1-8.91.51c-.4,0-.74-3.07-.87-4.74-.48-6.33-1.2-12.66-1.18-19C104.09,279.33,105,274,105.53,268.75ZM216.2,331.16l.09,1.61c3.28-.51,6.56-1,9.85-1.53,6.57-1,13.18-1.77,19.7-3,1.36-.26,3.3-2,3.47-3.29,1-8,2-16.12,2.27-24.21.2-6.61-.67-13.26-1-19.89a7.8,7.8,0,0,1,.54-2.15c.66.53,1.56.93,1.91,1.62a17.61,17.61,0,0,1,1.3,3.91c1.69,6.86,3.53,13.68,4.92,20.59,1.23,6.08,1.86,12.28,3,18.38.14.7,2.37,1.76,3.17,1.45,4.81-1.85,9.44-4.16,14.22-6.1,2.56-1,4.9-1.86,3.53-5.4-1.3-3.36-2.56-6.73-3.67-10.15-2.24-6.9-4.68-13.76-6.45-20.78-2-7.74-3.36-15.62-4.77-23.48-.4-2.19,0-4.12-3.08-1.87-.87.63-2.81-.06-4.21-.38-1.89-.43-4.12-2-5.53-1.48-4.23,1.7-8.05,4.38-12.19,6.35a116.47,116.47,0,0,1-13.92,5.8c-5.06,1.65-10.33,2.63-15.49,4-.18.05-.4.92-.24,1.2a101.32,101.32,0,0,0,5.73,9.52c4.28,5.77,9.1,11.15,13.18,17.05,1.66,2.4,7.9,2.69,4.25,7.95-1.23,1.77-2.21,3.78-3.73,5.24-2.06,2-5.07,5.35-6.73,4.87a21,21,0,0,1-9.37-6.51,166.62,166.62,0,0,1-13.09-17.72c-3.59-5.58-7.14-11.37-9.45-17.54-1.91-5.08-5.34-1.94-8-2.59-.39-.1-2,2.55-2.15,4-.62,7-.86,14.11-1.36,21.16-.37,5-.77,10.09-1.48,15.09-.43,3-1.66,5.91-2.21,8.92-.33,1.77-.66,4.9.07,5.26,3.61,1.78,7.52,3.7,11.43,4C199.21,331.56,207.72,331.16,216.2,331.16ZM184.14,13.29c-2.7,1-5.4,2.12-8.18,3-9,2.73-13.14,10.3-16.84,17.83-1.53,3.12-1.35,7.25-1.33,10.92a40.74,40.74,0,0,0,1.46,10.71c.58,2.08,2.31,5.08,3.9,5.35,3,.5,6.35-.35,9.35-1.29,5-1.55,9.78,1.1,10.61,6.21a2.59,2.59,0,0,0,1.16,1.57c.26.17,1.19-.19,1.37-.54a2.69,2.69,0,0,0,.29-2c-2-4.05,2.24-11.55,6.6-10.88,2.31.36,5.43,2.33,6.17,4.32,1,2.71.22,6.14-.06,9.24-.22,2.48-2.07,5.84-1.06,7.2,3.38,4.51,8,3.79,12.23-.77,5.15-5.61,6.42-12.56,6.41-19.63,0-6.54-1.26-13.06-1.8-19.6-.67-8.11-6.31-13.28-12.22-16.86C197.19,15,190.44,14.8,184.14,13.29ZM98.48,61.43c-.14.08-3,1.35-2.85,1.81,1.24,4.6,3,9.06,4.58,13.56,1.42,4,2.31,8.27,4.4,11.85,3.58,6.13,7.88,11.84,12,17.65a16,16,0,0,0,2.89,2.52c.27-1,.49-1.95.82-2.89,3.16-9.22,1.62-14.76-5.57-20.08A22.91,22.91,0,0,1,113,84.3c1-.09,2.13-.55,2.92-.2,1.49.65,2.71,1.88,4.16,2.66,3.79,2.06,7.45,4.8,11.52,5.81,5.67,1.39,5.45-4.2,6.77-7.53.4-1-.18-2.37-.31-3.58a6.65,6.65,0,0,1-.16-2.24,42.18,42.18,0,0,1,2.36-7c.64-1.3,2.07-2.22,3.16-3.3,1.37-1.35,4-2.83,3.91-4-.69-6.36-2.07-12.65-3.28-19-.11-.6-.68-1.52-1.14-1.58-3.52-.49-7.06-.87-10.6-1.15a45.21,45.21,0,0,0-7.8-.12c-.31,0,0,2.92-.64,4.06a47.47,47.47,0,0,1-4.5,5.59c-1.44-1.65-2.93-3.26-4.28-5-1-1.23-1.45-3.12-2.66-3.75-1-.55-3.66-.19-4,.56a8,8,0,0,0-.39,5.15C110,58.06,110.27,61.73,98.48,61.43Zm73.07,202.75-.4-1.35c-.18.09-.44.14-.52.28a33.55,33.55,0,0,0-2.71,5.08c-1.8,5.16-5.31,8.67-10.66,8.72-2.15,0-5.2-2.54-6.34-4.71-3.16-6-5.5-12.49-8.24-18.75-.8-1.81-1.46-4-2.9-5.08s-3.72-.75-5.64-1a2.77,2.77,0,0,0-.85.12c.06.25.14.5.2.76.6,2.56,1.69,5.12,1.69,7.69,0,4.22-.73,8.44-1.12,12.67-.42,4.55-.86,9.1-1.16,13.67a3.38,3.38,0,0,0,.82,2.57c4.43,3.16,4.74,6.92,1.11,10.55-2.48,2.48-3.27,4.36-2.5,8.13,2.33,11.35,3.69,22.9,5.54,34.35.2,1.22,1.15,2.31,1.75,3.46a2.88,2.88,0,0,0,.61-.54c4.94-7.44,9.93-14.85,14.76-22.37a11.88,11.88,0,0,0,1.42-4.55c.21-1.31-.51-2.91,0-4,1.39-3,4.32-5.6,1.42-9.35-.79-1-1.64-2.94-1.2-3.78,1.91-3.65,3.85-7.46,6.6-10.46C169,279.93,171.19,272.48,171.55,264.18ZM197.43,62.1c-1.07-1.84-1.84-4.11-3.42-5.44-.66-.56-3.8.46-4.41,1.55-.94,1.67-.64,4-.93,6.08-.25,1.84-.09,4-1.06,5.36-.61.85-3,.74-4.5.47-.67-.12-1.13-1.67-1.61-2.61-1.62-3.16-2.84-6.73-7.62-6-3.61.59-7.28.9-10.89,1.53-.49.08-1.12,1.36-1.09,2.06.31,6.6.74,13.19,1.15,19.78.08,1.3,0,3.64.4,3.74,5.4,1.37,8.71,4.49,9.59,10.09.24,1.52,1.13,3.08.93,4.51-.46,3.19,1.24,6.36,3.63,5,4.38-2.41,7.8-6.6,11.6-10.07,1-.88,1.85-1.85,2.77-2.78a16.38,16.38,0,0,1,1,3.47c.17,2.44,0,4.91.13,7.36a30.81,30.81,0,0,0,.72,4,19.05,19.05,0,0,1-3.06-3c-.5-.75-.28-2-.45-3a4.44,4.44,0,0,0-.5-1.09,4.72,4.72,0,0,1-.69.72c-4.1,2.7-6,5.85-3.88,11.07,2.26,5.64,3.6,11.66,5.44,17.48.19.61,1,1,1.57,1.5.14-.17.36-.31.41-.5.51-1.78,1-3.55,1.47-5.33,1-3.72,1.8-7.46,2.82-11.15,1.52-5.55,3.17-11.06,4.75-16.59q2.16-7.5,4.31-15c.76-2.65,2.45-5.67-2.81-5.38-1.71.1-4.28-.17-5.06-1.27-1.7-2.4-3.25-5.39-3.44-8.23C194.56,68.05,196.3,65.4,197.43,62.1ZM158.2,219.52c-.52-1.63-.66-3.87-1.81-5.32a162,162,0,0,0-11.46-13.1c-1.34-1.37-3.65-1.79-5.52-2.65-1,2.82-2.06,5.62-3,8.47-.11.32.59,1.29.79,1.26a6,6,0,0,0,1.69-.88c1.73-1,3.58-2.88,5.13-2.66s2.56,2.66,3.61,4.26c.19.29-.63,1.24-1,1.88a17.61,17.61,0,0,1-1.41-1.59c-.54-.73-1-1.52-1.5-2.29l-2.27,1.49c-1.21.8-2.36,2.1-3.65,2.26s-3.55-.83-3.61-1.48a22.75,22.75,0,0,1,.47-8.32c.92-3.06,6.16-4.73,3-9.12-.68-.94-1.95-1.46-2.94-2.17-.2.29-.59.6-.56.85.29,2.2.72,4.39.93,6.6,0,.36-.77,1.13-1.17,1.11a1.7,1.7,0,0,1-1.21-1.13c-.16-1.61.11-3.27-.19-4.84-.18-.93-1.12-1.72-1.72-2.57a7.28,7.28,0,0,0-.71,2.49c.24,2.59.81,5.15,1,7.75.07.9-.63,1.87-1,2.79-.08.17-.45.22-.68.32-.24-.78-.54-1.56-.71-2.36-.34-1.56-.58-3.14-.94-4.7a4.64,4.64,0,0,0-.65-1.13c-.21.44-.64.91-.58,1.32.33,2.38,1.07,4.74,1.11,7.11a22.32,22.32,0,0,1-1.15,6c-.17.62-1,1.06-1.51,1.59-.33-.55-1-1.11-.94-1.62.28-3.15.85-6.28,1-9.43,0-.79-1-1.65-1.57-2.47-.32.51-.87,1-.94,1.55-.46,3.75-.54,7.56-1.28,11.25-2,9.9,4.8,14.13,11.59,18.33,5.4,3.33,10.8,6.7,16.43,9.57,1.52.77,5.53.19,5.68-.43C156.33,231.77,157.14,225.86,158.2,219.52Zm16.31-56.45-1.1.1q1.64,18.12,3.3,36.25a3.78,3.78,0,0,0,.58,1.15,6.48,6.48,0,0,0,.5-1.23c.42-2.22.79-4.45,1.18-6.69,1.72-10.11,3.21-20.27,5.25-30.31,1.09-5.33,3.43-10.4,4.62-15.71a26.26,26.26,0,0,0,.24-10.07c-.66-3.54-2.65-6.81-3.7-10.31-1.47-4.91-2.6-9.92-3.89-14.88a2.63,2.63,0,0,0-.44-.68c-.13.09-.32.16-.39.29-1.71,3.42-4.29,6.69-4.93,10.29a173.08,173.08,0,0,0-2.5,24C173,151.21,174,157.15,174.51,163.07ZM116.75,514.13v.15a20.59,20.59,0,0,0,4.65-.09c1-.23,1.82-1.25,2.59-2.06a1.5,1.5,0,0,0-.35-1.35,46.44,46.44,0,0,0-6.33-2.63c-6.85-2-12-6.13-14.81-12.63-3.41-7.85-5.6-8.22-11.44-2.44-5.06,5-9.75,10.87-17.77,11.57-1.94.17-5.2,8.66-3.8,9.16,3.7,1.3,7.71,2.74,11.49,2.5,5.51-.33,10.89-2.74,16.4-3.07C103.79,512.86,110.28,513.77,116.75,514.13ZM160.6,217.19c-1,11.13-1.17,21.59-7.68,30.5a2,2,0,0,0,.5,1.9q7.13,3.79,14.39,7.32a14.47,14.47,0,0,0,3.6.73c.84-5,2-9.92,2.42-14.92.28-3.19-.75-6.47-.69-9.69.07-4.26.59-8.52,1-12.76a55.19,55.19,0,0,1,.92-5.59c.57-2.78.77-4.88-3.16-5.43-2.75-.38-5.27-2.2-7.94-3.23-1.54-.59-3.18-.9-4.78-1.34,0,1.16,0,2.33.13,3.47C159.74,211.42,160.24,214.67,160.6,217.19ZM92.84,435.25c-.57-7.12-1.06-13.31-1.58-19.5a4.26,4.26,0,0,0-.42-1.12c-.18.19-.47.35-.52.56-1.33,6.22-2.9,12.41-3.89,18.68-1.2,7.65-1.86,15.39-2.84,23.08A66.13,66.13,0,0,1,82,466.16c-1.77,6.44-3.83,12.8-5.75,19.2-1.19,4-2.42,7.92-3.46,11.92a43.23,43.23,0,0,0-.73,5.48c1.52-.6,3.06-1.17,4.56-1.82a11.1,11.1,0,0,0,3-1.55C83.69,495.83,90,494,89,486.49A48.51,48.51,0,0,1,89,475.72C90.25,461.93,91.62,448.15,92.84,435.25ZM250.69,237.53l-1.14.53c1.7,3.69,2.77,7.87,5.23,10.95,5.6,7,9.59,8.47,15.12,0,2.89-4.45,5.26-9.33,8.65-13.34,1.84-2.18,1.13-2.85-.1-4.43-2.79-3.6-5.31-7.42-8.16-11-.88-1.08-3-2.52-3.7-2.16a127.3,127.3,0,0,0-11,6.69c-.81.52-2.15,1.69-2,2a24.88,24.88,0,0,0,2.68,3.88,25,25,0,0,1,1.95-3,21,21,0,0,1,3.21-2.89c.09-.07,1.51,1.05,1.43,1.44a17.12,17.12,0,0,1-1.43,3.24c-1.05,2.3-2.06,4.62-3.11,6.93-.35.77-.77,1.5-1.17,2.25-.49-.74-1-1.46-1.48-2.23-1.06-1.81-2.09-3.64-3.14-5.46-.59,1.78-1.2,3.56-1.75,5.35A4.42,4.42,0,0,0,250.69,237.53ZM141.63,194.37l-.57.28c.31.71.44,1.61,1,2.09,1.51,1.4,3,3.34,4.82,3.72,2.1.45,2.25,9.71,6.27,1.59.06-.13.57,0,.66-.15.45-.74,1.34-1.69,1.15-2.24-1.42-4.1-3.24-8.07-4.59-12.19-1.91-5.86-3.71-11.77-5.24-17.75-2.19-8.54-4-17.18-6.12-25.76-1.26-5.2-2.33-10.49-4.08-15.53-2.49-7.18-5.53-14.17-8.35-21.24-.59-1.46-1.27-2.89-1.9-4.33a15.68,15.68,0,0,0-1.33,3.51c-.3,2.47-1.19,5.4-.25,7.38,3.67,7.73,9.56,14.76,11.62,22.82,2.52,9.92,2.29,20.59,2.76,31,.24,5.33-.78,10.7-.84,16.05,0,1.69,1.07,3.45,1.85,5.09C139.41,190.62,140.57,192.48,141.63,194.37ZM3.3,290.26c-.17,3.55-.17,3.55,4.41,4.45.27.06.52.29.79.32,3.26.34,6.51.69,9.77.92.11,0,.13-1.28.48-1.73A6.51,6.51,0,0,1,21,292.31c.72-.35,2.26,0,2.42-.33a10.79,10.79,0,0,0,1.06-4.49c-.21-6.2-.63-12.4-1-18.59a2.11,2.11,0,0,0-.87-1.62Q16,264.72,9.35,262.42c-.53-.18-1.8.27-1.92.66a44,44,0,0,0-1.31,6.21C5.19,275.84,4.35,282.4,3.3,290.26ZM280.94,549.61c0,3.46-.38,5.21.12,6.65.4,1.2,2.07,3,2.77,2.84,1.31-.32,2.17-2.28,3.5-2.8s3.32-.06,4.9-.44a65.15,65.15,0,0,0,8.44-2.56c1.78-.68,4.87-2,4.8-2.79a99.11,99.11,0,0,0-2.55-15.38c-.28-1.19-2.73-3-3.41-2.75-5.34,2.26-10.55,4.88-15.69,7.6-1.85,1-5.62.44-4.2,4.62A50.89,50.89,0,0,1,280.94,549.61ZM65.6,548.48c.55-.36,1.21-.57,1.44-1s-.12-1-.34-1.43a16.3,16.3,0,0,0-1.77-3.14c-2.44-3-3.17-7.79-8.78-7.3-8.81.78-16.3-3.31-23.79-7.17a11.78,11.78,0,0,0-2.55-1c-.11,0-.84,1.23-.67,1.6,1.83,3.89,3.59,7.83,5.77,11.52,1.64,2.78,3.37,6.08,6,7.56,3.08,1.76,7.06-3.72,10.75.08.07.08.34,0,.51-.05,3.59-.38,7.17-.86,10.77-1.06C63.74,547.06,64.63,548,65.6,548.48Zm88-288.26,1.81-4c.44,1.26.88,2.53,1.31,3.8.17.49.3,1,.45,1.49a18.3,18.3,0,0,1,1.7-1.35c.9-.56,1.87-1,2.81-1.53-.16.95,0,2.26-.54,2.79-3.27,3.08-4.44,6.45-2,10.53.35.59,1,1.4,1.49,1.41a2.66,2.66,0,0,0,2-1.06c1.77-3,3.46-6.05,5-9.16.49-1,1-3,.67-3.19-4.34-2.36-8.92-4.3-13.22-6.73-4.06-2.31-9.27-3.87-8.67-10.26.07-.71-.27-2-.65-2.09a3.3,3.3,0,0,0-2.71.36c-.48.5-.37,1.83-.17,2.7a63.13,63.13,0,0,0,2.36,8.52c2.42,6.22,5.06,12.36,7.73,18.48.37.85,1.45,1.41,2.23,2.06a4.88,4.88,0,0,0,1,.54,13,13,0,0,0,0-3.12C155.55,267.15,154.62,263.93,153.63,260.22Zm129-75.64c1.65-4.09-4-3.24-6.53-5.11-3.19-2.33-4.78-1.32-5.52,2.25-.42,2.05-1.23,4-1.51,6.09-.7,5.15-1.23,10.33-1.67,15.51,0,.3,1.6,1.23,2.05,1C277,200.74,281,194.65,282.61,184.58Zm-112.24,103c0-2.21,0-3.83,0-5.44,0-.31-.26-.61-.4-.92-.21.15-.5.26-.63.47-2.42,3.8-4.81,7.61-7.22,11.42-1,1.54-2.27,3-2.79,4.63-.27.88.81,2.18,1.28,3.3a13.79,13.79,0,0,0,2.81-2.21C166.16,295.11,172,293.2,170.37,287.54ZM145,237.69c-.8-.38-1.12-.49-1.42-.67-2.68-1.58-5.3-3.28-8.06-4.71a15.46,15.46,0,0,0-3.92-.89c1.07,3.21,1.81,6.62,3.49,9.47.31.53,4.39-1.11,6.71-1.81C142.61,238.82,143.4,238.37,145,237.69ZM168.17,301c-.26-.93-.46-1.62-.66-2.31-.26.18-.61.29-.77.53-2.6,3.82-5.25,7.6-7.63,11.54-.28.46.77,2.25,1.59,2.68s2.8.14,3-.36C165.38,309.12,166.75,305,168.17,301ZM132.8,245c-1-4-1.82-7.73-2.87-11.44a9.38,9.38,0,0,0-1.76-2.51,9.75,9.75,0,0,0-.59,3.07,55,55,0,0,0,1.7,8.77c.47,1.5,1.89,2.71,2.88,4.06Zm15.77,255.13,4.3-1.48-7-5.28c-.57,1.18-1.93,3-1.57,3.43C145.41,498.24,147.17,499.14,148.57,500.15Zm4.5-291.9c1.29,1.33,2.34,2.42,3.44,3.44,0,0,1.18-.86,1.1-1.08-.66-2-1.49-3.87-2.26-5.79Zm-4.42,34.95c.51,1.41.9,2.49,1.3,3.57.94-1.53,1.89-3.05,2.84-4.58-.88-.48-1.8-1.4-2.62-1.31C149.59,240.94,149.16,242.36,148.65,243.2Zm-10.19,3.49a14.25,14.25,0,0,0,1.73-2.76c.14-.44-.44-1.11-.69-1.67-1,.93-2,1.86-3.07,2.78Z"/><path class="cls-1" d="M274.36,540.42c-1.62-2.36-3.56-4.57-4.79-7.13a116.63,116.63,0,0,1-5.83-14.13c-1-3.1-.84-6.57-1.62-9.78-2-8.06-4.17-16.07-6.29-24.09-1.31-5-2.51-10-4-14.92-1.92-6.44-4.17-12.79-6.06-19.23-1.48-5.06-2.64-10.2-3.93-15.31-2-7.94-4.06-15.88-6-23.84-1-4.31-1.71-8.71-2.79-13-1.49-6-3-11.92-4.89-17.76s-4.36-11.65-6.37-17.53c-1.86-5.44-3.43-11-5.21-16.45a1.91,1.91,0,0,0-1.44-1.05,2.81,2.81,0,0,0-2,.87c-4.53,5.64-9.08,11.26-13.42,17-4.94,6.59-9.83,13.23-14.47,20-4.23,6.21-8.36,12.52-12.06,19.07-2.69,4.76-4.63,9.95-6.85,15-2,4.58-4.17,9.11-5.86,13.8-1.62,4.47-2.69,9.14-4,13.7-2,6.78-4.11,13.52-6.05,20.31-1.45,5.09-2.66,10.24-4,15.35-2,7.21-4,14.4-6,21.61-.41,1.53-.05,3.4-.8,4.68-1.77,3-9.13,3.92-12.42,2.36-3.83-1.82-8.34-2.41-11.86-4.63-3.79-2.4-7-5.9-10.08-9.24a71.3,71.3,0,0,1-7.19-9.47c-.43-.65.47-2.26.89-3.38,1.61-4.26,3.39-8.45,4.9-12.75q3.78-10.69,7.28-21.51c1.41-4.31,3-8.62,3.78-13.07,1.64-9.84,2.18-19.9,4.28-29.62,2-9.38,5.28-18.52,8.34-27.65,2.77-8.2,5.66-16.4,9.16-24.32a207,207,0,0,1,10.8-20.53c3-5.18,6.67-10,10-15,.5-.75.46-2.13,1.07-2.47s1.87.07,2.84.16c-.46,1.1-.65,2.44-1.41,3.25-5,5.37-4.27,8.21,2.09,12.76,7.32,5.24,8.63,3.14,14-2.34,1.07-1.09,4.45-.4,6.59.14,3.3.84,6.37,2.89,9.68,3.29a128.59,128.59,0,0,0,20.27,1.13c8.21-.3,16.4-1.41,24.56-2.44,4-.5,9-.4,11.53-2.76,2.7-2.53,3.5-7.54,4.2-11.63,1-5.72,1.08-11.59,1.58-17.39a5.21,5.21,0,0,1,.47-1.28,5.22,5.22,0,0,1,.56,1.17c1.75,8.72,3.4,17.47,5.42,26.14.12.51,3.45.95,4.86.37,3.59-1.48,6.92-3.55,10.36-5.38a5.22,5.22,0,0,1,.67,1.65c0,4.12-.05,8.23,0,12.34,0,8-.45,16,.36,23.91.94,9.24,3.05,18.35,4.63,27.53.46,2.68.92,5.37,1.2,8.07.57,5.6.65,11.28,1.62,16.8,1.17,6.69,3.1,13.24,4.61,19.87.56,2.44.9,4.93,1.3,7.41,1,5.9,1.86,11.82,2.85,17.72,1.21,7.26,2.07,14.61,3.83,21.73,2,8,4.89,15.7,7.14,23.61A123.41,123.41,0,0,1,307.07,515c1.23,7.24-3.21,11.3-8.75,14.35-6.3,3.46-12.81,6.56-19.28,9.72a10.73,10.73,0,0,1-3.16.45Zm8.81-43,2.66-.93a9.34,9.34,0,0,0-1.1-1.08c-4.88-3.41-10.11-6.43-14.56-10.33-3.16-2.78-5.26-6.76-7.87-10.17a7.71,7.71,0,0,0-1.34-1.13c0,1-.5,2.36,0,2.89,4.34,4.93,8.66,9.91,13.38,14.46C277,493.65,280.37,495.44,283.17,497.38ZM186.3,352.49c-1.1-.66-1.64-1.26-2-1.16-1.79.46-3.75.76-5.26,1.74-4.11,2.65-8.09,5.52-12,8.5-1.08.84-1.64,2.36-2.44,3.57a16.54,16.54,0,0,0,3.6-1.28c4.61-2.94,9.11-6,13.69-9C183.1,354.07,184.41,353.5,186.3,352.49Zm-43.2,77.89,3.47-1.79a6.38,6.38,0,0,0-1.46-.85c-5.25-1.37-13.15-10.58-13.6-15.81a2.85,2.85,0,0,0-.8-1.72,1.63,1.63,0,0,0-1.42.21,3.81,3.81,0,0,0,0,2.22c1,2.38,1.82,5.05,3.44,7C136,423.49,139.76,427,143.1,430.38Zm134.25-6c-.49-.63-.76-1.32-1.15-1.4a2,2,0,0,0-1.48.62c-4.5,4.67-9,9.35-13.39,14.11-.41.44-.27,1.39-.39,2.11.69,0,1.62.25,2-.1a96.39,96.39,0,0,0,7.4-6.88C272.81,430.24,275,427.33,277.35,424.41Zm3.37,104c3.91-1.57,7.59-2.91,11.12-4.58.79-.37,1-1.86,1.54-2.84-.86.25-1.74.45-2.58.76q-5.34,1.93-10.65,4c-.29.11-.69.74-.6,1A9.77,9.77,0,0,0,280.72,528.42ZM138.46,384.78a44.94,44.94,0,0,0,3.11,5.34c.7.93,2,1.41,3.06,2.06.05,0,.46-.36.44-.42a25.82,25.82,0,0,0-1.29-2.51c-.75-1.22-1.54-2.42-2.35-3.6-.6-.89-1.25-1.75-1.88-2.62Z"/><path class="cls-1" d="M175.83,232.49c1.12-9.49,2.19-19,3.39-28.46,1.19-9.32,2.23-18.68,3.9-27.92,1-5.39,3.11-10.57,4.66-15.87,1.35-4.59,2.57-9.22,3.93-13.81,1.89-6.42,3.9-12.8,5.77-19.22,1.09-3.73,2-7.54,3-11.28,2-7,4-14,6.17-21a140.09,140.09,0,0,1,5.29-15,57.51,57.51,0,0,1,6.59-10.51c.27-.37,3.57.51,4.17,1.55,4,6.87,10.25,9.78,17.62,10.65,8,1,13.47,5.21,18.11,11.68,3.41,4.76,8.31,8.43,12.33,12.78,5.16,5.59,9.76,11.74,15.22,17,6.44,6.19,13.93,11.29,20.23,17.59a115.18,115.18,0,0,1,15.55,19.08c1.7,2.66.5,7.38.14,11.11a116.71,116.71,0,0,1-2.29,15c-1.77,7.65-4,15.19-6,22.8-1,3.78-1.55,7.7-2.8,11.39a123.1,123.1,0,0,1-5.92,14.71,42.84,42.84,0,0,1-6.69,9.91c-.45.5-4.4-1.34-6-2.87-5.39-5.11-10.68-10.38-15.54-16-2.46-2.84-3.9-6.55-5.83-9.85-.79-1.36-2.06-2.58-2.39-4-1.07-4.58,3.48-5,5.53-7.42a100.52,100.52,0,0,0,10.5-15.18c1.82-3.18,2.13-7.21,3.86-10.47.53-1,3.55-.66,5.43-.89,3.44-.41,6.88-.76,10.31-1.26.23,0,.62-1.38.4-1.61a2.43,2.43,0,0,0-1.8-.57c-5,.34-9.91.77-14.86,1.17a34,34,0,0,1,.86-4.41,18.45,18.45,0,0,1,1.72-3.17c-1.24.7-2.9,1.12-3.63,2.18-1.1,1.59-1.54,3.63-2.28,5.47-.5,1.25-1.11,3.56-1.56,3.53a14,14,0,0,1-5.56-1.55c-9.35-5-15.61-13.1-21.61-21.48a53,53,0,0,0-4-5.36c-.43-.47-1.74-.13-2.64-.17.07.43,0,1,.22,1.25,6.58,7.56,13.33,15,19.62,22.78.82,1-.88,3.92-1.11,6-.92,8.1-2.77,16.28-2.2,24.29.39,5.51-.49,10.32-5.6,13.3-3.82,2.22-8.86,3.62-9.44,9.54-.33,3.4-2.53,6.81-2.22,10.05.52,5.33-2.64,5.92-6.28,6.75-8.56,2-17.07,4.17-25.68,5.9a64.63,64.63,0,0,1-14.25,1.46c-3.06-.08-6.06-1.9-9.15-2.68-1.2-.3-2.58.2-3.89.23a78.39,78.39,0,0,1-10.17-.08c-.86-.1-2-2.22-2.11-3.46-.26-4.49-.1-9-.1-13.49Zm34.66-119.33,1.77,2.19c.23-.22.58-.4.67-.66.88-2.72,1.62-5.49,2.58-8.19,1.53-4.26,3.2-8.46,4.78-12.7.38-1,.62-2.09.92-3.14-.55-.15-1.35-.62-1.61-.41a5.88,5.88,0,0,0-1.63,2.1c-1.17,2.6-2.35,5.2-3.29,7.88C213.21,104.42,211.94,108.67,210.49,113.16ZM196.4,155c.3.78.68,1.8,1.06,2.83.56-.33,1.48-.54,1.62-1,.58-1.87.81-3.84,1.36-5.72,1.13-3.79,2.49-7.51,3.52-11.32.34-1.28,0-2.75-.05-4.13-.69.37-1.83.59-2,1.13C200,142.7,198.3,148.66,196.4,155Zm43.41,49.75c-.08-.39-.16-.79-.23-1.18-.83-.07-1.84-.49-2.44-.16-5,2.8-10,5.69-14.87,8.7-.76.46-1.05,1.68-1.55,2.56.79,0,1.75.2,2.35-.16,3.8-2.24,7.49-4.66,11.27-6.92C236.1,206.54,238,205.7,239.81,204.76Zm-.72-75.9c1.42,4.62,2.79,9.16,4.29,13.67.11.32,1.25.6,1.74.41.33-.12.63-1.14.49-1.63-1.2-4.33-2.45-8.64-3.85-12.91-.22-.68-1.23-1.1-1.88-1.63Zm-.72-20.71c-.59-2.6-1-4.79-1.64-6.94-.11-.4-.94-.76-1.47-.8-.26,0-.89.75-.84,1.1a47.43,47.43,0,0,0,1.16,6.16,12,12,0,0,0,1.68,2.74C237.67,109.59,238.07,108.76,238.37,108.15Z"/><path class="cls-1" d="M127.48,188.28c-1.26,2.05-2.41,4.19-3.83,6.13s-4.14,3.49-4.48,5.51C117.54,209.86,116,220,126,227.16c.47.33.35,2.1-.07,2.91a4.64,4.64,0,0,1-2.52,2.37c-3.82.81-7.74,1.82-11.59,1.68a42.52,42.52,0,0,1-11.77-2.5,116.6,116.6,0,0,1-13.64-5.77q-12.14-5.91-24-12.25c-2.76-1.48-5-4-7.79-5.32-6-2.87-4.27-7.35-3-11.87,1.12-4.11,1.93-8.33,3.38-12.32,1.95-5.36,3.69-11,6.75-15.72,4.22-6.53,9.62-12.31,14.43-18.47a12,12,0,0,0,1.24-3.08c-1.2.57-2.81.81-3.55,1.75-5.43,6.9-11.23,13.59-15.81,21-3.18,5.17-4.66,11.39-6.8,17.18-2.86,7.78-5.85,15.52-8.33,23.42-1.23,3.9-1.33,8.15-2.13,12.21-.68,3.47-1.51,6.93-2.48,10.34s-2.35,6.89-3.33,10.39c-1.5,5.43-2.82,10.91-4.21,16.37a28.56,28.56,0,0,0-.61,2.86c-1.21,8.12-6.06,2.2-8.72,1.8-4.85-.74-9.49-2.87-14.19-4.51a2,2,0,0,1-1.16-1.43c.42-15.4.86-30.81,1.42-46.21a110.67,110.67,0,0,1,1.23-15.9c.83-4.57,2.72-9,4.31-13.37,1.73-4.81,3.78-9.52,5.48-14.35,2.57-7.31,4.65-14.8,7.49-22a169,169,0,0,1,9-18.94c2.13-3.86,5.55-7,7.77-10.83,2-3.42,3.15-7.33,4.64-11,2.21-5.53,4.06-11.24,6.67-16.57,2.39-4.87,5-10,8.66-13.78,2.63-2.7,7.23-3.56,11-5s8.3-2,11.76-4.19c1.8-1.11,2-4.78,3-7.21a11.66,11.66,0,0,1,2-2.44,18.46,18.46,0,0,1,1.73,3.4c1.42,5.22,2.14,10.7,4.15,15.67a171.25,171.25,0,0,0,11.41,24c3.26,5.45,8.88,9.47,12.37,14.83,4.34,6.68,8.62,13.76,11,21.27,2.27,7.22,2.12,15.2,2.89,22.86a84.24,84.24,0,0,1,.78,13.25,70.06,70.06,0,0,1-2.47,14.43c-.3,1.11-3.27,1.48-5,2.18-.42-2.06-.31-4.5-1.43-6.07-1-1.37-3.32-1.77-5.07-2.6.55.63,1.14,1.22,1.63,1.89C124.24,183.76,125.85,186,127.48,188.28ZM87.41,76.84a12.64,12.64,0,0,0,.54,2c2.32,4.9,4.73,9.75,7,14.66,2.64,5.72,5.13,11.51,7.78,17.22.23.49,1.2.64,1.83,1,.12-.64.53-1.41.32-1.91-2-4.73-4.2-9.41-6.28-14.13-2.49-5.66-4.87-11.36-7.44-17a15.72,15.72,0,0,0-2.6-3.16ZM77.73,171l2.4-1.34c-.86-.5-1.7-1.06-2.6-1.5-1.73-.84-3.48-1.67-5.27-2.39s-3.8-1.37-5.7-2.05c.3.88.59,1.77.92,2.65,2.12,5.55,4.23,11.12,6.42,16.64.26.66,1.06,1.11,1.61,1.65.32-.61,1-1.33.9-1.8-1-3.68-2.29-7.3-3.42-11a13,13,0,0,1-.29-2.18,6.61,6.61,0,0,1,1.67.06C75.41,170,76.41,170.46,77.73,171Zm51.43-13.82c-1-9.54-4.07-17-9.49-23.53-.45-.54-1.85-.27-2.81-.38a4.65,4.65,0,0,0,.48,1.11c4.94,6.4,8.46,13.3,8.25,21.7,0,1.35,1,2.72,1.6,4.08Zm-102,53.46h.11c0,2.75-.08,5.51.05,8.26,0,.65.77,1.28,1.18,1.92.45-.58,1.28-1.16,1.28-1.74q.06-8.52-.19-17.06c0-.45-.93-.87-1.43-1.31-.34.43-.94.86-1,1.3C27.16,204.84,27.2,207.71,27.2,210.59Zm14.7-39.16,1,.3c-1,3.27-2.1,6.52-3.07,9.8a38.11,38.11,0,0,0-.74,3.86c.85-.73,2.09-1.3,2.48-2.23,1.26-3.06,2.25-6.23,3.27-9.39a4,4,0,0,0,0-2.13c-.41-1.5-1-2.95-1.54-4.43Zm71.65,40.41.14.47,2.67-.86c-.55-.34-1.11-1-1.66-1a74.53,74.53,0,0,0-8,.55c-.52.06-.91,1.16-1.36,1.79a5.89,5.89,0,0,0,2.13.48C109.49,212.93,111.51,212.35,113.55,211.84Zm-6.14-20.23-2,.89c.22.31.37.74.67.9,2.47,1.32,5,2.6,7.44,3.88.51.26,1,.5,1.55.74,0-.7.24-1.82-.08-2C112.46,194.39,109.79,193,107.41,191.61Zm8.29-9.27-2.28,1.32a10.61,10.61,0,0,0,1.16,1.7c1.82,1.81,3.69,3.58,5.54,5.36.24.23.5.45.75.68.22-.4.73-1,.62-1.16C119.61,187.58,117.65,185,115.7,182.34ZM27,196.14l1.62-.86a4.93,4.93,0,0,0-.66-.88c-1.42-1.21-2.87-2.39-4.3-3.58-.51-.43-1-1.14-1.55-1.19a6.86,6.86,0,0,0-2.29.59Zm-9,.53-1.75,1c.76.23,1.5.49,2.26.67a34,34,0,0,0,4.3.92,15.89,15.89,0,0,0,3.06-.23c-.74-.67-1.38-1.72-2.23-1.93A35.57,35.57,0,0,0,18,196.67Z"/><path class="cls-1" d="M93.68,348.43c0,10.58.3,21.17-.11,31.74a172.22,172.22,0,0,1-2.48,23.67c-1.39,7.74-3.83,15.3-5.77,22.94a55.81,55.81,0,0,0-1.47,6.71c-1,7.87-1.41,15.84-2.9,23.61-1.32,6.86-3.87,13.47-5.71,20.24-1.08,4-1.7,8.05-2.75,12-1.46,5.55-3.18,11-4.71,16.58-1.43,5.16-2.66,10.37-4.16,15.5-1.11,3.78-2.48,7.48-3.85,11.16-.13.37-1.08.54-1.67.61-8.29,1-15.74-1.18-22.68-5.76-3.88-2.56-8.26-4.38-12.1-7-3.23-2.21-1.88-5.22-.63-8.23a127,127,0,0,0,5.83-16c2.73-10.38,4.92-20.91,7.36-31.36,1.32-5.64,2.69-11.26,4-16.89,2-8.28,4.29-16.51,5.79-24.88A70.73,70.73,0,0,0,46.27,408c-.29-7.79-.69-15.59-1.65-23.32-1.24-10-3.92-19.8-4.41-29.76-.4-8.37,1.18-16.89,2.39-25.27a55.81,55.81,0,0,1,4.07-15c.53-1.17,5.35-.49,8.2-.45,2.4,0,4.79.47,7.17.37.22,0,.22-2.67.51-4.07,2.06-10,4.13-20.09,6.28-30.11a8.58,8.58,0,0,1,1.53-3,6.93,6.93,0,0,1,1.7-1.27,21.27,21.27,0,0,1,1.5,4.41c.62,5.63.91,11.29,1.56,16.91s1.11,11.33,2.7,16.69c.46,1.54,4.62,3,7,2.8,9.64-.69,19.51-1,28.73-3.51,5.34-1.45,9.61-6.83,14.38-10.41a7.69,7.69,0,0,1,1.72-.71,10.21,10.21,0,0,1,.47,1.61c1.38,9.56,2.56,19.16,4.17,28.68.62,3.71,3,7.23,3.1,10.88.12,3.26-1.53,6.66-2.78,9.86-2.16,5.55-4.81,10.91-6.89,16.48-2.67,7.14-5.16,14.36-7.37,21.66a128.76,128.76,0,0,0-3.77,16c-1.57,9.25-2.26,18.68-4.24,27.84a243,243,0,0,1-7.48,25.46c-2.55,7.65-5.51,15.16-8.56,22.63-.55,1.35-2.36,2.18-3.59,3.25-.43-1.36-1.29-2.74-1.23-4.08q.5-12.36,1.37-24.69c.67-9.67,2-19.31,2.15-29,.18-9.42-1.29-18.88-.94-28.28.51-13.64,2.1-27.23,3-40.86.41-6,.4-12,.37-18,0-1-1.08-2.06-1.66-3.08a15.14,15.14,0,0,0-.77,3c-.12,2.22,0,4.44,0,6.66ZM70.76,428.19,72,427l4.39-1.13c-1.45-.56-2.89-1.58-4.34-1.58-4.77,0-8.15-2.13-10.74-6-.27-.41-1.29-.3-2-.43,0,.6-.32,1.54-.05,1.75C63.05,422.58,66.91,425.37,70.76,428.19ZM55.45,503a6.35,6.35,0,0,0-1.38.2c-3.71,2.17-7.42,4.33-11.07,6.58a1.72,1.72,0,0,0-.52,1.54,1.54,1.54,0,0,0,1.37.61q6.06-3.51,12-7.23C56,504.54,55.58,503.51,55.45,503Zm57.41-140.49-.46-.12.45-2.13a25.06,25.06,0,0,1,3.32,1.41c1.34.8,2.55,1.82,3.81,2.74-1-1.43-2-2.86-3-4.28a1.18,1.18,0,0,0-.53-.43c-1.9-.73-3.8-1.43-5.71-2.14a22.84,22.84,0,0,0-.5,4.83c.1,1,1.11,1.86,1.71,2.78ZM48.23,515.83c3-1.12,5.42-2,7.81-3,.44-.2.56-1.14.83-1.74a13.23,13.23,0,0,0-2.2.23c-2.05.55-4.08,1.17-6.1,1.81a12.62,12.62,0,0,0-1.74.84Zm56.19-74.15-1.31-2.27c-1,2.08-2.11,4.12-3,6.26-.2.49.42,1.31.67,2Zm-45.23-96c1.6,1.68,3.35,3.57,5.18,5.37.22.21.9,0,1.36-.08a5,5,0,0,0-.45-1.06c-1.31-1.81-2.68-3.58-4-5.4a12.75,12.75,0,0,1-.92-1.85C60.13,343.29,59.87,344,59.19,345.65ZM108,415.87c-.28-1-.56-2-.87-3,0,0-.56.07-.59.17-.55,2.66-1.08,5.32-1.55,8,0,.14.49.46.79.52a.82.82,0,0,0,.62-.46C106.91,419.43,107.4,417.72,108,415.87Z"/><path class="cls-1" d="M105.53,268.75c-.52,5.29-1.44,10.58-1.46,15.87,0,6.33.7,12.66,1.18,19,.13,1.67.47,4.72.87,4.74a46.81,46.81,0,0,0,8.91-.51c1-.13,2.78-.88,2.78-1.36,0-4.28-.23-8.57-.51-12.85-.18-2.74-.87-5.48-.78-8.2.15-5,.68-10,1.13-14.95,0-.2,1.17-.51,1.19-.46.42.83,1.13,1.75,1,2.56-.52,4.65-1.7,9.29-1.65,13.92,0,1.95,2.17,4.33,4,5.73,5,3.89,8.15,2.48,9.34-3.77a4.65,4.65,0,0,1,.5-1,12.7,12.7,0,0,1,2.55,2.58c.25.47-.39,1.71-1,2.29-5.32,5.61-10.43,11.46-16.19,16.59a20.75,20.75,0,0,1-9.89,4.56c-5.94,1-12.06,1-18.11,1.33-7.82.45-9.15-.35-10.39-8.22s-1.76-16.17-2.87-24.23a107.2,107.2,0,0,0-2.67-11.65,1.75,1.75,0,0,0-1.51-.84,3,3,0,0,0-1.71,1.55c-2.7,8.27-5.56,16.51-7.84,24.9-1.32,4.85-1.66,10-2.53,14.95-.08.45-.88,1.17-1.24,1.11-7.38-1.22-14.76-2.49-22.12-3.91a2.83,2.83,0,0,1-1.72-2c-.49-3.63-.84-7.3-1.05-11-.52-8.82-1.7-17.69-1.15-26.46.46-7.47,2.84-14.85,4.59-22.21,1.58-6.65,3.39-13.24,5.25-19.81,1.3-4.59,4.23-1.41,5.92-.66,5.69,2.5,11.17,5.5,16.72,8.31,4.56,2.3,9.07,4.69,13.69,6.86,6,2.83,12,5.74,18.13,8.13,4.77,1.85,8.38,4.09,8.09,9.91-.16,3.05,0,6.11,0,9.16Z"/><path class="cls-1" d="M216.2,331.16c-8.48,0-17,.4-25.43-.18-3.91-.27-7.82-2.19-11.43-4-.73-.36-.4-3.49-.07-5.26.55-3,1.78-5.9,2.21-8.92.71-5,1.11-10.05,1.48-15.09.5-7.05.74-14.12,1.36-21.16.13-1.45,1.76-4.1,2.15-4,2.63.65,6.06-2.49,8,2.59,2.31,6.17,5.86,12,9.45,17.54A166.62,166.62,0,0,0,217,310.43a21,21,0,0,0,9.37,6.51c1.66.48,4.67-2.89,6.73-4.87,1.52-1.46,2.5-3.47,3.73-5.24,3.65-5.26-2.59-5.55-4.25-7.95-4.08-5.9-8.9-11.28-13.18-17.05a101.32,101.32,0,0,1-5.73-9.52c-.16-.28.06-1.15.24-1.2,5.16-1.33,10.43-2.31,15.49-4a116.47,116.47,0,0,0,13.92-5.8c4.14-2,8-4.65,12.19-6.35,1.41-.56,3.64,1.05,5.53,1.48,1.4.32,3.34,1,4.21.38,3.09-2.25,2.68-.32,3.08,1.87,1.41,7.86,2.81,15.74,4.77,23.48,1.77,7,4.21,13.88,6.45,20.78,1.11,3.42,2.37,6.79,3.67,10.15,1.37,3.54-1,4.36-3.53,5.4-4.78,1.94-9.41,4.25-14.22,6.1-.8.31-3-.75-3.17-1.45-1.17-6.1-1.8-12.3-3-18.38-1.39-6.91-3.23-13.73-4.92-20.59a17.61,17.61,0,0,0-1.3-3.91c-.35-.69-1.25-1.09-1.91-1.62a7.8,7.8,0,0,0-.54,2.15c.33,6.63,1.2,13.28,1,19.89-.25,8.09-1.24,16.17-2.27,24.21-.17,1.26-2.11,3-3.47,3.29-6.52,1.24-13.13,2-19.7,3-3.29.49-6.57,1-9.85,1.53Z"/><path class="cls-1" d="M184.14,13.29C190.44,14.8,197.19,15,202.2,18c5.91,3.58,11.55,8.75,12.22,16.86.54,6.54,1.79,13.06,1.8,19.6,0,7.07-1.26,14-6.41,19.63-4.19,4.56-8.85,5.28-12.23.77-1-1.36.84-4.72,1.06-7.2.28-3.1,1.07-6.53.06-9.24-.74-2-3.86-4-6.17-4.32-4.36-.67-8.58,6.83-6.6,10.88a2.69,2.69,0,0,1-.29,2c-.18.35-1.11.71-1.37.54A2.59,2.59,0,0,1,183.11,66c-.83-5.11-5.64-7.76-10.61-6.21-3,.94-6.37,1.79-9.35,1.29-1.59-.27-3.32-3.27-3.9-5.35A40.74,40.74,0,0,1,157.79,45c0-3.67-.2-7.8,1.33-10.92,3.7-7.53,7.82-15.1,16.84-17.83C178.74,15.41,181.44,14.28,184.14,13.29Z"/><path class="cls-1" d="M98.48,61.43c11.79.3,11.51-3.37,9.52-11.72a8,8,0,0,1,.39-5.15c.38-.75,3-1.11,4-.56,1.21.63,1.7,2.52,2.66,3.75,1.35,1.71,2.84,3.32,4.28,5a47.47,47.47,0,0,0,4.5-5.59c.68-1.14.33-4,.64-4.06a45.21,45.21,0,0,1,7.8.12c3.54.28,7.08.66,10.6,1.15.46.06,1,1,1.14,1.58,1.21,6.3,2.59,12.59,3.28,19,.13,1.18-2.54,2.66-3.91,4-1.09,1.08-2.52,2-3.16,3.3a42.18,42.18,0,0,0-2.36,7,6.65,6.65,0,0,0,.16,2.24c.13,1.21.71,2.59.31,3.58-1.32,3.33-1.1,8.92-6.77,7.53-4.07-1-7.73-3.75-11.52-5.81-1.45-.78-2.67-2-4.16-2.66-.79-.35-1.94.11-2.92.2a22.91,22.91,0,0,0,1.72,1.55c7.19,5.32,8.73,10.86,5.57,20.08-.33.94-.55,1.93-.82,2.89a16,16,0,0,1-2.89-2.52c-4.09-5.81-8.39-11.52-12-17.65-2.09-3.58-3-7.88-4.4-11.85-1.6-4.5-3.34-9-4.58-13.56C95.5,62.78,98.34,61.51,98.48,61.43Z"/><path class="cls-1" d="M171.55,264.18c-.36,8.3-2.52,15.75-8.32,22.09-2.75,3-4.69,6.81-6.6,10.46-.44.84.41,2.77,1.2,3.78,2.9,3.75,0,6.33-1.42,9.35-.51,1.1.21,2.7,0,4a11.88,11.88,0,0,1-1.42,4.55c-4.83,7.52-9.82,14.93-14.76,22.37a2.88,2.88,0,0,1-.61.54c-.6-1.15-1.55-2.24-1.75-3.46-1.85-11.45-3.21-23-5.54-34.35-.77-3.77,0-5.65,2.5-8.13,3.63-3.63,3.32-7.39-1.11-10.55a3.38,3.38,0,0,1-.82-2.57c.3-4.57.74-9.12,1.16-13.67.39-4.23,1.12-8.45,1.12-12.67,0-2.57-1.09-5.13-1.69-7.69-.06-.26-.14-.51-.2-.76a2.77,2.77,0,0,1,.85-.12c1.92.26,4.24,0,5.64,1s2.1,3.27,2.9,5.08c2.74,6.26,5.08,12.72,8.24,18.75,1.14,2.17,4.19,4.73,6.34,4.71,5.35-.05,8.86-3.56,10.66-8.72a33.55,33.55,0,0,1,2.71-5.08c.08-.14.34-.19.52-.28Z"/><path class="cls-1" d="M197.43,62.1c-1.13,3.3-2.87,5.95-2.7,8.48.19,2.84,1.74,5.83,3.44,8.23.78,1.1,3.35,1.37,5.06,1.27,5.26-.29,3.57,2.73,2.81,5.38q-2.14,7.52-4.31,15c-1.58,5.53-3.23,11-4.75,16.59-1,3.69-1.87,7.43-2.82,11.15-.45,1.78-1,3.55-1.47,5.33-.05.19-.27.33-.41.5-.54-.49-1.38-.89-1.57-1.5-1.84-5.82-3.18-11.84-5.44-17.48-2.09-5.22-.22-8.37,3.88-11.07a4.72,4.72,0,0,0,.69-.72,4.44,4.44,0,0,1,.5,1.09c.17,1-.05,2.22.45,3a19.05,19.05,0,0,0,3.06,3,30.81,30.81,0,0,1-.72-4c-.13-2.45,0-4.92-.13-7.36a16.38,16.38,0,0,0-1-3.47c-.92.93-1.8,1.9-2.77,2.78-3.8,3.47-7.22,7.66-11.6,10.07-2.39,1.32-4.09-1.85-3.63-5,.2-1.43-.69-3-.93-4.51-.88-5.6-4.19-8.72-9.59-10.09-.42-.1-.32-2.44-.4-3.74-.41-6.59-.84-13.18-1.15-19.78,0-.7.6-2,1.09-2.06,3.61-.63,7.28-.94,10.89-1.53,4.78-.77,6,2.8,7.62,6,.48.94.94,2.49,1.61,2.61,1.49.27,3.89.38,4.5-.47,1-1.35.81-3.52,1.06-5.36.29-2.05,0-4.41.93-6.08.61-1.09,3.75-2.11,4.41-1.55C195.59,58,196.36,60.26,197.43,62.1Z"/><path class="cls-1" d="M158.2,219.52c-1.06,6.34-1.87,12.25-3.27,18-.15.62-4.16,1.2-5.68.43-5.63-2.87-11-6.24-16.43-9.57-6.79-4.2-13.55-8.43-11.59-18.33.74-3.69.82-7.5,1.28-11.25.07-.55.62-1,.94-1.55.56.82,1.62,1.68,1.57,2.47-.16,3.15-.73,6.28-1,9.43,0,.51.61,1.07.94,1.62.52-.53,1.34-1,1.51-1.59a22.32,22.32,0,0,0,1.15-6c0-2.37-.78-4.73-1.11-7.11-.06-.41.37-.88.58-1.32a4.64,4.64,0,0,1,.65,1.13c.36,1.56.6,3.14.94,4.7.17.8.47,1.58.71,2.36.23-.1.6-.15.68-.32.41-.92,1.11-1.89,1-2.79-.17-2.6-.74-5.16-1-7.75a7.28,7.28,0,0,1,.71-2.49c.6.85,1.54,1.64,1.72,2.57.3,1.57,0,3.23.19,4.84a1.7,1.7,0,0,0,1.21,1.13c.4,0,1.21-.75,1.17-1.11-.21-2.21-.64-4.4-.93-6.6,0-.25.36-.56.56-.85,1,.71,2.26,1.23,2.94,2.17,3.17,4.39-2.07,6.06-3,9.12a22.75,22.75,0,0,0-.47,8.32c.06.65,2.43,1.63,3.61,1.48s2.44-1.46,3.65-2.26l2.27-1.49c.5.77,1,1.56,1.5,2.29a17.61,17.61,0,0,0,1.41,1.59c.35-.64,1.17-1.59,1-1.88-1.05-1.6-2.21-4.07-3.61-4.26s-3.4,1.68-5.13,2.66a6,6,0,0,1-1.69.88c-.2,0-.9-.94-.79-1.26.92-2.85,2-5.65,3-8.47,1.87.86,4.18,1.28,5.52,2.65a162,162,0,0,1,11.46,13.1C157.54,215.65,157.68,217.89,158.2,219.52Z"/><path class="cls-1" d="M174.51,163.07c-.47-5.92-1.49-11.86-1.28-17.76a173.08,173.08,0,0,1,2.5-24c.64-3.6,3.22-6.87,4.93-10.29.07-.13.26-.2.39-.29a2.63,2.63,0,0,1,.44.68c1.29,5,2.42,10,3.89,14.88,1.05,3.5,3,6.77,3.7,10.31a26.26,26.26,0,0,1-.24,10.07c-1.19,5.31-3.53,10.38-4.62,15.71-2,10-3.53,20.2-5.25,30.31-.39,2.24-.76,4.47-1.18,6.69a6.48,6.48,0,0,1-.5,1.23,3.78,3.78,0,0,1-.58-1.15q-1.68-18.12-3.3-36.25Z"/><path class="cls-1" d="M116.75,514.13c-6.47-.36-13-1.27-19.38-.89-5.51.33-10.89,2.74-16.4,3.07-3.78.24-7.79-1.2-11.49-2.5-1.4-.5,1.86-9,3.8-9.16,8-.7,12.71-6.57,17.77-11.57,5.84-5.78,8-5.41,11.44,2.44,2.83,6.5,8,10.62,14.81,12.63a46.44,46.44,0,0,1,6.33,2.63,1.5,1.5,0,0,1,.35,1.35c-.77.81-1.61,1.83-2.59,2.06a20.59,20.59,0,0,1-4.65.09Z"/><path class="cls-1" d="M160.6,217.19c-.36-2.52-.86-5.77-1.28-9-.14-1.14-.09-2.31-.13-3.47,1.6.44,3.24.75,4.78,1.34,2.67,1,5.19,2.85,7.94,3.23,3.93.55,3.73,2.65,3.16,5.43a55.19,55.19,0,0,0-.92,5.59c-.42,4.24-.94,8.5-1,12.76-.06,3.22,1,6.5.69,9.69-.45,5-1.58,9.95-2.42,14.92a14.47,14.47,0,0,1-3.6-.73q-7.27-3.51-14.39-7.32a2,2,0,0,1-.5-1.9C159.43,238.78,159.56,228.32,160.6,217.19Z"/><path class="cls-1" d="M92.84,435.25c-1.22,12.9-2.59,26.68-3.8,40.47A48.51,48.51,0,0,0,89,486.49c1.06,7.53-5.27,9.34-9.35,12.9a11.1,11.1,0,0,1-3,1.55c-1.5.65-3,1.22-4.56,1.82a43.23,43.23,0,0,1,.73-5.48c1-4,2.27-7.95,3.46-11.92,1.92-6.4,4-12.76,5.75-19.2A66.13,66.13,0,0,0,83.59,457c1-7.69,1.64-15.43,2.84-23.08,1-6.27,2.56-12.46,3.89-18.68.05-.21.34-.37.52-.56a4.26,4.26,0,0,1,.42,1.12C91.78,421.94,92.27,428.13,92.84,435.25Z"/><path class="cls-1" d="M250.69,237.53a4.42,4.42,0,0,1,0-1.26c.55-1.79,1.16-3.57,1.75-5.35,1,1.82,2.08,3.65,3.14,5.46.46.77,1,1.49,1.48,2.23.4-.75.82-1.48,1.17-2.25,1.05-2.31,2.06-4.63,3.11-6.93a17.12,17.12,0,0,0,1.43-3.24c.08-.39-1.34-1.51-1.43-1.44a21,21,0,0,0-3.21,2.89,25,25,0,0,0-1.95,3,24.88,24.88,0,0,1-2.68-3.88c-.13-.29,1.21-1.46,2-2a127.3,127.3,0,0,1,11-6.69c.71-.36,2.82,1.08,3.7,2.16,2.85,3.54,5.37,7.36,8.16,11,1.23,1.58,1.94,2.25.1,4.43-3.39,4-5.76,8.89-8.65,13.34-5.53,8.52-9.52,7.07-15.12,0-2.46-3.08-3.53-7.26-5.23-10.95Z"/><path class="cls-1" d="M141.63,194.37c-1.06-1.89-2.22-3.75-3.17-5.7-.78-1.64-1.88-3.4-1.85-5.09.06-5.35,1.08-10.72.84-16.05-.47-10.37-.24-21-2.76-31-2.06-8.06-8-15.09-11.62-22.82-.94-2,0-4.91.25-7.38a15.68,15.68,0,0,1,1.33-3.51c.63,1.44,1.31,2.87,1.9,4.33,2.82,7.07,5.86,14.06,8.35,21.24,1.75,5,2.82,10.33,4.08,15.53,2.07,8.58,3.93,17.22,6.12,25.76,1.53,6,3.33,11.89,5.24,17.75,1.35,4.12,3.17,8.09,4.59,12.19.19.55-.7,1.5-1.15,2.24-.09.13-.6,0-.66.15-4,8.12-4.17-1.14-6.27-1.59-1.8-.38-3.31-2.32-4.82-3.72-.53-.48-.66-1.38-1-2.09Z"/><path class="cls-1" d="M3.3,290.26c1-7.86,1.89-14.42,2.82-21a44,44,0,0,1,1.31-6.21c.12-.39,1.39-.84,1.92-.66q6.65,2.28,13.18,4.86a2.11,2.11,0,0,1,.87,1.62c.41,6.19.83,12.39,1,18.59A10.79,10.79,0,0,1,23.38,292c-.16.37-1.7,0-2.42.33a6.51,6.51,0,0,0-2.21,1.91c-.35.45-.37,1.74-.48,1.73-3.26-.23-6.51-.58-9.77-.92-.27,0-.52-.26-.79-.32C3.13,293.81,3.13,293.81,3.3,290.26Z"/><path class="cls-1" d="M280.94,549.61a50.89,50.89,0,0,0-1.32-5c-1.42-4.18,2.35-3.65,4.2-4.62,5.14-2.72,10.35-5.34,15.69-7.6.68-.29,3.13,1.56,3.41,2.75a99.11,99.11,0,0,1,2.55,15.38c.07.82-3,2.11-4.8,2.79a65.15,65.15,0,0,1-8.44,2.56c-1.58.38-3.43-.13-4.9.44s-2.19,2.48-3.5,2.8c-.7.16-2.37-1.64-2.77-2.84C280.56,554.82,280.94,553.07,280.94,549.61Z"/><path class="cls-1" d="M65.6,548.48c-1-.52-1.86-1.42-2.69-1.37-3.6.2-7.18.68-10.77,1.06-.17,0-.44.13-.51.05-3.69-3.8-7.67,1.68-10.75-.08-2.6-1.48-4.33-4.78-6-7.56-2.18-3.69-3.94-7.63-5.77-11.52-.17-.37.56-1.62.67-1.6a11.78,11.78,0,0,1,2.55,1c7.49,3.86,15,7.95,23.79,7.17,5.61-.49,6.34,4.32,8.78,7.3a16.3,16.3,0,0,1,1.77,3.14c.22.44.51,1.1.34,1.43S66.15,548.12,65.6,548.48Z"/><path class="cls-1" d="M153.63,260.22c1,3.71,1.92,6.93,2.67,10.19a13,13,0,0,1,0,3.12,4.88,4.88,0,0,1-1-.54c-.78-.65-1.86-1.21-2.23-2.06-2.67-6.12-5.31-12.26-7.73-18.48a63.13,63.13,0,0,1-2.36-8.52c-.2-.87-.31-2.2.17-2.7a3.3,3.3,0,0,1,2.71-.36c.38.1.72,1.38.65,2.09-.6,6.39,4.61,7.95,8.67,10.26,4.3,2.43,8.88,4.37,13.22,6.73.29.16-.18,2.21-.67,3.19-1.56,3.11-3.25,6.17-5,9.16a2.66,2.66,0,0,1-2,1.06c-.52,0-1.14-.82-1.49-1.41-2.43-4.08-1.26-7.45,2-10.53.55-.53.38-1.84.54-2.79-.94.51-1.91,1-2.81,1.53a18.3,18.3,0,0,0-1.7,1.35c-.15-.49-.28-1-.45-1.49-.43-1.27-.87-2.54-1.31-3.8Z"/><path class="cls-1" d="M282.61,184.58c-1.57,10.07-5.66,16.16-13.18,19.75-.45.22-2.08-.71-2.05-1,.44-5.18,1-10.36,1.67-15.51.28-2.06,1.09-4,1.51-6.09.74-3.57,2.33-4.58,5.52-2.25C278.64,181.34,284.26,180.49,282.61,184.58Z"/><path class="cls-1" d="M170.37,287.54c1.61,5.66-4.21,7.57-7,11.25a13.79,13.79,0,0,1-2.81,2.21c-.47-1.12-1.55-2.42-1.28-3.3.52-1.67,1.82-3.09,2.79-4.63,2.41-3.81,4.8-7.62,7.22-11.42.13-.21.42-.32.63-.47.14.31.4.61.4.92C170.4,283.71,170.37,285.33,170.37,287.54Z"/><path class="cls-1" d="M145,237.69c-1.56.68-2.35,1.13-3.2,1.39-2.32.7-6.4,2.34-6.71,1.81-1.68-2.85-2.42-6.26-3.49-9.47a15.46,15.46,0,0,1,3.92.89c2.76,1.43,5.38,3.13,8.06,4.71C143.84,237.2,144.16,237.31,145,237.69Z"/><path class="cls-1" d="M168.17,301c-1.42,4-2.79,8.09-4.46,12.08-.21.5-2.23.76-3,.36s-1.87-2.22-1.59-2.68c2.38-3.94,5-7.72,7.63-11.54.16-.24.51-.35.77-.53Z"/><path class="cls-1" d="M132.8,245l-.64,1.95c-1-1.35-2.41-2.56-2.88-4.06a55,55,0,0,1-1.7-8.77,9.75,9.75,0,0,1,.59-3.07,9.38,9.38,0,0,1,1.76,2.51C131,237.29,131.83,241.06,132.8,245Z"/><path class="cls-1" d="M148.57,500.15c-1.4-1-3.16-1.91-4.28-3.33-.36-.44,1-2.25,1.57-3.43l7,5.28Z"/><path class="cls-1" d="M153.07,208.25l2.28-3.43c.77,1.92,1.6,3.82,2.26,5.79.08.22-1.07,1.11-1.1,1.08C155.41,210.67,154.36,209.58,153.07,208.25Z"/><path class="cls-1" d="M148.65,243.2c.51-.84.94-2.26,1.52-2.32.82-.09,1.74.83,2.62,1.31-.95,1.53-1.9,3.05-2.84,4.58C149.55,245.69,149.16,244.61,148.65,243.2Z"/><path class="cls-1" d="M138.46,246.69l-2-1.65c1-.92,2-1.85,3.07-2.78.25.56.83,1.23.69,1.67A14.25,14.25,0,0,1,138.46,246.69Z"/><path d="M283.17,497.38c-2.8-1.94-6.2-3.73-8.86-6.29-4.72-4.55-9-9.53-13.38-14.46-.47-.53,0-1.9,0-2.89a7.71,7.71,0,0,1,1.34,1.13c2.61,3.41,4.71,7.39,7.87,10.17,4.45,3.9,9.68,6.92,14.56,10.33a9.34,9.34,0,0,1,1.1,1.08Z"/><path d="M186.3,352.49c-1.89,1-3.2,1.58-4.38,2.35-4.58,3-9.08,6.08-13.69,9a16.54,16.54,0,0,1-3.6,1.28c.8-1.21,1.36-2.73,2.44-3.57,3.88-3,7.86-5.85,12-8.5,1.51-1,3.47-1.28,5.26-1.74C184.66,351.23,185.2,351.83,186.3,352.49Z"/><path d="M143.1,430.38c-3.34-3.42-7.1-6.89-10.37-10.76-1.62-1.93-2.41-4.6-3.44-7a3.81,3.81,0,0,1,0-2.22,1.63,1.63,0,0,1,1.42-.21,2.85,2.85,0,0,1,.8,1.72c.45,5.23,8.35,14.44,13.6,15.81a6.38,6.38,0,0,1,1.46.85Z"/><path d="M277.35,424.41c-2.39,2.92-4.54,5.83-7,8.46a96.39,96.39,0,0,1-7.4,6.88c-.4.35-1.33.08-2,.1.12-.72,0-1.67.39-2.11,4.41-4.76,8.89-9.44,13.39-14.11a2,2,0,0,1,1.48-.62C276.59,423.09,276.86,423.78,277.35,424.41Z"/><path d="M280.72,528.42a9.77,9.77,0,0,1-1.17-1.73c-.09-.22.31-.85.6-1q5.31-2,10.65-4c.84-.31,1.72-.51,2.58-.76-.5,1-.75,2.47-1.54,2.84C288.31,525.51,284.63,526.85,280.72,528.42Z"/><path d="M138.46,384.78l1.09-1.75c.63.87,1.28,1.73,1.88,2.62.81,1.18,1.6,2.38,2.35,3.6a25.82,25.82,0,0,1,1.29,2.51c0,.06-.39.45-.44.42-1-.65-2.36-1.13-3.06-2.06A44.94,44.94,0,0,1,138.46,384.78Z"/><path d="M210.49,113.16c1.45-4.49,2.72-8.74,4.19-12.93.94-2.68,2.12-5.28,3.29-7.88a5.88,5.88,0,0,1,1.63-2.1c.26-.21,1.06.26,1.61.41-.3,1-.54,2.12-.92,3.14-1.58,4.24-3.25,8.44-4.78,12.7-1,2.7-1.7,5.47-2.58,8.19-.09.26-.44.44-.67.66Z"/><path d="M196.4,155c1.9-6.35,3.63-12.31,5.51-18.21.17-.54,1.31-.76,2-1.13,0,1.38.39,2.85.05,4.13-1,3.81-2.39,7.53-3.52,11.32-.55,1.88-.78,3.85-1.36,5.72-.14.46-1.06.67-1.62,1C197.08,156.81,196.7,155.79,196.4,155Z"/><path d="M239.81,204.76c-1.83.94-3.71,1.78-5.47,2.84-3.78,2.26-7.47,4.68-11.27,6.92-.6.36-1.56.12-2.35.16.5-.88.79-2.1,1.55-2.56,4.89-3,9.86-5.9,14.87-8.7.6-.33,1.61.09,2.44.16C239.65,204,239.73,204.37,239.81,204.76Z"/><path d="M239.09,128.86l.79-2.09c.65.53,1.66,1,1.88,1.63,1.4,4.27,2.65,8.58,3.85,12.91.14.49-.16,1.51-.49,1.63-.49.19-1.63-.09-1.74-.41C241.88,138,240.51,133.48,239.09,128.86Z"/><path d="M238.37,108.15c-.3.61-.7,1.44-1.11,2.26a12,12,0,0,1-1.68-2.74,47.43,47.43,0,0,1-1.16-6.16c0-.35.58-1.12.84-1.1.53,0,1.36.4,1.47.8C237.34,103.36,237.78,105.55,238.37,108.15Z"/><path d="M87.41,76.84l1.15-1.34a15.72,15.72,0,0,1,2.6,3.16c2.57,5.62,5,11.32,7.44,17,2.08,4.72,4.24,9.4,6.28,14.13.21.5-.2,1.27-.32,1.91-.63-.31-1.6-.46-1.83-1C100.08,105,97.59,99.23,95,93.51c-2.27-4.91-4.68-9.76-7-14.66A12.64,12.64,0,0,1,87.41,76.84Z"/><path d="M77.73,171c-1.32-.49-2.32-.92-3.36-1.22a6.61,6.61,0,0,0-1.67-.06,13,13,0,0,0,.29,2.18c1.13,3.66,2.37,7.28,3.42,11,.14.47-.58,1.19-.9,1.8-.55-.54-1.35-1-1.61-1.65-2.19-5.52-4.3-11.09-6.42-16.64-.33-.88-.62-1.77-.92-2.65,1.9.68,3.83,1.3,5.7,2.05s3.54,1.55,5.27,2.39c.9.44,1.74,1,2.6,1.5Z"/><path d="M129.16,157.13l-2,3c-.56-1.36-1.63-2.73-1.6-4.08.21-8.4-3.31-15.3-8.25-21.7a4.65,4.65,0,0,1-.48-1.11c1,.11,2.36-.16,2.81.38C125.09,140.09,128.19,147.59,129.16,157.13Z"/><path d="M27.2,210.59c0-2.88,0-5.75,0-8.63,0-.44.62-.87,1-1.3.5.44,1.42.86,1.43,1.31q.24,8.53.19,17.06c0,.58-.83,1.16-1.28,1.74-.41-.64-1.14-1.27-1.18-1.92-.13-2.75-.05-5.51-.05-8.26Z"/><path d="M41.9,171.43l1.43-4.22c.53,1.48,1.13,2.93,1.54,4.43a4,4,0,0,1,0,2.13c-1,3.16-2,6.33-3.27,9.39-.39.93-1.63,1.5-2.48,2.23a38.11,38.11,0,0,1,.74-3.86c1-3.28,2-6.53,3.07-9.8Z"/><path d="M113.55,211.84c-2,.51-4.06,1.09-6.12,1.47a5.89,5.89,0,0,1-2.13-.48c.45-.63.84-1.73,1.36-1.79a74.53,74.53,0,0,1,8-.55c.55,0,1.11.62,1.66,1l-2.67.86Z"/><path d="M107.41,191.61c2.38,1.34,5,2.78,7.61,4.38.32.21.07,1.33.08,2-.52-.24-1-.48-1.55-.74-2.48-1.28-5-2.56-7.44-3.88-.3-.16-.45-.59-.67-.9Z"/><path d="M115.7,182.34c2,2.63,3.91,5.24,5.79,7.9.11.16-.4.76-.62,1.16-.25-.23-.51-.45-.75-.68-1.85-1.78-3.72-3.55-5.54-5.36a10.61,10.61,0,0,1-1.16-1.7Z"/><path d="M127.48,188.28c-1.63-2.26-3.24-4.52-4.9-6.76-.49-.67-1.08-1.26-1.63-1.89,1.75.83,4.09,1.23,5.07,2.6,1.12,1.57,1,4,1.43,6.07Z"/><path d="M27,196.14l-7.18-5.92a6.86,6.86,0,0,1,2.29-.59c.55.05,1,.76,1.55,1.19,1.43,1.19,2.88,2.37,4.3,3.58a4.93,4.93,0,0,1,.66.88Z"/><path d="M18,196.67a35.57,35.57,0,0,1,5.64.44c.85.21,1.49,1.26,2.23,1.93a15.89,15.89,0,0,1-3.06.23,34,34,0,0,1-4.3-.92c-.76-.18-1.5-.44-2.26-.67Z"/><path d="M70.76,428.19c-3.85-2.82-7.71-5.61-11.5-8.5-.27-.21,0-1.15.05-1.75.67.13,1.69,0,2,.43,2.59,3.83,6,5.94,10.74,6,1.45,0,2.89,1,4.34,1.58L72,427Z"/><path d="M55.45,503c.13.56.55,1.59.38,1.7q-5.92,3.74-12,7.23a1.54,1.54,0,0,1-1.37-.61,1.72,1.72,0,0,1,.52-1.54c3.65-2.25,7.36-4.41,11.07-6.58A6.35,6.35,0,0,1,55.45,503Z"/><path d="M112.86,362.46l-.87,2.66c-.6-.92-1.61-1.81-1.71-2.78a22.84,22.84,0,0,1,.5-4.83c1.91.71,3.81,1.41,5.71,2.14a1.18,1.18,0,0,1,.53.43c1,1.42,2,2.85,3,4.28-1.26-.92-2.47-1.94-3.81-2.74a25.06,25.06,0,0,0-3.32-1.41l-.45,2.13Z"/><path d="M48.23,515.83l-1.4-1.89a12.62,12.62,0,0,1,1.74-.84c2-.64,4-1.26,6.1-1.81a13.23,13.23,0,0,1,2.2-.23c-.27.6-.39,1.54-.83,1.74C53.65,513.85,51.18,514.71,48.23,515.83Z"/><path d="M104.42,441.68l-3.61,6c-.25-.67-.87-1.49-.67-2,.86-2.14,2-4.18,3-6.26Z"/><path d="M59.19,345.65c.68-1.7.94-2.36,1.2-3a12.75,12.75,0,0,0,.92,1.85c1.29,1.82,2.66,3.59,4,5.4a5,5,0,0,1,.45,1.06c-.46,0-1.14.29-1.36.08C62.54,349.22,60.79,347.33,59.19,345.65Z"/><path d="M108,415.87c-.56,1.85-1,3.56-1.6,5.25a.82.82,0,0,1-.62.46c-.3-.06-.81-.38-.79-.52.47-2.67,1-5.33,1.55-8,0-.1.59-.18.59-.17C107.4,413.88,107.68,414.88,108,415.87Z"/></g></g></svg>