<svg xmlns="http://www.w3.org/2000/svg" viewBox="0 0 400.17 568.86"><defs><style>.cls-1{fill:#fff;}</style></defs><g id="Layer_2" data-name="Layer 2"><g id="Layer_1-2" data-name="Layer 1"><path class="cls-1" d="M58.11,524.61l.09-.67c2.82,0,5.91.73,8.38-.19,2.64-1,6.33-3.28,6.68-5.46.7-4.38-.61-9.06-1-13.63-.13-1.46-.22-4.17.1-4.24,4.2-.87,4.86-3.92,5-7.37.26-8,1.33-16.11.48-24-1-8.83-4.52-17.38-5.4-26.2-1-9.92-.26-20-.21-30,0-1.84.6-3.68.58-5.52,0-2.57-1-5.3-.44-7.69,2.23-9.56,4.88-19,7.41-28.5a13.51,13.51,0,0,1,1.12-2.45,7.06,7.06,0,0,1,.66-.89,3.74,3.74,0,0,1,.59,1.11c1.66,11.22,3.33,22.44,4.93,33.67,1,6.8,1.86,13.61,2.74,20.43.47,3.68.53,7.46,1.34,11.06,1.86,8.15,4,16.24,6.15,24.32a78.22,78.22,0,0,0,2.69,8.49c1.92,5,4,9.87,6,14.8,1.45,3.53,2.79,7.12,4.33,10.61,2.27,5.2,4.77,10.3,7,15.5,2,4.64,3.79,9.35,5.62,14.05,1.92,4.93,4.35,9.77,5.49,14.88s-2.17,8.76-6.5,11.18c-3.23,1.81-6.59,3.42-9.94,5-3.55,1.7-7.43,2.9-10.67,5.06-2.84,1.88-6.71,6.14-2,8.11,6,2.52,13.27,3,19.9,2.68,7.11-.38,14.06-3.12,21.17-4.24,7.9-1.25,16.19-.82,23.79-3,7.31-2.08,9.18-8.11,5.27-14.92-3.08-5.37-2.72-6.55,2.76-9,1.36-.61,3-3.24,2.67-4.51-1.11-4.58-3.08-8.94-4.55-13.45-1.31-4-2.45-8.06-3.55-12.13a11.55,11.55,0,0,1,0-2.94c.28,0,.62-.06.83.08,8,5.13,17,3.46,25.38,2.44,8.54-1,16.81-1.79,25.31-.18a9.66,9.66,0,0,0,6.23-1.55c6.53-4.14,6-12.35,3.91-18.3-.2-.56.58-2.09,1-2.14,5.12-.57,7.64-3.57,7.57-8.46s-.75-9.5-1.11-14.26c-.46-6.16-.86-12.32-1.3-18.48a23.63,23.63,0,0,1-.29-3.22c.51-7.83.65-15.73,1.79-23.48.93-6.26,3.5-12.28,4.54-18.53.76-4.57.3-9.35.23-14-.13-9,4.41-16,9.58-22.67.54-.71,2.51-1.38,2.71-1.14,2.69,3.25,5.11,6.71,7.74,10,5.58,7,11.1,14,16.93,20.84,4.71,5.49,9.93,10.53,14.75,15.93,5.19,5.79,10.32,11.65,15.19,17.71A148.08,148.08,0,0,1,319,440.59a115.23,115.23,0,0,1,7.4,15.24c2.05,4.81,3.52,9.87,5.44,14.74,2.77,7,5.77,13.89,8.58,20.87,1.57,3.92,3.42,7.42,8.54,6,3.58-1,7-2.48,10.58-3.54,4.91-1.45,5.93,3.4,8.2,5.75,1.4,1.45,2.54,5.45,1.7,6.36a72.14,72.14,0,0,1-11.33,9.38,168.65,168.65,0,0,1-15.32,9.82c-4.72,2.62-6.38,8-2.4,11.56,2.48,2.25,6,3.44,9.25,4.71,2.58,1,5.4,2.1,8.08,2,4.11-.15,8.2-1.23,12.28-2a26,26,0,0,0,6.06-1.54c5.89-2.72,11.78-5.46,17.43-8.63,4.28-2.39,8.16-5.59,6.12-11.43-1.4-4-3.35-7.88-4.93-11.86-2.93-7.41-6-14.78-8.48-22.34-.7-2.15.29-5,1.06-7.41s3.36-4.64,3.15-6.74c-.45-4.33-2.33-8.5-3.45-12.77-1.07-4.11-1.66-8.35-2.93-12.38-1.7-5.41-3.78-10.7-5.83-16a145.36,145.36,0,0,0-5.85-14.05c-2.8-5.48-6.21-10.64-9.27-16-2.41-4.19-4.34-8.7-7.11-12.63-3.57-5.08-8.11-9.48-11.62-14.6a179.91,179.91,0,0,1-13.21-21.5c-3.45-6.95-5.74-14.51-8.21-21.91-1.95-5.85-3.41-11.86-5-17.81-.31-1.14-.93-3-.45-3.42,2.2-1.89,4.83-3.27,7.12-5.06a15.49,15.49,0,0,0,4.09-4.39c.31-.56-1.83-2.13-2.07-3.39-1-5.26-1.56-10.61-2.64-15.85a73.18,73.18,0,0,0-3.2-10.68c-1.71-4.62-3.77-9.11-5.61-13.68-1.16-2.87-2.15-5.81-3.32-8.68-2.19-5.32-4.72-10.51-6.58-15.94-1.1-3.19-.8-6.84-1.8-10.08-1.53-4.95-5-8.78-4.32-15.07.64-5.62-2.29-11.83-4.36-17.52-3-8.17-7.33-15.9-9.75-24.2-2.52-8.65-3.41-17.78-5.11-26.68a59.24,59.24,0,0,0-2.06-7.71c-1.32-3.93-2.86-7.78-4.25-11.68-1.54-4.3-2.91-8.67-4.53-12.93-1.75-4.57-3.65-9.08-5.6-13.56-1.46-3.34-3.06-6.62-4.68-9.89C257,78,255.25,74.42,253.35,71a87.53,87.53,0,0,0-4.8-7.79c-.5-.71-2.51-.92-2.51-1.36a94.53,94.53,0,0,1,.58-10.63c.39-3.53,1.51-7,1.52-10.55,0-2.35-1.28-4.76-2.18-7.07-2-5.25-3.29-11.12-6.52-15.53C234.11,10.78,227,4.92,217.53,3.85c-12.86-1.45-22.2,4.57-29.82,14.48-5.35,6.94-4.68,14.94-3.11,22.16C186,46.9,184.69,51.92,182,57a12.44,12.44,0,0,0,3.56,15.75c2.07,1.56,2.69,5.3,3.52,8.18a44.68,44.68,0,0,1,1.11,7.69,2.33,2.33,0,0,1-.5,1.83c-3.8,3-8,5.65-11.46,9-2.95,2.8-4.48,6.32-9.09,1.35A108.09,108.09,0,0,0,151.53,86c-3.29-2.3-7.66-3.14-11.64-4.28-1.77-.51-4.76.65-5.52-.3-3.21-4-9.7-6-8.4-13,.11-.57-1-1.86-1.64-2-5.87-1.13-4.91-5.33-4.1-9.21,1.41-6.76,4.13-13.44,4.36-20.21.21-6.32-1.87-12.78-3.35-19.09C118.89,8,106,.2,96.75,0A37.3,37.3,0,0,0,84.2,2.36C79.24,4.08,74,5.91,70,9.08c-4.69,3.68-8.57,8.6-12.15,13.46-4.72,6.42-2.38,13.85-2.1,21a77.65,77.65,0,0,1-1,16.83c-.51,2.84.57,9.42,3.47,10,6.76,1.44,4.1,8.71,7.71,12.15,1.17,1.11.81,3.68,1.81,5.12C71.38,93,76.91,94.46,83,94.43c.53,0,1.31.18,1.52.55s0,1.11-.11,1.69c-.31,2.25-1.41,4.77-.73,6.67.74,2.11,1.8,3-.13,5.49-4.13,5.33-7.37,11.37-10.86,17.19a126.71,126.71,0,0,0-7.11,12.71A148.24,148.24,0,0,0,60.43,153C58,160.44,55,167.79,53.36,175.42,52,181.63,52.21,188.19,52,194.61c-.23,7.3-.06,14.62-.21,21.92-.19,10-1.53,20.18-.45,30.07.8,7.37-2.57,12.94-4.4,19.2-1.21,4.15-3.52,8-5.06,12s-2.69,8.36-4.13,12.5c-2.77,8.05-5.74,16-8.38,24.13-.79,2.43-.67,4.95,3,5.48,1,.15,2.84,1.61,2.73,2.12-.87,3.9-2.2,7.68-3.27,11.54-2.26,8.15-4.55,16.3-6.63,24.5s-5.35,16.68-5.59,25.1c-.31,10.59,2.2,21.23,3,31.89s.91,21.33,1.29,32c.21,6.11.22,12.23.59,18.33C25,474,25.8,482.6,26.29,491.2a16.76,16.76,0,0,1-.94,6.55c-.63,1.74-1.85,4.09-3.32,4.56-5.28,1.69-10.89,2.38-16.16,4.08-3.27,1.06-6.9,3-5.6,7.52.5,1.74,2.63,3,3.65,4.62,3.28,5.39,10.3,8,15.49,6.57,5.9-1.62,12.06-3.12,18.12-3.13C44.39,522,51.25,523.65,58.11,524.61Z"/><path d="M58.11,524.61c-6.86-1-13.72-2.65-20.58-2.64-6.06,0-12.22,1.51-18.12,3.13-5.19,1.42-12.21-1.18-15.49-6.57-1-1.67-3.15-2.88-3.65-4.62-1.3-4.54,2.33-6.46,5.6-7.52,5.27-1.7,10.88-2.39,16.16-4.08,1.47-.47,2.69-2.82,3.32-4.56a16.76,16.76,0,0,0,.94-6.55C25.8,482.6,25,474,24.45,465.42c-.37-6.1-.38-12.22-.59-18.33-.38-10.66-.52-21.35-1.29-32s-3.28-21.3-3-31.89c.24-8.42,3.48-16.77,5.59-25.1s4.37-16.35,6.63-24.5c1.07-3.86,2.4-7.64,3.27-11.54.11-.51-1.69-2-2.73-2.12-3.66-.53-3.78-3.05-3-5.48,2.64-8.09,5.61-16.08,8.38-24.13,1.44-4.14,2.58-8.4,4.13-12.5s3.85-7.89,5.06-12c1.83-6.26,5.2-11.83,4.4-19.2-1.08-9.89.26-20,.45-30.07.15-7.3,0-14.62.21-21.92.21-6.42,0-13,1.36-19.19,1.62-7.63,4.59-15,7.07-22.41a148.24,148.24,0,0,1,5.19-14.28A126.71,126.71,0,0,1,72.73,126c3.49-5.82,6.73-11.86,10.86-17.19,1.93-2.49.87-3.38.13-5.49-.68-1.9.42-4.42.73-6.67.07-.58.34-1.28.11-1.69s-1-.56-1.52-.55c-6.13,0-11.66-1.42-15.34-6.74-1-1.44-.64-4-1.81-5.12-3.61-3.44-1-10.71-7.71-12.15-2.9-.62-4-7.2-3.47-10a77.65,77.65,0,0,0,1-16.83c-.28-7.16-2.62-14.59,2.1-21C61.38,17.68,65.26,12.76,70,9.08c4-3.17,9.29-5,14.25-6.72A37.3,37.3,0,0,1,96.75,0c9.23.2,22.14,8,24.49,18,1.48,6.31,3.56,12.77,3.35,19.09-.23,6.77-3,13.45-4.36,20.21-.81,3.88-1.77,8.08,4.1,9.21.68.13,1.75,1.42,1.64,2-1.3,7,5.19,9,8.4,13,.76,1,3.75-.21,5.52.3,4,1.14,8.35,2,11.64,4.28a108.09,108.09,0,0,1,17.57,14.75c4.61,5,6.14,1.45,9.09-1.35,3.51-3.31,7.66-6,11.46-9a2.33,2.33,0,0,0,.5-1.83A44.68,44.68,0,0,0,189,81c-.83-2.88-1.45-6.62-3.52-8.18A12.44,12.44,0,0,1,182,57c2.73-5.1,4-10.12,2.64-16.53-1.57-7.22-2.24-15.22,3.11-22.16,7.62-9.91,17-15.93,29.82-14.48C227,4.92,234.11,10.78,239.44,18c3.23,4.41,4.48,10.28,6.52,15.53.9,2.31,2.18,4.72,2.18,7.07,0,3.52-1.13,7-1.52,10.55A94.53,94.53,0,0,0,246,61.82c0,.44,2,.65,2.51,1.36a87.53,87.53,0,0,1,4.8,7.79c1.9,3.45,3.67,7,5.42,10.52,1.62,3.27,3.22,6.55,4.68,9.89,1.95,4.48,3.85,9,5.6,13.56,1.62,4.26,3,8.63,4.53,12.93,1.39,3.9,2.93,7.75,4.25,11.68a59.24,59.24,0,0,1,2.06,7.71c1.7,8.9,2.59,18,5.11,26.68,2.42,8.3,6.77,16,9.75,24.2,2.07,5.69,5,11.9,4.36,17.52-.7,6.29,2.79,10.12,4.32,15.07,1,3.24.7,6.89,1.8,10.08,1.86,5.43,4.39,10.62,6.58,15.94,1.17,2.87,2.16,5.81,3.32,8.68,1.84,4.57,3.9,9.06,5.61,13.68a73.18,73.18,0,0,1,3.2,10.68c1.08,5.24,1.62,10.59,2.64,15.85.24,1.26,2.38,2.83,2.07,3.39a15.49,15.49,0,0,1-4.09,4.39c-2.29,1.79-4.92,3.17-7.12,5.06-.48.42.14,2.28.45,3.42,1.63,6,3.09,12,5,17.81,2.47,7.4,4.76,15,8.21,21.91a179.91,179.91,0,0,0,13.21,21.5c3.51,5.12,8,9.52,11.62,14.6,2.77,3.93,4.7,8.44,7.11,12.63,3.06,5.35,6.47,10.51,9.27,16a145.36,145.36,0,0,1,5.85,14.05c2.05,5.29,4.13,10.58,5.83,16,1.27,4,1.86,8.27,2.93,12.38,1.12,4.27,3,8.44,3.45,12.77.21,2.1-2.38,4.37-3.15,6.74s-1.76,5.26-1.06,7.41c2.45,7.56,5.55,14.93,8.48,22.34,1.58,4,3.53,7.83,4.93,11.86,2,5.84-1.84,9-6.12,11.43-5.65,3.17-11.54,5.91-17.43,8.63a26,26,0,0,1-6.06,1.54c-4.08.78-8.17,1.86-12.28,2-2.68.09-5.5-1-8.08-2-3.22-1.27-6.77-2.46-9.25-4.71-4-3.59-2.32-8.94,2.4-11.56a168.65,168.65,0,0,0,15.32-9.82A72.14,72.14,0,0,0,369.44,506c.84-.91-.3-4.91-1.7-6.36-2.27-2.35-3.29-7.2-8.2-5.75-3.57,1.06-7,2.55-10.58,3.54-5.12,1.42-7-2.08-8.54-6-2.81-7-5.81-13.88-8.58-20.87-1.92-4.87-3.39-9.93-5.44-14.74a115.23,115.23,0,0,0-7.4-15.24,148.08,148.08,0,0,0-11.2-15.45c-4.87-6.06-10-11.92-15.19-17.71-4.82-5.4-10-10.44-14.75-15.93-5.83-6.79-11.35-13.84-16.93-20.84-2.63-3.3-5.05-6.76-7.74-10-.2-.24-2.17.43-2.71,1.14-5.17,6.7-9.71,13.69-9.58,22.67.07,4.68.53,9.46-.23,14-1,6.25-3.61,12.27-4.54,18.53-1.14,7.75-1.28,15.65-1.79,23.48a23.63,23.63,0,0,0,.29,3.22c.44,6.16.84,12.32,1.3,18.48.36,4.76,1,9.5,1.11,14.26s-2.45,7.89-7.57,8.46c-.43.05-1.21,1.58-1,2.14,2.12,5.95,2.62,14.16-3.91,18.3a9.66,9.66,0,0,1-6.23,1.55c-8.5-1.61-16.77-.86-25.31.18-8.38,1-17.36,2.69-25.38-2.44-.21-.14-.55-.06-.83-.08a11.55,11.55,0,0,0,0,2.94c1.1,4.07,2.24,8.13,3.55,12.13,1.47,4.51,3.44,8.87,4.55,13.45.31,1.27-1.31,3.9-2.67,4.51-5.48,2.45-5.84,3.63-2.76,9,3.91,6.81,2,12.84-5.27,14.92-7.6,2.17-15.89,1.74-23.79,3-7.11,1.12-14.06,3.86-21.17,4.24-6.63.36-13.9-.16-19.9-2.68-4.69-2-.82-6.23,2-8.11,3.24-2.16,7.12-3.36,10.67-5.06,3.35-1.6,6.71-3.21,9.94-5,4.33-2.42,7.65-6,6.5-11.18s-3.57-10-5.49-14.88c-1.83-4.7-3.63-9.41-5.62-14.05-2.24-5.2-4.74-10.3-7-15.5-1.54-3.49-2.88-7.08-4.33-10.61-2-4.93-4.13-9.83-6-14.8a78.22,78.22,0,0,1-2.69-8.49c-2.13-8.08-4.29-16.17-6.15-24.32-.81-3.6-.87-7.38-1.34-11.06-.88-6.82-1.77-13.63-2.74-20.43-1.6-11.23-3.27-22.45-4.93-33.67a3.74,3.74,0,0,0-.59-1.11,7.06,7.06,0,0,0-.66.89,13.51,13.51,0,0,0-1.12,2.45c-2.53,9.48-5.18,18.94-7.41,28.5-.56,2.39.42,5.12.44,7.69,0,1.84-.56,3.68-.58,5.52,0,10-.77,20.1.21,30,.88,8.82,4.44,17.37,5.4,26.2.85,7.89-.22,16-.48,24-.11,3.45-.77,6.5-5,7.37-.32.07-.23,2.78-.1,4.24.38,4.57,1.69,9.25,1,13.63-.35,2.18-4,4.47-6.68,5.46-2.47.92-5.56.19-8.38.19Zm44.26-429a8.54,8.54,0,0,1,2.67,0,19.68,19.68,0,0,1,3.21,1.68c-.78.33-1.56.66-2.33,1a5.45,5.45,0,0,0-.58.33l1.37.51,3.08,1.14c-.32.58-.53,1.56-1,1.66-5.57,1.3-11.18,2.47-16.78,3.68-.76.16-1.5.37-2.25.55a7,7,0,0,0,2.32.73c6.41-.41,12.86-1.54,19.22-1.15,3.35.2,6.78,2.64,9.73,4.7,2.22,1.55,3.44,4.49,5.61,6.14,4.33,3.3,3.2-2.55,5.13-3.49a3.34,3.34,0,0,0,1.42-2.36c.35-2.77,5.73-4.11,2-8.1a113,113,0,0,1-9.91-12.13,19.73,19.73,0,0,1-3.66-8.41c-.44-3.63.49-7.42.74-11.15,0-.52-.43-1.07-.66-1.6a6.79,6.79,0,0,0-.58,1.75c-.38,7.21-3.24,10.69-9.86,13S98.16,89.2,91.63,91.88c-.75.3-1.26,1.2-1.88,1.83a7.22,7.22,0,0,0,2.41.41c4.31-.78,8.59-1.74,12.9-2.48.62-.1,1.38.69,2.08,1.07a20.67,20.67,0,0,1-2,1.6c-.85.52-1.79.89-2.7,1.33-5.17.86-10.34,1.68-15.49,2.64-.35.06-.52,1.1-.78,1.69a5.09,5.09,0,0,0,1.52.2,29.78,29.78,0,0,0,4.8-1C95.8,98.1,99.07,96.82,102.37,95.6ZM192.6,460.73l-.83.12c0,3.18-.14,6.36.07,9.53a4,4,0,0,0,1.62,2.9c2.93,1.49,5.94,3.19,9.11,3.78,9,1.67,18,3,27.07,4,1.06.12,3.51-2.44,3.48-3.73-.17-10.06-.72-20.11-1.33-30.15-.2-3.26-1.31-6.49-1.34-9.74a141.72,141.72,0,0,1,.78-16.35c.31-2.94,1.69-5.75,2.39-8.66,1.59-6.63,3.37-13.24,4.46-20,.65-4.07-.6-8.52.35-12.47a48.17,48.17,0,0,1,5.95-14.47c3.2-5,7.81-9.1,2.44-15.29-.34-.4.36-1.71.58-2.6.7.32,1.66.44,2,1,4.69,6.4,9.13,13,14,19.27,6.73,8.73,13.56,17.4,20.67,25.82,6.62,7.85,13.7,15.32,20.5,23,5.12,5.79,10.68,11.31,15,17.65,3.88,5.67,6.5,12.25,9.42,18.54,2.22,4.8,4.07,9.77,6,14.68,1.86,4.7,3.58,9.46,5.48,14.14,1.65,4.06,3.39,8.09,5.28,12.05a2.67,2.67,0,0,0,2.36.93A73.46,73.46,0,0,0,359,491.25a224,224,0,0,0,21-10.44c2.8-1.63,6.39-5,6.41-7.63,0-5.16-2.09-10.35-3.51-15.47-1.93-7-3.93-14-6.13-20.9a106.3,106.3,0,0,0-5.41-14.53,188.39,188.39,0,0,0-9.47-16.4c-4.5-7.21-9.14-14.34-13.86-21.41-2.94-4.41-6.46-8.46-9.16-13-5.26-8.86-10.92-17.61-14.9-27-3.59-8.51-4.92-17.94-7.75-26.8-.79-2.45-1.13-7.11-6.11-5.32-4,1.44-7.88,3.26-11.91,4.59-5.05,1.68-5.77-2.41-7.38-5.67-3.07-6.18-6.51-12.18-9.78-18.26-.45-.82-.81-1.7-1.31-2.48-.13-.19-1-.14-1-.12-1,6.46-1.93,12.92-2.77,19.4-.54,4.18-.78,8.41-1.38,12.58-.25,1.7-.74,4.46-1.76,4.8-7.33,2.47-14.73,5-22.31,6.36a46.05,46.05,0,0,1-17.12,0c-6.52-1.35-12.67-4.49-19-6.87-1.64-.62-4.37-2.22-4.7-1.82-1.7,2.09-2.61,4.8-4.12,7.07C201.56,338,197.34,344,193.2,350c-3,4.4-7.53,8.46-8.63,13.3-1.78,7.8-1.84,16.13-1.61,24.2.24,8.9,1.52,17.78,2.55,26.64.7,6.06,1.71,12.09,2.64,18.12Q190.34,446.51,192.6,460.73Zm-45.5,77.92.21,1.26c6.58-1.19,13.19-2.25,19.73-3.64,2.2-.46,4.33-1.57,3.17-4.77-1.73-4.76-3.47-9.54-4.8-14.42-2.27-8.3-4.3-16.66-6.31-25-2.17-9.05-4.16-18.15-6.33-27.2-1.6-6.67-3.35-13.3-5-19.95-2.09-8.37-4.6-16.67-6.15-25.14-1.78-9.79-3.79-19.73-3.74-29.6,0-10.74,2.32-21.48,3.63-32.22a48.62,48.62,0,0,0,.82-6.52,27.48,27.48,0,0,0-1.11-6.19c0-.19-1.35-.24-2-.08-3.12.76-6.22,1.61-9.33,2.42-4.17,1.09-8.33,2.22-12.53,3.2-.72.17-2.19-.18-2.33-.62a62.75,62.75,0,0,1-2.49-8.89c-1.47-7.82-2.64-15.7-4.15-23.52-.51-2.62-1.72-5.1-2.61-7.65-1.31,1-3.23,1.73-3.84,3-3,6.56-5.6,13.33-8.56,19.93-1.28,2.84-3,7.65-4.72,7.75-5.59.34-11.3-1.06-17-1.87-2-.29-3.92-.8-5.87-1.23-3.43-.76-7-1.21-10.24-2.41-2.33-.86-4.22-2.84-6.42-4.13-2.95-1.74-6-3.32-9-4.94a23.08,23.08,0,0,0-2.17-.91c-.79,2.74-1.57,5.47-2.37,8.2-2.47,8.35-5.26,16.63-7.35,25.08-2.12,8.61-4.25,17.34-5,26.14-.54,5.92,1.33,12.05,2,18.1.93,8.45,2,16.89,2.51,25.37.42,7.72-.1,15.48.15,23.22.31,9.95,1,19.89,1.44,29.84.17,4.09-.22,8.23.25,12.28a5.51,5.51,0,0,0,3.27,3.86,51.11,51.11,0,0,0,11.37,1.38c8.19.1,16.39,0,24.57-.39,1.52-.08,4.22-1.82,4.24-2.84.24-10.87.6-21.79-.23-32.61-.59-7.65-3.48-15.11-4.38-22.77-.81-6.81-.36-13.77-.36-20.66,0-6.21-.34-12.47.35-18.61a140.54,140.54,0,0,1,3.92-19.52,79.84,79.84,0,0,1,4.6-11.84c1.65-3.76,3.62-7.39,5.35-11.12.28-.59-.25-1.74.11-2.07a19.08,19.08,0,0,1,3.21-2,31.55,31.55,0,0,1,1,5.85c0,5.7-1,11.48-.4,17.07,1,8.35,3.07,16.56,4.63,24.84.88,4.67,1.66,9.35,2.44,14,1.74,10.45,3.36,20.92,5.23,31.34a81.84,81.84,0,0,0,3,11.52c1.77,5.32,3.85,10.54,5.86,15.78,1.76,4.57,3.48,9.17,5.41,13.67,2.27,5.27,4.86,10.41,7.11,15.69q3.61,8.52,6.84,17.2c2.07,5.54,3.88,11.17,5.94,16.71.29.8,1.41,1.88,2.09,1.83C138.86,539.65,143,539.11,147.1,538.65Zm74.29-292.8c4.75-.91,9.6-1.46,14.23-2.79,7.9-2.28,15.94-4.45,23.4-7.81,6.08-2.75,11.41-7.16,17.05-10.87,4.71-3.1,9.26-6.47,14.13-9.29,3.44-2,7.18-9.2,5.92-13-1.12-3.38-2.43-6.7-3.79-10s-2.85-6.45-4.3-9.66c-2.27-5-5.26-9.84-6.67-15.09-1.95-7.25-2.33-14.91-4.07-22.24-2-8.47-4.62-16.83-7.29-25.13q-3.54-11.08-7.82-21.93c-2.14-5.45-4.83-10.7-7.25-16-2.23-4.93-4.37-9.9-6.67-14.8-.33-.7-1.61-1.69-2-1.52-2.57,1.15-5.32,2.21-7.46,4-8.15,6.66-16.28,13.36-24,20.48-3.56,3.28-6.19,7.57-9.24,11.41-.34.42-.62.9-.93,1.35a3.8,3.8,0,0,0,1.49-.12c1.73-.92,3.36-2,5.11-2.89.44-.21,1.71.18,1.74.42.13.86.22,2.29-.26,2.6-4.16,2.69-8.53,5.06-12.7,7.75-6.09,3.94-12,8.09-18.09,12.09-3.25,2.16-7,4.25-10.43,1.25-8.64-7.52-16.92-15.48-25.39-23.2a17.93,17.93,0,0,0-3.35-2c-2.16,4.17-4,8.52-6.56,12.45A90.45,90.45,0,0,1,125.87,125c-1.93,2-4.28,2.77-1.64,5.81,4.51,5.19,8.82,10.57,13.36,15.74,3.62,4.12,7.36,8.15,11.22,12,3.66,3.68,7.39,7.33,11.39,10.63,4.54,3.76,9.08,7.75,14.25,10.45,4.35,2.27,9.74,2.49,14.41,4.29s7.95-.12,11.4-2.65q10.44-7.63,21-15.12c3.31-2.33,7.29-3.92,10-6.74,6-6.08,11.32-12.74,17-19.13a17.14,17.14,0,0,1,2.4-1.9c0,1.14.53,2.69,0,3.36-5.19,6.29-10.42,12.55-15.92,18.56a55.71,55.71,0,0,1-10.07,9.18c-6.42,4.24-13.39,7.62-19.91,11.71-2.1,1.32-5.18,3.93-5,5.58,1,7.85,3,15.56,4.62,23.32.53,2.52.8,5.1,1.51,7.55,1.9,6.55,3.73,13.13,6.09,19.52C213.56,241.39,214.21,247.26,221.39,245.85ZM143.07,399.71l-.65.12c.52,4,1,8.06,1.59,12.08a69.72,69.72,0,0,0,1.37,7.17c1.92,7.33,4,14.61,5.9,21.95,1.46,5.7,2.64,11.47,4,17.18,2.07,8.47,4.33,16.9,6.3,25.4,1,4.51,1.63,9.13,2.5,13.68a1.56,1.56,0,0,0,1.35.47c1.88-1.29,3.5-3.05,5.52-4,7.56-3.56,15.34-6.68,22.82-10.41,1.81-.9,2.76-3.53,4.11-5.36-1.83-.66-3.93-1-5.43-2.08s-3.11-2.89-3.32-4.54c-1.41-11.45-2.2-23-3.74-34.42-1.24-9.25-3.5-18.37-4.84-27.61-1.24-8.48-2-17-2.7-25.57-.85-10.3.92-19.9,7.45-28.43,4.83-6.31,9.1-13.06,13.43-19.74,4-6.23,10.28-11.31,8.33-20.45-.83-3.89,1.14-8.44,2.12-12.63,1.18-5,3.4-9.93,3.84-15,.68-7.82.3-15.74.19-23.61,0-2.25-.78-4.49-1.05-6.74-.47-4-.43-8.1-1.32-12s-2.86-7.66-4.06-11.56c-1.55-5-2.87-10.14-4.2-15.24-1.59-6.07-3.27-12.13-4.54-18.27-.78-3.76-.83-7.68-1.32-11.52a1.7,1.7,0,0,0-1.23-1.08c-8.25.4-16.22-.86-23.35-5.09-5.08-3-9.75-6.76-14.52-10.28a56.56,56.56,0,0,1-4.53-4.11c-.12,1.94-.32,3.87-.31,5.81,0,1,.56,2,.54,3-.17,8.29-.8,16.59-.56,24.87s1.75,16.61,1.91,24.93c.17,9.13-.58,18.28-.94,27.43a3,3,0,0,1-.21.68c-1.94,6.09-4.85,12.07-5.55,18.3s1.14,12.54,1.34,18.83c.28,8.48,0,17,.06,25.46,0,4.62.36,9.25.25,13.86-.09,3.73,3.1,8.15-2.15,11-1,.53-2.15,1.78-2.18,2.74-.24,6.07-.17,12.14-.22,18.22a20,20,0,0,1-.21,2.31c-1.15,8.71-2.51,17.4-3.35,26.15C141.3,394.24,142.52,397,143.07,399.71ZM80.66,260.21l.37,1.2c2.12-1,5.31-1.51,6.12-3.16,1.85-3.79,2.51-8.15,3.67-12.26,1-3.44,1.93-6.88,3-10.29,1.48-4.69,4.32-9.35,4.34-14,0-9.59-1.62-19.17-2.15-28.78-.68-12.21-.86-24.45-1.41-36.67-.53-11.77,2.76-22,11.58-30.11a26.57,26.57,0,0,1,4.52-2.75c.05,1,.51,2.31.06,3-.78,1.13-2.2,1.79-3.23,2.77-6.39,6.16-8.76,14.07-8.91,22.56-.13,7.29.57,14.59,1.07,21.87.75,10.87,2.16,21.72,2.31,32.6a127.37,127.37,0,0,1-2.28,23.66c-1,6-3.43,11.8-5.22,17.68-2.88,9.44-5.54,18.94-8.73,28.27-1.39,4-3.93,7.66-5.76,11.56-.45,1-.56,3.1-.11,3.34,3.67,2,7.53,3.57,11.3,5.33,4.2,2,8.28,4.29,12.64,5.77,1,.35,3.87,4.56,5.08-.67.73-3.16,2.49-6.15,4.09-9.05,2.57-4.66,5.57-9.08,8.07-13.77a128.5,128.5,0,0,0,6.4-13.72c2.75-7,5.27-14.19,7.56-21.39,1-3.11,1.13-6.48,1.7-9.72,1.09-6.16,2.23-12.31,3.31-18.47.53-3,.75-6.06,1.53-9,2.34-8.68,5.85-17.17,7.08-26,1.19-8.54,2.12-17.78-6.6-24.27-4-3-7.41-6.93-10.74-10.75-4.25-4.88-7.73-10.51-12.35-15-3.55-3.44-4.09-12.54.06-15.67a2.19,2.19,0,0,0-.09-2.09c-6.1-4.4-12.76-5.19-20-3.14a57.32,57.32,0,0,1-9.26,1.51c-.77.09-2.17-1-2.36-.76a36,36,0,0,0-2.64,4.08c-3.3,5.19-6.8,10.26-9.89,15.57a131.41,131.41,0,0,0-7.62,14.84,147,147,0,0,0-5.45,16.09,171.39,171.39,0,0,0-4.69,18.69A97.8,97.8,0,0,0,56,195.53c0,10.38.57,20.77.49,31.15A184.64,184.64,0,0,1,55.15,251c-.82,5.87,3.27,7.33,6.58,8C67.9,260.15,74.34,259.88,80.66,260.21Zm140.68,25.1c-.81-4.51-1.46-8.11-2.13-11.7a13.87,13.87,0,0,0-.43-1.43,7.92,7.92,0,0,0-.47,1.53c-.48,5-.58,10.05-1.48,15-.82,4.45-2.51,8.72-3.8,13.08-.5,1.73-1.38,3.49-1.33,5.22.13,4.86-.52,10.28,1.43,14.39,1.36,2.89,6.44,4.1,9.93,5.9,2.67,1.38,5.38,3.3,8.22,3.6a98.61,98.61,0,0,0,17.44.21,75.07,75.07,0,0,0,15.39-2.76c2.54-.75,6.07-2.81,6.59-4.92,1.6-6.43,1.92-13.18,2.82-19.79,1-7.22,2-14.44,3.14-21.64.11-.68,1.39-1.23,2.23-1.68.2-.11,1,.36,1.13.72,1.68,3.93,3.11,8,5,11.82,2.43,5,5.39,9.83,7.74,14.92,3.14,6.81,7.54,7.11,13.35,3.47,4.06-2.55,8.48-4.53,12.49-7.14,2.07-1.34,5-3.47,5.1-5.32.14-4.13-1-8.4-2.16-12.45-2.3-7.92-4.72-15.84-7.62-23.57-3.07-8.19-6.75-16.16-10.19-24.22-1.21-2.82-2.62-3-5.13-1-2.68,2.2-5.91,3.75-8.95,5.49-4.15,2.37-8.34,4.67-12.53,7a104,104,0,0,1-10.24,5.49c-5,2.08-10.32,3.61-15.47,5.45-3.57,1.28-4,3.05-.64,5.22,0,0,0,.13.06.17,5.77,8.07,11.58,16.11,17.28,24.24.78,1.12,1.74,3.35,1.27,3.89-3.45,4-7.17,7.71-11,11.31-.91.86-2.53,1-3.85,1.31-.25.06-.84-.55-1-.95-1.27-3.66-2.08-7.54-3.79-11-3.59-7.2-7.64-14.17-11.5-21.24-1.38,1.47-2.59-9.21-4-.06a26.66,26.66,0,0,0,.08,4.46q.1,7.24.19,14.5c0,3.13,1.37,7.5-.17,9.13-3.57,3.74-8.46,6.26-13,9-1,.58-2.66,0-4-.22a3.16,3.16,0,0,1-.13-1.63C218.6,300.93,220,292.79,221.34,285.31Zm-76.19,13.6.66-.07c-.66-5.09-1.94-10.19-1.82-15.27.14-6.54-2.6-8.94-8.61-7.63a46.94,46.94,0,0,0-10.92,3.84c-1.38.7-1.91,3.09-2.83,4.71-2.25,4-4.69,7.92-6.69,12A91.19,91.19,0,0,0,111,306.86c-.55,1.63-1.26,3.51-.94,5.09,1.88,9.34,3.7,18.71,6.34,27.84.6,2.08-1.43,7.41,4.11,6.48a133.13,133.13,0,0,0,18.84-4.13c3-1,8.45-.91,6.84-7a26.57,26.57,0,0,1-1-6.43C145.09,318.75,145.15,308.83,145.15,298.91ZM212,6c-4.13,1.91-8.31,3.72-12.36,5.78-2.29,1.16-5.12,2.27-6.36,4.25a52.5,52.5,0,0,0-5.89,12.91c-.63,2.12.22,6.57,1.43,7,3.83,1.32,8.14,1.54,12.27,1.61,3.94.06,7.89-.67,11.85-.86.9,0,2.62.66,2.63,1.06.11,2.94-.24,5.88-.2,8.82a13.42,13.42,0,0,0,1,3.49c1-.39,2.08-.72,3.06-1.2,2.38-1.17,5-3.73,7-3.32a5.61,5.61,0,0,1,4.23,7.83c-2,4.83.15,7.54,4.12,8.94,2.11.74,6.85.13,6.9-.3.91-7.58,2.22-15.32,1.48-22.83-.57-5.85-3.07-11.88-6.06-17C231.8,13,223.75,7.34,212,6ZM201.93,90c7.11-.87,16.39-5.37,21.19-10.09,4.51-4.43,9.59-8.3,14.37-12.46.41-.36.5-1.09.74-1.65a9.68,9.68,0,0,1-1.33-.1c-2-.39-4.21-.41-6-1.29-5.26-2.63-4-7.57-4-12.12a4,4,0,0,0-1.82-3.19c-.78-.3-2.11,1.1-3.29,1.51-2.51.87-5.82,3-7.48,2.08-4.12-2.2-3.08-6.35-1.6-10.14a3.31,3.31,0,0,0-.46-2.23c-2.27,0-4.54.4-6.81.49-4.46.17-8.93.28-13.39.27a16.79,16.79,0,0,1-3.64-.78c.21.62.72,1.3.6,1.83-1.38,6.06-3.08,12.06-4.17,18.16-.44,2.47.25,5.19.8,7.72.11.55,2,.56,2.74,1.17,1.25,1,3.07,2.21,3.22,3.49.44,3.78.12,7.64.21,11.46,0,.84.3,2.17.83,2.4C195.69,87.86,198.83,88.9,201.93,90ZM118.37,70.71c-1.19-1.75-2.32-4.9-3.59-4.95-2.58-.12-5.19,1.82-7.88,2.19s-6.05.73-7.78-.62S97.27,62.57,97.2,60c-.07-2.72.82-5.46,1.15-8.21a1.73,1.73,0,0,0-.92-1.42,3.38,3.38,0,0,0-2.53.15c-1.41,1.15-2.51,2.68-3.83,4-2.86,2.74-6.46,4.73-9.63,1.61C80,54.71,81,51,80.59,48.36c-.17-1.08-1-2.76-1.73-2.92C73.46,44.33,68,43.51,62.52,42.7c-.61-.09-1.87.42-1.92.77-.78,6.21-1.57,12.43-2,18.67-.12,1.81.33,4.58,1.53,5.37,3.63,2.39,7.59,3.63,7.52,9.54a18.68,18.68,0,0,0,2.67,7.17c2.38,3.13,6.26,5.46,10,7.12a11.11,11.11,0,0,0,7.84-.18c7.12-2.86,14-6.4,21-9.52C113.69,79.6,118.26,77.72,118.37,70.71Zm278,451.46c-1.54-4.35-3.05-8.71-4.62-13-1-2.7-2-5.4-3.07-8.05-2.22-5.4-4.47-10.79-6.84-16.12a2.22,2.22,0,0,0-2-.86c-2.47,1-4.82,2.29-7.23,3.44-1.87.89-3.76,1.73-5.65,2.59,1,2,1.6,4.35,3,6,3,3.43,6.61,6.85,3,11.45-2.51,3.16-6.06,5.61-9.43,8-6.14,4.27-12.58,8.12-18.7,12.42-1.36,1-1.9,3.08-2.82,4.67,5.59,2.57,11,6.26,16.83,7.36,4.73.89,10.06-1.27,15.08-2.26a18.53,18.53,0,0,0,4.34-1.85c3.76-1.83,7.51-3.66,11.22-5.58C392.78,528.57,396.71,527.36,396.41,522.17ZM70,513.24c-.64-3.33-1.19-6.68-2-10a2.72,2.72,0,0,0-2.17-1.34c-7.21.05-14.42.53-21.61.31-5.72-.16-11.58-3.84-16.94,1.27a7.47,7.47,0,0,1-3.3,1.55c-5.56,1.37-11.26,2.28-16.68,4.06-2.54.84-5.24,3.06-1.17,6,1.17.84,1.82,2.39,3,3.23,2.07,1.49,4.46,3.94,6.54,3.77,7.38-.6,14.67-2.93,22-3.08,8-.17,16,1.69,24,2.05C66.47,521.32,71.73,520.76,70,513.24Zm82.55,46.13.24,1.1c1.8,0,3.61.09,5.4,0,5.25-.32,9.82-3.24,8.38-9.31a39.88,39.88,0,0,0-3.4-8.32,4.17,4.17,0,0,0-2.69-2.16c-1.48-.12-3,.83-4.54.93-7.73.51-15.47.87-23.2,1.36-.53,0-1,.66-1.53,1-3.73,3-7.16,6.52-11.27,8.82-4.91,2.73-10.47,4.27-15.61,6.64-1,.48-1.52,2.34-2.07,3.64-.11.26.59,1.24,1,1.26,7.56.37,15.23,1.56,22.67.73C134.88,564.08,143.68,561.35,152.56,559.37Zm73.13-66c-.27-1.72-.77-5.12-1.4-8.49a1.89,1.89,0,0,0-1.26-1.17c-6.17-1.26-12.36-2.49-18.56-3.62-1.2-.22-2.89-.5-3.65.11-3.81,3.09-7,7.21-11.14,9.56-5.23,2.95-11.28,4.41-16.87,6.77a9,9,0,0,0-3.54,3.35c-.22.34,1,2.31,1.93,2.62,3,1,6.13,2.26,9.24,2.34,4.62.11,9.26-.8,13.9-1.09,6.92-.42,14.11-2,20.7-.67C222.89,504.65,226.18,502.28,225.69,493.35ZM61.45,319.9l-1-1.24a3.8,3.8,0,0,0-1.25-.06c-1,.26-1.87.62-2.8.95,1.65.39,3.35,1.27,4.93,1.08,3.55-.41,7-1.37,10.56-2,.42-.07.95.46,1.43.71a11.38,11.38,0,0,1-2,1.21c-1.25.45-2.56.72-3.85,1.07.62.28,1.63.43,1.77.86.23.68.08,2.13-.28,2.26-3.89,1.45-7.85,2.7-11.8,4-.37.12-.72.31-1.08.46.18.19.39.56.52.53,4.28-.94,8.56-1.92,12.84-2.88.75-.17,1.53-.24,2.3-.35-.21.76-.21,2-.67,2.22-3.24,1.37-6.58,2.51-9.87,3.76a15.34,15.34,0,0,0-1.84,1c.67.48,1.44,1.47,2,1.36a60.3,60.3,0,0,0,8.92-2.34c7.36-2.77,11.22-8.77,14.42-15.57,2.39-5.09,5.52-9.84,8.29-14.75a3.6,3.6,0,0,0,.52-1.78c0-.24-.75-.49-1.18-.69-2.16-1-4.59-1.7-6.44-3.13-3.76-2.9-7.09-2-10.26,1.16-4.21,4.17-9.46,7.29-14.25,10.86-1.11.83-2.2,1.66-3.29,2.5,1.2.77,2.41,2.17,3.59,2.14s2.64-1.31,3.89-2.16c.39-.26.64-1.3.76-1.27a23,23,0,0,1,4,1.46,1.92,1.92,0,0,1,0,1.75C67.48,315.35,64.45,317.61,61.45,319.9ZM190.11,103.38h.33a54.24,54.24,0,0,1,0-5.56c.29-2.81,0-4.44-3.1-2.14a12,12,0,0,0-1.78,1.24c-4.38,4.67-11.31,7-12.81,14.35-.15.73-1.13,1.41-1.88,1.85-.32.18-1-.31-1.57-.5a6,6,0,0,0,.73-2.07c-.07-1.58.2-3.81-.7-4.61q-10.8-9.61-22.1-18.67c-.95-.77-3.25-.66-4.49-.06-1.08.52-1.65,2.26-2.25,3.55a2.08,2.08,0,0,0,.14,1.86c3.32,2.75,6.86,5.25,10.08,8.1,5.07,4.5,10.07,9.09,14.87,13.86,8,8,9.72,8.74,16.77,4.73,2.92-1.65,6-4.06,7.47-6.92C191.09,110,190.11,106.43,190.11,103.38Zm-40,105-1.35,0c0-3,0-6,0-9,0-.4-.37-.79-.56-1.19-.14.17-.35.32-.4.52-.54,2-1.17,3.9-1.52,5.9-.56,3.19-.82,6.43-1.39,9.62-1.56,8.64-3,17.31-4.92,25.88-1.18,5.37-3.17,10.56-4.62,15.88-.26,1,0,2.9.52,3.1a10.36,10.36,0,0,0,14.25-9.58Q150.15,228.89,150.13,208.33ZM81.94,337.72c2.28-.26,5.62.13,6.08-.83,2.2-4.69,3.35-9.86,5.41-14.63s4.63-9.21,7.11-13.73c1.27-2.33,2.77-4.57-.93-5.94-1-.37-3-.57-3.27-.07-2,3.05-3.7,6.3-5.42,9.52-2.28,4.27-3.91,9.06-6.9,12.74-3.2,3.94-7.67,6.85-11.57,10.23-.19.16-.4.61-.33.71a1.47,1.47,0,0,0,.83.52C76,336.77,79.06,337.25,81.94,337.72Zm-22-35.21c-.82-6.6-1.36-11-1.93-15.43a2.77,2.77,0,0,0-.46-.86c-.13.1-.32.17-.38.31-2.2,5.16-4.35,10.35-6.6,15.5-1.89,4.33-4.3,8.48-5.75,13-1.06,3.24-5.3,6.76-.42,10.36A10.15,10.15,0,0,0,46.87,327a40.54,40.54,0,0,0,4.66,1.12,26.45,26.45,0,0,1,.15-2.81c.32-2.24.69-4.49,1.12-6.72.3-1.59.82-3.15,1.05-4.75.14-1-.54-2.36-.08-3C56,307.59,58.39,304.56,59.93,302.51Zm133.5-198.78.69.11c0,1.85,0,3.71,0,5.56a3.66,3.66,0,0,0,.5,1.21,5.23,5.23,0,0,0,.89-.79c3.33-4.84,6.67-9.68,9.94-14.55a15.64,15.64,0,0,0,1.13-2.65,11,11,0,0,1-2.26.26c-1.35-.12-2.72-.68-4-.57-1.64.14-4.34.38-4.66,1.27C194.47,96.81,194.1,100.32,193.43,103.73Zm-70.6-23.32c3.74,5.67,5.82,10.27,9.18,13.55,4.91,4.77,3.14-2.66,5.15-3.54a4.27,4.27,0,0,0-.71-2c-2.07-2.22-4.26-4.33-6.42-6.47a8.78,8.78,0,0,0-2.51-2.24C126.73,79.38,125.61,79.93,122.83,80.41Zm-4.3,42.85c.64.7,1.62,2,1.77,1.89,2-1.23,3.92-2.64,5.85-4l-4.22-5.3ZM77.78,279c-.59.54-1.91,1.27-1.83,1.77a29.59,29.59,0,0,0,1.64,4.92l3.07-5.66ZM58.12,326l6.17-2-5.3-.38a3.31,3.31,0,0,0-.89,0c-.85.15-1.68.33-2.52.5ZM140.35,97.13c-.46-.56-1-1.34-1.07-1.32a13.67,13.67,0,0,0-3,2.45c-.15.19,1.1,1.49,1.71,2.27Z"/><path class="cls-1" d="M192.6,460.73q-2.23-14.22-4.45-28.44c-.93-6-1.94-12.06-2.64-18.12-1-8.86-2.31-17.74-2.55-26.64-.23-8.07-.17-16.4,1.61-24.2,1.1-4.84,5.62-8.9,8.63-13.3,4.14-6,8.36-12,12.42-18.14,1.51-2.27,2.42-5,4.12-7.07.33-.4,3.06,1.2,4.7,1.82,6.31,2.38,12.46,5.52,19,6.87a46.05,46.05,0,0,0,17.12,0c7.58-1.35,15-3.89,22.31-6.36,1-.34,1.51-3.1,1.76-4.8.6-4.17.84-8.4,1.38-12.58.84-6.48,1.81-12.94,2.77-19.4,0,0,.87-.07,1,.12.5.78.86,1.66,1.31,2.48,3.27,6.08,6.71,12.08,9.78,18.26,1.61,3.26,2.33,7.35,7.38,5.67,4-1.33,7.9-3.15,11.91-4.59,5-1.79,5.32,2.87,6.11,5.32,2.83,8.86,4.16,18.29,7.75,26.8,4,9.43,9.64,18.18,14.9,27,2.7,4.54,6.22,8.59,9.16,13,4.72,7.07,9.36,14.2,13.86,21.41a188.39,188.39,0,0,1,9.47,16.4,106.3,106.3,0,0,1,5.41,14.53c2.2,6.91,4.2,13.9,6.13,20.9,1.42,5.12,3.53,10.31,3.51,15.47,0,2.61-3.61,6-6.41,7.63a224,224,0,0,1-21,10.44,73.46,73.46,0,0,1-10.87,3.44,2.67,2.67,0,0,1-2.36-.93c-1.89-4-3.63-8-5.28-12.05-1.9-4.68-3.62-9.44-5.48-14.14-1.95-4.91-3.8-9.88-6-14.68-2.92-6.29-5.54-12.87-9.42-18.54-4.34-6.34-9.9-11.86-15-17.65-6.8-7.7-13.88-15.17-20.5-23-7.11-8.42-13.94-17.09-20.67-25.82-4.84-6.28-9.28-12.87-14-19.27-.39-.54-1.35-.66-2-1-.22.89-.92,2.2-.58,2.6,5.37,6.19.76,10.31-2.44,15.29A48.17,48.17,0,0,0,238.43,380c-1,3.95.3,8.4-.35,12.47-1.09,6.72-2.87,13.33-4.46,20-.7,2.91-2.08,5.72-2.39,8.66a141.72,141.72,0,0,0-.78,16.35c0,3.25,1.14,6.48,1.34,9.74.61,10,1.16,20.09,1.33,30.15,0,1.29-2.42,3.85-3.48,3.73-9.06-1-18.11-2.3-27.07-4-3.17-.59-6.18-2.29-9.11-3.78a4,4,0,0,1-1.62-2.9c-.21-3.17-.07-6.35-.07-9.53Zm96.24-96.13-2.53,1.53c.4.56.68,1.3,1.22,1.64,5.85,3.7,11.57,7.63,17.67,10.87,5.05,2.69,10.57,4.52,15.86,6.78,2.7,1.15,5.35,2.43,8.05,3.6,1,.44,2.1.7,3.15,1-.4-1.12-.49-2.85-1.27-3.28-4.28-2.32-8.73-4.32-13.12-6.43-6.69-3.22-13.45-6.3-20-9.73C294.74,369,292,366.73,288.84,364.6Zm-89,29.59-1.1-1.3a5.39,5.39,0,0,0-2.13.05,35.31,35.31,0,0,0-4.7,2.77c-.22.15.09,1.1.16,1.67a18.4,18.4,0,0,1,3.66-.83A19.39,19.39,0,0,0,210,390.23c1-1,1.08-2.87,1.48-4.37,0-.12-.89-.75-1.07-.64a16.21,16.21,0,0,0-2.24,1.74Zm146.38,35.94,3.47-1a10.84,10.84,0,0,0-1.51-1.29c-2.95-1.7-5.92-3.38-8.93-5a11.84,11.84,0,0,0-2.48-.72c.11,1-.15,2.59.38,2.93C340.24,427,343.51,428.66,346.21,430.13Zm14.11,38.79c-2.56-1.55-4.69-2.93-6.94-4.09-.3-.15-1.2.87-1.82,1.35,2.34,1.58,4.66,3.17,7,4.69A21.85,21.85,0,0,0,360.32,468.92ZM213.06,454.07c1.27-1.31,2.7-2.74,4-4.27.12-.14-.53-.94-.83-1.44l-6.47,4.37Z"/><path class="cls-1" d="M147.1,538.65c-4.12.46-8.24,1-12.37,1.26-.68.05-1.8-1-2.09-1.83-2.06-5.54-3.87-11.17-5.94-16.71q-3.24-8.67-6.84-17.2c-2.25-5.28-4.84-10.42-7.11-15.69-1.93-4.5-3.65-9.1-5.41-13.67-2-5.24-4.09-10.46-5.86-15.78a81.84,81.84,0,0,1-3-11.52c-1.87-10.42-3.49-20.89-5.23-31.34-.78-4.69-1.56-9.37-2.44-14-1.56-8.28-3.65-16.49-4.63-24.84-.65-5.59.36-11.37.4-17.07a31.55,31.55,0,0,0-1-5.85,19.08,19.08,0,0,0-3.21,2c-.36.33.17,1.48-.11,2.07-1.73,3.73-3.7,7.36-5.35,11.12a79.84,79.84,0,0,0-4.6,11.84,140.54,140.54,0,0,0-3.92,19.52c-.69,6.14-.35,12.4-.35,18.61,0,6.89-.45,13.85.36,20.66.9,7.66,3.79,15.12,4.38,22.77.83,10.82.47,21.74.23,32.61,0,1-2.72,2.76-4.24,2.84-8.18.38-16.38.49-24.57.39a51.11,51.11,0,0,1-11.37-1.38,5.51,5.51,0,0,1-3.27-3.86c-.47-4.05-.08-8.19-.25-12.28-.43-10-1.13-19.89-1.44-29.84-.25-7.74.27-15.5-.15-23.22-.47-8.48-1.58-16.92-2.51-25.37-.66-6.05-2.53-12.18-2-18.1.79-8.8,2.92-17.53,5-26.14,2.09-8.45,4.88-16.73,7.35-25.08.8-2.73,1.58-5.46,2.37-8.2a23.08,23.08,0,0,1,2.17.91c3,1.62,6.08,3.2,9,4.94,2.2,1.29,4.09,3.27,6.42,4.13,3.26,1.2,6.81,1.65,10.24,2.41,2,.43,3.89.94,5.87,1.23,5.65.81,11.36,2.21,17,1.87,1.74-.1,3.44-4.91,4.72-7.75,3-6.6,5.54-13.37,8.56-19.93.61-1.32,2.53-2,3.84-3,.89,2.55,2.1,5,2.61,7.65,1.51,7.82,2.68,15.7,4.15,23.52a62.75,62.75,0,0,0,2.49,8.89c.14.44,1.61.79,2.33.62,4.2-1,8.36-2.11,12.53-3.2,3.11-.81,6.21-1.66,9.33-2.42.65-.16,2-.11,2,.08a27.48,27.48,0,0,1,1.11,6.19,48.62,48.62,0,0,1-.82,6.52c-1.31,10.74-3.59,21.48-3.63,32.22-.05,9.87,2,19.81,3.74,29.6,1.55,8.47,4.06,16.77,6.15,25.14,1.67,6.65,3.42,13.28,5,19.95,2.17,9.05,4.16,18.15,6.33,27.2,2,8.36,4,16.72,6.31,25,1.33,4.88,3.07,9.66,4.8,14.42,1.16,3.2-1,4.31-3.17,4.77-6.54,1.39-13.15,2.45-19.73,3.64ZM117,444.73a6.42,6.42,0,0,0,1.33-.47.84.84,0,0,0-.08-.76c-3.14-2.6-6.37-5.1-9.46-7.76s-6.11-5.55-9.15-8.33c-.55-.51-1.08-1.06-1.65-1.55,0,0-.58.36-.55.5.11.66.13,1.52.56,1.92,4.07,3.86,8.16,7.71,12.37,11.42C112.45,441.54,114.8,443.08,117,444.73ZM38.15,409.3l.44,1.23c3.38-1.27,6.83-2.39,10.1-3.91.84-.39,1.14-2,1.63-3.07,0,0-.72-.54-.81-.47-.62.55-1.07,1.36-1.76,1.75-1.93,1.06-3.88,2.57-5.94,2.76-3.1.3-6.29-.45-9.45-.54-.57,0-1.17,1-1.75,1.5a6,6,0,0,0,1.81.71C34.33,409.36,36.24,409.3,38.15,409.3ZM148.3,519.83c1.14-1.23,1.73-1.58,1.75-2a1.77,1.77,0,0,0-.76-1.29c-3.07-2-6.17-4-9.31-5.93a4.27,4.27,0,0,0-1.92-.25c-.05,0-.27.76-.16.86C141.28,514.08,144.7,516.88,148.3,519.83Zm-93.42-30.6c1.91-1.4,3.92-2.73,5.73-4.3.59-.51.65-1.64,1-2.49a28.94,28.94,0,0,0-2.67,1.19,39.29,39.29,0,0,0-4,2.51,14.63,14.63,0,0,0-1.94,2Z"/><path class="cls-1" d="M221.39,245.85c-7.18,1.41-7.83-4.46-9.38-8.64-2.36-6.39-4.19-13-6.09-19.52-.71-2.45-1-5-1.51-7.55-1.62-7.76-3.62-15.47-4.62-23.32-.21-1.65,2.87-4.26,5-5.58,6.52-4.09,13.49-7.47,19.91-11.71a55.71,55.71,0,0,0,10.07-9.18c5.5-6,10.73-12.27,15.92-18.56.55-.67,0-2.22,0-3.36a17.14,17.14,0,0,0-2.4,1.9c-5.64,6.39-11,13-17,19.13-2.76,2.82-6.74,4.41-10,6.74q-10.58,7.47-21,15.12c-3.45,2.53-6.73,4.45-11.4,2.65s-10.06-2-14.41-4.29c-5.17-2.7-9.71-6.69-14.25-10.45-4-3.3-7.73-6.95-11.39-10.63-3.86-3.89-7.6-7.92-11.22-12-4.54-5.17-8.85-10.55-13.36-15.74-2.64-3-.29-3.78,1.64-5.81a90.45,90.45,0,0,0,10.31-13.76c2.53-3.93,4.4-8.28,6.56-12.45a17.93,17.93,0,0,1,3.35,2c8.47,7.72,16.75,15.68,25.39,23.2,3.45,3,7.18.91,10.43-1.25,6.05-4,12-8.15,18.09-12.09,4.17-2.69,8.54-5.06,12.7-7.75.48-.31.39-1.74.26-2.6,0-.24-1.3-.63-1.74-.42-1.75.86-3.38,2-5.11,2.89a3.8,3.8,0,0,1-1.49.12c.31-.45.59-.93.93-1.35,3-3.84,5.68-8.13,9.24-11.41,7.74-7.12,15.87-13.82,24-20.48,2.14-1.75,4.89-2.81,7.46-4,.38-.17,1.66.82,2,1.52,2.3,4.9,4.44,9.87,6.67,14.8,2.42,5.35,5.11,10.6,7.25,16Q266.44,108.86,270,120c2.67,8.3,5.27,16.66,7.29,25.13,1.74,7.33,2.12,15,4.07,22.24,1.41,5.25,4.4,10.07,6.67,15.09,1.45,3.21,3,6.4,4.3,9.66s2.67,6.61,3.79,10c1.26,3.82-2.48,11-5.92,13-4.87,2.82-9.42,6.19-14.13,9.29-5.64,3.71-11,8.12-17.05,10.87-7.46,3.36-15.5,5.53-23.4,7.81C231,244.39,226.14,244.94,221.39,245.85Zm27-134.61.55.08c-.53,2.92-1.08,5.83-1.59,8.76s-1.05,5.72-1.37,8.61c-.06.51.9,1.17,1.46,1.68.06,0,.88-.41.92-.7,1.25-8.28,2.48-16.57,3.54-24.87.06-.47-1.34-1.13-2.06-1.7-.49.62-1.33,1.21-1.38,1.86C248.24,107,248.35,109.14,248.35,111.24Zm-39,86.57c-.47-5.4-.78-9.41-1.23-13.4-.07-.63-.83-1.19-1.26-1.78-.44.62-1.22,1.24-1.24,1.87a87.21,87.21,0,0,0,.11,11.32c.19,1.9,1.52,3.68,2.34,5.52C208.61,199.76,209.19,198.18,209.32,197.81Zm47.48,20.91c-.86-1.75-1.18-2.38-1.49-3a9.12,9.12,0,0,0-1.87,1.91q-3,5.85-5.8,11.82a8,8,0,0,0-.21,2.71c.35-.13.86-.16,1-.41C251.34,227.29,254.19,222.81,256.8,218.72Zm-66.47-39.54,2.59-.83c-.12-.3-.17-.69-.39-.87-3.65-2.95-7.26-6-11-8.75-1.27-.94-3-1.27-4.52-1.88,1,1.14,1.93,2.27,2.89,3.42a4.69,4.69,0,0,0,.42.55ZM232.9,97.51l.13.67c1.38,0,2.76.06,4.13,0a10.37,10.37,0,0,0,2-.5c-.38-.55-.74-1.57-1.13-1.57a119.28,119.28,0,0,0-12.26.21c-.94.09-1.73,1.8-2.59,2.76a11,11,0,0,0,2.62.09C228.19,98.69,230.54,98.07,232.9,97.51Zm40.75,76.07c-.42-.6-1-1.52-1.69-2.38-.07-.09-.71,0-.75.18-1.21,3.56-2.46,7.12-3.44,10.74-.17.64.85,1.59,1.32,2.4.61-.42,1.59-.72,1.77-1.28C271.85,180.24,272.64,177.17,273.65,173.58Zm-57.91,55.76c-1.39-4.75-2.69-9.27-4.08-13.77-.08-.24-1-.47-1.38-.3s-.87.93-.77,1.28c1.23,4.39,2.52,8.75,3.92,13.08.14.41,1.08.66,1.68.76C215.28,230.41,215.58,229.63,215.74,229.34ZM233.27,80.85l2.1,1.13c1.84-2.44,3.76-4.84,5.49-7.36a11.65,11.65,0,0,0,1-3.07,12.34,12.34,0,0,0-3.11,1.29,47.44,47.44,0,0,0-4.14,4,9.84,9.84,0,0,0-1.89,2.26C232.53,79.5,233.07,80.26,233.27,80.85Zm-59.9,47.68c.74,1.51,1,2.78,1.8,3.46s2.14.75,3.19,1.2a14.85,14.85,0,0,1,2,1.25c0-1.75-.08-3.51-.11-5.26a6.5,6.5,0,0,1-1.95.36,2.76,2.76,0,0,1-1.52-.84,11.86,11.86,0,0,1-1.26-1.83ZM218.1,94.19l.3,1.25c.88-.45,2.07-.68,2.58-1.4a28.3,28.3,0,0,0,2.16-4.38c-.64-.11-1.67-.53-1.85-.3C220.13,90.89,219.15,92.56,218.1,94.19Z"/><path class="cls-1" d="M143.07,399.71c-.55-2.7-1.77-5.47-1.52-8.09.84-8.75,2.2-17.44,3.35-26.15a20,20,0,0,0,.21-2.31c0-6.08,0-12.15.22-18.22,0-1,1.21-2.21,2.18-2.74,5.25-2.82,2.06-7.24,2.15-11,.11-4.61-.22-9.24-.25-13.86,0-8.48.22-17-.06-25.46-.2-6.29-2-12.68-1.34-18.83s3.61-12.21,5.55-18.3a3,3,0,0,0,.21-.68c.36-9.15,1.11-18.3.94-27.43-.16-8.32-1.67-16.61-1.91-24.93s.39-16.58.56-24.87c0-1-.54-2-.54-3,0-1.94.19-3.87.31-5.81a56.56,56.56,0,0,0,4.53,4.11c4.77,3.52,9.44,7.25,14.52,10.28,7.13,4.23,15.1,5.49,23.35,5.09a1.7,1.7,0,0,1,1.23,1.08c.49,3.84.54,7.76,1.32,11.52,1.27,6.14,2.95,12.2,4.54,18.27,1.33,5.1,2.65,10.21,4.2,15.24,1.2,3.9,3.15,7.61,4.06,11.56s.85,8,1.32,12c.27,2.25,1,4.49,1.05,6.74.11,7.87.49,15.79-.19,23.61-.44,5.07-2.66,10-3.84,15-1,4.19-2.95,8.74-2.12,12.63,2,9.14-4.28,14.22-8.33,20.45-4.33,6.68-8.6,13.43-13.43,19.74-6.53,8.53-8.3,18.13-7.45,28.43.7,8.54,1.46,17.09,2.7,25.57,1.34,9.24,3.6,18.36,4.84,27.61,1.54,11.43,2.33,23,3.74,34.42.21,1.65,1.86,3.46,3.32,4.54s3.6,1.42,5.43,2.08c-1.35,1.83-2.3,4.46-4.11,5.36-7.48,3.73-15.26,6.85-22.82,10.41-2,1-3.64,2.72-5.52,4a1.56,1.56,0,0,1-1.35-.47c-.87-4.55-1.45-9.17-2.5-13.68-2-8.5-4.23-16.93-6.3-25.4-1.4-5.71-2.58-11.48-4-17.18-1.88-7.34-4-14.62-5.9-21.95a69.72,69.72,0,0,1-1.37-7.17c-.59-4-1.07-8.05-1.59-12.08Z"/><path class="cls-1" d="M80.66,260.21c-6.32-.33-12.76-.06-18.93-1.23-3.31-.63-7.4-2.09-6.58-8a184.64,184.64,0,0,0,1.32-24.34c.08-10.38-.49-20.77-.49-31.15a97.8,97.8,0,0,1,1.09-16.42,171.39,171.39,0,0,1,4.69-18.69,147,147,0,0,1,5.45-16.09,131.41,131.41,0,0,1,7.62-14.84c3.09-5.31,6.59-10.38,9.89-15.57a36,36,0,0,1,2.64-4.08c.19-.23,1.59.85,2.36.76A57.32,57.32,0,0,0,99,109.09c7.21-2,13.87-1.26,20,3.14a2.19,2.19,0,0,1,.09,2.09c-4.15,3.13-3.61,12.23-.06,15.67,4.62,4.47,8.1,10.1,12.35,15,3.33,3.82,6.72,7.75,10.74,10.75,8.72,6.49,7.79,15.73,6.6,24.27-1.23,8.82-4.74,17.31-7.08,26-.78,2.92-1,6-1.53,9-1.08,6.16-2.22,12.31-3.31,18.47-.57,3.24-.72,6.61-1.7,9.72-2.29,7.2-4.81,14.35-7.56,21.39a128.5,128.5,0,0,1-6.4,13.72c-2.5,4.69-5.5,9.11-8.07,13.77-1.6,2.9-3.36,5.89-4.09,9.05-1.21,5.23-4.07,1-5.08.67-4.36-1.48-8.44-3.8-12.64-5.77-3.77-1.76-7.63-3.37-11.3-5.33-.45-.24-.34-2.37.11-3.34,1.83-3.9,4.37-7.53,5.76-11.56,3.19-9.33,5.85-18.83,8.73-28.27,1.79-5.88,4.17-11.67,5.22-17.68A127.37,127.37,0,0,0,102,206.14c-.15-10.88-1.56-21.73-2.31-32.6-.5-7.28-1.2-14.58-1.07-21.87.15-8.49,2.52-16.4,8.91-22.56,1-1,2.45-1.64,3.23-2.77.45-.67,0-2-.06-3a26.57,26.57,0,0,0-4.52,2.75c-8.82,8.1-12.11,18.34-11.58,30.11.55,12.22.73,24.46,1.41,36.67.53,9.61,2.2,19.19,2.15,28.78,0,4.68-2.86,9.34-4.34,14-1.08,3.41-2,6.85-3,10.29-1.16,4.11-1.82,8.47-3.67,12.26-.81,1.65-4,2.14-6.12,3.16ZM92.78,113.69c-.57-1-.77-1.74-1-1.77-.65-.08-1.74,0-1.93.34q-6.42,12.08-12.59,24.26c-.32.65.14,1.69.24,2.55.66-.27,1.67-.36,1.94-.85,1.06-1.91,1.89-3.93,2.78-5.93a109.59,109.59,0,0,1,4.54-10.19C88.42,119.08,90.77,116.42,92.78,113.69ZM62.22,171.64l.8.33a31.44,31.44,0,0,0,0,3.22,10.06,10.06,0,0,0,.66,2.06c.61-.46,1.52-.79,1.78-1.39a30,30,0,0,0,1.45-4.66c1.22-4.83,2.48-9.64,3.5-14.51.18-.87-.74-2-1.16-3-.32.15-.85.22-.94.45C66.27,160,64.25,165.82,62.22,171.64Zm0,40.87-.24,0c0-2.15.06-4.31,0-6.46a5,5,0,0,0-.77-1.64c-.58.45-1.63.86-1.66,1.35-.55,7-1,14.07-1.34,21.12,0,.34.78,1,1.23,1a1.6,1.6,0,0,0,1.17-1C61.21,222.07,61.71,217.29,62.25,212.51Zm68.8,6.57c-.48-2.77-.61-4.29-1-5.74a32.92,32.92,0,0,0-1.64-3.9c-.64.3-1.78.52-1.84.91-.22,1.37,0,2.81-.08,4.21-.33,3.73-.75,7.44-1.18,11.16-.12,1.08-.42,2.15-.63,3.22.94-.36,2.41-.47,2.73-1.13C128.92,224.62,130.16,221.27,131.05,219.08Z"/><path class="cls-1" d="M221.34,285.31c-1.31,7.48-2.74,15.62-4.14,23.78a3.16,3.16,0,0,0,.13,1.63c1.34.2,3,.8,4,.22,4.53-2.74,9.42-5.26,13-9,1.54-1.63.2-6,.17-9.13q-.09-7.24-.19-14.5a26.66,26.66,0,0,1-.08-4.46c1.42-9.15,2.63,1.53,4,.06,3.86,7.07,7.91,14,11.5,21.24,1.71,3.44,2.52,7.32,3.79,11,.14.4.73,1,1,.95,1.32-.32,2.94-.45,3.85-1.31,3.82-3.6,7.54-7.35,11-11.31.47-.54-.49-2.77-1.27-3.89-5.7-8.13-11.51-16.17-17.28-24.24,0,0,0-.14-.06-.17-3.37-2.17-2.93-3.94.64-5.22,5.15-1.84,10.42-3.37,15.47-5.45A104,104,0,0,0,277.08,250c4.19-2.3,8.38-4.6,12.53-7,3-1.74,6.27-3.29,8.95-5.49,2.51-2,3.92-1.85,5.13,1,3.44,8.06,7.12,16,10.19,24.22,2.9,7.73,5.32,15.65,7.62,23.57,1.18,4.05,2.3,8.32,2.16,12.45-.06,1.85-3,4-5.1,5.32-4,2.61-8.43,4.59-12.49,7.14-5.81,3.64-10.21,3.34-13.35-3.47-2.35-5.09-5.31-9.88-7.74-14.92-1.85-3.85-3.28-7.89-5-11.82-.15-.36-.93-.83-1.13-.72-.84.45-2.12,1-2.23,1.68-1.17,7.2-2.17,14.42-3.14,21.64-.9,6.61-1.22,13.36-2.82,19.79-.52,2.11-4.05,4.17-6.59,4.92a75.07,75.07,0,0,1-15.39,2.76,98.61,98.61,0,0,1-17.44-.21c-2.84-.3-5.55-2.22-8.22-3.6-3.49-1.8-8.57-3-9.93-5.9-1.95-4.11-1.3-9.53-1.43-14.39,0-1.73.83-3.49,1.33-5.22,1.29-4.36,3-8.63,3.8-13.08.9-4.91,1-10,1.48-15a7.92,7.92,0,0,1,.47-1.53,13.87,13.87,0,0,1,.43,1.43C219.88,277.2,220.53,280.8,221.34,285.31Z"/><path class="cls-1" d="M145.15,298.91c0,9.92-.06,19.84,0,29.76a26.57,26.57,0,0,0,1,6.43c1.61,6.13-3.88,6.08-6.84,7a133.13,133.13,0,0,1-18.84,4.13c-5.54.93-3.51-4.4-4.11-6.48-2.64-9.13-4.46-18.5-6.34-27.84-.32-1.58.39-3.46.94-5.09a91.19,91.19,0,0,1,3.94-10.33c2-4.12,4.44-8,6.69-12,.92-1.62,1.45-4,2.83-4.71a46.94,46.94,0,0,1,10.92-3.84c6-1.31,8.75,1.09,8.61,7.63-.12,5.08,1.16,10.18,1.82,15.27Z"/><path class="cls-1" d="M212,6c11.8,1.36,19.85,7,25.14,16.12,3,5.17,5.49,11.2,6.06,17,.74,7.51-.57,15.25-1.48,22.83,0,.43-4.79,1-6.9.3-4-1.4-6.1-4.11-4.12-8.94a5.61,5.61,0,0,0-4.23-7.83c-2-.41-4.65,2.15-7,3.32-1,.48-2,.81-3.06,1.2a13.42,13.42,0,0,1-1-3.49c0-2.94.31-5.88.2-8.82,0-.4-1.73-1.1-2.63-1.06-4,.19-7.91.92-11.85.86-4.13-.07-8.44-.29-12.27-1.61-1.21-.42-2.06-4.87-1.43-7A52.5,52.5,0,0,1,193.23,16c1.24-2,4.07-3.09,6.36-4.25C203.64,9.7,207.82,7.89,212,6Z"/><path class="cls-1" d="M201.93,90c-3.1-1.13-6.24-2.17-9.27-3.47-.53-.23-.81-1.56-.83-2.4-.09-3.82.23-7.68-.21-11.46-.15-1.28-2-2.49-3.22-3.49-.77-.61-2.63-.62-2.74-1.17-.55-2.53-1.24-5.25-.8-7.72,1.09-6.1,2.79-12.1,4.17-18.16.12-.53-.39-1.21-.6-1.83a16.79,16.79,0,0,0,3.64.78c4.46,0,8.93-.1,13.39-.27,2.27-.09,4.54-.44,6.81-.49a3.31,3.31,0,0,1,.46,2.23c-1.48,3.79-2.52,7.94,1.6,10.14,1.66.89,5-1.21,7.48-2.08,1.18-.41,2.51-1.81,3.29-1.51a4,4,0,0,1,1.82,3.19c0,4.55-1.26,9.49,4,12.12,1.77.88,4,.9,6,1.29a9.68,9.68,0,0,0,1.33.1c-.24.56-.33,1.29-.74,1.65-4.78,4.16-9.86,8-14.37,12.46C218.32,84.66,209,89.16,201.93,90Z"/><path class="cls-1" d="M118.37,70.71c-.11,7-4.68,8.89-9.25,10.93-7,3.12-13.87,6.66-21,9.52a11.11,11.11,0,0,1-7.84.18c-3.7-1.66-7.58-4-10-7.12a18.68,18.68,0,0,1-2.67-7.17c.07-5.91-3.89-7.15-7.52-9.54-1.2-.79-1.65-3.56-1.53-5.37.42-6.24,1.21-12.46,2-18.67,0-.35,1.31-.86,1.92-.77,5.47.81,10.94,1.63,16.34,2.74.77.16,1.56,1.84,1.73,2.92.4,2.62-.58,6.35.85,7.75,3.17,3.12,6.77,1.13,9.63-1.61,1.32-1.27,2.42-2.8,3.83-4a3.38,3.38,0,0,1,2.53-.15,1.73,1.73,0,0,1,.92,1.42C98,54.57,97.13,57.31,97.2,60c.07,2.54.32,6.06,1.92,7.3s5.18,1,7.78.62,5.3-2.31,7.88-2.19C116.05,65.81,117.18,69,118.37,70.71Z"/><path class="cls-1" d="M396.41,522.17c.3,5.19-3.63,6.4-6.91,8.09-3.71,1.92-7.46,3.75-11.22,5.58a18.53,18.53,0,0,1-4.34,1.85c-5,1-10.35,3.15-15.08,2.26-5.86-1.1-11.24-4.79-16.83-7.36.92-1.59,1.46-3.71,2.82-4.67,6.12-4.3,12.56-8.15,18.7-12.42,3.37-2.35,6.92-4.8,9.43-8,3.64-4.6.06-8-3-11.45-1.43-1.62-2-4-3-6,1.89-.86,3.78-1.7,5.65-2.59,2.41-1.15,4.76-2.43,7.23-3.44a2.22,2.22,0,0,1,2,.86c2.37,5.33,4.62,10.72,6.84,16.12,1.1,2.65,2.1,5.35,3.07,8.05C393.36,513.46,394.87,517.82,396.41,522.17Z"/><path class="cls-1" d="M70,513.24c1.72,7.52-3.54,8.08-8.37,7.86-8-.36-16-2.22-24-2.05-7.35.15-14.64,2.48-22,3.08-2.08.17-4.47-2.28-6.54-3.77-1.17-.84-1.82-2.39-3-3.23-4.07-2.94-1.37-5.16,1.17-6,5.42-1.78,11.12-2.69,16.68-4.06a7.47,7.47,0,0,0,3.3-1.55c5.36-5.11,11.22-1.43,16.94-1.27,7.19.22,14.4-.26,21.61-.31A2.72,2.72,0,0,1,68,503.28C68.82,506.56,69.37,509.91,70,513.24Z"/><path class="cls-1" d="M152.56,559.37c-8.88,2-17.68,4.71-26.67,5.72-7.44.83-15.11-.36-22.67-.73-.36,0-1.06-1-1-1.26.55-1.3,1-3.16,2.07-3.64,5.14-2.37,10.7-3.91,15.61-6.64,4.11-2.3,7.54-5.84,11.27-8.82.49-.39,1-1,1.53-1,7.73-.49,15.47-.85,23.2-1.36,1.53-.1,3.06-1.05,4.54-.93a4.17,4.17,0,0,1,2.69,2.16,39.88,39.88,0,0,1,3.4,8.32c1.44,6.07-3.13,9-8.38,9.31-1.79.11-3.6,0-5.4,0Z"/><path class="cls-1" d="M225.69,493.35c.49,8.93-2.8,11.3-10.65,9.71-6.59-1.33-13.78.25-20.7.67-4.64.29-9.28,1.2-13.9,1.09-3.11-.08-6.24-1.29-9.24-2.34-.89-.31-2.15-2.28-1.93-2.62a9,9,0,0,1,3.54-3.35c5.59-2.36,11.64-3.82,16.87-6.77,4.17-2.35,7.33-6.47,11.14-9.56.76-.61,2.45-.33,3.65-.11,6.2,1.13,12.39,2.36,18.56,3.62a1.89,1.89,0,0,1,1.26,1.17C224.92,488.23,225.42,491.63,225.69,493.35Z"/><path class="cls-1" d="M102.41,95.64c.91-.44,1.85-.81,2.7-1.33a20.67,20.67,0,0,0,2-1.6c-.7-.38-1.46-1.17-2.08-1.07-4.31.74-8.59,1.7-12.9,2.48a7.22,7.22,0,0,1-2.41-.41c.62-.63,1.13-1.53,1.88-1.83,6.53-2.68,13-5.45,19.67-7.79s9.48-5.8,9.86-13a6.79,6.79,0,0,1,.58-1.75c.23.53.7,1.08.66,1.6-.25,3.73-1.18,7.52-.74,11.15a19.73,19.73,0,0,0,3.66,8.41,113,113,0,0,0,9.91,12.13c3.73,4-1.65,5.33-2,8.1a3.34,3.34,0,0,1-1.42,2.36c-1.93.94-.8,6.79-5.13,3.49-2.17-1.65-3.39-4.59-5.61-6.14-2.95-2.06-6.38-4.5-9.73-4.7-6.36-.39-12.81.74-19.22,1.15a7,7,0,0,1-2.32-.73c.75-.18,1.49-.39,2.25-.55,5.6-1.21,11.21-2.38,16.78-3.68.43-.1.64-1.08,1-1.66l-3.08-1.14-1.37-.51a5.45,5.45,0,0,1,.58-.33c.77-.35,1.55-.68,2.33-1A19.68,19.68,0,0,0,105,95.59a8.54,8.54,0,0,0-2.67,0Z"/><path class="cls-1" d="M61.45,319.9c3-2.29,6-4.55,9-6.93a1.92,1.92,0,0,0,0-1.75,23,23,0,0,0-4-1.46c-.12,0-.37,1-.76,1.27-1.25.85-2.57,2.13-3.89,2.16s-2.39-1.37-3.59-2.14c1.09-.84,2.18-1.67,3.29-2.5,4.79-3.57,10-6.69,14.25-10.86,3.17-3.13,6.5-4.06,10.26-1.16,1.85,1.43,4.28,2.1,6.44,3.13.43.2,1.17.45,1.18.69a3.6,3.6,0,0,1-.52,1.78c-2.77,4.91-5.9,9.66-8.29,14.75-3.2,6.8-7.06,12.8-14.42,15.57a60.3,60.3,0,0,1-8.92,2.34c-.54.11-1.31-.88-2-1.36a15.34,15.34,0,0,1,1.84-1c3.29-1.25,6.63-2.39,9.87-3.76.46-.19.46-1.46.67-2.22-.77.11-1.55.18-2.3.35-4.28,1-8.56,1.94-12.84,2.88-.13,0-.34-.34-.52-.53.36-.15.71-.34,1.08-.46,3.95-1.31,7.91-2.56,11.8-4,.36-.13.51-1.58.28-2.26-.14-.43-1.15-.58-1.77-.86,1.29-.35,2.6-.62,3.85-1.07a11.38,11.38,0,0,0,2-1.21c-.48-.25-1-.78-1.43-.71-3.53.65-7,1.61-10.56,2-1.58.19-3.28-.69-4.93-1.08.93-.33,1.85-.69,2.8-.95a3.8,3.8,0,0,1,1.25.06Z"/><path class="cls-1" d="M190.11,103.38c0,3.05,1,6.6-.26,9-1.47,2.86-4.55,5.27-7.47,6.92-7,4-8.74,3.24-16.77-4.73-4.8-4.77-9.8-9.36-14.87-13.86-3.22-2.85-6.76-5.35-10.08-8.1a2.08,2.08,0,0,1-.14-1.86c.6-1.29,1.17-3,2.25-3.55,1.24-.6,3.54-.71,4.49.06q11.28,9.06,22.1,18.67c.9.8.63,3,.7,4.61a6,6,0,0,1-.73,2.07c.54.19,1.25.68,1.57.5.75-.44,1.73-1.12,1.88-1.85,1.5-7.3,8.43-9.68,12.81-14.35a12,12,0,0,1,1.78-1.24c3.12-2.3,3.39-.67,3.1,2.14a54.24,54.24,0,0,0,0,5.56ZM175.35,107c-.86,1.53-1.6,2.33-1.43,2.65a33.88,33.88,0,0,0,2.52,3.61c.45-.46,1.36-1.08,1.27-1.35A51,51,0,0,0,175.35,107Z"/><path class="cls-1" d="M150.13,208.33q0,20.56,0,41.12A10.36,10.36,0,0,1,135.87,259c-.52-.2-.78-2.14-.52-3.1,1.45-5.32,3.44-10.51,4.62-15.88,1.9-8.57,3.36-17.24,4.92-25.88.57-3.19.83-6.43,1.39-9.62.35-2,1-3.94,1.52-5.9,0-.2.26-.35.4-.52.19.4.55.79.56,1.19.05,3,0,6,0,9Z"/><path class="cls-1" d="M81.94,337.72c-2.88-.47-5.94-1-9-1.48a1.47,1.47,0,0,1-.83-.52c-.07-.1.14-.55.33-.71,3.9-3.38,8.37-6.29,11.57-10.23,3-3.68,4.62-8.47,6.9-12.74,1.72-3.22,3.42-6.47,5.42-9.52.32-.5,2.26-.3,3.27.07,3.7,1.37,2.2,3.61.93,5.94-2.48,4.52-5.08,9-7.11,13.73S90.22,332.2,88,336.89C87.56,337.85,84.22,337.46,81.94,337.72Z"/><path class="cls-1" d="M59.93,302.51c-1.54,2.05-4,5.08-6.16,8.29-.46.68.22,2,.08,3-.23,1.6-.75,3.16-1.05,4.75-.43,2.23-.8,4.48-1.12,6.72a26.45,26.45,0,0,0-.15,2.81A40.54,40.54,0,0,1,46.87,327a10.15,10.15,0,0,1-2.48-1.66c-4.88-3.6-.64-7.12.42-10.36,1.45-4.47,3.86-8.62,5.75-13,2.25-5.15,4.4-10.34,6.6-15.5.06-.14.25-.21.38-.31a2.77,2.77,0,0,1,.46.86C58.57,291.49,59.11,295.91,59.93,302.51Z"/><path class="cls-1" d="M193.43,103.73c.67-3.41,1-6.92,2.21-10.15.32-.89,3-1.13,4.66-1.27,1.32-.11,2.69.45,4,.57a11,11,0,0,0,2.26-.26,15.64,15.64,0,0,1-1.13,2.65c-3.27,4.87-6.61,9.71-9.94,14.55a5.23,5.23,0,0,1-.89.79,3.66,3.66,0,0,1-.5-1.21c0-1.85,0-3.71,0-5.56Z"/><path class="cls-1" d="M122.83,80.41c2.78-.48,3.9-1,4.69-.72A8.78,8.78,0,0,1,130,81.93c2.16,2.14,4.35,4.25,6.42,6.47a4.27,4.27,0,0,1,.71,2c-2,.88-.24,8.31-5.15,3.54C128.65,90.68,126.57,86.08,122.83,80.41Z"/><path class="cls-1" d="M118.53,123.26l3.4-7.42,4.22,5.3c-1.93,1.37-3.84,2.78-5.85,4C120.15,125.24,119.17,124,118.53,123.26Z"/><path class="cls-1" d="M102.37,95.6c-3.3,1.22-6.57,2.5-9.91,3.61a29.78,29.78,0,0,1-4.8,1,5.09,5.09,0,0,1-1.52-.2c.26-.59.43-1.63.78-1.69,5.15-1,10.32-1.78,15.49-2.64Z"/><path class="cls-1" d="M77.78,279l2.88,1-3.07,5.66A29.59,29.59,0,0,1,76,280.81C75.87,280.31,77.19,279.58,77.78,279Z"/><path class="cls-1" d="M58.12,326l-2.54-1.84c.84-.17,1.67-.35,2.52-.5a3.31,3.31,0,0,1,.89,0l5.3.38Z"/><path class="cls-1" d="M140.35,97.13l-2.34,3.4c-.61-.78-1.86-2.08-1.71-2.27a13.67,13.67,0,0,1,3-2.45S139.89,96.57,140.35,97.13Z"/><path d="M288.84,364.6c3.14,2.13,5.9,4.41,9,6,6.58,3.43,13.34,6.51,20,9.73,4.39,2.11,8.84,4.11,13.12,6.43.78.43.87,2.16,1.27,3.28-1.05-.34-2.14-.6-3.15-1-2.7-1.17-5.35-2.45-8.05-3.6-5.29-2.26-10.81-4.09-15.86-6.78-6.1-3.24-11.82-7.17-17.67-10.87-.54-.34-.82-1.08-1.22-1.64Z"/><path d="M199.83,394.19l8.31-7.23a16.21,16.21,0,0,1,2.24-1.74c.18-.11,1.1.52,1.07.64-.4,1.5-.51,3.35-1.48,4.37a19.39,19.39,0,0,1-14.25,6.32,18.4,18.4,0,0,0-3.66.83c-.07-.57-.38-1.52-.16-1.67a35.31,35.31,0,0,1,4.7-2.77,5.39,5.39,0,0,1,2.13-.05Z"/><path d="M346.21,430.13c-2.7-1.47-6-3.13-9.07-5.08-.53-.34-.27-1.92-.38-2.93a11.84,11.84,0,0,1,2.48.72c3,1.6,6,3.28,8.93,5a10.84,10.84,0,0,1,1.51,1.29Z"/><path d="M360.32,468.92a21.85,21.85,0,0,1-1.72,1.95c-2.38-1.52-4.7-3.11-7-4.69.62-.48,1.52-1.5,1.82-1.35C355.63,466,357.76,467.37,360.32,468.92Z"/><path d="M213.06,454.07l-3.29-1.34,6.47-4.37c.3.5.95,1.3.83,1.44C215.76,451.33,214.33,452.76,213.06,454.07Z"/><path d="M117,444.73c-2.19-1.65-4.54-3.19-6.63-5-4.21-3.71-8.3-7.56-12.37-11.42-.43-.4-.45-1.26-.56-1.92,0-.14.52-.52.55-.5.57.49,1.1,1,1.65,1.55,3,2.78,6,5.63,9.15,8.33s6.32,5.16,9.46,7.76a.84.84,0,0,1,.08.76A6.42,6.42,0,0,1,117,444.73Z"/><path d="M38.15,409.3c-1.91,0-3.82.06-5.73,0a6,6,0,0,1-1.81-.71c.58-.53,1.18-1.52,1.75-1.5,3.16.09,6.35.84,9.45.54,2.06-.19,4-1.7,5.94-2.76.69-.39,1.14-1.2,1.76-1.75.09-.07.83.44.81.47-.49,1.07-.79,2.68-1.63,3.07-3.27,1.52-6.72,2.64-10.1,3.91Z"/><path d="M148.3,519.83c-3.6-3-7-5.75-10.4-8.58-.11-.1.11-.86.16-.86a4.27,4.27,0,0,1,1.92.25c3.14,1.91,6.24,3.91,9.31,5.93a1.77,1.77,0,0,1,.76,1.29C150,518.25,149.44,518.6,148.3,519.83Z"/><path d="M54.88,489.23,53,488.13a14.63,14.63,0,0,1,1.94-2,39.29,39.29,0,0,1,4-2.51,28.94,28.94,0,0,1,2.67-1.19c-.3.85-.36,2-1,2.49C58.8,486.5,56.79,487.83,54.88,489.23Z"/><path d="M248.35,111.24c0-2.1-.11-4.2.07-6.28.05-.65.89-1.24,1.38-1.86.72.57,2.12,1.23,2.06,1.7-1.06,8.3-2.29,16.59-3.54,24.87,0,.29-.86.75-.92.7-.56-.51-1.52-1.17-1.46-1.68.32-2.89.87-5.75,1.37-8.61s1.06-5.84,1.59-8.76Z"/><path d="M209.32,197.81c-.13.37-.71,1.95-1.28,3.53-.82-1.84-2.15-3.62-2.34-5.52a87.21,87.21,0,0,1-.11-11.32c0-.63.8-1.25,1.24-1.87.43.59,1.19,1.15,1.26,1.78C208.54,188.4,208.85,192.41,209.32,197.81Z"/><path d="M256.8,218.72c-2.61,4.09-5.46,8.57-8.34,13-.17.25-.68.28-1,.41a8,8,0,0,1,.21-2.71q2.76-6,5.8-11.82a9.12,9.12,0,0,1,1.87-1.91C255.62,216.34,255.94,217,256.8,218.72Z"/><path d="M190.33,179.18l-10.05-8.36a4.69,4.69,0,0,1-.42-.55c-1-1.15-1.92-2.28-2.89-3.42,1.52.61,3.25.94,4.52,1.88,3.78,2.78,7.39,5.8,11,8.75.22.18.27.57.39.87Z"/><path d="M232.9,97.51c-2.36.56-4.71,1.18-7.09,1.64a11,11,0,0,1-2.62-.09c.86-1,1.65-2.67,2.59-2.76A119.28,119.28,0,0,1,238,96.09c.39,0,.75,1,1.13,1.57a10.37,10.37,0,0,1-2,.5c-1.37.08-2.75,0-4.13,0Z"/><path d="M273.65,173.58c-1,3.59-1.8,6.66-2.79,9.66-.18.56-1.16.86-1.77,1.28-.47-.81-1.49-1.76-1.32-2.4,1-3.62,2.23-7.18,3.44-10.74,0-.14.68-.27.75-.18C272.63,172.06,273.23,173,273.65,173.58Z"/><path d="M215.74,229.34c-.16.29-.46,1.07-.63,1-.6-.1-1.54-.35-1.68-.76-1.4-4.33-2.69-8.69-3.92-13.08-.1-.35.38-1.09.77-1.28s1.3.06,1.38.3C213.05,220.07,214.35,224.59,215.74,229.34Z"/><path d="M233.27,80.85c-.2-.59-.74-1.35-.54-1.74a9.84,9.84,0,0,1,1.89-2.26,47.44,47.44,0,0,1,4.14-4,12.34,12.34,0,0,1,3.11-1.29,11.65,11.65,0,0,1-1,3.07c-1.73,2.52-3.65,4.92-5.49,7.36Z"/><path d="M173.37,128.53l2.15-1.66a11.86,11.86,0,0,0,1.26,1.83,2.76,2.76,0,0,0,1.52.84,6.5,6.5,0,0,0,1.95-.36c0,1.75.07,3.51.11,5.26a14.85,14.85,0,0,0-2-1.25c-1.05-.45-2.38-.51-3.19-1.2S174.11,130,173.37,128.53Z"/><path d="M218.1,94.19c1.05-1.63,2-3.3,3.19-4.83.18-.23,1.21.19,1.85.3A28.3,28.3,0,0,1,221,94c-.51.72-1.7.95-2.58,1.4Z"/><path d="M92.78,113.69c-2,2.73-4.36,5.39-6.07,8.41a109.59,109.59,0,0,0-4.54,10.19c-.89,2-1.72,4-2.78,5.93-.27.49-1.28.58-1.94.85-.1-.86-.56-1.9-.24-2.55q6.17-12.2,12.59-24.26c.19-.37,1.28-.42,1.93-.34C92,112,92.21,112.69,92.78,113.69Z"/><path d="M62.22,171.64c2-5.82,4-11.66,6.12-17.47.09-.23.62-.3.94-.45.42,1,1.34,2.1,1.16,3-1,4.87-2.28,9.68-3.5,14.51a30,30,0,0,1-1.45,4.66c-.26.6-1.17.93-1.78,1.39a10.06,10.06,0,0,1-.66-2.06A31.44,31.44,0,0,1,63,172Z"/><path d="M62.25,212.51c-.54,4.78-1,9.56-1.64,14.33a1.6,1.6,0,0,1-1.17,1c-.45,0-1.25-.68-1.23-1,.36-7.05.79-14.09,1.34-21.12,0-.49,1.08-.9,1.66-1.35A5,5,0,0,1,62,206c.09,2.15,0,4.31,0,6.46Z"/><path d="M131.05,219.08c-.89,2.19-2.13,5.54-3.67,8.73-.32.66-1.79.77-2.73,1.13.21-1.07.51-2.14.63-3.22.43-3.72.85-7.43,1.18-11.16.12-1.4-.14-2.84.08-4.21.06-.39,1.2-.61,1.84-.91a32.92,32.92,0,0,1,1.64,3.9C130.44,214.79,130.57,216.31,131.05,219.08Z"/><path d="M175.35,107a51,51,0,0,1,2.36,4.91c.09.27-.82.89-1.27,1.35a33.88,33.88,0,0,1-2.52-3.61C173.75,109.32,174.49,108.52,175.35,107Z"/></g></g></svg>