<svg xmlns="http://www.w3.org/2000/svg" viewBox="0 0 506.8 500.76"><defs><style>.cls-1{fill:#fff;}</style></defs><g id="Layer_2" data-name="Layer 2"><g id="Layer_1-2" data-name="Layer 1"><path class="cls-1" d="M172.85,316c1.29.5,2.77,1,4.19,1.67,1.21.56,2.36,1.28,3.53,1.94,1.33.75,2.69,1.45,4,2.3s2.22,1.72,3.3,2.62a52.06,52.06,0,0,1,4.07,3.47c1.71,1.73,3.28,3.62,4.91,5.43,1.22,1.36,2.51,2.65,3.64,4.07,2.1,2.66,4.13,5.36,6.12,8.09a33.1,33.1,0,0,1,2.68,4.26c1,2.05,1.93,4.18,2.86,6.29,1.12,2.54,2.34,5,3.29,7.64a56.33,56.33,0,0,1,1.48,5.82c0,.11,0,.24.07.35a41.54,41.54,0,0,1,2.15,6.34c.54,3.06.08,6.2,1.1,9.29.82,2.47.29,5.19,1.29,7.84s1.16,6,1.26,9.06c.23,6.28.22,12.57.22,18.86a6.32,6.32,0,0,0,2.18,5.34c1.68,1.36,1.89,5,1.07,7.06a8.61,8.61,0,0,0-.42,5.62,4.33,4.33,0,0,0,4.5,3,62,62,0,0,1,9.34.05,46.18,46.18,0,0,1,7.53,1.47,15.52,15.52,0,0,1,3.32,1.64c1.81,1,3.57,2.08,5.41,3a40.31,40.31,0,0,0,4,1.52c1.92.71,3.81,1.55,5.78,2.08,3.95,1.06,7.64-.81,11.46-1.27.11,0,.2-.13.31-.17A44.67,44.67,0,0,1,283,449c2.05-.38,4.18-.34,6.27-.52a2.12,2.12,0,0,0,1.31-.43c1.91-2.19,4-4.36,3-7.67a11.65,11.65,0,0,0-1.43-3.31,20.19,20.19,0,0,0-3.11-3.23,22.19,22.19,0,0,0-2.85-2,25.39,25.39,0,0,0-5-2.94c-1.71-.58-3.63-.05-5.44-1.18-2-1.25-4.53-1.69-6.64-2.82a2.7,2.7,0,0,1-1.78-2.52c.15-9.83.21-19.67.06-29.5-.07-4.61-.77-9.21-1-13.82-.19-3.65-.09-7.32-.17-11a25.86,25.86,0,0,0-.3-3c-.66-4.54-1.54-9-1.95-13.61-.37-4.12.22-8.34-.43-12.39-.57-3.51-.53-7-.8-10.46a110.3,110.3,0,0,0-1.57-11.86c-.22-1.16-1.28-2.22-2.09-3.21s-1.81-1.72-2.62-2.67c-1.64-1.94-3.23-3.92-4.79-5.92-2.19-2.81-4.29-5.68-6.5-8.47-1.48-1.88-3.06-3.67-4.64-5.47-1.26-1.43-2.69-2.72-3.85-4.22-1.63-2.11-3.11-4.35-4.63-6.56s-2.84-4.24-4.25-6.37c-1.08-1.63-2.1-3.31-3.24-4.89-.82-1.14-1.87-2.11-2.67-3.26-1.49-2.16-2.65-4.62-4.38-6.56s-3.16-3.8-3.4-6.43a6.49,6.49,0,0,0-.44-1.12,2.53,2.53,0,0,1-.21-1.1c.2-1.08.48-2.15.74-3.23a8.45,8.45,0,0,1,.43-1.68c.62-1.34,1.71-2.58,1.94-4,.61-3.71.91-7.48,1.24-11.23.15-1.61-.06-3.25.12-4.85q.51-4.32,1.32-8.6a56.62,56.62,0,0,1,1.47-5.73,21.76,21.76,0,0,1,1.21-3c.72-1.6,1.59-3.14,2.22-4.78s.82-3.13,1.38-4.64c.64-1.69,1.66-3.24,2.17-5a60.49,60.49,0,0,0,1.23-6.33c.15-.87.22-1.76.34-2.75a4.61,4.61,0,0,1,1.63,0c1.09.5,2.11,1.16,3.17,1.74s2.13,1.25,3.24,1.76c1.28.59,2.64,1,3.93,1.57.95.43,1.83,1,2.76,1.48,1.24.66,2.48,1.36,3.76,2s2.46.93,3.65,1.48c2.61,1.21,5.17,2.5,7.78,3.71,1.09.5,2.26.82,3.36,1.3,2.39,1.07,4.72,2.29,7.15,3.26,1.71.69,3.56,1,5.32,1.62,1.31.43,2.56,1,3.84,1.54,2.58,1.06,5.08,2.48,7.76,3.07a25.92,25.92,0,0,0,7.87.24,6.42,6.42,0,0,0,3.62-2,50,50,0,0,0,5.82-7.11c1.45-2.25,3.78-3.76,4.79-6.4.37-1,1.31-2.67,3.66-1.63a15.56,15.56,0,0,0-1.36,2.38c-.91,2.59-2.33,5.19-2.42,7.83-.13,3.58-2.14,7-.39,10.86,1.3,2.88,2,6,4.84,7.77a15.68,15.68,0,0,0,2.59.82c1.09.43,4.38-.12,5.09-1a20.13,20.13,0,0,1,1.81-2.64c1.14-1,2.66-1.7,3.74-2.79,1.68-1.7,3.78-3,4.66-5.51.29-.84,2.27-2,2.81-1.66a9.86,9.86,0,0,1,3.06,3.22c.85,1.22,1.31,2.73,2.19,3.93,1.74,2.39,4,4.39,5.52,7s4.19,3.76,6.33,2.73a34.32,34.32,0,0,0,4.4-2.84c2-1.37,3.91-2.84,5.93-4.16,1.64-1.07,3.69-1.69,5-3.05,2.47-2.57,5.51-4.11,8.53-5.77,1.28-.71,2.88-1.24,3.67-2.33a3.41,3.41,0,0,1,3.38-1.48,24.05,24.05,0,0,0,3.06,0c1.49-.14,1.76.62,1.83,1.91a16.4,16.4,0,0,0,.79,3.08,44,44,0,0,1,1.44,5.7c.1.8-1,1.7-1.06,2.6-.25,2.31-.25,4.59-1.15,6.88s-1.11,5-1.62,7.57a4,4,0,0,1-.12.52c-.69,1.72-1.45,3.4-2.05,5.15s-1,3.55-1.53,5.32c-.08.26-.34.46-.49.7-1.42,2.16-2.83,4.32-4.26,6.47-1.1,1.65-2.27,3.25-3.33,4.93a34.63,34.63,0,0,0-2.77,4.83,49.92,49.92,0,0,0-1.61,5.47c-.07.21-.27.4-.31.61-.22,1.28-1,3.22-.49,3.72,2.68,2.53-.1,4.44-.61,6.41s-2.13,3.71-3.19,5.59c-.73,1.28-1.25,2.67-2,3.94-1.43,2.45-3,4.83-4.42,7.25-.57.95-1,2-1.61,2.93-1.49,2.5-3.06,5-4.52,7.48a41.09,41.09,0,0,0-2,4.1,32.93,32.93,0,0,0-1.58,4.25c-.42,1.54-.3,3.11-1,4.72-1,2.26-1.12,4.9-1.48,7.4-.38,2.66-.25,5.29-1,8a57.41,57.41,0,0,0-1.5,13.1c-.2,9.53-.07,19.07-.05,28.6,0,1,.19,2,.27,3,.28,3.08.71,6.16.78,9.25.13,6.23,0,12.46.1,18.69,0,1.85.23,3.7.24,5.56a3.23,3.23,0,0,1-.49,2.18,12.21,12.21,0,0,1-3.87,2.67c-3,1.08-6.11,1.79-9.18,2.64-.34.09-.71.1-1.06.2-2.51.7-5,1.35-7.51,2.14a10.89,10.89,0,0,0-3.88,1.69c-1.7,1.49-3.51,2.81-4.28,5.35-.85,2.85-.73,5.62,1.61,7.43.57.44,1.58.33,2.11.78,1.93,1.67,4.11.89,6.11.59,2.78-.41,5.47-1.66,8.24-1.88,4.84-.38,9.71-.26,14.56-.29a10.22,10.22,0,0,1,3,.38c1.79.54,3.48,1.5,5.3,1.86,2.41.46,4.86.71,7.29,1.14,3.67.66,7.51.3,11.28.35a1.81,1.81,0,0,0,1.05-.23c2-1.49,3.88-3,5.83-4.55.66-.51,1.35-1.3,2.08-1.35,3-.24,4.21-2.51,4.73-4.66A65.69,65.69,0,0,0,389,416.59c.76-11.76-1-23.59,1.1-35.34.71-4.11-.4-8.42,1.24-12.52a43.55,43.55,0,0,0,1.51-6.28,1,1,0,0,1,.14-.32c.69-1.21,1.45-2.39,2.06-3.64,1-2,1.79-4.2,2.91-6.16,1.39-2.47,3-4.79,4.58-7.17.42-.66.88-1.29,1.26-2,.66-1.17,1.28-2.36,1.91-3.54l.57.11c0,2.29-.12,4.59,0,6.88.3,5-.94,10.16,1.08,15.13.87,2.14,1.08,4.53,1.6,6.81a5.08,5.08,0,0,0,.17.51c.71,2,1.47,4,2.13,6,.53,1.63.63,3.48,1.48,4.9,1.13,1.89,2.25,3.68,2.38,5.93,0,.21.2.4.3.6,1.08,2,2.26,3.88,3.19,5.92.69,1.52,1,3.2,1.56,4.79.44,1.29.95,2.55,1.49,3.8a39.92,39.92,0,0,1,1.85,4.06c.65,2.18,1.05,4.43,1.56,6.66.06.23.11.47.19.69.66,1.84,1.4,3.67,2,5.54s1,4.11,1.63,6.14c.35,1.22.93,2.38,1.33,3.59.74,2.21,1.54,4.41,2.09,6.67.3,1.26-.14,2.72.26,3.92,1,2.92,2.28,5.71,3.29,8.61.68,1.94,1.05,4,1.56,6,0,.11,0,.24.07.35.76,2.53,1.57,5,2.29,7.59.54,1.95.91,3.95,1.47,5.89a6.58,6.58,0,0,0,1.36,3c1.43,1.31,1,2.8.66,4.14-.46,1.86-1.49,3.57-2,5.42-.84,2.95-3.07,5-4.69,7.41-1.29,1.94-3.06,3.55-4.47,5.43a13.56,13.56,0,0,0-1.43,3.11c-.37.91-.66,1.84-1,2.83a8.84,8.84,0,0,1,2.18.46,6.22,6.22,0,0,0,6.78,0,1.26,1.26,0,0,1,1-.06,9.79,9.79,0,0,1,2.2,1.21c2.41,2,4.82,1,7,.33a21.11,21.11,0,0,0,2.8.65c1.31.12,2.65,0,4,.12,2.5.21,4.48-.95,6.47-2.22a34.39,34.39,0,0,1,4.64-2.64,17.89,17.89,0,0,0,4.52-2.45c3.29-2.72,6.8-5.18,10.21-7.76.88-.67,1.59-1.75,2.57-2.06,3.21-1.05,3.73-4.12,3.84-6.4.21-4.56-.61-9.17-1-13.76a1.48,1.48,0,0,0-.22-.68,11.45,11.45,0,0,1-2.26-5.8,1.19,1.19,0,0,0-.25-.65,10.79,10.79,0,0,1-2.18-5.2,8.75,8.75,0,0,0-.71-2.15c-.91-2.05-2-4-2.78-6.12-.68-1.82-1.07-3.75-1.59-5.64-.05-.17-.08-.34-.14-.51-.7-1.76-1.55-3.48-2.07-5.29-.63-2.18-1-4.43-1.45-6.65a2.32,2.32,0,0,0-.16-.51,17,17,0,0,1-2.24-7.54,8.59,8.59,0,0,0-.16-1.6c-.39-2.08-.88-4.14-1.2-6.23-.46-3-.81-6.07-1.22-9.11a3.23,3.23,0,0,0-.14-.51c-.74-2.74-1.55-5.46-2.19-8.23-.29-1.21,0-2.55-.36-3.74-.57-2.11-1.5-4.12-2.06-6.23-.43-1.59-.27-3.2-1-4.87s-.73-3.92-1.3-5.93a47.85,47.85,0,0,1-1.21-10c-.07-1.33.6-2.69.77-4.05.5-3.85.29-7.71,1.28-11.59,1.09-4.31,1.05-8.92,1.51-13.39a5.84,5.84,0,0,1,.18-.69c.71-3.42,1.63-6.82,2.09-10.28.67-4.94,1-9.93,1.5-14.9a3.78,3.78,0,0,1,.2-.87,30.35,30.35,0,0,0,2.25-9.25,7,7,0,0,1,1.13-3c.88-1.53,3.28-2.11,2.54-4.54,3.2-.46,6.12-.8,8.92.8a2.59,2.59,0,0,0,1.74,0,7.18,7.18,0,0,0,2.19-1,6,6,0,0,0,1.91-1.76c1-1.76,1.83-3.64,2.78-5.44,1.06-2,2.63-3.84,3.16-6,.75-2.94,2.12-5.82,1.62-9-.28-1.76-.18-3.57-.38-5.34-.17-1.52-.73-3-.75-4.52,0-4.4.34-8.77,2.36-12.8a1.75,1.75,0,0,1,1.28-.88,6.88,6.88,0,0,0,4.89-1.45c1.38-1.26,3.46-2.8,3.52-4.29.26-6.22.75-12.46-.76-18.7-.91-3.76-1.4-7.62-2.58-11.35a72,72,0,0,1-1.54-7.68c-.05-.23-.08-.47-.15-.7-.72-2.62-1.51-5.22-2.16-7.85-.56-2.26-1-4.57-1.46-6.85a6,6,0,0,0-.27-.65c-.68-2.05-1.42-4.09-2-6.16s-1.05-4-1.6-6a22.42,22.42,0,0,0-1.08-3.46c-1.07-2.34-2.34-4.58-3.4-6.92s-1.81-4.49-2.71-6.73c-.46-1.14-.95-2.27-1.42-3.41s-.81-2.12-1.31-3.14c-.61-1.26-1.47-2.42-2-3.71-.65-1.66-1-3.46-1.62-5.13-.51-1.3-1.31-2.48-1.93-3.74-.94-1.93-1.91-3.85-2.73-5.83-.64-1.54-1-3.17-1.6-4.73-.73-2-1.56-3.93-2.3-5.91-.51-1.34-.82-2.75-1.41-4-1-2.21-2.17-4.35-3.25-6.53-.49-1-1-2-1.39-3-.53-1.42-.8-3-1.45-4.32-1.13-2.41-2.48-4.71-3.71-7.07-.49-.95-.84-2-1.33-2.9-1.08-2-2.13-4.09-3.33-6a23.82,23.82,0,0,0-3.58-5.1,66.13,66.13,0,0,0-6.8-5.13c-1.19-.86-2.4-1.7-3.65-2.47-2.24-1.37-4.58-2.59-6.75-4s-4-3-6-4.49c-2.23-1.66-4.45-3.34-6.78-4.87-1.85-1.21-3.84-2.2-5.77-3.29-.33,0-.45-.36-.48-.71-.46-5.07.85-10.26-1.16-15.24-.7-1.77-1-3.7-1.56-5.53a18.49,18.49,0,0,0-1.28-2.75c-.72-1.41-1.48-2.81-2.22-4.2-.62-1.16-1.22-2.32-1.89-3.45-1-1.75-2.08-3.48-3.15-5.2-.65-1-1.33-2.06-2-3.08-.9-1.32-1.76-2.69-2.77-3.93a30.12,30.12,0,0,0-3.4-3.65c-1.18-1-2.8-1.68-3.79-2.87A9.2,9.2,0,0,0,385.08.08c-3.44.14-7-.68-10.32,1-1.74.89-3.86,1-5.64,1.84a38,38,0,0,0-5.34,3.33,31.78,31.78,0,0,0-5.55,4.21c-2,2.12-4.05,4-5.55,6.73-1.66,3-2,6.23-3.26,9.22-.53,1.23.2,2.87-1.14,4-.19.16,0,.81.05,1.21.29,1.35.64,2.7.93,4,.51,2.4,1,4.81,1.47,7.22,0,.11.12.2.17.3,1.11,2,2.16,4.13,3.32,6.15,1,1.78,2.13,3.52,3.28,5.22,1.51,2.23,3.19,4.27,3.05,7.27-.2,4.49-.11,9-.11,13.49,0,2.75,1.23,4,4,4.12,1.08,0,2.17-.09,3.24,0a7.07,7.07,0,0,1,5.06,3.32c1.16,1.79,1.71,4,2.67,5.89a10.6,10.6,0,0,0,2.06,2.82A15.11,15.11,0,0,0,380,93.17a14.88,14.88,0,0,0-.9,2.37,13.68,13.68,0,0,1-1,4,37.91,37.91,0,0,0-2.55,8.39c-.46,2-.41,4.1-1.17,6.19-1,2.74-.51,5.84-1.2,8.83a24.94,24.94,0,0,0-.52,9.32,54.51,54.51,0,0,1,.12,8.09c0,2.33.54,4.43-2.11,6.34-1.94,1.39-2.65,4.48-3.93,6.8a38.12,38.12,0,0,1-2.27,3.8,27.87,27.87,0,0,1-2.66,3c-2.33,2.38-4.6,4.82-7.07,7.05-1.74,1.58-3.85,2.74-5.64,4.27-2.17,1.84-4.89,2.22-7.41,3.06-2.77.93-5.17-.92-7.73-1.54-2.18-.53-4.29-1.35-6.42-2.09a16.5,16.5,0,0,1-1.78-.9c-1.92-.92-3.77-2.15-5.79-2.66s-2.5-1.55-2.9-3.17a3,3,0,0,0-1.06-1.82,56.6,56.6,0,0,0-5.48-2.52c-2.23-.93-4.56-1.63-6.72-2.68-2-1-3.8-2.32-5.72-3.43-3-1.72-6.07-3.3-9-5.08a42.7,42.7,0,0,0-8.16-4,33.82,33.82,0,0,1-3.55-1.9c-1.15-.56-2.36-1-3.56-1.52l-2.61-1.07-3.51-1.43a37.27,37.27,0,0,1-3.64-1.45c-2.13-1.1-4.19-2.33-6.28-3.51-1.19-.67-2.4-1.32-3.57-2-1.49-.91-2.92-2-4.45-2.8-1.81-1-3.76-1.72-5.54-2.75-1.63-1-3-2.27-4.68-3.22-2.76-1.58-5.06-3.45-5.59-6.83a2.79,2.79,0,0,0-.25-.66c-.7-1.85-1.49-3.68-2.09-5.57-.55-1.72-.89-3.51-1.34-5.26a1,1,0,0,0-.32-.39c-1.53-1.43-3-2.95-4.63-4.24-1.83-1.43-3.83-2.64-6.18-4.23.29-.41.79-1,1.19-1.73a10.53,10.53,0,0,0,1.42-2.82c.21-1,.37-1.68,1.43-2.17,1.45-.67,2.54-1.77,2.26-3.67a9.23,9.23,0,0,1,.08-1.94c1.15-.59,2.1-1.13,3.09-1.6s1.94-.85,2.92-1.22c3.16-1.22,4.25-3.83,2.92-7a4.2,4.2,0,0,1-.27-1.58c-.05-3-.22-6.12,0-9.16a8.25,8.25,0,0,1,1.54-4.51c.9-1.07,1-3.1,3-3.15.07,0,.13-.31.21-.46a28.88,28.88,0,0,1,1.89-3.62,17.27,17.27,0,0,0,3.23-9.54c.1-2.83.12-5.65-1.17-8.39-1.2-2.55-1.91-5.33-2.88-8a17.62,17.62,0,0,0-1.22-2.78,26.07,26.07,0,0,0-2.27-3.52,38.26,38.26,0,0,0-3.76-4.18,22.52,22.52,0,0,0-7-4c-2.71-1.09-5.32-2.23-8.3-2.17a9.05,9.05,0,0,1-3-.15c-2.77-.93-5.32-.69-8.24-.15-3.54.66-6,2.8-8.94,4.29-2.3,1.19-4.19,3.25-6.15,5A27.31,27.31,0,0,0,188.27,21a12.2,12.2,0,0,0-2.84,5.63c-.23,1.45-1.56,2.7-1.92,4.16-.54,2.18-.69,4.43-1.19,6.66a28.09,28.09,0,0,0-.54,10c.54,3.9.15,7.92.56,11.84.28,2.66-1.5,5.17-.28,7.8.09.18,0,.64-.09.68-1.06.36-1.11,1.91-2.68,1.91a5.18,5.18,0,0,0-3.07,1.65,33,33,0,0,0-3.3,4,44.44,44.44,0,0,0-4.23,6.08c-.83,1.65-2.3,2.07-3.59,2.66a34.47,34.47,0,0,1-5.6,1.52,1.86,1.86,0,0,0-.67.25c-2.42,1.91-5.17,3.38-7.08,6a41,41,0,0,0-5.53,9.2c-.92,2.35-1.84,4.7-2.79,7-1.08,2.64-2.38,5.22-3.21,7.94a72.86,72.86,0,0,0-1.5,7.68c-.46,2.4-.95,4.79-1.42,7.18a1.15,1.15,0,0,1-.06.17c-.71,2-1.78,4-2.05,6-.49,3.78-2.19,7-3.65,10.43-.46,1-1,2.08-1.38,3.15a35.44,35.44,0,0,1-1.7,4.77c-1.35,2.41-1.61,5.13-1.88,7.65-.51,4.62-.17,9.34-.16,14a8.65,8.65,0,0,0,.17,2c.66,2.88,1.59,5.71,2,8.62A61.19,61.19,0,0,0,131,199.07c1,2.86,1.13,6,1.47,9.06a47,47,0,0,1,.09,5.57,6.49,6.49,0,0,1-.27,2.3c-1.05,2.57-2.11,5.16-3.38,7.62a56.37,56.37,0,0,1-3.53,5.54c-1.64,2.43-3.7,4.66-4.92,7.29a45.56,45.56,0,0,1-4.49,7.17,54.45,54.45,0,0,0-5,7.44c-1.29,2.6-2.53,5.15-2.07,8.09a28.63,28.63,0,0,0,1.54,5.83c.44,1.18,1.52,2.09,2.09,3.24,1,2.07,1.86,4.24,2.79,6.36a16.24,16.24,0,0,0,1.38,2.88c1.33,1.87,2.63,3.71,2.27,6.18-.29,2,.15,4-1,6-1,1.56-1.14,3.59-1.67,5.42a6.28,6.28,0,0,1-.37.79c-.65,1.31-1.31,2.62-2,3.94-1,2-1.63,4.24-2.94,6-3.09,4.16-6.35,8.22-9.8,12.08-2.62,2.93-5.62,5.52-8.48,8.24-1.63,1.56-3.29,3.08-4.95,4.6-1,.87-1.93,1.74-2.93,2.56-1.46,1.18-3,2.29-4.42,3.46-1.14.9-2.23,1.84-3.36,2.75-2.6,2.08-5.23,4.13-7.82,6.23-1.44,1.18-2.8,2.47-4.26,3.64-3,2.38-6.06,4.63-9,7.08-2.43,2-4.64,4.35-7,6.44-1.74,1.52-3.81,2.68-5.41,4.33-2.79,2.88-5.37,6-8,9-2.12,2.53-4.81,4.52-6.46,7.52a45,45,0,0,1-4.58,6.13c-1.49,1.86-3.06,3.64-4.6,5.44-1.27,1.49-2.6,2.91-3.79,4.46-1.7,2.23-3.24,4.58-5,6.8-1.14,1.47-1.67,3.49-1,4.53,1.19,1.74,1.26,4.76,0,6.27a31.19,31.19,0,0,1-2.85,3.12c-1.7,1.59-3.59,3-5.17,4.69A8.83,8.83,0,0,0,0,429.06c-.21,1.07.65,2.38,1.08,3.56.54,1.49,1.05,3,1.71,4.44,1,2.21,2.56,4.28,3.09,6.59A106.7,106.7,0,0,1,7.4,454.86c.41,3.45.78,6.9,1.19,10.35a2.26,2.26,0,0,0,.3.82c1.13,2.15,3.15,3.44,5,4.67a63,63,0,0,0,8,4.07A23.34,23.34,0,0,0,31.78,477c4.2,0,8.41-.24,12.58.09,4,.31,7.35-.85,9.49-4a6.58,6.58,0,0,0,.2-5.67c-1-2-3.15-3.53-5-4.95a13.7,13.7,0,0,1-4.62-5.78c-.42-1-.92-2-1.42-3-.68-1.35-1.44-2.66-2.09-4-.78-1.63-1.54-3.27-2.21-4.94a41.55,41.55,0,0,1-1.5-4.45c-.32-1.18-.43-2.41-.69-4a6.43,6.43,0,0,1,2.12-.12,11.63,11.63,0,0,1,4,1.54c2.27,1.67,3.87-.41,5.75-.75a4.54,4.54,0,0,0,2.27-1.14c2.31-2.23,4.57-4.51,6.74-6.87q4.26-4.64,8.36-9.42c2.21-2.59,4-5.58,6.52-7.85,3.83-3.48,6.47-7.83,9.11-12.07A65.93,65.93,0,0,1,86,393.41c2.81-3.51,6.6-6.26,10.13-9.16,2.22-1.84,4.71-3.36,7.06-5a15.43,15.43,0,0,1,1.46-1.13c1.75-1,3.9-1.53,5.24-2.9,2.14-2.2,5-3,7.37-4.7,1.74-1.28,3.6-2.4,5.39-3.62,1.28-.87,2.57-1.75,3.79-2.71s2.39-2.08,3.57-3.13c1.92-1.73,3.81-3.5,5.77-5.19,1.75-1.51,3.62-2.9,5.36-4.43,2-1.74,3.82-3.59,5.75-5.38,2.62-2.43,5.47-4.66,7.83-7.33,3.13-3.52,5.83-7.42,8.81-11.08,1.91-2.35,4-4.53,6-6.86C170.59,319.4,171.53,317.89,172.85,316Z"/><path d="M172.85,316c-1.32,1.85-2.26,3.36-3.38,4.71-1.94,2.33-4.06,4.51-6,6.86-3,3.66-5.68,7.56-8.81,11.08-2.36,2.67-5.21,4.9-7.83,7.33-1.93,1.79-3.79,3.64-5.75,5.38-1.74,1.53-3.61,2.92-5.36,4.43-2,1.69-3.85,3.46-5.77,5.19-1.18,1.05-2.34,2.14-3.57,3.13s-2.51,1.84-3.79,2.71c-1.79,1.22-3.65,2.34-5.39,3.62-2.35,1.72-5.23,2.5-7.37,4.7-1.34,1.37-3.49,1.93-5.24,2.9a15.43,15.43,0,0,0-1.46,1.13c-2.35,1.68-4.84,3.2-7.06,5-3.53,2.9-7.32,5.65-10.13,9.16a65.93,65.93,0,0,0-4.59,6.23c-2.64,4.24-5.28,8.59-9.11,12.07C69.78,414,68,417,65.75,419.56q-4.11,4.79-8.36,9.42c-2.17,2.36-4.43,4.64-6.74,6.87A4.54,4.54,0,0,1,48.38,437c-1.88.34-3.48,2.42-5.75.75a11.63,11.63,0,0,0-4-1.54,6.43,6.43,0,0,0-2.12.12c.26,1.56.37,2.79.69,4a41.55,41.55,0,0,0,1.5,4.45c.67,1.67,1.43,3.31,2.21,4.94.65,1.35,1.41,2.66,2.09,4,.5,1,1,2,1.42,3A13.7,13.7,0,0,0,49,462.45c1.88,1.42,4,3,5,4.95a6.58,6.58,0,0,1-.2,5.67c-2.14,3.13-5.49,4.29-9.49,4-4.17-.33-8.38-.1-12.58-.09A23.34,23.34,0,0,1,22,474.77a63,63,0,0,1-8-4.07c-1.9-1.23-3.92-2.52-5-4.67a2.26,2.26,0,0,1-.3-.82c-.41-3.45-.78-6.9-1.19-10.35a106.7,106.7,0,0,0-1.49-11.21c-.53-2.31-2.09-4.38-3.09-6.59-.66-1.44-1.17-2.95-1.71-4.44-.43-1.18-1.29-2.49-1.08-3.56a8.83,8.83,0,0,1,2.27-3.89c1.58-1.7,3.47-3.1,5.17-4.69a31.19,31.19,0,0,0,2.85-3.12c1.22-1.51,1.15-4.53,0-6.27-.71-1-.18-3.06,1-4.53,1.71-2.22,3.25-4.57,5-6.8,1.19-1.55,2.52-3,3.79-4.46,1.54-1.8,3.11-3.58,4.6-5.44a45,45,0,0,0,4.58-6.13c1.65-3,4.34-5,6.46-7.52,2.58-3.08,5.16-6.17,8-9,1.6-1.65,3.67-2.81,5.41-4.33,2.4-2.09,4.61-4.4,7-6.44,2.92-2.45,6-4.7,9-7.08,1.46-1.17,2.82-2.46,4.26-3.64,2.59-2.1,5.22-4.15,7.82-6.23,1.13-.91,2.22-1.85,3.36-2.75,1.46-1.17,3-2.28,4.42-3.46,1-.82,2-1.69,2.93-2.56,1.66-1.52,3.32-3,4.95-4.6,2.86-2.72,5.86-5.31,8.48-8.24,3.45-3.86,6.71-7.92,9.8-12.08,1.31-1.75,2-4,2.94-6,.64-1.32,1.3-2.63,2-3.94a6.28,6.28,0,0,0,.37-.79c.53-1.83.72-3.86,1.67-5.42,1.19-2,.75-4,1-6,.36-2.47-.94-4.31-2.27-6.18a16.24,16.24,0,0,1-1.38-2.88c-.93-2.12-1.77-4.29-2.79-6.36-.57-1.15-1.65-2.06-2.09-3.24a28.63,28.63,0,0,1-1.54-5.83c-.46-2.94.78-5.49,2.07-8.09a54.45,54.45,0,0,1,5-7.44,45.56,45.56,0,0,0,4.49-7.17c1.22-2.63,3.28-4.86,4.92-7.29a56.37,56.37,0,0,0,3.53-5.54c1.27-2.46,2.33-5.05,3.38-7.62a6.49,6.49,0,0,0,.27-2.3,47,47,0,0,0-.09-5.57c-.34-3-.51-6.2-1.47-9.06a61.19,61.19,0,0,1-2.41-11.32c-.4-2.91-1.33-5.74-2-8.62a8.65,8.65,0,0,1-.17-2c0-4.67-.35-9.39.16-14,.27-2.52.53-5.24,1.88-7.65a35.44,35.44,0,0,0,1.7-4.77c.4-1.07.92-2.1,1.38-3.15,1.46-3.39,3.16-6.65,3.65-10.43.27-2.06,1.34-4,2.05-6a1.15,1.15,0,0,0,.06-.17c.47-2.39,1-4.78,1.42-7.18a72.86,72.86,0,0,1,1.5-7.68c.83-2.72,2.13-5.3,3.21-7.94.95-2.34,1.87-4.69,2.79-7a41,41,0,0,1,5.53-9.2c1.91-2.58,4.66-4.05,7.08-6a1.86,1.86,0,0,1,.67-.25,34.47,34.47,0,0,0,5.6-1.52c1.29-.59,2.76-1,3.59-2.66a44.44,44.44,0,0,1,4.23-6.08,33,33,0,0,1,3.3-4,5.18,5.18,0,0,1,3.07-1.65c1.57,0,1.62-1.55,2.68-1.91.1,0,.18-.5.09-.68-1.22-2.63.56-5.14.28-7.8-.41-3.92,0-7.94-.56-11.84a28.09,28.09,0,0,1,.54-10c.5-2.23.65-4.48,1.19-6.66.36-1.46,1.69-2.71,1.92-4.16A12.2,12.2,0,0,1,188.27,21a27.31,27.31,0,0,1,2.82-3.32c2-1.79,3.85-3.85,6.15-5,2.91-1.49,5.4-3.63,8.94-4.29,2.92-.54,5.47-.78,8.24.15a9.05,9.05,0,0,0,3,.15c3-.06,5.59,1.08,8.3,2.17a22.52,22.52,0,0,1,7,4,38.26,38.26,0,0,1,3.76,4.18,26.07,26.07,0,0,1,2.27,3.52A17.62,17.62,0,0,1,240,25.35c1,2.66,1.68,5.44,2.88,8,1.29,2.74,1.27,5.56,1.17,8.39a17.27,17.27,0,0,1-3.23,9.54,28.88,28.88,0,0,0-1.89,3.62c-.08.15-.14.46-.21.46-2,0-2.15,2.08-3,3.15A8.25,8.25,0,0,0,234.14,63c-.21,3,0,6.11,0,9.16a4.2,4.2,0,0,0,.27,1.58c1.33,3.12.24,5.73-2.92,7-1,.37-2,.78-2.92,1.22s-1.94,1-3.09,1.6a9.23,9.23,0,0,0-.08,1.94c.28,1.9-.81,3-2.26,3.67-1.06.49-1.22,1.18-1.43,2.17a10.53,10.53,0,0,1-1.42,2.82c-.4.69-.9,1.32-1.19,1.73,2.35,1.59,4.35,2.8,6.18,4.23,1.64,1.29,3.1,2.81,4.63,4.24a1,1,0,0,1,.32.39c.45,1.75.79,3.54,1.34,5.26.6,1.89,1.39,3.72,2.09,5.57a2.79,2.79,0,0,1,.25.66c.53,3.38,2.83,5.25,5.59,6.83,1.64,1,3.05,2.27,4.68,3.22,1.78,1,3.73,1.76,5.54,2.75,1.53.84,3,1.89,4.45,2.8,1.17.72,2.38,1.37,3.57,2,2.09,1.18,4.15,2.41,6.28,3.51a37.27,37.27,0,0,0,3.64,1.45l3.51,1.43,2.61,1.07c1.2.5,2.41,1,3.56,1.52a33.82,33.82,0,0,0,3.55,1.9,42.7,42.7,0,0,1,8.16,4c2.95,1.78,6,3.36,9,5.08,1.92,1.11,3.73,2.46,5.72,3.43,2.16,1.05,4.49,1.75,6.72,2.68a56.6,56.6,0,0,1,5.48,2.52,3,3,0,0,1,1.06,1.82c.4,1.62,1,2.69,2.9,3.17s3.87,1.74,5.79,2.66a16.5,16.5,0,0,0,1.78.9c2.13.74,4.24,1.56,6.42,2.09,2.56.62,5,2.47,7.73,1.54,2.52-.84,5.24-1.22,7.41-3.06,1.79-1.53,3.9-2.69,5.64-4.27,2.47-2.23,4.74-4.67,7.07-7.05a27.87,27.87,0,0,0,2.66-3,38.12,38.12,0,0,0,2.27-3.8c1.28-2.32,2-5.41,3.93-6.8,2.65-1.91,2.12-4,2.11-6.34a54.51,54.51,0,0,0-.12-8.09,24.94,24.94,0,0,1,.52-9.32c.69-3,.21-6.09,1.2-8.83.76-2.09.71-4.15,1.17-6.19a37.91,37.91,0,0,1,2.55-8.39,13.68,13.68,0,0,0,1-4,14.88,14.88,0,0,1,.9-2.37,15.11,15.11,0,0,1-2.52-1.68,10.6,10.6,0,0,1-2.06-2.82c-1-1.93-1.51-4.1-2.67-5.89a7.07,7.07,0,0,0-5.06-3.32c-1.07-.13-2.16,0-3.24,0-2.76-.11-4-1.37-4-4.12,0-4.5-.09-9,.11-13.49.14-3-1.54-5-3.05-7.27-1.15-1.7-2.25-3.44-3.28-5.22-1.16-2-2.21-4.1-3.32-6.15,0-.1-.15-.19-.17-.3-.49-2.41-1-4.82-1.47-7.22-.29-1.35-.64-2.7-.93-4-.08-.4-.24-1.05-.05-1.21,1.34-1.09.61-2.73,1.14-4,1.29-3,1.6-6.24,3.26-9.22,1.5-2.69,3.6-4.61,5.55-6.73a31.78,31.78,0,0,1,5.55-4.21,38,38,0,0,1,5.34-3.33c1.78-.83,3.9-.95,5.64-1.84,3.36-1.7,6.88-.88,10.32-1A9.2,9.2,0,0,1,393,3.39c1,1.19,2.61,1.82,3.79,2.87a30.12,30.12,0,0,1,3.4,3.65c1,1.24,1.87,2.61,2.77,3.93.7,1,1.38,2,2,3.08,1.07,1.72,2.13,3.45,3.15,5.2.67,1.13,1.27,2.29,1.89,3.45.74,1.39,1.5,2.79,2.22,4.2a18.49,18.49,0,0,1,1.28,2.75c.58,1.83.86,3.76,1.56,5.53,2,5,.7,10.17,1.16,15.24,0,.35.15.68.48.71,1.93,1.09,3.92,2.08,5.77,3.29,2.33,1.53,4.55,3.21,6.78,4.87,2,1.48,3.9,3.11,6,4.49s4.51,2.68,6.75,4c1.25.77,2.46,1.61,3.65,2.47a66.13,66.13,0,0,1,6.8,5.13A23.82,23.82,0,0,1,456,83.4c1.2,2,2.25,4,3.33,6,.49.94.84,2,1.33,2.9,1.23,2.36,2.58,4.66,3.71,7.07.65,1.36.92,2.9,1.45,4.32.39,1,.9,2,1.39,3,1.08,2.18,2.25,4.32,3.25,6.53.59,1.3.9,2.71,1.41,4,.74,2,1.57,3.93,2.3,5.91.58,1.56,1,3.19,1.6,4.73.82,2,1.79,3.9,2.73,5.83.62,1.26,1.42,2.44,1.93,3.74.64,1.67,1,3.47,1.62,5.13.51,1.29,1.37,2.45,2,3.71.5,1,.88,2.09,1.31,3.14s1,2.27,1.42,3.41c.9,2.24,1.71,4.52,2.71,6.73s2.33,4.58,3.4,6.92a22.42,22.42,0,0,1,1.08,3.46c.55,2,1,4,1.6,6s1.36,4.11,2,6.16a6,6,0,0,1,.27.65c.49,2.28.9,4.59,1.46,6.85.65,2.63,1.44,5.23,2.16,7.85.07.23.1.47.15.7a72,72,0,0,0,1.54,7.68c1.18,3.73,1.67,7.59,2.58,11.35,1.51,6.24,1,12.48.76,18.7-.06,1.49-2.14,3-3.52,4.29a6.88,6.88,0,0,1-4.89,1.45,1.75,1.75,0,0,0-1.28.88c-2,4-2.41,8.4-2.36,12.8,0,1.51.58,3,.75,4.52.2,1.77.1,3.58.38,5.34.5,3.22-.87,6.1-1.62,9-.53,2.12-2.1,4-3.16,6-.95,1.8-1.76,3.68-2.78,5.44a6,6,0,0,1-1.91,1.76,7.18,7.18,0,0,1-2.19,1,2.59,2.59,0,0,1-1.74,0c-2.8-1.6-5.72-1.26-8.92-.8.74,2.43-1.66,3-2.54,4.54a7,7,0,0,0-1.13,3,30.35,30.35,0,0,1-2.25,9.25,3.78,3.78,0,0,0-.2.87c-.49,5-.83,10-1.5,14.9-.46,3.46-1.38,6.86-2.09,10.28a5.84,5.84,0,0,0-.18.69c-.46,4.47-.42,9.08-1.51,13.39-1,3.88-.78,7.74-1.28,11.59-.17,1.36-.84,2.72-.77,4.05a47.85,47.85,0,0,0,1.21,10c.57,2,.51,4.2,1.3,5.93s.61,3.28,1,4.87c.56,2.11,1.49,4.12,2.06,6.23.32,1.19.07,2.53.36,3.74.64,2.77,1.45,5.49,2.19,8.23a3.23,3.23,0,0,1,.14.51c.41,3,.76,6.08,1.22,9.11.32,2.09.81,4.15,1.2,6.23a8.59,8.59,0,0,1,.16,1.6,17,17,0,0,0,2.24,7.54,2.32,2.32,0,0,1,.16.51c.47,2.22.82,4.47,1.45,6.65.52,1.81,1.37,3.53,2.07,5.29.06.17.09.34.14.51.52,1.89.91,3.82,1.59,5.64.79,2.09,1.87,4.07,2.78,6.12a8.75,8.75,0,0,1,.71,2.15,10.79,10.79,0,0,0,2.18,5.2,1.19,1.19,0,0,1,.25.65,11.45,11.45,0,0,0,2.26,5.8,1.48,1.48,0,0,1,.22.68c.4,4.59,1.22,9.2,1,13.76-.11,2.28-.63,5.35-3.84,6.4-1,.31-1.69,1.39-2.57,2.06-3.41,2.58-6.92,5-10.21,7.76a17.89,17.89,0,0,1-4.52,2.45,34.39,34.39,0,0,0-4.64,2.64c-2,1.27-4,2.43-6.47,2.22-1.31-.11-2.65,0-4-.12a21.11,21.11,0,0,1-2.8-.65c-2.18.68-4.59,1.64-7-.33a9.79,9.79,0,0,0-2.2-1.21,1.26,1.26,0,0,0-1,.06,6.22,6.22,0,0,1-6.78,0,8.84,8.84,0,0,0-2.18-.46c.35-1,.64-1.92,1-2.83a13.56,13.56,0,0,1,1.43-3.11c1.41-1.88,3.18-3.49,4.47-5.43,1.62-2.42,3.85-4.46,4.69-7.41.54-1.85,1.57-3.56,2-5.42.32-1.34.77-2.83-.66-4.14a6.58,6.58,0,0,1-1.36-3c-.56-1.94-.93-3.94-1.47-5.89-.72-2.55-1.53-5.06-2.29-7.59,0-.11,0-.24-.07-.35-.51-2-.88-4.06-1.56-6-1-2.9-2.34-5.69-3.29-8.61-.4-1.2,0-2.66-.26-3.92-.55-2.26-1.35-4.46-2.09-6.67-.4-1.21-1-2.37-1.33-3.59-.6-2-1-4.12-1.63-6.14s-1.31-3.7-2-5.54c-.08-.22-.13-.46-.19-.69-.51-2.23-.91-4.48-1.56-6.66a39.92,39.92,0,0,0-1.85-4.06c-.54-1.25-1-2.51-1.49-3.8-.55-1.59-.87-3.27-1.56-4.79-.93-2-2.11-3.95-3.19-5.92-.1-.2-.29-.39-.3-.6-.13-2.25-1.25-4-2.38-5.93-.85-1.42-1-3.27-1.48-4.9-.66-2-1.42-4-2.13-6a5.08,5.08,0,0,1-.17-.51c-.52-2.28-.73-4.67-1.6-6.81-2-5-.78-10.09-1.08-15.13-.14-2.29,0-4.59,0-6.88l-.57-.11c-.63,1.18-1.25,2.37-1.91,3.54-.38.68-.84,1.31-1.26,2-1.54,2.38-3.19,4.7-4.58,7.17-1.12,2-1.9,4.12-2.91,6.16-.61,1.25-1.37,2.43-2.06,3.64a1,1,0,0,0-.14.32,43.55,43.55,0,0,1-1.51,6.28c-1.64,4.1-.53,8.41-1.24,12.52-2.05,11.75-.34,23.58-1.1,35.34a65.69,65.69,0,0,1-1.47,11.31c-.52,2.15-1.78,4.42-4.73,4.66-.73.05-1.42.84-2.08,1.35-1.95,1.51-3.87,3.06-5.83,4.55a1.81,1.81,0,0,1-1.05.23c-3.77-.05-7.61.31-11.28-.35-2.43-.43-4.88-.68-7.29-1.14-1.82-.36-3.51-1.32-5.3-1.86a10.22,10.22,0,0,0-3-.38c-4.85,0-9.72-.09-14.56.29-2.77.22-5.46,1.47-8.24,1.88-2,.3-4.18,1.08-6.11-.59-.53-.45-1.54-.34-2.11-.78-2.34-1.81-2.46-4.58-1.61-7.43.77-2.54,2.58-3.86,4.28-5.35a10.89,10.89,0,0,1,3.88-1.69c2.48-.79,5-1.44,7.51-2.14.35-.1.72-.11,1.06-.2,3.07-.85,6.19-1.56,9.18-2.64a12.21,12.21,0,0,0,3.87-2.67,3.23,3.23,0,0,0,.49-2.18c0-1.86-.23-3.71-.24-5.56-.05-6.23,0-12.46-.1-18.69-.07-3.09-.5-6.17-.78-9.25-.08-1-.27-2-.27-3,0-9.53-.15-19.07.05-28.6a57.41,57.41,0,0,1,1.5-13.1c.71-2.72.58-5.35,1-8,.36-2.5.5-5.14,1.48-7.4.7-1.61.58-3.18,1-4.72a32.93,32.93,0,0,1,1.58-4.25,41.09,41.09,0,0,1,2-4.1c1.46-2.52,3-5,4.52-7.48.58-1,1-2,1.61-2.93,1.46-2.42,3-4.8,4.42-7.25.74-1.27,1.26-2.66,2-3.94,1.06-1.88,2.68-3.59,3.19-5.59s3.29-3.88.61-6.41c-.54-.5.27-2.44.49-3.72,0-.21.24-.4.31-.61a49.92,49.92,0,0,1,1.61-5.47,34.63,34.63,0,0,1,2.77-4.83c1.06-1.68,2.23-3.28,3.33-4.93,1.43-2.15,2.84-4.31,4.26-6.47.15-.24.41-.44.49-.7.52-1.77.94-3.58,1.53-5.32s1.36-3.43,2.05-5.15a4,4,0,0,0,.12-.52c.51-2.54.68-5.21,1.62-7.57s.9-4.57,1.15-6.88c.1-.9,1.16-1.8,1.06-2.6a44,44,0,0,0-1.44-5.7,16.4,16.4,0,0,1-.79-3.08c-.07-1.29-.34-2.05-1.83-1.91a24.05,24.05,0,0,1-3.06,0,3.41,3.41,0,0,0-3.38,1.48c-.79,1.09-2.39,1.62-3.67,2.33-3,1.66-6.06,3.2-8.53,5.77-1.3,1.36-3.35,2-5,3.05-2,1.32-3.95,2.79-5.93,4.16a34.32,34.32,0,0,1-4.4,2.84c-2.14,1-4.78-.12-6.33-2.73s-3.78-4.58-5.52-7c-.88-1.2-1.34-2.71-2.19-3.93a9.86,9.86,0,0,0-3.06-3.22c-.54-.29-2.52.82-2.81,1.66-.88,2.5-3,3.81-4.66,5.51-1.08,1.09-2.6,1.74-3.74,2.79a20.13,20.13,0,0,0-1.81,2.64c-.71.9-4,1.45-5.09,1a15.68,15.68,0,0,1-2.59-.82c-2.84-1.81-3.54-4.89-4.84-7.77-1.75-3.89.26-7.28.39-10.86.09-2.64,1.51-5.24,2.42-7.83a15.56,15.56,0,0,1,1.36-2.38c-2.35-1-3.29.66-3.66,1.63-1,2.64-3.34,4.15-4.79,6.4a50,50,0,0,1-5.82,7.11,6.42,6.42,0,0,1-3.62,2,25.92,25.92,0,0,1-7.87-.24c-2.68-.59-5.18-2-7.76-3.07-1.28-.52-2.53-1.11-3.84-1.54-1.76-.59-3.61-.93-5.32-1.62-2.43-1-4.76-2.19-7.15-3.26-1.1-.48-2.27-.8-3.36-1.3-2.61-1.21-5.17-2.5-7.78-3.71-1.19-.55-2.46-.93-3.65-1.48s-2.52-1.3-3.76-2c-.93-.49-1.81-1-2.76-1.48-1.29-.57-2.65-1-3.93-1.57-1.11-.51-2.17-1.16-3.24-1.76s-2.08-1.24-3.17-1.74a4.61,4.61,0,0,0-1.63,0c-.12,1-.19,1.88-.34,2.75a60.49,60.49,0,0,1-1.23,6.33c-.51,1.72-1.53,3.27-2.17,5-.56,1.51-.8,3.14-1.38,4.64s-1.5,3.18-2.22,4.78a21.76,21.76,0,0,0-1.21,3,56.62,56.62,0,0,0-1.47,5.73q-.81,4.28-1.32,8.6c-.18,1.6,0,3.24-.12,4.85-.33,3.75-.63,7.52-1.24,11.23-.23,1.39-1.32,2.63-1.94,4a8.45,8.45,0,0,0-.43,1.68c-.26,1.08-.54,2.15-.74,3.23a2.53,2.53,0,0,0,.21,1.1,6.49,6.49,0,0,1,.44,1.12c.24,2.63,1.69,4.5,3.4,6.43s2.89,4.4,4.38,6.56c.8,1.15,1.85,2.12,2.67,3.26,1.14,1.58,2.16,3.26,3.24,4.89,1.41,2.13,2.81,4.26,4.25,6.37s3,4.45,4.63,6.56c1.16,1.5,2.59,2.79,3.85,4.22,1.58,1.8,3.16,3.59,4.64,5.47,2.21,2.79,4.31,5.66,6.5,8.47,1.56,2,3.15,4,4.79,5.92.81.95,1.84,1.71,2.62,2.67s1.87,2.05,2.09,3.21a110.3,110.3,0,0,1,1.57,11.86c.27,3.48.23,6.95.8,10.46.65,4.05.06,8.27.43,12.39.41,4.56,1.29,9.07,1.95,13.61a25.86,25.86,0,0,1,.3,3c.08,3.65,0,7.32.17,11,.24,4.61.94,9.21,1,13.82.15,9.83.09,19.67-.06,29.5a2.7,2.7,0,0,0,1.78,2.52c2.11,1.13,4.63,1.57,6.64,2.82,1.81,1.13,3.73.6,5.44,1.18a25.39,25.39,0,0,1,5,2.94,22.19,22.19,0,0,1,2.85,2,20.19,20.19,0,0,1,3.11,3.23,11.65,11.65,0,0,1,1.43,3.31c1,3.31-1.08,5.48-3,7.67a2.12,2.12,0,0,1-1.31.43c-2.09.18-4.22.14-6.27.52a44.67,44.67,0,0,0-5.56,1.74c-.11,0-.2.15-.31.17-3.82.46-7.51,2.33-11.46,1.27-2-.53-3.86-1.37-5.78-2.08a40.31,40.31,0,0,1-4-1.52c-1.84-.9-3.6-2-5.41-3a15.52,15.52,0,0,0-3.32-1.64,46.18,46.18,0,0,0-7.53-1.47,62,62,0,0,0-9.34-.05,4.33,4.33,0,0,1-4.5-3,8.61,8.61,0,0,1,.42-5.62c.82-2,.61-5.7-1.07-7.06a6.32,6.32,0,0,1-2.18-5.34c0-6.29,0-12.58-.22-18.86-.1-3-.2-6.27-1.26-9.06s-.47-5.37-1.29-7.84c-1-3.09-.56-6.23-1.1-9.29a41.54,41.54,0,0,0-2.15-6.34c0-.11,0-.24-.07-.35a56.33,56.33,0,0,0-1.48-5.82c-.95-2.6-2.17-5.1-3.29-7.64-.93-2.11-1.81-4.24-2.86-6.29a33.1,33.1,0,0,0-2.68-4.26c-2-2.73-4-5.43-6.12-8.09-1.13-1.42-2.42-2.71-3.64-4.07-1.63-1.81-3.2-3.7-4.91-5.43a52.06,52.06,0,0,0-4.07-3.47c-1.08-.9-2.14-1.83-3.3-2.62s-2.62-1.55-4-2.3c-1.17-.66-2.32-1.38-3.53-1.94C175.62,317.05,174.14,316.54,172.85,316Zm-.82-170c1.63.16,3.2-.1,4.27.52,1.68,1,3,2.59,4.5,3.86,2.25,1.9,4.48,3.81,6.83,5.57,2.09,1.55,4.37,2.84,6.49,4.35s3.86,3.09,5.88,4.51c2.43,1.7,5,3.26,7.47,4.88a18,18,0,0,0,1.82,1.21c1.6.77,3.24,1.47,4.86,2.19,1.2.53,2.39,1.06,3.59,1.56s2.64,1,3.91,1.55c1.46.67,2.85,1.5,4.3,2.19,1.28.6,2.62,1.06,3.89,1.67,2.23,1.08,4.41,2.25,6.63,3.33,2,.94,4,1.75,5.94,2.73s4,2.24,6,3.26,4.19,1.89,6.29,2.85c1,.44,1.93.9,2.89,1.38,1.42.71,2.8,1.52,4.26,2.14s2.85.87,4.2,1.47c2.37,1.05,4.68,2.24,7,3.34a24.45,24.45,0,0,0,3.15,1.28c1.87.57,3.9.77,5.64,1.59a22.6,22.6,0,0,0,7.54,2.39c.5.05,1,.56,1.46.59,1.29.07,3.12.54,3.78-.12,2.76-2.75,5.2-5.82,7.69-8.84,1.06-1.27,1.83-2.79,2.91-4a15.53,15.53,0,0,0,3.28-5.76c.42-1.38,1-2.73,1.52-4.09.67-1.73,1.49-3.42,2-5.19.65-2.23,1.06-4.53,1.59-6.79a1.73,1.73,0,0,1,.38-.57c1.5-2.12.33-5.68-2.1-6.4a4,4,0,0,1-.77-.39c-1.16-.62-2.28-1.32-3.49-1.85-2.18-.95-4.47-1.68-6.6-2.75s-3.77-2.32-5.69-3.42-3.68-1.93-5.51-2.92c-2.19-1.19-4.35-2.44-6.55-3.61-.94-.5-2-.87-2.93-1.33-2.38-1.14-4.72-2.36-7.13-3.44-1.36-.61-2.85-.95-4.22-1.54s-2.82-1.44-4.24-2.13-3-1.34-4.52-2.09c-1.9-1-3.76-2-5.65-3-.93-.49-2-.81-2.86-1.36-3.15-1.93-6.24-4-9.4-5.89-2.23-1.34-4.59-2.46-6.83-3.8a10,10,0,0,1-3.92-4.76c-.59-1.33-1.08-2.7-1.57-4.07-.73-2.06-1.83-4.1-2-6.22a8.78,8.78,0,0,0-2.94-5.69,41.25,41.25,0,0,0-10-6.26c-2.5-1.11-5.53-1-8.32-1.48a44.23,44.23,0,0,0-4.59-.56c-4.14-.18-8.29-.28-12.44-.38-.17,0-.34.34-.54.43a4.88,4.88,0,0,1-4.39,0c1.27-2.63,3.28-3.39,5.91-3.29,3.53.13,7.07,0,10.61,0,.6,0,1.21-.06,1.81-.09l.16-.46c-.67-.62-1.32-1.28-2-1.87-1.51-1.24-3.06-2.43-4.56-3.68-.94-.78-1.79-1.67-2.74-2.44-2.33-1.91-4.71-3.76-7-5.67-2.12-1.74-4.14-3.61-6.33-5.26a2.28,2.28,0,0,0-2.18,0,38.51,38.51,0,0,0-3.79,4.75c-1.07,1.53-1.7,3.47-3,4.72-1.62,1.55-2.69,3.8-5.43,4.18-1.88.27-3.59,1.64-5.48,2a8.57,8.57,0,0,0-4.49,2.68,40,40,0,0,0-4.45,5.66,47.91,47.91,0,0,0-3.13,5.66c-.66,1.35-1.08,2.83-1.67,4.23s-1.48,3-2,4.54a64.26,64.26,0,0,0-2.26,7.76c-.58,2.89-.25,5.9-1.42,8.78-.9,2.22-1.06,4.74-1.7,7.09-.55,2.05-1.26,4.06-2,6.06a53.74,53.74,0,0,1-2.8,7c-1,1.76-2.12,3.36-2.33,5.43a3.55,3.55,0,0,1-.26.82c-.69,2-1.89,4-2,6-.27,5.92-.11,11.86-.1,17.8a7.2,7.2,0,0,0,.18,1.6c.72,3.3,1.53,6.58,2.18,9.9.26,1.28,0,2.67.31,3.92.49,1.88,1.59,3.63,1.92,5.52.67,3.83,1,7.71,1.44,11.57a13.23,13.23,0,0,0,0,1.79,3,3,0,0,0,1,1.61c2,1.37,4.09,2.6,5.47,4.68a23.7,23.7,0,0,0,1.86,2.49c1.77,2,3.51,4.1,5.4,6a55.52,55.52,0,0,0,5.59,5.05c1.59,1.21,3.47,2,5.17,3.09,1.54,1,2.87,2.38,4.52,3,2.83,1.15,5.84,1.87,8.77,2.78.22.06.44.15.66.22a63.32,63.32,0,0,0,6.77,2,35.38,35.38,0,0,0,6.27.32,2.5,2.5,0,0,0,1.73-.58c1.38-1.64,2.56-3.45,3.94-5.1,1.6-1.92,3.25-3.83,5-5.58,2.32-2.29,4.86-4.35,7.2-6.62s4.77-4.87,7.13-7.33c2.07-2.17,4.17-4.33,4.21-7.63a1.81,1.81,0,0,1,.37-.75c.62-1.06,1.61-2.06,1.8-3.2.38-2.25,1.59-4,2.5-6a37.59,37.59,0,0,0,2.53-7.52,71.35,71.35,0,0,0,1.36-9.2c.21-2.43-.52-3.14-2.84-3.89a29.67,29.67,0,0,1-3.48-1.5c-1.4-.66-2.75-1.44-4.17-2.07-2.17-1-4.47-1.69-6.56-2.81-2.48-1.33-4.82-2.93-7.17-4.49-2.79-1.86-5.54-3.79-8.29-5.72s-5.4-3.82-8.08-5.77c-1.51-1.09-3-2.23-4.44-3.4-1.74-1.4-3.5-2.8-5.16-4.31A8.94,8.94,0,0,1,172,146.07ZM370.59,277.83a8.78,8.78,0,0,1-.62,2.09c-.6,1.08-1.42,2-2.06,3.09-1.09,1.81-2.1,3.66-3.16,5.48s-2.1,3.5-3.11,5.27-1.76,3.32-2.71,4.93c-1.08,1.83-2.5,3.5-3.31,5.43-.91,2.18-3,3.88-2.77,6.54,0,0-.05.11-.07.16-.71,1.61-1.73,3.16-2,4.84-.52,2.73-.09,5.53-1.2,8.32-1,2.37-.5,5.15-1.2,7.79A52.35,52.35,0,0,0,347,343.9c-.18,10.18-.17,20.38-.05,30.57,0,3.42,1,6.84.91,10.25-.07,4.28.67,8.55-.57,12.91-.65,2.3.49,5.09.72,7.66.14,1.55.08,3.12.14,4.68a2.17,2.17,0,0,0,.25,1.2c1.16,1.59,2.33,3.18,3.62,4.67s2.42,3.11,4,4.05a38.85,38.85,0,0,0,6.54,2.58c2.52.93,5.05,1.8,7.56,2.76,1,.37,1.87.94,2.82,1.36,1.72.75,3.45,1.47,5.18,2.18a7.57,7.57,0,0,0,2.25.79c1.06.08,2.62.26,3.1-.32a7.65,7.65,0,0,0,1.71-4.09c.48-6.67.79-13.35,1.05-20,.17-4.43.29-8.88.16-13.31a144.35,144.35,0,0,1,1.38-24.05,2.63,2.63,0,0,1,.12-.7c.73-1.47,1.85-2.85,2.15-4.4.65-3.29,2.3-6.05,3.93-8.85.32-.57.84-1,1.15-1.59.63-1.19,1.1-2.48,1.78-3.65,1.45-2.49,3-4.92,4.49-7.39.81-1.34,1.58-2.69,2.34-4.05a24.08,24.08,0,0,0,2.38-4.51,42.51,42.51,0,0,0,1.27-7c.21-1.72-.23-3.64,2.2-4.22,1.89,1.39,2.14,2.48,1.09,4.77a5,5,0,0,0-.53,1.69c-.43,6.17.27,12.37-1,18.53-.78,3.73,0,7.56.86,11.27.46,2.11.52,4.52,1.63,6.23,1.41,2.19.52,4.75,2,6.9,1,1.47,1,3.61,1.5,5.44.05.16.2.28.27.44.71,1.49,1.45,3,2.12,4.48s1.28,3.21,2,4.76c.87,1.8,2,3.48,2.75,5.33,1.07,2.8,1.87,5.7,2.78,8.56.42,1.31.79,2.64,1.25,3.93.73,2,1.64,4,2.24,6.05s.93,4.2,1.39,6.31a6.53,6.53,0,0,0,.31.84c.67,1.89,1.34,3.77,2,5.66.56,1.63,1.14,3.25,1.63,4.9.75,2.54,1.5,5.09,2.12,7.66.34,1.38.24,2.87.62,4.23.46,1.63,1.28,3.16,1.83,4.76.61,1.81.93,3.72,1.67,5.46a28.23,28.23,0,0,1,2.27,7.65,25.61,25.61,0,0,0,1.58,5.64c1,2.71,2.16,5.37,3.31,8,.71,1.65,1.61,3.14,3.47,3.79a30.93,30.93,0,0,1,3.65,1.58c2.1,1.05,4.15,2.23,6.27,3.26,1.23.59,2.62.87,3.83,1.51,2.6,1.37,5.47,1.63,8.28,2.11a12.12,12.12,0,0,0,3.94,0c1.94-.33,3.83-.94,5.73-1.45a.65.65,0,0,0,.37-.36c.72-1.6,1.91-2.94,1.7-5-.3-3,0-6-.24-9a18.91,18.91,0,0,0-1.53-5c-.58-1.51-1.44-2.9-2-4.4s-.88-2.82-1.39-4.21c-.78-2.15-1.64-4.27-2.44-6.42-.54-1.45-1-2.94-1.57-4.39-1-2.64-2.22-5.22-3.12-7.9-1-2.91-1.65-5.91-2.51-8.85-.78-2.65-1.81-5.23-2.41-7.91-.67-3-1-6.07-1.45-9.11-.46-3.2-.86-6.41-1.29-9.61a4.28,4.28,0,0,0-.15-.51c-.36-1.35-.75-2.7-1.06-4.06-.13-.57,0-1.21-.16-1.78-.7-2.65-1.59-5.25-2.17-7.92-.62-2.92-1-5.9-1.44-8.86a5.83,5.83,0,0,0-.15-.7c-.72-2.57-2-5.12-2.05-7.7-.09-5.32-.77-10.63.62-16,1-3.9.35-8.12,1.51-12.14.72-2.49-.08-5.23,1.06-7.84a24,24,0,0,0,1.42-6.72c.56-4.7.93-9.42,1.39-14.13a33.92,33.92,0,0,1,.44-3.38c.63-3,1.35-5.89,2-8.85.32-1.47.58-3,.81-4.46a1.75,1.75,0,0,0-.28-1c-1-1.92-3-2.19-4.79-2.29-3.76-.19-7.55,0-11.32-.23a3.72,3.72,0,0,1-2.77-1.67c-.84-2-1.83-4.08-1.46-6.43a4,4,0,0,0-.14-1.6c-.73-2.87-1.5-5.74-2.25-8.61-.51-2-.88-4-1.56-5.86a33.59,33.59,0,0,1-2.3-8.87c-.12-1.74-1-3.44-1.53-5.14,0-.08-.31-.07-.71-.14-.06,1-.11,1.89-.18,2.82a7.6,7.6,0,0,1-.2,1.59c-.7,2.26-1.63,4.46-2.1,6.76-.51,2.46-.47,5-1,7.51-1,4.92-1.16,10-1.65,15.06a18.8,18.8,0,0,1-.26,3.21,4.49,4.49,0,0,1-1.54,2.6c-3,1.65-6.39,2-9.69,2.58a16.15,16.15,0,0,1-3.4.28c-2.69-.09-5.48.13-8-.56-2.15-.59-3.76-1.44-6,.11-2,1.35-4.65,1.73-7,2.58-1.94.69-3.85,1.45-5.82,2.2a12.19,12.19,0,0,1-.91-2.13,8.18,8.18,0,0,1-.18-2.47c.14-1.74.42-3.46.58-5.2a1,1,0,0,0-.56-.78c-1.26-.49-2.56-.87-3.83-1.34-1.08-.4-2.1-1.15-3.19-1.24a5.34,5.34,0,0,1-3.45-2c-1.68-1.74-3.19-3.65-5-5.22C373.14,278.37,372.36,276.59,370.59,277.83ZM144.37,262.91c-2.39,3.29-4.56,6.55-7,9.57a27.64,27.64,0,0,1-5.23,4.84c-2.1,1.53-4.49,2.64-6.7,4-1,.6-2.17,1.23-2.57,2.15a34.36,34.36,0,0,0-1.41,5.41c-.49,1.9-1,3.81-1.55,5.69a18.89,18.89,0,0,1-1.14,2.8c-1.14,2.32-2.29,4.64-3.5,6.93a43.27,43.27,0,0,1-2.93,5.13c-1.51,2.13-3.55,3.79-4.92,6.14-1.25,2.16-3.42,3.8-5.24,5.62-1.34,1.33-2.78,2.56-4.16,3.87-2.43,2.29-4.78,4.67-7.27,6.9-1.64,1.47-3.48,2.7-5.17,4.1-2.87,2.37-5.69,4.78-8.53,7.18-1.79,1.52-3.55,3.1-5.39,4.57-2.27,1.82-4.61,3.54-6.89,5.34-1.39,1.1-2.72,2.26-4.06,3.41-2,1.7-3.93,3.42-5.9,5.13-2.2,1.91-4.45,3.76-6.6,5.72s-3.93,3.73-5.83,5.67c-1.4,1.43-2.71,2.94-4,4.45q-3.49,4-6.93,8c-1,1.15-1.91,2.33-2.8,3.55-1.18,1.63-2.23,3.37-3.47,5-1.77,2.29-3.73,4.43-5.48,6.72-1.4,1.82-2.54,3.85-4,5.66-1,1.26-1.58,3.44-.69,4.5,1.64,1.95,3.43,3.76,5.23,5.55,1.95,1.95,3.94,3.86,6,5.7,2.47,2.21,4.95,4.44,7.59,6.44a40.64,40.64,0,0,0,5.24,3c2,1.08,4,2.16,6,3.16a1.91,1.91,0,0,0,1.57,0c1.79-1.19,3.9-2.19,5.16-3.83,2.49-3.26,5.95-5.55,8.12-9.17,1.78-3,4.59-5.35,6.91-8s4.91-5.6,7.23-8.51a45.41,45.41,0,0,0,2.75-4.5,28.78,28.78,0,0,1,1.79-2.79c.88-1.11,2.2-2,2.8-3.2,1.69-3.46,4.69-5.63,7.4-8.09,1.56-1.42,3.3-2.62,5-3.9,2.11-1.61,4.2-3.25,6.36-4.77,1.47-1,3.09-1.85,4.58-2.85,2.78-1.86,5.47-3.87,8.29-5.67s6.17-3.41,9-5.45c3-2.15,5.73-4.7,8.53-7.12s5.6-4.94,8.39-7.42c4.28-3.8,8.6-7.56,12.81-11.43a51.65,51.65,0,0,0,5.08-5.38c1.54-1.88,2.81-3.95,4.22-5.93,1-1.45,2-2.95,3.15-4.31,1.7-2,3.77-3.81,5.26-6a35.12,35.12,0,0,1,7.63-8c-.1,1.89-.17,3.28-.26,4.93a9.73,9.73,0,0,1,1.39.55c2.06,1.12,4.1,2.27,6.14,3.43a44.64,44.64,0,0,1,4.81,2.88,31.85,31.85,0,0,1,3.21,3.35c2.62,2.71,5.33,5.34,7.88,8.11,1.82,2,3.45,4.14,5.13,6.24,1.25,1.55,2.54,3.09,3.66,4.73a44,44,0,0,1,2.88,4.86c.91,1.74,1.43,3.72,2.5,5.34s2.27,3.43,2.38,5.59a2,2,0,0,0,.22.67c.71,1.67,1.52,3.3,2.12,5s.74,3.52,1.52,5.07c1.46,2.91,1.29,6.14,2.08,9.17.53,2,.16,4.31.52,6.42.51,3,1.62,5.9,1.93,8.91.67,6.45,1.05,12.94,1.45,19.43.17,2.74.06,5.51.11,8.27,0,2.36.14,2.58,2.42,2.44,5.73-.37,11.47.65,17.2-.95,3.27-.92,6.88.19,10.27-1.32,2.18-1,4.74-1.09,7.13-1.59a2.69,2.69,0,0,0,.13-.55c-.55-13.18,1-26.42-1.09-39.57-.88-5.61.37-11.35-1.27-17-1-3.51-.52-7.35-1.05-11.07-1.05-7.41-1.05-15-1.35-22.49a44.56,44.56,0,0,0-1.64-11.51,8.91,8.91,0,0,0-2.08-3c-1.25-1.42-2.75-2.62-3.94-4.09-2.47-3.05-4.79-6.23-7.21-9.33-1.37-1.74-2.83-3.42-4.22-5.14-.62-.76-1.12-1.63-1.78-2.35-1.37-1.5-2.92-2.85-4.21-4.42s-2.5-3.66-3.91-5.35a3.34,3.34,0,0,0-2.41-1.25,8.51,8.51,0,0,0-3.49,1.53c-1.95,1.36-3.66,3.07-5.65,4.35-2.36,1.52-4.9,2.75-7.38,4.08-1.25.67-2.27,1.44-2.06,3.09a3.26,3.26,0,0,1-.15,1.42c-.73,2-1.52,4-2.26,6.06-.48,1.33-.83,2.72-1.39,4-1.07,2.47-2.35,4.85-3.34,7.34-1.12,2.81-3.86,3.66-6.22,1.81a17.54,17.54,0,0,0-2.41-1.58c-1.52-.87-3.12-1.61-4.62-2.52a3.62,3.62,0,0,1-1.71-4.58A24.49,24.49,0,0,1,189,305c1-1.54,2.06-3.09,3.1-4.63l-.35-.52h-7.31c-11.81,0-23.62.11-35.42.11-3,0-4.2-1.34-4-4.38.11-1.7.83-3.38.85-5.08.1-8.45.07-16.9.07-25.35A2.14,2.14,0,0,0,144.37,262.91Zm273.22-156,.49-.53c.6.55,1.61,1,1.74,1.64.59,2.88.87,5.81,1.39,8.7a38.57,38.57,0,0,0,1.41,5.6,46.6,46.6,0,0,0,2.17,4.65c.41.84.92,1.65,1.25,2.52.52,1.4.88,2.85,1.42,4.24a19.37,19.37,0,0,0,1.66,3.61c1.78,2.8,3.71,5.5,5.54,8.28,1.29,2,2.44,4,3.75,6,2.08,3.07,4.24,6.09,6.37,9.13,1.74,2.49,3.44,5,5.23,7.46,1.5,2.07,3.06,4.09,4.66,6.09.2.24.86.25,1.25.15.61-.15,1.2-.75,1.75-.69a24.13,24.13,0,0,1,2.88.85c2.87.66,5.75,1.26,9.08,2-.16.55-.37,1.9-.6,1.9a31.83,31.83,0,0,1-6.4-.39,44,44,0,0,1-5.3-1.88,3.53,3.53,0,0,0-1.33.16c.2.36.43.7.6,1.07s.31.86.5,1.27c.56,1.23,1.14,2.44,1.74,3.73,1.59-1.67,2.51-1.74,4.39-.58a2.33,2.33,0,0,0,1.15.34c2.4.05,4.8.08,7.19,0a6.72,6.72,0,0,0,1.47-.5c.78-.22,1.58-.41,2.37-.61l.37,1.95c-5.45,2.63-10.69,2-16.23.16a21.52,21.52,0,0,0,.36,2.56c.22.75.69,1.42.91,2.17a50.58,50.58,0,0,0,1.44,5.24,30,30,0,0,1,2.38,9.22c.26,3.28.78,6.55,1.19,9.83,0,.23,0,.59.17.67,1.44.78.94,2.14,1,3.33s.15,2.39.34,3.56.6,2.48.84,3.73c.5,2.64,1,5.29,1.43,7.93a.42.42,0,0,0,.05.17c2,2.35.76,5.44,1.88,8.1.64,1.49.89,2.25,2.49,1.94,3.05-.59,6-1.6,9.22-1.26a15.59,15.59,0,0,0,3-.1c3.6-.36,7.19-.93,10.8-1.1,3.86-.19,5.89-1.94,5.95-5.79,0-2.69,0-5.39-.09-8.08A47.47,47.47,0,0,0,501.73,214c-.66-2.41-1-4.91-1.56-7.35-.33-1.47-.79-2.91-1.17-4.36-.76-2.85-1.57-5.7-2.25-8.57-.55-2.32-.94-4.67-1.4-7a4.19,4.19,0,0,0-.2-.49c-.68-1.82-1.46-3.6-2-5.45-.64-2.19-1-4.44-1.6-6.64a28.8,28.8,0,0,0-1.22-3.75c-1.06-2.58-2.23-5.11-3.31-7.67-1-2.39-1.91-4.83-3-7.2-1.47-3.3-3.14-6.52-4.53-9.85a48.36,48.36,0,0,1-1.58-5.51,5.56,5.56,0,0,0-.39-1c-.62-1.19-1.3-2.34-1.87-3.55s-1-2.6-1.59-3.82c-1-2-2.31-3.86-3.2-5.9-1-2.37-1.73-4.87-2.58-7.31-.91-2.59-1.81-5.19-2.75-7.77-.38-1-.85-2-1.31-3-1.12-2.36-2.27-4.71-3.41-7.06-.4-.85-.82-1.69-1.18-2.55-.55-1.31-1-2.69-1.6-3.94-1.89-3.61-4.05-7.1-5.73-10.8a12.52,12.52,0,0,0-3.5-4.17A44.5,44.5,0,0,0,444.48,76c-1.45-1-3-1.82-4.51-2.76-1.74-1.09-3.48-2.18-5.18-3.34-2-1.33-3.82-2.77-5.77-4.11-2.14-1.48-4.38-2.81-6.47-4.35-1.92-1.41-3.71-3-6-4.89-1.92,3-3.61,5.68-5.32,8.34-.7,1.1-1.46,2.17-2.13,3.28-.91,1.52-1.82,3-2.63,4.6-1,2-1.89,4.08-3,6-1.52,2.79-3.23,5.49-4.75,8.28a24.13,24.13,0,0,0-1.24,3.4q-1.2,3.44-2.41,6.85a3.93,3.93,0,0,1-.3.62c-1,1.69-2.24,3.26-2.19,5.38a2.23,2.23,0,0,1-.27.8c-.69,1.56-1.41,3.11-2.06,4.68s-1.09,3.08-1.8,4.55c-1,2-2.17,3.94-3.14,6-1.05,2.19-2,4.45-2.9,6.7-.75,1.81-1.44,3.64-2.14,5.47-.13.33-.13.71-.25,1-.7,2-1.4,3.93-2.13,5.88a27.6,27.6,0,0,0-1.3,3.28c-.54,2.26-.91,4.56-1.37,6.85-.05.29-.22.55-.29.84-.7,2.75-1.91,5.48-2,8.24-.11,5.15-1.17,10.42,1,15.47.67,1.58,1,3.32,1.5,5a8.26,8.26,0,0,0,1.21,2.58c1.71,2.11,3.53,4.13,5.36,6.13s3.81,4.27,4.74,7.12a3.12,3.12,0,0,0,2.08,1.74c3.12.55,6.28.23,9.49,1.06,4.26,1.11,8.8,1.25,13.23,1.49a6.25,6.25,0,0,1,5.07,2.3,3.15,3.15,0,0,1,.08,4.13,7.12,7.12,0,0,1-5,2.39,7.71,7.71,0,0,0-1.92.53,96.94,96.94,0,0,0-19.51-1.73,43.5,43.5,0,0,0,0,5.38c.3,2.31,1.59,3.2,3.89,3.2a8.63,8.63,0,0,1,3.35.31c2.24,1,4.32,2.28,6.53,3.3a2.55,2.55,0,0,0,2.08-.09,13.45,13.45,0,0,1,7.34-2.21c2.16,0,4.32,0,6.48-.07a26.89,26.89,0,0,0,3.92-.27c3.63-.66,7.22-1.51,10.85-2.1a42.83,42.83,0,0,1,5.2-.18,6.22,6.22,0,0,0,1.94-.23c1.82-.66,3.55-1.74,5.42-2.08,2.48-.44,4.16-2.08,6.1-3.32s3.59-2.83,5.46-4.16a5.45,5.45,0,0,0,1.75-6c-.95-2.51-1.6-5.14-2.37-7.72-.07-.22,0-.5-.09-.71-.82-2-1.66-3.92-2.51-5.86-.39-.88-.85-1.72-1.24-2.59a19.62,19.62,0,0,0-1.2-2.77c-1.15-1.75-2.45-3.4-3.68-5.09s-2.58-3.61-3.91-5.39c-2.28-3.06-4.66-6.06-6.87-9.17-1.49-2.1-2.71-4.38-4.14-6.52-1.09-1.63-2.36-3.15-3.46-4.77-1.27-1.89-2.47-3.83-3.65-5.77a34.87,34.87,0,0,1-2.4-4.3c-.67-1.57-.91-3.33-1.59-4.9-1-2.37-2.48-4.57-3.37-7a44,44,0,0,1-2.45-8.9C417.26,112.88,417.59,109.85,417.59,106.87Zm46.69,112.27a11,11,0,0,0-2.65.6c-1.84.95-3.62,2-5.76,2.16a2.3,2.3,0,0,0-.85.24,60.18,60.18,0,0,1-6,3.18,53.87,53.87,0,0,1-8.16,2.43c-2.12.46-4.25.65-6.39,1.28-3.26,1-6.8,1.07-10.23,1.41-1.79.17-3.6,0-5.39.11a7.76,7.76,0,0,0-2.07.46c-1.78.6-3.53,1.27-5.29,1.91-1.22.44-2.49.79-3.66,1.34a2.83,2.83,0,0,0-1,3.27,5.17,5.17,0,0,1,.66,2.08c.08,8,.19,16.08.09,24.11,0,3.7.13,7.35-.87,11.11-1.18,4.43-1.1,9.2-1.47,13.83a1.75,1.75,0,0,0,.86,1.4,21.44,21.44,0,0,0,3.62,1.14c1.84.46,3.68.91,5.54,1.23,4,.69,7.76-1,11.66-1.36a2.53,2.53,0,0,0,1.71-1.57,49.37,49.37,0,0,0,1.18-6.4c.24-1.9.17-3.83.43-5.72.64-4.66,1.42-9.3,2.1-13.95a32.2,32.2,0,0,1,.38-4.09c.48-1.77,1.76-3.41,1.9-5.16a60.71,60.71,0,0,1,1.41-8.6c.47-2.12,1.39-3,3.7-2.48a17.41,17.41,0,0,0,.4,3.14c.6,1.93,1.58,3.76,2,5.71.51,2.14.57,4.35,1.08,6.54a37.23,37.23,0,0,0,1.63,6.62,23.9,23.9,0,0,1,1.34,4.57c.48,2.17,1.59,4.21,2.08,6.38.66,3,1,6,1.43,9,.35,2.67,3.45,4.19,6,3.19,1.17-.46,2.69-.08,4.05,0,.45,0,.89.36,1.35.37q3.94.12,7.91.13a11.39,11.39,0,0,0,1.83-.33c-.63-.82-.94-1.56-1.49-1.88a7.34,7.34,0,0,1-3.84-6.64,4.79,4.79,0,0,0-2.19-4c-2.21-1.43-3-3.25-1.91-5.93a7.27,7.27,0,0,0,.35-1.55,28.9,28.9,0,0,1,.7-4.39c.5-1.6,1.72-3,2-4.63a15.53,15.53,0,0,1,2.28-5.21c.92-1.61,1.75-3.28,2.54-5a2.18,2.18,0,0,0-.07-1.35,14.45,14.45,0,0,1-.89-2.88c-.14-2.81,0-5.64-.13-8.45a8.78,8.78,0,0,0-.66-2.14,45.3,45.3,0,0,1-1.66-5.27C465.21,225.94,464.82,222.72,464.28,219.14ZM126.62,232.93c-1.33,1.86-2.69,3.67-3.94,5.55-.83,1.26-1.43,2.67-2.27,3.92-1.67,2.49-3.43,4.92-5.17,7.36a16.85,16.85,0,0,0-3,6.17c-.26,1.18-.88,2.49-.59,3.53a41.87,41.87,0,0,0,2.69,6.56c1,2.07,2.19,4,3.24,6.07.82,1.59,1.49,3.27,2.35,4.84a4.34,4.34,0,0,0,5.81,1.49c1.59-1.08,3.09-2.29,4.67-3.38a23.9,23.9,0,0,0,7.26-7.28c.55-.9,1.08-1.82,1.7-2.67,1.47-2,2.93-4,4.49-6a11.52,11.52,0,0,1,2.54-2.34c1.23-.83,2.3.27,2.29,2.26-.1,12.17-.18,24.33-.31,36.5,0,1.28.16,2,1.72,2,10.79-.08,21.58-.07,32.37-.11,1.89,0,2.59-1.43,1.64-3.1a9.78,9.78,0,0,1-.82-2,41,41,0,0,0-1.37-4.58,23.54,23.54,0,0,1-2.29-9.27c-.07-4.77-.15-9.55-1.33-14.21-.13-.5-.65-1.23-1.05-1.28a42.21,42.21,0,0,1-9.28-2.45,52.83,52.83,0,0,1-8.4-3.71,48.16,48.16,0,0,0-8.08-3.67c-3-1-5.12-3.28-7.72-4.86-1.53-.92-3-2-4.5-2.93a18.61,18.61,0,0,1-2.73-1.56,59,59,0,0,1-4.45-4.5C130.31,237.28,128.65,235.27,126.62,232.93ZM235.92,53a14.5,14.5,0,0,0,4.4-8.91,21.48,21.48,0,0,0-2.18-12.82c-1.13-2.06-1.87-4.34-2.86-6.5a14.45,14.45,0,0,0-1.81-3.3c-1.84-2.22-3.47-4.65-6.46-5.69-2.35-.83-4.43-2.63-6.8-3.09a84,84,0,0,0-12.88-1.25,11,11,0,0,0-5,1.41,39.72,39.72,0,0,0-4.82,3.32c-.57.4-1.16.79-1.69,1.24-1.28,1.09-2.91,2-3.71,3.39-1,1.71-2.79,2.85-3.14,5.08-.29,1.85-1.38,3.56-2,5.36-.2.55,0,1.25-.26,1.76a23.67,23.67,0,0,0-2,8.94c-.26,4.46-.55,9,.77,13.49.64,2.16.21,4.65.22,7a3,3,0,0,0,2.8,3.25,3,3,0,0,0,3.33-2.7c.09-1.85,1.1-3.49.31-5.62-1.17-3.14,1-6.2,1.36-9.35,0-.22.35-.44.59-.61,1.55-1.09,2.42-3.32,4.88-2.9.14,0,.32-.35.53-.43.59-.23,1.37-.75,1.77-.55a28.72,28.72,0,0,1,5.41,3.14c1.81,1.45,1.54,3.72,1.5,5.81,0,1.83,0,3.66,0,5.65A16.49,16.49,0,0,0,212.1,58a3.78,3.78,0,0,0,2.05-1.8,16.68,16.68,0,0,0,1.17-3.58,12.75,12.75,0,0,1,4.24-6.21c1.85-1.61,5.13-1.75,6.76-.11A39.77,39.77,0,0,0,235.92,53ZM14.46,416.7c-1.69,2.45-3,4.69-4.68,6.66a13,13,0,0,1-3.85,2.94c-1.72.91-2.74,2.95-1.91,4.43s1.56,2.89,2.27,4.37c.53,1.13.92,2.33,1.41,3.48.68,1.56,1.77,3.06,2,4.69.67,4.3,1,8.66,1.42,13,.07.71,0,1.44,0,2.15.31,2.43.66,4.92,2.41,6.75a16.48,16.48,0,0,0,3.57,2.28c2.38,1.47,4.63,3.26,7.18,4.31a22.46,22.46,0,0,0,7.41,1.47c5.5.23,11,.07,16.53.16,1.8,0,2.66-.8,2.47-2.45a4.31,4.31,0,0,0-1.28-2.51c-2.2-2-4.78-3.53-6.34-6.15-1.16-1.95-2.32-3.9-3.45-5.87a18.28,18.28,0,0,1-1.26-2.5c-.59-1.51-1-3.11-1.64-4.59-1-2.2-2.42-4.24-3.11-6.51a59.29,59.29,0,0,1-1.37-7.92c-.24-1.54.27-2.95-2-4.09-3-1.5-5.3-4.28-7.83-6.59C19.75,421.73,17.09,419.17,14.46,416.7ZM183.38,70.16c.78.75,1.6,1.48,2.37,2.26,2.2,2.22,4.26,4.63,6.63,6.66,2.8,2.39,5.88,4.44,8.81,6.68,1.93,1.49,3.73,3.16,5.74,4.53,1.78,1.22,3.61,2.31,5.33,3.66,2.1,1.65,5.32-.25,6-2.93a13.73,13.73,0,0,1,1.7-3.26c.57-1,1.25-2,1.79-3,.64-1.19,1-2.61,1.84-3.6a5.3,5.3,0,0,1,3.11-1.75A4.88,4.88,0,0,0,230.78,77a4.24,4.24,0,0,0,.41-2.37c-.09-1-.67-1.86-.73-2.81a62.07,62.07,0,0,1,0-6.82,35.35,35.35,0,0,1,.84-3.88,9.24,9.24,0,0,1,1.49-3.59c1.09-1.64-.94-2.2-1.82-2.91-2.5-2-5.15-3.87-7.81-5.7a1.87,1.87,0,0,0-1.66,0c-3.07,1.88-3.52,5.32-4.64,8.3a5.11,5.11,0,0,1-3.51,3.35,19.59,19.59,0,0,1-6.4.21c-2.17-.22-3.51-4.73-2.09-6.4a2.24,2.24,0,0,0,.65-1.46,13.58,13.58,0,0,0-1-2.93c-1-2.41-2.55-3.26-5.16-2.89a4.76,4.76,0,0,0-3.54,4.13c-.11,2-.08,4-.09,5.92,0,2.3.31,4.66-1.25,6.65-1.34,1.69-1.86,4.23-4.65,4.46-.33,0-.63.49-.92.73C185.91,67.56,185.26,67.69,183.38,70.16ZM360.79,53.27l-.23.57a7.71,7.71,0,0,1,2.43,6.6,7.83,7.83,0,0,0,.35,2.11,26.51,26.51,0,0,1,.75,3.58c.12,2,.05,4,0,5.93,0,4.72,0,4.72,4.67,4.71,1.72,0,3.34-.16,4.78,1.42,2.07,2.27,3.87,4.55,4.45,7.66.32,1.76,2.49,3.18,4.31,3.11a7.91,7.91,0,0,1,1.93.24A5,5,0,0,0,390.12,86a14.45,14.45,0,0,1,1.87-3c.9-1.26,1.78-1.37,2.55.14a2.53,2.53,0,0,0,.43.5c-2.3,2.28-2.86,4.37-1.74,6.32,5.44-9.59,10.88-19.19,16.52-29.16-1.86-.47-3.77-.81-5.58-1.44-1.35-.47-3.1-1-3.74-2.06a10.15,10.15,0,0,1-1.61-6.58c.24-1.92-1.11-3.31-2-4.83a2.77,2.77,0,0,0-1.25-1.26,3,3,0,0,0-3.83,1.43,2.94,2.94,0,0,0,.54,3.73,5.77,5.77,0,0,1,1.44,2.82,2.53,2.53,0,0,1-.6,2.17A13.6,13.6,0,0,1,389,56.92a7.88,7.88,0,0,1-3.74,0,3.53,3.53,0,0,1-2.25-1.56,37.59,37.59,0,0,1-1.76-5.16c-1.71.55-3.22,1.07-4.75,1.53-1.89.57-3.78,1.19-5.71,1.58a40.38,40.38,0,0,1-4.5.47Zm-49,135.06c2.44,0,4.4,0,6.36,0,2.87-.05,5.34.5,6.81,3.4,1.29,2.54,3,4.84,4.24,7.41a46.56,46.56,0,0,1,2,6.52c.88-.07,2.24.22,2.89-.32,1.5-1.25,2.61-.94,4.07-.07a2.93,2.93,0,0,0,2.49,0c1.41-.75,2.57-1.1,4,0a2.21,2.21,0,0,0,2.11.08,7.28,7.28,0,0,0,2.23-3.11c.49-1.79,1.42-1.71,2.41-1.44l1.83,4.81c1.91.36,2.39-.56,2.34-2.09s0-2.76,0-4.14a13.06,13.06,0,0,1,2.18-6.84c.77-1.23,1.65-2.41,2.49-3.62-1.06-.59-2.08-1.16-3.12-1.71-2.48-1.3-5-2.57-7.46-3.88-.71-.37-1.35-.86-2.08-1.17-1.37-.6-2.79-1.07-4.15-1.68s-2.78-1.39-4.17-2.09a42.41,42.41,0,0,0-4.07-2c-1.79-.67-3.66-1.14-5.5-1.69a30.83,30.83,0,0,1-4.81-1.48c-1.72-.83-3.21-2.14-4.89-3.09-1.44-.82-2.69,0-2.83,1.63a13,13,0,0,1-.29,2.66c-.69,2.37-1.5,4.71-2.28,7.06-.18.55-.38,1.09-.59,1.62C313.31,184.76,312.63,186.38,311.83,188.33Zm-81.27,239.1c-.06.7-.09,1.11-.13,1.52-.16,1.78.08,3.48-1.05,5.25-1.47,2.29,0,4.45,2.68,4.58,4.53.23,9.11-.26,13.56,1.08,2,.6,4.2.77,6.08,1.64,3.12,1.45,5.63,4.07,9.13,4.93,1.95.49,3.77,1.64,5.73,1.94a48.91,48.91,0,0,0,7.17.16,4.24,4.24,0,0,0,1.21-.23c2.35-.75,4.66-1.7,7.06-2.22,1.67-.37,3.48,0,5.19-.24a4,4,0,0,0,2.46-1.47c1.06-1.54-.46-5.78-2.15-6.86-1-.62-1.78-1.5-2.72-2.16a19.73,19.73,0,0,0-4.53-2.87,47.15,47.15,0,0,0-6.85-1.35,1.85,1.85,0,0,1-.66-.23c-1.1-.68-2.17-1.41-3.28-2.06-2.27-1.34-4.76-2.4-6.79-4-1.67-1.33-3.21-1-4.85-.63-2.07.52-4,1.58-6.13,1.84-4.57.56-9.19.8-13.79,1.11C235.47,427.29,233,427.33,230.56,427.43Zm243.2-146.1a25.19,25.19,0,0,0,1.82-3.22c.91-2.45,1.61-5,2.51-7.46a68.09,68.09,0,0,1,2.68-6.49c.3-.62,1.25-.92,1.91-1.36a7,7,0,0,1,.46,2c-.06,1.11.08,2.18-1,3.2-.87.81-.95,2.43-1.44,3.66-.37.91-.87,1.76-1.25,2.66-.82,1.94-1.64,3.9-2.4,5.87a4,4,0,0,0-.21,1.58c0,.29.31.56.48.83.27-.17.67-.27.79-.51.53-1.07.87-2.25,1.47-3.27a36.29,36.29,0,0,0,3.62-8.42,5.32,5.32,0,0,1,.65-1.25,18.83,18.83,0,0,0,1.6-2.53c.81-1.92,1.72-2.16,3.37-.72-.64,1.42-1.27,2.85-1.95,4.26-.35.71-.91,1.32-1.19,2.05-.95,2.49-1.74,5-2.76,7.5-.49,1.19-1.49,2.16-2,3.34a2.78,2.78,0,0,0,.26,1.93,10.39,10.39,0,0,0,3.52-.18c.41-.11.61-1.08.91-1.66.11-.19.24-.38.36-.56a31.93,31.93,0,0,0,2-3.22c.64-1.31.85-2.86,1.61-4.08a18.26,18.26,0,0,0,2.12-6.27,16.12,16.12,0,0,0,.14-4.11c0-.36-.61-.79-1-1a3.46,3.46,0,0,0-1.33,0c-.3-2.22,1.56-.66,2.3-1.45-.15-1.67-.51-3.3-.81-4.94a4.68,4.68,0,0,1,0-1.54c.16-1,.51-2,.58-2.93.19-2.51.25-5,.4-7.53a3.68,3.68,0,0,1,.37-1.28,7.13,7.13,0,0,1,.65-1,5.1,5.1,0,0,0-1.29-.33c-5.71.13-11.49-.46-17.12,1.7-.52,1.5-1,3.27-1.73,4.92-1.09,2.49-2.37,4.89-3.54,7.34-.52,1.11-1,2.24-1.44,3.38-.71,1.79-1.4,3.59-2,5.4a2.51,2.51,0,0,0,0,1.25c0,.24.3.44.46.66.25-.2.57-.36.71-.62s0-.66.14-.86c.56-.74,1.2-1.42,1.81-2.12.24.77.78,1.58.69,2.3-.23,1.66-1,3.26-1.13,4.91-.2,3-.08,6-.06,9,0,.28.24.57.44,1a14.4,14.4,0,0,0,1.81-3c.54-1.76.71-3.63,1.18-5.42.52-2,1.2-4,1.89-6.24.82,1.05,2.38,1.17,1.89,2.85s-.58,3.85-1.51,5.39c-1.18,2-.5,3.94-.84,5.88C473.2,280.84,473.61,281.15,473.76,281.33ZM377.64,432.86c-1.37-.61-2.6-1.18-3.83-1.72s-2.28-.94-3.38-1.48c-1.37-.66-2.68-1.46-4.06-2.08s-2.91-1.11-4.36-1.68c-1.78-.69-3.55-1.42-5.34-2.11-.38-.14-.92,0-1.2-.25-2.48-2.09-5-4.16-7.34-6.41a2.6,2.6,0,0,0-3.16-.52,15.47,15.47,0,0,0-2.09,1.6,18.67,18.67,0,0,1-7.21,3.09,13.77,13.77,0,0,0-1.58.3,53,53,0,0,1-6.86,2,20.88,20.88,0,0,0-7.15,2.42c-2.87,1.59-3.49,2.87-2.68,6.16,1.38.53,2.76,1.5,4.13,1.49a46.67,46.67,0,0,0,7-1c4.46-.69,9,.06,13.47-1.17,2.18-.6,4.65-.14,7-.14a4.25,4.25,0,0,1,1.23.17c2.36.71,4.68,1.59,7.07,2.16,2.73.64,5.52,1,8.29,1.5a1.54,1.54,0,0,1,.34.12A11,11,0,0,0,377.64,432.86Zm-13.59-241c2.69.46,5.44,1,8.2,1.41,2.07.32,4.15-.09,6.26.89,1.46.67,3.47.13,5.71.13-1.13-1.31-2.09-2-2.48-3-1.19-2.87-3.78-4.49-5.65-6.73a25.18,25.18,0,0,1-3.13-4.2,47.91,47.91,0,0,1-1.64-4.82,25.19,25.19,0,0,1-2.1-8.9c0-2.75,0-5.51-.06-8.26a2.38,2.38,0,0,0-.44-1.06.83.83,0,0,0-.63.16c-.85,1-1.62,2.11-2.49,3.13-1.55,1.82-3.08,3.68-4.76,5.39-1.35,1.36-2.91,2.5-4.36,3.76a24,24,0,0,1-2.64,2.32c-2.6,1.62-5.29,3.1-8.31,4.85.36.36.77,1.15,1.35,1.32a14.35,14.35,0,0,1,3.95,2.17,73.56,73.56,0,0,0,8.28,4.15,34.14,34.14,0,0,1,3.38,1.66c1.91,1.18,2.32,2.92,1.5,5A3.32,3.32,0,0,0,364.05,191.89ZM434,495.44c2.27.43,4.26.72,6.26-.49a2.22,2.22,0,0,1,2.07.35,5.24,5.24,0,0,0,5,1.7c1.36-.19,2.94-.68,4.1.87.19.26,1.46.09,1.89-.28a1.63,1.63,0,0,1,2.47,0,1.55,1.55,0,0,0,2.52-.2,1.59,1.59,0,0,1,.68-.5,39.05,39.05,0,0,0,4-1.49,38,38,0,0,0,6-3.5,78.39,78.39,0,0,0,5.86-5.54,6,6,0,0,0-1-.5,78,78,0,0,0-7.82-1.24,17.33,17.33,0,0,1-7-2.34c-.8-.41-1.53-1-2.35-1.32-1.36-.58-2.8-1-4.16-1.55-1-.44-2-1.1-3-1.57s-2.06-.79-2.87-1.09a68.17,68.17,0,0,1-3.26,6.15,64.88,64.88,0,0,1-4.33,5.35c-.91,1.1-1.95,2.11-2.77,3.27S434.8,493.94,434,495.44ZM188.84,296.11l4,1.48c.59-1.89,1.16-3.35,1.51-4.87.45-2,.12-4,1-6.15,1.11-2.76,1.29-5.95,1.56-9s.2-6.22.23-9.33c0-.94-.11-1.88-.17-2.73-2.59-.42-5-.89-7.39-1.17s-4.84-.37-7.25-.54a4.76,4.76,0,0,0-.17,1c.52,3.67-.44,7.38.88,11.1.91,2.55.09,5.53,1.39,8.23.92,1.88,1.83,3.92,1.54,6.18a1.35,1.35,0,0,0,.25.65Zm224.5-92.53c.61-1.21,0-2.41-1.7-2.68-2.56-.41-5.11-.89-7.67-1.24-3-.41-6-.08-8.93-1.1-2.66-.9-5.63-.6-8.5-1.24-4.86-1.07-10-1.06-15-1.52-1.07-.1-2.14-.24-3.21-.37-2.35-.29-4.69-.61-7.05-.86-1.46-.16-2.26.46-2.15,2.05a4.74,4.74,0,0,1-.2,1.58c-.31,1.14-.68,2.27-1,3.4,4.2.49,7.88,1.2,11.58,1.29,11.07.29,22.14.33,33.22.49C406.19,203.42,409.63,203.51,413.34,203.58ZM375,206.12a7.7,7.7,0,0,0-1.6-.54c-4.3-.35-8.6-.65-12.9-1a2.25,2.25,0,0,0-2.65,1.48c-1.1,2.47-5.24,3.05-7.37,1.32-.4-.32-1.32-.13-1.95,0a21.47,21.47,0,0,1-2.87.89c-1.36.11-2.74-.15-4.12-.15a10.5,10.5,0,0,0-2,.36,25.12,25.12,0,0,0,1.84,3.55c1.7,2.24,3.55,4.36,5.33,6.54a7.1,7.1,0,0,1,1.26,1.72,2.57,2.57,0,0,0,3.65,1.33c3.12-2.05,6.29-4,9.38-6.12,1.59-1.08,3.09-2.31,4.6-3.51a29.19,29.19,0,0,1,2.8-2.32C370.42,208.48,372.54,207.44,375,206.12ZM214.09,222.53l-.7-.36-21.9,22.68a46.26,46.26,0,0,0,5.89,1.63c2.18.29,4.42.16,6.63.23.41,0,1,0,1.2.2,1.21,1.53,2.83.79,4.29.81.34,0,.82-.53,1-.92A28.94,28.94,0,0,1,212,243c1.7-2.77,1.57-6,2.11-9,.57-3.14.22-6.44.24-9.67A15,15,0,0,0,214.09,222.53ZM323,203.6c.53,1.76.93,3.38-.73,4.84-1.86,1.63-1.91,3.79-1.44,6a1.38,1.38,0,0,0,2.17.91,38.79,38.79,0,0,0,3.84-3.74c.73-.89,1.87-1.68,1.53-3.23a9.11,9.11,0,0,0-1-3.25c-.93-1.5-1.14-3.45-1.66-5.21a4.54,4.54,0,0,0-.33-1.19c-1-1.59-2.55-3-3.08-4.75-.69-2.24-2.84-1.81-4-2.95a.84.84,0,0,0-.85,0,23.09,23.09,0,0,0-2.82,3.38c-.67,1.12-.7,2.67-1.47,3.68-1.82,2.39-1.16,5.33-2,8-1.18,3.61.45,7.21,2.27,10.5a4.48,4.48,0,0,0,5.32,2.24,33.91,33.91,0,0,1-1.28-4.28,12.87,12.87,0,0,1,.08-3.61c.11-.91.57-1.78.68-2.69s-.11-1.78,0-2.66a1.4,1.4,0,0,1,.8-1C320.24,204.23,321.5,204,323,203.6Zm-112.54,86,.73.23c.4-.3.77-.77,1.22-.89,2.85-.74,4.78-2.82,7-4.52,1.63-1.27,3.1-2.83,5.28-3.33,1.46-.34,1.85-1.62,1.11-2.92-.5-.88-1-1.78-1.48-2.65-.76-1.33-1.46-2.69-2.32-3.94s-2.15-2-2.49-3.16c-.81-2.82-3.55-4.06-4.62-6.73a6.85,6.85,0,0,0-3,5.4c-.2,5.56-.15,11.13-.24,16.7a10.72,10.72,0,0,1-.34,2.09C211,287.1,210.75,288.33,210.48,289.57ZM375.57,131.29l.44.08a13.08,13.08,0,0,0,1.55-2.2c1-2.34,1.87-4.75,2.83-7.12.41-1,.88-2,1.37-3,1.14-2.3,2.35-4.57,3.47-6.88.61-1.26,1.13-2.56,1.64-3.87.89-2.28,2.16-4.46,2.18-7a7.87,7.87,0,0,1,2-4.79c.73-1,1-3.72.1-4.2s-2.64-.74-3-.27c-.87,1-1.82.94-2.81.94a2.3,2.3,0,0,0-2.36,1.78c-.58,2-1,4-1.47,5.94a2.17,2.17,0,0,1-.09.53,20.88,20.88,0,0,0-2.4,8.44c-.32,3.15-.86,6.27-1.31,9.41,0,.11-.08.22-.1.34-.35,2.1-.67,4.21-1.06,6.3-.24,1.22-.66,2.41-.89,3.63A11,11,0,0,0,375.57,131.29Zm4.26,147.8c-.2-1.57-.65-3.87-.74-6.2-.13-3.4,0-6.82,0-10.23a3.79,3.79,0,0,1,.24-1.93c1.48-2.3.6-4.88,1-7.31a.83.83,0,0,0-.43-.68.82.82,0,0,0-.76.23c-.49.73-.91,1.51-1.35,2.28-.9,1.61-1.84,3.19-2.69,4.82a35.45,35.45,0,0,0-3.11,6.42c-.47,1.67-1.33,3.72.71,5.39.88.72,1.05,2.27,1.83,3.2,1.37,1.64,2.94,3.11,4.47,4.62,1.36,1.35,2.59,3,4.22,3.88,2,1.15,4.44,1.68,6.91,2.55v-6.34C386.71,281.34,383.57,282,379.83,279.09Zm11.77-8.85h.65a44.88,44.88,0,0,0,1.37-6.59c.27-4.89.23-9.8.27-14.71,0-.4-.4-.8-.73-1.42C390.65,255.29,391.48,262.78,391.6,270.24Zm73.86-2.11H465v3.3h.51Z"/><path class="cls-1" d="M172,146.07a8.94,8.94,0,0,0,3.2,4.73c1.66,1.51,3.42,2.91,5.16,4.31,1.46,1.17,2.93,2.31,4.44,3.4q4,2.93,8.08,5.77c2.75,1.93,5.5,3.86,8.29,5.72,2.35,1.56,4.69,3.16,7.17,4.49,2.09,1.12,4.39,1.84,6.56,2.81,1.42.63,2.77,1.41,4.17,2.07a29.67,29.67,0,0,0,3.48,1.5c2.32.75,3,1.46,2.84,3.89a71.35,71.35,0,0,1-1.36,9.2,37.59,37.59,0,0,1-2.53,7.52c-.91,2-2.12,3.77-2.5,6-.19,1.14-1.18,2.14-1.8,3.2a1.81,1.81,0,0,0-.37.75c0,3.3-2.14,5.46-4.21,7.63-2.36,2.46-4.69,5-7.13,7.33s-4.88,4.33-7.2,6.62c-1.78,1.75-3.43,3.66-5,5.58-1.38,1.65-2.56,3.46-3.94,5.1a2.5,2.5,0,0,1-1.73.58,35.38,35.38,0,0,1-6.27-.32,63.32,63.32,0,0,1-6.77-2c-.22-.07-.44-.16-.66-.22-2.93-.91-5.94-1.63-8.77-2.78-1.65-.66-3-2.07-4.52-3-1.7-1.08-3.58-1.88-5.17-3.09a55.52,55.52,0,0,1-5.59-5.05c-1.89-1.92-3.63-4-5.4-6a23.7,23.7,0,0,1-1.86-2.49c-1.38-2.08-3.48-3.31-5.47-4.68a3,3,0,0,1-1-1.61,13.23,13.23,0,0,1,0-1.79c-.44-3.86-.77-7.74-1.44-11.57-.33-1.89-1.43-3.64-1.92-5.52-.33-1.25,0-2.64-.31-3.92-.65-3.32-1.46-6.6-2.18-9.9a7.2,7.2,0,0,1-.18-1.6c0-5.94-.17-11.88.1-17.8.1-2,1.3-4,2-6a3.55,3.55,0,0,0,.26-.82c.21-2.07,1.38-3.67,2.33-5.43a53.74,53.74,0,0,0,2.8-7c.72-2,1.43-4,2-6.06.64-2.35.8-4.87,1.7-7.09,1.17-2.88.84-5.89,1.42-8.78a64.26,64.26,0,0,1,2.26-7.76c.54-1.56,1.38-3,2-4.54s1-2.88,1.67-4.23a47.91,47.91,0,0,1,3.13-5.66,40,40,0,0,1,4.45-5.66,8.57,8.57,0,0,1,4.49-2.68c1.89-.38,3.6-1.75,5.48-2,2.74-.38,3.81-2.63,5.43-4.18,1.3-1.25,1.93-3.19,3-4.72a38.51,38.51,0,0,1,3.79-4.75,2.28,2.28,0,0,1,2.18,0c2.19,1.65,4.21,3.52,6.33,5.26,2.33,1.91,4.71,3.76,7,5.67.95.77,1.8,1.66,2.74,2.44,1.5,1.25,3,2.44,4.56,3.68.7.59,1.35,1.25,2,1.87l-.16.46c-.6,0-1.21.09-1.81.09-3.54,0-7.08.12-10.61,0-2.63-.1-4.64.66-5.91,3.29a4.88,4.88,0,0,0,4.39,0c.2-.09.37-.44.54-.43,4.15.1,8.3.2,12.44.38a44.23,44.23,0,0,1,4.59.56c2.79.43,5.82.37,8.32,1.48a41.25,41.25,0,0,1,10,6.26,8.78,8.78,0,0,1,2.94,5.69c.2,2.12,1.3,4.16,2,6.22.49,1.37,1,2.74,1.57,4.07a10,10,0,0,0,3.92,4.76c2.24,1.34,4.6,2.46,6.83,3.8,3.16,1.91,6.25,4,9.4,5.89.9.55,1.93.87,2.86,1.36,1.89,1,3.75,2,5.65,3,1.48.75,3,1.37,4.52,2.09s2.79,1.5,4.24,2.13,2.86.93,4.22,1.54c2.41,1.08,4.75,2.3,7.13,3.44,1,.46,2,.83,2.93,1.33,2.2,1.17,4.36,2.42,6.55,3.61,1.83,1,3.71,1.89,5.51,2.92s3.71,2.44,5.69,3.42,4.42,1.8,6.6,2.75c1.21.53,2.33,1.23,3.49,1.85a4,4,0,0,0,.77.39c2.43.72,3.6,4.28,2.1,6.4a1.73,1.73,0,0,0-.38.57c-.53,2.26-.94,4.56-1.59,6.79-.52,1.77-1.34,3.46-2,5.19-.53,1.36-1.1,2.71-1.52,4.09a15.53,15.53,0,0,1-3.28,5.76c-1.08,1.24-1.85,2.76-2.91,4-2.49,3-4.93,6.09-7.69,8.84-.66.66-2.49.19-3.78.12-.5,0-1-.54-1.46-.59a22.6,22.6,0,0,1-7.54-2.39c-1.74-.82-3.77-1-5.64-1.59a24.45,24.45,0,0,1-3.15-1.28c-2.35-1.1-4.66-2.29-7-3.34-1.35-.6-2.84-.89-4.2-1.47s-2.84-1.43-4.26-2.14c-1-.48-1.92-.94-2.89-1.38-2.1-1-4.23-1.83-6.29-2.85s-4-2.24-6-3.26-4-1.79-5.94-2.73c-2.22-1.08-4.4-2.25-6.63-3.33-1.27-.61-2.61-1.07-3.89-1.67-1.45-.69-2.84-1.52-4.3-2.19-1.27-.59-2.61-1-3.91-1.55s-2.39-1-3.59-1.56c-1.62-.72-3.26-1.42-4.86-2.19a18,18,0,0,1-1.82-1.21c-2.5-1.62-5-3.18-7.47-4.88-2-1.42-3.88-3.07-5.88-4.51s-4.4-2.8-6.49-4.35c-2.35-1.76-4.58-3.67-6.83-5.57-1.52-1.27-2.82-2.88-4.5-3.86C175.23,146,173.66,146.23,172,146.07Zm64.4-8.39c-.25-.06-.42-.13-.59-.15-4.84-.43-9.7-.77-14.53-1.32a34.24,34.24,0,0,1-5.18-1.4c-.11,0-.18-.16-.29-.21-1.73-.66-3.46-1.33-5.2-2-1.51-.55-3.3-.72-4.48-1.66-1.43-1.14-2.84-.93-4.33-.9-.39,0-1.09.5-1.11.79a2,2,0,0,0,.6,1.61,67.63,67.63,0,0,0,7.42,3.72,42.67,42.67,0,0,0,5.89,1.49,5.2,5.2,0,0,1,.68.17c2.2.72,4.35,1.88,6.59,2.08,4.17.37,8.38.18,12.57.22C236.08,140.17,236.81,139.46,236.43,137.68ZM151.32,219c3.71,1.29,7.06-.76,10.6-1,.15,0,.27-.24.42-.3,1.68-.7,3.35-1.39,5-2.06.87-.35,1.76-.63,2.62-1s2-1,3-1.41a18.67,18.67,0,0,0,3.75-1.54,95.52,95.52,0,0,0,7.6-6.16c.89-.79,2.23-1.73,1.1-3.51-.53.06-1.33-.09-1.76.24-1.05.81-1.89,1.89-2.88,2.78a20.8,20.8,0,0,1-3.6,2.93,62.76,62.76,0,0,1-6.25,2.82c-2.76,1.16-5.47,2.65-8.36,3.31s-5.78,2-9,1.72C151.69,215.68,150.88,217.13,151.32,219Zm108.62-70.36-.23-.7c-.53-.36-1.13-1.1-1.56-1a42.69,42.69,0,0,0-7.81,2c-2.64,1.09-5.09,2.51-8.08,2.36-.6,0-1.21.49-1.83.53-1.69.11-3.57.59-5,0-2.62-1-5.18-.75-7.72-.4-.71.1-2.47.5-2.2,2.18s1.64,1,2.59,1.11c3,.36,6,.67,9,1a4.79,4.79,0,0,0,1.41-.09c1.15-.22,2.28-.49,3.42-.74,2.16-.46,4.51-.53,6.43-1.49a26.29,26.29,0,0,1,6.89-2.43C256.9,150.71,258.38,149.48,259.94,148.66ZM171.69,182c-.94,1.58-.33,2.29.21,3.34,1.35,2.59,3.53,4.35,5.59,6.21.52.47,2.18.29,2.89-.2s.29-1.43-.56-2.13C177.09,187,174.48,184.51,171.69,182Zm7-99.85c1.74,3.27,5.29,6,7.33,5.44l-.3-3.09-.42.31-2.16-1.64C181.81,82.18,180.5,81.13,178.68,82.17Z"/><path class="cls-1" d="M370.59,277.83c1.77-1.24,2.55.54,3.41,1.29,1.82,1.57,3.33,3.48,5,5.22a5.34,5.34,0,0,0,3.45,2c1.09.09,2.11.84,3.19,1.24,1.27.47,2.57.85,3.83,1.34a1,1,0,0,1,.56.78c-.16,1.74-.44,3.46-.58,5.2a8.18,8.18,0,0,0,.18,2.47,12.19,12.19,0,0,0,.91,2.13c2-.75,3.88-1.51,5.82-2.2,2.34-.85,5-1.23,7-2.58,2.27-1.55,3.88-.7,6-.11,2.55.69,5.34.47,8,.56a16.15,16.15,0,0,0,3.4-.28c3.3-.62,6.71-.93,9.69-2.58a4.49,4.49,0,0,0,1.54-2.6,18.8,18.8,0,0,0,.26-3.21c.49-5,.63-10.14,1.65-15.06.52-2.53.48-5.05,1-7.51.47-2.3,1.4-4.5,2.1-6.76a7.6,7.6,0,0,0,.2-1.59c.07-.93.12-1.85.18-2.82.4.07.69.06.71.14.55,1.7,1.41,3.4,1.53,5.14a33.59,33.59,0,0,0,2.3,8.87c.68,1.9,1,3.9,1.56,5.86.75,2.87,1.52,5.74,2.25,8.61a4,4,0,0,1,.14,1.6c-.37,2.35.62,4.43,1.46,6.43a3.72,3.72,0,0,0,2.77,1.67c3.77.23,7.56,0,11.32.23,1.81.1,3.76.37,4.79,2.29a1.75,1.75,0,0,1,.28,1c-.23,1.49-.49,3-.81,4.46-.64,3-1.36,5.89-2,8.85a33.92,33.92,0,0,0-.44,3.38c-.46,4.71-.83,9.43-1.39,14.13a24,24,0,0,1-1.42,6.72c-1.14,2.61-.34,5.35-1.06,7.84-1.16,4-.51,8.24-1.51,12.14-1.39,5.37-.71,10.68-.62,16,0,2.58,1.33,5.13,2.05,7.7a5.83,5.83,0,0,1,.15.7c.47,3,.82,5.94,1.44,8.86.58,2.67,1.47,5.27,2.17,7.92.15.57,0,1.21.16,1.78.31,1.36.7,2.71,1.06,4.06a4.28,4.28,0,0,1,.15.51c.43,3.2.83,6.41,1.29,9.61.44,3,.78,6.12,1.45,9.11.6,2.68,1.63,5.26,2.41,7.91.86,2.94,1.54,5.94,2.51,8.85.9,2.68,2.1,5.26,3.12,7.9.57,1.45,1,2.94,1.57,4.39.8,2.15,1.66,4.27,2.44,6.42.51,1.39.84,2.84,1.39,4.21s1.46,2.89,2,4.4a18.91,18.91,0,0,1,1.53,5c.28,3-.06,6,.24,9,.21,2.05-1,3.39-1.7,5a.65.65,0,0,1-.37.36c-1.9.51-3.79,1.12-5.73,1.45a12.12,12.12,0,0,1-3.94,0c-2.81-.48-5.68-.74-8.28-2.11-1.21-.64-2.6-.92-3.83-1.51-2.12-1-4.17-2.21-6.27-3.26a30.93,30.93,0,0,0-3.65-1.58c-1.86-.65-2.76-2.14-3.47-3.79-1.15-2.66-2.3-5.32-3.31-8a25.61,25.61,0,0,1-1.58-5.64,28.23,28.23,0,0,0-2.27-7.65c-.74-1.74-1.06-3.65-1.67-5.46-.55-1.6-1.37-3.13-1.83-4.76-.38-1.36-.28-2.85-.62-4.23-.62-2.57-1.37-5.12-2.12-7.66-.49-1.65-1.07-3.27-1.63-4.9-.65-1.89-1.32-3.77-2-5.66a6.53,6.53,0,0,1-.31-.84c-.46-2.11-.78-4.25-1.39-6.31s-1.51-4-2.24-6.05c-.46-1.29-.83-2.62-1.25-3.93-.91-2.86-1.71-5.76-2.78-8.56-.71-1.85-1.88-3.53-2.75-5.33-.74-1.55-1.32-3.18-2-4.76s-1.41-3-2.12-4.48c-.07-.16-.22-.28-.27-.44-.47-1.83-.49-4-1.5-5.44-1.46-2.15-.57-4.71-2-6.9-1.11-1.71-1.17-4.12-1.63-6.23-.82-3.71-1.64-7.54-.86-11.27,1.27-6.16.57-12.36,1-18.53a5,5,0,0,1,.53-1.69c1.05-2.29.8-3.38-1.09-4.77-2.43.58-2,2.5-2.2,4.22a42.51,42.51,0,0,1-1.27,7,24.08,24.08,0,0,1-2.38,4.51c-.76,1.36-1.53,2.71-2.34,4.05-1.49,2.47-3,4.9-4.49,7.39-.68,1.17-1.15,2.46-1.78,3.65-.31.57-.83,1-1.15,1.59-1.63,2.8-3.28,5.56-3.93,8.85-.3,1.55-1.42,2.93-2.15,4.4a2.63,2.63,0,0,0-.12.7,144.35,144.35,0,0,0-1.38,24.05c.13,4.43,0,8.88-.16,13.31-.26,6.68-.57,13.36-1.05,20a7.65,7.65,0,0,1-1.71,4.09c-.48.58-2,.4-3.1.32a7.57,7.57,0,0,1-2.25-.79c-1.73-.71-3.46-1.43-5.18-2.18-1-.42-1.85-1-2.82-1.36-2.51-1-5-1.83-7.56-2.76a38.85,38.85,0,0,1-6.54-2.58c-1.58-.94-2.76-2.61-4-4.05s-2.46-3.08-3.62-4.67a2.17,2.17,0,0,1-.25-1.2c-.06-1.56,0-3.13-.14-4.68-.23-2.57-1.37-5.36-.72-7.66,1.24-4.36.5-8.63.57-12.91.05-3.41-.87-6.83-.91-10.25-.12-10.19-.13-20.39.05-30.57a52.35,52.35,0,0,1,1.36-12.13c.7-2.64.24-5.42,1.2-7.79,1.11-2.79.68-5.59,1.2-8.32.32-1.68,1.34-3.23,2-4.84,0-.05.07-.11.07-.16-.25-2.66,1.86-4.36,2.77-6.54.81-1.93,2.23-3.6,3.31-5.43.95-1.61,1.78-3.3,2.71-4.93s2.08-3.51,3.11-5.27,2.07-3.67,3.16-5.48c.64-1.05,1.46-2,2.06-3.09A8.78,8.78,0,0,0,370.59,277.83Zm-3.29,42.45c.88.36,1.49.86,1.86.72a5.81,5.81,0,0,0,1.72-1.36c2.37-2.26,4.68-4.58,7.09-6.78,2.19-2,4.39-4,7.56-4.38a3.15,3.15,0,0,0,.85-.23c1.68-.69,3.3-1.76,5-2,3.24-.49,6.63.14,9.76-1.3a7,7,0,0,0,2.1-1.11c.37-.38.26-1.21.36-1.84a6.63,6.63,0,0,0-1.74-.24c-.85.1-1.65.53-2.5.6a53.21,53.21,0,0,0-6.08.38c-2.11.43-4.07,1.8-6.17,2-3.52.34-6.27,2.29-8.78,4.19-3.43,2.59-6.23,6-9.28,9.1A28,28,0,0,0,367.3,320.28Zm86.85,132.5c.6-1.15,1.51-2.07,1.4-2.83a10.93,10.93,0,0,0-1.65-3.6c-.89-1.51-2.24-2.84-2.78-4.46-.75-2.2-2.45-3.77-3.09-6.13-1-3.69-3-7.11-4.6-10.61-.21-.46-1-1.09-1.27-1-.47.15-1.16.91-1.1,1.3a51.2,51.2,0,0,0,1.52,6.73,28.83,28.83,0,0,0,2.05,4.08c1.37,2.78,2.57,5.65,4.11,8.33S452.12,449.75,454.15,452.78Zm-27.21-77c-1.95,1.86-2,1.88-.92,3.81a9.28,9.28,0,0,0,1.65,2.38,18.3,18.3,0,0,0,4.1,3.23,27.57,27.57,0,0,0,5.19,1.42,10.73,10.73,0,0,1,1.28.52c2.24,1,4.4,2.38,6.75,2.91a38,38,0,0,0,7.86.4c.53,0,1.07-.54,1.61-.83a6.54,6.54,0,0,0-1.24-1.72,3.1,3.1,0,0,0-1.75-.24,18.89,18.89,0,0,1-9.79-2.2c-2.82-1.54-6-2.45-8.91-3.81a10.94,10.94,0,0,1-3-2.34A40.57,40.57,0,0,1,426.94,375.81Zm-56.52,36.93v-3.35c0-2.46-.19-4.93.05-7.37a32.36,32.36,0,0,1,1.4-5.54c.71-2.52,1.52-5,2.17-7.56.46-1.76.61-3.6,1.1-5.35.66-2.33.05-3.3-2-2.95-.54,2.11-1.1,4.18-1.59,6.26s-.88,4.16-1.32,6.24a1.74,1.74,0,0,1-.22.48,19.09,19.09,0,0,0-1.94,3.75,27.91,27.91,0,0,0-1.14,7.1,60,60,0,0,0,1.07,8.1Z"/><path class="cls-1" d="M144.37,262.91a2.14,2.14,0,0,1,1.54,2.27c0,8.45,0,16.9-.07,25.35,0,1.7-.74,3.38-.85,5.08-.2,3,1,4.39,4,4.38,11.8,0,23.61-.07,35.42-.11h7.31l.35.52c-1,1.54-2.06,3.09-3.1,4.63a24.49,24.49,0,0,0-1.85,2.75,3.62,3.62,0,0,0,1.71,4.58c1.5.91,3.1,1.65,4.62,2.52a17.54,17.54,0,0,1,2.41,1.58c2.36,1.85,5.1,1,6.22-1.81,1-2.49,2.27-4.87,3.34-7.34.56-1.3.91-2.69,1.39-4,.74-2,1.53-4,2.26-6.06a3.26,3.26,0,0,0,.15-1.42c-.21-1.65.81-2.42,2.06-3.09,2.48-1.33,5-2.56,7.38-4.08,2-1.28,3.7-3,5.65-4.35a8.51,8.51,0,0,1,3.49-1.53,3.34,3.34,0,0,1,2.41,1.25c1.41,1.69,2.51,3.64,3.91,5.35s2.84,2.92,4.21,4.42c.66.72,1.16,1.59,1.78,2.35,1.39,1.72,2.85,3.4,4.22,5.14,2.42,3.1,4.74,6.28,7.21,9.33,1.19,1.47,2.69,2.67,3.94,4.09a8.91,8.91,0,0,1,2.08,3,44.56,44.56,0,0,1,1.64,11.51c.3,7.51.3,15.08,1.35,22.49.53,3.72,0,7.56,1.05,11.07,1.64,5.66.39,11.4,1.27,17,2.07,13.15.54,26.39,1.09,39.57a2.69,2.69,0,0,1-.13.55c-2.39.5-4.95.61-7.13,1.59-3.39,1.51-7,.4-10.27,1.32-5.73,1.6-11.47.58-17.2.95-2.28.14-2.38-.08-2.42-2.44-.05-2.76.06-5.53-.11-8.27-.4-6.49-.78-13-1.45-19.43-.31-3-1.42-5.91-1.93-8.91-.36-2.11,0-4.37-.52-6.42-.79-3-.62-6.26-2.08-9.17-.78-1.55-.92-3.41-1.52-5.07s-1.41-3.33-2.12-5a2,2,0,0,1-.22-.67c-.11-2.16-1.22-3.84-2.38-5.59s-1.59-3.6-2.5-5.34a44,44,0,0,0-2.88-4.86c-1.12-1.64-2.41-3.18-3.66-4.73-1.68-2.1-3.31-4.26-5.13-6.24-2.55-2.77-5.26-5.4-7.88-8.11a31.85,31.85,0,0,0-3.21-3.35,44.64,44.64,0,0,0-4.81-2.88c-2-1.16-4.08-2.31-6.14-3.43a9.73,9.73,0,0,0-1.39-.55c.09-1.65.16-3,.26-4.93a35.12,35.12,0,0,0-7.63,8c-1.49,2.17-3.56,3.95-5.26,6-1.15,1.36-2.12,2.86-3.15,4.31-1.41,2-2.68,4.05-4.22,5.93A51.65,51.65,0,0,1,151.8,338c-4.21,3.87-8.53,7.63-12.81,11.43-2.79,2.48-5.56,5-8.39,7.42s-5.53,5-8.53,7.12c-2.85,2-6.06,3.56-9,5.45s-5.51,3.81-8.29,5.67c-1.49,1-3.11,1.82-4.58,2.85-2.16,1.52-4.25,3.16-6.36,4.77-1.68,1.28-3.42,2.48-5,3.9-2.71,2.46-5.71,4.63-7.4,8.09-.6,1.22-1.92,2.09-2.8,3.2a28.78,28.78,0,0,0-1.79,2.79,45.41,45.41,0,0,1-2.75,4.5c-2.32,2.91-4.79,5.7-7.23,8.51s-5.13,5-6.91,8c-2.17,3.62-5.63,5.91-8.12,9.17-1.26,1.64-3.37,2.64-5.16,3.83a1.91,1.91,0,0,1-1.57,0c-2-1-4-2.08-6-3.16a40.64,40.64,0,0,1-5.24-3c-2.64-2-5.12-4.23-7.59-6.44-2.06-1.84-4.05-3.75-6-5.7-1.8-1.79-3.59-3.6-5.23-5.55-.89-1.06-.27-3.24.69-4.5,1.41-1.81,2.55-3.84,4-5.66,1.75-2.29,3.71-4.43,5.48-6.72,1.24-1.59,2.29-3.33,3.47-5,.89-1.22,1.83-2.4,2.8-3.55q3.44-4,6.93-8c1.32-1.51,2.63-3,4-4.45,1.9-1.94,3.83-3.84,5.83-5.67s4.4-3.81,6.6-5.72c2-1.71,3.93-3.43,5.9-5.13,1.34-1.15,2.67-2.31,4.06-3.41,2.28-1.8,4.62-3.52,6.89-5.34,1.84-1.47,3.6-3.05,5.39-4.57,2.84-2.4,5.66-4.81,8.53-7.18,1.69-1.4,3.53-2.63,5.17-4.1,2.49-2.23,4.84-4.61,7.27-6.9,1.38-1.31,2.82-2.54,4.16-3.87,1.82-1.82,4-3.46,5.24-5.62,1.37-2.35,3.41-4,4.92-6.14a43.27,43.27,0,0,0,2.93-5.13c1.21-2.29,2.36-4.61,3.5-6.93a18.89,18.89,0,0,0,1.14-2.8c.56-1.88,1.06-3.79,1.55-5.69a34.36,34.36,0,0,1,1.41-5.41c.4-.92,1.61-1.55,2.57-2.15,2.21-1.38,4.6-2.49,6.7-4a27.64,27.64,0,0,0,5.23-4.84C139.81,269.46,142,266.2,144.37,262.91Zm-69,129.14c.24-1.69-.33-2.41-1.91-1.62a55.82,55.82,0,0,0-5.27,3.3c-1.51,1-3,2-4.53,2.93-.93.56-2,.92-3,1.41-1.45.72-2.86,1.53-4.33,2.21s-2.78,1.14-4.16,1.73-3,1.34-4.48,2c-1.34.56-2.72,1-4.06,1.58-1.54.64-3,1.48-4.59,2a52.62,52.62,0,0,1-5.41,1.31c-1.41.31-1.62,1.15-1.24,2.46a9.66,9.66,0,0,0,2,.07,63.23,63.23,0,0,0,6.72-1.29A41.42,41.42,0,0,0,46,408c1.26-.55,2.52-1.11,3.81-1.59,1.45-.55,2.94-1,4.39-1.52a19.55,19.55,0,0,0,2.64-1.19c1.91-1.08,3.67-2.56,5.71-3.25,3.06-1,5.34-3.08,7.82-4.9C71.92,394.47,73.47,393.41,75.39,392.05Zm59.68-64.23c-2.08.62-3.67,1.05-5.23,1.56-1.29.43-2.56.94-3.82,1.45-.76.3-1.48.69-2.23,1-1.24.54-2.48,1.05-3.73,1.56-.27.11-.58.13-.85.24-1.63.69-3.2,1.77-4.89,2-4.2.62-8.46.88-12.7,1.27-1.16.11-2.39-.08-3.09,1.21a8.26,8.26,0,0,1-.78,1,4.26,4.26,0,0,0,1.36.6c1,0,2-.13,3-.15,5.69-.15,11.43.24,16.78-2.45,2.23-1.13,4.64-1.89,7-2.82.88-.36,1.76-.71,2.62-1.11,2-1,4-1.92,6.36-3Zm89.78.14c-.8.29-1.58.34-1.8.73a1.77,1.77,0,0,0,.15,1.67,27,27,0,0,0,3.11,2.93,10.85,10.85,0,0,0,5.23,2.72,16.78,16.78,0,0,1,3.36,1.41c1.81.71,3.6,1.45,5.45,2,2.17.64,4.4,1.08,6.6,1.62a2.08,2.08,0,0,1,.47.24c1.06.58,2.12,1.19,3.21,1.71.14.07.74-.34.73-.49-.08-.69-.07-1.65-.51-2a18,18,0,0,0-3.87-2.4c-1.87-.85-3.83-1.5-5.77-2.18-1.23-.44-2.52-.73-3.75-1.16a34.47,34.47,0,0,0-3.39-1.33,10.77,10.77,0,0,1-6.2-3.48A12.75,12.75,0,0,0,224.85,328Zm8.61-7.58a21.51,21.51,0,0,0,3.17-.76,2.37,2.37,0,0,0,1-1.38c.07-.21-.4-.86-.71-.93-2.27-.47-4.54-.92-6.83-1.23-4.14-.55-8.3-1-12.45-1.48-.23,0-.47-.08-.7-.13a21.22,21.22,0,0,0-4.39-.74c-.64,0-1.4,1-1.78,1.78-.14.27.59,1.42,1,1.48a65.69,65.69,0,0,1,6.72,1.28c3.86,1,8,1,11.95,1.47A30.37,30.37,0,0,1,233.46,320.38ZM91.58,368.68c-1.46.27-2.41.49-3.38.6a17.26,17.26,0,0,1-7.54-1.23c-1.68-.57-3.71-.55-5.08-1.51-1.8-1.25-3.63-1-5.47-1.08-1.48-.07-2.32.76-1.84,2.28.9.32,1.7.54,2.44.88,1.87.87,3.57,2.16,5.82,2a4.69,4.69,0,0,1,1.53.4,42,42,0,0,0,6.77,1.73c1.73.17,3.54-.57,5.32-.86,1.06-.18,2.42-.1,2.5-1.48C92.68,369.71,91.79,369,91.58,368.68Z"/><path class="cls-1" d="M417.59,106.87c0,3-.33,6,.09,8.93a44,44,0,0,0,2.45,8.9c.89,2.42,2.34,4.62,3.37,7,.68,1.57.92,3.33,1.59,4.9a34.87,34.87,0,0,0,2.4,4.3c1.18,1.94,2.38,3.88,3.65,5.77,1.1,1.62,2.37,3.14,3.46,4.77,1.43,2.14,2.65,4.42,4.14,6.52,2.21,3.11,4.59,6.11,6.87,9.17,1.33,1.78,2.61,3.59,3.91,5.39s2.53,3.34,3.68,5.09a19.62,19.62,0,0,1,1.2,2.77c.39.87.85,1.71,1.24,2.59.85,1.94,1.69,3.9,2.51,5.86.09.21,0,.49.09.71.77,2.58,1.42,5.21,2.37,7.72a5.45,5.45,0,0,1-1.75,6c-1.87,1.33-3.55,2.93-5.46,4.16s-3.62,2.88-6.1,3.32c-1.87.34-3.6,1.42-5.42,2.08a6.22,6.22,0,0,1-1.94.23,42.83,42.83,0,0,0-5.2.18c-3.63.59-7.22,1.44-10.85,2.1a26.89,26.89,0,0,1-3.92.27c-2.16.06-4.32.09-6.48.07a13.45,13.45,0,0,0-7.34,2.21,2.55,2.55,0,0,1-2.08.09c-2.21-1-4.29-2.34-6.53-3.3a8.63,8.63,0,0,0-3.35-.31c-2.3,0-3.59-.89-3.89-3.2a43.5,43.5,0,0,1,0-5.38,96.94,96.94,0,0,1,19.51,1.73,7.71,7.71,0,0,1,1.92-.53,7.12,7.12,0,0,0,5-2.39,3.15,3.15,0,0,0-.08-4.13,6.25,6.25,0,0,0-5.07-2.3c-4.43-.24-9-.38-13.23-1.49-3.21-.83-6.37-.51-9.49-1.06a3.12,3.12,0,0,1-2.08-1.74c-.93-2.85-2.78-5-4.74-7.12s-3.65-4-5.36-6.13a8.26,8.26,0,0,1-1.21-2.58c-.55-1.64-.83-3.38-1.5-5-2.15-5.05-1.09-10.32-1-15.47.06-2.76,1.27-5.49,2-8.24.07-.29.24-.55.29-.84.46-2.29.83-4.59,1.37-6.85a27.6,27.6,0,0,1,1.3-3.28c.73-2,1.43-3.91,2.13-5.88.12-.33.12-.71.25-1,.7-1.83,1.39-3.66,2.14-5.47.93-2.25,1.85-4.51,2.9-6.7,1-2,2.17-4,3.14-6,.71-1.47,1.17-3.05,1.8-4.55s1.37-3.12,2.06-4.68a2.23,2.23,0,0,0,.27-.8c-.05-2.12,1.2-3.69,2.19-5.38a3.93,3.93,0,0,0,.3-.62q1.21-3.42,2.41-6.85a24.13,24.13,0,0,1,1.24-3.4c1.52-2.79,3.23-5.49,4.75-8.28,1.08-2,1.94-4,3-6,.81-1.56,1.72-3.08,2.63-4.6.67-1.11,1.43-2.18,2.13-3.28,1.71-2.66,3.4-5.33,5.32-8.34,2.3,1.88,4.09,3.48,6,4.89,2.09,1.54,4.33,2.87,6.47,4.35,2,1.34,3.82,2.78,5.77,4.11,1.7,1.16,3.44,2.25,5.18,3.34,1.49.94,3.06,1.76,4.51,2.76a44.5,44.5,0,0,1,4.35,3.39,12.52,12.52,0,0,1,3.5,4.17c1.68,3.7,3.84,7.19,5.73,10.8.65,1.25,1.05,2.63,1.6,3.94.36.86.78,1.7,1.18,2.55,1.14,2.35,2.29,4.7,3.41,7.06.46,1,.93,2,1.31,3,.94,2.58,1.84,5.18,2.75,7.77.85,2.44,1.56,4.94,2.58,7.31.89,2,2.18,3.9,3.2,5.9.62,1.22,1,2.57,1.59,3.82s1.25,2.36,1.87,3.55a5.56,5.56,0,0,1,.39,1,48.36,48.36,0,0,0,1.58,5.51c1.39,3.33,3.06,6.55,4.53,9.85,1.06,2.37,1.95,4.81,3,7.2,1.08,2.56,2.25,5.09,3.31,7.67a28.8,28.8,0,0,1,1.22,3.75c.57,2.2,1,4.45,1.6,6.64.54,1.85,1.32,3.63,2,5.45a4.19,4.19,0,0,1,.2.49c.46,2.33.85,4.68,1.4,7,.68,2.87,1.49,5.72,2.25,8.57.38,1.45.84,2.89,1.17,4.36.55,2.44.9,4.94,1.56,7.35A47.47,47.47,0,0,1,503,225.29c.08,2.69.13,5.39.09,8.08-.06,3.85-2.09,5.6-5.95,5.79-3.61.17-7.2.74-10.8,1.1a15.59,15.59,0,0,1-3,.1c-3.19-.34-6.17.67-9.22,1.26-1.6.31-1.85-.45-2.49-1.94-1.12-2.66.11-5.75-1.88-8.1a.42.42,0,0,1-.05-.17c-.47-2.64-.93-5.29-1.43-7.93-.24-1.25-.63-2.47-.84-3.73s-.24-2.37-.34-3.56.4-2.55-1-3.33c-.14-.08-.14-.44-.17-.67-.41-3.28-.93-6.55-1.19-9.83a30,30,0,0,0-2.38-9.22,50.58,50.58,0,0,1-1.44-5.24c-.22-.75-.69-1.42-.91-2.17a21.52,21.52,0,0,1-.36-2.56c5.54,1.86,10.78,2.47,16.23-.16l-.37-1.95c-.79.2-1.59.39-2.37.61a6.72,6.72,0,0,1-1.47.5c-2.39,0-4.79,0-7.19,0a2.33,2.33,0,0,1-1.15-.34c-1.88-1.16-2.8-1.09-4.39.58-.6-1.29-1.18-2.5-1.74-3.73-.19-.41-.31-.86-.5-1.27s-.4-.71-.6-1.07a3.53,3.53,0,0,1,1.33-.16,44,44,0,0,0,5.3,1.88,31.83,31.83,0,0,0,6.4.39c.23,0,.44-1.35.6-1.9-3.33-.71-6.21-1.31-9.08-2a24.13,24.13,0,0,0-2.88-.85c-.55-.06-1.14.54-1.75.69-.39.1-1.05.09-1.25-.15-1.6-2-3.16-4-4.66-6.09-1.79-2.46-3.49-5-5.23-7.46-2.13-3-4.29-6.06-6.37-9.13-1.31-2-2.46-4-3.75-6-1.83-2.78-3.76-5.48-5.54-8.28a19.37,19.37,0,0,1-1.66-3.61c-.54-1.39-.9-2.84-1.42-4.24-.33-.87-.84-1.68-1.25-2.52a46.6,46.6,0,0,1-2.17-4.65,38.57,38.57,0,0,1-1.41-5.6c-.52-2.89-.8-5.82-1.39-8.7-.13-.64-1.14-1.09-1.74-1.64Zm3.22-43.28c-2.73.68-3.34,3.2-4.43,5-2,3.23-3.24,6.87-4.92,10.29a71.6,71.6,0,0,1-3.68,6.57,7.77,7.77,0,0,0-1.39,6.1,1.88,1.88,0,0,0,2.41-1.32,29.76,29.76,0,0,1,1.54-3.16c1.13-1.94,2.38-3.81,3.49-5.75.63-1.12,1.09-2.34,1.64-3.51.65-1.41,1.32-2.81,2-4.23.95-2.08,1.62-4.37,2.94-6.18C421.44,66,421.2,64.92,420.81,63.59Zm6.45,133,.37.64a18.24,18.24,0,0,0,3.14-.89,6.09,6.09,0,0,0,2.31-1.79,58.68,58.68,0,0,0,4.24-6.29,25.61,25.61,0,0,0,1.54-4.39c.69-2.09,1.39-4.17,2.08-6.26s1.36-4.14,2.05-6.25l-1.32-1.07a4.82,4.82,0,0,0-1.45.87c-.34.41-.34,1.07-.6,1.58s-.79.89-1,1.41c-.85,2.61-1.68,5.23-2.41,7.87a37.76,37.76,0,0,1-3.68,8.27,18.63,18.63,0,0,1-4.14,4.71A10.52,10.52,0,0,0,427.26,196.57Zm-38.09-69.14.64.23a40.68,40.68,0,0,0,2.77-4.29c.71-1.47,1-3.12,1.6-4.67a35.27,35.27,0,0,1,1.42-3.28c.66-1.35,1.47-2.63,2.09-4s1-2.92,1.64-4.3c.82-1.68.62-2.26-1.12-2.72-1,1.79-2.07,3.51-2.95,5.32-1,2.1-1.72,4.36-2.86,6.39-1,1.84-2.3,3.52-2.32,5.75a1.31,1.31,0,0,1-.29.81C388.55,124.17,389,125.81,389.17,127.43Zm-6.44,12.89-.57-.42c-.57.46-1.49.83-1.64,1.41q-1.42,5.43-2.54,11c-.63,3.11-1.06,6.26-1.62,9.38-.05.33-.49.67-.43.91a21.78,21.78,0,0,0,.87,2.28c.35-.2.93-.34,1-.63.87-2.92,1.8-5.83,2.44-8.81.61-2.79.9-5.66,1.34-8.49a1.41,1.41,0,0,1,.19-.66C383.17,144.41,382.9,142.36,382.73,140.32Zm25.33,50.8c1.57-1.69,3-2.8,3.37-4.88a6.92,6.92,0,0,1,1.59-2.81c1.51-2,3.15-3.88,4.69-5.84a6,6,0,0,0,.63-1.39c-.67-.11-1.59-.56-2-.27a12.24,12.24,0,0,0-3.66,3.45c-1.27,2.33-3.46,3.91-4.49,6.5A6.85,6.85,0,0,0,408.06,191.12Zm21.23-100.7c-2.06,2.59-5.29,3.85-5.52,7.47a2.2,2.2,0,0,0,1.43-.51,20.86,20.86,0,0,1,3.1-2.87C430,93.54,430.11,92.41,429.29,90.42ZM440,88.62l4.63-.78c.18-2.78-.38-2.85-5-.69C439.81,87.67,439.94,88.21,440,88.62Z"/><path class="cls-1" d="M464.28,219.14c.54,3.58.93,6.8,1.56,10a45.3,45.3,0,0,0,1.66,5.27,8.78,8.78,0,0,1,.66,2.14c.09,2.81,0,5.64.13,8.45a14.45,14.45,0,0,0,.89,2.88,2.18,2.18,0,0,1,.07,1.35c-.79,1.69-1.62,3.36-2.54,5a15.53,15.53,0,0,0-2.28,5.21c-.28,1.61-1.5,3-2,4.63a28.9,28.9,0,0,0-.7,4.39,7.27,7.27,0,0,1-.35,1.55c-1.12,2.68-.3,4.5,1.91,5.93a4.79,4.79,0,0,1,2.19,4,7.34,7.34,0,0,0,3.84,6.64c.55.32.86,1.06,1.49,1.88a11.39,11.39,0,0,1-1.83.33q-4,0-7.91-.13c-.46,0-.9-.35-1.35-.37-1.36-.07-2.88-.45-4.05,0-2.56,1-5.66-.52-6-3.19-.39-3-.77-6-1.43-9-.49-2.17-1.6-4.21-2.08-6.38a23.9,23.9,0,0,0-1.34-4.57,37.23,37.23,0,0,1-1.63-6.62c-.51-2.19-.57-4.4-1.08-6.54-.46-1.95-1.44-3.78-2-5.71a17.41,17.41,0,0,1-.4-3.14c-2.31-.49-3.23.36-3.7,2.48a60.71,60.71,0,0,0-1.41,8.6c-.14,1.75-1.42,3.39-1.9,5.16a32.2,32.2,0,0,0-.38,4.09c-.68,4.65-1.46,9.29-2.1,13.95-.26,1.89-.19,3.82-.43,5.72a49.37,49.37,0,0,1-1.18,6.4,2.53,2.53,0,0,1-1.71,1.57c-3.9.36-7.65,2.05-11.66,1.36-1.86-.32-3.7-.77-5.54-1.23a21.44,21.44,0,0,1-3.62-1.14,1.75,1.75,0,0,1-.86-1.4c.37-4.63.29-9.4,1.47-13.83,1-3.76.83-7.41.87-11.11.1-8,0-16.07-.09-24.11a5.17,5.17,0,0,0-.66-2.08,2.83,2.83,0,0,1,1-3.27c1.17-.55,2.44-.9,3.66-1.34,1.76-.64,3.51-1.31,5.29-1.91a7.76,7.76,0,0,1,2.07-.46c1.79-.08,3.6.06,5.39-.11,3.43-.34,7-.43,10.23-1.41,2.14-.63,4.27-.82,6.39-1.28a53.87,53.87,0,0,0,8.16-2.43,60.18,60.18,0,0,0,6-3.18,2.3,2.3,0,0,1,.85-.24c2.14-.14,3.92-1.21,5.76-2.16A11,11,0,0,1,464.28,219.14ZM420.87,259.6l.68,1.82a4.91,4.91,0,0,0,1.26-.95,23.8,23.8,0,0,0,2.08-3.49c.6-1.3.93-2.72,1.46-4.05.71-1.81,1.51-3.59,2.24-5.39.8-2,1.64-3.9,2.31-5.9a7.84,7.84,0,0,0,.07-2.38c-.55.09-1.4,0-1.6.31-1.16,1.78-2.19,3.64-3.22,5.5a13.1,13.1,0,0,0-.77,1.85c-.6,1.64-1.17,3.29-1.76,4.93-.18.48-.4.94-.57,1.43C422.32,255.37,421.6,257.47,420.87,259.6Z"/><path class="cls-1" d="M126.62,232.93c2,2.34,3.69,4.35,5.45,6.28a59,59,0,0,0,4.45,4.5,18.61,18.61,0,0,0,2.73,1.56c1.52.95,3,2,4.5,2.93,2.6,1.58,4.71,3.84,7.72,4.86a48.16,48.16,0,0,1,8.08,3.67,52.83,52.83,0,0,0,8.4,3.71,42.21,42.21,0,0,0,9.28,2.45c.4.05.92.78,1.05,1.28,1.18,4.66,1.26,9.44,1.33,14.21a23.54,23.54,0,0,0,2.29,9.27,41,41,0,0,1,1.37,4.58,9.78,9.78,0,0,0,.82,2c.95,1.67.25,3.09-1.64,3.1-10.79,0-21.58,0-32.37.11-1.56,0-1.73-.67-1.72-2,.13-12.17.21-24.33.31-36.5,0-2-1.06-3.09-2.29-2.26a11.52,11.52,0,0,0-2.54,2.34c-1.56,1.94-3,4-4.49,6-.62.85-1.15,1.77-1.7,2.67a23.9,23.9,0,0,1-7.26,7.28c-1.58,1.09-3.08,2.3-4.67,3.38a4.34,4.34,0,0,1-5.81-1.49c-.86-1.57-1.53-3.25-2.35-4.84-1-2-2.26-4-3.24-6.07a41.87,41.87,0,0,1-2.69-6.56c-.29-1,.33-2.35.59-3.53a16.85,16.85,0,0,1,3-6.17c1.74-2.44,3.5-4.87,5.17-7.36.84-1.25,1.44-2.66,2.27-3.92C123.93,236.6,125.29,234.79,126.62,232.93Z"/><path class="cls-1" d="M235.92,53a39.77,39.77,0,0,1-9.6-6.68c-1.63-1.64-4.91-1.5-6.76.11a12.75,12.75,0,0,0-4.24,6.21,16.68,16.68,0,0,1-1.17,3.58A3.78,3.78,0,0,1,212.1,58a16.49,16.49,0,0,1-3.88.08c0-2,0-3.82,0-5.65,0-2.09.31-4.36-1.5-5.81a28.72,28.72,0,0,0-5.41-3.14c-.4-.2-1.18.32-1.77.55-.21.08-.39.45-.53.43-2.46-.42-3.33,1.81-4.88,2.9-.24.17-.56.39-.59.61-.38,3.15-2.53,6.21-1.36,9.35.79,2.13-.22,3.77-.31,5.62a3,3,0,0,1-3.33,2.7,3,3,0,0,1-2.8-3.25c0-2.33.42-4.82-.22-7-1.32-4.49-1-9-.77-13.49a23.67,23.67,0,0,1,2-8.94c.24-.51.06-1.21.26-1.76.66-1.8,1.75-3.51,2-5.36.35-2.23,2.14-3.37,3.14-5.08.8-1.38,2.43-2.3,3.71-3.39.53-.45,1.12-.84,1.69-1.24a39.72,39.72,0,0,1,4.82-3.32,11,11,0,0,1,5-1.41,84,84,0,0,1,12.88,1.25c2.37.46,4.45,2.26,6.8,3.09,3,1,4.62,3.47,6.46,5.69a14.45,14.45,0,0,1,1.81,3.3c1,2.16,1.73,4.44,2.86,6.5a21.48,21.48,0,0,1,2.18,12.82A14.5,14.5,0,0,1,235.92,53Z"/><path class="cls-1" d="M14.46,416.7c2.63,2.47,5.29,5,8,7.51,2.53,2.31,4.87,5.09,7.83,6.59,2.26,1.14,1.75,2.55,2,4.09a59.29,59.29,0,0,0,1.37,7.92c.69,2.27,2.13,4.31,3.11,6.51.66,1.48,1.05,3.08,1.64,4.59a18.28,18.28,0,0,0,1.26,2.5c1.13,2,2.29,3.92,3.45,5.87,1.56,2.62,4.14,4.18,6.34,6.15a4.31,4.31,0,0,1,1.28,2.51c.19,1.65-.67,2.48-2.47,2.45-5.51-.09-11,.07-16.53-.16a22.46,22.46,0,0,1-7.41-1.47c-2.55-1.05-4.8-2.84-7.18-4.31a16.48,16.48,0,0,1-3.57-2.28c-1.75-1.83-2.1-4.32-2.41-6.75-.09-.71,0-1.44,0-2.15-.44-4.34-.75-8.7-1.42-13-.25-1.63-1.34-3.13-2-4.69-.49-1.15-.88-2.35-1.41-3.48-.71-1.48-1.46-2.94-2.27-4.37s.19-3.52,1.91-4.43a13,13,0,0,0,3.85-2.94C11.44,421.39,12.77,419.15,14.46,416.7Z"/><path class="cls-1" d="M183.38,70.16c1.88-2.47,2.53-2.6,5.52-1.11.29-.24.59-.7.92-.73,2.79-.23,3.31-2.77,4.65-4.46,1.56-2,1.24-4.35,1.25-6.65,0-2,0-4,.09-5.92a4.76,4.76,0,0,1,3.54-4.13c2.61-.37,4.13.48,5.16,2.89a13.58,13.58,0,0,1,1,2.93,2.24,2.24,0,0,1-.65,1.46c-1.42,1.67-.08,6.18,2.09,6.4a19.59,19.59,0,0,0,6.4-.21,5.11,5.11,0,0,0,3.51-3.35c1.12-3,1.57-6.42,4.64-8.3a1.87,1.87,0,0,1,1.66,0c2.66,1.83,5.31,3.68,7.81,5.7.88.71,2.91,1.27,1.82,2.91a9.24,9.24,0,0,0-1.49,3.59,35.35,35.35,0,0,0-.84,3.88,62.07,62.07,0,0,0,0,6.82c.06,1,.64,1.86.73,2.81a4.24,4.24,0,0,1-.41,2.37,4.88,4.88,0,0,1-4.12,2.41,5.3,5.3,0,0,0-3.11,1.75c-.86,1-1.2,2.41-1.84,3.6-.54,1-1.22,2-1.79,3a13.73,13.73,0,0,0-1.7,3.26c-.64,2.68-3.86,4.58-6,2.93-1.72-1.35-3.55-2.44-5.33-3.66-2-1.37-3.81-3-5.74-4.53-2.93-2.24-6-4.29-8.81-6.68-2.37-2-4.43-4.44-6.63-6.66C185,71.64,184.16,70.91,183.38,70.16Z"/><path class="cls-1" d="M360.79,53.27l5.54.56a40.38,40.38,0,0,0,4.5-.47c1.93-.39,3.82-1,5.71-1.58,1.53-.46,3-1,4.75-1.53a37.59,37.59,0,0,0,1.76,5.16A3.53,3.53,0,0,0,385.3,57a7.88,7.88,0,0,0,3.74,0,13.6,13.6,0,0,0,4.09-2.07,2.53,2.53,0,0,0,.6-2.17,5.77,5.77,0,0,0-1.44-2.82,2.94,2.94,0,0,1-.54-3.73,3,3,0,0,1,3.83-1.43A2.77,2.77,0,0,1,396.83,46c.88,1.52,2.23,2.91,2,4.83a10.15,10.15,0,0,0,1.61,6.58c.64,1.07,2.39,1.59,3.74,2.06,1.81.63,3.72,1,5.58,1.44-5.64,10-11.08,19.57-16.52,29.16-1.12-2-.56-4,1.74-6.32a2.53,2.53,0,0,1-.43-.5c-.77-1.51-1.65-1.4-2.55-.14a14.45,14.45,0,0,0-1.87,3,5,5,0,0,1-5.86,3.17,7.91,7.91,0,0,0-1.93-.24c-1.82.07-4-1.35-4.31-3.11-.58-3.11-2.38-5.39-4.45-7.66-1.44-1.58-3.06-1.42-4.78-1.42-4.71,0-4.71,0-4.67-4.71,0-2,.09-4,0-5.93a26.51,26.51,0,0,0-.75-3.58,7.83,7.83,0,0,1-.35-2.11,7.71,7.71,0,0,0-2.43-6.6Z"/><path class="cls-1" d="M311.83,188.33c.8-2,1.48-3.57,2.15-5.21.21-.53.41-1.07.59-1.62.78-2.35,1.59-4.69,2.28-7.06a13,13,0,0,0,.29-2.66c.14-1.65,1.39-2.45,2.83-1.63,1.68.95,3.17,2.26,4.89,3.09a30.83,30.83,0,0,0,4.81,1.48c1.84.55,3.71,1,5.5,1.69a42.41,42.41,0,0,1,4.07,2c1.39.7,2.75,1.45,4.17,2.09s2.78,1.08,4.15,1.68c.73.31,1.37.8,2.08,1.17,2.48,1.31,5,2.58,7.46,3.88,1,.55,2.06,1.12,3.12,1.71-.84,1.21-1.72,2.39-2.49,3.62a13.06,13.06,0,0,0-2.18,6.84c0,1.38,0,2.76,0,4.14s-.43,2.45-2.34,2.09l-1.83-4.81c-1-.27-1.92-.35-2.41,1.44a7.28,7.28,0,0,1-2.23,3.11,2.21,2.21,0,0,1-2.11-.08c-1.41-1.14-2.57-.79-4,0a2.93,2.93,0,0,1-2.49,0c-1.46-.87-2.57-1.18-4.07.07-.65.54-2,.25-2.89.32a46.56,46.56,0,0,0-2-6.52c-1.2-2.57-2.95-4.87-4.24-7.41-1.47-2.9-3.94-3.45-6.81-3.4C316.23,188.36,314.27,188.33,311.83,188.33Z"/><path class="cls-1" d="M230.56,427.43c2.46-.1,4.91-.14,7.34-.3,4.6-.31,9.22-.55,13.79-1.11,2.09-.26,4.06-1.32,6.13-1.84,1.64-.41,3.18-.7,4.85.63,2,1.63,4.52,2.69,6.79,4,1.11.65,2.18,1.38,3.28,2.06a1.85,1.85,0,0,0,.66.23,47.15,47.15,0,0,1,6.85,1.35,19.73,19.73,0,0,1,4.53,2.87c.94.66,1.75,1.54,2.72,2.16,1.69,1.08,3.21,5.32,2.15,6.86a4,4,0,0,1-2.46,1.47c-1.71.25-3.52-.13-5.19.24-2.4.52-4.71,1.47-7.06,2.22a4.24,4.24,0,0,1-1.21.23,48.91,48.91,0,0,1-7.17-.16c-2-.3-3.78-1.45-5.73-1.94-3.5-.86-6-3.48-9.13-4.93-1.88-.87-4.06-1-6.08-1.64-4.45-1.34-9-.85-13.56-1.08-2.7-.13-4.15-2.29-2.68-4.58,1.13-1.77.89-3.47,1.05-5.25C230.47,428.54,230.5,428.13,230.56,427.43Z"/><path class="cls-1" d="M473.76,281.33c-.15-.18-.56-.49-.52-.71.34-1.94-.34-3.92.84-5.88.93-1.54,1-3.59,1.51-5.39s-1.07-1.8-1.89-2.85c-.69,2.25-1.37,4.23-1.89,6.24-.47,1.79-.64,3.66-1.18,5.42a14.4,14.4,0,0,1-1.81,3c-.2-.44-.44-.73-.44-1,0-3-.14-6,.06-9,.12-1.65.9-3.25,1.13-4.91.09-.72-.45-1.53-.69-2.3-.61.7-1.25,1.38-1.81,2.12-.16.2,0,.63-.14.86s-.46.42-.71.62c-.16-.22-.42-.42-.46-.66a2.51,2.51,0,0,1,0-1.25c.64-1.81,1.33-3.61,2-5.4.45-1.14.92-2.27,1.44-3.38,1.17-2.45,2.45-4.85,3.54-7.34.73-1.65,1.21-3.42,1.73-4.92,5.63-2.16,11.41-1.57,17.12-1.7a5.1,5.1,0,0,1,1.29.33,7.13,7.13,0,0,0-.65,1,3.68,3.68,0,0,0-.37,1.28c-.15,2.51-.21,5-.4,7.53-.07,1-.42,1.94-.58,2.93a4.68,4.68,0,0,0,0,1.54c.3,1.64.66,3.27.81,4.94-.74.79-2.6-.77-2.3,1.45a3.46,3.46,0,0,1,1.33,0c.43.19,1,.62,1,1a16.12,16.12,0,0,1-.14,4.11,18.26,18.26,0,0,1-2.12,6.27c-.76,1.22-1,2.77-1.61,4.08a31.93,31.93,0,0,1-2,3.22c-.12.18-.25.37-.36.56-.3.58-.5,1.55-.91,1.66a10.39,10.39,0,0,1-3.52.18,2.78,2.78,0,0,1-.26-1.93c.52-1.18,1.52-2.15,2-3.34,1-2.46,1.81-5,2.76-7.5.28-.73.84-1.34,1.19-2.05.68-1.41,1.31-2.84,1.95-4.26-1.65-1.44-2.56-1.2-3.37.72a18.83,18.83,0,0,1-1.6,2.53,5.32,5.32,0,0,0-.65,1.25,36.29,36.29,0,0,1-3.62,8.42c-.6,1-.94,2.2-1.47,3.27-.12.24-.52.34-.79.51-.17-.27-.47-.54-.48-.83a4,4,0,0,1,.21-1.58c.76-2,1.58-3.93,2.4-5.87.38-.9.88-1.75,1.25-2.66.49-1.23.57-2.85,1.44-3.66,1.09-1,.95-2.09,1-3.2a7,7,0,0,0-.46-2c-.66.44-1.61.74-1.91,1.36a68.09,68.09,0,0,0-2.68,6.49c-.9,2.47-1.6,5-2.51,7.46A25.19,25.19,0,0,1,473.76,281.33Zm14.06-18.89v-2h-2C485.17,262.71,485.39,262.94,487.82,262.44Zm-14.05-2.3-.55.41a6.57,6.57,0,0,0,.33,2.21c.11.22,1.29.13,1.78-.16a1.53,1.53,0,0,0,.17-1.5A5.07,5.07,0,0,0,473.77,260.14Zm6.15,1.37-1.14-1.24c-.31.41-.86.83-.85,1.24s.57.8.89,1.21Z"/><path class="cls-1" d="M377.64,432.86a11,11,0,0,1-11.73,2.44,1.54,1.54,0,0,0-.34-.12c-2.77-.49-5.56-.86-8.29-1.5-2.39-.57-4.71-1.45-7.07-2.16a4.25,4.25,0,0,0-1.23-.17c-2.33,0-4.8-.46-7,.14-4.46,1.23-9,.48-13.47,1.17a46.67,46.67,0,0,1-7,1c-1.37,0-2.75-1-4.13-1.49-.81-3.29-.19-4.57,2.68-6.16a20.88,20.88,0,0,1,7.15-2.42,53,53,0,0,0,6.86-2,13.77,13.77,0,0,1,1.58-.3,18.67,18.67,0,0,0,7.21-3.09,15.47,15.47,0,0,1,2.09-1.6,2.6,2.6,0,0,1,3.16.52c2.33,2.25,4.86,4.32,7.34,6.41.28.23.82.11,1.2.25,1.79.69,3.56,1.42,5.34,2.11,1.45.57,2.94,1.05,4.36,1.68s2.69,1.42,4.06,2.08c1.1.54,2.25,1,3.38,1.48S376.27,432.25,377.64,432.86Z"/><path class="cls-1" d="M364.05,191.89a3.32,3.32,0,0,1-.06-.61c.82-2.06.41-3.8-1.5-5a34.14,34.14,0,0,0-3.38-1.66,73.56,73.56,0,0,1-8.28-4.15,14.35,14.35,0,0,0-3.95-2.17c-.58-.17-1-1-1.35-1.32,3-1.75,5.71-3.23,8.31-4.85a24,24,0,0,0,2.64-2.32c1.45-1.26,3-2.4,4.36-3.76,1.68-1.71,3.21-3.57,4.76-5.39.87-1,1.64-2.1,2.49-3.13a.83.83,0,0,1,.63-.16,2.38,2.38,0,0,1,.44,1.06c0,2.75,0,5.51.06,8.26a25.19,25.19,0,0,0,2.1,8.9,47.91,47.91,0,0,0,1.64,4.82,25.18,25.18,0,0,0,3.13,4.2c1.87,2.24,4.46,3.86,5.65,6.73.39.94,1.35,1.65,2.48,3-2.24,0-4.25.54-5.71-.13-2.11-1-4.19-.57-6.26-.89C369.49,192.87,366.74,192.35,364.05,191.89Zm-.66-24.31a24.72,24.72,0,0,0-1.54,4.86c-.26,2.45-.62,5.07,1.17,7.22a14.06,14.06,0,0,0,1.87,1.65l.51-.38v-2.11c0-3.17,0-6.34.06-9.51C365.53,167,365.51,166.92,363.39,167.58Z"/><path class="cls-1" d="M434,495.44c.84-1.5,1.43-2.77,2.22-3.9s1.86-2.17,2.77-3.27a64.88,64.88,0,0,0,4.33-5.35,68.17,68.17,0,0,0,3.26-6.15c.81.3,1.86.64,2.87,1.09s2,1.13,3,1.57c1.36.58,2.8,1,4.16,1.55.82.35,1.55.91,2.35,1.32a17.33,17.33,0,0,0,7,2.34,78,78,0,0,1,7.82,1.24,6,6,0,0,1,1,.5,78.39,78.39,0,0,1-5.86,5.54,38,38,0,0,1-6,3.5,39.05,39.05,0,0,1-4,1.49,1.59,1.59,0,0,0-.68.5,1.55,1.55,0,0,1-2.52.2,1.63,1.63,0,0,0-2.47,0c-.43.37-1.7.54-1.89.28-1.16-1.55-2.74-1.06-4.1-.87a5.24,5.24,0,0,1-5-1.7,2.22,2.22,0,0,0-2.07-.35C438.22,496.16,436.23,495.87,434,495.44Z"/><path class="cls-1" d="M188.84,296.11l-2.65-5.1a1.35,1.35,0,0,1-.25-.65c.29-2.26-.62-4.3-1.54-6.18-1.3-2.7-.48-5.68-1.39-8.23-1.32-3.72-.36-7.43-.88-11.1a4.76,4.76,0,0,1,.17-1c2.41.17,4.84.26,7.25.54s4.8.75,7.39,1.17c.06.85.18,1.79.17,2.73,0,3.11,0,6.24-.23,9.33s-.45,6.22-1.56,9c-.85,2.12-.52,4.14-1,6.15-.35,1.52-.92,3-1.51,4.87Z"/><path class="cls-1" d="M413.34,203.58c-3.71-.07-7.15-.16-10.59-.2-11.08-.16-22.15-.2-33.22-.49-3.7-.09-7.38-.8-11.58-1.29.35-1.13.72-2.26,1-3.4a4.74,4.74,0,0,0,.2-1.58c-.11-1.59.69-2.21,2.15-2.05,2.36.25,4.7.57,7.05.86,1.07.13,2.14.27,3.21.37,5,.46,10.09.45,15,1.52,2.87.64,5.84.34,8.5,1.24,3,1,6,.69,8.93,1.1,2.56.35,5.11.83,7.67,1.24C413.29,201.17,414,202.37,413.34,203.58Z"/><path class="cls-1" d="M375,206.12c-2.44,1.32-4.56,2.36-6.58,3.58a29.19,29.19,0,0,0-2.8,2.32c-1.51,1.2-3,2.43-4.6,3.51-3.09,2.09-6.26,4.07-9.38,6.12a2.57,2.57,0,0,1-3.65-1.33,7.1,7.1,0,0,0-1.26-1.72c-1.78-2.18-3.63-4.3-5.33-6.54a25.12,25.12,0,0,1-1.84-3.55,10.5,10.5,0,0,1,2-.36c1.38,0,2.76.26,4.12.15a21.47,21.47,0,0,0,2.87-.89c.63-.15,1.55-.34,1.95,0,2.13,1.73,6.27,1.15,7.37-1.32a2.25,2.25,0,0,1,2.65-1.48c4.3.34,8.6.64,12.9,1A7.7,7.7,0,0,1,375,206.12Z"/><path class="cls-1" d="M214.09,222.53a15,15,0,0,1,.24,1.87c0,3.23.33,6.53-.24,9.67-.54,3-.41,6.19-2.11,9a28.94,28.94,0,0,0-1.48,3.77c-.18.39-.66.92-1,.92-1.46,0-3.08.72-4.29-.81-.19-.24-.79-.19-1.2-.2-2.21-.07-4.45.06-6.63-.23a46.26,46.26,0,0,1-5.89-1.63l21.9-22.68Z"/><path class="cls-1" d="M323,203.6c-1.52.37-2.78.63-4,1a1.4,1.4,0,0,0-.8,1c-.09.88.13,1.78,0,2.66s-.57,1.78-.68,2.69a12.87,12.87,0,0,0-.08,3.61,33.91,33.91,0,0,0,1.28,4.28,4.48,4.48,0,0,1-5.32-2.24c-1.82-3.29-3.45-6.89-2.27-10.5.85-2.62.19-5.56,2-8,.77-1,.8-2.56,1.47-3.68a23.09,23.09,0,0,1,2.82-3.38.84.84,0,0,1,.85,0c1.19,1.14,3.34.71,4,2.95.53,1.74,2,3.16,3.08,4.75a4.54,4.54,0,0,1,.33,1.19c.52,1.76.73,3.71,1.66,5.21a9.11,9.11,0,0,1,1,3.25c.34,1.55-.8,2.34-1.53,3.23a38.79,38.79,0,0,1-3.84,3.74,1.38,1.38,0,0,1-2.17-.91c-.47-2.21-.42-4.37,1.44-6C324,207,323.55,205.36,323,203.6Z"/><path class="cls-1" d="M210.48,289.57c.27-1.24.56-2.47.82-3.72a10.72,10.72,0,0,0,.34-2.09c.09-5.57,0-11.14.24-16.7a6.85,6.85,0,0,1,3-5.4c1.07,2.67,3.81,3.91,4.62,6.73.34,1.19,1.72,2.05,2.49,3.16s1.56,2.61,2.32,3.94c.5.87,1,1.77,1.48,2.65.74,1.3.35,2.58-1.11,2.92-2.18.5-3.65,2.06-5.28,3.33-2.21,1.7-4.14,3.78-7,4.52-.45.12-.82.59-1.22.89Z"/><path class="cls-1" d="M375.57,131.29a11,11,0,0,1,0-2c.23-1.22.65-2.41.89-3.63.39-2.09.71-4.2,1.06-6.3,0-.12.09-.23.1-.34.45-3.14,1-6.26,1.31-9.41a20.88,20.88,0,0,1,2.4-8.44,2.17,2.17,0,0,0,.09-.53c.48-2,.89-4,1.47-5.94a2.3,2.3,0,0,1,2.36-1.78c1,0,1.94.1,2.81-.94.4-.47,2.18-.2,3,.27s.63,3.24-.1,4.2a7.87,7.87,0,0,0-2,4.79c0,2.54-1.29,4.72-2.18,7-.51,1.31-1,2.61-1.64,3.87-1.12,2.31-2.33,4.58-3.47,6.88-.49,1-1,2-1.37,3-1,2.37-1.82,4.78-2.83,7.12a13.08,13.08,0,0,1-1.55,2.2Z"/><path class="cls-1" d="M379.83,279.09c3.74,3,6.88,2.25,10.3.7v6.34c-2.47-.87-4.86-1.4-6.91-2.55-1.63-.9-2.86-2.53-4.22-3.88-1.53-1.51-3.1-3-4.47-4.62-.78-.93-.95-2.48-1.83-3.2-2-1.67-1.18-3.72-.71-5.39a35.45,35.45,0,0,1,3.11-6.42c.85-1.63,1.79-3.21,2.69-4.82.44-.77.86-1.55,1.35-2.28a.82.82,0,0,1,.76-.23.83.83,0,0,1,.43.68c-.38,2.43.5,5-1,7.31a3.79,3.79,0,0,0-.24,1.93c0,3.41-.15,6.83,0,10.23C379.18,275.22,379.63,277.52,379.83,279.09Z"/><path class="cls-1" d="M391.6,270.24c-.12-7.46-1-15,1.56-22.72.33.62.73,1,.73,1.42,0,4.91,0,9.82-.27,14.71a44.88,44.88,0,0,1-1.37,6.59Z"/><path class="cls-1" d="M465.46,268.13v3.3H465v-3.3Z"/><path d="M236.43,137.68c.38,1.78-.35,2.49-2,2.47-4.19,0-8.4.15-12.57-.22-2.24-.2-4.39-1.36-6.59-2.08a5.2,5.2,0,0,0-.68-.17,42.67,42.67,0,0,1-5.89-1.49,67.63,67.63,0,0,1-7.42-3.72,2,2,0,0,1-.6-1.61c0-.29.72-.78,1.11-.79,1.49,0,2.9-.24,4.33.9,1.18.94,3,1.11,4.48,1.66,1.74.64,3.47,1.31,5.2,2,.11.05.18.18.29.21a34.24,34.24,0,0,0,5.18,1.4c4.83.55,9.69.89,14.53,1.32C236,137.55,236.18,137.62,236.43,137.68Z"/><path d="M151.32,219c-.44-1.89.37-3.34,2.28-3.17,3.21.29,6-1,9-1.72s5.6-2.15,8.36-3.31A62.76,62.76,0,0,0,177.2,208a20.8,20.8,0,0,0,3.6-2.93c1-.89,1.83-2,2.88-2.78.43-.33,1.23-.18,1.76-.24,1.13,1.78-.21,2.72-1.1,3.51a95.52,95.52,0,0,1-7.6,6.16,18.67,18.67,0,0,1-3.75,1.54c-1,.43-2,1-3,1.41s-1.75.66-2.62,1c-1.68.67-3.35,1.36-5,2.06-.15.06-.27.29-.42.3C158.38,218.26,155,220.31,151.32,219Z"/><path d="M259.94,148.66c-1.56.82-3,2.05-4.7,2.36a26.29,26.29,0,0,0-6.89,2.43c-1.92,1-4.27,1-6.43,1.49-1.14.25-2.27.52-3.42.74a4.79,4.79,0,0,1-1.41.09c-3-.29-6-.6-9-1-.95-.11-2.32.56-2.59-1.11s1.49-2.08,2.2-2.18c2.54-.35,5.1-.59,7.72.4,1.46.55,3.34.07,5,0,.62,0,1.23-.56,1.83-.53,3,.15,5.44-1.27,8.08-2.36a42.69,42.69,0,0,1,7.81-2c.43-.09,1,.65,1.56,1Z"/><path d="M171.69,182c2.79,2.49,5.4,4.93,8.13,7.22.85.7,1.34,1.58.56,2.13s-2.37.67-2.89.2c-2.06-1.86-4.24-3.62-5.59-6.21C171.36,184.31,170.75,183.6,171.69,182Z"/><path d="M178.68,82.17c1.82-1,3.13,0,4.45,1l2.16,1.64.42-.31.3,3.09C184,88.14,180.42,85.44,178.68,82.17Z"/><path d="M367.3,320.28a28,28,0,0,1,1.79-2.28c3.05-3.09,5.85-6.51,9.28-9.1,2.51-1.9,5.26-3.85,8.78-4.19,2.1-.2,4.06-1.57,6.17-2a53.21,53.21,0,0,1,6.08-.38c.85-.07,1.65-.5,2.5-.6a6.63,6.63,0,0,1,1.74.24c-.1.63,0,1.46-.36,1.84a7,7,0,0,1-2.1,1.11c-3.13,1.44-6.52.81-9.76,1.3-1.74.27-3.36,1.34-5,2a3.15,3.15,0,0,1-.85.23c-3.17.34-5.37,2.38-7.56,4.38-2.41,2.2-4.72,4.52-7.09,6.78a5.81,5.81,0,0,1-1.72,1.36C368.79,321.14,368.18,320.64,367.3,320.28Z"/><path d="M454.15,452.78c-2-3-3.89-5.52-5.41-8.19s-2.74-5.55-4.11-8.33a28.83,28.83,0,0,1-2.05-4.08,51.2,51.2,0,0,1-1.52-6.73c-.06-.39.63-1.15,1.1-1.3.31-.09,1.06.54,1.27,1,1.63,3.5,3.6,6.92,4.6,10.61.64,2.36,2.34,3.93,3.09,6.13.54,1.62,1.89,2.95,2.78,4.46a10.93,10.93,0,0,1,1.65,3.6C455.66,450.71,454.75,451.63,454.15,452.78Z"/><path d="M426.94,375.81a40.57,40.57,0,0,0,2.78,3.53,10.94,10.94,0,0,0,3,2.34c2.93,1.36,6.09,2.27,8.91,3.81a18.89,18.89,0,0,0,9.79,2.2,3.1,3.1,0,0,1,1.75.24,6.54,6.54,0,0,1,1.24,1.72c-.54.29-1.08.83-1.61.83a38,38,0,0,1-7.86-.4c-2.35-.53-4.51-1.91-6.75-2.91a10.73,10.73,0,0,0-1.28-.52,27.57,27.57,0,0,1-5.19-1.42,18.3,18.3,0,0,1-4.1-3.23,9.28,9.28,0,0,1-1.65-2.38C425,377.69,425,377.67,426.94,375.81Z"/><path d="M370.42,412.74l-2.42-.19a60,60,0,0,1-1.07-8.1,27.91,27.91,0,0,1,1.14-7.1A19.09,19.09,0,0,1,370,393.6a1.74,1.74,0,0,0,.22-.48c.44-2.08.84-4.17,1.32-6.24s1.05-4.15,1.59-6.26c2.05-.35,2.66.62,2,2.95-.49,1.75-.64,3.59-1.1,5.35-.65,2.54-1.46,5-2.17,7.56a32.36,32.36,0,0,0-1.4,5.54c-.24,2.44-.05,4.91-.05,7.37Z"/><path d="M75.39,392.05c-1.92,1.36-3.47,2.42-5,3.54-2.48,1.82-4.76,3.88-7.82,4.9-2,.69-3.8,2.17-5.71,3.25a19.55,19.55,0,0,1-2.64,1.19c-1.45.54-2.94,1-4.39,1.52-1.29.48-2.55,1-3.81,1.59a41.42,41.42,0,0,1-4.88,2.06,63.23,63.23,0,0,1-6.72,1.29,9.66,9.66,0,0,1-2-.07c-.38-1.31-.17-2.15,1.24-2.46a52.62,52.62,0,0,0,5.41-1.31c1.58-.51,3-1.35,4.59-2,1.34-.56,2.72-1,4.06-1.58,1.51-.63,3-1.33,4.48-2s2.8-1.1,4.16-1.73,2.88-1.49,4.33-2.21c1-.49,2-.85,3-1.41,1.55-.92,3-2,4.53-2.93a55.82,55.82,0,0,1,5.27-3.3C75.06,389.64,75.63,390.36,75.39,392.05Z"/><path d="M135.07,327.82l-.18,2.38c-2.33,1.11-4.34,2.08-6.36,3-.86.4-1.74.75-2.62,1.11-2.33.93-4.74,1.69-7,2.82-5.35,2.69-11.09,2.3-16.78,2.45-1,0-2,.19-3,.15a4.26,4.26,0,0,1-1.36-.6,8.26,8.26,0,0,0,.78-1c.7-1.29,1.93-1.1,3.09-1.21,4.24-.39,8.5-.65,12.7-1.27,1.69-.26,3.26-1.34,4.89-2,.27-.11.58-.13.85-.24,1.25-.51,2.49-1,3.73-1.56.75-.32,1.47-.71,2.23-1,1.26-.51,2.53-1,3.82-1.45C131.4,328.87,133,328.44,135.07,327.82Z"/><path d="M224.85,328a12.75,12.75,0,0,1,3,2,10.77,10.77,0,0,0,6.2,3.48,34.47,34.47,0,0,1,3.39,1.33c1.23.43,2.52.72,3.75,1.16,1.94.68,3.9,1.33,5.77,2.18a18,18,0,0,1,3.87,2.4c.44.35.43,1.31.51,2,0,.15-.59.56-.73.49-1.09-.52-2.15-1.13-3.21-1.71A2.08,2.08,0,0,0,247,341c-2.2-.54-4.43-1-6.6-1.62-1.85-.55-3.64-1.29-5.45-2a16.78,16.78,0,0,0-3.36-1.41,10.85,10.85,0,0,1-5.23-2.72,27,27,0,0,1-3.11-2.93,1.77,1.77,0,0,1-.15-1.67C223.27,328.3,224.05,328.25,224.85,328Z"/><path d="M233.46,320.38a30.37,30.37,0,0,0-3-.64c-4-.47-8.09-.49-11.95-1.47A65.69,65.69,0,0,0,211.8,317c-.43-.06-1.16-1.21-1-1.48.38-.74,1.14-1.77,1.78-1.78a21.22,21.22,0,0,1,4.39.74c.23,0,.47.1.7.13,4.15.49,8.31.93,12.45,1.48,2.29.31,4.56.76,6.83,1.23.31.07.78.72.71.93a2.37,2.37,0,0,1-1,1.38A21.51,21.51,0,0,1,233.46,320.38Z"/><path d="M91.58,368.68c.21.31,1.1,1,1.07,1.69-.08,1.38-1.44,1.3-2.5,1.48-1.78.29-3.59,1-5.32.86A42,42,0,0,1,78.06,371a4.69,4.69,0,0,0-1.53-.4c-2.25.2-4-1.09-5.82-2-.74-.34-1.54-.56-2.44-.88-.48-1.52.36-2.35,1.84-2.28,1.84.09,3.67-.17,5.47,1.08,1.37,1,3.4.94,5.08,1.51a17.26,17.26,0,0,0,7.54,1.23C89.17,369.17,90.12,369,91.58,368.68Z"/><path d="M420.81,63.59c.39,1.33.63,2.37-.42,3.8-1.32,1.81-2,4.1-2.94,6.18-.66,1.42-1.33,2.82-2,4.23-.55,1.17-1,2.39-1.64,3.51-1.11,1.94-2.36,3.81-3.49,5.75a29.76,29.76,0,0,0-1.54,3.16,1.88,1.88,0,0,1-2.41,1.32,7.77,7.77,0,0,1,1.39-6.1,71.6,71.6,0,0,0,3.68-6.57c1.68-3.42,3-7.06,4.92-10.29C417.47,66.79,418.08,64.27,420.81,63.59Z"/><path d="M427.26,196.57a10.52,10.52,0,0,1,1.17-1.59,18.63,18.63,0,0,0,4.14-4.71,37.76,37.76,0,0,0,3.68-8.27c.73-2.64,1.56-5.26,2.41-7.87.17-.52.7-.91,1-1.41s.26-1.17.6-1.58a4.82,4.82,0,0,1,1.45-.87l1.32,1.07c-.69,2.11-1.36,4.18-2.05,6.25s-1.39,4.17-2.08,6.26a25.61,25.61,0,0,1-1.54,4.39,58.68,58.68,0,0,1-4.24,6.29,6.09,6.09,0,0,1-2.31,1.79,18.24,18.24,0,0,1-3.14.89Z"/><path d="M389.17,127.43c-.19-1.62-.62-3.26.62-4.77a1.31,1.31,0,0,0,.29-.81c0-2.23,1.28-3.91,2.32-5.75,1.14-2,1.84-4.29,2.86-6.39.88-1.81,1.95-3.53,2.95-5.32,1.74.46,1.94,1,1.12,2.72-.66,1.38-1,2.9-1.64,4.3s-1.43,2.66-2.09,4a35.27,35.27,0,0,0-1.42,3.28c-.57,1.55-.89,3.2-1.6,4.67a40.68,40.68,0,0,1-2.77,4.29Z"/><path d="M382.73,140.32c.17,2,.44,4.09-1,5.93a1.41,1.41,0,0,0-.19.66c-.44,2.83-.73,5.7-1.34,8.49-.64,3-1.57,5.89-2.44,8.81-.08.29-.66.43-1,.63a21.78,21.78,0,0,1-.87-2.28c-.06-.24.38-.58.43-.91.56-3.12,1-6.27,1.62-9.38q1.13-5.52,2.54-11c.15-.58,1.07-.95,1.64-1.41Z"/><path d="M408.06,191.12a6.85,6.85,0,0,1,.16-5.24c1-2.59,3.22-4.17,4.49-6.5a12.24,12.24,0,0,1,3.66-3.45c.38-.29,1.3.16,2,.27a6,6,0,0,1-.63,1.39c-1.54,2-3.18,3.85-4.69,5.84a6.92,6.92,0,0,0-1.59,2.81C411.08,188.32,409.63,189.43,408.06,191.12Z"/><path d="M429.29,90.42c.82,2,.73,3.12-1,4.09a20.86,20.86,0,0,0-3.1,2.87,2.2,2.2,0,0,1-1.43.51C424,94.27,427.23,93,429.29,90.42Z"/><path d="M440,88.62c-.1-.41-.23-1-.35-1.47,4.6-2.16,5.16-2.09,5,.69Z"/><path d="M420.87,259.6c.73-2.13,1.45-4.23,2.18-6.32.17-.49.39-.95.57-1.43.59-1.64,1.16-3.29,1.76-4.93a13.1,13.1,0,0,1,.77-1.85c1-1.86,2.06-3.72,3.22-5.5.2-.32,1.05-.22,1.6-.31a7.84,7.84,0,0,1-.07,2.38c-.67,2-1.51,3.94-2.31,5.9-.73,1.8-1.53,3.58-2.24,5.39-.53,1.33-.86,2.75-1.46,4.05a23.8,23.8,0,0,1-2.08,3.49,4.91,4.91,0,0,1-1.26.95Z"/><path d="M487.82,262.44c-2.43.5-2.65.27-2-2h2Z"/><path d="M473.77,260.14a5.07,5.07,0,0,1,1.73,1,1.53,1.53,0,0,1-.17,1.5c-.49.29-1.67.38-1.78.16a6.57,6.57,0,0,1-.33-2.21Z"/><path d="M479.92,261.51l-1.1,1.21c-.32-.41-.88-.8-.89-1.21s.54-.83.85-1.24Z"/><path d="M363.39,167.58c2.12-.66,2.14-.6,2.07,1.73-.08,3.17,0,6.34-.06,9.51v2.11l-.51.38a14.06,14.06,0,0,1-1.87-1.65c-1.79-2.15-1.43-4.77-1.17-7.22A24.72,24.72,0,0,1,363.39,167.58Z"/></g></g></svg>