<svg xmlns="http://www.w3.org/2000/svg" viewBox="0 0 484.09 565.25"><defs><style>.cls-1{fill:#fff;}</style></defs><g id="Layer_2" data-name="Layer 2"><g id="Layer_1-2" data-name="Layer 1"><path class="cls-1" d="M176.34,511.24a17.3,17.3,0,0,1,1.24,4.23c.15,3-.22,6.09-.11,9.12.07,1.65.27,3.61,1.21,4.79.78,1,2.71,1.33,4.17,1.42,3.12.18,6.27-.63,9.31-.69,7.46-.16,15-1.37,22.44.67,2.49.68,5.34-.46,7.67,1.37.45.35,1.54.51,1.53.72,0,1,0,2.37-.64,2.83a19.58,19.58,0,0,1-5.2,2.87,26.1,26.1,0,0,1-5.84,1.19c-4.72.57-9.47.93-14.18,1.55a18.14,18.14,0,0,0-4.66,1.46c-1.27.54-2.35,1.53-3.62,2.05-4.89,2-5.19,5.84-2.2,9.25,2.15,2.45,5.34,3.18,8.3,3.5,4.51.49,9.1.18,13.64.38,3.46.15,6.88-.51,10.4.7,2.43.82,5.37.49,8,.22,4.4-.45,8.38,1.71,12.68,1.65a2.23,2.23,0,0,1,.66.25,47.06,47.06,0,0,0,5.55,2c2.79.63,5.66,1,8.49,1.41.29.05.56.22.85.29a14.81,14.81,0,0,0,3.68.8c1.32,0,2.6-.72,3.93-1a5.12,5.12,0,0,0,4.41-4.87c.16-4.31.25-8.62.31-12.93a2.58,2.58,0,0,1,2.08-2.79c1.81-.49,4.1-2.93,4.13-4.47,0-2.79-.25-5.51.91-8.3,1-2.48,1.12-5.35,1.63-8.05a2.11,2.11,0,0,1,.05-.35,37.42,37.42,0,0,0,2.42-12,9.71,9.71,0,0,1,.27-1.77c.71-3.23,1.55-6.44,2.12-9.7a40,40,0,0,0,.17-5,7.35,7.35,0,0,1,.34-1.74c.3-1,.73-2,1-3.09.5-2.28.91-4.58,1.36-6.88a3.33,3.33,0,0,1,.16-.51c.71-2.24,1.43-4.49,2.15-6.73.33-1,.64-2.09,1-3.1s1.07-2,1.39-3.13c.82-2.8,1.1-5.76,2.57-8.37,1-1.73,1.77-3.55,2.73-5.28a19.12,19.12,0,0,1,1.9-2.74c1-1.2,2.12-2.27,3.08-3.49,1.23-1.55,1.93-3.48,3.61-4.75a17.12,17.12,0,0,0,2.72-3c1.68-2.07,3.23-4.25,5-6.26,1.2-1.37,2.71-2.47,4-3.8,1.63-1.74,3.1-3.62,4.71-5.38,1.35-1.48,2.86-2.82,4.18-4.33,2.71-3.1,5.2-6.42,8.05-9.39a88.89,88.89,0,0,1,7.87-7c1.76-1.46,3.89-2.5,5.57-4,2-1.81,3.75-1.16,5,.53a70.2,70.2,0,0,1,4,6.78c1,1.75,2,3.51,3,5.25,1.93,3.32,4.19,6.48,5.7,10,1.19,2.76,3.19,4.84,4.75,7.27,1.78,2.77,3.83,5.37,5.7,8.08.64.92.88,2.21,1.68,2.91,2.47,2.17,3.85,5.39,6.82,7.06.12.06.09.36.2.48,2,2.25,3.94,4.5,5.95,6.71a34.3,34.3,0,0,1,2.95,3.09c1.15,1.68,1.73,3.84,3.12,5.24,1.6,1.61,2.21,3.71,3.55,5.4.64.79.95,1.83,1.56,2.65,1.48,2,3.13,3.89,4.57,5.92,1.14,1.62,1.88,3.56,3.16,5,2.12,2.48,3,5.52,4.48,8.32.59,1.14,1,2.39,1.56,3.52,1.2,2.25,2.54,4.44,3.74,6.69.61,1.16,1,2.43,1.56,3.62s1.4,2.47,1.95,3.77c1,2.44,1.8,5,2.92,7.37s2.45,4.41,3.7,6.6a13.29,13.29,0,0,0,1.15,1.93c1.38,1.67,1.14,4.17,3.16,5.59a28.71,28.71,0,0,1,4.14,4.11,1.09,1.09,0,0,1-.08,1.06c-1.29,1.46-2.58,2.94-4,4.27-2.6,2.45-5.27,4.81-7.93,7.19-1.48,1.33-2.5,5-1.29,5.91,1.73,1.28,3.79,2.68,5.82,2.85a40.61,40.61,0,0,0,12.15-.69,67.27,67.27,0,0,0,10.29-2.64c3.56-1.39,6.1-4.12,9.23-6,1.3-.8,2.28-2.1,3.52-3,2.16-1.56,4.53-2.85,6.59-4.53s3.72-3.79,5.73-5.51a57.73,57.73,0,0,0,8.3-9.58,2.57,2.57,0,0,0-.27-2.25c-.8-1.23-2-2.22-2.82-3.43s-2-2.62-1.51-4.45a38.12,38.12,0,0,0,.82-4.1c.24-1.95-.4-3.79-.72-5.68a52.77,52.77,0,0,0-2.65-10.8,55.34,55.34,0,0,1-2.59-7.53,46.85,46.85,0,0,0-2.6-7.93c-.66-1.54-1-3.21-1.53-4.81a1.5,1.5,0,0,0-.39-.55,5.56,5.56,0,0,1-2-4,4.88,4.88,0,0,0-.44-1.9c-1.1-2.49-2.28-5-3.41-7.44-.51-1.1-.9-2.26-1.49-3.31s-1.54-2.09-2.12-3.23c-1.05-2.07-1.9-4.23-2.91-6.32-.6-1.24-1.42-2.37-2-3.61a12.3,12.3,0,0,1-1.45-3.88c-.15-1.57-1.07-2.47-1.94-3.52a5.05,5.05,0,0,1-.62-.78c-.64-1.2-1.21-2.43-1.89-3.6-1.08-1.86-2.24-3.68-3.35-5.53-1-1.63-1.86-3.34-2.92-4.92-1.9-2.82-4-5.5-5.83-8.37a54.57,54.57,0,0,1-2.88-5.84c-1.23-2.62-2.43-5.24-3.62-7.88-.52-1.15-1-2.31-1.42-3.5-.81-2.34-1.59-4.69-2.32-7.05-.55-1.79-.72-3.75-1.56-5.36a22.68,22.68,0,0,1-2.1-6.6c-.44-2.4-1-4.79-1.41-7.19-.51-2.79-1-5.58-1.47-8.37a1,1,0,0,0-.08-.35,14.28,14.28,0,0,1-2.41-8,4.36,4.36,0,0,0-.18-1.06c-.73-3-1.57-5.95-2.14-9-.33-1.69,0-3.5-.35-5.19-.61-3.15-1.73-6.22-2.16-9.38-.51-3.69.18-7.45-1.1-11.15-.8-2.31-.07-4.94-1.38-7.35s-1.86-5.16-2.93-7.68-2.46-4.88-3.53-7.39c-.66-1.54-1.43-2.76-3.14-3.21a1.28,1.28,0,0,1-.74-.8c-.44-1.69-.55-3.42-1-5.15-.92-3.33-2.83-6-4.5-8.79a4,4,0,0,1-.86-2.51c.33-2.55.79-5.08,1.28-7.61.24-1.25.74-2.45,1-3.7a4.78,4.78,0,0,0-.23-1.85c-.13-.57-.62-1.15-.52-1.64.45-2.23-1-3.94-1.65-5.77-.78-2.09-2.39-3.86-3.46-5.87-1.45-2.71-2.7-5.53-4.08-8.28-.88-1.74-1.85-3.43-2.8-5.14-.73-1.32-1.49-2.61-2.21-3.93s-1.45-2.61-2.1-3.95-1.17-2.65-1.78-4a2.88,2.88,0,0,0-.64-.87,11.47,11.47,0,0,1-3-5,52.93,52.93,0,0,1-1.47-6.68,7.71,7.71,0,0,0-.3-.8,33.31,33.31,0,0,1-1.95-5.75c-.39-2.53.29-5.32-.47-7.68-1.08-3.31-.89-6.58-1-9.9,0-1,.21-2.25-.27-3-1.3-2.06-.79-4.27-1-6.43a11.28,11.28,0,0,0-.19-1.76c-.69-2.54-1.63-5-2.1-7.6s-.57-5.42-1.26-8.16-2.47-5.24-3-8.11a9.73,9.73,0,0,0-1.42-2.87c-1.54-2.58-3.13-5.14-4.73-7.69a25.28,25.28,0,0,0-4.69-6.2,20.82,20.82,0,0,1-5-5.81c-1.25-2.4-4.22-3.59-4.38-6.63-1.63-.85-1.65-2.69-2.3-4.08a5.58,5.58,0,0,1,.11-3.6c.59-2,1.75-3.79,2.22-5.78.68-3,1-6,1.43-9a13.5,13.5,0,0,1,.32-1.4,20.29,20.29,0,0,0,.86-3.54c.14-2.33.07-4.67,0-7a9,9,0,0,0-.38-2.11,56.14,56.14,0,0,1-2-7.21,17.54,17.54,0,0,0-2.73-6.81A11.81,11.81,0,0,0,336.83,69c-1.35-1.57-2.16-3.54-4.28-4.52a22.91,22.91,0,0,1-6.56-4c-2-1.93-4.57-2-6.68-3.32-1.18-.74-2.81-.76-4-1.46A16.54,16.54,0,0,0,307,53.51c-6.57,0-13.13-.71-19.71.8a47.93,47.93,0,0,0-9.6,2.74,22.8,22.8,0,0,0-2.86,1.49,31.07,31.07,0,0,0-3.1,2.26c-1,.81-1.91,1.71-2.86,2.56-2.37,2.13-4.54,4.37-4.62,7.85a3.51,3.51,0,0,1-.27,1c-.67,2-1.78,4-2,6a106.83,106.83,0,0,0-.09,11.32,4.54,4.54,0,0,0,.9,1.92c.48.8,1.06,1.54,1.52,2.35s.8,1.74,1.29,2.56c.75,1.27,2.18,2.46,2.28,3.75.29,4.22.12,8.48.09,12.72,0,.39-.34.77-.38,1.17-.32,2.86-.61,5.73-.9,8.6a.43.43,0,0,0,.11.33c1.6.91,2.56,2.92,4.79,2.71,1.16-.1,1.45.56,1.63,1.61a12.75,12.75,0,0,0,1.11,2.76,34.24,34.24,0,0,1,1.45,3.29c.62,2,1.08,4,1.74,6.44-.65,1.45-2.68,1.8-4.46,2.57-1.22.52-2.39,1.18-3.56,1.8A37.9,37.9,0,0,1,266,146c-1.54.62-3.16,1-4.76,1.54-2.41.74-4.79,1.61-7.25,2.15-2,.44-3.9.4-5.92,1.14-3,1.08-6.36,1.07-9.58,1.3-1.1.08-2.24-.66-3.38-.77-4.5-.46-9-.53-13.53-1-8.24-1-16.65-.22-24.9-1.68-1.05-.19-2.12-.32-3.18-.49-1.46-.23-2.92-.53-4.4-.66-.27,0-.77.63-.87,1-.53,2-1,4.11-1.46,6.28a7.41,7.41,0,0,1-2.13-.18,27,27,0,0,0-7.47-2.43c-1.33-.14-2.77-.31-3.2-2.11-.32-1.33-1-2.58-1.44-3.89-.78-2.33-1.57-4.66-2.22-7-.58-2.06-1-4.17-1.45-6.26a5.27,5.27,0,0,0-.22-.49c-.71-1.77-1.45-3.54-2.13-5.33-.59-1.57-.76-3.45-1.76-4.68-1.19-1.48-.75-2.68-.42-4.55,1.87.38,3.6.85,5.36,1.07a18,18,0,0,0,4.08,0c1-.09,2-.62,3-.7,2.57-.21,3.47-1.06,3.72-3.67.05-.54.41-1,.47-1.6a14.19,14.19,0,0,0,0-2.44c0-.67-.53-1.73-.29-1.92,1.63-1.25.83-2.93,1-4.43a2.56,2.56,0,0,1,2.31-2.48,5.92,5.92,0,0,0,3.57-1.45,4.25,4.25,0,0,0,1.35-4.5,20.3,20.3,0,0,1-.94-3.08c-.19-.75-.32-1.51-.45-2.27-.19-1.13-.82-2.48-.44-3.38,1.21-2.85.66-5.79.94-8.68a5.75,5.75,0,0,1,.26-1.93,18.51,18.51,0,0,0,2.31-8.85,10.87,10.87,0,0,1,.27-2.47,12.46,12.46,0,0,0,.68-2.94c-.09-1.37-.75-2.7-.89-4.08-.2-1.86.14-3.81-1.41-5.32a7.79,7.79,0,0,1-1.17-1.55c-2.5-3.93-6.2-6.61-9.84-9.32-.9-.67-2-1-3-1.62-1.88-1.11-3.61-2.56-5.61-3.35-2.19-.86-3.93-2.42-6.33-3.09s-4.47-2.28-7.13-2.17c-.29,0-.73,0-.85-.17-.95-1.42-2.45-.89-3.74-1.12-1.54-.27-3.06-.65-4.6-.93a3.82,3.82,0,0,0-1.43,0c-1.43.27-2.86.59-4.27.94A3.53,3.53,0,0,0,140,31c-2.83,2.38-5.69,4.73-8.41,7.25a26.24,26.24,0,0,0-5.78,6.93c-.4.75-.89,1.45-1.28,2.21a15,15,0,0,0-.92,2.14c-.55,1.62-1,3.25-1.54,4.88s-1,3.43-1.53,5.11c-.73,2.24-2.09,4.42-2.2,6.68-.29,5.61-.13,11.26.07,16.88a16.36,16.36,0,0,0,1.36,4.82c.54,1.43,1.29,2.78,2.1,4.46-1.52,1.35-3.26,2.77-4.86,4.34a34.88,34.88,0,0,1-11,7.58,21.69,21.69,0,0,0-3,1.6c-2.36,1.5-4.7,3-7,4.59s-4.67,3-6.8,4.67a65.72,65.72,0,0,0-5.06,5,13.55,13.55,0,0,0-1.36,1.48c-2.21,3-5.27,5.35-6.86,8.91-.77,1.71-2.42,3-3.44,4.63q-2.61,4.17-4.92,8.53c-.66,1.26-.93,2.72-1.48,4s-1.16,2.32-1.71,3.5c-.7,1.49-1.46,3-2,4.5s-.94,3.46-1.54,5.15c-.7,2-1.56,3.91-2.32,5.87A29.42,29.42,0,0,1,56.89,171c-1.09,1.89-2.35,3.65-2.32,5.95a1.18,1.18,0,0,1-.2.67,10.48,10.48,0,0,0-2.29,5.23,2.26,2.26,0,0,1-.31,1,41.58,41.58,0,0,1-3.42,4.55c-2.78,2.91-5.66,5.72-8.6,8.47-1.31,1.23-3.13,1.91-4,3.62-.61,1.21-1.1,2.5-1.71,3.71-1.09,2.14-2.42,4.18-3.3,6.39a26.55,26.55,0,0,0-1.2,5.43,70.09,70.09,0,0,0-1.27,8.73c-.22,5.08-.18,10.19,0,15.28.07,2.39.68,4.76.92,7.15.21,2.08-.24,4.37.49,6.21.87,2.19.72,4.3,1,6.47a32.27,32.27,0,0,0,1,4.94c.37,1.39,1.09,2.71,1.41,4.12.62,2.79,1.06,5.63,1.58,8.45a3.3,3.3,0,0,0,.13.52,32.32,32.32,0,0,1,1.93,5.66,57.88,57.88,0,0,0,2.6,9.15c1.31,4,4.69,4.92,7.79,5.66s6.55.31,9.84.2c2.79-.09,3.82.61,4,3.47a12.93,12.93,0,0,1-.83,5.48,29.72,29.72,0,0,0-1.44,8.63c-.22,4.49-.16,9,0,13.49a50.57,50.57,0,0,0,1,6.76,46.43,46.43,0,0,0,1.19,5.86c.71,2.28,1.71,4.48,2.61,6.71a17.85,17.85,0,0,0,1.81,4.1,2.32,2.32,0,0,1,.3,2.57,4.76,4.76,0,0,0-.18,2.16c.14,1.09.65,2.16.69,3.25.12,3.35.23,6.72.08,10.07-.29,6.21.69,12.44-1,18.64-1.08,4-1.15,8.16-1.71,12.25a11.72,11.72,0,0,1-.62,1.84c-.57,1.7-1.09,3.41-1.7,5.1a43,43,0,0,1-2,4.93c-.9,1.74-2,3.38-3.09,5-1.4,2.19-2.8,4.38-4.26,6.53-1.12,1.65-2.38,3.2-3.49,4.85s-2.27,3.56-3.35,5.36c-1.79,2.95-3.6,5.88-5.28,8.89-1.1,2-2,4.05-3,6.08-.46.93-.94,1.86-1.42,2.79-.71,1.37-1.49,2.71-2.12,4.12s-1.15,3-1.76,4.52c-.69,1.68-1.38,3.36-2.14,5-.66,1.44-1.42,2.84-2.13,4.26-1,2-2,4.05-3,6.08-.17.37-.15.84-.35,1.18-1.1,1.86-2.26,3.68-3.36,5.54-.93,1.57-1.78,3.2-2.74,4.76-.76,1.21-1.72,2.29-2.46,3.52-1,1.66-1.86,3.41-2.8,5.11-1.55,2.79-3.12,5.57-4.68,8.36a21,21,0,0,0-1.19,2.25c-.6,1.51-1,3.12-1.7,4.57a56.52,56.52,0,0,1-3.87,6.93c-1.47,2.15-.78,4.38-.78,6.59,0,.34.47.74.8,1a17.34,17.34,0,0,1,2.69,2.32A13.59,13.59,0,0,1,5,532.73c.91,2.35,1.74,4.73,2.73,7a44.21,44.21,0,0,0,2.14,3.94c1.35,2.38,2.72,4.75,4.06,7.13,1,1.76,1.68,3.77,3,5.27A65.8,65.8,0,0,0,23.09,562a4.13,4.13,0,0,0,4.78.3,2.12,2.12,0,0,1,1.71-.06,3.31,3.31,0,0,0,3.67-.21c1.35-.81,2.71-2.28,4.82-1.74,1,.26,2.25-.34,3.39-.56l-.07-.53c2.54,1.38,2.52,1.35,4.52-1a1.56,1.56,0,0,1,1.41-.26,14.88,14.88,0,0,1,3.51,1.53c2.53,1.69,4.56,1,5.14-1.88.76-3.77-.29-7.34-1.56-10.77-.75-2-2.32-3.74-2.34-6.08a1,1,0,0,0-.17-.49c-1.08-1.58-2.27-3.09-3.21-4.74a2.23,2.23,0,0,1,.21-2c1.26-1.64,2.72-3.12,4.06-4.7a13.36,13.36,0,0,0,1.63-2.33,32.14,32.14,0,0,1,1.8-3.84c1.88-2.65,4.4-4.74,6.3-7.46,2.17-3.1,5.43-5.41,8-8.25,1.16-1.29,3-2.13,3.25-4.16,0-.29.56-.64.91-.73a1.76,1.76,0,0,0,1.54-1.66c0-.32.45-.6.71-.87a24.78,24.78,0,0,0,1.87-2c1.37-1.81,2.6-3.72,4-5.5,1-1.25,2.22-2.31,3.22-3.55,2.09-2.61,4.12-5.26,6.12-7.93a36.45,36.45,0,0,0,3-4.5c1.09-2.06,1.9-4.27,2.94-6.36,1.13-2.28,2.36-4.51,3.59-6.73.65-1.17,1.39-2.29,2.09-3.44.92-1.53,2.18-3,2.68-4.61.92-3,3-5.24,4.62-7.78,1.1-1.7,2.21-3.4,3.27-5.13,1-1.57,1.86-3.17,2.73-4.78a31.9,31.9,0,0,0,2.12-4.21c.67-1.84,1-3.79,1.64-5.66.4-1.24,1.07-2.39,1.54-3.61.71-1.8,1.36-3.61,2-5.43.14-.39,0-.88.23-1.23a18.13,18.13,0,0,0,2.39-7.55,3.45,3.45,0,0,1,.26-1c.68-1.78,1.48-3.51,2-5.33.62-2,1-4.14,1.54-6.22,0-.11,0-.23.08-.35a73.53,73.53,0,0,0,2.32-7c.44-1.88.35-2,2.38-1.56a5.44,5.44,0,0,0,.44,1.71c1.16,1.71,2.41,3.37,3.66,5,.29.39.86.58,1.11,1,1.13,1.83,2.06,3.8,3.31,5.53,1.83,2.51,3.94,4.82,5.8,7.31,1,1.39,1.66,3.13,2.79,4.43,2,2.32,2.64,5.23,3.33,8,.77,3.11.05,6.41,1.14,9.64.94,2.81,0,6,1.19,9s.21,6.56,1.41,9.89c.93,2.59.2,5.61,1.16,8.52,1.07,3.24,1,6.87,1.41,10.33.49,3.69,1,7.38,1.55,11.07,0,.18,0,.36.09.53.76,3,1.57,6,2.27,9.08.62,2.67,1.12,5.37,1.67,8.05,0,.06,0,.11,0,.17.72,2.64,1.38,5.29,2.15,7.91.5,1.71.86,3.57,2.61,4.55C174,510.23,175.19,510.7,176.34,511.24ZM322,0l-9,1.37c-.11,0-.21.11-.32.14-3.54.75-7.08,1.55-10.63,2.24-1.28.25-2.63.13-3.9.41-2.58.59-5.1,1.54-7.7,2-4,.7-8.09,1.1-12.13,1.64a5.44,5.44,0,0,0-.7.15c-2.42.71-4.81,1.61-7.27,2.09-2.29.45-4.62.24-7,1-2.84.95-6,.14-9,1.45-1.19.53-2.52.68-3.36,1.8-.41.56-.61,1.29-1,1.84-1.59,2.08-1,4.12,1.17,5.58,1.58,1.07,3.19,1.08,4.89,1.14,2.87.11,5.77,0,8.61.36,3.88.5,7.71,1.43,11.58,2,2.37.38,4.74.27,7.15,1.09,3,1,6.34,1.07,9.55,1.43,1.72.2,3.49,0,5.2.26,1.35.19,2.62.91,4,1.1,4.07.59,8.16,1,12.25,1.53a2,2,0,0,1,.35.06c2.67.7,5.34,1.4,8,2.13a3.19,3.19,0,0,0,3.73-1.54,7.58,7.58,0,0,0-.27-5.29c-.68-1.36-2.57-2.16-4-3.09-1-.67-2.2-1.12-3.27-1.72-2-1.1-3.34-3.09-5.73-3.6-.64-.14-1.21-1-1.59-1.64-.1-.18.52-.93.95-1.24,1.18-.84,2.44-1.55,3.64-2.36,1.7-1.16,3.37-2.35,5-3.55s3.52-2.23,4.81-3.75c.62-.73.62-3.05,0-3.53C324.68.56,322.83.31,322,0Z"/><path d="M176.34,511.24c-1.15-.54-2.32-1-3.41-1.62-1.75-1-2.11-2.84-2.61-4.55-.77-2.62-1.43-5.27-2.15-7.91,0-.06,0-.11,0-.17-.55-2.68-1.05-5.38-1.67-8.05-.7-3-1.51-6.05-2.27-9.08,0-.17-.06-.35-.09-.53-.52-3.69-1.06-7.38-1.55-11.07-.45-3.46-.34-7.09-1.41-10.33-1-2.91-.23-5.93-1.16-8.52-1.2-3.33-.27-6.84-1.41-9.89s-.25-6.19-1.19-9c-1.09-3.23-.37-6.53-1.14-9.64-.69-2.76-1.3-5.67-3.33-8-1.13-1.3-1.74-3-2.79-4.43-1.86-2.49-4-4.8-5.8-7.31-1.25-1.73-2.18-3.7-3.31-5.53-.25-.4-.82-.59-1.11-1-1.25-1.64-2.5-3.3-3.66-5a5.44,5.44,0,0,1-.44-1.71c-2-.47-1.94-.32-2.38,1.56a73.53,73.53,0,0,1-2.32,7c0,.12-.05.24-.08.35-.51,2.08-.92,4.18-1.54,6.22-.56,1.82-1.36,3.55-2,5.33a3.45,3.45,0,0,0-.26,1,18.13,18.13,0,0,1-2.39,7.55c-.19.35-.09.84-.23,1.23-.64,1.82-1.29,3.63-2,5.43-.47,1.22-1.14,2.37-1.54,3.61-.62,1.87-1,3.82-1.64,5.66a31.9,31.9,0,0,1-2.12,4.21c-.87,1.61-1.78,3.21-2.73,4.78-1.06,1.73-2.17,3.43-3.27,5.13-1.63,2.54-3.7,4.76-4.62,7.78-.5,1.66-1.76,3.08-2.68,4.61-.7,1.15-1.44,2.27-2.09,3.44-1.23,2.22-2.46,4.45-3.59,6.73-1,2.09-1.85,4.3-2.94,6.36a36.45,36.45,0,0,1-3,4.5c-2,2.67-4,5.32-6.12,7.93-1,1.24-2.24,2.3-3.22,3.55-1.4,1.78-2.63,3.69-4,5.5a24.78,24.78,0,0,1-1.87,2c-.26.27-.67.55-.71.87a1.76,1.76,0,0,1-1.54,1.66c-.35.09-.87.44-.91.73-.27,2-2.09,2.87-3.25,4.16-2.57,2.84-5.83,5.15-8,8.25-1.9,2.72-4.42,4.81-6.3,7.46a32.14,32.14,0,0,0-1.8,3.84A13.36,13.36,0,0,1,53,528.69c-1.34,1.58-2.8,3.06-4.06,4.7a2.23,2.23,0,0,0-.21,2c.94,1.65,2.13,3.16,3.21,4.74a1,1,0,0,1,.17.49c0,2.34,1.59,4.06,2.34,6.08,1.27,3.43,2.32,7,1.56,10.77-.58,2.88-2.61,3.57-5.14,1.88a14.88,14.88,0,0,0-3.51-1.53,1.56,1.56,0,0,0-1.41.26c-2,2.39-2,2.42-4.52,1l.07.53c-1.14.22-2.37.82-3.39.56-2.11-.54-3.47.93-4.82,1.74a3.31,3.31,0,0,1-3.67.21,2.12,2.12,0,0,0-1.71.06,4.13,4.13,0,0,1-4.78-.3,65.8,65.8,0,0,1-6.19-5.83c-1.29-1.5-2-3.51-3-5.27-1.34-2.38-2.71-4.75-4.06-7.13a44.21,44.21,0,0,1-2.14-3.94c-1-2.32-1.82-4.7-2.73-7a13.59,13.59,0,0,0-1.35-3.22A17.34,17.34,0,0,0,1,527.19c-.33-.28-.8-.68-.8-1,0-2.21-.69-4.44.78-6.59a56.52,56.52,0,0,0,3.87-6.93c.72-1.45,1.1-3.06,1.7-4.57a21,21,0,0,1,1.19-2.25c1.56-2.79,3.13-5.57,4.68-8.36.94-1.7,1.8-3.45,2.8-5.11.74-1.23,1.7-2.31,2.46-3.52,1-1.56,1.81-3.19,2.74-4.76,1.1-1.86,2.26-3.68,3.36-5.54.2-.34.18-.81.35-1.18,1-2,2-4.06,3-6.08.71-1.42,1.47-2.82,2.13-4.26.76-1.65,1.45-3.33,2.14-5,.61-1.5,1.1-3.05,1.76-4.52s1.41-2.75,2.12-4.12c.48-.93,1-1.86,1.42-2.79,1-2,1.88-4.12,3-6.08,1.68-3,3.49-5.94,5.28-8.89,1.08-1.8,2.17-3.61,3.35-5.36s2.37-3.2,3.49-4.85c1.46-2.15,2.86-4.34,4.26-6.53,1.06-1.66,2.19-3.3,3.09-5a43,43,0,0,0,2-4.93c.61-1.69,1.13-3.4,1.7-5.1a11.72,11.72,0,0,0,.62-1.84c.56-4.09.63-8.3,1.71-12.25,1.7-6.2.72-12.43,1-18.64.15-3.35,0-6.72-.08-10.07,0-1.09-.55-2.16-.69-3.25a4.76,4.76,0,0,1,.18-2.16,2.32,2.32,0,0,0-.3-2.57,17.85,17.85,0,0,1-1.81-4.1c-.9-2.23-1.9-4.43-2.61-6.71a46.43,46.43,0,0,1-1.19-5.86,50.57,50.57,0,0,1-1-6.76c-.16-4.49-.22-9,0-13.49a29.72,29.72,0,0,1,1.44-8.63,12.93,12.93,0,0,0,.83-5.48c-.21-2.86-1.24-3.56-4-3.47-3.29.11-6.72.54-9.84-.2s-6.48-1.61-7.79-5.66a57.88,57.88,0,0,1-2.6-9.15,32.32,32.32,0,0,0-1.93-5.66,3.3,3.3,0,0,1-.13-.52c-.52-2.82-1-5.66-1.58-8.45-.32-1.41-1-2.73-1.41-4.12a32.27,32.27,0,0,1-1-4.94c-.24-2.17-.09-4.28-1-6.47-.73-1.84-.28-4.13-.49-6.21-.24-2.39-.85-4.76-.92-7.15-.14-5.09-.18-10.2,0-15.28A70.09,70.09,0,0,1,29.54,216a26.55,26.55,0,0,1,1.2-5.43c.88-2.21,2.21-4.25,3.3-6.39.61-1.21,1.1-2.5,1.71-3.71.87-1.71,2.69-2.39,4-3.62,2.94-2.75,5.82-5.56,8.6-8.47a41.58,41.58,0,0,0,3.42-4.55,2.26,2.26,0,0,0,.31-1,10.48,10.48,0,0,1,2.29-5.23,1.18,1.18,0,0,0,.2-.67c0-2.3,1.23-4.06,2.32-5.95a29.42,29.42,0,0,0,1.58-4.21c.76-2,1.62-3.89,2.32-5.87.6-1.69.93-3.47,1.54-5.15s1.32-3,2-4.5c.55-1.18,1.21-2.31,1.71-3.5s.82-2.79,1.48-4q2.31-4.35,4.92-8.53c1-1.63,2.67-2.92,3.44-4.63,1.59-3.56,4.65-5.88,6.86-8.91a13.55,13.55,0,0,1,1.36-1.48,65.72,65.72,0,0,1,5.06-5c2.13-1.72,4.51-3.15,6.8-4.67s4.67-3.09,7-4.59a21.69,21.69,0,0,1,3-1.6,34.88,34.88,0,0,0,11-7.58c1.6-1.57,3.34-3,4.86-4.34-.81-1.68-1.56-3-2.1-4.46a16.36,16.36,0,0,1-1.36-4.82c-.2-5.62-.36-11.27-.07-16.88.11-2.26,1.47-4.44,2.2-6.68.56-1.68,1-3.41,1.53-5.11s1-3.26,1.54-4.88a15,15,0,0,1,.92-2.14c.39-.76.88-1.46,1.28-2.21a26.24,26.24,0,0,1,5.78-6.93c2.72-2.52,5.58-4.87,8.41-7.25a3.53,3.53,0,0,1,1.42-.64c1.41-.35,2.84-.67,4.27-.94a3.82,3.82,0,0,1,1.43,0c1.54.28,3.06.66,4.6.93,1.29.23,2.79-.3,3.74,1.12.12.17.56.18.85.17,2.66-.11,4.78,1.52,7.13,2.17s4.14,2.23,6.33,3.09c2,.79,3.73,2.24,5.61,3.35,1,.58,2.09.95,3,1.62,3.64,2.71,7.34,5.39,9.84,9.32a7.79,7.79,0,0,0,1.17,1.55c1.55,1.51,1.21,3.46,1.41,5.32.14,1.38.8,2.71.89,4.08a12.46,12.46,0,0,1-.68,2.94,10.87,10.87,0,0,0-.27,2.47,18.51,18.51,0,0,1-2.31,8.85,5.75,5.75,0,0,0-.26,1.93c-.28,2.89.27,5.83-.94,8.68-.38.9.25,2.25.44,3.38.13.76.26,1.52.45,2.27a20.3,20.3,0,0,0,.94,3.08,4.25,4.25,0,0,1-1.35,4.5,5.92,5.92,0,0,1-3.57,1.45,2.56,2.56,0,0,0-2.31,2.48c-.19,1.5.61,3.18-1,4.43-.24.19.25,1.25.29,1.92a14.19,14.19,0,0,1,0,2.44c-.06.55-.42,1.06-.47,1.6-.25,2.61-1.15,3.46-3.72,3.67-1,.08-2,.61-3,.7a18,18,0,0,1-4.08,0c-1.76-.22-3.49-.69-5.36-1.07-.33,1.87-.77,3.07.42,4.55,1,1.23,1.17,3.11,1.76,4.68.68,1.79,1.42,3.56,2.13,5.33a5.27,5.27,0,0,1,.22.49c.48,2.09.87,4.2,1.45,6.26.65,2.37,1.44,4.7,2.22,7,.44,1.31,1.12,2.56,1.44,3.89.43,1.8,1.87,2,3.2,2.11a27,27,0,0,1,7.47,2.43,7.41,7.41,0,0,0,2.13.18c.49-2.17.93-4.24,1.46-6.28.1-.41.6-1.06.87-1,1.48.13,2.94.43,4.4.66,1.06.17,2.13.3,3.18.49,8.25,1.46,16.66.72,24.9,1.68,4.52.52,9,.59,13.53,1,1.14.11,2.28.85,3.38.77,3.22-.23,6.61-.22,9.58-1.3,2-.74,4-.7,5.92-1.14,2.46-.54,4.84-1.41,7.25-2.15,1.6-.49,3.22-.92,4.76-1.54a37.9,37.9,0,0,0,3.5-1.86c1.17-.62,2.34-1.28,3.56-1.8,1.78-.77,3.81-1.12,4.46-2.57-.66-2.48-1.12-4.49-1.74-6.44a34.24,34.24,0,0,0-1.45-3.29,12.75,12.75,0,0,1-1.11-2.76c-.18-1-.47-1.71-1.63-1.61-2.23.21-3.19-1.8-4.79-2.71a.43.43,0,0,1-.11-.33c.29-2.87.58-5.74.9-8.6,0-.4.38-.78.38-1.17,0-4.24.2-8.5-.09-12.72-.1-1.29-1.53-2.48-2.28-3.75-.49-.82-.81-1.73-1.29-2.56s-1-1.55-1.52-2.35a4.54,4.54,0,0,1-.9-1.92A106.83,106.83,0,0,1,262,78.26c.18-2.05,1.29-4,2-6a3.51,3.51,0,0,0,.27-1c.08-3.48,2.25-5.72,4.62-7.85.95-.85,1.87-1.75,2.86-2.56a31.07,31.07,0,0,1,3.1-2.26,22.8,22.8,0,0,1,2.86-1.49,47.93,47.93,0,0,1,9.6-2.74c6.58-1.51,13.14-.8,19.71-.8a16.54,16.54,0,0,1,8.29,2.21c1.22.7,2.85.72,4,1.46,2.11,1.33,4.72,1.39,6.68,3.32a22.91,22.91,0,0,0,6.56,4c2.12,1,2.93,3,4.28,4.52a11.81,11.81,0,0,1,1.22,1.35,17.54,17.54,0,0,1,2.73,6.81,56.14,56.14,0,0,0,2,7.21,9,9,0,0,1,.38,2.11c.05,2.34.12,4.68,0,7a20.29,20.29,0,0,1-.86,3.54,13.5,13.5,0,0,0-.32,1.4c-.47,3-.75,6.06-1.43,9-.47,2-1.63,3.81-2.22,5.78a5.58,5.58,0,0,0-.11,3.6c.65,1.39.67,3.23,2.3,4.08.16,3,3.13,4.23,4.38,6.63a20.82,20.82,0,0,0,5,5.81,25.28,25.28,0,0,1,4.69,6.2c1.6,2.55,3.19,5.11,4.73,7.69a9.73,9.73,0,0,1,1.42,2.87c.56,2.87,2.3,5.24,3,8.11s.77,5.46,1.26,8.16,1.41,5.06,2.1,7.6a11.28,11.28,0,0,1,.19,1.76c.21,2.16-.3,4.37,1,6.43.48.76.23,2,.27,3,.13,3.32-.06,6.59,1,9.9.76,2.36.08,5.15.47,7.68a33.31,33.31,0,0,0,1.95,5.75,7.71,7.71,0,0,1,.3.8,52.93,52.93,0,0,0,1.47,6.68,11.47,11.47,0,0,0,3,5,2.88,2.88,0,0,1,.64.87c.61,1.32,1.14,2.67,1.78,4s1.38,2.64,2.1,3.95,1.48,2.61,2.21,3.93c.95,1.71,1.92,3.4,2.8,5.14,1.38,2.75,2.63,5.57,4.08,8.28,1.07,2,2.68,3.78,3.46,5.87.69,1.83,2.1,3.54,1.65,5.77-.1.49.39,1.07.52,1.64a4.78,4.78,0,0,1,.23,1.85c-.23,1.25-.73,2.45-1,3.7-.49,2.53-1,5.06-1.28,7.61a4,4,0,0,0,.86,2.51c1.67,2.78,3.58,5.46,4.5,8.79.48,1.73.59,3.46,1,5.15a1.28,1.28,0,0,0,.74.8c1.71.45,2.48,1.67,3.14,3.21,1.07,2.51,2.47,4.88,3.53,7.39s1.63,5.29,2.93,7.68.58,5,1.38,7.35c1.28,3.7.59,7.46,1.1,11.15.43,3.16,1.55,6.23,2.16,9.38.33,1.69,0,3.5.35,5.19.57,3,1.41,6,2.14,9a4.36,4.36,0,0,1,.18,1.06,14.28,14.28,0,0,0,2.41,8,1,1,0,0,1,.08.35c.49,2.79,1,5.58,1.47,8.37.44,2.4,1,4.79,1.41,7.19a22.68,22.68,0,0,0,2.1,6.6c.84,1.61,1,3.57,1.56,5.36.73,2.36,1.51,4.71,2.32,7.05.42,1.19.9,2.35,1.42,3.5,1.19,2.64,2.39,5.26,3.62,7.88a54.57,54.57,0,0,0,2.88,5.84c1.82,2.87,3.93,5.55,5.83,8.37,1.06,1.58,1.94,3.29,2.92,4.92,1.11,1.85,2.27,3.67,3.35,5.53.68,1.17,1.25,2.4,1.89,3.6a5.05,5.05,0,0,0,.62.78c.87,1,1.79,1.95,1.94,3.52a12.3,12.3,0,0,0,1.45,3.88c.59,1.24,1.41,2.37,2,3.61,1,2.09,1.86,4.25,2.91,6.32.58,1.14,1.49,2.11,2.12,3.23s1,2.21,1.49,3.31c1.13,2.48,2.31,4.95,3.41,7.44a4.88,4.88,0,0,1,.44,1.9,5.56,5.56,0,0,0,2,4,1.5,1.5,0,0,1,.39.55c.51,1.6.87,3.27,1.53,4.81a46.85,46.85,0,0,1,2.6,7.93,55.34,55.34,0,0,0,2.59,7.53,52.77,52.77,0,0,1,2.65,10.8c.32,1.89,1,3.73.72,5.68a38.12,38.12,0,0,1-.82,4.1c-.46,1.83.6,3.15,1.51,4.45s2,2.2,2.82,3.43a2.57,2.57,0,0,1,.27,2.25,57.73,57.73,0,0,1-8.3,9.58c-2,1.72-3.69,3.84-5.73,5.51s-4.43,3-6.59,4.53c-1.24.9-2.22,2.2-3.52,3-3.13,1.91-5.67,4.64-9.23,6a67.27,67.27,0,0,1-10.29,2.64,40.61,40.61,0,0,1-12.15.69c-2-.17-4.09-1.57-5.82-2.85-1.21-.89-.19-4.58,1.29-5.91,2.66-2.38,5.33-4.74,7.93-7.19,1.41-1.33,2.7-2.81,4-4.27a1.09,1.09,0,0,0,.08-1.06,28.71,28.71,0,0,0-4.14-4.11c-2-1.42-1.78-3.92-3.16-5.59a13.29,13.29,0,0,1-1.15-1.93c-1.25-2.19-2.63-4.32-3.7-6.6s-1.9-4.93-2.92-7.37c-.55-1.3-1.34-2.5-1.95-3.77s-.95-2.46-1.56-3.62c-1.2-2.25-2.54-4.44-3.74-6.69-.6-1.13-1-2.38-1.56-3.52-1.43-2.8-2.36-5.84-4.48-8.32-1.28-1.48-2-3.42-3.16-5-1.44-2-3.09-3.92-4.57-5.92-.61-.82-.92-1.86-1.56-2.65-1.34-1.69-1.95-3.79-3.55-5.4-1.39-1.4-2-3.56-3.12-5.24a34.3,34.3,0,0,0-2.95-3.09c-2-2.21-4-4.46-5.95-6.71-.11-.12-.08-.42-.2-.48-3-1.67-4.35-4.89-6.82-7.06-.8-.7-1-2-1.68-2.91-1.87-2.71-3.92-5.31-5.7-8.08-1.56-2.43-3.56-4.51-4.75-7.27-1.51-3.5-3.77-6.66-5.7-10-1-1.74-2-3.5-3-5.25a70.2,70.2,0,0,0-4-6.78c-1.24-1.69-3-2.34-5-.53-1.68,1.54-3.81,2.58-5.57,4a88.89,88.89,0,0,0-7.87,7c-2.85,3-5.34,6.29-8.05,9.39-1.32,1.51-2.83,2.85-4.18,4.33-1.61,1.76-3.08,3.64-4.71,5.38-1.26,1.33-2.77,2.43-4,3.8-1.76,2-3.31,4.19-5,6.26a17.12,17.12,0,0,1-2.72,3c-1.68,1.27-2.38,3.2-3.61,4.75-1,1.22-2.1,2.29-3.08,3.49a19.12,19.12,0,0,0-1.9,2.74c-1,1.73-1.76,3.55-2.73,5.28-1.47,2.61-1.75,5.57-2.57,8.37-.32,1.09-1,2.07-1.39,3.13s-.71,2.06-1,3.1c-.72,2.24-1.44,4.49-2.15,6.73a3.33,3.33,0,0,0-.16.51c-.45,2.3-.86,4.6-1.36,6.88-.23,1.05-.66,2.05-1,3.09a7.35,7.35,0,0,0-.34,1.74,40,40,0,0,1-.17,5c-.57,3.26-1.41,6.47-2.12,9.7a9.71,9.71,0,0,0-.27,1.77,37.42,37.42,0,0,1-2.42,12,2.11,2.11,0,0,0-.05.35c-.51,2.7-.6,5.57-1.63,8.05-1.16,2.79-.87,5.51-.91,8.3,0,1.54-2.32,4-4.13,4.47a2.58,2.58,0,0,0-2.08,2.79c-.06,4.31-.15,8.62-.31,12.93a5.12,5.12,0,0,1-4.41,4.87c-1.33.23-2.61.91-3.93,1a14.81,14.81,0,0,1-3.68-.8c-.29-.07-.56-.24-.85-.29-2.83-.46-5.7-.78-8.49-1.41a47.06,47.06,0,0,1-5.55-2,2.23,2.23,0,0,0-.66-.25c-4.3.06-8.28-2.1-12.68-1.65-2.66.27-5.6.6-8-.22-3.52-1.21-6.94-.55-10.4-.7-4.54-.2-9.13.11-13.64-.38-3-.32-6.15-1.05-8.3-3.5-3-3.41-2.69-7.22,2.2-9.25,1.27-.52,2.35-1.51,3.62-2.05a18.14,18.14,0,0,1,4.66-1.46c4.71-.62,9.46-1,14.18-1.55a26.1,26.1,0,0,0,5.84-1.19,19.58,19.58,0,0,0,5.2-2.87c.6-.46.6-1.85.64-2.83,0-.21-1.08-.37-1.53-.72-2.33-1.83-5.18-.69-7.67-1.37-7.43-2-15-.83-22.44-.67-3,.06-6.19.87-9.31.69-1.46-.09-3.39-.44-4.17-1.42-.94-1.18-1.14-3.14-1.21-4.79-.11-3,.26-6.09.11-9.12A17.3,17.3,0,0,0,176.34,511.24Zm142.52-144c-3-.19-5.73.27-8.46-1.15-2-1.07-4.63-1.07-7-1.58a2.86,2.86,0,0,1-.9-.5,3.17,3.17,0,0,0-4.27.48,13.4,13.4,0,0,0-1.2,2.53c-.65,1.25-1.48,2.43-2,3.72-.65,1.55-1,3.21-1.61,4.77-.75,1.91-1.95,2.15-3.67.86a1.71,1.71,0,0,0-.47-.23c-1.57-.5-3.16-.95-4.71-1.5a3.28,3.28,0,0,1-1-.89c-.37-.38-.65-1.08-1.06-1.16-1.93-.39-1.85-1.85-1.62-3.14.4-2.22,1.05-4.38,1.6-6.57a.46.46,0,0,1,.07-.16c1.71-2.78,1.11-3.89-2.1-4.51a13.31,13.31,0,0,1-4.58-1.79c-1.29-.82-3.09-1-4.15.1s-2,2.12-3,3.16c-1.87,1.94-3.77,3.86-5.64,5.82a28.22,28.22,0,0,0-3.11,3.65c-1.25,1.82-3.35,3-5.05,4.56a70.72,70.72,0,0,0-5.74,5.32c-2,2.22-3.69,4.68-5.45,7.09a30,30,0,0,0-3.3,5.05,36.59,36.59,0,0,0-2.48,7.33,66,66,0,0,0-1.43,10c-.32,5.71.48,11.4.77,17.08.54,10.7.08,21.45,0,32.17a6.77,6.77,0,0,1-.16,2.83,7.65,7.65,0,0,0-.1,6.27c.53,1.55.25,3.41.13,5.12-.09,1.3-.7,2.58-.73,3.87-.14,5.52-.06,11-.25,16.55-.05,1.77-.77,3.5-1,5.28-.55,4.1-1,8.2-1.49,12.31a4.76,4.76,0,0,1-.1.52c-.76,3.14-1.62,6.25-2.23,9.41s-1,6.25-1.45,9.37a1.24,1.24,0,0,1-.34.58,4.59,4.59,0,0,0,.54,6.18,20,20,0,0,0,2.91,2.17c2.27,1.1,4.55,2.43,7,2.88,3.89.73,7.89.41,11.87,1.06,4.68.76,9.57.33,14.36.16a5.91,5.91,0,0,0,4.08-1.61c1-1.28,1.23-3.24,1.62-4.94.59-2.58,1-5.21,1.54-7.81,0-.06,0-.12,0-.18.72-2.46,1.63-4.88,2.1-7.39.65-3.51,1-7.09,1.44-10.64,0-.17.12-.33.16-.51.36-1.72.81-3.43,1.06-5.17.51-3.5.91-7,1.37-10.5a3,3,0,0,1,.15-.51c.36-1.29.81-2.55,1.08-3.85.5-2.38.89-4.79,1.34-7.19,0-.11.1-.21.13-.32.73-2.17,1.57-4.31,2.16-6.52s1-4.77,1.56-7.16a.48.48,0,0,1,0-.17c.74-1.66,1.5-3.31,2.23-5,.86-2,1.61-4,2.58-5.93a34.78,34.78,0,0,1,2.9-4.78c1.4-1.93,3-3.74,4.57-5.72a5.71,5.71,0,0,0-.91-.29c-1.9-.12-3.8,1.22-5.72,0-.13-.08-.44.11-.66.18a9.3,9.3,0,0,1-2.68.69,3.09,3.09,0,0,1-2.28-1c-.78-1.27.85-1.53,1.41-2.24.18-.22.78-.15,1.19-.16,2.34-.05,4.68-.07,7-.14.52,0,1.24,0,1.53-.33,1.24-1.37,2.3-1.36,3.33.44.33-.6.44-1.14.77-1.35,2.73-1.76,4.33-4.49,6.29-6.94,1.68-2.11,3.67-4,5.53-5.94s3.79-3.87,5.6-5.88c1.56-1.75,2.9-3.69,4.49-5.42,1.8-2,3.78-3.77,5.65-5.68,2.7-2.78,5.22-5.76,8.1-8.32,2.42-2.16,5.3-3.76,7.62-6.11.88-.9,2.16-2.42,3.76-1.51a10.19,10.19,0,0,1,3.39,3.07c1.62,2.45,2.91,5.1,4.33,7.68.5.92.9,1.9,1.47,2.78a41.06,41.06,0,0,1,3.17,4.69c1.27,2.71,3.5,4.89,4.11,8a9,9,0,0,0,1.67,2.87c1,1.59,2.16,3.14,3.24,4.71,1,1.4,1.63,3.13,2.89,4.15,2.08,1.67,2.9,4.16,4.62,6,1.57,1.71,2.72,3.79,4.24,5.55,2.4,2.78,5.05,5.36,7.41,8.18,1.84,2.19,4.22,3.87,5.52,6.63,1.08,2.29,3,4.21,4.51,6.28,1.15,1.54,2.4,3,3.5,4.59s1.92,3.07,2.83,4.64,1.94,3.5,3,5.21c1.29,2.12,3.22,3.84,3.63,6.5a9.57,9.57,0,0,0,1.37,3.42c1,1.64,2.37,3.06,3.32,4.73,1.13,2,2,4.13,2.95,6.22.45,1,.79,2,1.22,3,.77,1.76,1.6,3.49,2.36,5.25a37.42,37.42,0,0,0,1.57,3.8c1.06,1.87,2.53,3.53,3.42,5.46,1.14,2.44,2,5,3.83,7.06,1.19,1.33,1.91,3.15,3.27,4.21,3.13,2.42,6.88,1.2,10.32.92,2.66-.22,5.23-1.45,7.86-2.18,2-.56,4-1.05,6-1.58.16,0,.29-.19.45-.27,1.41-.68,2.81-1.38,4.23-2a19.25,19.25,0,0,0,3.3-1.47c2-1.43,3.78-3.18,5.8-4.58,3.09-2.14,3.6-5.52,4.39-8.72a13.72,13.72,0,0,0,.06-4.48,14.24,14.24,0,0,0-.82-2.52c-.51-1.82-1.36-3.65-1.37-5.48,0-2.72-1-5.12-1.82-7.58-.58-1.82-1.64-3.49-2.4-5.26-.53-1.27-.84-2.63-1.39-3.89-.6-1.41-1.81-2.69-2-4.12a23.81,23.81,0,0,0-2.7-8.15c-1.12-2.25-1.79-4.72-2.82-7a51.6,51.6,0,0,0-3.87-7.68,48.12,48.12,0,0,1-3.93-7.53c-1.29-3-3-5.77-4.5-8.63-.44-.81-1.32-1.54-1.4-2.38-.27-2.56-2.56-4.09-3.05-6.51a7.71,7.71,0,0,0-1.1-2.63c-2.11-3.15-4.3-6.25-6.47-9.36-.27-.39-.61-.74-.89-1.14s-.61-.93-.91-1.39a5.15,5.15,0,0,0-.6,1.68c.05,3.66.21,7.31.28,11a26.47,26.47,0,0,1-.2,3.21.84.84,0,0,1-.48.62.75.75,0,0,1-.65-.36,18.09,18.09,0,0,1-1.19-4.52c-.15-5.21,0-10.42-.08-15.64a23.11,23.11,0,0,0-.48-3.26h-.8c-.48,1.89-.91,3.79-1.44,5.66a23.3,23.3,0,0,1-1.33,3.93c-.58,1.17-1.88,2.11-2.1,3.29-.4,2.15-1.69,3.28-3.39,4.33-1.59-2,.56-3.34,1-4.83.51-1.83,2.4-3.23,2.36-5.44a2,2,0,0,1,.16-.51,67.52,67.52,0,0,0,2.09-6.71,25.58,25.58,0,0,0,.2-5.19c0-.7,0-1.82-.35-2.05-2.36-1.37-2.14-4.11-3.3-6.1-1.07-1.83-1-4.33-1.48-6.52a32.66,32.66,0,0,0-.94-3.35,45.3,45.3,0,0,1-1.55-4.41c-.62-2.76-1-5.56-1.51-8.35a2.25,2.25,0,0,0-.06-.36c-.75-2.65-1.57-5.28-2.25-7.95-.59-2.29-1-4.63-1.52-6.94a1.21,1.21,0,0,0-2.05-.59c-2.45,3.11-6.3,3.28-9.57,4.61-2.09.85-4.44,1-6.64,1.61a18.11,18.11,0,0,0-4,1.54,14.7,14.7,0,0,1-6.13,2.18,46.62,46.62,0,0,0-6.31,1.33,2.15,2.15,0,0,0-.32.13,38.64,38.64,0,0,1-5.92,2.09c-2.81.53-5.68.13-8.57,1.05-2.59.81-5.59.51-8.39.37a3.79,3.79,0,0,1-2.74-1.72,23.83,23.83,0,0,1-1.44-5.22c-.19-.87,0-1.9-.31-2.66a50.41,50.41,0,0,1-2.5-8.09,24.6,24.6,0,0,1-1.07-4.7,2,2,0,0,0-.22-.47c-.71-1.69-1.44-3.38-2.12-5.09s-1.22-3.21-1.83-4.82H346a39.6,39.6,0,0,0-1.42,6.41c-.27,4.91-.1,9.84-.3,14.75-.11,2.63-.79,5.24-.89,7.87-.15,3.81,0,3.79-3.88,3.87a1.88,1.88,0,0,0-1.47.78c-1.19,2.9-1.16,3.08-4.31,2.89-3.82-.24-7.63-.82-11.45-1.17a3,3,0,0,1-3.1-3C319,369.54,319,368.46,318.86,367.21ZM190.75,151.41c-.14.7-.27,1.45-.44,2.19-.21.91-.9,2-.59,2.68,1.18,2.57.83,5.26,1,7.91a5.08,5.08,0,0,0,.19.86,20,20,0,0,1,1,3.11c.15,1.11-.25,2.36,1.59,2.31,1.11,0,2.21.25,3.32.28s2.43-.15,3.63-.07c.85.06,1.67.61,2.51.61a20.41,20.41,0,0,0,6.64-.65c2.24-.73,4.87-.26,7.32-.35,2.28-.09,4.7.26,6.78-.43,3-1,6-.72,9-.86a36.32,36.32,0,0,0,4.31-.12,20.52,20.52,0,0,0,4-1.31c.14,0,.18-.85,0-1.11-1.4-2-2.91-3.93-4.29-5.94a2.44,2.44,0,0,1-.2-1.73,1.81,1.81,0,0,1,1-1.14,1.61,1.61,0,0,1,1.44.41c.61,1,.82,2.26,1.52,3.16,1.14,1.48,2.6,2.71,3.83,4.13,1.56,1.82,3.53,1.17,5.29.78,2.59-.58,5.1-1.54,7.64-2.36,1.41-.46,2.84-.92,4.21-1.5,1.61-.68,3.13-1.54,4.73-2.23,1.31-.56,2.75-.85,4-1.49,3-1.53,5.91-3.19,8.85-4.81.85-.47,1.69-1,2.64-1.51.6,2.17.64,2.23-.63,3.23a12.31,12.31,0,0,1-2.15,1.07c-2.33,1.2-4.64,2.45-7,3.6-1.18.58-2.48.92-3.68,1.47-1.58.72-3.1,1.57-4.69,2.3-1.31.59-2.75,1-4,1.65a15.33,15.33,0,0,1-6,2.2,49.47,49.47,0,0,0-6.63,1.39c-3.11.74-6.17,1.76-9.32,2.25-4.55.71-9.15,0-13.81,1.13-5.17,1.29-10.75-.2-16.12,1.28-2.34.65-5,.06-7.52,0h-9.35a8.52,8.52,0,0,0-.16,1.08c0,10.56,0,21.11.14,31.67a18.9,18.9,0,0,0,.68,3.24,1.7,1.7,0,0,1-.14,1c-1.31,2.79-.73,5.24,3.17,5.19,10.73-.13,21.46,0,32.19.06.6,0,1.52-.15,1.73.15.92,1.35,2.24.87,3.4.91a72.17,72.17,0,0,0,7.92.05c5.64-.4,11.37.87,17-1,2.25-.77,4.73-.89,7.1-1.36s4.9-1,7.35-1.56a1.06,1.06,0,0,0,.5-.18c1.58-1.56,3.45-1,5.49-.67-.27.84-.66,2-1.2,2-2.9.43-3.64,2.43-4,4.86a8.68,8.68,0,0,1-.36,1.2c-.69,2.3-1.72,4.57-2,6.93-.61,4.89-.51,9.83-1,14.77-.71,7.22-1.13,14.57.61,21.89,1,4.21.37,8.68,1.19,13.08,1.23,6.6-.84,13.55,1.56,20.14.37,1,.62,2.05,1.05,3a22.32,22.32,0,0,0,1.47,2.67c1.19,1.88,2.31,3.81,3.65,5.58.73,1,2.17,1.48,2.68,2.5a2.38,2.38,0,0,0,2.11,1.48c1.61.25,3.17.79,4.77,1,1,.17,2.62.49,3.08,0,1-1.18,2.21-.9,3.39-1.1a8.25,8.25,0,0,0,1.88-.71A35.54,35.54,0,0,1,299.8,310c2-.61,4-1,6-1.5.21,0,.37-.3.58-.38a42.89,42.89,0,0,1,5-1.88c2.6-.65,5.27-1,7.91-1.55l.17,0c2.79-.76,5.55-1.66,8.38-2.22,3.41-.68,6.9-1,10.33-1.61a21.81,21.81,0,0,0,3.6-1.22l6.62-2.36c.27-.1.6-.06.87-.18,2.53-1.14,5-2.33,7.58-3.46,3.23-1.43,6.48-2.79,9.71-4.21a24.61,24.61,0,0,0,2.86-1.43c1.7-1,3.34-2.18,5-3.21.88-.53,1.84-.91,2.74-1.39a41.38,41.38,0,0,0,4-2.18,35.73,35.73,0,0,0,4.16-3.21,39.31,39.31,0,0,0,4.76-4.81c2.13-2.74,1.35-6.32,2.2-9.47a9.25,9.25,0,0,0-.88-7.51,19.75,19.75,0,0,1-1.05-2.17c-.5-1.08-1.05-2.14-1.51-3.24-.55-1.33-.69-3-1.62-3.95-1.87-1.82-2.29-4.27-3.52-6.34a21.47,21.47,0,0,1-2.73-5.33c-.38-1.41-1.47-2.63-2.17-4-1.47-2.81-2.54-5.93-4.47-8.37a32.18,32.18,0,0,1-3.12-5.46,30.59,30.59,0,0,1-2.54-7.17c-.7-3-1-6.1-1.47-9.16q-.56-3.87-1-7.75-.79-7.23-1.5-14.49c-.14-1.48,0-3-.26-4.47s-.76-3.05-1.12-4.58c-.5-2.14-.9-4.31-1.47-6.43-.67-2.49-1.46-4.94-2.21-7.41a31.1,31.1,0,0,0-1.74-5.28,81.79,81.79,0,0,0-4.62-7.51c-2.15-3.23-4.06-6.71-6.69-9.49a63,63,0,0,1-8.77-11.25,18.39,18.39,0,0,1-1.22-2.21c-.57-1.35-2.46-2.5-3.18-1.74-1.82,1.92-4.38,2.66-6.38,4.47-2.74,2.48-5.42,5-8.19,7.49a21,21,0,0,1-3.81,2.84,36.26,36.26,0,0,1-5.57,2.43,87.87,87.87,0,0,1-8.66,2.6c-2.77.64-5.67,0-8.48,1.3-1.93.85-4.3.38-6.52,1.14-2.65.91-5.41,1.31-8,2.76a80.05,80.05,0,0,1-9.26,4c-1.39.57-2.8,1.1-4.19,1.66a37.82,37.82,0,0,1-5.28,2c-3,.68-6.06,1-9.1,1.53a4.87,4.87,0,0,0-.52.12,73.8,73.8,0,0,1-7.9,2,30.3,30.3,0,0,1-6.8,0c-3-.23-6-.74-9-1.08-1.83-.21-3.68-.33-5.52-.48-1.33-.1-2.65-.2-4-.27-.51,0-1,.08-1.53,0-1.18-.14-2.35-.41-3.53-.51-3.88-.32-7.75.23-11.67-.94C196.92,150.76,193.8,151.41,190.75,151.41Zm-107.91,192c-.49.85-1,2-1.78,3.09-2,2.87-3.91,5.78-6.09,8.49-1.14,1.42-2.33,3.2-4.55,3.1-1.6-.08-1.87.71-1.84,2.06.09,4.26.11,8.52.14,12.77.06,8.73.2,17.44-2.34,26-.72,2.42-.22,5.12-1.5,7.55-.77,1.45-.8,3.28-1.51,4.78-1.41,3-3,5.91-4.62,8.78s-3.55,5.87-5.38,8.77c-.27.44-.85.68-1.15,1.11-1.19,1.72-2.3,3.49-3.49,5.2-.95,1.38-2,2.66-2.92,4.08-.76,1.21-1.27,2.57-2,3.82-.95,1.68-2.1,3.25-3,5-1.06,2.11-1.88,4.34-2.86,6.49-.46,1-1,2-1.57,3a60.88,60.88,0,0,0-3.23,5.71c-1.09,2.52-1.35,5.55-2.88,7.7s-1.81,5.09-3.55,7.2a9.19,9.19,0,0,0-1.17,1.79,32.88,32.88,0,0,1-1.77,3.85c-1.83,2.79-3.87,5.44-5.75,8.2a27.86,27.86,0,0,0-1.53,3c-.71,1.4-1.36,2.84-2.14,4.21-.89,1.56-2,3-2.84,4.59-1.22,2.3-2.27,4.68-3.42,7-1,2-2.09,3.87-2.92,5.89-.67,1.63-.71,3.59-1.58,5.07-1.31,2.24-.22,3.49,1.31,4.7.68.54,1.64.73,2.36,1.23,1.86,1.32,3.73,2.53,6.17,2.29a2.66,2.66,0,0,1,1.37.32,21.26,21.26,0,0,0,3.75,2,29.46,29.46,0,0,0,7.55,1.35c5.65,0,11.38,1,17-1,1.14-.42,2.47-.21,3.43-1.27,1.79-2,4-3.66,5.4-5.86a59.79,59.79,0,0,0,3.77-6.16c1.1-2.29,3.4-3.35,4.44-5.71.87-2,3-3.38,4.56-5.08,1.33-1.47,2.58-3,3.88-4.5,1.19-1.34,2.43-2.64,3.6-4,2.11-2.45,4.14-5,6.29-7.36,1.28-1.42,2.82-2.59,4.09-4a71,71,0,0,0,4.69-5.7c2-2.65,3.77-5.4,5.59-8.14a35.15,35.15,0,0,0,1.71-3.14c.74-1.42,1.48-2.85,2.17-4.3.94-2,1.82-4,2.76-6,.16-.33.75-.57.75-.85,0-2.41,2.75-3.24,3.14-5.54.19-1.13,1.35-2.07,2-3.16,1-1.84,1.84-3.84,3-5.59,1.87-2.8,4.21-5.3,5.86-8.21,1.32-2.34,1.89-5.1,2.8-7.67a2.09,2.09,0,0,1,.2-.67,10.48,10.48,0,0,0,2.31-5.27,2.87,2.87,0,0,1,.28-.84c.7-1.68,1.52-3.32,2.09-5,.66-2,1.1-4,1.64-6.07.33-1.26.67-2.53,1-3.79a4,4,0,0,1,.36-.75,12.91,12.91,0,0,0,.86-1.7c.18-.56.08-1.22.28-1.76.69-1.82,1.64-3.56,2.15-5.42a42.58,42.58,0,0,1,1.19-5.07c1.29-3.25,1.92-6.76,2.91-10.14a1.91,1.91,0,0,1,1.19-1.21,3.07,3.07,0,0,1,2.28.5,39.16,39.16,0,0,1,2.75,4c.71,1,1.49,2,2.21,3.06,1,1.37,1.93,2.72,2.81,4.14,1.18,1.9,2.18,3.92,3.46,5.75,1.41,2,3.11,3.84,4.55,5.84,1.3,1.81,2.29,3.87,3.67,5.62s2.67,3.49,2.43,5.89c0,.15.13.32.2.47a11.86,11.86,0,0,1,1,2.24c.59,2.92-.16,5.92,1.06,8.91,1,2.45,1,5.31,1.39,8,.47,3.2.16,6.39,1.09,9.67,1.21,4.22,1.14,8.81,1.63,13.24a29.41,29.41,0,0,0,.83,6.09c1,3.16,1.14,6.61,1.66,9.93.48,3,.89,6.05,1.5,9s1.5,6.09,2.2,9.15c.54,2.34,1,4.7,1.46,7.05a3.06,3.06,0,0,0,.3.6,46.67,46.67,0,0,1,2.15,4.23c.52,1.35,1.28,2.22,2.74,2.22,3.26,0,6.45.17,9.73-.76s7-.33,10.44-1.61c1.79-.66,3.82-.43,5.8-1.22,3.4-1.34,7.13-1.87,10.79-2.77-.06-3.91.08-7.44-1-11-.84-2.7-.53-5.65-1.29-8.53-1.09-4.14-.12-8.6-1.26-12.9-.46-1.75.62-3.86.72-5.81a80.56,80.56,0,0,0,.05-8.79c-.12-2.29-.88-4.54-.94-6.82q-.35-13.49-.39-27c0-7,.48-13.91.22-20.85-.28-7.28,1.37-14.67-1.22-21.85a26.26,26.26,0,0,0-3.2-7c-.55-.75-1.3-1.35-1.86-2.09a46.76,46.76,0,0,0-3.24-4.35c-1.76-1.81-3.78-3.37-5.68-5.05a5.49,5.49,0,0,0-5.64-1.19,23,23,0,0,1-5.38,2A99.41,99.41,0,0,1,171.83,362c-14.12.76-28.31-1.15-42.4,1.08a28.64,28.64,0,0,1-5.93.11c-5.34-.28-10.68-.64-16-1a2.63,2.63,0,0,1-1.69-.83,66.27,66.27,0,0,1-5.23-7.31,51,51,0,0,1-2.76-6.93,1,1,0,0,0-.42-.53,6.82,6.82,0,0,0-2.18-.87c-2.27-.16-4.56,0-6.82-.24a12.45,12.45,0,0,1-2.93-1.27C84.73,343.91,84,343.75,82.84,343.43Zm82-68.24c.52-.9,1.15-1.82,1.62-2.81.75-1.6,1.38-3.26,2.09-4.88,1-2.23,2.15-4.39,2.91-6.7a66.75,66.75,0,0,0,1.58-6.92c.05-.24.08-.48.15-.71.71-2.27,1.75-4.51,2.06-6.84a57.23,57.23,0,0,1,2.34-9.58,47.62,47.62,0,0,0,1.57-8.59c.24-2,0-4.08.11-6.11.07-1.55.31-3.09.46-4.63a39.58,39.58,0,0,0,.55-6.49c-.15-2.23-2.23-3-4.33-2.15-3.47,1.41-6.87,1.36-9.91-1.15-2.09-1.73-2.91-4.11-3.36-6.69a19.56,19.56,0,0,0-1-3.25c-.47-1.28-1.38-2.51-1.47-3.8a77.55,77.55,0,0,1-.06-9.88c.23-3.9.7-7.8,1.24-11.68.26-1.88.43-4,1.47-5.48,1.29-1.78,1.19-3,.06-4.58-.22-.31-.16-.81-.26-1.22-.47-1.85-.89-3.72-1.42-5.56-.34-1.15-.82-2.25-1.25-3.38-.52-1.39-1-2.8-1.6-4.17s-1.3-2.72-1.95-4.08c-.44-.91-.93-1.79-1.31-2.71-.66-1.58-1.26-3.18-1.86-4.77-.34-.9-.41-2.33-1-2.63-2.17-1-2.16-3.42-3.52-4.9a11.78,11.78,0,0,1-1.26-1.71c-.8-1.32-1.59-2.64-2.31-4-.59-1.12-1.09-2.28-1.58-3.44a29.12,29.12,0,0,0-1.56-3.76c-1-1.64-2.53-3-3.38-4.68-1.68-3.34-4.45-5.73-6.89-8.38-2.26-2.46-4.91-4.57-7.35-6.86-.83-.78-1.48-.9-2.37,0-1.16,1.13-2.51,2.06-3.7,3.16s-1.88,2.47-3.68,2.87c-1,.21-1.66,1.46-2.61,2-2.63,1.52-5.34,2.88-8,4.37-2,1.11-3.92,2.3-5.86,3.48a26.15,26.15,0,0,0-2.78,1.83c-1.2,1-2.34,2-3.45,3.12-2.28,2.2-4.64,4.34-6.74,6.71a68.57,68.57,0,0,0-4.36,6c-.58.82-1.07,1.71-1.67,2.51-1.43,1.92-2.9,3.81-4.36,5.72-1.16,1.51-2.44,3-3.45,4.57a41.54,41.54,0,0,0-2.63,5.2c-.68,1.56-.94,3.34-1.79,4.78-1.56,2.63-3.23,5.17-3.43,8.34a2.16,2.16,0,0,1-.33,1,28.65,28.65,0,0,0-3.57,9,2.7,2.7,0,0,1-.22.66,34.15,34.15,0,0,0-2.06,3.86c-1,2.77-1.89,5.62-2.82,8.43a2.19,2.19,0,0,1-.28.42c-1.07,1.58-2.09,3.19-3.22,4.72a48.59,48.59,0,0,1-4.34,5.44c-2.72,2.73-5.82,5.11-8.44,7.93-1.27,1.36-3,2.79-2.79,5.1a1.2,1.2,0,0,1-.28.64,10.44,10.44,0,0,0-2.14,5.91c0,.6.15,1.42-.17,1.76-1.43,1.5-.94,3.35-1.16,5.08-.31,2.34-.7,4.68-.95,7a8.06,8.06,0,0,0,.27,2.27,15.83,15.83,0,0,1,.47,1.86c.27,5.61-.28,11.21,1.32,16.82,1,3.69,0,7.8,1.38,11.69,1,2.77,1,5.89,1.49,8.85a2.3,2.3,0,0,0,.1.35c.75,2.27,1.64,4.51,2.23,6.83s.9,5,1.42,7.42a55.59,55.59,0,0,0,1.44,5.5,8.27,8.27,0,0,0,1.44,2.91,10,10,0,0,0,7.32,3.74c3.17.13,6.35,0,9.53,0a5.28,5.28,0,0,0,1.53-.38c2-.67,4.08-1.37,6.13-2.05,1.42-.48,3.14-.6,4.2-1.5,1.74-1.48,4-1.92,5.78-3.29,1.38-1,3.3-1.73,4.92-2.73a4.36,4.36,0,0,0,1.87-5.69,60.48,60.48,0,0,1-2.22-8.17c-.63-3-1-6-1.48-9.06,0-.23-.17-.45-.23-.68-.69-2.74-1.5-5.45-2-8.21s-.82-5.5-1.15-8.26a4.79,4.79,0,0,1,.12-2.65c1.23-2.2.78-4.52.72-6.8a1.69,1.69,0,0,0-1.16-1.16c-3.75-.18-6.19-2.76-9-4.7-1.27-.87-1.24-1.77-.54-3.36.84.48,1.59.86,2.27,1.34s1.16,1,1.79,1.5a17.7,17.7,0,0,0,3.38,2.27,4.71,4.71,0,0,0,3,.06c.36-.1.65-1.36.54-2-.25-1.41-.87-2.75-1.2-4.15a11.57,11.57,0,0,0-3.17-5.35c-1-1-1.35-2.06-.15-3.21a7.47,7.47,0,0,1,1.85,1.2,28.68,28.68,0,0,1,5.19,9.06,1.41,1.41,0,0,0,1.15.47c1.82-1.82,3.52-3.76,5.36-5.56,1.59-1.55,3.3-3,5-4.42s3.43-2.44,4.64-4.05a8.71,8.71,0,0,1,2.61-2.69,5.12,5.12,0,0,0,1.38-1.25c1.63-1.95,3.23-3.91,4.8-5.9,1.42-1.82,3.1-3.53,4.09-5.57a52,52,0,0,0,2.66-7.81c.58-1.87,1-3.79,1.6-5.65A24.76,24.76,0,0,1,114.9,182a24.79,24.79,0,0,0,1.89-3.6c.5-1.63.36-3.28,1.27-5,1.32-2.48,1.69-5.47,2.49-8.24s1.83-5.78,2.54-8.72c.66-2.71,1-5.5,1.56-8.23a11.9,11.9,0,0,1,1.26-3,2.35,2.35,0,0,1,1.14.25c0,2.44.38,5.05-.36,7.28-.91,2.78-1.19,5.68-2.14,8.43-.59,1.69-1,3.45-1.56,5.16-.67,2.07-1.5,4.1-2.09,6.2-.64,2.3-1.08,4.66-1.61,7a1.38,1.38,0,0,1-.12.34,44.93,44.93,0,0,0-3.18,6.31c-.82,2.56-1.84,5.06-2.6,7.6a32.58,32.58,0,0,1-2.58,6.66c-.5.9-.87,1.87-1.39,2.75a45.44,45.44,0,0,1-3.14,5,33.18,33.18,0,0,1-3.33,3c-2.44,2.35-4.81,4.78-7.27,7.11-1.85,1.76-3.74,3.49-5.71,5.1a39.48,39.48,0,0,0-7,6.65,14.47,14.47,0,0,0-2.65,5.08,48.58,48.58,0,0,0-1.12,9,27.57,27.57,0,0,0,.7,5.68c.27,1.62,1.16,1.91,2.71,1.18a6.31,6.31,0,0,1,2.67-.75c4.77.05,9.57-.89,14.28,1.07,2.31,1,5,1,7.52,1.51a5.47,5.47,0,0,1,.83.29c1.77.71,3.51,1.52,5.33,2.11s3.87.92,5.76,1.53c2.05.67,4,1.63,6.07,2.28s4.05,1,6.08,1.5a3.76,3.76,0,0,1,.94.42c2.77,1.52,5.52,3.08,8.32,4.56,1.55.82,3.16,1.55,4.78,2.26a35.39,35.39,0,0,0,3.58,1.4c1.89.6,3.83,1.07,5.72,1.67a8.42,8.42,0,0,1,2.9,1.25,9.57,9.57,0,0,0,5.16,2.28A12.36,12.36,0,0,1,164.83,275.19Zm18.35-58.65c-.12,1.07-.29,2.28-.37,3.51-.13,1.92.29,4.07-.42,5.74-1.08,2.54-.68,5.24-1.53,7.86-1.05,3.22-1.72,6.67-2.61,10-.8,3-1.05,6.13-1.62,9.18-.42,2.26-.93,4.5-1.47,6.72-.3,1.2-.75,2.36-1.13,3.54a5.35,5.35,0,0,1-.24.67c-1.21,2.37-2.41,4.75-3.64,7.11-.66,1.26-1.47,2.45-2,3.75a2.69,2.69,0,0,0-.09,2.16,16.89,16.89,0,0,0,3,2.69c.88.68,2.26,1,2.71,1.9a21.47,21.47,0,0,1,1.84,5.61c.26,1.38-.11,2.87,0,4.3.22,3.46-1.68,6-3.44,8.66a1.9,1.9,0,0,0-.22,1.6c1.15,2.1,2.38,4.15,2.34,6.67,0,.2.21.4.3.6.7,1.49,1.87,2.95,2,4.49.22,2.85,2.28,4.62,3.33,7,.7,1.56,2.33,2.7,3,4.26,1,2.38,2.87,4.2,4.08,6.44.22.42,1,.61,1.08,1,.78,2.61,2.35,4.73,3.78,7,1.62,2.57,3.88,4.5,5.87,6.7a15.24,15.24,0,0,1,3.05,4.2c1,2.4-1.16,5.35-3.85,5.82a5.69,5.69,0,0,0-1.08.41,4.48,4.48,0,0,0,.6,1.1,45.11,45.11,0,0,0,4.21,4.2c2.35,1.9,4.16,4.48,6.11,6.84a15.28,15.28,0,0,1,1.79,3c.59,1.21,1,2.48,1.57,3.71a25.76,25.76,0,0,1,2,4.54,48.79,48.79,0,0,1,1.28,8.66c.17,3.64.52,7.36-1,10.88.39,14.8-.88,29.59.7,44.41a142.28,142.28,0,0,1,.21,23c-.49,8.5,1.49,16.76,1.61,25.18,1.43,2,1,4.32,1.36,6.52a2,2,0,0,0,.29.82,3.68,3.68,0,0,1-.21,4.86c3.83,4.58,8.38,7.62,14.52,6.93.49-2.54,1-4.93,1.41-7.35a106,106,0,0,0,1.46-10.88c.28-5.87.12-11.75.26-17.62a48.28,48.28,0,0,1,.71-5.19,2.28,2.28,0,0,0-.14-.84,12.49,12.49,0,0,1-.55-2.35,72.36,72.36,0,0,1,.77-9.85,114.07,114.07,0,0,0,.4-18.3c-.35-7.12.29-14.26-1.1-21.38a22.27,22.27,0,0,1,.63-11.26c1-3,.06-6.53,1.5-9.69.56-1.23.46-2.71,1.16-4.1,1.53-3.06,3.46-5.83,5.22-8.72,2-3.21,4.82-5.46,7.33-8.08,1.58-1.65,3.63-2.84,5.27-4.44,2.09-2.05,4-4.29,6-6.46,3.13-3.44,6.29-6.85,9.35-10.34,1.05-1.2,1.84-2.63,2.81-3.89.68-.87,1.55-1.59,2.21-2.47,1.23-1.62,2.39-3.28,3.53-5s2.14-3.27,3.18-4.93a48.13,48.13,0,0,1,2.91-4.59c1.9-2.37,3.46-4.79,3.35-8-.05-1.5,0-3,.06-4.5a5.43,5.43,0,0,1,.36-1.52c.29-.8.65-1.58.93-2.23-2.06-.65-3.7-1.61-5.34-1.61a9.21,9.21,0,0,1-6.68-2.9,21.87,21.87,0,0,1-3.15-3.16,57.12,57.12,0,0,1-3.32-5.92,16.67,16.67,0,0,1-1.77-4.14,90.7,90.7,0,0,1-1.2-9.16c-.2-2.14,0-4.32-.18-6.46-.26-3.59-.58-7.17-1-10.74-.84-7.44-.11-15-1.44-22.49a28.68,28.68,0,0,1,.15-7.16c.13-1.68.76-3.33.85-5,.19-3.35,0-6.72.25-10.07a57.77,57.77,0,0,1,1.26-7,5.8,5.8,0,0,1,.38-.8c.32-.91.62-1.84,1.06-3.15-1.66.2-2.72.28-3.77.45-4.27.7-8.53,1.85-12.82,2.05-7.48.34-15,.18-22.48.06-2,0-3.89-.91-5.86-1-12.93-.75-25.95,1.29-38.82-1.32C185.18,217.14,184.4,216.88,183.18,216.54Zm-13.57,85.9c-2.48-.38-4.13.33-4.43,2.23-.45,2.88-.83,5.77-1.26,8.64a12.36,12.36,0,0,1-.44,1.55,17.8,17.8,0,0,0-.69,2.52c-.52,4.07-1,8.15-1.45,12.22a2.33,2.33,0,0,1-.13.52q-1.2,3.5-2.41,7c-.48,1.37-1,2.73-1.48,4.11a63,63,0,0,0-2.17,6.88c-.43,2.07.06,4.23-1.3,6.25-1.09,1.63-2.2,3-3.6,2.59a38.72,38.72,0,0,1-4-1.74c-.78-.34-1.63-.55-2.36-1-2-1.14-3.88-2.5-5.95-3.48a3.54,3.54,0,0,1-1.54-4.85,47.38,47.38,0,0,0,3.37-6.86c1.14-3,1.94-6.13,2.9-9.2.05-.17.17-.31.23-.48.69-1.82,1.49-3.62,2-5.48.65-2.24.93-4.59,1.64-6.79,1-3.15,1.52-6.41,2.31-9.61a32.44,32.44,0,0,0,1.33-8.18,1,1,0,0,1,.17-.49c1.24-2.2,1.08-2.88-1.08-4.14-1.58-.92-3.2-1.78-4.81-2.64-1-.56-2.15-1-3.14-1.6-2.32-1.47-4.54-3.12-6.91-4.53-1.86-1.1-3.9-1.87-5.8-2.9s-4-2.4-6-3.57c-1-.59-2.07-1.09-3.09-1.67s-2.1-1.42-3.24-2c-1.33-.62-2.76-1-4.13-1.58A22.77,22.77,0,0,1,109.5,273c-2-1.16-3.88-2.66-6-3.47a22.58,22.58,0,0,0-6.69-1.32c-3.64-.22-7.3,0-11-.16-1.83-.08-2.25.6-2.13,2.27a17.72,17.72,0,0,0,1.38,6.63,40.81,40.81,0,0,1,2.27,6.63,2.41,2.41,0,0,1-.37,2.06c-.91.78-.66,1.25.05,1.84a25.06,25.06,0,0,1,3,2.48c2.32,2.61,4.57,5.29,6.72,8a20.31,20.31,0,0,1,1.42,3c.64,1.19,1.4,2.31,2.07,3.48.49.85,1.34,1.77,1.3,2.62-.14,3.42,1.26,6.81.22,10.21a15.41,15.41,0,0,1-1.28,2.53c-1,1.91-2.07,3.76-.22,5.84.33.37,0,1.28.07,1.94.09,1.3.13,2.62.35,3.91s.7,2.59,1,3.9c.29,1.47.45,3,.7,4.68-.15.54-.38,1.4-.61,2.26-.15.61-.26,1.25-.47,1.84s-.87,1.42-.82,2.1a7.79,7.79,0,0,0,.94,2.73c1.38,2.84,2.71,5.72,4.29,8.45.66,1.14,1.54,2.32,3.37,2.14a30.6,30.6,0,0,1,5.74.09c4.26.37,8.6-.77,12.78.75.18.07.45-.1.68-.15a12.25,12.25,0,0,1,2.54-.58c11.75-.11,23.5-.31,35.25-.17,4.29.05,8.38-.82,12.54-1.45a3.25,3.25,0,0,0,.52-.12c2.45-.74,4.85-1.85,7.35-2.14a23.3,23.3,0,0,0,8.79-2.88c1.9-1.06,2.46-2.57,1.5-3.7-1.23-1.43-2.52-2.82-3.63-4.34-1.7-2.31-3.28-4.7-4.89-7.07q-.74-1.06-1.38-2.19c-.72-1.28-1.34-2.63-2.14-3.86-1.36-2.08-2.85-4.09-4.26-6.15-.64-.93-1.22-1.91-1.81-2.88-1-1.67-2.09-3.33-3.07-5a16.18,16.18,0,0,1-1.38-2.84c-.62-1.85-1-3.79-1.68-5.61C171.7,307.09,170.69,305,169.61,302.44Zm172.31,24.28c1.41-.08,3.49,1.88,3.67,3.72.29,2.92,2.17,5,3.41,7.45.77,1.52,1.24,3.19,1.86,4.79.18.48.43.94.6,1.43.62,1.76,1.33,3.5,1.8,5.3.6,2.31,1,4.68,1.47,7a3.47,3.47,0,0,0,.25.46c.7,1.57,1.5,3.1,2.06,4.71a18.32,18.32,0,0,1,1.13,4.73c.14,2.27,1.51,2.2,3.07,2.05q6.88-.66,13.76-1.35a3.36,3.36,0,0,0,.7-.15c2.27-.72,4.52-1.55,6.83-2.13,2.59-.66,5.25-1.09,7.87-1.63a1.62,1.62,0,0,0,.66-.23,9.4,9.4,0,0,1,5.11-2.21,4,4,0,0,0,1.2-.34c1.79-.67,3.53-1.71,5.37-1.94A23.08,23.08,0,0,0,410,356c3.45-1.66,4.3-4.45,4.29-7.7,0-1.63-.83-3.24-1.1-4.89a66.4,66.4,0,0,0-1.1-6.58c-.93-3.44-.63-7.13-1.41-10.72s-.17-7.64-1.24-11.49c-.72-2.62-1-5.23-2.53-7.66-1.3-2.1-1.76-4.69-2.76-7a26.93,26.93,0,0,0-2.66-4.93c-1-1.44-3.77-2.05-4.86-1.4-2.69,1.62-5.33,3.36-8.1,4.81s-6,2.75-8.95,4.12c-1.19.55-2.36,1.1-3.53,1.68a27.35,27.35,0,0,1-3.63,1.82c-2,.64-4.17,1-6.25,1.52a3.94,3.94,0,0,0-.68.25c-1.47.68-2.9,1.49-4.43,2a87.2,87.2,0,0,1-8.35,2.53c-2.9.68-5.86,1.09-8.82,1.5-3.56.51-7.14.89-10.71,1.34a4.45,4.45,0,0,0-.85.28c-1.89.67-3.78,1.33-5.67,2a23.21,23.21,0,0,0-4.49,1.78,60.72,60.72,0,0,0-6.46,4.95,2.21,2.21,0,0,0-.19,2.06c1,1.83,2.35,3.5,3.43,5.32,1.29,2.18,2.45,4.45,3.66,6.68.51.95,1,1.91,1.5,2.87.58,1.14,1.15,2.29,1.75,3.41,1.31,2.44,3,4.68,3.42,7.52a3.16,3.16,0,0,0,.21.87q1.73,3.79,3.48,7.57c.39.86.81,1.71,1.25,2.54a28.7,28.7,0,0,0,2.81,5c.44.55,2,.32,3.05.18.27,0,.52-1.06.58-1.64.49-5-.22-9.95.88-15,1.06-4.86.36-10.11.4-15.19C341.94,333.17,341.92,329.94,341.92,326.72ZM326.84,119.21c1.11-.7,1.86-1.14,2.57-1.63a42.37,42.37,0,0,1,4.49-3c1.79-.92,3.05-2,2.9-4.17a3.71,3.71,0,0,1,.24-1.2c.74-2.56,1.64-5.09,2.18-7.69.35-1.74-.32-3.81.37-5.33,1.45-3.2.89-6.43,1-9.66a6.73,6.73,0,0,0-.37-1.92,43.37,43.37,0,0,1-1.9-6.44,13.61,13.61,0,0,0-2.78-6.54,12.9,12.9,0,0,0-1.3-1.47c-1.38-1.36-2.72-2.77-4.21-4a33,33,0,0,0-3.69-2.42A40.1,40.1,0,0,0,322,61.11c-1.52-.73-3.21-1.09-4.78-1.73a29.63,29.63,0,0,0-8.7-2.4,10.25,10.25,0,0,1-3.17-.42,2.91,2.91,0,0,0-3,0,3.38,3.38,0,0,1-2.06.17c-1-.15-2-.66-3-.72a25.71,25.71,0,0,0-7.86.92c-3.66.92-7.51,1.07-10.94,2.87-1.74.91-3.81,1.53-5.08,2.88-2,2.11-4.58,3.62-5.68,6.73-.81,2.27-2.18,4.32-2.17,6.85,0,.36,0,.87-.17,1-1.4,1.14-1.06,2.72-1.05,4.16,0,3-.48,6,1.16,8.78.44.76.64,1.18,1.61,1.18,7.07,0,14.14.08,21.21.14a6.08,6.08,0,0,1,2,.16c2.09.76,4.15,1.6,6.21,2.44a2.71,2.71,0,0,1,.67.51,12.33,12.33,0,0,1,2.21,2,31.36,31.36,0,0,1,3.05,5.45c.41,1,.5,1.88,1.79,2.06a3.14,3.14,0,0,0,3.31-1.74c1-1.66,1.56-3.62,2.78-5.07a10.59,10.59,0,0,1,4.38-3.16c2.4-.82,5.38,1.65,5.48,4.33.14,4.19-.12,8.4.2,12.57a8.38,8.38,0,0,0,2.17,4.33A33.93,33.93,0,0,0,326.84,119.21Zm-51.15,4.47c0,.37.15.95.18,1.54.07,1.42-.18,2.93,1.84,3.37.33.07.64,1,.67,1.54.14,2-.13,4,1.06,6,.77,1.27,1.53,2.35,2.91,2.24,3.25-.26,6.47-.81,9.71-1.26.11,0,.2-.13.31-.17a25.36,25.36,0,0,1,3.16-.93,50.13,50.13,0,0,0,6.39-1c2.89-.85,5.71-1.8,8.56-2.77a24.5,24.5,0,0,0,7.26-4.34,24.84,24.84,0,0,0,2.35-2,25.23,25.23,0,0,0,2.34-2.72c.56-.75,1.56-1.9,1.33-2.36a9.2,9.2,0,0,0-2.61-2.75,9.66,9.66,0,0,1-3.3-6.69c-.46-3.78-.08-7.66-.12-11.49a2.19,2.19,0,0,0-3.17-2.21A4.47,4.47,0,0,0,313,99a37.86,37.86,0,0,0-2.9,3.32c-.89,1.21-1.45,2.69-2.45,3.8-.54.6-1.7.62-2.54,1s-3.47-.19-3.79-1c-.55-1.43-1-2.92-1.5-4.36a2.81,2.81,0,0,0-.72-1.15c-1.73-1.51-2.67-3.85-5.4-4.32-2.09-.35-4-1.52-6.11-2a14.91,14.91,0,0,0-4.12-.1c-1.6.07-3.2-.34-4.76.77-.65.47-2.13.18-3.05-.2-2.38-1-4.7-.47-7-.36.35,2.9,2.35,5,2.19,7.88,0,.73.74,1.52.69,2.25-.21,2.6-.61,5.19-.94,7.78a5.7,5.7,0,0,1-.3,1.93c-1.33,2.46-.9,5-.81,7.5Zm-90-25.41c-.2-2.32-.41-5.09-.67-7.86-.13-1.35-.41-2.68-.55-4-.07-.71.05-1.44,0-2.15-.07-1.1-.48-1.75-1.8-1.6s-2.53-.13-3.77,0c-3.79.49-7.34-.71-11-1.44a3.79,3.79,0,0,1-1.33-.83c-2.62-2-3.11-1.89-5.26.62a5.94,5.94,0,0,1-2.32,1.6c-2.27.87-4.15-.06-5.52-1.82s-2.33-3.58-3.53-5.35c-1.32-1.92-2.56-2.17-4.23-.61a6.66,6.66,0,0,0-2,3.21,9.92,9.92,0,0,0,.41,4.34c.43,1.58,1.63,3,1.82,4.56.35,2.75.88,5.5-2.22,7.66-2.16,1.51-4.1,3-6.77,3.18-1.32.08-2.64,0-4,.08a18.6,18.6,0,0,0-2.07.34c2.32,2.58,4.33,5.07,6.62,7.27,3.13,3,5.07,6.87,7.16,10.52,1.47,2.55,2.3,5.51,4,8,.62.9,1,2,1.59,2.91.84,1.25,1.8,2.43,2.93,3.93l1.54-.09c.14-.6.09-1.15.34-1.38,1.91-1.82,2-4.54,3.31-6.72,1-1.65,1.23-3.77,2.92-5.18,1.13-.95,2.09-1.94,3.75-1.89,3.35.1,6.71.14,10.06.08,2.67,0,2.78-.24,2.77-3,0-1.37-.58-3.25.1-4,1.69-1.94.63-4.07,1.15-6a4.27,4.27,0,0,1,1.64-2.28A39.43,39.43,0,0,1,185.73,98.27ZM265.84,545c-5.78-.36-11.1.54-16.32-1a16.42,16.42,0,0,0-5.9-.21c-3.91.36-7.27-1.25-10.64-2.74A9.51,9.51,0,0,1,229,538.3a2.43,2.43,0,0,0-3.5-.73c-1.44,1-2.66,2.25-4.52,2.7-2.35.55-4.59,1.6-6.94,2.08-1.86.38-4-.29-5.68.43-2.56,1.13-5.12.88-7.7,1.06a7.41,7.41,0,0,0-2.13.22c-1.57.64-3.08,1.46-4.63,2.16a25.21,25.21,0,0,0-3.78,1.64,3.07,3.07,0,0,0-.94,2.29,3,3,0,0,0,.95,2.25,8.72,8.72,0,0,0,3.52,1.4,99.48,99.48,0,0,0,10.86,1.26c5.51.22,11,0,16.54.13,3.34.09,6.65-.22,10,1,2.32.83,5,.48,7.54,1.39a50.71,50.71,0,0,0,7.31,1.53,3.59,3.59,0,0,1,.35.08c2.25.74,4.44,1.86,6.75,2.14a75.89,75.89,0,0,0,10,.23c1.56,0,2.32-1.11,2.47-2.56s.29-3.11.31-4.67C265.88,551.27,265.84,548.23,265.84,545ZM95.21,306.36a14.83,14.83,0,0,0,.11,1.82c.49,2.82,1,5.63,1.57,8.42.1.46.87.85,1.41,1.12a1,1,0,0,0,.89-.34,20.57,20.57,0,0,0,1-4c.06-.64-.64-1.33-.83-2-.55-2.07-.89-4.21-1.57-6.23a16.17,16.17,0,0,0-2.08-3.94c-.81-1.2-1.86-2.22-2.79-3.34a51.78,51.78,0,0,0-3.44-4.19A45.78,45.78,0,0,0,84,288.89a3.18,3.18,0,0,0-2.57.11c-1.07.44-1.92,1.37-3,1.9-1.37.69-3,1-4.2,1.85A9.48,9.48,0,0,1,69.68,295c-2.37.32-2.48,1.5-1.33,3.56a32.66,32.66,0,0,1,2.74,7.08c.7,2.51,1,5.13,1.5,7.7a2.35,2.35,0,0,0,.11.35,56.43,56.43,0,0,1,2.16,6.47c.51,2.36,2,4.52,1.53,7.08,0,.15.1.33.18.49.72,1.52,1.52,3,2.15,4.57s1,3.15,1.64,4.7a7,7,0,0,0,1.12,1.75.87.87,0,0,0,.74.29.82.82,0,0,0,.5-.6,8.45,8.45,0,0,0-.16-2.14c-.31-1.18-1-2.32-1.09-3.49-.17-3.47-.13-6.95-.11-10.42a9.77,9.77,0,0,1,.44-2c1.52.46,2.11,1.22,2,2.58a18.52,18.52,0,0,0,0,3.94c.37,2.56,1,5.09,1.41,7.63.39,2.13.72,4.28,1.14,6.4.06.29.51.5.77.75a3.05,3.05,0,0,0,.61-.9,4,4,0,0,0,0-1.25,36.8,36.8,0,0,0-1.15-5.58c-.64-3.1-.21-6.44-.13-9.67,0-1.36.95-1.76,2.37-1.56,0,1.24,0,2.43,0,3.61-.07,4.37-.15,8.69,1.29,12.95.46,1.37.48,2.72,2.53,3.41.42-.63,1.43-1.46,1.36-2.17-.28-2.52-.93-5-1.45-7.48,0-.06-.06-.1-.09-.15-1.56-3-.94-6.16-.63-9.27,0-.41,1.06-.72,1.62-1.08a4.45,4.45,0,0,1,.71,1.43c.09,1,0,2,0,3,0,1.73-.18,3.56.3,5.16.91,3,2.17,5.84,2.21,9,0,1.88.3,2,2.42,1.57a12,12,0,0,0,.13-2.09c-.25-2.91,0-5.79-1.07-8.74s0-6.35-1.44-9.37c-.38-.79,0-2.05-1.38-2.11s-1.26-.77-1.26-1.81c0-2.21.23-4.6-.54-6.56s-.56-3.75-.65-5.7Zm85.31,221c2.29,0,4.31,0,6.33,0a108.14,108.14,0,0,0,11.82-.47c3-.4,5.77-1.48,8.67.17a4.36,4.36,0,0,0,1.94.2l5.21.15a25.65,25.65,0,0,1,3.4.19c2,.35,4,1,6,1.24,1.42.18,2.63-.28,2.42-2.16a2.22,2.22,0,0,1,.22-1.22c1.17-2.22,2.45-4.39,2.39-7a2.14,2.14,0,0,1,.54-1.07c1-1.44.56-2.49-1.06-3-2.26-.69-4.47-1.57-6.66-2.44-.55-.21-.94-.95-1.47-1-1.42-.22-2.15-1.25-3-2.14s-1.84-2.71-3-2.91a19.62,19.62,0,0,0-6.74.24c-2.36.44-4.59,1.54-6.94,2.05-2,.42-4,.54-6,1-3.89.85-7.81,2.11-11.92,1.68a13,13,0,0,0-2.2.11Zm-8.3-320.57a9.41,9.41,0,0,1,1.66-.68c2.05-.43,4.22.08,6.15-1.45,1.5-1.19,3.49-1.76,5.23-2.67.52-.27.87-1,1.38-1.13,1.21-.23,1.51-.88,1.5-2,0-7.49-.1-15-.07-22.47a3.8,3.8,0,0,0-2-3.66c-.93-.52-1.91-.93-2.84-1.44-2.16-1.21-4.28-2.5-6.47-3.65-1.21-.63-2.68-.84-3.79-1.6-2.36-1.63-6.89-.48-7.66,2.25a63.69,63.69,0,0,0-1.14,6.34c-.09.53.06,1.3-.25,1.57-1.72,1.53-1.15,3.53-1.19,5.38,0,1.59-.33,3.2.91,4.7.44.53.07,2.05-.37,2.9-.54,1.07-.93,4.09,0,4.87a6.16,6.16,0,0,1,2.06,5.61,7.92,7.92,0,0,0,.1,1.61A5.39,5.39,0,0,0,170,206,13.67,13.67,0,0,1,172.22,206.75ZM44.39,556.45c.09-.91.11-1.68.26-2.43.21-1,1.64-1.73,2.32-1.17q2.87,2.34,5.71,4.7l.49-.34c0-2.11.81-4.13-.68-6.32-.8-1.18-.4-3-1.55-4.42a34.12,34.12,0,0,1-2.72-4.67c-.28-.47-.84-.79-1-1.27C46.44,538.78,45.8,537,45,535a11.6,11.6,0,0,0-1.73.18c-1.19.25-2.38.89-3.55.84-5.87-.24-11.82,1.32-17.63-1-1.65-.65-3.58-.35-5.41-1.12-2.73-1.14-5.74-1.6-8.88-2.42a6.88,6.88,0,0,0,.38,1.81c1,2,2.22,4,3.22,6.05s1.81,4.26,2.84,6.33c1.11,2.23,2.32,4.42,3.6,6.55a19.15,19.15,0,0,0,3,4.16,48.09,48.09,0,0,0,5.24,3.83c.73-1.25,1.29-2.31,2-3.28a1.25,1.25,0,0,1,1.16.11c.68.93,1.21,2,2.07,3.41,1.5-1.35,3.15-2.36,4.09-3.82.77-1.19,1.37-1.39,2.45-1.07l.81,2.19c1-1,1.68-2.13,2.54-2.28S43.23,556.05,44.39,556.45ZM425.91,549a8.68,8.68,0,0,0,.36,1c.11.21.33.39.37.6.47,2.84,2.48,3.53,4.91,3.33,4.35-.37,8.69-.82,13-1.4a12.76,12.76,0,0,0,4.07-1.39,54.11,54.11,0,0,0,5.77-3.43c2.33-1.59,4.58-3.31,6.82-5,1.06-.81,2-1.78,3-2.59,1.52-1.18,3.16-2.2,4.62-3.43s2.95-2.7,4.35-4.13c2-2.06,4-4.14,6-6.27.83-.91,2-2,2-3s-1.29-1.94-2-2.93a1.45,1.45,0,0,0-2.58.15,3.33,3.33,0,0,1-.73,1.2,78.13,78.13,0,0,1-7.74,5.38,76.45,76.45,0,0,1-8.83,3.88,55.46,55.46,0,0,1-7.36,2.5c-3,.7-6,1-9,1.47-1,.14-2,0-3.05.06-.39,0-1,.1-1.13.36-.63.94-1.05,2-1.68,3a16,16,0,0,1-2.3,2.81C431.86,543.76,428.81,546.4,425.91,549ZM64.73,297.34l-.93.13c-.09,1.08-.21,2.15-.25,3.23-.11,2.52,0,5.06-.31,7.53-.5,3.56-1.66,7-2,10.61a75.64,75.64,0,0,0,1.07,19.52A36.31,36.31,0,0,0,64,343.69a32.08,32.08,0,0,0,1.22,3.18c.68,1.47,1.38,2.93,2.2,4.32.68,1.15,1.34,2.55,2.39,3.16,1.56.91,3-.44,3.84-1.55,1.6-2.07,2.85-4.4,4.26-6.61A32.11,32.11,0,0,0,80,342.7a2.16,2.16,0,0,0-.23-2c-1.33-1.13-1.65-2.72-2.28-4.16s-.93-3-1.62-4.35a18.11,18.11,0,0,1-2.25-6.83A26.7,26.7,0,0,0,72,319.48c-.57-1.73-1.49-3.37-1.91-5.13-.66-2.79-1-5.66-1.53-8.5,0-.11,0-.25,0-.35Zm97.12-173.65c-.45.28-1.3.5-1.58,1-.65,1.21-1,2.59-1.5,3.87a17,17,0,0,1-1.68,3.32c-1.07,1.5-1.27,4.85-.22,6.34a7,7,0,0,1,.66,1.34c.39.89.71,1.81,1.13,2.69s1.05,1.74,1.39,2.68c.65,1.79,1.15,3.64,1.74,5.45.36,1.09.77,2.17,1.17,3.24.75,2,1.46,4,2.27,5.94.44,1,1.06,2,1.6,3l.64-.19c.54-2.37,1.09-4.74,1.62-7.11.1-.47-.05-1.14.22-1.39a4.26,4.26,0,0,0,1-4.59c-.78-2.95-1.07-6-2.35-8.87-.87-2-1-4.27-1.53-6.41a6,6,0,0,0-.3-1.21C164.77,129.88,163.37,126.91,161.85,123.69Zm155.6,241,.52-.46c-.49-1.32-1-2.62-1.45-4a41.29,41.29,0,0,0-1.55-5.25,45.35,45.35,0,0,0-3.68-6.16c-1.57-2.31-3.29-4.53-5-6.73a1.33,1.33,0,0,0-1.27,0c-1.3,1.77-2.51,3.6-2.55,5.92a4.71,4.71,0,0,1-.24,1.22c-.71,2.25-1.5,4.47-2.12,6.74-.37,1.36-.49,2.78-.74,4.3a49.1,49.1,0,0,0,4.8,1.65c2.54.62,5.13,1,7.7,1.51.12,0,.29,0,.35.08C313.71,365.3,315.7,364.36,317.45,364.72Zm-32.94-8.21c.51-1.34,1.07-3,1.72-4.56s1.61-3.17,2.13-4.83c.68-2.22,1.07-4.53,1.59-6.8.4-1.75.79-3.5,1.19-5.25,0-.17,0-.44.11-.51,1.8-1.32.9-2.47-.08-3.78-.69-.93-1-.89-1.43.09a22.07,22.07,0,0,1-1.64,3c-1.46,2.16-3,4.24-4.52,6.38s-2.86,4.31-4.41,6.38c-1.39,1.84-3,3.53-4.4,5.33a1.08,1.08,0,0,0,.11,1,59.51,59.51,0,0,0,5.55,2.59A28.32,28.32,0,0,0,284.51,356.51ZM171.85,155c-.51,1.58.17,3.09-1.3,4.28-1,.79-.22,3,.74,3.23,1.9.48,3.78,1,5.66,1.52a3.08,3.08,0,0,1,.62.33c1.23.7,2.46,1.41,3.7,2.1.94.54,1.87,1.11,2.84,1.6,1.46.73,2.94,1.42,4.43,2.09.14.06.4-.15.74-.29a24.25,24.25,0,0,0-.18-3.22c-.19-1.09-.67-2.13-.9-3.21-.15-.75.15-1.67-.16-2.3-.6-1.21-1.26-2.7-2.33-3.28-1.68-.9-3.72-1.15-5.6-1.66-.23-.07-.53,0-.69-.15C177.1,154.1,174.45,155,171.85,155Zm16.2,49.62c-2.41-.15-5,1.48-5.05,3.12-.24,4.82,1,6.54,5.05,6.62Z"/><path d="M322,0c.88.31,2.73.56,4,1.55.6.48.6,2.8,0,3.53-1.29,1.52-3.16,2.55-4.81,3.75s-3.33,2.39-5,3.55c-1.2.81-2.46,1.52-3.64,2.36-.43.31-1.05,1.06-.95,1.24.38.65.95,1.5,1.59,1.64,2.39.51,3.77,2.5,5.73,3.6,1.07.6,2.24,1.05,3.27,1.72,1.43.93,3.32,1.73,4,3.09a7.58,7.58,0,0,1,.27,5.29,3.19,3.19,0,0,1-3.73,1.54c-2.67-.73-5.34-1.43-8-2.13a2,2,0,0,0-.35-.06c-4.09-.5-8.18-.94-12.25-1.53-1.34-.19-2.61-.91-4-1.1-1.71-.23-3.48-.06-5.2-.26-3.21-.36-6.55-.42-9.55-1.43-2.41-.82-4.78-.71-7.15-1.09-3.87-.61-7.7-1.54-11.58-2-2.84-.36-5.74-.25-8.61-.36-1.7-.06-3.31-.07-4.89-1.14-2.16-1.46-2.76-3.5-1.17-5.58.42-.55.62-1.28,1-1.84.84-1.12,2.17-1.27,3.36-1.8,3-1.31,6.17-.5,9-1.45,2.35-.78,4.68-.57,7-1,2.46-.48,4.85-1.38,7.27-2.09a5.44,5.44,0,0,1,.7-.15c4-.54,8.11-.94,12.13-1.64,2.6-.45,5.12-1.4,7.7-2,1.27-.28,2.62-.16,3.9-.41,3.55-.69,7.09-1.49,10.63-2.24.11,0,.21-.12.32-.14Z"/><path class="cls-1" d="M318.86,367.21c.1,1.25.16,2.33.27,3.39a3,3,0,0,0,3.1,3c3.82.35,7.63.93,11.45,1.17,3.15.19,3.12,0,4.31-2.89a1.88,1.88,0,0,1,1.47-.78c3.86-.08,3.73-.06,3.88-3.87.1-2.63.78-5.24.89-7.87.2-4.91,0-9.84.3-14.75a39.6,39.6,0,0,1,1.42-6.41h.54c.61,1.61,1.19,3.23,1.83,4.82s1.41,3.4,2.12,5.09a2,2,0,0,1,.22.47,24.6,24.6,0,0,0,1.07,4.7,50.41,50.41,0,0,0,2.5,8.09c.36.76.12,1.79.31,2.66a23.83,23.83,0,0,0,1.44,5.22,3.79,3.79,0,0,0,2.74,1.72c2.8.14,5.8.44,8.39-.37,2.89-.92,5.76-.52,8.57-1.05a38.64,38.64,0,0,0,5.92-2.09,2.15,2.15,0,0,1,.32-.13,46.62,46.62,0,0,1,6.31-1.33,14.7,14.7,0,0,0,6.13-2.18,18.11,18.11,0,0,1,4-1.54c2.2-.6,4.55-.76,6.64-1.61,3.27-1.33,7.12-1.5,9.57-4.61a1.21,1.21,0,0,1,2.05.59c.54,2.31.93,4.65,1.52,6.94.68,2.67,1.5,5.3,2.25,7.95a2.25,2.25,0,0,1,.06.36c.49,2.79.89,5.59,1.51,8.35a45.3,45.3,0,0,0,1.55,4.41,32.66,32.66,0,0,1,.94,3.35c.48,2.19.41,4.69,1.48,6.52,1.16,2,.94,4.73,3.3,6.1.39.23.35,1.35.35,2.05a25.58,25.58,0,0,1-.2,5.19,67.52,67.52,0,0,1-2.09,6.71,2,2,0,0,0-.16.51c0,2.21-1.85,3.61-2.36,5.44-.41,1.49-2.56,2.81-1,4.83,1.7-1,3-2.18,3.39-4.33.22-1.18,1.52-2.12,2.1-3.29a23.3,23.3,0,0,0,1.33-3.93c.53-1.87,1-3.77,1.44-5.66h.8a23.11,23.11,0,0,1,.48,3.26c.05,5.22-.07,10.43.08,15.64a18.09,18.09,0,0,0,1.19,4.52.75.75,0,0,0,.65.36.84.84,0,0,0,.48-.62,26.47,26.47,0,0,0,.2-3.21c-.07-3.66-.23-7.31-.28-11a5.15,5.15,0,0,1,.6-1.68c.3.46.59.94.91,1.39s.62.75.89,1.14c2.17,3.11,4.36,6.21,6.47,9.36a7.71,7.71,0,0,1,1.1,2.63c.49,2.42,2.78,4,3.05,6.51.08.84,1,1.57,1.4,2.38,1.53,2.86,3.21,5.66,4.5,8.63a48.12,48.12,0,0,0,3.93,7.53,51.6,51.6,0,0,1,3.87,7.68c1,2.3,1.7,4.77,2.82,7a23.81,23.81,0,0,1,2.7,8.15c.15,1.43,1.36,2.71,2,4.12.55,1.26.86,2.62,1.39,3.89.76,1.77,1.82,3.44,2.4,5.26.79,2.46,1.8,4.86,1.82,7.58,0,1.83.86,3.66,1.37,5.48a14.24,14.24,0,0,1,.82,2.52,13.72,13.72,0,0,1-.06,4.48c-.79,3.2-1.3,6.58-4.39,8.72-2,1.4-3.8,3.15-5.8,4.58a19.25,19.25,0,0,1-3.3,1.47c-1.42.66-2.82,1.36-4.23,2-.16.08-.29.23-.45.27-2,.53-4,1-6,1.58-2.63.73-5.2,2-7.86,2.18-3.44.28-7.19,1.5-10.32-.92-1.36-1.06-2.08-2.88-3.27-4.21-1.85-2.07-2.69-4.62-3.83-7.06-.89-1.93-2.36-3.59-3.42-5.46a37.42,37.42,0,0,1-1.57-3.8c-.76-1.76-1.59-3.49-2.36-5.25-.43-1-.77-2-1.22-3-.94-2.09-1.82-4.23-2.95-6.22-1-1.67-2.31-3.09-3.32-4.73a9.57,9.57,0,0,1-1.37-3.42c-.41-2.66-2.34-4.38-3.63-6.5-1-1.71-2-3.49-3-5.21s-1.81-3.15-2.83-4.64-2.35-3.05-3.5-4.59c-1.55-2.07-3.43-4-4.51-6.28-1.3-2.76-3.68-4.44-5.52-6.63-2.36-2.82-5-5.4-7.41-8.18-1.52-1.76-2.67-3.84-4.24-5.55-1.72-1.88-2.54-4.37-4.62-6-1.26-1-1.94-2.75-2.89-4.15-1.08-1.57-2.19-3.12-3.24-4.71a9,9,0,0,1-1.67-2.87c-.61-3.08-2.84-5.26-4.11-8a41.06,41.06,0,0,0-3.17-4.69c-.57-.88-1-1.86-1.47-2.78-1.42-2.58-2.71-5.23-4.33-7.68a10.19,10.19,0,0,0-3.39-3.07c-1.6-.91-2.88.61-3.76,1.51-2.32,2.35-5.2,4-7.62,6.11-2.88,2.56-5.4,5.54-8.1,8.32-1.87,1.91-3.85,3.71-5.65,5.68-1.59,1.73-2.93,3.67-4.49,5.42-1.81,2-3.74,3.92-5.6,5.88s-3.85,3.83-5.53,5.94c-2,2.45-3.56,5.18-6.29,6.94-.33.21-.44.75-.77,1.35-1-1.8-2.09-1.81-3.33-.44-.29.32-1,.31-1.53.33-2.33.07-4.67.09-7,.14-.41,0-1-.06-1.19.16-.56.71-2.19,1-1.41,2.24a3.09,3.09,0,0,0,2.28,1,9.3,9.3,0,0,0,2.68-.69c.22-.07.53-.26.66-.18,1.92,1.21,3.82-.13,5.72,0a5.71,5.71,0,0,1,.91.29c-1.6,2-3.17,3.79-4.57,5.72a34.78,34.78,0,0,0-2.9,4.78c-1,1.92-1.72,4-2.58,5.93-.73,1.67-1.49,3.32-2.23,5a.48.48,0,0,0,0,.17c-.51,2.39-.92,4.81-1.56,7.16s-1.43,4.35-2.16,6.52c0,.11-.11.21-.13.32-.45,2.4-.84,4.81-1.34,7.19-.27,1.3-.72,2.56-1.08,3.85a3,3,0,0,0-.15.51c-.46,3.5-.86,7-1.37,10.5-.25,1.74-.7,3.45-1.06,5.17,0,.18-.13.34-.16.51-.47,3.55-.79,7.13-1.44,10.64-.47,2.51-1.38,4.93-2.1,7.39,0,.06,0,.12,0,.18-.51,2.6-.95,5.23-1.54,7.81-.39,1.7-.61,3.66-1.62,4.94a5.91,5.91,0,0,1-4.08,1.61c-4.79.17-9.68.6-14.36-.16-4-.65-8-.33-11.87-1.06-2.42-.45-4.7-1.78-7-2.88a20,20,0,0,1-2.91-2.17,4.59,4.59,0,0,1-.54-6.18,1.24,1.24,0,0,0,.34-.58c.48-3.12.84-6.27,1.45-9.37s1.47-6.27,2.23-9.41a4.76,4.76,0,0,0,.1-.52c.49-4.11.94-8.21,1.49-12.31.24-1.78,1-3.51,1-5.28.19-5.51.11-11,.25-16.55,0-1.29.64-2.57.73-3.87.12-1.71.4-3.57-.13-5.12a7.65,7.65,0,0,1,.1-6.27,6.77,6.77,0,0,0,.16-2.83c.05-10.72.51-21.47,0-32.17-.29-5.68-1.09-11.37-.77-17.08a66,66,0,0,1,1.43-10,36.59,36.59,0,0,1,2.48-7.33,30,30,0,0,1,3.3-5.05c1.76-2.41,3.47-4.87,5.45-7.09a70.72,70.72,0,0,1,5.74-5.32c1.7-1.52,3.8-2.74,5.05-4.56a28.22,28.22,0,0,1,3.11-3.65c1.87-2,3.77-3.88,5.64-5.82,1-1,2-2.11,3-3.16s2.86-.92,4.15-.1a13.31,13.31,0,0,0,4.58,1.79c3.21.62,3.81,1.73,2.1,4.51a.46.46,0,0,0-.07.16c-.55,2.19-1.2,4.35-1.6,6.57-.23,1.29-.31,2.75,1.62,3.14.41.08.69.78,1.06,1.16a3.28,3.28,0,0,0,1,.89c1.55.55,3.14,1,4.71,1.5a1.71,1.71,0,0,1,.47.23c1.72,1.29,2.92,1.05,3.67-.86.61-1.56,1-3.22,1.61-4.77.54-1.29,1.37-2.47,2-3.72a13.4,13.4,0,0,1,1.2-2.53,3.17,3.17,0,0,1,4.27-.48,2.86,2.86,0,0,0,.9.5c2.34.51,4.93.51,7,1.58C313.13,367.48,315.88,367,318.86,367.21ZM433.08,503.54c.71,1.15,1.15,2.45,2.05,3.2a36.46,36.46,0,0,0,5.1,3.35c2.38,1.38,4.48,3.46,7.56,3.25a2.48,2.48,0,0,1,.71.1c1.52.36,3,.83,4.56,1a1.87,1.87,0,0,0,1.49-.93A1.72,1.72,0,0,0,454,512a6.33,6.33,0,0,0-2.56-1.1c-1.77-.26-3.86.26-5.29-.51-2.89-1.55-5.83-3.15-8.09-5.74A3.79,3.79,0,0,0,433.08,503.54ZM247.64,408.38c.6,1.4.92,3.17,2,4.26a65.93,65.93,0,0,0,7.1,6.12c.51.39,1.51.17,2.28.23a14.75,14.75,0,0,0-.13-2.5c-.09-.38-.62-.69-1-1-2.36-1.82-5.26-3-6.63-6C250.72,408.45,249.91,407,247.64,408.38Z"/><path class="cls-1" d="M190.75,151.41c3.05,0,6.17-.65,8.85.15,3.92,1.17,7.79.62,11.67.94,1.18.1,2.35.37,3.53.51.5.06,1,0,1.53,0,1.33.07,2.65.17,4,.27,1.84.15,3.69.27,5.52.48,3,.34,6,.85,9,1.08a30.3,30.3,0,0,0,6.8,0,73.8,73.8,0,0,0,7.9-2,4.87,4.87,0,0,1,.52-.12c3-.5,6.11-.85,9.1-1.53a37.82,37.82,0,0,0,5.28-2c1.39-.56,2.8-1.09,4.19-1.66a80.05,80.05,0,0,0,9.26-4c2.57-1.45,5.33-1.85,8-2.76,2.22-.76,4.59-.29,6.52-1.14,2.81-1.25,5.71-.66,8.48-1.3a87.87,87.87,0,0,0,8.66-2.6,36.26,36.26,0,0,0,5.57-2.43,21,21,0,0,0,3.81-2.84c2.77-2.45,5.45-5,8.19-7.49,2-1.81,4.56-2.55,6.38-4.47.72-.76,2.61.39,3.18,1.74a18.39,18.39,0,0,0,1.22,2.21,63,63,0,0,0,8.77,11.25c2.63,2.78,4.54,6.26,6.69,9.49a81.79,81.79,0,0,1,4.62,7.51,31.1,31.1,0,0,1,1.74,5.28c.75,2.47,1.54,4.92,2.21,7.41.57,2.12,1,4.29,1.47,6.43.36,1.53.89,3,1.12,4.58s.12,3,.26,4.47q.71,7.26,1.5,14.49.44,3.89,1,7.75c.44,3.06.77,6.15,1.47,9.16a30.59,30.59,0,0,0,2.54,7.17,32.18,32.18,0,0,0,3.12,5.46c1.93,2.44,3,5.56,4.47,8.37.7,1.35,1.79,2.57,2.17,4a21.47,21.47,0,0,0,2.73,5.33c1.23,2.07,1.65,4.52,3.52,6.34.93.91,1.07,2.62,1.62,3.95.46,1.1,1,2.16,1.51,3.24a19.75,19.75,0,0,0,1.05,2.17,9.25,9.25,0,0,1,.88,7.51c-.85,3.15-.07,6.73-2.2,9.47a39.31,39.31,0,0,1-4.76,4.81,35.73,35.73,0,0,1-4.16,3.21,41.38,41.38,0,0,1-4,2.18c-.9.48-1.86.86-2.74,1.39-1.7,1-3.34,2.18-5,3.21a24.61,24.61,0,0,1-2.86,1.43c-3.23,1.42-6.48,2.78-9.71,4.21-2.54,1.13-5,2.32-7.58,3.46-.27.12-.6.08-.87.18l-6.62,2.36a21.81,21.81,0,0,1-3.6,1.22c-3.43.61-6.92.93-10.33,1.61-2.83.56-5.59,1.46-8.38,2.22l-.17,0c-2.64.51-5.31.9-7.91,1.55a42.89,42.89,0,0,0-5,1.88c-.21.08-.37.33-.58.38-2,.51-4.06.89-6,1.5a35.54,35.54,0,0,0-3.79,1.71,8.25,8.25,0,0,1-1.88.71c-1.18.2-2.35-.08-3.39,1.1-.46.52-2,.2-3.08,0-1.6-.25-3.16-.79-4.77-1a2.38,2.38,0,0,1-2.11-1.48c-.51-1-1.95-1.54-2.68-2.5-1.34-1.77-2.46-3.7-3.65-5.58A22.32,22.32,0,0,1,273,300.3c-.43-1-.68-2-1.05-3-2.4-6.59-.33-13.54-1.56-20.14-.82-4.4-.19-8.87-1.19-13.08-1.74-7.32-1.32-14.67-.61-21.89.48-4.94.38-9.88,1-14.77.29-2.36,1.32-4.63,2-6.93a8.68,8.68,0,0,0,.36-1.2c.34-2.43,1.08-4.43,4-4.86.54-.08.93-1.19,1.2-2-2-.34-3.91-.89-5.49.67a1.06,1.06,0,0,1-.5.18c-2.45.52-4.89,1.07-7.35,1.56s-4.85.59-7.1,1.36c-5.6,1.91-11.33.64-17,1a72.17,72.17,0,0,1-7.92-.05c-1.16,0-2.48.44-3.4-.91-.21-.3-1.13-.14-1.73-.15-10.73,0-21.46-.19-32.19-.06-3.9,0-4.48-2.4-3.17-5.19a1.7,1.7,0,0,0,.14-1,18.9,18.9,0,0,1-.68-3.24c-.09-10.56-.11-21.11-.14-31.67a8.52,8.52,0,0,1,.16-1.08h9.35c2.51,0,5.18.6,7.52,0,5.37-1.48,11,0,16.12-1.28,4.66-1.17,9.26-.42,13.81-1.13,3.15-.49,6.21-1.51,9.32-2.25a49.47,49.47,0,0,1,6.63-1.39,15.33,15.33,0,0,0,6-2.2c1.26-.69,2.7-1.06,4-1.65,1.59-.73,3.11-1.58,4.69-2.3,1.2-.55,2.5-.89,3.68-1.47,2.36-1.15,4.67-2.4,7-3.6a12.31,12.31,0,0,0,2.15-1.07c1.27-1,1.23-1.06.63-3.23-.95.54-1.79,1-2.64,1.51-2.94,1.62-5.86,3.28-8.85,4.81-1.27.64-2.71.93-4,1.49-1.6.69-3.12,1.55-4.73,2.23-1.37.58-2.8,1-4.21,1.5-2.54.82-5.05,1.78-7.64,2.36-1.76.39-3.73,1-5.29-.78-1.23-1.42-2.69-2.65-3.83-4.13-.7-.9-.91-2.16-1.52-3.16a1.61,1.61,0,0,0-1.44-.41,1.81,1.81,0,0,0-1,1.14,2.44,2.44,0,0,0,.2,1.73c1.38,2,2.89,3.94,4.29,5.94.18.26.14,1.06,0,1.11a20.52,20.52,0,0,1-4,1.31,36.32,36.32,0,0,1-4.31.12c-3,.14-6-.15-9,.86-2.08.69-4.5.34-6.78.43-2.45.09-5.08-.38-7.32.35a20.41,20.41,0,0,1-6.64.65c-.84,0-1.66-.55-2.51-.61-1.2-.08-2.42.1-3.63.07s-2.21-.31-3.32-.28c-1.84.05-1.44-1.2-1.59-2.31a20,20,0,0,0-1-3.11,5.08,5.08,0,0,1-.19-.86c-.19-2.65.16-5.34-1-7.91-.31-.66.38-1.77.59-2.68C190.48,152.86,190.61,152.11,190.75,151.41Zm83.92,75a15.84,15.84,0,0,0-.18,2.14c.33,7.42-.86,14.89,1,22.26,1,4,0,8.17,1.26,12.31s1,8.54,1.6,12.81a51.27,51.27,0,0,0,1.45,6.42,17.31,17.31,0,0,0,1.28,3.34c.74,1.49,1.56,2.95,2.44,4.36,1,1.61,2.09,3.16,3.19,4.71s2.09,2.85,3.19,4.22a2.1,2.1,0,0,0,1.21.74c.34,0,1.05-.34,1.06-.56.06-1,.28-2.24-.21-2.9-1.1-1.48-2.71-2.57-3.9-4a34.54,34.54,0,0,1-3.33-4.89,21.67,21.67,0,0,1-1.43-3.78c-.81-2.36-1.7-4.71-2.37-7.12a41.18,41.18,0,0,1-.58-4.34c-.64-4.2-1.38-8.38-2-12.59-.26-1.83-.1-3.72-.33-5.55-.15-1.24-.92-2.44-.94-3.66-.12-7.25-.11-14.5-.12-21.75C277,227.14,277,225.79,274.67,226.4ZM324.47,149c.06,1.05-2.11.41-1.27,2.19s1.88,3.67,1.87,5.52c0,4,1.19,8.15-.8,12.08a16.36,16.36,0,0,0-1,3.7c-.09.4,0,1.19.17,1.23a2.71,2.71,0,0,0,1.84,0,2.9,2.9,0,0,0,1.19-1.69,57.11,57.11,0,0,0,1.27-7.45,30.14,30.14,0,0,0-.84-10.16C326.36,152.52,326.38,150.55,324.47,149Zm31.6,64.33a18.12,18.12,0,0,0-.63-3.4c-.5-1.28-1.81-2.39-1.9-3.64a45.59,45.59,0,0,0-1.43-6.42c-.65-3-.9-6-1.33-9.07,0-.1-.14-.19-.4-.55-.62.21-1.94.42-2,.71a22.58,22.58,0,0,0,.13,5.87c.51,2.52,1.49,4.94,2.24,7.42.53,1.77,1,3.56,1.51,5.32a13.67,13.67,0,0,0,1,2.16C353.81,212.65,354.35,213.57,356.07,213.3Zm-56.8-69.39-13.14,4.87v2.36c.8-.07,2,.06,2.09-.24.52-1.22,1.49-.94,2.37-1.08a7.06,7.06,0,0,0,1.17-.41,41,41,0,0,1,6-2.09C300,146.86,300.55,146.16,299.27,143.91Zm-17.14,65.9a9.63,9.63,0,0,0,2.46-.64c1.64-1,3.17-2.1,4.78-3.12s3.24-1.86,4.75-3c.38-.27.29-1.18.42-1.8-.65,0-1.45-.34-1.93-.07-2.51,1.42-4.93,3-7.39,4.5-1,.58-1.92,1.14-3.09,1.84ZM330.29,131l-.44-.48c-.92.54-1.81,1.13-2.76,1.59-2.06,1-4.22,1.81-6.18,3-.91.54-1.44,1.73-2.15,2.63l.54.6c4.13-.62,7.11-3.82,11-5.29Zm-86.93,51.91.71-.32c-.19-1,0-2.38-.62-3.08a24.19,24.19,0,0,0-4.23-3.63,4,4,0,0,0-2.05-.38c-.2,0-.64.59-.58.7a10.27,10.27,0,0,0,1.18,1.67c.31.36.88.58,1,1C239.6,181.11,241.71,181.72,243.36,182.92Z"/><path class="cls-1" d="M82.84,343.43c1.12.32,1.89.48,2.61.76a12.45,12.45,0,0,0,2.93,1.27c2.26.23,4.55.08,6.82.24a6.82,6.82,0,0,1,2.18.87,1,1,0,0,1,.42.53,51,51,0,0,0,2.76,6.93,66.27,66.27,0,0,0,5.23,7.31,2.63,2.63,0,0,0,1.69.83c5.34.4,10.68.76,16,1a28.64,28.64,0,0,0,5.93-.11c14.09-2.23,28.28-.32,42.4-1.08a99.41,99.41,0,0,0,11.64-1.42,23,23,0,0,0,5.38-2,5.49,5.49,0,0,1,5.64,1.19c1.9,1.68,3.92,3.24,5.68,5.05a46.76,46.76,0,0,1,3.24,4.35c.56.74,1.31,1.34,1.86,2.09a26.26,26.26,0,0,1,3.2,7c2.59,7.18.94,14.57,1.22,21.85.26,6.94-.23,13.9-.22,20.85q0,13.48.39,27c.06,2.28.82,4.53.94,6.82a80.56,80.56,0,0,1-.05,8.79c-.1,1.95-1.18,4.06-.72,5.81,1.14,4.3.17,8.76,1.26,12.9.76,2.88.45,5.83,1.29,8.53,1.12,3.58,1,7.11,1,11-3.66.9-7.39,1.43-10.79,2.77-2,.79-4,.56-5.8,1.22-3.44,1.28-7.1.66-10.44,1.61s-6.47.75-9.73.76c-1.46,0-2.22-.87-2.74-2.22a46.67,46.67,0,0,0-2.15-4.23,3.06,3.06,0,0,1-.3-.6c-.49-2.35-.92-4.71-1.46-7.05-.7-3.06-1.57-6.08-2.2-9.15s-1-6-1.5-9c-.52-3.32-.65-6.77-1.66-9.93a29.41,29.41,0,0,1-.83-6.09c-.49-4.43-.42-9-1.63-13.24-.93-3.28-.62-6.47-1.09-9.67-.4-2.69-.4-5.55-1.39-8-1.22-3-.47-6-1.06-8.91a11.86,11.86,0,0,0-1-2.24c-.07-.15-.21-.32-.2-.47.24-2.4-1-4.11-2.43-5.89s-2.37-3.81-3.67-5.62c-1.44-2-3.14-3.82-4.55-5.84-1.28-1.83-2.28-3.85-3.46-5.75-.88-1.42-1.86-2.77-2.81-4.14-.72-1-1.5-2-2.21-3.06a39.16,39.16,0,0,0-2.75-4,3.07,3.07,0,0,0-2.28-.5,1.91,1.91,0,0,0-1.19,1.21c-1,3.38-1.62,6.89-2.91,10.14a42.58,42.58,0,0,0-1.19,5.07c-.51,1.86-1.46,3.6-2.15,5.42-.2.54-.1,1.2-.28,1.76a12.91,12.91,0,0,1-.86,1.7,4,4,0,0,0-.36.75c-.36,1.26-.7,2.53-1,3.79-.54,2-1,4.08-1.64,6.07-.57,1.72-1.39,3.36-2.09,5a2.87,2.87,0,0,0-.28.84,10.48,10.48,0,0,1-2.31,5.27,2.09,2.09,0,0,0-.2.67c-.91,2.57-1.48,5.33-2.8,7.67-1.65,2.91-4,5.41-5.86,8.21-1.17,1.75-2,3.75-3,5.59-.61,1.09-1.77,2-2,3.16-.39,2.3-3.11,3.13-3.14,5.54,0,.28-.59.52-.75.85-.94,2-1.82,4-2.76,6-.69,1.45-1.43,2.88-2.17,4.3a35.15,35.15,0,0,1-1.71,3.14c-1.82,2.74-3.64,5.49-5.59,8.14a71,71,0,0,1-4.69,5.7c-1.27,1.41-2.81,2.58-4.09,4-2.15,2.4-4.18,4.91-6.29,7.36-1.17,1.35-2.41,2.65-3.6,4-1.3,1.49-2.55,3-3.88,4.5-1.54,1.7-3.69,3.1-4.56,5.08-1,2.36-3.34,3.42-4.44,5.71A59.79,59.79,0,0,1,52,525.34c-1.42,2.2-3.61,3.89-5.4,5.86-1,1.06-2.29.85-3.43,1.27-5.58,2-11.31,1-17,1a29.46,29.46,0,0,1-7.55-1.35,21.26,21.26,0,0,1-3.75-2,2.66,2.66,0,0,0-1.37-.32c-2.44.24-4.31-1-6.17-2.29-.72-.5-1.68-.69-2.36-1.23-1.53-1.21-2.62-2.46-1.31-4.7.87-1.48.91-3.44,1.58-5.07.83-2,2-3.92,2.92-5.89,1.15-2.34,2.2-4.72,3.42-7,.84-1.59,1.95-3,2.84-4.59.78-1.37,1.43-2.81,2.14-4.21a27.86,27.86,0,0,1,1.53-3c1.88-2.76,3.92-5.41,5.75-8.2a32.88,32.88,0,0,0,1.77-3.85A9.19,9.19,0,0,1,26.78,478c1.74-2.11,1.92-4.93,3.55-7.2s1.79-5.18,2.88-7.7a60.88,60.88,0,0,1,3.23-5.71c.55-1,1.11-1.95,1.57-3,1-2.15,1.8-4.38,2.86-6.49.86-1.71,2-3.28,3-5,.71-1.25,1.22-2.61,2-3.82.88-1.42,2-2.7,2.92-4.08,1.19-1.71,2.3-3.48,3.49-5.2.3-.43.88-.67,1.15-1.11,1.83-2.9,3.68-5.79,5.38-8.77s3.21-5.79,4.62-8.78c.71-1.5.74-3.33,1.51-4.78,1.28-2.43.78-5.13,1.5-7.55,2.54-8.53,2.4-17.24,2.34-26,0-4.25,0-8.51-.14-12.77,0-1.35.24-2.14,1.84-2.06,2.22.1,3.41-1.68,4.55-3.1,2.18-2.71,4.12-5.62,6.09-8.49C81.79,345.46,82.35,344.28,82.84,343.43ZM64.68,479.59,65,481.4c.76-.21,1.52-.4,2.26-.64a3.73,3.73,0,0,0,.73-.46c2.47-1.53,5.16-2.8,7.33-4.67,2-1.72,4.08-3.49,5.09-6.22.66-1.8,2.06-3.33,3.07-5a30,30,0,0,0,1.6-3.08c1-2.11,1.68-4.36,2.83-6.36,1.4-2.42,1.55-2.33-1-3.88-.62,1.55-1.15,3.1-1.84,4.59-1.21,2.6-2.48,5.17-3.78,7.72-.73,1.44-1.53,2.85-2.4,4.21A36.25,36.25,0,0,1,76.35,471a17.74,17.74,0,0,1-2.52,2.74,61.52,61.52,0,0,1-5.07,3.56C67.58,478.09,66.29,478.7,64.68,479.59Zm130.75-70.52c-2.6,1.31-3.36,3.71-4.73,5.58-1.18,1.6-2.23,3.3-3.33,5s-2.07,3.15-3.08,4.74c-.74,1.19-1.42,2.43-2.15,3.63-1,1.61-2.49,3.08-1,5.73a21.67,21.67,0,0,0,1.91-2.17c.66-1,1.11-2.11,1.79-3.08,1.44-2.07,3.07-4,4.44-6.12.75-1.15,1-2.63,1.7-3.8a27.67,27.67,0,0,1,3.81-5.3C196.11,411.93,195.67,410.77,195.43,409.07ZM73.66,391.25c1.93.38,2.73-.21,2.62-2a8,8,0,0,1,.21-2.49c.69-2.57,1.8-5.08,2.14-7.69.42-3.24,2.22-5.77,3.46-8.6a5.47,5.47,0,0,0,.07-2c-.72.16-1.76.08-2.1.53a35.66,35.66,0,0,0-2.39,4.12,11,11,0,0,0-1.29,2.34c-.59,2.38-1,4.81-1.5,7.22,0,.23,0,.53-.14.69C72.81,385.88,74.17,388.66,73.66,391.25ZM40.46,519.4c.25-2.07.23-2.25-1.79-2.13a12.19,12.19,0,0,1-9-2.84A4,4,0,0,0,27,513.16c-.34,0-.66-.53-1-.85-.66.61-1.54,1.07-1.78,1.74-.48,1.35.92,2.63,3,3a7.32,7.32,0,0,1,1.87.46c1.24.6,2.37,1.77,3.63,1.91C35.24,519.73,37.88,521,40.46,519.4ZM176.78,378.69c-.49,1.82.84,2,1.92,2.82a41.6,41.6,0,0,1,5.53,5.34c2,2.08,2.84,2.41,5.1,1.13-1.81-1.8-3.47-3.56-5.24-5.22s-3.73-3.31-5.6-4.95Z"/><path class="cls-1" d="M164.83,275.19a12.36,12.36,0,0,0-2.29-.75,9.57,9.57,0,0,1-5.16-2.28,8.42,8.42,0,0,0-2.9-1.25c-1.89-.6-3.83-1.07-5.72-1.67a35.39,35.39,0,0,1-3.58-1.4c-1.62-.71-3.23-1.44-4.78-2.26-2.8-1.48-5.55-3-8.32-4.56a3.76,3.76,0,0,0-.94-.42c-2-.51-4.09-.88-6.08-1.5s-4-1.61-6.07-2.28c-1.89-.61-3.87-.92-5.76-1.53s-3.56-1.4-5.33-2.11a5.47,5.47,0,0,0-.83-.29c-2.52-.49-5.21-.55-7.52-1.51-4.71-2-9.51-1-14.28-1.07a6.31,6.31,0,0,0-2.67.75c-1.55.73-2.44.44-2.71-1.18a27.57,27.57,0,0,1-.7-5.68,48.58,48.58,0,0,1,1.12-9A14.47,14.47,0,0,1,83,230.12a39.48,39.48,0,0,1,7-6.65c2-1.61,3.86-3.34,5.71-5.1,2.46-2.33,4.83-4.76,7.27-7.11a33.18,33.18,0,0,0,3.33-3,45.44,45.44,0,0,0,3.14-5c.52-.88.89-1.85,1.39-2.75a32.58,32.58,0,0,0,2.58-6.66c.76-2.54,1.78-5,2.6-7.6a44.93,44.93,0,0,1,3.18-6.31,1.38,1.38,0,0,0,.12-.34c.53-2.33,1-4.69,1.61-7,.59-2.1,1.42-4.13,2.09-6.2.55-1.71,1-3.47,1.56-5.16,1-2.75,1.23-5.65,2.14-8.43.74-2.23.33-4.84.36-7.28a2.35,2.35,0,0,0-1.14-.25,11.9,11.9,0,0,0-1.26,3c-.59,2.73-.9,5.52-1.56,8.23-.71,2.94-1.69,5.81-2.54,8.72s-1.17,5.76-2.49,8.24c-.91,1.71-.77,3.36-1.27,5a24.79,24.79,0,0,1-1.89,3.6,24.76,24.76,0,0,0-1.52,3.42c-.61,1.86-1,3.78-1.6,5.65a52,52,0,0,1-2.66,7.81c-1,2-2.67,3.75-4.09,5.57-1.57,2-3.17,4-4.8,5.9a5.12,5.12,0,0,1-1.38,1.25,8.71,8.71,0,0,0-2.61,2.69c-1.21,1.61-3.07,2.71-4.64,4.05s-3.39,2.87-5,4.42c-1.84,1.8-3.54,3.74-5.36,5.56a1.41,1.41,0,0,1-1.15-.47,28.68,28.68,0,0,0-5.19-9.06,7.47,7.47,0,0,0-1.85-1.2c-1.2,1.15-.85,2.17.15,3.21a11.57,11.57,0,0,1,3.17,5.35c.33,1.4,1,2.74,1.2,4.15.11.65-.18,1.91-.54,2a4.71,4.71,0,0,1-3-.06A17.7,17.7,0,0,1,70.7,230c-.63-.46-1.15-1-1.79-1.5s-1.43-.86-2.27-1.34c-.7,1.59-.73,2.49.54,3.36,2.81,1.94,5.25,4.52,9,4.7a1.69,1.69,0,0,1,1.16,1.16c.06,2.28.51,4.6-.72,6.8a4.79,4.79,0,0,0-.12,2.65c.33,2.76.62,5.53,1.15,8.26s1.35,5.47,2,8.21c.06.23.19.45.23.68.48,3,.85,6.06,1.48,9.06a60.48,60.48,0,0,0,2.22,8.17,4.36,4.36,0,0,1-1.87,5.69c-1.62,1-3.54,1.69-4.92,2.73-1.82,1.37-4,1.81-5.78,3.29-1.06.9-2.78,1-4.2,1.5-2,.68-4.09,1.38-6.13,2.05a5.28,5.28,0,0,1-1.53.38c-3.18.05-6.36.15-9.53,0a10,10,0,0,1-7.32-3.74,8.27,8.27,0,0,1-1.44-2.91,55.59,55.59,0,0,1-1.44-5.5c-.52-2.46-.8-5-1.42-7.42s-1.48-4.56-2.23-6.83a2.3,2.3,0,0,1-.1-.35c-.47-3-.5-6.08-1.49-8.85-1.4-3.89-.33-8-1.38-11.69-1.6-5.61-1.05-11.21-1.32-16.82a15.83,15.83,0,0,0-.47-1.86,8.06,8.06,0,0,1-.27-2.27c.25-2.34.64-4.68.95-7,.22-1.73-.27-3.58,1.16-5.08.32-.34.18-1.16.17-1.76a10.44,10.44,0,0,1,2.14-5.91,1.2,1.2,0,0,0,.28-.64c-.19-2.31,1.52-3.74,2.79-5.1,2.62-2.82,5.72-5.2,8.44-7.93a48.59,48.59,0,0,0,4.34-5.44c1.13-1.53,2.15-3.14,3.22-4.72a2.19,2.19,0,0,0,.28-.42c.93-2.81,1.78-5.66,2.82-8.43a34.15,34.15,0,0,1,2.06-3.86,2.7,2.7,0,0,0,.22-.66,28.65,28.65,0,0,1,3.57-9,2.16,2.16,0,0,0,.33-1c.2-3.17,1.87-5.71,3.43-8.34.85-1.44,1.11-3.22,1.79-4.78a41.54,41.54,0,0,1,2.63-5.2c1-1.61,2.29-3.06,3.45-4.57,1.46-1.91,2.93-3.8,4.36-5.72.6-.8,1.09-1.69,1.67-2.51a68.57,68.57,0,0,1,4.36-6c2.1-2.37,4.46-4.51,6.74-6.71,1.11-1.08,2.25-2.14,3.45-3.12a26.15,26.15,0,0,1,2.78-1.83c1.94-1.18,3.88-2.37,5.86-3.48,2.65-1.49,5.36-2.85,8-4.37,1-.55,1.64-1.8,2.61-2,1.8-.4,2.54-1.81,3.68-2.87s2.54-2,3.7-3.16c.89-.86,1.54-.74,2.37,0,2.44,2.29,5.09,4.4,7.35,6.86,2.44,2.65,5.21,5,6.89,8.38.85,1.69,2.37,3,3.38,4.68a29.12,29.12,0,0,1,1.56,3.76c.49,1.16,1,2.32,1.58,3.44.72,1.36,1.51,2.68,2.31,4a11.78,11.78,0,0,0,1.26,1.71c1.36,1.48,1.35,3.87,3.52,4.9.61.3.68,1.73,1,2.63.6,1.59,1.2,3.19,1.86,4.77.38.92.87,1.8,1.31,2.71.65,1.36,1.35,2.7,1.95,4.08s1.08,2.78,1.6,4.17c.43,1.13.91,2.23,1.25,3.38.53,1.84,1,3.71,1.42,5.56.1.41,0,.91.26,1.22,1.13,1.57,1.23,2.8-.06,4.58-1,1.44-1.21,3.6-1.47,5.48-.54,3.88-1,7.78-1.24,11.68a77.55,77.55,0,0,0,.06,9.88c.09,1.29,1,2.52,1.47,3.8a19.56,19.56,0,0,1,1,3.25c.45,2.58,1.27,5,3.36,6.69,3,2.51,6.44,2.56,9.91,1.15,2.1-.85,4.18-.08,4.33,2.15a39.58,39.58,0,0,1-.55,6.49c-.15,1.54-.39,3.08-.46,4.63-.09,2,.13,4.1-.11,6.11a47.62,47.62,0,0,1-1.57,8.59,57.23,57.23,0,0,0-2.34,9.58c-.31,2.33-1.35,4.57-2.06,6.84-.07.23-.1.47-.15.71a66.75,66.75,0,0,1-1.58,6.92c-.76,2.31-1.93,4.47-2.91,6.7-.71,1.62-1.34,3.28-2.09,4.88C166,273.37,165.35,274.29,164.83,275.19ZM174,214.48c-1.26.19-2.84,0-3.16.57-.46.8,0,2.13.06,3.23s.19,2.37.15,3.54a15.4,15.4,0,0,1-.52,2.05c-.56,3.11-.07,6.27-1.19,9.45-1,2.83-.13,6.16-1.52,9.16-.85,1.82-1,4-1.47,6,0,.16-.2.29-.26.45a15.14,15.14,0,0,0-1,2.72c-.07.41.46,1.31.68,1.3.57,0,1.47-.3,1.63-.72.68-1.76,1.14-3.61,1.67-5.44.12-.39.14-.81.27-1.2a61.43,61.43,0,0,0,2.07-6.51c.39-1.91.06-4,.4-5.9.56-3.14,1.67-6.19,2.06-9.34A79.12,79.12,0,0,0,174,214.48Zm-67.43,32.84c-.94-1.22-1.55-2.53-2.57-3.23a23,23,0,0,1-7.15-8c-.54-1-1.08-1.37-1.84-.83a2.15,2.15,0,0,0-.62,1.92A18.47,18.47,0,0,0,99,243.94c1.15,1.05,2.78,1.64,3.75,2.8C104,248.18,105.06,247.65,106.59,247.32ZM122,119.69c-1.56-.53-2.85-1-4.17-1.4-2.16-.59-4.34-1.08-6.51-1.62-.16,0-.38-.12-.44-.24-.69-1.41-1.72-.71-2.72-.59.76,3.2,9.3,6.72,13.72,5.69Zm-2.78,105c.12-.29.19-.76.38-.81,1.77-.48,1.41-.87.25-2-1.59-1.49-3.67-2.92-2.92-5.74l-2.32-.22C113.34,220.22,116.29,222.18,119.17,224.64Z"/><path class="cls-1" d="M183.18,216.54c1.22.34,2,.6,2.81.76,12.87,2.61,25.89.57,38.82,1.32,2,.12,3.9,1,5.86,1,7.49.12,15,.28,22.48-.06,4.29-.2,8.55-1.35,12.82-2.05,1-.17,2.11-.25,3.77-.45-.44,1.31-.74,2.24-1.06,3.15a5.8,5.8,0,0,0-.38.8,57.77,57.77,0,0,0-1.26,7c-.25,3.35-.06,6.72-.25,10.07-.09,1.67-.72,3.32-.85,5a28.68,28.68,0,0,0-.15,7.16c1.33,7.47.6,15,1.44,22.49.4,3.57.72,7.15,1,10.74.16,2.14,0,4.32.18,6.46a90.7,90.7,0,0,0,1.2,9.16,16.67,16.67,0,0,0,1.77,4.14,57.12,57.12,0,0,0,3.32,5.92,21.87,21.87,0,0,0,3.15,3.16,9.21,9.21,0,0,0,6.68,2.9c1.64,0,3.28,1,5.34,1.61-.28.65-.64,1.43-.93,2.23a5.43,5.43,0,0,0-.36,1.52c-.06,1.5-.11,3-.06,4.5.11,3.19-1.45,5.61-3.35,8a48.13,48.13,0,0,0-2.91,4.59c-1,1.66-2.08,3.31-3.18,4.93s-2.3,3.34-3.53,5c-.66.88-1.53,1.6-2.21,2.47-1,1.26-1.76,2.69-2.81,3.89-3.06,3.49-6.22,6.9-9.35,10.34-2,2.17-3.87,4.41-6,6.46-1.64,1.6-3.69,2.79-5.27,4.44-2.51,2.62-5.38,4.87-7.33,8.08-1.76,2.89-3.69,5.66-5.22,8.72-.7,1.39-.6,2.87-1.16,4.1-1.44,3.16-.5,6.65-1.5,9.69a22.27,22.27,0,0,0-.63,11.26c1.39,7.12.75,14.26,1.1,21.38a114.07,114.07,0,0,1-.4,18.3,72.36,72.36,0,0,0-.77,9.85,12.49,12.49,0,0,0,.55,2.35,2.28,2.28,0,0,1,.14.84,48.28,48.28,0,0,0-.71,5.19c-.14,5.87,0,11.75-.26,17.62a106,106,0,0,1-1.46,10.88c-.38,2.42-.92,4.81-1.41,7.35-6.14.69-10.69-2.35-14.52-6.93a3.68,3.68,0,0,0,.21-4.86,2,2,0,0,1-.29-.82c-.33-2.2.07-4.55-1.36-6.52-.12-8.42-2.1-16.68-1.61-25.18a142.28,142.28,0,0,0-.21-23c-1.58-14.82-.31-29.61-.7-44.41,1.48-3.52,1.13-7.24,1-10.88a48.79,48.79,0,0,0-1.28-8.66,25.76,25.76,0,0,0-2-4.54c-.54-1.23-1-2.5-1.57-3.71a15.28,15.28,0,0,0-1.79-3c-2-2.36-3.76-4.94-6.11-6.84a45.11,45.11,0,0,1-4.21-4.2,4.48,4.48,0,0,1-.6-1.1,5.69,5.69,0,0,1,1.08-.41c2.69-.47,4.83-3.42,3.85-5.82a15.24,15.24,0,0,0-3.05-4.2c-2-2.2-4.25-4.13-5.87-6.7-1.43-2.25-3-4.37-3.78-7-.12-.4-.86-.59-1.08-1-1.21-2.24-3-4.06-4.08-6.44-.68-1.56-2.31-2.7-3-4.26-1-2.34-3.11-4.11-3.33-7-.11-1.54-1.28-3-2-4.49-.09-.2-.31-.4-.3-.6,0-2.52-1.19-4.57-2.34-6.67a1.9,1.9,0,0,1,.22-1.6c1.76-2.65,3.66-5.2,3.44-8.66-.09-1.43.28-2.92,0-4.3a21.47,21.47,0,0,0-1.84-5.61c-.45-.87-1.83-1.22-2.71-1.9a16.89,16.89,0,0,1-3-2.69,2.69,2.69,0,0,1,.09-2.16c.55-1.3,1.36-2.49,2-3.75,1.23-2.36,2.43-4.74,3.64-7.11a5.35,5.35,0,0,0,.24-.67c.38-1.18.83-2.34,1.13-3.54.54-2.22,1.05-4.46,1.47-6.72.57-3,.82-6.18,1.62-9.18.89-3.35,1.56-6.8,2.61-10,.85-2.62.45-5.32,1.53-7.86.71-1.67.29-3.82.42-5.74C182.89,218.82,183.06,217.61,183.18,216.54Z"/><path class="cls-1" d="M169.61,302.44c1.08,2.51,2.09,4.65,2.91,6.87.67,1.82,1.06,3.76,1.68,5.61a16.18,16.18,0,0,0,1.38,2.84c1,1.7,2,3.36,3.07,5,.59,1,1.17,1.95,1.81,2.88,1.41,2.06,2.9,4.07,4.26,6.15.8,1.23,1.42,2.58,2.14,3.86q.64,1.13,1.38,2.19c1.61,2.37,3.19,4.76,4.89,7.07,1.11,1.52,2.4,2.91,3.63,4.34,1,1.13.4,2.64-1.5,3.7a23.3,23.3,0,0,1-8.79,2.88c-2.5.29-4.9,1.4-7.35,2.14a3.25,3.25,0,0,1-.52.12c-4.16.63-8.25,1.5-12.54,1.45-11.75-.14-23.5.06-35.25.17a12.25,12.25,0,0,0-2.54.58c-.23.05-.5.22-.68.15-4.18-1.52-8.52-.38-12.78-.75a30.6,30.6,0,0,0-5.74-.09c-1.83.18-2.71-1-3.37-2.14-1.58-2.73-2.91-5.61-4.29-8.45a7.79,7.79,0,0,1-.94-2.73c0-.68.57-1.38.82-2.1s.32-1.23.47-1.84c.23-.86.46-1.72.61-2.26-.25-1.72-.41-3.21-.7-4.68-.26-1.31-.73-2.59-1-3.9s-.26-2.61-.35-3.91c0-.66.26-1.57-.07-1.94-1.85-2.08-.81-3.93.22-5.84a15.41,15.41,0,0,0,1.28-2.53c1-3.4-.36-6.79-.22-10.21,0-.85-.81-1.77-1.3-2.62-.67-1.17-1.43-2.29-2.07-3.48a20.31,20.31,0,0,0-1.42-3c-2.15-2.75-4.4-5.43-6.72-8a25.06,25.06,0,0,0-3-2.48c-.71-.59-1-1.06-.05-1.84a2.41,2.41,0,0,0,.37-2.06,40.81,40.81,0,0,0-2.27-6.63,17.72,17.72,0,0,1-1.38-6.63c-.12-1.67.3-2.35,2.13-2.27,3.65.15,7.31-.06,11,.16a22.58,22.58,0,0,1,6.69,1.32c2.14.81,4,2.31,6,3.47a22.77,22.77,0,0,0,2.59,1.24c1.37.56,2.8,1,4.13,1.58,1.14.54,2.15,1.33,3.24,2s2.08,1.08,3.09,1.67c2,1.17,4,2.44,6,3.57s3.94,1.8,5.8,2.9c2.37,1.41,4.59,3.06,6.91,4.53,1,.63,2.1,1,3.14,1.6,1.61.86,3.23,1.72,4.81,2.64,2.16,1.26,2.32,1.94,1.08,4.14a1,1,0,0,0-.17.49,32.44,32.44,0,0,1-1.33,8.18c-.79,3.2-1.28,6.46-2.31,9.61-.71,2.2-1,4.55-1.64,6.79-.54,1.86-1.34,3.66-2,5.48-.06.17-.18.31-.23.48-1,3.07-1.76,6.2-2.9,9.2a47.38,47.38,0,0,1-3.37,6.86,3.54,3.54,0,0,0,1.54,4.85c2.07,1,3.95,2.34,5.95,3.48.73.41,1.58.62,2.36,1a38.72,38.72,0,0,0,4,1.74c1.4.41,2.51-1,3.6-2.59,1.36-2,.87-4.18,1.3-6.25a63,63,0,0,1,2.17-6.88c.47-1.38,1-2.74,1.48-4.11q1.22-3.5,2.41-7a2.33,2.33,0,0,0,.13-.52c.48-4.07.93-8.15,1.45-12.22a17.8,17.8,0,0,1,.69-2.52,12.36,12.36,0,0,0,.44-1.55c.43-2.87.81-5.76,1.26-8.64C165.48,302.77,167.13,302.06,169.61,302.44Z"/><path class="cls-1" d="M341.92,326.72c0,3.22,0,6.45,0,9.68,0,5.08.66,10.33-.4,15.19-1.1,5.08-.39,10-.88,15-.06.58-.31,1.6-.58,1.64-1,.14-2.61.37-3.05-.18a28.7,28.7,0,0,1-2.81-5c-.44-.83-.86-1.68-1.25-2.54q-1.76-3.78-3.48-7.57a3.16,3.16,0,0,1-.21-.87c-.41-2.84-2.11-5.08-3.42-7.52-.6-1.12-1.17-2.27-1.75-3.41-.5-1-1-1.92-1.5-2.87-1.21-2.23-2.37-4.5-3.66-6.68-1.08-1.82-2.4-3.49-3.43-5.32a2.21,2.21,0,0,1,.19-2.06,60.72,60.72,0,0,1,6.46-4.95,23.21,23.21,0,0,1,4.49-1.78c1.89-.69,3.78-1.35,5.67-2a4.45,4.45,0,0,1,.85-.28c3.57-.45,7.15-.83,10.71-1.34,3-.41,5.92-.82,8.82-1.5A87.2,87.2,0,0,0,361,309.8c1.53-.53,3-1.34,4.43-2a3.94,3.94,0,0,1,.68-.25c2.08-.5,4.21-.88,6.25-1.52a27.35,27.35,0,0,0,3.63-1.82c1.17-.58,2.34-1.13,3.53-1.68,3-1.37,6-2.6,8.95-4.12s5.41-3.19,8.1-4.81c1.09-.65,3.86,0,4.86,1.4a26.93,26.93,0,0,1,2.66,4.93c1,2.31,1.46,4.9,2.76,7,1.51,2.43,1.81,5,2.53,7.66,1.07,3.85.44,7.77,1.24,11.49s.48,7.28,1.41,10.72a66.4,66.4,0,0,1,1.1,6.58c.27,1.65,1.1,3.26,1.1,4.89,0,3.25-.84,6-4.29,7.7a23.08,23.08,0,0,1-7.23,2.45c-1.84.23-3.58,1.27-5.37,1.94a4,4,0,0,1-1.2.34,9.4,9.4,0,0,0-5.11,2.21,1.62,1.62,0,0,1-.66.23c-2.62.54-5.28,1-7.87,1.63-2.31.58-4.56,1.41-6.83,2.13a3.36,3.36,0,0,1-.7.15q-6.87.69-13.76,1.35c-1.56.15-2.93.22-3.07-2.05A18.32,18.32,0,0,0,357,361.6c-.56-1.61-1.36-3.14-2.06-4.71a3.47,3.47,0,0,1-.25-.46c-.49-2.34-.87-4.71-1.47-7-.47-1.8-1.18-3.54-1.8-5.3-.17-.49-.42-.95-.6-1.43-.62-1.6-1.09-3.27-1.86-4.79-1.24-2.44-3.12-4.53-3.41-7.45C345.41,328.6,343.33,326.64,341.92,326.72Z"/><path class="cls-1" d="M326.84,119.21a33.93,33.93,0,0,1-4.28-3.73,8.38,8.38,0,0,1-2.17-4.33c-.32-4.17-.06-8.38-.2-12.57-.1-2.68-3.08-5.15-5.48-4.33a10.59,10.59,0,0,0-4.38,3.16c-1.22,1.45-1.8,3.41-2.78,5.07a3.14,3.14,0,0,1-3.31,1.74c-1.29-.18-1.38-1.07-1.79-2.06a31.36,31.36,0,0,0-3.05-5.45,12.33,12.33,0,0,0-2.21-2,2.71,2.71,0,0,0-.67-.51c-2.06-.84-4.12-1.68-6.21-2.44a6.08,6.08,0,0,0-2-.16c-7.07-.06-14.14-.13-21.21-.14-1,0-1.17-.42-1.61-1.18-1.64-2.81-1.12-5.82-1.16-8.78,0-1.44-.35-3,1.05-4.16.2-.17.18-.68.17-1,0-2.53,1.36-4.58,2.17-6.85,1.1-3.11,3.7-4.62,5.68-6.73,1.27-1.35,3.34-2,5.08-2.88,3.43-1.8,7.28-1.95,10.94-2.87a25.71,25.71,0,0,1,7.86-.92c1,.06,2,.57,3,.72a3.38,3.38,0,0,0,2.06-.17,2.91,2.91,0,0,1,3,0,10.25,10.25,0,0,0,3.17.42,29.63,29.63,0,0,1,8.7,2.4c1.57.64,3.26,1,4.78,1.73a40.1,40.1,0,0,1,4.28,2.61A33,33,0,0,1,330,66.14c1.49,1.24,2.83,2.65,4.21,4a12.9,12.9,0,0,1,1.3,1.47,13.61,13.61,0,0,1,2.78,6.54,43.37,43.37,0,0,0,1.9,6.44,6.73,6.73,0,0,1,.37,1.92c-.08,3.23.48,6.46-1,9.66-.69,1.52,0,3.59-.37,5.33-.54,2.6-1.44,5.13-2.18,7.69a3.71,3.71,0,0,0-.24,1.2c.15,2.19-1.11,3.25-2.9,4.17a42.37,42.37,0,0,0-4.49,3C328.7,118.07,328,118.51,326.84,119.21Z"/><path class="cls-1" d="M275.69,123.68l-6.18-2c-.09-2.49-.52-5,.81-7.5a5.7,5.7,0,0,0,.3-1.93c.33-2.59.73-5.18.94-7.78.05-.73-.73-1.52-.69-2.25.16-2.83-1.84-5-2.19-7.88,2.29-.11,4.61-.63,7,.36.92.38,2.4.67,3.05.2,1.56-1.11,3.16-.7,4.76-.77a14.91,14.91,0,0,1,4.12.1c2.08.51,4,1.68,6.11,2,2.73.47,3.67,2.81,5.4,4.32a2.81,2.81,0,0,1,.72,1.15c.53,1.44.95,2.93,1.5,4.36.32.85,2.92,1.45,3.79,1s2-.4,2.54-1c1-1.11,1.56-2.59,2.45-3.8A37.86,37.86,0,0,1,313,99a4.47,4.47,0,0,1,1.55-1.28,2.19,2.19,0,0,1,3.17,2.21c0,3.83-.34,7.71.12,11.49a9.66,9.66,0,0,0,3.3,6.69,9.2,9.2,0,0,1,2.61,2.75c.23.46-.77,1.61-1.33,2.36a25.23,25.23,0,0,1-2.34,2.72,24.84,24.84,0,0,1-2.35,2,24.5,24.5,0,0,1-7.26,4.34c-2.85,1-5.67,1.92-8.56,2.77a50.13,50.13,0,0,1-6.39,1,25.36,25.36,0,0,0-3.16.93c-.11,0-.2.16-.31.17-3.24.45-6.46,1-9.71,1.26-1.38.11-2.14-1-2.91-2.24-1.19-2-.92-3.94-1.06-6,0-.55-.34-1.47-.67-1.54-2-.44-1.77-2-1.84-3.37C275.84,124.63,275.73,124.05,275.69,123.68Z"/><path class="cls-1" d="M185.73,98.27a39.43,39.43,0,0,0-4.84,2.11,4.27,4.27,0,0,0-1.64,2.28c-.52,1.94.54,4.07-1.15,6-.68.78-.11,2.66-.1,4,0,2.71-.1,2.91-2.77,3-3.35.06-6.71,0-10.06-.08-1.66,0-2.62.94-3.75,1.89-1.69,1.41-1.94,3.53-2.92,5.18-1.3,2.18-1.4,4.9-3.31,6.72-.25.23-.2.78-.34,1.38l-1.54.09c-1.13-1.5-2.09-2.68-2.93-3.93-.61-.92-1-2-1.59-2.91-1.73-2.49-2.56-5.45-4-8-2.09-3.65-4-7.49-7.16-10.52-2.29-2.2-4.3-4.69-6.62-7.27a18.6,18.6,0,0,1,2.07-.34c1.32-.07,2.64,0,4-.08,2.67-.17,4.61-1.67,6.77-3.18,3.1-2.16,2.57-4.91,2.22-7.66-.19-1.57-1.39-3-1.82-4.56a9.92,9.92,0,0,1-.41-4.34,6.66,6.66,0,0,1,2-3.21c1.67-1.56,2.91-1.31,4.23.61,1.2,1.77,2.22,3.67,3.53,5.35s3.25,2.69,5.52,1.82A5.94,5.94,0,0,0,161.4,81c2.15-2.51,2.64-2.61,5.26-.62a3.79,3.79,0,0,0,1.33.83c3.62.73,7.17,1.93,11,1.44,1.24-.16,2.53.1,3.77,0s1.73.5,1.8,1.6c0,.71-.08,1.44,0,2.15.14,1.35.42,2.68.55,4C185.32,93.18,185.53,96,185.73,98.27Z"/><path class="cls-1" d="M265.84,545c0,3.24,0,6.28,0,9.31,0,1.56-.14,3.12-.31,4.67s-.91,2.55-2.47,2.56a75.89,75.89,0,0,1-10-.23c-2.31-.28-4.5-1.4-6.75-2.14a3.59,3.59,0,0,0-.35-.08,50.71,50.71,0,0,1-7.31-1.53c-2.5-.91-5.22-.56-7.54-1.39-3.36-1.19-6.67-.88-10-1-5.51-.15-11,.09-16.54-.13a99.48,99.48,0,0,1-10.86-1.26,8.72,8.72,0,0,1-3.52-1.4,3,3,0,0,1-.95-2.25,3.07,3.07,0,0,1,.94-2.29,25.21,25.21,0,0,1,3.78-1.64c1.55-.7,3.06-1.52,4.63-2.16a7.41,7.41,0,0,1,2.13-.22c2.58-.18,5.14.07,7.7-1.06,1.63-.72,3.82,0,5.68-.43,2.35-.48,4.59-1.53,6.94-2.08,1.86-.45,3.08-1.65,4.52-2.7a2.43,2.43,0,0,1,3.5.73,9.51,9.51,0,0,0,3.95,2.79c3.37,1.49,6.73,3.1,10.64,2.74a16.42,16.42,0,0,1,5.9.21C254.74,545.53,260.06,544.63,265.84,545Z"/><path class="cls-1" d="M95.21,306.36h-2.3c.09,1.95-.13,3.71.65,5.7s.53,4.35.54,6.56c0,1,0,1.74,1.26,1.81s1,1.32,1.38,2.11c1.47,3,.37,6.48,1.44,9.37s.82,5.83,1.07,8.74a12,12,0,0,1-.13,2.09c-2.12.46-2.4.31-2.42-1.57,0-3.19-1.3-6.05-2.21-9-.48-1.6-.25-3.43-.3-5.16,0-1,.12-2,0-3a4.45,4.45,0,0,0-.71-1.43c-.56.36-1.57.67-1.62,1.08-.31,3.11-.93,6.28.63,9.27,0,.05.08.09.09.15.52,2.49,1.17,5,1.45,7.48.07.71-.94,1.54-1.36,2.17-2-.69-2.07-2-2.53-3.41-1.44-4.26-1.36-8.58-1.29-12.95,0-1.18,0-2.37,0-3.61-1.42-.2-2.34.2-2.37,1.56-.08,3.23-.51,6.57.13,9.67a36.8,36.8,0,0,1,1.15,5.58,4,4,0,0,1,0,1.25,3.05,3.05,0,0,1-.61.9c-.26-.25-.71-.46-.77-.75-.42-2.12-.75-4.27-1.14-6.4-.46-2.54-1-5.07-1.41-7.63a18.52,18.52,0,0,1,0-3.94c.1-1.36-.49-2.12-2-2.58a9.77,9.77,0,0,0-.44,2c0,3.47-.06,6.95.11,10.42.06,1.17.78,2.31,1.09,3.49a8.45,8.45,0,0,1,.16,2.14.82.82,0,0,1-.5.6.87.87,0,0,1-.74-.29A7,7,0,0,1,80.36,337c-.6-1.55-1-3.17-1.64-4.7s-1.43-3.05-2.15-4.57c-.08-.16-.21-.34-.18-.49.44-2.56-1-4.72-1.53-7.08a56.43,56.43,0,0,0-2.16-6.47,2.35,2.35,0,0,1-.11-.35c-.49-2.57-.8-5.19-1.5-7.7a32.66,32.66,0,0,0-2.74-7.08c-1.15-2.06-1-3.24,1.33-3.56a9.48,9.48,0,0,0,4.55-2.21c1.2-.89,2.83-1.16,4.2-1.85,1-.53,1.89-1.46,3-1.9a3.18,3.18,0,0,1,2.57-.11,45.78,45.78,0,0,1,5.52,4.71,51.78,51.78,0,0,1,3.44,4.19c.93,1.12,2,2.14,2.79,3.34a16.17,16.17,0,0,1,2.08,3.94c.68,2,1,4.16,1.57,6.23.19.71.89,1.4.83,2a20.57,20.57,0,0,1-1,4,1,1,0,0,1-.89.34c-.54-.27-1.31-.66-1.41-1.12-.62-2.79-1.08-5.6-1.57-8.42A14.83,14.83,0,0,1,95.21,306.36ZM81,318.28l-.35-.45c-1.49-1.78-2.35-1.82-3.94-.09-.15.16.06,1,.18,1C78.23,319,79.66,319.39,81,318.28ZM84,316.56v2.22c.58.05,1,.1,1.5.12a3.27,3.27,0,0,0,.65-.11C86.38,316.77,86.12,316.49,84,316.56Zm6.29.66-1.28,1a5.62,5.62,0,0,0,1.52.7c.3,0,.67-.41,1-.64Z"/><path class="cls-1" d="M180.52,527.32V510.86a13,13,0,0,1,2.2-.11c4.11.43,8-.83,11.92-1.68,2-.45,4-.57,6-1,2.35-.51,4.58-1.61,6.94-2.05a19.62,19.62,0,0,1,6.74-.24c1.12.2,2,1.9,3,2.91s1.61,1.92,3,2.14c.53.08.92.82,1.47,1,2.19.87,4.4,1.75,6.66,2.44,1.62.5,2.08,1.55,1.06,3a2.14,2.14,0,0,0-.54,1.07c.06,2.65-1.22,4.82-2.39,7a2.22,2.22,0,0,0-.22,1.22c.21,1.88-1,2.34-2.42,2.16-2-.27-4-.89-6-1.24a25.65,25.65,0,0,0-3.4-.19l-5.21-.15a4.36,4.36,0,0,1-1.94-.2c-2.9-1.65-5.71-.57-8.67-.17a108.14,108.14,0,0,1-11.82.47C184.83,527.36,182.81,527.32,180.52,527.32Z"/><path class="cls-1" d="M172.22,206.75A13.67,13.67,0,0,0,170,206a5.39,5.39,0,0,1-4.67-4.74,7.92,7.92,0,0,1-.1-1.61A6.16,6.16,0,0,0,163.2,194c-.9-.78-.51-3.8,0-4.87.44-.85.81-2.37.37-2.9-1.24-1.5-.94-3.11-.91-4.7,0-1.85-.53-3.85,1.19-5.38.31-.27.16-1,.25-1.57a63.69,63.69,0,0,1,1.14-6.34c.77-2.73,5.3-3.88,7.66-2.25,1.11.76,2.58,1,3.79,1.6,2.19,1.15,4.31,2.44,6.47,3.65.93.51,1.91.92,2.84,1.44a3.8,3.8,0,0,1,2,3.66c0,7.49,0,15,.07,22.47,0,1.11-.29,1.76-1.5,2-.51.09-.86.86-1.38,1.13-1.74.91-3.73,1.48-5.23,2.67-1.93,1.53-4.1,1-6.15,1.45A9.41,9.41,0,0,0,172.22,206.75Zm.44-23.74c-1.92-.34-2.43.69-2.25,2,.07.53,1.06,1.44,1.35,1.34C173.56,185.74,172.6,184.28,172.66,183Zm-1.28,9-2,1.75,1.57,3.25.46-.25Zm-1.45,7.65c.88,1.46,1.5,2.49,2.13,3.51l.57-.13v-3.55ZM172,176.27l.77-.18c0-1.05-.09-2.1-.14-3.15-.6.33-1.38.53-1.76,1C169.64,175.58,172.06,175.22,172,176.27Z"/><path class="cls-1" d="M44.39,556.45c-1.16-.4-2.27-1.16-3.21-1s-1.53,1.31-2.54,2.28l-.81-2.19c-1.08-.32-1.68-.12-2.45,1.07-.94,1.46-2.59,2.47-4.09,3.82C30.43,559,29.9,558,29.22,557a1.25,1.25,0,0,0-1.16-.11c-.69,1-1.25,2-2,3.28a48.09,48.09,0,0,1-5.24-3.83,19.15,19.15,0,0,1-3-4.16c-1.28-2.13-2.49-4.32-3.6-6.55-1-2.07-1.82-4.25-2.84-6.33s-2.19-4-3.22-6.05a6.88,6.88,0,0,1-.38-1.81c3.14.82,6.15,1.28,8.88,2.42,1.83.77,3.76.47,5.41,1.12,5.81,2.31,11.76.75,17.63,1,1.17,0,2.36-.59,3.55-.84A11.6,11.6,0,0,1,45,535c.77,2,1.41,3.8,2.15,5.55.2.48.76.8,1,1.27a34.12,34.12,0,0,0,2.72,4.67c1.15,1.38.75,3.24,1.55,4.42,1.49,2.19.69,4.21.68,6.32l-.49.34q-2.85-2.35-5.71-4.7c-.68-.56-2.11.13-2.32,1.17C44.5,554.77,44.48,555.54,44.39,556.45Z"/><path class="cls-1" d="M425.91,549c2.9-2.57,5.95-5.21,8.92-7.94a16,16,0,0,0,2.3-2.81c.63-.93,1.05-2,1.68-3,.17-.26.74-.34,1.13-.36,1-.06,2.05.08,3.05-.06,3-.43,6.05-.77,9-1.47a55.46,55.46,0,0,0,7.36-2.5,76.45,76.45,0,0,0,8.83-3.88,78.13,78.13,0,0,0,7.74-5.38,3.33,3.33,0,0,0,.73-1.2,1.45,1.45,0,0,1,2.58-.15c.72,1,2,2,2,2.93s-1.21,2.09-2,3c-1.94,2.13-3.94,4.21-6,6.27-1.4,1.43-2.82,2.85-4.35,4.13s-3.1,2.25-4.62,3.43c-1,.81-2,1.78-3,2.59-2.24,1.72-4.49,3.44-6.82,5a54.11,54.11,0,0,1-5.77,3.43,12.76,12.76,0,0,1-4.07,1.39c-4.33.58-8.67,1-13,1.4-2.43.2-4.44-.49-4.91-3.33,0-.21-.26-.39-.37-.6A8.68,8.68,0,0,1,425.91,549Z"/><path class="cls-1" d="M64.73,297.34l3.81,8.16c0,.1,0,.24,0,.35.49,2.84.87,5.71,1.53,8.5.42,1.76,1.34,3.4,1.91,5.13a26.7,26.7,0,0,1,1.63,5.88,18.11,18.11,0,0,0,2.25,6.83c.69,1.37,1,2.93,1.62,4.35s1,3,2.28,4.16a2.16,2.16,0,0,1,.23,2,32.11,32.11,0,0,1-2.18,3.49c-1.41,2.21-2.66,4.54-4.26,6.61-.86,1.11-2.28,2.46-3.84,1.55-1.05-.61-1.71-2-2.39-3.16-.82-1.39-1.52-2.85-2.2-4.32A32.08,32.08,0,0,1,64,343.69a36.31,36.31,0,0,1-1.62-5.33,75.64,75.64,0,0,1-1.07-19.52c.32-3.56,1.48-7,2-10.61.35-2.47.2-5,.31-7.53,0-1.08.16-2.15.25-3.23Z"/><path class="cls-1" d="M161.85,123.69c1.52,3.22,2.92,6.19,4.3,9.17a6,6,0,0,1,.3,1.21c.49,2.14.66,4.43,1.53,6.41,1.28,2.86,1.57,5.92,2.35,8.87a4.26,4.26,0,0,1-1,4.59c-.27.25-.12.92-.22,1.39-.53,2.37-1.08,4.74-1.62,7.11l-.64.19c-.54-1-1.16-2-1.6-3-.81-2-1.52-4-2.27-5.94-.4-1.07-.81-2.15-1.17-3.24-.59-1.81-1.09-3.66-1.74-5.45-.34-.94-1-1.77-1.39-2.68s-.74-1.8-1.13-2.69a7,7,0,0,0-.66-1.34c-1.05-1.49-.85-4.84.22-6.34a17,17,0,0,0,1.68-3.32c.54-1.28.85-2.66,1.5-3.87C160.55,124.19,161.4,124,161.85,123.69Z"/><path class="cls-1" d="M317.45,364.72c-1.75-.36-3.74.58-5.25-1.13-.06-.07-.23-.06-.35-.08-2.57-.49-5.16-.89-7.7-1.51a49.1,49.1,0,0,1-4.8-1.65c.25-1.52.37-2.94.74-4.3.62-2.27,1.41-4.49,2.12-6.74a4.71,4.71,0,0,0,.24-1.22c0-2.32,1.25-4.15,2.55-5.92a1.33,1.33,0,0,1,1.27,0c1.73,2.2,3.45,4.42,5,6.73a45.35,45.35,0,0,1,3.68,6.16,41.29,41.29,0,0,1,1.55,5.25c.42,1.34,1,2.64,1.45,4Z"/><path class="cls-1" d="M284.51,356.51a28.32,28.32,0,0,1-4.08-.89,59.51,59.51,0,0,1-5.55-2.59,1.08,1.08,0,0,1-.11-1c1.43-1.8,3-3.49,4.4-5.33,1.55-2.07,2.93-4.26,4.41-6.38s3.06-4.22,4.52-6.38a22.07,22.07,0,0,0,1.64-3c.46-1,.74-1,1.43-.09,1,1.31,1.88,2.46.08,3.78-.1.07-.07.34-.11.51-.4,1.75-.79,3.5-1.19,5.25-.52,2.27-.91,4.58-1.59,6.8-.52,1.66-1.45,3.2-2.13,4.83S285,355.17,284.51,356.51Z"/><path class="cls-1" d="M171.85,155c2.6,0,5.25-.91,7.57,1,.16.13.46.08.69.15,1.88.51,3.92.76,5.6,1.66,1.07.58,1.73,2.07,2.33,3.28.31.63,0,1.55.16,2.3.23,1.08.71,2.12.9,3.21a24.25,24.25,0,0,1,.18,3.22c-.34.14-.6.35-.74.29-1.49-.67-3-1.36-4.43-2.09-1-.49-1.9-1.06-2.84-1.6-1.24-.69-2.47-1.4-3.7-2.1A3.08,3.08,0,0,0,177,164c-1.88-.52-3.76-1-5.66-1.52-1-.24-1.72-2.44-.74-3.23C172,158.1,171.34,156.59,171.85,155Z"/><path class="cls-1" d="M188.05,204.63v9.74c-4-.08-5.29-1.8-5.05-6.62C183.08,206.11,185.64,204.48,188.05,204.63Z"/><path d="M433.08,503.54a3.79,3.79,0,0,1,5,1.12c2.26,2.59,5.2,4.19,8.09,5.74,1.43.77,3.52.25,5.29.51A6.33,6.33,0,0,1,454,512a1.72,1.72,0,0,1,.57,1.54,1.87,1.87,0,0,1-1.49.93c-1.54-.21-3-.68-4.56-1a2.48,2.48,0,0,0-.71-.1c-3.08.21-5.18-1.87-7.56-3.25a36.46,36.46,0,0,1-5.1-3.35C434.23,506,433.79,504.69,433.08,503.54Z"/><path d="M247.64,408.38c2.27-1.4,3.08.07,3.57,1.12,1.37,3,4.27,4.19,6.63,6,.38.29.91.6,1,1A14.75,14.75,0,0,1,259,419c-.77-.06-1.77.16-2.28-.23a65.93,65.93,0,0,1-7.1-6.12C248.56,411.55,248.24,409.78,247.64,408.38Z"/><path d="M274.67,226.4c2.34-.61,2.33.74,2.34,2.18,0,7.25,0,14.5.12,21.75,0,1.22.79,2.42.94,3.66.23,1.83.07,3.72.33,5.55.58,4.21,1.32,8.39,2,12.59a41.18,41.18,0,0,0,.58,4.34c.67,2.41,1.56,4.76,2.37,7.12a21.67,21.67,0,0,0,1.43,3.78,34.54,34.54,0,0,0,3.33,4.89c1.19,1.42,2.8,2.51,3.9,4,.49.66.27,1.92.21,2.9,0,.22-.72.6-1.06.56a2.1,2.1,0,0,1-1.21-.74c-1.1-1.37-2.16-2.79-3.19-4.22s-2.18-3.1-3.19-4.71c-.88-1.41-1.7-2.87-2.44-4.36a17.31,17.31,0,0,1-1.28-3.34,51.27,51.27,0,0,1-1.45-6.42c-.58-4.27-.39-8.74-1.6-12.81s-.25-8.31-1.26-12.31c-1.87-7.37-.68-14.84-1-22.26A15.84,15.84,0,0,1,274.67,226.4Z"/><path d="M324.47,149c1.91,1.58,1.89,3.55,2.39,5.44a30.14,30.14,0,0,1,.84,10.16,57.11,57.11,0,0,1-1.27,7.45,2.9,2.9,0,0,1-1.19,1.69,2.71,2.71,0,0,1-1.84,0c-.16,0-.26-.83-.17-1.23a16.36,16.36,0,0,1,1-3.7c2-3.93.8-8.06.8-12.08,0-1.85-1-3.76-1.87-5.52S324.53,150,324.47,149Z"/><path d="M356.07,213.3c-1.72.27-2.26-.65-2.76-1.6a13.67,13.67,0,0,1-1-2.16c-.55-1.76-1-3.55-1.51-5.32-.75-2.48-1.73-4.9-2.24-7.42a22.58,22.58,0,0,1-.13-5.87c0-.29,1.34-.5,2-.71.26.36.38.45.4.55.43,3,.68,6.1,1.33,9.07a45.59,45.59,0,0,1,1.43,6.42c.09,1.25,1.4,2.36,1.9,3.64A18.12,18.12,0,0,1,356.07,213.3Z"/><path d="M299.27,143.91c1.28,2.25.76,3-1.55,3.41a41,41,0,0,0-6,2.09,7.06,7.06,0,0,1-1.17.41c-.88.14-1.85-.14-2.37,1.08-.13.3-1.29.17-2.09.24v-2.36Z"/><path d="M282.13,209.81v-2.25c1.17-.7,2.14-1.26,3.09-1.84,2.46-1.51,4.88-3.08,7.39-4.5.48-.27,1.28,0,1.93.07-.13.62,0,1.53-.42,1.8-1.51,1.1-3.17,2-4.75,3s-3.14,2.16-4.78,3.12A9.63,9.63,0,0,1,282.13,209.81Z"/><path d="M330.29,131v2c-3.88,1.47-6.86,4.67-11,5.29l-.54-.6c.71-.9,1.24-2.09,2.15-2.63,2-1.17,4.12-2,6.18-3,1-.46,1.84-1.05,2.76-1.59Z"/><path d="M243.36,182.92c-1.65-1.2-3.76-1.81-4.57-4.06-.14-.4-.71-.62-1-1a10.27,10.27,0,0,1-1.18-1.67c-.06-.11.38-.7.58-.7a4,4,0,0,1,2.05.38,24.19,24.19,0,0,1,4.23,3.63c.59.7.43,2,.62,3.08Z"/><path d="M64.68,479.59c1.61-.89,2.9-1.5,4.08-2.27a61.52,61.52,0,0,0,5.07-3.56A17.74,17.74,0,0,0,76.35,471a36.25,36.25,0,0,0,2.52-3.42c.87-1.36,1.67-2.77,2.4-4.21,1.3-2.55,2.57-5.12,3.78-7.72.69-1.49,1.22-3,1.84-4.59,2.59,1.55,2.44,1.46,1,3.88-1.15,2-1.87,4.25-2.83,6.36a30,30,0,0,1-1.6,3.08c-1,1.68-2.41,3.21-3.07,5-1,2.73-3.1,4.5-5.09,6.22-2.17,1.87-4.86,3.14-7.33,4.67a3.73,3.73,0,0,1-.73.46c-.74.24-1.5.43-2.26.64Z"/><path d="M195.43,409.07c.24,1.7.68,2.86-.63,4.17a27.67,27.67,0,0,0-3.81,5.3c-.72,1.17-1,2.65-1.7,3.8-1.37,2.11-3,4.05-4.44,6.12-.68,1-1.13,2.1-1.79,3.08a21.67,21.67,0,0,1-1.91,2.17c-1.5-2.65,0-4.12,1-5.73.73-1.2,1.41-2.44,2.15-3.63,1-1.59,2.05-3.16,3.08-4.74s2.15-3.36,3.33-5C192.07,412.78,192.83,410.38,195.43,409.07Z"/><path d="M73.66,391.25c.51-2.59-.85-5.37,1.08-7.83.13-.16.1-.46.14-.69.49-2.41.91-4.84,1.5-7.22a11,11,0,0,1,1.29-2.34,35.66,35.66,0,0,1,2.39-4.12c.34-.45,1.38-.37,2.1-.53a5.47,5.47,0,0,1-.07,2c-1.24,2.83-3,5.36-3.46,8.6-.34,2.61-1.45,5.12-2.14,7.69a8,8,0,0,0-.21,2.49C76.39,391,75.59,391.63,73.66,391.25Z"/><path d="M40.46,519.4c-2.58,1.57-5.22.33-7.78,0-1.26-.14-2.39-1.31-3.63-1.91a7.32,7.32,0,0,0-1.87-.46c-2.07-.38-3.47-1.66-3-3,.24-.67,1.12-1.13,1.78-1.74.38.32.7.84,1,.85a4,4,0,0,1,2.66,1.27,12.19,12.19,0,0,0,9,2.84C40.69,517.15,40.71,517.33,40.46,519.4Z"/><path d="M176.78,378.69l1.71-.88c1.87,1.64,3.78,3.24,5.6,4.95s3.43,3.42,5.24,5.22c-2.26,1.28-3.15.95-5.1-1.13a41.6,41.6,0,0,0-5.53-5.34C177.62,380.72,176.29,380.51,176.78,378.69Z"/><path d="M174,214.48a79.12,79.12,0,0,1-.08,9.31c-.39,3.15-1.5,6.2-2.06,9.34-.34,1.93,0,4-.4,5.9a61.43,61.43,0,0,1-2.07,6.51c-.13.39-.15.81-.27,1.2-.53,1.83-1,3.68-1.67,5.44-.16.42-1.06.7-1.63.72-.22,0-.75-.89-.68-1.3a15.14,15.14,0,0,1,1-2.72c.06-.16.22-.29.26-.45.47-2,.62-4.13,1.47-6,1.39-3,.51-6.33,1.52-9.16,1.12-3.18.63-6.34,1.19-9.45a15.4,15.4,0,0,0,.52-2.05c0-1.17-.09-2.36-.15-3.54s-.52-2.43-.06-3.23C171.18,214.5,172.76,214.67,174,214.48Z"/><path d="M106.59,247.32c-1.53.33-2.63.86-3.82-.58-1-1.16-2.6-1.75-3.75-2.8a18.47,18.47,0,0,1-4.61-6.76,2.15,2.15,0,0,1,.62-1.92c.76-.54,1.3-.15,1.84.83a23,23,0,0,0,7.15,8C105,244.79,105.65,246.1,106.59,247.32Z"/><path d="M122,119.69l-.12,1.84c-4.42,1-13-2.49-13.72-5.69,1-.12,2-.82,2.72.59.06.12.28.2.44.24,2.17.54,4.35,1,6.51,1.62C119.1,118.65,120.39,119.16,122,119.69Z"/><path d="M119.17,224.64c-2.88-2.46-5.83-4.42-4.61-8.72l2.32.22c-.75,2.82,1.33,4.25,2.92,5.74,1.16,1.08,1.52,1.47-.25,2C119.36,223.88,119.29,224.35,119.17,224.64Z"/><path d="M81,318.28c-1.3,1.11-2.73.71-4.11.49-.12,0-.33-.87-.18-1,1.59-1.73,2.45-1.69,3.94.09Z"/><path d="M84,316.56c2.09-.07,2.35.21,2.15,2.23a3.27,3.27,0,0,1-.65.11c-.46,0-.92-.07-1.5-.12Z"/><path d="M90.32,317.22l1.25,1.08c-.34.23-.71.68-1,.64a5.62,5.62,0,0,1-1.52-.7Z"/><path d="M172.66,183c-.06,1.27.9,2.73-.9,3.34-.29.1-1.28-.81-1.35-1.34C170.23,183.7,170.74,182.67,172.66,183Z"/><path d="M171.38,192v4.75l-.46.25-1.57-3.25Z"/><path d="M169.93,199.63l2.7-.17V203l-.57.13C171.43,202.12,170.81,201.09,169.93,199.63Z"/><path d="M172,176.27c.07-1.05-2.35-.69-1.13-2.3.38-.5,1.16-.7,1.76-1,0,1.05.09,2.1.14,3.15Z"/></g></g></svg>