<svg xmlns="http://www.w3.org/2000/svg" viewBox="0 0 401.41 425.29"><defs><style>.cls-1{fill:#fff;}</style></defs><g id="Layer_2" data-name="Layer 2"><g id="Layer_1-2" data-name="Layer 1"><path class="cls-1" d="M52.44,106.23c-.66-3.19-1.27-6.15-1.89-9.12,0-.23-.14-.45-.21-.67q-1.16-3.39-2.29-6.8c-.29-.86-.54-1.75-.86-2.6C46.68,85.68,46,84.38,45.62,83c-.57-2.06-.93-4.17-1.38-6.26a1.85,1.85,0,0,0-.17-.5c-.71-1.58-1.53-3.12-2.13-4.74s-1-3.44-1.57-5.16c-.39-1.26-.79-2.51-1.27-3.74-.75-1.94-1.61-3.84-2.36-5.78-.58-1.51-1-3.1-1.6-4.57-1.13-2.5-2.24-5-2.19-7.8,0-1.68,0-3.36-.07-5a11.05,11.05,0,0,0-.19-3.22c-.65-1.94-1.61-3.78-2.4-5.68C29.67,29,26.55,26.9,25,26.7s-2.18.83-3.25,1.29a6.7,6.7,0,0,0-3.85,4.58c-.69,3.24-3.1,5.23-4.58,7.84a15.43,15.43,0,0,1-4.69,5c-1.2.81-.86,1.9-1.49,2.73-.81,1.09-1.85,2.37-1.9,3.61C5,57.57,4.14,63.39,6,69.21a43.34,43.34,0,0,0,2.73,7.28c1.38,2.58,2.62,5.23,3.95,7.83.27.52,1,.93,1,1.43A15.39,15.39,0,0,0,16.18,92a20,20,0,0,1,1.43,2.71c.54,1.38.87,2.84,1.4,4.22a24.69,24.69,0,0,0,1.62,3.5c1.11,1.92,2.34,3.78,3.49,5.68.73,1.23,1.4,2.49,2.09,3.74,1,1.77,2,3.5,2.84,5.32a2.38,2.38,0,0,1-.3,1.86c-1.43,2.49-3.16,4.82-4.41,7.39a31.64,31.64,0,0,0-2.52,7.25,83.84,83.84,0,0,0-1.23,8.84c-.45,4.44.6,9,1.12,13.56.1.84.79,1.59,1,2.44.55,2,.86,4.06,1.53,6a24.27,24.27,0,0,0,2,3.13,19.23,19.23,0,0,1,1.49,3.27c.6,1.87,1.05,3.79,1.57,5.68a1.56,1.56,0,0,0,.32.61c1.15,1.4,1.06,2.59-.26,4-.58.6-1,1.34-1.6,1.94a14.55,14.55,0,0,0-2.88,4.3c-.79,1.74-2.12,3.2-2,5.31a15.54,15.54,0,0,1-.3,4.63c-.46,1.71-1.55,3.23-2.12,4.92-.69,2-1.12,4.17-1.67,6.25-.06.22-.31.41-.33.62a41.45,41.45,0,0,0-.42,5.76A18.13,18.13,0,0,0,19,219c.4,1.42.83,2.82,1.28,4.23A41.41,41.41,0,0,0,21.86,228a22.56,22.56,0,0,1,2.32,6.57,25.15,25.15,0,0,0,1.33,5.75c1,2.59,2.27,5.07,3.43,7.59,1,2.11,1.9,4.22,2.88,6.32.45.94.93,1.88,1.46,2.78,1.11,1.87,2.37,3.66,3.36,5.6s1.7,4.09,2.6,6.12c1.22,2.73,2.52,5.42,3.76,8.14.57,1.27,1,2.64,1.64,3.84,1.24,2.2,2.33,4.4,2.26,7a5.28,5.28,0,0,0,.19,1.42c.73,2.74,2.06,5.48,2.08,8.22,0,4.12,1.22,8.35-.86,12.43a12.81,12.81,0,0,0-1.25,5.8c0,2.32-1.11,4.07-1.88,6-2.68.55-2.7-2.13-3.1-3.21a62.45,62.45,0,0,0-4.28-9,4.51,4.51,0,0,0-2.6-1.63c-2.33-.63-4.33.71-6.37,1.52A8.93,8.93,0,0,0,26.54,311a19.46,19.46,0,0,0-5.31,7.42,18.17,18.17,0,0,1-1.38,2.71c-1,1.67-2.25,3.24-2.16,5.35a2,2,0,0,1-.17.88,38.39,38.39,0,0,0-2.2,4.81c-1,3.24-1.71,6.55-2.53,9.83-.55,2.18-1,4.38-1.65,6.54a22,22,0,0,1-1.44,3.31,63.44,63.44,0,0,0-3.24,6.7,53.58,53.58,0,0,0-1.4,7.07,4,4,0,0,1-.33,1.2,13.38,13.38,0,0,0-2.19,6.53,2.67,2.67,0,0,1-.14,1.06A22.69,22.69,0,0,0,0,385.8c0,.53,0,1.21.32,1.54,1.59,1.76,3.09,3.6,5.74,3.93a18.8,18.8,0,0,1,4.11,1.34c.36.13.84.48.88.78.39,2.71,2.44,4,4.51,5.1a3.13,3.13,0,0,0,2.94-.39,14.36,14.36,0,0,0,2.91-6.18c.44-1.87.9-3.75,1.5-5.58.69-2.1,1.5-4.17,2.34-6.21s1.77-4.31,2.84-6.37c.44-.86,1.68-1.33,2-2.19,1.19-3,3.89-4.61,6.05-7.35.28,1.15.41,1.83.6,2.48a49.63,49.63,0,0,0,1.5,4.81c1,2.49,2.27,4.9,3.38,7.36a17,17,0,0,1,1.23,3.34,18.06,18.06,0,0,0,3.63,7.51,37.06,37.06,0,0,1,2.74,3.95c1.1,1.92,1.69,4.26,3.13,5.86,2.36,2.62,4.56,5.37,8,7.12,2.78,1.43,5.48,3.18,8.27,4.69.69.38,1.3.9,2,1.22,1.27.56,2.62.94,3.87,1.54A18.56,18.56,0,0,0,83,416.41a35.25,35.25,0,0,0,6.27-.28,19.37,19.37,0,0,0,5.64-2.21,12.78,12.78,0,0,0,3.68-3.23,16.17,16.17,0,0,0,1.7-3.8,26.91,26.91,0,0,1,1.15-2.77,17.31,17.31,0,0,0,2.44-9,3.93,3.93,0,0,1,.23-1.21,16.79,16.79,0,0,0,.93-3.12c.16-2.27,0-4.57.15-6.83.34-4.78.8-9.55,1.24-14.32a1.89,1.89,0,0,1,.3-.69,30.64,30.64,0,0,1,3,1c1.6.69,3.08,1.84,4.73,2.15,2.13.4,3.29,1.7,4.49,3.21a11.1,11.1,0,0,0,2.1,2,42,42,0,0,1,4.09,2.78c2.19,2,4.14,4.3,6.25,6.39,3.57,3.55,7.12,7.14,10.85,10.51a29.21,29.21,0,0,0,5.21,3.2,23,23,0,0,1,3,1.44,19.13,19.13,0,0,0,7.65,3.54,8.88,8.88,0,0,1,1,.22c2,.75,3.85,2,5.84,2.19,3.93.3,8,.59,11.81-.28,3.34-.77,6.61-.51,9.87-.94,3.58-.48,6.74,1.29,10.16,1.49a2.21,2.21,0,0,1,.35.08c2.75.77,5.5,1.56,8.26,2.3a53.32,53.32,0,0,1,5.54,1.36c3,1.13,5.83,2.53,8.74,3.81,1.3.58,2.63,1.11,3.93,1.7a27.31,27.31,0,0,0,3.81,1.77c2.41.68,4.89,1.09,7.35,1.61.11,0,.24,0,.35.08,2.2.75,4.36,1.64,6.61,2.23,2.58.67,5.23,1.08,7.84,1.6a2.61,2.61,0,0,1,.86.25c3.27,2.14,5.82-1.24,8.85-1.18a8.33,8.33,0,0,0,2.84-1c1.65-.66,3.26-1.41,4.93-2,1.84-.64,3.79-1,5.57-1.75,2.16-.93,4.19-2.16,6.28-3.26,1.69-.89,3.4-1.74,5.07-2.67.56-.31,1-.87,1.51-1.24a28.08,28.08,0,0,1,5.15-2.95c1.65-.7,3-2,5-2.34a9.74,9.74,0,0,0,2.8-1.3c2-1.13,3.83-2.41,5.82-3.48,2.63-1.42,5.35-2.68,8-4,.53-.28.95-.78,1.48-1.06,1.16-.61,2.42-1,3.53-1.72,1.64-1,3.17-2.25,4.77-3.36s3.29-2.32,5-3.36a27.63,27.63,0,0,0,4.93-4.09c1.69-1.64,3.93-2.7,5.71-4.27,3.27-2.86,6.34-5.94,9.56-8.86a4.13,4.13,0,0,1,2.13-1c2.47-.32,5,.41,7.4-1,2-1.17,4.23-1.79,6.2-2.92a37.36,37.36,0,0,0,4.89-3.64c1.86-1.53,3.62-3.19,5.45-4.76a18,18,0,0,1,3.34-2.67,21.08,21.08,0,0,0,6.76-5.9c1.15-1.43,2.28-2.86,3.46-4.27,2.49-3,5.21-5.81,6.81-9.45.47-1.07.95-2.15,1.48-3.2.95-1.89,2.32-3.62,2.16-5.93a4.24,4.24,0,0,1,.14-1.42c.74-2.61,1.66-5.16,2.22-7.8s.3-5.58,1.15-8.48c1.59-5.5-.59-11.13-1.13-16.71a1.09,1.09,0,0,0,0-.17c-.78-2.9-1.53-5.81-2.34-8.71a20.38,20.38,0,0,0-1-2.75c-.59-1.33-1.87-2.39-1.59-4.07a1,1,0,0,0-.07-.53c-1.27-2.59-2.53-5.2-3.84-7.77-.24-.48-.74-.81-1-1.28a23.09,23.09,0,0,0-2.08-3.64,78.94,78.94,0,0,0-6.09-6.18,14.43,14.43,0,0,0-4.25-2.91,49,49,0,0,0-8.64-2.48c-3.36-.62-6.59-2.07-10.14-1.59a21.1,21.1,0,0,1-4.13,0c-3.15-.21-5.58,1.32-7.86,3.17-.93.76-1.72.87-2.35-.15-1-1.59-1.63-3.45-2.82-4.86s-1.07-3-1.15-4.61c0-.69.29-2,.63-2,2.36-.45,1.93-2.85,3.07-4.13a58.5,58.5,0,0,0,3.58-5c.95-1.3,2-2.55,2.9-3.86,1.15-1.64,2.18-3.36,3.38-5,.89-1.2,2-2.22,2.95-3.4a41.39,41.39,0,0,0,3-4.32,13.44,13.44,0,0,0,2.06-4.52c.3-2,.56-4.15-1.17-6-1.21-1.28-1.66-3.37-3-4.44a12.4,12.4,0,0,0-8.22-2.63c-1.91,0-3.83,0-5.75-.05a5,5,0,0,1-1.93-.33c-4.36-2.08-8.53-1.27-12.65.71l-2.41,1.15c-.42-1.08-.65-1.74-.92-2.38-.61-1.43-1.6-2.79-1.8-4.27a52.18,52.18,0,0,0-2.47-9.69c-.82-2.43-1.53-4.88-2.58-7.24s-1.83-5.16-2.81-7.72c-.44-1.16-1.11-2.24-1.65-3.37-.7-1.44-1.41-2.89-2-4.37-.55-1.31-.93-2.69-1.49-4-.7-1.6-1.54-3.13-2.24-4.73a9.72,9.72,0,0,1-1.22-3.42,10.11,10.11,0,0,0-2.38-5.9,14.39,14.39,0,0,1-1.37-2.3c-1.22-2.48-2.36-5-3.59-7.47-.41-.81-1-1.51-1.51-2.29a57.6,57.6,0,0,0-3.2-5.37c-2.26-3-4.69-5.85-7.15-8.67-1.38-1.58-3-2.94-4.44-4.45s-2.81-3-4.15-4.6c-1.89-2.19-3.62-4.53-5.61-6.62s-4.14-3.54-5.88-5.58A23.15,23.15,0,0,0,262.47,90c-1.42-.87-2.29-2.69-1.59-3.72,1.54-2.24,3.16-4.43,4.68-6.69,2.32-3.46,4.26-7.25,7-10.36,2-2.24,1.73-5.06,3.17-7.3a4.61,4.61,0,0,1,1.08-1.08,37,37,0,0,0,4.22-3.3c1-1.07,1.42-2.73,2.45-3.77a5,5,0,0,0,1.26-3.89c0-2.94.21-5.9-.05-8.81a50,50,0,0,0-1.54-7.39A25,25,0,0,0,281.88,30c-.72-1.7-1.52-3.37-2.31-5a22.06,22.06,0,0,0-1.6-3.14,29.6,29.6,0,0,0-6.23-6.7c-.66-.52-1-1.44-1.62-2-1.44-1.35-3-2.63-4.49-3.89-1.09-.91-2.2-1.81-3.38-2.61-1.59-1.09-3-2.42-5-2.88-1.73-.39-3.26-1.78-5-2-3.3-.52-6.64-.52-10-1.21a21.19,21.19,0,0,0-15.09,2.38,19.37,19.37,0,0,0-2.8,1.43c-1.47,1.2-2.93,2.27-4.91,2.33-.18,0-.38.21-.54.37-1.11,1.07-2.31,2.09-3.32,3.26-2.27,2.66-4.54,5.34-6.65,8.12-1.51,2-2.71,4.23-4.15,6.29s-3,3.6-3.94,5.93c-.81,2.07-2.36,3.85-3.5,5.8-.81,1.39-1.53,2.84-2.22,4.3a60.73,60.73,0,0,0-2.71,6.13c-.7,2.08-1,4.28-1.56,6.51h-2c-6.83,0-13.67-.12-20.5-.13a15.74,15.74,0,0,0-4.82.34,60.23,60.23,0,0,0-8.73,3.59,33.67,33.67,0,0,0-6.56,4.32,74.83,74.83,0,0,0-5.78,6c-1,1.08-2,2.17-3,3.29-1.23,1.4-2.43,2.84-3.66,4.24-1,1.11-2,2.22-3,3.27s-2.05,2-3.13,2.94q-2.66,2.3-5.39,4.52c-1.35,1.1-2.74,2.16-4.13,3.19a20.55,20.55,0,0,0-2.39,1.64c-1.23,1.24-2.24,2.71-3.5,3.93-2.52,2.41-5.2,4.67-7.69,7.12-.56.55-.92,1.44-1.71.84a4.65,4.65,0,0,1-1-2c-.17-.43-.07-1-.28-1.37-1.18-2.24-2.41-4.46-3.64-6.67a38.12,38.12,0,0,0-2.69-4.7,74.11,74.11,0,0,0-5.11-5.82c-1.43-1.51-3-2.92-4.5-4.31-.84-.75-1.93-1.23-2.68-2-2-2.2-3.94-4.49-5.84-6.79S75.27,64,73.39,61.64a11.69,11.69,0,0,1-1.22-1.53c-.68-1.21-1.25-2.48-1.89-3.7-1.46-2.82-3-5.59-4.39-8.44-.67-1.4-.94-3-1.55-4.42S62.86,40.49,62.05,39a50.73,50.73,0,0,0-3.28-5.63c-1.22-1.69-3-3-4.14-4.73a12.51,12.51,0,0,0-3.15-3.57c-.9-.65-2.29-1.06-2.3-2.64,0-.24-.81-.67-1.26-.68-2-.08-4.07,0-6.1-.05a2.47,2.47,0,0,0-2.39,2.1c-.6,2.64-1.38,5.12-.52,8.14.91,3.23.63,6.85,1.59,10.23.62,2.21.88,4.51,1.45,6.74a21.92,21.92,0,0,0,1.36,3.17A34.93,34.93,0,0,1,45.42,57c.72,2.7,2,5.31,1.58,8.25,0,.18.19.4.29.59a22.32,22.32,0,0,1,1.94,3.59,30.75,30.75,0,0,1,1.12,5.31c.38,2.75.78,5.48,1.33,8.22.9,4.41,0,9.1,1.38,13.56a34.92,34.92,0,0,1,.55,4.26c.21,1.2.71,2.37.81,3.57C54.6,106.5,54.4,106.6,52.44,106.23Z"/><path d="M52.44,106.23c2,.37,2.16.27,2-1.86-.1-1.2-.6-2.37-.81-3.57a34.92,34.92,0,0,0-.55-4.26c-1.35-4.46-.48-9.15-1.38-13.56-.55-2.74-1-5.47-1.33-8.22a30.75,30.75,0,0,0-1.12-5.31,22.32,22.32,0,0,0-1.94-3.59c-.1-.19-.32-.41-.29-.59.46-2.94-.86-5.55-1.58-8.25a34.93,34.93,0,0,0-2.11-4.94A21.92,21.92,0,0,1,42,48.91c-.57-2.23-.83-4.53-1.45-6.74-1-3.38-.68-7-1.59-10.23-.86-3-.08-5.5.52-8.14a2.47,2.47,0,0,1,2.39-2.1c2,0,4.07,0,6.1.05.45,0,1.26.44,1.26.68,0,1.58,1.4,2,2.3,2.64a12.51,12.51,0,0,1,3.15,3.57c1.14,1.73,2.92,3,4.14,4.73A50.73,50.73,0,0,1,62.05,39c.81,1.49,1.62,3,2.29,4.55s.88,3,1.55,4.42c1.38,2.85,2.93,5.62,4.39,8.44.64,1.22,1.21,2.49,1.89,3.7a11.69,11.69,0,0,0,1.22,1.53c1.88,2.35,3.74,4.73,5.66,7.06s3.82,4.59,5.84,6.79c.75.81,1.84,1.29,2.68,2,1.54,1.39,3.07,2.8,4.5,4.31a74.11,74.11,0,0,1,5.11,5.82,38.12,38.12,0,0,1,2.69,4.7c1.23,2.21,2.46,4.43,3.64,6.67.21.39.11.94.28,1.37a4.65,4.65,0,0,0,1,2c.79.6,1.15-.29,1.71-.84,2.49-2.45,5.17-4.71,7.69-7.12,1.26-1.22,2.27-2.69,3.5-3.93a20.55,20.55,0,0,1,2.39-1.64c1.39-1,2.78-2.09,4.13-3.19q2.73-2.22,5.39-4.52c1.08-.94,2.13-1.92,3.13-2.94s2-2.16,3-3.27c1.23-1.4,2.43-2.84,3.66-4.24,1-1.12,2-2.21,3-3.29a74.83,74.83,0,0,1,5.78-6,33.67,33.67,0,0,1,6.56-4.32,60.23,60.23,0,0,1,8.73-3.59,15.74,15.74,0,0,1,4.82-.34c6.83,0,13.67.08,20.5.13h2c.52-2.23.86-4.43,1.56-6.51a60.73,60.73,0,0,1,2.71-6.13c.69-1.46,1.41-2.91,2.22-4.3,1.14-2,2.69-3.73,3.5-5.8.91-2.33,2.59-4,3.94-5.93s2.64-4.29,4.15-6.29c2.11-2.78,4.38-5.46,6.65-8.12,1-1.17,2.21-2.19,3.32-3.26.16-.16.36-.37.54-.37,2-.06,3.44-1.13,4.91-2.33a19.37,19.37,0,0,1,2.8-1.43A21.19,21.19,0,0,1,242.24.47c3.35.69,6.69.69,10,1.21,1.72.27,3.25,1.66,5,2.05,2.05.46,3.45,1.79,5,2.88,1.18.8,2.29,1.7,3.38,2.61,1.53,1.26,3.05,2.54,4.49,3.89.63.58,1,1.5,1.62,2a29.6,29.6,0,0,1,6.23,6.7,22.06,22.06,0,0,1,1.6,3.14c.79,1.67,1.59,3.34,2.31,5a25,25,0,0,1,1.26,3.71,50,50,0,0,1,1.54,7.39c.26,2.91.07,5.87.05,8.81a5,5,0,0,1-1.26,3.89c-1,1-1.43,2.7-2.45,3.77a37,37,0,0,1-4.22,3.3A4.61,4.61,0,0,0,275.72,62c-1.44,2.24-1.2,5.06-3.17,7.3-2.73,3.11-4.67,6.9-7,10.36-1.52,2.26-3.14,4.45-4.68,6.69-.7,1,.17,2.85,1.59,3.72a23.15,23.15,0,0,1,5.85,4.66c1.74,2,4,3.61,5.88,5.58s3.72,4.43,5.61,6.62c1.34,1.57,2.72,3.11,4.15,4.6s3.06,2.87,4.44,4.45c2.46,2.82,4.89,5.69,7.15,8.67a57.6,57.6,0,0,1,3.2,5.37c.47.78,1.1,1.48,1.51,2.29,1.23,2.47,2.37,5,3.59,7.47a14.39,14.39,0,0,0,1.37,2.3,10.11,10.11,0,0,1,2.38,5.9,9.72,9.72,0,0,0,1.22,3.42c.7,1.6,1.54,3.13,2.24,4.73.56,1.31.94,2.69,1.49,4,.63,1.48,1.34,2.93,2,4.37.54,1.13,1.21,2.21,1.65,3.37,1,2.56,1.69,5.23,2.81,7.72s1.76,4.81,2.58,7.24a52.18,52.18,0,0,1,2.47,9.69c.2,1.48,1.19,2.84,1.8,4.27.27.64.5,1.3.92,2.38l2.41-1.15c4.12-2,8.29-2.79,12.65-.71a5,5,0,0,0,1.93.33c1.92.05,3.84.08,5.75.05a12.4,12.4,0,0,1,8.22,2.63c1.31,1.07,1.76,3.16,3,4.44,1.73,1.84,1.47,4,1.17,6a13.44,13.44,0,0,1-2.06,4.52,41.39,41.39,0,0,1-3,4.32c-.92,1.18-2.06,2.2-2.95,3.4-1.2,1.6-2.23,3.32-3.38,5-.93,1.31-1.95,2.56-2.9,3.86a58.5,58.5,0,0,1-3.58,5c-1.14,1.28-.71,3.68-3.07,4.13-.34.07-.67,1.34-.63,2,.08,1.58-.08,3.16,1.15,4.61s1.83,3.27,2.82,4.86c.63,1,1.42.91,2.35.15,2.28-1.85,4.71-3.38,7.86-3.17a21.1,21.1,0,0,0,4.13,0c3.55-.48,6.78,1,10.14,1.59a49,49,0,0,1,8.64,2.48,14.43,14.43,0,0,1,4.25,2.91,78.94,78.94,0,0,1,6.09,6.18,23.09,23.09,0,0,1,2.08,3.64c.28.47.78.8,1,1.28,1.31,2.57,2.57,5.18,3.84,7.77a1,1,0,0,1,.07.53c-.28,1.68,1,2.74,1.59,4.07a20.38,20.38,0,0,1,1,2.75c.81,2.9,1.56,5.81,2.34,8.71a1.09,1.09,0,0,1,0,.17c.54,5.58,2.72,11.21,1.13,16.71-.85,2.9-.56,5.7-1.15,8.48s-1.48,5.19-2.22,7.8a4.24,4.24,0,0,0-.14,1.42c.16,2.31-1.21,4-2.16,5.93-.53,1.05-1,2.13-1.48,3.2-1.6,3.64-4.32,6.46-6.81,9.45-1.18,1.41-2.31,2.84-3.46,4.27a21.08,21.08,0,0,1-6.76,5.9,18,18,0,0,0-3.34,2.67c-1.83,1.57-3.59,3.23-5.45,4.76A37.36,37.36,0,0,1,363,365.7c-2,1.13-4.25,1.75-6.2,2.92-2.39,1.45-4.93.72-7.4,1a4.13,4.13,0,0,0-2.13,1c-3.22,2.92-6.29,6-9.56,8.86-1.78,1.57-4,2.63-5.71,4.27a27.63,27.63,0,0,1-4.93,4.09c-1.72,1-3.36,2.22-5,3.36s-3.13,2.32-4.77,3.36c-1.11.69-2.37,1.11-3.53,1.72-.53.28-.95.78-1.48,1.06-2.67,1.36-5.39,2.62-8,4-2,1.07-3.86,2.35-5.82,3.48a9.74,9.74,0,0,1-2.8,1.3c-1.91.35-3.31,1.64-5,2.34a28.08,28.08,0,0,0-5.15,2.95c-.54.37-.95.93-1.51,1.24-1.67.93-3.38,1.78-5.07,2.67-2.09,1.1-4.12,2.33-6.28,3.26-1.78.77-3.73,1.11-5.57,1.75-1.67.59-3.28,1.34-4.93,2a8.33,8.33,0,0,1-2.84,1c-3-.06-5.58,3.32-8.85,1.18a2.61,2.61,0,0,0-.86-.25c-2.61-.52-5.26-.93-7.84-1.6-2.25-.59-4.41-1.48-6.61-2.23-.11,0-.24-.05-.35-.08-2.46-.52-4.94-.93-7.35-1.61a27.31,27.31,0,0,1-3.81-1.77c-1.3-.59-2.63-1.12-3.93-1.7-2.91-1.28-5.77-2.68-8.74-3.81a53.32,53.32,0,0,0-5.54-1.36c-2.76-.74-5.51-1.53-8.26-2.3a2.21,2.21,0,0,0-.35-.08c-3.42-.2-6.58-2-10.16-1.49-3.26.43-6.53.17-9.87.94-3.77.87-7.88.58-11.81.28-2-.15-3.89-1.44-5.84-2.19a8.88,8.88,0,0,0-1-.22,19.13,19.13,0,0,1-7.65-3.54,23,23,0,0,0-3-1.44,29.21,29.21,0,0,1-5.21-3.2c-3.73-3.37-7.28-7-10.85-10.51-2.11-2.09-4.06-4.37-6.25-6.39a42,42,0,0,0-4.09-2.78,11.1,11.1,0,0,1-2.1-2c-1.2-1.51-2.36-2.81-4.49-3.21-1.65-.31-3.13-1.46-4.73-2.15a30.64,30.64,0,0,0-3-1,1.89,1.89,0,0,0-.3.69c-.44,4.77-.9,9.54-1.24,14.32-.17,2.26,0,4.56-.15,6.83a16.79,16.79,0,0,1-.93,3.12,3.93,3.93,0,0,0-.23,1.21,17.31,17.31,0,0,1-2.44,9,26.91,26.91,0,0,0-1.15,2.77,16.17,16.17,0,0,1-1.7,3.8,12.78,12.78,0,0,1-3.68,3.23,19.37,19.37,0,0,1-5.64,2.21,35.25,35.25,0,0,1-6.27.28,18.56,18.56,0,0,1-8.44-2.31c-1.25-.6-2.6-1-3.87-1.54-.71-.32-1.32-.84-2-1.22-2.79-1.51-5.49-3.26-8.27-4.69-3.39-1.75-5.59-4.5-8-7.12-1.44-1.6-2-3.94-3.13-5.86a37.06,37.06,0,0,0-2.74-3.95,18.06,18.06,0,0,1-3.63-7.51,17,17,0,0,0-1.23-3.34c-1.11-2.46-2.34-4.87-3.38-7.36a49.63,49.63,0,0,1-1.5-4.81c-.19-.65-.32-1.33-.6-2.48-2.16,2.74-4.86,4.34-6.05,7.35-.34.86-1.58,1.33-2,2.19-1.07,2.06-2,4.22-2.84,6.37s-1.65,4.11-2.34,6.21c-.6,1.83-1.06,3.71-1.5,5.58a14.36,14.36,0,0,1-2.91,6.18,3.13,3.13,0,0,1-2.94.39c-2.07-1.08-4.12-2.39-4.51-5.1,0-.3-.52-.65-.88-.78a18.8,18.8,0,0,0-4.11-1.34C3.45,390.94,2,389.1.36,387.34c-.3-.33-.28-1-.32-1.54A22.69,22.69,0,0,1,2.4,374.38a2.67,2.67,0,0,0,.14-1.06,13.38,13.38,0,0,1,2.19-6.53,4,4,0,0,0,.33-1.2,53.58,53.58,0,0,1,1.4-7.07,63.44,63.44,0,0,1,3.24-6.7,22,22,0,0,0,1.44-3.31c.63-2.16,1.1-4.36,1.65-6.54.82-3.28,1.55-6.59,2.53-9.83a38.39,38.39,0,0,1,2.2-4.81,2,2,0,0,0,.17-.88c-.09-2.11,1.13-3.68,2.16-5.35a18.17,18.17,0,0,0,1.38-2.71A19.46,19.46,0,0,1,26.54,311a8.93,8.93,0,0,1,2.29-1.72c2-.81,4-2.15,6.37-1.52a4.51,4.51,0,0,1,2.6,1.63,62.45,62.45,0,0,1,4.28,9c.4,1.08.42,3.76,3.1,3.21.77-1.93,1.9-3.68,1.88-6a12.81,12.81,0,0,1,1.25-5.8c2.08-4.08.89-8.31.86-12.43,0-2.74-1.35-5.48-2.08-8.22a5.28,5.28,0,0,1-.19-1.42c.07-2.6-1-4.8-2.26-7-.68-1.2-1.07-2.57-1.64-3.84-1.24-2.72-2.54-5.41-3.76-8.14-.9-2-1.6-4.15-2.6-6.12s-2.25-3.73-3.36-5.6c-.53-.9-1-1.84-1.46-2.78-1-2.1-1.92-4.21-2.88-6.32-1.16-2.52-2.46-5-3.43-7.59a25.15,25.15,0,0,1-1.33-5.75A22.56,22.56,0,0,0,21.86,228a41.41,41.41,0,0,1-1.56-4.68c-.45-1.41-.88-2.81-1.28-4.23a18.13,18.13,0,0,1-1-4.15,41.45,41.45,0,0,1,.42-5.76c0-.21.27-.4.33-.62.55-2.08,1-4.21,1.67-6.25.57-1.69,1.66-3.21,2.12-4.92a15.54,15.54,0,0,0,.3-4.63c-.08-2.11,1.25-3.57,2-5.31a14.55,14.55,0,0,1,2.88-4.3c.58-.6,1-1.34,1.6-1.94,1.32-1.38,1.41-2.57.26-4a1.56,1.56,0,0,1-.32-.61c-.52-1.89-1-3.81-1.57-5.68a19.23,19.23,0,0,0-1.49-3.27,24.27,24.27,0,0,1-2-3.13c-.67-1.95-1-4-1.53-6-.24-.85-.93-1.6-1-2.44-.52-4.52-1.57-9.12-1.12-13.56a83.84,83.84,0,0,1,1.23-8.84,31.64,31.64,0,0,1,2.52-7.25c1.25-2.57,3-4.9,4.41-7.39a2.38,2.38,0,0,0,.3-1.86c-.84-1.82-1.87-3.55-2.84-5.32-.69-1.25-1.36-2.51-2.09-3.74-1.15-1.9-2.38-3.76-3.49-5.68A24.69,24.69,0,0,1,19,98.91c-.53-1.38-.86-2.84-1.4-4.22A20,20,0,0,0,16.18,92a15.39,15.39,0,0,1-2.45-6.23c-.05-.5-.76-.91-1-1.43-1.33-2.6-2.57-5.25-3.95-7.83A43.34,43.34,0,0,1,6,69.21c-1.88-5.82-1-11.64-.75-17.47.05-1.24,1.09-2.52,1.9-3.61.63-.83.29-1.92,1.49-2.73a15.43,15.43,0,0,0,4.69-5c1.48-2.61,3.89-4.6,4.58-7.84A6.7,6.7,0,0,1,21.78,28c1.07-.46,1.84-1.46,3.25-1.29s4.64,2.33,5.26,3.81c.79,1.9,1.75,3.74,2.4,5.68a11.05,11.05,0,0,1,.19,3.22c0,1.67.1,3.35.07,5-.05,2.83,1.06,5.3,2.19,7.8.65,1.47,1,3.06,1.6,4.57.75,1.94,1.61,3.84,2.36,5.78.48,1.23.88,2.48,1.27,3.74.54,1.72.94,3.48,1.57,5.16s1.42,3.16,2.13,4.74a1.85,1.85,0,0,1,.17.5c.45,2.09.81,4.2,1.38,6.26.38,1.39,1.06,2.69,1.57,4.05.32.85.57,1.74.86,2.6q1.14,3.4,2.29,6.8c.07.22.16.44.21.67C51.17,100.08,51.78,103,52.44,106.23Zm156,39.28c.66,2.19,1.17,3.94,1.73,5.68a3.92,3.92,0,0,0,.62.92c.17-.13.44-.23.5-.41.9-2.46,1.77-4.93,2.65-7.4.09-.28.19-.55.29-.83.33-.88,1-1.79.93-2.64-.33-3.7-.88-7.38-1.35-11.07a2,2,0,0,0-.08-.35c-.77-1.94-1.7-3.84-2.27-5.84-.65-2.29-1-4.68-1.43-7a8.72,8.72,0,0,0-.16-.89c-.8-2.57-1.62-5.14-2.42-7.71-.11-.34-.13-.71-.25-1-.72-2.15-1.48-4.28-2.19-6.43-.53-1.63-.93-3.31-1.54-4.9s-1.49-3.23-2.17-4.86c-1-2.32-1.76-4.71-2.81-7S196,79.24,195,76.9a39.32,39.32,0,0,1-2.5-7.4c-.72-3.44-1-7-1.45-10.48A6.34,6.34,0,0,1,191,58c0-1.53-.68-2.12-2.2-2.1-2.87,0-5.76.06-8.63-.1-1.85-.11-3.67-.76-5.52-.84-2-.08-4,.62-6.11,0-.81-.24-1.92.57-2.91.84-2,.54-4,1-5.91,1.57a13.22,13.22,0,0,0-3.5,1.54,51.9,51.9,0,0,0-6,4.56c-2.49,2.28-4.81,4.74-7.14,7.19-1.66,1.76-3.17,3.66-4.81,5.44-.87.94-1.89,1.74-2.79,2.65-1.23,1.23-2.39,2.54-3.65,3.74s-2.58,2.25-3.85,3.39c-1.49,1.34-2.74,3.14-4.46,4-3,1.44-4.87,3.87-7.13,6-1.56,1.47-3.22,2.82-4.76,4.32-1.81,1.76-3.52,3.62-5.28,5.44-2.28,2.34-4.23,5.2-6.91,6.9s-4.84,4-7.15,6.14c-2.86,2.61-5.5,5.47-8.35,8.09-2.55,2.34-2.23,4.46-.55,6.09,2.43,2.37,4.69,4.9,7,7.41,3.49,3.82,6.93,7.68,10.38,11.53.41.45.75,1,1.13,1.46,1.49,1.85,3.06,3.63,4.44,5.55a47,47,0,0,1,2.85,4.47c1.49,2.64,4,4.64,5.86,7.13,2.39,3.31,4.51,6.83,6.72,10.28,1.94,3,4.08,5.94,5,9.52a19.54,19.54,0,0,0,1.56,3.27c.67,1.39,1.4,2.76,2,4.19s.73,3.3,1.67,4.5c1.42,1.82.74,4.08,1.9,6,.84,1.39.37,3.39,1.32,5.15s1,4.24,1.29,6.42c.57,4.21,1,8.44,1.53,12.66,0,.18,0,.36.09.53.75,3.06,1.59,6.09,2.23,9.17.39,1.91,0,3.85,1.1,5.78s.85,2.26,2.44.45a18.84,18.84,0,0,0,1.45-2.08c1.46-2.2,2.59-4.74,4.45-6.53,2.94-2.85,4.9-6.33,7-9.69,1.53-2.42,2.48-5.22,3.77-7.81a49.47,49.47,0,0,1,2.82-5c1.47-2.24,3.1-4.39,4.63-6.6a22.84,22.84,0,0,0,2.54-4,4.55,4.55,0,0,0-.79-4.66c-1.35-1.92-1.74-4.48-2.94-6.54-1.09-1.88-2.32-3.61-2.42-5.87a2,2,0,0,0-.35-.77c-.65-1.26-1.68-2.45-1.9-3.78-.43-2.61-2.07-4.48-3.3-6.61s-2.22-4-3.26-6.05c-.57-1.11-.79-2.47-1.55-3.4-1.53-1.88-3.17-3.52-3.87-6-.59-2.09-2.15-3.91-3.27-5.85a21.72,21.72,0,0,1-1.38-2.5c-.59-1.4-.95-2.91-1.61-4.28-1-2.16-2.29-4.21-2.3-6.72,0-.28-.23-.55-.3-.84-.66-2.44-1.66-4.86-1.84-7.33-.16-2.29.6-4.63.88-6.95a32.27,32.27,0,0,1,.42-4.43c.6-2.17,1.53-4.25,2.33-6.36a6.43,6.43,0,0,1,.42-.77c.64-1.16,1.33-2.3,1.92-3.49.88-1.79,1.62-3.65,2.61-5.37.21-.37,1.26-.33,1.92-.32a1.46,1.46,0,0,1,.36,1.14c-1.19,2.79-2.46,5.54-3.69,8.32-.49,1.1-.88,2.24-1.42,3.32-1.09,2.2-2.25,4.37-2.29,6.93,0,1.42.19,3-.39,4.22s-.71,2.16,0,3a8.19,8.19,0,0,0-.34,2.09c.1.84.49,1.63.67,2.46a18.54,18.54,0,0,0,.37,2.29c.65,1.75,1.48,3.44,2.14,5.19,1,2.53,1.79,5.11,2.78,7.63a20.65,20.65,0,0,0,1.59,2.77c.68,1.14,1.41,2.25,2.06,3.4.75,1.34,1.39,2.76,2.17,4.08,1,1.65,2.13,3.21,3.06,4.88s1.69,3.53,2.63,5.25c1.15,2.12,2.45,4.16,3.62,6.27.65,1.17,1.19,2.4,1.75,3.61.65,1.41,1.65,2.78,1.82,4.25.3,2.74,2,4.76,3.05,7.12.95,2.21,2.27,4.26,3.33,6.42.58,1.17.92,2.46,1.47,3.64a22.1,22.1,0,0,0,1.66,3c1.44,2.09,3,4.08,4.4,6.21,1.53,2.33,2.84,4.82,4.37,7.15,2,3,4,5.88,6.1,8.79a46.94,46.94,0,0,0,4.05,5.5c3,3.15,6.2,6.08,9.3,9.12a47.08,47.08,0,0,1,4,4.13,42.08,42.08,0,0,1,2.88,4.51c.86,1.44,1.61,2.95,2.51,4.36,1.07,1.67,2.23,3.29,3.38,4.92.44.63,1,1.2,1.43,1.83.7,1,1.3,2.09,2,3.05,1.84,2.39,3.7,4.76,5.63,7.07,1.56,1.87,3.17,3.71,4.88,5.45,1.2,1.21,2.69,2.14,3.88,3.37a50.74,50.74,0,0,1,3.52,4.33c.63.84,1.6,1.78,1.6,2.67,0,1.65,1.12,2.52,1.86,3.61,1.41,2,3.07,3.93,4.57,5.92.64.84,1.13,1.8,1.74,2.67,2,2.84,4,5.65,6,8.51.63.93.92,2.13,1.67,2.93,1.89,2,4,3.91,5.95,5.86a2.57,2.57,0,0,0,3.75-.13c1-1,2.13-1.85,3.2-2.78,1.82-1.59,3.67-3.14,5.43-4.78,1.49-1.4,2.93-2.86,4.29-4.39q3-3.42,5.91-7c1.07-1.32,1.93-2.81,3-4.16,1.5-2,3.11-3.86,4.6-5.83.93-1.22,1.66-2.59,2.61-3.78s2.3-2.11,2.62-3.88a8.38,8.38,0,0,1,1.63-3c.7-1,1.24-5.08.5-5.93-1.32-1.52-2.74-3-4.2-4.34s-3.15-2.52-4.44-4c-1-1.21-1.51-2.9-2.47-4.21-1.46-2-3.14-3.86-4.67-5.82s-2.81-3.64-4.11-5.53c-1.55-2.23-3-4.52-4.48-6.8-1-1.61-2.17-3.19-3.06-4.88-1-1.86-1.5-4-2.62-5.74a93.55,93.55,0,0,0-6.86-9.53c-1.95-2.33-4.42-4.22-6.61-6.35-.83-.81-1.45-1.83-2.31-2.59-1.82-1.6-3.91-2.92-5.55-4.68-2.37-2.54-5.18-4.64-7.09-7.68-1.1-1.75-3.08-2.95-4.65-4.41-2.66-2.48-5.26-5-8-7.45-3.43-3-6.68-6.21-8.69-10.45-.58-1.21-1.52-2.25-2.06-3.48a41.14,41.14,0,0,1-1.49-4.43,9.06,9.06,0,0,0-.33-1.19c-1.17-2.38-2.41-4.73-3.55-7.12-.54-1.12-.86-2.34-1.37-3.47-.7-1.54-1.56-3-2.22-4.55s-1.12-3-1.61-4.48c-.37-1.13-.67-2.29-1-3.45C205.83,146.81,207.71,146.91,208.41,145.51Zm-10,168.39c-1.31,1.33-2.38,2.27-3.27,3.35-2.56,3.12-5,6.29-7.54,9.45a17.91,17.91,0,0,0-1.44,2c-1,1.73-1.95,3.5-2.93,5.25-1.13,2-2.37,3.94-3.38,6s-1.74,4.53-2.88,6.65c-1.05,1.94-2.42,3.7-2.4,6.06a1.33,1.33,0,0,1-.16.5c-.73,1.89-1.83,3.72-2.13,5.67a104.71,104.71,0,0,0-1.13,12.37c-.14,4.42-.34,8.87.9,13.24.71,2.47,1,5,1.55,7.57,0,.11.12.21.16.32.73,2.16,1.53,4.29,2.16,6.48.46,1.62.69,3.3,1,5,4.75,0,9.13,0,13.5,0a8.88,8.88,0,0,1,2.45.38c2.05.62,4,1.47,6.12,2,1.78.42,3.55.33,5.39,1.15,2.41,1.07,5.21,1.24,7.61,2.66a28,28,0,0,0,3.86,1.4c.72.3,1.32,1,2.06,1.18,2.07.56,4.18.95,6.27,1.43a4,4,0,0,1,.8.35,56.54,56.54,0,0,0,6.65,3.23,54.88,54.88,0,0,0,7,1.44c.4.08.79.28,1.19.4,2.36.69,4.72,1.39,7.09,2.05a37.42,37.42,0,0,0,3.76.91,5.6,5.6,0,0,0,2.08-.07c1-.2,2-.56,3-.81,1.89-.47,3.8-.91,5.7-1.36a.6.6,0,0,0,.15-.09c1.56-.75,3.1-1.52,4.67-2.24,1.11-.5,2.24-.93,3.37-1.36a40.32,40.32,0,0,0,4.38-1.66c2.67-1.41,5.22-3,7.84-4.51a26.23,26.23,0,0,0,3.52-1.75c1.54-1.2,2.86-2.7,4.28-4.05.26-.25.65-.64.9-.59,2.45.56,4.52-.63,6.63-1.46a27.89,27.89,0,0,0,3.78-2c1.55-.9,3-1.9,4.6-2.75,2-1.09,4.16-2,6.16-3.12,2.58-1.46,5-3.33,7.64-4.55,2.42-1.11,4.26-3,6.48-4.35s4.24-3.78,6.59-5.47c1.59-1.14,2.75-3,4.44-3.84,2-1,3-2.87,4.63-4.1a11.44,11.44,0,0,0,2.14-2c.74-.91,1.38-2.23.28-3a11.53,11.53,0,0,0-4-1.4c-.92-.22-2,.06-2.83-.31-2.18-1-4.25-2.24-6.16-3.26-.83.34-1.41.62-2,.83-1.59.55-3.21,1-4.78,1.61a48.33,48.33,0,0,1-5.28,2.1c-3.37.85-6.65-.12-9.83-1.18a9.39,9.39,0,0,1-2.74-1.71c-1.83-1.49-3.6-3.07-5.39-4.62a26.57,26.57,0,0,1-2.1-1.86c-1.84-2-3.7-3.9-5.43-6-1.47-1.74-3.2-3.22-4-5.62-.68-2.13-2.38-3.9-3.36-6s-1.7-4.46-2.6-6.68c-.33-.82-1-1.52-1.3-2.35-.61-1.65-1-3.37-1.61-5a31.61,31.61,0,0,0-1.44-3.2c-.7-1.39-1.54-2.71-2.15-4.14s-2.1-2.46-3.06-1.68c-1.57,1.28-3,2.77-4.54,4a24.52,24.52,0,0,1-4.52,3c-2.1,1-3.92-.56-5.36-1.6-3.32-2.4-5.51-5.92-7.79-9.29-1.38-2-2.82-4-4.05-6.22-1.69-3-4.12-5.65-6.3-8.4-1.91-2.42-3.9-4.77-5.86-7.16-.1-.14-.12-.33-.22-.48a26.6,26.6,0,0,0-2.08-3.2c-1.29-1.51-2.78-2.85-4.11-4.34-1.64-1.85-3.23-3.76-4.79-5.68q-3.41-4.17-6.71-8.42a1.38,1.38,0,0,0-2.27-.12c-.58.8-1.07,1.68-1.7,2.44-1.12,1.37-1.89,3.08-3,4.33a62.69,62.69,0,0,0-5.7,7.19c-.33.51-.93.9-1.12,1.44-.62,1.86-1.11,3.75-1.65,5.64-.07.23-.13.46-.21.68-.7,2-1.79,4.06-2,6.16a52.08,52.08,0,0,0-.05,9.51,37.52,37.52,0,0,0,1.36,5.92.83.83,0,0,0,.09.16,25.54,25.54,0,0,1,2.12,3.77,16.11,16.11,0,0,0,2.45,4.3c1.93,2.54,3.52,5.34,5.28,8a29.06,29.06,0,0,0,3,4.28,32,32,0,0,1,7.24,10.89,19.25,19.25,0,0,0,1.7,3.07c1,1.63,2.1,3.2,3.06,4.85,1.25,2.16,2.41,4.38,3.61,6.57.54,1,1.11,1.93,1.59,2.93.69,1.46,1.22,3,2,4.41.91,1.72,2,3.35,3,5a14.24,14.24,0,0,1,1.4,2.92c.58,2,.85,4.09,1.5,6.06.51,1.56,1.45,3,2.12,4.5s1.11,2.79,1.7,4.28c-3.06.54-3.41.3-4.13-2.06a41.52,41.52,0,0,0-1.45-4.05c-.65-1.51-1.54-2.91-2.12-4.44s-1-3.41-1.56-5.09a21.92,21.92,0,0,0-1.26-3c-1.17-2.38-2.38-4.74-3.6-7.09-1-1.86-1.93-3.72-3-5.54s-2.22-3.43-3.21-5.22c-1.24-2.23-2.28-4.58-3.55-6.8-.81-1.42-2-2.66-2.83-4.05-1.35-2.14-2.58-4.38-3.94-6.52a27.3,27.3,0,0,0-2.5-3.28c-1.17-1.34-2.94-2.37-3.57-3.9-1.05-2.55-3.08-4.42-4.12-6.92-.23-.56-.81-1-1.13-1.51C200.29,317.33,199.39,315.7,198.38,313.9ZM84.32,413.9a16.77,16.77,0,0,0,9.88-2.48,11.38,11.38,0,0,0,4.28-6.29c.9-2.76,1.11-5.74,1.62-8.62a5.49,5.49,0,0,1,.17-.7,59,59,0,0,0,1.93-7.5c.67-5.46,1-11,1.51-16.44.26-2.81.07-5.57.91-8.43a51.08,51.08,0,0,0,1.51-11.56c.12-2.05-.64-4.15-.81-6.24-.51-6.46-.06-12.93-1.31-19.4-1.11-5.75.17-11.72-1.13-17.62-1.08-4.87.26-10.08-1.48-15-.64-1.8-.18-3.82-1-5.81-1-2.43-1.13-5.24-1.56-7.9a41.5,41.5,0,0,0-1-5.82c-1-3.39-1.13-7.1-1.45-10.68-.07-.86.67-1.75.78-2.66.4-3.13-.73-5.89-2.3-8.5-.22-.36-.86-.49-1-.85-1.72-4-5.35-6.29-8.09-9.35-1.51-1.68-3.6-2.82-5.27-4.36s-3-3.11-4.48-4.71c-1.1-1.19-2.13-2.47-3.25-3.65-1.35-1.43-3.06-2.61-4.1-4.23-1.92-3-3.47-6.2-5.15-9.33-.51-.94-.94-1.93-1.46-2.86-1-1.82-1.94-3.68-3.11-5.39-1.36-2-3-3.85-4.41-5.79a43.75,43.75,0,0,0-2.9-4c-1.92-2.06-4-3.93-6-5.88-1.05-1-2.05-2.08-3.15-3-2.38-2-4.82-4-7.21-5.95-1-.82-2.11-1.44-3.19-.43-2.58,2.41-5.15,4.88-5.5,8.72a11.69,11.69,0,0,1-.32,2.31c-.6,1.93-1.66,3.79-1.89,5.75-.33,2.71-2.24,5.05-1.68,7.91a.65.65,0,0,1-.13.33c-1.41,2.34-.81,4.91-.52,7.3A77.49,77.49,0,0,0,24,223c.53,2.21,1,4.43,1.48,6.64a2,2,0,0,0,.08.35c.73,1.71,1.5,3.4,2.17,5.13.92,2.34,1.73,4.73,2.63,7.07s1.75,4.46,2.68,6.67a31.57,31.57,0,0,0,1.48,3c.71,1.29,1.52,2.53,2.23,3.82s1.23,2.42,1.81,3.64c.68,1.41,1.4,2.81,2,4.26s1,3.08,1.6,4.6a25.91,25.91,0,0,0,1.24,2.61c.71,1.41,1.49,2.79,2.17,4.22s1.3,3,2,4.57a30.89,30.89,0,0,1,1.83,4.29c.62,2.36.94,4.79,1.41,7.19a8.16,8.16,0,0,0,.36,1.19,6.81,6.81,0,0,1,.75,2.21c-.33,5.77.94,11.57-1,17.35-1,3-1.12,6.17-2.55,9.1-1.17,2.38-2.28,4.63-4.69,6a4.59,4.59,0,0,0-1.68,1.35c-1,1.53-2.32,2.69-3,4.6-.94,2.75-2.2,5.33-2.21,8.34,0,6.18-.1,12.36,1.16,18.47a30.53,30.53,0,0,0,.41,3.36c.55,1.65,1.5,3.17,2.06,4.83.67,2,1.11,4.05,1.65,6.08a5.16,5.16,0,0,0,.21.49c1.1,2.51,2.18,5,3.28,7.54.67,1.5,1.3,3,2.08,4.47,1,1.8,2.14,3.5,3.19,5.27.57,1,1,2,1.65,2.95,1.49,2.08,3,4.15,4.65,6.12a17.21,17.21,0,0,0,3.12,2.91c1.77,1.28,3.65,2.42,5.54,3.52s3.63,2,5.49,2.88c1.55.74,3.15,1.39,4.76,2a54,54,0,0,0,5.49,1.78A12.48,12.48,0,0,0,84.32,413.9Zm16.93-162.07a14.68,14.68,0,0,1,0,2.68c-.3,1.47-1,2.9-1.11,4.37a117.31,117.31,0,0,0-.06,11.86,58.37,58.37,0,0,0,1.37,8.47c.64,3,1.52,6,2.2,9.05a60.21,60.21,0,0,1,1.14,6.25c.54,4.78,1.11,9.56,1.37,14.35.32,5.8-.16,11.68.63,17.41.57,4.18.58,8.33.89,12.49.28,3.76.83,7.5,1.26,11.24a2.61,2.61,0,0,0,.21.67c.78,1.84,1.67,3.64,2.3,5.52.84,2.46,2.16,2.89,4.06,1.15,1-.94,2.12-1.81,3.13-2.76,3-2.84,5.94-5.82,7.78-9.53a21.56,21.56,0,0,1,4.63-5.73c1-1,2.13-2,1.92-3.74-.28-2.42-.64-4.81-1.05-7.21-1-5.95-1.11-12.05-1.57-18.09a12.68,12.68,0,0,0-.16-2.32c-.68-2.57-1.67-5.08-2.15-7.68-.68-3.7-1-7.47-1.49-11.21a16,16,0,0,0-.5-3.71,15.76,15.76,0,0,1-.29-9.82c.89-3.28,3.16-6.18,4.85-9.23.09-.17.42-.18.59-.32,1.71-1.42,3.37-2.9,5.1-4.28,1.56-1.24,3.25-2.32,4.75-3.62.35-.3.25-1.22.2-1.85,0-.26-.54-.45-.69-.74-1.33-2.55-1.26-5.49-2.39-8.16-.82-1.94-.32-4.32-1.17-6.5-.77-2-.66-4.21-1.27-6.35-1-3.59-1.07-7.45-1.58-11.19-.4-3-.87-5.92-1.33-8.88a3.19,3.19,0,0,0-.19-.48c-.74-2.51-1.52-5-2.22-7.52a55.59,55.59,0,0,0-1.56-6c-.92-2.25-2.23-4.34-3.37-6.51-.47-.9-1-1.8-1.38-2.73-.87-1.89-1.58-3.86-2.57-5.69-1.07-2-2.4-3.83-3.57-5.76a24.9,24.9,0,0,0-3.92-5.43,51.19,51.19,0,0,1-4.79-5.94,42.56,42.56,0,0,1-4-5.55,14.13,14.13,0,0,0-3.62-4.52c-1.06-.86-2.53-1.89-2.69-3-.32-2.15-2.1-3.2-3.2-4.32-1.42-1.43-1.85-4-4.29-4.43-.16,0-.17-.66-.32-1a4.89,4.89,0,0,0-.67-1.12c-1.44-1.67-2.92-3.31-4.36-5-1-1.19-1.77-2.91-3-3.52-2-.95-2.86-2.89-4.6-4a20.46,20.46,0,0,1-2.79-2.65c-1.56-1.43-3.14-2.83-4.71-4.25-.73-.66-1.41-1.38-2.19-2-3-2.29-6.16-4.46-9.12-6.83-2.41-1.94-4.6-4.16-7-6.13a16.38,16.38,0,0,0-3.05-1.61c-.55-.28-1.19-.91-1.64-.79a18.29,18.29,0,0,0-5,1.78,59.56,59.56,0,0,0-6.1,4.58,21,21,0,0,0-3.63,3.26,27.68,27.68,0,0,0-2.86,5c-.62,1.29-.71,2.87-1.48,4a13.76,13.76,0,0,0-2.4,6.7,5.16,5.16,0,0,1-.25,1,51.37,51.37,0,0,0-2.05,6.72c-1,5.68,1.26,11.17,1.3,16.81,0,.26.25.5.36.77.68,1.77,1.36,3.55,2,5.32.31.8.59,1.6.92,2.39.5,1.2,1,2.39,1.56,3.58a31.52,31.52,0,0,0,1.68,3.8,40.81,40.81,0,0,0,3.33,4.74,58.1,58.1,0,0,0,4.8,5.36c1.19,1.14,2.82,1.84,4,3,2,1.82,3.74,3.84,5.6,5.77,2.39,2.49,4.81,4.94,7.15,7.47a45.6,45.6,0,0,1,3.7,4.5c1,1.38,1.72,2.94,2.57,4.42,1,1.84,2.09,3.68,3.15,5.52.22.39.49.76.7,1.16.64,1.22,1.18,2.51,1.92,3.67,1.47,2.32,3,4.59,4.59,6.86a47.55,47.55,0,0,0,3,4.16c1.07,1.26,2.35,2.34,3.54,3.5,1.44,1.42,2.81,2.93,4.34,4.25,2.46,2.12,5,4.12,7.63,6.24,1.85-1,1.91-1.49.93-3.6a6.47,6.47,0,0,1-.27-3c0-.29.77-.68,1.22-.74a1.26,1.26,0,0,1,1,.63,35.9,35.9,0,0,1,1,4.45,4.4,4.4,0,0,1-.2,2.28c-1.1,2.67-.69,4.33,1.08,6.6a2.42,2.42,0,0,0,2.88,1.12A7.11,7.11,0,0,1,101.25,251.83ZM260,91.49c-.72,2.11-1.29,3.91-1.95,5.69A13,13,0,0,1,256.7,100a12.76,12.76,0,0,1-8.07,5,26,26,0,0,0-7.69,2.7,25,25,0,0,0-4.4,3.64c-2,1.92-4,3.74-6.9,3.91-1.33.08-1.88.72-1.9,2a28.78,28.78,0,0,1-.35,4.25,21.51,21.51,0,0,1-.88,2.6,38,38,0,0,1-1.63,5.57c-1.46,3.08-3.26,6-4.88,9-.54,1-1,2-1.48,3a32.51,32.51,0,0,0-2.07,4c-.64,1.87-.92,3.86-1.45,5.78a20.76,20.76,0,0,0-1.05,2.91,44.84,44.84,0,0,0-.15,5.56,5,5,0,0,0,.42,2.22c1,1.91,2.38,3.67,3.31,5.63,1,2.15,1.7,4.47,2.56,6.7.37,1,1.17,1.88,1.18,2.82,0,1.73,1.1,2.7,2.07,3.81,1.48,1.68,3,3.3,4.4,5.07.86,1.12,2.32,1.74,3.4,1a15.6,15.6,0,0,0,1.9-1.65,35.34,35.34,0,0,1,2.94-3.05,15.22,15.22,0,0,0,4.52-5.76c.47-1,.9-2.09,1.44-3.09.79-1.44,1.79-2.78,2.49-4.27.91-1.93,2.5-2.83,4-2a6.22,6.22,0,0,1,1.26,1.15c2,2,4,4,5.88,6.07,1.47,1.62,2.74,3.41,4.17,5.06,1.28,1.48,2.8,2.78,4,4.34,2.12,2.89,4.59,5.64,4.57,9.59,0,1,.79,1.27,1.73,1.4,2.74.4,5.46.9,8.19,1.37a4.11,4.11,0,0,1,.68.21,55.12,55.12,0,0,0,5.47,2c2.29.57,4.4,1.79,6.91,1.69,1.11,0,2.28.73,3.38,1.23a15.48,15.48,0,0,1,2.53,1.45c1,.69,1.91,1.47,2.82,2.25,1.66,1.42,3.59,2.59,3.82,5.15.16,1.83,2.23,2.9,3.44,1.95,1.69-1.31,3.46-2.42,5.76-2.21a8.6,8.6,0,0,0,3-.06,6.09,6.09,0,0,0,2.68-1.58,56.06,56.06,0,0,0,3.52-4.46c.88-1.15,2.42-2.2,1.47-3.85-1.36-2.34-1.6-5-2.34-7.45-.61-2.05-1.07-4.14-1.62-6.21a38.44,38.44,0,0,0-1.11-3.8c-1.11-2.84-2.32-5.65-3.49-8.48-.41-1-.84-2-1.23-3-.58-1.51-1.13-3-1.71-4.55a13.42,13.42,0,0,0-1.23-3,10.43,10.43,0,0,1-2.34-5,3.15,3.15,0,0,0-.39-1c-1.12-2.46-2.31-4.89-3.37-7.37-.58-1.36-.68-3-1.48-4.17a13.76,13.76,0,0,1-2.42-5.9,2.35,2.35,0,0,0-.31-.82c-1.09-1.88-2.18-3.76-3.29-5.62s-2.3-3.91-3.53-5.82c-.81-1.25-2-2.31-2.6-3.64-1.71-3.71-4.5-6.48-7.35-9.26-1.55-1.51-3-3.1-4.44-4.74-1-1.16-1.71-2.58-2.75-3.69-2-2.09-4-4.06-6.1-6s-3.93-3.79-6-5.58C263.24,93.79,261.65,92.73,260,91.49Zm-10.51-43.2c1.17.07,2.52-.26,3.24.26,2.37,1.73,4.49,3.78,6.73,5.68s4.49,4.18,7.83,4.25c.23,0,.56,0,.68.15,1.39,1.59,3.25,1.17,4.86.86s3-1.38,4.54-1.81c1.94-.55,2.24-2.35,3.17-3.65.66-.93,1.51-2.07,1.48-3.09-.12-4.46,1.35-9-.93-13.38a33.48,33.48,0,0,1-2.49-6.93c-.84-3.18-2.51-5.93-4.06-8.75a11.27,11.27,0,0,0-2.25-2.59c-1.69-1.58-3.48-3.06-5.17-4.64-1.91-1.78-3.63-3.79-5.66-5.41a24,24,0,0,0-5.27-3A32,32,0,0,0,250,4.13c-2.26-.49-4.59-.49-6.91-.95-5.69-1.12-11.46-.92-16.41,3a18.1,18.1,0,0,1-3.29,1.74q-1.81.9-3.63,1.74c-2.29,1.06-3.44,3.26-5,5-1.38,1.59-3,3-3.77,5.17s-2.46,3.79-3.8,5.62c-1.12,1.54-2.33,3-3.46,4.54a17.57,17.57,0,0,0-2.45,3.59c-.91,2.3-2.52,4.23-2.89,6.86-.31,2.27-1.55,4.41-2.39,6.61-.13.33-.34.63-.46,1-.67,1.73-1.73,3.43-1.9,5.22a27,27,0,0,0,.85,8.89c1,4.35,1.25,8.93,2.87,13.18a3,3,0,0,0,2.65,2.11,2.08,2.08,0,0,0,2.42-1.61A29.43,29.43,0,0,1,204,72.39c.73-1.48,1.59-2.89,2.27-4.38.6-1.32.89-2.79,1.56-4.07,1.09-2.08,2.35-4.07,3.6-6.06A7.16,7.16,0,0,1,213.09,56a39.38,39.38,0,0,1,4.79-3.37c1.09-.63,2.48-.89,3.5.32a21.9,21.9,0,0,1,2.48,3.3,10.92,10.92,0,0,1,1.29,3.42c.45,2.51.69,5.06,1.06,7.9,1.24-.26,2-.37,2.8-.6,2.15-.67,4.25-1.77,6.43-2a4.14,4.14,0,0,0,3.38-2.28c1.49-2.48,2.63-5.17,4.15-7.63a8.18,8.18,0,0,1,2.83-3.17C247.19,51.07,249.48,50.87,249.48,48.29ZM136.11,331.69c1.59-1.85,3.11-3.67,4.69-5.44,3-3.31,6-6.52,8.93-9.91,1.62-1.91,3.75-3.64,3.41-6.65a4.83,4.83,0,0,1,.65-2c.59-1.49,1.16-3,1.79-4.43a41.7,41.7,0,0,1,2-4.34,38.92,38.92,0,0,1,3-4.52c1.86-2.41,3.78-4.78,5.78-7.07,1.44-1.65,3-3.19,4.58-4.69a12.14,12.14,0,0,0,2.76-3.67c.9-1.88,2.64-3.33,3.92-5s2.24-3.22,2.14-5.42l2.42-.15c.65,3.45-1.62,5.53-3.13,7.86-1.37,2.11-3,4.07-4.51,6.08a27,27,0,0,1-2.85,3.58c-1.68,1.59-3.66,2.74-5,4.86-1.45,2.36-3.87,3.93-5.23,6.59-1.68,3.28-3.66,6.37-4.58,10-.1.4-.3.78-.43,1.17s-.32,1.07-.48,1.6a8.71,8.71,0,0,0,2-.62c.75-.44,1.32-1.18,2.05-1.66,2.25-1.46,4.58-2.79,6.79-4.29,2.87-1.94,5.65-4,8.5-6,1.8-1.25,3.61-2.48,5.5-3.61,2.35-1.41,4.78-2.7,7.19-4,1-.54,2-.94,2.94-1.55a13.29,13.29,0,0,1,5.39-2.3,28.46,28.46,0,0,0,4.58-1.42c.09,0,.17-.16.22-.26.89-1.7,2.53-3,2.67-5.11,0-.23.27-.45.45-.65,1-1.11,2.38-2,3-3.34,1.09-2.36,3-3.94,4.76-5.57,2.78-2.54,3.19-4.75.58-7.65-1.2-1.33-.86-4.1-3.61-4,0,0-.07-.24-.15-.3-1.93-1.46-3.71-3.25-5.86-4.26-2-.93-4.33-1-6.5-1.49s-4.29-1-6.41-1.57a15.69,15.69,0,0,1-3.64-1.19,17.79,17.79,0,0,0-8.21-2.42,52.55,52.55,0,0,0-15.3,1.51,4.15,4.15,0,0,0-.53.1c-1.84.72-3.7,1.41-5.51,2.2a33,33,0,0,0-3.74,1.92c-1.56.95-3,2-4.56,3-1.74,1.09-3.63,2-5.25,3.18-2.61,2-5.06,4.15-7.54,6.29a33,33,0,0,0-3.93,3.72c-.84,1-1.16,2.47-1.9,3.61-1.19,1.82-2.32,3.57-2.08,5.93.21,2-.11,4,.2,5.92.59,3.67,1.53,7.29,2.19,10.95.26,1.4,0,2.91.27,4.29.59,2.64,1.75,5.17,2.12,7.82.66,4.88.94,9.8,1.35,14.71C134.3,325.21,133.6,328.57,136.11,331.69ZM272,62.53a1.63,1.63,0,0,0-.38-.19,2.7,2.7,0,0,0-.89-.05c-4.32.92-7.46-1.65-10.73-3.7-1.22-.78-2.09-2.11-3.22-3.07-.71-.6-1.76-.85-2.38-1.52-2.35-2.51-5.2-2.59-7.58-.09a8.65,8.65,0,0,0-1.3,1.26c-1.33,2.18-2.56,4.42-3.86,6.62-.28.46-.89.77-1.06,1.26-1.18,3.25-2.44,4.16-5.94,4.27a8.14,8.14,0,0,0-2.93.44,30.56,30.56,0,0,0-3.26,2,6.91,6.91,0,0,1-2.27,1,2.86,2.86,0,0,1-2.21-.42,9.25,9.25,0,0,1-2.51-6,35.68,35.68,0,0,0-.15-5.38,12.19,12.19,0,0,0-1.53-3.88A1.84,1.84,0,0,0,218,55c-1.83,1.61-3.57,3.32-5.23,5.1a8.32,8.32,0,0,0-1.45,2.46c-.61,1.48-1.07,3-1.62,4.54a20.37,20.37,0,0,1-1.06,2.61c-.75,1.46-1.76,2.79-2.38,4.3a10.77,10.77,0,0,1-5.41,6.14,1.66,1.66,0,0,0-.68,1.45,23.92,23.92,0,0,0,1.45,3.34c.68,1.41,1.47,2.78,2.06,4.23s1.1,3.25,1.69,4.86,1.39,3.42,2,5.17,1.05,3.74,1.58,5.61c0,.1.14.18.18.29.7,2,1.51,4,2.07,6,.67,2.45,1.12,5,1.66,7.46,0,.06,0,.12,0,.18a44,44,0,0,1,2.08,5.53c.64,2.63,1.62,5.17,1.59,8,0,1.42,1.06,2.85,1.73,4.48.83-1.77,1.56-3.3,2.28-4.84a24.16,24.16,0,0,0,2.06-4.53c.68-2.82,1-5.73,1.46-8.59a5.9,5.9,0,0,1,.6-1.41c-.29-.77-.53-1.4-.79-2-.15-.36-.25-.86-.53-1-3.05-1.8-3.25-5.19-4.44-8-.74-1.75-1-3.71-1.6-5.52a42,42,0,0,0-1.91-4l1.44-2.42c2.58,1.06,2.48,3.63,3.24,5.58a41.77,41.77,0,0,1,1.43,6.06,1.06,1.06,0,0,0,.14.33,38.45,38.45,0,0,1,2.11,3.88c1.14,2.76,5.66,3.82,8,1.8,2-1.72,3.45-4.06,6-5.21,1.48-.67,2.66-2.26,4.16-2.58,2-.44,4.12-.28,6.05-1.45s3.9-1.72,5.73-2.79c.57-.33.75-1.4,1-2.15.72-1.84,1.5-3.66,2.06-5.55.59-2,.64-4.3,1.51-6.19a60.92,60.92,0,0,1,4.42-7.15c1-1.55,2-3.1,3.12-4.6s2.43-3,3.51-4.55C270.93,67.57,272.68,65.45,272,62.53ZM84.24,121.72a4.78,4.78,0,0,0,1.82-.7c3.68-3.27,7.27-6.63,10.92-9.94a5.88,5.88,0,0,1,1.46-.85c2-.94,3.73-2.51,3.92-4.42.21-2.15-.68-4.48-1.4-6.63a17.9,17.9,0,0,0-2.29-3.83c-1-1.55-2.06-3.09-3.18-4.57-1-1.28-2-2.49-3.14-3.67-1.5-1.62-3-3.18-4.58-4.76a45.16,45.16,0,0,0-3.81-3,45.66,45.66,0,0,1-5.67-6.39c-1.45-1.75-2.68-3.67-4.17-5.38A38.08,38.08,0,0,1,68,58.92c-1.58-3.35-3.33-6.62-5-9.93-.49-1-.84-2.07-1.36-3.05-.64-1.19-1.91-2.28-2-3.49-.33-3.8-3.07-6.2-4.87-9.12a37.76,37.76,0,0,0-4.51-5.68,12.73,12.73,0,0,0-3.94-3.3c-1.24-.54-2.91-.11-4.51-.11-.3,2.37-1,4.75-.79,7.06a76.47,76.47,0,0,0,1.89,9.24l1.53,7.21a1,1,0,0,0,.08.35,17.48,17.48,0,0,1,2.41,7,2.35,2.35,0,0,0,.14.69c.74,1.87,1.55,3.72,2.21,5.62a76.44,76.44,0,0,1,2.44,7.75c.66,2.89,1,5.87,1.43,8.82a34.17,34.17,0,0,0,.47,4.08c.77,2.76,2,5.38,1.89,8.36-.1,2.1,0,4.2,0,6.3a15.44,15.44,0,0,0,.4,3,18.51,18.51,0,0,1,.92,2.85c.2,3.78.15,3.63,4,3.87,3.47.21,6.91.82,10.36,1.26a1.38,1.38,0,0,1,.67.2c3.12,2.21,6.24,4.43,8.39,7.69C81.62,117.54,82.82,119.48,84.24,121.72ZM49.68,104.79c-.44-1.08-.88-2-1.17-2.92s-.44-2.09-.76-3.11c-.7-2.25-1.45-4.5-2.22-6.73C45,90.48,44.39,89,43.8,87.43a36.88,36.88,0,0,1-1.89-5c-.67-3-1.06-6-1.58-9.06a1.53,1.53,0,0,0-.13-.52c-1.16-2.13-2.43-4.22-2.34-6.79a2.51,2.51,0,0,0-.28-1c-.71-1.62-1.47-3.21-2.15-4.84-.46-1.09-.83-2.21-1.2-3.33-.55-1.65-1.11-3.29-1.59-5-.77-2.63-2.05-5.27-2.08-7.92,0-3.15-1.12-6-1.59-9a12.09,12.09,0,0,0-1.33-3.51c-.38-.75-.94-1.72-1.63-1.94a4.15,4.15,0,0,0-3.13.1c-1.95,1.29-2.81,3.55-3.63,5.63a23.51,23.51,0,0,1-4.66,6.94c-1.66,1.87-4.22,2.94-4.77,5.84-.46,2.39-1.68,4.65-2,7a33.68,33.68,0,0,0-.1,7.71,38.68,38.68,0,0,0,1.41,6.5,23.74,23.74,0,0,0,1.37,3c.76,1.7,1.49,3.41,2.21,5.12s1.29,3.19,2,4.76c1,2.06,2.06,4,2.94,6.14.67,1.59,1,3.31,1.61,4.93a21.9,21.9,0,0,0,1.45,3c.63,1.15,1.37,2.25,2,3.4,1,1.76,1.91,3.58,3,5.31s2.34,3.18,3.21,4.92A36.36,36.36,0,0,1,30.6,115c1.35.53,1.86-.3,2.7-1,2.65-2.27,5-4.9,8.21-6.55,2.3-1.17,4.34-2.65,7.07-2.38A5.8,5.8,0,0,0,49.68,104.79ZM310.27,266.38l.06-.47c1.86,0,3.72.07,5.57,0,1.66-.09,3.44-2.17,2.83-3.25-.91-1.6-2.3-3-2.93-4.69s-2.19-2.9-1-5.3c1.71-3.48,4.6-5.71,7.37-7.89,2-1.59,3.91-3.23,5.74-5a9.92,9.92,0,0,0,2.67-4.24c.63-1.92,1.59-3.75,2.16-5.69.48-1.63-.76-3.07-1-4.55a14.61,14.61,0,0,0-2.64-6.58c-2.41-3.43-5.28-5.89-9.68-6a41.82,41.82,0,0,1-5.93-.09c-2.29-.38-4,1-5.69,1.8-2.18,1-4,2.92-5.81,4.61-2,1.89-3.87,4-5.82,6a35.09,35.09,0,0,1-4.34,4.12,63.47,63.47,0,0,1-6.91,4.06,75.76,75.76,0,0,1-7.26,3.51c-2.13.86-2.4,1.78-1.07,3.69,1.6,2.29,2.92,4.78,4.4,7.16a30.43,30.43,0,0,0,2.12,3c1.36,1.71,2.81,3.33,4.17,5,.75.95,1.36,2,2.06,3,1,1.39,2,2.8,3,4.12s2.21,2.53,4.31,2.2a19.12,19.12,0,0,1,5.18,0C304.7,265.28,307.48,265.88,310.27,266.38Zm-32.85,48.21a51,51,0,0,1,3.39,4.9c1.09,2.06,1.87,4.28,2.77,6.44.45,1.09.81,2.21,1.3,3.28,1.13,2.44,2.34,4.84,3.47,7.27,1,2.15,1.91,4.34,2.91,6.48a13.11,13.11,0,0,0,1.49,2.46c1,1.29,2.13,2.48,3.19,3.72,2.26,2.64,4.36,5.43,6.82,7.86a53.57,53.57,0,0,0,7,5.54,12.2,12.2,0,0,0,4.13,1.89c3.13.75,6-.94,9-1.35a2.88,2.88,0,0,0,.65-.29c1.59-.67,3.19-1.36,4.79-2,1.39-.57,2.79-1.1,4.22-1.65-1.61-2.45-3.54-4.44-3.6-7.37,0-1.63.56-3.69-2.16-3.86-.08,0-.14-.18-.22-.26a56.92,56.92,0,0,1-6.62-7.82,5.72,5.72,0,0,1-1.09-3,3,3,0,0,0-.28-1.2c-1.32-2.37-2.43-4.78-2.21-7.59.12-1.69,0-3.31.87-5,1.28-2.41.49-5-1.13-5.93a14.06,14.06,0,0,0-3.32.94c-3,1.74-6.37,1.19-8.06-.89-1.37-1.68-3-3.2-4.19-4.95a38.11,38.11,0,0,1-4.14-6.81c-1.25-2.92-2-6.08-2.93-9.13a6.92,6.92,0,0,0-.65-1.15Zm-275.1,68c.25,1.47.06,2.91.67,3.44a29.37,29.37,0,0,0,5.32,3.48A1.8,1.8,0,0,0,10,389c.63-1.92,1-3.92,1.56-5.87a19.71,19.71,0,0,1,1.18-2.91.83.83,0,0,1,.71-.34,1.17,1.17,0,0,1,.74.62,3.75,3.75,0,0,1,0,1.6c-.43,1.69-1.12,3.33-1.38,5.05a10.33,10.33,0,0,0,2.51,8.24c.27.34.73.75,1.07.73a1.59,1.59,0,0,0,1.21-.75c.55-1.4,1-2.85,1.37-4.3.52-1.9.9-3.83,1.51-5.7.67-2.05,1.53-4,2.3-6.06.52-1.37,1-2.77,1.54-4.12a12.73,12.73,0,0,1,1.4-2.69c1.47-2,3.21-3.78,4.54-5.85,1.49-2.33,3.86-4.13,4.45-7a9.65,9.65,0,0,0,.26-2.44c0-.74-.53-1.48-.5-2.2.23-6.2-1.41-12.49.91-18.58a42,42,0,0,1,2.19-5.66,27.5,27.5,0,0,1,3.55-4.34,3,3,0,0,0,.31-3.61c-1.12-2.27-2.24-4.55-3.45-6.78a36.21,36.21,0,0,0-2.86-4.61c-.7-.92-2-1.69-3.07-1a20.58,20.58,0,0,0-5.29,4.35,32.69,32.69,0,0,0-4.24,6.51c-.88,1.95-2.21,3.61-2.36,5.93-.09,1.44-.95,2.82-1.45,4.23-.74,2.08-1.58,4.12-2.19,6.24s-.94,4.18-1.4,6.28c0,.06-.05.11-.07.16-.77,1.92-1.56,3.82-2.28,5.75-.55,1.48-.92,3-1.51,4.5C10.56,356,9.51,357.5,9,359.2c-.67,2.25-1,4.62-1.44,6.94,0,.17,0,.38-.08.53A20.81,20.81,0,0,0,5,374a2.46,2.46,0,0,1-.15.51C4,377.28,3.08,380.09,2.32,382.58Zm132.91-42.83a16.11,16.11,0,0,0-2.5,1.86c-1,1.08-1.72,2.35-2.64,3.47-2,2.43-4,4.82-6,7.22a40.43,40.43,0,0,1-7.66,7.41,22.13,22.13,0,0,0-2.58,1.88c-1.63,1.53-3.16,3.15-4.64,4.64,1,2.83,3.79,2.15,5.51,3.35,1.17.8,2.73,1,4,1.63a5.35,5.35,0,0,1,1.46,1.36,38,38,0,0,0,3.23,3.57c1.74,1.49,3.84,2.58,5.47,4.17,2,2,3.54,4.4,5.55,6.36,2.61,2.54,4.83,5.5,8,7.44,3,1.78,5.69,4,8.72,5.69a57.65,57.65,0,0,0,7.37,2.92l.66.24,2.39,1,.37-.51a21.4,21.4,0,0,0-.49-2.77c-.61-2-1.45-3.88-2-5.88a40.25,40.25,0,0,1-1-6.07c-.59-6.21-1.1-12.42-1.59-18.64-.1-1.34,0-2.7,0-4.08-1.83-.12-3.44-.18-5-.32-2.18-.2-3.47-2.15-2.29-4,1-1.57.79-3.12,1-4.73.14-1.22.57-2.41.78-3.62.24-1.47.41-2.95.54-4.43,0-.25-.35-.53-.55-.79-.24.2-.59.35-.72.61-.67,1.34-1.21,2.74-1.92,4.06-1.2,2.22-2.49,4.38-3.81,6.68h-1.54C140.71,353,138.09,346.65,135.23,339.75ZM343.7,261c-1.31.91-2.44,1.67-3.54,2.48-1.3,1-2.53,2-3.86,2.91-.66.46-1.57.57-2.18,1.06a8.41,8.41,0,0,1-5.62,2.24,22.32,22.32,0,0,0-4.48.07c-1.27.23-2.92.66-3.55,1.59a35.53,35.53,0,0,0-2.83,6.12c-.5,1.16-.69,2.63-1.53,3.42a33.8,33.8,0,0,0-5.66,6.28c-1.57,2.46-3.35,4.76-3.05,7.94a32.14,32.14,0,0,0,.09,3.41,22.2,22.2,0,0,0,1.58,5.16c.85,1.75,2.26,3.21,3.2,4.92,1.75,3.16,4.58,5,7.65,6.53a2.94,2.94,0,0,1,1.27,3.76,6.24,6.24,0,0,0-.91,2.69c.06,4.08-.57,8.11.93,12.24,1.1,3,2.08,6,4,8.54.32.43,1.05.67,1.15,1.1.32,1.43,1.32,1,1.85.56s.39-1.33.38-2a10.1,10.1,0,0,0-.4-1.92,15.1,15.1,0,0,0-.42-2.3c-.53-2.55-1-5.11-1.55-7.67a2.3,2.3,0,0,0-.15-.32c-.7-2-1.74-4-2-6-.38-2.89,0-5.87-.27-8.79s1.53-4.66,3.25-6.17a71.59,71.59,0,0,1,8.71-6.21c3.64-2.33,3.89-2.84,2.38-6.84a2.36,2.36,0,0,1,.09-1.57c.6-1.41,1.43-2.72,1.95-4.15a8.75,8.75,0,0,1,3.41-3.92c1.38-1,3-1.76,4.3-2.88,1.86-1.6,1.94-6.07.63-8.3a29.49,29.49,0,0,1-1.9-4.84c-.14-.38-.12-.83-.26-1.22-.74-2.06-1.52-4.11-2.26-6.17C344,262.24,343.87,261.73,343.7,261ZM263,197.56c.23,1.8.34,3.21.62,4.59.14.7.75,1.3.89,2,.4,1.94.71,3.9,1,5.86.5,3.81.93,7.62,1.38,11.43.14,1.13-.1,2.35,1.26,3.05a3.58,3.58,0,0,1,1.26,1.58c1.42,2.8,2.76,5.65,4.22,8.43a1.63,1.63,0,0,0,1.4.68c2-.92,4-1.94,5.89-3,2.3-1.31,4.39-3.12,6.83-4,3-1.11,4.93-3.41,7.18-5.34,2.46-2.1,3.85-5.32,7-6.84.27-.14.32-1.1.21-1.61a11.08,11.08,0,0,0-1-2.83,18.22,18.22,0,0,0-2.37-3.64A15.74,15.74,0,0,0,296,206c-2.34-1.68-4.69-3.31-7.72-3.43a3.94,3.94,0,0,1-1.59-.21,18.89,18.89,0,0,0-9.34-2.29c-1.2.06-2.4,0-3.6-.07-.41,0-1.07,0-1.17-.23-.62-1.34-1.78-.91-2.79-1-.41,0-1,0-1.2-.19C267.09,196.73,265.19,197.85,263,197.56ZM143.51,254.38a6.33,6.33,0,0,0,2,.1,7.73,7.73,0,0,0,1.82-1.11c1.89-1.17,3.72-2.42,5.67-3.47a42,42,0,0,1,6.18-2.83c1.45-.5,3-.48,4.53-1.12a27,27,0,0,1,7.44-1.4,22.82,22.82,0,0,1,7-.12c3.41.74,5.27-2,7.79-3,2.31-.95,4-3.42,5.85-5.13-6.32-9.35-12.65-18.73-18.72-27.73-.76.49-1.61.75-2,1.32-1.55,2.36-2.76,5-4.46,7.18-2.1,2.73-4.15,5.37-4.81,8.88a10.47,10.47,0,0,1-1.54,3.24c-1,1.63-2.07,3.19-3.15,4.75-1.82,2.64-3.63,5.28-5.51,7.87-1.47,2-3.19,3.88-4.54,6S144.82,251.89,143.51,254.38Zm178.06-44.31c7.35,1.93,11.48,7.25,13.47,13.87,2.16,7.16-1.25,13.25-6.29,18.87a13.75,13.75,0,0,0,2.48,0c.78-.17,1.49-.78,2.26-.82,1.8-.1,3.05-1.23,4.37-2.16s2.09-2.49,3-3.88c2.32-3.42,5.18-6.46,7.74-9.72,1.41-1.78,2.18-4,4.08-5.47a19.65,19.65,0,0,0,3.76-4.57A25.47,25.47,0,0,0,359.3,211c.88-2.38-.77-4.45-1.53-6.54a5.17,5.17,0,0,0-2.95-2.8,54.45,54.45,0,0,0-8-1.4c-1-.14-2,0-3.05-.07a9.37,9.37,0,0,1-3.35-.34c-4.05-1.93-7.83-1.18-11.26,1.19a34.14,34.14,0,0,0-6.12,5.65C322.33,207.51,320.48,208.24,321.57,210.07Zm-59.95,7.45s.23-.16.23-.35c0-2.09,0-4.18,0-6.28,0-.21-.18-.41-.27-.62a9.1,9.1,0,0,1-.92-2.27c-.19-1.66.36-3.63-.36-4.95-.92-1.7-.71-3.32-.83-5a2.76,2.76,0,0,1,2.51-3c2.42-.45,3.29-2,2.15-4.24a37.33,37.33,0,0,0-3.65-6.21c-2-2.6-4.43-4.94-6.71-7.35-1.9-2-3.8-4-5.85-5.84a2.24,2.24,0,0,0-2.18.27,17.31,17.31,0,0,0-1.61,3.12c-1.05,1.93-2.57,3.63-2.88,5.92,0,.05-.07.1-.11.14-1.62,1.74-3.21,3.5-4.86,5.21a12.67,12.67,0,0,1-1.77,1.4,15.51,15.51,0,0,0-2.49,1.77c-.25.28,0,1.39.33,1.77,1,1.09,2.33,2,3.45,3,2.11,1.94,4.2,3.92,6.24,5.93,1.38,1.35,2.64,2.84,4,4.19,1.69,1.65,3.48,3.21,5.18,4.85,1.23,1.19,2.27,2.59,3.59,3.66C257,214.33,259.24,215.82,261.62,217.52Zm37,51.11c.12.62.06,1.28.36,1.61,1.05,1.2,2.23,2.28,3.37,3.4a3.94,3.94,0,0,1,1.44,2.85c.15,3.15-2.37,5.07-3.28,7.74-.72,2.1-2.8,3.72-4.19,5.62-.92,1.25-2.21,2.34-.58,4.24,1,1.13,1.07,3,1.55,4.54s.95,3.33,1.57,4.95a17.63,17.63,0,0,0,1.54,2.78c.68,1.09,1.4,2.16,2.09,3.24s1.3,2.08,2,3.08a7.4,7.4,0,0,0,3.74,2.92c2.91,1.08,3.3,1.27,4.73-.92-.89-1.16-1.76-2.25-2.59-3.37-1.34-1.81-3-3.49-3.91-5.51a28.11,28.11,0,0,1-2.51-8.46c-.22-2.2.81-4.52,1.28-6.78a.37.37,0,0,1,.09-.16,47.76,47.76,0,0,1,3.52-5.3c.9-1.05,1.44-2.34,2.9-3.15s2.45-2.64,3.16-4.24a38.33,38.33,0,0,0,1.61-5.88,1.42,1.42,0,0,1,.23-.48c.93-1.2,1.87-2.39,2.78-3.55-1.35-1.26-1.91.66-2.6.51-2.65-.56-4.86,1.48-7.83.55C306,267.86,302.28,268.63,298.65,268.63Zm22-1.81c.52,0,1.21.32,1.51.08,1.75-1.38,3.8-1,5.67-.8,4.46.49,7.43-1.81,10.22-4.78a13.28,13.28,0,0,1,3.36-2.77c1.93-1,2.17-2.44.7-4.08a17.18,17.18,0,0,1-2.87-4.3,47.52,47.52,0,0,1-1.86-5.79c-.85.05-2.21-.3-2.9.24-1.61,1.24-3.36,1-5.09,1.09-1.19.08-2.4-.08-3.59.06a3.34,3.34,0,0,0-1.76.87c-1.85,1.71-3.49,3.67-5.46,5.22-1.5,1.18-1.07,2.46-.6,3.61a18.39,18.39,0,0,0,2.48,4C322.22,261.86,321.54,264.23,320.6,266.82ZM57.14,109.11l-.23.6c1.34,1.2,2.64,2.45,4,3.61,2.71,2.3,5.47,4.55,8.2,6.83,2.33,1.95,4.78,3.77,6.91,5.91,1.85,1.85,2.35,2.12,4.35.68s2.16-2.64.89-4.56c-.83-1.25-1.73-2.47-2.68-3.64-1.59-2-3.19-3.9-4.89-5.75a4.94,4.94,0,0,0-2.09-1.22c-1.89-.59-4-.73-5.71-1.62C63,108.43,60.06,109.19,57.14,109.11Zm148.7,143,.26-.6c-.92-1.38-1.82-2.76-2.76-4.12-.12-.18-.42-.22-.6-.37-.54-.48-1.06-1-1.59-1.47s-.87-.76-1.29-1.16c-1.2-1.16-2.38-2.34-3.6-3.48-1-.92-2-1.81-3-2.66-.11-.09-.56.08-.75.25-2.5,2.18-5,4.39-7.66,6.76,1.16.51,2.48,1.13,3.82,1.66.65.25,1.38.29,2,.53,1.71.62,3.36,1.46,5.11,1.91,2.43.63,4.94,1,7.41,1.47a1.68,1.68,0,0,1,.48.2Zm-98,104.61c-.09,1.78-.22,3.08-.21,4.39a15.65,15.65,0,0,0,.36,2.33l1.34-1.31c.08-.07.26-.05.33-.13,1.13-1.35.66-2.85.19-4.22C109.67,357.34,108.7,357.17,107.81,356.73Z"/><path class="cls-1" d="M208.41,145.51c-.7,1.4-2.58,1.3-2.13,3,.29,1.16.59,2.32,1,3.45.49,1.51,1,3,1.61,4.48s1.52,3,2.22,4.55c.51,1.13.83,2.35,1.37,3.47,1.14,2.39,2.38,4.74,3.55,7.12a9.06,9.06,0,0,1,.33,1.19,41.14,41.14,0,0,0,1.49,4.43c.54,1.23,1.48,2.27,2.06,3.48,2,4.24,5.26,7.4,8.69,10.45,2.72,2.42,5.32,5,8,7.45,1.57,1.46,3.55,2.66,4.65,4.41,1.91,3,4.72,5.14,7.09,7.68,1.64,1.76,3.73,3.08,5.55,4.68.86.76,1.48,1.78,2.31,2.59,2.19,2.13,4.66,4,6.61,6.35a93.55,93.55,0,0,1,6.86,9.53c1.12,1.75,1.64,3.88,2.62,5.74.89,1.69,2,3.27,3.06,4.88,1.48,2.28,2.93,4.57,4.48,6.8,1.3,1.89,2.7,3.72,4.11,5.53s3.21,3.81,4.67,5.82c1,1.31,1.43,3,2.47,4.21,1.29,1.5,3,2.64,4.44,4s2.88,2.82,4.2,4.34c.74.85.2,4.95-.5,5.93a8.38,8.38,0,0,0-1.63,3c-.32,1.77-1.64,2.66-2.62,3.88s-1.68,2.56-2.61,3.78c-1.49,2-3.1,3.86-4.6,5.83-1,1.35-1.9,2.84-3,4.16q-2.87,3.59-5.91,7c-1.36,1.53-2.8,3-4.29,4.39-1.76,1.64-3.61,3.19-5.43,4.78-1.07.93-2.19,1.79-3.2,2.78a2.57,2.57,0,0,1-3.75.13c-2-1.95-4.06-3.83-5.95-5.86-.75-.8-1-2-1.67-2.93-2-2.86-4-5.67-6-8.51-.61-.87-1.1-1.83-1.74-2.67-1.5-2-3.16-3.87-4.57-5.92-.74-1.09-1.86-2-1.86-3.61,0-.89-1-1.83-1.6-2.67a50.74,50.74,0,0,0-3.52-4.33c-1.19-1.23-2.68-2.16-3.88-3.37-1.71-1.74-3.32-3.58-4.88-5.45-1.93-2.31-3.79-4.68-5.63-7.07-.74-1-1.34-2.05-2-3.05-.44-.63-1-1.2-1.43-1.83-1.15-1.63-2.31-3.25-3.38-4.92-.9-1.41-1.65-2.92-2.51-4.36a42.08,42.08,0,0,0-2.88-4.51,47.08,47.08,0,0,0-4-4.13c-3.1-3-6.32-6-9.3-9.12a46.94,46.94,0,0,1-4.05-5.5c-2.06-2.91-4.14-5.81-6.1-8.79-1.53-2.33-2.84-4.82-4.37-7.15-1.38-2.13-3-4.12-4.4-6.21a22.1,22.1,0,0,1-1.66-3c-.55-1.18-.89-2.47-1.47-3.64-1.06-2.16-2.38-4.21-3.33-6.42-1-2.36-2.75-4.38-3.05-7.12-.17-1.47-1.17-2.84-1.82-4.25-.56-1.21-1.1-2.44-1.75-3.61-1.17-2.11-2.47-4.15-3.62-6.27-.94-1.72-1.67-3.55-2.63-5.25s-2.08-3.23-3.06-4.88c-.78-1.32-1.42-2.74-2.17-4.08-.65-1.15-1.38-2.26-2.06-3.4a20.65,20.65,0,0,1-1.59-2.77c-1-2.52-1.82-5.1-2.78-7.63-.66-1.75-1.49-3.44-2.14-5.19a18.54,18.54,0,0,1-.37-2.29c-.18-.83-.57-1.62-.67-2.46a8.19,8.19,0,0,1,.34-2.09c-.71-.8-.62-1.68,0-3s.36-2.8.39-4.22c0-2.56,1.2-4.73,2.29-6.93.54-1.08.93-2.22,1.42-3.32,1.23-2.78,2.5-5.53,3.69-8.32a1.46,1.46,0,0,0-.36-1.14c-.66,0-1.71,0-1.92.32-1,1.72-1.73,3.58-2.61,5.37-.59,1.19-1.28,2.33-1.92,3.49a6.43,6.43,0,0,0-.42.77c-.8,2.11-1.73,4.19-2.33,6.36a32.27,32.27,0,0,0-.42,4.43c-.28,2.32-1,4.66-.88,6.95.18,2.47,1.18,4.89,1.84,7.33.07.29.3.56.3.84,0,2.51,1.26,4.56,2.3,6.72.66,1.37,1,2.88,1.61,4.28a21.72,21.72,0,0,0,1.38,2.5c1.12,1.94,2.68,3.76,3.27,5.85.7,2.53,2.34,4.17,3.87,6,.76.93,1,2.29,1.55,3.4,1,2,2.11,4.07,3.26,6.05s2.87,4,3.3,6.61c.22,1.33,1.25,2.52,1.9,3.78a2,2,0,0,1,.35.77c.1,2.26,1.33,4,2.42,5.87,1.2,2.06,1.59,4.62,2.94,6.54a4.55,4.55,0,0,1,.79,4.66,22.84,22.84,0,0,1-2.54,4c-1.53,2.21-3.16,4.36-4.63,6.6a49.47,49.47,0,0,0-2.82,5c-1.29,2.59-2.24,5.39-3.77,7.81-2.13,3.36-4.09,6.84-7,9.69-1.86,1.79-3,4.33-4.45,6.53a18.84,18.84,0,0,1-1.45,2.08c-1.59,1.81-1.3,1.61-2.44-.45s-.71-3.87-1.1-5.78c-.64-3.08-1.48-6.11-2.23-9.17,0-.17-.06-.35-.09-.53-.5-4.22-1-8.45-1.53-12.66-.29-2.18-.3-4.58-1.29-6.42s-.48-3.76-1.32-5.15c-1.16-1.91-.48-4.17-1.9-6-.94-1.2-1.06-3-1.67-4.5s-1.31-2.8-2-4.19a19.54,19.54,0,0,1-1.56-3.27c-1-3.58-3.09-6.49-5-9.52-2.21-3.45-4.33-7-6.72-10.28-1.81-2.49-4.37-4.49-5.86-7.13a47,47,0,0,0-2.85-4.47c-1.38-1.92-3-3.7-4.44-5.55-.38-.48-.72-1-1.13-1.46-3.45-3.85-6.89-7.71-10.38-11.53-2.28-2.51-4.54-5-7-7.41-1.68-1.63-2-3.75.55-6.09,2.85-2.62,5.49-5.48,8.35-8.09,2.31-2.11,4.4-4.41,7.15-6.14s4.63-4.56,6.91-6.9c1.76-1.82,3.47-3.68,5.28-5.44,1.54-1.5,3.2-2.85,4.76-4.32,2.26-2.14,4.18-4.57,7.13-6,1.72-.84,3-2.64,4.46-4,1.27-1.14,2.61-2.21,3.85-3.39s2.42-2.51,3.65-3.74c.9-.91,1.92-1.71,2.79-2.65,1.64-1.78,3.15-3.68,4.81-5.44,2.33-2.45,4.65-4.91,7.14-7.19a51.9,51.9,0,0,1,6-4.56,13.22,13.22,0,0,1,3.5-1.54c1.95-.6,3.94-1,5.91-1.57,1-.27,2.1-1.08,2.91-.84,2.1.63,4.09-.07,6.11,0,1.85.08,3.67.73,5.52.84,2.87.16,5.76.13,8.63.1,1.52,0,2.25.57,2.2,2.1A6.34,6.34,0,0,0,191,59c.46,3.5.73,7,1.45,10.48a39.32,39.32,0,0,0,2.5,7.4c1,2.34,2.42,4.51,3.48,6.83s1.85,4.67,2.81,7c.68,1.63,1.54,3.2,2.17,4.86s1,3.27,1.54,4.9c.71,2.15,1.47,4.28,2.19,6.43.12.33.14.7.25,1,.8,2.57,1.62,5.14,2.42,7.71a8.72,8.72,0,0,1,.16.89c.46,2.34.78,4.73,1.43,7,.57,2,1.5,3.9,2.27,5.84a2,2,0,0,1,.08.35c.47,3.69,1,7.37,1.35,11.07.08.85-.6,1.76-.93,2.64-.1.28-.2.55-.29.83-.88,2.47-1.75,4.94-2.65,7.4-.06.18-.33.28-.5.41a3.92,3.92,0,0,1-.62-.92C209.58,149.45,209.07,147.7,208.41,145.51ZM178.32,66.28c1.54,6.58,2.22,13.34,7.1,18.61a3.91,3.91,0,0,0-.18-4.91,6.64,6.64,0,0,1-1.46-2.26c-1-3.38-2-6.76-2.6-10.21C180.85,65.67,180.06,65.75,178.32,66.28Zm-43,140.05c2.28.9,3.7-.6,4.92-1.6a52.92,52.92,0,0,0,6.19-6.33c.72-.83,2.27-1.52,1.29-3.25-1-.06-1.77-.33-2.64,1-1.05,1.66-3.18,2.62-4.33,4.25a10.06,10.06,0,0,1-5.31,3.92Zm15.54-59.56c-.41-1-.72-1.9-1.1-2.73a38.85,38.85,0,0,1-1.76-3.76c-.63-1.89-1-3.84-1.54-5.88H144.3c-.43,3.86,1.24,7,3.17,10a3.31,3.31,0,0,1,.47.89C148.26,146.55,149,147.1,150.89,146.77ZM116.31,122.9c-.82.07-1.72-.12-2.16.24A55.35,55.35,0,0,0,109,128c-.36.4,0,1.44,0,2.18a12.23,12.23,0,0,0,1.47-.67,7.34,7.34,0,0,0,1-.83l4.45-3.89.41.36Zm78.15-18.59c1.39-3.16-1-5.08-1.28-7.47,0-.26-1.12-.42-1.72-.63-.17.51-.57,1.08-.46,1.52a37.89,37.89,0,0,0,1.66,5.2C192.89,103.49,193.75,103.79,194.46,104.31Zm-6.87,2.94-1.62.83a12.2,12.2,0,0,0,.8,1.09,37,37,0,0,0,3.08,3.18,5.74,5.74,0,0,0,2.05.64c.14-.57.52-1.23.36-1.7a3.88,3.88,0,0,0-1.31-1.63C189.88,108.8,188.72,108.05,187.59,107.25Z"/><path class="cls-1" d="M198.38,313.9c1,1.8,1.91,3.43,2.86,5,.32.54.9.95,1.13,1.51,1,2.5,3.07,4.37,4.12,6.92.63,1.53,2.4,2.56,3.57,3.9a27.3,27.3,0,0,1,2.5,3.28c1.36,2.14,2.59,4.38,3.94,6.52.88,1.39,2,2.63,2.83,4.05,1.27,2.22,2.31,4.57,3.55,6.8,1,1.79,2.19,3.46,3.21,5.22s2,3.68,3,5.54c1.22,2.35,2.43,4.71,3.6,7.09a21.92,21.92,0,0,1,1.26,3c.57,1.68.93,3.44,1.56,5.09s1.47,2.93,2.12,4.44a41.52,41.52,0,0,1,1.45,4.05c.72,2.36,1.07,2.6,4.13,2.06-.59-1.49-1.09-2.91-1.7-4.28s-1.61-2.94-2.12-4.5c-.65-2-.92-4.07-1.5-6.06a14.24,14.24,0,0,0-1.4-2.92c-1-1.69-2.06-3.32-3-5-.76-1.42-1.29-2.95-2-4.41-.48-1-1-1.95-1.59-2.93-1.2-2.19-2.36-4.41-3.61-6.57-1-1.65-2.06-3.22-3.06-4.85a19.25,19.25,0,0,1-1.7-3.07,32,32,0,0,0-7.24-10.89,29.06,29.06,0,0,1-3-4.28c-1.76-2.67-3.35-5.47-5.28-8a16.11,16.11,0,0,1-2.45-4.3,25.54,25.54,0,0,0-2.12-3.77.83.83,0,0,1-.09-.16A37.52,37.52,0,0,1,200,306.4a52.08,52.08,0,0,1,.05-9.51c.23-2.1,1.32-4.11,2-6.16.08-.22.14-.45.21-.68.54-1.89,1-3.78,1.65-5.64.19-.54.79-.93,1.12-1.44a62.69,62.69,0,0,1,5.7-7.19c1.08-1.25,1.85-3,3-4.33.63-.76,1.12-1.64,1.7-2.44a1.38,1.38,0,0,1,2.27.12q3.3,4.25,6.71,8.42c1.56,1.92,3.15,3.83,4.79,5.68,1.33,1.49,2.82,2.83,4.11,4.34a26.6,26.6,0,0,1,2.08,3.2c.1.15.12.34.22.48,2,2.39,4,4.74,5.86,7.16,2.18,2.75,4.61,5.37,6.3,8.4C249,309,250.43,311,251.81,313c2.28,3.37,4.47,6.89,7.79,9.29,1.44,1,3.26,2.6,5.36,1.6a24.52,24.52,0,0,0,4.52-3c1.58-1.26,3-2.75,4.54-4,1-.78,2.41.17,3.06,1.68s1.45,2.75,2.15,4.14a31.61,31.61,0,0,1,1.44,3.2c.59,1.65,1,3.37,1.61,5,.31.83,1,1.53,1.3,2.35.9,2.22,1.57,4.53,2.6,6.68s2.68,3.83,3.36,6c.77,2.4,2.5,3.88,4,5.62,1.73,2.06,3.59,4,5.43,6a26.57,26.57,0,0,0,2.1,1.86c1.79,1.55,3.56,3.13,5.39,4.62a9.39,9.39,0,0,0,2.74,1.71c3.18,1.06,6.46,2,9.83,1.18a48.33,48.33,0,0,0,5.28-2.1c1.57-.59,3.19-1.06,4.78-1.61.6-.21,1.18-.49,2-.83,1.91,1,4,2.26,6.16,3.26.82.37,1.91.09,2.83.31a11.53,11.53,0,0,1,4,1.4c1.1.79.46,2.11-.28,3a11.44,11.44,0,0,1-2.14,2c-1.66,1.23-2.67,3.09-4.63,4.1-1.69.88-2.85,2.7-4.44,3.84-2.35,1.69-4.25,4-6.59,5.47s-4.06,3.24-6.48,4.35c-2.68,1.22-5.06,3.09-7.64,4.55-2,1.14-4.13,2-6.16,3.12-1.57.85-3.05,1.85-4.6,2.75a27.89,27.89,0,0,1-3.78,2c-2.11.83-4.18,2-6.63,1.46-.25-.05-.64.34-.9.59-1.42,1.35-2.74,2.85-4.28,4.05a26.23,26.23,0,0,1-3.52,1.75c-2.62,1.48-5.17,3.1-7.84,4.51a40.32,40.32,0,0,1-4.38,1.66c-1.13.43-2.26.86-3.37,1.36-1.57.72-3.11,1.49-4.67,2.24a.6.6,0,0,1-.15.09c-1.9.45-3.81.89-5.7,1.36-1,.25-2,.61-3,.81a5.6,5.6,0,0,1-2.08.07,37.42,37.42,0,0,1-3.76-.91c-2.37-.66-4.73-1.36-7.09-2.05-.4-.12-.79-.32-1.19-.4a54.88,54.88,0,0,1-7-1.44,56.54,56.54,0,0,1-6.65-3.23,4,4,0,0,0-.8-.35c-2.09-.48-4.2-.87-6.27-1.43-.74-.2-1.34-.88-2.06-1.18A28,28,0,0,1,212,410c-2.4-1.42-5.2-1.59-7.61-2.66-1.84-.82-3.61-.73-5.39-1.15-2.08-.49-4.07-1.34-6.12-2a8.88,8.88,0,0,0-2.45-.38c-4.37,0-8.75,0-13.5,0-.35-1.73-.58-3.41-1-5-.63-2.19-1.43-4.32-2.16-6.48,0-.11-.13-.21-.16-.32-.5-2.53-.84-5.1-1.55-7.57-1.24-4.37-1-8.82-.9-13.24a104.71,104.71,0,0,1,1.13-12.37c.3-1.95,1.4-3.78,2.13-5.67a1.33,1.33,0,0,0,.16-.5c0-2.36,1.35-4.12,2.4-6.06,1.14-2.12,1.82-4.48,2.88-6.65s2.25-4,3.38-6c1-1.75,1.92-3.52,2.93-5.25a17.91,17.91,0,0,1,1.44-2c2.5-3.16,5-6.33,7.54-9.45C196,316.17,197.07,315.23,198.38,313.9ZM250.45,344c.53-1.66.47-3.1-1.67-3.69-.27-.08-.44-.48-.68-.71a55.48,55.48,0,0,0-4.3-4.11,25.85,25.85,0,0,1-5.94-7,31.22,31.22,0,0,1-3-6.31c-1-3-1.27-5.85,0-8.74.55-1.22.24-1.82-1-2a1.79,1.79,0,0,0-2.18,1.63c-.55,4.49-.65,9.14,1.44,13.15,1.55,3,3.2,6.06,5.87,8.44,2.85,2.54,5.28,5.56,8.05,8.22C247.84,343.65,248.65,345.14,250.45,344Z"/><path class="cls-1" d="M84.32,413.9a12.48,12.48,0,0,1-2.87,0A54,54,0,0,1,76,412.08c-1.61-.59-3.21-1.24-4.76-2-1.86-.89-3.7-1.85-5.49-2.88s-3.77-2.24-5.54-3.52a17.21,17.21,0,0,1-3.12-2.91c-1.63-2-3.16-4-4.65-6.12-.65-.91-1.08-2-1.65-2.95-1-1.77-2.2-3.47-3.19-5.27-.78-1.44-1.41-3-2.08-4.47-1.1-2.51-2.18-5-3.28-7.54A5.16,5.16,0,0,1,42,374c-.54-2-1-4.1-1.65-6.08-.56-1.66-1.51-3.18-2.06-4.83a30.53,30.53,0,0,1-.41-3.36c-1.26-6.11-1.18-12.29-1.16-18.47,0-3,1.27-5.59,2.21-8.34.65-1.91,2-3.07,3-4.6a4.59,4.59,0,0,1,1.68-1.35c2.41-1.35,3.52-3.6,4.69-6,1.43-2.93,1.56-6.15,2.55-9.1,1.95-5.78.68-11.58,1-17.35a6.81,6.81,0,0,0-.75-2.21,8.16,8.16,0,0,1-.36-1.19c-.47-2.4-.79-4.83-1.41-7.19a30.89,30.89,0,0,0-1.83-4.29c-.66-1.52-1.26-3.07-2-4.57s-1.46-2.81-2.17-4.22a25.91,25.91,0,0,1-1.24-2.61c-.58-1.52-1-3.1-1.6-4.6s-1.3-2.85-2-4.26c-.58-1.22-1.16-2.45-1.81-3.64s-1.52-2.53-2.23-3.82a31.57,31.57,0,0,1-1.48-3q-1.39-3.32-2.68-6.67c-.9-2.34-1.71-4.73-2.63-7.07-.67-1.73-1.44-3.42-2.17-5.13a2,2,0,0,1-.08-.35c-.49-2.21-1-4.43-1.48-6.64a77.49,77.49,0,0,1-2-8.26c-.29-2.39-.89-5,.52-7.3a.65.65,0,0,0,.13-.33c-.56-2.86,1.35-5.2,1.68-7.91.23-2,1.29-3.82,1.89-5.75a11.69,11.69,0,0,0,.32-2.31c.35-3.84,2.92-6.31,5.5-8.72,1.08-1,2.2-.39,3.19.43,2.39,2,4.83,3.93,7.21,5.95,1.1.94,2.1,2,3.15,3,2,1.95,4.13,3.82,6,5.88a43.75,43.75,0,0,1,2.9,4c1.45,1.94,3.05,3.79,4.41,5.79,1.17,1.71,2.11,3.57,3.11,5.39.52.93.95,1.92,1.46,2.86,1.68,3.13,3.23,6.35,5.15,9.33,1,1.62,2.75,2.8,4.1,4.23,1.12,1.18,2.15,2.46,3.25,3.65,1.47,1.6,2.88,3.25,4.48,4.71s3.76,2.68,5.27,4.36c2.74,3.06,6.37,5.39,8.09,9.35.16.36.8.49,1,.85,1.57,2.61,2.7,5.37,2.3,8.5-.11.91-.85,1.8-.78,2.66.32,3.58.41,7.29,1.45,10.68a41.5,41.5,0,0,1,1,5.82c.43,2.66.55,5.47,1.56,7.9.83,2,.37,4,1,5.81,1.74,4.94.4,10.15,1.48,15,1.3,5.9,0,11.87,1.13,17.62,1.25,6.47.8,12.94,1.31,19.4.17,2.09.93,4.19.81,6.24a51.08,51.08,0,0,1-1.51,11.56c-.84,2.86-.65,5.62-.91,8.43-.49,5.48-.84,11-1.51,16.44a59,59,0,0,1-1.93,7.5,5.49,5.49,0,0,0-.17.7c-.51,2.88-.72,5.86-1.62,8.62a11.38,11.38,0,0,1-4.28,6.29A16.77,16.77,0,0,1,84.32,413.9ZM49.86,322.6c-.49,1.86-1.17,3.06.35,4.38s2.9,3.16,4.43,4.67A3.87,3.87,0,0,0,58.21,333a7.44,7.44,0,0,0,1.18-.47,4.36,4.36,0,0,0-.55-1c-.82-.82-1.65-1.63-2.53-2.38a33.42,33.42,0,0,1-2.86-2.26C52.26,325.69,51.23,324.28,49.86,322.6Zm17.38,17,.16-.32c1.84,0,3.68.08,5.51,0a2.07,2.07,0,0,0,1.53-1c.37-1-.48-1.22-1.25-1.54-2-.87-4-.12-6,.08a1.4,1.4,0,0,0-1.42,1.79C65.82,339,66.72,339.23,67.24,339.57ZM64.82,322.5c-.77-.7-1.3-1.5-2-1.75-2.45-.86-4.75-.13-7.06,1.24l.18,1.73Z"/><path class="cls-1" d="M101.25,251.83a7.11,7.11,0,0,0-1.5,0,2.42,2.42,0,0,1-2.88-1.12c-1.77-2.27-2.18-3.93-1.08-6.6a4.4,4.4,0,0,0,.2-2.28,35.9,35.9,0,0,0-1-4.45,1.26,1.26,0,0,0-1-.63c-.45.06-1.2.45-1.22.74a6.47,6.47,0,0,0,.27,3c1,2.11.92,2.59-.93,3.6-2.6-2.12-5.17-4.12-7.63-6.24-1.53-1.32-2.9-2.83-4.34-4.25-1.19-1.16-2.47-2.24-3.54-3.5a47.55,47.55,0,0,1-3-4.16c-1.55-2.27-3.12-4.54-4.59-6.86-.74-1.16-1.28-2.45-1.92-3.67-.21-.4-.48-.77-.7-1.16-1.06-1.84-2.1-3.68-3.15-5.52-.85-1.48-1.59-3-2.57-4.42a45.6,45.6,0,0,0-3.7-4.5c-2.34-2.53-4.76-5-7.15-7.47-1.86-1.93-3.64-3.95-5.6-5.77-1.22-1.13-2.85-1.83-4-3a58.1,58.1,0,0,1-4.8-5.36A40.81,40.81,0,0,1,32,173.48a31.52,31.52,0,0,1-1.68-3.8c-.52-1.19-1.06-2.38-1.56-3.58-.33-.79-.61-1.59-.92-2.39-.67-1.77-1.35-3.55-2-5.32-.11-.27-.36-.51-.36-.77,0-5.64-2.26-11.13-1.3-16.81a51.37,51.37,0,0,1,2.05-6.72,5.16,5.16,0,0,0,.25-1,13.76,13.76,0,0,1,2.4-6.7c.77-1.15.86-2.73,1.48-4a27.68,27.68,0,0,1,2.86-5,21,21,0,0,1,3.63-3.26,59.56,59.56,0,0,1,6.1-4.58,18.29,18.29,0,0,1,5-1.78c.45-.12,1.09.51,1.64.79a16.38,16.38,0,0,1,3.05,1.61c2.38,2,4.57,4.19,7,6.13,3,2.37,6.09,4.54,9.12,6.83.78.59,1.46,1.31,2.19,2,1.57,1.42,3.15,2.82,4.71,4.25A20.46,20.46,0,0,0,78.42,132c1.74,1.09,2.63,3,4.6,4,1.28.61,2,2.33,3,3.52,1.44,1.67,2.92,3.31,4.36,5a4.89,4.89,0,0,1,.67,1.12c.15.32.16.95.32,1,2.44.45,2.87,3,4.29,4.43,1.1,1.12,2.88,2.17,3.2,4.32.16,1.11,1.63,2.14,2.69,3a14.13,14.13,0,0,1,3.62,4.52,42.56,42.56,0,0,0,4,5.55,51.19,51.19,0,0,0,4.79,5.94,24.9,24.9,0,0,1,3.92,5.43c1.17,1.93,2.5,3.78,3.57,5.76,1,1.83,1.7,3.8,2.57,5.69.42.93.91,1.83,1.38,2.73,1.14,2.17,2.45,4.26,3.37,6.51a55.59,55.59,0,0,1,1.56,6c.7,2.51,1.48,5,2.22,7.52a3.19,3.19,0,0,1,.19.48c.46,3,.93,5.92,1.33,8.88.51,3.74.56,7.6,1.58,11.19.61,2.14.5,4.39,1.27,6.35.85,2.18.35,4.56,1.17,6.5,1.13,2.67,1.06,5.61,2.39,8.16.15.29.67.48.69.74.05.63.15,1.55-.2,1.85-1.5,1.3-3.19,2.38-4.75,3.62-1.73,1.38-3.39,2.86-5.1,4.28-.17.14-.5.15-.59.32-1.69,3.05-4,5.95-4.85,9.23a15.76,15.76,0,0,0,.29,9.82,16,16,0,0,1,.5,3.71c.48,3.74.81,7.51,1.49,11.21.48,2.6,1.47,5.11,2.15,7.68a12.68,12.68,0,0,1,.16,2.32c.46,6,.55,12.14,1.57,18.09.41,2.4.77,4.79,1.05,7.21.21,1.78-.9,2.73-1.92,3.74a21.56,21.56,0,0,0-4.63,5.73c-1.84,3.71-4.77,6.69-7.78,9.53-1,.95-2.11,1.82-3.13,2.76-1.9,1.74-3.22,1.31-4.06-1.15-.63-1.88-1.52-3.68-2.3-5.52a2.61,2.61,0,0,1-.21-.67c-.43-3.74-1-7.48-1.26-11.24-.31-4.16-.32-8.31-.89-12.49-.79-5.73-.31-11.61-.63-17.41-.26-4.79-.83-9.57-1.37-14.35a60.21,60.21,0,0,0-1.14-6.25c-.68-3-1.56-6-2.2-9.05a58.37,58.37,0,0,1-1.37-8.47,117.31,117.31,0,0,1,.06-11.86c.06-1.47.81-2.9,1.11-4.37A14.68,14.68,0,0,0,101.25,251.83Zm19-21.11c0,2,0,3.75,0,5.54a29.11,29.11,0,0,1-.39,3.73c-.21,1.33-.89,2.68-.77,3.95.42,4.27-1,8.59,1,12.86,1,2.25.85,5.05,1.23,7.64h3.25a24,24,0,0,1-1.61-4.05,67.45,67.45,0,0,1-1.19-8.37c-.21-3-.11-6.11-.09-9.16a5.31,5.31,0,0,1,.33-2.11c1.44-3.34.54-6.77.84-10.37Zm2-18.7a5.07,5.07,0,0,0-.74-1.3,1.21,1.21,0,0,0-1.15-.21c-1.72,1.42-3.33,3-5.06,4.39a13.42,13.42,0,0,1-5.73,3,23.58,23.58,0,0,0-2.29,1,1.34,1.34,0,0,0-.67,2.35c.58.67,1.6.7,2.44-.27s3-.81,3.52-.07c1.53,2.24,4.85,2.89,8.09,1.15-1.41-.42-2.42-.65-3.36-1s-1.89-.65-2.3-1.31-.19-1.64,1-2c.76-.25,1.3-1.17,2-1.77C119.36,214.59,120.75,213.36,122.25,212Z"/><path class="cls-1" d="M260,91.49c1.66,1.24,3.25,2.3,4.69,3.55,2.05,1.79,4,3.69,6,5.58s4.14,4,6.1,6c1,1.11,1.75,2.53,2.75,3.69,1.41,1.64,2.89,3.23,4.44,4.74,2.85,2.78,5.64,5.55,7.35,9.26.61,1.33,1.79,2.39,2.6,3.64,1.23,1.91,2.37,3.87,3.53,5.82s2.2,3.74,3.29,5.62a2.35,2.35,0,0,1,.31.82,13.76,13.76,0,0,0,2.42,5.9c.8,1.18.9,2.81,1.48,4.17,1.06,2.48,2.25,4.91,3.37,7.37a3.15,3.15,0,0,1,.39,1,10.43,10.43,0,0,0,2.34,5,13.42,13.42,0,0,1,1.23,3c.58,1.52,1.13,3,1.71,4.55.39,1,.82,2,1.23,3,1.17,2.83,2.38,5.64,3.49,8.48a38.44,38.44,0,0,1,1.11,3.8c.55,2.07,1,4.16,1.62,6.21.74,2.49,1,5.11,2.34,7.45.95,1.65-.59,2.7-1.47,3.85a56.06,56.06,0,0,1-3.52,4.46,6.09,6.09,0,0,1-2.68,1.58,8.6,8.6,0,0,1-3,.06c-2.3-.21-4.07.9-5.76,2.21-1.21,1-3.28-.12-3.44-1.95-.23-2.56-2.16-3.73-3.82-5.15-.91-.78-1.84-1.56-2.82-2.25a15.48,15.48,0,0,0-2.53-1.45c-1.1-.5-2.27-1.27-3.38-1.23-2.51.1-4.62-1.12-6.91-1.69a55.12,55.12,0,0,1-5.47-2,4.11,4.11,0,0,0-.68-.21c-2.73-.47-5.45-1-8.19-1.37-.94-.13-1.73-.36-1.73-1.4,0-3.95-2.45-6.7-4.57-9.59-1.16-1.56-2.68-2.86-4-4.34-1.43-1.65-2.7-3.44-4.17-5.06-1.89-2.08-3.9-4.06-5.88-6.07a6.22,6.22,0,0,0-1.26-1.15c-1.55-.87-3.14,0-4,2-.7,1.49-1.7,2.83-2.49,4.27-.54,1-1,2.06-1.44,3.09a15.22,15.22,0,0,1-4.52,5.76,35.34,35.34,0,0,0-2.94,3.05,15.6,15.6,0,0,1-1.9,1.65c-1.08.75-2.54.13-3.4-1-1.36-1.77-2.92-3.39-4.4-5.07-1-1.11-2-2.08-2.07-3.81,0-.94-.81-1.86-1.18-2.82-.86-2.23-1.54-4.55-2.56-6.7-.93-2-2.27-3.72-3.31-5.63a5,5,0,0,1-.42-2.22,44.84,44.84,0,0,1,.15-5.56,20.76,20.76,0,0,1,1.05-2.91c.53-1.92.81-3.91,1.45-5.78a32.51,32.51,0,0,1,2.07-4c.51-1,.94-2,1.48-3,1.62-3,3.42-5.91,4.88-9a38,38,0,0,0,1.63-5.57,21.51,21.51,0,0,0,.88-2.6,28.78,28.78,0,0,0,.35-4.25c0-1.32.57-2,1.9-2,2.93-.17,4.92-2,6.9-3.91a25,25,0,0,1,4.4-3.64,26,26,0,0,1,7.69-2.7,12.76,12.76,0,0,0,8.07-5A13,13,0,0,0,258,97.18C258.7,95.4,259.27,93.6,260,91.49Z"/><path class="cls-1" d="M249.48,48.29c0,2.58-2.29,2.78-3.68,3.58A8.18,8.18,0,0,0,243,55c-1.52,2.46-2.66,5.15-4.15,7.63A4.14,4.14,0,0,1,235.44,65c-2.18.21-4.28,1.31-6.43,2-.76.23-1.56.34-2.8.6-.37-2.84-.61-5.39-1.06-7.9a10.92,10.92,0,0,0-1.29-3.42,21.9,21.9,0,0,0-2.48-3.3c-1-1.21-2.41-.95-3.5-.32A39.38,39.38,0,0,0,213.09,56a7.16,7.16,0,0,0-1.62,1.92c-1.25,2-2.51,4-3.6,6.06-.67,1.28-1,2.75-1.56,4.07-.68,1.49-1.54,2.9-2.27,4.38a29.43,29.43,0,0,0-1.55,3.44,2.08,2.08,0,0,1-2.42,1.61,3,3,0,0,1-2.65-2.11c-1.62-4.25-1.82-8.83-2.87-13.18a27,27,0,0,1-.85-8.89c.17-1.79,1.23-3.49,1.9-5.22.12-.33.33-.63.46-1,.84-2.2,2.08-4.34,2.39-6.61.37-2.63,2-4.56,2.89-6.86A17.57,17.57,0,0,1,203.79,30c1.13-1.53,2.34-3,3.46-4.54,1.34-1.83,3.08-3.55,3.8-5.62s2.39-3.58,3.77-5.17c1.54-1.77,2.69-4,5-5q1.81-.84,3.63-1.74a18.1,18.1,0,0,0,3.29-1.74c4.95-3.92,10.72-4.12,16.41-3,2.32.46,4.65.46,6.91.95a32,32,0,0,1,6.14,2.08,24,24,0,0,1,5.27,3c2,1.62,3.75,3.63,5.66,5.41,1.69,1.58,3.48,3.06,5.17,4.64a11.27,11.27,0,0,1,2.25,2.59c1.55,2.82,3.22,5.57,4.06,8.75a33.48,33.48,0,0,0,2.49,6.93c2.28,4.37.81,8.92.93,13.38,0,1-.82,2.16-1.48,3.09-.93,1.3-1.23,3.1-3.17,3.65-1.56.43-3,1.51-4.54,1.81s-3.47.73-4.86-.86c-.12-.14-.45-.14-.68-.15-3.34-.07-5.52-2.29-7.83-4.25s-4.36-3.95-6.73-5.68C252,48,250.65,48.36,249.48,48.29Z"/><path class="cls-1" d="M136.11,331.69c-2.51-3.12-1.81-6.48-2.08-9.67-.41-4.91-.69-9.83-1.35-14.71-.37-2.65-1.53-5.18-2.12-7.82-.31-1.38,0-2.89-.27-4.29-.66-3.66-1.6-7.28-2.19-10.95-.31-1.93,0-4-.2-5.92-.24-2.36.89-4.11,2.08-5.93.74-1.14,1.06-2.58,1.9-3.61a33,33,0,0,1,3.93-3.72c2.48-2.14,4.93-4.32,7.54-6.29,1.62-1.23,3.51-2.09,5.25-3.18,1.54-1,3-2.07,4.56-3a33,33,0,0,1,3.74-1.92c1.81-.79,3.67-1.48,5.51-2.2a4.15,4.15,0,0,1,.53-.1,52.55,52.55,0,0,1,15.3-1.51,17.79,17.79,0,0,1,8.21,2.42,15.69,15.69,0,0,0,3.64,1.19c2.12.56,4.26,1.09,6.41,1.57s4.54.56,6.5,1.49c2.15,1,3.93,2.8,5.86,4.26.08.06.11.3.15.3,2.75-.09,2.41,2.68,3.61,4,2.61,2.9,2.2,5.11-.58,7.65-1.79,1.63-3.67,3.21-4.76,5.57-.59,1.29-2,2.23-3,3.34-.18.2-.44.42-.45.65-.14,2.11-1.78,3.41-2.67,5.11-.05.1-.13.23-.22.26a28.46,28.46,0,0,1-4.58,1.42,13.29,13.29,0,0,0-5.39,2.3c-.92.61-2,1-2.94,1.55-2.41,1.33-4.84,2.62-7.19,4-1.89,1.13-3.7,2.36-5.5,3.61-2.85,2-5.63,4.05-8.5,6-2.21,1.5-4.54,2.83-6.79,4.29-.73.48-1.3,1.22-2.05,1.66a8.71,8.71,0,0,1-2,.62c.16-.53.31-1.07.48-1.6s.33-.77.43-1.17c.92-3.62,2.9-6.71,4.58-10,1.36-2.66,3.78-4.23,5.23-6.59,1.3-2.12,3.28-3.27,5-4.86a27,27,0,0,0,2.85-3.58c1.52-2,3.14-4,4.51-6.08,1.51-2.33,3.78-4.41,3.13-7.86l-2.42.15c.1,2.2-.85,3.71-2.14,5.42s-3,3.15-3.92,5a12.14,12.14,0,0,1-2.76,3.67c-1.58,1.5-3.14,3-4.58,4.69-2,2.29-3.92,4.66-5.78,7.07a38.92,38.92,0,0,0-3,4.52,41.7,41.7,0,0,0-2,4.34c-.63,1.46-1.2,2.94-1.79,4.43a4.83,4.83,0,0,0-.65,2c.34,3-1.79,4.74-3.41,6.65-2.88,3.39-6,6.6-8.93,9.91C139.22,328,137.7,329.84,136.11,331.69ZM181,282.9a2.88,2.88,0,0,0-3.84,1.77,6.08,6.08,0,0,1-1.71,2.74c-.9.66-1,1.37-.4,1.84a2.07,2.07,0,0,0,2-.24C178.45,287.12,179.63,285.09,181,282.9Zm1.06,3.91-.24.11.87,1.85a19,19,0,0,0,1-1.9,1.46,1.46,0,0,0,0-1.05,5.79,5.79,0,0,0-.84-1.11,6.27,6.27,0,0,0-.68,1.05A3.61,3.61,0,0,0,182.08,286.81Z"/><path class="cls-1" d="M272,62.53c.68,2.92-1.07,5-2.55,7.21-1.08,1.58-2.38,3-3.51,4.55s-2.11,3-3.12,4.6A60.92,60.92,0,0,0,258.4,86c-.87,1.89-.92,4.15-1.51,6.19-.56,1.89-1.34,3.71-2.06,5.55-.29.75-.47,1.82-1,2.15-1.83,1.07-3.92,1.7-5.73,2.79s-4,1-6.05,1.45c-1.5.32-2.68,1.91-4.16,2.58-2.56,1.15-4,3.49-6,5.21-2.37,2-6.89,1-8-1.8a38.45,38.45,0,0,0-2.11-3.88,1.06,1.06,0,0,1-.14-.33,41.77,41.77,0,0,0-1.43-6.06c-.76-2-.66-4.52-3.24-5.58l-1.44,2.42a42,42,0,0,1,1.91,4c.63,1.81.86,3.77,1.6,5.52,1.19,2.81,1.39,6.2,4.44,8,.28.17.38.67.53,1,.26.63.5,1.26.79,2a5.9,5.9,0,0,0-.6,1.41c-.5,2.86-.78,5.77-1.46,8.59a24.16,24.16,0,0,1-2.06,4.53c-.72,1.54-1.45,3.07-2.28,4.84-.67-1.63-1.75-3.06-1.73-4.48,0-2.83-1-5.37-1.59-8a44,44,0,0,0-2.08-5.53c0-.06,0-.12,0-.18-.54-2.49-1-5-1.66-7.46-.56-2-1.37-4-2.07-6,0-.11-.15-.19-.18-.29-.53-1.87-1-3.77-1.58-5.61s-1.34-3.43-2-5.17-1-3.28-1.69-4.86-1.38-2.82-2.06-4.23a23.92,23.92,0,0,1-1.45-3.34,1.66,1.66,0,0,1,.68-1.45A10.77,10.77,0,0,0,206.3,74c.62-1.51,1.63-2.84,2.38-4.3a20.37,20.37,0,0,0,1.06-2.61c.55-1.51,1-3.06,1.62-4.54a8.32,8.32,0,0,1,1.45-2.46c1.66-1.78,3.4-3.49,5.23-5.1a1.84,1.84,0,0,1,1.76.09A12.19,12.19,0,0,1,221.33,59a35.68,35.68,0,0,1,.15,5.38,9.25,9.25,0,0,0,2.51,6,2.86,2.86,0,0,0,2.21.42,6.91,6.91,0,0,0,2.27-1,30.56,30.56,0,0,1,3.26-2,8.14,8.14,0,0,1,2.93-.44c3.5-.11,4.76-1,5.94-4.27.17-.49.78-.8,1.06-1.26,1.3-2.2,2.53-4.44,3.86-6.62a8.65,8.65,0,0,1,1.3-1.26c2.38-2.5,5.23-2.42,7.58.09.62.67,1.67.92,2.38,1.52,1.13,1,2,2.29,3.22,3.07,3.27,2,6.41,4.62,10.73,3.7a2.7,2.7,0,0,1,.89.05A1.63,1.63,0,0,1,272,62.53Z"/><path class="cls-1" d="M84.24,121.72c-1.42-2.24-2.62-4.18-3.88-6.09-2.15-3.26-5.27-5.48-8.39-7.69a1.38,1.38,0,0,0-.67-.2c-3.45-.44-6.89-1-10.36-1.26-3.89-.24-3.84-.09-4-3.87A18.51,18.51,0,0,0,56,99.76a15.44,15.44,0,0,1-.4-3c-.08-2.1-.15-4.2,0-6.3.14-3-1.12-5.6-1.89-8.36A34.17,34.17,0,0,1,53.17,78c-.43-3-.77-5.93-1.43-8.82a76.44,76.44,0,0,0-2.44-7.75c-.66-1.9-1.47-3.75-2.21-5.62a2.35,2.35,0,0,1-.14-.69,17.48,17.48,0,0,0-2.41-7,1,1,0,0,1-.08-.35l-1.53-7.21A76.47,76.47,0,0,1,41,31.3c-.2-2.31.49-4.69.79-7.06,1.6,0,3.27-.43,4.51.11a12.73,12.73,0,0,1,3.94,3.3,37.76,37.76,0,0,1,4.51,5.68c1.8,2.92,4.54,5.32,4.87,9.12.11,1.21,1.38,2.3,2,3.49.52,1,.87,2.05,1.36,3.05,1.65,3.31,3.4,6.58,5,9.93a38.08,38.08,0,0,0,6.1,8.63c1.49,1.71,2.72,3.63,4.17,5.38A45.66,45.66,0,0,0,84,79.32a45.16,45.16,0,0,1,3.81,3c1.53,1.58,3.08,3.14,4.58,4.76,1.09,1.18,2.16,2.39,3.14,3.67,1.12,1.48,2.16,3,3.18,4.57A17.9,17.9,0,0,1,101,99.18c.72,2.15,1.61,4.48,1.4,6.63-.19,1.91-2,3.48-3.92,4.42a5.88,5.88,0,0,0-1.46.85c-3.65,3.31-7.24,6.67-10.92,9.94A4.78,4.78,0,0,1,84.24,121.72Z"/><path class="cls-1" d="M49.68,104.79a5.8,5.8,0,0,1-1.1.27c-2.73-.27-4.77,1.21-7.07,2.38-3.25,1.65-5.56,4.28-8.21,6.55-.84.73-1.35,1.56-2.7,1a36.36,36.36,0,0,0-1.73-5.09c-.87-1.74-2.19-3.24-3.21-4.92s-2-3.55-3-5.31c-.65-1.15-1.39-2.25-2-3.4a21.9,21.9,0,0,1-1.45-3c-.6-1.62-.94-3.34-1.61-4.93-.88-2.09-2-4.08-2.94-6.14-.72-1.57-1.33-3.18-2-4.76S11.22,74,10.46,72.34a23.74,23.74,0,0,1-1.37-3,38.68,38.68,0,0,1-1.41-6.5,33.68,33.68,0,0,1,.1-7.71c.36-2.4,1.58-4.66,2-7,.55-2.9,3.11-4,4.77-5.84a23.51,23.51,0,0,0,4.66-6.94c.82-2.08,1.68-4.34,3.63-5.63a4.15,4.15,0,0,1,3.13-.1c.69.22,1.25,1.19,1.63,1.94A12.09,12.09,0,0,1,29,35.07c.47,3,1.55,5.81,1.59,9,0,2.65,1.31,5.29,2.08,7.92.48,1.67,1,3.31,1.59,5,.37,1.12.74,2.24,1.2,3.33.68,1.63,1.44,3.22,2.15,4.84a2.51,2.51,0,0,1,.28,1c-.09,2.57,1.18,4.66,2.34,6.79a1.53,1.53,0,0,1,.13.52c.52,3,.91,6.07,1.58,9.06a36.88,36.88,0,0,0,1.89,5c.59,1.53,1.19,3,1.73,4.6.77,2.23,1.52,4.48,2.22,6.73.32,1,.44,2.1.76,3.11S49.24,103.71,49.68,104.79Z"/><path class="cls-1" d="M310.27,266.38c-2.79-.5-5.57-1.1-8.39-1.46a19.12,19.12,0,0,0-5.18,0c-2.1.33-3.22-.86-4.31-2.2s-2.05-2.73-3-4.12c-.7-1-1.31-2-2.06-3-1.36-1.7-2.81-3.32-4.17-5a30.43,30.43,0,0,1-2.12-3c-1.48-2.38-2.8-4.87-4.4-7.16-1.33-1.91-1.06-2.83,1.07-3.69a75.76,75.76,0,0,0,7.26-3.51,63.47,63.47,0,0,0,6.91-4.06,35.09,35.09,0,0,0,4.34-4.12c1.95-2,3.79-4.08,5.82-6,1.82-1.69,3.63-3.58,5.81-4.61,1.71-.81,3.4-2.18,5.69-1.8a41.82,41.82,0,0,0,5.93.09c4.4.09,7.27,2.55,9.68,6a14.61,14.61,0,0,1,2.64,6.58c.22,1.48,1.46,2.92,1,4.55-.57,1.94-1.53,3.77-2.16,5.69a9.92,9.92,0,0,1-2.67,4.24c-1.83,1.76-3.73,3.4-5.74,5-2.77,2.18-5.66,4.41-7.37,7.89-1.18,2.4.41,3.68,1,5.3s2,3.09,2.93,4.69c.61,1.08-1.17,3.16-2.83,3.25-1.85.1-3.71,0-5.57,0Zm-.36-20.55L309,247.5c2,2.22,2.74,2.44,4.6,1.42-.54-.61-1-1.44-1.67-1.79s-.75-2-2.1-1.25c.41-2.59-1.66-3.58-3.12-5.07C305.65,243.54,306.49,244.81,309.91,245.83Zm-5.37-5.72a1.69,1.69,0,0,1,.41-.45c1.76-1,1.74-1,.3-2.44-.64-.64-1.1-1.45-1.72-2.12a58,58,0,0,0-4.13-4.31c-.39-.35-1.31-.11-2-.14.06.73-.17,1.74.23,2.15a32.87,32.87,0,0,0,3.45,2.7c.44.34,1.08.8,1.1,1.23C302.29,238.28,302.64,239.57,304.54,240.11Z"/><path class="cls-1" d="M277.42,314.59l15.39-19.46a6.92,6.92,0,0,1,.65,1.15c1,3.05,1.68,6.21,2.93,9.13a38.11,38.11,0,0,0,4.14,6.81c1.24,1.75,2.82,3.27,4.19,4.95,1.69,2.08,5,2.63,8.06.89a14.06,14.06,0,0,1,3.32-.94c1.62.95,2.41,3.52,1.13,5.93-.89,1.68-.75,3.3-.87,5-.22,2.81.89,5.22,2.21,7.59a3,3,0,0,1,.28,1.2,5.72,5.72,0,0,0,1.09,3,56.92,56.92,0,0,0,6.62,7.82c.08.08.14.25.22.26,2.72.17,2.12,2.23,2.16,3.86.06,2.93,2,4.92,3.6,7.37-1.43.55-2.83,1.08-4.22,1.65-1.6.65-3.2,1.34-4.79,2a2.88,2.88,0,0,1-.65.29c-3,.41-5.88,2.1-9,1.35a12.2,12.2,0,0,1-4.13-1.89,53.57,53.57,0,0,1-7-5.54c-2.46-2.43-4.56-5.22-6.82-7.86-1.06-1.24-2.18-2.43-3.19-3.72a13.11,13.11,0,0,1-1.49-2.46c-1-2.14-1.91-4.33-2.91-6.48-1.13-2.43-2.34-4.83-3.47-7.27-.49-1.07-.85-2.19-1.3-3.28-.9-2.16-1.68-4.38-2.77-6.44A51,51,0,0,0,277.42,314.59Z"/><path class="cls-1" d="M2.32,382.58c.76-2.49,1.63-5.3,2.49-8.1A2.46,2.46,0,0,0,5,374a20.81,20.81,0,0,1,2.53-7.3c.08-.15,0-.36.08-.53.46-2.32.77-4.69,1.44-6.94.5-1.7,1.55-3.23,2.22-4.89.59-1.46,1-3,1.51-4.5.72-1.93,1.51-3.83,2.28-5.75,0-.05.05-.1.07-.16.46-2.1.81-4.22,1.4-6.28s1.45-4.16,2.19-6.24c.5-1.41,1.36-2.79,1.45-4.23.15-2.32,1.48-4,2.36-5.93a32.69,32.69,0,0,1,4.24-6.51A20.58,20.58,0,0,1,32,310.36c1.06-.68,2.37.09,3.07,1A36.21,36.21,0,0,1,38,316c1.21,2.23,2.33,4.51,3.45,6.78a3,3,0,0,1-.31,3.61,27.5,27.5,0,0,0-3.55,4.34,42,42,0,0,0-2.19,5.66c-2.32,6.09-.68,12.38-.91,18.58,0,.72.46,1.46.5,2.2a9.65,9.65,0,0,1-.26,2.44c-.59,2.88-3,4.68-4.45,7-1.33,2.07-3.07,3.87-4.54,5.85a12.73,12.73,0,0,0-1.4,2.69c-.56,1.35-1,2.75-1.54,4.12-.77,2-1.63,4-2.3,6.06-.61,1.87-1,3.8-1.51,5.7-.41,1.45-.82,2.9-1.37,4.3a1.59,1.59,0,0,1-1.21.75c-.34,0-.8-.39-1.07-.73a10.33,10.33,0,0,1-2.51-8.24c.26-1.72,1-3.36,1.38-5.05a3.75,3.75,0,0,0,0-1.6,1.17,1.17,0,0,0-.74-.62.83.83,0,0,0-.71.34,19.71,19.71,0,0,0-1.18,2.91C11,385,10.59,387,10,389a1.8,1.8,0,0,1-1.65.55A29.37,29.37,0,0,1,3,386C2.38,385.49,2.57,384.05,2.32,382.58Z"/><path class="cls-1" d="M135.23,339.75c2.86,6.9,5.48,13.23,8.14,19.69h1.54c1.32-2.3,2.61-4.46,3.81-6.68.71-1.32,1.25-2.72,1.92-4.06.13-.26.48-.41.72-.61.2.26.57.54.55.79-.13,1.48-.3,3-.54,4.43-.21,1.21-.64,2.4-.78,3.62-.17,1.61.06,3.16-1,4.73-1.18,1.83.11,3.78,2.29,4,1.6.14,3.21.2,5,.32,0,1.38-.09,2.74,0,4.08.49,6.22,1,12.43,1.59,18.64a40.25,40.25,0,0,0,1,6.07c.51,2,1.35,3.91,2,5.88a21.4,21.4,0,0,1,.49,2.77l-.37.51-2.39-1-.66-.24a57.65,57.65,0,0,1-7.37-2.92c-3-1.68-5.74-3.91-8.72-5.69-3.22-1.94-5.44-4.9-8-7.44-2-2-3.54-4.4-5.55-6.36-1.63-1.59-3.73-2.68-5.47-4.17a38,38,0,0,1-3.23-3.57,5.35,5.35,0,0,0-1.46-1.36c-1.31-.62-2.87-.83-4-1.63-1.72-1.2-4.47-.52-5.51-3.35,1.48-1.49,3-3.11,4.64-4.64a22.13,22.13,0,0,1,2.58-1.88,40.43,40.43,0,0,0,7.66-7.41c2-2.4,4-4.79,6-7.22.92-1.12,1.68-2.39,2.64-3.47A16.11,16.11,0,0,1,135.23,339.75Z"/><path class="cls-1" d="M343.7,261c.17.72.25,1.23.42,1.72.74,2.06,1.52,4.11,2.26,6.17.14.39.12.84.26,1.22a29.49,29.49,0,0,0,1.9,4.84c1.31,2.23,1.23,6.7-.63,8.3-1.29,1.12-2.92,1.84-4.3,2.88a8.75,8.75,0,0,0-3.41,3.92c-.52,1.43-1.35,2.74-1.95,4.15a2.36,2.36,0,0,0-.09,1.57c1.51,4,1.26,4.51-2.38,6.84a71.59,71.59,0,0,0-8.71,6.21c-1.72,1.51-3.46,3.35-3.25,6.17s-.11,5.9.27,8.79c.27,2,1.31,4,2,6a2.3,2.3,0,0,1,.15.32c.52,2.56,1,5.12,1.55,7.67a15.1,15.1,0,0,1,.42,2.3,10.1,10.1,0,0,1,.4,1.92c0,.7,0,1.64-.38,2s-1.53.87-1.85-.56c-.1-.43-.83-.67-1.15-1.1-1.95-2.56-2.93-5.51-4-8.54-1.5-4.13-.87-8.16-.93-12.24a6.24,6.24,0,0,1,.91-2.69,2.94,2.94,0,0,0-1.27-3.76c-3.07-1.55-5.9-3.37-7.65-6.53-.94-1.71-2.35-3.17-3.2-4.92a22.2,22.2,0,0,1-1.58-5.16,32.14,32.14,0,0,1-.09-3.41c-.3-3.18,1.48-5.48,3.05-7.94a33.8,33.8,0,0,1,5.66-6.28c.84-.79,1-2.26,1.53-3.42a35.53,35.53,0,0,1,2.83-6.12c.63-.93,2.28-1.36,3.55-1.59a22.32,22.32,0,0,1,4.48-.07,8.41,8.41,0,0,0,5.62-2.24c.61-.49,1.52-.6,2.18-1.06,1.33-.91,2.56-1.95,3.86-2.91C341.26,262.68,342.39,261.92,343.7,261Z"/><path class="cls-1" d="M263,197.56c2.16.29,4.06-.83,5.52,1.05.18.23.79.15,1.2.19,1,.09,2.17-.34,2.79,1,.1.21.76.21,1.17.23,1.2.05,2.4.13,3.6.07a18.89,18.89,0,0,1,9.34,2.29,3.94,3.94,0,0,0,1.59.21c3,.12,5.38,1.75,7.72,3.43a15.74,15.74,0,0,1,2.76,1.83,18.22,18.22,0,0,1,2.37,3.64,11.08,11.08,0,0,1,1,2.83c.11.51.06,1.47-.21,1.61-3.11,1.52-4.5,4.74-7,6.84-2.25,1.93-4.18,4.23-7.18,5.34-2.44.9-4.53,2.71-6.83,4-1.91,1.1-3.88,2.12-5.89,3a1.63,1.63,0,0,1-1.4-.68c-1.46-2.78-2.8-5.63-4.22-8.43a3.58,3.58,0,0,0-1.26-1.58c-1.36-.7-1.12-1.92-1.26-3.05-.45-3.81-.88-7.62-1.38-11.43-.25-2-.56-3.92-1-5.86-.14-.7-.75-1.3-.89-2C263.37,200.77,263.26,199.36,263,197.56Z"/><path class="cls-1" d="M143.51,254.38c1.31-2.49,2.27-4.67,3.56-6.65s3.07-3.94,4.54-6c1.88-2.59,3.69-5.23,5.51-7.87,1.08-1.56,2.16-3.12,3.15-4.75a10.47,10.47,0,0,0,1.54-3.24c.66-3.51,2.71-6.15,4.81-8.88,1.7-2.22,2.91-4.82,4.46-7.18.38-.57,1.23-.83,2-1.32,6.07,9,12.4,18.38,18.72,27.73-1.85,1.71-3.54,4.18-5.85,5.13-2.52,1.05-4.38,3.78-7.79,3a22.82,22.82,0,0,0-7,.12,27,27,0,0,0-7.44,1.4c-1.54.64-3.08.62-4.53,1.12A42,42,0,0,0,153,249.9c-1.95,1-3.78,2.3-5.67,3.47a7.73,7.73,0,0,1-1.82,1.11A6.33,6.33,0,0,1,143.51,254.38Z"/><path class="cls-1" d="M321.57,210.07c-1.09-1.83.76-2.56,1.5-3.41a34.14,34.14,0,0,1,6.12-5.65c3.43-2.37,7.21-3.12,11.26-1.19a9.37,9.37,0,0,0,3.35.34c1,.05,2.05-.07,3.05.07a54.45,54.45,0,0,1,8,1.4,5.17,5.17,0,0,1,2.95,2.8c.76,2.09,2.41,4.16,1.53,6.54a25.47,25.47,0,0,1-2.84,5.19,19.65,19.65,0,0,1-3.76,4.57c-1.9,1.51-2.67,3.69-4.08,5.47-2.56,3.26-5.42,6.3-7.74,9.72-.93,1.39-1.66,2.92-3,3.88s-2.57,2.06-4.37,2.16c-.77,0-1.48.65-2.26.82a13.75,13.75,0,0,1-2.48,0c5-5.62,8.45-11.71,6.29-18.87C333.05,217.32,328.92,212,321.57,210.07Zm16,22.84a6.64,6.64,0,0,0,.67,1.27c.08.1.52.06.66-.06,1.27-1.15,2.54-2.31,3.75-3.52a1.28,1.28,0,0,0,.3-1.09c-.09-.23-.65-.36-1-.4-1.5-.13-1.79,1.41-2.73,2.08A11.69,11.69,0,0,0,337.58,232.91Z"/><path class="cls-1" d="M261.62,217.52c-2.38-1.7-4.64-3.19-6.74-4.88-1.32-1.07-2.36-2.47-3.59-3.66-1.7-1.64-3.49-3.2-5.18-4.85-1.38-1.35-2.64-2.84-4-4.19-2-2-4.13-4-6.24-5.93-1.12-1-2.4-1.91-3.45-3-.37-.38-.58-1.49-.33-1.77a15.51,15.51,0,0,1,2.49-1.77,12.67,12.67,0,0,0,1.77-1.4c1.65-1.71,3.24-3.47,4.86-5.21,0,0,.1-.09.11-.14.31-2.29,1.83-4,2.88-5.92a17.31,17.31,0,0,1,1.61-3.12,2.24,2.24,0,0,1,2.18-.27c2.05,1.83,3.95,3.84,5.85,5.84,2.28,2.41,4.66,4.75,6.71,7.35a37.33,37.33,0,0,1,3.65,6.21c1.14,2.23.27,3.79-2.15,4.24a2.76,2.76,0,0,0-2.51,3c.12,1.66-.09,3.28.83,5,.72,1.32.17,3.29.36,4.95a9.1,9.1,0,0,0,.92,2.27c.09.21.27.41.27.62,0,2.1,0,4.19,0,6.28C261.85,217.36,261.61,217.53,261.62,217.52Z"/><path class="cls-1" d="M298.65,268.63c3.63,0,7.33-.77,10.47.23,3,.93,5.18-1.11,7.83-.55.69.15,1.25-1.77,2.6-.51-.91,1.16-1.85,2.35-2.78,3.55a1.42,1.42,0,0,0-.23.48,38.33,38.33,0,0,1-1.61,5.88c-.71,1.6-1.75,3.44-3.16,4.24s-2,2.1-2.9,3.15a47.76,47.76,0,0,0-3.52,5.3.37.37,0,0,0-.09.16c-.47,2.26-1.5,4.58-1.28,6.78a28.11,28.11,0,0,0,2.51,8.46c.9,2,2.57,3.7,3.91,5.51.83,1.12,1.7,2.21,2.59,3.37-1.43,2.19-1.82,2-4.73.92a7.4,7.4,0,0,1-3.74-2.92c-.7-1-1.33-2.05-2-3.08s-1.41-2.15-2.09-3.24a17.63,17.63,0,0,1-1.54-2.78c-.62-1.62-1.05-3.3-1.57-4.95s-.58-3.41-1.55-4.54c-1.63-1.9-.34-3,.58-4.24,1.39-1.9,3.47-3.52,4.19-5.62.91-2.67,3.43-4.59,3.28-7.74a3.94,3.94,0,0,0-1.44-2.85c-1.14-1.12-2.32-2.2-3.37-3.4C298.71,269.91,298.77,269.25,298.65,268.63Z"/><path class="cls-1" d="M320.6,266.82c.94-2.59,1.62-5-.19-7.33a18.39,18.39,0,0,1-2.48-4c-.47-1.15-.9-2.43.6-3.61,2-1.55,3.61-3.51,5.46-5.22a3.34,3.34,0,0,1,1.76-.87c1.19-.14,2.4,0,3.59-.06,1.73-.12,3.48.15,5.09-1.09.69-.54,2.05-.19,2.9-.24a47.52,47.52,0,0,0,1.86,5.79,17.18,17.18,0,0,0,2.87,4.3c1.47,1.64,1.23,3.06-.7,4.08a13.28,13.28,0,0,0-3.36,2.77c-2.79,3-5.76,5.27-10.22,4.78-1.87-.21-3.92-.58-5.67.8C321.81,267.14,321.12,266.86,320.6,266.82Z"/><path class="cls-1" d="M57.14,109.11c2.92.08,5.83-.68,8.76.84,1.72.89,3.82,1,5.71,1.62a4.94,4.94,0,0,1,2.09,1.22c1.7,1.85,3.3,3.79,4.89,5.75,1,1.17,1.85,2.39,2.68,3.64,1.27,1.92,1,3.2-.89,4.56s-2.5,1.17-4.35-.68c-2.13-2.14-4.58-4-6.91-5.91-2.73-2.28-5.49-4.53-8.2-6.83-1.37-1.16-2.67-2.41-4-3.61Z"/><path class="cls-1" d="M205.84,252.12,203.68,251a1.68,1.68,0,0,0-.48-.2c-2.47-.48-5-.84-7.41-1.47-1.75-.45-3.4-1.29-5.11-1.91-.65-.24-1.38-.28-2-.53-1.34-.53-2.66-1.15-3.82-1.66,2.68-2.37,5.16-4.58,7.66-6.76.19-.17.64-.34.75-.25,1,.85,2,1.74,3,2.66,1.22,1.14,2.4,2.32,3.6,3.48.42.4.86.77,1.29,1.16s1,1,1.59,1.47c.18.15.48.19.6.37.94,1.36,1.84,2.74,2.76,4.12Z"/><path class="cls-1" d="M107.81,356.73c.89.44,1.86.61,2,1.06.47,1.37.94,2.87-.19,4.22-.07.08-.25.06-.33.13L108,363.45a15.65,15.65,0,0,1-.36-2.33C107.59,359.81,107.72,358.51,107.81,356.73Z"/><path d="M178.32,66.28c1.74-.53,2.53-.61,2.86,1.23.63,3.45,1.63,6.83,2.6,10.21A6.64,6.64,0,0,0,185.24,80a3.91,3.91,0,0,1,.18,4.91C180.54,79.62,179.86,72.86,178.32,66.28Z"/><path d="M135.35,206.33l.12-2a10.06,10.06,0,0,0,5.31-3.92c1.15-1.63,3.28-2.59,4.33-4.25.87-1.37,1.65-1.1,2.64-1,1,1.73-.57,2.42-1.29,3.25a52.92,52.92,0,0,1-6.19,6.33C139.05,205.73,137.63,207.23,135.35,206.33Z"/><path d="M150.89,146.77c-1.88.33-2.63-.22-2.95-1.47a3.31,3.31,0,0,0-.47-.89c-1.93-3-3.6-6.15-3.17-10h2.19c.52,2,.91,4,1.54,5.88a38.85,38.85,0,0,0,1.76,3.76C150.17,144.87,150.48,145.74,150.89,146.77Z"/><path d="M116.31,122.9v2.25l-.41-.36-4.45,3.89a7.34,7.34,0,0,1-1,.83,12.23,12.23,0,0,1-1.47.67c0-.74-.34-1.78,0-2.18a55.35,55.35,0,0,1,5.18-4.86C114.59,122.78,115.49,123,116.31,122.9Z"/><path d="M194.46,104.31c-.71-.52-1.57-.82-1.8-1.38a37.89,37.89,0,0,1-1.66-5.2c-.11-.44.29-1,.46-1.52.6.21,1.69.37,1.72.63C193.42,99.23,195.85,101.15,194.46,104.31Z"/><path d="M187.59,107.25c1.13.8,2.29,1.55,3.36,2.41a3.88,3.88,0,0,1,1.31,1.63c.16.47-.22,1.13-.36,1.7a5.74,5.74,0,0,1-2.05-.64,37,37,0,0,1-3.08-3.18,12.2,12.2,0,0,1-.8-1.09Z"/><path d="M250.45,344c-1.8,1.12-2.61-.37-3.39-1.12-2.77-2.66-5.2-5.68-8.05-8.22-2.67-2.38-4.32-5.47-5.87-8.44-2.09-4-2-8.66-1.44-13.15a1.79,1.79,0,0,1,2.18-1.63c1.26.15,1.57.75,1,2-1.31,2.89-1.07,5.74,0,8.74a31.22,31.22,0,0,0,3,6.31,25.85,25.85,0,0,0,5.94,7,55.48,55.48,0,0,1,4.3,4.11c.24.23.41.63.68.71C250.92,340.92,251,342.36,250.45,344Z"/><path d="M49.86,322.6c1.37,1.68,2.4,3.09,3.59,4.33a33.42,33.42,0,0,0,2.86,2.26c.88.75,1.71,1.56,2.53,2.38a4.36,4.36,0,0,1,.55,1,7.44,7.44,0,0,1-1.18.47,3.87,3.87,0,0,1-3.57-1.36c-1.53-1.51-2.81-3.27-4.43-4.67S49.37,324.46,49.86,322.6Z"/><path d="M67.24,339.57c-.52-.34-1.42-.6-1.5-1a1.4,1.4,0,0,1,1.42-1.79c2-.2,4-.95,6-.08.77.32,1.62.59,1.25,1.54a2.07,2.07,0,0,1-1.53,1c-1.83.12-3.67,0-5.51,0Z"/><path d="M64.82,322.5l-8.9,1.22L55.74,322c2.31-1.37,4.61-2.1,7.06-1.24C63.52,321,64.05,321.8,64.82,322.5Z"/><path d="M120.24,230.72l2.56-.34c-.3,3.6.6,7-.84,10.37a5.31,5.31,0,0,0-.33,2.11c0,3-.12,6.12.09,9.16a67.45,67.45,0,0,0,1.19,8.37,24,24,0,0,0,1.61,4.05h-3.25c-.38-2.59-.21-5.39-1.23-7.64-2-4.27-.56-8.59-1-12.86-.12-1.27.56-2.62.77-3.95a29.11,29.11,0,0,0,.39-3.73C120.28,234.47,120.24,232.68,120.24,230.72Z"/><path d="M122.25,212c-1.5,1.34-2.89,2.57-4.26,3.82-.66.6-1.2,1.52-2,1.77-1.22.41-1.43,1.4-1,2s1.47,1,2.3,1.31,2,.6,3.36,1c-3.24,1.74-6.56,1.09-8.09-1.15-.51-.74-2.75-.83-3.52.07s-1.86.94-2.44.27a1.34,1.34,0,0,1,.67-2.35,23.58,23.58,0,0,1,2.29-1,13.42,13.42,0,0,0,5.73-3c1.73-1.41,3.34-3,5.06-4.39a1.21,1.21,0,0,1,1.15.21A5.07,5.07,0,0,1,122.25,212Z"/><path d="M181,282.9c-1.39,2.19-2.57,4.22-4,6.11a2.07,2.07,0,0,1-2,.24c-.58-.47-.5-1.18.4-1.84a6.08,6.08,0,0,0,1.71-2.74A2.88,2.88,0,0,1,181,282.9Z"/><path d="M182.08,286.81a3.61,3.61,0,0,1,.08-1.05,6.27,6.27,0,0,1,.68-1.05,5.79,5.79,0,0,1,.84,1.11,1.46,1.46,0,0,1,0,1.05,19,19,0,0,1-1,1.9l-.87-1.85Z"/><path d="M304.54,240.11c-1.9-.54-2.25-1.83-2.35-3.38,0-.43-.66-.89-1.1-1.23a32.87,32.87,0,0,1-3.45-2.7c-.4-.41-.17-1.42-.23-2.15.68,0,1.6-.21,2,.14a58,58,0,0,1,4.13,4.31c.62.67,1.08,1.48,1.72,2.12,1.44,1.47,1.46,1.46-.3,2.44A1.69,1.69,0,0,0,304.54,240.11Z"/><path d="M309.91,245.83c-3.42-1-4.26-2.29-3.17-5,1.46,1.49,3.53,2.48,3.12,5.07Z"/><path d="M309.86,245.88c1.35-.75,1.36.88,2.1,1.25s1.13,1.18,1.67,1.79c-1.86,1-2.59.8-4.6-1.42l.88-1.67Z"/><path d="M337.58,232.91a11.69,11.69,0,0,1,1.63-1.72c.94-.67,1.23-2.21,2.73-2.08.37,0,.93.17,1,.4a1.28,1.28,0,0,1-.3,1.09c-1.21,1.21-2.48,2.37-3.75,3.52-.14.12-.58.16-.66.06A6.64,6.64,0,0,1,337.58,232.91Z"/></g></g></svg>