<svg xmlns="http://www.w3.org/2000/svg" viewBox="0 0 313.39 581.51"><defs><style>.cls-1{fill:#fff;}</style></defs><g id="Layer_2" data-name="Layer 2"><g id="Layer_1-2" data-name="Layer 1"><path class="cls-1" d="M313.25,540a8.9,8.9,0,0,0,.1-2c-.41-2.59.14-5.24-1.08-7.84-1-2.21-1.19-4.83-1.75-7.26a5,5,0,0,0-.27-.63c-.69-1.69-1.78-3.34-2-5.09a68,68,0,0,0-2.56-11c-.72-2.57-2.17-5.1-1.63-8a2.14,2.14,0,0,0-.13-.89c-.76-2.68-1.56-5.34-2.28-8-.57-2.14-1-4.31-1.56-6.46a1.83,1.83,0,0,0-.11-.33c-.76-1.58-1.61-3.11-2.25-4.73s-1.06-3.37-1.67-5c-.39-1.08-1-2.08-1.44-3.13-.71-1.53-1.45-3.05-2.08-4.61s-1-3-1.61-4.44-1.56-2.88-2.22-4.38-1.05-3.06-1.74-4.52c-1.06-2.19-2.26-4.32-3.43-6.46-.78-1.43-1.61-2.83-2.43-4.24s-1.89-3-2.68-4.63c-.63-1.26-1-2.66-1.54-4s-1.11-2.67-1.7-4c-.68-1.53-1.46-3-2.06-4.57s-1-3.32-1.65-4.93-1.51-3.06-2.14-4.64-1.16-3.37-1.74-5.05c-.73-2.1-1.64-4.15-2.18-6.29-.65-2.6-1-5.27-1.49-7.91a5.25,5.25,0,0,0-.22-.67,15.86,15.86,0,0,1-.86-2.75c-.19-1.49.41-3.52-.36-4.37-1.33-1.47-.78-3-1.09-4.43-.13-.65-.17-1.31-.3-1.95-.73-3.43-1.67-6.82-2.16-10.28-.77-5.3.46-10.67-1.07-16-1.16-4.08-1.13-8.5-1.68-12.77-.07-.54-.55-1-.63-1.57-.13-.91-.49-2.24,0-2.7a2.06,2.06,0,0,0,.31-2.78,1.57,1.57,0,0,1-.16-.9,17.11,17.11,0,0,0,.5-2.38c0-8.93,0-17.87.05-26.8a7.46,7.46,0,0,0-.13-1.25c-.32-1.9-1-3.83-.9-5.69.23-3.07-1.16-5.73-1.61-8.6a1.58,1.58,0,0,0-.2-.49,42,42,0,0,1-2.06-4c-.65-1.67-.87-3.54-1.67-5.13a21.76,21.76,0,0,1-2.16-9.7c0-6.25-1.13-12.47.76-18.82,1.19-4,.58-8.57.49-12.87a46.84,46.84,0,0,0-1.14-7.68,43.64,43.64,0,0,0-2-7.16c-.69-1.86-2.08-3.37-2.57-5.53-.63-2.75-2.39-5.22-3.37-7.92a50.9,50.9,0,0,1-1.48-6.29,7.2,7.2,0,0,0-.31-1,31.11,31.11,0,0,1-2-5.26,59.91,59.91,0,0,1-1.38-10.38c-.17-11.69.05-23.38-.14-35.07-.1-5.71.95-11.48-1.11-17.14-.85-2.34-.23-5-1.27-7.57-1-2.34-1.13-5-1.64-7.56a3.34,3.34,0,0,0-.18-.5c-1.22-3-2.49-5.91-3.67-8.9-.58-1.45-.87-3-1.53-4.44-1-2.24-2.29-4.38-3.45-6.57-1-1.89-1.89-3.85-3-5.65A40,40,0,0,0,215,88.84c-1.34-1.57-2.64-3.22-4.93-3.58-1.6-.24-3.13-2.1-2.48-3.08,1.37-2.05.62-4.27,1-6.39a10,10,0,0,1,.24-1.58c.71-2,1.91-3.94,2.14-6a69,69,0,0,0-1.34-21.06,6,6,0,0,0-.26-.66c-.69-2.26-1.38-4.53-2.05-6.8-.55-1.83-.79-3.81-1.65-5.47-1.43-2.75-3.24-5.31-4.92-7.94-.31-.47-.9-.79-1.09-1.29a5.83,5.83,0,0,0-3-3.12,50.49,50.49,0,0,1-4.87-3.27c-2.19-1.54-4.61-2.89-7.23-3-6.53-.21-13.06,0-19.6,0a5.2,5.2,0,0,0-1.25.11c-3.32.81-6.65,1.63-10,2.47a6.63,6.63,0,0,0-1.81.65c-1.62,1-3.15,2.11-4.82,3-3.57,1.9-5.63,4.72-5.85,8.8a6.73,6.73,0,0,1-.18,1.42,87.11,87.11,0,0,0-2.14,8.45c-.87,5.73.92,11.33,1.21,17a3.46,3.46,0,0,0,.19.68c.8,2.7,1.69,5.38,2.35,8.12.62,2.56,1,5.18,1.47,7.77.05.28.34.52.36.78a28.53,28.53,0,0,1,.27,6.17c-.28,1.93-1.56,3.69-2,5.62s-.11,3.7-.26,5.55c-.2,2.49,1.65,3.79,3.28,4.52,2.25,1,2.86,2.63,3.29,4.67.31,1.46.31,3.26,1.18,4.26,1.68,1.91,1.07,4,1.44,6.08a34.27,34.27,0,0,0,1.91,5.42s.1.07.13.12c1,1.24,2.29,2.37,2.76,3.78.67,2,2.49,2.14,3.78,3.11a17.69,17.69,0,0,0,2.88,1.52,21,21,0,0,1-2.59,3.36c-1.66,1.43-3.18,2.87-3.85,5-.06.19-.44.36-.69.39s-.41-.26-.46-.44c-.46-2-.91-4-1.31-6-.54-2.74-1-5.5-1.55-8.26a2.17,2.17,0,0,0-.07-.35c-.73-1.9-1.51-3.79-2.16-5.72-.59-1.75-.91-3.59-1.58-5.3a33,33,0,0,0-2.16-4c-1-1.81-1.95-3.66-3-5.44a41.18,41.18,0,0,0-3-4.47c-1-1.25-2.16-2.33-2-4.15,0-.56-.46-1.14-.66-1.72-.61-1.8-1.94-3.3-1.84-5.42.13-2.93,0-5.87-.09-8.81a5.52,5.52,0,0,0-.22-1.77c-.68-1.81-1.35-3.63-2.19-5.37a19.11,19.11,0,0,0-2.5-4.12c-1.55-1.83-1.77-2.85-.75-5.36a4.16,4.16,0,0,0,0-2,18.85,18.85,0,0,1-.52-2c-.07-2.34-.07-4.68,0-7a16.85,16.85,0,0,1,.37-1.68,17.08,17.08,0,0,0,.29-3.25c-.07-1-.62-2-.68-3-.13-2.45.08-4.93-.18-7.37A57.34,57.34,0,0,0,128.15,25c0-.1-.14-.19-.19-.29-.73-1.33-1.54-2.63-2.17-4s-1.2-3-1.78-4.52a10.5,10.5,0,0,0-1.15-2.83,32,32,0,0,0-4.81-5.18c-1.93-1.55-3.29-3.9-6.06-4.41a19.28,19.28,0,0,1-3.62-1.48c-2.48-1-4.91-2.3-7.69-2.2-4,.13-8.08-.59-12.08,1-2.38,1-4.92,1.48-7.33,2.56a26.23,26.23,0,0,0-5.34,2.9A28.71,28.71,0,0,0,71.62,10c-2.27,2.59-4.33,5.37-6.4,8.14a11.37,11.37,0,0,0-1.42,2.75,45.73,45.73,0,0,0-1.59,4.71,69.55,69.55,0,0,0-2.09,8.81c-.23,1.66.45,3.45.74,5.17.86,5.24-.31,10.32-1.15,15.43a2.19,2.19,0,0,1-.12.33c-.37,1.07-.8,2.13-1.11,3.22-.53,1.83-.55,4-1.6,5.44s-.84,2.7-.93,4.1A6.67,6.67,0,0,0,56,69.93,1.91,1.91,0,0,0,56.69,71c1.78,1.17,3.6,2.28,5.65,3.56,0-.1,0,.24.12.47a6.92,6.92,0,0,1,1.17,4.4c-.09,1.68.62,3.38.89,5.09a8.64,8.64,0,0,1-.15,1.8c-.1,1.21-.61,2.62-.17,3.61a24.81,24.81,0,0,0,3.34,5.15c.91,1.16,2,2.57,3.24,3a29.08,29.08,0,0,0,8,1.59c1.92.09,4.22.71,5.87-1.18a4.23,4.23,0,0,1,1.1.71A21.5,21.5,0,0,1,84,102.34c-2,2.85-4.12,5.59-6.06,8.47-1.09,1.62-2.37,3.09-2.85,5.15-.35,1.5-1.6,2.78-2.36,4.2-1,2-2,4-3,6-.77,1.6-1.55,3.21-2.18,4.87s-1,3.33-1.52,5q-1.12,3.42-2.35,6.79c-.5,1.41-1,2.81-1.66,4.17s-1.67,2.56-2,3.95c-.64,3.06-1.66,6-2.51,9a33.35,33.35,0,0,0-1.41,9c0,2.75-1.46,5-1.67,7.64a1.5,1.5,0,0,1-.11.34c-.74,1.89-1.81,3.73-2.17,5.69-.66,3.64-.49,3.67-4.21,3.59H47.6a5.52,5.52,0,0,0-5.87,5.3c-.11,1.43.07,2.88-.08,4.3-.09.86-.71,1.67-.8,2.52-.18,1.88-.87,4.18-.06,5.55,1.1,1.84.8,3,.07,4.62a4,4,0,0,0-.11,3,42,42,0,0,0,2.9,4.73,12.51,12.51,0,0,0-.51,3c.06.61.8,1.12,1,1.75a7.37,7.37,0,0,0,3.81,4.4,3.18,3.18,0,0,1,1.48,2.12c.29,3,.48,6,.88,9,.7,5.19.58,10.51,1.58,15.71.17.87-.09,1.83.1,2.69a2.86,2.86,0,0,1-2,3.46c-2.46.88-2.52,3.59-4.29,4.89-.19,3.94-1.12,8,1.5,11.53A10.84,10.84,0,0,1,49.61,282c-.14,2.28.37,4.79-.46,6.76a18.18,18.18,0,0,0-1.08,6.36,1.85,1.85,0,0,1-.43,1.1,50.38,50.38,0,0,1-3.8,3.65c-2.07,1.7-4,3.4-3.49,6.47a5.23,5.23,0,0,1,0,1.25c-.09,1.68.18,2.9,2.37,2.77,1.25-.07,1.69,1.18,1.13,2.31a7.08,7.08,0,0,0-.94,2.88c0,2.15-.06,4.25,1.13,6.34,1,1.75,1.07,4,1.57,6a3.15,3.15,0,0,0,.51,1.32,6.76,6.76,0,0,1,2,5.36,5.14,5.14,0,0,0,.23,2.31c.59,1.51,1.43,2.93,2,4.45a2.86,2.86,0,0,1,.09,2c-.6,1.35-1.44,2.58-2.17,3.86-1.48,2.61-2.86,5.28-4.46,7.81a45.2,45.2,0,0,0-2.38,4.71,15.29,15.29,0,0,0-1.16,5.51c0,.16-.17.29-.25.45a7.1,7.1,0,0,0-.89,1.95c-.54,3.73-1,7.47-1.45,11.21a5.78,5.78,0,0,1-.14.7c-.72,2.77-1.57,5.51-2.13,8.32-.64,3.23-.31,6.53-1.2,9.85-1,3.57-.68,7.46-1.31,11.22-.74,4.51-.44,9.21-.37,13.82.15,9.47-.89,19,1.18,28.38.69,3.15.63,6.46,1.14,9.7,1.32,8.4,0,17,1.35,25.49,1,6.2.25,12.68.13,19,0,1.77-.92,3.53-.95,5.31-.19,8.86-.22,17.73-.32,26.59,0,.48.09,1.15-.18,1.4-1.34,1.26-.84,2.87-1,4.36-.06.71.21,1.69-.17,2.1-1.47,1.6-1,3.47-1,5.26a4.46,4.46,0,0,1-3.44,4.24,42.53,42.53,0,0,0-7.17,1.56,12.76,12.76,0,0,1-4.5,1.07,2.45,2.45,0,0,0-.65.24c-1,.36-2,.77-3.07,1.07-.57.16-1.21.05-1.78.21-2.48.73-4.9,1.81-7.43,2.18-2.21.32-3.24,1.92-4.22,3.28-1.31,1.8-.15,5.87,1.68,7.35a35.21,35.21,0,0,0,4.64,3.31,42,42,0,0,0,6.33,3A50.25,50.25,0,0,0,19,579.25a1.11,1.11,0,0,1,.49.18c1.83,1.71,4.33,1.41,6.51,2,1,.29,2.34-.87,3.48-.78,4.22.36,8.17-1,12.24-1.64,1.94-.27,3.76-1.33,5.62-2a42.74,42.74,0,0,1,4.2-1.68c2.14-.58,4.34-.92,6.5-1.37a1.61,1.61,0,0,0,.49-.21c2-1.15,4-2.45,6.15-3.41,2.47-1.11,5.18-1.7,7.57-2.91,1.44-.73,3.38-1.44,3.25-3.79,0-.36.63-1,1-1.09a72.84,72.84,0,0,1,10.35-1.3c4.21-.05,8.51-1,12.66.92,1.89.87,4.07,1.09,6.12,1.61.17,0,.33.13.5.18,2.68.69,5.34,1.47,8.05,2,.68.14,1.5-.62,2.28-.74a23.48,23.48,0,0,0,6.11-1.32c3-1.3,4.24-3.77,5.72-6.19,1.12-1.83,1.46-4.31,4.26-4.55a.88.88,0,0,0,.5-.17c1.23-1,2.07-5.82,1.43-7.23a8.71,8.71,0,0,1-.88-3.28c-.09-4.13-.17-8.28.06-12.4.17-3,.85-5.91,1.33-9.06h1.8c5.16.08,10.31.12,15.46.24,4,.1,7.67-.81,10.42-3.9a23.12,23.12,0,0,0,2.46-3.92,19.22,19.22,0,0,0,1.86-3.71c.73-2.41-.31-4.67-1.42-6.68s-2.47-3.5-2.44-5.81a1.29,1.29,0,0,0-.18-.67c-1.41-2.09-1.35-2.45.69-4.18.77-.65,1.2-4,.7-4.82-.88-1.41-1.76-2.84-2.53-4.32-.59-1.14-.89-2.43-1.54-3.53-1-1.63-2.08-3.16-2.24-5.14a3.57,3.57,0,0,0-.37-1.16c-.68-1.45-1.49-2.84-2-4.33-.65-1.77-1.09-3.62-1.63-5.44,0-.16-.16-.31-.23-.48-.72-1.79-1.46-3.58-2.15-5.39-.15-.38,0-.92-.19-1.22a12.76,12.76,0,0,1-2.46-7.92c0-1.5.07-3,.17-4.49a5.22,5.22,0,0,1,.43-1.53c1.07-2.6,2.3-5.14,3.22-7.78a59.45,59.45,0,0,0,1.49-6.23,1.79,1.79,0,0,1,.09-.35,71.14,71.14,0,0,1,3.72-6.4c1.77-2.46,3.79-4.74,5.8-7,1.47-1.66,3.07-3.22,4.68-4.76,1.07-1,2.26-1.92,3.39-2.87,1.39-1.17,2.77-2.33,4.17-3.49l7-5.76a33.72,33.72,0,0,0,3.31-2.87c1.22-1.31,2.15-2.88,3.37-4.18s2.84-2.63,4.25-4a1.59,1.59,0,0,1,2.61.56c.57,1.17,1,2.39,1.59,3.55s.87,2.33,1.7,3c1.76,1.51,2.42,3.6,3.47,5.48s1.88,4,2.81,6.05c1.16,2.53,2.37,5,3.47,7.59.61,1.41,1,2.91,1.55,4.36.46,1.25.86,2.52,1.44,3.72,1.17,2.45,2.41,4.86,3.67,7.27.64,1.23,1.35,2.42,2,3.62,1,1.74,2.09,3.44,3,5.23.66,1.29,1.07,2.71,1.63,4.06.4.94.89,1.84,1.29,2.77a54.48,54.48,0,0,1,2.18,5.26c.66,2.07,1.07,4.22,1.59,6.33a1.3,1.3,0,0,0,.16.31,11.33,11.33,0,0,1,2.31,5.79,2.91,2.91,0,0,0,.22,1.22,21.72,21.72,0,0,1,2.54,7.53,35.06,35.06,0,0,0,1.22,4.46c0,.12.07.23.1.34.77,2.44,1.55,4.89,2.31,7.34.57,1.85,1.09,3.73,1.7,5.58.39,1.21.9,2.38,1.35,3.58.68,1.82,1.47,3.6,2,5.46.62,2.09,1,4.24,1.52,6.37,0,.16.21.28.27.44.72,1.94,1.52,3.85,2.12,5.82s1.07,4.28,1.6,6.42c0,.11.11.2.15.31.72,1.84,1.5,3.66,2.14,5.52s1.18,3.87,1.8,5.8A7.15,7.15,0,0,0,252.7,531c1.44,1.45,1.66,3.36,2.19,5.08a15.94,15.94,0,0,0,4.5,7,2.51,2.51,0,0,1,0,3.79c-1,.71-1.95,1.51-3,2.16-1.68,1-3.45,2-5.14,3s-3.52,2.28-5.29,3.4c-1.5,1-2.16,2.39-3,3.93-1.79,3.31-.89,7.1,2.65,8.07a35.26,35.26,0,0,0,7.55,1.33c4.6.24,9.23.1,13.84.18a20.19,20.19,0,0,1,7,.87c2.31.87,4.81-.26,7.25-.77,3.85-.82,7.83-1,11.76-1.53a3.25,3.25,0,0,0,.69-.14c2.09-.74,4.2-1.47,6.28-2.25a46,46,0,0,0,6.45-2.6c3.28-1.85,4.63-5.14,5.2-8.66.66-4-2.71-6.45-4.16-9.65-.33-.72-.61-1.46-.89-2.12Z"/><path d="M313.25,540l-6.68,2.09c.28.66.56,1.4.89,2.12,1.45,3.2,4.82,5.64,4.16,9.65-.57,3.52-1.92,6.81-5.2,8.66a46,46,0,0,1-6.45,2.6c-2.08.78-4.19,1.51-6.28,2.25a3.25,3.25,0,0,1-.69.14c-3.93.48-7.91.71-11.76,1.53-2.44.51-4.94,1.64-7.25.77a20.19,20.19,0,0,0-7-.87c-4.61-.08-9.24.06-13.84-.18a35.26,35.26,0,0,1-7.55-1.33c-3.54-1-4.44-4.76-2.65-8.07.84-1.54,1.5-3,3-3.93,1.77-1.12,3.5-2.31,5.29-3.4s3.46-2,5.14-3c1.05-.65,2-1.45,3-2.16a2.51,2.51,0,0,0,0-3.79,15.94,15.94,0,0,1-4.5-7c-.53-1.72-.75-3.63-2.19-5.08a7.15,7.15,0,0,1-1.13-2.84c-.62-1.93-1.14-3.89-1.8-5.8s-1.42-3.68-2.14-5.52c0-.11-.12-.2-.15-.31-.53-2.14-1-4.31-1.6-6.42s-1.4-3.88-2.12-5.82c-.06-.16-.23-.28-.27-.44-.5-2.13-.9-4.28-1.52-6.37-.55-1.86-1.34-3.64-2-5.46-.45-1.2-1-2.37-1.35-3.58-.61-1.85-1.13-3.73-1.7-5.58-.76-2.45-1.54-4.9-2.31-7.34,0-.11-.07-.22-.1-.34a35.06,35.06,0,0,1-1.22-4.46,21.72,21.72,0,0,0-2.54-7.53,2.91,2.91,0,0,1-.22-1.22,11.33,11.33,0,0,0-2.31-5.79,1.3,1.3,0,0,1-.16-.31c-.52-2.11-.93-4.26-1.59-6.33a54.48,54.48,0,0,0-2.18-5.26c-.4-.93-.89-1.83-1.29-2.77-.56-1.35-1-2.77-1.63-4.06-.91-1.79-2-3.49-3-5.23-.69-1.2-1.4-2.39-2-3.62-1.26-2.41-2.5-4.82-3.67-7.27-.58-1.2-1-2.47-1.44-3.72-.52-1.45-.94-2.95-1.55-4.36-1.1-2.56-2.31-5.06-3.47-7.59-.93-2-1.73-4.11-2.81-6.05s-1.71-4-3.47-5.48c-.83-.7-1.19-2-1.7-3s-1-2.38-1.59-3.55A1.59,1.59,0,0,0,194,387c-1.41,1.32-2.93,2.54-4.25,4s-2.15,2.87-3.37,4.18a33.72,33.72,0,0,1-3.31,2.87l-7,5.76c-1.4,1.16-2.78,2.32-4.17,3.49-1.13,1-2.32,1.85-3.39,2.87-1.61,1.54-3.21,3.1-4.68,4.76-2,2.28-4,4.56-5.8,7a71.14,71.14,0,0,0-3.72,6.4,1.79,1.79,0,0,0-.09.35,59.45,59.45,0,0,1-1.49,6.23c-.92,2.64-2.15,5.18-3.22,7.78a5.22,5.22,0,0,0-.43,1.53c-.1,1.49-.14,3-.17,4.49a12.76,12.76,0,0,0,2.46,7.92c.21.3,0,.84.19,1.22.69,1.81,1.43,3.6,2.15,5.39.07.17.18.32.23.48.54,1.82,1,3.67,1.63,5.44.56,1.49,1.37,2.88,2,4.33a3.57,3.57,0,0,1,.37,1.16c.16,2,1.28,3.51,2.24,5.14.65,1.1.95,2.39,1.54,3.53.77,1.48,1.65,2.91,2.53,4.32.5.81.07,4.17-.7,4.82-2,1.73-2.1,2.09-.69,4.18a1.29,1.29,0,0,1,.18.67c0,2.31,1.41,3.94,2.44,5.81s2.15,4.27,1.42,6.68a19.22,19.22,0,0,1-1.86,3.71,23.12,23.12,0,0,1-2.46,3.92c-2.75,3.09-6.4,4-10.42,3.9-5.15-.12-10.3-.16-15.46-.24H135c-.48,3.15-1.16,6.09-1.33,9.06-.23,4.12-.15,8.27-.06,12.4a8.71,8.71,0,0,0,.88,3.28c.64,1.41-.2,6.27-1.43,7.23a.88.88,0,0,1-.5.17c-2.8.24-3.14,2.72-4.26,4.55-1.48,2.42-2.68,4.89-5.72,6.19a23.48,23.48,0,0,1-6.11,1.32c-.78.12-1.6.88-2.28.74-2.71-.55-5.37-1.33-8.05-2-.17-.05-.33-.13-.5-.18-2-.52-4.23-.74-6.12-1.61-4.15-1.91-8.45-1-12.66-.92a72.84,72.84,0,0,0-10.35,1.3c-.41.06-1.07.73-1,1.09.13,2.35-1.81,3.06-3.25,3.79-2.39,1.21-5.1,1.8-7.57,2.91-2.13,1-4.11,2.26-6.15,3.41a1.61,1.61,0,0,1-.49.21c-2.16.45-4.36.79-6.5,1.37A42.74,42.74,0,0,0,47.3,577c-1.86.72-3.68,1.78-5.62,2-4.07.59-8,2-12.24,1.64-1.14-.09-2.48,1.07-3.48.78-2.18-.62-4.68-.32-6.51-2a1.11,1.11,0,0,0-.49-.18,50.25,50.25,0,0,1-5.75-1.41,42,42,0,0,1-6.33-3,35.21,35.21,0,0,1-4.64-3.31c-1.83-1.48-3-5.55-1.68-7.35,1-1.36,2-3,4.22-3.28,2.53-.37,5-1.45,7.43-2.18.57-.16,1.21,0,1.78-.21,1-.3,2-.71,3.07-1.07a2.45,2.45,0,0,1,.65-.24,12.76,12.76,0,0,0,4.5-1.07,42.53,42.53,0,0,1,7.17-1.56,4.46,4.46,0,0,0,3.44-4.24c0-1.79-.5-3.66,1-5.26.38-.41.11-1.39.17-2.1.12-1.49-.38-3.1,1-4.36.27-.25.18-.92.18-1.4.1-8.86.13-17.73.32-26.59,0-1.78.91-3.54.95-5.31.12-6.35.84-12.83-.13-19-1.34-8.53,0-17.09-1.35-25.49-.51-3.24-.45-6.55-1.14-9.7-2.07-9.41-1-18.91-1.18-28.38-.07-4.61-.37-9.31.37-13.82.63-3.76.35-7.65,1.31-11.22.89-3.32.56-6.62,1.2-9.85.56-2.81,1.41-5.55,2.13-8.32a5.78,5.78,0,0,0,.14-.7c.48-3.74.91-7.48,1.45-11.21a7.1,7.1,0,0,1,.89-1.95c.08-.16.23-.29.25-.45a15.29,15.29,0,0,1,1.16-5.51A45.2,45.2,0,0,1,43.85,355c1.6-2.53,3-5.2,4.46-7.81.73-1.28,1.57-2.51,2.17-3.86a2.86,2.86,0,0,0-.09-2c-.59-1.52-1.43-2.94-2-4.45a5.14,5.14,0,0,1-.23-2.31,6.76,6.76,0,0,0-2-5.36,3.15,3.15,0,0,1-.51-1.32c-.5-2-.58-4.28-1.57-6-1.19-2.09-1.14-4.19-1.13-6.34a7.08,7.08,0,0,1,.94-2.88c.56-1.13.12-2.38-1.13-2.31-2.19.13-2.46-1.09-2.37-2.77a5.23,5.23,0,0,0,0-1.25c-.49-3.07,1.42-4.77,3.49-6.47a50.38,50.38,0,0,0,3.8-3.65,1.85,1.85,0,0,0,.43-1.1,18.18,18.18,0,0,1,1.08-6.36c.83-2,.32-4.48.46-6.76a10.84,10.84,0,0,0-2.36-7.29c-2.62-3.55-1.69-7.59-1.5-11.53,1.77-1.3,1.83-4,4.29-4.89a2.86,2.86,0,0,0,2-3.46c-.19-.86.07-1.82-.1-2.69-1-5.2-.88-10.52-1.58-15.71-.4-3-.59-6-.88-9A3.18,3.18,0,0,0,48,225.26a7.37,7.37,0,0,1-3.81-4.4c-.2-.63-.94-1.14-1-1.75a12.51,12.51,0,0,1,.51-3,42,42,0,0,1-2.9-4.73,4,4,0,0,1,.11-3c.73-1.63,1-2.78-.07-4.62-.81-1.37-.12-3.67.06-5.55.09-.85.71-1.66.8-2.52.15-1.42,0-2.87.08-4.3a5.52,5.52,0,0,1,5.87-5.3H48c3.72.08,3.55.05,4.21-3.59.36-2,1.43-3.8,2.17-5.69a1.5,1.5,0,0,0,.11-.34c.21-2.61,1.65-4.89,1.67-7.64a33.35,33.35,0,0,1,1.41-9c.85-3,1.87-5.89,2.51-9,.28-1.39,1.34-2.61,2-3.95s1.16-2.76,1.66-4.17Q64.88,139.42,66,136c.54-1.65.91-3.36,1.52-5s1.41-3.27,2.18-4.87c1-2,2-4,3-6,.76-1.42,2-2.7,2.36-4.2.48-2.06,1.76-3.53,2.85-5.15,1.94-2.88,4.07-5.62,6.06-8.47a21.5,21.5,0,0,0,1.72-3.12,4.23,4.23,0,0,0-1.1-.71c-1.65,1.89-4,1.27-5.87,1.18a29.08,29.08,0,0,1-8-1.59c-1.28-.44-2.33-1.85-3.24-3a24.81,24.81,0,0,1-3.34-5.15c-.44-1,.07-2.4.17-3.61a8.64,8.64,0,0,0,.15-1.8c-.27-1.71-1-3.41-.89-5.09A6.92,6.92,0,0,0,62.46,75c-.15-.23-.14-.57-.12-.47-2.05-1.28-3.87-2.39-5.65-3.56A1.91,1.91,0,0,1,56,69.93,6.67,6.67,0,0,1,56,68.14c.09-1.4-.1-2.69.93-4.1s1.07-3.61,1.6-5.44c.31-1.09.74-2.15,1.11-3.22a2.19,2.19,0,0,0,.12-.33c.84-5.11,2-10.19,1.15-15.43-.29-1.72-1-3.51-.74-5.17a69.55,69.55,0,0,1,2.09-8.81,45.73,45.73,0,0,1,1.59-4.71,11.37,11.37,0,0,1,1.42-2.75c2.07-2.77,4.13-5.55,6.4-8.14a28.71,28.71,0,0,1,4.31-3.49,26.23,26.23,0,0,1,5.34-2.9c2.41-1.08,5-1.6,7.33-2.56,4-1.63,8.05-.91,12.08-1,2.78-.1,5.21,1.18,7.69,2.2A19.28,19.28,0,0,0,112,3.73c2.77.51,4.13,2.86,6.06,4.41a32,32,0,0,1,4.81,5.18A10.5,10.5,0,0,1,124,16.15c.58,1.51,1.1,3.05,1.78,4.52s1.44,2.68,2.17,4c0,.1.17.19.19.29a57.34,57.34,0,0,1,1.42,6.51c.26,2.44.05,4.92.18,7.37.06,1,.61,2,.68,3a17.08,17.08,0,0,1-.29,3.25,16.85,16.85,0,0,0-.37,1.68c0,2.33,0,4.67,0,7a18.85,18.85,0,0,0,.52,2,4.16,4.16,0,0,1,0,2c-1,2.51-.8,3.53.75,5.36a19.11,19.11,0,0,1,2.5,4.12c.84,1.74,1.51,3.56,2.19,5.37a5.52,5.52,0,0,1,.22,1.77c.06,2.94.22,5.88.09,8.81-.1,2.12,1.23,3.62,1.84,5.42.2.58.69,1.16.66,1.72-.11,1.82,1,2.9,2,4.15a41.18,41.18,0,0,1,3,4.47c1.07,1.78,2,3.63,3,5.44a33,33,0,0,1,2.16,4c.67,1.71,1,3.55,1.58,5.3.65,1.93,1.43,3.82,2.16,5.72a2.17,2.17,0,0,1,.07.35c.52,2.76,1,5.52,1.55,8.26.4,2,.85,4,1.31,6,.05.18.32.45.46.44s.63-.2.69-.39c.67-2.16,2.19-3.6,3.85-5a21,21,0,0,0,2.59-3.36,17.69,17.69,0,0,1-2.88-1.52c-1.29-1-3.11-1.12-3.78-3.11-.47-1.41-1.8-2.54-2.76-3.78,0,0-.12-.07-.13-.12a34.27,34.27,0,0,1-1.91-5.42c-.37-2,.24-4.17-1.44-6.08-.87-1-.87-2.8-1.18-4.26-.43-2-1-3.67-3.29-4.67-1.63-.73-3.48-2-3.28-4.52.15-1.85-.12-3.76.26-5.55s1.69-3.69,2-5.62a28.53,28.53,0,0,0-.27-6.17c0-.26-.31-.5-.36-.78-.49-2.59-.85-5.21-1.47-7.77-.66-2.74-1.55-5.42-2.35-8.12a3.46,3.46,0,0,1-.19-.68c-.29-5.69-2.08-11.29-1.21-17A87.11,87.11,0,0,1,141,32.09a6.73,6.73,0,0,0,.18-1.42c.22-4.08,2.28-6.9,5.85-8.8,1.67-.88,3.2-2,4.82-3a6.63,6.63,0,0,1,1.81-.65c3.31-.84,6.64-1.66,10-2.47a5.2,5.2,0,0,1,1.25-.11c6.54,0,13.07-.22,19.6,0,2.62.09,5,1.44,7.23,3a50.49,50.49,0,0,0,4.87,3.27,5.83,5.83,0,0,1,3,3.12c.19.5.78.82,1.09,1.29,1.68,2.63,3.49,5.19,4.92,7.94.86,1.66,1.1,3.64,1.65,5.47.67,2.27,1.36,4.54,2.05,6.8a6,6,0,0,1,.26.66,69,69,0,0,1,1.34,21.06c-.23,2-1.43,4-2.14,6a10,10,0,0,0-.24,1.58c-.34,2.12.41,4.34-1,6.39-.65,1,.88,2.84,2.48,3.08,2.29.36,3.59,2,4.93,3.58a40,40,0,0,1,3.48,4.55c1.14,1.8,2,3.76,3,5.65,1.16,2.19,2.41,4.33,3.45,6.57.66,1.41.95,3,1.53,4.44,1.18,3,2.45,5.94,3.67,8.9a3.34,3.34,0,0,1,.18.5c.51,2.53.66,5.22,1.64,7.56,1,2.53.42,5.23,1.27,7.57,2.06,5.66,1,11.43,1.11,17.14.19,11.69,0,23.38.14,35.07a59.91,59.91,0,0,0,1.38,10.38,31.11,31.11,0,0,0,2,5.26,7.2,7.2,0,0,1,.31,1,50.9,50.9,0,0,0,1.48,6.29c1,2.7,2.74,5.17,3.37,7.92.49,2.16,1.88,3.67,2.57,5.53a43.64,43.64,0,0,1,2,7.16,46.84,46.84,0,0,1,1.14,7.68c.09,4.3.7,8.88-.49,12.87-1.89,6.35-.8,12.57-.76,18.82a21.76,21.76,0,0,0,2.16,9.7c.8,1.59,1,3.46,1.67,5.13a42,42,0,0,0,2.06,4,1.58,1.58,0,0,1,.2.49c.45,2.87,1.84,5.53,1.61,8.6-.14,1.86.58,3.79.9,5.69a7.46,7.46,0,0,1,.13,1.25c0,8.93,0,17.87-.05,26.8a17.11,17.11,0,0,1-.5,2.38,1.57,1.57,0,0,0,.16.9,2.06,2.06,0,0,1-.31,2.78c-.45.46-.09,1.79,0,2.7.08.55.56,1,.63,1.57.55,4.27.52,8.69,1.68,12.77,1.53,5.36.3,10.73,1.07,16,.49,3.46,1.43,6.85,2.16,10.28.13.64.17,1.3.3,1.95.31,1.46-.24,3,1.09,4.43.77.85.17,2.88.36,4.37a15.86,15.86,0,0,0,.86,2.75,5.25,5.25,0,0,1,.22.67c.49,2.64.84,5.31,1.49,7.91.54,2.14,1.45,4.19,2.18,6.29.58,1.68,1.08,3.4,1.74,5.05s1.51,3.06,2.14,4.64,1,3.31,1.65,4.93,1.38,3,2.06,4.57c.59,1.32,1.16,2.65,1.7,4s.91,2.71,1.54,4c.79,1.59,1.78,3.09,2.68,4.63s1.65,2.81,2.43,4.24c1.17,2.14,2.37,4.27,3.43,6.46.69,1.46,1.08,3.05,1.74,4.52s1.57,2.88,2.22,4.38,1,3,1.61,4.44,1.37,3.08,2.08,4.61c.48,1,1.05,2,1.44,3.13.61,1.66,1,3.39,1.67,5s1.49,3.15,2.25,4.73a1.83,1.83,0,0,1,.11.33c.52,2.15,1,4.32,1.56,6.46.72,2.69,1.52,5.35,2.28,8a2.14,2.14,0,0,1,.13.89c-.54,2.87.91,5.4,1.63,8a68,68,0,0,1,2.56,11c.2,1.75,1.29,3.4,2,5.09a5,5,0,0,1,.27.63c.56,2.43.71,5.05,1.75,7.26,1.22,2.6.67,5.25,1.08,7.84A8.9,8.9,0,0,1,313.25,540ZM148.54,325.87a55.86,55.86,0,0,0-4.35,4.05,26.49,26.49,0,0,1-3.71,2.89c-1.77,1.45-3.1,3.43-4.67,5.15-2.17,2.38-4.16,5-6.63,7s-4.05,4.75-5.85,7.28c-1.19,1.68-1.83,3.75-3,5.48-1.82,2.72-3.89,5.29-5.81,7.95a18.77,18.77,0,0,0-1.66,2.66c-1.09,2.14-2.07,4.33-3.15,6.47-.6,1.19-1.33,2.33-2,3.51-.8,1.5-1.57,3-2.32,4.54a19.76,19.76,0,0,0-1.6,3.51c-.63,2.41-1,4.88-1.56,7.32,0,.21-.25.39-.34.6a26.65,26.65,0,0,0-2,4.92c-.48,2.47-.42,5-1.1,7.49-.88,3.22-.2,6.73-1.42,10.08-.77,2.13-.72,4.62-1,6.92-.63,4.7-2.33,9.3-1.77,14.15a2.44,2.44,0,0,1,0,.54c-.29,2.3-.62,4.59-.84,6.89a12.13,12.13,0,0,0,.1,3c.12.82.64,1.59.73,2.4.19,1.73-.34,3.79.45,5.12a8.27,8.27,0,0,1,.85,4.38c.1,2.45-.06,4.92.13,7.36a54.42,54.42,0,0,0,1,6.06c.44,2.38-.58,4.54-.93,6.8-.61,4,0,8.13-1.14,12.22-.94,3.49-.42,7.28-1.37,10.95s-.1,7.84-1.27,11.77c-.75,2.54-2.27,5.06-1.7,7.94,0,.12-.21.28-.25.44-.32,1.52-1,3.09-.84,4.55a9.35,9.35,0,0,0,1.94,4.28A44.42,44.42,0,0,0,96,537.2a34.12,34.12,0,0,0,4.59,4.18c2.49,1.65,5.34,2.76,7.82,4.42a14.47,14.47,0,0,0,8.76,2.43,6.92,6.92,0,0,1,1.43.13c1.75.37,3.5.78,5.26,1.16.47.1,1.14,0,1.39.22,1.36,1.48,3.13.75,4.7,1s2.34-.55,2.09-2.1-.94-3.11-1-4.67c-.11-5,0-10.07,0-15.1a4.67,4.67,0,0,1,.15-1.06,28.73,28.73,0,0,0,.87-3.7c.52-5.29-.73-10.67,1.26-15.9.81-2.14.91-4.57,1.25-6.88.38-2.54.28-5.06,1.21-7.65,1.14-3.17,1.08-6.77,1.52-10.19a20.58,20.58,0,0,1,.44-3.36c.6-1.93,1.67-3.75,2.07-5.7.68-3.34.94-6.77,1.49-10.14.38-2.33.94-4.63,1.43-6.94a2.26,2.26,0,0,1,.19-.49c.68-1.87,1.81-3.7,2-5.61a30.15,30.15,0,0,1,2.57-10.08,50,50,0,0,0,1.66-5.16c.8-2.47,1.6-5,2.46-7.4a26,26,0,0,1,1.69-4.12,44.08,44.08,0,0,1,3.25-5,65.18,65.18,0,0,1,4.79-5.92c1.76-1.88,3.76-3.55,5.69-5.27,2.82-2.53,5.63-5.07,8.51-7.53,1.32-1.13,2.9-1.95,4.15-3.14,2.44-2.32,4.69-4.86,7.11-7.2,2.83-2.72,5.75-5.34,8.64-8s6.06-5.59,9.1-8.37c.62-.56,1.06-.57,1.41.39.49,1.32-.48,1.67-1.2,2.34-2,1.87-3.66,4.06-5.81,5.66-1.21.9-.91,1.73-.7,2.57a10,10,0,0,0,1.33,2.62c1.24,2,2.53,4.05,3.77,6.09,1.06,1.75,2.48,3.24,2.9,5.43.24,1.25,1.58,2.24,2.12,3.49,1.07,2.48,1.9,5.07,2.87,7.6.44,1.16,1,2.27,1.48,3.4.75,1.71,1.51,3.42,2.24,5.14.13.32.07.73.23,1,1.16,2.25,2.35,4.49,3.52,6.74.46.89.88,1.81,1.31,2.71.57,1.18,1.09,2.38,1.71,3.52.72,1.31,1.57,2.54,2.26,3.86s1,2.62,1.79,3.79c1.74,2.74,3.25,5.52,3.44,8.85a3.11,3.11,0,0,0,.2,1.05c1.12,2.63,2.35,5.22,3.36,7.9s1.82,5.3,2.61,8c.62,2.09,1.06,4.24,1.59,6.36a2.41,2.41,0,0,0,.07.35c.78,2.47,1.63,4.93,2.33,7.43.61,2.12,1.05,4.28,1.57,6.42a.86.86,0,0,0,.12.34c2.09,2.28,2.24,5.4,3.41,8.08.88,2,.81,4.48,1.71,6.49a12.45,12.45,0,0,1,1.19,4.69c0,.15.19.29.26.44a34.38,34.38,0,0,1,2,4.78c.43,1.53.35,3,1.24,4.64,1.51,2.71,1.4,6.11,2.81,9,.7,1.44.92,3.09,1.55,4.57,1.09,2.53,2.45,5,3.49,7.52a10.62,10.62,0,0,0,4.85,5.22,12.57,12.57,0,0,0,7.11,1.71,50.85,50.85,0,0,1,8.09.12c4.88.38,9.55-.7,14.26-1.65l.35-.08c2.88-.78,5.75-1.62,8.65-2.31,2.26-.54,4.56-.88,6.84-1.34a2.2,2.2,0,0,0,.73-.48c.94-.76,1.3-5.65.64-6.93a29,29,0,0,1-2.09-4.71c-.68-2.26-1.09-4.62-1.61-6.93-.05-.24-.1-.47-.17-.7-.72-2.25-1.86-4.46-2.08-6.75-.32-3.23-1.48-6.09-2.5-9.09-.88-2.6-1.07-5.43-1.61-8.15-.48-2.39-.71-4.9-1.68-7.08a11.6,11.6,0,0,1-.94-3.78,2.74,2.74,0,0,0-.16-.87c-.76-1.68-1.58-3.33-2.33-5-.59-1.31-1.11-2.65-1.68-4-.75-1.76-1.52-3.51-2.26-5.27-.14-.32-.1-.73-.26-1a20,20,0,0,1-2.07-3.74,28.41,28.41,0,0,0-2.58-6.06,64.28,64.28,0,0,1-2.74-6.37c-.42-1-.84-2-1.31-2.91-.69-1.41-1.37-2.83-2.14-4.2-1-1.68-2.1-3.26-3-5-1.08-2.17-1.76-4.55-3-6.64-1.06-1.84-2.35-3.51-2.53-5.72a1.4,1.4,0,0,0-.17-.51c-1.15-2.58-2.35-5.15-3.44-7.76-.63-1.53-1-3.18-1.66-4.7-1.05-2.37-2.37-4.63-2.46-7.32a4,4,0,0,0-.26-.86c-.73-2.49-1.64-4.95-2.15-7.48-.63-3.15-.53-6.51-1.52-9.52a28,28,0,0,1-1.29-6.19,1.5,1.5,0,0,0-.09-.35c-.73-2.55-1.84-5.07-2.13-7.68-.63-5.67-.74-11.39-1.23-17.08-.38-4.4-.94-8.8-1.57-13.18a23.42,23.42,0,0,0-1.38-4.46c-.06-.16-.75-.29-1-.15-1.24.69-2.4,1.5-3.62,2.22-.93.55-1.92,1-2.87,1.54-1.41.79-2.77,1.68-4.23,2.39-1.15.56-2.5.75-3.61,1.38-2.74,1.55-5.63,1.15-8.5.81-1-.12-1.88-.73-2.86-.88-2.59-.39-5.19.09-7.82-1s-5.58-1.23-8.39-1.79c-.11,0-.27,0-.35-.06-1.87-1.7-4.19-.88-6.31-1.11L190,342.5a3.34,3.34,0,0,1-.68-.21c-.89-.34-1.77-.73-2.67-1a31.07,31.07,0,0,1-5-1.52,24.26,24.26,0,0,0-7.59-2.36,3.33,3.33,0,0,1-2.75-4.65,12.52,12.52,0,0,0,1-3.67c.15-2.32,0-4.67,0-7,0-1.73.17-3.45.33-5.17a5.51,5.51,0,0,1,.53-1.33,7.44,7.44,0,0,0-2.1.63c-.76.5-1.29,1.34-2,1.89-1.34,1-2.78,1.85-4.13,2.83-1.54,1.12-2.9,2.59-4.59,3.41a92.18,92.18,0,0,1-9.36,3.74c-.45.16-1.27-.49-1.8-.91C148.82,326.89,148.74,326.34,148.54,325.87Zm7.61-179.81c.51-.81,1-1.61,1.52-2.4,1-1.48,2-2.92,2.9-4.43,1.14-1.9,2.12-3.89,3.27-5.78q1.51-2.47,3.26-4.79c1.81-2.42,3.59-4.89,5.6-7.13,1.79-2,3.92-3.7,5.84-5.59,2.79-2.75,5.74-5.08,10-5,1.2,0,2.41-.5,3.62-.58a2.46,2.46,0,0,1,1.81.6c.6.66.47,1.45-.52,1.84a8.3,8.3,0,0,1-2.21.84c-1.78.15-3.59.06-5.38.15a2.88,2.88,0,0,0-1.62.54,57.29,57.29,0,0,1-4.67,4.31c-3.35,2.34-5.77,5.57-8.41,8.55-2.1,2.36-3.55,5.3-5.32,8-.33.5-.86.87-1.14,1.38a55.59,55.59,0,0,1-2.9,5.52c-1.79,2.58-3.4,5.16-3.77,8.35a2,2,0,0,1-.16.69c-.75,1.7-1.49,3.4-2.27,5.07-1.2,2.56-2.13,5.28-4.56,7.06-.72.53-1.19,1.4-1.92,1.91-1.92,1.33-3.76,2.76-6.29,3-3.4.3-7-.87-10.18,1.13-1.38.85-3,1.38-4.16,2.48a23.11,23.11,0,0,1-8.63,5.22c-2.42.87-5.16.82-7.76,1.23-3.35.52-6.7,1.08-10,1.64a2.53,2.53,0,0,0-.62.3c-.64.31-1.27.64-1.92.94s-1.44.64-2.18.92c-1.48.56-3,1-4.44,1.67a39.57,39.57,0,0,0-4.32,2.6c-.16.1-.21.59-.12.83.75,1.95,1.6,3.86,2.29,5.83.61,1.73,1,3.54,1.6,5.28.39,1.19.89,2.36,1.39,3.51.75,1.7,1.59,3.37,2.32,5.09.54,1.23.71,2.7,1.48,3.73,2.09,2.77,3.52,5.93,6,8.51,3.07,3.21,5.45,7.08,8.1,10.67,1.12,1.51,2.69,2.24,3.68,1.39,2.52-2.18,5.82-2.36,8.74-3.27s6.48-.46,9.76-1.3c3.51-.91,7.43.61,10.88-1.47,1.35-.81,2.78-1.47,4.19-2.17s2.67-1.28,4-1.9a10.37,10.37,0,0,0,1-.36c2.49-1.58,5-3.21,7.47-4.77,1-.61,2.14-1,3.11-1.61,2.38-1.56,4.7-3.22,7-4.84,2-1.38,4-2.69,5.95-4.15s3.8-3.21,5.79-4.71c2.23-1.68,4.57-3.22,6.86-4.83,2.12-1.5,4.25-3,6.35-4.5,1.09-.78,2.15-1.61,3.18-2.47s1.87-1.69,2.8-2.53a43.8,43.8,0,0,0,3.4-3.12,67.25,67.25,0,0,0,4.72-5.81,19.6,19.6,0,0,0,2.85-5.1c.65-2,2.15-3.84,1.69-6.17,0-.16.1-.34.15-.51.74-2.77,2-5.52,2.12-8.33.33-6.27.08-12.57.12-18.85a11.89,11.89,0,0,1,.51-2.43c2.74,2,2.84,4.76,3.33,7.37.73,3.89-.9,7.51-1.18,11.29-.25,3.39-.87,6.76-1.45,10.12a33.26,33.26,0,0,1-1.23,4.33,32.2,32.2,0,0,1-1.36,3.75c-.79,1.71-1.69,3.38-2.64,5a14.6,14.6,0,0,1-1.71,2c-1.46,1.64-2.91,3.27-4.38,4.9-1.24,1.37-2.45,2.79-3.77,4.09a22.7,22.7,0,0,1-2.78,2.19c-1.52,1.07-3.07,2.08-4.61,3.12s-2.92,1.93-4.32,3c-2.06,1.52-4.08,3.08-6.09,4.67s-3.83,3.14-5.78,4.67c-1.43,1.11-2.89,2.2-4.39,3.21-1.73,1.17-3.51,2.27-5.29,3.37s-3.5,2.08-5.23,3.16c-1,.64-2,1.38-3,2-1.54,1-3.07,2-4.66,2.84-1.25.69-2.63,1.14-3.86,1.85-1.71,1-3.32,2.15-5,3.18a16.53,16.53,0,0,1-2.88,1.45c-1.82.66-3.7,1.2-5.74,1.85,0,4.16-.18,8.36,0,12.54.26,4.58.9,9.15,1.39,13.72a1.55,1.55,0,0,0,.28.83c1.22,1.2,1,2.73,1,4.2,0,.48-.13,1.16.13,1.4,1.52,1.43,1.21,3.63,2.35,5.23s2,3.45,3.1,5.15,2.86,2.89,3.66,4.93a6.07,6.07,0,0,0,2.73,3,13.16,13.16,0,0,0,5.42,1.36c8.08.08,16.21,1.21,24.21-.89,3.14-.83,6.4-.25,9.65-1.16,3.44-1,7.28-.44,10.8-1.67,1.91-.67,3.88-1.14,5.81-1.74a31.82,31.82,0,0,0,3-1.1c1.68-.7,3.3-1.54,5-2.2s3.4-.95,5-1.71c2.21-1.06,4.25-2.46,6.41-3.61,2.51-1.32,5.09-2.53,7.64-3.78,1-.49,2.06-.89,3-1.47a7.49,7.49,0,0,0,2.74-2.16,15.45,15.45,0,0,0,1.26-4.36c.23-1.05-.12-2.53.48-3.12,1.31-1.29.93-2.72.94-4.1.06-4.44.11-8.88-.08-13.31a33.81,33.81,0,0,0-1.1-6c-.47-2.1-1.06-4.18-1.61-6.27a.31.31,0,0,0-.1-.15,6.28,6.28,0,0,1-2.41-4.07c-.4-2-1.54-3.93-2.27-5.92-.6-1.63-1.06-3.33-1.62-5-.49-1.43-1-2.86-1.55-4.26s-1.61-2.81-1.88-4.31A65.16,65.16,0,0,1,232,188.61c-.19-11.93,0-23.86-.22-35.79-.09-5.18,1-10.4-1-15.59-1-2.56-.25-5.66-1.31-8.49-.92-2.48-1.1-5.24-1.61-7.87a1.66,1.66,0,0,0-.16-.49,29.06,29.06,0,0,1-3.75-9.19,3.67,3.67,0,0,0-.2-.87c-.72-1.62-1.85-3.17-2.1-4.85-.4-2.73-2.46-4.47-3.41-6.86-.67-1.7-2.47-3-3-4.67-.87-2.55-2.87-3.9-4.63-5.52a12.53,12.53,0,0,0-2.77-1.58c-1.23-.65-1.82.74-2.69.89-1.43.24-2.74.38-3.88,1.46s-2.74,2-4,3.15S194.93,95,193.61,96c-2.24,1.75-4.45,3.59-6.62,5.4-3.54,2.94-6.43,6.66-9.56,10.09a28.75,28.75,0,0,0-2.38,3c-1.22,1.77-2.3,3.64-3.57,5.37-.91,1.24-2.08,2.29-3,3.5-1.15,1.43-2.2,2.94-3.31,4.4-.65.84-1.29,1.69-2,2.48a14.41,14.41,0,0,0-3.08,4,23.61,23.61,0,0,1-2,3.3,3.91,3.91,0,0,1-.72.85C155.44,139.88,154.79,144.11,156.15,146.06ZM94.72,401.37l-.55-.23a57.63,57.63,0,0,0-5.77,5.24c-1.71,2-4.18,2.88-6,4.64a28.54,28.54,0,0,1-4.5,3.47,21.24,21.24,0,0,1-4,1.77c-.26.11-.71-.25-1.07-.4.16-.34.23-.8.49-1,3.38-2.6,6.83-5.1,10.17-7.75,2.52-2,4.87-4.22,7.35-6.29,1.39-1.15,2.15-3.49,4.71-2.67.2.06.68-.3.82-.57.78-1.48,1.49-3,2.23-4.51a21.91,21.91,0,0,0,1.22-2.6c.58-1.7.88-3.5,1.58-5.14,1.16-2.74,2.56-5.36,3.82-8.06.5-1.07.78-2.25,1.33-3.3.74-1.42,1.64-2.76,2.45-4.15s1.71-3,2.62-4.53c.28-.47.81-.77,1.12-1.23,1.66-2.41,3.31-4.84,4.92-7.3.7-1.06,1.31-2.19,2-3.29l-.48-.58c-1.16.13-2.62-.14-3.41.46-1.45,1.11-2.94.78-4.43.83a2.05,2.05,0,0,1-1.27-.83c-1.37-1.63-.88-3.62-1-5.51-.4-7.72.55-15.5-1.21-23.16-.39-1.72,0-3.6-.22-5.38-.41-3.86-.94-7.7-1.5-12.1a21.36,21.36,0,0,0-2.26,2.35c-1.07,1.53-2,3.15-3,4.75-1.18,1.95-2.38,3.89-3.46,5.88-1.44,2.66-2.5,5.57-4.22,8a92,92,0,0,1-7.68,9.18,11.89,11.89,0,0,1-4,2.58c-1.74.75-3.79.86-5.43,1.76-2.26,1.24-4.74,1.4-7.12,2-1.83.43-3.81.16-5.73.24a3.41,3.41,0,0,0-1.75.27c-2.11,1.55-4.14,1.39-6.35.18a8.23,8.23,0,0,0-2.64-.52A52.25,52.25,0,0,1,50.3,349c-1,1.7-2.24,3.22-3.27,4.88-.86,1.37-1.59,2.82-2.33,4.26a18.55,18.55,0,0,0-1.58,3.46c-.46,1.69-.51,3.42-1,5.18-1.06,3.44-1.17,7.18-1.62,10.81a32,32,0,0,1-.24,3.4c-.67,2.88-1.71,5.69-2.19,8.6-.54,3.26-.09,6.55-1.2,9.87s-1.18,6.74-1.28,10.15c-.25,8.68-.44,17.37-.29,26.06.1,5.67.83,11.33,1.27,17,0,.54,0,1.08.06,1.62a10.47,10.47,0,0,0,.24,1.77,29.2,29.2,0,0,1,1,3.69c.56,5.67,0,11.35.89,17.09,1,6.88.75,14,.63,21-.09,5.14-1.07,10.27-1.26,15.42-.28,7.6-.21,15.22-.31,22.84a6.13,6.13,0,0,1-.25,2.48c-1.67,3.42-.73,7.08-1.14,10.6-.13,1.09.44,1.6,1.6,1.58s2.57-.24,3.54.27c2.89,1.51,6.09,1.53,9.15,2.14,2.17.43,4.37-.2,6.6-.74,3.37-.8,7.07.23,10.36-1.63,1.54-.87,3.26-1.39,4.85-2.17,2-1,4-2,5.9-3.08,1.12-.63,2.31-1.27,2.18-2.92-.09-1.13,0-2.28,0-3.42,0-12.77-1-25.58,1.12-38.3.61-3.64.15-7.31,1.11-11,1.27-4.94-.1-10.24,1.41-15.36.94-3.23.4-6.79,1.06-10.25,1.27-6.75.38-13.7,1.46-20.58,1.32-8.48-.93-17.25,1.51-25.76.57-2,.13-4,1.07-6.14A62.48,62.48,0,0,1,93,404.67C93.62,403.61,94.14,402.47,94.72,401.37ZM67.07,161.71c1.16,2.85-1.13,4.87-1.37,7.25a7.17,7.17,0,0,1-.75,1.69,16.5,16.5,0,0,1-1.51,3.77c-1.34,1.82-1.5,4-2.42,6-.32.69-.62,1.38-.9,2.08-.52,1.26-1.06,2.51-1.49,3.79a1.22,1.22,0,0,0,.24,1.13,21.3,21.3,0,0,0,2.92,1.31c.65.25,1.46.2,2,.58a6,6,0,0,0,5.66.43c3.13-1.15,6.19-2.58,9.58-2.16,2.11.27,3.53-1.07,5.2-1.67A33.46,33.46,0,0,0,91.12,182c.95-.63,2.18-1.78,2.2-2.72.09-5,.9-10-.79-15-1-3.08-2.22-6.39-1.77-9.9a21,21,0,0,0-.37-4.07c-.17-2-1-4.24-.29-5.88,1-2.47.14-5.22,1.86-7.57,1.05-1.43,1.05-3.6,1.72-5.37.18-.47,1.1-.65,1.68-1,.22.43.69.91.61,1.29-.39,2.1-.92,4.18-1.41,6.26,0,.09-.2.13-.25.22a6.18,6.18,0,0,0-.82,1.7,15.3,15.3,0,0,0-.14,2.87c0,5.07-.29,10.13,1.15,15.14,1,3.37,1.23,6.93,1.81,10.41a1.75,1.75,0,0,0,.14.51,6.3,6.3,0,0,1,.11,6.07c-.67,1.46-.11,3.6,1,3.62a15.12,15.12,0,0,0,4.21-.68c2.07-.59,4-1.59,6.12-2,2.4-.49,4.89,0,7.33-1,1.87-.82,4.06-.29,6.2-1.32a24.74,24.74,0,0,0,5.29-3.71,17.72,17.72,0,0,1,9.09-4.21c3.35-.54,6.88.81,10.17-1.24,1.08-.68,1.63-1.13,1.61-2.34,0-1.91.15-3.84,0-5.75-.33-4.65-.7-9.3-1.2-13.93-.33-3-.8-6.07-1.41-9.06a17.49,17.49,0,0,0-1.57-3.66,16,16,0,0,0-1.33-2.69,55.57,55.57,0,0,0-3.5-4.59,26.51,26.51,0,0,0-3.4-3.3,27.3,27.3,0,0,0-2.78-1.5,1.1,1.1,0,0,1-.23-.91c.86-.61,1.47-1.93,2.83-1.26a11,11,0,0,1,2.58,1.65,59,59,0,0,1,4.75,4.87,24.06,24.06,0,0,1,2.68,4.19,34.51,34.51,0,0,1,1.82,4.18,38.1,38.1,0,0,1,2.09,6.12c.4,2-.26,4.36.43,6.22a19,19,0,0,1,.84,6.47c.08,2.45,0,4.91.1,7.37a17.75,17.75,0,0,0,.41,2.46c2-1.58,2.27-3.46,2.22-5.53-.11-4.62-.11-9.24-.19-13.85a23.82,23.82,0,0,0-.26-3c-.26-1.85-.63-3.68-.87-5.53-.12-1-.06-1.92-.12-2.88a4.45,4.45,0,0,0-.26-1.19,23.8,23.8,0,0,1-1-2.5c-.55-2.42-1-4.87-1.48-7.3a2,2,0,0,0-.12-.34c-.71-1.42-1.5-2.8-2.1-4.26-1-2.41-1.83-4.9-2.83-7.31a16.16,16.16,0,0,0-1.69-2.89c-1.09-1.63-2.24-3.22-3.39-4.8a23,23,0,0,1-3.06-6c-.94-2.69-2.38-5.19-2.23-8.19a8.86,8.86,0,0,0-.27-3.38,5.14,5.14,0,0,0-1.77-2,52.44,52.44,0,0,0-4.14,3.33c-1.65,1.38-3.29,2.77-4.95,4.12-1,.79-2,1.45-2.94,2.28-1.91,1.74-3.66,3.68-5.67,5.29-.8.64-1.51,2.37-3.37,1,.12-.48.07-1.34.47-1.73,2.86-2.75,5.68-5.56,8.74-8.06,3.46-2.83,7.14-5.39,10.77-8,1.53-1.11,2.43-2.41,1.85-4.32a21.85,21.85,0,0,0-1.09-2.16c-.64-1.45-1.23-2.93-1.8-4.32A12.63,12.63,0,0,0,126,66.42c-2.56,1.88-5,3.94-7.45,6-1.91,1.57-3.82,3.14-5.68,4.78-1.54,1.34-3,2.83-4.49,4.16-2.85,2.47-5.78,4.84-8.62,7.32C98.15,90,96.61,91.46,95.15,93c-2.28,2.38-4.59,4.76-6.66,7.32-1.69,2.11-3,4.52-4.57,6.74-1.12,1.6-2.47,3-3.53,4.67-1.45,2.25-2.7,4.62-4.06,6.93-.57,1-1.25,1.88-1.79,2.87-1.05,1.93-2.14,3.85-3,5.85-.7,1.61-1.1,3.35-1.69,5-.7,2-1.61,3.91-2.15,5.94-.63,2.37-1.08,4.75-2.54,6.82a10.67,10.67,0,0,0-1.32,3.14c-.59,2-1.05,4-1.57,6.07a1.35,1.35,0,0,1-.11.34,19,19,0,0,0-2.33,8.62,14.27,14.27,0,0,1-.27,2.85c-.68,2.81-1.48,5.58-2.19,8.39-.53,2.05-1,4.13-1.49,6.19-.06.23-.43.36-.61.58-.9,1.08-.79,4.75.21,5.78.61-1.37,1.28-2.69,1.77-4.07.59-1.67,1-3.42,1.55-5.1a26.25,26.25,0,0,1,1.46-3.36,55.37,55.37,0,0,0,3.2-6.34C64.24,165.9,64.71,163.5,67.07,161.71Zm110,145a6.29,6.29,0,0,1,.38,2.07c-.28,1.34-.88,2.62-1.15,4a69.41,69.41,0,0,0-1.4,8.44c-.29,4-.17,8-.31,12,0,1.15.28,1.48,1.44,1.67a21.15,21.15,0,0,1,6,1.59c2.15,1.06,4.12,2.42,6.66,2.27a3.52,3.52,0,0,1,.87.2c2.88.75,5.73,1.64,8.65,2.2,1.68.32,3.48,0,5.2.18,3.63.41,7.24,1,10.86,1.47a2.51,2.51,0,0,1,.5.18c2.51.87,4.87,2.19,7.66,2.17,1.73,0,3.66-.28,5.15.38,4.29,1.9,8.36.78,12.23-.75,2.76-1.09,5.15-3.14,7.7-4.76a14.26,14.26,0,0,1,2-1.22c1.74-.76,2.92-1.63,3-3.89.09-2.69,1.08-5.35,1.18-8,.19-5.09.17-10.2,0-15.29-.13-3.13-.86-6.24-1.14-9.37-.2-2.39-.1-4.8-.16-7.19a3.94,3.94,0,0,0-.18-1.42c-.9-2.14-1.86-4.27-2.93-6.71a5.06,5.06,0,0,0-2.06.2c-1.7.93-3.08,2.31-5.07,2.84-1.63.44-3.07,1.55-4.69,2.12-1.91.68-3.91,1.09-5.87,1.62-1.44.4-2.89.8-4.33,1.22-.2.06-.36.27-.56.37-1.36.66-2.67,1.67-4.1,1.91-3.41.55-6.85.13-10.34,1.16-3.9,1.15-8.14,1.16-12.23,1.67-.41.05-.82.18-1.23.26a31.52,31.52,0,0,1-5,.89c-6.41.08-12.82,0-19.24,0a9.15,9.15,0,0,1-1.93-.32A19.31,19.31,0,0,0,169,300c-3.89-.14-7.79-.11-11.68-.12-.53,0-1.3,0-1.54.27a28,28,0,0,1-3.92,4.09c-1.39,1.17-1.93,3.32-2.85,5-.58,1.09-1.71,2-1.28,3.44.39,1.3,1.18,2.6,1.15,3.89-.06,2.78.87,5.29,1.53,7.89a1.54,1.54,0,0,0,2.27,1.14c2.5-1.24,5.06-2.38,7.52-3.7a29.42,29.42,0,0,0,4.36-2.89c2-1.56,3.81-3.23,5.65-4.92,1.12-1,2.48-2,3.1-3.3A8.76,8.76,0,0,1,177.11,306.75ZM145.18,63.88c2.7,1.21,5,2.14,7.2,3.24,2.92,1.45,6,2.62,7.46,6.07C161.05,76,163,78.41,164.57,81c.76,1.25,2.9,2.39,3.5,1.66A30.3,30.3,0,0,0,171,78.25c.64-1.14.78-2.67,1.63-3.57,1.58-1.67,3.32-3.44,5.84-3.53,3.24-.1,6.28,3.17,6.58,6.9a15.58,15.58,0,0,1-.77,4.34c-.7,3.58-.81,7.47,2.32,10.19,1.16,1,3.14,1.93,4.47,1.64,1.6-.35,2.95-2,4.35-3.14,1.72-1.41,3.31-3,5.1-4.31A20.12,20.12,0,0,1,204,85.15a.86.86,0,0,0,.42-.52c.48-2.16,1-4.31,1.36-6.48.24-1.41,0-3,.42-4.26,1-3,2.41-5.94,2.24-9.18s.61-6.72-.93-10.08c-.9-2-.41-4.4-1.34-6.64-1-2.52-1.17-5.42-1.7-8.15a2,2,0,0,0-.14-.7q-1.73-3-3.49-6a52.49,52.49,0,0,0-4-6.61,27.37,27.37,0,0,0-5.08-4.36A20.24,20.24,0,0,0,187.85,20c-1.54-.69-3.18-1.73-4.76-1.68-6.6.2-13.29-1.26-19.82,1-1.94.67-4.06.46-6.14,1.1a57.83,57.83,0,0,0-7.95,2.83,9.65,9.65,0,0,0-5.1,5.89c-.76,2.42-.67,5.13-1.43,7.67a26.5,26.5,0,0,0-.44,5,47.51,47.51,0,0,0-.57,6.15c.11,2.78.62,5.54,1,8.3a6.57,6.57,0,0,0,.19,1.42C143.62,59.87,144.5,62.1,145.18,63.88Zm-94.65,270c.52,1.54.89,2.91,1.44,4.2.63,1.5,1.13,3.22,3.27,3.26a.9.9,0,0,1,.61.29,3.48,3.48,0,0,0,4.53.56,6.5,6.5,0,0,1,4.54-.89c3.38.32,6.51-.7,9.71-1.39a3.67,3.67,0,0,0,.65-.26c1.82-.8,3.65-1.58,5.45-2.42a11.58,11.58,0,0,0,3.44-1.9,72.35,72.35,0,0,0,4.77-5.82c1.69-2.15,3.64-4.12,4.58-6.79a20.54,20.54,0,0,1,1.57-3.32c.64-1.16,1.65-2.16,2-3.37.76-2.26,2.57-3.77,3.67-5.76,1-1.8,2-3.6,3.06-5.35.28-.46.88-1,1.33-1,.83,0,2.16.18,2.38.68a24.73,24.73,0,0,1,2.41,7c.55,4.71.14,9.48,1.31,14.19.62,2.5.22,5.25.27,7.89.09,5.52.12,11,1.13,16.5.2,1.08.44,1.68,1.72,1.23a40.67,40.67,0,0,1,6.8-2.16c1.78-.3,2.24-1.59,3.12-2.66,1.42-1.76,2.83-3.53,4.36-5.19s3.19-3.14,4.77-4.72c1.12-1.12,2.23-2.24,3.32-3.39s2.39-2,2.94-3.3a55.21,55.21,0,0,0,2.72-8.55,79.12,79.12,0,0,0,1.27-8.3c.18-1.42.1-2.88.25-4.31.29-2.62.87-5.23,1-7.86.22-5.63.21-11.27.29-16.91,0-.48-.12-1.1.12-1.41,1.56-1.93,1.14-4.24,1.05-6.34a8.44,8.44,0,0,0-1.78-4.63,19.57,19.57,0,0,1-3.48-6.56c-.32-1-1.32-2.59-1.86-2.53a37.71,37.71,0,0,0-7.05,1.63,52.62,52.62,0,0,0-5.1,2.16c-.92.4-1.82.91-2.77,1.23-1.28.42-.92,1.64-1.39,2.44-1.13,1.91-2.47,3.7-3.63,5.59s-2,3.69-3.08,5.47c-1.59,2.58-3.31,5.08-4.92,7.65-.6,1-.94,2.1-1.59,3-1.52,2.12-3.16,4.16-4.74,6.25a6.53,6.53,0,0,0-1.23,1.92c-.68,2.5-4.45,3.56-6.48,1.91a31.85,31.85,0,0,0-4.66-3c-.44-.25-1.43-.32-1.65,0-1.66,2-4.3,2.19-6.25,3.6a33.6,33.6,0,0,0-4.28,3.37A30.29,30.29,0,0,0,77,310.29a43.26,43.26,0,0,0-2.87,5.1c-.65,1.38-1,2.91-1.56,4.33A10.1,10.1,0,0,1,70.78,323a80.54,80.54,0,0,1-6.89,6.16A16.72,16.72,0,0,1,59,332.08,78.84,78.84,0,0,1,50.53,333.89Zm42-119.2c-.27,1.1-.44,2.1-.77,3-.63,1.78-1.53,3.48-2,5.29-.66,2.6-1,5.27-1.53,7.91a2,2,0,0,1-.08.35c-.78,2-1.6,4-2.34,6-.64,1.74-1.08,3.57-1.79,5.28-1.06,2.56-2.33,5-3.42,7.58-1,2.33-1.9,4.71-2.85,7.07-.45,1.13-.94,2.24-1.4,3.37a57.31,57.31,0,0,0-2.22,5.55c-.64,2.16-1,4.4-1.44,6.6,0,.22-.24.42-.31.64-.32,1-.65,2-.91,2.95-.12.46.06,1.07-.19,1.41-1,1.36-.15,2.38.76,3,1.78,1.31,3,3.25,5.37,4,1.39.41,2.52,1.64,3.78,2.48,1.47,1,3,1.83,4.41,2.9,2.43,1.87,4.69,3.95,7.15,5.76,2,1.43,4.55,1.82,6.24,3.78.22.24,1.54-.07,2-.5a18.85,18.85,0,0,0,1.65-2.63c.69-1,1.49-2,2.2-3,1.39-2,2.84-3.87,4.08-5.91,1.56-2.54,2.84-5.26,4.42-7.78,1.39-2.2,3.15-4.16,4.54-6.35,1.85-2.89,3.64-5.83,5.2-8.89,1.15-2.25,1.73-4.79,2.85-7.05a21.42,21.42,0,0,0,2.55-7.33.93.93,0,0,1,.16-.5,10.22,10.22,0,0,0,2.39-6.24,2.29,2.29,0,0,1,.25-1.22,11.72,11.72,0,0,0,2.46-6.62c0-.55.57-1.06.62-1.61a18.66,18.66,0,0,0,.06-4.54c0-.27-1.82-.48-2.76-.38-2.51.25-5,.6-7.5,1.09a32.9,32.9,0,0,0-4.83,1.5,18.84,18.84,0,0,0-3.62,1.66,3.33,3.33,0,0,1-4.22-.27c-1.11-1.06-2.35-2-3.35-3.15a43.53,43.53,0,0,1-3.18-4.31c-1-1.42-1.6-3.18-2.83-4.3a18.87,18.87,0,0,1-3.86-4.78,8.48,8.48,0,0,0-1.68-2C95.12,213.33,93.79,214.82,92.49,214.69ZM111.9,74.58c-2.79-1.8-5.11-3.29-7.42-4.8-.26-.18-.61-.48-.61-.72,0-1.85-.6-4,.16-5.46a11.56,11.56,0,0,0,1.07-5.67c0-.76-.33-2.12-.62-2.16-1.45-.16-3.54-.55-4.29.22-1.56,1.59-3,3.58-2.87,6.16.1,1.7.19,3.47-1.64,4.52a16.36,16.36,0,0,0-1.94,1.24c-1.39,1-4.14.73-5.47-.39C86.49,66,86.61,63.8,85.75,62c-.71-1.5-.65-3.59-1.71-4.65A33.29,33.29,0,0,0,77.73,53c-1.16-.71-2.45-1.19-3.68-1.79a20.45,20.45,0,0,0-4-1.92A25.55,25.55,0,0,0,64.85,49c-.36,0-1,.16-1.07.41a29.1,29.1,0,0,0-1.34,4c-.61,2.56-1,5.18-1.66,7.73a10.63,10.63,0,0,1-1.59,3.75c-1.66,2.18,0,6,2.65,6.16,1.52.06,2.28,1.2,3.19,2.25,1.53,1.74,1.15,3.77,1.24,5.77,0,1-.08,2.22.44,2.94a3.42,3.42,0,0,1,0,4.62,2.17,2.17,0,0,0,0,1.82,23,23,0,0,0,2.3,4.15,8.79,8.79,0,0,0,3.07,3,26.71,26.71,0,0,0,6.06,1.56c3.07.58,5.86-.54,8.48-1.89a49.53,49.53,0,0,0,5.12-3.47c1.26-.87,2.57-1.67,3.75-2.64.84-.69,1.43-1.7,2.27-2.41,1.75-1.5,3.62-2.87,5.38-4.37.6-.52.94-1.35,1.55-1.86C106.93,78.56,109.31,76.68,111.9,74.58Zm76.15,22c-1.74-1-3.08-1.41-4-2.29s-2.22-2.23-2.39-3.49a50.32,50.32,0,0,1-.09-8.42c0-.86.9-1.72.84-2.55a15.56,15.56,0,0,0-1-3.66,3.12,3.12,0,0,0-3.23-2.45c-1.33,0-4.28,2.12-4.49,3.36-.49,2.84-2.21,4.94-4.12,6.86-2.2,2.21-3.31,2.11-5.64.13a12.47,12.47,0,0,1-1.58-2.4c-1.41-2-2.45-4.16-3.93-6.12-1-1.33-2.13-2.65-3.16-4A5.5,5.5,0,0,0,153.13,70c-1.58-.71-3.22-1.27-4.85-1.87-.91-.33-1.84-.61-2.77-.91l-.46.6a12,12,0,0,1,1.15,3.27c.19,4,.18,8,.21,12a5.33,5.33,0,0,1-.33,1.38c-.32,1.16-.64,2.32-1,3.48-.27.91-.61,1.81-.83,2.73a1.41,1.41,0,0,0,.1,1.12c.89,1,1.93,1.76,2.82,2.71A13.72,13.72,0,0,1,150.14,98a50.37,50.37,0,0,1,2,6.74l2,.28c0,2.1,0,4.18,0,6.25a9.27,9.27,0,0,0,2.49,6.35c1.29,1.49,2.72,2.86,4.08,4.3,1.08,1.16,4.25,1.24,5.32.13a27.78,27.78,0,0,0,3-3.94c2.1-3.09,4.77-5.79,7-8.81,3.08-4.21,7-7.57,10.79-11A10.67,10.67,0,0,0,188.05,96.55ZM74,557.17h0c0-1.62.06-3.24,0-4.86-.06-1.31-.74-1.65-1.93-1a15.33,15.33,0,0,1-3.62,1.81c-2.73.67-5.52,1.1-8.3,1.51-3,.45-6.09-.6-9,.92a1.83,1.83,0,0,1-1.06,0l-5-.9c-.81-.14-1.8,0-2.42-.42-2-1.31-4.14-1-6.26-1a2.52,2.52,0,0,0-1.4.8c-1.77,1.64-3.46,3.37-6.16,3.26a3.52,3.52,0,0,0-1,.22c-2.3.72-4.57,1.52-6.9,2.14s-4.88,1.09-7.33,1.62c-.06,0-.1.07-.16.09-2.65.76-5.27,1.67-8,2.23-1.2.24-2.2.76-2.36,1.73a5,5,0,0,0,.55,3.61A13.82,13.82,0,0,0,9.26,573c2.08.85,3.91,2.18,6.29,2.44a13.3,13.3,0,0,1,4.22,1.41,12.07,12.07,0,0,0,7.31,1.35c4.42-.67,8.88-1,13.3-1.64,2.07-.3,4.09-.93,6.12-1.43.15,0,.26-.23.4-.31a20,20,0,0,1,3.66-2c2.14-.67,4.38-1,6.57-1.52a2.91,2.91,0,0,0,.69-.18c2.18-1.13,4.35-2.27,6.53-3.39,1-.49,1.91-.94,2.86-1.42,1.84-.94,3.74-1.79,5.49-2.89a3.29,3.29,0,0,0,1.21-2.13A28.3,28.3,0,0,0,74,557.17Zm16-342.57c-2.65-.5-4.78-.83-6.88-1.33-.83-.19-1.55-1-2.38-1.09a32.14,32.14,0,0,0-5.19-.29,10.08,10.08,0,0,0-4,.54A54.23,54.23,0,0,0,65.61,216c-1.49.94-3.25,1.65-4.38,2.91-2.2,2.46-5.14,3.92-7.49,6.12a4.8,4.8,0,0,0-1.31,2.66c-.25,1.73.46,3.42.7,5.1.75,5.25-.52,10.68,1.32,15.9a10,10,0,0,1,.2,4.1c-.18,1.94.83,2.3,2.37,2.07,3.32-.48,6.63-1,9.94-1.54a2,2,0,0,0,.35-.06c3-.82,6-1.6,9-2.5a3,3,0,0,0,1.57-1.29c.63-1.14,1-2.41,1.54-3.61,1.15-2.54,2.46-5,3.44-7.63A55.55,55.55,0,0,0,84.43,232c0-.17.09-.34.14-.5q1.19-4.09,2.38-8.18c.53-1.81,1.08-3.61,1.63-5.41,0-.06.08-.1.1-.15Zm-3.35-27.08A8.21,8.21,0,0,1,80,190.13a12.09,12.09,0,0,0-2.69.06,18.82,18.82,0,0,0-2.25.7,36.1,36.1,0,0,1-6.26,1.64,17.83,17.83,0,0,1-7.47-.79c-2.75-.91-5.61-2.21-8.75-1.71-.58.09-1.25-.56-1.92-.66-1.44-.21-3-.7-4.31-.29a2.94,2.94,0,0,0-2,3.55,4.5,4.5,0,0,1,0,.9c0,2.05,1,4.3-1.25,5.88-.15.11,0,.58-.09.87-.54,2.22,1.64,3.14,2.28,4.8-2.11,2.3-1.22,7.09,1.62,8.69a44.46,44.46,0,0,0,.06,5.89,3.28,3.28,0,0,0,3,3,7,7,0,0,0,6-2.29,49.89,49.89,0,0,1,5.72-4.58c.88-.65,2.08-.91,2.87-1.64a7.7,7.7,0,0,1,3.46-2.28,14.16,14.16,0,0,0,3.15-1.55c2-1.06,4-2.31,6.39-2,.89.11,1.69.88,2.58,1.06,2.84.58,5.71,1,8.56,1.53a1.43,1.43,0,0,1,.36.06,6.77,6.77,0,0,0,5.8-.53,10.43,10.43,0,0,0-.49-2.13c-.62-1.33-1.49-2.55-2.05-3.91-.66-1.6-1.07-3.29-1.64-4.93-.46-1.32-.94-2.63-1.5-3.9-.64-1.44-1.52-2.77-2.06-4.24A20.36,20.36,0,0,1,86.59,187.52ZM263,546.14c-.11.43,0,1.37-.48,1.74a43.31,43.31,0,0,1-5.32,4c-1.68,1.07-3.63,1.71-5.34,2.74a31.25,31.25,0,0,0-5.47,3.88,4.69,4.69,0,0,0-1.38,3.65,4.36,4.36,0,0,0,2.83,2.53,29.3,29.3,0,0,0,8.64,1.37c10.36-.48,20.8,1.54,31.12-1,3.33-.82,6.79-1.06,10.19-1.58a3.65,3.65,0,0,0,.82-.29c1.73-.72,3.44-1.49,5.19-2.14a6,6,0,0,0,4.07-4c.48-2.09.09-4.38,0-6.58,0-.31-.28-.82-.5-.86-2.63-.55-2-3.29-3.16-4.84-1-1.33-2.23-2.34-3.84-1.7a32.08,32.08,0,0,1-3.78,1.08c-.63.17-1.29.2-1.92.37-2.77.72-5.51,2-8.3,2.1-6.57.28-13.15.06-19.73,0A27.73,27.73,0,0,1,263,546.14ZM76.24,287.33l-7.12,5a7,7,0,0,1-1.57,1c-1.85.62-3.73,1.13-5.6,1.69a3,3,0,0,0-.44.28c-1.89,1-3.73,2-5.95,2-1.38,0-3-.24-4.07.36a36.54,36.54,0,0,0-6.74,4.84c-.9.81-2.61,1.81-1.42,3.85,1.79-.19,3.67.62,5.52-1a30,30,0,0,1,5.55-3.26,4.55,4.55,0,0,1,2.08-.62c.23,0,.45,1.05.65,1.62.41,1.23,0,2.52,1,3.79,1.49,1.78-.11,4.55-2.46,4.57-2.5,0-4.86-.21-7.33,1.13s-3.72,4-2.31,6.36a31.55,31.55,0,0,1,2,4.87c.5,1.33.87,2.7,1.41,4,.21.48,1,.77,1.09,1.24.43,2,2,1.91,3.34,1.68a25.65,25.65,0,0,0,4.87-1.34,12.35,12.35,0,0,0,3.45-1.9c1.58-1.29,2.78-3.12,4.49-4.14,3.12-1.86,3.11-5.29,4.61-7.94.71-1.25,1.15-2.64,1.83-3.9a34.67,34.67,0,0,1,2.13-3.28c1.47-2.09,2.73-4.35,4.9-5.86,2.65-1.83,5.29-3.68,8.19-5.7A52.84,52.84,0,0,0,76.24,287.33ZM76.8,560c2.28-.54,4.17-1.32,6.08-1.37,5.86-.15,11.73-.09,17.59.07a7.85,7.85,0,0,1,4.25,1.29c2,1.53,4.49,1.61,6.71,2.14a20.24,20.24,0,0,0,7.83-.06,9.92,9.92,0,0,0,4.16-1.91c1.81-1.37,2.07-3.41,3.22-5a1.1,1.1,0,0,0-.75-1.8c-1.27-.34-2.51-.79-3.78-1.1-2.12-.51-4.23-1-6.37-1.39s-4.6.09-6.76-1.28c-2-1.24-4.36-1.85-6.31-3.13A66.9,66.9,0,0,1,97,541.7,65.92,65.92,0,0,1,91.29,537c-1.07-1.11-1.84-.62-2.62-.12-1.11.7-2.06,1.67-3.11,2.49a3.51,3.51,0,0,0-1.44,3.18,3.43,3.43,0,0,1-.83,2.52A18.33,18.33,0,0,1,78.4,548a2.54,2.54,0,0,0-2,2.74c0,1.13.06,2.27.1,3.41C76.61,555.94,76.69,557.7,76.8,560Zm10.93-25.28c.75-1.18.48-2.16-.43-3.3s-1-2.53-1.35-3.85a1.87,1.87,0,0,1,.22-1c.67-1.89,1.48-3.75,2-5.68a21.33,21.33,0,0,1,1.06-4.31c1-2.19,1.16-4.83,1.47-7.31.48-3.8,0-7.6,1.1-11.46s1-8.32,1.31-12.46c.62-8.53.17-17.13.16-25.7a5.76,5.76,0,0,0-.15-1.24c-.74-3.37-1.84-6.69-2.17-10.1a101,101,0,0,1,0-11.14,6.47,6.47,0,0,1,.16-1.06c.34-1.72.69-3.45,1-5.17s1.08-3.48,1-5.19a56.37,56.37,0,0,0-1.16-7.59.83.83,0,0,0-.57-.52c-.18,0-.59.33-.57.46.54,3-1.85,5.85-.32,8.87.1.2-.07.55-.15.82a8.37,8.37,0,0,0-.66,2.1c-.18,5.15-.19,10.31-.43,15.45-.11,2.33-.73,4.63-1,7-.48,5.15.36,10.35-1.09,15.49-1,3.62-.43,7.5-1.29,11.28-1.07,4.7,0,9.61-1.34,14.5-1.24,4.68-1,9.77-1.3,14.68-.1,1.31-.09,2.63-.11,4-.07,7.61-.15,15.23-.19,22.84,0,.54.24,1.49.5,1.54a3.53,3.53,0,0,0,2-.34A14.65,14.65,0,0,0,87.73,534.73Zm47.13-16.65c.25.12.36.21.46.21,6.82,0,13.64.1,20.46,0a6.19,6.19,0,0,0,3.59-1.5c1.09-.94,2.84-1.35,3-3.32a5.8,5.8,0,0,1,1.27-2.63,4.44,4.44,0,0,0,.15-5c-1.43-2.2-3-4.37-3.28-7.14-.23-2-2.33-2.81-4.25-1.94a13.49,13.49,0,0,1-3.65,1c-1.53.21-3.14,0-4.63.34-2.76.63-5.46,1.53-8.19,2.31-1.32.38-2.45,1-2.63,2.52a11.52,11.52,0,0,1-.17,2,51.35,51.35,0,0,0-2.05,6.57A41.42,41.42,0,0,0,134.86,518.08Zm3.64-20.42h1.86c.18,0,.41,0,.52-.12,2.07-1.92,4.94-1.26,7.34-2.27,2.06-.86,4.47.09,6.81-1.12a39.73,39.73,0,0,1,4.84-1.63c1.47-.52,2.4-2.08,1.79-3.14-.47-.81-1.21-1.45-1.63-2.27-.72-1.38-1.29-2.84-1.91-4.28-.33-.76-.65-1.53-1-2.3-.54-1.31-1.15-2.6-1.61-3.95-.61-1.79-1.07-3.63-1.66-5.43a25.93,25.93,0,0,0-1.28-3c-.73-1.53-1.59-3-2.28-4.54-.51-1.13-.84-2.34-1.24-3.52l-1.85-5.5a35,35,0,0,0-1.95,5c-.63,3.05-1,6.16-1.45,9.25a17,17,0,0,1-.33,2.49c-.67,2.22-1.67,4.35-2.15,6.61-.7,3.33-1.06,6.74-1.57,10.12-.06.42,0,.92-.2,1.23C137.82,491.91,138.94,494.77,138.5,497.66Zm10.77-218.77c-.23,2.51-.35,4.47-.61,6.41-.22,1.68-.8,3.34-.87,5-.15,4.19-.11,8.38-.14,12.57a8.6,8.6,0,0,0,.09,1.61,1,1,0,0,0,.54.58c.14.05.45-.11.6-.26a52.76,52.76,0,0,0,4.86-5.07c.95-1.25,2.41-2.58,1.71-4.52-.3-.84-1-1.56-1.19-2.41A63.5,63.5,0,0,1,153,284.5C152.87,281.93,151.12,280.77,149.27,278.89ZM66.51,290.7l.68.31c.25-.38.41-.89.75-1.14,1.49-1.06,3.07-2,4.55-3.08.73-.52.4-2-.36-2.45a27.76,27.76,0,0,0-3.38-2.23,2.76,2.76,0,0,0-2.14.5C66.45,285.3,66.51,288,66.51,290.7ZM94,417l.43.13c.13-1.14.28-2.28.39-3.42.07-.77-.23-1.85.18-2.26,1.47-1.51.71-3.25.82-4.9,0-.21-.36-.45-.57-.69a8.74,8.74,0,0,0-1.35,1.93c-.56,1.65-2.38,2.92-1.64,5C92.8,414.22,93.45,415.61,94,417Zm51.22-97.66a13.72,13.72,0,0,1-.15,2.58c-.19.77-.79,1.44-1,2.2a4.63,4.63,0,0,0,.16,1.67l.56.09a14.55,14.55,0,0,0,1.7-3.14A2.67,2.67,0,0,0,145.25,319.37Zm-8.91-79.2.58,0v-3.45h-.58Z"/><path class="cls-1" d="M148.54,325.87c.2.47.28,1,.6,1.29.53.42,1.35,1.07,1.8.91a92.18,92.18,0,0,0,9.36-3.74c1.69-.82,3-2.29,4.59-3.41,1.35-1,2.79-1.83,4.13-2.83.74-.55,1.27-1.39,2-1.89a7.44,7.44,0,0,1,2.1-.63,5.51,5.51,0,0,0-.53,1.33c-.16,1.72-.29,3.44-.33,5.17,0,2.33.1,4.68,0,7a12.52,12.52,0,0,1-1,3.67,3.33,3.33,0,0,0,2.75,4.65,24.26,24.26,0,0,1,7.59,2.36,31.07,31.07,0,0,0,5,1.52c.9.29,1.78.68,2.67,1a3.34,3.34,0,0,0,.68.21l12.8,1.4c2.12.23,4.44-.59,6.31,1.11.08.07.24,0,.35.06,2.81.56,5.79.71,8.39,1.79s5.23.62,7.82,1c1,.15,1.89.76,2.86.88,2.87.34,5.76.74,8.5-.81,1.11-.63,2.46-.82,3.61-1.38,1.46-.71,2.82-1.6,4.23-2.39.95-.53,1.94-1,2.87-1.54,1.22-.72,2.38-1.53,3.62-2.22.24-.14.93,0,1,.15a23.42,23.42,0,0,1,1.38,4.46c.63,4.38,1.19,8.78,1.57,13.18.49,5.69.6,11.41,1.23,17.08.29,2.61,1.4,5.13,2.13,7.68a1.5,1.5,0,0,1,.09.35A28,28,0,0,0,260,389.5c1,3,.89,6.37,1.52,9.52.51,2.53,1.42,5,2.15,7.48a4,4,0,0,1,.26.86c.09,2.69,1.41,4.95,2.46,7.32.67,1.52,1,3.17,1.66,4.7,1.09,2.61,2.29,5.18,3.44,7.76a1.4,1.4,0,0,1,.17.51c.18,2.21,1.47,3.88,2.53,5.72,1.2,2.09,1.88,4.47,3,6.64.85,1.73,2,3.31,3,5,.77,1.37,1.45,2.79,2.14,4.2.47.95.89,1.93,1.31,2.91a64.28,64.28,0,0,0,2.74,6.37,28.41,28.41,0,0,1,2.58,6.06,20,20,0,0,0,2.07,3.74c.16.29.12.7.26,1,.74,1.76,1.51,3.51,2.26,5.27.57,1.32,1.09,2.66,1.68,4,.75,1.68,1.57,3.33,2.33,5a2.74,2.74,0,0,1,.16.87,11.6,11.6,0,0,0,.94,3.78c1,2.18,1.2,4.69,1.68,7.08.54,2.72.73,5.55,1.61,8.15,1,3,2.18,5.86,2.5,9.09.22,2.29,1.36,4.5,2.08,6.75.07.23.12.46.17.7.52,2.31.93,4.67,1.61,6.93a29,29,0,0,0,2.09,4.71c.66,1.28.3,6.17-.64,6.93a2.2,2.2,0,0,1-.73.48c-2.28.46-4.58.8-6.84,1.34-2.9.69-5.77,1.53-8.65,2.31l-.35.08c-4.71,1-9.38,2-14.26,1.65a50.85,50.85,0,0,0-8.09-.12,12.57,12.57,0,0,1-7.11-1.71,10.62,10.62,0,0,1-4.85-5.22c-1-2.56-2.4-5-3.49-7.52-.63-1.48-.85-3.13-1.55-4.57-1.41-2.89-1.3-6.29-2.81-9-.89-1.6-.81-3.11-1.24-4.64a34.38,34.38,0,0,0-2-4.78c-.07-.15-.25-.29-.26-.44a12.45,12.45,0,0,0-1.19-4.69c-.9-2-.83-4.46-1.71-6.49-1.17-2.68-1.32-5.8-3.41-8.08a.86.86,0,0,1-.12-.34c-.52-2.14-1-4.3-1.57-6.42-.7-2.5-1.55-5-2.33-7.43a2.41,2.41,0,0,1-.07-.35c-.53-2.12-1-4.27-1.59-6.36-.79-2.69-1.62-5.37-2.61-8s-2.24-5.27-3.36-7.9a3.11,3.11,0,0,1-.2-1.05c-.19-3.33-1.7-6.11-3.44-8.85-.75-1.17-1.14-2.55-1.79-3.79s-1.54-2.55-2.26-3.86c-.62-1.14-1.14-2.34-1.71-3.52-.43-.9-.85-1.82-1.31-2.71-1.17-2.25-2.36-4.49-3.52-6.74-.16-.31-.1-.72-.23-1-.73-1.72-1.49-3.43-2.24-5.14-.49-1.13-1-2.24-1.48-3.4-1-2.53-1.8-5.12-2.87-7.6-.54-1.25-1.88-2.24-2.12-3.49-.42-2.19-1.84-3.68-2.9-5.43-1.24-2-2.53-4.05-3.77-6.09a10,10,0,0,1-1.33-2.62c-.21-.84-.51-1.67.7-2.57,2.15-1.6,3.85-3.79,5.81-5.66.72-.67,1.69-1,1.2-2.34-.35-1-.79-.95-1.41-.39-3,2.78-6.07,5.58-9.1,8.37s-5.81,5.28-8.64,8c-2.42,2.34-4.67,4.88-7.11,7.2-1.25,1.19-2.83,2-4.15,3.14-2.88,2.46-5.69,5-8.51,7.53-1.93,1.72-3.93,3.39-5.69,5.27a65.18,65.18,0,0,0-4.79,5.92,44.08,44.08,0,0,0-3.25,5,26,26,0,0,0-1.69,4.12c-.86,2.45-1.66,4.93-2.46,7.4a50,50,0,0,1-1.66,5.16,30.15,30.15,0,0,0-2.57,10.08c-.15,1.91-1.28,3.74-2,5.61a2.26,2.26,0,0,0-.19.49c-.49,2.31-1,4.61-1.43,6.94-.55,3.37-.81,6.8-1.49,10.14-.4,1.95-1.47,3.77-2.07,5.7a20.58,20.58,0,0,0-.44,3.36c-.44,3.42-.38,7-1.52,10.19-.93,2.59-.83,5.11-1.21,7.65-.34,2.31-.44,4.74-1.25,6.88-2,5.23-.74,10.61-1.26,15.9a28.73,28.73,0,0,1-.87,3.7,4.67,4.67,0,0,0-.15,1.06c0,5-.13,10.07,0,15.1,0,1.56.72,3.1,1,4.67s-.6,2.29-2.09,2.1-3.34.52-4.7-1c-.25-.27-.92-.12-1.39-.22-1.76-.38-3.51-.79-5.26-1.16a6.92,6.92,0,0,0-1.43-.13,14.47,14.47,0,0,1-8.76-2.43c-2.48-1.66-5.33-2.77-7.82-4.42A34.12,34.12,0,0,1,96,537.2a44.42,44.42,0,0,1-4.46-4.65,9.35,9.35,0,0,1-1.94-4.28c-.18-1.46.52-3,.84-4.55,0-.16.28-.32.25-.44-.57-2.88,1-5.4,1.7-7.94,1.17-3.93.28-8,1.27-11.77s.43-7.46,1.37-10.95c1.09-4.09.53-8.19,1.14-12.22.35-2.26,1.37-4.42.93-6.8a54.42,54.42,0,0,1-1-6.06c-.19-2.44,0-4.91-.13-7.36a8.27,8.27,0,0,0-.85-4.38c-.79-1.33-.26-3.39-.45-5.12-.09-.81-.61-1.58-.73-2.4a12.13,12.13,0,0,1-.1-3c.22-2.3.55-4.59.84-6.89a2.44,2.44,0,0,0,0-.54c-.56-4.85,1.14-9.45,1.77-14.15.3-2.3.25-4.79,1-6.92,1.22-3.35.54-6.86,1.42-10.08.68-2.53.62-5,1.1-7.49a26.65,26.65,0,0,1,2-4.92c.09-.21.29-.39.34-.6.52-2.44.93-4.91,1.56-7.32a19.76,19.76,0,0,1,1.6-3.51c.75-1.52,1.52-3,2.32-4.54.63-1.18,1.36-2.32,2-3.51,1.08-2.14,2.06-4.33,3.15-6.47a18.77,18.77,0,0,1,1.66-2.66c1.92-2.66,4-5.23,5.81-7.95,1.16-1.73,1.8-3.8,3-5.48,1.8-2.53,3.34-5.22,5.85-7.28s4.46-4.62,6.63-7c1.57-1.72,2.9-3.7,4.67-5.15a26.49,26.49,0,0,0,3.71-2.89A55.86,55.86,0,0,1,148.54,325.87Zm22.91,41.94c-.2-.24-.41-.47-.62-.7a4,4,0,0,0-1.3.47c-1.87,1.63-3.66,3.36-5.55,5-2.22,1.92-4.12,4.18-6.92,5.48-2.54,1.18-4.71,3.15-7.2,4.48-2.12,1.13-4.48,1.8-6.7,2.74-.75.32-1.38.92-2.13,1.24-2.42,1-4.88,2-7.72,3.11a5.44,5.44,0,0,0,5,.67,33.09,33.09,0,0,0,5-2.33,21.34,21.34,0,0,1,2.27-1.27,30.5,30.5,0,0,0,7.95-3.82c2.1-1.49,4.42-2.69,6.61-4.05.51-.31.89-.81,1.38-1.14a24.65,24.65,0,0,0,2.95-1.88,66.35,66.35,0,0,0,4.87-4.91A27.72,27.72,0,0,0,171.45,367.81Zm48.39,21.77-.89.27c0,1-.31,2.08.06,2.87a16.27,16.27,0,0,0,2.62,3.83,17.53,17.53,0,0,0,8.66,5.36,26.69,26.69,0,0,1,7.9,3.66c-.12-1.29.14-2.69-.36-3.06a22.15,22.15,0,0,0-5.33-2.93c-2.26-.84-4.77-1.13-6.67-2.71a37.42,37.42,0,0,1-4.3-4.33A16.83,16.83,0,0,1,219.84,389.58Zm45.62,64.21c-1,0-1.65,0-2.29,0a33.39,33.39,0,0,1-12.33-1.47,2.06,2.06,0,0,1-.89-.69,31.58,31.58,0,0,0-3-3.58,4.62,4.62,0,0,0-2.59-.55c-.26,0-.85.76-.78.89a9.66,9.66,0,0,0,1.29,1.59c.27.29.63.5.87.81,1.82,2.3,3.54,4.23,7,4.61s6.64,1.15,10,.91C264.18,456.23,264.93,455.46,265.46,453.79Zm-158-32.4c.6,1.81,1.07,3.17,1.49,4.55.52,1.74,1,3.5,1.5,5.24.06.2.34.32.47.51a52,52,0,0,0,3.36,4.53,43.92,43.92,0,0,0,5,4.57c1.47,1.17,3.16,2.07,4.77,3.11,1.06-1.51.12-3.32-2.17-4.39-1.92-.9-4.09-1.62-5.2-3.75-.5-.95-1-2.15-1.84-2.6-2-1.12-2.16-3.3-3-5-1-2-1.33-4.24-2-6.56ZM105.56,502c.28,1,.46,1.7.7,2.4.53,1.57.7,3.49,1.72,4.64,2.41,2.72,4.58,5.73,7.68,7.76a3.5,3.5,0,0,0,1.9.21c.16,0,.5-.66.41-.81a6,6,0,0,0-1.23-1.53c-.44-.39-1.1-.54-1.53-1-1-1-1.92-2-2.92-3-2.48-2.39-4.69-4.89-4.68-8.65a5.51,5.51,0,0,0-.59-1.69c-.34.41-.67.83-1,1.23A2.51,2.51,0,0,1,105.56,502ZM230.2,432l-.56.16c-.09.26-.2.52-.29.79-.43,1.38.26,2.4,1,3.49.9,1.36,1.49,2.92,2.42,4.26a18.64,18.64,0,0,0,3.11,3.52c.54.46,1.56.33,2.36.47-.17-.89,0-2.09-.56-2.63a33.38,33.38,0,0,1-4.65-5.82C232.09,434.78,231.13,433.38,230.2,432Z"/><path class="cls-1" d="M156.15,146.06c-1.36-1.95-.71-6.18,1.14-7.71a3.91,3.91,0,0,0,.72-.85,23.61,23.61,0,0,0,2-3.3,14.41,14.41,0,0,1,3.08-4c.72-.79,1.36-1.64,2-2.48,1.11-1.46,2.16-3,3.31-4.4,1-1.21,2.13-2.26,3-3.5,1.27-1.73,2.35-3.6,3.57-5.37a28.75,28.75,0,0,1,2.38-3c3.13-3.43,6-7.15,9.56-10.09,2.17-1.81,4.38-3.65,6.62-5.4,1.32-1,2.29-2.52,3.54-3.66s2.77-2,4-3.15S203.6,88,205,87.73c.87-.15,1.46-1.54,2.69-.89a12.53,12.53,0,0,1,2.77,1.58c1.76,1.62,3.76,3,4.63,5.52.58,1.7,2.38,3,3,4.67,1,2.39,3,4.13,3.41,6.86.25,1.68,1.38,3.23,2.1,4.85a3.67,3.67,0,0,1,.2.87,29.06,29.06,0,0,0,3.75,9.19,1.66,1.66,0,0,1,.16.49c.51,2.63.69,5.39,1.61,7.87,1.06,2.83.31,5.93,1.31,8.49,2,5.19.95,10.41,1,15.59.22,11.93,0,23.86.22,35.79a65.16,65.16,0,0,0,1.34,10.74c.27,1.5,1.28,2.85,1.88,4.31s1.06,2.83,1.55,4.26c.56,1.65,1,3.35,1.62,5,.73,2,1.87,3.88,2.27,5.92a6.28,6.28,0,0,0,2.41,4.07.31.31,0,0,1,.1.15c.55,2.09,1.14,4.17,1.61,6.27a33.81,33.81,0,0,1,1.1,6c.19,4.43.14,8.87.08,13.31,0,1.38.37,2.81-.94,4.1-.6.59-.25,2.07-.48,3.12a15.45,15.45,0,0,1-1.26,4.36,7.49,7.49,0,0,1-2.74,2.16c-.94.58-2,1-3,1.47-2.55,1.25-5.13,2.46-7.64,3.78-2.16,1.15-4.2,2.55-6.41,3.61-1.56.76-3.33,1.08-5,1.71s-3.31,1.5-5,2.2a31.82,31.82,0,0,1-3,1.1c-1.93.6-3.9,1.07-5.81,1.74-3.52,1.23-7.36.71-10.8,1.67-3.25.91-6.51.33-9.65,1.16-8,2.1-16.13,1-24.21.89a13.16,13.16,0,0,1-5.42-1.36,6.07,6.07,0,0,1-2.73-3c-.8-2-2.57-3.2-3.66-4.93s-1.94-3.52-3.1-5.15-.83-3.8-2.35-5.23c-.26-.24-.12-.92-.13-1.4,0-1.47.2-3-1-4.2a1.55,1.55,0,0,1-.28-.83c-.49-4.57-1.13-9.14-1.39-13.72-.23-4.18,0-8.38,0-12.54,2-.65,3.92-1.19,5.74-1.85a16.53,16.53,0,0,0,2.88-1.45c1.69-1,3.3-2.19,5-3.18,1.23-.71,2.61-1.16,3.86-1.85,1.59-.88,3.12-1.87,4.66-2.84,1-.65,2-1.39,3-2,1.73-1.08,3.5-2.09,5.23-3.16s3.56-2.2,5.29-3.37c1.5-1,3-2.1,4.39-3.21,1.95-1.53,3.83-3.14,5.78-4.67s4-3.15,6.09-4.67c1.4-1,2.87-2,4.32-3s3.09-2.05,4.61-3.12a22.7,22.7,0,0,0,2.78-2.19c1.32-1.3,2.53-2.72,3.77-4.09,1.47-1.63,2.92-3.26,4.38-4.9a14.6,14.6,0,0,0,1.71-2c.95-1.62,1.85-3.29,2.64-5a32.2,32.2,0,0,0,1.36-3.75,33.26,33.26,0,0,0,1.23-4.33c.58-3.36,1.2-6.73,1.45-10.12.28-3.78,1.91-7.4,1.18-11.29-.49-2.61-.59-5.36-3.33-7.37a11.89,11.89,0,0,0-.51,2.43c0,6.28.21,12.58-.12,18.85-.14,2.81-1.38,5.56-2.12,8.33-.05.17-.18.35-.15.51.46,2.33-1,4.16-1.69,6.17a19.6,19.6,0,0,1-2.85,5.1,67.25,67.25,0,0,1-4.72,5.81,43.8,43.8,0,0,1-3.4,3.12c-.93.84-1.84,1.72-2.8,2.53s-2.09,1.69-3.18,2.47c-2.1,1.52-4.23,3-6.35,4.5-2.29,1.61-4.63,3.15-6.86,4.83-2,1.5-3.81,3.21-5.79,4.71s-4,2.77-5.95,4.15c-2.34,1.62-4.66,3.28-7,4.84-1,.64-2.12,1-3.11,1.61-2.51,1.56-5,3.19-7.47,4.77a10.37,10.37,0,0,1-1,.36c-1.34.62-2.68,1.24-4,1.9s-2.84,1.36-4.19,2.17c-3.45,2.08-7.37.56-10.88,1.47-3.28.84-6.7.34-9.76,1.3s-6.22,1.09-8.74,3.27c-1,.85-2.56.12-3.68-1.39-2.65-3.59-5-7.46-8.1-10.67-2.48-2.58-3.91-5.74-6-8.51-.77-1-.94-2.5-1.48-3.73-.73-1.72-1.57-3.39-2.32-5.09-.5-1.15-1-2.32-1.39-3.51-.57-1.74-1-3.55-1.6-5.28-.69-2-1.54-3.88-2.29-5.83-.09-.24,0-.73.12-.83a39.57,39.57,0,0,1,4.32-2.6c1.42-.69,3-1.11,4.44-1.67.74-.28,1.46-.6,2.18-.92s1.28-.63,1.92-.94a2.53,2.53,0,0,1,.62-.3c3.35-.56,6.7-1.12,10-1.64,2.6-.41,5.34-.36,7.76-1.23a23.11,23.11,0,0,0,8.63-5.22c1.11-1.1,2.78-1.63,4.16-2.48,3.22-2,6.78-.83,10.18-1.13,2.53-.22,4.37-1.65,6.29-3,.73-.51,1.2-1.38,1.92-1.91,2.43-1.78,3.36-4.5,4.56-7.06.78-1.67,1.52-3.37,2.27-5.07a2,2,0,0,0,.16-.69c.37-3.19,2-5.77,3.77-8.35a55.59,55.59,0,0,0,2.9-5.52c.28-.51.81-.88,1.14-1.38,1.77-2.66,3.22-5.6,5.32-8,2.64-3,5.06-6.21,8.41-8.55a57.29,57.29,0,0,0,4.67-4.31,2.88,2.88,0,0,1,1.62-.54c1.79-.09,3.6,0,5.38-.15a8.3,8.3,0,0,0,2.21-.84c1-.39,1.12-1.18.52-1.84a2.46,2.46,0,0,0-1.81-.6c-1.21.08-2.42.61-3.62.58-4.24-.1-7.19,2.23-10,5-1.92,1.89-4,3.59-5.84,5.59-2,2.24-3.79,4.71-5.6,7.13q-1.74,2.31-3.26,4.79c-1.15,1.89-2.13,3.88-3.27,5.78-.9,1.51-1.93,3-2.9,4.43C157.16,144.45,156.66,145.25,156.15,146.06Zm70.5,95.52c1.23.22,2,.1,2.38-1.12a27.24,27.24,0,0,0,1.29-4.32c.36-3.69,2.15-7.17,1.47-11-.19-1.1.05-2.28-.1-3.4-.43-3.13-.95-6.25-1.44-9.4-2.16.57-2.51,1.86-2.35,3.56a39.14,39.14,0,0,0,.9,6.57c1.2,4.52-.61,9-1,13.47a.81.81,0,0,1-.17.49C226,237.94,226.67,239.79,226.65,241.58ZM110.4,205.11c1.71.73,3.18,1.34,4.63,2,1,.45,2,1,3,1.45a44.79,44.79,0,0,0,4.86,2.06c2.08.65,4.24,1,6.37,1.52l.33.12c1.19.38,2.36.83,3.58,1.1s2.8,0,3.81.66c1.54,1,2-.52,2.89-.81-.21-.41-.36-1.14-.65-1.2-2.39-.53-4.81-.93-7.22-1.38a6.31,6.31,0,0,1-.86-.2c-2.2-.75-4.39-1.52-6.6-2.24-1.65-.55-3.37-.91-5-1.56-1.28-.52-2.38-1.52-3.66-2-1.74-.67-3.29-2.56-5.51-1.12Zm36.59,32a3.6,3.6,0,0,0-.24,4.25c1.07,1.75.84,3.52,1,5.3a22.87,22.87,0,0,1-.06,4.3c-.21,1.68.86,2.75,1.67,3.91.33.48,1.18.6,1.8.89a7,7,0,0,0,.47-2,4.85,4.85,0,0,0-.8-1.61,3,3,0,0,1-.43-.9c-.2-2.86-.12-5.67-1.05-8.53C148.7,240.83,148.76,238.74,147,237.1Zm29.69-5c2,1.08,3.48.62,4.64-1.34.61-1,1.28-2,1.88-3.07.7-1.2,1.36-2.41,2-3.64a10.68,10.68,0,0,1,.57-1.47,4.36,4.36,0,0,0,.09-4.87c-2.67,1-1.83,4-3.2,5.72-1,1.23-1.45,2.84-2.35,4.15C179.22,229.14,177.91,230.57,176.68,232.08Zm-12.45,32.7c1.72.35,2.85.56,3.31-1,.65-2.27,1.5-4.5,2-6.81a18.09,18.09,0,0,0,0-4.82,2.64,2.64,0,0,0-2.29-2.69,7.62,7.62,0,0,0-.16,2.14c.84,3.6-1.23,6.78-1.35,10.23a1.37,1.37,0,0,1-.18.5C165.12,263.06,164.72,263.83,164.23,264.78ZM185.36,150c-.28,1.69.41,2.43,1.62,2.56,4.56.52,8.82,0,12-3.85.62-.76.44-1-.43-1.32-1.31-.47-1.71.65-2.47,1.17a11,11,0,0,1-7.41,1.45C187.57,149.93,186.46,150,185.36,150Zm7.91-29.29c-1.54-.62-2.78-1.62-3.66-1.37-2.8.77-5.91,1.21-7.9,3.64-.79,1-2.47,1.83-1.18,4,.71-.47,1.44-.9,2.11-1.41,1.15-.89,2.13-2.15,3.41-2.67a35.23,35.23,0,0,1,5.38-1.17A9.75,9.75,0,0,0,193.27,120.72Z"/><path class="cls-1" d="M94.72,401.37c-.58,1.1-1.1,2.24-1.74,3.3a62.48,62.48,0,0,0-3.73,7.06c-.94,2.11-.5,4.18-1.07,6.14-2.44,8.51-.19,17.28-1.51,25.76-1.08,6.88-.19,13.83-1.46,20.58-.66,3.46-.12,7-1.06,10.25-1.51,5.12-.14,10.42-1.41,15.36-1,3.72-.5,7.39-1.11,11-2.13,12.72-1.08,25.53-1.12,38.3,0,1.14-.05,2.29,0,3.42.13,1.65-1.06,2.29-2.18,2.92-1.93,1.09-3.9,2.11-5.9,3.08-1.59.78-3.31,1.3-4.85,2.17-3.29,1.86-7,.83-10.36,1.63-2.23.54-4.43,1.17-6.6.74-3.06-.61-6.26-.63-9.15-2.14-1-.51-2.35-.29-3.54-.27s-1.73-.49-1.6-1.58c.41-3.52-.53-7.18,1.14-10.6a6.13,6.13,0,0,0,.25-2.48c.1-7.62,0-15.24.31-22.84.19-5.15,1.17-10.28,1.26-15.42.12-7,.39-14.11-.63-21-.86-5.74-.33-11.42-.89-17.09a29.2,29.2,0,0,0-1-3.69,10.47,10.47,0,0,1-.24-1.77c0-.54,0-1.08-.06-1.62-.44-5.67-1.17-11.33-1.27-17-.15-8.69,0-17.38.29-26.06.1-3.41.22-7,1.28-10.15s.66-6.61,1.2-9.87c.48-2.91,1.52-5.72,2.19-8.6a32,32,0,0,0,.24-3.4c.45-3.63.56-7.37,1.62-10.81.54-1.76.59-3.49,1-5.18a18.55,18.55,0,0,1,1.58-3.46c.74-1.44,1.47-2.89,2.33-4.26,1-1.66,2.31-3.18,3.27-4.88a52.25,52.25,0,0,0,2.23-5.12,8.23,8.23,0,0,1,2.64.52c2.21,1.21,4.24,1.37,6.35-.18a3.41,3.41,0,0,1,1.75-.27c1.92-.08,3.9.19,5.73-.24,2.38-.55,4.86-.71,7.12-2,1.64-.9,3.69-1,5.43-1.76a11.89,11.89,0,0,0,4-2.58,92,92,0,0,0,7.68-9.18c1.72-2.45,2.78-5.36,4.22-8,1.08-2,2.28-3.93,3.46-5.88,1-1.6,1.92-3.22,3-4.75a21.36,21.36,0,0,1,2.26-2.35c.56,4.4,1.09,8.24,1.5,12.1.19,1.78-.17,3.66.22,5.38,1.76,7.66.81,15.44,1.21,23.16.09,1.89-.4,3.88,1,5.51a2.05,2.05,0,0,0,1.27.83c1.49-.05,3,.28,4.43-.83.79-.6,2.25-.33,3.41-.46l.48.58c-.65,1.1-1.26,2.23-2,3.29-1.61,2.46-3.26,4.89-4.92,7.3-.31.46-.84.76-1.12,1.23-.91,1.49-1.74,3-2.62,4.53s-1.71,2.73-2.45,4.15c-.55,1.05-.83,2.23-1.33,3.3-1.26,2.7-2.66,5.32-3.82,8.06-.7,1.64-1,3.44-1.58,5.14a21.91,21.91,0,0,1-1.22,2.6c-.74,1.51-1.45,3-2.23,4.51-.14.27-.62.63-.82.57-2.56-.82-3.32,1.52-4.71,2.67-2.48,2.07-4.83,4.29-7.35,6.29-3.34,2.65-6.79,5.15-10.17,7.75-.26.21-.33.67-.49,1,.36.15.81.51,1.07.4a21.24,21.24,0,0,0,4-1.77,28.54,28.54,0,0,0,4.5-3.47c1.84-1.76,4.31-2.62,6-4.64a57.63,57.63,0,0,1,5.77-5.24ZM70,373c2.43.89,3.7.32,5.31-1.4s3.22-2.89,4.73-4.43a36.21,36.21,0,0,0,4.06-4.7c.81-1.17,1-2.72,1.74-4s1.68-2,2.24-3.17c.32-.64,0-1.57,0-2.37a5,5,0,0,0-1.6.91,21.74,21.74,0,0,0-3.22,4.67A18.27,18.27,0,0,1,79,365.13c-1.52,1.42-2.89,3-4.45,4.37C73.27,370.67,71.78,371.66,70,373Zm-.47,91.15c-1.21,1.68-2.5,2.87-3,4.34-1.2,3.29-3.84,5.16-6.44,7a16.8,16.8,0,0,0-5.08,5c2.14.78,3.26-.93,4.62-1.62a26.87,26.87,0,0,0,4.6-3.35,6.15,6.15,0,0,0,2-2.17c.74-1.91,2.35-3.21,3.19-5.14A4.68,4.68,0,0,0,69.54,464.15Zm2.19-34.29v.53c1.14,0,2.65.47,3.35-.09,2.1-1.64,4.85-2.39,6.39-4.79,1.31-2.05,2.75-4,4.29-6.24-1.39-.29-2.11-.86-2.82.52A13.46,13.46,0,0,1,79.71,424C77.18,426.09,74.4,427.91,71.73,429.86ZM53.63,541.77a10.29,10.29,0,0,0,3-.44,10.17,10.17,0,0,0,5.12-4.43,10.83,10.83,0,0,0,.76-2.4.82.82,0,0,0-.43-.66.9.9,0,0,0-.78.2c-1.37,1.35-2.69,2.75-4,4.1-1.52,1.5-4.85,1.38-6.6,0-.46-.35-1.42-.07-2.15-.07a6.79,6.79,0,0,0,.62,1.43C50.23,541,51.58,542.07,53.63,541.77Zm-10.8-94,.35.75a10.57,10.57,0,0,0,2.34-.35c1.65-.66,3.25-1.45,4.86-2.21s3.41-1.6,5.08-2.47a1.21,1.21,0,0,0,.34-1c0-.16-.62-.45-.84-.37-1.43.51-2.84,1.08-4.25,1.68-1.65.7-3.31,1.4-4.92,2.19C44.76,446.51,43.81,447.18,42.83,447.79Z"/><path class="cls-1" d="M67.07,161.71c-2.36,1.79-2.83,4.19-3.64,6.51a55.37,55.37,0,0,1-3.2,6.34,26.25,26.25,0,0,0-1.46,3.36c-.58,1.68-1,3.43-1.55,5.1-.49,1.38-1.16,2.7-1.77,4.07-1-1-1.11-4.7-.21-5.78.18-.22.55-.35.61-.58.52-2.06,1-4.14,1.49-6.19.71-2.81,1.51-5.58,2.19-8.39a14.27,14.27,0,0,0,.27-2.85,19,19,0,0,1,2.33-8.62,1.35,1.35,0,0,0,.11-.34c.52-2,1-4.07,1.57-6.07a10.67,10.67,0,0,1,1.32-3.14c1.46-2.07,1.91-4.45,2.54-6.82.54-2,1.45-4,2.15-5.94.59-1.66,1-3.4,1.69-5,.89-2,2-3.92,3-5.85.54-1,1.22-1.9,1.79-2.87,1.36-2.31,2.61-4.68,4.06-6.93,1.06-1.64,2.41-3.07,3.53-4.67,1.56-2.22,2.88-4.63,4.57-6.74,2.07-2.56,4.38-4.94,6.66-7.32,1.46-1.52,3-3,4.58-4.34,2.84-2.48,5.77-4.85,8.62-7.32,1.54-1.33,3-2.82,4.49-4.16,1.86-1.64,3.77-3.21,5.68-4.78,2.46-2,4.89-4.08,7.45-6a12.63,12.63,0,0,1,3.28-1.17c.57,1.39,1.16,2.87,1.8,4.32a21.85,21.85,0,0,1,1.09,2.16c.58,1.91-.32,3.21-1.85,4.32-3.63,2.61-7.31,5.17-10.77,8-3.06,2.5-5.88,5.31-8.74,8.06-.4.39-.35,1.25-.47,1.73,1.86,1.39,2.57-.34,3.37-1,2-1.61,3.76-3.55,5.67-5.29.91-.83,2-1.49,2.94-2.28,1.66-1.35,3.3-2.74,4.95-4.12a52.44,52.44,0,0,1,4.14-3.33,5.14,5.14,0,0,1,1.77,2,8.86,8.86,0,0,1,.27,3.38c-.15,3,1.29,5.5,2.23,8.19a23,23,0,0,0,3.06,6c1.15,1.58,2.3,3.17,3.39,4.8a16.16,16.16,0,0,1,1.69,2.89c1,2.41,1.83,4.9,2.83,7.31.6,1.46,1.39,2.84,2.1,4.26a2,2,0,0,1,.12.34c.49,2.43.93,4.88,1.48,7.3a23.8,23.8,0,0,0,1,2.5,4.45,4.45,0,0,1,.26,1.19c.06,1,0,1.93.12,2.88.24,1.85.61,3.68.87,5.53a23.82,23.82,0,0,1,.26,3c.08,4.61.08,9.23.19,13.85.05,2.07-.2,4-2.22,5.53a17.75,17.75,0,0,1-.41-2.46c-.07-2.46,0-4.92-.1-7.37a19,19,0,0,0-.84-6.47c-.69-1.86,0-4.19-.43-6.22a38.1,38.1,0,0,0-2.09-6.12,34.51,34.51,0,0,0-1.82-4.18,24.06,24.06,0,0,0-2.68-4.19,59,59,0,0,0-4.75-4.87,11,11,0,0,0-2.58-1.65c-1.36-.67-2,.65-2.83,1.26a1.1,1.1,0,0,0,.23.91,27.3,27.3,0,0,1,2.78,1.5,26.51,26.51,0,0,1,3.4,3.3,55.57,55.57,0,0,1,3.5,4.59,16,16,0,0,1,1.33,2.69,17.49,17.49,0,0,1,1.57,3.66c.61,3,1.08,6,1.41,9.06.5,4.63.87,9.28,1.2,13.93.13,1.91,0,3.84,0,5.75,0,1.21-.53,1.66-1.61,2.34-3.29,2-6.82.7-10.17,1.24a17.72,17.72,0,0,0-9.09,4.21,24.74,24.74,0,0,1-5.29,3.71c-2.14,1-4.33.5-6.2,1.32-2.44,1.06-4.93.55-7.33,1-2.09.43-4,1.43-6.12,2a15.12,15.12,0,0,1-4.21.68c-1.16,0-1.72-2.16-1-3.62a6.3,6.3,0,0,0-.11-6.07,1.75,1.75,0,0,1-.14-.51c-.58-3.48-.84-7-1.81-10.41-1.44-5-1.13-10.07-1.15-15.14a15.3,15.3,0,0,1,.14-2.87,6.18,6.18,0,0,1,.82-1.7c0-.09.23-.13.25-.22.49-2.08,1-4.16,1.41-6.26.08-.38-.39-.86-.61-1.29-.58.32-1.5.5-1.68,1-.67,1.77-.67,3.94-1.72,5.37-1.72,2.35-.85,5.1-1.86,7.57-.68,1.64.12,3.9.29,5.88a21,21,0,0,1,.37,4.07c-.45,3.51.74,6.82,1.77,9.9,1.69,5.06.88,10,.79,15,0,.94-1.25,2.09-2.2,2.72a33.46,33.46,0,0,1-6.89,3.87c-1.67.6-3.09,1.94-5.2,1.67-3.39-.42-6.45,1-9.58,2.16a6,6,0,0,1-5.66-.43c-.54-.38-1.35-.33-2-.58a21.3,21.3,0,0,1-2.92-1.31,1.22,1.22,0,0,1-.24-1.13c.43-1.28,1-2.53,1.49-3.79.28-.7.58-1.39.9-2.08.92-1.93,1.08-4.14,2.42-6A16.5,16.5,0,0,0,65,170.65,7.17,7.17,0,0,0,65.7,169C65.94,166.58,68.23,164.56,67.07,161.71Zm28-52c-1.49,1.68-3,3.16-4.2,4.81-1.57,2.09-2.81,4.43-4.44,6.47-1.94,2.42-3.89,4.79-4.74,7.84a1.12,1.12,0,0,1-.27.42,25.69,25.69,0,0,0-2.39,2.95c-1.13,1.91-2.1,3.93-3.08,5.92a7.21,7.21,0,0,0-.41,1.55c.73-.07,1.81.13,2.13-.27a43.48,43.48,0,0,0,2.86-4.43c.76-1.2,1.54-2.4,2.29-3.61,1-1.55,1.88-3.11,2.81-4.68.74-1.26,1.38-2.58,2.21-3.77s1.94-2.17,2.78-3.34a59.6,59.6,0,0,0,3.67-5.67C94.94,112.77,96.79,112,95.11,109.68Zm11,11c2,1.44,3,1.24,4.15,0a9.18,9.18,0,0,1,2.73-1.86c1.25-.57,2.67-.78,3.91-1.38.54-.26.8-1.11,1.18-1.69-.46-.27-.94-.78-1.38-.76a7.22,7.22,0,0,0-3.29.61C111,117.09,108.73,118.84,106.13,120.66Z"/><path class="cls-1" d="M177.11,306.75a8.76,8.76,0,0,0-3.82,4c-.62,1.3-2,2.28-3.1,3.3-1.84,1.69-3.69,3.36-5.65,4.92a29.42,29.42,0,0,1-4.36,2.89c-2.46,1.32-5,2.46-7.52,3.7a1.54,1.54,0,0,1-2.27-1.14c-.66-2.6-1.59-5.11-1.53-7.89,0-1.29-.76-2.59-1.15-3.89-.43-1.46.7-2.35,1.28-3.44.92-1.72,1.46-3.87,2.85-5a28,28,0,0,0,3.92-4.09c.24-.31,1-.27,1.54-.27,3.89,0,7.79,0,11.68.12a19.31,19.31,0,0,1,3.57.86,9.15,9.15,0,0,0,1.93.32c6.42,0,12.83.12,19.24,0a31.52,31.52,0,0,0,5-.89c.41-.08.82-.21,1.23-.26,4.09-.51,8.33-.52,12.23-1.67,3.49-1,6.93-.61,10.34-1.16,1.43-.24,2.74-1.25,4.1-1.91.2-.1.36-.31.56-.37,1.44-.42,2.89-.82,4.33-1.22,2-.53,4-.94,5.87-1.62,1.62-.57,3.06-1.68,4.69-2.12,2-.53,3.37-1.91,5.07-2.84a5.06,5.06,0,0,1,2.06-.2c1.07,2.44,2,4.57,2.93,6.71a3.94,3.94,0,0,1,.18,1.42c.06,2.39,0,4.8.16,7.19.28,3.13,1,6.24,1.14,9.37.21,5.09.23,10.2,0,15.29-.1,2.69-1.09,5.35-1.18,8-.07,2.26-1.25,3.13-3,3.89a14.26,14.26,0,0,0-2,1.22c-2.55,1.62-4.94,3.67-7.7,4.76-3.87,1.53-7.94,2.65-12.23.75-1.49-.66-3.42-.4-5.15-.38-2.79,0-5.15-1.3-7.66-2.17a2.51,2.51,0,0,0-.5-.18c-3.62-.5-7.23-1.06-10.86-1.47-1.72-.19-3.52.14-5.2-.18-2.92-.56-5.77-1.45-8.65-2.2a3.52,3.52,0,0,0-.87-.2c-2.54.15-4.51-1.21-6.66-2.27a21.15,21.15,0,0,0-6-1.59c-1.16-.19-1.48-.52-1.44-1.67.14-4,0-8,.31-12a69.41,69.41,0,0,1,1.4-8.44c.27-1.34.87-2.62,1.15-4A6.29,6.29,0,0,0,177.11,306.75Zm18,1.84c-.49.64-1,1-1,1.4a15,15,0,0,0,6.08,12.84c.58-1.57.69-2.41-.46-3.88C197.53,316.1,196.22,312.6,195.16,308.59Z"/><path class="cls-1" d="M145.18,63.88c-.68-1.78-1.56-4-2.4-6.27a6.57,6.57,0,0,1-.19-1.42c-.33-2.76-.84-5.52-1-8.3a47.51,47.51,0,0,1,.57-6.15,26.5,26.5,0,0,1,.44-5c.76-2.54.67-5.25,1.43-7.67a9.65,9.65,0,0,1,5.1-5.89,57.83,57.83,0,0,1,7.95-2.83c2.08-.64,4.2-.43,6.14-1.1,6.53-2.24,13.22-.78,19.82-1,1.58-.05,3.22,1,4.76,1.68a20.24,20.24,0,0,1,3.86,2.22,27.37,27.37,0,0,1,5.08,4.36,52.49,52.49,0,0,1,4,6.61q1.77,3,3.49,6a2,2,0,0,1,.14.7c.53,2.73.66,5.63,1.7,8.15.93,2.24.44,4.68,1.34,6.64,1.54,3.36.75,6.73.93,10.08s-1.19,6.18-2.24,9.18c-.46,1.3-.18,2.85-.42,4.26-.37,2.17-.88,4.32-1.36,6.48a.86.86,0,0,1-.42.52,20.12,20.12,0,0,0-3.48,1.62c-1.79,1.31-3.38,2.9-5.1,4.31-1.4,1.15-2.75,2.79-4.35,3.14-1.33.29-3.31-.64-4.47-1.64-3.13-2.72-3-6.61-2.32-10.19a15.58,15.58,0,0,0,.77-4.34c-.3-3.73-3.34-7-6.58-6.9-2.52.09-4.26,1.86-5.84,3.53-.85.9-1,2.43-1.63,3.57a30.3,30.3,0,0,1-2.91,4.44c-.6.73-2.74-.41-3.5-1.66-1.58-2.62-3.52-5.07-4.73-7.84-1.5-3.45-4.54-4.62-7.46-6.07C150.17,66,147.88,65.09,145.18,63.88Z"/><path class="cls-1" d="M50.53,333.89A78.84,78.84,0,0,0,59,332.08a16.72,16.72,0,0,0,4.91-2.92A80.54,80.54,0,0,0,70.78,323a10.1,10.1,0,0,0,1.74-3.28c.58-1.42.91-3,1.56-4.33a43.26,43.26,0,0,1,2.87-5.1,30.29,30.29,0,0,1,3.51-4.53,33.6,33.6,0,0,1,4.28-3.37c2-1.41,4.59-1.61,6.25-3.6.22-.27,1.21-.2,1.65,0a31.85,31.85,0,0,1,4.66,3c2,1.65,5.8.59,6.48-1.91A6.53,6.53,0,0,1,105,298c1.58-2.09,3.22-4.13,4.74-6.25.65-.92,1-2.06,1.59-3,1.61-2.57,3.33-5.07,4.92-7.65,1.1-1.78,2-3.68,3.08-5.47s2.5-3.68,3.63-5.59c.47-.8.11-2,1.39-2.44,1-.32,1.85-.83,2.77-1.23a52.62,52.62,0,0,1,5.1-2.16,37.71,37.71,0,0,1,7.05-1.63c.54-.06,1.54,1.54,1.86,2.53a19.57,19.57,0,0,0,3.48,6.56,8.44,8.44,0,0,1,1.78,4.63c.09,2.1.51,4.41-1.05,6.34-.24.31-.11.93-.12,1.41-.08,5.64-.07,11.28-.29,16.91-.1,2.63-.68,5.24-1,7.86-.15,1.43-.07,2.89-.25,4.31a79.12,79.12,0,0,1-1.27,8.3,55.21,55.21,0,0,1-2.72,8.55c-.55,1.28-1.92,2.23-2.94,3.3s-2.2,2.27-3.32,3.39c-1.58,1.58-3.26,3.08-4.77,4.72s-2.94,3.43-4.36,5.19c-.88,1.07-1.34,2.36-3.12,2.66a40.67,40.67,0,0,0-6.8,2.16c-1.28.45-1.52-.15-1.72-1.23-1-5.46-1-11-1.13-16.5,0-2.64.35-5.39-.27-7.89-1.17-4.71-.76-9.48-1.31-14.19a24.73,24.73,0,0,0-2.41-7c-.22-.5-1.55-.67-2.38-.68-.45,0-1,.56-1.33,1-1.08,1.75-2.07,3.55-3.06,5.35-1.1,2-2.91,3.5-3.67,5.76-.4,1.21-1.41,2.21-2,3.37a20.54,20.54,0,0,0-1.57,3.32c-.94,2.67-2.89,4.64-4.58,6.79a72.35,72.35,0,0,1-4.77,5.82,11.58,11.58,0,0,1-3.44,1.9c-1.8.84-3.63,1.62-5.45,2.42a3.67,3.67,0,0,1-.65.26c-3.2.69-6.33,1.71-9.71,1.39a6.5,6.5,0,0,0-4.54.89,3.48,3.48,0,0,1-4.53-.56.9.9,0,0,0-.61-.29c-2.14,0-2.64-1.76-3.27-3.26C51.42,336.8,51.05,335.43,50.53,333.89Z"/><path class="cls-1" d="M92.49,214.69c1.3.13,2.63-1.36,4-.07a8.48,8.48,0,0,1,1.68,2,18.87,18.87,0,0,0,3.86,4.78c1.23,1.12,1.86,2.88,2.83,4.3a43.53,43.53,0,0,0,3.18,4.31c1,1.15,2.24,2.09,3.35,3.15a3.33,3.33,0,0,0,4.22.27,18.84,18.84,0,0,1,3.62-1.66,32.9,32.9,0,0,1,4.83-1.5c2.48-.49,5-.84,7.5-1.09.94-.1,2.72.11,2.76.38a18.66,18.66,0,0,1-.06,4.54c0,.55-.59,1.06-.62,1.61a11.72,11.72,0,0,1-2.46,6.62,2.29,2.29,0,0,0-.25,1.22,10.22,10.22,0,0,1-2.39,6.24.93.93,0,0,0-.16.5,21.42,21.42,0,0,1-2.55,7.33c-1.12,2.26-1.7,4.8-2.85,7.05-1.56,3.06-3.35,6-5.2,8.89-1.39,2.19-3.15,4.15-4.54,6.35-1.58,2.52-2.86,5.24-4.42,7.78-1.24,2-2.69,4-4.08,5.91-.71,1-1.51,1.94-2.2,3a18.85,18.85,0,0,1-1.65,2.63c-.42.43-1.74.74-2,.5-1.69-2-4.29-2.35-6.24-3.78-2.46-1.81-4.72-3.89-7.15-5.76-1.39-1.07-2.94-1.92-4.41-2.9-1.26-.84-2.39-2.07-3.78-2.48-2.33-.7-3.59-2.64-5.37-4-.91-.66-1.75-1.68-.76-3,.25-.34.07-.95.19-1.41.26-1,.59-2,.91-2.95.07-.22.27-.42.31-.64.48-2.2.8-4.44,1.44-6.6a57.31,57.31,0,0,1,2.22-5.55c.46-1.13,1-2.24,1.4-3.37,1-2.36,1.84-4.74,2.85-7.07,1.09-2.55,2.36-5,3.42-7.58.71-1.71,1.15-3.54,1.79-5.28.74-2,1.56-4,2.34-6a2,2,0,0,0,.08-.35c.5-2.64.87-5.31,1.53-7.91.46-1.81,1.36-3.51,2-5.29C92.05,216.79,92.22,215.79,92.49,214.69Zm26.78,38.07-.59-.24c-.74.62-1.49,1.22-2.21,1.86-1.14,1-2.28,2.06-3.36,3.15a34.49,34.49,0,0,0-2.57,3c-1.07,1.36-1.86,3-3.14,4.12-2,1.68-4.35,2.91-6.44,4.48a13.72,13.72,0,0,0-2.31,2.7c-.1.12.06.63.24.74a1,1,0,0,0,.8-.09c1.15-.74,2.26-1.54,3.39-2.3a34.44,34.44,0,0,0,4.49-3.06c2-1.85,3.69-4,5.52-6s3.73-4,5.47-6.05A6.73,6.73,0,0,0,119.27,252.76Z"/><path class="cls-1" d="M111.9,74.58c-2.59,2.1-5,4-7.28,5.93-.61.51-1,1.34-1.55,1.86-1.76,1.5-3.63,2.87-5.38,4.37-.84.71-1.43,1.72-2.27,2.41-1.18,1-2.49,1.77-3.75,2.64a49.53,49.53,0,0,1-5.12,3.47c-2.62,1.35-5.41,2.47-8.48,1.89A26.71,26.71,0,0,1,72,95.59a8.79,8.79,0,0,1-3.07-3,23,23,0,0,1-2.3-4.15,2.17,2.17,0,0,1,0-1.82,3.42,3.42,0,0,0,0-4.62c-.52-.72-.4-2-.44-2.94-.09-2,.29-4-1.24-5.77-.91-1-1.67-2.19-3.19-2.25-2.62-.11-4.31-4-2.65-6.16a10.63,10.63,0,0,0,1.59-3.75c.66-2.55,1-5.17,1.66-7.73a29.1,29.1,0,0,1,1.34-4c.1-.25.71-.42,1.07-.41a25.55,25.55,0,0,1,5.19.29,20.45,20.45,0,0,1,4,1.92c1.23.6,2.52,1.08,3.68,1.79A33.29,33.29,0,0,1,84,57.31c1.06,1.06,1,3.15,1.71,4.65.86,1.84.74,4.08,2.52,5.56,1.33,1.12,4.08,1.44,5.47.39a16.36,16.36,0,0,1,1.94-1.24c1.83-1,1.74-2.82,1.64-4.52-.14-2.58,1.31-4.57,2.87-6.16.75-.77,2.84-.38,4.29-.22.29,0,.62,1.4.62,2.16A11.56,11.56,0,0,1,104,63.6c-.76,1.45-.2,3.61-.16,5.46,0,.24.35.54.61.72C106.79,71.29,109.11,72.78,111.9,74.58Z"/><path class="cls-1" d="M188.05,96.55a10.67,10.67,0,0,1-1.34,1.76c-3.82,3.46-7.71,6.82-10.79,11-2.21,3-4.88,5.72-7,8.81a27.78,27.78,0,0,1-3,3.94c-1.07,1.11-4.24,1-5.32-.13-1.36-1.44-2.79-2.81-4.08-4.3a9.27,9.27,0,0,1-2.49-6.35c0-2.07,0-4.15,0-6.25l-2-.28a50.37,50.37,0,0,0-2-6.74,13.72,13.72,0,0,0-2.95-3.51c-.89-1-1.93-1.76-2.82-2.71a1.41,1.41,0,0,1-.1-1.12c.22-.92.56-1.82.83-2.73.34-1.16.66-2.32,1-3.48a5.33,5.33,0,0,0,.33-1.38c0-4,0-8-.21-12a12,12,0,0,0-1.15-3.27l.46-.6c.93.3,1.86.58,2.77.91,1.63.6,3.27,1.16,4.85,1.87a5.5,5.5,0,0,1,2.11,1.53c1,1.34,2.15,2.66,3.16,4,1.48,2,2.52,4.15,3.93,6.12a12.47,12.47,0,0,0,1.58,2.4c2.33,2,3.44,2.08,5.64-.13,1.91-1.92,3.63-4,4.12-6.86.21-1.24,3.16-3.32,4.49-3.36a3.12,3.12,0,0,1,3.23,2.45,15.56,15.56,0,0,1,1,3.66c.06.83-.8,1.69-.84,2.55a50.32,50.32,0,0,0,.09,8.42c.17,1.26,1.36,2.54,2.39,3.49S186.31,95.59,188.05,96.55Z"/><path class="cls-1" d="M74,557.17a28.3,28.3,0,0,1-.06,4.12,3.29,3.29,0,0,1-1.21,2.13c-1.75,1.1-3.65,2-5.49,2.89-.95.48-1.91.93-2.86,1.42-2.18,1.12-4.35,2.26-6.53,3.39a2.91,2.91,0,0,1-.69.18c-2.19.49-4.43.85-6.57,1.52a20,20,0,0,0-3.66,2c-.14.08-.25.28-.4.31-2,.5-4,1.13-6.12,1.43-4.42.63-8.88,1-13.3,1.64a12.07,12.07,0,0,1-7.31-1.35,13.3,13.3,0,0,0-4.22-1.41c-2.38-.26-4.21-1.59-6.29-2.44a13.82,13.82,0,0,1-5.63-4.05,5,5,0,0,1-.55-3.61c.16-1,1.16-1.49,2.36-1.73,2.7-.56,5.32-1.47,8-2.23.06,0,.1-.08.16-.09,2.45-.53,4.91-1,7.33-1.62s4.6-1.42,6.9-2.14a3.52,3.52,0,0,1,1-.22c2.7.11,4.39-1.62,6.16-3.26a2.52,2.52,0,0,1,1.4-.8c2.12,0,4.28-.32,6.26,1,.62.42,1.61.28,2.42.42l5,.9a1.83,1.83,0,0,0,1.06,0c2.87-1.52,6-.47,9-.92,2.78-.41,5.57-.84,8.3-1.51A15.33,15.33,0,0,0,72,551.32c1.19-.66,1.87-.32,1.93,1,.07,1.62,0,3.24,0,4.86Z"/><path class="cls-1" d="M89.94,214.6l-1.26,3.2s-.08.09-.1.15c-.55,1.8-1.1,3.6-1.63,5.41q-1.2,4.08-2.38,8.18c0,.16-.1.33-.14.5a55.55,55.55,0,0,1-1.58,6.19c-1,2.61-2.29,5.09-3.44,7.63-.53,1.2-.91,2.47-1.54,3.61a3,3,0,0,1-1.57,1.29c-3,.9-6,1.68-9,2.5a2,2,0,0,1-.35.06c-3.31.52-6.62,1.06-9.94,1.54-1.54.23-2.55-.13-2.37-2.07a10,10,0,0,0-.2-4.1c-1.84-5.22-.57-10.65-1.32-15.9-.24-1.68-1-3.37-.7-5.1A4.8,4.8,0,0,1,53.74,225c2.35-2.2,5.29-3.66,7.49-6.12,1.13-1.26,2.89-2,4.38-2.91a54.23,54.23,0,0,1,5.86-3.57,10.08,10.08,0,0,1,4-.54,32.14,32.14,0,0,1,5.19.29c.83.12,1.55.9,2.38,1.09C85.16,213.77,87.29,214.1,89.94,214.6Z"/><path class="cls-1" d="M86.59,187.52a20.36,20.36,0,0,0,.56,3.76c.54,1.47,1.42,2.8,2.06,4.24.56,1.27,1,2.58,1.5,3.9.57,1.64,1,3.33,1.64,4.93.56,1.36,1.43,2.58,2.05,3.91a10.43,10.43,0,0,1,.49,2.13,6.77,6.77,0,0,1-5.8.53,1.43,1.43,0,0,0-.36-.06c-2.85-.5-5.72-1-8.56-1.53-.89-.18-1.69-1-2.58-1.06-2.39-.3-4.38.95-6.39,2a14.16,14.16,0,0,1-3.15,1.55,7.7,7.7,0,0,0-3.46,2.28c-.79.73-2,1-2.87,1.64A49.89,49.89,0,0,0,56,220.33a7,7,0,0,1-6,2.29,3.28,3.28,0,0,1-3-3,44.46,44.46,0,0,1-.06-5.89c-2.84-1.6-3.73-6.39-1.62-8.69-.64-1.66-2.82-2.58-2.28-4.8.06-.29-.06-.76.09-.87,2.29-1.58,1.3-3.83,1.25-5.88a4.5,4.5,0,0,0,0-.9,2.94,2.94,0,0,1,2-3.55c1.28-.41,2.87.08,4.31.29.67.1,1.34.75,1.92.66,3.14-.5,6,.8,8.75,1.71a17.83,17.83,0,0,0,7.47.79A36.1,36.1,0,0,0,75,190.89a18.82,18.82,0,0,1,2.25-.7,12.09,12.09,0,0,1,2.69-.06A8.21,8.21,0,0,0,86.59,187.52Z"/><path class="cls-1" d="M263,546.14a27.73,27.73,0,0,0,3.66.54c6.58.08,13.16.3,19.73,0,2.79-.13,5.53-1.38,8.3-2.1.63-.17,1.29-.2,1.92-.37a32.08,32.08,0,0,0,3.78-1.08c1.61-.64,2.84.37,3.84,1.7,1.16,1.55.53,4.29,3.16,4.84.22,0,.49.55.5.86.07,2.2.46,4.49,0,6.58a6,6,0,0,1-4.07,4c-1.75.65-3.46,1.42-5.19,2.14a3.65,3.65,0,0,1-.82.29c-3.4.52-6.86.76-10.19,1.58-10.32,2.52-20.76.5-31.12,1a29.3,29.3,0,0,1-8.64-1.37,4.36,4.36,0,0,1-2.83-2.53,4.69,4.69,0,0,1,1.38-3.65,31.25,31.25,0,0,1,5.47-3.88c1.71-1,3.66-1.67,5.34-2.74a43.31,43.31,0,0,0,5.32-4C263,547.51,262.91,546.57,263,546.14Z"/><path class="cls-1" d="M76.24,287.33a52.84,52.84,0,0,1,12.14,9.39c-2.9,2-5.54,3.87-8.19,5.7-2.17,1.51-3.43,3.77-4.9,5.86a34.67,34.67,0,0,0-2.13,3.28c-.68,1.26-1.12,2.65-1.83,3.9-1.5,2.65-1.49,6.08-4.61,7.94-1.71,1-2.91,2.85-4.49,4.14a12.35,12.35,0,0,1-3.45,1.9,25.65,25.65,0,0,1-4.87,1.34c-1.38.23-2.91.36-3.34-1.68-.09-.47-.88-.76-1.09-1.24-.54-1.31-.91-2.68-1.41-4a31.55,31.55,0,0,0-2-4.87c-1.41-2.4-.1-5.06,2.31-6.36s4.83-1.11,7.33-1.13c2.35,0,3.95-2.79,2.46-4.57-1.07-1.27-.62-2.56-1-3.79-.2-.57-.42-1.61-.65-1.62a4.55,4.55,0,0,0-2.08.62,30,30,0,0,0-5.55,3.26c-1.85,1.62-3.73.81-5.52,1-1.19-2,.52-3,1.42-3.85a36.54,36.54,0,0,1,6.74-4.84c1.09-.6,2.69-.34,4.07-.36,2.22,0,4.06-1.07,5.95-2A3,3,0,0,1,62,295c1.87-.56,3.75-1.07,5.6-1.69a7,7,0,0,0,1.57-1Z"/><path class="cls-1" d="M76.8,560c-.11-2.31-.19-4.07-.27-5.83,0-1.14-.1-2.28-.1-3.41a2.54,2.54,0,0,1,2-2.74,18.33,18.33,0,0,0,4.89-2.92,3.43,3.43,0,0,0,.83-2.52,3.51,3.51,0,0,1,1.44-3.18c1-.82,2-1.79,3.11-2.49.78-.5,1.55-1,2.62.12A65.92,65.92,0,0,0,97,541.7a66.9,66.9,0,0,0,5.69,4.75c2,1.28,4.33,1.89,6.31,3.13,2.16,1.37,4.5.9,6.76,1.28s4.25.88,6.37,1.39c1.27.31,2.51.76,3.78,1.1a1.1,1.1,0,0,1,.75,1.8c-1.15,1.61-1.41,3.65-3.22,5a9.92,9.92,0,0,1-4.16,1.91,20.24,20.24,0,0,1-7.83.06c-2.22-.53-4.67-.61-6.71-2.14a7.85,7.85,0,0,0-4.25-1.29c-5.86-.16-11.73-.22-17.59-.07C81,558.69,79.08,559.47,76.8,560Z"/><path class="cls-1" d="M87.73,534.73a14.65,14.65,0,0,1-2.13,1.5,3.53,3.53,0,0,1-2,.34c-.26-.05-.5-1-.5-1.54,0-7.61.12-15.23.19-22.84,0-1.32,0-2.64.11-4,.35-4.91.06-10,1.3-14.68,1.3-4.89.27-9.8,1.34-14.5.86-3.78.27-7.66,1.29-11.28,1.45-5.14.61-10.34,1.09-15.49.23-2.33.85-4.63,1-7,.24-5.14.25-10.3.43-15.45a8.37,8.37,0,0,1,.66-2.1c.08-.27.25-.62.15-.82-1.53-3,.86-5.9.32-8.87,0-.13.39-.48.57-.46a.83.83,0,0,1,.57.52,56.37,56.37,0,0,1,1.16,7.59c.06,1.71-.66,3.46-1,5.19s-.71,3.45-1,5.17a6.47,6.47,0,0,0-.16,1.06,101,101,0,0,0,0,11.14c.33,3.41,1.43,6.73,2.17,10.1a5.76,5.76,0,0,1,.15,1.24c0,8.57.46,17.17-.16,25.7-.31,4.14-.15,8.5-1.31,12.46s-.62,7.66-1.1,11.46c-.31,2.48-.44,5.12-1.47,7.31a21.33,21.33,0,0,0-1.06,4.31c-.52,1.93-1.33,3.79-2,5.68a1.87,1.87,0,0,0-.22,1c.37,1.32.55,2.84,1.35,3.85S88.48,533.55,87.73,534.73Z"/><path class="cls-1" d="M134.86,518.08a41.42,41.42,0,0,1,.08-6.68,51.35,51.35,0,0,1,2.05-6.57,11.52,11.52,0,0,0,.17-2c.18-1.56,1.31-2.14,2.63-2.52,2.73-.78,5.43-1.68,8.19-2.31,1.49-.34,3.1-.13,4.63-.34a13.49,13.49,0,0,0,3.65-1c1.92-.87,4-.07,4.25,1.94.31,2.77,1.85,4.94,3.28,7.14a4.44,4.44,0,0,1-.15,5,5.8,5.8,0,0,0-1.27,2.63c-.16,2-1.91,2.38-3,3.32a6.19,6.19,0,0,1-3.59,1.5c-6.82.13-13.64,0-20.46,0C135.22,518.29,135.11,518.2,134.86,518.08Z"/><path class="cls-1" d="M138.5,497.66c.44-2.89-.68-5.75,1.08-8.37.21-.31.14-.81.2-1.23.51-3.38.87-6.79,1.57-10.12.48-2.26,1.48-4.39,2.15-6.61a17,17,0,0,0,.33-2.49c.46-3.09.82-6.2,1.45-9.25a35,35,0,0,1,1.95-5l1.85,5.5c.4,1.18.73,2.39,1.24,3.52.69,1.55,1.55,3,2.28,4.54a25.93,25.93,0,0,1,1.28,3c.59,1.8,1.05,3.64,1.66,5.43.46,1.35,1.07,2.64,1.61,3.95.32.77.64,1.54,1,2.3.62,1.44,1.19,2.9,1.91,4.28.42.82,1.16,1.46,1.63,2.27.61,1.06-.32,2.62-1.79,3.14a39.73,39.73,0,0,0-4.84,1.63c-2.34,1.21-4.75.26-6.81,1.12-2.4,1-5.27.35-7.34,2.27-.11.11-.34.11-.52.12Z"/><path class="cls-1" d="M149.27,278.89c1.85,1.88,3.6,3,3.75,5.61a63.5,63.5,0,0,0,1.24,8.32c.16.85.89,1.57,1.19,2.41.7,1.94-.76,3.27-1.71,4.52a52.76,52.76,0,0,1-4.86,5.07c-.15.15-.46.31-.6.26a1,1,0,0,1-.54-.58,8.6,8.6,0,0,1-.09-1.61c0-4.19,0-8.38.14-12.57.07-1.68.65-3.34.87-5C148.92,283.36,149,281.4,149.27,278.89Z"/><path class="cls-1" d="M66.51,290.7c0-2.7-.06-5.4.1-8.09a2.76,2.76,0,0,1,2.14-.5,27.76,27.76,0,0,1,3.38,2.23c.76.48,1.09,1.93.36,2.45-1.48,1.08-3.06,2-4.55,3.08-.34.25-.5.76-.75,1.14Z"/><path class="cls-1" d="M94,417c-.58-1.42-1.23-2.81-1.74-4.25-.74-2,1.08-3.31,1.64-5a8.74,8.74,0,0,1,1.35-1.93c.21.24.58.48.57.69-.11,1.65.65,3.39-.82,4.9-.41.41-.11,1.49-.18,2.26-.11,1.14-.26,2.28-.39,3.42Z"/><path class="cls-1" d="M145.25,319.37a2.67,2.67,0,0,1,1.27,3.4,14.55,14.55,0,0,1-1.7,3.14l-.56-.09a4.63,4.63,0,0,1-.16-1.67c.21-.76.81-1.43,1-2.2A13.72,13.72,0,0,0,145.25,319.37Z"/><path class="cls-1" d="M136.34,240.17v-3.43h.58v3.45Z"/><path d="M171.45,367.81a27.72,27.72,0,0,1-2.16,3.07,66.35,66.35,0,0,1-4.87,4.91,24.65,24.65,0,0,1-2.95,1.88c-.49.33-.87.83-1.38,1.14-2.19,1.36-4.51,2.56-6.61,4.05a30.5,30.5,0,0,1-7.95,3.82,21.34,21.34,0,0,0-2.27,1.27,33.09,33.09,0,0,1-5,2.33,5.44,5.44,0,0,1-5-.67c2.84-1.14,5.3-2.09,7.72-3.11.75-.32,1.38-.92,2.13-1.24,2.22-.94,4.58-1.61,6.7-2.74,2.49-1.33,4.66-3.3,7.2-4.48,2.8-1.3,4.7-3.56,6.92-5.48,1.89-1.62,3.68-3.35,5.55-5a4,4,0,0,1,1.3-.47C171,367.34,171.25,367.57,171.45,367.81Z"/><path d="M219.84,389.58a16.83,16.83,0,0,0,1.69,3,37.42,37.42,0,0,0,4.3,4.33c1.9,1.58,4.41,1.87,6.67,2.71a22.15,22.15,0,0,1,5.33,2.93c.5.37.24,1.77.36,3.06a26.69,26.69,0,0,0-7.9-3.66,17.53,17.53,0,0,1-8.66-5.36,16.27,16.27,0,0,1-2.62-3.83c-.37-.79-.06-1.9-.06-2.87Z"/><path d="M265.46,453.79c-.53,1.67-1.28,2.44-2.7,2.53-3.41.24-6.7-.54-10-.91s-5.15-2.31-7-4.61c-.24-.31-.6-.52-.87-.81a9.66,9.66,0,0,1-1.29-1.59c-.07-.13.52-.9.78-.89a4.62,4.62,0,0,1,2.59.55,31.58,31.58,0,0,1,3,3.58,2.06,2.06,0,0,0,.89.69,33.39,33.39,0,0,0,12.33,1.47C263.81,453.75,264.46,453.79,265.46,453.79Z"/><path d="M107.46,421.39l2.32.23c.68,2.32,1,4.6,2,6.56.86,1.68,1,3.86,3,5,.84.45,1.34,1.65,1.84,2.6,1.11,2.13,3.28,2.85,5.2,3.75,2.29,1.07,3.23,2.88,2.17,4.39-1.61-1-3.3-1.94-4.77-3.11a43.92,43.92,0,0,1-5-4.57,52,52,0,0,1-3.36-4.53c-.13-.19-.41-.31-.47-.51-.52-1.74-1-3.5-1.5-5.24C108.53,424.56,108.06,423.2,107.46,421.39Z"/><path d="M105.56,502a2.51,2.51,0,0,0,.44-.38c.35-.4.68-.82,1-1.23a5.51,5.51,0,0,1,.59,1.69c0,3.76,2.2,6.26,4.68,8.65,1,1,1.9,2,2.92,3,.43.41,1.09.56,1.53,1a6,6,0,0,1,1.23,1.53c.09.15-.25.8-.41.81a3.5,3.5,0,0,1-1.9-.21c-3.1-2-5.27-5-7.68-7.76-1-1.15-1.19-3.07-1.72-4.64C106,503.73,105.84,503,105.56,502Z"/><path d="M230.2,432c.93,1.41,1.89,2.81,2.8,4.24a33.38,33.38,0,0,0,4.65,5.82c.53.54.39,1.74.56,2.63-.8-.14-1.82,0-2.36-.47a18.64,18.64,0,0,1-3.11-3.52c-.93-1.34-1.52-2.9-2.42-4.26-.71-1.09-1.4-2.11-1-3.49.09-.27.2-.53.29-.79Z"/><path d="M226.65,241.58c0-1.79-.66-3.64.94-5.16a.81.81,0,0,0,.17-.49c.43-4.49,2.24-9,1-13.47a39.14,39.14,0,0,1-.9-6.57c-.16-1.7.19-3,2.35-3.56.49,3.15,1,6.27,1.44,9.4.15,1.12-.09,2.3.1,3.4.68,3.84-1.11,7.32-1.47,11a27.24,27.24,0,0,1-1.29,4.32C228.7,241.68,227.88,241.8,226.65,241.58Z"/><path d="M110.4,205.11v-1.62c2.22-1.44,3.77.45,5.51,1.12,1.28.49,2.38,1.49,3.66,2,1.6.65,3.32,1,5,1.56,2.21.72,4.4,1.49,6.6,2.24a6.31,6.31,0,0,0,.86.2c2.41.45,4.83.85,7.22,1.38.29.06.44.79.65,1.2-.93.29-1.35,1.78-2.89.81-1-.63-2.54-.38-3.81-.66s-2.39-.72-3.58-1.1l-.33-.12c-2.13-.49-4.29-.87-6.37-1.52a44.79,44.79,0,0,1-4.86-2.06c-1-.46-2-1-3-1.45C113.58,206.45,112.11,205.84,110.4,205.11Z"/><path d="M147,237.1c1.77,1.64,1.71,3.73,2.33,5.62.93,2.86.85,5.67,1.05,8.53a3,3,0,0,0,.43.9,4.85,4.85,0,0,1,.8,1.61,7,7,0,0,1-.47,2c-.62-.29-1.47-.41-1.8-.89-.81-1.16-1.88-2.23-1.67-3.91a22.87,22.87,0,0,0,.06-4.3c-.13-1.78.1-3.55-1-5.3A3.6,3.6,0,0,1,147,237.1Z"/><path d="M176.68,232.08c1.23-1.51,2.54-2.94,3.63-4.52.9-1.31,1.38-2.92,2.35-4.15,1.37-1.75.53-4.73,3.2-5.72a4.36,4.36,0,0,1-.09,4.87,10.68,10.68,0,0,0-.57,1.47c-.64,1.23-1.3,2.44-2,3.64-.6,1-1.27,2-1.88,3.07C180.16,232.7,178.69,233.16,176.68,232.08Z"/><path d="M164.23,264.78c.49-.95.89-1.72,1.27-2.49a1.37,1.37,0,0,0,.18-.5c.12-3.45,2.19-6.63,1.35-10.23a7.62,7.62,0,0,1,.16-2.14,2.64,2.64,0,0,1,2.29,2.69,18.09,18.09,0,0,1,0,4.82c-.45,2.31-1.3,4.54-2,6.81C167.08,265.34,166,265.13,164.23,264.78Z"/><path d="M185.36,150c1.1,0,2.21-.08,3.31,0a11,11,0,0,0,7.41-1.45c.76-.52,1.16-1.64,2.47-1.17.87.32,1,.56.43,1.32-3.18,3.89-7.44,4.37-12,3.85C185.77,152.44,185.08,151.7,185.36,150Z"/><path d="M193.27,120.72a9.75,9.75,0,0,1-1.84,1,35.23,35.23,0,0,0-5.38,1.17c-1.28.52-2.26,1.78-3.41,2.67-.67.51-1.4.94-2.11,1.41-1.29-2.18.39-3,1.18-4,2-2.43,5.1-2.87,7.9-3.64C190.49,119.1,191.73,120.1,193.27,120.72Z"/><path d="M70,373c1.77-1.34,3.26-2.33,4.58-3.5,1.56-1.37,2.93-2.95,4.45-4.37a18.27,18.27,0,0,0,4.23-6.61,21.74,21.74,0,0,1,3.22-4.67,5,5,0,0,1,1.6-.91c0,.8.32,1.73,0,2.37-.56,1.15-1.62,2-2.24,3.17s-.93,2.82-1.74,4a36.21,36.21,0,0,1-4.06,4.7c-1.51,1.54-3.25,2.86-4.73,4.43S72.44,373.89,70,373Z"/><path d="M69.54,464.15a4.68,4.68,0,0,1-.15,4.07c-.84,1.93-2.45,3.23-3.19,5.14a6.15,6.15,0,0,1-2,2.17,26.87,26.87,0,0,1-4.6,3.35c-1.36.69-2.48,2.4-4.62,1.62a16.8,16.8,0,0,1,5.08-5c2.6-1.82,5.24-3.69,6.44-7C67,467,68.33,465.83,69.54,464.15Z"/><path d="M71.73,429.86c2.67-1.95,5.45-3.77,8-5.89a13.46,13.46,0,0,0,3.22-4.18c.71-1.38,1.43-.81,2.82-.52-1.54,2.23-3,4.19-4.29,6.24-1.54,2.4-4.29,3.15-6.39,4.79-.7.56-2.21.09-3.35.09Z"/><path d="M53.63,541.77c-2.05.3-3.4-.77-4.52-2.27a6.79,6.79,0,0,1-.62-1.43c.73,0,1.69-.28,2.15.07,1.75,1.38,5.08,1.5,6.6,0,1.36-1.35,2.68-2.75,4-4.1a.9.9,0,0,1,.78-.2.82.82,0,0,1,.43.66,10.83,10.83,0,0,1-.76,2.4,10.17,10.17,0,0,1-5.12,4.43A10.29,10.29,0,0,1,53.63,541.77Z"/><path d="M42.83,447.79c1-.61,1.93-1.28,3-1.79,1.61-.79,3.27-1.49,4.92-2.19,1.41-.6,2.82-1.17,4.25-1.68.22-.08.82.21.84.37a1.21,1.21,0,0,1-.34,1c-1.67.87-3.37,1.67-5.08,2.47s-3.21,1.55-4.86,2.21a10.57,10.57,0,0,1-2.34.35Z"/><path d="M95.11,109.68c1.68,2.27-.17,3.09-.78,4.19a59.6,59.6,0,0,1-3.67,5.67c-.84,1.17-2,2.16-2.78,3.34s-1.47,2.51-2.21,3.77c-.93,1.57-1.86,3.13-2.81,4.68-.75,1.21-1.53,2.41-2.29,3.61a43.48,43.48,0,0,1-2.86,4.43c-.32.4-1.4.2-2.13.27a7.21,7.21,0,0,1,.41-1.55c1-2,2-4,3.08-5.92a25.69,25.69,0,0,1,2.39-2.95,1.12,1.12,0,0,0,.27-.42c.85-3.05,2.8-5.42,4.74-7.84,1.63-2,2.87-4.38,4.44-6.47C92.15,112.84,93.62,111.36,95.11,109.68Z"/><path d="M106.13,120.66c2.6-1.82,4.87-3.57,7.3-5a7.22,7.22,0,0,1,3.29-.61c.44,0,.92.49,1.38.76-.38.58-.64,1.43-1.18,1.69-1.24.6-2.66.81-3.91,1.38a9.18,9.18,0,0,0-2.73,1.86C109.12,121.9,108.14,122.1,106.13,120.66Z"/><path d="M195.16,308.59c1.06,4,2.37,7.51,4.59,10.36,1.15,1.47,1,2.31.46,3.88A15,15,0,0,1,194.13,310C194.14,309.61,194.67,309.23,195.16,308.59Z"/><path d="M119.27,252.76a6.73,6.73,0,0,1-.71,2.31c-1.74,2.09-3.64,4-5.47,6.05s-3.55,4.11-5.52,6a34.44,34.44,0,0,1-4.49,3.06c-1.13.76-2.24,1.56-3.39,2.3a1,1,0,0,1-.8.09c-.18-.11-.34-.62-.24-.74a13.72,13.72,0,0,1,2.31-2.7c2.09-1.57,4.45-2.8,6.44-4.48,1.28-1.09,2.07-2.76,3.14-4.12a34.49,34.49,0,0,1,2.57-3c1.08-1.09,2.22-2.12,3.36-3.15.72-.64,1.47-1.24,2.21-1.86Z"/></g></g></svg>