<svg xmlns="http://www.w3.org/2000/svg" viewBox="0 0 327.96 554.14"><defs><style>.cls-1{fill:#fff;}</style></defs><g id="Layer_2" data-name="Layer 2"><g id="Layer_1-2" data-name="Layer 1"><path class="cls-1" d="M47.83,511.82c1.89.09,3.35.07,4.78.26s2.68.86,4,.83c1.58,0,3.14-.78,4.74-.89a7.23,7.23,0,0,0,4.69-1.64c1.18-1.09,2.65-2.07,3.35-3.43.88-1.69,1.1-3.72,1.6-5.61,0-.17.11-.34.17-.51.69-2,1.54-3.95,2-6,.67-2.76,1-5.59,1.57-8.39.33-1.71.73-3.41,1.1-5.12.08-.34.19-.68.3-1,.71-2.12,1.51-4.22,2.11-6.37s1-4.48,1.59-6.69c.65-2.39,1.69-4.7,2.15-7.12.69-3.68,1-7.44,1.51-11.16,0-.35,0-.72.08-1.07.22-1.51,1.07-1.86,2.35-1.07a2.46,2.46,0,0,0,1.59.49c1.88-.43,3.73-1,5.58-1.56a51,51,0,0,1,6-1.87c1.8-.32,3.71,0,5.56-.08,2.59-.12,3.3,1.26,2.25,3.83a16.1,16.1,0,0,0-1,4.79,16.68,16.68,0,0,1-.21,2.14c-.69,3.14-1.52,6.24-2.1,9.39-.6,3.3-1,6.63-1.45,9.95a2.07,2.07,0,0,1-.26.66c-1.54,3-1.26,5.59,1,8,1.19,1.25.62,2.6.22,3.78-.52,1.52-1.55,2.85-2.19,4.34s-.77,3.05-1.53,4.36c-1.42,2.48-1.15,4.81-.13,7.27a43.85,43.85,0,0,1,1.6,4.55c.59,2,.88,4.11,1.64,6,1.12,2.83,2.27,5.59,2.44,8.71a3.76,3.76,0,0,0,1.78,2.68,2.55,2.55,0,0,0,3.34-.64c.84-1.08,2.43-.85,3.46.14a2.72,2.72,0,0,0,1.17.6c1.8.45,2.9-.59,3.92-1.86.21-.26.87-.5,1.06-.37.63.42,1.08,1.37,1.72,1.49,1.86.35,4.24,1.17,5.57.38,1.61-1,2.39-.92,3.77,0a2,2,0,0,0,2.94-.51c1.71-2.3,2.23-2.12,4,.3a5.57,5.57,0,0,0,2.8,1.73c.49.14,1.24-.65,1.9-1a4.46,4.46,0,0,0,2.83-4.18c.09-2.58.44-5.15.67-7.73a1.8,1.8,0,0,0-.05-.51c-.24-1.18-.5-2.37-.73-3.55a11.66,11.66,0,0,0-.49-2.42c-1.05-2.23-2.44-4.36-2.1-7,.21-1.55-1.53-2.94-.31-4.56,0,0-.25-.26-.28-.41-.13-.74-.22-1.48-.3-2,1.77.27,3.2.51,4.64.71.95.13,1.92.11,2.85.31,3.21.67,6-1.31,6-4.59a36.74,36.74,0,0,1,2.4-12.5c1-2.75,1-5.88,1.42-8.85.18-1.3.17-2.64.47-3.91.59-2.52,1.45-5,2-7.5.31-1.51-.1-3.18.28-4.65a39,39,0,0,0,1.2-10.53,1.93,1.93,0,0,1,.11-.53c.74-2.21,1.57-4.4,2.19-6.65.37-1.37.37-2.71,1.14-4.12a38.22,38.22,0,0,0,2.63-7.61,49.86,49.86,0,0,0,1.24-5.41c.57-3.23.68-6.6,1.65-9.7.88-2.86.84-5.71,1.15-8.57a2.38,2.38,0,0,1,.11-.53,37.48,37.48,0,0,0,2.24-9.33c.3-2.79,0-5.55.92-8.4a38,38,0,0,0,1.47-11A39.26,39.26,0,0,1,179.47,358a33.52,33.52,0,0,0,1.13-5.18,2.87,2.87,0,0,1,.25-.67,30,30,0,0,0,2-5.28c.53-2.92.58-5.91,1-8.87a37.22,37.22,0,0,1,3-9.52,15.92,15.92,0,0,1,1.69-2.83c1.07-1.49,2.18-3,3.37-4.35.39-.44,1.37-1,1.64-.81a10,10,0,0,1,2,2.07,11.45,11.45,0,0,0,1,1.36c1.63,1.47,3.44,2.77,4.95,4.35,2.25,2.34,4.3,4.87,6.42,7.32a1.8,1.8,0,0,1,.2.47,33.88,33.88,0,0,0,1.71,3.66c.46.77,1.33,1.3,1.86,2,1,1.43,1.93,2.92,2.83,4.42.58,1,1.06,2,1.59,3,.73,1.35,1.56,2.65,2.18,4s1.09,3,1.67,4.51a49.37,49.37,0,0,1,2,5.05c.63,2.34,1,4.77,1.4,7.16a2.91,2.91,0,0,0,.12.51c.73,2.06,1.64,4.07,2.17,6.17s.11,4.26,1.05,6.46.58,5.11,1.32,7.73c1.06,3.76,1.1,7.82,1.52,11.76.17,1.67-.28,3.56.37,5,1.36,3,.63,6,.92,8.94.12,1.19.09,2.4.26,3.58.29,2,.9,3.94,1,5.92.18,3.71.17,7.44.11,11.15a4.94,4.94,0,0,0,1.95,4.23c.67.54,1.64.73,2.27,1.3,1.64,1.5,3,1.44,4.77.06.71-.55,2.64-.34,3.46.27a58.07,58.07,0,0,1,5.13,4.93,11.64,11.64,0,0,0,7.79,3.25c3.14.07,6.29-.79,9.44-1.26.15,0,.29-.2.45-.25,2.24-.71,4.46-1.5,6.74-2.06a33.24,33.24,0,0,1,4.26-.47c1.5-.16,3.06-.67,4.49-.43,2.7.44,5.29,1.46,8,2a71.9,71.9,0,0,0,9.13,1.17c3.76.22,7.55.13,11.32.14a2.66,2.66,0,0,0,1.17-.29,24.06,24.06,0,0,1,4.28-2.07c1.63-.41,3-1.11,3.42-2.61a5.79,5.79,0,0,0-1.66-6c-3-2.64-6.81-3.84-10.51-5.2-.89-.33-1.69-.9-2.56-1.3-1.28-.59-2.61-1.09-3.89-1.71-2.33-1.14-4.63-2.36-7-3.48-1.4-.66-2.87-1.18-4.3-1.78s-2.78-1.28-4.2-1.83-3-1-4.45-1.55a.66.66,0,0,1-.33-.38q-1.38-4.14-2.71-8.29c-.09-.28,0-.61-.12-.88-1.11-2.84-2.31-5.65-2.47-8.76,0-.56-.58-1.08-.77-1.65a24.59,24.59,0,0,1-1.52-5c-.31-2.73.35-5.69-.46-8.21s-.7-5.14-.78-7.73c-.1-2.87.05-5.76-.17-8.63-.13-1.77-1.06-3.5-1.1-5.27-.17-8-.25-15.95-.15-23.92,0-3.05,0-6.08.87-9.18,1.07-3.62.76-7.57,1.42-11.38.64-3.65,1.05-7.67-.8-11.38-.74-1.48-.66-3.45-1.6-4.71-1.75-2.36-2.73-5.15-4.85-7.34a62.44,62.44,0,0,1-6.5-8.67c-2.08-3.09-4.63-5.79-6.52-9.07-1.2-2.09-2.94-3.86-3.57-6.35a10.8,10.8,0,0,0-1.52-3c-1.07-1.71-2.31-3.34-2.2-5.53a2.59,2.59,0,0,0-.18-1.4c-1.81-3-.47-6.14-1-9.33a12.16,12.16,0,0,1,1.75,0c4.2.72,7.12-1.87,9.18-4.65,1.92-2.59,4.7-4.55,5.85-7.83.7-2,2.26-3.66,3.43-5.48,1.53-2.38,2.91-4.86,4.6-7.12a46.55,46.55,0,0,0,5.43-9.2,34.52,34.52,0,0,1,1.61-3.36c1.13-2,2.39-3.82,3.54-5.76s2.13-3.72,3.17-5.6,2.08-3.62,2.92-5.51c1-2.38,1.63-5,2.83-7.24a16.77,16.77,0,0,0,2.35-6.91,8.9,8.9,0,0,1,.24-1.23c.71-3.3,1.59-6.59,2.06-9.93.19-1.34-.66-2.79-.84-4.22-.52-4.25-1.17-8.5-1.35-12.78-.25-5.68-.26-11.39-.06-17.08a80.93,80.93,0,0,1,1.38-9.21,1.09,1.09,0,0,1,.05-.17c.73-2.16,1.53-4.29,2.17-6.47.57-2,.95-4,1.43-6a6.13,6.13,0,0,1,.3-.64c1.48-3.45,1.13-7,.45-10.54a21.91,21.91,0,0,0-2.09-5.45,33.12,33.12,0,0,0-3.06-5c-.86-1.14-.82-2.11.48-2.64,1.1-.46,2.23-.88,3.3-1.42A11.3,11.3,0,0,0,301.46,88a14.65,14.65,0,0,1,3-4.64c1.85-2,4.08-3.69,5.92-5.71,1.17-1.27,1.82-3,2.92-4.35a8.26,8.26,0,0,0,2-4.11,27.73,27.73,0,0,1,1.46-5.52,10.89,10.89,0,0,1,1.87-3c1.39-1.71,3-3.24,4.31-5,1.07-1.45,1.68-3.23,2.74-4.69a10.55,10.55,0,0,0,2.22-7.22c-.34-3.91.43-7.8-1.09-11.77-1.06-2.79-1.29-6-2.76-8.72a53.6,53.6,0,0,0-2.85-5.21,67,67,0,0,0-4.86-6.18,25.44,25.44,0,0,0-4.27-4,41,41,0,0,0-5.45-3c-2.34-1.18-4.71-2.32-7.09-3.41a12.07,12.07,0,0,0-3.4-1.22,42.59,42.59,0,0,0-14.78,1.19,1.59,1.59,0,0,0-.49.24c-2.57,1.65-5.22,3.21-7.71,5-3.52,2.52-6,6-8.36,9.59-1.05,1.62-1.9,3.36-2.91,5a13.21,13.21,0,0,0-2.13,5.52c-.31,2.65-.91,5.27-1.42,7.9-.05.24-.35.43-.49.67a36.35,36.35,0,0,0-3,5.38,5.19,5.19,0,0,1-7.76,2.7,2.59,2.59,0,0,0-2.17-.25,23.49,23.49,0,0,0-5.46,4.14A10,10,0,0,1,233,50.57c-2.65.15-5.26-.33-8,.89-2.49,1.12-5.5,1.21-8.3,1.5-5.44.58-11-1-16.36,1.24-1.68.7-3.5,1.08-5.25,1.62a1,1,0,0,0-.43.31c-1.88,2-4.66,2-7,3.17-1.38.68-3,.83-4.4,1.5-2.09,1-4.06,2.26-6.09,3.4a22.64,22.64,0,0,1-2.51,1.37c-1.47.59-3,1-4.49,1.59a10.37,10.37,0,0,0-2.34,1.42c-2.34,1.9-4.45,4.18-7,5.7a22.19,22.19,0,0,0-7.26,6.83c-.93,1.38-2,2.54-4.07,2.17-3.1-.58-6.23-1-9.34-1.47-.38-.06-.71-.49-1.09-.54-1.32-.18-3-.79-3.92-.26-2,1.08-3.63,2.8-5.41,4.25a4.16,4.16,0,0,1-.73.44,39.93,39.93,0,0,0-3.61,1.91C123,89.25,121,91.49,118,92.3a8,8,0,0,0-2.66,1.26,39.12,39.12,0,0,1-7.64,5,47.39,47.39,0,0,0-5.68,3.53c-.65.41-1.29.85-2,1.24a26.48,26.48,0,0,0-3.72,2.11c-2.06,1.69-4,3.53-5.89,5.4-3.26,3.21-6.43,6.51-9.7,9.72a32.59,32.59,0,0,1-3.56,3c-1.59,1.15-3.32,2.11-4.86,3.32s-3.19,2.85-4.81,4.26-3.61,2.87-5.24,4.48c-2,2-3.81,4.1-5.6,6.24-2.21,2.65-5.43,3.27-8.4,4.38-1.84.68-3.8,1.06-5.66,1.7s-3.54,1.37-5.3,2.07a12.57,12.57,0,0,1-3.12,1.23c-2.67.27-4.3,2.18-6.24,3.6a34.57,34.57,0,0,0-3.27,2.9c-1.48,1.41-3.25,2.67-3,5.11a3.26,3.26,0,0,1-.21,1c-.76,2.83-1.91,5.62-2.21,8.5-.65,6.41.7,12.88-1.17,19.32-1.1,3.81-1,8-1.34,12a23.08,23.08,0,0,1-.31,3.93c-.54,1.87-1.64,3.59-2.09,5.47-.69,2.84-.45,5.75-1.25,8.7-1.2,4.44-1.08,9.24-1.54,13.88a8.94,8.94,0,0,1-.25,1.23c-.33,1.36-.71,2.71-1,4.09-.5,2.47-.93,5-1.4,7.42,0,.06-.06.11-.08.16-.71,2.49-1.49,5-2.13,7.48-.59,2.32-1,4.68-1.56,7,0,.12-.06.23-.1.35-.74,2.42-1.55,4.83-2.21,7.28-.6,2.22-1,4.48-1.54,6.72a1.09,1.09,0,0,1-.15.33c-1.42,2.94-1.75,5.83.29,8.66.42.58.78,1.22,1.2,1.8,1.61,2.23,3.19,4.48,4.87,6.65.87,1.13,2,2,2.88,3.17,2.3,3.11,5.37,3.89,9,3.24a1.4,1.4,0,0,0,.79-.3,69.54,69.54,0,0,0,5-7c.69-1.23,1.13-1.82,2.06-1.44,1,1.52,1.84,2.74,2.68,3.93,1,1.4,2.29,2.65,2.94,4.18a34.89,34.89,0,0,1,2.41,7.76c.56,3.42.1,7,1.47,10.33a39.16,39.16,0,0,1,1.44,6.16c0,.05.06.1.07.16.76,2.37,1.69,4.7,2.23,7.11.67,2.93,1,5.93,1.49,8.9a2,2,0,0,0,.07.35l2.28,6.35c.45,1.24.56,2.91,1.43,3.62,1.86,1.49,1.33,3.7,2.11,5.47a7.2,7.2,0,0,1-.72,6.87,24.34,24.34,0,0,0-2.6,7.36c-.79,3.38-3,6.35-2.77,10a.9.9,0,0,1-.17.68c-1.69,1.48-1.22,3.8-2.17,5.6-.87,1.64-1.12,3.61-1.69,5.41-.33,1-.72,2.05-1.14,3.05-.71,1.68-1.6,3.29-2.15,5-.65,2.05-1,4.18-1.54,6.28a4.87,4.87,0,0,1-.31.83,48,48,0,0,0-2,4.74c-.63,2-1,4.16-1.48,6.25,0,.17-.09.34-.14.51-.71,2.43-1.58,4.83-2.08,7.3-.68,3.3-1.08,6.67-1.61,10a2.17,2.17,0,0,1-.07.35c-.74,2.94-1.64,5.85-2.19,8.83-.63,3.45-.95,7-1.42,10.45a4.39,4.39,0,0,1-.18.69,59.07,59.07,0,0,0-2,6.52c-.43,2.25-.71,4.49-1.24,6.75-.86,3.61-1.57,7.26-2.52,10.88a64.27,64.27,0,0,0-1.41,9.91,33.33,33.33,0,0,0,.09,5.56,22.41,22.41,0,0,1-1.62,9.86c-.67,1.7-1.56,3.32-2.29,5-.56,1.31-.92,2.71-1.55,4-1,2.08-2.17,4.1-2.32,6.49,0,.24,0,.57-.11.69-1.83,1.7-1,3.89-1.11,5.89a3.47,3.47,0,0,0,2,3.4,28.24,28.24,0,0,0,3,1.49c1.7.76,3.37,1.82,5.16,2.12a8.61,8.61,0,0,1,6.32,4.23,6.38,6.38,0,0,0,1.58,2.1c2.5,1.62,4.29,4,6.85,5.69A18.87,18.87,0,0,0,37,550.85a3.47,3.47,0,0,1,1.14.42c1.78,1.18,3.55,2.26,5.85,2.16a25,25,0,0,1,3.92.42,8.93,8.93,0,0,0,2.08.27c1.52-.16,3-.51,4.54-.73a14.79,14.79,0,0,0,3-.32c2.6-1,5-2.57,7.72-3.18a10,10,0,0,0,5-2.72c2-2,4.65-3.51,4.6-6.87,0-.31.37-.6.46-.93.16-.56.47-1.24.29-1.71-.89-2.27-2-4.41-4.32-5.61a58.36,58.36,0,0,0-7.4-3.65,18.56,18.56,0,0,1-6.56-4A50.2,50.2,0,0,1,51.9,518C50.55,516.2,49.42,514.25,47.83,511.82Z"/><path d="M47.83,511.82c1.59,2.43,2.72,4.38,4.07,6.16a50.2,50.2,0,0,0,5.38,6.4,18.56,18.56,0,0,0,6.56,4,58.36,58.36,0,0,1,7.4,3.65c2.28,1.2,3.43,3.34,4.32,5.61.18.47-.13,1.15-.29,1.71-.09.33-.46.62-.46.93,0,3.36-2.59,4.91-4.6,6.87a10,10,0,0,1-5,2.72c-2.68.61-5.12,2.19-7.72,3.18a14.79,14.79,0,0,1-3,.32c-1.52.22-3,.57-4.54.73a8.93,8.93,0,0,1-2.08-.27,25,25,0,0,0-3.92-.42c-2.3.1-4.07-1-5.85-2.16a3.47,3.47,0,0,0-1.14-.42,18.87,18.87,0,0,1-6.84-3.23c-2.56-1.65-4.35-4.07-6.85-5.69a6.38,6.38,0,0,1-1.58-2.1,8.61,8.61,0,0,0-6.32-4.23c-1.79-.3-3.46-1.36-5.16-2.12a28.24,28.24,0,0,1-3-1.49,3.47,3.47,0,0,1-2-3.4c.16-2-.72-4.19,1.11-5.89.13-.12.1-.45.11-.69.15-2.39,1.29-4.41,2.32-6.49.63-1.27,1-2.67,1.55-4,.73-1.69,1.62-3.31,2.29-5a22.41,22.41,0,0,0,1.62-9.86,33.33,33.33,0,0,1-.09-5.56,64.27,64.27,0,0,1,1.41-9.91c.95-3.62,1.66-7.27,2.52-10.88.53-2.26.81-4.5,1.24-6.75a59.07,59.07,0,0,1,2-6.52,4.39,4.39,0,0,0,.18-.69c.47-3.49.79-7,1.42-10.45.55-3,1.45-5.89,2.19-8.83a2.17,2.17,0,0,0,.07-.35c.53-3.34.93-6.71,1.61-10,.5-2.47,1.37-4.87,2.08-7.3,0-.17.1-.34.14-.51.49-2.09.85-4.21,1.48-6.25a48,48,0,0,1,2-4.74,4.87,4.87,0,0,0,.31-.83c.51-2.1.89-4.23,1.54-6.28.55-1.72,1.44-3.33,2.15-5,.42-1,.81-2,1.14-3.05.57-1.8.82-3.77,1.69-5.41,1-1.8.48-4.12,2.17-5.6a.9.9,0,0,0,.17-.68c-.28-3.66,2-6.63,2.77-10a24.34,24.34,0,0,1,2.6-7.36,7.2,7.2,0,0,0,.72-6.87c-.78-1.77-.25-4-2.11-5.47-.87-.71-1-2.38-1.43-3.62L42,341.38A2,2,0,0,1,42,341c-.48-3-.82-6-1.49-8.9-.54-2.41-1.47-4.74-2.23-7.11,0-.06-.06-.11-.07-.16a39.16,39.16,0,0,0-1.44-6.16c-1.37-3.37-.91-6.91-1.47-10.33a34.89,34.89,0,0,0-2.41-7.76c-.65-1.53-1.95-2.78-2.94-4.18-.84-1.19-1.65-2.41-2.68-3.93-.93-.38-1.37.21-2.06,1.44a69.54,69.54,0,0,1-5,7,1.4,1.4,0,0,1-.79.3c-3.62.65-6.69-.13-9-3.24-.84-1.14-2-2-2.88-3.17-1.68-2.17-3.26-4.42-4.87-6.65-.42-.58-.78-1.22-1.2-1.8-2-2.83-1.71-5.72-.29-8.66a1.09,1.09,0,0,0,.15-.33c.51-2.24.94-4.5,1.54-6.72.66-2.45,1.47-4.86,2.21-7.28,0-.12.07-.23.1-.35.51-2.34,1-4.7,1.56-7,.64-2.51,1.42-5,2.13-7.48,0-.05.07-.1.08-.16.47-2.47.9-5,1.4-7.42.28-1.38.66-2.73,1-4.09a8.94,8.94,0,0,0,.25-1.23c.46-4.64.34-9.44,1.54-13.88.8-2.95.56-5.86,1.25-8.7.45-1.88,1.55-3.6,2.09-5.47a23.08,23.08,0,0,0,.31-3.93c.38-4,.24-8.18,1.34-12,1.87-6.44.52-12.91,1.17-19.32.3-2.88,1.45-5.67,2.21-8.5a3.26,3.26,0,0,0,.21-1c-.23-2.44,1.54-3.7,3-5.11a34.57,34.57,0,0,1,3.27-2.9c1.94-1.42,3.57-3.33,6.24-3.6A12.57,12.57,0,0,0,37.33,150c1.76-.7,3.5-1.46,5.3-2.07s3.82-1,5.66-1.7c3-1.11,6.19-1.73,8.4-4.38,1.79-2.14,3.63-4.26,5.6-6.24,1.63-1.61,3.5-3,5.24-4.48s3.13-2.94,4.81-4.26,3.27-2.17,4.86-3.32a32.59,32.59,0,0,0,3.56-3c3.27-3.21,6.44-6.51,9.7-9.72,1.9-1.87,3.83-3.71,5.89-5.4a26.48,26.48,0,0,1,3.72-2.11c.66-.39,1.3-.83,2-1.24a47.39,47.39,0,0,1,5.68-3.53,39.12,39.12,0,0,0,7.64-5A8,8,0,0,1,118,92.3c3-.81,5-3,7.48-4.69a39.93,39.93,0,0,1,3.61-1.91,4.16,4.16,0,0,0,.73-.44c1.78-1.45,3.42-3.17,5.41-4.25,1-.53,2.6.08,3.92.26.38,0,.71.48,1.09.54,3.11.51,6.24.89,9.34,1.47,2,.37,3.14-.79,4.07-2.17a22.19,22.19,0,0,1,7.26-6.83c2.56-1.52,4.67-3.8,7-5.7a10.37,10.37,0,0,1,2.34-1.42c1.47-.6,3-1,4.49-1.59a22.64,22.64,0,0,0,2.51-1.37c2-1.14,4-2.4,6.09-3.4,1.39-.67,3-.82,4.4-1.5,2.3-1.12,5.08-1.17,7-3.17a1,1,0,0,1,.43-.31c1.75-.54,3.57-.92,5.25-1.62,5.34-2.22,10.92-.66,16.36-1.24,2.8-.29,5.81-.38,8.3-1.5,2.72-1.22,5.33-.74,8-.89a10,10,0,0,0,6.48-3.25A23.49,23.49,0,0,1,245,43.18a2.59,2.59,0,0,1,2.17.25,5.19,5.19,0,0,0,7.76-2.7,36.35,36.35,0,0,1,3-5.38c.14-.24.44-.43.49-.67.51-2.63,1.11-5.25,1.42-7.9a13.21,13.21,0,0,1,2.13-5.52c1-1.65,1.86-3.39,2.91-5,2.34-3.58,4.84-7.07,8.36-9.59,2.49-1.79,5.14-3.35,7.71-5a1.59,1.59,0,0,1,.49-.24A42.59,42.59,0,0,1,296.16.23a12.07,12.07,0,0,1,3.4,1.22c2.38,1.09,4.75,2.23,7.09,3.41a41,41,0,0,1,5.45,3,25.44,25.44,0,0,1,4.27,4,67,67,0,0,1,4.86,6.18,53.6,53.6,0,0,1,2.85,5.21c1.47,2.75,1.7,5.93,2.76,8.72,1.52,4,.75,7.86,1.09,11.77A10.55,10.55,0,0,1,325.71,51c-1.06,1.46-1.67,3.24-2.74,4.69-1.3,1.77-2.92,3.3-4.31,5a10.89,10.89,0,0,0-1.87,3,27.73,27.73,0,0,0-1.46,5.52,8.26,8.26,0,0,1-2,4.11c-1.1,1.35-1.75,3.08-2.92,4.35-1.84,2-4.07,3.69-5.92,5.71a14.65,14.65,0,0,0-3,4.64,11.3,11.3,0,0,1-5.67,6.61c-1.07.54-2.2,1-3.3,1.42-1.3.53-1.34,1.5-.48,2.64a33.12,33.12,0,0,1,3.06,5,21.91,21.91,0,0,1,2.09,5.45c.68,3.51,1,7.09-.45,10.54a6.13,6.13,0,0,0-.3.64c-.48,2-.86,4-1.43,6-.64,2.18-1.44,4.31-2.17,6.47a1.09,1.09,0,0,0-.05.17,80.93,80.93,0,0,0-1.38,9.21c-.2,5.69-.19,11.4.06,17.08.18,4.28.83,8.53,1.35,12.78.18,1.43,1,2.88.84,4.22-.47,3.34-1.35,6.63-2.06,9.93a8.9,8.9,0,0,0-.24,1.23,16.77,16.77,0,0,1-2.35,6.91c-1.2,2.27-1.79,4.86-2.83,7.24-.84,1.89-1.92,3.68-2.92,5.51s-2.08,3.75-3.17,5.6-2.41,3.81-3.54,5.76a34.52,34.52,0,0,0-1.61,3.36,46.55,46.55,0,0,1-5.43,9.2c-1.69,2.26-3.07,4.74-4.6,7.12-1.17,1.82-2.73,3.5-3.43,5.48-1.15,3.28-3.93,5.24-5.85,7.83-2.06,2.78-5,5.37-9.18,4.65a12.16,12.16,0,0,0-1.75,0c.52,3.19-.82,6.36,1,9.33a2.59,2.59,0,0,1,.18,1.4c-.11,2.19,1.13,3.82,2.2,5.53a10.8,10.8,0,0,1,1.52,3c.63,2.49,2.37,4.26,3.57,6.35,1.89,3.28,4.44,6,6.52,9.07a62.44,62.44,0,0,0,6.5,8.67c2.12,2.19,3.1,5,4.85,7.34.94,1.26.86,3.23,1.6,4.71,1.85,3.71,1.44,7.73.8,11.38-.66,3.81-.35,7.76-1.42,11.38-.91,3.1-.83,6.13-.87,9.18-.1,8,0,15.95.15,23.92,0,1.77,1,3.5,1.1,5.27.22,2.87.07,5.76.17,8.63.08,2.59-.07,5.1.78,7.73s.15,5.48.46,8.21a24.59,24.59,0,0,0,1.52,5c.19.57.74,1.09.77,1.65.16,3.11,1.36,5.92,2.47,8.76.1.27,0,.6.12.88q1.34,4.16,2.71,8.29a.66.66,0,0,0,.33.38c1.48.53,3,1,4.45,1.55s2.79,1.23,4.2,1.83,2.9,1.12,4.3,1.78c2.35,1.12,4.65,2.34,7,3.48,1.28.62,2.61,1.12,3.89,1.71.87.4,1.67,1,2.56,1.3,3.7,1.36,7.53,2.56,10.51,5.2a5.79,5.79,0,0,1,1.66,6c-.45,1.5-1.79,2.2-3.42,2.61a24.06,24.06,0,0,0-4.28,2.07,2.66,2.66,0,0,1-1.17.29c-3.77,0-7.56.08-11.32-.14a71.9,71.9,0,0,1-9.13-1.17c-2.69-.5-5.28-1.52-8-2-1.43-.24-3,.27-4.49.43a33.24,33.24,0,0,0-4.26.47c-2.28.56-4.5,1.35-6.74,2.06-.16.05-.3.23-.45.25-3.15.47-6.3,1.33-9.44,1.26a11.64,11.64,0,0,1-7.79-3.25,58.07,58.07,0,0,0-5.13-4.93c-.82-.61-2.75-.82-3.46-.27-1.79,1.38-3.13,1.44-4.77-.06-.63-.57-1.6-.76-2.27-1.3a4.94,4.94,0,0,1-1.95-4.23c.06-3.71.07-7.44-.11-11.15-.1-2-.71-3.94-1-5.92-.17-1.18-.14-2.39-.26-3.58-.29-3,.44-6-.92-8.94-.65-1.42-.2-3.31-.37-5-.42-3.94-.46-8-1.52-11.76-.74-2.62-.33-5.4-1.32-7.73s-.52-4.36-1.05-6.46-1.44-4.11-2.17-6.17a2.91,2.91,0,0,1-.12-.51c-.45-2.39-.77-4.82-1.4-7.16a49.37,49.37,0,0,0-2-5.05c-.58-1.49-1-3.05-1.67-4.51s-1.45-2.69-2.18-4c-.53-1-1-2-1.59-3-.9-1.5-1.83-3-2.83-4.42-.53-.74-1.4-1.27-1.86-2a33.88,33.88,0,0,1-1.71-3.66,1.8,1.8,0,0,0-.2-.47c-2.12-2.45-4.17-5-6.42-7.32-1.51-1.58-3.32-2.88-4.95-4.35a11.45,11.45,0,0,1-1-1.36,10,10,0,0,0-2-2.07c-.27-.18-1.25.37-1.64.81-1.19,1.39-2.3,2.86-3.37,4.35a15.92,15.92,0,0,0-1.69,2.83,37.22,37.22,0,0,0-3,9.52c-.47,3-.52,5.95-1,8.87a30,30,0,0,1-2,5.28,2.87,2.87,0,0,0-.25.67,33.52,33.52,0,0,1-1.13,5.18,39.26,39.26,0,0,0-1.72,10.86,38,38,0,0,1-1.47,11c-.89,2.85-.62,5.61-.92,8.4a37.48,37.48,0,0,1-2.24,9.33,2.38,2.38,0,0,0-.11.53c-.31,2.86-.27,5.71-1.15,8.57-1,3.1-1.08,6.47-1.65,9.7a49.86,49.86,0,0,1-1.24,5.41,38.22,38.22,0,0,1-2.63,7.61c-.77,1.41-.77,2.75-1.14,4.12-.62,2.25-1.45,4.44-2.19,6.65a1.93,1.93,0,0,0-.11.53,39,39,0,0,1-1.2,10.53c-.38,1.47,0,3.14-.28,4.65-.51,2.53-1.37,5-2,7.5-.3,1.27-.29,2.61-.47,3.91-.42,3-.42,6.1-1.42,8.85a36.74,36.74,0,0,0-2.4,12.5c0,3.28-2.77,5.26-6,4.59-.93-.2-1.9-.18-2.85-.31-1.44-.2-2.87-.44-4.64-.71.08.55.17,1.29.3,2,0,.15.31.37.28.41-1.22,1.62.52,3,.31,4.56-.34,2.62,1,4.75,2.1,7a11.66,11.66,0,0,1,.49,2.42c.23,1.18.49,2.37.73,3.55a1.8,1.8,0,0,1,.05.51c-.23,2.58-.58,5.15-.67,7.73a4.46,4.46,0,0,1-2.83,4.18c-.66.32-1.41,1.11-1.9,1a5.57,5.57,0,0,1-2.8-1.73c-1.79-2.42-2.31-2.6-4-.3a2,2,0,0,1-2.94.51c-1.38-.89-2.16-1-3.77,0-1.33.79-3.71,0-5.57-.38-.64-.12-1.09-1.07-1.72-1.49-.19-.13-.85.11-1.06.37-1,1.27-2.12,2.31-3.92,1.86a2.72,2.72,0,0,1-1.17-.6c-1-1-2.62-1.22-3.46-.14a2.55,2.55,0,0,1-3.34.64A3.76,3.76,0,0,1,105,521.6c-.17-3.12-1.32-5.88-2.44-8.71-.76-1.93-1-4-1.64-6a43.85,43.85,0,0,0-1.6-4.55c-1-2.46-1.29-4.79.13-7.27.76-1.31.92-2.95,1.53-4.36s1.67-2.82,2.19-4.34c.4-1.18,1-2.53-.22-3.78-2.28-2.4-2.56-4.95-1-8a2.07,2.07,0,0,0,.26-.66c.48-3.32.85-6.65,1.45-9.95.58-3.15,1.41-6.25,2.1-9.39a16.68,16.68,0,0,0,.21-2.14,16.1,16.1,0,0,1,1-4.79c1-2.57.34-3.95-2.25-3.83-1.85.08-3.76-.24-5.56.08a51,51,0,0,0-6,1.87c-1.85.56-3.7,1.13-5.58,1.56a2.46,2.46,0,0,1-1.59-.49c-1.28-.79-2.13-.44-2.35,1.07-.05.35,0,.72-.08,1.07-.48,3.72-.82,7.48-1.51,11.16-.46,2.42-1.5,4.73-2.15,7.12-.61,2.21-1,4.48-1.59,6.69s-1.4,4.25-2.11,6.37c-.11.34-.22.68-.3,1-.37,1.71-.77,3.41-1.1,5.12-.53,2.8-.9,5.63-1.57,8.39-.5,2.05-1.35,4-2,6-.06.17-.12.34-.17.51-.5,1.89-.72,3.92-1.6,5.61-.7,1.36-2.17,2.34-3.35,3.43A7.23,7.23,0,0,1,61.36,512c-1.6.11-3.16.85-4.74.89-1.33,0-2.66-.65-4-.83S49.72,511.91,47.83,511.82ZM125.66,259.1l-.58-.25a12,12,0,0,0,.25,1.91c.69,2.21,1.45,4.39,2.15,6.6.58,1.82,1.1,3.67,1.7,5.5a22.44,22.44,0,0,0,1.22,3.2c.58,1.15,1.68,2.13,1.94,3.32a55.78,55.78,0,0,1,1.51,9.4c.35,6.78-.61,13.58,1,20.37,1,4.47-.42,9.25,1.33,13.8.95,2.46,1.12,5.23,1.65,7.86a4.16,4.16,0,0,0,.24.47,58.86,58.86,0,0,1,2,5.76c.32,1.25,0,2.64.18,3.94.4,3-1,5.61-1.64,8.37a3.5,3.5,0,0,1-.35.62c-1.06,2.09-2.09,4.19-3.18,6.25-1,1.81-1.67,3.91-3.07,5.28-1.71,1.68-2.32,3.79-3.16,5.77s-1,4.16-1.43,6.26a1.33,1.33,0,0,1-.21.67c-2.1,2.33-2.33,5.48-3.35,8.24s-1,5.74-1.43,8.64c0,.23,0,.58-.09.69-1.47,1.23-.92,3-1.15,4.49q-.66,4.59-1.33,9.17a2.26,2.26,0,0,1-.19.49c-.71,2.07-1.53,4.1-2.09,6.21-.65,2.41-1,4.89-1.6,7.32-.72,3.17-1.57,6.32-2.24,9.5-.57,2.67-1,5.37-1.44,8.06a1,1,0,0,1,0,.18,48.72,48.72,0,0,0-2.16,6.18c-.51,2.45-.28,5-1.31,7.42-.81,1.93-.17,4.22-1.19,6.35-.92,1.94-1,4.3-1.33,6.5-.57,4.15-1,8.32-1.54,12.47a4.56,4.56,0,0,1-.75,1.67c-.69,1.11-.22,2,1,2.49s2.51,1.26,3.79,1.83a33.49,33.49,0,0,0,4.66,1.9c1.53.43,3.32-.32,4.7,1,.22.21.82.1,1.23,0,1.67-.23,3.32-.53,5-.74a3.79,3.79,0,0,1,1.4.19c2.72.69,5.43,1.48,8.18,2.09,2.46.54,5,.86,7.43,1.35a2.41,2.41,0,0,1,1.16.74,4.68,4.68,0,0,0,4,1.64,16.37,16.37,0,0,1,2.52.08c2.45.13,3.72-.81,3.53-3.24-.28-3.46,1.28-6.56,1.52-9.89a1.51,1.51,0,0,1,.06-.36c.71-2.43,1.56-4.83,2.1-7.3s.06-5.09,1.22-7.72.85-5.76,1.28-8.67,1-5.78,1.45-8.69c.2-1.36-.09-2.8.21-4.12.59-2.52,1.61-4.95,2.14-7.48a31.94,31.94,0,0,1,1.23-5.43,37.57,37.57,0,0,0,2.43-8.86,51.29,51.29,0,0,1,2.59-11.08c.72-2,.32-4.2,1.19-6.35.81-2,.36-4.39,1.19-6.66s.41-4.91,1.38-7.4c.87-2.26.63-4.92,1.15-7.43,1-4.93,1.1-10.06,1.54-15.11.1-1.19.05-2.4.13-3.59a5.1,5.1,0,0,1,.32-1.55c.67-1.68,1.47-3.3,2-5a32,32,0,0,1,1-3.33c1-2.18,1.24-4.76,1.57-7.2.43-3.24-.4-6.58,1.15-9.77.85-1.76,1-3.83,1.53-5.76a1.56,1.56,0,0,1,.22-.47c1.17-1.54,2.34-3.09,3.53-4.62a14.23,14.23,0,0,0,1.09-1.28,45.58,45.58,0,0,1,2.91-5.17c2.09-2.71,4.47-5.19,6.68-7.8s4.7-5.43,6.86-8.28c1.87-2.45,3.41-5.14,5.21-7.64s3.49-4.68,5.38-6.88c.72-.83,1.67-1.91,3.2-.89,0,.56.22,1.64,0,1.76-1.67.79-2.14,2.49-3.15,3.77s-2,2.16-2.87,3.35c-1.81,2.49-3.53,5-5.27,7.59-1.33,2-2.53,4.05-4,5.93-2.29,3-4.8,5.75-7.06,8.73a2.6,2.6,0,0,0,.28,2.34c.95,1.29,2.26,2.32,3.31,3.56a48.48,48.48,0,0,0,3,3.91c1.56,1.51,3.45,2.7,5.08,4.15a19.08,19.08,0,0,1,3.1,3.44c1.12,1.66,1.9,3.55,3,5.24,1.47,2.3,3.25,4.41,4.59,6.78a63.93,63.93,0,0,1,3.66,7.87,46.68,46.68,0,0,1,2.55,7.82,68.43,68.43,0,0,0,2.44,8.24c1,3.06,1.1,6.45,1.56,9.7.1.7-.15,1.64.22,2.1,1.66,2,1.15,4.69,2.08,7,.8,2,.26,4.32,1.17,6.55,1,2.42.79,5.26,1.28,7.91.87,4.79.12,9.73,1.24,14.66s-.22,10.4,1.33,15.56c.63,2.07.21,4.38,1.35,6.5.72,1.33,1.39,1.41,2.49,1,.7-.27,1.36-.65,2-1a23.31,23.31,0,0,0,2.87-1.44c1.71-1.13,3.31-2.43,5-3.58s3.59-2.43,5.47-3.5a39.69,39.69,0,0,1,5.42-2.61c1.7-.65,3.55-.91,5.3-1.44,1.33-.41,2.62-1,3.92-1.48,1.87-.73,3.71-1.58,5.62-2.21,1.55-.51,2.73-1.75,2.35-3.21a36.58,36.58,0,0,0-1.69-4.47,29,29,0,0,1-2-4.49c-.41-1.8-.35-3.62-1.07-5.46a29.25,29.25,0,0,1-1.47-7.59c-.48-4.76-.16-9.53-1.2-14.3-.93-4.24-.15-8.69-1.21-13.08s-1.13-9.05-1.25-13.61c-.07-2.71.71-5.44.89-8.17.37-5.68-.67-11.42,1.12-17,.79-2.5.7-5.21,1.17-7.81a22,22,0,0,0-.48-11.16,27,27,0,0,0-3.09-6.77c-1.37-2-2.45-4.17-3.74-6.21a34.77,34.77,0,0,0-2.23-2.81c-.89-1.12-1.84-2.21-2.67-3.38-1.81-2.53-3.49-5.15-5.35-7.65-1.47-2-3.13-3.78-4.68-5.69a12.51,12.51,0,0,1-1.2-1.77c-.82-1.43-1.65-2.87-2.37-4.35a11.2,11.2,0,0,1-1.48-3.85c-.09-1.64-1-2.44-2.28-3.53-.11.92-.2,1.54-.26,2.17a7.37,7.37,0,0,1-.26,2.66,18.9,18.9,0,0,0-2.29,10.16,9.33,9.33,0,0,1-.14,1.52c-2.76.24-2.76.23-3.78-1.87-.11-.24-.37-.4-.56-.59-1-1-2.4-1.84-3-3.05-2-4.41-6.17-6.55-9.61-9.41A68.3,68.3,0,0,0,214,264a13.7,13.7,0,0,0-2.83-1.6c-2-.66-3.62.53-4.23,2.69-.42,1.48-1,2.9-1.58,4.34-.73,1.89-1.54,3.76-2.19,5.68s-1,3.78-1.63,5.63-1.48,3.62-2.09,5.48-1,3.76-1.54,5.64c-.06.21-.31.35-.43.54-1.47,2.29-2.91,4.59-4.38,6.88a56.64,56.64,0,0,1-4.32,6.52,4.68,4.68,0,0,1-3.65,1.42c-2.08-.33-3.44-2.17-4.5-3.88-1.57-2.51-2.73-5.28-4.25-7.82a6.73,6.73,0,0,1,.28-7.82c.33-.39,1-.63,1.1-1.05,1.12-3.34,4-5.36,6-8,1.07-1.39,2.26-2.7,3.23-4.16a36,36,0,0,0,2.67-4.72c.83-1.79,1.87-3.65,2-5.54s-.75-3.69-1-4.92c-2.79-1.46-5-2.6-7.26-3.83a6.18,6.18,0,0,1-1.74-1.52c-.92-1.16-1.73-2.39-2.56-3.61a30.63,30.63,0,0,0-1.92-2.92,8.79,8.79,0,0,0-4-3.13c-1.77-.59-3.22-2.1-4.81-3.21-2.22-1.55-4.48-3-6.63-4.68a4.93,4.93,0,0,0-5.32.1c-1.55,1.19-3.3,2.12-5,3.17s-3.42,2.17-5.11,3.3c-1.4.93-2.73,2-4.17,2.88-1.73,1.05-3.76,1.71-5.28,3-2.42,2.05-4.49,4.53-6.8,6.73C128.68,256.83,127.13,257.92,125.66,259.1ZM62.28,183.17c1.37-1.31,2.46-2.38,3.58-3.41s3.24-1.19,4.12-.3c1,1.07.58,2.08,0,3.36-.67,1.51-.64,3.28-1.64,4.79a26.69,26.69,0,0,0-1.59,3.84c-.39.88-.88,1.72-1.33,2.57-1.16,2.18-2.37,4.33-3.48,6.54-.62,1.23-1.1,2.53-1.62,3.82a51.23,51.23,0,0,0-2.07,5.26,5.22,5.22,0,0,0,1.06,4.59c1.3,1.86,1.94,4.18,3.07,6.18.89,1.58,2.4,2.85,3.1,4.48,1.32,3.08,3.93,5,6.06,7.28,1.82,2,3.76,3.83,5.65,5.73a53.56,53.56,0,0,0,4.13,4C84,244,86.72,246,89.5,248c3.25,2.26,6.23,5,10.39,5.71A28,28,0,0,1,104,255a39.92,39.92,0,0,0,6.25,2c2.89.45,5.86.39,8.79.6a10.27,10.27,0,0,0,6.69-2.11c2.26-1.58,4.16-3.65,6.28-5.42,2.66-2.21,5.36-4.38,8.11-6.46,1.37-1,2.93-1.79,4.38-2.71q3.66-2.33,7.29-4.71a23.58,23.58,0,0,0,2.28-1.69,39.23,39.23,0,0,0,3.58-3.23c1.22-1.33,2.12-2.94,3.38-4.2s2.82-1.89,3.91-3.12c2.34-2.63,4.44-5.46,6.66-8.19,1.13-1.4,2.44-2.68,3.45-4.16a6.71,6.71,0,0,0,1.16-3.18c.07-.95-.57-1.94-.81-2.93-.15-.63-.06-1.32-.22-2-.7-2.84-1.83-5.64-2.11-8.51-.36-3.61-1-6.89-3.81-9.42-2.51-2.22-4.85-4.66-8.7-4.06a5.23,5.23,0,0,1-2.62-.33c-1.73-.69-3.38-1.57-5.26-2.47,0-.2,0-.61,0-1-.36-7.23,1-14.49-1-21.7-.95-3.57-1-7.38-1.42-11.09-.29-2.43,0-4.85-1-7.31a27.59,27.59,0,0,1-1.43-7.93c-.48-5.39-.1-10.79-1.05-16.2-.56-3.17.33-6.61.72-9.91.45-3.8-.38-7.69,1.19-11.44.75-1.78.7-3.9,1.05-6.09a15.42,15.42,0,0,0-1.85-.25c-1.3,0-2.6.18-3.69-.88-.32-.31-1-.2-1.55-.34-1.29-.32-2.57-.68-3.86-1-.28-.07-.65-.19-.85-.07-1.84,1.12-3.65,2.3-5.46,3.46-.69.44-1.34.93-2.05,1.33-1.33.74-2.72,1.38-4,2.15-1.61.95-3.15,2-4.72,3l-3.26,2.1c-1.42.91-2.8,1.88-4.24,2.73-2,1.18-4,2.3-6.08,3.4s-4.05,2.09-6,3.19a27.34,27.34,0,0,0-4.65,2.86c-2,1.69-3.7,3.68-5.53,5.53-2.89,2.91-5.74,5.87-8.69,8.72a53.26,53.26,0,0,1-4.81,4c-1.6,1.22-3.39,2.21-5,3.46s-2.69,3-4.34,3.91a21.93,21.93,0,0,0-4.86,4.18c-2.26,2.35-4.67,4.54-7,6.85-1.59,1.58-3,3.47-5.56,3.38a1.35,1.35,0,0,0-.5.17c-1.86.72-3.69,1.54-5.58,2.13s-3.81.92-5.71,1.39a2.6,2.6,0,0,0-.45.26,65.3,65.3,0,0,1-7.22,3.34A9.6,9.6,0,0,0,28,158.44c-1.1,1.27-1.63,3.07-2.82,4.22-2.52,2.43-2.17,5.85-3.34,8.73-.55,1.35-.15,3.08-.19,4.64-.13,5.14.5,10.21-.95,15.4-1.28,4.59-1.07,9.6-1.53,14.43a12.68,12.68,0,0,1-.25,1.95c-.7,2.73-1.56,5.42-2.12,8.18-.37,1.8.26,4-.56,5.48-2,3.7.34,6.74.8,10.06,0,.06.07.1.09.15a49.9,49.9,0,0,1,1.95,5.18c.43,1.61.47,3.26,1,4.93.94,3,1,6.25,1.54,9.38.07.45.7,1.14,1.09,1.15,3.53.1,7.06,0,10.58.1.78,0,1.55.56,2.33.59a24.33,24.33,0,0,0,3.71-.24c.38,0,.72-.42,1.1-.46,3.88-.42,7.76-.85,11.65-1.17a46.14,46.14,0,0,1,5.39-.08c1.52.05,2.32-.49,2-2.07-.3-1.35-.82-2.66-1.15-4-.54-2.26-1-4.53-1.51-6.8-.05-.22-.22-.42-.29-.65a45.71,45.71,0,0,1-1.86-6.47c-.41-2.84.23-5.94-.65-8.56-1.36-4,1.18-7.48.7-11.25,0-.14.16-.3.23-.46.7-1.79,1.83-3.55,2-5.39.25-2.8,2.1-4.78,3-7.21.68-1.77,1.43-4.4.49-5.81a41.74,41.74,0,0,0-3.4-4.71c-2.24-2.53-4.63-4.93-7-7.37-1.38-1.43-2.78-2.82-4.31-4.38a3.19,3.19,0,0,1,4.3.49c2.45,2.26,5.2,4.19,7.12,7a31.84,31.84,0,0,0,3,3.28l.55-.33c-.16-.64-.29-1.3-.49-1.93s-.5-1.14-.65-1.74c-.56-2.2-1-4.42-1.64-6.6a5.75,5.75,0,0,0-1.29-2.83c-1.08-.9-.94-1.75-.7-3.05.81.16,1.94.06,2.17.47,1,1.81,2.45,3.76,2.47,5.68C60.57,178.85,62,180.68,62.28,183.17Zm-.75,59.17-.58.18a8.33,8.33,0,0,0,.2,1.95c1.23,3.49,1.55,6.92-.21,10.36a2.13,2.13,0,0,0,0,1.86,31.51,31.51,0,0,0,4.43,4.14A23.6,23.6,0,0,0,70,263.34c2.61,1.11,3.32,3.19,3.27,5.75s0,5.28-.24,7.91A16.6,16.6,0,0,1,72,281.78a3.47,3.47,0,0,1-2.21,1.87c-2.17.32-3,1.84-3.77,3.47-1,2.27-3.29,4.5-5.77,4.18a30.39,30.39,0,0,0-5.56,0,4.85,4.85,0,0,0-1.63.71,13.42,13.42,0,0,1-3.41,1.62,17.24,17.24,0,0,1-5.55.07,4.94,4.94,0,0,1-3.32-1.9,58.92,58.92,0,0,1-3.73-8.9,71.09,71.09,0,0,1-1.64-7.14c-.42-1.81-.78-3.64-1.32-5.41a2.16,2.16,0,0,0-2.35-1.77,7.59,7.59,0,0,1-1.78-.13c-2-.36-2.9.77-3.1,2.69a43.32,43.32,0,0,0-.39,5.2,26.16,26.16,0,0,0,.5,5.88,30.91,30.91,0,0,0,2.31,5.89c.9,1.92,1.64,4.12,3.11,5.51,2.16,2.05,3.19,4.7,4.17,7.17,1.12,2.81,1.1,6.08,1.47,9.17.19,1.6-.1,3.28.24,4.83.56,2.51,1.54,4.92,2.19,7.41s1,4.81,1.55,7.22c0,.23.12.46.19.68.71,2.26,1.87,4.49,2,6.79a27.6,27.6,0,0,0,2.47,9.68c1.1,2.4,1.65,5.08,2.92,7.37,1.47,2.67,1.32,5.33,1,8.1a3.68,3.68,0,0,1-.37,1.15,27.09,27.09,0,0,0-1.92,3.65c-.64,1.91-1,3.92-1.45,5.89-.1.4-.25.79-.39,1.19-.7,2-1.44,4.08-2.09,6.14-.57,1.82-1,3.68-1.56,5.5-.36,1.21-.75,2.41-1.2,3.58-.68,1.77-1.51,3.5-2.14,5.29s-1.13,3.77-1.71,5.65c-.4,1.28-.81,2.56-1.28,3.81-.66,1.76-1.49,3.47-2,5.25-.63,2-1.06,4-1.57,6.07-.05.17-.11.33-.16.5-.75,2.4-1.65,4.76-2.2,7.2-.63,2.79-.95,5.65-1.42,8.47a3.31,3.31,0,0,1-.25.66,12.58,12.58,0,0,0-.82,2.32c-.2,1.29,0,2.66-.33,3.93-.63,2.75-1.59,5.42-2.16,8.18-.63,3-1,6.06-1.45,9.09,0,.12,0,.23-.08.35-.75,3.36-1.56,6.72-2.22,10.1-.6,3.11-1,6.26-1.55,9.39a.85.85,0,0,1,0,.17A58.11,58.11,0,0,0,18,483c-.64,4-.88,8.1-1.27,12.16,0,.47-.11,1.15.15,1.39a38.32,38.32,0,0,0,5.75,4.94,42.64,42.64,0,0,0,8.26,3.8,37.09,37.09,0,0,0,7.22,1.44,49.33,49.33,0,0,0,5,.17,4.17,4.17,0,0,1,1,.16c2.46.73,4.88,1.83,7.39,2.13a85.56,85.56,0,0,0,9.88.14A3.85,3.85,0,0,0,63.2,509c3-1.7,4.94-4.09,5.1-7.67a8.54,8.54,0,0,1,.28-1.59c.71-2.74,1.51-5.45,2.13-8.21s1-5.44,1.54-8.16a2.3,2.3,0,0,1,.22-.48c.69-1.6,1.48-3.17,2-4.82.62-1.85,1-3.77,1.55-5.64,1.1-3.72,2.47-7.37,3.31-11.14.78-3.47,1-7.08,1.49-10.62.18-1.35.41-2.7.69-4a18.49,18.49,0,0,1,.61-1.77,52.26,52.26,0,0,1,1.64-5.33c1-2.23,2.12-4.38,2.17-6.9a6.73,6.73,0,0,1,.22-1.24c.72-3.22,1.45-6.44,2.16-9.67.55-2.51,1-5,1.63-7.52.59-2.21,1.67-4.32,2.11-6.55.48-2.39.65-4.85,1-7.26a110.92,110.92,0,0,1,2.59-12.76,81.61,81.61,0,0,0,1.53-9.28l1.44-9c0-.18.11-.35.15-.52.34-1.52.77-3,1-4.57a31,31,0,0,1,.9-5.52c1-3,1.12-6.36,1.61-9.56.31-2,.59-3.93.93-5.88.68-3.9-.19-7.67-1-11.44,0-.14-.2-.27-.33-.38-3.1-2.62-2.64-6.17-1.72-9.31a25.82,25.82,0,0,0,.73-5.5c0-.39-.07-1-.33-1.16-2.24-1.37-2.87-3.93-4.37-5.84a12.27,12.27,0,0,1-1.41-3.07c-.63-1.6-.86-3.49-1.86-4.79-2.32-3-2-6.71-3.08-10-.52-1.6-.07-3.52-.57-5.14-1-3.16-2-6.28-2.07-9.63,0-2-.06-4,0-5.93,0-1.6.11-3.15-1.49-4.11a11.87,11.87,0,0,1-2-1.21c-1.86-1.75-3.68-3.55-5.45-5.38q-3.94-4.1-7.8-8.26C67.5,248.9,64.52,245.61,61.53,242.34ZM205.58,191.8a4,4,0,0,0,.14-.93c-.51-2.47.64-4.62,1.41-6.81a2.4,2.4,0,0,1,1.58-1.13c3.15-.74,4.93,1.76,6.75,3.44s2.85,4,4.15,6.17c.57.94.75,2.17,1.45,3,1.61,1.82,2,4.56,4.69,5.63,1.09.44,1.67.64,2.44-.32,1.79-2.2,3.64-4.35,5.46-6.53,1.55-1.86,3.22-3.63,4.59-5.62,1.09-1.56,1.73-3.43,2.69-5.09,1.12-2,2.42-3.8,3.57-5.74,1-1.74,2-3.53,2.95-5.3.89-1.6,1.81-3.19,2.67-4.81.76-1.45,1.52-2.91,2.14-4.42.55-1.33.86-2.77,1.37-4.12a22.82,22.82,0,0,1,1.37-2.7c.72-1.29,1.57-2.52,2.2-3.86a42.35,42.35,0,0,0,1.6-4.15c1.15-3.22,2.41-6.41,3.37-9.69.72-2.43,1-5,1.54-7.47a7.53,7.53,0,0,1,.41-1c.63-1.59,1.78-3.2,1.76-4.79-.07-5.17,1-10.35-.76-15.52-1-2.83.06-6.08-1.35-9-.82-1.74-.35-3.84-1.11-5.87-1.14-3-1.05-6.52-1.59-9.8-.41-2.47-1-4.91-1.5-7.37a5.92,5.92,0,0,0-.28-.64c-.65-1.76-1.41-3.49-1.91-5.29-.63-2.26-1.05-4.58-1.57-6.87a1.54,1.54,0,0,0-.15-.32c-.71-1.61-1.48-3.21-2.11-4.85s-1-3.26-1.58-4.85c-.4-1.06-.95-2.07-1.45-3.09a36.56,36.56,0,0,1-2.1-4.2c-.79-2.25-2.59-2.87-4.38-1.3-.47.41-.79,1-1.27,1.34-1.58,1.23-3.15,2.47-4.82,3.57-1,.65-2.15,1.54-3.2,1.49-4.37-.23-8.55.79-12.8,1.42-3.07.45-6.15.88-9.24,1.16a26.59,26.59,0,0,1-5.57,0c-2.95-.36-5.52,1-8.26,1.57a13.41,13.41,0,0,0-3.34,1.43c-1.22.61-2.39,1.82-3.61,1.87-3,.13-4.91,2.41-7.68,3-2.62.6-5,2.25-7.47,3.48-.7.35-1.29.91-2,1.22a27,27,0,0,0-4.07,1.62c-2.29,1.47-4.41,3.23-6.62,4.83a28.31,28.31,0,0,0-2.4,1.57c-1.62,1.48-3.17,3.05-4.7,4.63a13.53,13.53,0,0,0-2.7,3.14,33.29,33.29,0,0,0-2.5,6.78,50.43,50.43,0,0,0-1.4,9c-.25,5.21-.3,10.44-.14,15.65s-.71,10.37,1,15.52c.75,2.28.5,4.84,1.19,7.31,1,3.48,1,7.23,1.38,10.87.19,1.85-.19,3.93.56,5.49a11.49,11.49,0,0,1,.89,4.79c.1,2.33,0,4.68.13,7,.15,3.47-.86,7,.82,10.36a2.3,2.3,0,0,0,1.39,1.16c2.46.5,4.94.84,7.41,1.26a8.41,8.41,0,0,1,.82.35c2.44.67,4.87,1.82,7.32,1.89,4.44.13,8.9.83,13.36-.82,2.59-.95,5.1-1.25,6.81-4,1.59-2.56,1-4.94.64-7.44-.16-1.11-.74-2.15-.9-3.26-.21-1.42,0-2.9-.3-4.29-.67-3.28-1.82-6.49-2.22-9.8-.66-5.59.34-11.24-.92-16.89-1-4.71-1-9.65-1.52-14.48-.56-5.61.38-11.24-.93-16.9-.89-3.83-.36-8-.43-12,0-1.06.41-2,1.62-1.75.48.11,1,1.16,1,1.83.12,1.42-.1,2.87-.07,4.3A1.32,1.32,0,0,0,191.47,97a53.46,53.46,0,0,0,4-4.25c1.86-2.2,3.33-4.87,5.54-6.63a40.85,40.85,0,0,1,8.94-5.15c2-.89,4.32-1,6.52-1.36,1.47-.23,3.07,0,4.45-.43a5.85,5.85,0,0,1,3.24,0,27,27,0,0,1,8.24,3c1.61.86,3.2,1.78,4.77,2.71a9.26,9.26,0,0,1,1.14,1,27.67,27.67,0,0,1,3.79,3.15,74.52,74.52,0,0,1,4.58,6.27c1.15,1.68,2.21,3.43,3.24,5.19a30.74,30.74,0,0,1,1.32,2.78,28.54,28.54,0,0,1,2.13,4.82c.6,2.52.71,5.16,1.18,7.71.84,4.54-1.12,8.79-1.25,13.22a1.27,1.27,0,0,1-.06.18c-1.15,2.79-2.28,5.6-3.47,8.38-.31.74-.81,1.39-1.19,2.1a36.88,36.88,0,0,1-2.93,5.49,51.58,51.58,0,0,1-6.36,6.85,20.4,20.4,0,0,1-6.47,4.27c-1.84.65-3,2-4.48,2.85-1.17.7-2.17,1.86-3.42,2.2-3.15.86-5,3-6.57,5.6a73.34,73.34,0,0,1-3.94,6.58c-1.66,2.19-3.08,3.16-5.87.67a35.28,35.28,0,0,1-3.2-3.65L204,171.61c-1.59,1.41-3.54,1.24-5.44,1.2-1.2,0-1.66.41-1.73,1.66,0,.77-.71,1.48-.92,2.27-.18.64-.37,1.79-.09,2,1.32.83.89,2.08,1.09,3.19a5.81,5.81,0,0,0,.5,1.87c1,1.73,2,3.4,3.05,5.11A5.45,5.45,0,0,0,205.58,191.8Zm24,11.86c2.34,2,4.59,3.88,6.72,5.86a11,11,0,0,1,1.35,2.2c1.08,1.7,2.26,3.33,3.27,5.07.66,1.14,1,2.46,1.63,3.62,1,2,2.47,3.77,3.25,5.83a54.79,54.79,0,0,1,2.53,9c.7,3.65.93,7.4,1.53,11.07a55.78,55.78,0,0,0,1.58,5.83c1.24-1.26,2.31-2.23,3.24-3.33,1.19-1.4,2.31-2.86,3.36-4.36s2-3.15,3-4.74,2.12-3.49,3.24-5.19c1-1.52,2.1-3,3.08-4.47,1.21-1.86,2.37-3.75,3.51-5.65s2.57-4,2.81-6.51a2.5,2.5,0,0,1,.23-.85c1.08-2.15,3.1-3.62,3.79-6.17.63-2.35,3-3.86,3.81-6.44s2.39-4.7,3.58-7.07c.58-1.14,1-2.38,1.51-3.55.92-2,2.1-4,2.22-6.26a3.34,3.34,0,0,1,.14-.7A66.33,66.33,0,0,0,291,178.3a24.9,24.9,0,0,0-.65-8.1A86.1,86.1,0,0,1,289,158.08c-.59-7.71-.74-15.5.83-23.24a51.9,51.9,0,0,1,3-9.59,34.07,34.07,0,0,0,2.13-7.72,41.18,41.18,0,0,0,.11-6.29,3.63,3.63,0,0,0-.18-1.4,50.34,50.34,0,0,0-2.45-5.45,51.19,51.19,0,0,0-3.42-4.9c-.3-.41-1.05-1-1.16-.95a45.8,45.8,0,0,0-4.09,3.24c-1.1,1-2,2.19-3.09,3.2a35.1,35.1,0,0,0-2.85,2.37,13.35,13.35,0,0,0-1.59,3c-1.39,3-2.75,5.94-4.12,8.91a13.49,13.49,0,0,1-1.4,2.91,14.32,14.32,0,0,0-3.42,9.35A8.61,8.61,0,0,1,267,134c-.64,2.22-1.36,4.42-2.06,6.62-.55,1.7-1,3.43-1.69,5.08-1.08,2.61-2.33,5.16-3.47,7.75-.53,1.22-.91,2.52-1.48,3.72-1.14,2.42-2.62,4.7-3.47,7.21a25.31,25.31,0,0,1-2.47,4.87c-1.82,3.12-3.38,6.38-5.09,9.57-.37.69-.9,1.3-1.3,2-1.2,2-2.35,4.11-3.56,6.14-.43.73-1,1.36-1.46,2.08a38.12,38.12,0,0,1-2.08,3.64c-1.32,1.73-2.87,3.28-4.28,4.94C232.93,199.57,231.29,201.57,229.55,203.66ZM125.9,272.06l-.51.16a3.38,3.38,0,0,0-.29.76c-.49,5.4-.89,10.81-1.48,16.2-.26,2.44-.88,4.84-1.35,7.26a5.32,5.32,0,0,1-.21.5,46.47,46.47,0,0,0-1.91,6.08c-.48,2.67-.21,5.38-1.11,8.09-1,3-.44,6.27-1.32,9.43-1,3.49-1,7.27-1.36,10.78a37.24,37.24,0,0,1-4.78,1.33c-1.35.19-2.75-.09-4.12,0a9.38,9.38,0,0,0-2,.46,21.24,21.24,0,0,1-.27,10.72c-.68,2.59-.21,5.48-.27,8.23a14.65,14.65,0,0,1-.24,3.58,58.14,58.14,0,0,0-2.4,14.75,3.15,3.15,0,0,1-.07,1.07,44.43,44.43,0,0,0-2.19,5.46c-.67,2.64-1,5.36-1.41,8.05-.49,3-.94,6-1.41,9,0,.12-.07.23-.1.35-.37,1.65-.73,3.3-1.11,4.94s-.81,3.15-1.09,4.75c-.25,1.4-.16,2.87-.48,4.25-.59,2.49-1.42,4.92-2,7.4-.42,1.7-.69,3.44-1,5.17-.08.41-.26.93-.08,1.22,1.12,1.9.56,4.43,2.32,6.08a14.5,14.5,0,0,1,1.16,1.41,43.6,43.6,0,0,0,4.41,5.22c1.36,1.21,3.22,1.87,4.88,2.74,1.34.7,2.64,1.69,4.16,1a20.24,20.24,0,0,0,1.61-3.57c.59-2.51,1-5.08,1.42-7.62,0-.24.12-.47.18-.7.72-3,1.45-5.91,2.17-8.88.52-2.17.93-4.38,1.56-6.52s1.68-4.17,2.15-6.33.37-4.54,1.15-6.85a36.83,36.83,0,0,0,1.39-9.11,68.45,68.45,0,0,1,2.51-12.2,31.1,31.1,0,0,1,2.52-6.87c1.23-2.29,2.89-4.52,2.81-7.36,0-.22.33-.43.45-.67.84-1.74,2.91-2.52,3.33-4.72.27-1.45,1.39-2.74,2.13-4.1a31.32,31.32,0,0,0,2.44-4.51c1.17-3.41,2.16-6.9,1.62-10.6a12.64,12.64,0,0,0-.45-1.68c-.29-1-.63-1.88-.9-2.84-.12-.45.08-1.16-.18-1.39-1.73-1.51-1.11-3.84-2.08-5.69-.89-1.69-.53-3.93-1.13-6a38.22,38.22,0,0,1-1.27-9.5c-.26-7.61-.42-15.23-.36-22.84a18.26,18.26,0,0,0-2-8c-.65-1.42-1.07-2.94-1.67-4.39C127.05,274.39,126.45,273.23,125.9,272.06ZM260.7,53.35c.45-.42,1.35-.87,1.54-1.52.69-2.41,1-5,2.63-7,1.3-1.61,1.95-3.77,4.17-4.62a27.08,27.08,0,0,0,3.47-2.12,4.22,4.22,0,0,1,5.7,1c.12.14.33.27.33.4-.06,2.79,0,5.6-.28,8.38a35.12,35.12,0,0,1-1,4.77A5.87,5.87,0,0,0,278,53c2.33.26,2.85-2.12,4.39-3.06,1.39-.86,2.42-2.49,3.88-3a13.93,13.93,0,0,1,5.33-.37A5.24,5.24,0,0,1,294,47.73c2.56,1.77,4.05,4.81,7.18,6,1.22.45,2.29,1.35,3.53,1.76,1.93.65,3.95,1,5.93,1.56a3.74,3.74,0,0,1,.66.25c1.35.62,2.68,1.27,4,1.84a1.14,1.14,0,0,0,1-.14,41.71,41.71,0,0,0,4.16-4,23.81,23.81,0,0,0,2.67-4.28c.8-1.51,1.88-3.06,2-4.67.31-3.44.12-6.94.1-10.41a4.42,4.42,0,0,0-.29-1.22c-.32-1.05-.69-2.09-1-3.15-.5-1.84-.65-3.84-1.5-5.5a74.42,74.42,0,0,0-4.75-7.54,26.2,26.2,0,0,0-3.23-4.22A49.71,49.71,0,0,0,308.76,9a35.6,35.6,0,0,0-5-2.76c-1.11-.56-2.28-1-3.43-1.49-1.75-.71-3.45-1.8-5.26-2a32.49,32.49,0,0,0-13.18,1.18,17.6,17.6,0,0,0-3.11,1.46,10.07,10.07,0,0,0-2.4,1.52c-1.91,1.86-3.78,3.77-5.54,5.78a62.87,62.87,0,0,0-4.72,6,24,24,0,0,0-2.67,5.12,65.36,65.36,0,0,0-2.25,7.54c-.59,2.49-.44,5.31-1.58,7.47a9.68,9.68,0,0,0-1.08,5C258.55,46.9,257.92,50.18,260.7,53.35ZM251,47.18c.48.88.84,1.47,1.11,2.09.65,1.48,1.26,3,1.85,4.47.7,1.76,1.39,3.53,2,5.32A31.81,31.81,0,0,0,257.65,64a15.23,15.23,0,0,1,2.22,7.22,5.51,5.51,0,0,0,.3,1.76c.68,1.85,1.6,3.63,2.09,5.52.64,2.48,1,5,1.43,7.57a1.28,1.28,0,0,0,.06.35c.75,1.69,1.52,3.37,2.25,5.07.55,1.27.92,2.64,1.58,3.85a5.68,5.68,0,0,0,1.78,1.84c2.24,1.53,4.61,2.87,6.79,4.47,1.22.9,4.41,1.25,4.88.09,1.38-3.36,4.6-4.31,7.33-5.88,2.47-1.43,5.05-2.68,7.52-4.11A4.84,4.84,0,0,0,297.47,90c1-1.63,1.66-3.44,2.73-5a38,38,0,0,1,3.94-4.67c1.23-1.27,2.7-2.3,3.94-3.56a7.08,7.08,0,0,0,1.28-2.18,22,22,0,0,0,2-5.16c.3-2,1.53-3.52,2.1-5.31.33-1,.39-2.71-.21-3.29-.89-.85-2.45-1-3.76-1.42-3.43-1-6.9-1.78-10-3.77a26.73,26.73,0,0,1-7-6c-1-1.26-3.6-2.15-4.51-1.39-2,1.66-3.9,3.45-5.88,5.15a9.21,9.21,0,0,1-2.89,2.09,3.5,3.5,0,0,1-4.43-3.72,24.17,24.17,0,0,1,1.07-4.48c.62-2.14.16-4.58.16-6.86-3.38-.76-5.43,1.28-7.53,3.13-2.35,2.07-2.56,5.19-3.45,7.87s-1.5,5.34-4.81,6.36c-3.33-3.78-4.32-8.43-4.41-13.59ZM17.27,501.7c-.72,1.64-1.32,3-1.88,4.3-.71,1.73-1.42,3.45-2.08,5.2-.6,1.6-1.15,3.23-1.69,4.86-.16.51-.15,1.07-.31,1.58-.72,2.4-1.45,4.79-2.22,7.17A21.76,21.76,0,0,0,8.23,527c-.15.74-.32,2,0,2.23,1.9,1.16,3.58,2.89,6.07,2.76a2,2,0,0,1,.88.12c1.54.72,3,1.9,4.61,2.13,2.27.34,2.91,2.27,4.28,3.44,1.59,1.35,2.89,3,4.45,4.41s3.37,2.55,5,3.93c1.32,1.13,2.51,2.4,4.46,2.32a2.85,2.85,0,0,1,.86.24c2.29.73,4.59,1.48,6.88,2.2a22,22,0,0,0,3.06.84,12.27,12.27,0,0,0,3.52.2A48.27,48.27,0,0,0,57,550.78a6.76,6.76,0,0,0,1.2-.28c1.56-.68,3.07-1.84,4.67-2,2.31-.23,3.71-1.66,5.36-2.84a10.9,10.9,0,0,0,2.3-1.75,8.73,8.73,0,0,0,1.59-6.81c-.06-.45-.13-1.1-.42-1.28-1.59-1-3.24-1.88-4.9-2.72-1.19-.61-2.5-1-3.67-1.65-1.93-1-3.72-2.37-5.71-3.26-2.82-1.26-4.78-3.47-6.8-5.62a36.17,36.17,0,0,1-2.45-3.27c-1.65-2.24-3.76-4.22-3.81-7.32a1.9,1.9,0,0,0-.72-1.41,11.27,11.27,0,0,0-5.9-1.4,12.26,12.26,0,0,1-3.18-.44,65.94,65.94,0,0,0-7.05-1.85A15.13,15.13,0,0,1,19,502.7,8.35,8.35,0,0,0,17.27,501.7Zm125.24,20.08c0-4.39.13-8.69-.07-13-.07-1.5-.92-3-1.43-4.45-.68-2-1.52-4-2-6a14.83,14.83,0,0,1,0-3.94c.12-2.85-.77-3.85-3.7-4.08a6.16,6.16,0,0,1-1.94-.29,31.59,31.59,0,0,0-8.8-2.11c-3.17-.4-6.33.39-9.58-1-2.2-1-4.88-.87-7-2.55-.26-.21-1.49.19-1.68.59-1.07,2.24-2,4.56-2.92,6.86a13,13,0,0,1-1.42,3.24c-1.5,1.87-1,3.85-.55,5.76s1.32,3.77,2,5.66c.57,1.65,1.1,3.32,1.65,5a50.73,50.73,0,0,1,2.21,7,5.92,5.92,0,0,0,2.1,3.44c.2-.32.33-.5.44-.7,1.28-2.37,3-2.58,4.56-.5.69.92,1.21,2,2.15.2a6.66,6.66,0,0,1,1.21-1.35c.88-.9,1.64-2.11,3.28-1.2a4.12,4.12,0,0,0,3,3.58c2.7.71,3.22-1.59,4-3.35a13.57,13.57,0,0,1,3,1c.5.32.6,1.47,1.51.73a4.57,4.57,0,0,0,1.13-1.68,7.41,7.41,0,0,0,.38-1.62h2C137.33,520.54,139.62,522.27,142.51,521.78Zm103.18-81.59c1.18,1.27,2,2.2,2.83,3,2.22,2.11,4.28,4.49,7.79,4.32a8.66,8.66,0,0,1,2.09.4,3,3,0,0,0,1,.21c1.16-.18,2.3-.44,3.45-.65l7.73-1.4a5,5,0,0,0,.49-.2A27.67,27.67,0,0,1,274,445a25.67,25.67,0,0,1,3.49-.47c2.39-.2,4.82-.69,7.16-.4,3.07.39,6,1.49,9.1,2.11a21.21,21.21,0,0,0,4.3.18c5.09,0,10.19,0,15.27-.23a4.61,4.61,0,0,0,3.18-1.88c.69-1.08.23-2.34-.86-3.57a12.41,12.41,0,0,0-5.08-3,52.87,52.87,0,0,1-5.84-2.66c-2.89-1.59-6-2.79-9-4.18-1-.45-1.93-1-2.9-1.43q-2.16-1.05-4.33-2.06c-1.65-.76-3.29-1.56-5-2.21-1.39-.54-2.84-.89-4.27-1.31-.09,0-.22.07-.32.12-3.35,1.49-6.65,3.09-10.05,4.43a49.2,49.2,0,0,1-5.85,1.52,1.69,1.69,0,0,0-.5.14c-2.74,1.58-5.5,3.14-8.21,4.78C251.46,436.55,248.65,438.34,245.69,440.19ZM34.37,256a9.93,9.93,0,0,0-.06,1.45c.47,3.86.95,7.7,1.44,11.55a3.13,3.13,0,0,0,.12.53l2.22,7.71c.1.34.22.68.34,1,.69,2,1.32,4.12,2.11,6.13a40.34,40.34,0,0,0,2.15,4.56c.43.81,1.06,2.13,1.62,2.14a19.9,19.9,0,0,0,6.5-.63c2.17-.68,4-2.34,6.58-1.75a8.21,8.21,0,0,0,1.79.06c3.54,0,4.11-.53,4.11-4.1,0-4.95-.64-10,2-14.95.43.19,1.66.48,1.66.75a11.39,11.39,0,0,1-.66,4.42c-.78,1.68-.54,5.37,1,6.13.5.24,2-.32,2.09-.66.58-3.72,1-7.46,1.36-11.21a2.73,2.73,0,0,0-.24-1.74c-1.83-2.48-4.62-3.68-7.25-5-1.63-.84-3.12-1.8-3.8-3.51-1.68-4.23-2-4.48-6.61-4.32-.3,0-.6,0-.9,0-4.72.47-9.44,1-14.16,1.39C36.73,256,35.65,256,34.37,256Zm207.39-31.69a27,27,0,0,0-1.32-3.27c-1.48-2.47-3.07-4.89-4.6-7.33a12.29,12.29,0,0,0-1.67-2.75,76.91,76.91,0,0,0-6.33-5.19c-2.22-1.64-5.12-2.33-6.59-5-.77-1.42-2-2.59-2.89-4-1.2-1.82-2.28-3.73-3.44-5.58-1-1.65-2.15-3.19-4.16-3.74-.59-.16-1.29-.6-1.74-.43a1.76,1.76,0,0,0-.79,1.51c.43,1.84,1.07,3.63,1.65,5.43,0,0,.1.05.14.09a12.33,12.33,0,0,1,3.28,7.84c.23,4.47-3.16,6.5-6.51,7.23-1.88.41-3.83-.19-5.63,1.38-1.4,1.22-3.47,1.76-5.34,2.3a7,7,0,0,1-2.95-.35,3.72,3.72,0,0,1-1.15-.47c-1.21-.71-2.41-1.45-3.61-2.18-.31-.19-.62-.4-.94-.59-.19.38-.63.86-.53,1.14a40.2,40.2,0,0,0,2,5.11c.85,1.69,2.16,3.18,2.87,4.92a56.68,56.68,0,0,1,1.83,6.42,36.39,36.39,0,0,0,5.53,1.3c1.05.09,2.15-.8,3.27-1.08,2.19-.55,4.4-1,6.59-1.47.17,0,.32-.16.49-.21,2-.65,3.9-1.76,5.89-1.86,5.24-.28,10.5-.13,15.75-.13a2.2,2.2,0,0,1,1,.19C235.12,225.24,238.44,224.07,241.76,224.26ZM197,170.65c1.47-.55,2.66-1,3.82-1.44a34.16,34.16,0,0,1,4.71-2,3.23,3.23,0,0,1,2.53,1c.71.75.75,2.31,1.53,2.78s.92,2.56,2.18,1.2a47.54,47.54,0,0,0,3.89-5.38c1.31-1.89,2.53-3.84,3.92-5.67,1.91-2.53,4.19-4.57,7.55-5,.38,0,.81-.62,1-1.05a1.16,1.16,0,0,0-.26-1.08c-2.85-2-3.53-5.11-4.76-8a26.32,26.32,0,0,0-3.08-4.54c-.09-.12-.33-.13-.48-.21a5.81,5.81,0,0,0-1.58-.85,6.22,6.22,0,0,0-2.14.16c-.34.06-.63.55-1,.56-2.08.07-4,1-6.29.28-2.74-.85-3.78-2.9-2.27-5.44a3.81,3.81,0,0,0,.1-3.05c-.32-.7-1.75-1.59-2.3-1.38a12.59,12.59,0,0,0-4.56,2.74,5.23,5.23,0,0,1-3.83,1.94c-2.86.09-2.89.17-2.76,3.14.25,5.78-.56,11.62,1.22,17.32a74.31,74.31,0,0,1,1.53,7.44c0,.12.09.22.12.34.32,1.21.67,2.42.94,3.65A23.74,23.74,0,0,1,197,170.65Zm18.54,56.26-.68-.12c-3.17-.41-6,1-9,1.67-1.66.35-3.15,1.56-4.82,1.86-2.09.37-4.61.9-6.32.07s-3.42-.65-5.06-1.12a11.32,11.32,0,0,1-3.86-1.59,31.51,31.51,0,0,1-4.82-4.77c-1.58-1.93-3.44-3.82-3.16-6.67,0-.29.05-.77-.1-.86-.68-.41-1.86-1.15-2.08-.95a25,25,0,0,0-2.7,3.41,62.48,62.48,0,0,1-4.56,6.19c-1.88,2-4.27,3.48-6.24,5.38-.93.89-2.32,1.84-2,2.88,2.86,1.94,5.33,3.36,7.5,5.15a23,23,0,0,0,8.42,4.72,3.21,3.21,0,0,1,1.33.5,7.58,7.58,0,0,0,6,2c5.69-.2,11.35.83,17,.34a9.89,9.89,0,0,1,1.41.18c1.6.1,3.2.25,4.8.23a1.81,1.81,0,0,0,1.33-.8c1.33-2.53,2.56-5.1,3.83-7.66.66-1.33,1.46-2.6,2-4C214.58,231,216.38,229.45,215.55,226.91ZM15.15,233c-.54.39-.84.49-.87.64-.54,2.77-1,5.54-1.56,8.32-.07.41,0,.84-.15,1.24-.73,2.73-1.56,5.44-2.22,8.19-.57,2.32-.91,4.69-1.44,7-.37,1.6-.86,3.17-1.34,4.74-.73,2.39-1.59,4.75-2.23,7.16-.6,2.24-.59,4.75-1.59,6.76a13,13,0,0,0-1.06,6.07,4.57,4.57,0,0,0,.89,2.14,52.36,52.36,0,0,0,3.21,4.95,50.44,50.44,0,0,0,4.3,4.71c1,.94,2.21,1.59,3.16,2.53,2.05,2,4.51,2.16,6.15-.8a45.57,45.57,0,0,1,3.78-5.51,4.67,4.67,0,0,0,.93-4.85,6.65,6.65,0,0,1-.73-2.05q-.15-6-.11-12a3.41,3.41,0,0,1,.53-2c1.22-1.51.28-3.35-1.44-4.21a5.73,5.73,0,0,1-1.57-1.67,5.29,5.29,0,0,1-.67-1.18c-.66-1.52-2.33-2.57-2.07-4.54.06-.43-.3-.89-.4-1.36a8.2,8.2,0,0,1-.51-3.06c.45-2.34.9-4.48,0-7-.82-2.17-.09-4.7-1.24-7.06C15.86,238.11,15.74,235.62,15.15,233Zm173.6-6.92c.15-.76.33-1.12.24-1.37-.71-2.05-1.47-4.07-2.23-6.1a15.77,15.77,0,0,0-1.63-4c-1.69-2.23-1.35-4.62-.86-6.94s2.25-2.64,4.1-1.12a32.29,32.29,0,0,0,2.75,2.51c2.09,1.35,6.11.77,8.26-.62a18.38,18.38,0,0,1,4.5-1.68,48.71,48.71,0,0,0,4.88-1.35,3.67,3.67,0,0,0,1.81-2.09c.76-2.54-.68-4.6-1.86-6.68-.55-1-1.4-1.11-2.39-1.36a39.35,39.35,0,0,1-4.79-1.84c-2.31-.94-3.41-3-4.7-5-.31-.46-1-.75-1.13-1.23-.56-1.7-1-3.44-1.45-5.17-.13-.44-.34-.85-.5-1.27A51.4,51.4,0,0,1,172.3,184a25.44,25.44,0,0,1,1.68,3.44c.59,2,1,4.1,1.49,6.15,0,.11,0,.24.06.35.77,2.41,2.12,4.81,2.19,7.24a76.5,76.5,0,0,0,1.42,10.29,51.23,51.23,0,0,0,1.45,6.38,6.44,6.44,0,0,0,1.67,2.72C184.22,222.38,186.34,224,188.75,226.06Zm29.81,1.79a21.05,21.05,0,0,1-.62,2.67c-.71,1.72-1.5,3.41-2.27,5.1-.19.42-.44.81-.67,1.21-1.05,1.89-2.1,3.78-3.14,5.69-.65,1.2-1.19,2.48-1.93,3.61-1.43,2.16-2.88,4.32-4.51,6.32a5,5,0,0,1-2.45,1.1c-.26.08-.66-.3-1-.47.32-.5.6-1,.95-1.5s.73-.58.91-1a14.51,14.51,0,0,0,.61-2,6.26,6.26,0,0,0-1.6-.4c-2,.05-4,.13-5.92.29-4.51.36-8.88-.53-13.28-1.3a3,3,0,0,0-1.86.56c.09.93.16,2.18.77,2.68a40.15,40.15,0,0,0,4.94,3.15,22.76,22.76,0,0,1,2.9,1.66c1.12.93,2,2.06,3.74,1.88a8.46,8.46,0,0,1,2.46.38c3.06.65,6.09,1.53,9.18,1.91,1.47.18,3.08-.48,4.56-.94A5.08,5.08,0,0,0,213,257.1a28.11,28.11,0,0,0,3-4.59c1.5-3.18,4-5.95,6.23-8.71a9.29,9.29,0,0,1,3.8-2.88c1.51-.54,1.21-1.49.89-2.19a18.12,18.12,0,0,0-2-2.83c-1-1.45-2-3-3-4.39C220.92,230.33,219.84,229.27,218.56,227.85Zm3.92-2.37-.6.72a20.34,20.34,0,0,0,1.68,4.16,62.78,62.78,0,0,0,4.44,5.36c1.26,1.48,2.84,2.77,3.76,4.43,1.68,3,4.34,4.95,7,7,2.1,1.6,4.09,3.35,6.14,5,1,.82,1.87,2.11,3.77.71a25.94,25.94,0,0,1-1.18-4.84,49.73,49.73,0,0,0-2.56-14.3,64.25,64.25,0,0,1-1.72-7H230.76a11.66,11.66,0,0,1-2-.11C226.69,226.27,224.59,225.86,222.48,225.48Zm20.07,29.66a15.41,15.41,0,0,0-1.77-3.16,21.64,21.64,0,0,0-3.12-2.36c-2.16-1.68-4.66-2.92-6-5.62-.5-1-1.56-2.63-3.32-1.71a16.62,16.62,0,0,0-3.39,2.39,1.48,1.48,0,0,0,0,2.43,3.56,3.56,0,0,1,.76,1.2,19.36,19.36,0,0,0,1.59,3.62c1.53,2.12,3.34,4,5,6.07,2,2.58,5.15,3.64,7.72,5.45.19.13.82-.11,1-.36.92-1,1.31-2.08.33-3.34a1.73,1.73,0,0,1-.08-1.35C241.61,257.41,242,256.47,242.55,255.14ZM90,429.18c-.12.73.05,2-.51,2.61-1.64,1.73-.88,4.21-2.2,6a5.05,5.05,0,0,0-.92,2.17,7.12,7.12,0,0,0,0,3.4,2.74,2.74,0,0,0,2.25,1.38A13.29,13.29,0,0,0,93,443.3c2.12-1.08,4.22-2.1,6.68-2a22.88,22.88,0,0,0,2.87-.11c.33,0,.62-.38.93-.58a6.39,6.39,0,0,0-.89-.61c-1.36-.62-3-.9-4-1.86C95.59,435.31,92.88,432.25,90,429.18Zm177-330.34-.7.34c.08.71.1,1.43.24,2.12.66,3.12,1.48,6.21,2,9.35a47.48,47.48,0,0,1,.12,5.73,19.27,19.27,0,0,0,.28,2.14l.66.17c1-1.8,2-3.58,3-5.38a31.56,31.56,0,0,0,2-4,9.34,9.34,0,0,0,.51-3.48c0-.47-.84-.93-1.33-1.34-1.49-1.27-3-2.52-4.51-3.77ZM31.66,256.19a58.13,58.13,0,0,0-6.23-1.33c-2.31-.26-2.56.23-2.73,2.6s1,3.74,2.57,5.3a11.14,11.14,0,0,0,7.59,3.3,19.56,19.56,0,0,0,0-2.89c-.29-1.77-.72-3.52-1.06-5.29A14.13,14.13,0,0,1,31.66,256.19Zm73.56,37.52h.49c.16-.58.3-1.16.48-1.74a25.75,25.75,0,0,1,1.57-4.58c1-1.9,1.22-3.33-.19-4.9a22.6,22.6,0,0,0-2.54-2.24,5.68,5.68,0,0,0-1-.55c-.17.35-.49.7-.5,1.05a50.91,50.91,0,0,0,.09,7A42.72,42.72,0,0,0,105.22,293.71Zm-40-104.83c.47-1.16.91-2.21,1.3-3.28a9.54,9.54,0,0,0,.52-2.09c0-.15-.78-.6-.95-.5C64.52,183.93,64.06,186.87,65.17,188.88Z"/><path class="cls-1" d="M125.66,259.1c1.47-1.18,3-2.27,4.38-3.56,2.31-2.2,4.38-4.68,6.8-6.73,1.52-1.28,3.55-1.94,5.28-3,1.44-.88,2.77-1.95,4.17-2.88,1.69-1.13,3.4-2.21,5.11-3.3s3.41-2,5-3.17a4.93,4.93,0,0,1,5.32-.1c2.15,1.64,4.41,3.13,6.63,4.68,1.59,1.11,3,2.62,4.81,3.21a8.79,8.79,0,0,1,4,3.13,30.63,30.63,0,0,1,1.92,2.92c.83,1.22,1.64,2.45,2.56,3.61a6.18,6.18,0,0,0,1.74,1.52c2.21,1.23,4.47,2.37,7.26,3.83.29,1.23,1.18,3.11,1,4.92s-1.19,3.75-2,5.54a36,36,0,0,1-2.67,4.72c-1,1.46-2.16,2.77-3.23,4.16-2,2.65-4.86,4.67-6,8-.14.42-.77.66-1.1,1.05a6.73,6.73,0,0,0-.28,7.82c1.52,2.54,2.68,5.31,4.25,7.82,1.06,1.71,2.42,3.55,4.5,3.88a4.68,4.68,0,0,0,3.65-1.42,56.64,56.64,0,0,0,4.32-6.52c1.47-2.29,2.91-4.59,4.38-6.88.12-.19.37-.33.43-.54.52-1.88.93-3.79,1.54-5.64s1.47-3.63,2.09-5.48,1-3.78,1.63-5.63,1.46-3.79,2.19-5.68c.55-1.44,1.16-2.86,1.58-4.34.61-2.16,2.25-3.35,4.23-2.69A13.7,13.7,0,0,1,214,264a68.3,68.3,0,0,1,7.39,4.8c3.44,2.86,7.59,5,9.61,9.41.55,1.21,1.94,2,3,3.05.19.19.45.35.56.59,1,2.1,1,2.11,3.78,1.87a9.33,9.33,0,0,0,.14-1.52A18.9,18.9,0,0,1,240.7,272a7.37,7.37,0,0,0,.26-2.66c.06-.63.15-1.25.26-2.17,1.32,1.09,2.19,1.89,2.28,3.53a11.2,11.2,0,0,0,1.48,3.85c.72,1.48,1.55,2.92,2.37,4.35a12.51,12.51,0,0,0,1.2,1.77c1.55,1.91,3.21,3.73,4.68,5.69,1.86,2.5,3.54,5.12,5.35,7.65.83,1.17,1.78,2.26,2.67,3.38a34.77,34.77,0,0,1,2.23,2.81c1.29,2,2.37,4.23,3.74,6.21a27,27,0,0,1,3.09,6.77,22,22,0,0,1,.48,11.16c-.47,2.6-.38,5.31-1.17,7.81-1.79,5.62-.75,11.36-1.12,17-.18,2.73-1,5.46-.89,8.17.12,4.56.19,9.22,1.25,13.61s.28,8.84,1.21,13.08c1,4.77.72,9.54,1.2,14.3a29.25,29.25,0,0,0,1.47,7.59c.72,1.84.66,3.66,1.07,5.46a29,29,0,0,0,2,4.49,36.58,36.58,0,0,1,1.69,4.47c.38,1.46-.8,2.7-2.35,3.21-1.91.63-3.75,1.48-5.62,2.21-1.3.51-2.59,1.07-3.92,1.48-1.75.53-3.6.79-5.3,1.44a39.69,39.69,0,0,0-5.42,2.61c-1.88,1.07-3.68,2.28-5.47,3.5s-3.29,2.45-5,3.58a23.31,23.31,0,0,1-2.87,1.44c-.67.33-1.33.71-2,1-1.1.43-1.77.35-2.49-1-1.14-2.12-.72-4.43-1.35-6.5-1.55-5.16-.19-10.54-1.33-15.56s-.37-9.87-1.24-14.66c-.49-2.65-.28-5.49-1.28-7.91-.91-2.23-.37-4.59-1.17-6.55-.93-2.28-.42-4.93-2.08-7-.37-.46-.12-1.4-.22-2.1-.46-3.25-.52-6.64-1.56-9.7a68.43,68.43,0,0,1-2.44-8.24,46.68,46.68,0,0,0-2.55-7.82,63.93,63.93,0,0,0-3.66-7.87c-1.34-2.37-3.12-4.48-4.59-6.78-1.08-1.69-1.86-3.58-3-5.24a19.08,19.08,0,0,0-3.1-3.44c-1.63-1.45-3.52-2.64-5.08-4.15a48.48,48.48,0,0,1-3-3.91c-1.05-1.24-2.36-2.27-3.31-3.56a2.6,2.6,0,0,1-.28-2.34c2.26-3,4.77-5.77,7.06-8.73,1.45-1.88,2.65-4,4-5.93,1.74-2.54,3.46-5.1,5.27-7.59.86-1.19,1.95-2.2,2.87-3.35s1.48-3,3.15-3.77c.25-.12,0-1.2,0-1.76-1.53-1-2.48.06-3.2.89-1.89,2.2-3.68,4.52-5.38,6.88s-3.34,5.19-5.21,7.64c-2.16,2.85-4.54,5.55-6.86,8.28s-4.59,5.09-6.68,7.8a45.58,45.58,0,0,0-2.91,5.17,14.23,14.23,0,0,1-1.09,1.28c-1.19,1.53-2.36,3.08-3.53,4.62a1.56,1.56,0,0,0-.22.47c-.49,1.93-.68,4-1.53,5.76-1.55,3.19-.72,6.53-1.15,9.77-.33,2.44-.56,5-1.57,7.2a32,32,0,0,0-1,3.33c-.58,1.7-1.38,3.32-2,5a5.1,5.1,0,0,0-.32,1.55c-.08,1.19,0,2.4-.13,3.59-.44,5.05-.52,10.18-1.54,15.11-.52,2.51-.28,5.17-1.15,7.43-1,2.49-.55,5.12-1.38,7.4s-.38,4.68-1.19,6.66c-.87,2.15-.47,4.35-1.19,6.35a51.29,51.29,0,0,0-2.59,11.08,37.57,37.57,0,0,1-2.43,8.86,31.94,31.94,0,0,0-1.23,5.43c-.53,2.53-1.55,5-2.14,7.48-.3,1.32,0,2.76-.21,4.12-.41,2.91-1,5.79-1.45,8.69s-.14,6.1-1.28,8.67-.66,5.19-1.22,7.72-1.39,4.87-2.1,7.3a1.51,1.51,0,0,0-.06.36c-.24,3.33-1.8,6.43-1.52,9.89.19,2.43-1.08,3.37-3.53,3.24a16.37,16.37,0,0,0-2.52-.08,4.68,4.68,0,0,1-4-1.64,2.41,2.41,0,0,0-1.16-.74c-2.47-.49-5-.81-7.43-1.35-2.75-.61-5.46-1.4-8.18-2.09a3.79,3.79,0,0,0-1.4-.19c-1.68.21-3.33.51-5,.74-.41.06-1,.17-1.23,0-1.38-1.36-3.17-.61-4.7-1a33.49,33.49,0,0,1-4.66-1.9c-1.28-.57-2.48-1.36-3.79-1.83s-1.7-1.38-1-2.49a4.56,4.56,0,0,0,.75-1.67c.54-4.15,1-8.32,1.54-12.47.3-2.2.41-4.56,1.33-6.5,1-2.13.38-4.42,1.19-6.35,1-2.45.8-5,1.31-7.42a48.72,48.72,0,0,1,2.16-6.18,1,1,0,0,0,0-.18c.47-2.69.87-5.39,1.44-8.06.67-3.18,1.52-6.33,2.24-9.5.56-2.43,1-4.91,1.6-7.32.56-2.11,1.38-4.14,2.09-6.21a2.26,2.26,0,0,0,.19-.49q.67-4.57,1.33-9.17c.23-1.53-.32-3.26,1.15-4.49.13-.11,0-.46.09-.69.44-2.9.44-5.95,1.43-8.64s1.25-5.91,3.35-8.24a1.33,1.33,0,0,0,.21-.67c.46-2.1.61-4.32,1.43-6.26s1.45-4.09,3.16-5.77c1.4-1.37,2.11-3.47,3.07-5.28,1.09-2.06,2.12-4.16,3.18-6.25a3.5,3.5,0,0,0,.35-.62c.66-2.76,2-5.37,1.64-8.37-.18-1.3.14-2.69-.18-3.94a58.86,58.86,0,0,0-2-5.76,4.16,4.16,0,0,1-.24-.47c-.53-2.63-.7-5.4-1.65-7.86-1.75-4.55-.29-9.33-1.33-13.8-1.58-6.79-.62-13.59-1-20.37a55.78,55.78,0,0,0-1.51-9.4c-.26-1.19-1.36-2.17-1.94-3.32a22.44,22.44,0,0,1-1.22-3.2c-.6-1.83-1.12-3.68-1.7-5.5-.7-2.21-1.46-4.39-2.15-6.6a12,12,0,0,1-.25-1.91Zm23.19,141h.25c0-2.16.05-4.32,0-6.47,0-.54-.48-1.06-.73-1.58-.49.38-1.13.68-1.41,1.19a4.54,4.54,0,0,0-.36,1.9c-.08,1.13,0,2.28-.14,3.4-.35,2.61-.8,5.2-1.22,7.8l-1.5,9.08c0,.11-.06.23-.09.34-.74,2.42-1.54,4.82-2.19,7.26-.56,2.08-.95,4.2-1.42,6.3,0,.11-.09.22-.13.33-.77,2.38-1.52,4.76-2.31,7.14a17.53,17.53,0,0,0-.81,2,11.18,11.18,0,0,0-.06,2.17c.61-.08,1.58.06,1.77-.25a32.38,32.38,0,0,0,1.68-3.86c.11-.27.17-.55.29-.81.71-1.51,1.84-3,2.06-4.53a41.93,41.93,0,0,1,2.53-9.83,42.19,42.19,0,0,0,1.49-6.3c.09-.41.18-.82.28-1.22.69-2.94,1.51-5.86,2-8.83A31.21,31.21,0,0,0,148.85,400.12Zm64.51-94.84v3.16c1.8.57,3.31,1.16,4.88,1.53,2.57.6,5.18,1.06,7.78,1.58.17,0,.33.11.51.15a19.24,19.24,0,0,0,3.3.77c2,.13,3.94,0,5.91,0,.81,0,1.62-.1,2.39-.16.23-2.49-.47-3.26-2.58-3.44-4.09-.35-8.27.77-12.28-1.1a33.12,33.12,0,0,0-5.75-1.55.55.55,0,0,1-.31-.16C216.21,304.59,214.81,305.19,213.36,305.28ZM152.3,259.93l-.73.12c.06.91-.19,2,.25,2.69,2.08,3.11,4.74,5.82,6.2,9.38,1,2.5,2.41,4.86,3.35,7.39a65,65,0,0,1,1.76,6.63c1.45.09,2.15-.64,2.11-2.12a15.06,15.06,0,0,0-.91-3.4,34.63,34.63,0,0,0-2.66-7.6c-.88-1.64-1.52-3.41-2.45-5A29.79,29.79,0,0,0,152.3,259.93ZM221,321.4c-.05.48-.3,1.05-.12,1.27,1.75,2.18,3.55,4.31,5.38,6.41s4.7,3.24,6.16,5.84a4.39,4.39,0,0,0,1.51,1.52c2,1.21,4,2.38,6,3.42.51.25,1.28,0,1.93-.06-.09-.69.07-1.71-.32-2a43,43,0,0,0-3.89-2.33c-.52-.32-.87-1-1.41-1.19-2.43-.8-3.54-3.11-5.38-4.58-1.6-1.26-2.77-3.07-4.23-4.53s-3.7-1.64-4.8-3.51C221.81,321.54,221.54,321.54,221,321.4Zm-87.12,56.29a2.82,2.82,0,0,0,3.52,0,9,9,0,0,1,3.78-2.13,6.66,6.66,0,0,0,2.68-1.89c1.32-1.32,2.36-3,3.82-4.1a2.27,2.27,0,0,0,1-2.76c-.78.08-1.67-.1-2.11.27a36.11,36.11,0,0,0-2.8,3,17,17,0,0,1-3.19,3C138.29,374.38,135.52,375,133.91,377.69ZM153,375.33a5,5,0,0,0,3.55,5.32c2.66.64,5-.41,7.17-1.51.9-.45,2.49-1.5,1-3.58a21.44,21.44,0,0,1-2,1.09c-1.34.56-2.7,1.38-4.08,1.44-1,.05-2.16-.86-3.23-1.39C154.59,376.33,153.91,375.88,153,375.33Zm103,43.78c-2.23-2.95-4.34-5.84-6.58-8.62a2.69,2.69,0,0,0-2-.73c-.39,0-1.16.86-1.08,1.1a4.13,4.13,0,0,0,1.24,1.38c.2.18.55.22.7.42,1.92,2.71,3.82,5.45,5.79,8.27ZM248.9,352.3c.54.64,1,1.61,1.54,1.71,2,.34,2.62,2.22,3.94,3.29a6.75,6.75,0,0,1,1.16,1.94l1.25-1.86a10.6,10.6,0,0,0-3.14-5.18C251.57,350.45,250.42,350.16,248.9,352.3Z"/><path class="cls-1" d="M62.28,183.17c-.25-2.49-1.71-4.32-1.75-6.8,0-1.92-1.45-3.87-2.47-5.68-.23-.41-1.36-.31-2.17-.47-.24,1.3-.38,2.15.7,3.05a5.75,5.75,0,0,1,1.29,2.83c.61,2.18,1.08,4.4,1.64,6.6.15.6.47,1.15.65,1.74s.33,1.29.49,1.93l-.55.33a31.84,31.84,0,0,1-3-3.28c-1.92-2.82-4.67-4.75-7.12-7a3.19,3.19,0,0,0-4.3-.49c1.53,1.56,2.93,3,4.31,4.38,2.34,2.44,4.73,4.84,7,7.37a41.74,41.74,0,0,1,3.4,4.71c.94,1.41.19,4-.49,5.81-.92,2.43-2.77,4.41-3,7.21-.17,1.84-1.3,3.6-2,5.39-.07.16-.25.32-.23.46.48,3.77-2.06,7.23-.7,11.25.88,2.62.24,5.72.65,8.56a45.71,45.71,0,0,0,1.86,6.47c.07.23.24.43.29.65.51,2.27,1,4.54,1.51,6.8.33,1.35.85,2.66,1.15,4,.36,1.58-.44,2.12-2,2.07a46.14,46.14,0,0,0-5.39.08c-3.89.32-7.77.75-11.65,1.17-.38,0-.72.42-1.1.46a24.33,24.33,0,0,1-3.71.24c-.78,0-1.55-.57-2.33-.59-3.52-.07-7,0-10.58-.1-.39,0-1-.7-1.09-1.15-.54-3.13-.6-6.39-1.54-9.38-.52-1.67-.56-3.32-1-4.93a49.9,49.9,0,0,0-1.95-5.18c0-.05-.08-.09-.09-.15-.46-3.32-2.85-6.36-.8-10.06.82-1.48.19-3.68.56-5.48.56-2.76,1.42-5.45,2.12-8.18a12.68,12.68,0,0,0,.25-1.95c.46-4.83.25-9.84,1.53-14.43,1.45-5.19.82-10.26.95-15.4,0-1.56-.36-3.29.19-4.64,1.17-2.88.82-6.3,3.34-8.73,1.19-1.15,1.72-2.95,2.82-4.22a9.6,9.6,0,0,1,4.25-3.37,65.3,65.3,0,0,0,7.22-3.34,2.6,2.6,0,0,1,.45-.26c1.9-.47,3.84-.81,5.71-1.39s3.72-1.41,5.58-2.13a1.35,1.35,0,0,1,.5-.17c2.6.09,4-1.8,5.56-3.38,2.31-2.31,4.72-4.5,7-6.85a21.93,21.93,0,0,1,4.86-4.18c1.65-1,2.82-2.69,4.34-3.91s3.37-2.24,5-3.46a53.26,53.26,0,0,0,4.81-4c3-2.85,5.8-5.81,8.69-8.72,1.83-1.85,3.55-3.84,5.53-5.53a27.34,27.34,0,0,1,4.65-2.86c2-1.1,4-2.1,6-3.19s4.08-2.22,6.08-3.4c1.44-.85,2.82-1.82,4.24-2.73l3.26-2.1c1.57-1,3.11-2.05,4.72-3,1.3-.77,2.69-1.41,4-2.15.71-.4,1.36-.89,2.05-1.33,1.81-1.16,3.62-2.34,5.46-3.46.2-.12.57,0,.85.07,1.29.33,2.57.69,3.86,1,.52.14,1.23,0,1.55.34,1.09,1.06,2.39.84,3.69.88a15.42,15.42,0,0,1,1.85.25c-.35,2.19-.3,4.31-1.05,6.09-1.57,3.75-.74,7.64-1.19,11.44-.39,3.3-1.28,6.74-.72,9.91,1,5.41.57,10.81,1.05,16.2a27.59,27.59,0,0,0,1.43,7.93c1,2.46.72,4.88,1,7.31.44,3.71.47,7.52,1.42,11.09,1.94,7.21.6,14.47,1,21.7,0,.4,0,.81,0,1,1.88.9,3.53,1.78,5.26,2.47a5.23,5.23,0,0,0,2.62.33c3.85-.6,6.19,1.84,8.7,4.06,2.84,2.53,3.45,5.81,3.81,9.42.28,2.87,1.41,5.67,2.11,8.51.16.63.07,1.32.22,2,.24,1,.88,2,.81,2.93a6.71,6.71,0,0,1-1.16,3.18c-1,1.48-2.32,2.76-3.45,4.16-2.22,2.73-4.32,5.56-6.66,8.19-1.09,1.23-2.74,1.94-3.91,3.12s-2.16,2.87-3.38,4.2a39.23,39.23,0,0,1-3.58,3.23,23.58,23.58,0,0,1-2.28,1.69q-3.63,2.39-7.29,4.71c-1.45.92-3,1.68-4.38,2.71-2.75,2.08-5.45,4.25-8.11,6.46-2.12,1.77-4,3.84-6.28,5.42a10.27,10.27,0,0,1-6.69,2.11c-2.93-.21-5.9-.15-8.79-.6a39.92,39.92,0,0,1-6.25-2,28,28,0,0,0-4.09-1.35c-4.16-.69-7.14-3.45-10.39-5.71-2.78-1.94-5.52-4-8.17-6.07a53.56,53.56,0,0,1-4.13-4c-1.89-1.9-3.83-3.76-5.65-5.73-2.13-2.31-4.74-4.2-6.06-7.28-.7-1.63-2.21-2.9-3.1-4.48-1.13-2-1.77-4.32-3.07-6.18a5.22,5.22,0,0,1-1.06-4.59,51.23,51.23,0,0,1,2.07-5.26c.52-1.29,1-2.59,1.62-3.82,1.11-2.21,2.32-4.36,3.48-6.54.45-.85.94-1.69,1.33-2.57a26.69,26.69,0,0,1,1.59-3.84c1-1.51,1-3.28,1.64-4.79.57-1.28,1-2.29,0-3.36-.88-.89-3-.69-4.12.3S63.65,181.86,62.28,183.17Zm11.45,28.69a40.28,40.28,0,0,0,6.86-1.52,32.27,32.27,0,0,1,8.72-2.14c.71-.07,1.69.31,1.66-1,0-1.07-.52-1.78-1.63-1.59-2.63.43-5.39.61-7.8,1.59a10.36,10.36,0,0,1-3.82.86c-2.75.05-5.5,0-8.25,0a12.73,12.73,0,0,1-2.11-.35c-1.82-.36-3.64-.78-5.47-1.07-.33,0-.73.39-1.1.61a3.7,3.7,0,0,0,.76.77c.9.5,1.86.88,2.75,1.39C67.12,211,70.22,211.49,73.73,211.86ZM107,219.94c.54.81,1.1,1.56,1.56,2.37,1.56,2.69,4.15,4.23,6.63,5.85a9,9,0,0,0,3.31,1.25,8.13,8.13,0,0,0,2.6-.45,11.08,11.08,0,0,0-2.22-1.71,24.24,24.24,0,0,1-8-6C110.11,220.39,109.58,218.29,107,219.94Zm19.08-91.36c.84-5.31-5.77-10.18-11.21-8.29a2.25,2.25,0,0,0,2.49,2c3.72-.27,5.07,2.41,6.42,5C124.33,128.29,124.87,128.84,126.12,128.58Zm-13.66,68.69.12.77a17.89,17.89,0,0,0,4.6-.37c1.27-.43,2.3-1.6,3.44-2.44,2-1.5,3.84-4.84,2.77-7.17h-1.94C121.18,193.81,116.38,195.11,112.46,197.27Zm23.47-35.39-.64.17c-.09.5-.16,1-.28,1.5-.43,1.69-.51,3.64-1.45,5-.72,1-1.15,1.65-.48,3.17a19.05,19.05,0,0,0,2.08-1.14c1.85-1.32,1.51-3.66,2.27-5.48C137.73,164.35,136.48,163,135.93,161.88Zm-3.37-29.32a1.77,1.77,0,0,0,1.17,2.35,11,11,0,0,1,1.39,1c1.25.79,2.23,2.31,4.06,1.58A8.31,8.31,0,0,0,140,137a3.35,3.35,0,0,0-.51-.79c-.58-.51-1.43-.84-1.78-1.47C136.58,132.66,134.83,132.23,132.56,132.56Zm-55.3,97.13c.91-.26,2.08-.37,2.12-.65.1-.69-.42-1.45-.48-2.2a4.2,4.2,0,0,1,.28-2.19,4.75,4.75,0,0,0-.28-4.76c-.56.64-1.52,1.23-1.57,1.89C77.15,224.27,77.26,226.77,77.26,229.69ZM100.7,205.9c1.19-.5,2.41-1,3.6-1.55a1,1,0,0,0,.52-.76c0-.21-.46-.53-.72-.53a13.47,13.47,0,0,0-3.71.21c-.68.19-1.16,1.12-1.72,1.72Z"/><path class="cls-1" d="M61.53,242.34c3,3.27,6,6.56,9,9.81q3.86,4.15,7.8,8.26c1.77,1.83,3.59,3.63,5.45,5.38a11.87,11.87,0,0,0,2,1.21c1.6,1,1.54,2.51,1.49,4.11,0,2,0,3.95,0,5.93,0,3.35,1.11,6.47,2.07,9.63.5,1.62,0,3.54.57,5.14,1.08,3.31.76,7,3.08,10,1,1.3,1.23,3.19,1.86,4.79a12.27,12.27,0,0,0,1.41,3.07c1.5,1.91,2.13,4.47,4.37,5.84.26.16.36.77.33,1.16a25.82,25.82,0,0,1-.73,5.5c-.92,3.14-1.38,6.69,1.72,9.31.13.11.3.24.33.38.77,3.77,1.64,7.54,1,11.44-.34,1.95-.62,3.92-.93,5.88-.49,3.2-.59,6.54-1.61,9.56a31,31,0,0,0-.9,5.52c-.22,1.54-.65,3.05-1,4.57,0,.17-.12.34-.15.52l-1.44,9a81.61,81.61,0,0,1-1.53,9.28,110.92,110.92,0,0,0-2.59,12.76c-.38,2.41-.55,4.87-1,7.26-.44,2.23-1.52,4.34-2.11,6.55-.66,2.47-1.08,5-1.63,7.52-.71,3.23-1.44,6.45-2.16,9.67a6.73,6.73,0,0,0-.22,1.24c0,2.52-1.19,4.67-2.17,6.9a52.26,52.26,0,0,0-1.64,5.33,18.49,18.49,0,0,0-.61,1.77c-.28,1.33-.51,2.68-.69,4-.49,3.54-.71,7.15-1.49,10.62-.84,3.77-2.21,7.42-3.31,11.14-.55,1.87-.93,3.79-1.55,5.64-.56,1.65-1.35,3.22-2,4.82a2.3,2.3,0,0,0-.22.48c-.51,2.72-.93,5.46-1.54,8.16s-1.42,5.47-2.13,8.21a8.54,8.54,0,0,0-.28,1.59c-.16,3.58-2.14,6-5.1,7.67a3.85,3.85,0,0,1-1.74.28,85.56,85.56,0,0,1-9.88-.14c-2.51-.3-4.93-1.4-7.39-2.13a4.17,4.17,0,0,0-1-.16,49.33,49.33,0,0,1-5-.17,37.09,37.09,0,0,1-7.22-1.44,42.64,42.64,0,0,1-8.26-3.8,38.32,38.32,0,0,1-5.75-4.94c-.26-.24-.19-.92-.15-1.39.39-4.06.63-8.14,1.27-12.16a58.11,58.11,0,0,1,2.16-7.39.85.85,0,0,0,0-.17c.51-3.13.95-6.28,1.55-9.39.66-3.38,1.47-6.74,2.22-10.1,0-.12.06-.23.08-.35.47-3,.82-6.09,1.45-9.09.57-2.76,1.53-5.43,2.16-8.18.3-1.27.13-2.64.33-3.93a12.58,12.58,0,0,1,.82-2.32,3.31,3.31,0,0,0,.25-.66c.47-2.82.79-5.68,1.42-8.47.55-2.44,1.45-4.8,2.2-7.2.05-.17.11-.33.16-.5.51-2,.94-4.08,1.57-6.07.56-1.78,1.39-3.49,2-5.25.47-1.25.88-2.53,1.28-3.81.58-1.88,1.06-3.79,1.71-5.65s1.46-3.52,2.14-5.29c.45-1.17.84-2.37,1.2-3.58.55-1.82,1-3.68,1.56-5.5C45,378,45.75,376,46.45,374c.14-.4.29-.79.39-1.19.48-2,.81-4,1.45-5.89a27.09,27.09,0,0,1,1.92-3.65,3.68,3.68,0,0,0,.37-1.15c.35-2.77.5-5.43-1-8.1-1.27-2.29-1.82-5-2.92-7.37a27.6,27.6,0,0,1-2.47-9.68c-.16-2.3-1.32-4.53-2-6.79-.07-.22-.14-.45-.19-.68-.51-2.41-.93-4.84-1.55-7.22s-1.63-4.9-2.19-7.41c-.34-1.55,0-3.23-.24-4.83-.37-3.09-.35-6.36-1.47-9.17-1-2.47-2-5.12-4.17-7.17-1.47-1.39-2.21-3.59-3.11-5.51A30.91,30.91,0,0,1,27,282.25a26.16,26.16,0,0,1-.5-5.88,43.32,43.32,0,0,1,.39-5.2c.2-1.92,1.11-3.05,3.1-2.69a7.59,7.59,0,0,0,1.78.13,2.16,2.16,0,0,1,2.35,1.77c.54,1.77.9,3.6,1.32,5.41A71.09,71.09,0,0,0,37,282.93a58.92,58.92,0,0,0,3.73,8.9,4.94,4.94,0,0,0,3.32,1.9,17.24,17.24,0,0,0,5.55-.07A13.42,13.42,0,0,0,53.05,292a4.85,4.85,0,0,1,1.63-.71,30.39,30.39,0,0,1,5.56,0c2.48.32,4.76-1.91,5.77-4.18.72-1.63,1.6-3.15,3.77-3.47A3.47,3.47,0,0,0,72,281.78,16.6,16.6,0,0,0,73.07,277c.21-2.63.18-5.27.24-7.91s-.66-4.64-3.27-5.75a23.6,23.6,0,0,1-4.71-2.51,31.51,31.51,0,0,1-4.43-4.14,2.13,2.13,0,0,1,0-1.86c1.76-3.44,1.44-6.87.21-10.36a8.33,8.33,0,0,1-.2-1.95Zm4.31,119.71c.31.46.39.7.56.82,1.42,1,2.8,2.15,4.31,3a20.06,20.06,0,0,0,4.6,2.15,14.74,14.74,0,0,0,3.94.14c.82,0,1.73.16,1.69-1.2,0-1.16-.68-1.49-1.63-1.29-3.79.8-6.46-1.72-9.34-3.31C68.47,361.57,67.4,361.94,65.84,362.05Zm-5.4,60.35c-1.28-.25-2.06,0-2.42,1.4a19.91,19.91,0,0,1-1.44,3.41c-.68,1.44-1.47,2.83-2.07,4.3a17,17,0,0,0-1.11,3.79,2.45,2.45,0,0,0,.58,2.05c.64.39,1.32.12,1.84-.93A19.37,19.37,0,0,0,57.17,431,12.5,12.5,0,0,1,59,427.23C59.85,425.76,61.44,424.56,60.44,422.4ZM54,456.54c-2.23,1.49-2.72,3.78-1.6,7.49.64-.21,1.8-.39,1.82-.64C54.32,461.14,54.93,458.83,54,456.54Z"/><path class="cls-1" d="M205.58,191.8a5.45,5.45,0,0,1-5.11-2.92c-1-1.71-2.09-3.38-3.05-5.11a5.81,5.81,0,0,1-.5-1.87c-.2-1.11.23-2.36-1.09-3.19-.28-.18-.09-1.33.09-2,.21-.79.88-1.5.92-2.27.07-1.25.53-1.68,1.73-1.66,1.9,0,3.85.21,5.44-1.2l1.32-1.19a35.28,35.28,0,0,0,3.2,3.65c2.79,2.49,4.21,1.52,5.87-.67a73.34,73.34,0,0,0,3.94-6.58c1.55-2.61,3.42-4.74,6.57-5.6,1.25-.34,2.25-1.5,3.42-2.2,1.51-.9,2.64-2.2,4.48-2.85a20.4,20.4,0,0,0,6.47-4.27,51.58,51.58,0,0,0,6.36-6.85,36.88,36.88,0,0,0,2.93-5.49c.38-.71.88-1.36,1.19-2.1,1.19-2.78,2.32-5.59,3.47-8.38a1.27,1.27,0,0,0,.06-.18c.13-4.43,2.09-8.68,1.25-13.22-.47-2.55-.58-5.19-1.18-7.71a28.54,28.54,0,0,0-2.13-4.82,30.74,30.74,0,0,0-1.32-2.78c-1-1.76-2.09-3.51-3.24-5.19a74.52,74.52,0,0,0-4.58-6.27,27.67,27.67,0,0,0-3.79-3.15,9.26,9.26,0,0,0-1.14-1c-1.57-.93-3.16-1.85-4.77-2.71a27,27,0,0,0-8.24-3,5.85,5.85,0,0,0-3.24,0c-1.38.46-3,.2-4.45.43-2.2.34-4.54.47-6.52,1.36A40.85,40.85,0,0,0,201,86.09c-2.21,1.76-3.68,4.43-5.54,6.63a53.46,53.46,0,0,1-4,4.25,1.32,1.32,0,0,1-2.13-1.06c0-1.43.19-2.88.07-4.3-.06-.67-.56-1.72-1-1.83-1.21-.29-1.64.69-1.62,1.75.07,4-.46,8.18.43,12,1.31,5.66.37,11.29.93,16.9.48,4.83.48,9.77,1.52,14.48,1.26,5.65.26,11.3.92,16.89.4,3.31,1.55,6.52,2.22,9.8.28,1.39.09,2.87.3,4.29.16,1.11.74,2.15.9,3.26.35,2.5.95,4.88-.64,7.44-1.71,2.71-4.22,3-6.81,4-4.46,1.65-8.92.95-13.36.82-2.45-.07-4.88-1.22-7.32-1.89a8.41,8.41,0,0,0-.82-.35c-2.47-.42-5-.76-7.41-1.26a2.3,2.3,0,0,1-1.39-1.16c-1.68-3.32-.67-6.89-.82-10.36-.1-2.33,0-4.68-.13-7a11.49,11.49,0,0,0-.89-4.79c-.75-1.56-.37-3.64-.56-5.49-.38-3.64-.4-7.39-1.38-10.87-.69-2.47-.44-5-1.19-7.31-1.71-5.15-.83-10.35-1-15.52s-.11-10.44.14-15.65a50.43,50.43,0,0,1,1.4-9,33.29,33.29,0,0,1,2.5-6.78,13.53,13.53,0,0,1,2.7-3.14c1.53-1.58,3.08-3.15,4.7-4.63a28.31,28.31,0,0,1,2.4-1.57c2.21-1.6,4.33-3.36,6.62-4.83a27,27,0,0,1,4.07-1.62c.71-.31,1.3-.87,2-1.22,2.47-1.23,4.85-2.88,7.47-3.48,2.77-.62,4.72-2.9,7.68-3,1.22-.05,2.39-1.26,3.61-1.87a13.41,13.41,0,0,1,3.34-1.43c2.74-.53,5.31-1.93,8.26-1.57a26.59,26.59,0,0,0,5.57,0c3.09-.28,6.17-.71,9.24-1.16,4.25-.63,8.43-1.65,12.8-1.42,1.05,0,2.22-.84,3.2-1.49,1.67-1.1,3.24-2.34,4.82-3.57.48-.37.8-.93,1.27-1.34,1.79-1.57,3.59-1,4.38,1.3a36.56,36.56,0,0,0,2.1,4.2c.5,1,1,2,1.45,3.09.58,1.59,1,3.26,1.58,4.85s1.4,3.24,2.11,4.85a1.54,1.54,0,0,1,.15.32c.52,2.29.94,4.61,1.57,6.87.5,1.8,1.26,3.53,1.91,5.29a5.92,5.92,0,0,1,.28.64c.51,2.46,1.09,4.9,1.5,7.37.54,3.28.45,6.76,1.59,9.8.76,2,.29,4.13,1.11,5.87,1.41,3,.39,6.22,1.35,9,1.75,5.17.69,10.35.76,15.52,0,1.59-1.13,3.2-1.76,4.79a7.53,7.53,0,0,0-.41,1c-.52,2.49-.82,5-1.54,7.47-1,3.28-2.22,6.47-3.37,9.69a42.35,42.35,0,0,1-1.6,4.15c-.63,1.34-1.48,2.57-2.2,3.86a22.82,22.82,0,0,0-1.37,2.7c-.51,1.35-.82,2.79-1.37,4.12-.62,1.51-1.38,3-2.14,4.42-.86,1.62-1.78,3.21-2.67,4.81-1,1.77-1.92,3.56-2.95,5.3-1.15,1.94-2.45,3.79-3.57,5.74-1,1.66-1.6,3.53-2.69,5.09-1.37,2-3,3.76-4.59,5.62-1.82,2.18-3.67,4.33-5.46,6.53-.77,1-1.35.76-2.44.32-2.67-1.07-3.08-3.81-4.69-5.63-.7-.8-.88-2-1.45-3-1.3-2.12-2.38-4.53-4.15-6.17s-3.6-4.18-6.75-3.44a2.4,2.4,0,0,0-1.58,1.13c-.77,2.19-1.92,4.34-1.41,6.81A4,4,0,0,1,205.58,191.8ZM243.07,63.29a18.87,18.87,0,0,0,.84,3.8c.93,2,2.26,3.85,3.17,5.87a48.23,48.23,0,0,1,1.68,5.4l2.25-.1a12.11,12.11,0,0,0-.4-2.51c-.62-1.51-2-3-2-4.43,0-2-1-3.4-1.54-5.09C246.37,63.73,245.52,63.14,243.07,63.29Zm14.38,40.1c2.38.49,2.7.23,2.38-2a8.48,8.48,0,0,0-.52-1.67,6.26,6.26,0,0,1-.72-1.88c0-2.8-1.51-4.79-3.47-7.17a10.65,10.65,0,0,0-.33,2.77c.2,1,.85,2,1.11,3C256.48,98.79,257,101.11,257.45,103.39ZM223.21,59.06c.26,1.93-.58,3.31,1.13,4.55,1.25.9,1.89,2.64,2.86,4a4.36,4.36,0,0,0,1.58,1.56,1.92,1.92,0,0,0,1.68-.56c.24-.27,0-1.13-.22-1.59-.6-1.11-2.28-1.52-2.05-3.19,0-.17-.19-.39-.33-.56a31.76,31.76,0,0,0-2.18-2.45A23.36,23.36,0,0,0,223.21,59.06ZM193.8,82.27a6,6,0,0,0,1.58-1.14c.16-.21-.22-1.2-.58-1.37-1.93-.92-3.92-1.71-5.91-2.46-.2-.08-.74.28-.86.55-.57,1.24.5,2.52,2.16,2.88a10,10,0,0,1,1.85.93C192.51,81.87,193,82,193.8,82.27Z"/><path class="cls-1" d="M229.55,203.66c1.74-2.09,3.38-4.09,5-6,1.41-1.66,3-3.21,4.28-4.94A38.12,38.12,0,0,0,241,189c.43-.72,1-1.35,1.46-2.08,1.21-2,2.36-4.1,3.56-6.14.4-.68.93-1.29,1.3-2,1.71-3.19,3.27-6.45,5.09-9.57a25.31,25.31,0,0,0,2.47-4.87c.85-2.51,2.33-4.79,3.47-7.21.57-1.2.95-2.5,1.48-3.72,1.14-2.59,2.39-5.14,3.47-7.75.68-1.65,1.14-3.38,1.69-5.08.7-2.2,1.42-4.4,2.06-6.62a8.61,8.61,0,0,0,.34-2.47,14.32,14.32,0,0,1,3.42-9.35,13.49,13.49,0,0,0,1.4-2.91c1.37-3,2.73-6,4.12-8.91a13.35,13.35,0,0,1,1.59-3,35.1,35.1,0,0,1,2.85-2.37c1.07-1,2-2.2,3.09-3.2a45.8,45.8,0,0,1,4.09-3.24c.11-.08.86.54,1.16.95a51.19,51.19,0,0,1,3.42,4.9,50.34,50.34,0,0,1,2.45,5.45,3.63,3.63,0,0,1,.18,1.4,41.18,41.18,0,0,1-.11,6.29,34.07,34.07,0,0,1-2.13,7.72,51.9,51.9,0,0,0-3,9.59c-1.57,7.74-1.42,15.53-.83,23.24a86.1,86.1,0,0,0,1.35,12.12,24.9,24.9,0,0,1,.65,8.1,66.33,66.33,0,0,1-2.07,8.54,3.34,3.34,0,0,0-.14.7c-.12,2.31-1.3,4.23-2.22,6.26-.54,1.17-.93,2.41-1.51,3.55-1.19,2.37-2.83,4.58-3.58,7.07s-3.18,4.09-3.81,6.44c-.69,2.55-2.71,4-3.79,6.17a2.5,2.5,0,0,0-.23.85c-.24,2.47-1.59,4.47-2.81,6.51s-2.3,3.79-3.51,5.65c-1,1.51-2.09,3-3.08,4.47-1.12,1.7-2.16,3.46-3.24,5.19s-2,3.2-3,4.74-2.17,3-3.36,4.36c-.93,1.1-2,2.07-3.24,3.33a55.78,55.78,0,0,1-1.58-5.83c-.6-3.67-.83-7.42-1.53-11.07a54.79,54.79,0,0,0-2.53-9c-.78-2.06-2.2-3.86-3.25-5.83-.62-1.16-1-2.48-1.63-3.62-1-1.74-2.19-3.37-3.27-5.07a11,11,0,0,0-1.35-2.2C234.14,207.54,231.89,205.68,229.55,203.66Zm5.33-1c1.24-.39,2.18-.65,3.1-1,1.69-.58,3.36-1.21,5.05-1.81a28.58,28.58,0,0,0,2.74-.95q2.31-1.08,4.52-2.36a17.45,17.45,0,0,1,6.94-2.73c2-.23,4-1.37,6-2.2a46.22,46.22,0,0,0,4.35-2.15A52,52,0,0,1,272,186.8a7,7,0,0,0,4-3.9,11.61,11.61,0,0,0-3.27.42,34.72,34.72,0,0,0-3.2,2.29c-.93.58-2,1-3,1.46-2,1-4.06,2.07-6.11,3.06-.12.06-.41-.24-.53-.33a15.58,15.58,0,0,1,1.4-1.78c2.75-2.59,5.62-5.07,8.26-7.76.87-.88,2.42-1.87,1.18-3.92-.63.23-1.93.47-1.94.76-.09,2.14-2.08,2.9-3.16,4.14-2.19,2.54-5.05,4.51-7.64,6.71-1.88,1.59-3.69,3.27-5.67,4.72a29.25,29.25,0,0,1-4.74,2.72c-1.44.68-3,1-4.49,1.66-2.84,1.21-5.65,2.51-8.59,3.84C234.65,201.49,234.77,202.1,234.88,202.7ZM272,152c-1.17-1-1.88-1.13-2.63.14-.94,1.61-2.64,3-3,4.66-.6,2.72-2.83,3.95-4.35,5.73a3.07,3.07,0,0,0-.84,2.56c.33,0,.59.13.78.05,3.19-1.34,4.61-4.41,6.53-6.93A51.65,51.65,0,0,0,272,152Z"/><path class="cls-1" d="M125.9,272.06c.55,1.17,1.15,2.33,1.64,3.53.6,1.45,1,3,1.67,4.39a18.26,18.26,0,0,1,2,8c-.06,7.61.1,15.23.36,22.84a38.22,38.22,0,0,0,1.27,9.5c.6,2,.24,4.28,1.13,6,1,1.85.35,4.18,2.08,5.69.26.23.06.94.18,1.39.27,1,.61,1.89.9,2.84a12.64,12.64,0,0,1,.45,1.68c.54,3.7-.45,7.19-1.62,10.6a31.32,31.32,0,0,1-2.44,4.51c-.74,1.36-1.86,2.65-2.13,4.1-.42,2.2-2.49,3-3.33,4.72-.12.24-.46.45-.45.67.08,2.84-1.58,5.07-2.81,7.36a31.1,31.1,0,0,0-2.52,6.87,68.45,68.45,0,0,0-2.51,12.2,36.83,36.83,0,0,1-1.39,9.11c-.78,2.31-.66,4.61-1.15,6.85s-1.53,4.19-2.15,6.33-1,4.35-1.56,6.52c-.72,3-1.45,5.92-2.17,8.88-.06.23-.14.46-.18.7-.46,2.54-.83,5.11-1.42,7.62a20.24,20.24,0,0,1-1.61,3.57c-1.52.67-2.82-.32-4.16-1-1.66-.87-3.52-1.53-4.88-2.74a43.6,43.6,0,0,1-4.41-5.22,14.5,14.5,0,0,0-1.16-1.41c-1.76-1.65-1.2-4.18-2.32-6.08-.18-.29,0-.81.08-1.22.31-1.73.58-3.47,1-5.17.63-2.48,1.46-4.91,2-7.4.32-1.38.23-2.85.48-4.25.28-1.6.73-3.16,1.09-4.75s.74-3.29,1.11-4.94c0-.12.08-.23.1-.35.47-3,.92-6,1.41-9,.43-2.69.74-5.41,1.41-8.05a44.43,44.43,0,0,1,2.19-5.46,3.15,3.15,0,0,0,.07-1.07,58.14,58.14,0,0,1,2.4-14.75,14.65,14.65,0,0,0,.24-3.58c.06-2.75-.41-5.64.27-8.23a21.24,21.24,0,0,0,.27-10.72,9.38,9.38,0,0,1,2-.46c1.37-.06,2.77.22,4.12,0a37.24,37.24,0,0,0,4.78-1.33c.4-3.51.38-7.29,1.36-10.78.88-3.16.33-6.45,1.32-9.43.9-2.71.63-5.42,1.11-8.09a46.47,46.47,0,0,1,1.91-6.08,5.32,5.32,0,0,0,.21-.5c.47-2.42,1.09-4.82,1.35-7.26.59-5.39,1-10.8,1.48-16.2a3.38,3.38,0,0,1,.29-.76Zm-18.5,76.7c1.55.62,2.79,1.47,4.1,1.57a52.33,52.33,0,0,0,8.21,0c2.05-.15,2.86-1.45,2.45-3.67-1,.14-2.13,0-2.85.46-2.59,1.77-5.22,1.12-7.88.48-1.29-.32-2.55-.74-4-1.17Z"/><path class="cls-1" d="M260.7,53.35c-2.78-3.17-2.15-6.45-2.2-9.6a9.68,9.68,0,0,1,1.08-5c1.14-2.16,1-5,1.58-7.47a65.36,65.36,0,0,1,2.25-7.54,24,24,0,0,1,2.67-5.12,62.87,62.87,0,0,1,4.72-6c1.76-2,3.63-3.92,5.54-5.78a10.07,10.07,0,0,1,2.4-1.52,17.6,17.6,0,0,1,3.11-1.46A32.49,32.49,0,0,1,295,2.73c1.81.21,3.51,1.3,5.26,2,1.15.48,2.32.93,3.43,1.49a35.6,35.6,0,0,1,5,2.76,49.71,49.71,0,0,1,5.8,4.95,26.2,26.2,0,0,1,3.23,4.22,74.42,74.42,0,0,1,4.75,7.54c.85,1.66,1,3.66,1.5,5.5.28,1.06.65,2.1,1,3.15a4.42,4.42,0,0,1,.29,1.22c0,3.47.21,7-.1,10.41-.15,1.61-1.23,3.16-2,4.67a23.81,23.81,0,0,1-2.67,4.28,41.71,41.71,0,0,1-4.16,4,1.14,1.14,0,0,1-1,.14c-1.37-.57-2.7-1.22-4-1.84a3.74,3.74,0,0,0-.66-.25c-2-.51-4-.91-5.93-1.56-1.24-.41-2.31-1.31-3.53-1.76-3.13-1.15-4.62-4.19-7.18-6a5.24,5.24,0,0,0-2.36-1.19,13.93,13.93,0,0,0-5.33.37c-1.46.53-2.49,2.16-3.88,3-1.54.94-2.06,3.32-4.39,3.06a5.87,5.87,0,0,1-.81-.31,35.12,35.12,0,0,0,1-4.77c.24-2.78.22-5.59.28-8.38,0-.13-.21-.26-.33-.4a4.22,4.22,0,0,0-5.7-1A27.08,27.08,0,0,1,269,40.24c-2.22.85-2.87,3-4.17,4.62-1.62,2-1.94,4.56-2.63,7C262.05,52.48,261.15,52.93,260.7,53.35Z"/><path class="cls-1" d="M251,47.18l4.82-3c.09,5.16,1.08,9.81,4.41,13.59,3.31-1,3.9-3.64,4.81-6.36s1.1-5.8,3.45-7.87c2.1-1.85,4.15-3.89,7.53-3.13,0,2.28.46,4.72-.16,6.86a24.17,24.17,0,0,0-1.07,4.48,3.5,3.5,0,0,0,4.43,3.72,9.21,9.21,0,0,0,2.89-2.09c2-1.7,3.88-3.49,5.88-5.15.91-.76,3.55.13,4.51,1.39a26.73,26.73,0,0,0,7,6c3.08,2,6.55,2.78,10,3.77,1.31.37,2.87.57,3.76,1.42.6.58.54,2.27.21,3.29-.57,1.79-1.8,3.29-2.1,5.31a22,22,0,0,1-2,5.16,7.08,7.08,0,0,1-1.28,2.18c-1.24,1.26-2.71,2.29-3.94,3.56A38,38,0,0,0,300.2,85c-1.07,1.56-1.77,3.37-2.73,5a4.84,4.84,0,0,1-1.59,1.68c-2.47,1.43-5.05,2.68-7.52,4.11-2.73,1.57-5.95,2.52-7.33,5.88-.47,1.16-3.66.81-4.88-.09-2.18-1.6-4.55-2.94-6.79-4.47a5.68,5.68,0,0,1-1.78-1.84c-.66-1.21-1-2.58-1.58-3.85-.73-1.7-1.5-3.38-2.25-5.07a1.28,1.28,0,0,1-.06-.35c-.46-2.53-.79-5.09-1.43-7.57-.49-1.89-1.41-3.67-2.09-5.52a5.51,5.51,0,0,1-.3-1.76A15.23,15.23,0,0,0,257.65,64,31.81,31.81,0,0,1,256,59.06c-.63-1.79-1.32-3.56-2-5.32-.59-1.5-1.2-3-1.85-4.47C251.86,48.65,251.5,48.06,251,47.18Z"/><path class="cls-1" d="M17.27,501.7a8.35,8.35,0,0,1,1.73,1,15.13,15.13,0,0,0,8.54,4.18,65.94,65.94,0,0,1,7.05,1.85,12.26,12.26,0,0,0,3.18.44,11.27,11.27,0,0,1,5.9,1.4,1.9,1.9,0,0,1,.72,1.41c0,3.1,2.16,5.08,3.81,7.32a36.17,36.17,0,0,0,2.45,3.27c2,2.15,4,4.36,6.8,5.62,2,.89,3.78,2.22,5.71,3.26,1.17.64,2.48,1,3.67,1.65,1.66.84,3.31,1.74,4.9,2.72.29.18.36.83.42,1.28a8.73,8.73,0,0,1-1.59,6.81,10.9,10.9,0,0,1-2.3,1.75c-1.65,1.18-3.05,2.61-5.36,2.84-1.6.16-3.11,1.32-4.67,2a6.76,6.76,0,0,1-1.2.28,48.27,48.27,0,0,1-4.73,1.08,12.27,12.27,0,0,1-3.52-.2,22,22,0,0,1-3.06-.84c-2.29-.72-4.59-1.47-6.88-2.2a2.85,2.85,0,0,0-.86-.24c-1.95.08-3.14-1.19-4.46-2.32-1.61-1.38-3.4-2.53-5-3.93s-2.86-3.06-4.45-4.41c-1.37-1.17-2-3.1-4.28-3.44-1.6-.23-3.07-1.41-4.61-2.13a2,2,0,0,0-.88-.12c-2.49.13-4.17-1.6-6.07-2.76-.34-.2-.17-1.49,0-2.23a21.76,21.76,0,0,1,.86-2.23c.77-2.38,1.5-4.77,2.22-7.17.16-.51.15-1.07.31-1.58.54-1.63,1.09-3.26,1.69-4.86.66-1.75,1.37-3.47,2.08-5.2C16,504.66,16.55,503.34,17.27,501.7Z"/><path class="cls-1" d="M142.51,521.78c-2.89.49-5.18-1.24-6.5-4.77h-2a7.41,7.41,0,0,1-.38,1.62,4.57,4.57,0,0,1-1.13,1.68c-.91.74-1-.41-1.51-.73a13.57,13.57,0,0,0-3-1c-.73,1.76-1.25,4.06-4,3.35a4.12,4.12,0,0,1-3-3.58c-1.64-.91-2.4.3-3.28,1.2a6.66,6.66,0,0,0-1.21,1.35c-.94,1.8-1.46.72-2.15-.2-1.55-2.08-3.28-1.87-4.56.5-.11.2-.24.38-.44.7a5.92,5.92,0,0,1-2.1-3.44,50.73,50.73,0,0,0-2.21-7c-.55-1.66-1.08-3.33-1.65-5-.65-1.89-1.5-3.73-2-5.66s-1-3.89.55-5.76a13,13,0,0,0,1.42-3.24c.95-2.3,1.85-4.62,2.92-6.86.19-.4,1.42-.8,1.68-.59,2.07,1.68,4.75,1.6,7,2.55,3.25,1.41,6.41.62,9.58,1a31.59,31.59,0,0,1,8.8,2.11,6.16,6.16,0,0,0,1.94.29c2.93.23,3.82,1.23,3.7,4.08a14.83,14.83,0,0,0,0,3.94c.49,2,1.33,4,2,6,.51,1.48,1.36,2.95,1.43,4.45C142.64,513.09,142.51,517.39,142.51,521.78Z"/><path class="cls-1" d="M245.69,440.19c3-1.85,5.77-3.64,8.63-5.36s5.47-3.2,8.21-4.78a1.69,1.69,0,0,1,.5-.14,49.2,49.2,0,0,0,5.85-1.52c3.4-1.34,6.7-2.94,10.05-4.43.1,0,.23-.15.32-.12,1.43.42,2.88.77,4.27,1.31,1.68.65,3.32,1.45,5,2.21q2.17,1,4.33,2.06c1,.47,1.92,1,2.9,1.43,3,1.39,6.08,2.59,9,4.18a52.87,52.87,0,0,0,5.84,2.66,12.41,12.41,0,0,1,5.08,3c1.09,1.23,1.55,2.49.86,3.57a4.61,4.61,0,0,1-3.18,1.88c-5.08.24-10.18.2-15.27.23a21.21,21.21,0,0,1-4.3-.18c-3.06-.62-6-1.72-9.1-2.11-2.34-.29-4.77.2-7.16.4A25.67,25.67,0,0,0,274,445a27.67,27.67,0,0,0-2.93.93,5,5,0,0,1-.49.2l-7.73,1.4c-1.15.21-2.29.47-3.45.65a3,3,0,0,1-1-.21,8.66,8.66,0,0,0-2.09-.4c-3.51.17-5.57-2.21-7.79-4.32C247.65,442.39,246.87,441.46,245.69,440.19Z"/><path class="cls-1" d="M34.37,256c1.28,0,2.36.08,3.42,0,4.72-.43,9.44-.92,14.16-1.39.3,0,.6,0,.9,0,4.64-.16,4.93.09,6.61,4.32.68,1.71,2.17,2.67,3.8,3.51,2.63,1.35,5.42,2.55,7.25,5a2.73,2.73,0,0,1,.24,1.74c-.39,3.75-.78,7.49-1.36,11.21-.06.34-1.59.9-2.09.66-1.56-.76-1.8-4.45-1-6.13a11.39,11.39,0,0,0,.66-4.42c0-.27-1.23-.56-1.66-.75-2.63,5-2,10-2,14.95,0,3.57-.57,4.15-4.11,4.1a8.21,8.21,0,0,1-1.79-.06c-2.54-.59-4.41,1.07-6.58,1.75a19.9,19.9,0,0,1-6.5.63c-.56,0-1.19-1.33-1.62-2.14a40.34,40.34,0,0,1-2.15-4.56c-.79-2-1.42-4.09-2.11-6.13-.12-.34-.24-.68-.34-1l-2.22-7.71a3.13,3.13,0,0,1-.12-.53c-.49-3.85-1-7.69-1.44-11.55A9.93,9.93,0,0,1,34.37,256Z"/><path class="cls-1" d="M241.76,224.26c-3.32-.19-6.64,1-9.85-.76a2.2,2.2,0,0,0-1-.19c-5.25,0-10.51-.15-15.75.13-2,.1-3.93,1.21-5.89,1.86-.17,0-.32.17-.49.21-2.19.49-4.4.92-6.59,1.47-1.12.28-2.22,1.17-3.27,1.08a36.39,36.39,0,0,1-5.53-1.3,56.68,56.68,0,0,0-1.83-6.42c-.71-1.74-2-3.23-2.87-4.92a40.2,40.2,0,0,1-2-5.11c-.1-.28.34-.76.53-1.14.32.19.63.4.94.59,1.2.73,2.4,1.47,3.61,2.18a3.72,3.72,0,0,0,1.15.47,7,7,0,0,0,2.95.35c1.87-.54,3.94-1.08,5.34-2.3,1.8-1.57,3.75-1,5.63-1.38,3.35-.73,6.74-2.76,6.51-7.23A12.33,12.33,0,0,0,210,194s-.13,0-.14-.09c-.58-1.8-1.22-3.59-1.65-5.43A1.76,1.76,0,0,1,209,187c.45-.17,1.15.27,1.74.43,2,.55,3.14,2.09,4.16,3.74,1.16,1.85,2.24,3.76,3.44,5.58.9,1.36,2.12,2.53,2.89,4,1.47,2.71,4.37,3.4,6.59,5a76.91,76.91,0,0,1,6.33,5.19,12.29,12.29,0,0,1,1.67,2.75c1.53,2.44,3.12,4.86,4.6,7.33A27,27,0,0,1,241.76,224.26Z"/><path class="cls-1" d="M197,170.65a23.74,23.74,0,0,0-.23-2.49c-.27-1.23-.62-2.44-.94-3.65,0-.12-.1-.22-.12-.34a74.31,74.31,0,0,0-1.53-7.44c-1.78-5.7-1-11.54-1.22-17.32-.13-3-.1-3,2.76-3.14a5.23,5.23,0,0,0,3.83-1.94,12.59,12.59,0,0,1,4.56-2.74c.55-.21,2,.68,2.3,1.38a3.81,3.81,0,0,1-.1,3.05c-1.51,2.54-.47,4.59,2.27,5.44,2.28.72,4.21-.21,6.29-.28.32,0,.61-.5,1-.56a6.22,6.22,0,0,1,2.14-.16,5.81,5.81,0,0,1,1.58.85c.15.08.39.09.48.21a26.32,26.32,0,0,1,3.08,4.54c1.23,2.91,1.91,6.07,4.76,8a1.16,1.16,0,0,1,.26,1.08c-.18.43-.61,1-1,1.05-3.36.39-5.64,2.43-7.55,5-1.39,1.83-2.61,3.78-3.92,5.67a47.54,47.54,0,0,1-3.89,5.38c-1.26,1.36-1.49-.79-2.18-1.2s-.82-2-1.53-2.78a3.23,3.23,0,0,0-2.53-1,34.16,34.16,0,0,0-4.71,2C199.67,169.69,198.48,170.1,197,170.65Z"/><path class="cls-1" d="M215.55,226.91c.83,2.54-1,4.13-1.7,6-.54,1.37-1.34,2.64-2,4-1.27,2.56-2.5,5.13-3.83,7.66a1.81,1.81,0,0,1-1.33.8c-1.6,0-3.2-.13-4.8-.23a9.89,9.89,0,0,0-1.41-.18c-5.7.49-11.36-.54-17-.34a7.58,7.58,0,0,1-6-2,3.21,3.21,0,0,0-1.33-.5,23,23,0,0,1-8.42-4.72c-2.17-1.79-4.64-3.21-7.5-5.15-.36-1,1-2,2-2.88,2-1.9,4.36-3.4,6.24-5.38a62.48,62.48,0,0,0,4.56-6.19,25,25,0,0,1,2.7-3.41c.22-.2,1.4.54,2.08.95.15.09.13.57.1.86-.28,2.85,1.58,4.74,3.16,6.67a31.51,31.51,0,0,0,4.82,4.77,11.32,11.32,0,0,0,3.86,1.59c1.64.47,3.31.27,5.06,1.12s4.23.3,6.32-.07c1.67-.3,3.16-1.51,4.82-1.86,3-.63,5.81-2.08,9-1.67Z"/><path class="cls-1" d="M15.15,233c.59,2.64.71,5.13,1.72,7.19,1.15,2.36.42,4.89,1.24,7.06.93,2.47.48,4.61,0,7a8.2,8.2,0,0,0,.51,3.06c.1.47.46.93.4,1.36-.26,2,1.41,3,2.07,4.54a5.29,5.29,0,0,0,.67,1.18A5.73,5.73,0,0,0,23.36,266c1.72.86,2.66,2.7,1.44,4.21a3.41,3.41,0,0,0-.53,2q0,6,.11,12a6.65,6.65,0,0,0,.73,2.05,4.67,4.67,0,0,1-.93,4.85,45.57,45.57,0,0,0-3.78,5.51c-1.64,3-4.1,2.83-6.15.8-.95-.94-2.2-1.59-3.16-2.53a50.44,50.44,0,0,1-4.3-4.71,52.36,52.36,0,0,1-3.21-4.95,4.57,4.57,0,0,1-.89-2.14,13,13,0,0,1,1.06-6.07c1-2,1-4.52,1.59-6.76.64-2.41,1.5-4.77,2.23-7.16.48-1.57,1-3.14,1.34-4.74.53-2.33.87-4.7,1.44-7,.66-2.75,1.49-5.46,2.22-8.19.11-.4.08-.83.15-1.24.51-2.78,1-5.55,1.56-8.32C14.31,233.47,14.61,233.37,15.15,233Z"/><path class="cls-1" d="M188.75,226.06c-2.41-2-4.53-3.68-6.49-5.51a6.44,6.44,0,0,1-1.67-2.72,51.23,51.23,0,0,1-1.45-6.38,76.5,76.5,0,0,1-1.42-10.29c-.07-2.43-1.42-4.83-2.19-7.24,0-.11,0-.24-.06-.35-.48-2-.9-4.13-1.49-6.15A25.44,25.44,0,0,0,172.3,184a51.4,51.4,0,0,0,21.45-3.19c.16.42.37.83.5,1.27.48,1.73.89,3.47,1.45,5.17.16.48.82.77,1.13,1.23,1.29,1.92,2.39,4,4.7,5a39.35,39.35,0,0,0,4.79,1.84c1,.25,1.84.39,2.39,1.36,1.18,2.08,2.62,4.14,1.86,6.68a3.67,3.67,0,0,1-1.81,2.09,48.71,48.71,0,0,1-4.88,1.35,18.38,18.38,0,0,0-4.5,1.68c-2.15,1.39-6.17,2-8.26.62a32.29,32.29,0,0,1-2.75-2.51c-1.85-1.52-3.63-1.13-4.1,1.12s-.83,4.71.86,6.94a15.77,15.77,0,0,1,1.63,4c.76,2,1.52,4,2.23,6.1C189.08,224.94,188.9,225.3,188.75,226.06Z"/><path class="cls-1" d="M218.56,227.85c1.28,1.42,2.36,2.48,3.27,3.66,1.09,1.41,2,2.94,3,4.39a18.12,18.12,0,0,1,2,2.83c.32.7.62,1.65-.89,2.19a9.29,9.29,0,0,0-3.8,2.88c-2.27,2.76-4.73,5.53-6.23,8.71a28.11,28.11,0,0,1-3,4.59,5.08,5.08,0,0,1-2.63,1.43c-1.48.46-3.09,1.12-4.56.94-3.09-.38-6.12-1.26-9.18-1.91a8.46,8.46,0,0,0-2.46-.38c-1.72.18-2.62-.95-3.74-1.88a22.76,22.76,0,0,0-2.9-1.66,40.15,40.15,0,0,1-4.94-3.15c-.61-.5-.68-1.75-.77-2.68a3,3,0,0,1,1.86-.56c4.4.77,8.77,1.66,13.28,1.3,2-.16,4-.24,5.92-.29a6.26,6.26,0,0,1,1.6.4,14.51,14.51,0,0,1-.61,2c-.18.37-.64.6-.91,1s-.63,1-.95,1.5c.34.17.74.55,1,.47a5,5,0,0,0,2.45-1.1c1.63-2,3.08-4.16,4.51-6.32.74-1.13,1.28-2.41,1.93-3.61,1-1.91,2.09-3.8,3.14-5.69.23-.4.48-.79.67-1.21.77-1.69,1.56-3.38,2.27-5.1A21.05,21.05,0,0,0,218.56,227.85Z"/><path class="cls-1" d="M222.48,225.48c2.11.38,4.21.79,6.32,1.14a11.66,11.66,0,0,0,2,.11h12.43a64.25,64.25,0,0,0,1.72,7,49.73,49.73,0,0,1,2.56,14.3,25.94,25.94,0,0,0,1.18,4.84c-1.9,1.4-2.78.11-3.77-.71-2-1.68-4-3.43-6.14-5-2.64-2-5.3-3.92-7-7-.92-1.66-2.5-3-3.76-4.43a62.78,62.78,0,0,1-4.44-5.36,20.34,20.34,0,0,1-1.68-4.16Z"/><path class="cls-1" d="M242.55,255.14c-.51,1.33-.94,2.27-1.23,3.26a1.73,1.73,0,0,0,.08,1.35c1,1.26.59,2.34-.33,3.34-.23.25-.86.49-1,.36-2.57-1.81-5.68-2.87-7.72-5.45-1.63-2-3.44-3.95-5-6.07a19.36,19.36,0,0,1-1.59-3.62,3.56,3.56,0,0,0-.76-1.2,1.48,1.48,0,0,1,0-2.43,16.62,16.62,0,0,1,3.39-2.39c1.76-.92,2.82.72,3.32,1.71,1.34,2.7,3.84,3.94,6,5.62a21.64,21.64,0,0,1,3.12,2.36A15.41,15.41,0,0,1,242.55,255.14Z"/><path class="cls-1" d="M90,429.18c2.92,3.07,5.63,6.13,8.6,8.92,1,1,2.67,1.24,4,1.86a6.39,6.39,0,0,1,.89.61c-.31.2-.6.54-.93.58a22.88,22.88,0,0,1-2.87.11c-2.46-.06-4.56,1-6.68,2a13.29,13.29,0,0,1-4.46,1.42,2.74,2.74,0,0,1-2.25-1.38,7.12,7.12,0,0,1,0-3.4,5.05,5.05,0,0,1,.92-2.17c1.32-1.77.56-4.25,2.2-6C90,431.2,89.84,429.91,90,429.18Z"/><path class="cls-1" d="M266.94,98.84l2.3,1.92c1.5,1.25,3,2.5,4.51,3.77.49.41,1.31.87,1.33,1.34a9.34,9.34,0,0,1-.51,3.48,31.56,31.56,0,0,1-2,4c-1,1.8-2,3.58-3,5.38l-.66-.17a19.27,19.27,0,0,1-.28-2.14,47.48,47.48,0,0,0-.12-5.73c-.5-3.14-1.32-6.23-2-9.35-.14-.69-.16-1.41-.24-2.12Z"/><path class="cls-1" d="M31.66,256.19a14.13,14.13,0,0,0,.12,1.69c.34,1.77.77,3.52,1.06,5.29a19.56,19.56,0,0,1,0,2.89,11.14,11.14,0,0,1-7.59-3.3c-1.59-1.56-2.74-3-2.57-5.3s.42-2.86,2.73-2.6A58.13,58.13,0,0,1,31.66,256.19Z"/><path class="cls-1" d="M105.22,293.71a42.72,42.72,0,0,1-1.6-6,50.91,50.91,0,0,1-.09-7c0-.35.33-.7.5-1.05a5.68,5.68,0,0,1,1,.55,22.6,22.6,0,0,1,2.54,2.24c1.41,1.57,1.24,3,.19,4.9a25.75,25.75,0,0,0-1.57,4.58c-.18.58-.32,1.16-.48,1.74Z"/><path class="cls-1" d="M65.17,188.88c-1.11-2-.65-4.95.87-5.87.17-.1,1,.35.95.5a9.54,9.54,0,0,1-.52,2.09C66.08,186.67,65.64,187.72,65.17,188.88Z"/><path d="M148.85,400.12a31.21,31.21,0,0,1,0,5.21c-.5,3-1.32,5.89-2,8.83-.1.4-.19.81-.28,1.22a42.19,42.19,0,0,1-1.49,6.3,41.93,41.93,0,0,0-2.53,9.83c-.22,1.57-1.35,3-2.06,4.53-.12.26-.18.54-.29.81a32.38,32.38,0,0,1-1.68,3.86c-.19.31-1.16.17-1.77.25a11.18,11.18,0,0,1,.06-2.17,17.53,17.53,0,0,1,.81-2c.79-2.38,1.54-4.76,2.31-7.14,0-.11.1-.22.13-.33.47-2.1.86-4.22,1.42-6.3.65-2.44,1.45-4.84,2.19-7.26,0-.11.07-.23.09-.34l1.5-9.08c.42-2.6.87-5.19,1.22-7.8.15-1.12.06-2.27.14-3.4a4.54,4.54,0,0,1,.36-1.9c.28-.51.92-.81,1.41-1.19.25.52.71,1,.73,1.58.09,2.15,0,4.31,0,6.47Z"/><path d="M213.36,305.28c1.45-.09,2.85-.69,3.85.8a.55.55,0,0,0,.31.16,33.12,33.12,0,0,1,5.75,1.55c4,1.87,8.19.75,12.28,1.1,2.11.18,2.81.95,2.58,3.44-.77.06-1.58.14-2.39.16-2,0-4,.11-5.91,0a19.24,19.24,0,0,1-3.3-.77c-.18,0-.34-.11-.51-.15-2.6-.52-5.21-1-7.78-1.58-1.57-.37-3.08-1-4.88-1.53Z"/><path d="M152.3,259.93a29.79,29.79,0,0,1,6.92,8.08c.93,1.6,1.57,3.37,2.45,5a34.63,34.63,0,0,1,2.66,7.6,15.06,15.06,0,0,1,.91,3.4c0,1.48-.66,2.21-2.11,2.12a65,65,0,0,0-1.76-6.63c-.94-2.53-2.33-4.89-3.35-7.39-1.46-3.56-4.12-6.27-6.2-9.38-.44-.66-.19-1.78-.25-2.69Z"/><path d="M221,321.4c.51.14.78.14.84.25,1.1,1.87,3.4,2.1,4.8,3.51s2.63,3.27,4.23,4.53c1.84,1.47,2.95,3.78,5.38,4.58.54.17.89.87,1.41,1.19a43,43,0,0,1,3.89,2.33c.39.3.23,1.32.32,2-.65,0-1.42.31-1.93.06-2.05-1-4.05-2.21-6-3.42a4.39,4.39,0,0,1-1.51-1.52c-1.46-2.6-4.3-3.69-6.16-5.84s-3.63-4.23-5.38-6.41C220.73,322.45,221,321.88,221,321.4Z"/><path d="M133.91,377.69c1.61-2.7,4.38-3.31,6.67-4.66a17,17,0,0,0,3.19-3,36.11,36.11,0,0,1,2.8-3c.44-.37,1.33-.19,2.11-.27a2.27,2.27,0,0,1-1,2.76c-1.46,1.13-2.5,2.78-3.82,4.1a6.66,6.66,0,0,1-2.68,1.89,9,9,0,0,0-3.78,2.13A2.82,2.82,0,0,1,133.91,377.69Z"/><path d="M153,375.33c.93.55,1.61,1,2.33,1.37,1.07.53,2.18,1.44,3.23,1.39,1.38-.06,2.74-.88,4.08-1.44a21.44,21.44,0,0,0,2-1.09c1.54,2.08-.05,3.13-1,3.58-2.19,1.1-4.51,2.15-7.17,1.51A5,5,0,0,1,153,375.33Z"/><path d="M256,419.11l-1.9,1.82c-2-2.82-3.87-5.56-5.79-8.27-.15-.2-.5-.24-.7-.42a4.13,4.13,0,0,1-1.24-1.38c-.08-.24.69-1.1,1.08-1.1a2.69,2.69,0,0,1,2,.73C251.69,413.27,253.8,416.16,256,419.11Z"/><path d="M248.9,352.3c1.52-2.14,2.67-1.85,4.75-.1a10.6,10.6,0,0,1,3.14,5.18l-1.25,1.86a6.75,6.75,0,0,0-1.16-1.94c-1.32-1.07-1.92-2.95-3.94-3.29C249.87,353.91,249.44,352.94,248.9,352.3Z"/><path d="M73.73,211.86c-3.51-.37-6.61-.83-9.43-2.43-.89-.51-1.85-.89-2.75-1.39a3.7,3.7,0,0,1-.76-.77c.37-.22.77-.66,1.1-.61,1.83.29,3.65.71,5.47,1.07a12.73,12.73,0,0,0,2.11.35c2.75,0,5.5,0,8.25,0a10.36,10.36,0,0,0,3.82-.86c2.41-1,5.17-1.16,7.8-1.59,1.11-.19,1.6.52,1.63,1.59,0,1.3-1,.92-1.66,1a32.27,32.27,0,0,0-8.72,2.14A40.28,40.28,0,0,1,73.73,211.86Z"/><path d="M107,219.94c2.54-1.65,3.07.45,3.85,1.28a24.24,24.24,0,0,0,8,6,11.08,11.08,0,0,1,2.22,1.71,8.13,8.13,0,0,1-2.6.45,9,9,0,0,1-3.31-1.25c-2.48-1.62-5.07-3.16-6.63-5.85C108.14,221.5,107.58,220.75,107,219.94Z"/><path d="M126.12,128.58c-1.25.26-1.79-.29-2.3-1.28-1.35-2.63-2.7-5.31-6.42-5a2.25,2.25,0,0,1-2.49-2C120.35,118.4,127,123.27,126.12,128.58Z"/><path d="M112.46,197.27c3.92-2.16,8.72-3.46,9-9.21h1.94c1.07,2.33-.73,5.67-2.77,7.17-1.14.84-2.17,2-3.44,2.44a17.89,17.89,0,0,1-4.6.37Z"/><path d="M135.93,161.88c.55,1.09,1.8,2.47,1.5,3.2-.76,1.82-.42,4.16-2.27,5.48a19.05,19.05,0,0,1-2.08,1.14c-.67-1.52-.24-2.14.48-3.17.94-1.34,1-3.29,1.45-5,.12-.5.19-1,.28-1.5Z"/><path d="M132.56,132.56c2.27-.33,4,.1,5.18,2.18.35.63,1.2,1,1.78,1.47a3.35,3.35,0,0,1,.51.79,8.31,8.31,0,0,1-.85.51c-1.83.73-2.81-.79-4.06-1.58a11,11,0,0,0-1.39-1A1.77,1.77,0,0,1,132.56,132.56Z"/><path d="M77.26,229.69c0-2.92-.11-5.42.07-7.91,0-.66,1-1.25,1.57-1.89a4.75,4.75,0,0,1,.28,4.76,4.2,4.2,0,0,0-.28,2.19c.06.75.58,1.51.48,2.2C79.34,229.32,78.17,229.43,77.26,229.69Z"/><path d="M100.7,205.9l-2-.91c.56-.6,1-1.53,1.72-1.72a13.47,13.47,0,0,1,3.71-.21c.26,0,.7.32.72.53a1,1,0,0,1-.52.76C103.11,204.91,101.89,205.4,100.7,205.9Z"/><path d="M65.84,362.05c1.56-.11,2.63-.48,4.13.35,2.88,1.59,5.55,4.11,9.34,3.31,1-.2,1.59.13,1.63,1.29,0,1.36-.87,1.21-1.69,1.2a14.74,14.74,0,0,1-3.94-.14,20.06,20.06,0,0,1-4.6-2.15c-1.51-.89-2.89-2-4.31-3C66.23,362.75,66.15,362.51,65.84,362.05Z"/><path d="M60.44,422.4c1,2.16-.59,3.36-1.45,4.83A12.5,12.5,0,0,0,57.17,431a19.37,19.37,0,0,1-1.35,5.44c-.52,1.05-1.2,1.32-1.84.93a2.45,2.45,0,0,1-.58-2.05,17,17,0,0,1,1.11-3.79c.6-1.47,1.39-2.86,2.07-4.3A19.91,19.91,0,0,0,58,423.8C58.38,422.42,59.16,422.15,60.44,422.4Z"/><path d="M54,456.54c1,2.29.37,4.6.22,6.85,0,.25-1.18.43-1.82.64C51.23,460.32,51.72,458,54,456.54Z"/><path d="M243.07,63.29c2.45-.15,3.3.44,4,2.94.5,1.69,1.53,3.13,1.54,5.09,0,1.48,1.34,2.92,2,4.43a12.11,12.11,0,0,1,.4,2.51l-2.25.1a48.23,48.23,0,0,0-1.68-5.4c-.91-2-2.24-3.86-3.17-5.87A18.87,18.87,0,0,1,243.07,63.29Z"/><path d="M257.45,103.39c-.5-2.28-1-4.6-1.55-6.89-.26-1-.91-2-1.11-3a10.65,10.65,0,0,1,.33-2.77c2,2.38,3.49,4.37,3.47,7.17a6.26,6.26,0,0,0,.72,1.88,8.48,8.48,0,0,1,.52,1.67C260.15,103.62,259.83,103.88,257.45,103.39Z"/><path d="M223.21,59.06a23.36,23.36,0,0,1,2.47,1.73,31.76,31.76,0,0,1,2.18,2.45c.14.17.36.39.33.56-.23,1.67,1.45,2.08,2.05,3.19.25.46.46,1.32.22,1.59a1.92,1.92,0,0,1-1.68.56,4.36,4.36,0,0,1-1.58-1.56c-1-1.33-1.61-3.07-2.86-4C222.63,62.37,223.47,61,223.21,59.06Z"/><path d="M193.8,82.27c-.77-.26-1.29-.4-1.76-.61a10,10,0,0,0-1.85-.93c-1.66-.36-2.73-1.64-2.16-2.88.12-.27.66-.63.86-.55,2,.75,4,1.54,5.91,2.46.36.17.74,1.16.58,1.37A6,6,0,0,1,193.8,82.27Z"/><path d="M234.88,202.7c-.11-.6-.23-1.21-.35-1.81,2.94-1.33,5.75-2.63,8.59-3.84,1.47-.63,3-1,4.49-1.66a29.25,29.25,0,0,0,4.74-2.72c2-1.45,3.79-3.13,5.67-4.72,2.59-2.2,5.45-4.17,7.64-6.71,1.08-1.24,3.07-2,3.16-4.14,0-.29,1.31-.53,1.94-.76,1.24,2-.31,3-1.18,3.92-2.64,2.69-5.51,5.17-8.26,7.76a15.58,15.58,0,0,0-1.4,1.78c.12.09.41.39.53.33,2.05-1,4.07-2,6.11-3.06,1-.5,2-.88,3-1.46a34.72,34.72,0,0,1,3.2-2.29,11.61,11.61,0,0,1,3.27-.42,7,7,0,0,1-4,3.9,52,52,0,0,0-4.48,2.73,46.22,46.22,0,0,1-4.35,2.15c-2,.83-3.92,2-6,2.2a17.45,17.45,0,0,0-6.94,2.73q-2.21,1.27-4.52,2.36a28.58,28.58,0,0,1-2.74.95c-1.69.6-3.36,1.23-5.05,1.81C237.06,202.05,236.12,202.31,234.88,202.7Z"/><path d="M272,152a51.65,51.65,0,0,1-3.53,6.21c-1.92,2.52-3.34,5.59-6.53,6.93-.19.08-.45,0-.78-.05a3.07,3.07,0,0,1,.84-2.56c1.52-1.78,3.75-3,4.35-5.73.38-1.69,2.08-3.05,3-4.66C270.11,150.88,270.82,151,272,152Z"/><path d="M107.4,348.76V346.4c1.48.43,2.74.85,4,1.17,2.66.64,5.29,1.29,7.88-.48.72-.49,1.9-.32,2.85-.46.41,2.22-.4,3.52-2.45,3.67a52.33,52.33,0,0,1-8.21,0C110.19,350.23,109,349.38,107.4,348.76Z"/></g></g></svg>