<svg xmlns="http://www.w3.org/2000/svg" viewBox="0 0 426.96 567.75"><defs><style>.cls-1{fill:#fff;}</style></defs><g id="Layer_2" data-name="Layer 2"><g id="Layer_1-2" data-name="Layer 1"><path class="cls-1" d="M179.81,182.46l.08-.84c7.41.68,14.83,1.3,22.22,2.1,2.16.23,5.46.31,6.17,1.59a49.41,49.41,0,0,1,4.9,13c.59,2.64-.58,5.66-.82,8.52a59.22,59.22,0,0,0,4.87,29.6c2,4.53,4.38,8.91,6.31,13.48A29.75,29.75,0,0,1,225.9,258c.51,4.68-1.1,10.33,1,13.91,3.37,5.71.42,9.72-1.14,14.22-1.63,4.72-4.05,9.15-5.92,13.79-1.72,4.28-3.31,8.64-4.68,13.05a47.59,47.59,0,0,0-1.47,8c-.09.68,1,1.69.77,2.14a101.12,101.12,0,0,1-6.12,11c-5.11,7.45-11,14.4-15.66,22.12-3.55,5.91-7.73,12.6-8,19.1-.57,13,1.29,26.12,2.26,39.19a91,91,0,0,0,1.38,9.84c1.55,8.54,3.53,17,4.76,25.59,1.27,8.92,1.61,18,2.94,26.89.35,2.34,2.85,4.37,4.38,6.54.87,1.23,1.76,2.45,2.64,3.68-3.5,2.1-6.77,4.84-10.54,6.17-6.41,2.26-13.14,3.59-19.71,5.4-2.93.81-5.06,6.57-3.26,8.52,2.25,2.42,13.95,3,17.2,2.39a77.81,77.81,0,0,1,19-1.67c7.57.42,15,2.61,22.61,3.29,5.21.47,9.78-5.44,9.11-10.65-.42-3.31-.9-6.63-1.15-10a2.56,2.56,0,0,1,1.34-2c4.25-.74,6.77-3,6.26-7.42-.39-3.32-2.1-6.51-2.25-9.81-.2-4.27.82-8.59.85-12.89,0-4.6-.51-9.2-.73-13.81-.09-1.82-.47-3.83.11-5.46,1.73-4.8,4.21-9.35,5.75-14.19,1.78-5.57,3.54-11.29,4.11-17.06.86-8.84.74-17.78,1-26.68,0-2-1-4.49-.16-6a105.09,105.09,0,0,1,7.94-11.07c3.8-5,4.17-5,6.58-2.15,4.69,5.45,9.83,10.52,14.56,15.94,5.4,6.21,10.56,12.63,15.8,19,4.2,5.09,8.26,10.3,12.57,15.3,5,5.75,10.43,11.09,15.12,17.05,4.91,6.24,9.33,12.88,13.62,19.56,3.48,5.43,6.46,11.18,9.63,16.8,2.4,4.26,4.72,8.57,7.11,12.84,2.64,4.72,5.77,9.23,7.84,14.19,2.39,5.7,9.58,9.95,15.49,8.29,1.18-.33,3-.82,3.63-.25a68.12,68.12,0,0,1,9,8.94c1.35,1.71,2.65,5.8,2,6.37a58.39,58.39,0,0,1-12.18,7.79c-7.17,3.38-14.7,6-21.93,9.29-5.55,2.52-6.71,9.13-2.14,12.07a43.82,43.82,0,0,0,10,4.26c2.58.85,5.57,2,8,1.44,5.23-1.22,10.17-3.64,15.34-5.21,4-1.21,8.17-1.63,12.13-2.87a162.82,162.82,0,0,0,17.21-6.25c2.67-1.18,6.06-3.25,6.79-5.62.83-2.74-.36-6.52-1.69-9.37-1.8-3.9-4.64-7.3-6.88-11s-3.77-7.91-6.51-11.13c-4.3-5-5.11-8.69,1.26-12.71,2-1.29,4.09-5.05,3.69-7.22-.66-3.51-3.59-6.54-5.11-10-3-6.75-5.91-13.57-8.44-20.51-1.74-4.77-2.33-10-4.23-14.65a255.32,255.32,0,0,0-11.12-24.4,193.37,193.37,0,0,0-12.36-19.28c-3.22-4.63-7.22-8.71-10.37-13.37a153.39,153.39,0,0,1-11.09-18.43A150,150,0,0,1,345.78,338c-1.51-4.87-1.8-10.11-2.82-15.15-.44-2.16-1.38-4.2-2-6.32-1-3.43-2.19-6.53,2.55-8.75,3.49-1.63,7.76-3.76,6-9.27-1.4-4.45-2.88-8.88-4.08-13.38-.73-2.76-.76-5.69-1.5-8.44-1.38-5.12-2.79-10.25-4.66-15.19-1.52-4.06-3-8.54-5.81-11.61-5.25-5.74-9-11.38-8.11-19.7.47-4.2-.42-8.68-1.4-12.87-.76-3.27-2.7-6.24-3.93-9.42-1-2.61-1.67-5.36-2.66-8-1.92-5.1-4.06-10.12-5.93-15.23-1.53-4.19-2.8-8.47-4.19-12.7-1.55-4.71-3.59-9.32-4.53-14.15-1-5.34-.89-10.9-1.64-16.31a62.52,62.52,0,0,0-2.72-12.3c-2-5.78-4.76-11.31-7.11-17s-4.64-11.43-6.94-17.15C281.88,89,279.78,82.8,277,77c-1.78-3.67-4-8.35-7.21-9.79-4.12-1.84-2.92-4.23-2.44-6.39,2.44-11,1.26-21.65-4.67-31a92.31,92.31,0,0,0-16.2-18.56c-3.35-3-8.46-4.57-13.05-5.64-3.9-.9-8.25-.58-12.3,0-2.93.4-6.46,1.31-8.38,3.29-4.91,5.09-10.59,10.29-13.08,16.59-2.25,5.72-.53,13-.85,19.49-.29,5.92-1,11.81-1.47,17.72-.23,2.71-1.62,6.92-.43,7.86,3.43,2.71,8,4.07,7.39,9.73,0,.11.38.3.36.35-.84,2.06-1.17,5.24-2.66,5.94-5.07,2.37-10.56,3.87-15.89,5.71-4.53,1.57-9,3.28-13.6,4.68-3.84,1.17-7.85,1.81-11.69,3-5.84,1.8-11.48,4.58-17.43,5.65-7.17,1.28-14.59,1.16-21.89,1.73a91.62,91.62,0,0,0-10.21,1.14c-5.21,1-7.46-.67-6.76-5.85.46-3.43,1.6-6.76,2.31-10.16.94-4.47,1.35-9.09,2.76-13.39,1-2.92-.11-7.28,5.34-8,3.09-.42,5-3.3,2.08-6.71a9.65,9.65,0,0,1-1.35-2.1A84,84,0,0,1,111,52.46c-.8-2.36-1.4-5.29-.73-7.57,1.8-6.13,5.1-11.9,6.22-18.1.49-2.74-2.16-6.94-4.59-9.15A154.11,154.11,0,0,0,93.12,3.06,21.17,21.17,0,0,0,82.6.15c-5.79-.21-12-.47-17.29,1.32C61.37,2.8,57.8,6.89,55.37,10.6c-4.13,6.28-8.57,12.9-10.34,20-1.51,6.06.43,13,1.07,19.55.24,2.43,1.31,4.77,1.68,7.2.65,4.35,2.5,9.21,1.26,13C46.81,77.24,42.91,83.62,39.27,90c-4,7-8.05,14.21-13,20.59-5.82,7.49-8.37,16.11-10.77,24.9-1.6,5.86-3.41,11.76-4.1,17.76a293.1,293.1,0,0,0-2,30.34c-.07,6.34,1.54,12.69,2.07,19.07.57,6.81.85,13.66,1.1,20.5q.38,10.69.43,21.4c0,7.29-.13,14.59-.18,21.89a16.4,16.4,0,0,0,.27,3.2c1.21,6.33,3.29,12.61,3.53,19,.54,14.25,0,28.54.31,42.81.09,3.5.1,8,5.2,9.24.77.18,1.95.95,2,1.51.56,8.26,1.18,16.52,1.34,24.79.23,11.45,0,22.91.14,34.36.07,3.89.06,8.15,1.62,11.53,2,4.38,1.12,7.66-.57,11.69-3.27,7.83-5.88,15.92-8.73,23.92-1.42,4-2.85,8-4.12,12.11-2.46,7.89-5.4,15.7-7,23.76-1.95,9.54-2.9,19.29-4,29s-2,19.45-2.69,29.2A6,6,0,0,0,7,549.24c6-.89,6.74,4,9.77,6.65,4.87,4.22,10,8.67,15.86,11.05,4.19,1.71,9.69.21,14.6.1.4,0,.78-.41,1.19-.58,4.23-1.74,8.22-4.13,13.24-2.09,1.45.59,4.13-.45,5.52-1.61.88-.73,1.18-3.89.45-4.55-5.37-4.87-11.37-9.09-16.52-14.17-2-2-7.36-2.38-4.14-8.38,5.4-10.08,9.61-20.82,13.91-31.45a131.12,131.12,0,0,0,6.22-19.3c2.22-9.56,3.57-19.32,5.54-28.94a110.55,110.55,0,0,1,4.07-15.46c2.47-6.89,6.21-13.37,8.21-20.37,2-7.16,2.51-14.77,3.95-22.13,2.09-10.74,4.42-21.44,6.77-32.13.06-.28,2.14-.6,2.34-.28,2.84,4.33,5.47,8.8,8.23,13.19,4.13,6.59,7.43,13.45,6.91,21.53-.34,5.31-.59,10.63-1.13,15.92-.67,6.57-1.65,13.12-2.41,19.69-.92,7.88-1.6,15.8-2.67,23.66-1.19,8.85-2.67,17.67-4.08,26.49-.45,2.83-1.59,5.65-1.49,8.44.11,3,.35,7.32,2.24,8.68,4.09,3,3.07,5.79,2.6,9.66-.33,2.78.9,7.57,2.78,8.4,3,1.33,7.15,0,10.81,0,8.58.05,17.15.2,25.73.4,10,.23,20,.72,30,.63,1.2,0,2.79-2.85,3.4-4.65a4.11,4.11,0,0,0-1.69-3.67c-5.2-2-10.57-3.52-15.84-5.34a83.89,83.89,0,0,1-10.7-4.25c-1-.48-5.53-1.93-.67-4.21a4.46,4.46,0,0,0,2.4-2.87c.6-6.56,1-13.15,1.27-19.74.51-11.44.39-22.93,1.49-34.31,1-9.86,3.37-19.58,4.87-29.4,1.1-7.17,2.45-14.4,2.46-21.61s-1.36-14.32-2.46-21.43a37.57,37.57,0,0,0-2.74-9c-2.2-5.14-4.81-10.09-7.14-15.18-2.12-4.62-4.65-9.18-5.84-14.05-.44-1.79-8.19-5.67.56-7.06.38-.06.63-.79,1-1.15a89.3,89.3,0,0,0,6.38-6.38c1.08-1.31,2.49-3.74,2-4.76-3.69-7.34-7.89-14.42-11.83-21.64-2.57-4.71-5-9.5-7.41-14.3-1.87-3.76-4.41-7.43-5.19-11.42-1.11-5.67-.81-11.6-1.22-17.41-.81-11.41-1.69-22.82-2.55-34.24-.46-6.17-.9-12.35-1.45-18.53-.41-4.66-.83-9.32-1.5-13.95-.42-2.88-4-7,3.44-4.76,5.53,1.68,11.52,2,17.34,2.51C155.81,180.59,167.82,181.47,179.81,182.46Z"/><path d="M179.81,182.46c-12-1-24-1.87-36-3-5.82-.55-11.81-.83-17.34-2.51-7.49-2.27-3.86,1.88-3.44,4.76.67,4.63,1.09,9.29,1.5,13.95.55,6.18,1,12.36,1.45,18.53.86,11.42,1.74,22.83,2.55,34.24.41,5.81.11,11.74,1.22,17.41.78,4,3.32,7.66,5.19,11.42,2.4,4.8,4.84,9.59,7.41,14.3,3.94,7.22,8.14,14.3,11.83,21.64.52,1-.89,3.45-2,4.76a89.3,89.3,0,0,1-6.38,6.38c-.37.36-.62,1.09-1,1.15-8.75,1.39-1,5.27-.56,7.06,1.19,4.87,3.72,9.43,5.84,14.05,2.33,5.09,4.94,10,7.14,15.18a37.57,37.57,0,0,1,2.74,9c1.1,7.11,2.47,14.29,2.46,21.43s-1.36,14.44-2.46,21.61c-1.5,9.82-3.91,19.54-4.87,29.4-1.1,11.38-1,22.87-1.49,34.31-.29,6.59-.67,13.18-1.27,19.74a4.46,4.46,0,0,1-2.4,2.87c-4.86,2.28-.28,3.73.67,4.21a83.89,83.89,0,0,0,10.7,4.25c5.27,1.82,10.64,3.33,15.84,5.34a4.11,4.11,0,0,1,1.69,3.67c-.61,1.8-2.2,4.63-3.4,4.65-10,.09-20-.4-30-.63-8.58-.2-17.15-.35-25.73-.4-3.66,0-7.79,1.32-10.81,0-1.88-.83-3.11-5.62-2.78-8.4.47-3.87,1.49-6.7-2.6-9.66-1.89-1.36-2.13-5.67-2.24-8.68-.1-2.79,1-5.61,1.49-8.44,1.41-8.82,2.89-17.64,4.08-26.49,1.07-7.86,1.75-15.78,2.67-23.66.76-6.57,1.74-13.12,2.41-19.69.54-5.29.79-10.61,1.13-15.92.52-8.08-2.78-14.94-6.91-21.53-2.76-4.39-5.39-8.86-8.23-13.19-.2-.32-2.28,0-2.34.28-2.35,10.69-4.68,21.39-6.77,32.13-1.44,7.36-1.9,15-3.95,22.13-2,7-5.74,13.48-8.21,20.37A110.55,110.55,0,0,0,72.59,456c-2,9.62-3.32,19.38-5.54,28.94a131.12,131.12,0,0,1-6.22,19.3c-4.3,10.63-8.51,21.37-13.91,31.45-3.22,6,2.16,6.42,4.14,8.38,5.15,5.08,11.15,9.3,16.52,14.17.73.66.43,3.82-.45,4.55-1.39,1.16-4.07,2.2-5.52,1.61-5-2-9,.35-13.24,2.09-.41.17-.79.57-1.19.58-4.91.11-10.41,1.61-14.6-.1-5.84-2.38-11-6.83-15.86-11.05-3-2.62-3.73-7.54-9.77-6.65A6,6,0,0,1,0,542.48q1-14.62,2.69-29.2c1.09-9.7,2-19.45,4-29,1.64-8.06,4.58-15.87,7-23.76,1.27-4.07,2.7-8.09,4.12-12.11,2.85-8,5.46-16.09,8.73-23.92,1.69-4,2.6-7.31.57-11.69-1.56-3.38-1.55-7.64-1.62-11.53-.19-11.45.09-22.91-.14-34.36-.16-8.27-.78-16.53-1.34-24.79,0-.56-1.22-1.33-2-1.51-5.1-1.21-5.11-5.74-5.2-9.24-.35-14.27.23-28.56-.31-42.81-.24-6.36-2.32-12.64-3.53-19a16.4,16.4,0,0,1-.27-3.2c.05-7.3.21-14.6.18-21.89q-.06-10.71-.43-21.4c-.25-6.84-.53-13.69-1.1-20.5-.53-6.38-2.14-12.73-2.07-19.07a293.1,293.1,0,0,1,2-30.34c.69-6,2.5-11.9,4.1-17.76,2.4-8.79,4.95-17.41,10.77-24.9,5-6.38,9-13.55,13-20.59,3.64-6.33,7.54-12.71,9.77-19.57,1.24-3.81-.61-8.67-1.26-13-.37-2.43-1.44-4.77-1.68-7.2-.64-6.53-2.58-13.49-1.07-19.55,1.77-7.11,6.21-13.73,10.34-20,2.43-3.71,6-7.8,9.94-9.13C70.64-.32,76.81-.06,82.6.15A21.17,21.17,0,0,1,93.12,3.06a154.11,154.11,0,0,1,18.8,14.58c2.43,2.21,5.08,6.41,4.59,9.15-1.12,6.2-4.42,12-6.22,18.1-.67,2.28-.07,5.21.73,7.57a84,84,0,0,0,4.61,9.75,9.65,9.65,0,0,0,1.35,2.1c3,3.41,1,6.29-2.08,6.71-5.45.74-4.38,5.1-5.34,8-1.41,4.3-1.82,8.92-2.76,13.39-.71,3.4-1.85,6.73-2.31,10.16-.7,5.18,1.55,6.85,6.76,5.85a91.62,91.62,0,0,1,10.21-1.14c7.3-.57,14.72-.45,21.89-1.73,6-1.07,11.59-3.85,17.43-5.65,3.84-1.19,7.85-1.83,11.69-3,4.58-1.4,9.07-3.11,13.6-4.68,5.33-1.84,10.82-3.34,15.89-5.71,1.49-.7,1.82-3.88,2.66-5.94,0,0-.37-.24-.36-.35.57-5.66-4-7-7.39-9.73-1.19-.94.2-5.15.43-7.86.5-5.91,1.18-11.8,1.47-17.72.32-6.54-1.4-13.77.85-19.49,2.49-6.3,8.17-11.5,13.08-16.59,1.92-2,5.45-2.89,8.38-3.29,4-.54,8.4-.86,12.3,0,4.59,1.07,9.7,2.61,13.05,5.64a92.31,92.31,0,0,1,16.2,18.56c5.93,9.32,7.11,20,4.67,31-.48,2.16-1.68,4.55,2.44,6.39C273,68.6,275.17,73.28,277,77c2.83,5.85,4.93,12,7.35,18.1,2.3,5.72,4.57,11.45,6.94,17.15s5.07,11.2,7.11,17a62.52,62.52,0,0,1,2.72,12.3c.75,5.41.59,11,1.64,16.31.94,4.83,3,9.44,4.53,14.15,1.39,4.23,2.66,8.51,4.19,12.7,1.87,5.11,4,10.13,5.93,15.23,1,2.62,1.64,5.37,2.66,8,1.23,3.18,3.17,6.15,3.93,9.42,1,4.19,1.87,8.67,1.4,12.87-.94,8.32,2.86,14,8.11,19.7,2.82,3.07,4.29,7.55,5.81,11.61,1.87,4.94,3.28,10.07,4.66,15.19.74,2.75.77,5.68,1.5,8.44,1.2,4.5,2.68,8.93,4.08,13.38,1.74,5.51-2.53,7.64-6,9.27-4.74,2.22-3.58,5.32-2.55,8.75.64,2.12,1.58,4.16,2,6.32,1,5,1.31,10.28,2.82,15.15a150,150,0,0,0,8.05,20.89,153.39,153.39,0,0,0,11.09,18.43c3.15,4.66,7.15,8.74,10.37,13.37a193.37,193.37,0,0,1,12.36,19.28,255.32,255.32,0,0,1,11.12,24.4c1.9,4.68,2.49,9.88,4.23,14.65,2.53,6.94,5.44,13.76,8.44,20.51,1.52,3.43,4.45,6.46,5.11,10,.4,2.17-1.65,5.93-3.69,7.22-6.37,4-5.56,7.67-1.26,12.71,2.74,3.22,4.28,7.45,6.51,11.13s5.08,7.1,6.88,11c1.33,2.85,2.52,6.63,1.69,9.37-.73,2.37-4.12,4.44-6.79,5.62a162.82,162.82,0,0,1-17.21,6.25c-4,1.24-8.17,1.66-12.13,2.87-5.17,1.57-10.11,4-15.34,5.21-2.44.56-5.43-.59-8-1.44a43.82,43.82,0,0,1-10-4.26c-4.57-2.94-3.41-9.55,2.14-12.07,7.23-3.28,14.76-5.91,21.93-9.29A58.39,58.39,0,0,0,393.46,516c.69-.57-.61-4.66-2-6.37a68.12,68.12,0,0,0-9-8.94c-.66-.57-2.45-.08-3.63.25-5.91,1.66-13.1-2.59-15.49-8.29-2.07-5-5.2-9.47-7.84-14.19-2.39-4.27-4.71-8.58-7.11-12.84-3.17-5.62-6.15-11.37-9.63-16.8-4.29-6.68-8.71-13.32-13.62-19.56-4.69-6-10.16-11.3-15.12-17.05-4.31-5-8.37-10.21-12.57-15.3-5.24-6.35-10.4-12.77-15.8-19-4.73-5.42-9.87-10.49-14.56-15.94-2.41-2.81-2.78-2.87-6.58,2.15a105.09,105.09,0,0,0-7.94,11.07c-.84,1.48.21,3.95.16,6-.22,8.9-.1,17.84-1,26.68-.57,5.77-2.33,11.49-4.11,17.06-1.54,4.84-4,9.39-5.75,14.19-.58,1.63-.2,3.64-.11,5.46.22,4.61.76,9.21.73,13.81,0,4.3-1,8.62-.85,12.89.15,3.3,1.86,6.49,2.25,9.81.51,4.38-2,6.68-6.26,7.42a2.56,2.56,0,0,0-1.34,2c.25,3.33.73,6.65,1.15,10,.67,5.21-3.9,11.12-9.11,10.65-7.58-.68-15-2.87-22.61-3.29a77.81,77.81,0,0,0-19,1.67c-3.25.64-14.95,0-17.2-2.39-1.8-1.95.33-7.71,3.26-8.52,6.57-1.81,13.3-3.14,19.71-5.4,3.77-1.33,7-4.07,10.54-6.17-.88-1.23-1.77-2.45-2.64-3.68-1.53-2.17-4-4.2-4.38-6.54-1.33-8.91-1.67-18-2.94-26.89-1.23-8.58-3.21-17.05-4.76-25.59a91,91,0,0,1-1.38-9.84c-1-13.07-2.83-26.19-2.26-39.19.28-6.5,4.46-13.19,8-19.1,4.65-7.72,10.55-14.67,15.66-22.12a101.12,101.12,0,0,0,6.12-11c.23-.45-.86-1.46-.77-2.14a47.59,47.59,0,0,1,1.47-8c1.37-4.41,3-8.77,4.68-13.05,1.87-4.64,4.29-9.07,5.92-13.79,1.56-4.5,4.51-8.51,1.14-14.22-2.11-3.58-.5-9.23-1-13.91a29.75,29.75,0,0,0-2.36-8.14c-1.93-4.57-4.29-9-6.31-13.48a59.22,59.22,0,0,1-4.87-29.6c.24-2.86,1.41-5.88.82-8.52a49.41,49.41,0,0,0-4.9-13c-.71-1.28-4-1.36-6.17-1.59-7.39-.8-14.81-1.42-22.22-2.1ZM298.65,304.77h.14c0,4,.09,8,0,12.05-.05,1.76.11,4.36-.9,5.1a72.9,72.9,0,0,1-13,7.92,142.2,142.2,0,0,1-19.76,7.27,37.1,37.1,0,0,1-14,1.48,83.46,83.46,0,0,1-18.66-4.71c-2.49-.92-4-4.28-6.23-6.21a6.76,6.76,0,0,0-4.12-1.44c-2.34,0-5.24-3.56-7,.87a22.37,22.37,0,0,1-2,4.43c-6.73,9.76-14.29,19-20.07,29.32a54,54,0,0,0-6.77,22.1c-.56,8.29,1.79,16.78,2.94,25.18.8,5.89,1.68,11.78,2.58,17.66,1.69,11.14,3.54,22.27,5.09,33.44.77,5.57.94,11.22,1.57,16.81.14,1.24.79,2.91,1.75,3.48,3.31,2,6.71,4.44,10.35,5a158,158,0,0,0,25.12,2.12c3.93,0,6.83-2.87,5.83-8A143.77,143.77,0,0,1,239.08,461c-.38-5.77-.09-11.58,0-17.37a14.21,14.21,0,0,1,.66-4.66c1.71-4.69,3.93-9.21,5.39-14,1.69-5.53,3.49-11.19,4-16.9.84-9.43.72-18.94.9-28.41,0-1.78-1.17-4.13-.4-5.24,3.24-4.69,7.11-9,10.56-13.51,1.4-1.86,4.64-3.86.47-6.4-.63-.39-.54-2-.78-3,.72.18,1.71.13,2.11.58,4.35,5,8.53,10.1,12.91,15,7.5,8.48,15.22,16.79,22.64,25.35,4.83,5.56,9.17,11.55,13.94,17.17,5.14,6,10.77,11.71,15.74,17.9,4.43,5.51,8.39,11.43,12.29,17.34,3.49,5.27,6.69,10.74,9.86,16.21,2.54,4.36,4.83,8.85,7.25,13.28,2.73,5,5.87,9.85,8.1,15.08,2.52,5.92,6.8,9.43,13.24,8.82,3.44-.32,6.77-1.65,10.2-2.28,8.41-1.54,16.23-4.4,22.54-10.36,1.5-1.41,3.31-3.71,3.12-5.4-.27-2.38-2.43-4.48-3.49-6.84-3.37-7.58-6.87-15.12-9.84-22.86-2.87-7.5-4.66-15.44-7.81-22.8a201.43,201.43,0,0,0-13.2-26.41c-5.26-8.56-12.29-16-17.71-24.49-5.8-9.05-11.75-18.3-15.55-28.25-3.7-9.7-4.68-20.42-7.06-30.64-.41-1.76-2.06-4.74-2.79-4.64a31.48,31.48,0,0,0-8.72,2.89c-3.46,1.62-13.67,0-15-3-3.14-7.17-5.89-14.53-9.09-21.68-.71-1.6-2.59-2.69-3.94-4a20.41,20.41,0,0,0-.95,4.06C298.58,296,298.65,300.39,298.65,304.77ZM28,383.87l-.42,0c.56,8.18,1.05,16.36,1.7,24.53.37,4.64,1,9.26,7.68,7.74.31-.07,1.11.51,1.08.72-.06.56-.77,1.17-.66,1.61.6,2.45-6-1-2.72,3.34.59.79,1.82,1.06,2.55,1.77a6.58,6.58,0,0,1,1,2.06c-.59.13-1.39.58-1.72.35-1.62-1.14-3.13-2.43-4.65-3.71a6.1,6.1,0,0,1-.84-1.08c-.11.49-.42,1.05-.29,1.47.36,1.15.92,2.25,1.38,3.38s.93,2.31,1.4,3.47c-1-.67-2.06-1.27-3-2a30.76,30.76,0,0,1-2.3-2.27c-2.14,5.55-4.53,11-6.37,16.67-2.05,6.32-3.5,12.84-5.39,19.22C14.07,469,11,476.55,9.29,484.47c-2,9.39-2.88,19-4,28.56-1.08,9-2,18.12-2.72,27.19-.43,5.18,2.27,7.67,7.41,6.59C16.59,545.43,23,543,29.68,542c7.12-1.07,13.42-2.2,16.43-10.09,2.34-6.13,5.9-11.79,8.42-17.87,2.18-5.27,3.71-10.81,5.42-16.26,2.06-6.55,4.33-13.05,5.92-19.71,2-8.56,3.23-17.32,5.35-25.85,1.6-6.43,4.18-12.61,6.14-19,2.65-8.64,5.57-17.24,7.53-26,1.3-5.8,1-11.93,1.63-17.9a44.71,44.71,0,0,1,1.59-8.53C89.91,375,92,369.32,94,363.63c1.32-3.75,2.61-7.5,4.08-11.19.25-.62,1.33-.91,2-1.36-.07,1-.17,1.94-.22,2.92a81.4,81.4,0,0,0-.36,8.82c0,.85,1.7,1.51,2.24,2.47,2.26,4,4,8.31,6.6,12.08,4.51,6.62,7.37,13.71,7.24,21.74-.09,5.91-.55,11.83-1.12,17.72-.66,6.83-1.6,13.63-2.44,20.45-1.29,10.52-2.49,21.07-4,31.57-1.17,8.34-2.47,16.67-4.08,24.93-1.36,7,1.11,10.28,8.42,9.68,5.81-.47,11.56-1.57,17.34-2.4,6-.86,12.06-1.64,18.05-2.7a3.52,3.52,0,0,0,2-2.63c.53-8.91.83-17.84,1.23-26.77s.4-17.9,1.44-26.76c1.13-9.62,3.4-19.1,4.94-28.68,1-6.58,1.86-13.21,2.53-19.85,1.37-13.58-3.37-25.84-8.53-38q-5.15-12.1-10.59-24.09c-.58-1.26-2.49-3.24-2.91-3.05-4.09,1.94-7.84,4.62-12,6.41a107.27,107.27,0,0,1-16.51,5.84c-4.63,1.15-9.62.77-14.34,1.68-7.72,1.5-9,1.15-9.73-6.47-.63-6.39-5.51-8.89-9.79-11.39-4.79-2.81-5.4-3.75-2.11-8a8.71,8.71,0,0,0,1.17-6.22c-.25-1.39-2.3-3.47-3.55-3.47-2,0-5.3.94-5.9,2.37a75.53,75.53,0,0,0-3.93,14.14c-1.19,5.88-1.81,11.89-3,17.78-.26,1.32-1.83,3.47-2.71,3.42-7.44-.38-14.86-1.13-22.27-1.9a55.73,55.73,0,0,1-6.08-1.29,25.93,25.93,0,0,0-.49,4.53c.32,5.86,1,11.71,1.16,17.58C28.12,370.31,28,377.09,28,383.87ZM214.19,213.49c.84,3.83,1.46,9.17,3.2,14.12a220.87,220.87,0,0,0,9.05,21.28c.81,1.72,3.15,4,4.63,3.85,2.46-.19,4.82-2.05,7.18-3.27,6.23-3.2,12.46-6.39,18.66-9.65,4.36-2.3,8.61-4.8,13-7,3.91-1.95,8-3.5,11.94-5.45,4.53-2.27,8.77-5.16,13.43-7.08,5.3-2.18,11-3.35,16.37-5.43,2.83-1.11,7.54-1.27,5.94-6.58-.67-2.21-1.58-4.34-2.36-6.51-2.25-6.33-4.53-12.66-6.73-19-2.87-8.31-6.29-16.5-8.36-25-2.74-11.24-4-22.84-6.71-34.09-1.47-6.07-4.59-11.76-7.1-17.56-2.61-6-5.46-12-8.05-18-1.86-4.33-3-9-5.38-13.07-1.41-2.44-5.51-6-6.57-5.51-5.59,2.83-10.7,6.68-15.78,10.43-4,3-7.74,6.23-11.53,9.43s-7.6,6.41-11.27,9.75c-3.33,3-6.33,6.45-9.76,9.35-3,2.54-6.67,4.31-9.55,7-5.26,4.86-11,8.34-18.37,8.43-.66,0-1.9.68-1.87.91.61,4.91,1.4,9.79,2.08,14.68a31.71,31.71,0,0,1,.08,3.78c-.56-.22-1.55-.35-1.63-.69-.85-3.69-1.72-7.39-2.26-11.14-.29-2,.08-4.1,0-6.15a6,6,0,0,0-2.34-.13c-.8.17-1.48.92-2.27,1.08-6.55,1.28-13.08,3.21-19.68,3.55-11.25.57-22.54.21-33.81,0-2.79,0-5.56-1.12-8.36-1.29-1-.06-2.81,1.14-2.87,1.89-.68,8.24-1.07,16.51-1.57,24.77,0,.54-.58,1.08-.55,1.61.25,4.61-.81,10,1.31,13.54,1.63,2.69,7.21,3.36,11.19,4.14,6.15,1.2,12.42,1.79,18.66,2.52,7.8.92,15.59,2,23.42,2.49,11.78.79,23.66,2.23,35.35,1.39,9.26-.66,18.38-4.08,27.42-6.77,4.75-1.41,9.17-4,13.8-5.83a13.36,13.36,0,0,1,3.73-.37c-.92,1-1.66,2.34-2.78,2.81-3.86,1.62-7.87,2.9-11.8,4.35-6.45,2.37-12.9,4.73-19.3,7.22-1.44.56-3.89,1.86-3.79,2.46.93,5.31,2.83,10.48,3.42,15.81C216.08,204.21,214.88,208.1,214.19,213.49Zm-141.55-8.4-.66,0c.4,8.12.54,16.25,1.26,24.34s2,15.87,3,23.82c.51,4.17,1.13,8,6.75,7.91,1.5,0,3,1,4.52,1.22,7.84,1.28,15.23,5.31,23.73,2.46,4.23-1.42,9.09-.93,13.66-1.38.69-.07,1.94-.57,1.93-.84-.2-4.9-.41-9.82-.91-14.71q-1.79-17.67-3.84-35.31c-.7-6-1.54-12-2.71-17.94a36,36,0,0,0-3.08-7.8c-2.21-4.75-4.7-9.38-6.82-14.18-2.45-5.54-4.55-11.23-6.94-16.8-2.27-5.29-4.86-10.44-7.07-15.75-1.94-4.65-3-9.75-5.47-14.07-2.17-3.8-5.17-7.87-8.86-9.9-7.22-4-15.41-6-21.19-12.65-4.66-5.4-5.06-11.7-.55-16.92,1.5-1.72,5.54-3.78,1.37-7A71.19,71.19,0,0,0,54,74.51c-1.08-.64-3.76-.72-4.07-.15C46.67,80.24,44,86.45,40.66,92.3c-3.82,6.69-8.11,13.1-12.21,19.64-2.24,3.57-4.92,6.94-6.61,10.76C20.34,126.1,20,130,19,133.64c-1.95,7.39-4.51,14.67-5.8,22.17a116.24,116.24,0,0,0-1.41,21.27c.07,5.21,1.26,10.44,2.27,15.6a120.65,120.65,0,0,0,3.84,15.92c1.83,5.33,4.63,10.32,6.81,15.54,2.46,5.9,4.9,11.82,7,17.85,1.66,4.8,2.64,9.83,4.15,14.68,2,6.29,4,12.54,6.24,18.75,1.27,3.57,2.44,7.29,4.39,10.49a79.19,79.19,0,0,0,9.77,13.37c2.54,2.69,2.85,9.59,9.62,6.24,5.66-2.81,11.63-5,17.14-8.09,2-1.11,4.67-4.33,4.26-5.8-1.34-4.77-4.34-9-6-13.74-3.15-8.82-6.55-17.66-8.48-26.78A126.21,126.21,0,0,1,70,223.85c.17-16.5,2-33,2.06-49.46,0-9-2.14-18.07-3.25-27.12a13.71,13.71,0,0,1,.3-3.09c.73.58,2,1,2.12,1.73,1.3,5.84,3.22,11.69,3.37,17.58.17,7-1.5,14-1.87,21.11C72.36,191.41,72.64,198.26,72.64,205.09Zm222.93,96.35c.55-5.56,1.06-11,1.67-16.48a26.55,26.55,0,0,1,1-3.73,12.25,12.25,0,0,1,2.59,2.35c3.23,5.39,6.52,10.76,9.37,16.34,1.44,2.84,1.43,6.48,3.06,9.14,3.35,5.45,11.83,6.79,17.55,3.39,3.44-2,7.16-3.66,10.37-6s7.55-4.38,5.55-9.83a91,91,0,0,1-3.45-10c-1.55-6.5-2.57-13.13-4.13-19.63a26.1,26.1,0,0,0-3.18-7.29c-3-4.94-6.17-9.83-9.58-14.52-1.65-2.26-1.46-7.52-7-4.63-3.58,1.86-7.66,2.72-11.35,4.38-4.86,2.18-9.52,4.77-14.33,7.05s-10,4.48-14.95,6.81c-6,2.83-12.12,5.5-17.88,8.78-2.95,1.68-6.62,4.09-7.56,6.95-2.49,7.59-3.49,15.66-5.46,23.44a41.46,41.46,0,0,1-4.32,11c-2.87,4.81-9.52,6.88-10.25,13.31-.35,3.13-1.33,7.85.24,9.17A19.26,19.26,0,0,0,245,335.57c7.46,0,15.21-.39,22.34-2.38,8.62-2.41,16.86-6.4,25-10.27,2.13-1,4.46-4.07,4.58-6.3C297.15,311.6,296.09,306.5,295.57,301.44Zm-183.13-183c.82,1.83,1.5,5.86,2.92,6.14,8.88,1.78,17.92,3.67,26.91,3.66,9.76,0,19.53-1.83,29.25-3.23,7.31-1,14.55-2.61,21.79-4.06,2-.41,4.32-.73,5.87-1.91,7.86-6,15.53-12.23,23.24-18.42a10.12,10.12,0,0,0,1.4-1.76,7.39,7.39,0,0,0-.8-.53c-5-2.48-9.93-4.92-14.86-7.47-1.13-.59-2.38-2.44-3.07-2.2-9.34,3.12-18.64,6.38-27.76,10.08-.75.31-7-.87-3.14,4a22.76,22.76,0,0,0,3.2,2.9s.32-.25.49-.38a19.9,19.9,0,0,1-2-2.39,4.83,4.83,0,0,1-.27-1.83,6.9,6.9,0,0,1,2.41.34c1.81,1,3.51,2.16,5.24,3.27.71.46,1.4,1,2.1,1.43-.79.42-1.6,1.22-2.36,1.17-1.24-.08-3.2-1.39-3.55-1-4,4.44-4.88-.23-6.83-2.11-1.26-1.22-3.13-3.25-4.21-3-8.06,2.12-15.84,5.58-24,7-8.92,1.52-18.13,1.43-27.23,1.78C111,110.14,114.27,114.85,112.44,118.4ZM266.32,49.19c-1.15-3.72-2.09-9.56-4.72-14.52a74.46,74.46,0,0,0-12.29-17.43c-3.67-3.72-9.3-5.5-14-8.22-3.9-2.24-18.26-.73-21.55,2.15-5.71,5-11.65,9.52-13.4,17.82-1.29,6.14.32,12.13,7.46,12a42.52,42.52,0,0,0,9.86-1.35c4.81-1.28,9.47-3.12,14.23-4.6a3.44,3.44,0,0,1,2,.61c-.61,3.24-1.59,6.43-2,9.69-.28,2.37.21,4.84.36,7.26,3.49-.76,7-1.57,10.48-2.28,2.61-.53,5.28-1.31,7.87-1.14.82.05,2.16,2.82,2.06,4.27-.17,2.4-1.52,4.69-2,7.11-.52,2.73-1.35,5.93,3.33,6,1,0,2.05.94,2.94.76,2.45-.5,6.47-.83,6.92-2.2C265.34,60.75,265.43,56,266.32,49.19ZM19,310.57c.6,9.43,1.09,17.28,1.65,25.13a1.92,1.92,0,0,0,1.07,1.39c3.77,1,7.57,1.78,11.37,2.65a56.19,56.19,0,0,0,7.38,1.6,135.8,135.8,0,0,0,13.68.43c.62,0,1.51-1.76,1.75-2.81.67-3,.9-6.21,1.63-9.24,1.46-6.05,3.7-12,4.41-18.09.23-1.95-3.53-4.23-5.21-6.54-4.26-5.9-9.52-11.42-12.24-18-3.12-7.56-7.59-9.77-15-8.63-2.33.37-4.82-.24-7.15.15a4.38,4.38,0,0,0-3,2.54,18.32,18.32,0,0,0-.08,5.78c.25,4,.91,8,.83,11.93C20,303.29,19.28,307.69,19,310.57ZM204.46,70.26a30.66,30.66,0,0,1,1.37,3.15c.48,1.48.7,3,1.13,4.53.34,1.21,1,2.35,1.23,3.58.46,2.24-.07,5.49,1.24,6.57a39.28,39.28,0,0,0,10.83,6c2.55,1,6.47,2,8.26.73,5-3.42,9-8.16,13.64-12.05s9.92-7.59,14.87-11.4c.17-.13.13-.89.06-.91-1.6-.51-3.46-.6-4.77-1.5-1.73-1.2-4.16-3-4.26-4.59-.18-2.87,1.34-5.81,1.81-8.78A5.27,5.27,0,0,0,249,51.9c-.49-.62-2.27-.81-3.17-.44-3.24,1.32-6.36,2.92-9.5,4.48-2.86,1.42-7.86-1.31-7.5-4.39.39-3.41,1.42-6.74,2.12-10.11a9.57,9.57,0,0,0,.1-2.62,2.49,2.49,0,0,0-1.48-.14c-2.68.86-5.27,2.32-8,2.64-6.18.7-12.42.85-18.64,1.23-.59,0-1.45-.17-1.7.14s-.21,1.2-.26,1.83c-.6,6.72-.63,13.55-2,20.11C198.15,68.66,198.2,70.45,204.46,70.26ZM424.6,527.2a20.59,20.59,0,0,0-1.66-4.43c-4.56-7.46-8.82-15.19-14.22-22-1.66-2.1-.58-9-7.29-6.07-4.38,1.9-9.25,2.68-13.86,4.08a2.11,2.11,0,0,0-.78,1.64,41,41,0,0,0,6.09,5.78c2.85,1.94,4.77,7.77,3.26,10.31-4.46,7.5-12.92,8.59-19.67,12.34-5.08,2.83-11,4.23-16.11,7-1.44.76-2.55,5.62-2.15,5.86A95.67,95.67,0,0,0,371,548a7.93,7.93,0,0,0,4.95.29c3.7-1.11,7.2-2.89,10.89-4s7.83-1.67,11.64-2.84a178,178,0,0,0,18-6.2C419.68,533.85,424.82,534,424.6,527.2ZM90.29,97.24c2.18-.73,5.27-1.93,8.46-2.8,4.68-1.28,7.77-3.46,6.79-9a15.79,15.79,0,0,1,.2-6,13.45,13.45,0,0,1,2.29-5A63.64,63.64,0,0,1,113.11,69c.73-.77,2.25-1.85,2.09-2.22-2.32-5.36-4.83-10.64-7.39-15.88-.52-1-1.43-2.64-2.23-2.69-3.32-.2-6.67.1-10,.2-.46,0-1.24-.21-1.33,0a14.08,14.08,0,0,0-.44,1.81c-1.12,3.18-1.54,7.07-3.68,9.27-1.44,1.48-6,1.66-8,.45-2.91-1.81-4.55-5.56-7.16-8-.9-.86-3.11-.67-4.62-.4-.62.12-1.61,2.08-1.33,2.58a32.62,32.62,0,0,0,5.08,7.49c3,3,3.12,7.62-.81,9-4.09,1.4-8.59,1.63-12.91,2.42a3.45,3.45,0,0,0-1.64.76c-.17.15,0,1,.29,1.27,2.46,2,5,3.78,7.49,5.74,2.8,2.23,6.06,4.15,8.15,6.93C78.43,92.63,82.49,96.59,90.29,97.24Zm12.63.67c-.7-.31-1.64-1.13-2.32-1-2.47.64-4.79,1.84-7.27,2.41-7.81,1.82-17.48-3.31-21.22-10.21-1.19-2.19-4.6-4.76-6.72-4.54-4.52.47-8,10.48-5.34,14.23C64.37,105,70.46,108.6,77.48,111c3.84,1.33,8,2.68,11,5.29,2.52,2.27,2.88,6.8,5.18,9.48,5.37,6.23,11.29,12,17.14,17.79.38.38,2.67-.18,2.94-.8,3-6.88-.08-16-6.19-20.47-4.53-3.28-8.75-7-7-13.66C101.35,105.32,102,101.92,102.92,97.91Zm14.75,222c-1.22,2.77-1.67,5.83-3.44,7.33-2.88,2.44-6.77,5.51-10,5.25s-6.15-4.27-9.22-6.62c-1.14-.87-2.78-2.67-3.38-2.37-4.37,2.11-5.89,9-3.29,13.34.56.95.84,2.8,1.44,2.87a33.13,33.13,0,0,0,7.11,0c4.85-.41,10-.18,14.48-1.69a178.73,178.73,0,0,0,23.38-10c2.21-1.11,4.64-4.44,4.6-6.7-.05-2.9-2.27-5.9-4-8.6-4.38-7-8.82-14-13.67-20.64-.89-1.22-5-1.94-5.69-1.15a114.15,114.15,0,0,0-9.36,12.3,2.37,2.37,0,0,0,.66,2.18c1.7,1.1,3.91,1.6,5.3,3,1,1,.86,3,1.5,4.5C115.17,315.2,116.43,317.43,117.67,319.86Zm84,185c3.82.42,8.66.83,13.46,1.51a21.92,21.92,0,0,1,6.5,1.83c5,2.46,11.87-.47,12.36-5.87a70.59,70.59,0,0,0-.39-11.43c0-.49-1-1.22-1.62-1.31-3.26-.48-6.78-1.73-9.76-1-6.46,1.64-12.53-4.08-19.86,1.64-6.86,5.34-17,6.43-25.58,9.67-1.94.73-3.45,2.62-5.15,4,1.86,1.14,3.76,3.31,5.57,3.23C185,506.78,192.82,505.76,201.66,504.87Zm-35.38,16.85a70.78,70.78,0,0,0,8.06-1.93c.55-.19.81-3.35.58-3.44-5-1.83-10.26-3.2-15.26-5.13a119.86,119.86,0,0,1-12.27-5.86c-2.08-1.09-4-3.84-5.89-3.68A169.22,169.22,0,0,0,119,505.14c-3.75.85-10.34-2-10.05,6,0,.3-.5.62-.5.92,0,2.09-.28,4.34.43,6.19.35.92,2.73,1.65,4.06,1.47,2.72-.36,5.35-2.06,8-2,7.54,0,15.09.45,22.6,1.13C150.85,519.48,158.11,520.65,166.28,521.72ZM42.77,541.38c-8.72,2.11-16.62,4-24.47,6-.9.24-2.2,2.45-2.07,2.59,3.79,4,7.28,8.64,11.82,11.6,3.27,2.14,8,2.34,12.07,2.86a18.53,18.53,0,0,0,6.9-1c2.85-.77,5.54-2.06,8.38-2.86a16.14,16.14,0,0,1,4.3-.21c2,0,4.07.06,6.11.1-.67-1-1.13-2.32-2-3-4.47-3.59-9.05-7.05-13.6-10.53C47.57,545,44.94,543,42.77,541.38Zm65-230.9,2.19-.58c-.38-.23-.73-.49-1.12-.69-5.28-2.7-11.1-4.7-15.67-8.29-3.91-3.06-6.5-5-10.18-.36-.77,1-2.13,1.45-3.11,2.28a26.41,26.41,0,0,0-2.24,2.36c1.15.59,2.56.92,3.4,1.81,5.35,5.64,10.76,11.25,15.79,17.18,6,7,11.33,7.75,15.59,1.25,2.56-3.93,3.49-9-2.8-11.27-3.1-1.1-6.4-1.59-9.57-2.52-.77-.23-1.36-1.11-2-1.69.64-.3,1.32-.91,1.91-.84C102.38,309.42,104.76,309.93,107.81,310.48ZM15.67,232.86l-.22,0c0,4.43-.55,9,.19,13.26.51,3-.4,7.91,5.78,7.47,3-.21,6.1,1.34,9.17,2a4.64,4.64,0,0,0,1.91-.18c.11,0,.25-.52.19-.73-2-6.1-3.7-12.28-6-18.26-3.21-8.35-6.8-16.55-10.29-24.79a13.36,13.36,0,0,0-1.88-2.56,17.45,17.45,0,0,0-.38,3.27C14.61,219.22,15.15,226,15.67,232.86Zm206.57,69,1.36-1.22-.57-2.05c-.19.65-.33,1.32-.58,1.95-1,2.64-2.49,5.19-3.13,7.93a57.75,57.75,0,0,0-1.7,12.3c0,.93,3.15,2.8,4.69,2.64,2.6-.27,6.27,6,7.9-1a12.43,12.43,0,0,1,1.59-3.9c2.6-4,2.31-6.84-2.17-9.5C226.77,307.25,224.68,304.25,222.24,301.84ZM112.55,152.09l.76-.07c-.3-1-.29-2.33-1-3-3.59-3.45-7.36-6.72-11-10.07-.82-.75-1.56-1.6-2.4-2.34-.18-.16-.61,0-.92,0a8.38,8.38,0,0,0,.2,2.77c1.49,3.47,3.23,6.83,4.71,10.31,2.33,5.47,4.5,11,6.82,16.5.31.72,1.1,1.23,1.66,1.84a3.38,3.38,0,0,0,.38-.94C112,162.09,112.29,157.09,112.55,152.09Zm-5.11-41.37c-1.71.2-3.18.14-4.38.68-.37.17-.42,2.37.13,3a62.13,62.13,0,0,0,5.7,5.41,7.29,7.29,0,0,0,1.49.79,62.72,62.72,0,0,0,1-8.58C111.33,111.55,108.66,111.1,107.44,110.72Zm13.4,74.37c-1.24-5.14-.14-11.25-7.19-12.8a14.81,14.81,0,0,0-1.49-.2,2.61,2.61,0,0,0,.13.94c2.34,4.15,4.73,8.26,7,12.42a13.38,13.38,0,0,1,.85,2.62C120.41,187,120.65,186,120.84,185.09ZM88.22,283.73l-1.32.87,5.24,8,4.33-6.38Zm136.49,9.56c.23.72.4,1.25.56,1.78.4-.33,1-.59,1.15-1q2.46-5.44,4.75-11c.13-.31-.15-.8-.28-1.18,0,0-.49,0-.54.09C228.45,285.77,226.58,289.54,224.71,293.29Z"/><path class="cls-1" d="M298.65,304.77c0-4.38-.07-8.76.05-13.13a20.41,20.41,0,0,1,.95-4.06c1.35,1.32,3.23,2.41,3.94,4,3.2,7.15,6,14.51,9.09,21.68,1.3,3,11.51,4.63,15,3a31.48,31.48,0,0,1,8.72-2.89c.73-.1,2.38,2.88,2.79,4.64,2.38,10.22,3.36,20.94,7.06,30.64,3.8,9.95,9.75,19.2,15.55,28.25,5.42,8.47,12.45,15.93,17.71,24.49a201.43,201.43,0,0,1,13.2,26.41c3.15,7.36,4.94,15.3,7.81,22.8,3,7.74,6.47,15.28,9.84,22.86,1.06,2.36,3.22,4.46,3.49,6.84.19,1.69-1.62,4-3.12,5.4-6.31,6-14.13,8.82-22.54,10.36-3.43.63-6.76,2-10.2,2.28-6.44.61-10.72-2.9-13.24-8.82-2.23-5.23-5.37-10.07-8.1-15.08-2.42-4.43-4.71-8.92-7.25-13.28-3.17-5.47-6.37-10.94-9.86-16.21-3.9-5.91-7.86-11.83-12.29-17.34-5-6.19-10.6-11.85-15.74-17.9-4.77-5.62-9.11-11.61-13.94-17.17-7.42-8.56-15.14-16.87-22.64-25.35-4.38-4.95-8.56-10.07-12.91-15-.4-.45-1.39-.4-2.11-.58.24,1,.15,2.59.78,3,4.17,2.54.93,4.54-.47,6.4-3.45,4.56-7.32,8.82-10.56,13.51-.77,1.11.44,3.46.4,5.24-.18,9.47-.06,19-.9,28.41-.5,5.71-2.3,11.37-4,16.9-1.46,4.75-3.68,9.27-5.39,14a14.21,14.21,0,0,0-.66,4.66c-.1,5.79-.39,11.6,0,17.37a143.77,143.77,0,0,0,2.37,17.66c1,5.12-1.9,8-5.83,8a158,158,0,0,1-25.12-2.12c-3.64-.58-7-3.07-10.35-5-1-.57-1.61-2.24-1.75-3.48-.63-5.59-.8-11.24-1.57-16.81-1.55-11.17-3.4-22.3-5.09-33.44-.9-5.88-1.78-11.77-2.58-17.66-1.15-8.4-3.5-16.89-2.94-25.18a54,54,0,0,1,6.77-22.1c5.78-10.28,13.34-19.56,20.07-29.32a22.37,22.37,0,0,0,2-4.43c1.79-4.43,4.69-.88,7-.87a6.76,6.76,0,0,1,4.12,1.44c2.23,1.93,3.74,5.29,6.23,6.21a83.46,83.46,0,0,0,18.66,4.71,37.1,37.1,0,0,0,14-1.48,142.2,142.2,0,0,0,19.76-7.27,72.9,72.9,0,0,0,13-7.92c1-.74.85-3.34.9-5.1.12-4,0-8,0-12.05ZM300,358.49c-.58.33-1.21.48-1.27.76-.13.54-.15,1.48.17,1.7,2.74,1.88,5.51,3.73,8.38,5.41,4.27,2.5,8.54,5.05,13,7.25,6.52,3.23,13.19,6.18,19.83,9.17a1.72,1.72,0,0,0,1.54-.71,1.83,1.83,0,0,0-.5-1.7c-4.64-2.17-9.42-4.05-14-6.36-6.12-3.1-12.11-6.45-18.08-9.82C306,362.44,303,360.41,300,358.49ZM310.48,384A4.77,4.77,0,0,0,309,385c-.18.21.14,1.21.47,1.37q8.24,4.08,16.55,8c4.5,2.15,9,4.32,13.56,6.3.92.4,2.18,0,3.28-.05-.21-.42-.32-1-.66-1.22-3.89-2.13-7.75-4.34-11.75-6.26-3.82-1.82-7.81-3.27-11.67-5C316.09,386.9,313.46,385.5,310.48,384ZM209.85,404.72l.89-1.25,8.64-1.51c2.9-.51,5.82-.9,8.67-1.59.76-.19,1.29-1.28,1.92-2-.54-.45-1.13-1.34-1.6-1.29-2.62.33-5.41.41-7.75,1.45-7.3,3.24-15.36,2.31-21.27-2.73-.87-.74-2.29-.84-3.45-1.23,0,.73-.2,1.92.15,2.13C200.6,399.48,205.24,402.08,209.85,404.72Z"/><path class="cls-1" d="M28,383.87c0-6.78.16-13.56-.05-20.32-.18-5.87-.84-11.72-1.16-17.58a25.93,25.93,0,0,1,.49-4.53,55.73,55.73,0,0,0,6.08,1.29c7.41.77,14.83,1.52,22.27,1.9.88.05,2.45-2.1,2.71-3.42,1.17-5.89,1.79-11.9,3-17.78a75.53,75.53,0,0,1,3.93-14.14c.6-1.43,3.86-2.37,5.9-2.37,1.25,0,3.3,2.08,3.55,3.47a8.71,8.71,0,0,1-1.17,6.22c-3.29,4.27-2.68,5.21,2.11,8,4.28,2.5,9.16,5,9.79,11.39.75,7.62,2,8,9.73,6.47,4.72-.91,9.71-.53,14.34-1.68A107.27,107.27,0,0,0,126,335c4.15-1.79,7.9-4.47,12-6.41.42-.19,2.33,1.79,2.91,3.05q5.44,12,10.59,24.09c5.16,12.13,9.9,24.39,8.53,38-.67,6.64-1.48,13.27-2.53,19.85-1.54,9.58-3.81,19.06-4.94,28.68-1,8.86-1,17.83-1.44,26.76s-.7,17.86-1.23,26.77a3.52,3.52,0,0,1-2,2.63c-6,1.06-12,1.84-18.05,2.7-5.78.83-11.53,1.93-17.34,2.4-7.31.6-9.78-2.71-8.42-9.68,1.61-8.26,2.91-16.59,4.08-24.93,1.47-10.5,2.67-21.05,4-31.57.84-6.82,1.78-13.62,2.44-20.45.57-5.89,1-11.81,1.12-17.72.13-8-2.73-15.12-7.24-21.74-2.57-3.77-4.34-8.08-6.6-12.08-.54-1-2.2-1.62-2.24-2.47A81.4,81.4,0,0,1,99.9,354c0-1,.15-1.95.22-2.92-.69.45-1.77.74-2,1.36-1.47,3.69-2.76,7.44-4.08,11.19-2,5.69-4.11,11.35-5.91,17.1a44.71,44.71,0,0,0-1.59,8.53c-.61,6-.33,12.1-1.63,17.9-2,8.81-4.88,17.41-7.53,26-2,6.35-4.54,12.53-6.14,19-2.12,8.53-3.3,17.29-5.35,25.85C64.28,484.68,62,491.18,60,497.73c-1.71,5.45-3.24,11-5.42,16.26-2.52,6.08-6.08,11.74-8.42,17.87-3,7.89-9.31,9-16.43,10.09C23,543,16.59,545.43,10,546.81c-5.14,1.08-7.84-1.41-7.41-6.59.75-9.07,1.64-18.15,2.72-27.19,1.14-9.55,2.05-19.17,4-28.56,1.66-7.92,4.78-15.52,7.1-23.31,1.89-6.38,3.34-12.9,5.39-19.22,1.84-5.65,4.23-11.12,6.37-16.67a30.76,30.76,0,0,0,2.3,2.27c.94.75,2,1.35,3,2-.47-1.16-.92-2.32-1.4-3.47s-1-2.23-1.38-3.38c-.13-.42.18-1,.29-1.47a6.1,6.1,0,0,0,.84,1.08c1.52,1.28,3,2.57,4.65,3.71.33.23,1.13-.22,1.72-.35a6.58,6.58,0,0,0-1-2.06c-.73-.71-2-1-2.55-1.77-3.31-4.38,3.32-.89,2.72-3.34-.11-.44.6-1.05.66-1.61,0-.21-.77-.79-1.08-.72-6.71,1.52-7.31-3.1-7.68-7.74-.65-8.17-1.14-16.35-1.7-24.53Zm93,72.18c.51,3.74.48,6.94,1.45,9.81,2.15,6.42,4.76,12.69,7.31,19a6.52,6.52,0,0,0,2.25,2.31c.24.19.94-.22,1.43-.36-.34-.89-.73-1.77-1-2.68-3-9.09-5.93-18.2-9-27.28a3.25,3.25,0,0,0-1.52-1.59C121.72,455.13,121,456,121,456.05Zm-66.15-1.47c.65-.49,1.29-1,1.93-1.49,2.32-1.16,4.7-2.23,6.94-3.54.59-.34.79-1.38,1.16-2.1a8.24,8.24,0,0,0-1.87.17c-2.25.72-5.77,2.82-6.5,2.09-4.36-4.38-8-9.43-12-14.18a25.23,25.23,0,0,0-3.29-2.77c-.09.67-.49,1.53-.21,2,2.4,3.72,4.89,7.38,7.43,11C50.47,448.72,52.66,451.63,54.81,454.58Zm59.53-97c3,4.21,4.87,7.25,7.15,9.93,3.35,3.94,7,7.64,10.55,11.39a29.48,29.48,0,0,0,3.23,2.77c.06.05.74-.48.71-.53a18.61,18.61,0,0,0-1.91-3.55c-4.92-6.15-9.92-12.25-14.9-18.36-.32-.4-.62-1-1-1.11A25.76,25.76,0,0,0,114.34,357.62ZM22.75,489.2a47.76,47.76,0,0,0,1.35,5c2.16,5.32,4.38,10.61,6.72,15.84.27.61,1.42.82,2.16,1.22a11.81,11.81,0,0,0-.22-3.44c-2.31-6.14-4.77-12.23-7.15-18.34-.42-1.09-.64-2.24-1-3.37ZM139.2,410.94c3-1.76,6.09-3.5,9-5.54.54-.38.2-2,.26-3.07a4.6,4.6,0,0,0-1,.68c-4.87,5.86-13.1,5-18,1.87-1-.63-2.68-.18-4-.23.32.71.47,1.88,1,2.07C130.27,408.11,134.17,409.31,139.2,410.94ZM43.1,364.6c2.14,7.59,3.54,12.83,5.14,18,.31,1,1.36,1.78,2.07,2.67.16-1.08.65-2.23.41-3.21-1.12-4.62-2.44-9.19-3.71-13.78a14.24,14.24,0,0,0-1-2.77C45.81,365.24,45.14,365.24,43.1,364.6Z"/><path class="cls-1" d="M214.19,213.49c.69-5.39,1.89-9.28,1.48-13-.59-5.33-2.49-10.5-3.42-15.81-.1-.6,2.35-1.9,3.79-2.46,6.4-2.49,12.85-4.85,19.3-7.22,3.93-1.45,7.94-2.73,11.8-4.35,1.12-.47,1.86-1.85,2.78-2.81a13.36,13.36,0,0,0-3.73.37c-4.63,1.88-9.05,4.42-13.8,5.83-9,2.69-18.16,6.11-27.42,6.77-11.69.84-23.57-.6-35.35-1.39-7.83-.52-15.62-1.57-23.42-2.49-6.24-.73-12.51-1.32-18.66-2.52-4-.78-9.56-1.45-11.19-4.14-2.12-3.49-1.06-8.93-1.31-13.54,0-.53.51-1.07.55-1.61.5-8.26.89-16.53,1.57-24.77.06-.75,1.91-2,2.87-1.89,2.8.17,5.57,1.24,8.36,1.29,11.27.18,22.56.54,33.81,0,6.6-.34,13.13-2.27,19.68-3.55.79-.16,1.47-.91,2.27-1.08a6,6,0,0,1,2.34.13c.08,2-.29,4.15,0,6.15.54,3.75,1.41,7.45,2.26,11.14.08.34,1.07.47,1.63.69a31.71,31.71,0,0,0-.08-3.78c-.68-4.89-1.47-9.77-2.08-14.68,0-.23,1.21-.9,1.87-.91,7.4-.09,13.11-3.57,18.37-8.43,2.88-2.66,6.55-4.43,9.55-7,3.43-2.9,6.43-6.31,9.76-9.35,3.67-3.34,7.47-6.55,11.27-9.75s7.54-6.48,11.53-9.43c5.08-3.75,10.19-7.6,15.78-10.43,1.06-.54,5.16,3.07,6.57,5.51,2.34,4,3.52,8.74,5.38,13.07,2.59,6,5.44,12,8.05,18,2.51,5.8,5.63,11.49,7.1,17.56,2.72,11.25,4,22.85,6.71,34.09,2.07,8.51,5.49,16.7,8.36,25,2.2,6.35,4.48,12.68,6.73,19,.78,2.17,1.69,4.3,2.36,6.51,1.6,5.31-3.11,5.47-5.94,6.58-5.35,2.08-11.07,3.25-16.37,5.43-4.66,1.92-8.9,4.81-13.43,7.08-3.91,1.95-8,3.5-11.94,5.45-4.41,2.21-8.66,4.71-13,7-6.2,3.26-12.43,6.45-18.66,9.65-2.36,1.22-4.72,3.08-7.18,3.27-1.48.11-3.82-2.13-4.63-3.85a220.87,220.87,0,0,1-9.05-21.28C215.65,222.66,215,217.32,214.19,213.49Zm5.61-15.8-.38.06c.51,3.62.79,7.28,1.56,10.84,1.63,7.54,3.47,15,5.37,22.52.27,1.1,1.29,2,2,3,.16-1.36.7-2.81.4-4.05-.45-1.87-1.86-3.51-2.22-5.38-1.49-7.84-2.89-15.7-4-23.6-.47-3.36,0-6.83-.22-10.24,0-.82-1.11-1.58-1.7-2.37a8.72,8.72,0,0,0-.76,2.2C219.73,193,219.8,195.35,219.8,197.69Zm68.6-5.19c.51-.36,1.13-.59,1.14-.84,0-.59-.07-1.44-.46-1.73-2.58-1.93-5.42-3.54-7.85-5.63-4.91-4.21-9.59-8.68-14.44-13-.46-.41-1.45-.22-2.19-.31.14.73,0,1.75.46,2.14,5.1,4.57,10.23,9.11,15.46,13.51C283,188.75,285.7,190.52,288.4,192.5ZM267.28,77.33c-2.31,1.14-3.94,1.62-5.16,2.61-3.51,2.82-6.93,5.76-10.22,8.83-1.16,1.1-1.82,2.73-2.71,4.11a30.94,30.94,0,0,0,4.24-2.21c4.06-3,8-6.16,12-9.23.67-.51,1.74-.71,2.09-1.34S267.43,78.54,267.28,77.33Zm-7,36.37c-1.75-2.45-3.52-5.28-5.68-7.78-1-1.1-2.71-1.5-4.1-2.22.77,1.38,1.43,2.82,2.32,4.1,1.64,2.36,3.46,4.59,5.12,6.93a9.28,9.28,0,0,1,.82,2.27Zm-55,20.89c1-.87,2-1.34,2-1.78A2.44,2.44,0,0,0,206,131c-3.27-1.33-6.61-2.48-9.92-3.72a13.46,13.46,0,0,1-1.41-.73c.06.78-.17,2,.22,2.27C198.21,130.8,201.65,132.62,205.21,134.59Zm58.08,12.35c0-2.9.07-4,0-5,0-.4-.48-.76-.74-1.13a6.22,6.22,0,0,0-.73,1.13c-1.21,3.07-2.38,6.15-3.6,9.22-.28.72-.74,1.37-1.05,2.08a1.12,1.12,0,0,0,.1.72c.68,0,1.76.24,2-.09C260.91,151.16,262.45,148.38,263.29,146.94Zm-73.17-16.23a66.11,66.11,0,0,0,3.9,5.64c.55.65,1.8.72,2.73,1.06a17.35,17.35,0,0,0-1-2.72,44,44,0,0,0-2.84-4.23,14.21,14.21,0,0,0-1.77-1.69Z"/><path class="cls-1" d="M72.64,205.09c0-6.83-.28-13.68.08-20.49.37-7.06,2-14.09,1.87-21.11-.15-5.89-2.07-11.74-3.37-17.58-.16-.69-1.39-1.15-2.12-1.73a13.71,13.71,0,0,0-.3,3.09c1.11,9,3.28,18.09,3.25,27.12-.07,16.49-1.89,33-2.06,49.46a126.21,126.21,0,0,0,2.79,27.26c1.93,9.12,5.33,18,8.48,26.78,1.68,4.7,4.68,9,6,13.74.41,1.47-2.27,4.69-4.26,5.8-5.51,3.05-11.48,5.28-17.14,8.09-6.77,3.35-7.08-3.55-9.62-6.24a79.19,79.19,0,0,1-9.77-13.37c-2-3.2-3.12-6.92-4.39-10.49-2.19-6.21-4.29-12.46-6.24-18.75-1.51-4.85-2.49-9.88-4.15-14.68-2.08-6-4.52-12-7-17.85-2.18-5.22-5-10.21-6.81-15.54a120.65,120.65,0,0,1-3.84-15.92c-1-5.16-2.2-10.39-2.27-15.6a116.24,116.24,0,0,1,1.41-21.27c1.29-7.5,3.85-14.78,5.8-22.17,1-3.65,1.32-7.54,2.82-10.94,1.69-3.82,4.37-7.19,6.61-10.76,4.1-6.54,8.39-13,12.21-19.64,3.33-5.85,6-12.06,9.28-17.94.31-.57,3-.49,4.07.15a71.19,71.19,0,0,1,6.73,5.13c4.17,3.19.13,5.25-1.37,7-4.51,5.22-4.11,11.52.55,16.92,5.78,6.7,14,8.67,21.19,12.65,3.69,2,6.69,6.1,8.86,9.9,2.47,4.32,3.53,9.42,5.47,14.07,2.21,5.31,4.8,10.46,7.07,15.75,2.39,5.57,4.49,11.26,6.94,16.8,2.12,4.8,4.61,9.43,6.82,14.18a36,36,0,0,1,3.08,7.8c1.17,5.93,2,11.93,2.71,17.94q2.09,17.64,3.84,35.31c.5,4.89.71,9.81.91,14.71,0,.27-1.24.77-1.93.84-4.57.45-9.43,0-13.66,1.38-8.5,2.85-15.89-1.18-23.73-2.46-1.53-.26-3-1.25-4.52-1.22-5.62.11-6.24-3.74-6.75-7.91-1-8-2.28-15.85-3-23.82s-.86-16.22-1.26-24.34Zm49.77,38.59c-1-6.8-2-12.63-2.75-18.47-1-7.11-1.76-14.23-2.69-21.34-.07-.49-.71-.9-1.08-1.35-.45.65-1.38,1.37-1.29,1.94.62,4,1.69,8,2.16,12,1,8.86,1.76,17.75,2.68,26.62.18,1.71.67,3.39,1,5.08ZM88.64,144.37c1.68,4.68,3.09,9.18,4.88,13.51,3,7.29,6.28,14.49,9.5,21.7a28.25,28.25,0,0,0,2.12,3.36c.46-.75,1.47-1.71,1.28-2.21-2-5.35-4.13-10.64-6.32-15.91q-4.23-10.23-8.63-20.39c-.31-.73-1.23-1.2-1.86-1.8ZM40.53,192.32c.24.45.45,1.14.66,1.14.55,0,1.39-.11,1.61-.49,2.92-4.94,5.79-9.91,8.54-15,.22-.41-.57-1.37-.88-2.07a14.33,14.33,0,0,0-.92,1.42c-1.25,2.52-2.3,5.17-3.75,7.57S42.34,189.81,40.53,192.32Zm14.55-71.4a5.16,5.16,0,0,0-1.53.93c-.15.16.32,1.13.7,1.57q4,4.64,8.18,9.19a5.58,5.58,0,0,0,1.91,1.26c.22.09,1-.42,1-.73C66,129.46,59.3,121.1,55.08,120.92Zm-9,96.39a21,21,0,0,0-.42-2.27c-1.22-3.82-2.45-7.64-3.75-11.44-.15-.44-.67-.75-1-1.13-.45.48-1.36,1.07-1.27,1.42.9,3.83,1.94,7.62,3,11.4a3.44,3.44,0,0,0,1,1.94C44.19,217.57,45.1,217.31,46.09,217.31ZM34.45,113.39v0a9.65,9.65,0,0,0-2.85.06,9.79,9.79,0,0,0-2.35,1.64,8.18,8.18,0,0,0,2.27.91,48.91,48.91,0,0,0,5.55.09c1.21,0,2.42-.26,3.63-.4a39.68,39.68,0,0,0-4-2.28A6.07,6.07,0,0,0,34.45,113.39ZM54.44,93l.69-1.63C53,89.6,50.85,87.76,48.64,86c-.09-.07-1,.92-1.52,1.41a60.59,60.59,0,0,0,4.3,4.33A11,11,0,0,0,54.44,93Z"/><path class="cls-1" d="M295.57,301.44c.52,5.06,1.58,10.16,1.31,15.18-.12,2.23-2.45,5.29-4.58,6.3-8.13,3.87-16.37,7.86-25,10.27-7.13,2-14.88,2.4-22.34,2.38a19.26,19.26,0,0,1-11.46-4.16c-1.57-1.32-.59-6-.24-9.17.73-6.43,7.38-8.5,10.25-13.31a41.46,41.46,0,0,0,4.32-11c2-7.78,3-15.85,5.46-23.44.94-2.86,4.61-5.27,7.56-6.95,5.76-3.28,11.87-5.95,17.88-8.78,4.95-2.33,10-4.46,14.95-6.81s9.47-4.87,14.33-7.05c3.69-1.66,7.77-2.52,11.35-4.38,5.52-2.89,5.33,2.37,7,4.63,3.41,4.69,6.56,9.58,9.58,14.52a26.1,26.1,0,0,1,3.18,7.29c1.56,6.5,2.58,13.13,4.13,19.63a91,91,0,0,0,3.45,10c2,5.45-2.37,7.5-5.55,9.83s-6.93,4-10.37,6c-5.72,3.4-14.2,2.06-17.55-3.39-1.63-2.66-1.62-6.3-3.06-9.14-2.85-5.58-6.14-10.95-9.37-16.34a12.25,12.25,0,0,0-2.59-2.35,26.55,26.55,0,0,0-1,3.73C296.63,290.42,296.12,295.88,295.57,301.44Z"/><path class="cls-1" d="M112.44,118.4c1.83-3.55-1.41-8.26,4.72-8.51,9.1-.35,18.31-.26,27.23-1.78,8.15-1.4,15.93-4.86,24-7,1.08-.29,3,1.74,4.21,3,1.95,1.88,2.81,6.55,6.83,2.11.35-.39,2.31.92,3.55,1,.76,0,1.57-.75,2.36-1.17-.7-.48-1.39-1-2.1-1.43-1.73-1.11-3.43-2.29-5.24-3.27a6.9,6.9,0,0,0-2.41-.34,4.83,4.83,0,0,0,.27,1.83,19.9,19.9,0,0,0,2,2.39c-.17.13-.46.41-.49.38a22.76,22.76,0,0,1-3.2-2.9c-3.87-4.86,2.39-3.68,3.14-4,9.12-3.7,18.42-7,27.76-10.08.69-.24,1.94,1.61,3.07,2.2,4.93,2.55,9.91,5,14.86,7.47a7.39,7.39,0,0,1,.8.53,10.12,10.12,0,0,1-1.4,1.76C214.71,106.77,207,113,199.18,119c-1.55,1.18-3.85,1.5-5.87,1.91-7.24,1.45-14.48,3-21.79,4.06-9.72,1.4-19.49,3.23-29.25,3.23-9,0-18-1.88-26.91-3.66C113.94,124.26,113.26,120.23,112.44,118.4Z"/><path class="cls-1" d="M266.32,49.19c-.89,6.78-1,11.56-2.41,15.89-.45,1.37-4.47,1.7-6.92,2.2-.89.18-2-.74-2.94-.76-4.68-.06-3.85-3.26-3.33-6,.45-2.42,1.8-4.71,2-7.11.1-1.45-1.24-4.22-2.06-4.27-2.59-.17-5.26.61-7.87,1.14-3.51.71-7,1.52-10.48,2.28-.15-2.42-.64-4.89-.36-7.26.38-3.26,1.36-6.45,2-9.69a3.44,3.44,0,0,0-2-.61c-4.76,1.48-9.42,3.32-14.23,4.6A42.52,42.52,0,0,1,207.8,41c-7.14.16-8.75-5.83-7.46-12,1.75-8.3,7.69-12.81,13.4-17.82C217,8.29,231.39,6.78,235.29,9c4.72,2.72,10.35,4.5,14,8.22A74.46,74.46,0,0,1,261.6,34.67C264.23,39.63,265.17,45.47,266.32,49.19Z"/><path class="cls-1" d="M19,310.57c.29-2.88,1-7.28,1.1-11.69.08-4-.58-7.95-.83-11.93a18.32,18.32,0,0,1,.08-5.78,4.38,4.38,0,0,1,3-2.54c2.33-.39,4.82.22,7.15-.15,7.41-1.14,11.88,1.07,15,8.63,2.72,6.56,8,12.08,12.24,18,1.68,2.31,5.44,4.59,5.21,6.54-.71,6.12-3,12-4.41,18.09-.73,3-1,6.19-1.63,9.24-.24,1.05-1.13,2.8-1.75,2.81a135.8,135.8,0,0,1-13.68-.43,56.19,56.19,0,0,1-7.38-1.6c-3.8-.87-7.6-1.7-11.37-2.65a1.92,1.92,0,0,1-1.07-1.39C20.08,327.85,19.59,320,19,310.57ZM38,319c3.05-4,6.17-8,9.2-12.11.18-.25-.34-1-.53-1.55l-1.06,1.08c-3.18,3.18-6.38,6.34-9.5,9.57a2.71,2.71,0,0,0-.43,1.81C35.7,318,36.41,318.2,38,319Z"/><path class="cls-1" d="M204.46,70.26c-6.26.19-6.31-1.6-5.48-5.63,1.36-6.56,1.39-13.39,2-20.11.05-.63-.08-1.43.26-1.83s1.11-.11,1.7-.14c6.22-.38,12.46-.53,18.64-1.23,2.72-.32,5.31-1.78,8-2.64a2.49,2.49,0,0,1,1.48.14,9.57,9.57,0,0,1-.1,2.62c-.7,3.37-1.73,6.7-2.12,10.11-.36,3.08,4.64,5.81,7.5,4.39,3.14-1.56,6.26-3.16,9.5-4.48.9-.37,2.68-.18,3.17.44a5.27,5.27,0,0,1,.88,3.74c-.47,3-2,5.91-1.81,8.78.1,1.64,2.53,3.39,4.26,4.59,1.31.9,3.17,1,4.77,1.5.07,0,.11.78-.06.91-4.95,3.81-10.08,7.4-14.87,11.4s-8.68,8.63-13.64,12.05c-1.79,1.23-5.71.26-8.26-.73a39.28,39.28,0,0,1-10.83-6c-1.31-1.08-.78-4.33-1.24-6.57-.25-1.23-.89-2.37-1.23-3.58-.43-1.5-.65-3-1.13-4.53A30.66,30.66,0,0,0,204.46,70.26Z"/><path class="cls-1" d="M424.6,527.2c.22,6.77-4.92,6.65-8.15,8a178,178,0,0,1-18,6.2c-3.81,1.17-7.83,1.68-11.64,2.84s-7.19,2.91-10.89,4A7.93,7.93,0,0,1,371,548a95.67,95.67,0,0,1-12.79-6.34c-.4-.24.71-5.1,2.15-5.86,5.15-2.73,11-4.13,16.11-7,6.75-3.75,15.21-4.84,19.67-12.34,1.51-2.54-.41-8.37-3.26-10.31a41,41,0,0,1-6.09-5.78,2.11,2.11,0,0,1,.78-1.64c4.61-1.4,9.48-2.18,13.86-4.08,6.71-2.92,5.63,4,7.29,6.07,5.4,6.82,9.66,14.55,14.22,22A20.59,20.59,0,0,1,424.6,527.2Z"/><path class="cls-1" d="M90.29,97.24c-7.8-.65-11.86-4.61-15.61-9.62-2.09-2.78-5.35-4.7-8.15-6.93-2.46-2-5-3.79-7.49-5.74-.28-.22-.46-1.12-.29-1.27a3.45,3.45,0,0,1,1.64-.76c4.32-.79,8.82-1,12.91-2.42,3.93-1.35,3.84-6,.81-9A32.62,32.62,0,0,1,69,54c-.28-.5.71-2.46,1.33-2.58,1.51-.27,3.72-.46,4.62.4,2.61,2.49,4.25,6.24,7.16,8,2,1.21,6.54,1,8-.45,2.14-2.2,2.56-6.09,3.68-9.27a14.08,14.08,0,0,1,.44-1.81c.09-.18.87,0,1.33,0,3.34-.1,6.69-.4,10-.2.8,0,1.71,1.64,2.23,2.69,2.56,5.24,5.07,10.52,7.39,15.88.16.37-1.36,1.45-2.09,2.22A63.64,63.64,0,0,0,108,74.45a13.45,13.45,0,0,0-2.29,5,15.79,15.79,0,0,0-.2,6c1,5.58-2.11,7.76-6.79,9C95.56,95.31,92.47,96.51,90.29,97.24Z"/><path class="cls-1" d="M102.92,97.91c-.9,4-1.57,7.41-2.44,10.75-1.73,6.68,2.49,10.38,7,13.66,6.11,4.42,9.16,13.59,6.19,20.47-.27.62-2.56,1.18-2.94.8C104.9,137.79,99,132,93.61,125.8c-2.3-2.68-2.66-7.21-5.18-9.48-2.9-2.61-7.11-4-11-5.29-7-2.43-13.11-6.07-17.43-12.19-2.65-3.75.82-13.76,5.34-14.23,2.12-.22,5.53,2.35,6.72,4.54,3.74,6.9,13.41,12,21.22,10.21,2.48-.57,4.8-1.77,7.27-2.41C101.28,96.78,102.22,97.6,102.92,97.91Z"/><path class="cls-1" d="M117.67,319.86c-1.24-2.43-2.5-4.66-3.53-7-.64-1.46-.5-3.52-1.5-4.5-1.39-1.36-3.6-1.86-5.3-3a2.37,2.37,0,0,1-.66-2.18,114.15,114.15,0,0,1,9.36-12.3c.74-.79,4.8-.07,5.69,1.15,4.85,6.66,9.29,13.65,13.67,20.64,1.7,2.7,3.92,5.7,4,8.6,0,2.26-2.39,5.59-4.6,6.7a178.73,178.73,0,0,1-23.38,10c-4.51,1.51-9.63,1.28-14.48,1.69a33.13,33.13,0,0,1-7.11,0c-.6-.07-.88-1.92-1.44-2.87-2.6-4.36-1.08-11.23,3.29-13.34.6-.3,2.24,1.5,3.38,2.37,3.07,2.35,6,6.36,9.22,6.62s7.1-2.81,10-5.25C116,325.69,116.45,322.63,117.67,319.86Z"/><path class="cls-1" d="M201.66,504.87c-8.84.89-16.64,1.91-24.47,2.28-1.81.08-3.71-2.09-5.57-3.23,1.7-1.36,3.21-3.25,5.15-4,8.59-3.24,18.72-4.33,25.58-9.67,7.33-5.72,13.4,0,19.86-1.64,3-.76,6.5.49,9.76,1,.61.09,1.58.82,1.62,1.31a70.59,70.59,0,0,1,.39,11.43c-.49,5.4-7.31,8.33-12.36,5.87a21.92,21.92,0,0,0-6.5-1.83C210.32,505.7,205.48,505.29,201.66,504.87Z"/><path class="cls-1" d="M166.28,521.72c-8.17-1.07-15.43-2.24-22.72-2.9-7.51-.68-15.06-1.09-22.6-1.13-2.66,0-5.29,1.68-8,2-1.33.18-3.71-.55-4.06-1.47-.71-1.85-.39-4.1-.43-6.19,0-.3.51-.62.5-.92-.29-8,6.3-5.16,10.05-6a169.22,169.22,0,0,1,22.49-3.46c1.84-.16,3.81,2.59,5.89,3.68a119.86,119.86,0,0,0,12.27,5.86c5,1.93,10.22,3.3,15.26,5.13.23.09,0,3.25-.58,3.44A70.78,70.78,0,0,1,166.28,521.72Z"/><path class="cls-1" d="M42.77,541.38c2.17,1.63,4.8,3.58,7.4,5.57,4.55,3.48,9.13,6.94,13.6,10.53.91.73,1.37,2,2,3-2,0-4.07-.1-6.11-.1a16.14,16.14,0,0,0-4.3.21c-2.84.8-5.53,2.09-8.38,2.86a18.53,18.53,0,0,1-6.9,1c-4.12-.52-8.8-.72-12.07-2.86-4.54-3-8-7.56-11.82-11.6-.13-.14,1.17-2.35,2.07-2.59C26.15,545.33,34.05,543.49,42.77,541.38Z"/><path class="cls-1" d="M107.81,310.48c-3-.55-5.43-1.06-7.84-1.36-.59-.07-1.27.54-1.91.84.67.58,1.26,1.46,2,1.69,3.17.93,6.47,1.42,9.57,2.52,6.29,2.26,5.36,7.34,2.8,11.27-4.26,6.5-9.62,5.79-15.59-1.25-5-5.93-10.44-11.54-15.79-17.18-.84-.89-2.25-1.22-3.4-1.81a26.41,26.41,0,0,1,2.24-2.36c1-.83,2.34-1.31,3.11-2.28,3.68-4.63,6.27-2.7,10.18.36,4.57,3.59,10.39,5.59,15.67,8.29.39.2.74.46,1.12.69Z"/><path class="cls-1" d="M15.67,232.86c-.52-6.82-1.06-13.64-1.52-20.47a17.45,17.45,0,0,1,.38-3.27,13.36,13.36,0,0,1,1.88,2.56c3.49,8.24,7.08,16.44,10.29,24.79,2.29,6,4,12.16,6,18.26.06.21-.08.71-.19.73a4.64,4.64,0,0,1-1.91.18c-3.07-.68-6.18-2.23-9.17-2-6.18.44-5.27-4.48-5.78-7.47-.74-4.31-.19-8.83-.19-13.26Z"/><path class="cls-1" d="M222.24,301.84c2.44,2.41,4.53,5.41,7.39,7.11,4.48,2.66,4.77,5.52,2.17,9.5a12.43,12.43,0,0,0-1.59,3.9c-1.63,7.06-5.3.77-7.9,1-1.54.16-4.7-1.71-4.69-2.64a57.75,57.75,0,0,1,1.7-12.3c.64-2.74,2.08-5.29,3.13-7.93.25-.63.39-1.3.58-1.95l.57,2.05Z"/><path class="cls-1" d="M112.55,152.09c-.26,5-.51,10-.79,15a3.38,3.38,0,0,1-.38.94c-.56-.61-1.35-1.12-1.66-1.84-2.32-5.48-4.49-11-6.82-16.5-1.48-3.48-3.22-6.84-4.71-10.31a8.38,8.38,0,0,1-.2-2.77c.31,0,.74-.12.92,0,.84.74,1.58,1.59,2.4,2.34,3.69,3.35,7.46,6.62,11,10.07.66.63.65,1.95,1,3Z"/><path class="cls-1" d="M107.44,110.72c1.22.38,3.89.83,3.89,1.3a62.72,62.72,0,0,1-1,8.58,7.29,7.29,0,0,1-1.49-.79,62.13,62.13,0,0,1-5.7-5.41c-.55-.63-.5-2.83-.13-3C104.26,110.86,105.73,110.92,107.44,110.72Z"/><path class="cls-1" d="M120.84,185.09c-.19.86-.43,1.92-.67,3a13.38,13.38,0,0,0-.85-2.62c-2.3-4.16-4.69-8.27-7-12.42a2.61,2.61,0,0,1-.13-.94,14.81,14.81,0,0,1,1.49.2C120.7,173.84,119.6,180,120.84,185.09Z"/><path class="cls-1" d="M88.22,283.73l8.25,2.46-4.33,6.38-5.24-8Z"/><path class="cls-1" d="M224.71,293.29c1.87-3.75,3.74-7.52,5.64-11.28.05-.1.53-.13.54-.09.13.38.41.87.28,1.18q-2.29,5.5-4.75,11c-.19.42-.75.68-1.15,1C225.11,294.54,224.94,294,224.71,293.29Z"/><path d="M300,358.49c3,1.92,6,3.95,9.06,5.7,6,3.37,12,6.72,18.08,9.82,4.56,2.31,9.34,4.19,14,6.36a1.83,1.83,0,0,1,.5,1.7,1.72,1.72,0,0,1-1.54.71c-6.64-3-13.31-5.94-19.83-9.17-4.43-2.2-8.7-4.75-13-7.25-2.87-1.68-5.64-3.53-8.38-5.41-.32-.22-.3-1.16-.17-1.7C298.78,359,299.41,358.82,300,358.49Z"/><path d="M310.48,384c3,1.47,5.61,2.87,8.33,4.08,3.86,1.72,7.85,3.17,11.67,5,4,1.92,7.86,4.13,11.75,6.26.34.19.45.8.66,1.22-1.1,0-2.36.45-3.28.05-4.57-2-9.06-4.15-13.56-6.3q-8.3-3.94-16.55-8c-.33-.16-.65-1.16-.47-1.37A4.77,4.77,0,0,1,310.48,384Z"/><path d="M209.85,404.72c-4.61-2.64-9.25-5.24-13.8-8-.35-.21-.11-1.4-.15-2.13,1.16.39,2.58.49,3.45,1.23,5.91,5,14,6,21.27,2.73,2.34-1,5.13-1.12,7.75-1.45.47-.05,1.06.84,1.6,1.29-.63.68-1.16,1.77-1.92,2-2.85.69-5.77,1.08-8.67,1.59l-8.64,1.51Z"/><path d="M121,456.05s.76-.92.94-.82a3.25,3.25,0,0,1,1.52,1.59c3,9.08,6,18.19,9,27.28.29.91.68,1.79,1,2.68-.49.14-1.19.55-1.43.36a6.52,6.52,0,0,1-2.25-2.31c-2.55-6.28-5.16-12.55-7.31-19C121.44,463,121.47,459.79,121,456.05Z"/><path d="M54.81,454.58c-2.15-2.95-4.34-5.86-6.44-8.85-2.54-3.63-5-7.29-7.43-11-.28-.43.12-1.29.21-2a25.23,25.23,0,0,1,3.29,2.77c4,4.75,7.67,9.8,12,14.18.73.73,4.25-1.37,6.5-2.09a8.24,8.24,0,0,1,1.87-.17c-.37.72-.57,1.76-1.16,2.1-2.24,1.31-4.62,2.38-6.94,3.54C56.1,453.59,55.46,454.09,54.81,454.58Z"/><path d="M114.34,357.62a25.76,25.76,0,0,1,3.79.54c.42.15.72.71,1,1.11,5,6.11,10,12.21,14.9,18.36a18.61,18.61,0,0,1,1.91,3.55c0,.05-.65.58-.71.53a29.48,29.48,0,0,1-3.23-2.77c-3.56-3.75-7.2-7.45-10.55-11.39C119.21,364.87,117.34,361.83,114.34,357.62Z"/><path d="M22.75,489.2l1.9-3.13c.32,1.13.54,2.28,1,3.37,2.38,6.11,4.84,12.2,7.15,18.34a11.81,11.81,0,0,1,.22,3.44c-.74-.4-1.89-.61-2.16-1.22-2.34-5.23-4.56-10.52-6.72-15.84A47.76,47.76,0,0,1,22.75,489.2Z"/><path d="M139.2,410.94c-5-1.63-8.93-2.83-12.76-4.22-.52-.19-.67-1.36-1-2.07,1.36.05,3-.4,4,.23,4.86,3.14,13.09,4,18-1.87a4.6,4.6,0,0,1,1-.68c-.06,1.06.28,2.69-.26,3.07C145.29,407.44,142.15,409.18,139.2,410.94Z"/><path d="M43.1,364.6c2,.64,2.71.64,2.86.93a14.24,14.24,0,0,1,1,2.77c1.27,4.59,2.59,9.16,3.71,13.78.24,1-.25,2.13-.41,3.21-.71-.89-1.76-1.66-2.07-2.67C46.64,377.43,45.24,372.19,43.1,364.6Z"/><path d="M219.8,197.69c0-2.34-.07-4.68,0-7a8.72,8.72,0,0,1,.76-2.2c.59.79,1.65,1.55,1.7,2.37.21,3.41-.25,6.88.22,10.24,1.1,7.9,2.5,15.76,4,23.6.36,1.87,1.77,3.51,2.22,5.38.3,1.24-.24,2.69-.4,4.05-.68-1-1.7-1.9-2-3-1.9-7.48-3.74-15-5.37-22.52-.77-3.56-1-7.22-1.56-10.84Z"/><path d="M288.4,192.5c-2.7-2-5.42-3.75-7.88-5.82-5.23-4.4-10.36-8.94-15.46-13.51-.44-.39-.32-1.41-.46-2.14.74.09,1.73-.1,2.19.31,4.85,4.28,9.53,8.75,14.44,13,2.43,2.09,5.27,3.7,7.85,5.63.39.29.47,1.14.46,1.73C289.53,191.91,288.91,192.14,288.4,192.5Z"/><path d="M267.28,77.33c.15,1.21.56,2.19.25,2.77s-1.42.83-2.09,1.34c-4,3.07-7.95,6.22-12,9.23a30.94,30.94,0,0,1-4.24,2.21c.89-1.38,1.55-3,2.71-4.11,3.29-3.07,6.71-6,10.22-8.83C263.34,79,265,78.47,267.28,77.33Z"/><path d="M260.23,113.7l-1.52,3.3a9.28,9.28,0,0,0-.82-2.27c-1.66-2.34-3.48-4.57-5.12-6.93-.89-1.28-1.55-2.72-2.32-4.1,1.39.72,3.14,1.12,4.1,2.22C256.71,108.42,258.48,111.25,260.23,113.7Z"/><path d="M205.21,134.59c-3.56-2-7-3.79-10.33-5.79-.39-.24-.16-1.49-.22-2.27a13.46,13.46,0,0,0,1.41.73c3.31,1.24,6.65,2.39,9.92,3.72a2.44,2.44,0,0,1,1.21,1.83C207.22,133.25,206.23,133.72,205.21,134.59Z"/><path d="M263.29,146.94c-.84,1.44-2.38,4.22-4.09,6.9-.21.33-1.29.11-2,.09a1.12,1.12,0,0,1-.1-.72c.31-.71.77-1.36,1.05-2.08,1.22-3.07,2.39-6.15,3.6-9.22a6.22,6.22,0,0,1,.73-1.13c.26.37.7.73.74,1.13C263.36,143,263.29,144,263.29,146.94Z"/><path d="M190.12,130.71l1-1.94a14.21,14.21,0,0,1,1.77,1.69,44,44,0,0,1,2.84,4.23,17.35,17.35,0,0,1,1,2.72c-.93-.34-2.18-.41-2.73-1.06A66.11,66.11,0,0,1,190.12,130.71Z"/><path d="M122.41,243.68l-2,4.48c-.35-1.69-.84-3.37-1-5.08-.92-8.87-1.65-17.76-2.68-26.62-.47-4-1.54-8-2.16-12-.09-.57.84-1.29,1.29-1.94.37.45,1,.86,1.08,1.35.93,7.11,1.74,14.23,2.69,21.34C120.45,231.05,121.39,236.88,122.41,243.68Z"/><path d="M88.64,144.37l1-1.74c.63.6,1.55,1.07,1.86,1.8q4.41,10.15,8.63,20.39c2.19,5.27,4.33,10.56,6.32,15.91.19.5-.82,1.46-1.28,2.21a28.25,28.25,0,0,1-2.12-3.36c-3.22-7.21-6.47-14.41-9.5-21.7C91.73,153.55,90.32,149.05,88.64,144.37Z"/><path d="M40.53,192.32c1.81-2.51,3.73-4.84,5.26-7.39s2.5-5.05,3.75-7.57a14.33,14.33,0,0,1,.92-1.42c.31.7,1.1,1.66.88,2.07-2.75,5.05-5.62,10-8.54,15-.22.38-1.06.5-1.61.49C41,193.46,40.77,192.77,40.53,192.32Z"/><path d="M55.08,120.92c4.22.18,10.93,8.54,10.29,12.22-.06.31-.81.82-1,.73a5.58,5.58,0,0,1-1.91-1.26q-4.14-4.55-8.18-9.19c-.38-.44-.85-1.41-.7-1.57A5.16,5.16,0,0,1,55.08,120.92Z"/><path d="M46.09,217.31c-1,0-1.9.26-2.46-.08a3.44,3.44,0,0,1-1-1.94c-1.06-3.78-2.1-7.57-3-11.4-.09-.35.82-.94,1.27-1.42.35.38.87.69,1,1.13,1.3,3.8,2.53,7.62,3.75,11.44A21,21,0,0,1,46.09,217.31Z"/><path d="M34.45,113.39a6.07,6.07,0,0,1,2.3,0,39.68,39.68,0,0,1,4,2.28c-1.21.14-2.42.36-3.63.4a48.91,48.91,0,0,1-5.55-.09,8.18,8.18,0,0,1-2.27-.91,9.79,9.79,0,0,1,2.35-1.64,9.65,9.65,0,0,1,2.85-.06Z"/><path d="M54.44,93a11,11,0,0,1-3-1.26,60.59,60.59,0,0,1-4.3-4.33C47.64,87,48.55,86,48.64,86c2.21,1.72,4.34,3.56,6.49,5.37Z"/><path d="M38,319c-1.6-.8-2.31-1-2.32-1.2a2.71,2.71,0,0,1,.43-1.81c3.12-3.23,6.32-6.39,9.5-9.57l1.06-1.08c.19.53.71,1.3.53,1.55C44.18,311,41.06,315,38,319Z"/></g></g></svg>