<svg xmlns="http://www.w3.org/2000/svg" viewBox="0 0 476.81 594.52"><defs><style>.cls-1{fill:#fff;}</style></defs><g id="Layer_2" data-name="Layer 2"><g id="Layer_1-2" data-name="Layer 1"><path class="cls-1" d="M167.42,443.2l1.49-.23c-1.64-9.37-2.77-18.87-5.1-28.07-1.26-5-3.67-10.3-7.13-14-5.18-5.55-11.91-9.61-17.67-14.67-6.6-5.81-13.28-11.64-19.12-18.18-4.17-4.68-3.17-9.35,1-10.54,3.79-1.1,8-.83,11.84-1.66,2.84-.61,6.15-1.35,8.09-3.23,3.89-3.77,7.08-8.29,10.39-12.63,2.69-3.53,5-7.33,7.73-10.86,1.64-2.14.86-7.38,6.34-5a130.65,130.65,0,0,0,15.1,5.76,36.09,36.09,0,0,0,11.12,1.49c3.31-.09,6.56-1.73,9.9-2.05,7-.67,14.18-.37,21.08-1.59,3.63-.65,7.22-3.23,10.13-5.76a23.37,23.37,0,0,0,5.51-8.14c3.44-7.75,7.35-15.47,9.41-23.62,1.83-7.2.21-14.77-3.27-21.64-.61-1.21-1.66-2.85-1.28-3.78a88.28,88.28,0,0,1,6.23-12.87c3.34-5.37,6.72-10.9,11.07-15.4,5.16-5.34,9.45-10.86,10.29-18.32.77-6.88,1-13.82,1.48-20.73a2.05,2.05,0,0,1,1-1.52c2.81-1,6-1.43,8.46-3,6.79-4.2,13.27-8.89,19.94-13.29a21.41,21.41,0,0,1,3.94-1.61c.31,1.13.64,2.25.93,3.38.52,2,.91,4,1.53,6,2,6.31,3.88,12.67,6.14,18.88,1.71,4.71,4.37,9.09,5.78,13.87,1.14,3.87,3,9.65,1.16,11.89-6.46,8-14.4,14.81-21.66,22.19a21.65,21.65,0,0,0-4.2,5.91c-.7,1.55.24,4-.66,5.28-4.72,6.69-10.09,12.93-14.67,19.71a265.28,265.28,0,0,0-14.25,23.36,236.94,236.94,0,0,0-12.36,26.5c-2.51,6.53-3.79,13.58-5.11,20.49-1.61,8.52-2.83,17.13-3.95,25.74-.72,5.58-.73,11.26-1.46,16.84-.57,4.38-1.74,8.69-2.66,13-1.6,7.55-3.28,15.08-4.78,22.65a21.92,21.92,0,0,0-.44,6.6c.39,3.57.11,8.18,2.19,10.37,3.14,3.28,1.57,5-.5,6.75-3.92,3.23-8.19,6.05-12.36,9s-8.64,5.39-12.46,8.66c-2.32,2-3.8,5.07-5.22,7.88-.12.23,3,2.33,4.73,3.23,6.31,3.23,12.63,6.46,19.11,9.31a5.3,5.3,0,0,0,4.81-1.1c6.58-7.47,15.65-10.33,24.27-14.28,3.13-1.43,5.7-5.18,7.3-8.46,1.07-2.21-1.37-4.43,2.52-7.62,5.21-4.28,7.32-12.47,10.4-19.15,1.44-3.11,2.09-6.61,3-9.94,2-7,4.25-14,5.88-21.17.92-4,.34-8.4,1.29-12.42,1.75-7.45,3.54-15,6.41-22.06,2.66-6.59,6.58-12.7,10.26-18.83,2.74-4.58,6-8.87,9-13.24,2.94-4.19,5.77-8.49,9.05-12.41,1.56-1.88,2.93-5.67,6.76-2.9,1.61,1.17,3.1,2.64,4.89,3.38,8.55,3.54,17.32,6.58,25.74,10.39,5.66,2.57,11.82,5.2,16,9.49,5.4,5.5,9.25,12.58,13.44,19.19,3.49,5.52,6.2,11.54,9.8,17,3.16,4.78,7.85,8.65,10.47,13.65a104.87,104.87,0,0,1,7.71,20.32,147,147,0,0,1,4.88,23.79c1.06,9.79.57,19.74,1.54,29.54a28.17,28.17,0,0,0,4.58,11.76c1.87,2.9,5.68,4.51,7.8,7.32a160.32,160.32,0,0,1,11.83,17.77c2.61,4.64,4,10,6.29,14.81,1,2.11,2.53,4.39,4.45,5.47,1.13.63,4.11-.41,5.2-1.64,3.36-3.81,7.18-7.69,9-12.26,1.71-4.37,2.89-10.45,1.13-14.35-3-6.72-8.81-12.16-12.87-18.49-2-3.13-4.86-6.82.19-10.59,2.06-1.54,3.95-4.8,4-7.29,0-5-1.48-10-2-15.11-.6-5.91-.75-11.87-1.24-17.79-.81-9.81-1.66-19.62-2.64-29.41-.71-7.12-1.72-14.2-2.48-21.31-1-9.09-1.51-18.23-2.83-27.27-.7-4.8-2.5-9.47-4.08-14.12-1.82-5.39-3.92-10.69-5.94-16-1.1-2.91-2.15-5.84-3.46-8.65-1.71-3.64-3.78-7.12-5.47-10.77-2.89-6.21-5.6-12.5-8.4-18.75-1.87-4.17-4.32-8.18-5.48-12.54-1.1-4.12-.67-8.62-1.24-12.9-1.11-8.45-2-17-3.81-25.28-2-9.17-5.12-18.1-7.46-27.21-.33-1.28.83-3.08,1.65-4.43.23-.38,1.66,0,2.54,0,1.9-.11,4.39.46,5.6-.52,5-4.1,9.5-8.91,14.51-13,11.46-9.44,15.22-22.39,15.83-36.25.28-6.43-1.48-13.2-3.52-19.43A72.35,72.35,0,0,0,439,123.72a101.89,101.89,0,0,0-12.05-14.9c-5.37-5.58-10.89-11.2-17.11-15.76-8.4-6.14-14.33-14-19.89-22.59-2.38-3.64-6.16-6.4-9.42-9.43-1.63-1.52-4.81-.6-3.6-5.46,1.87-7.55,1.92-15.72,1.65-23.59a35.12,35.12,0,0,0-3.82-14.43C369,6.47,358.44,2.07,346.89.21c-8.59-1.39-14.82,4.37-20.1,9.76a41.53,41.53,0,0,0-9.1,15.49,143,143,0,0,0-6,25.95c-1,7.06,2.54,13.24,6.74,19,1,1.3,1.38,4.31.56,5.4-4,5.3-8.67,10.12-12.85,15.32-3.53,4.4-6.43,9.34-10.14,13.58a74.37,74.37,0,0,1-11.54,10.83c-6.73,5-13.36,10.87-21,13.66-9.24,3.37-19.56,3.67-29.32,5.75a155.91,155.91,0,0,0-17.49,5.21c-1.61.55-3.45,3.44-4.17,3.11-6.72-3.2-13-7.35-19.88-10.18-3.55-1.47-8.3-2.24-11.16,2.53a2.62,2.62,0,0,1-2.25-.32c-4.05-5.28-12.47-5.75-16.68-.61a133.33,133.33,0,0,0-10.3,13.77,42.12,42.12,0,0,0-4.77,11.41c-1.68,6.35-2.12,13.08-4.19,19.28-2.87,8.62-15.34,10.68-22.57,4.61-3.75-3.15-7.91-6.48-12.45-7.81-5.55-1.63-11.69-1.67-17.56-1.55-2.68.05-5.5,1.83-7.93,3.35-8.82,5.51-17.55,11.18-26.23,16.93-4.62,3.06-9.52,5.93-13.44,9.76-3.3,3.22-5.66,7.55-7.9,11.68a156.84,156.84,0,0,0-8.46,17.64c-2.54,6.49-4.08,13.36-6.52,19.89C18.12,259.17,15.09,264.4,13,270a17.68,17.68,0,0,0-.52,8.23c.45,3.27,2.25,6.39,2.5,9.66.4,5.24-1,10.8.26,15.73,1.09,4.21-.55,7-1.76,10.24-2.26,6.06-5.08,11.93-7,18.08-2,6.33-3.37,12.88-4.87,19.37-.14.59.61,1.51,1.13,2.1,1.14,1.27,3.18,2.27,3.48,3.67.81,3.77.21,7.92,1.44,11.48,2.25,6.52,5.51,12.69,8.16,19.08,1.67,4,4.12,8.16,4.19,12.29.12,6.4-1.36,12.85-2.41,19.24a107.22,107.22,0,0,1-2.66,11.58c-1.95,6.86-4.25,13.63-6.08,20.52-.9,3.4-1,7-1.6,10.49C5.68,470,4,478.14,2.38,486.36A113.3,113.3,0,0,0,.26,499.75c-.23,3.45-.79,8.39,1.11,10.1C4,512.25,5,513.65,3.92,517s-.87,6.84-2,10c-1.65,4.46-.24,11,3.48,13,2.62,1.42,11.4-1.26,13.64-3,4.9-3.92,10.23-7.32,15.5-10.76,3.23-2.11,7-3.51,9.93-5.93,4-3.24,8.32-6.63,7.84-12.67-.21-2.56-.17-5.75-1.65-7.42-1.27-1.45-4.51-1.28-6.9-1.58-.91-.11-1.9.48-2.86.76a19.83,19.83,0,0,1,0-3.18c1.14-7,2.91-13.88,3.37-20.89.52-8,.2-16,3.85-23.49,4.08-8.42,7.64-17.09,11.67-25.54.79-1.66,3.33-4.24,4-4,5,2.22,10.22,4.5,14.56,7.82,6.75,5.17,12.7,11.4,19.32,16.76,5.36,4.34,10.29,9.71,18.12,9.76.84,0,2.3,1.89,2.39,3,.61,7.6.56,15.26,1.44,22.82,1.28,11,3.4,21.87,4.66,32.86.45,4-.9,8.14-.83,12.2.12,8.07.43,16.14,1.16,24.17.2,2.2,2.12,4.28,3.35,6.35,1.33,2.22,3.82,4.31,4,6.56.26,4.68-.71,9.42-1.18,14.14,0,.27-.37.54-.34.77.39,2.52-.06,5.92,1.41,7.38,3.45,3.43,7.94,3.54,13.06,3.34,9.1-.35,18.28,1.26,27.42,2.18,7,.7,14.51,5.68,20.26-2.48a10.19,10.19,0,0,0,1.74-6c-.05-1-2.11-2.29-3.5-2.94-4.2-2-9.06-2.93-12.65-5.62-5.82-4.37-11-9.64-16.09-14.87-1.53-1.58-3-6-2.66-6.2a63.54,63.54,0,0,1,12-6.4c3.27-1.27,8.06-7.33,7.52-10.55-1.63-9.62-3.36-19.23-4.73-28.89-1.09-7.72-1.69-15.51-2.57-23.26-.8-7-1.79-13.93-2.49-20.92S168,450.22,167.42,443.2Z"/><path d="M167.42,443.2c.57,7,1,14.05,1.73,21.05s1.69,13.95,2.49,20.92c.88,7.75,1.48,15.54,2.57,23.26,1.37,9.66,3.1,19.27,4.73,28.89.54,3.22-4.25,9.28-7.52,10.55a63.54,63.54,0,0,0-12,6.4c-.37.25,1.13,4.62,2.66,6.2,5.1,5.23,10.27,10.5,16.09,14.87,3.59,2.69,8.45,3.67,12.65,5.62,1.39.65,3.45,1.89,3.5,2.94a10.19,10.19,0,0,1-1.74,6c-5.75,8.16-13.28,3.18-20.26,2.48-9.14-.92-18.32-2.53-27.42-2.18-5.12.2-9.61.09-13.06-3.34-1.47-1.46-1-4.86-1.41-7.38,0-.23.31-.5.34-.77.47-4.72,1.44-9.46,1.18-14.14-.13-2.25-2.62-4.34-4-6.56-1.23-2.07-3.15-4.15-3.35-6.35-.73-8-1-16.1-1.16-24.17-.07-4.06,1.28-8.22.83-12.2-1.26-11-3.38-21.88-4.66-32.86-.88-7.56-.83-15.22-1.44-22.82-.09-1.11-1.55-3-2.39-3-7.83-.05-12.76-5.42-18.12-9.76-6.62-5.36-12.57-11.59-19.32-16.76-4.34-3.32-9.53-5.6-14.56-7.82-.66-.29-3.2,2.29-4,4-4,8.45-7.59,17.12-11.67,25.54-3.65,7.53-3.33,15.49-3.85,23.49-.46,7-2.23,13.92-3.37,20.89a19.83,19.83,0,0,0,0,3.18c1-.28,2-.87,2.86-.76,2.39.3,5.63.13,6.9,1.58,1.48,1.67,1.44,4.86,1.65,7.42.48,6-3.89,9.43-7.84,12.67-2.94,2.42-6.7,3.82-9.93,5.93C29.24,529.6,23.91,533,19,536.92c-2.24,1.78-11,4.46-13.64,3-3.72-2-5.13-8.53-3.48-13,1.16-3.15,1-6.76,2-10s.12-4.73-2.55-7.13C-.53,508.14,0,503.2.26,499.75a113.3,113.3,0,0,1,2.12-13.39C4,478.14,5.68,470,7.24,461.74c.65-3.48.7-7.09,1.6-10.49,1.83-6.89,4.13-13.66,6.08-20.52a107.22,107.22,0,0,0,2.66-11.58c1.05-6.39,2.53-12.84,2.41-19.24-.07-4.13-2.52-8.27-4.19-12.29-2.65-6.39-5.91-12.56-8.16-19.08C6.41,365,7,360.83,6.2,357.06c-.3-1.4-2.34-2.4-3.48-3.67-.52-.59-1.27-1.51-1.13-2.1,1.5-6.49,2.84-13,4.87-19.37,2-6.15,4.79-12,7.05-18.08,1.21-3.24,2.85-6,1.76-10.24-1.27-4.93.14-10.49-.26-15.73-.25-3.27-2-6.39-2.5-9.66A17.68,17.68,0,0,1,13,270c2.06-5.58,5.09-10.81,7.18-16.38,2.44-6.53,4-13.4,6.52-19.89a156.84,156.84,0,0,1,8.46-17.64c2.24-4.13,4.6-8.46,7.9-11.68,3.92-3.83,8.82-6.7,13.44-9.76,8.68-5.75,17.41-11.42,26.23-16.93,2.43-1.52,5.25-3.3,7.93-3.35,5.87-.12,12-.08,17.56,1.55,4.54,1.33,8.7,4.66,12.45,7.81,7.23,6.07,19.7,4,22.57-4.61,2.07-6.2,2.51-12.93,4.19-19.28a42.12,42.12,0,0,1,4.77-11.41,133.33,133.33,0,0,1,10.3-13.77c4.21-5.14,12.63-4.67,16.68.61a2.62,2.62,0,0,0,2.25.32c2.86-4.77,7.61-4,11.16-2.53,6.86,2.83,13.16,7,19.88,10.18.72.33,2.56-2.56,4.17-3.11a155.91,155.91,0,0,1,17.49-5.21c9.76-2.08,20.08-2.38,29.32-5.75,7.66-2.79,14.29-8.66,21-13.66A74.37,74.37,0,0,0,296,104.66c3.71-4.24,6.61-9.18,10.14-13.58,4.18-5.2,8.83-10,12.85-15.32.82-1.09.4-4.1-.56-5.4-4.2-5.71-7.71-11.89-6.74-19a143,143,0,0,1,6-25.95A41.53,41.53,0,0,1,326.79,10c5.28-5.39,11.51-11.15,20.1-9.76C358.44,2.07,369,6.47,374.73,17.56A35.12,35.12,0,0,1,378.55,32c.27,7.87.22,16-1.65,23.59-1.21,4.86,2,3.94,3.6,5.46,3.26,3,7,5.79,9.42,9.43,5.56,8.55,11.49,16.45,19.89,22.59,6.22,4.56,11.74,10.18,17.11,15.76A101.89,101.89,0,0,1,439,123.72a72.35,72.35,0,0,1,8.33,16.72c2,6.23,3.8,13,3.52,19.43-.61,13.86-4.37,26.81-15.83,36.25-5,4.13-9.47,8.94-14.51,13-1.21,1-3.7.41-5.6.52-.88,0-2.31-.33-2.54,0-.82,1.35-2,3.15-1.65,4.43,2.34,9.11,5.44,18,7.46,27.21,1.83,8.3,2.7,16.83,3.81,25.28.57,4.28.14,8.78,1.24,12.9,1.16,4.36,3.61,8.37,5.48,12.54,2.8,6.25,5.51,12.54,8.4,18.75,1.69,3.65,3.76,7.13,5.47,10.77,1.31,2.81,2.36,5.74,3.46,8.65,2,5.32,4.12,10.62,5.94,16,1.58,4.65,3.38,9.32,4.08,14.12,1.32,9,1.86,18.18,2.83,27.27.76,7.11,1.77,14.19,2.48,21.31,1,9.79,1.83,19.6,2.64,29.41.49,5.92.64,11.88,1.24,17.79.52,5.06,2,10.08,2,15.11,0,2.49-1.9,5.75-4,7.29-5.05,3.77-2.2,7.46-.19,10.59,4.06,6.33,9.83,11.77,12.87,18.49,1.76,3.9.58,10-1.13,14.35-1.8,4.57-5.62,8.45-9,12.26-1.09,1.23-4.07,2.27-5.2,1.64-1.92-1.08-3.46-3.36-4.45-5.47-2.29-4.85-3.68-10.17-6.29-14.81a160.32,160.32,0,0,0-11.83-17.77c-2.12-2.81-5.93-4.42-7.8-7.32a28.17,28.17,0,0,1-4.58-11.76c-1-9.8-.48-19.75-1.54-29.54a147,147,0,0,0-4.88-23.79,104.87,104.87,0,0,0-7.71-20.32c-2.62-5-7.31-8.87-10.47-13.65-3.6-5.44-6.31-11.46-9.8-17-4.19-6.61-8-13.69-13.44-19.19-4.22-4.29-10.38-6.92-16-9.49-8.42-3.81-17.19-6.85-25.74-10.39-1.79-.74-3.28-2.21-4.89-3.38-3.83-2.77-5.2,1-6.76,2.9-3.28,3.92-6.11,8.22-9.05,12.41-3.07,4.37-6.29,8.66-9,13.24-3.68,6.13-7.6,12.24-10.26,18.83-2.87,7.06-4.66,14.61-6.41,22.06-1,4-.37,8.39-1.29,12.42-1.63,7.13-3.87,14.13-5.88,21.17-.95,3.33-1.6,6.83-3,9.94-3.08,6.68-5.19,14.87-10.4,19.15-3.89,3.19-1.45,5.41-2.52,7.62-1.6,3.28-4.17,7-7.3,8.46-8.62,3.95-17.69,6.81-24.27,14.28a5.3,5.3,0,0,1-4.81,1.1c-6.48-2.85-12.8-6.08-19.11-9.31-1.76-.9-4.85-3-4.73-3.23,1.42-2.81,2.9-5.89,5.22-7.88,3.82-3.27,8.31-5.76,12.46-8.66s8.44-5.73,12.36-9c2.07-1.71,3.64-3.47.5-6.75-2.08-2.19-1.8-6.8-2.19-10.37a21.92,21.92,0,0,1,.44-6.6c1.5-7.57,3.18-15.1,4.78-22.65.92-4.34,2.09-8.65,2.66-13,.73-5.58.74-11.26,1.46-16.84,1.12-8.61,2.34-17.22,3.95-25.74,1.32-6.91,2.6-14,5.11-20.49a236.94,236.94,0,0,1,12.36-26.5,265.28,265.28,0,0,1,14.25-23.36c4.58-6.78,9.95-13,14.67-19.71.9-1.27,0-3.73.66-5.28a21.65,21.65,0,0,1,4.2-5.91c7.26-7.38,15.2-14.18,21.66-22.19,1.81-2.24,0-8-1.16-11.89-1.41-4.78-4.07-9.16-5.78-13.87-2.26-6.21-4.16-12.57-6.14-18.88-.62-2-1-4-1.53-6-.29-1.13-.62-2.25-.93-3.38a21.41,21.41,0,0,0-3.94,1.61c-6.67,4.4-13.15,9.09-19.94,13.29-2.48,1.53-5.65,1.92-8.46,3a2.05,2.05,0,0,0-1,1.52c-.52,6.91-.71,13.85-1.48,20.73-.84,7.46-5.13,13-10.29,18.32-4.35,4.5-7.73,10-11.07,15.4A88.28,88.28,0,0,0,243,264.81c-.38.93.67,2.57,1.28,3.78,3.48,6.87,5.1,14.44,3.27,21.64-2.06,8.15-6,15.87-9.41,23.62a23.37,23.37,0,0,1-5.51,8.14c-2.91,2.53-6.5,5.11-10.13,5.76-6.9,1.22-14.06.92-21.08,1.59-3.34.32-6.59,2-9.9,2.05a36.09,36.09,0,0,1-11.12-1.49,130.65,130.65,0,0,1-15.1-5.76c-5.48-2.4-4.7,2.84-6.34,5-2.7,3.53-5,7.33-7.73,10.86-3.31,4.34-6.5,8.86-10.39,12.63-1.94,1.88-5.25,2.62-8.09,3.23-3.89.83-8,.56-11.84,1.66-4.14,1.19-5.14,5.86-1,10.54,5.84,6.54,12.52,12.37,19.12,18.18,5.76,5.06,12.49,9.12,17.67,14.67,3.46,3.71,5.87,9,7.13,14,2.33,9.2,3.46,18.7,5.1,28.07Zm39.84-117.38.16.9c2.16,0,4.44.46,6.45-.08,5.24-1.41,10.91-2.4,15.36-5.2,3.39-2.12,5.88-6.49,7.54-10.38A148,148,0,0,0,245,287.52c1-4-.15-8.75-1.39-12.83A49,49,0,0,0,237.67,263a109.23,109.23,0,0,0-8.09-10.42,25.45,25.45,0,0,0-3.43-2.91c-2.09,3-4.11,6.12-6.28,9.1-4.62,6.34-9.34,12.59-13.93,18.94-.57.79-1.11,2.61-.81,2.83,3.14,2.4,6.51,4.5,9.71,6.84a62.42,62.42,0,0,1,4.91,4.3,1.56,1.56,0,0,1-.36.67c-1.4-.37-2.8-.75-4.16-1.23-.29-.1-.35-.77-.65-.94-1-.53-2-.94-3-1.4-.09.23-.33.55-.25.69a75.91,75.91,0,0,1,4.07,7c.57,1.28.23,3,.3,4.45-.7-.35-1.72-.52-2-1.09-2.27-4-4-8.26-6.66-12-3.86-5.47-7.7-11.23-12.67-15.57-4.54-4-10.59-6.16-15.92-9.24-.68-.39-1-1.37-1.51-2.08.65-.39,1.41-1.22,1.91-1.08,1.3.35,2.44,1.26,3.72,1.71a10.81,10.81,0,0,0,2.75.22c-.29-.61-.56-1.24-.88-1.84a55.06,55.06,0,0,0-2.82-5A131.58,131.58,0,0,0,172.94,243c-3.08-3.53-8.21-5.88-9.95-9.85-4.25-9.69-7.16-20-10.42-30.11-1.95-6.06-3.41-12.27-5.38-18.32-.46-1.43-1.75-3.86-3.64-.63A11.82,11.82,0,0,1,140.3,188c-6.34,4.21-12.91,2.54-19.07-.27-6.59-3-12.75-6.9-19.27-10.07-5.62-2.74-14.43-.22-19.25,3.5-6.46,5-13.58,9.12-20.55,13.41-3.58,2.21-8,3.33-11,6-4.11,3.66-7.44,8.25-10.8,12.67-7.27,9.55-10.71,20.75-13.64,32.2-.88,3.46-2.73,6.67-4.13,10-2.41,5.71-5.51,11.25-7,17.18-2,7.79,2.42,13.63,8.13,18.4a3.29,3.29,0,0,0,3.21-.46c1.54-2.16,2.39-4.82,4-7,3.06-4.2,6.43-8.17,9.68-12.23,6.33-7.91,12.53-15.92,19-23.69,4.13-4.93,5.08-9.1,1.49-11.6-1.89-1.31-4.56-1.52-6.9-2.14-.15,0-.64.59-.7.95-.5,2.77-.82,5.57-1.47,8.3-.2.84-1.18,1.57-2,2.14-.26.19-1.26-.16-1.48-.53a2.57,2.57,0,0,1,.06-1.7c.66-2.46,2.13-5,1.92-7.32-.46-5,2.2-5.16,5.64-4.33,1.73.41,3.26,1.66,5,2.12,1,.27,3,.11,3.3-.46.85-1.81.89-4,1.59-5.88,2.06-5.59,4.26-11.12,6.48-16.65.15-.36,1.27-.77,1.48-.59.48.38,1.07,1.27.92,1.69-1.25,3.47-2.9,6.8-4,10.31-1.8,5.92-2.82,12.1-5,17.85a60,60,0,0,1-7.31,13c-2.56,3.62-6.13,6.52-8.89,10a160.92,160.92,0,0,0-10.1,14.25c-1.45,2.33-6.27,3.67-3.17,7.8,3.38,4.5,7,8.82,10.39,13.3,4.91,6.46,9.29,13.39,14.68,19.41C70.72,328,80.05,338.34,90.29,347.6c6.51,5.89,14.68,10,24.31,8.47,6.35-1,12.76-1.68,19.07-2.88a11.73,11.73,0,0,0,6-3.11,91.23,91.23,0,0,0,8.16-10.47c3.38-4.85,6.36-10,9.82-14.75,1.32-1.81,3.88-4.55,5.21-4.22,5.08,1.26,9.8,3.9,14.83,5.46,4.25,1.32,8.77,2.66,13.13,2.53C196.33,328.47,201.79,326.83,207.26,325.82Zm190.81-32.68c-.29,1.05-.25,4.73-2.07,6.51s-5.59,2.22-8.58,2.8c-8.74,1.7-16.85-1.27-24.88-4a184,184,0,0,1-17.72-7.26,99.07,99.07,0,0,1-13.18-7.23c-5.54-3.68-10.6-8.1-16.16-11.76-3.82-2.51-8.13-4.27-12.23-6.35-1.51-.77-4.19-2.38-4.41-2.1-3.62,4.63-7.09,9.39-10.28,14.33-4.08,6.35-7.73,13-11.85,19.29-3.5,5.37-7.81,10.25-11,15.79a82.22,82.22,0,0,0-6.58,15.47c-2.82,8.7-5.3,17.53-7.56,26.4-1,3.8-.87,7.85-1.48,11.75-1.52,9.73-3.17,19.45-4.78,29.17-.92,5.5-1.79,11-2.79,16.49-1.6,8.72-3.11,17.46-5,26.11s2.43,13.34,9.64,16.41c4.21,1.79,8.39,3.82,12.79,4.93,2.79.7,6.07,5.37,8.86.33a181.69,181.69,0,0,0,8.07-16.61c1.36-3.19,1.9-6.73,2.94-10.07,1.95-6.3,4.5-12.47,5.87-18.89,1.45-6.74,1.06-13.92,2.82-20.55a159.42,159.42,0,0,1,9-24.75c2.76-6.06,6.63-11.69,10.46-17.18,5-7.18,10.56-14,15.69-21.11.52-.72-.23-2.35-.38-3.56a21.59,21.59,0,0,1-.28-2.88,2.69,2.69,0,0,1,1.74-.21c2.25,1.23,4.39,2.68,6.63,3.94,5,2.83,9.93,5.95,15.18,8.32,8.2,3.7,16.69,6.74,25,10.3,8.77,3.77,14.11,11.09,18.66,19.05,2.92,5.11,5.27,10.59,8.47,15.51,3.52,5.43,8.23,10.12,11.51,15.67,4.36,7.36,8.64,15,11.44,23,2.75,7.85,4.14,16.3,5.13,24.61A154.58,154.58,0,0,1,428,472.45c-.48,7.82,3.5,10.84,9.6,12.94,7.26,2.5,19.14-2,23.59-8.18,3.45-4.8,2.22-9.51,1.65-14.69-1.36-12.31-1.95-24.7-2.85-37-.12-1.68-.11-3.36-.29-5-1.56-13.91-3.2-27.8-4.71-41.71-.63-5.85-.91-11.73-1.53-17.58a28.22,28.22,0,0,0-1.55-6.45c-1.86-5.15-4-10.22-5.86-15.36-1.51-4.11-2.55-8.42-4.3-12.41-2.15-4.88-4.93-9.48-7.24-14.29-1.58-3.3-2.73-6.79-4.24-10.12q-3.51-7.71-7.26-15.31c-.86-1.74-2.88-4.79-3.08-4.69-3.26,1.64-6.22,3.84-9.45,5.55-1.08.57-3.65.6-3.94,0-2.77-5.33-5.12-10.89-7.79-16.28-.67-1.36-2.08-2.36-3.15-3.53a19.34,19.34,0,0,0-.18,3.12c.06.61.83,1.15.89,1.76C396.87,279.17,397.37,285.16,398.07,293.14Zm-271,233.37h0c0,7.67-.09,15.34,0,23,.06,4,1.4,7.29,6.31,6.92,3.13-.24,6.24-.77,9.36-1.22s6.33-.5,9.18-1.58c5.48-2.07,10.77-4.66,16.06-7.2,4.32-2.06,8.45-4.36,7.4-10.38-.92-5.3-1.8-10.61-2.48-15.94-1-8-1.82-16-2.74-23.94-.36-3.05-.77-6.1-1.16-9.15-1.31-10.26-2.88-20.5-3.85-30.8-1.18-12.65-1.44-25.4-2.95-38-.53-4.43-2.93-9-5.65-12.7a57.13,57.13,0,0,0-12.13-12.12c-4.56-3.33-8.68-8.53-15.61-6.9a43.06,43.06,0,0,1-6.35,1.11c-7,.56-14.09,1-21.14,1.48a2.36,2.36,0,0,0-1.16.6c-3.21,2.7-7.71,2.57-8.56-.35-1-3.59-1.67-7.31-2.83-10.86-1.91-5.8-4.09-11.5-6.23-17.22a1.54,1.54,0,0,0-1.35,0c-2.42,2.92-4.73,5.94-7.12,8.88-3.22,4-6.29,8.08-9.83,11.74-1.85,1.91-4.45,3.83-6.92,4.15-1.83.23-3.89-2.35-6-3.27-6.33-2.73-13.08-4.68-19-8-6.95-3.89-13.23-8.95-19.84-13.45a18.53,18.53,0,0,0-3-1.32c-.17,1-.68,2.08-.46,3,1.14,4.66,2,9.49,3.87,13.83a70.41,70.41,0,0,0,8.54,14.7c3.15,4,7.28,7.42,11.34,10.64a80.83,80.83,0,0,0,12.46,8.3c7,3.73,14.38,6.86,21.54,10.36,4.39,2.15,9.1,3.95,12.9,6.89C85.77,432.3,90.93,438.16,97,442.9c7,5.52,13.53,12.62,24,10.9.27-.05,1.06,1.06,1.07,1.64.14,8.48-.41,17,.43,25.42.86,8.57,3.53,17,4.52,25.53C127.71,513,127.1,519.8,127.1,526.51ZM411.66,154.89c-1.7.18-3-.07-3.54.45a172.51,172.51,0,0,0-12.32,12.47c-2.11,2.49-5.71,5.61-.1,8.82a28.73,28.73,0,0,1,7.05,6.12c6.17,7.11,12.11,14.42,18.22,21.59.18.22,1.45-.1,1.87-.52,1.63-1.62,3.12-3.4,4.67-5.1,5.27-5.77,11.88-10.82,15.42-17.49,3.25-6.12,3.77-13.94,4.47-21.1,1.05-10.69-2.1-20.63-7.79-29.64-3.63-5.73-7.24-11.62-11.82-16.56-6.15-6.64-13.26-12.39-19.89-18.61-4.86-4.56-10-8.92-14.28-14-4.46-5.25-7.94-11.31-12.15-16.8-.89-1.16-3-1.55-4.66-1.85-.5-.09-1.65,1.24-1.86,2.09-1.78,7-2.53,14.46-5.37,21-2.36,5.44-6.87,10.07-10.87,14.67-4.43,5.08-10.54,9-13.82,14.7a132.41,132.41,0,0,0-11.58,27c-2.68,8.67-3.75,17.86-5.21,26.88-1.11,6.85-1.91,13.76-2.52,20.68-.7,8.08-1,16.2-1.57,24.3-.11,1.57-1.18,3.39-.66,4.62.94,2.26,2.65,5.87,4.19,5.94,11.26.55,22.56.45,33.85.35a65.92,65.92,0,0,0,8.88-1.19c.3,0,.56-.33.83-.5a5.74,5.74,0,0,0-.79-.77c-2.32-1.57-5.61-2.62-6.74-4.79s-1.49-6.86-.05-8.27c3.24-3.19,1.22-7.73,3-9.93,4.22-5.28,9.9-9.39,15-13.91,1.87-1.65,4.62-2.73,5.68-4.74,1.61-3.05,1.32-7.23,3.23-9.94,3.45-4.92,7.79-9.25,12-13.56,5.33-5.43,5.32-8-1-12-2.24-1.43-5.28-1.79-7.25-3.46-6-5.11-11.63-10.6-17.34-16-.26-.24.1-1.31.39-1.88a1.27,1.27,0,0,1,1.2-.29c8.22,6.43,16.36,13,24.6,19.37,3.41,2.66,7,4.95,8.87-1.57a20.21,20.21,0,0,1,1.06-2.44c.8.64,2.38,1.59,2.27,1.87a41.15,41.15,0,0,1-2.75,5l-.66,1.12a6.48,6.48,0,0,0,1.47.33c1.44,0,2.88-.08,4.31,0a2.16,2.16,0,0,1,1.57.69c.24.4.09,1.54-.16,1.63a8.45,8.45,0,0,1-2.21.12,57.62,57.62,0,0,0-6,.61c-.51.09-.86,1.09-1.28,1.68a20.22,20.22,0,0,0,2,.35c.95.08,2.06-.23,2.84.16a18.18,18.18,0,0,1,3.51,2.65c.14.12-.23,1.16-.35,1.16a9.88,9.88,0,0,1-2.77-.35A32.76,32.76,0,0,1,411.66,154.89Zm-177.2-16.64-.19-.78a26.92,26.92,0,0,0-4.31,0c-2.74.45-5.81.49-4.91,5,1.38,6.87,3.11,13.79,3.4,20.74.33,8-.69,16-1.25,24-.18,2.5-.82,5-1.13,7.46a13.31,13.31,0,0,0,.09,3.06c4.59.07,9.19,0,13.78-.05,1.35,0,3.71-.1,3.88.4.83,2.58,1,5.37,1.61,8a16,16,0,0,0,1.67,3.4,4.31,4.31,0,0,0,.57-.93c1.73-5.91,3.2-11.91,5.22-17.72,1.84-5.34,10-7.44,14.21-3,2,2.1,2.57,7.13,7.48,5.38,2.43-.87,5.05-1.48,7.18-2.85,5.5-3.53,10.81-7.35,16.12-11.18,2.46-1.77,6.38-3.5,6.79-5.77,1.57-8.68,1.94-17.57,2.87-26.36A36.25,36.25,0,0,1,309,141a1.6,1.6,0,0,1,1.34-.79,1.52,1.52,0,0,1,.91,1.18c-.25,1.53-.85,3-1.05,4.53-.92,7.07-2.52,14.17-2.37,21.22.13,6.61,1.77,13.27,3.43,19.73,2.28,8.88,5.19,17.6,7.86,26.38a12.41,12.41,0,0,0,1.07,2.2,5.76,5.76,0,0,0,.67.89c.22-.36.59-.7.63-1.08.38-3.58.67-7.18,1-10.76.82-7.94,1.59-15.88,2.54-23.8q1.92-15.92,4.13-31.78a68.15,68.15,0,0,1,2.07-7.81c.93-3.58,2.79-7.23,2.55-10.73-.55-8.25-2.33-16.41-3.19-24.65-.48-4.63-.09-9.35-.16-14,0-.43-.58-1.21-.89-1.21-6.83,0-7.29-5-8.06-9.88-.14-.85-.33-1.7-.49-2.54a10,10,0,0,0-2.15,1.58c-5.94,7.62-11.34,15.72-17.85,22.8-6.91,7.53-14.87,14.09-22.35,21.09a6.74,6.74,0,0,0-1.11,1.73c-.05.1.26.46.48.6a74.9,74.9,0,0,1,7.61,5.38c.92.83.84,2.76,1.21,4.19a6.62,6.62,0,0,1-1.77-.62c-3.08-2.28-5.91-5-9.28-6.75-1.53-.77-4.09.49-6.19.83.46.68.78,1.58,1.42,2,2.94,1.91,6,3.6,8.91,5.57.6.4.71,1.63.88,2.5a1.21,1.21,0,0,1-.72.94,2.18,2.18,0,0,1-1.62-.37c-6.66-7.23-17.64-9.29-26.78-5.78C246.2,135.83,240.23,136.78,234.46,138.25ZM20.85,510l0-.45c3.42,0,6.88.34,10.23-.12,2.06-.29,5.36-1.48,5.67-2.83a181.51,181.51,0,0,0,3.61-21.76c.86-8.17,1.1-16.4,1.62-24.61a3.82,3.82,0,0,1,.2-1c2-5.44,3.69-11,6-16.28,2.56-5.82,5.73-11.38,8.52-17.11,1-2,2.55-5.9,2.27-6.06-5.89-3.25-12.21-5.73-18-9.1-5.54-3.22-10.6-7.28-15.89-10.94a3.1,3.1,0,0,0-1.46-.49c-.22,0-.61.49-.65.8-.91,6.67-1.65,13.38-2.7,20a106.8,106.8,0,0,1-2.68,12c-2,7-4.31,13.95-6.18,21-.88,3.33-.88,6.9-1.52,10.31-1.55,8.32-3.35,16.59-4.86,24.91-.94,5.15-1.68,10.35-2.17,15.55-.14,1.48.7,4.29,1.43,4.41C9.78,509.07,15.33,509.44,20.85,510ZM237.26,202.66c.28.51.1-.29-.24-.36-2.38-.53-4.81-1.38-7.18-1.24-6.38.37-9.26-3.54-11.2-8.6-2.35-6.13-4.36-12.39-6.74-18.51-.31-.79-1.91-1.08-2.92-1.6a9.93,9.93,0,0,0-.53,2.15c-.07,5.17.07,10.35-.17,15.52a11.24,11.24,0,0,1-1.68,5.53c-2.15,3.17-5.51,5.69-7,9.08-2.67,6-4.27,12.43-6.49,18.62a6.63,6.63,0,0,1-2.58,3.13c-2.75,1.73-6.16,2.66-8.42,4.84s-3.79,5.68-5.55,8.63c-.34.56-.71,1.55-.46,2,3.56,5.69,7.29,11.28,10.84,17,1.34,2.15,2,4.87,3.62,6.67,3.2,3.44,6.89,6.43,10.43,9.56a5.55,5.55,0,0,0,2.12,1.2c3.94-4.54,8.06-9,11.51-13.84,3.62-5.13,6.41-10.84,10-16,1-1.41,4-1.43,4.89-2.84a27,27,0,0,0,4.06-9.63C235,223.87,236,213.77,237.26,202.66ZM4.34,349.52C5.91,351.4,7.5,354,9.7,355.8a152.87,152.87,0,0,0,14.51,11.13,103.74,103.74,0,0,0,12.88,6.65c5.42,2.55,10.86,5.07,16.42,7.26,2.17.85,5.89,1.94,6.86,1a146,146,0,0,0,14.1-17c1.59-2.26,8-5.82,0-8.59a4.4,4.4,0,0,1-1.79-1.07c-5.11-5.5-10.13-11.1-15.28-16.56-4.56-4.85-9.31-9.52-13.89-14.36-5.3-5.6-10.38-11.41-15.82-16.85-1.43-1.43-3.08-6.84-6.09-1.28-3.61,6.66-7.42,13.3-10.22,20.31S6.9,340.9,4.34,349.52Zm170.25-157.1-1.09.25c.53,1.45,1,4.11,1.58,4.12,2.07,0,4.16-1.19,6.25-1.19a73.56,73.56,0,0,1,11.86.88c2.21.35,5.19,3,6.24,2.29,6.37-4.33,6.66-11.15,6.66-18.22,0-7.75-1.28-15.41-6-21.19-6.14-7.44-13.7-13.74-20.83-20.34-2.29-2.12-5.2-5.07-7.77-5-3.1.08-6.49,2.52-9.13,4.7-6.83,5.66-10.8,13.16-12.44,21.88a64.61,64.61,0,0,0-1.41,8.09c-.22,3.74-3.77,6.56-.47,11.49,3.76,5.62,4.72,13.09,7,19.73a21.13,21.13,0,0,0,2,3.48c1.48-.93,3.62-1.51,4.31-2.84,2-3.95,3.18-8.38,5.31-12.27,1.2-2.2,3.3-5.79,6.49-2.62C174.45,187,174.14,190.11,174.59,192.42ZM395.14,292.53c-.5-6.06-.82-11.52-1.51-16.92-.17-1.27-2.12-3.49-2.42-3.36-3,1.32-5.79,3.35-8.87,4.51-1.51.56-4.55,4.15-5.27-1.24-.28-2.1-1.59-4.1-2.62-6q-4.86-9.23-9.87-18.35a3.9,3.9,0,0,0-1.8-1.85c-.43-.13-1.32.81-1.83,1.41-2.53,2.94-5.1,5.86-7.48,8.93-3.2,4.16-6.21,8.46-9.41,12.62a2.14,2.14,0,0,1-2,.35,65.45,65.45,0,0,1-5-5.51c-2-2.5-6.38-4.51-3.6-8.54,3.59-5.21,7.9-9.93,11.88-14.88a15.73,15.73,0,0,0,1.06-1.71,8.61,8.61,0,0,0-2.16-.56c-7.73,0-15.46,0-23.19-.06-1.59,0-3.81-.81-4.66,0-5.17,4.7-10.06,9.73-15,14.71a21,21,0,0,0-2.21,3.29c5.74,3.39,11.53,6.71,17.21,10.21,4.32,2.67,8.53,5.54,12.74,8.39,5.18,3.5,10,7.61,15.54,10.45,4.92,2.55,10.76,3.26,15.8,5.61,8.4,3.93,16.88,7.5,26.27,5.88C390.66,299.15,396.92,299.34,395.14,292.53Zm-60-247.37-11.43,2c-4.65.81-8.28,3.34-8.94,8A12.84,12.84,0,0,0,317,63.54c3.67,5.15,7.49,9.94,7.26,16.79a10.12,10.12,0,0,0,1.83,6.13c2,2.57,7.88-.41,8.33,5.21,0,.07.58,0,.64.17.46,1,1.34,2.07,1.19,3-.27,1.5-2.06,3.86-1.71,4.17,1.85,1.64,4.07,3.66,6.33,3.88,6.08.6,11.32-4.43,13.77-11.29,1.43-4,4-7.63,5.76-11.58a14.13,14.13,0,0,0,1-6c-.05-1.43-1.86-3.1-1.48-4.17,1-2.71,2.89-5.07,4.12-7.72,1.65-3.56,3.05-7.24,4.42-10.92.1-.28-1-1.45-1.5-1.44-5.81.14-6.5,5.32-8.67,9-.73,1.24-1.3,3.57-2,3.61a8.4,8.4,0,0,1-5.31-1.55c-.68-.52.23-2.83,0-4.24-.43-2.34-.57-6-2-6.65C344.14,47.61,338.89,46.37,335.15,45.16Zm-64.8,160.6c-1-4.93-1-8.63-2.61-11.44-1.42-2.54-4.35-5.1-7.06-5.74-1.7-.39-5.35,2.31-6.17,4.39-2.35,6-3.61,12.34-5.54,18.48-.3,1-1.87,1.56-2.85,2.33-.75-1-1.94-1.83-2.15-2.89-.63-3.28-.86-6.63-1.32-9.95-.05-.41-.59-1.11-.76-1.07-.55.12-1.4.46-1.49.85a82.35,82.35,0,0,0-1.63,8.79c-.57,5.34-.85,10.72-1.36,16.07a47.59,47.59,0,0,1-1.26,8.45c-.75,2.63-2.25,5.05-3.29,7.61s-3,5.28-2.37,7.24a18,18,0,0,0,6.08,8.39c1.28,1,1.92,7.46,5.76,2.21.77-1.06.93-2.54,1.62-3.67,3.22-5.27,6.26-10.69,9.9-15.66,3.12-4.29,8.19-7.52,10.2-12.17C267.22,220.61,268.55,212.44,270.35,205.76ZM420,273.38c-1.28-10.09-2.24-18.25-3.4-26.38-.63-4.45-1.44-8.89-2.5-13.26-.52-2.17-1.37-4.37-4.72-3.34-5.89,1.8-11.87,3.34-17.86,4.79-4.5,1.09-9.08,1.81-13.59,2.85-.61.13-1.57,1.36-1.43,1.7,1.15,2.79,2.49,5.51,3.83,8.22,2.85,5.74,5.67,11.49,8.64,17.17a31.91,31.91,0,0,0,3.14,4.18c-.23-1.26-1-2.72-.58-3.72.84-2.06-3.11-6.51,2.59-6,1,.09,1.77,2.94,2.67,4.51,3.33,5.82,6.63,11.66,10,17.43.73,1.24,2.17,3.34,2.74,3.17,2.47-.72,5.46-1.58,6.89-3.44C418.45,278.68,419.25,275.13,420,273.38ZM133.58,579.22c-.35,5.27,3.46,9.36,7.78,9.06,7.68-.53,15.37-.88,23.06-1,1.92,0,3.82,1.27,5.79,1.61,6.38,1.1,12.74,5.13,19.23.61,1.07-.75,1.64-2.32,2.17-3.61.12-.29-.8-1.24-1.41-1.55-5.61-2.89-11.89-4.9-16.72-8.75-6-4.78-10.8-11.08-16.16-16.68-1.13-1.17-2.57-3.09-3.72-3-5.07.43-10.07,1.55-15.11,2.25-2.47.35-4.23.21-4,4C134.91,567.82,134,573.54,133.58,579.22ZM171.45,193.4c.06-1.32.19-2.64.15-4a8.61,8.61,0,0,0-.59-2c-.66.33-1.66.5-1.92,1-1.41,2.83-2.41,5.89-4,8.62a65.25,65.25,0,0,1-5.54,7.73c-.75.95-2.74,1.7-2.66,2.35.26,2.1,1.74,4.09,1.83,6.16.36,8.33,3.72,15.24,9.16,21.35,4.5,5.05,7.21,4.89,10.2-1.49,1.86-4,3.32-7.59,8.41-8.43,1.53-.26,3.27-2.48,3.91-4.18,1.53-4.11,2.42-8.45,3.66-12.66.58-2,2.53-4.74,1.86-5.65-4.58-6.13-11.15-5.46-17.54-3.82C171.13,200.36,171.11,200.51,171.45,193.4Zm91.43,275.33c1.32-5.21-2.56-6.18-6.29-7.44-3-1-5.95-2.41-9-3.42-2.21-.73-5.41-2.33-6.68-1.44-4.83,3.39-8.83,7.95-13.56,11.5-4.94,3.7-10.5,6.58-15.51,10.21-1.29.94-1.55,3.31-2.29,5a28.4,28.4,0,0,1,3.16,1.17c2,1,3.91,2.11,5.9,3.1,3.91,1.93,7.81,3.9,11.81,5.61a3.34,3.34,0,0,0,3.11-.52c5.61-7.12,13.5-10.51,21.68-13.27C260.41,477.5,264.36,475.33,262.88,468.73Zm213.06,45.88c-3.4-5.34-6.23-9.66-8.93-14.07-2.89-4.7-5.61-9.51-8.51-14.2-.46-.75-2-1.79-2.17-1.63-6.87,5.19-14.33,4.08-21.9,2.28a8.45,8.45,0,0,0-2.38.16c.19.75.14,1.78.62,2.21,2.19,2,4.88,3.53,6.76,5.76a90.81,90.81,0,0,1,9.93,13.35c3.23,5.7,5.45,12,8.27,17.93,1.14,2.4,2.72,4.6,4.1,6.9,1.38-1,3.13-1.8,4.06-3.14C469.17,525.33,472.26,520.3,475.94,514.61ZM377.36,222.83l1-1.21c1.73-.3,4.21,0,5.06-1a130.49,130.49,0,0,0,7.9-11.49c2.94-4.49,6.06-8.88,8.6-13.58a18.35,18.35,0,0,0,2.17-8.37c0-1.56-2-3.31-3.45-4.62a17.6,17.6,0,0,0-5-3.13c-.35-.15-1.49,1.5-2.24,2.34-1.11,1.26-2,2.85-3.31,3.75-4.61,3.11-9.48,5.84-14,9-1.7,1.2-2.78,3.3-4.14,5,1.62-1.17,3.2-2.42,4.89-3.47a29.54,29.54,0,0,1,3.69-1.72c-.07.9.23,2.12-.25,2.65-3.51,3.9-7.41,7.47-10.68,11.55-1.34,1.68-2.6,5.72-1.86,6.37C369.22,218,373.41,220.26,377.36,222.83ZM20.26,512.73l-.06-.56c-2.57,0-5.26.46-7.71-.1-5.26-1.19-5.43,2.66-6,5.77a122.16,122.16,0,0,0-1.62,13.75c-.1,1.54.33,3.81,1.38,4.61,5.25,4,8.69-.38,12.63-3.05,6.17-4.17,12.25-8.7,19-11.82,5.9-2.75,12.12-9.71,11.5-16.23-.14-1.43-2.67-3.8-3.89-3.68-1.71.18-3.45,2.09-4.76,3.61-1.53,1.77-2.3,5.27-4,5.66C31.39,512,25.78,512.14,20.26,512.73ZM124.61,384.35v.38c1.88-.36,3.75-.71,5.62-1.12a1.57,1.57,0,0,0-.1-1c-4-4.14-8.33-8-12-12.45-2.64-3.19-4.65-5.74-9.62-5.57-5.89.19-11.83-1.41-17.77-1.91-.32,0-6-5.76-3.18,1.76,2.24,6,3.38,12.46,5.65,18.47.68,1.8-.52,7.28,4.91,4.65a8.1,8.1,0,0,1,2.41-1.13C108.55,385.69,116.58,385,124.61,384.35ZM187.8,134.19c-1.79,1-3,1.22-3.21,1.84a3.33,3.33,0,0,0,.24,2.89c2,2.17,4.41,3.93,6.34,6.13,4.22,4.84,8.23,9.87,12.36,14.79,2.84,3.39,1.95,10,8.76,10,4.18,0,8.37.18,12.55.29.06-2.42,1-5.34,0-7.16-2.49-4.42,5.42-14.68-8-13.52-3.83.33-8-5.09-12.25-7.36C199,139.13,193.16,136.68,187.8,134.19Zm147.91-26c.35,5.12.65,9.55,1,14,0,.4.38.77.58,1.16.23-.37.48-.72.68-1.1,1.07-2.12,1.74-4.59,3.26-6.32,5.43-6.17,10.9-12.34,16.82-18,7.58-7.3,11.47-16.37,14.05-26.23a3.17,3.17,0,0,0-.13-1.39.69.69,0,0,0-.61-.08c-1.73,1.32-4.06,2.34-5,4.1C362.59,81.06,359,88,355.88,95.12s-9.7,11.88-17.52,10.4C333.78,104.65,336,107.38,335.71,108.17Zm55.94,109.37c5-1.83,10.21-3.33,15-5.73,1.71-.85,5.38-3.76.27-6-1.85-.82-3.53-2-5.4-2.8a2.73,2.73,0,0,0-2.49.39c-2.55,3.35-4.95,6.81-7.3,10.3a22.82,22.82,0,0,0-1.55,3.45Zm-165.8-43.91a13.23,13.23,0,0,0-2.69-.28c-1.55.13-3.21,1-4.62.68-3.58-.84-4.85-.46-2.53,3.21a17.58,17.58,0,0,1,1.3,3.4c1.33,3.72,2.61,7.45,4,11.13.22.59,1.08.94,1.65,1.41.19-.26.5-.5.54-.78C224.29,186.43,225,180.46,225.85,173.63Zm179.5,18.81a37.53,37.53,0,0,0-2.54,4.36c-.36.88-.58,2.65-.2,2.86,4.6,2.59,9.31,5,14,7.36a1.72,1.72,0,0,0,1.17-.27,3.23,3.23,0,0,0-.43-1.86c-1.85-2-3.85-3.83-5.74-5.78S407.76,195,405.35,192.44ZM16.4,296.68c.5,2.29.92,4.49,1.54,6.63a2.11,2.11,0,0,0,1.81.16c4.17-3.46,4-8.94-.34-12.23a2.16,2.16,0,0,0-1.66,0C17.21,293,16.82,294.87,16.4,296.68ZM224.28,144.36c-2.12-2-3.29-3.35-3.47-3.23a61.66,61.66,0,0,0-4.94,3.93c.9.44,1.84,1.3,2.69,1.22C220,146.14,221.36,145.39,224.28,144.36Z"/><path class="cls-1" d="M207.26,325.82c-5.47,1-10.93,2.65-16.43,2.81-4.36.13-8.88-1.21-13.13-2.53-5-1.56-9.75-4.2-14.83-5.46-1.33-.33-3.89,2.41-5.21,4.22-3.46,4.78-6.44,9.9-9.82,14.75a91.23,91.23,0,0,1-8.16,10.47,11.73,11.73,0,0,1-6,3.11c-6.31,1.2-12.72,1.88-19.07,2.88-9.63,1.51-17.8-2.58-24.31-8.47C80.05,338.34,70.72,328,61.51,317.71c-5.39-6-9.77-12.95-14.68-19.41-3.4-4.48-7-8.8-10.39-13.3-3.1-4.13,1.72-5.47,3.17-7.8A160.92,160.92,0,0,1,49.71,263c2.76-3.5,6.33-6.4,8.89-10a60,60,0,0,0,7.31-13c2.19-5.75,3.21-11.93,5-17.85,1.07-3.51,2.72-6.84,4-10.31.15-.42-.44-1.31-.92-1.69-.21-.18-1.33.23-1.48.59-2.22,5.53-4.42,11.06-6.48,16.65-.7,1.9-.74,4.07-1.59,5.88-.26.57-2.26.73-3.3.46-1.73-.46-3.26-1.71-5-2.12-3.44-.83-6.1-.71-5.64,4.33.21,2.36-1.26,4.86-1.92,7.32a2.57,2.57,0,0,0-.06,1.7c.22.37,1.22.72,1.48.53.79-.57,1.77-1.3,2-2.14.65-2.73,1-5.53,1.47-8.3.06-.36.55-1,.7-.95,2.34.62,5,.83,6.9,2.14,3.59,2.5,2.64,6.67-1.49,11.6-6.51,7.77-12.71,15.78-19,23.69-3.25,4.06-6.62,8-9.68,12.23-1.57,2.14-2.42,4.8-4,7a3.29,3.29,0,0,1-3.21.46c-5.71-4.77-10.14-10.61-8.13-18.4,1.52-5.93,4.62-11.47,7-17.18,1.4-3.32,3.25-6.53,4.13-10,2.93-11.45,6.37-22.65,13.64-32.2,3.36-4.42,6.69-9,10.8-12.67,3.05-2.72,7.46-3.84,11-6,7-4.29,14.09-8.43,20.55-13.41,4.82-3.72,13.63-6.24,19.25-3.5,6.52,3.17,12.68,7.07,19.27,10.07,6.16,2.81,12.73,4.48,19.07.27a11.82,11.82,0,0,0,3.25-3.93c1.89-3.23,3.18-.8,3.64.63,2,6.05,3.43,12.26,5.38,18.32,3.26,10.12,6.17,20.42,10.42,30.11,1.74,4,6.87,6.32,9.95,9.85a131.58,131.58,0,0,1,8.67,11.93,55.06,55.06,0,0,1,2.82,5c.32.6.59,1.23.88,1.84a10.81,10.81,0,0,1-2.75-.22c-1.28-.45-2.42-1.36-3.72-1.71-.5-.14-1.26.69-1.91,1.08.5.71.83,1.69,1.51,2.08,5.33,3.08,11.38,5.28,15.92,9.24,5,4.34,8.81,10.1,12.67,15.57,2.62,3.7,4.39,8,6.66,12,.32.57,1.34.74,2,1.09-.07-1.49.27-3.17-.3-4.45a75.91,75.91,0,0,0-4.07-7c-.08-.14.16-.46.25-.69,1,.46,2,.87,3,1.4.3.17.36.84.65.94,1.36.48,2.76.86,4.16,1.23a1.56,1.56,0,0,0,.36-.67,62.42,62.42,0,0,0-4.91-4.3c-3.2-2.34-6.57-4.44-9.71-6.84-.3-.22.24-2,.81-2.83,4.59-6.35,9.31-12.6,13.93-18.94,2.17-3,4.19-6.06,6.28-9.1a25.45,25.45,0,0,1,3.43,2.91A109.23,109.23,0,0,1,237.67,263a49,49,0,0,1,5.94,11.72c1.24,4.08,2.35,8.86,1.39,12.83a148,148,0,0,1-8.23,23.54c-1.66,3.89-4.15,8.26-7.54,10.38-4.45,2.8-10.12,3.79-15.36,5.2-2,.54-4.29.08-6.45.08ZM141.52,197.5c-1.13.82-1.77,1.08-1.76,1.31a4.17,4.17,0,0,0,.55,2c1.84,2.74,5,5.23,5.42,8.16,1.13,7.31,2.41,14.38,6.89,20.46a21.85,21.85,0,0,0,3.32,3c-.24-1.4-.17-2.94-.77-4.16-1.57-3.16-4-6-5.06-9.29-1.41-4.28-1.38-9-2.89-13.26C146.16,202.77,143.56,200.34,141.52,197.5Zm-47.45,111-.35,1.74A30.25,30.25,0,0,0,99,312.59q11.17,2.69,22.45,5c.72.15,1.69-.89,2.54-1.38-.17-.28-.3-.75-.53-.81-3.58-.92-7.19-1.76-10.77-2.67-4.56-1.16-9.1-2.42-13.67-3.52A45.48,45.48,0,0,0,94.07,308.49Zm67.83-20.7c.57,1.77.82,2.53,1.07,3.29a6.49,6.49,0,0,0,1.32-1.47c.94-2.07,1.42-4.43,2.7-6.24,2.88-4.07,6.2-7.83,9.16-11.85.45-.62-.06-1.93-.12-2.93a8.18,8.18,0,0,0-2.1,1.3,67.75,67.75,0,0,0-5.87,7.26C165.72,280.74,163.75,284.57,161.9,287.79Zm-.46,19.3h0c0-1.73.08-3.48-.05-5.2a6.24,6.24,0,0,0-.9-1.91c-.54.6-1.53,1.19-1.55,1.81-.13,3.7-.09,7.41,0,11.11,0,.47.9.9,1.38,1.34.38-.47,1-.92,1.07-1.41C161.51,310.92,161.44,309,161.44,307.09Zm-25.55,11.82a53.55,53.55,0,0,0,6.88-1.43c.66-.23,1-1.63,1.29-2.55a2.53,2.53,0,0,0-1.49-.77,45.13,45.13,0,0,0-6.1,1.23,30,30,0,0,0-4,1.79Z"/><path class="cls-1" d="M398.07,293.14c-.7-8-1.2-14-1.79-19.95-.06-.61-.83-1.15-.89-1.76a19.34,19.34,0,0,1,.18-3.12c1.07,1.17,2.48,2.17,3.15,3.53,2.67,5.39,5,11,7.79,16.28.29.56,2.86.53,3.94,0,3.23-1.71,6.19-3.91,9.45-5.55.2-.1,2.22,3,3.08,4.69q3.76,7.59,7.26,15.31c1.51,3.33,2.66,6.82,4.24,10.12,2.31,4.81,5.09,9.41,7.24,14.29,1.75,4,2.79,8.3,4.3,12.41,1.88,5.14,4,10.21,5.86,15.36a28.22,28.22,0,0,1,1.55,6.45c.62,5.85.9,11.73,1.53,17.58,1.51,13.91,3.15,27.8,4.71,41.71.18,1.66.17,3.34.29,5,.9,12.35,1.49,24.74,2.85,37,.57,5.18,1.8,9.89-1.65,14.69-4.45,6.19-16.33,10.68-23.59,8.18-6.1-2.1-10.08-5.12-9.6-12.94a154.58,154.58,0,0,0-1.29-27.68c-1-8.31-2.38-16.76-5.13-24.61-2.8-8-7.08-15.62-11.44-23-3.28-5.55-8-10.24-11.51-15.67-3.2-4.92-5.55-10.4-8.47-15.51-4.55-8-9.89-15.28-18.66-19.05-8.27-3.56-16.76-6.6-25-10.3-5.25-2.37-10.15-5.49-15.18-8.32-2.24-1.26-4.38-2.71-6.63-3.94a2.69,2.69,0,0,0-1.74.21,21.59,21.59,0,0,0,.28,2.88c.15,1.21.9,2.84.38,3.56-5.13,7.11-10.67,13.93-15.69,21.11-3.83,5.49-7.7,11.12-10.46,17.18a159.42,159.42,0,0,0-9,24.75c-1.76,6.63-1.37,13.81-2.82,20.55-1.37,6.42-3.92,12.59-5.87,18.89-1,3.34-1.58,6.88-2.94,10.07a181.69,181.69,0,0,1-8.07,16.61c-2.79,5-6.07.37-8.86-.33-4.4-1.11-8.58-3.14-12.79-4.93-7.21-3.07-11.54-7.77-9.64-16.41s3.41-17.39,5-26.11c1-5.48,1.87-11,2.79-16.49,1.61-9.72,3.26-19.44,4.78-29.17.61-3.9.52-7.95,1.48-11.75,2.26-8.87,4.74-17.7,7.56-26.4a82.22,82.22,0,0,1,6.58-15.47c3.19-5.54,7.5-10.42,11-15.79,4.12-6.32,7.77-12.94,11.85-19.29,3.19-4.94,6.66-9.7,10.28-14.33.22-.28,2.9,1.33,4.41,2.1,4.1,2.08,8.41,3.84,12.23,6.35,5.56,3.66,10.62,8.08,16.16,11.76a99.07,99.07,0,0,0,13.18,7.23,184,184,0,0,0,17.72,7.26c8,2.75,16.14,5.72,24.88,4,3-.58,6.64-.91,8.58-2.8S397.78,294.19,398.07,293.14ZM360.48,311.2a9.42,9.42,0,0,0,.8,2.06c5.78,8,11.57,16,17.44,24,.4.54,1.44.61,2.19.89.1-.72.56-1.67.26-2.13-2.26-3.49-4.66-6.88-7-10.29-3.19-4.58-6.32-9.19-9.63-13.68-.74-1-2.11-1.56-3.19-2.32Zm-109.22,143c1.73-1.15,3.88-2.07,5.31-3.64,4.39-4.87,8.55-9.95,12.68-15,.62-.76.62-2,.9-3.08-1,.29-2.41.26-3,.93-5.75,6.1-11.39,12.32-17,18.53a8.91,8.91,0,0,0-.92,1.52Zm14.37-70.32.61-1c3.57-.55,7.17-1,10.72-1.71.84-.17,1.49-1.26,2.23-1.92-.86-.24-1.81-.85-2.56-.66-8.09,2-15.87,2.57-22.86-3.3-.69-.58-2.26-.12-3.43-.14.2.74.18,1.94.62,2.15C255.81,379.59,260.73,381.71,265.63,383.88Zm174.81,66.71c-1.19.62-2.07.87-2.07,1.13a2.83,2.83,0,0,0,.63,1.88,87.88,87.88,0,0,0,7.29,7.16,55.72,55.72,0,0,0,7.25,4.57c.23.13.81-.35,1.23-.55a6.26,6.26,0,0,0-.69-1c-1.51-1.5-3-3-4.57-4.46C446.48,456.36,443.43,453.45,440.44,450.59Zm3-53,.4-1a22.41,22.41,0,0,0,4.64-.08,12.7,12.7,0,0,0,3.88-1.89c.2-.13-.12-1.08-.2-1.65-1.28.33-2.57.68-3.86,1a1.58,1.58,0,0,1-.71.06c-3.63-.71-7.23-1.55-10.88-2.1-.84-.13-1.84.7-2.74,1.14-.05,0,.09.76.27.84C437.3,395.15,440.37,396.37,443.44,397.6Zm-18-12c.77-.45,1.44-.64,1.46-.88a2.41,2.41,0,0,0-.43-1.64c-2.45-2.64-4.9-5.28-7.52-7.74-.83-.78-2.17-1-3.28-1.49a14.16,14.16,0,0,0,0,2.91c.1.53.72,1,1.19,1.4C419.7,380.63,422.58,383.09,425.44,385.57Z"/><path class="cls-1" d="M127.1,526.51c0-6.71.61-13.5-.16-20.12-1-8.57-3.66-17-4.52-25.53-.84-8.4-.29-16.94-.43-25.42,0-.58-.8-1.69-1.07-1.64-10.43,1.72-17-5.38-24-10.9-6-4.74-11.19-10.6-17.26-15.29-3.8-2.94-8.51-4.74-12.9-6.89-7.16-3.5-14.51-6.63-21.54-10.36a80.83,80.83,0,0,1-12.46-8.3c-4.06-3.22-8.19-6.6-11.34-10.64a70.41,70.41,0,0,1-8.54-14.7c-1.91-4.34-2.73-9.17-3.87-13.83-.22-.89.29-2,.46-3a18.53,18.53,0,0,1,3,1.32c6.61,4.5,12.89,9.56,19.84,13.45,6,3.35,12.72,5.3,19,8,2.13.92,4.19,3.5,6,3.27,2.47-.32,5.07-2.24,6.92-4.15,3.54-3.66,6.61-7.78,9.83-11.74,2.39-2.94,4.7-6,7.12-8.88a1.54,1.54,0,0,1,1.35,0c2.14,5.72,4.32,11.42,6.23,17.22,1.16,3.55,1.78,7.27,2.83,10.86.85,2.92,5.35,3.05,8.56.35a2.36,2.36,0,0,1,1.16-.6c7-.5,14.1-.92,21.14-1.48a43.06,43.06,0,0,0,6.35-1.11c6.93-1.63,11.05,3.57,15.61,6.9a57.13,57.13,0,0,1,12.13,12.12c2.72,3.67,5.12,8.27,5.65,12.7,1.51,12.61,1.77,25.36,2.95,38,1,10.3,2.54,20.54,3.85,30.8.39,3.05.8,6.1,1.16,9.15.92,8,1.73,16,2.74,23.94.68,5.33,1.56,10.64,2.48,15.94,1,6-3.08,8.32-7.4,10.38-5.29,2.54-10.58,5.13-16.06,7.2-2.85,1.08-6.1,1.13-9.18,1.58s-6.23,1-9.36,1.22c-4.91.37-6.25-2.91-6.31-6.92-.13-7.67,0-15.34,0-23ZM111.53,421.25c5.45-.59,11.08-1.15,16.7-1.88.54-.07.94-1.19,1.41-1.82-.55-.26-1.14-.82-1.64-.75-2.22.32-4.45,1.3-6.63,1.17-9.2-.52-18.37-1.41-27.57-2-1.32-.08-2.7.65-4,1.07-.23.07-.35.5-.52.77.79.45,1.54,1.22,2.37,1.32C98.15,419.89,104.69,420.53,111.53,421.25Zm46.16,104.49,1.19.34a16.14,16.14,0,0,0,.07,3.75,10.82,10.82,0,0,0,1.67,2.77,14.26,14.26,0,0,0,.85-2.72c.5-4.67.65-9.39,1.43-14,.51-3,1.9-5.84,2.85-8.76a6.6,6.6,0,0,0,.1-1.55c-.63,0-1.78-.21-1.83-.05C161.85,512.23,159.78,519,157.69,525.74Zm-6.43-70.57c3.25-1.87,6.19-3.47,9-5.26.51-.33.54-1.43.78-2.18-.77.12-1.8,0-2.27.41-4.22,3.92-9.46,4.26-14,.92-.48-.36-1.5,0-2.28,0,.19.71.15,1.82.59,2.07C145.53,452.5,148.05,453.62,151.26,455.17Zm-23.34-1.66c2.57-3.14,5.41-6.52,8.11-10,.28-.35-.23-1.31-.37-2a5.83,5.83,0,0,0-1.77.78c-2.85,2.81-5.65,5.68-8.44,8.56a5.41,5.41,0,0,0-.69,1.28Z"/><path class="cls-1" d="M411.66,154.89a32.76,32.76,0,0,0,3.19,1.27,9.88,9.88,0,0,0,2.77.35c.12,0,.49-1,.35-1.16a18.18,18.18,0,0,0-3.51-2.65c-.78-.39-1.89-.08-2.84-.16a20.22,20.22,0,0,1-2-.35c.42-.59.77-1.59,1.28-1.68a57.62,57.62,0,0,1,6-.61,8.45,8.45,0,0,0,2.21-.12c.25-.09.4-1.23.16-1.63a2.16,2.16,0,0,0-1.57-.69c-1.43-.07-2.87,0-4.31,0a6.48,6.48,0,0,1-1.47-.33l.66-1.12a41.15,41.15,0,0,0,2.75-5c.11-.28-1.47-1.23-2.27-1.87a20.21,20.21,0,0,0-1.06,2.44c-1.9,6.52-5.46,4.23-8.87,1.57-8.24-6.41-16.38-12.94-24.6-19.37a1.27,1.27,0,0,0-1.2.29c-.29.57-.65,1.64-.39,1.88,5.71,5.42,11.36,10.91,17.34,16,2,1.67,5,2,7.25,3.46,6.29,4,6.3,6.54,1,12-4.24,4.31-8.58,8.64-12,13.56-1.91,2.71-1.62,6.89-3.23,9.94-1.06,2-3.81,3.09-5.68,4.74-5.14,4.52-10.82,8.63-15,13.91-1.76,2.2.26,6.74-3,9.93-1.44,1.41-1.13,6,.05,8.27s4.42,3.22,6.74,4.79a5.74,5.74,0,0,1,.79.77c-.27.17-.53.46-.83.5a65.92,65.92,0,0,1-8.88,1.19c-11.29.1-22.59.2-33.85-.35-1.54-.07-3.25-3.68-4.19-5.94-.52-1.23.55-3.05.66-4.62.55-8.1.87-16.22,1.57-24.3.61-6.92,1.41-13.83,2.52-20.68,1.46-9,2.53-18.21,5.21-26.88a132.41,132.41,0,0,1,11.58-27c3.28-5.66,9.39-9.62,13.82-14.7,4-4.6,8.51-9.23,10.87-14.67,2.84-6.55,3.59-14,5.37-21,.21-.85,1.36-2.18,1.86-2.09,1.64.3,3.77.69,4.66,1.85,4.21,5.49,7.69,11.55,12.15,16.8,4.3,5.05,9.42,9.41,14.28,14,6.63,6.22,13.74,12,19.89,18.61,4.58,4.94,8.19,10.83,11.82,16.56,5.69,9,8.84,18.95,7.79,29.64-.7,7.16-1.22,15-4.47,21.1-3.54,6.67-10.15,11.72-15.42,17.49-1.55,1.7-3,3.48-4.67,5.1-.42.42-1.69.74-1.87.52-6.11-7.17-12.05-14.48-18.22-21.59a28.73,28.73,0,0,0-7.05-6.12c-5.61-3.21-2-6.33.1-8.82a172.51,172.51,0,0,1,12.32-12.47C408.67,154.82,410,155.07,411.66,154.89ZM328,193.59a2.32,2.32,0,0,0,.83,1c.23.16,1.31-.31,1.48-.72a18.11,18.11,0,0,0,1.18-4c1.34-8.38,2.23-16.85,4-25.13,1.42-6.52,4-12.79,5.94-19.19a7.55,7.55,0,0,0,.1-2.77c0-.1-1.21-.37-1.41-.15a7.2,7.2,0,0,0-1,2c-.18.43-.33.87-.49,1.31-1.92,5.17-4.53,10.2-5.62,15.54C330.94,171.75,329.71,182.22,328,193.59Zm17-69.93c.71,1.13,1.06,1.7,1.41,2.28.61-.46,1.41-.79,1.78-1.39.64-1,.76-2.49,1.53-3.39,4.82-5.64,9.77-11.16,14.63-16.77a9.66,9.66,0,0,0,1.14-2.4c-1,.13-2.37-.11-3,.46a115,115,0,0,0-9.75,10C349.87,116,347.54,119.9,345,123.66ZM382.22,72l-1.54-4.58a9.43,9.43,0,0,0-1.85,2.07Q373.7,80.57,368.74,91.7c-.29.65,0,1.56.05,2.35.6-.13,1.55-.08,1.75-.44C374.64,86.16,378.65,78.66,382.22,72Zm4.36,88.83c-3.55-5.31-6.22-9.37-9-13.32-.23-.33-1.51.05-2.28.2a1.71,1.71,0,0,0,0,1.15c2,3.25,4,6.48,6,9.7.47.77.81,1.79,1.5,2.19S384.43,160.85,386.58,160.85Z"/><path class="cls-1" d="M234.46,138.25c5.77-1.47,11.74-2.42,17.25-4.54,9.14-3.51,20.12-1.45,26.78,5.78a2.18,2.18,0,0,0,1.62.37,1.21,1.21,0,0,0,.72-.94c-.17-.87-.28-2.1-.88-2.5-2.89-2-6-3.66-8.91-5.57-.64-.41-1-1.31-1.42-2,2.1-.34,4.66-1.6,6.19-.83,3.37,1.71,6.2,4.47,9.28,6.75a6.62,6.62,0,0,0,1.77.62c-.37-1.43-.29-3.36-1.21-4.19a74.9,74.9,0,0,0-7.61-5.38c-.22-.14-.53-.5-.48-.6a6.74,6.74,0,0,1,1.11-1.73c7.48-7,15.44-13.56,22.35-21.09,6.51-7.08,11.91-15.18,17.85-22.8A10,10,0,0,1,321,78c.16.84.35,1.69.49,2.54.77,4.85,1.23,9.93,8.06,9.88.31,0,.88.78.89,1.21.07,4.67-.32,9.39.16,14,.86,8.24,2.64,16.4,3.19,24.65.24,3.5-1.62,7.15-2.55,10.73a68.15,68.15,0,0,0-2.07,7.81q-2.24,15.85-4.13,31.78c-.95,7.92-1.72,15.86-2.54,23.8-.38,3.58-.67,7.18-1,10.76,0,.38-.41.72-.63,1.08a5.76,5.76,0,0,1-.67-.89,12.41,12.41,0,0,1-1.07-2.2c-2.67-8.78-5.58-17.5-7.86-26.38-1.66-6.46-3.3-13.12-3.43-19.73-.15-7.05,1.45-14.15,2.37-21.22.2-1.53.8-3,1.05-4.53a1.52,1.52,0,0,0-.91-1.18A1.6,1.6,0,0,0,309,141a36.25,36.25,0,0,0-1.44,6.12c-.93,8.79-1.3,17.68-2.87,26.36-.41,2.27-4.33,4-6.79,5.77-5.31,3.83-10.62,7.65-16.12,11.18-2.13,1.37-4.75,2-7.18,2.85-4.91,1.75-5.48-3.28-7.48-5.38-4.22-4.44-12.37-2.34-14.21,3-2,5.81-3.49,11.81-5.22,17.72a4.31,4.31,0,0,1-.57.93,16,16,0,0,1-1.67-3.4c-.62-2.67-.78-5.46-1.61-8-.17-.5-2.53-.4-3.88-.4-4.59,0-9.19.12-13.78.05a13.31,13.31,0,0,1-.09-3.06c.31-2.49,1-5,1.13-7.46.56-8,1.58-16,1.25-24-.29-6.95-2-13.87-3.4-20.74-.9-4.46,2.17-4.5,4.91-5a26.92,26.92,0,0,1,4.31,0Z"/><path class="cls-1" d="M20.85,510c-5.52-.54-11.07-.91-16.54-1.8-.73-.12-1.57-2.93-1.43-4.41.49-5.2,1.23-10.4,2.17-15.55,1.51-8.32,3.31-16.59,4.86-24.91.64-3.41.64-7,1.52-10.31,1.87-7.06,4.22-14,6.18-21a106.8,106.8,0,0,0,2.68-12c1.05-6.65,1.79-13.36,2.7-20,0-.31.43-.81.65-.8a3.1,3.1,0,0,1,1.46.49c5.29,3.66,10.35,7.72,15.89,10.94,5.82,3.37,12.14,5.85,18,9.1.28.16-1.29,4-2.27,6.06-2.79,5.73-6,11.29-8.52,17.11-2.32,5.29-4,10.84-6,16.28a3.82,3.82,0,0,0-.2,1c-.52,8.21-.76,16.44-1.62,24.61a181.51,181.51,0,0,1-3.61,21.76c-.31,1.35-3.61,2.54-5.67,2.83-3.35.46-6.81.12-10.23.12Z"/><path class="cls-1" d="M237.26,202.66c-1.29,11.11-2.23,21.21-3.76,31.22a27,27,0,0,1-4.06,9.63c-.88,1.41-3.93,1.43-4.89,2.84-3.55,5.19-6.34,10.9-10,16-3.45,4.89-7.57,9.3-11.51,13.84A5.55,5.55,0,0,1,201,275c-3.54-3.13-7.23-6.12-10.43-9.56-1.67-1.8-2.28-4.52-3.62-6.67-3.55-5.7-7.28-11.29-10.84-17-.25-.41.12-1.4.46-2,1.76-2.95,3.15-6.32,5.55-8.63s5.67-3.11,8.42-4.84a6.63,6.63,0,0,0,2.58-3.13c2.22-6.19,3.82-12.64,6.49-18.62,1.52-3.39,4.88-5.91,7-9.08a11.24,11.24,0,0,0,1.68-5.53c.24-5.17.1-10.35.17-15.52a9.93,9.93,0,0,1,.53-2.15c1,.52,2.61.81,2.92,1.6,2.38,6.12,4.39,12.38,6.74,18.51,1.94,5.06,4.82,9,11.2,8.6,2.37-.14,4.8.71,7.18,1.24C237.36,202.37,237.54,203.17,237.26,202.66Z"/><path class="cls-1" d="M4.34,349.52c2.56-8.62,4.22-16.09,7-23.11S18,312.76,21.58,306.1c3-5.56,4.66-.15,6.09,1.28,5.44,5.44,10.52,11.25,15.82,16.85,4.58,4.84,9.33,9.51,13.89,14.36,5.15,5.46,10.17,11.06,15.28,16.56a4.4,4.4,0,0,0,1.79,1.07c8.07,2.77,1.61,6.33,0,8.59a146,146,0,0,1-14.1,17c-1,1-4.69-.1-6.86-1-5.56-2.19-11-4.71-16.42-7.26a103.74,103.74,0,0,1-12.88-6.65A152.87,152.87,0,0,1,9.7,355.8C7.5,354,5.91,351.4,4.34,349.52Z"/><path class="cls-1" d="M174.59,192.42c-.45-2.31-.14-5.4-1.52-6.77-3.19-3.17-5.29.42-6.49,2.62-2.13,3.89-3.28,8.32-5.31,12.27-.69,1.33-2.83,1.91-4.31,2.84a21.13,21.13,0,0,1-2-3.48c-2.28-6.64-3.24-14.11-7-19.73-3.3-4.93.25-7.75.47-11.49a64.61,64.61,0,0,1,1.41-8.09c1.64-8.72,5.61-16.22,12.44-21.88,2.64-2.18,6-4.62,9.13-4.7,2.57-.06,5.48,2.89,7.77,5,7.13,6.6,14.69,12.9,20.83,20.34,4.76,5.78,6,13.44,6,21.19,0,7.07-.29,13.89-6.66,18.22-1.05.72-4-1.94-6.24-2.29a73.56,73.56,0,0,0-11.86-.88c-2.09,0-4.18,1.23-6.25,1.19-.55,0-1.05-2.67-1.58-4.12Z"/><path class="cls-1" d="M395.14,292.53c1.78,6.81-4.48,6.62-8.42,7.29-9.39,1.62-17.87-1.95-26.27-5.88-5-2.35-10.88-3.06-15.8-5.61-5.51-2.84-10.36-6.95-15.54-10.45-4.21-2.85-8.42-5.72-12.74-8.39-5.68-3.5-11.47-6.82-17.21-10.21a21,21,0,0,1,2.21-3.29c4.92-5,9.81-10,15-14.71.85-.77,3.07,0,4.66,0,7.73,0,15.46,0,23.19.06a8.61,8.61,0,0,1,2.16.56,15.73,15.73,0,0,1-1.06,1.71c-4,4.95-8.29,9.67-11.88,14.88-2.78,4,1.56,6,3.6,8.54a65.45,65.45,0,0,0,5,5.51,2.14,2.14,0,0,0,2-.35c3.2-4.16,6.21-8.46,9.41-12.62,2.38-3.07,4.95-6,7.48-8.93.51-.6,1.4-1.54,1.83-1.41a3.9,3.9,0,0,1,1.8,1.85q5,9.13,9.87,18.35c1,1.95,2.34,3.95,2.62,6,.72,5.39,3.76,1.8,5.27,1.24,3.08-1.16,5.83-3.19,8.87-4.51.3-.13,2.25,2.09,2.42,3.36C394.32,281,394.64,286.47,395.14,292.53Z"/><path class="cls-1" d="M335.15,45.16c3.74,1.21,9,2.45,13.72,4.76,1.43.69,1.57,4.31,2,6.65.27,1.41-.64,3.72,0,4.24a8.4,8.4,0,0,0,5.31,1.55c.75,0,1.32-2.37,2-3.61,2.17-3.7,2.86-8.88,8.67-9,.51,0,1.6,1.16,1.5,1.44-1.37,3.68-2.77,7.36-4.42,10.92-1.23,2.65-3.16,5-4.12,7.72-.38,1.07,1.43,2.74,1.48,4.17a14.13,14.13,0,0,1-1,6c-1.73,4-4.33,7.55-5.76,11.58-2.45,6.86-7.69,11.89-13.77,11.29-2.26-.22-4.48-2.24-6.33-3.88-.35-.31,1.44-2.67,1.71-4.17.15-.91-.73-2-1.19-3-.06-.13-.64-.1-.64-.17-.45-5.62-6.28-2.64-8.33-5.21a10.12,10.12,0,0,1-1.83-6.13c.23-6.85-3.59-11.64-7.26-16.79a12.84,12.84,0,0,1-2.23-8.44c.66-4.64,4.29-7.17,8.94-8Z"/><path class="cls-1" d="M270.35,205.76c-1.8,6.68-3.13,14.85-6.3,22.22-2,4.65-7.08,7.88-10.2,12.17-3.64,5-6.68,10.39-9.9,15.66-.69,1.13-.85,2.61-1.62,3.67-3.84,5.25-4.48-1.25-5.76-2.21a18,18,0,0,1-6.08-8.39c-.63-2,1.4-4.83,2.37-7.24s2.54-5,3.29-7.61a47.59,47.59,0,0,0,1.26-8.45c.51-5.35.79-10.73,1.36-16.07a82.35,82.35,0,0,1,1.63-8.79c.09-.39.94-.73,1.49-.85.17,0,.71.66.76,1.07.46,3.32.69,6.67,1.32,9.95.21,1.06,1.4,1.93,2.15,2.89,1-.77,2.55-1.35,2.85-2.33,1.93-6.14,3.19-12.52,5.54-18.48.82-2.08,4.47-4.78,6.17-4.39,2.71.64,5.64,3.2,7.06,5.74C269.32,197.13,269.32,200.83,270.35,205.76Z"/><path class="cls-1" d="M420,273.38c-.73,1.75-1.53,5.3-3.54,7.92-1.43,1.86-4.42,2.72-6.89,3.44-.57.17-2-1.93-2.74-3.17-3.41-5.77-6.71-11.61-10-17.43-.9-1.57-1.64-4.42-2.67-4.51-5.7-.55-1.75,3.9-2.59,6-.4,1,.35,2.46.58,3.72a31.91,31.91,0,0,1-3.14-4.18c-3-5.68-5.79-11.43-8.64-17.17-1.34-2.71-2.68-5.43-3.83-8.22-.14-.34.82-1.57,1.43-1.7,4.51-1,9.09-1.76,13.59-2.85,6-1.45,12-3,17.86-4.79,3.35-1,4.2,1.17,4.72,3.34,1.06,4.37,1.87,8.81,2.5,13.26C417.74,255.13,418.7,263.29,420,273.38Z"/><path class="cls-1" d="M133.58,579.22c.38-5.68,1.33-11.4.94-17-.26-3.82,1.5-3.68,4-4,5-.7,10-1.82,15.11-2.25,1.15-.09,2.59,1.83,3.72,3,5.36,5.6,10.16,11.9,16.16,16.68,4.83,3.85,11.11,5.86,16.72,8.75.61.31,1.53,1.26,1.41,1.55-.53,1.29-1.1,2.86-2.17,3.61-6.49,4.52-12.85.49-19.23-.61-2-.34-3.87-1.65-5.79-1.61-7.69.12-15.38.47-23.06,1C137,588.58,133.23,584.49,133.58,579.22Z"/><path class="cls-1" d="M171.45,193.4c-.34,7.11-.32,7,7,5.1,6.39-1.64,13-2.31,17.54,3.82.67.91-1.28,3.68-1.86,5.65-1.24,4.21-2.13,8.55-3.66,12.66-.64,1.7-2.38,3.92-3.91,4.18-5.09.84-6.55,4.45-8.41,8.43-3,6.38-5.7,6.54-10.2,1.49-5.44-6.11-8.8-13-9.16-21.35-.09-2.07-1.57-4.06-1.83-6.16-.08-.65,1.91-1.4,2.66-2.35a65.25,65.25,0,0,0,5.54-7.73c1.57-2.73,2.57-5.79,4-8.62.26-.53,1.26-.7,1.92-1a8.61,8.61,0,0,1,.59,2C171.64,190.76,171.51,192.08,171.45,193.4Z"/><path class="cls-1" d="M262.88,468.73c1.48,6.6-2.47,8.77-7.66,10.53-8.18,2.76-16.07,6.15-21.68,13.27a3.34,3.34,0,0,1-3.11.52c-4-1.71-7.9-3.68-11.81-5.61-2-1-3.9-2.13-5.9-3.1a28.4,28.4,0,0,0-3.16-1.17c.74-1.72,1-4.09,2.29-5,5-3.63,10.57-6.51,15.51-10.21,4.73-3.55,8.73-8.11,13.56-11.5,1.27-.89,4.47.71,6.68,1.44,3,1,6,2.4,9,3.42C260.32,462.55,264.2,463.52,262.88,468.73Z"/><path class="cls-1" d="M475.94,514.61c-3.68,5.69-6.77,10.72-10.15,15.55-.93,1.34-2.68,2.11-4.06,3.14-1.38-2.3-3-4.5-4.1-6.9-2.82-5.95-5-12.23-8.27-17.93a90.81,90.81,0,0,0-9.93-13.35c-1.88-2.23-4.57-3.77-6.76-5.76-.48-.43-.43-1.46-.62-2.21a8.45,8.45,0,0,1,2.38-.16c7.57,1.8,15,2.91,21.9-2.28.21-.16,1.71.88,2.17,1.63,2.9,4.69,5.62,9.5,8.51,14.2C469.71,505,472.54,509.27,475.94,514.61Z"/><path class="cls-1" d="M377.36,222.83c-3.95-2.57-8.14-4.84-11.64-7.92-.74-.65.52-4.69,1.86-6.37,3.27-4.08,7.17-7.65,10.68-11.55.48-.53.18-1.75.25-2.65a29.54,29.54,0,0,0-3.69,1.72c-1.69,1.05-3.27,2.3-4.89,3.47,1.36-1.68,2.44-3.78,4.14-5,4.55-3.2,9.42-5.93,14-9,1.33-.9,2.2-2.49,3.31-3.75.75-.84,1.89-2.49,2.24-2.34a17.6,17.6,0,0,1,5,3.13c1.43,1.31,3.45,3.06,3.45,4.62a18.35,18.35,0,0,1-2.17,8.37c-2.54,4.7-5.66,9.09-8.6,13.58a130.49,130.49,0,0,1-7.9,11.49c-.85,1-3.33.71-5.06,1Z"/><path class="cls-1" d="M20.26,512.73c5.52-.59,11.13-.78,16.49-2,1.65-.39,2.42-3.89,4-5.66,1.31-1.52,3-3.43,4.76-3.61,1.22-.12,3.75,2.25,3.89,3.68.62,6.52-5.6,13.48-11.5,16.23-6.71,3.12-12.79,7.65-19,11.82-3.94,2.67-7.38,7-12.63,3.05-1-.8-1.48-3.07-1.38-4.61A122.16,122.16,0,0,1,6.5,517.84c.56-3.11.73-7,6-5.77,2.45.56,5.14.1,7.71.1Z"/><path class="cls-1" d="M124.61,384.35c-8,.68-16.06,1.34-24.07,2.09a8.1,8.1,0,0,0-2.41,1.13c-5.43,2.63-4.23-2.85-4.91-4.65-2.27-6-3.41-12.45-5.65-18.47-2.79-7.52,2.86-1.79,3.18-1.76,5.94.5,11.88,2.1,17.77,1.91,5-.17,7,2.38,9.62,5.57,3.67,4.42,8,8.31,12,12.45a1.57,1.57,0,0,1,.1,1c-1.87.41-3.74.76-5.62,1.12Z"/><path class="cls-1" d="M187.8,134.19c5.36,2.49,11.21,4.94,16.78,7.9,4.28,2.27,8.42,7.69,12.25,7.36,13.42-1.16,5.51,9.1,8,13.52,1,1.82.07,4.74,0,7.16-4.18-.11-8.37-.31-12.55-.29-6.81,0-5.92-6.61-8.76-10-4.13-4.92-8.14-10-12.36-14.79-1.93-2.2-4.36-4-6.34-6.13a3.33,3.33,0,0,1-.24-2.89C184.83,135.41,186,135.15,187.8,134.19Z"/><path class="cls-1" d="M335.71,108.17c.26-.79-1.93-3.52,2.65-2.65,7.82,1.48,14.43-3.31,17.52-10.4s6.71-14.06,10.46-20.88c1-1.76,3.29-2.78,5-4.1a.69.69,0,0,1,.61.08,3.17,3.17,0,0,1,.13,1.39c-2.58,9.86-6.47,18.93-14.05,26.23-5.92,5.69-11.39,11.86-16.82,18-1.52,1.73-2.19,4.2-3.26,6.32-.2.38-.45.73-.68,1.1-.2-.39-.55-.76-.58-1.16C336.36,117.72,336.06,113.29,335.71,108.17Z"/><path class="cls-1" d="M391.65,217.54l-1.48-.42a22.82,22.82,0,0,1,1.55-3.45c2.35-3.49,4.75-6.95,7.3-10.3a2.73,2.73,0,0,1,2.49-.39c1.87.77,3.55,2,5.4,2.8,5.11,2.27,1.44,5.18-.27,6C401.86,214.21,396.63,215.71,391.65,217.54Z"/><path class="cls-1" d="M225.85,173.63c-.84,6.83-1.56,12.8-2.32,18.77,0,.28-.35.52-.54.78-.57-.47-1.43-.82-1.65-1.41-1.42-3.68-2.7-7.41-4-11.13a17.58,17.58,0,0,0-1.3-3.4c-2.32-3.67-1-4.05,2.53-3.21,1.41.33,3.07-.55,4.62-.68A13.23,13.23,0,0,1,225.85,173.63Z"/><path class="cls-1" d="M405.35,192.44c2.41,2.56,4.31,4.65,6.28,6.67s3.89,3.79,5.74,5.78a3.23,3.23,0,0,1,.43,1.86,1.72,1.72,0,0,1-1.17.27c-4.71-2.39-9.42-4.77-14-7.36-.38-.21-.16-2,.2-2.86A37.53,37.53,0,0,1,405.35,192.44Z"/><path class="cls-1" d="M16.4,296.68c.42-1.81.81-3.67,1.35-5.48a2.16,2.16,0,0,1,1.66,0c4.34,3.29,4.51,8.77.34,12.23a2.11,2.11,0,0,1-1.81-.16C17.32,301.17,16.9,299,16.4,296.68Z"/><path class="cls-1" d="M224.28,144.36c-2.92,1-4.29,1.78-5.72,1.92-.85.08-1.79-.78-2.69-1.22a61.66,61.66,0,0,1,4.94-3.93C221,141,222.16,142.36,224.28,144.36Z"/><path d="M141.52,197.5c2,2.84,4.64,5.27,5.7,8.25,1.51,4.22,1.48,9,2.89,13.26,1.08,3.29,3.49,6.13,5.06,9.29.6,1.22.53,2.76.77,4.16a21.85,21.85,0,0,1-3.32-3c-4.48-6.08-5.76-13.15-6.89-20.46-.45-2.93-3.58-5.42-5.42-8.16a4.17,4.17,0,0,1-.55-2C139.75,198.58,140.39,198.32,141.52,197.5Z"/><path d="M94.07,308.49a45.48,45.48,0,0,1,5,.67c4.57,1.1,9.11,2.36,13.67,3.52,3.58.91,7.19,1.75,10.77,2.67.23.06.36.53.53.81-.85.49-1.82,1.53-2.54,1.38q-11.26-2.28-22.45-5a30.25,30.25,0,0,1-5.29-2.36Z"/><path d="M161.9,287.79c1.85-3.22,3.82-7.05,6.16-10.64a67.75,67.75,0,0,1,5.87-7.26,8.18,8.18,0,0,1,2.1-1.3c.06,1,.57,2.31.12,2.93-3,4-6.28,7.78-9.16,11.85-1.28,1.81-1.76,4.17-2.7,6.24a6.49,6.49,0,0,1-1.32,1.47C162.72,290.32,162.47,289.56,161.9,287.79Z"/><path d="M161.44,307.09c0,1.91.07,3.83-.05,5.74,0,.49-.69.94-1.07,1.41-.48-.44-1.37-.87-1.38-1.34-.13-3.7-.17-7.41,0-11.11,0-.62,1-1.21,1.55-1.81a6.24,6.24,0,0,1,.9,1.91c.13,1.72.05,3.47.05,5.2Z"/><path d="M135.89,318.91l-3.45-1.73a30,30,0,0,1,4-1.79,45.13,45.13,0,0,1,6.1-1.23,2.53,2.53,0,0,1,1.49.77c-.33.92-.63,2.32-1.29,2.55A53.55,53.55,0,0,1,135.89,318.91Z"/><path d="M360.48,311.2l.84-1.51c1.08.76,2.45,1.31,3.19,2.32,3.31,4.49,6.44,9.1,9.63,13.68,2.37,3.41,4.77,6.8,7,10.29.3.46-.16,1.41-.26,2.13-.75-.28-1.79-.35-2.19-.89-5.87-8-11.66-16-17.44-24A9.42,9.42,0,0,1,360.48,311.2Z"/><path d="M251.26,454.2l-2.12-.78a8.91,8.91,0,0,1,.92-1.52c5.65-6.21,11.29-12.43,17-18.53.64-.67,2-.64,3-.93-.28,1-.28,2.32-.9,3.08-4.13,5.09-8.29,10.17-12.68,15C255.14,452.13,253,453.05,251.26,454.2Z"/><path d="M265.63,383.88c-4.9-2.17-9.82-4.29-14.67-6.57-.44-.21-.42-1.41-.62-2.15,1.17,0,2.74-.44,3.43.14,7,5.87,14.77,5.35,22.86,3.3.75-.19,1.7.42,2.56.66-.74.66-1.39,1.75-2.23,1.92-3.55.72-7.15,1.16-10.72,1.71Z"/><path d="M440.44,450.59c3,2.86,6,5.77,9.07,8.69,1.54,1.48,3.06,3,4.57,4.46a6.26,6.26,0,0,1,.69,1c-.42.2-1,.68-1.23.55a55.72,55.72,0,0,1-7.25-4.57A87.88,87.88,0,0,1,439,453.6a2.83,2.83,0,0,1-.63-1.88C438.37,451.46,439.25,451.21,440.44,450.59Z"/><path d="M443.44,397.6c-3.07-1.23-6.14-2.45-9.2-3.72-.18-.08-.32-.82-.27-.84.9-.44,1.9-1.27,2.74-1.14,3.65.55,7.25,1.39,10.88,2.1a1.58,1.58,0,0,0,.71-.06c1.29-.32,2.58-.67,3.86-1,.08.57.4,1.52.2,1.65a12.7,12.7,0,0,1-3.88,1.89,22.41,22.41,0,0,1-4.64.08Z"/><path d="M425.44,385.57c-2.86-2.48-5.74-4.94-8.59-7.44-.47-.4-1.09-.87-1.19-1.4a14.16,14.16,0,0,1,0-2.91c1.11.48,2.45.71,3.28,1.49,2.62,2.46,5.07,5.1,7.52,7.74a2.41,2.41,0,0,1,.43,1.64C426.88,384.93,426.21,385.12,425.44,385.57Z"/><path d="M111.53,421.25c-6.84-.72-13.38-1.36-19.91-2.13-.83-.1-1.58-.87-2.37-1.32.17-.27.29-.7.52-.77,1.33-.42,2.71-1.15,4-1.07,9.2.6,18.37,1.49,27.57,2,2.18.13,4.41-.85,6.63-1.17.5-.07,1.09.49,1.64.75-.47.63-.87,1.75-1.41,1.82C122.61,420.1,117,420.66,111.53,421.25Z"/><path d="M157.69,525.74c2.09-6.75,4.16-13.51,6.33-20.23,0-.16,1.2,0,1.83.05a6.6,6.6,0,0,1-.1,1.55c-.95,2.92-2.34,5.77-2.85,8.76-.78,4.62-.93,9.34-1.43,14a14.26,14.26,0,0,1-.85,2.72,10.82,10.82,0,0,1-1.67-2.77,16.14,16.14,0,0,1-.07-3.75Z"/><path d="M151.26,455.17c-3.21-1.55-5.73-2.67-8.14-4-.44-.25-.4-1.36-.59-2.07.78,0,1.8-.39,2.28,0,4.51,3.34,9.75,3,14-.92.47-.45,1.5-.29,2.27-.41-.24.75-.27,1.85-.78,2.18C157.45,451.7,154.51,453.3,151.26,455.17Z"/><path d="M127.92,453.51l-3.16-1.37a5.41,5.41,0,0,1,.69-1.28c2.79-2.88,5.59-5.75,8.44-8.56a5.83,5.83,0,0,1,1.77-.78c.14.68.65,1.64.37,2C133.33,447,130.49,450.37,127.92,453.51Z"/><path d="M328,193.59c1.73-11.37,3-21.84,5-32.14,1.09-5.34,3.7-10.37,5.62-15.54.16-.44.31-.88.49-1.31a7.2,7.2,0,0,1,1-2c.2-.22,1.41,0,1.41.15a7.55,7.55,0,0,1-.1,2.77c-2,6.4-4.52,12.67-5.94,19.19-1.8,8.28-2.69,16.75-4,25.13a18.11,18.11,0,0,1-1.18,4c-.17.41-1.25.88-1.48.72A2.32,2.32,0,0,1,328,193.59Z"/><path d="M345,123.66c2.58-3.76,4.91-7.71,7.78-11.21a115,115,0,0,1,9.75-10c.59-.57,1.95-.33,3-.46a9.66,9.66,0,0,1-1.14,2.4c-4.86,5.61-9.81,11.13-14.63,16.77-.77.9-.89,2.34-1.53,3.39-.37.6-1.17.93-1.78,1.39C346,125.36,345.67,124.79,345,123.66Z"/><path d="M382.22,72c-3.57,6.64-7.58,14.14-11.68,21.59-.2.36-1.15.31-1.75.44,0-.79-.34-1.7-.05-2.35q5-11.15,10.09-22.19a9.43,9.43,0,0,1,1.85-2.07Z"/><path d="M386.58,160.85c-2.15,0-3.18.3-3.83-.08s-1-1.42-1.5-2.19c-2-3.22-4-6.45-6-9.7a1.71,1.71,0,0,1,0-1.15c.77-.15,2.05-.53,2.28-.2C380.36,151.48,383,155.54,386.58,160.85Z"/></g></g></svg>