<svg xmlns="http://www.w3.org/2000/svg" viewBox="0 0 486.25 572.09"><defs><style>.cls-1{fill:#fff;}</style></defs><g id="Layer_2" data-name="Layer 2"><g id="Layer_1-2" data-name="Layer 1"><path class="cls-1" d="M190.68,104.31c-8.22-1.57-14.83-2.79-21.41-4.13-.75-.16-1.34-1-2-1.54a8.36,8.36,0,0,0,1.11-.94c2.76-3.21,5.8-6.24,8.13-9.74,1.17-1.76.87-4.44,1.58-6.59.95-2.84,2.19-5.59,3.39-8.34A32.44,32.44,0,0,1,184,68.2c.64-1,2.6-1.81,2.48-2.4-1.25-6.11-3.31-12.11-4.1-18.27-.58-4.47-1.12-10.13,1.06-13.5,3.06-4.75,6.1-9.43,4.09-14.46A24.69,24.69,0,0,0,178.1,8.42a52.11,52.11,0,0,0-17.8-6.73C152.65.34,144.47-.7,136.93.58c-11.82,2-17.69,11.73-22.17,22-1.91,4.37-4,8.91-4.6,13.56a44.26,44.26,0,0,0,.64,15.09c1,4.42,3.24,8.63,5.41,12.69,2.31,4.32,5.32,8.27,7.72,12.55,1.21,2.16,2.84,5,2.34,7-.89,3.61-4.39,6.73-4.81,10.28-1,8.55-5.1,14.64-12.66,18a41.54,41.54,0,0,0-19.45,16.6,76.28,76.28,0,0,0-6.76,15.15c-2.39,7-4.17,14.26-6.12,21.43-1.07,3.93-1.76,8-3,11.85C70.32,186.78,66,196.59,64,206.86c-1.53,7.56-.52,15.7-.15,23.55a17.39,17.39,0,0,0,2.81,8c3.37,5.33,6.77,10.76,11,15.42,3.37,3.74,8.17,6.15,11.89,9.62,2.79,2.62,9.24,2.62,7.24,9.06-2.41,7.75-4.32,15.72-7.5,23.14-3.26,7.62-8.08,14.56-11.63,22.07a18,18,0,0,0-1.38,9.74c.69,4.7,3.47,9.17,3.69,13.82.26,5.45-5.23,10.35-2.4,16.44,0,.1-.13.31-.19.48-2,5.7-3.87,11.45-6,17.09q-3.81,9.88-8.09,19.61-5.37,12.25-11.08,24.37c-2.26,4.81-4.78,9.49-7.15,14.24-2,3.91-4,7.77-5.77,11.77-2,4.56-3.61,9.27-5.47,13.88-2,4.87-4.15,9.66-6,14.56s-3,10.27-5.41,14.95c-3.74,7.28-9.07,13.81-12.21,21.29-2.85,6.8-3.5,14.49-5.45,21.7C3.39,536.15,1.13,540.42.18,545c-.53,2.52.2,7.52,1.18,7.74A29.82,29.82,0,0,0,13,552.67c6.7-1.25,13.21-3.67,19.93-4.62,4.19-.6,8.64,1,13,.88,9.81-.26,17.28-5.22,22.44-13.23,3.36-5.21.58-9.48-5.63-9.74a6.29,6.29,0,0,1-1.47-.43c.22-.31.46-.61.66-.94.94-1.5,2-3,2.77-4.53q5.41-10.74,10.69-21.55c3.75-7.67,8.15-15.11,11-23.12s8.41-13.93,13.9-20c7.44-8.21,15-16.31,22.24-24.69,6.43-7.46,12.12-15.6,18.84-22.78,4.61-4.93,10.72-8.44,15.63-13.14,5.6-5.36,13.24-6.51,19-1.58,6.53,5.58,13.3,11,18.9,17.47a61.29,61.29,0,0,1,10.61,17.54,110.45,110.45,0,0,1,6.47,24.49,352.43,352.43,0,0,1,3.51,39.45c.28,9.83-1.24,19.72-2,29.58,0,.46-.38.94-.32,1.38.4,2.66.31,5.61,1.51,7.87.9,1.67,4.74,2.15,5.1,3.67,1.06,4.5.53,9.39,1.67,13.86.57,2.25,3.59,5.66,5.21,5.5a26.58,26.58,0,0,0,12.18-4.11c7-4.86,14.15-3.89,21.85-3.2,6.41.59,13.43.69,19.36-1.37,5.3-1.84,9.81-6.57,14.07-10.66,5.81-5.58,5.5-6-.88-10.19-1-.69-2.31-2.28-2.19-3.3.26-2.21,1.61-4.27,2.06-6.48,1.73-8.49,3.55-17,4.83-25.55s1.66-17.05,2.88-25.51a149.6,149.6,0,0,1,4.11-20.15,187.89,187.89,0,0,1,8.65-24.61,75.19,75.19,0,0,1,11.06-18c5.71-6.68,12.51-12.47,19.16-18.29a84.74,84.74,0,0,1,12.54-8.87,9.65,9.65,0,0,1,6.71-1.12c1,.25,1.17,3.6,1.62,5.57,1,4.23,1.53,8.6,2.93,12.67,2.6,7.52,6,14.77,8.49,22.33,2.17,6.64,2.94,13.77,5.35,20.31,2.48,6.74,6.13,13,9.37,19.5s6.65,12.8,9.92,19.23c2,3.93,3.78,8,5.83,11.86,2.15,4.09,4.69,8,6.73,12.11,2.6,5.29,4.7,10.81,7.31,16.09,2.16,4.34,4.76,8.47,7.15,12.7,2.9,5.13,5.18,10.75,8.87,15.21,2.34,2.81,3.61,5.32,2.13,8.15-2.77,5.31-6.44,10.16-9.33,15.42-1.12,2-1.15,4.66-1.68,7a41.68,41.68,0,0,0,6.54,1.33c1.61.07,3.25-1,4.89-1,4.55-.17,9.2.45,13.63-.29,3.33-.56,7.33-2,9.36-4.39a169.73,169.73,0,0,0,15-21.24c1.94-3.24,6.09-6.66,2.92-11.45-.72-1.1-2.24-1.91-2.49-3.05-1.41-6.61-2.24-13.36-3.87-19.91-1.39-5.57-3.53-11-5.44-16.41-2-5.61-4.06-11.18-6.1-16.78-1.4-3.84-2.63-7.76-4.23-11.52-2.28-5.36-5-10.51-7.22-15.9-2.09-5.17-3.6-10.58-5.55-15.81-2.73-7.31-6.34-14.37-8.28-21.88A133.4,133.4,0,0,1,433,387c-.49-8.38.3-16.86.89-25.27.37-5.28-2.83-11.9,5-15,.73-.29.37-3.74.28-5.71-.43-9.65-.79-19.3-1.51-28.93-.32-4.17-1.48-8.27-2.22-12.41-.39-2.17-1.56-4.72-.83-6.44s3.32-3,5.17-4.4c5.75-4.22,11.58-8.32,17.27-12.62,4.59-3.47,9.07-7.08,13.49-10.77,4.12-3.44,9.5-6.36,11.78-10.81a35.81,35.81,0,0,0,3.82-18.36c-.69-8.4-3.56-16.67-5.86-24.9a125,125,0,0,0-5.56-15.73c-2.58-6-6.18-11.53-8.48-17.6-3.05-8.05-5.4-16.37-7.8-24.65-2.34-8.06-4.23-16.24-6.55-24.3-2.13-7.43-6.93-12.91-13.38-17.05-4.84-3.12-8.7-6.79-8.51-13.27.1-3.11-1-6.31-.6-9.34.29-2.28,2.82-4.27,3.09-6.54.9-7.39,1.95-14.89,1.54-22.26a84.26,84.26,0,0,0-4.14-20.86A23.13,23.13,0,0,0,422.64,29c-4.81-3.71-10.6-6.3-16.25-8.69-3-1.27-7.17-2.44-9.85-1.33a49.34,49.34,0,0,0-15.11,9.5c-3.57,3.44-6.15,8.41-7.82,13.17s-2.85,10.16-1.93,14.83A18.39,18.39,0,0,1,369,71.07c-2.12,3.29-5.06,6.42-.23,10.11a12.22,12.22,0,0,1,3.83,5.75c.85,2.71.38,5.83,1.25,8.53,1,3.23,2.18,7,4.55,9.11,5.27,4.7,5.79,7.57.49,12.64-4.24,4.05-9.12,7.55-12.73,12.08a100.53,100.53,0,0,0-10.63,17.05c-3.35,6.62-5.69,13.73-8.81,20.47-1.51,3.28-3.29,6.74-5.85,9.17-3.5,3.33-8,5.56-11.79,8.64a145.15,145.15,0,0,0-13.38,12c-6.48,6.8-12.32,14.21-18.84,21-5.47,5.66-11.41,10.87-17.36,16-4.32,3.76-10.86,5.21-12.15,12.06-.07.38-.8.81-1.28.9-4.7.9-9.86.83-14,2.84-3.62,1.74-6.63,5.48-8.93,9-1.64,2.5-1.58,6.1-2.45,9.15-1.15,4.06,1.51,10.71,4.34,11.41s5.71,2.49,8.69,3c2.71.46,6.48.92,8.24-.52,4.41-3.61,7.84-8.39,11.89-12.47,1.26-1.27,4.17-3,4.75-2.5,2.93,2.32,5,5.82,8,7.9,2.43,1.65,6.64,3.4,8.65,2.37,4-2.05,6.87-6.14,10.45-9.1,5.08-4.22,10.08-8.64,15.65-12.13,4.94-3.08,10.54-5.18,16-7.35,2-.82,4.49-.62,6.75-.88-.15,4,1,8.68-.72,11.81-3.22,5.88-6.19,11.38-5.83,18.39.11,2-1.81,4.15-3,6.09-3.53,5.64-7.19,11.2-10.8,16.8-2.77,4.28-5.37,8.69-8.36,12.81s-6.68,8.09-9.75,12.34c-1.13,1.56-.95,4.06-2.08,5.61-3.72,5.11-7.85,9.91-11.65,14.95-2.6,3.45-4.88,7.14-7.4,10.66-3.57,5-7.24,9.91-10.84,14.88-.53.72-.75,1.79-1.41,2.24-.39.25-1.69-.22-2.06-.73-1.9-2.64-3.42-5.58-5.46-8.09-4.09-5-8.18-10.06-12.74-14.63-5.05-5.06-10.73-9.48-15.88-14.45-1.57-1.52-1.83-4.51-3.48-5.83-5.17-4.14-10.74-7.78-16.08-11.71-.43-.31-.44-1.41-.35-2.1,0-.23,1-.29,1.5-.53,2-1,5.14-1.52,5.76-3.07a96.49,96.49,0,0,0,5.18-17.46c.37-1.91-.56-5.28-4.93-3-4.22,2.22-9.19,3-13.86,4.38-2.8.8-5.64,1.47-8.49,2.06a11,11,0,0,1-4,.14c-.28,0-.49-2-.27-2.95,1.2-5.22,2.78-10.36,3.78-15.61q2.73-14.46,4.93-29c.77-5.09.82-10.29,1.63-15.36,1.45-9.1,3.22-18.15,4.9-27.21a3.2,3.2,0,0,1,1-2c3-2,6.28-3.61,9.09-5.83,4.2-3.32,7.86-7.34,12.16-10.51a248.64,248.64,0,0,1,21.58-14.64c4.62-2.71,10-4.24,15.09-6,4.54-1.59,9.32-2.54,13.8-4.26,5.58-2.14,10.78-5.4,16.47-7,4.82-1.38,10.1-1.12,15.18-1.62.61-.06,1.59-.17,1.75-.54q3.4-8,6.61-16.08c2-5,1.08-11.39,6.49-14.77,4.92-3.08,8.71-9,15.87-6.89,2.11.64,4.32,2.74,6.08,2.35A89.12,89.12,0,0,0,367.74,116c4.47-1.82,7.18-8.26,5.75-12.73-1.25-3.86-2.27-7.81-3.73-11.6-1.25-3.26-2.83-6.68-7.42-5.46-3,.8-6,2-9,2.92-6.26,2-12.42,4.47-18.82,5.81-2.51.53-5.65-2.4-8.33-2.1-6,.66-11.79,3-17.76,3.5-16.58,1.28-33.21,1.87-49.8,2.88-2.15.13-4.25,1.12-6.36,1.76-4.83,1.46-9.57,3.55-14.5,4.26-3.85.55-7.94-.87-11.93-.92C213.64,104.21,201.44,104.31,190.68,104.31Z"/><path d="M190.68,104.31c10.76,0,23-.1,35.15,0,4,0,8.08,1.47,11.93.92,4.93-.71,9.67-2.8,14.5-4.26,2.11-.64,4.21-1.63,6.36-1.76,16.59-1,33.22-1.6,49.8-2.88,6-.46,11.78-2.84,17.76-3.5,2.68-.3,5.82,2.63,8.33,2.1,6.4-1.34,12.56-3.79,18.82-5.81,3-1,6-2.12,9-2.92,4.59-1.22,6.17,2.2,7.42,5.46,1.46,3.79,2.48,7.74,3.73,11.6,1.43,4.47-1.28,10.91-5.75,12.73a89.12,89.12,0,0,1-14.27,4.83c-1.76.39-4-1.71-6.08-2.35-7.16-2.16-10.95,3.81-15.87,6.89-5.41,3.38-4.5,9.76-6.49,14.77q-3.19,8.08-6.61,16.08c-.16.37-1.14.48-1.75.54-5.08.5-10.36.24-15.18,1.62-5.69,1.62-10.89,4.88-16.47,7-4.48,1.72-9.26,2.67-13.8,4.26-5.12,1.79-10.47,3.32-15.09,6a248.64,248.64,0,0,0-21.58,14.64c-4.3,3.17-8,7.19-12.16,10.51-2.81,2.22-6.1,3.83-9.09,5.83a3.2,3.2,0,0,0-1,2c-1.68,9.06-3.45,18.11-4.9,27.21-.81,5.07-.86,10.27-1.63,15.36q-2.22,14.56-4.93,29c-1,5.25-2.58,10.39-3.78,15.61-.22,1,0,2.9.27,2.95a11,11,0,0,0,4-.14c2.85-.59,5.69-1.26,8.49-2.06,4.67-1.34,9.64-2.16,13.86-4.38,4.37-2.29,5.3,1.08,4.93,3a96.49,96.49,0,0,1-5.18,17.46c-.62,1.55-3.76,2.1-5.76,3.07-.49.24-1.47.3-1.5.53-.09.69-.08,1.79.35,2.1,5.34,3.93,10.91,7.57,16.08,11.71,1.65,1.32,1.91,4.31,3.48,5.83,5.15,5,10.83,9.39,15.88,14.45,4.56,4.57,8.65,9.62,12.74,14.63,2,2.51,3.56,5.45,5.46,8.09.37.51,1.67,1,2.06.73.66-.45.88-1.52,1.41-2.24,3.6-5,7.27-9.89,10.84-14.88,2.52-3.52,4.8-7.21,7.4-10.66,3.8-5,7.93-9.84,11.65-14.95,1.13-1.55.95-4.05,2.08-5.61,3.07-4.25,6.68-8.1,9.75-12.34s5.59-8.53,8.36-12.81c3.61-5.6,7.27-11.16,10.8-16.8,1.22-1.94,3.14-4.11,3-6.09-.36-7,2.61-12.51,5.83-18.39,1.71-3.13.57-7.82.72-11.81-2.26.26-4.71.06-6.75.88-5.46,2.17-11.06,4.27-16,7.35-5.57,3.49-10.57,7.91-15.65,12.13-3.58,3-6.46,7.05-10.45,9.1-2,1-6.22-.72-8.65-2.37-3.05-2.08-5.11-5.58-8-7.9-.58-.47-3.49,1.23-4.75,2.5-4,4.08-7.48,8.86-11.89,12.47-1.76,1.44-5.53,1-8.24.52-3-.5-5.72-2.27-8.69-3s-5.49-7.35-4.34-11.41c.87-3.05.81-6.65,2.45-9.15,2.3-3.5,5.31-7.24,8.93-9,4.15-2,9.31-1.94,14-2.84.48-.09,1.21-.52,1.28-.9,1.29-6.85,7.83-8.3,12.15-12.06,5.95-5.17,11.89-10.38,17.36-16,6.52-6.75,12.36-14.16,18.84-21a145.15,145.15,0,0,1,13.38-12c3.78-3.08,8.29-5.31,11.79-8.64,2.56-2.43,4.34-5.89,5.85-9.17,3.12-6.74,5.46-13.85,8.81-20.47a100.53,100.53,0,0,1,10.63-17.05c3.61-4.53,8.49-8,12.73-12.08,5.3-5.07,4.78-7.94-.49-12.64-2.37-2.11-3.51-5.88-4.55-9.11-.87-2.7-.4-5.82-1.25-8.53a12.22,12.22,0,0,0-3.83-5.75c-4.83-3.69-1.89-6.82.23-10.11a18.39,18.39,0,0,0,2.68-14.62c-.92-4.67.29-10.17,1.93-14.83s4.25-9.73,7.82-13.17A49.34,49.34,0,0,1,396.54,19c2.68-1.11,6.84.06,9.85,1.33,5.65,2.39,11.44,5,16.25,8.69a23.13,23.13,0,0,1,7.27,10.82,84.26,84.26,0,0,1,4.14,20.86c.41,7.37-.64,14.87-1.54,22.26-.27,2.27-2.8,4.26-3.09,6.54-.39,3,.7,6.23.6,9.34-.19,6.48,3.67,10.15,8.51,13.27,6.45,4.14,11.25,9.62,13.38,17.05,2.32,8.06,4.21,16.24,6.55,24.3,2.4,8.28,4.75,16.6,7.8,24.65,2.3,6.07,5.9,11.62,8.48,17.6a125,125,0,0,1,5.56,15.73c2.3,8.23,5.17,16.5,5.86,24.9a35.81,35.81,0,0,1-3.82,18.36c-2.28,4.45-7.66,7.37-11.78,10.81-4.42,3.69-8.9,7.3-13.49,10.77-5.69,4.3-11.52,8.4-17.27,12.62-1.85,1.37-4.39,2.54-5.17,4.4s.44,4.27.83,6.44c.74,4.14,1.9,8.24,2.22,12.41.72,9.63,1.08,19.28,1.51,28.93.09,2,.45,5.42-.28,5.71-7.86,3.06-4.66,9.68-5,15-.59,8.41-1.38,16.89-.89,25.27a133.4,133.4,0,0,0,3.92,25.46c1.94,7.51,5.55,14.57,8.28,21.88,1.95,5.23,3.46,10.64,5.55,15.81,2.18,5.39,4.94,10.54,7.22,15.9,1.6,3.76,2.83,7.68,4.23,11.52,2,5.6,4.13,11.17,6.1,16.78,1.91,5.44,4,10.84,5.44,16.41,1.63,6.55,2.46,13.3,3.87,19.91.25,1.14,1.77,2,2.49,3.05,3.17,4.79-1,8.21-2.92,11.45a169.73,169.73,0,0,1-15,21.24c-2,2.43-6,3.83-9.36,4.39-4.43.74-9.08.12-13.63.29-1.64.06-3.28,1.1-4.89,1a41.68,41.68,0,0,1-6.54-1.33c.53-2.36.56-5,1.68-7,2.89-5.26,6.56-10.11,9.33-15.42,1.48-2.83.21-5.34-2.13-8.15-3.69-4.46-6-10.08-8.87-15.21-2.39-4.23-5-8.36-7.15-12.7-2.61-5.28-4.71-10.8-7.31-16.09-2-4.14-4.58-8-6.73-12.11-2-3.9-3.83-7.93-5.83-11.86-3.27-6.43-6.68-12.79-9.92-19.23s-6.89-12.76-9.37-19.5c-2.41-6.54-3.18-13.67-5.35-20.31-2.47-7.56-5.89-14.81-8.49-22.33-1.4-4.07-1.94-8.44-2.93-12.67-.45-2-.66-5.32-1.62-5.57a9.65,9.65,0,0,0-6.71,1.12,84.74,84.74,0,0,0-12.54,8.87c-6.65,5.82-13.45,11.61-19.16,18.29a75.19,75.19,0,0,0-11.06,18,187.89,187.89,0,0,0-8.65,24.61,149.6,149.6,0,0,0-4.11,20.15c-1.22,8.46-1.62,17-2.88,25.51s-3.1,17.06-4.83,25.55c-.45,2.21-1.8,4.27-2.06,6.48-.12,1,1.14,2.61,2.19,3.3,6.38,4.22,6.69,4.61.88,10.19-4.26,4.09-8.77,8.82-14.07,10.66-5.93,2.06-12.95,2-19.36,1.37-7.7-.69-14.86-1.66-21.85,3.2A26.58,26.58,0,0,1,226.63,554c-1.62.16-4.64-3.25-5.21-5.5-1.14-4.47-.61-9.36-1.67-13.86-.36-1.52-4.2-2-5.1-3.67-1.2-2.26-1.11-5.21-1.51-7.87-.06-.44.29-.92.32-1.38.73-9.86,2.25-19.75,2-29.58a352.43,352.43,0,0,0-3.51-39.45,110.45,110.45,0,0,0-6.47-24.49,61.29,61.29,0,0,0-10.61-17.54c-5.6-6.43-12.37-11.89-18.9-17.47-5.76-4.93-13.4-3.78-19,1.58-4.91,4.7-11,8.21-15.63,13.14-6.72,7.18-12.41,15.32-18.84,22.78-7.23,8.38-14.8,16.48-22.24,24.69-5.49,6-11,11.83-13.9,20s-7.2,15.45-11,23.12q-5.28,10.8-10.69,21.55c-.79,1.58-1.83,3-2.77,4.53-.2.33-.44.63-.66.94a6.29,6.29,0,0,0,1.47.43c6.21.26,9,4.53,5.63,9.74-5.16,8-12.63,13-22.44,13.23-4.31.11-8.76-1.48-13-.88-6.72,1-13.23,3.37-19.93,4.62a29.82,29.82,0,0,1-11.68.05C.38,552.5-.35,547.5.18,545c1-4.56,3.21-8.83,4.43-13.36,1.95-7.21,2.6-14.9,5.45-21.7,3.14-7.48,8.47-14,12.21-21.29,2.39-4.68,3.51-10,5.41-14.95s4.05-9.69,6-14.56c1.86-4.61,3.49-9.32,5.47-13.88,1.74-4,3.81-7.86,5.77-11.77,2.37-4.75,4.89-9.43,7.15-14.24q5.69-12.12,11.08-24.37,4.26-9.72,8.09-19.61c2.18-5.64,4-11.39,6-17.09.06-.17.24-.38.19-.48-2.83-6.09,2.66-11,2.4-16.44-.22-4.65-3-9.12-3.69-13.82a18,18,0,0,1,1.38-9.74c3.55-7.51,8.37-14.45,11.63-22.07,3.18-7.42,5.09-15.39,7.5-23.14,2-6.44-4.45-6.44-7.24-9.06-3.72-3.47-8.52-5.88-11.89-9.62-4.2-4.66-7.6-10.09-11-15.42a17.39,17.39,0,0,1-2.81-8c-.37-7.85-1.38-16,.15-23.55,2.08-10.27,6.36-20.08,9.53-30.14,1.22-3.88,1.91-7.92,3-11.85,2-7.17,3.73-14.41,6.12-21.43a76.28,76.28,0,0,1,6.76-15.15,41.54,41.54,0,0,1,19.45-16.6c7.56-3.31,11.63-9.4,12.66-18,.42-3.55,3.92-6.67,4.81-10.28.5-2-1.13-4.87-2.34-7-2.4-4.28-5.41-8.23-7.72-12.55-2.17-4.06-4.46-8.27-5.41-12.69a44.26,44.26,0,0,1-.64-15.09c.64-4.65,2.69-9.19,4.6-13.56,4.48-10.23,10.35-19.95,22.17-22C144.47-.7,152.65.34,160.3,1.69a52.11,52.11,0,0,1,17.8,6.73,24.69,24.69,0,0,1,9.41,11.15c2,5-1,9.71-4.09,14.46-2.18,3.37-1.64,9-1.06,13.5.79,6.16,2.85,12.16,4.1,18.27.12.59-1.84,1.44-2.48,2.4a32.44,32.44,0,0,0-2.5,4.83c-1.2,2.75-2.44,5.5-3.39,8.34-.71,2.15-.41,4.83-1.58,6.59-2.33,3.5-5.37,6.53-8.13,9.74a8.36,8.36,0,0,1-1.11.94c.66.53,1.25,1.38,2,1.54C175.85,101.52,182.46,102.74,190.68,104.31Zm136,5.64-.39,0c0-1,0-2,0-3.06-.13-4.73,1.68-10.32-7.34-8-6.58,1.71-13.8.88-20.73,1.35-12.67.84-25.37,1.52-38,2.87-5.39.58-10.56,3-15.95,4a113.69,113.69,0,0,1-17.16,1.75c-3,.08-6-1.58-9.06-1.78-17-1.1-34.41,2.37-51-3.94-3.79-1.43-7.52-3-11.16-4.8s-7-3.95-10.62-5.69-7.48-3.33-11.3-4.78c-3.05-1.17-6.73-3.58-8.61,1.27-1.4,3.6-1.54,7.69-2.85,11.35-1.11,3.12-2.39,6.85-4.82,8.69-5.46,4.13-12.64,6.3-17.34,11C94.8,125.76,90.4,132.82,87,139.93c-2.62,5.46-2.88,12-4.33,18.06-.8,3.32-1.81,6.59-2.87,9.84-2,6.06-4.14,12-6,18.13-1.16,3.77-1.86,7.69-2.88,11.51-1.52,5.66-4.41,11.3-4.39,16.94,0,7.59,1.83,15.28,3.76,22.69a25.69,25.69,0,0,0,6.07,10.58c4.37,4.65,9.46,8.65,14.44,12.69,1.65,1.33,3.89,1.94,5.86,2.89a53.62,53.62,0,0,0,1.46-6.14c.52-4.28.84-8.58,1.16-12.88q1.41-18.74,2.69-37.47c0-.29-.77-.64-1.18-1-.88,1.31-1.75,2.63-2.65,3.92s-1.65,2.3-2.47,3.44c-.44-.72-1.44-1.82-1.24-2.1,2-2.83,4.16-5.52,6.26-8.27.55-.73,1.38-1.5,1.45-2.3a19,19,0,0,0-.51-4.06c-.59.22-1.46.27-1.74.69-.73,1.11-1.07,2.47-1.82,3.56a43.78,43.78,0,0,1-3.12,3.69c-.2-1-.85-2.19-.52-3,.93-2.14,1.77-5,3.53-6,5.25-2.8,5.25-7.16,5.35-12.13.21-10.33.92-20.66,1.43-31,0-.18,0-.41.05-.54.91-1.38,1.84-2.74,2.77-4.11.32,1.4,1,2.82.91,4.2-.66,10.28-1.54,20.54-2.21,30.82-1,15.09-1.82,30.2-2.74,45.3-.5,8.15-1,16.3-1.57,24.44-.35,5-1,9.89-1.31,14.85-.14,2-.6,5.32.36,5.89a223.82,223.82,0,0,0,21.54,11.54,105.85,105.85,0,0,0,16.28,5.55c7,1.9,14,3.56,21.12,4.86,3.43.63,7.1-.12,10.58.35,7,1,14,2.36,20.95,3.49a1.87,1.87,0,0,0,1.56-.87c1.74-6,3.7-12,4.94-18.15,1.64-8.11,2.72-16.35,4-24.53q1.89-12,3.69-23.92c1-6.76,1.75-13.58,3.09-20.28a16.11,16.11,0,0,1,3.79-8c2.3-2.28,6-3,8.63-5.1,4.64-3.65,8.64-8.14,13.4-11.61a264.77,264.77,0,0,1,22.16-14.61c4.47-2.62,9.53-4.32,14.47-6,5.82-2,11.78-3.69,17.7-5.43,8.7-2.58,17.43-5.08,26.13-7.65.83-.25,2.08-.63,2.28-1.23,2.65-8,5.59-16,7.54-24.13C326.17,121.8,326.1,115.8,326.66,110Zm-53.87,293.1-.32,0c0-1.14.08-2.28,0-3.41-.45-5.61.26-11.7-1.72-16.71-2.5-6.32-6.88-12-11.06-17.51a178.1,178.1,0,0,0-13.45-15.11c-4.06-4.25-8.38-8.26-12.73-12.23-1.15-1.05-3.09-2.45-4.2-2.12-3.75,1.11-7.22,3.15-10.93,4.43s-4.77,2.7-2.56,6.48c1.07,1.82,1.61,5-2.81,5.08-2.56.06-5.06,1.76-7.64,1.94-2.17.14-6,3-6.18-2.45-.08-2.71-.31-5.08-4.2-5.12-1.55,0-3.65-1.66-4.49-3.14-3.32-5.81-6.19-11.88-9.36-17.77-.48-.89-1.73-1.38-2.67-2,0,0-.69.57-.72.92-.51,5.12-.77,10.28-1.54,15.36-.25,1.6-1.67,4.13-2.84,4.31-5.35.8-10.85,1.56-16.19,1.12a260.18,260.18,0,0,1-28.5-3.87c-5.63-1.09-11-3.54-16.42-5.58-3.48-1.3-6.78-3.05-10.21-4.47q-6-2.47-12.12-4.71a37,37,0,0,0-4.48-1.08c-1.31,8.61-2.65,17.22-3.91,25.83-.57,3.86-.4,7.93-1.58,11.58-2.52,7.79-5.48,15.46-8.68,23-2.31,5.45-5.42,10.56-7.95,15.93S58.57,412.8,56,418.26c-2.26,4.87-4.76,9.62-7.13,14.44s-4.87,9.7-7.13,14.63c-2.05,4.47-3.91,9-5.76,13.59-2.36,5.82-4.58,11.69-7,17.5s-4.51,11.58-7.31,17.1c-2.27,4.45-5.71,8.31-8,12.75a56.51,56.51,0,0,0-4.79,12.56c-.7,2.87-1.29,7.34.26,8.85a20.38,20.38,0,0,0,10.82,5c9.93,1.44,20,2.19,30,2.71,1.44.08,3.45-2.32,4.46-4,1.92-3.19,3.16-6.79,5-10.06,2-3.69,4.65-7.08,6.52-10.84,2.52-5.11,4.47-10.49,6.84-15.67,2.76-6,6.14-11.8,8.46-18,2.94-7.82,6.6-15,12.54-21,4.59-4.64,9.09-9.37,13.44-14.24,4.78-5.35,9.31-10.92,14-16.36,2.94-3.4,6-6.67,8.91-10.11,4.62-5.52,8.66-11.62,13.83-16.54s11.22-8.61,17-12.65c1.82-1.27,4.64-3.17,6.06-2.56,5.67,2.39,11.68,4.83,16.22,8.79,7.19,6.29,14.58,13,19.51,21s8,17.86,10.39,27.26A159.43,159.43,0,0,1,218.32,475c.56,14.32-.71,28.72-1.22,43.09,0,.44-.48.9-.43,1.31.49,3.38.1,7.5,2,9.84,1,1.32,5.93.16,8.84-.7,4.81-1.42,9.38-3.61,14.11-5.28,6.21-2.17,12.48-4.2,18.74-6.2,3.82-1.23,9.87,1.8,10.2-5.88.27-6.32,1.81-12.65,1.47-18.91-.44-8.07-2.66-16-3.21-24.11-.42-6.23.52-12.56.94-18.85.39-5.8,1-11.59,1.34-17.4C271.68,422.29,272.21,412.67,272.79,403.05Zm157.36-44.67a11.12,11.12,0,0,0-.13-3.95c-.29-1.07-2.1-2.67-2.87-2.49-3.84.88-7.55,2.32-11.34,3.45-1.47.43-3.61,1.29-4.42.65a8.69,8.69,0,0,1-2.92-5c-1.12-6.16-1.93-12.39-2.65-18.61-.53-4.63-.72-9.31-1.13-14,0-.49-.53-.94-.81-1.41a3.79,3.79,0,0,0-.54.95c-.86,4.2-2.21,8.37-2.4,12.59-.36,8.39-1,16.95.24,25.18.91,6-2,6-5.65,5.91-8.2-.15-16.39-.74-24.6-.95-5.58-.14-11.27.68-16.75-.07-9.06-1.24-18-3.27-26.95-5.27-2.51-.55-5.52-1.53-7-3.37-4-4.83-7.18-10.33-10.95-15.36-1-1.3-4.17-2.78-4.32-2.59-5,6.32-9.7,12.81-14.43,19.31-4.57,6.28-9.3,12.46-13.54,18.95a19.88,19.88,0,0,0-2.88,8.61c-.19,2,1.9,4.1,1.95,6.18.22,8.79.3,17.61-.06,26.39-.19,4.77-1.69,9.47-2,14.25-.73,10-1.45,20-1.5,30,0,8.06.91,16.13,1.41,24.19.36,5.66.89,11.32,1,17,.06,3.26-.66,6.53-.92,9.81-.46,5.53,4.19,3.47,6.77,4.48a1.16,1.16,0,0,1,.18,0c7,2.87,10,.89,10.81-6.52.68-6.44,1.76-12.84,2.83-19.23,2-11.82,4.05-23.62,6.13-35.43.84-4.77,1.23-9.71,2.79-14.24a275.59,275.59,0,0,1,10.31-26.12,55.87,55.87,0,0,1,9.42-14.68,173.25,173.25,0,0,1,20.5-18.74c6.86-5.31,14.58-9.51,21.93-14.18a7.13,7.13,0,0,1,1.47-.53,10,10,0,0,1,.39,2.05c0,2.64-.62,5.4,0,7.9,1.94,8.35,4.17,16.65,6.54,24.89s5.16,16.6,7.65,24.92c.72,2.39.63,5.08,1.62,7.33,2.16,4.92,4.7,9.67,7.22,14.43,3.22,6.09,6.63,12.08,9.82,18.18,2,3.79,3.7,7.72,5.55,11.58,2,4.15,4,8.31,6,12.43,2.26,4.54,4.65,9,6.88,13.56,2,4.1,3.77,8.33,5.86,12.39,3.07,6,5.88,12.13,9.64,17.62,2.94,4.28,6.78,10.24,10.91,10.87,6.49,1,14.08-.75,20.23-3.51,4.2-1.89,9.52-5.74,8.43-12.4-.69-4.22-1.51-8.42-2.6-12.55-1.16-4.37-2.59-8.69-4.12-12.95-2.38-6.63-5-13.17-7.41-19.77-1.48-4-2.63-8.2-4.28-12.16-1.78-4.26-4.18-8.25-5.92-12.53-2-5-3.52-10.14-5.44-15.15-3.21-8.37-7.44-16.46-9.64-25.08a203.92,203.92,0,0,1-5.29-32.44C428.39,375.67,429.66,367.87,430.15,358.38Zm-83.55-110,.19,0c0,2.87-.08,5.76.06,8.63,0,.72.74,1.95,1.28,2,9.18,1.43,18.37,2.8,27.6,3.91.87.11,2.7-1.45,2.83-2.41.58-4.09-.23-8.61,1.2-12.3,1.75-4.5,9.58-3.69,14.69,0,3.34,2.41,6.17,7.5,11.75,4.63,4.42-2.28,9.26-4,13.11-7.06a241.47,241.47,0,0,0,19.19-17.29c1.5-1.47,3.13-5.3,2.44-6.08-3-3.45-7.36-5.75-10.25-9.27a135.07,135.07,0,0,1-11-16.3c-.78-1.29.16-3.52-.05-5.27-1.1-8.91-2.56-17.78-3.37-26.71-.32-3.48.54-7.12,1.23-10.61.2-1,1.7-1.69,2.6-2.52.37.91,1.1,1.86,1,2.73-.2,2.22-1.27,4.44-1.12,6.61.7,10.57,1.68,21.12,2.59,31.67.12,1.45,0,3.17.74,4.27,2.95,4.38,6.27,8.5,9.3,12.83,5,7.08,10.72,12.72,20.23,12.24a4.6,4.6,0,0,1,1.44.41c-.26.4-.43,1-.8,1.17-3.39,1.83-.89,2.66.5,3.9.41.36.12,1.5.15,2.28-.74,0-1.66.19-2.17-.16-1.49-1-2.78-2.36-4.23-3.45-.31-.23-1,.06-1.52.1l.41.89c2.15,4.49,4.33,9,6.41,13.51.21.46-.2,1.19-.32,1.79-.72-.17-1.87-.11-2.09-.54-1.85-3.6-3.4-7.36-5.34-10.9-.6-1.09-2.83-2.56-3.14-2.32-2.06,1.57-3.65,3.75-5.67,5.38-7.88,6.35-15.87,12.55-23.79,18.85-1.88,1.5-5.36,3.45-5.15,4.71.93,5.59,3.17,10.95,4.48,16.5,1.83,7.8,6.45,13.45,12.75,18,1.23.88,3.29,2.59,3.76,2.25,7.29-5.28,14.41-10.79,21.51-16.34q12.81-10,25.52-20.16c5.25-4.2,9.54-16,8.19-21.11-2.27-8.51-4-17.16-6.35-25.63A99,99,0,0,0,472,196.71c-2.55-5.59-6.13-10.74-8.32-16.44-3.05-8-5.38-16.23-7.75-24.45s-4-16.66-6.72-24.72c-2-6-4.74-11.77-10.75-15.33S427.24,108,427.11,100c0-1.33-3.75-4-4.37-3.68a76.88,76.88,0,0,0-10.49,7.63c-4.17,3.44-8.38,6.89-12.19,10.72a162.64,162.64,0,0,0-14.6,16,217.84,217.84,0,0,0-14.54,22A171.55,171.55,0,0,0,361,173.18c-1.93,4.66-2.82,9.76-4.19,14.65-2,7.15-4.34,14.23-5.95,21.47a161.12,161.12,0,0,0-2.6,18.09C347.55,234.37,347.15,241.39,346.6,248.39Zm88.31,80.32.7-.07c-.62-7.29-1.21-14.59-1.9-21.87a25.84,25.84,0,0,0-1.2-6.58c-.39-1-1.93-1.76-3.09-2.33-.8-.39-2.21.09-2.73-.43-5-5.09-10-10.29-14.87-15.5-.78-.83-1.65-2.76-2-2.66-4.13,1.43-8.43,2.66-12.17,4.84-9.45,5.5-19.55,3.26-29.49,3.2a26,26,0,0,1-4.32-.74,19.94,19.94,0,0,1,.77,4.11c-.25,10.74.83,21.79-1.36,32.13-1.9,9-7.31,17.31-11.66,25.68-1.19,2.31-3.87,6-7.1,2.77-2.15-2.14-3.18-5.68-4-8.78-.76-2.81-1.94-6.9-.6-8.66a40.27,40.27,0,0,0,7.82-21.45c.52-6.17-.6-12.48-1.1-18.72-.05-.54-.93-1-1.48-1.49a1.23,1.23,0,0,0-.72.54c-1.74,7.6-4,15.14-5,22.84-1.17,9-1.2,18.07-1.76,27.11-.08,1.2-.44,2.37-.61,3.56a16.67,16.67,0,0,1-.58,3.8c-.16.4-1.66.49-2.47.34a37,37,0,0,1-5.58-1.48c-1.17-.41-3-1-3.18-1.81-1-5-2.34-10.06-2.23-15.08.18-8.32,1.38-16.62,2.1-24.93,0-.37-.37-.79-.57-1.18a3.15,3.15,0,0,0-.64.48c-4,5-7.95,10-12.09,14.91-3,3.55-6.3,6.81-2,11.61,3.27,3.63,6.38,7.42,9.56,11.13,2.18,2.54,3.87,6.26,6.62,7.37a85.26,85.26,0,0,0,19.11,5.19c7.17,1.11,14.52,1.25,21.81,1.46,9,.27,18.14-.34,27.13.43,5.3.46,3.88-2.34,3.66-4.93-.13-1.55-1-3.1-.88-4.6.67-8.34,1.28-16.69,2.43-25,.95-6.78,2.53-13.49,4.06-20.17.26-1.15,1.69-2,2.58-3,.43.55,1.17,1.07,1.24,1.66.44,3.39.76,6.8,1,10.2.94,11.45,1.67,22.91,2.92,34.32.23,2.05,2.87,5.69,3.82,5.51A91,91,0,0,0,432,347.5a7.79,7.79,0,0,0,4.07-5.58C436.34,337.56,435.38,333.12,434.91,328.71ZM381.64,127l-1.55-.92a8.27,8.27,0,0,0-.12-3,2.83,2.83,0,0,0-2.5,0c-4.81,5.5-10.09,10.74-14,16.82-4.05,6.26-6.78,13.38-10.08,20.12-2.59,5.29-4.13,11.59-8,15.65-6.18,6.45-14,11.32-21,17-4.7,3.86-9.54,7.67-13.6,12.16-4.41,4.88-7.4,11.1-12,15.69-6.31,6.22-13.74,11.28-20.35,17.22-1.63,1.46-7.17,1.66-3.46,6.32,1.75,2.2,3.69,4.29,5.23,6.63,4.2,6.41,8.19,13,12.39,19.36.57.87,2.43,2,2.75,1.74,3-2.3,5.73-5.09,8.82-7.31,6.27-4.51,12.51-9.13,19.18-13,4.73-2.73,10.18-4.2,15.23-6.4,2-.86,5.14-1.86,5.47-3.32,1.37-5.92,1.78-12,2.67-18.07,1.27-8.72,2.57-17.43,4-26.12a84.86,84.86,0,0,1,2.76-12.23c2.69-8.18,5.2-16.51,8.81-24.29,3.38-7.26,8.17-13.86,12.21-20.82C377,136,379.25,131.46,381.64,127ZM110.85,41.66c2.07,5.72,3.39,10.17,5.27,14.37a110.86,110.86,0,0,0,6.21,11.3c2.19,3.65,5.21,6.94,6.75,10.82,1.7,4.3,4.93,5.66,8.68,6.76,3.2,1,11-5.41,10.18-9.07a46.75,46.75,0,0,0-5.39-13.45c-2.67-4.55-3-11.31.44-15.18,5.15-5.86,11.19-5.14,14.37,1.44.84,1.74,2.85,2.92,4.32,4.35a25.92,25.92,0,0,0,1.76-4.42c1-5.19,3.79-8.61,9.07-9.92a11.62,11.62,0,0,0,4.92-2.12c1.55-1.4,2.33-3.63,3.78-5.19,3.68-4,4.64-8.67,1.51-12.78-2.55-3.36-6.43-6-10.22-8a74.44,74.44,0,0,0-15.35-6.2,34.58,34.58,0,0,0-13.31-1.21c-5.12.69-10.57,2.07-14.87,4.77-3.55,2.22-6.28,6.47-8.21,10.4C117,26,114,34.11,110.85,41.66Zm61.78,296.23c.89-6,1.63-11.74,2.67-17.41.15-.83,2.3-2.15,2.51-2,2.28,1.82,4.83,3.6,6.4,6,3.24,5,5.84,10.32,8.9,15.4.7,1.17,2.17,1.87,3.29,2.78-.1-1.37-.16-2.75-.31-4.12a11.42,11.42,0,0,0-.45-2.07c-1.29-4.56-2.21-9.29-4.06-13.62-1.13-2.65-3.33-6.1-5.7-6.73-6.19-1.65-12.77-1.77-19.15-2.8-9.53-1.54-19.07-3.08-28.5-5.11a124.07,124.07,0,0,1-19-5.62c-7-2.78-13.7-6.5-20.61-9.62-1.21-.54-3.82-.68-4.12-.12-3.1,5.78-6.42,11.56-8.46,17.73-1,2.89-10,6.21-.6,10,5.17,2.07,10.19,4.52,15.34,6.63,5.8,2.36,11.59,4.78,17.54,6.71s12.07,3.45,18.18,4.88a103.21,103.21,0,0,0,13.18,2.3,91.6,91.6,0,0,0,11.72.13c2.29-.06,4.89-1.33,6.8-.6C171.82,342,172.86,341.08,172.63,337.89ZM378.8,96l-2.06,1c1.24,1.6,2.51,4.58,3.72,4.55,3.8-.08,7.57-1.35,11.38-2a19.89,19.89,0,0,1,3.62,0c-.15.72-.07,1.86-.47,2.07a30.85,30.85,0,0,1-4.47,1.61c-3,1-5.71,1.43-5.4,6.11.29,4.37-1.43,8.85-2.1,13.3a25.63,25.63,0,0,0,.11,4.54,6.31,6.31,0,0,0,1.77-.92c4-4.16,7.64-8.61,11.82-12.51,5.91-5.52,12.33-10.49,18.2-16,1.52-1.43,8.94-2.62,1.28-6.7-2.77-1.48-6-4.89-6.21-7.65-.26-3,2.88-6.26,4.16-9.55.84-2.19,1-4.64,1.48-7-1.57.14-3.84-.3-4.55.55-1.37,1.66-1.55,4.29-2.84,6.06-.94,1.28-3,2.62-4.36,2.47-1.61-.17-4.4-2.06-4.32-3,.51-6.45-3.5-6.6-8.16-7.15-4-.47-7.89-2.2-11.87-3.19-1-.25-2.9-.19-3.23.39-1.73,3-3.08,6.29-4.6,9.45-1.05,2.19-3.13,4.39.45,6.28,1.07.56,2.59,1.26,2.86,2.19C376.45,85.78,377.57,90.88,378.8,96ZM150.67,45.66c-2.19,1.46-4,2.08-4.89,3.37-3.65,5.47-1.54,10.62,1.92,15.12,5,6.47,5.27,14.4-1.78,19.83a22.51,22.51,0,0,0-2.83,3.15c1.4.59,2.84,1.09,4.18,1.79,2,1,3.84,2.71,6,3.25,4.19,1.07,6.59,8.23,12.71,3.28,4.05-3.28,7.93-6.13,8-11.94,0-1.35.31-3.48,1.16-3.91,4.37-2.21,1.73-6.15,2.68-9.13.51-1.63,1.17-3.88,2.41-4.47,4.57-2.16,2.72-5.67,2-8.6-1.23-5.12-3-10.09-4.61-15.13-.2-.63-.41-1.25-.61-1.87-3.21,2.06-6.88,3.69-9.44,6.37-1.52,1.6-.68,5.31-2.06,7.24-1.1,1.54-4.32,2.93-5.94,2.4-2-.67-3.44-3.32-5-5.23C153.25,49.56,152.14,47.77,150.67,45.66Zm73.12,493.81h0c0,1.91-.37,3.92.08,5.73.77,3.09,1.59,7.51,6,6,5-1.73,9.25-5.89,14.29-7.24,5.22-1.4,11-.65,16.52-.9,6.46-.29,13.27.51,19.26-1.34,4.69-1.45,8.46-6.11,12.42-9.6.68-.6.26-2.43.36-3.7-2.65-.1-5.47.34-7.93-.4-6.38-1.94-12.59-4.45-18.91-6.64-1.88-.65-3.93-1.53-5.8-1.34-2.61.27-5.14,1.43-7.7,2.24-3.07,1-6.2,1.81-9.18,3-4.35,1.77-8.43,4.43-12.91,5.57-4.65,1.19-7.93,2.43-6.51,8.06A2.44,2.44,0,0,1,223.79,539.47Zm132.9-421.62.27-.73a7.64,7.64,0,0,0,2.49-.05,32.84,32.84,0,0,0,3.76-2c-1.18-.17-2.36-.41-3.55-.5-1-.08-2.24.4-2.81-.06-1-.83-2.51-2.8-2.23-3.22a68.2,68.2,0,0,1,5.62-6.55c.74,1.4,1.42,2.84,2.24,4.19a3.32,3.32,0,0,0,1.44,1.23c1.53.66,3.11,1.2,4.68,1.78.36-1.46,1.19-3,1-4.36a69.22,69.22,0,0,0-2.51-12c-1-3.14-2.26-7.07-7.18-5.34C356.57,91.45,353.35,93,350,94c-4.94,1.51-10,2.72-15,4.06-3.12.84-5.48,1.6-5.06,6.12.52,5.62-.43,11.37-.62,17.06,0,.31,1.28,1.07,1.54.91,1.53-.94,2.79-2.46,4.42-3.09,4.21-1.64,8.49-3.6,12.89-4.1C350.89,114.62,353.85,116.79,356.69,117.85Zm93.52,451.76c.14-.38.27-.77.4-1.15a31.09,31.09,0,0,0,5.49-1.63,14,14,0,0,0,4.68-3.53A112.66,112.66,0,0,0,467.93,553q4.9-7.89,9.34-16.06c.21-.38-1.57-1.84-2.43-2.79a9,9,0,0,1-1.26,1.28c-4.24,2.88-8.16,6.75-12.84,8.28-5.13,1.68-11,1.16-16.48,1.64a1.76,1.76,0,0,0-1.21.72c-3.37,6.09-6.75,12.18-10,18.35a28.55,28.55,0,0,0-1.57,4.76c1.22-.23,2.47-.4,3.67-.72,1.55-.41,3.14-1.53,4.57-1.33C443.27,567.64,446.72,568.74,450.21,569.61ZM243.34,268.44l.9.35a16.68,16.68,0,0,0,.29,3.56,10.32,10.32,0,0,0,1.66,2.53,9.06,9.06,0,0,0,1.73-1.84c1.85-3.78,3.54-7.63,5.44-11.38.26-.53,1.28-.87,2-.94.5,0,1.46.46,1.5.81.07.55-.54,1.16-.71,1.78a59.22,59.22,0,0,0-1.44,6.27c0,.3,1.19.79,1.83,1.21s1.31.9,2,1.35a17,17,0,0,1-1.88,2.64,29.49,29.49,0,0,1-3.29,2.44c2.5,3.27,7.89,2.8,10.46-.34,3.9-4.77,8.5-9,12.36-13.78,1.6-2,7.39-2,3.94-6.94-1.44-2.09-2.38-4.61-4.11-6.4-1.14-1.19-3.43-2.24-4.93-2a110.71,110.71,0,0,0-12.91,3.66c-3.29,1.06-7.75,1.45-9.48,3.77C245.92,258.91,245,264,243.34,268.44Zm145.84-9.08.66.46c-.78,1.06-1.55,2.12-2.38,3.14,0,.06-.83-.24-.9-.47-.46-1.66-.78-3.35-1.24-5-.16-.6-.5-1.6-.84-1.63-.91-.08-2.31,0-2.67.5a3.07,3.07,0,0,0,.29,2.75c.72,1.08,2,1.78,2.83,2.79a2,2,0,0,1,.12,1.74c-.14.33-.94.52-1.44.51a10.64,10.64,0,0,1-2.12-.43,20.07,20.07,0,0,1,2,2.1,28.5,28.5,0,0,1,1.64,2.85,3.32,3.32,0,0,1-.92.38,8.77,8.77,0,0,1-1.44-.09,7.58,7.58,0,0,0,1.09,1.78,29.75,29.75,0,0,0,2.78,2.19c.72.55,1.4,1.35,2.21,1.51s1.58-.42,2.38-.68a9.25,9.25,0,0,1,.26,1.44,8.25,8.25,0,0,1-2.67.63c-1.64,0-3.27-.26-4.91-.41a36.66,36.66,0,0,0,2.91,4c.14.14,1.54-.91,2.39-1.35a5.1,5.1,0,0,1,1.64-.61c.21,0,.44.63.75.75,1.14.43,2.4,1.22,3.46,1a9.72,9.72,0,0,0,4.76-2c2.74-2.54,10.86-.82,7.18-8.58-2-4.2-.78-10.06-6.43-12.41a46.15,46.15,0,0,1-5.42-2.78c-3-1.75-5.94-3.67-9-5.33-.42-.22-1.46.71-2.21,1.11a8,8,0,0,0,1.37,1.19c1.77.92,4.68,1.39,5.12,2.71C391,254.86,389.7,257.25,389.18,259.36ZM8.78,535.15c.39-.19-1,0-1.42.77A33.76,33.76,0,0,0,4,543.19c-.63,2.08-.5,4.38-.71,6.58,2,.14,4.11.76,6,.34,8.56-1.91,17-4.61,25.6-6,4.51-.73,9.78,2.06,14,.79,5.65-1.73,10.69-5.67,15.72-9,1-.69.92-3.12,1.34-4.75-1.76-.38-3.54-1.09-5.27-1-.81,0-1.63,1.6-2.28,2.59-1.58,2.4-2.89,6.79-4.64,7a118,118,0,0,1-22.94,0C23.84,539,17.07,536.92,8.78,535.15ZM205.34,317.91c.67,1.8,1.25,3.23,1.73,4.69,1.43,4.43,2.75,8.91,4.29,13.3.38,1.09,1.69,2.89,2.15,2.77a114.22,114.22,0,0,0,12.5-4.12c.72-.28,1.48-2.67,1.11-3.07-1.09-1.19-3-1.65-4.12-2.8-3.72-3.64-7.1-7.64-10.94-11.14-1.29-1.17-3.56-1.35-5.43-1.72C206.35,315.77,205.78,317.17,205.34,317.91Zm78,206.58c1.53-1,3.7-1.73,4.12-3s-.81-3.94-1.86-4.27a34.72,34.72,0,0,0-10.54-1.68c-1.67,0-3.32,2-4.95,3.12a1.13,1.13,0,0,0,.31.81C274.54,521.08,278.63,522.65,283.39,524.49Zm5.26-254.22c-1.75-2.63-3-4.7-4.47-6.66a6.79,6.79,0,0,0-1.91-1.28c-.2,1-.82,2.14-.49,2.89a15.38,15.38,0,0,0,2.74,3.83,6.74,6.74,0,0,0,2.17,1.48C287,270.69,287.59,270.43,288.65,270.27Z"/><path class="cls-1" d="M326.66,110c-.56,5.85-.49,11.85-1.84,17.51-1.95,8.18-4.89,16.13-7.54,24.13-.2.6-1.45,1-2.28,1.23-8.7,2.57-17.43,5.07-26.13,7.65-5.92,1.74-11.88,3.39-17.7,5.43-4.94,1.72-10,3.42-14.47,6a264.77,264.77,0,0,0-22.16,14.61c-4.76,3.47-8.76,8-13.4,11.61-2.61,2.05-6.33,2.82-8.63,5.1a16.11,16.11,0,0,0-3.79,8c-1.34,6.7-2.07,13.52-3.09,20.28q-1.8,12-3.69,23.92c-1.28,8.18-2.36,16.42-4,24.53-1.24,6.14-3.2,12.13-4.94,18.15a1.87,1.87,0,0,1-1.56.87c-7-1.13-13.94-2.53-20.95-3.49-3.48-.47-7.15.28-10.58-.35-7.1-1.3-14.16-3-21.12-4.86a105.85,105.85,0,0,1-16.28-5.55A223.82,223.82,0,0,1,101,273.19c-1-.57-.5-3.87-.36-5.89.34-5,1-9.89,1.31-14.85.59-8.14,1.07-16.29,1.57-24.44.92-15.1,1.77-30.21,2.74-45.3.67-10.28,1.55-20.54,2.21-30.82.09-1.38-.59-2.8-.91-4.2-.93,1.37-1.86,2.73-2.77,4.11-.09.13,0,.36-.05.54-.51,10.32-1.22,20.65-1.43,31-.1,5-.1,9.33-5.35,12.13-1.76.94-2.6,3.83-3.53,6-.33.77.32,2,.52,3A43.78,43.78,0,0,0,98,200.69c.75-1.09,1.09-2.45,1.82-3.56.28-.42,1.15-.47,1.74-.69a19,19,0,0,1,.51,4.06c-.07.8-.9,1.57-1.45,2.3-2.1,2.75-4.28,5.44-6.26,8.27-.2.28.8,1.38,1.24,2.1.82-1.14,1.66-2.28,2.47-3.44s1.77-2.61,2.65-3.92c.41.32,1.2.67,1.18,1q-1.27,18.75-2.69,37.47c-.32,4.3-.64,8.6-1.16,12.88a53.62,53.62,0,0,1-1.46,6.14c-2-.95-4.21-1.56-5.86-2.89-5-4-10.07-8-14.44-12.69a25.69,25.69,0,0,1-6.07-10.58c-1.93-7.41-3.73-15.1-3.76-22.69,0-5.64,2.87-11.28,4.39-16.94,1-3.82,1.72-7.74,2.88-11.51,1.88-6.08,4-12.07,6-18.13,1.06-3.25,2.07-6.52,2.87-9.84,1.45-6,1.71-12.6,4.33-18.06,3.41-7.11,7.81-14.17,13.33-19.73,4.7-4.74,11.88-6.91,17.34-11,2.43-1.84,3.71-5.57,4.82-8.69,1.31-3.66,1.45-7.75,2.85-11.35,1.88-4.85,5.56-2.44,8.61-1.27,3.82,1.45,7.62,3,11.3,4.78s7,3.93,10.62,5.69,7.37,3.37,11.16,4.8c16.61,6.31,34,2.84,51,3.94,3.05.2,6.06,1.86,9.06,1.78a113.69,113.69,0,0,0,17.16-1.75c5.39-1,10.56-3.41,15.95-4,12.62-1.35,25.32-2,38-2.87,6.93-.47,14.15.36,20.73-1.35,9-2.35,7.21,3.24,7.34,8,0,1,0,2,0,3.06Zm-89.73,47.4c-6.11,3.64-12.54,6.9-18.32,11.05-6.5,4.68-12.44,10.15-18.56,15.35-.44.37-.39,1.32-.57,2,.53.09,1.26.47,1.57.25,2.45-1.73,4.89-3.48,7.2-5.39,5.44-4.47,10.55-9.4,16.29-13.42,3.52-2.47,8-3.5,12-5.4,1-.5,1.72-1.79,2.56-2.71ZM196.74,228.7c-1.63-.34-2.43-.76-2.7-.53-4.6,3.84-9.83,7.21-13.51,11.8-4.6,5.73-7.94,12.47-11.74,18.81a15.69,15.69,0,0,0-1.12,3.24c1.2-.67,2.86-1,3.54-2.07,2.74-4.16,4.9-8.72,7.82-12.75,3.55-4.9,7.55-9.5,11.57-14C192,231.59,194.07,230.6,196.74,228.7ZM165.21,117.29l.61-1.22a13.44,13.44,0,0,0,3.38-.26,17.67,17.67,0,0,0,3.16-1.88l-3-.76c-4.8-1.17-9.73-2-14.34-3.63s-8.77-4.3-13.21-6.36c-.71-.33-1.8.17-2.71.28.55.73,1,1.75,1.7,2.15,2.86,1.54,5.82,2.9,8.75,4.29C154.74,112.38,160,114.83,165.21,117.29Zm-22.86,91.13a7.81,7.81,0,0,0-1-1.52c-.09-.08-.55.1-.72.28-4.5,4.92-9.54,9.46-13.32,14.88-3.24,4.66-5.07,10.32-7.45,15.56-.16.34.2.95.42,1.37a1.16,1.16,0,0,0,.9-.22c1.34-2.19,2.59-4.41,3.9-6.61,3-5,5.71-10.2,9.06-15C136.44,214,139.6,211.31,142.35,208.42Zm-19.11-32.17,1.14,2.28c.23-.27.47-.54.7-.82l10.2-12.7c.8-1,1.58-2,2.36-3-1.5.41-3,.76-4.49,1.29-.44.16-.72.8-1.05,1.24C129.11,168.5,126.13,172.44,123.24,176.25Zm89.06-51.14a86.49,86.49,0,0,0,9.17-1.82c1.36-.42,2.39-1.89,3.57-2.88-1.06-.2-2.19-.73-3.17-.54-3.08.62-6.12,1.43-9.14,2.33a39.38,39.38,0,0,0-4.4,1.89Zm-116,90.52,1.23,2.22,3.09-3.45c-.52-.42-1.34-1.3-1.51-1.19A24.35,24.35,0,0,0,96.34,215.63Z"/><path class="cls-1" d="M272.79,403.05c-.58,9.62-1.11,19.24-1.74,28.86-.38,5.81-.95,11.6-1.34,17.4-.42,6.29-1.36,12.62-.94,18.85.55,8.07,2.77,16,3.21,24.11.34,6.26-1.2,12.59-1.47,18.91-.33,7.68-6.38,4.65-10.2,5.88-6.26,2-12.53,4-18.74,6.2-4.73,1.67-9.3,3.86-14.11,5.28-2.91.86-7.81,2-8.84.7-1.85-2.34-1.46-6.46-2-9.84,0-.41.42-.87.43-1.31.51-14.37,1.78-28.77,1.22-43.09a159.43,159.43,0,0,0-5.12-32.55c-2.36-9.4-5.36-19.11-10.39-27.26s-12.32-14.75-19.51-21c-4.54-4-10.55-6.4-16.22-8.79-1.42-.61-4.24,1.29-6.06,2.56-5.82,4-12,7.8-17,12.65s-9.21,11-13.83,16.54c-2.89,3.44-6,6.71-8.91,10.11-4.68,5.44-9.21,11-14,16.36-4.35,4.87-8.85,9.6-13.44,14.24-5.94,6-9.6,13.19-12.54,21-2.32,6.18-5.7,12-8.46,18C70.44,502,68.49,507.37,66,512.48c-1.87,3.76-4.49,7.15-6.52,10.84-1.81,3.27-3.05,6.87-5,10.06-1,1.69-3,4.09-4.46,4-10-.52-20.07-1.27-30-2.71a20.38,20.38,0,0,1-10.82-5c-1.55-1.51-1-6-.26-8.85a56.51,56.51,0,0,1,4.79-12.56c2.32-4.44,5.76-8.3,8-12.75,2.8-5.52,5-11.36,7.31-17.1s4.59-11.68,7-17.5c1.85-4.56,3.71-9.12,5.76-13.59,2.26-4.93,4.73-9.77,7.13-14.63s4.87-9.57,7.13-14.44c2.53-5.46,4.72-11.08,7.28-16.52s5.64-10.48,7.95-15.93c3.2-7.54,6.16-15.21,8.68-23,1.18-3.65,1-7.72,1.58-11.58,1.26-8.61,2.6-17.22,3.91-25.83a37,37,0,0,1,4.48,1.08q6.1,2.24,12.12,4.71c3.43,1.42,6.73,3.17,10.21,4.47,5.41,2,10.79,4.49,16.42,5.58a260.18,260.18,0,0,0,28.5,3.87c5.34.44,10.84-.32,16.19-1.12,1.17-.18,2.59-2.71,2.84-4.31.77-5.08,1-10.24,1.54-15.36,0-.35.69-.94.72-.92.94.61,2.19,1.1,2.67,2,3.17,5.89,6,12,9.36,17.77.84,1.48,2.94,3.12,4.49,3.14,3.89,0,4.12,2.41,4.2,5.12.18,5.48,4,2.59,6.18,2.45,2.58-.18,5.08-1.88,7.64-1.94,4.42-.1,3.88-3.26,2.81-5.08-2.21-3.78-1.11-5.23,2.56-6.48s7.18-3.32,10.93-4.43c1.11-.33,3,1.07,4.2,2.12,4.35,4,8.67,8,12.73,12.23a178.1,178.1,0,0,1,13.45,15.11c4.18,5.5,8.56,11.19,11.06,17.51,2,5,1.27,11.1,1.72,16.71.09,1.13,0,2.27,0,3.41Zm-139.35-1.81c-1.06-.48-1.52-.89-1.76-.78a52.72,52.72,0,0,0-5.15,2.44c-5.61,3.15-11.08,6.55-16.78,9.51-4.28,2.23-8.83,3.93-13.26,5.89-1.46.64-2.89,1.34-4.34,2,1.32.22,2.82.95,3.93.56,6.28-2.23,12.6-4.46,18.65-7.23,4-1.81,7.56-4.46,11.22-6.87C128.37,405.18,130.62,403.34,133.44,401.24Zm126.44,16.55c2.5-.89,4.31-1.42,6-2.21.61-.29.91-1.22,1.36-1.85a13.39,13.39,0,0,0-2.32-.45c-2.55,0-5.31.61-7.62-.14-4.89-1.61-9.51-4-14.33-5.89-1.41-.55-3.12-.3-4.7-.36-.12,0-.39.64-.38.65,1,.67,2,1.33,3.06,1.93a29.07,29.07,0,0,0,3.12,1.65C249.43,413.41,254.8,415.66,259.88,417.79ZM185.61,379a19.89,19.89,0,0,0,2.24-1.82c.12-.13-.3-1.13-.65-1.28q-9-3.76-18.14-7.36c-.51-.21-1.19.05-1.8.09.27.46.43,1.05.82,1.34a40.52,40.52,0,0,0,5.71,3.85C177.53,375.7,181.41,377.23,185.61,379ZM24.36,512.16c4.18-1.19,7.4-1.88,10.42-3.06,1.21-.47,2-2,3-3.08-1.11-.17-2.31-.69-3.31-.43a79.4,79.4,0,0,0-7.7,2.63,4.86,4.86,0,0,0-2.31,1.31C24.05,510.08,24.36,511.11,24.36,512.16Zm38.78-45.95c3.51-2.08,7-4.11,10.45-6.27.32-.2.17-1.15.23-1.76-.8,0-1.77-.32-2.38,0-2.92,1.59-5.77,3.31-8.57,5.1a8.46,8.46,0,0,0-1.61,1.92ZM245.23,491l-3.41.93c.42.59.72,1.5,1.29,1.73a27.61,27.61,0,0,0,5.26,1.55,3.51,3.51,0,0,0,2.2-.81,1.83,1.83,0,0,0-.36-1.49C248.56,492.16,246.83,491.59,245.23,491Z"/><path class="cls-1" d="M430.15,358.38c-.49,9.49-1.76,17.29-1.1,24.92a203.92,203.92,0,0,0,5.29,32.44c2.2,8.62,6.43,16.71,9.64,25.08,1.92,5,3.41,10.19,5.44,15.15,1.74,4.28,4.14,8.27,5.92,12.53,1.65,4,2.8,8.13,4.28,12.16,2.43,6.6,5,13.14,7.41,19.77,1.53,4.26,3,8.58,4.12,12.95,1.09,4.13,1.91,8.33,2.6,12.55,1.09,6.66-4.23,10.51-8.43,12.4-6.15,2.76-13.74,4.5-20.23,3.51-4.13-.63-8-6.59-10.91-10.87-3.76-5.49-6.57-11.66-9.64-17.62-2.09-4.06-3.85-8.29-5.86-12.39-2.23-4.55-4.62-9-6.88-13.56-2.05-4.12-4-8.28-6-12.43-1.85-3.86-3.57-7.79-5.55-11.58-3.19-6.1-6.6-12.09-9.82-18.18-2.52-4.76-5.06-9.51-7.22-14.43-1-2.25-.9-4.94-1.62-7.33-2.49-8.32-5.24-16.57-7.65-24.92s-4.6-16.54-6.54-24.89c-.58-2.5,0-5.26,0-7.9a10,10,0,0,0-.39-2.05,7.13,7.13,0,0,0-1.47.53c-7.35,4.67-15.07,8.87-21.93,14.18a173.25,173.25,0,0,0-20.5,18.74,55.87,55.87,0,0,0-9.42,14.68,275.59,275.59,0,0,0-10.31,26.12c-1.56,4.53-2,9.47-2.79,14.24-2.08,11.81-4.15,23.61-6.13,35.43-1.07,6.39-2.15,12.79-2.83,19.23-.79,7.41-3.82,9.39-10.81,6.52a1.16,1.16,0,0,0-.18,0c-2.58-1-7.23,1-6.77-4.48.26-3.28,1-6.55.92-9.81-.09-5.67-.62-11.33-1-17-.5-8.06-1.45-16.13-1.41-24.19.05-10,.77-20,1.5-30,.35-4.78,1.85-9.48,2-14.25.36-8.78.28-17.6.06-26.39,0-2.08-2.14-4.21-1.95-6.18A19.88,19.88,0,0,1,277,372.4c4.24-6.49,9-12.67,13.54-18.95,4.73-6.5,9.46-13,14.43-19.31.15-.19,3.34,1.29,4.32,2.59,3.77,5,6.95,10.53,10.95,15.36,1.51,1.84,4.52,2.82,7,3.37,8.93,2,17.89,4,26.95,5.27,5.48.75,11.17-.07,16.75.07,8.21.21,16.4.8,24.6.95,3.61.06,6.56.13,5.65-5.91-1.23-8.23-.6-16.79-.24-25.18.19-4.22,1.54-8.39,2.4-12.59a3.79,3.79,0,0,1,.54-.95c.28.47.77.92.81,1.41.41,4.64.6,9.32,1.13,14,.72,6.22,1.53,12.45,2.65,18.61a8.69,8.69,0,0,0,2.92,5c.81.64,2.95-.22,4.42-.65,3.79-1.13,7.5-2.57,11.34-3.45.77-.18,2.58,1.42,2.87,2.49A11.12,11.12,0,0,1,430.15,358.38Zm21.92,158.55a6,6,0,0,0-.79-1.51c-2.35-2.22-5-4.16-7-6.66-3.43-4.3-6.39-9-9.63-13.44-3.63-5-7.3-10-11.12-14.88-.49-.62-2-.64-2.94-.58A2.59,2.59,0,0,0,420,482c1.6,2.57,3.36,5.06,5.17,7.5,3.71,5,7.28,10.1,11.3,14.83s8.29,8.8,12.54,13.11a3.76,3.76,0,0,0,2.15.83C451.38,518.26,451.73,517.42,452.07,516.93Zm-40.34-57.47c6.34,1.22,10.64-2.77,14.15-7.94.81-1.19.69-3,1-4.54a39.19,39.19,0,0,0-3.29,2.86c-3.27,3.57-5.79,8.23-11.95,7.06a21.48,21.48,0,0,0-5.72,0c-.5,0-.93.9-1.39,1.38.45.4.87,1.09,1.34,1.13C407.59,459.54,409.34,459.46,411.73,459.46ZM308.07,375.51l-.26-.71a13.05,13.05,0,0,0-2.33-.09c-1.1.13-2.18.44-3.27.67,1.06.68,2.22,2.05,3.17,1.92,4.16-.56,8.27-1.52,12.36-2.49.39-.09.52-1.21.78-1.85-.67-.13-1.42-.54-2-.36C313.68,373.49,310.89,374.53,308.07,375.51Zm-20.52,34.62,4.25-2.59a18.31,18.31,0,0,1-3.41-.86c-2-.89-3.82-2-5.74-3-1.08-.55-2.21-1-3.31-1.49-.1,1-.61,2.53-.23,2.79C281.74,406.81,284.56,408.36,287.55,410.13Z"/><path class="cls-1" d="M346.6,248.39c.55-7,.95-14,1.69-21a161.12,161.12,0,0,1,2.6-18.09c1.61-7.24,3.94-14.32,5.95-21.47,1.37-4.89,2.26-10,4.19-14.65a171.55,171.55,0,0,1,9.89-20.48,217.84,217.84,0,0,1,14.54-22,162.64,162.64,0,0,1,14.6-16c3.81-3.83,8-7.28,12.19-10.72a76.88,76.88,0,0,1,10.49-7.63c.62-.36,4.35,2.35,4.37,3.68.13,8.08,5.4,12.3,11.34,15.82s8.72,9.37,10.75,15.33c2.75,8.06,4.35,16.51,6.72,24.72s4.7,16.48,7.75,24.45c2.19,5.7,5.77,10.85,8.32,16.44a99,99,0,0,1,5.39,14.53c2.36,8.47,4.08,17.12,6.35,25.63,1.35,5.07-2.94,16.91-8.19,21.11Q462.84,268.14,450,278.14c-7.1,5.55-14.22,11.06-21.51,16.34-.47.34-2.53-1.37-3.76-2.25-6.3-4.52-10.92-10.17-12.75-18-1.31-5.55-3.55-10.91-4.48-16.5-.21-1.26,3.27-3.21,5.15-4.71,7.92-6.3,15.91-12.5,23.79-18.85,2-1.63,3.61-3.81,5.67-5.38.31-.24,2.54,1.23,3.14,2.32,1.94,3.54,3.49,7.3,5.34,10.9.22.43,1.37.37,2.09.54.12-.6.53-1.33.32-1.79-2.08-4.53-4.26-9-6.41-13.51l-.41-.89c.52,0,1.21-.33,1.52-.1,1.45,1.09,2.74,2.41,4.23,3.45.51.35,1.43.12,2.17.16,0-.78.26-1.92-.15-2.28-1.39-1.24-3.89-2.07-.5-3.9.37-.2.54-.77.8-1.17a4.6,4.6,0,0,0-1.44-.41c-9.51.48-15.27-5.16-20.23-12.24-3-4.33-6.35-8.45-9.3-12.83-.74-1.1-.62-2.82-.74-4.27-.91-10.55-1.89-21.1-2.59-31.67-.15-2.17.92-4.39,1.12-6.61.08-.87-.65-1.82-1-2.73-.9.83-2.4,1.55-2.6,2.52-.69,3.49-1.55,7.13-1.23,10.61.81,8.93,2.27,17.8,3.37,26.71.21,1.75-.73,4,.05,5.27a135.07,135.07,0,0,0,11,16.3c2.89,3.52,7.24,5.82,10.25,9.27.69.78-.94,4.61-2.44,6.08a241.47,241.47,0,0,1-19.19,17.29c-3.85,3-8.69,4.78-13.11,7.06-5.58,2.87-8.41-2.22-11.75-4.63-5.11-3.67-12.94-4.48-14.69,0-1.43,3.69-.62,8.21-1.2,12.3-.13,1-2,2.52-2.83,2.41-9.23-1.11-18.42-2.48-27.6-3.91-.54-.09-1.24-1.32-1.28-2-.14-2.87-.06-5.76-.06-8.63ZM352.3,223a6.18,6.18,0,0,0,2.21.38,2.18,2.18,0,0,0,1.33-1.44c1-4,1.47-8.26,2.8-12.18,2.24-6.59,4.83-13.08,7.57-19.49,2.25-5.28,5-10.35,7.38-15.58a23.27,23.27,0,0,0,1.08-4.37c-1,.36-2.51.43-2.89,1.13A147.46,147.46,0,0,0,364.89,185c-2.15,5.09-3.9,10.36-5.63,15.62C357,207.52,354.94,214.45,352.3,223Zm39.13-81.47c.27.51.48,1.15.62,1.13.67-.07,1.56-.11,1.95-.54,3.94-4.33,7.49-9.07,11.75-13,5.48-5.12,11.54-9.61,17.31-14.43a9.59,9.59,0,0,0,1.46-2.12c-.77-.18-1.67-.72-2.26-.48-2.05.82-4.35,1.53-5.89,3q-10.42,9.78-20.43,20C394.13,136.84,392.93,139.28,391.43,141.48ZM419,230.65c-1.91-1.37-2.57-2.12-2.85-2a6.37,6.37,0,0,0-2.6,1.78c-2,2.79-3.92,5.72-5.89,8.58-.51.74-1.14,1.4-1.72,2.1.67.42,1.82,1.3,1.94,1.18C411.45,238.65,415,234.9,419,230.65Zm-5.13-32.84c1.66-1.17,2.65-1.84,3.56-2.59a2.63,2.63,0,0,0-.89-1.26,80.06,80.06,0,0,0-8.32-3.44c-1.45-.47-3.14-.18-4.73-.23,0,.43-.12,1.11.08,1.24C406.88,193.62,410.26,195.64,413.84,197.81Z"/><path class="cls-1" d="M434.91,328.71c.47,4.41,1.43,8.85,1.19,13.21A7.79,7.79,0,0,1,432,347.5a91,91,0,0,1-17.11,4.95c-.95.18-3.59-3.46-3.82-5.51-1.25-11.41-2-22.87-2.92-34.32-.28-3.4-.6-6.81-1-10.2-.07-.59-.81-1.11-1.24-1.66-.89,1-2.32,1.87-2.58,3-1.53,6.68-3.11,13.39-4.06,20.17-1.15,8.28-1.76,16.63-2.43,25-.13,1.5.75,3.05.88,4.6.22,2.59,1.64,5.39-3.66,4.93-9-.77-18.09-.16-27.13-.43-7.29-.21-14.64-.35-21.81-1.46A85.26,85.26,0,0,1,326,351.37c-2.75-1.11-4.44-4.83-6.62-7.37-3.18-3.71-6.29-7.5-9.56-11.13-4.32-4.8-1.05-8.06,2-11.61,4.14-4.87,8.06-9.94,12.09-14.91a3.15,3.15,0,0,1,.64-.48c.2.39.6.81.57,1.18-.72,8.31-1.92,16.61-2.1,24.93-.11,5,1.22,10.1,2.23,15.08.16.8,2,1.4,3.18,1.81a37,37,0,0,0,5.58,1.48c.81.15,2.31.06,2.47-.34a16.67,16.67,0,0,0,.58-3.8c.17-1.19.53-2.36.61-3.56.56-9,.59-18.15,1.76-27.11,1-7.7,3.27-15.24,5-22.84a1.23,1.23,0,0,1,.72-.54c.55.45,1.43.95,1.48,1.49.5,6.24,1.62,12.55,1.1,18.72a40.27,40.27,0,0,1-7.82,21.45c-1.34,1.76-.16,5.85.6,8.66.85,3.1,1.88,6.64,4,8.78,3.23,3.2,5.91-.46,7.1-2.77,4.35-8.37,9.76-16.68,11.66-25.68,2.19-10.34,1.11-21.39,1.36-32.13a19.94,19.94,0,0,0-.77-4.11,26,26,0,0,0,4.32.74c9.94.06,20,2.3,29.49-3.2,3.74-2.18,8-3.41,12.17-4.84.31-.1,1.18,1.83,2,2.66,4.91,5.21,9.84,10.41,14.87,15.5.52.52,1.93,0,2.73.43,1.16.57,2.7,1.3,3.09,2.33a25.84,25.84,0,0,1,1.2,6.58c.69,7.28,1.28,14.58,1.9,21.87Z"/><path class="cls-1" d="M381.64,127c-2.39,4.42-4.66,8.91-7.18,13.26-4,7-8.83,13.56-12.21,20.82-3.61,7.78-6.12,16.11-8.81,24.29a84.86,84.86,0,0,0-2.76,12.23c-1.46,8.69-2.76,17.4-4,26.12-.89,6-1.3,12.15-2.67,18.07-.33,1.46-3.47,2.46-5.47,3.32-5.05,2.2-10.5,3.67-15.23,6.4-6.67,3.85-12.91,8.47-19.18,13-3.09,2.22-5.78,5-8.82,7.31-.32.25-2.18-.87-2.75-1.74-4.2-6.4-8.19-13-12.39-19.36-1.54-2.34-3.48-4.43-5.23-6.63-3.71-4.66,1.83-4.86,3.46-6.32,6.61-5.94,14-11,20.35-17.22,4.65-4.59,7.64-10.81,12-15.69,4.06-4.49,8.9-8.3,13.6-12.16,7-5.72,14.8-10.59,21-17,3.88-4.06,5.42-10.36,8-15.65,3.3-6.74,6-13.86,10.08-20.12,3.94-6.08,9.22-11.32,14-16.82a2.83,2.83,0,0,1,2.5,0,8.27,8.27,0,0,1,.12,3ZM365.5,142.29c.6,1.25,1.05,2.16,1.49,3.07.58-.92,1.17-1.84,1.72-2.77a11.41,11.41,0,0,0,.75-1.48c.47-1.11.9-2.25,1.34-3.38-.93-.11-2.41-.65-2.7-.27A33.23,33.23,0,0,0,365.5,142.29Z"/><path class="cls-1" d="M110.85,41.66C114,34.11,117,26,120.76,18.28c1.93-3.93,4.66-8.18,8.21-10.4,4.3-2.7,9.75-4.08,14.87-4.77a34.58,34.58,0,0,1,13.31,1.21,74.44,74.44,0,0,1,15.35,6.2c3.79,2,7.67,4.69,10.22,8.05,3.13,4.11,2.17,8.82-1.51,12.78-1.45,1.56-2.23,3.79-3.78,5.19a11.62,11.62,0,0,1-4.92,2.12c-5.28,1.31-8,4.73-9.07,9.92A25.92,25.92,0,0,1,161.68,53c-1.47-1.43-3.48-2.61-4.32-4.35-3.18-6.58-9.22-7.3-14.37-1.44-3.4,3.87-3.11,10.63-.44,15.18a46.75,46.75,0,0,1,5.39,13.45c.8,3.66-7,10-10.18,9.07-3.75-1.1-7-2.46-8.68-6.76-1.54-3.88-4.56-7.17-6.75-10.82A110.86,110.86,0,0,1,116.12,56C114.24,51.83,112.92,47.38,110.85,41.66Z"/><path class="cls-1" d="M172.63,337.89c.23,3.19-.81,4.11-4.43,2.72-1.91-.73-4.51.54-6.8.6a91.6,91.6,0,0,1-11.72-.13,103.21,103.21,0,0,1-13.18-2.3c-6.11-1.43-12.22-2.94-18.18-4.88s-11.74-4.35-17.54-6.71c-5.15-2.11-10.17-4.56-15.34-6.63-9.44-3.77-.35-7.09.6-10,2-6.17,5.36-11.95,8.46-17.73.3-.56,2.91-.42,4.12.12,6.91,3.12,13.57,6.84,20.61,9.62a124.07,124.07,0,0,0,19,5.62c9.43,2,19,3.57,28.5,5.11,6.38,1,13,1.15,19.15,2.8,2.37.63,4.57,4.08,5.7,6.73,1.85,4.33,2.77,9.06,4.06,13.62a11.42,11.42,0,0,1,.45,2.07c.15,1.37.21,2.75.31,4.12-1.12-.91-2.59-1.61-3.29-2.78-3.06-5.08-5.66-10.44-8.9-15.4-1.57-2.38-4.12-4.16-6.4-6-.21-.17-2.36,1.15-2.51,2C174.26,326.15,173.52,331.87,172.63,337.89Z"/><path class="cls-1" d="M378.8,96c-1.23-5.08-2.35-10.18-3.79-15.2-.27-.93-1.79-1.63-2.86-2.19-3.58-1.89-1.5-4.09-.45-6.28,1.52-3.16,2.87-6.41,4.6-9.45.33-.58,2.21-.64,3.23-.39,4,1,7.84,2.72,11.87,3.19,4.66.55,8.67.7,8.16,7.15-.08.95,2.71,2.84,4.32,3,1.39.15,3.42-1.19,4.36-2.47,1.29-1.77,1.47-4.4,2.84-6.06.71-.85,3-.41,4.55-.55-.47,2.33-.64,4.78-1.48,7-1.28,3.29-4.42,6.51-4.16,9.55.24,2.76,3.44,6.17,6.21,7.65,7.66,4.08.24,5.27-1.28,6.7-5.87,5.56-12.29,10.53-18.2,16-4.18,3.9-7.87,8.35-11.82,12.51a6.31,6.31,0,0,1-1.77.92,25.63,25.63,0,0,1-.11-4.54c.67-4.45,2.39-8.93,2.1-13.3-.31-4.68,2.44-5.12,5.4-6.11a30.85,30.85,0,0,0,4.47-1.61c.4-.21.32-1.35.47-2.07a19.89,19.89,0,0,0-3.62,0c-3.81.69-7.58,2-11.38,2-1.21,0-2.48-3-3.72-4.55Z"/><path class="cls-1" d="M150.67,45.66c1.47,2.11,2.58,3.9,3.88,5.52,1.54,1.91,3,4.56,5,5.23,1.62.53,4.84-.86,5.94-2.4,1.38-1.93.54-5.64,2.06-7.24,2.56-2.68,6.23-4.31,9.44-6.37.2.62.41,1.24.61,1.87,1.57,5,3.38,10,4.61,15.13.7,2.93,2.55,6.44-2,8.6-1.24.59-1.9,2.84-2.41,4.47-.95,3,1.69,6.92-2.68,9.13-.85.43-1.15,2.56-1.16,3.91,0,5.81-3.93,8.66-8,11.94-6.12,5-8.52-2.21-12.71-3.28-2.12-.54-3.94-2.21-6-3.25-1.34-.7-2.78-1.2-4.18-1.79A22.51,22.51,0,0,1,145.92,84c7.05-5.43,6.76-13.36,1.78-19.83-3.46-4.5-5.57-9.65-1.92-15.12C146.63,47.74,148.48,47.12,150.67,45.66Z"/><path class="cls-1" d="M223.79,539.47a2.44,2.44,0,0,0,0-.54c-1.42-5.63,1.86-6.87,6.51-8.06,4.48-1.14,8.56-3.8,12.91-5.57,3-1.21,6.11-2,9.18-3,2.56-.81,5.09-2,7.7-2.24,1.87-.19,3.92.69,5.8,1.34,6.32,2.19,12.53,4.7,18.91,6.64,2.46.74,5.28.3,7.93.4-.1,1.27.32,3.1-.36,3.7-4,3.49-7.73,8.15-12.42,9.6-6,1.85-12.8,1-19.26,1.34-5.53.25-11.3-.5-16.52.9-5,1.35-9.28,5.51-14.29,7.24-4.38,1.51-5.2-2.91-6-6-.45-1.81-.08-3.82-.08-5.73Z"/><path class="cls-1" d="M356.69,117.85c-2.84-1.06-5.8-3.23-8.49-2.92-4.4.5-8.68,2.46-12.89,4.1-1.63.63-2.89,2.15-4.42,3.09-.26.16-1.55-.6-1.54-.91.19-5.69,1.14-11.44.62-17.06-.42-4.52,1.94-5.28,5.06-6.12,5-1.34,10-2.55,15-4.06,3.36-1,6.58-2.52,9.91-3.69,4.92-1.73,6.14,2.2,7.18,5.34a69.22,69.22,0,0,1,2.51,12c.2,1.38-.63,2.9-1,4.36-1.57-.58-3.15-1.12-4.68-1.78a3.32,3.32,0,0,1-1.44-1.23c-.82-1.35-1.5-2.79-2.24-4.19a68.2,68.2,0,0,0-5.62,6.55c-.28.42,1.21,2.39,2.23,3.22.57.46,1.86,0,2.81.06,1.19.09,2.37.33,3.55.5a32.84,32.84,0,0,1-3.76,2,7.64,7.64,0,0,1-2.49.05Z"/><path class="cls-1" d="M450.21,569.61c-3.49-.87-6.94-2-10.48-2.49-1.43-.2-3,.92-4.57,1.33-1.2.32-2.45.49-3.67.72a28.55,28.55,0,0,1,1.57-4.76c3.24-6.17,6.62-12.26,10-18.35a1.76,1.76,0,0,1,1.21-.72c5.52-.48,11.35,0,16.48-1.64,4.68-1.53,8.6-5.4,12.84-8.28a9,9,0,0,0,1.26-1.28c.86,1,2.64,2.41,2.43,2.79q-4.42,8.16-9.34,16.06a112.66,112.66,0,0,1-7.15,10.31,14,14,0,0,1-4.68,3.53,31.09,31.09,0,0,1-5.49,1.63C450.48,568.84,450.35,569.23,450.21,569.61Z"/><path class="cls-1" d="M243.34,268.44c1.68-4.48,2.58-9.53,5.32-13.21,1.73-2.32,6.19-2.71,9.48-3.77a110.71,110.71,0,0,1,12.91-3.66c1.5-.28,3.79.77,4.93,2,1.73,1.79,2.67,4.31,4.11,6.4,3.45,5-2.34,4.94-3.94,6.94-3.86,4.81-8.46,9-12.36,13.78-2.57,3.14-8,3.61-10.46.34a29.49,29.49,0,0,0,3.29-2.44,17,17,0,0,0,1.88-2.64c-.66-.45-1.31-.91-2-1.35s-1.88-.91-1.83-1.21a59.22,59.22,0,0,1,1.44-6.27c.17-.62.78-1.23.71-1.78,0-.35-1-.85-1.5-.81-.71.07-1.73.41-2,.94-1.9,3.75-3.59,7.6-5.44,11.38a9.06,9.06,0,0,1-1.73,1.84,10.32,10.32,0,0,1-1.66-2.53,16.68,16.68,0,0,1-.29-3.56Z"/><path class="cls-1" d="M389.18,259.36c.52-2.11,1.85-4.5,1.27-6.24-.44-1.32-3.35-1.79-5.12-2.71a8,8,0,0,1-1.37-1.19c.75-.4,1.79-1.33,2.21-1.11,3.07,1.66,6,3.58,9,5.33a46.15,46.15,0,0,0,5.42,2.78c5.65,2.35,4.44,8.21,6.43,12.41,3.68,7.76-4.44,6-7.18,8.58a9.72,9.72,0,0,1-4.76,2c-1.06.19-2.32-.6-3.46-1-.31-.12-.54-.78-.75-.75a5.1,5.1,0,0,0-1.64.61c-.85.44-2.25,1.49-2.39,1.35a36.66,36.66,0,0,1-2.91-4c1.64.15,3.27.4,4.91.41a8.25,8.25,0,0,0,2.67-.63,9.25,9.25,0,0,0-.26-1.44c-.8.26-1.67.83-2.38.68s-1.49-1-2.21-1.51a29.75,29.75,0,0,1-2.78-2.19A7.58,7.58,0,0,1,382.8,269a8.77,8.77,0,0,0,1.44.09,3.32,3.32,0,0,0,.92-.38,28.5,28.5,0,0,0-1.64-2.85,20.07,20.07,0,0,0-2-2.1,10.64,10.64,0,0,0,2.12.43c.5,0,1.3-.18,1.44-.51a2,2,0,0,0-.12-1.74c-.85-1-2.11-1.71-2.83-2.79a3.07,3.07,0,0,1-.29-2.75c.36-.55,1.76-.58,2.67-.5.34,0,.68,1,.84,1.63.46,1.66.78,3.35,1.24,5,.07.23.85.53.9.47.83-1,1.6-2.08,2.38-3.14Z"/><path class="cls-1" d="M8.78,535.15c8.29,1.77,15.06,3.84,22,4.53a118,118,0,0,0,22.94,0c1.75-.17,3.06-4.56,4.64-7,.65-1,1.47-2.54,2.28-2.59,1.73-.1,3.51.61,5.27,1-.42,1.63-.3,4.06-1.34,4.75-5,3.38-10.07,7.32-15.72,9-4.17,1.27-9.44-1.52-14-.79-8.63,1.39-17,4.09-25.6,6-1.88.42-4-.2-6-.34.21-2.2.08-4.5.71-6.58a33.76,33.76,0,0,1,3.37-7.27C7.8,535.17,9.17,535,8.78,535.15Z"/><path class="cls-1" d="M205.34,317.91c.44-.74,1-2.14,1.29-2.09,1.87.37,4.14.55,5.43,1.72,3.84,3.5,7.22,7.5,10.94,11.14,1.17,1.15,3,1.61,4.12,2.8.37.4-.39,2.79-1.11,3.07a114.22,114.22,0,0,1-12.5,4.12c-.46.12-1.77-1.68-2.15-2.77-1.54-4.39-2.86-8.87-4.29-13.3C206.59,321.14,206,319.71,205.34,317.91Z"/><path class="cls-1" d="M283.39,524.49c-4.76-1.84-8.85-3.41-12.92-5a1.13,1.13,0,0,1-.31-.81c1.63-1.13,3.28-3.1,4.95-3.12a34.72,34.72,0,0,1,10.54,1.68c1.05.33,2.25,3.12,1.86,4.27S284.92,523.46,283.39,524.49Z"/><path class="cls-1" d="M288.65,270.27c-1.06.16-1.61.42-2,.26a6.74,6.74,0,0,1-2.17-1.48,15.38,15.38,0,0,1-2.74-3.83c-.33-.75.29-1.92.49-2.89a6.79,6.79,0,0,1,1.91,1.28C285.62,265.57,286.9,267.64,288.65,270.27Z"/><path d="M236.93,157.35l2.15,1.74c-.84.92-1.51,2.21-2.56,2.71-4,1.9-8.46,2.93-12,5.4-5.74,4-10.85,9-16.29,13.42-2.31,1.91-4.75,3.66-7.2,5.39-.31.22-1-.16-1.57-.25.18-.69.13-1.64.57-2,6.12-5.2,12.06-10.67,18.56-15.35C224.39,164.25,230.82,161,236.93,157.35Z"/><path d="M196.74,228.7c-2.67,1.9-4.74,2.89-6.14,4.47-4,4.53-8,9.13-11.57,14-2.92,4-5.08,8.59-7.82,12.75-.68,1-2.34,1.4-3.54,2.07a15.69,15.69,0,0,1,1.12-3.24c3.8-6.34,7.14-13.08,11.74-18.81,3.68-4.59,8.91-8,13.51-11.8C194.31,227.94,195.11,228.36,196.74,228.7Z"/><path d="M165.21,117.29c-5.23-2.46-10.47-4.91-15.7-7.39-2.93-1.39-5.89-2.75-8.75-4.29-.74-.4-1.15-1.42-1.7-2.15.91-.11,2-.61,2.71-.28,4.44,2.06,8.64,4.7,13.21,6.36s9.54,2.46,14.34,3.63l3,.76a17.67,17.67,0,0,1-3.16,1.88,13.44,13.44,0,0,1-3.38.26Z"/><path d="M142.35,208.42c-2.75,2.89-5.91,5.53-8.2,8.78-3.35,4.76-6.08,10-9.06,15-1.31,2.2-2.56,4.42-3.9,6.61a1.16,1.16,0,0,1-.9.22c-.22-.42-.58-1-.42-1.37,2.38-5.24,4.21-10.9,7.45-15.56,3.78-5.42,8.82-10,13.32-14.88.17-.18.63-.36.72-.28A7.81,7.81,0,0,1,142.35,208.42Z"/><path d="M123.24,176.25c2.89-3.81,5.87-7.75,8.86-11.68.33-.44.61-1.08,1.05-1.24,1.47-.53,3-.88,4.49-1.29-.78,1-1.56,2-2.36,3l-10.2,12.7c-.23.28-.47.55-.7.82Z"/><path d="M212.3,125.11l-4-1a39.38,39.38,0,0,1,4.4-1.89c3-.9,6.06-1.71,9.14-2.33,1-.19,2.11.34,3.17.54-1.18,1-2.21,2.46-3.57,2.88A86.49,86.49,0,0,1,212.3,125.11Z"/><path d="M96.34,215.63a24.35,24.35,0,0,1,2.81-2.42c.17-.11,1,.77,1.51,1.19l-3.09,3.45Z"/><path d="M133.44,401.24c-2.82,2.1-5.07,3.94-7.49,5.54-3.66,2.41-7.26,5.06-11.22,6.87-6,2.77-12.37,5-18.65,7.23-1.11.39-2.61-.34-3.93-.56,1.45-.68,2.88-1.38,4.34-2,4.43-2,9-3.66,13.26-5.89,5.7-3,11.17-6.36,16.78-9.51a52.72,52.72,0,0,1,5.15-2.44C131.92,400.35,132.38,400.76,133.44,401.24Z"/><path d="M259.88,417.79c-5.08-2.13-10.45-4.38-15.81-6.67a29.07,29.07,0,0,1-3.12-1.65c-1-.6-2-1.26-3.06-1.93,0,0,.26-.66.38-.65,1.58.06,3.29-.19,4.7.36,4.82,1.85,9.44,4.28,14.33,5.89,2.31.75,5.07.09,7.62.14a13.39,13.39,0,0,1,2.32.45c-.45.63-.75,1.56-1.36,1.85C264.19,416.37,262.38,416.9,259.88,417.79Z"/><path d="M185.61,379c-4.2-1.81-8.08-3.34-11.82-5.18a40.52,40.52,0,0,1-5.71-3.85c-.39-.29-.55-.88-.82-1.34.61,0,1.29-.3,1.8-.09q9.1,3.6,18.14,7.36c.35.15.77,1.15.65,1.28A19.89,19.89,0,0,1,185.61,379Z"/><path d="M24.36,512.16c0-1-.31-2.08.08-2.63a4.86,4.86,0,0,1,2.31-1.31,79.4,79.4,0,0,1,7.7-2.63c1-.26,2.2.26,3.31.43-1,1.06-1.77,2.61-3,3.08C31.76,510.28,28.54,511,24.36,512.16Z"/><path d="M63.14,466.21l-1.88-1a8.46,8.46,0,0,1,1.61-1.92c2.8-1.79,5.65-3.51,8.57-5.1.61-.34,1.58,0,2.38,0-.06.61.09,1.56-.23,1.76C70.16,462.1,66.65,464.13,63.14,466.21Z"/><path d="M245.23,491c1.6.59,3.33,1.16,5,1.91a1.83,1.83,0,0,1,.36,1.49,3.51,3.51,0,0,1-2.2.81,27.61,27.61,0,0,1-5.26-1.55c-.57-.23-.87-1.14-1.29-1.73Z"/><path d="M452.07,516.93c-.34.49-.69,1.33-.94,1.3a3.76,3.76,0,0,1-2.15-.83c-4.25-4.31-8.63-8.51-12.54-13.11s-7.59-9.84-11.3-14.83c-1.81-2.44-3.57-4.93-5.17-7.5a2.59,2.59,0,0,1,.57-2.1c1-.06,2.45,0,2.94.58,3.82,4.87,7.49,9.86,11.12,14.88,3.24,4.46,6.2,9.14,9.63,13.44,2,2.5,4.7,4.44,7,6.66A6,6,0,0,1,452.07,516.93Z"/><path d="M411.73,459.46c-2.39,0-4.14.08-5.86-.06-.47,0-.89-.73-1.34-1.13.46-.48.89-1.34,1.39-1.38a21.48,21.48,0,0,1,5.72,0c6.16,1.17,8.68-3.49,11.95-7.06a39.19,39.19,0,0,1,3.29-2.86c-.31,1.53-.19,3.35-1,4.54C422.37,456.69,418.07,460.68,411.73,459.46Z"/><path d="M308.07,375.51c2.82-1,5.61-2,8.45-2.91.58-.18,1.33.23,2,.36-.26.64-.39,1.76-.78,1.85-4.09,1-8.2,1.93-12.36,2.49-.95.13-2.11-1.24-3.17-1.92,1.09-.23,2.17-.54,3.27-.67a13.05,13.05,0,0,1,2.33.09Z"/><path d="M287.55,410.13c-3-1.77-5.81-3.32-8.44-5.14-.38-.26.13-1.83.23-2.79,1.1.49,2.23.94,3.31,1.49,1.92,1,3.78,2.1,5.74,3a18.31,18.31,0,0,0,3.41.86Z"/><path d="M352.3,223c2.64-8.5,4.7-15.43,7-22.3,1.73-5.26,3.48-10.53,5.63-15.62a147.46,147.46,0,0,1,6.89-13.63c.38-.7,1.9-.77,2.89-1.13a23.27,23.27,0,0,1-1.08,4.37c-2.39,5.23-5.13,10.3-7.38,15.58-2.74,6.41-5.33,12.9-7.57,19.49-1.33,3.92-1.82,8.13-2.8,12.18a2.18,2.18,0,0,1-1.33,1.44A6.18,6.18,0,0,1,352.3,223Z"/><path d="M391.43,141.48c1.5-2.2,2.7-4.64,4.51-6.49q10-10.2,20.43-20c1.54-1.45,3.84-2.16,5.89-3,.59-.24,1.49.3,2.26.48a9.59,9.59,0,0,1-1.46,2.12c-5.77,4.82-11.83,9.31-17.31,14.43-4.26,4-7.81,8.71-11.75,13-.39.43-1.28.47-1.95.54C391.91,142.63,391.7,142,391.43,141.48Z"/><path d="M419,230.65c-4,4.25-7.52,8-11.12,11.65-.12.12-1.27-.76-1.94-1.18.58-.7,1.21-1.36,1.72-2.1,2-2.86,3.84-5.79,5.89-8.58a6.37,6.37,0,0,1,2.6-1.78C416.4,228.53,417.06,229.28,419,230.65Z"/><path d="M413.84,197.81c-3.58-2.17-7-4.19-10.3-6.28-.2-.13-.06-.81-.08-1.24,1.59.05,3.28-.24,4.73.23a80.06,80.06,0,0,1,8.32,3.44,2.63,2.63,0,0,1,.89,1.26C416.49,196,415.5,196.64,413.84,197.81Z"/><path d="M365.5,142.29a33.23,33.23,0,0,1,2.6-4.83c.29-.38,1.77.16,2.7.27-.44,1.13-.87,2.27-1.34,3.38a11.41,11.41,0,0,1-.75,1.48c-.55.93-1.14,1.85-1.72,2.77C366.55,144.45,366.1,143.54,365.5,142.29Z"/></g></g></svg>