<svg xmlns="http://www.w3.org/2000/svg" viewBox="0 0 320.89 554.28"><defs><style>.cls-1{fill:#fff;}</style></defs><g id="Layer_2" data-name="Layer 2"><g id="Layer_1-2" data-name="Layer 1"><path class="cls-1" d="M47.12,317.3c-1,0-1.4.48-1.36,1.45s.06,1.68,0,2.52c-.18,7.91,0,15.79-1,23.71-1.05,8.23.54,16.68-1.46,24.92-.67,2.77-1,5.64-1.42,8.46a1.22,1.22,0,0,1-.16.51c-1.48,2.18-1.38,4.85-2,7.26-.79,2.84-.23,5.9-1,8.93-1.1,4.17-1.05,8.63-1.61,12.94-.34,2.64-.9,5.26-1.36,7.88a.84.84,0,0,1-.05.17c-.74,2.78-1.53,5.55-2.2,8.35-.4,1.71-.13,3.42-.93,5.23-1,2.22-.72,4.9-1.46,7.39-1,3.45-1.11,7.18-1.6,10.79,0,.18-.05.36-.08.54-.72,3.55-1.53,7.08-2.11,10.65-.62,3.79-1,7.62-1.5,11.44a2.11,2.11,0,0,1,0,.35,58.58,58.58,0,0,0-2,6.23c-.47,2.33-1.89,4.36-1.7,6.93.1,1.3-.75,2.68-1.17,4,0,.11-.11.21-.15.32a54.4,54.4,0,0,0-2,5.42c-.45,1.71-.35,3.42-1.21,5.2-1.08,2.22-1.16,5-1.38,7.55s.08,4.92-.06,7.37c-.16,2.92,1.82,4.72,3.3,6.77a35.43,35.43,0,0,0,3,3.23c-2.93,1.65-2.41,4.84-3.72,7.13a8,8,0,0,0-1.3,3.31c-.18,3.52-.1,7.07-.09,10.6,0,1.15.64,1.72,1.79,1.8a6.15,6.15,0,0,1,1.69.36c.82.3,1.59.72,2.4,1.06s1.81.36,2.15.9c1.08,1.71,2.68,1.42,4.24,1.5.35,0,.87,0,1,.15,1.3,1.56,3,1,4.64,1,.86,0,1.6-.09,2.31.83a5.66,5.66,0,0,0,2.84,1.62c2.89.83,4.75-1.83,5.26-4.41a21.39,21.39,0,0,0,.1-4.67,26.91,26.91,0,0,1,1.19-8c.72-2.68.31-2.79,3.17-2.74,2.45,0,3.69-.78,4.53-3,.4-1,.81-2.1,1.25-3.13,1.14-2.72,2.31-5.43,3.45-8.14A23,23,0,0,1,61,516a13,13,0,0,0,2.19-6.44c.31-3.86.84-7.71,1.29-11.57a2.73,2.73,0,0,1,.18-.68c.72-2,1.52-4,2.15-6s1-4,1.59-6c.65-2.31,1.43-4.59,2-6.91s1.07-4.42,1.6-6.63a3.4,3.4,0,0,1,.12-.34c.71-2,1.45-4,2.11-6a47.74,47.74,0,0,1,1.54-5.1,21.92,21.92,0,0,0,2.28-8.11,10.3,10.3,0,0,1,.77-2.82c.49-1.42,1.35-2.77,1.52-4.22a36.14,36.14,0,0,1,2.34-8.37,67.47,67.47,0,0,0,2.54-8.72c.66-2.85,1-5.78,1.47-8.68a8.49,8.49,0,0,1,.14-.88c1.09-3.54,2.55-7,3.18-10.64a106.06,106.06,0,0,1,2.65-12.7c.74-2.46,1-5.06,1.53-7.6a3,3,0,0,1,.08-.52c.73-2.16,1.56-4.28,2.16-6.47s1-4.49,1.45-6.74a3.23,3.23,0,0,1,.27-.64c.68-1.59,1.4-3.16,2-4.77.57-1.44.92-3,1.57-4.37,1-2.13,2.19-4.15,3.22-6.25a19.59,19.59,0,0,0,1.37-3.52c.59-2.26.94-4.58,1.55-6.83.54-2,1.7-2.2,3-.58a29.35,29.35,0,0,1,3.5,4.86c1.14,2.21,3.11,4,4.69,6s3.15,4.06,4.77,6c.7.86,1.65,1.52,2.29,2.41,1.85,2.54,3.58,5.16,5.4,7.72,1.52,2.15,3.12,4.24,4.64,6.39,1.23,1.74,2.42,3.52,3.57,5.32.89,1.38,1.71,2.8,2.52,4.23,1,1.81,2,3.69,3,5.47.95,1.57,2.11,3,3.06,4.58,1.21,2,2.36,4,3.43,6.05a31.07,31.07,0,0,1,1.73,4.07c.57,1.64.95,3.34,1.53,5,.67,1.86,1.5,3.66,2.2,5.5.54,1.41,1,2.87,1.51,4.27.67,1.72,1.55,3.37,2.1,5.12.6,1.93.93,3.94,1.38,5.91a2.91,2.91,0,0,0,.16.5c.77,2.18,1.6,4.33,2.29,6.53.57,1.82.91,3.71,1.47,5.53.65,2.09,1.54,4.12,2.12,6.23.63,2.32,1,4.71,1.53,7.07a1.43,1.43,0,0,0,.09.34c.69,1.74,1.49,3.44,2.06,5.22.89,2.8,1.67,5.64,2.41,8.49.59,2.23,1,4.48,1.58,6.72a17,17,0,0,0,.73,1.91c-1.18.87-2.34,2.18-3.78,2.66a12.84,12.84,0,0,0-5,3.66c-1.24,1.27-1,4.1.54,4.65,1.38.48,3.43.84,4.46.16,2.19-1.44,4.32-.58,6.67-1,.45,2.52.76,4.88,1.33,7.17.25,1,.84,2.37,1.64,2.72,1.6.69,3.15,1.67,5.16,1.39a35.75,35.75,0,0,1,6.46,0,3.13,3.13,0,0,1,1.5.77c1.91,1.4,3.64,3.07,6.3,2.9,4.14-.26,8.24,0,12.42-.85,6-1.24,12-.24,18,1.76,3.7,1.24,7.72,2.19,11.77,1.51a48.81,48.81,0,0,0,5.78-1.44c1.21-.35,2.36-.89,3.65-1.38l6.16,18.27c-1.08,1.69-2.22,3.41-3.3,5.17a47.17,47.17,0,0,1-3,5c-1.42,1.77-.89,3.45-.53,5.58,1.87-.23,3.82,0,5.2-.73,2.95-1.61,5.83-.47,8.73-.51a.54.54,0,0,1,.33.13c1.41,1.49,2.71,1.05,4.28.08a2.43,2.43,0,0,1,3.39.3,1.77,1.77,0,0,0,1.17.53,38.07,38.07,0,0,1,5,.15c2.79.5,4-1.35,5.06-3.2,1.38-2.49,2.42-5.16,3.61-7.76.83-1.82,1.66-3.65,2.51-5.47.37-.77.81-1.52,1.16-2.3,1.08-2.4,2-4.87,3.8-6.87,1.48-1.67,3.26-3,4.12-5.27.54-1.39,1.25-4.89.62-6a59,59,0,0,1-3.27-5.92,80.22,80.22,0,0,1-2.6-7.61c-.88-2.82-1.78-5.64-2.45-8.51-.61-2.6-.91-5.27-1.35-7.91-.11-.71-.18-1.42-.33-2.13-.69-3.21-1.38-6.42-2.11-9.63-.44-1.92-.9-3.85-1.47-5.75-.71-2.36-1.67-4.66-2.27-7.05s-.9-5-1.34-7.44a1.91,1.91,0,0,0-.1-.34,44.68,44.68,0,0,1-2.13-5.93c-.43-2-.36-4-1.11-6a66.07,66.07,0,0,1-2.5-10.18,55.52,55.52,0,0,1-1.36-9.29c-.22-8-.14-15.95-.15-23.93a9,9,0,0,1,.37-2.29c.65-2.46,1.55-4.88,2-7.38.4-2.24.38-4.49,1.05-6.78,1-3.41,1.12-7.08,1.54-10.64.26-2.2.44-4.38.81-6.58a48.9,48.9,0,0,0,0-12.15c-.31-3.67-1.27-7.27-1.8-10.93-.23-1.59-.06-3.23-.15-4.85a25.31,25.31,0,0,0-.41-4.09c-.62-2.92-1.36-5.82-2.1-8.71a12.19,12.19,0,0,0-1-2.93c-1-1.8-.2-3.5,1.8-3.67a11,11,0,0,0,2.62-.48c1.74-.59,3.39-1.49,5.17-1.9a2.74,2.74,0,0,0,2.4-3c.11-4.5.15-9,.29-13.49,0-.84.54-1.66.63-2.52a14.52,14.52,0,0,0,0-3.16c-.09-.91-.63-1.81-.55-2.68.13-1.51.77-3,.86-4.47.17-2.81-.09-5.65.2-8.44a5.07,5.07,0,0,1,1.88-3.15c1-.78,2,.31,2.53,1.19a3.89,3.89,0,0,1,.48,2.18c-.25,4.23.63,8.48-.95,12.7-.74,2-.17,4.39-.3,6.6-.1,1.71,1,2.64,2.14,3.49.8.6,2.16.65,2.68,1.38a4.69,4.69,0,0,0,4.74,2.18,5.89,5.89,0,0,1,1.54.21c1.46.22,3.31,1.11,4.28.53a8.17,8.17,0,0,1,4.68-.94c3.22,0,6.49-2.88,6-6.31-.27-1.8,0-3.53-.83-5.43-1.14-2.75-1.19-5.95-1.65-9-.49-3.25-.89-6.51-1.38-9.76-.06-.37-.42-.7-.63-1.05A3.64,3.64,0,0,1,317,258a3.71,3.71,0,0,0,1.09-2.23c0-1.1-.76-2.19-.79-3.29-.21-7.74-.3-15.48-.44-23.21a15.25,15.25,0,0,0-.15-1.79,33.17,33.17,0,0,1-.68-4.38c-.12-8,0-16.07-.24-24.1a75.64,75.64,0,0,0-1.21-8.69,3.4,3.4,0,0,0-.12-.34q-1.17-3.42-2.31-6.85c-.14-.39-.22-.8-.36-1.19-.69-1.94-1.4-3.88-2.1-5.82-.12-.33-.15-.7-.29-1-.69-1.58-1.46-3.13-2.1-4.72s-1-3.17-1.67-4.66c-1.42-3.12-3-6.18-3.5-9.63a2.36,2.36,0,0,0-.1-.53c-.72-2-1.52-4.05-2.13-6.11s-1-4-1.47-6c0-.17-.18-.3-.24-.47-.7-1.81-1.45-3.6-2.07-5.44s-1-3.67-1.66-5.41a17.05,17.05,0,0,0-2.14-3.53c-.64-.89-1.51-1.61-2.21-2.45-1.93-2.34-3.72-4.79-5.76-7-1.39-1.52-2.93-2.82-3.34-5a22.66,22.66,0,0,0-1.33-4.39c-.65-1.54-1.59-3-2.31-4.49s-1.38-3.12-2-4.71-1-3-1.52-4.57a50,50,0,0,0-1.58-4.9c-1.08-2.47-2.37-4.84-3.58-7.24a40.62,40.62,0,0,0-2.71-5.2c-1.8-2.54-3.83-4.92-5.84-7.3s-4.89-3.33-7.74-4.06c-4.16-1-8.42-1.71-12.6-2.7a3.5,3.5,0,0,1-1.87-1.86,18,18,0,0,1-1.12-3.92c-.71-3.54-2.93-5.68-6.34-7a18.68,18.68,0,0,1,.24-3c.61-2.59,1.92-5.16,1.91-7.74,0-7.37,1.48-14.81-.83-22.12-.45-1.44-.49-3-1.05-4.48a22.75,22.75,0,0,0-2.64-5.12,15.49,15.49,0,0,0-6.19-5.53c-1.19-.55-2.63-.72-3.65-1.47A10.31,10.31,0,0,0,212.19.3c-1.73,0-3.47-.34-5.2-.3a41.36,41.36,0,0,0-7,.59,52.45,52.45,0,0,0-6.74,2.09c-1.87.64-3.72,1.37-5.57,2.06-1.46.55-2.94,1-4.36,1.67a14.4,14.4,0,0,0-3.74,2,47.16,47.16,0,0,0-4.37,3.83c-1.48,1.61-2.68,3.39-2.83,5.15-.56,6.73-.84,13.43,1.85,20a18.85,18.85,0,0,1,1.7,9.45c-.29,2.37.05,4.83-.37,7.17s-1.7,4.27-2,6.48A52.42,52.42,0,0,0,173.5,68a21,21,0,0,0,4,1.44c2.45.35,2.55.33,2.19,2.89-.28,2-.4,4.16,1.29,5.61s1.24,2.35,0,3.48c.35.44.93.83.92,1.2-.07,2.82,1.22,5.13,2.5,7.5,1,1.8,2.69,3.25,4.64,3,2.57-.29,5.13-.82,7.66-1.36,1.4-.29,1.88.3,1.59,1.49a40.05,40.05,0,0,1-1.44,4.55,31.15,31.15,0,0,1-1.48,3.52c-1,2-2.34,3.89-3.16,6-1.1,2.82-1.84,5.78-2.74,8.68a5.64,5.64,0,0,1-.25.64c-.71,1.49-1.53,3-2.11,4.49s-1,3.38-1.54,5.06c-.69,2.14-1.56,4.22-2.12,6.39-.66,2.55-.69,5.32-1.7,7.7a17.9,17.9,0,0,0-.95,5.12,5.17,5.17,0,0,1-.18.87c-.7,2.26-1.55,4.49-2.08,6.78s-.15,4.35-1.13,6.56-1.1,5.11-1.59,7.69a5.4,5.4,0,0,1-.13.7c-.78,2.47-1.56,4.94-2.36,7.4-.49,1.48-1,2.95-1.54,4.42-.7,2-1.38,4.05-2,6.07-.53,1.6-.77,3.37-1.61,4.77a16.66,16.66,0,0,0-2.39,6.42c-.14.93-1.43,2.46-2.12,2.42-3.21-.19-5.31,2.22-8.06,3-2,.59-4,1.45-6,2.16a3.76,3.76,0,0,1-1.11-.09c.13-2.56.11-5.08.42-7.55.59-4.62,1.54-9.2,2-13.82.87-8.16.41-16.38,1-24.58.69-9.93,1.59-20-.65-30-.72-3.23.39-6.76-1.26-10-.82-1.57-1.42-3.26-2.14-4.89-.59-1.36-1.22-2.71-1.76-3.92a43.66,43.66,0,0,0,4.33-3,4.72,4.72,0,0,0,1.06-2.41,30.49,30.49,0,0,0,.58-3.83c.07-.58-.2-1.26,0-1.76.77-1.85,1.77-3.55,1.73-5.73,0-.75,1.3-2,2.19-2.2a14.85,14.85,0,0,0,5.49-2.63c2.05-1.5,2.2-1.63,1-4a1.52,1.52,0,0,1-.11-.53c-.27-3.7-1.79-7.28-1.13-11.08a10.82,10.82,0,0,1,.16-1.42c.66-2,1.48-4,2-6,.62-2.35,1-4.75,1.48-7.13a3,3,0,0,1,.18-.5,26.72,26.72,0,0,0,2.05-4.67,37.23,37.23,0,0,0,1.11-7.84c.06-3.15.59-6.26-.69-9.49a26.29,26.29,0,0,0-2.65-5.81c-1-1.48-1.8-3.14-2.76-4.66a50.18,50.18,0,0,0-3.61-5.32,14.82,14.82,0,0,0-3.63-3.11,47.4,47.4,0,0,0-5.57-2.78c-1.32-.6-2.88-.78-4-1.57-2.07-1.41-4.32-1.21-6.5-1a85.4,85.4,0,0,0-8.51,1.32c-2.39.42-5,.57-7.11,1.54A29.45,29.45,0,0,0,116,18.59a34.27,34.27,0,0,0-8.11,10.57,9.84,9.84,0,0,0-1.27,2.74,65.05,65.05,0,0,0-1,8.78c-.16,7.25-.06,14.5-.11,21.76,0,1,.15,2.21-1.42,2.18-2.83-.07-3.83,2-4.9,4-.89,1.69-1.67,3.5-3.29,4.58a37.76,37.76,0,0,1-5,2.74,26.64,26.64,0,0,1-5.27,2.15c-2.43.58-5,.64-7.45,1-3.74.6-6,3-8.62,5-1.85,1.36-3.06,3.33-4.43,5.19-2.09,2.86-4.94,5.17-7.45,7.73-1.85,1.88-3.75,3.74-5.51,5.71C50,105.18,48.05,107.63,46,110l-3,3.61A36,36,0,0,1,39.32,118a74.89,74.89,0,0,1-8.9,7c-3.74,2.37-6.39,5.87-9.76,8.59-1.44,1.16-2.48,2.79-3.86,4a57.62,57.62,0,0,0-8.25,9.53,30.81,30.81,0,0,1-4.17,5.27A12.92,12.92,0,0,0,0,161.61a22.35,22.35,0,0,0,.78,6.79c1,4.28,1.07,8.78,1.7,13.16A39.45,39.45,0,0,0,4,186.93c.69,2.36,1.52,4.67,2.1,7,.62,2.56,1,5.18,1.5,7.78a1.91,1.91,0,0,0,.1.34,51.31,51.31,0,0,1,2.11,5.6c.64,2.48,1,5,1.42,7.57a2.91,2.91,0,0,0,.12.51c.75,2.08,1.52,4.15,2.25,6.23.52,1.5.83,3.09,1.48,4.54,1,2.19,2.2,4.29,3.3,6.44.47.91,1.3,1.86,1.28,2.78-.05,2.52,2.16,3.75,3.07,5.71.46,1,2.56,1.5,4,1.73s3.17.51,4.6-1.19c2.13-2.56,4.84-4.63,7.11-7.07,1.56-1.67,4.55-2.68,5.76-1.39,2.83,3,4.69,6.69,6.54,10.36.94,1.85,2.09,3.58,3.08,5.4a2.62,2.62,0,0,1,.34,1.51c-.21,1.63-.85,3.25-.78,4.84A67.39,67.39,0,0,1,52,269.79a34.6,34.6,0,0,1-1.46,5.27c-.69,2.05-1.62,4-2.24,6.09s-.92,4-1.37,6.07c0,.15-.22.28-.28.43-.7,1.73-1.42,3.46-2.08,5.2s-1.14,3.34-1.77,5c-.56,1.49-1.35,2.92-1.8,4.44-.63,2.17-1,4.4-1.56,6.6,0,.18,0,.4-.16.51-1.53,1.6-1,3.48-.91,5.16,2.74.61,5.31,1.15,7.85,1.79.35.09.57.66.85,1Z"/><path d="M47.07,317.35c-.28-.35-.5-.92-.85-1-2.54-.64-5.11-1.18-7.85-1.79-.1-1.68-.62-3.56.91-5.16.11-.11.12-.33.16-.51.51-2.2.93-4.43,1.56-6.6.45-1.52,1.24-2.95,1.8-4.44.63-1.65,1.15-3.34,1.77-5s1.38-3.47,2.08-5.2c.06-.15.24-.28.28-.43.45-2,.77-4.09,1.37-6.07s1.55-4,2.24-6.09A34.6,34.6,0,0,0,52,269.79a67.39,67.39,0,0,0,1.34-14.12c-.07-1.59.57-3.21.78-4.84a2.62,2.62,0,0,0-.34-1.51c-1-1.82-2.14-3.55-3.08-5.4-1.85-3.67-3.71-7.33-6.54-10.36C43,232.27,40,233.28,38.4,235c-2.27,2.44-5,4.51-7.11,7.07-1.43,1.7-3,1.43-4.6,1.19s-3.54-.73-4-1.73c-.91-2-3.12-3.19-3.07-5.71,0-.92-.81-1.87-1.28-2.78-1.1-2.15-2.31-4.25-3.3-6.44-.65-1.45-1-3-1.48-4.54-.73-2.08-1.5-4.15-2.25-6.23a2.91,2.91,0,0,1-.12-.51c-.46-2.53-.78-5.09-1.42-7.57a51.31,51.31,0,0,0-2.11-5.6,1.91,1.91,0,0,1-.1-.34c-.5-2.6-.88-5.22-1.5-7.78-.58-2.38-1.41-4.69-2.1-7a39.45,39.45,0,0,1-1.44-5.37c-.63-4.38-.7-8.88-1.7-13.16A22.35,22.35,0,0,1,0,161.61a12.92,12.92,0,0,1,4.34-9.2,30.81,30.81,0,0,0,4.17-5.27,57.62,57.62,0,0,1,8.25-9.53c1.38-1.24,2.42-2.87,3.86-4,3.37-2.72,6-6.22,9.76-8.59a74.89,74.89,0,0,0,8.9-7A36,36,0,0,0,43,113.64L46,110c2-2.4,4-4.85,6.08-7.19,1.76-2,3.66-3.83,5.51-5.71,2.51-2.56,5.36-4.87,7.45-7.73,1.37-1.86,2.58-3.83,4.43-5.19,2.66-2,4.88-4.42,8.62-5,2.48-.41,5-.47,7.45-1A26.64,26.64,0,0,0,90.84,76a37.76,37.76,0,0,0,5-2.74c1.62-1.08,2.4-2.89,3.29-4.58,1.07-2,2.07-4.12,4.9-4,1.57,0,1.41-1.23,1.42-2.18,0-7.26,0-14.51.11-21.76a65.05,65.05,0,0,1,1-8.78,9.84,9.84,0,0,1,1.27-2.74A34.27,34.27,0,0,1,116,18.59a29.45,29.45,0,0,1,7.18-4.43c2.16-1,4.72-1.12,7.11-1.54a85.4,85.4,0,0,1,8.51-1.32c2.18-.17,4.43-.37,6.5,1,1.16.79,2.72,1,4,1.57a47.4,47.4,0,0,1,5.57,2.78,14.82,14.82,0,0,1,3.63,3.11,50.18,50.18,0,0,1,3.61,5.32c1,1.52,1.72,3.18,2.76,4.66a26.29,26.29,0,0,1,2.65,5.81c1.28,3.23.75,6.34.69,9.49a37.23,37.23,0,0,1-1.11,7.84A26.72,26.72,0,0,1,165,57.59a3,3,0,0,0-.18.5c-.49,2.38-.86,4.78-1.48,7.13-.55,2-1.37,4-2,6a10.82,10.82,0,0,0-.16,1.42c-.66,3.8.86,7.38,1.13,11.08a1.52,1.52,0,0,0,.11.53c1.25,2.35,1.1,2.48-1,4A14.85,14.85,0,0,1,156,90.89c-.89.21-2.2,1.45-2.19,2.2,0,2.18-1,3.88-1.73,5.73-.21.5.06,1.18,0,1.76a30.49,30.49,0,0,1-.58,3.83,4.72,4.72,0,0,1-1.06,2.41,43.66,43.66,0,0,1-4.33,3c.54,1.21,1.17,2.56,1.76,3.92.72,1.63,1.32,3.32,2.14,4.89,1.65,3.2.54,6.73,1.26,10,2.24,10,1.34,20.1.65,30-.57,8.2-.11,16.42-1,24.58-.49,4.62-1.44,9.2-2,13.82-.31,2.47-.29,5-.42,7.55a3.76,3.76,0,0,0,1.11.09c2-.71,3.95-1.57,6-2.16,2.75-.79,4.85-3.2,8.06-3,.69,0,2-1.49,2.12-2.42a16.66,16.66,0,0,1,2.39-6.42c.84-1.4,1.08-3.17,1.61-4.77.67-2,1.35-4,2-6.07.5-1.47,1.05-2.94,1.54-4.42.8-2.46,1.58-4.93,2.36-7.4a5.4,5.4,0,0,0,.13-.7c.49-2.58.55-5.36,1.59-7.69s.64-4.41,1.13-6.56,1.38-4.52,2.08-6.78a5.17,5.17,0,0,0,.18-.87,17.9,17.9,0,0,1,.95-5.12c1-2.38,1-5.15,1.7-7.7.56-2.17,1.43-4.25,2.12-6.39.54-1.68.91-3.42,1.54-5.06s1.4-3,2.11-4.49a5.64,5.64,0,0,0,.25-.64c.9-2.9,1.64-5.86,2.74-8.68.82-2.08,2.14-4,3.16-6a31.15,31.15,0,0,0,1.48-3.52,40.05,40.05,0,0,0,1.44-4.55c.29-1.19-.19-1.78-1.59-1.49-2.53.54-5.09,1.07-7.66,1.36-1.95.22-3.67-1.23-4.64-3-1.28-2.37-2.57-4.68-2.5-7.5,0-.37-.57-.76-.92-1.2,1.28-1.13,1.6-2.14,0-3.48s-1.57-3.57-1.29-5.61c.36-2.56.26-2.54-2.19-2.89a21,21,0,0,1-4-1.44,52.42,52.42,0,0,1,.08-7.51c.33-2.21,1.64-4.27,2-6.48s.08-4.8.37-7.17a18.85,18.85,0,0,0-1.7-9.45c-2.69-6.58-2.41-13.28-1.85-20,.15-1.76,1.35-3.54,2.83-5.15a47.16,47.16,0,0,1,4.37-3.83,14.4,14.4,0,0,1,3.74-2c1.42-.63,2.9-1.12,4.36-1.67,1.85-.69,3.7-1.42,5.57-2.06A52.45,52.45,0,0,1,200,.59,41.36,41.36,0,0,1,207,0c1.73,0,3.47.27,5.2.3a10.31,10.31,0,0,1,6.06,2.09c1,.75,2.46.92,3.65,1.47a15.49,15.49,0,0,1,6.19,5.53,22.75,22.75,0,0,1,2.64,5.12c.56,1.52.6,3,1.05,4.48,2.31,7.31.82,14.75.83,22.12,0,2.58-1.3,5.15-1.91,7.74a18.68,18.68,0,0,0-.24,3c3.41,1.27,5.63,3.41,6.34,7a18,18,0,0,0,1.12,3.92,3.5,3.5,0,0,0,1.87,1.86c4.18,1,8.44,1.65,12.6,2.7,2.85.73,5.73,1.68,7.74,4.06s4,4.76,5.84,7.3a40.62,40.62,0,0,1,2.71,5.2c1.21,2.4,2.5,4.77,3.58,7.24a50,50,0,0,1,1.58,4.9c.49,1.53,1,3.06,1.52,4.57s1.26,3.17,2,4.71,1.66,3,2.31,4.49a22.66,22.66,0,0,1,1.33,4.39c.41,2.2,1.95,3.5,3.34,5,2,2.23,3.83,4.68,5.76,7,.7.84,1.57,1.56,2.21,2.45a17.05,17.05,0,0,1,2.14,3.53c.7,1.74,1.05,3.62,1.66,5.41s1.37,3.63,2.07,5.44c.06.17.2.3.24.47.48,2,.88,4,1.47,6s1.41,4.07,2.13,6.11a2.36,2.36,0,0,1,.1.53c.5,3.45,2.08,6.51,3.5,9.63.69,1.49,1.06,3.13,1.67,4.66s1.41,3.14,2.1,4.72c.14.31.17.68.29,1,.7,1.94,1.41,3.88,2.1,5.82.14.39.22.8.36,1.19q1.14,3.44,2.31,6.85a3.4,3.4,0,0,1,.12.34,75.64,75.64,0,0,1,1.21,8.69c.21,8,.12,16.07.24,24.1a33.17,33.17,0,0,0,.68,4.38,15.25,15.25,0,0,1,.15,1.79c.14,7.73.23,15.47.44,23.21,0,1.1.78,2.19.79,3.29A3.71,3.71,0,0,1,317,258a3.64,3.64,0,0,0-.62,4.36c.21.35.57.68.63,1.05.49,3.25.89,6.51,1.38,9.76.46,3,.51,6.22,1.65,9,.78,1.9.56,3.63.83,5.43.51,3.43-2.76,6.32-6,6.31a8.17,8.17,0,0,0-4.68.94c-1,.58-2.82-.31-4.28-.53a5.89,5.89,0,0,0-1.54-.21,4.69,4.69,0,0,1-4.74-2.18c-.52-.73-1.88-.78-2.68-1.38-1.12-.85-2.24-1.78-2.14-3.49.13-2.21-.44-4.64.3-6.6,1.58-4.22.7-8.47.95-12.7a3.89,3.89,0,0,0-.48-2.18c-.54-.88-1.51-2-2.53-1.19a5.07,5.07,0,0,0-1.88,3.15c-.29,2.79,0,5.63-.2,8.44-.09,1.5-.73,3-.86,4.47-.08.87.46,1.77.55,2.68a14.52,14.52,0,0,1,0,3.16c-.09.86-.6,1.68-.63,2.52-.14,4.5-.18,9-.29,13.49a2.74,2.74,0,0,1-2.4,3c-1.78.41-3.43,1.31-5.17,1.9a11,11,0,0,1-2.62.48c-2,.17-2.8,1.87-1.8,3.67a12.19,12.19,0,0,1,1,2.93c.74,2.89,1.48,5.79,2.1,8.71a25.31,25.31,0,0,1,.41,4.09c.09,1.62-.08,3.26.15,4.85.53,3.66,1.49,7.26,1.8,10.93a48.9,48.9,0,0,1,0,12.15c-.37,2.2-.55,4.38-.81,6.58-.42,3.56-.54,7.23-1.54,10.64-.67,2.29-.65,4.54-1.05,6.78-.44,2.5-1.34,4.92-2,7.38a9,9,0,0,0-.37,2.29c0,8-.07,16,.15,23.93a55.52,55.52,0,0,0,1.36,9.29,66.07,66.07,0,0,0,2.5,10.18c.75,2,.68,4.05,1.11,6A44.68,44.68,0,0,0,284.7,444a1.91,1.91,0,0,1,.1.34c.44,2.48.73,5,1.34,7.44s1.56,4.69,2.27,7.05c.57,1.9,1,3.83,1.47,5.75.73,3.21,1.42,6.42,2.11,9.63.15.71.22,1.42.33,2.13.44,2.64.74,5.31,1.35,7.91.67,2.87,1.57,5.69,2.45,8.51a80.22,80.22,0,0,0,2.6,7.61,59,59,0,0,0,3.27,5.92c.63,1.1-.08,4.6-.62,6-.86,2.24-2.64,3.6-4.12,5.27-1.77,2-2.72,4.47-3.8,6.87-.35.78-.79,1.53-1.16,2.3-.85,1.82-1.68,3.65-2.51,5.47-1.19,2.6-2.23,5.27-3.61,7.76-1,1.85-2.27,3.7-5.06,3.2a38.07,38.07,0,0,0-5-.15,1.77,1.77,0,0,1-1.17-.53,2.43,2.43,0,0,0-3.39-.3c-1.57,1-2.87,1.41-4.28-.08a.54.54,0,0,0-.33-.13c-2.9,0-5.78-1.1-8.73.51-1.38.76-3.33.5-5.2.73-.36-2.13-.89-3.81.53-5.58a47.17,47.17,0,0,0,3-5c1.08-1.76,2.22-3.48,3.3-5.17l-6.16-18.27c-1.29.49-2.44,1-3.65,1.38a48.81,48.81,0,0,1-5.78,1.44c-4.05.68-8.07-.27-11.77-1.51-6-2-12-3-18-1.76-4.18.85-8.28.59-12.42.85-2.66.17-4.39-1.5-6.3-2.9a3.13,3.13,0,0,0-1.5-.77,35.75,35.75,0,0,0-6.46,0c-2,.28-3.56-.7-5.16-1.39-.8-.35-1.39-1.71-1.64-2.72-.57-2.29-.88-4.65-1.33-7.17-2.35.38-4.48-.48-6.67,1-1,.68-3.08.32-4.46-.16-1.56-.55-1.78-3.38-.54-4.65a12.84,12.84,0,0,1,5-3.66c1.44-.48,2.6-1.79,3.78-2.66a17,17,0,0,1-.73-1.91c-.55-2.24-1-4.49-1.58-6.72-.74-2.85-1.52-5.69-2.41-8.49-.57-1.78-1.37-3.48-2.06-5.22a1.43,1.43,0,0,1-.09-.34c-.5-2.36-.9-4.75-1.53-7.07-.58-2.11-1.47-4.14-2.12-6.23-.56-1.82-.9-3.71-1.47-5.53-.69-2.2-1.52-4.35-2.29-6.53a2.91,2.91,0,0,1-.16-.5c-.45-2-.78-4-1.38-5.91-.55-1.75-1.43-3.4-2.1-5.12-.55-1.4-1-2.86-1.51-4.27-.7-1.84-1.53-3.64-2.2-5.5-.58-1.63-1-3.33-1.53-5a31.07,31.07,0,0,0-1.73-4.07c-1.07-2.06-2.22-4.07-3.43-6.05-.95-1.57-2.11-3-3.06-4.58-1.08-1.78-2-3.66-3-5.47-.81-1.43-1.63-2.85-2.52-4.23-1.15-1.8-2.34-3.58-3.57-5.32-1.52-2.15-3.12-4.24-4.64-6.39-1.82-2.56-3.55-5.18-5.4-7.72-.64-.89-1.59-1.55-2.29-2.41-1.62-2-3.17-4-4.77-6s-3.55-3.78-4.69-6a29.35,29.35,0,0,0-3.5-4.86c-1.29-1.62-2.45-1.39-3,.58-.61,2.25-1,4.57-1.55,6.83a19.59,19.59,0,0,1-1.37,3.52c-1,2.1-2.23,4.12-3.22,6.25-.65,1.4-1,2.93-1.57,4.37-.64,1.61-1.36,3.18-2,4.77a3.23,3.23,0,0,0-.27.64c-.48,2.25-.84,4.52-1.45,6.74s-1.43,4.31-2.16,6.47a3,3,0,0,0-.08.52c-.5,2.54-.79,5.14-1.53,7.6a106.06,106.06,0,0,0-2.65,12.7c-.63,3.62-2.09,7.1-3.18,10.64a8.49,8.49,0,0,0-.14.88c-.48,2.9-.81,5.83-1.47,8.68a67.47,67.47,0,0,1-2.54,8.72,36.14,36.14,0,0,0-2.34,8.37c-.17,1.45-1,2.8-1.52,4.22a10.3,10.3,0,0,0-.77,2.82,21.92,21.92,0,0,1-2.28,8.11,47.74,47.74,0,0,0-1.54,5.1c-.66,2-1.4,4-2.11,6a3.4,3.4,0,0,0-.12.34c-.53,2.21-1,4.44-1.6,6.63s-1.4,4.6-2,6.91c-.57,2-1,4-1.59,6s-1.43,4-2.15,6a2.73,2.73,0,0,0-.18.68c-.45,3.86-1,7.71-1.29,11.57A13,13,0,0,1,61,516a23,23,0,0,0-1.67,4c-1.14,2.71-2.31,5.42-3.45,8.14-.44,1-.85,2.08-1.25,3.13-.84,2.19-2.08,3-4.53,3-2.86,0-2.45.06-3.17,2.74a26.91,26.91,0,0,0-1.19,8,21.39,21.39,0,0,1-.1,4.67c-.51,2.58-2.37,5.24-5.26,4.41a5.66,5.66,0,0,1-2.84-1.62c-.71-.92-1.45-.8-2.31-.83-1.6,0-3.34.52-4.64-1-.17-.2-.69-.13-1-.15-1.56-.08-3.16.21-4.24-1.5-.34-.54-1.42-.6-2.15-.9s-1.58-.76-2.4-1.06a6.15,6.15,0,0,0-1.69-.36c-1.15-.08-1.79-.65-1.79-1.8,0-3.53-.09-7.08.09-10.6a8,8,0,0,1,1.3-3.31c1.31-2.29.79-5.48,3.72-7.13a35.43,35.43,0,0,1-3-3.23c-1.48-2.05-3.46-3.85-3.3-6.77.14-2.45-.15-4.93.06-7.37s.3-5.33,1.38-7.55c.86-1.78.76-3.49,1.21-5.2a54.4,54.4,0,0,1,2-5.42c0-.11.11-.21.15-.32.42-1.34,1.27-2.72,1.17-4-.19-2.57,1.23-4.6,1.7-6.93a58.58,58.58,0,0,1,2-6.23,2.11,2.11,0,0,0,0-.35c.49-3.82.88-7.65,1.5-11.44.58-3.57,1.39-7.1,2.11-10.65,0-.18.06-.36.08-.54.49-3.61.58-7.34,1.6-10.79.74-2.49.49-5.17,1.46-7.39.8-1.81.53-3.52.93-5.23.67-2.8,1.46-5.57,2.2-8.35a.84.84,0,0,0,.05-.17c.46-2.62,1-5.24,1.36-7.88.56-4.31.51-8.77,1.61-12.94.79-3,.23-6.09,1-8.93.66-2.41.56-5.08,2-7.26a1.22,1.22,0,0,0,.16-.51c.46-2.82.75-5.69,1.42-8.46,2-8.24.41-16.69,1.46-24.92,1-7.92.81-15.8,1-23.71,0-.84,0-1.68,0-2.52s.4-1.44,1.36-1.45a20.44,20.44,0,0,1,1,4.52c0,5.29-.22,10.55-.75,15.86-1,10.19.43,20.54-1.6,30.72-.53,2.69-.88,5.41-1.31,8.12a1.16,1.16,0,0,1,0,.18A31.39,31.39,0,0,0,42,387.09c-.25,3.69-.77,7.38-1.28,11.05-.16,1.17-.81,2.26-1,3.43-.46,2.79.27,5.62-1,8.48-.81,1.87-.73,4.18-1.41,6.3-.94,2.93-1,6.12-1.49,9.2-.06.41-.16.81-.26,1.21-.7,2.94-1.45,5.88-2.09,8.83a35.24,35.24,0,0,1-.86,4c-1,2.8-1.17,5.87-1.61,8.85-.36,2.41-.09,4.79-1,7.29-1.13,3.24-1.1,6.87-1.62,10.33-.41,2.73-.82,5.46-1.35,8.16-.27,1.35-.48,2.94-1.31,3.91-1.54,1.82-1.22,4.11-2.11,6.09s-1.05,4.59-1.52,6.92a1,1,0,0,1,0,.17c-.75,2.11-1.62,4.19-2.21,6.34s-1,4.63-1.47,6.95a4.1,4.1,0,0,1-.21.87,8.9,8.9,0,0,0-.08,7.92,18.91,18.91,0,0,1,1.49,3.21,6,6,0,0,0,3.27,3.78c2.61,1.2,4.27,3.49,6.68,4.8,1.71.93,3.34,2,5.08,2.91a27.72,27.72,0,0,0,3.79,1.4c2.49.82,5,1.69,7.52,2.35a25.36,25.36,0,0,0,4.08.44c2.49-.06,2.74-1.93,3.67-3.64,1.42-2.59,2-5.44,3.24-8,.58-1.21.67-2.78,1.5-3.73,2.62-3,2.75-6.86,3.13-10.3.42-3.78,1.33-7.47,1.67-11.24a2.36,2.36,0,0,1,.1-.53c.72-1.94,1.46-3.88,2.16-5.83a34.8,34.8,0,0,0,1.28-3.94c.55-2.37,1-4.77,1.42-7.16a4.12,4.12,0,0,1,.24-.67c.7-2.07,1.46-4.12,2.08-6.22.57-1.94.93-3.93,1.48-5.87.35-1.22.87-2.4,1.32-3.59a48.85,48.85,0,0,0,2.1-5.62c.68-2.79,1-5.66,1.53-8.5a3.34,3.34,0,0,1,.14-.52c.68-1.85,1.42-3.69,2-5.56q1.27-3.86,2.38-7.74a75.81,75.81,0,0,0,2.5-9.46,58.69,58.69,0,0,1,2.47-10.64,49.28,49.28,0,0,0,1.48-7.8c.47-2.71.89-5.42,1.35-8.12,0-.22.21-.41.27-.63.7-2.21,1.48-4.39,2-6.63.6-2.4,1-4.86,1.49-7.29,0-.23.23-.42.31-.65.64-2,1.34-3.9,1.9-5.89s1-4.22,1.55-6.31a22.22,22.22,0,0,1,1.36-3.62c1-2.16,2.19-4.27,3.28-6.4a23.08,23.08,0,0,0,1.24-2.49c.59-1.6,1-3.25,1.6-4.87.65-1.91,1.42-3.78,2-5.71s1-4,1.65-6.57a19,19,0,0,1,2.16,1.77c.64.72,1.11,1.57,1.69,2.34q2.28,3,4.6,5.9c1.44,1.82,2.91,3.63,4.39,5.42.9,1.09,1.94,2.06,2.76,3.2,1.53,2.09,2.59,4.66,4.48,6.3,3.49,3,5.18,7.26,8,10.7a68,68,0,0,1,4.6,6.91c1,1.62,2,3.29,3,4.92s2.16,3.45,3.23,5.18c1,1.54,2,3.05,2.86,4.63,1.05,1.88,1.8,3.94,3,5.71a18.87,18.87,0,0,1,3.42,8.09,2.78,2.78,0,0,0,.2.68c.72,1.58,1.48,3.13,2.15,4.73s1.4,3.46,2.06,5.2c.56,1.46,1.14,2.91,1.6,4.4.59,1.92,1,3.9,1.61,5.82s1.48,4,2.08,6,.94,4.11,1.49,6.13c.37,1.38.94,2.69,1.37,4,.74,2.33,1.52,4.65,2.15,7,.59,2.2,1,4.44,1.49,6.66,0,.11.15.19.19.3.65,1.66,1.42,3.3,1.9,5,.63,2.23,1,4.52,1.51,6.79a5,5,0,0,0,.2.49c.72,2.27,1.53,4.52,2.14,6.82s1,4.61,1.51,6.92a2.24,2.24,0,0,0,.11.34,23.16,23.16,0,0,1,2.13,8.56,7.09,7.09,0,0,0,5.77,6.88c3.11.67,5.93-.65,8.86-1.2a14.85,14.85,0,0,0,3.69-1.38c1.2-.58,2.23-1.69,3.46-2a22.28,22.28,0,0,0,6.15-2.55c3.9-2.12,6-5.65,8-9.35a20.52,20.52,0,0,1,4.24-5.86c1-.86,2.44-1.75,1.88-3.44a32.33,32.33,0,0,0-1.64-3.48c-.81-1.75-2.08-3.34-2.06-5.42a2.31,2.31,0,0,0-.17-.86c-.76-1.94-1.58-3.86-2.31-5.8-.55-1.46-1-2.95-1.49-4.44-.71-2.19-1.46-4.37-2.11-6.58-.56-1.89-1-3.83-1.54-5.71-.67-2.2-1.52-4.34-2.21-6.54-.55-1.75-.93-3.55-1.48-5.29-.67-2.15-1.65-4.23-2.13-6.42-.42-2-.44-4-1.07-6-1-3.24-1.06-6.78-1.49-10.2-.31-2.38-.18-4.74-.91-7.17-.88-2.87-.25-6.06-1.51-9.05-.91-2.14-1-4.65-1.41-7a3.34,3.34,0,0,0-.18-.5c-.74-2.35-1.46-4.7-2.22-7-.22-.69-.54-1.34-.79-2-.57-1.51-1.21-3-1.68-4.56-.57-1.88-.92-3.82-1.51-5.7a23,23,0,0,0-1.47-3.29c-.66-1.36-1.44-2.66-2-4.05-1-2.4-1.87-4.85-2.77-7.28-.4-1.08-.63-2.23-1.11-3.28-1.08-2.34-2.31-4.62-3.39-7-.94-2-1.65-4.19-2.67-6.18s-2.29-3.78-3.44-5.67c-.86-1.42-1.77-2.81-2.55-4.27-.64-1.18-.82-2.76-1.72-3.61a28.06,28.06,0,0,1-5.2-6.55c-1.21-2.07-2.49-4.1-3.94-6.47l-3,.23,5.79,9.67a11.12,11.12,0,0,1-1.46,2.44c-2.25,2.08-4.63,4-6.9,6.06a4.72,4.72,0,0,1-5.17,1.15,11.86,11.86,0,0,1-3.45-2.57c-1.44-1.4-2.73-3-3.93-4.29a10.35,10.35,0,0,1-1.66.88c-1.87.53-3.75,1-5.62,1.49a4.25,4.25,0,0,0-.64.32,16.56,16.56,0,0,1-3.88,1.75,80.93,80.93,0,0,1-9.21,1.1c-3.82.23-7.65.36-11.48.3-5.4-.1-10.81.76-16.17-1-2.56-.85-5.45-.07-8.2-1.12-2.06-.78-4.49-.32-6.72-1.35-1.86-.86-4.11-.87-6.18-1.27a5.1,5.1,0,0,1-4.17-4.9c-.13-2.93.29-6-.5-8.76-1.12-3.86-.64-7.69-.92-11.52-.1-1.31,0-2.64,0-4a15.07,15.07,0,0,0-.24-1.62l-.5,0q-.84,2.68-1.66,5.38c-.09.28-.17.57-.24.86-.69,2.56-1.74,5.1-2,7.7A61.83,61.83,0,0,1,63.28,322c-.46,1.39-1.27,1.85-2.5,1.59-.64-.14-1.16-.79-1.78-1.11-1.87-1-3.83-1.77-5.63-2.85C51.39,318.44,49.52,317.13,47.07,317.35Zm142.52-73h-8.52c-.14,1.74.25,3.53-.47,4.4-1.73,2.09-.55,4.81-2.07,6.91-.88,1.23-1,3-1.53,4.51a13.18,13.18,0,0,1-1.36,2.83c-1.57,2.35-3.12,4.71-4.88,6.91-1.49,1.84-3.23,3.53-6,2.89-1.62-.38-3.23-.81-4.84-1.23-.1,0-.18-.14-.25-.24-1.19-1.74-2.49-3.42-3.53-5.25-1.18-2.06-2.12-4.25-3.4-6.87a12,12,0,0,0-.6,2.42c0,2.82.16,5.63.28,8.45a3.25,3.25,0,0,0,.22,1.4c.67,1.28,1.43,2.52,2.16,3.77.94,1.61,1.79,3.28,2.84,4.82,1.38,2,3,3.91,4.36,5.95,1.64,2.47,3.11,5.05,4.77,7.77-.62,1-1.21,2.66-2.35,3.68a2.53,2.53,0,0,0-.71,3.27c.81,1.71,2,3.21,3,4.86.65,1.13,1.18,2.25-.12,3.49-.41.38-.32,1.63-.06,2.32a16.92,16.92,0,0,0,1.76,2.89c1.41,2.21,2.51,4.75,4.32,6.56,2.5,2.5,3.9,5.6,5.75,8.46,1.08,1.67,1.72,3.62,2.8,5.29.63,1,1.44,2.33,2.83,1.53.6-2.15,1.25-4.08,1.68-6.06.59-2.66,1-5.36,1.51-8,0-.06,0-.12,0-.18a55,55,0,0,0,2.14-7c.61-3.43.89-6.93,1.16-10.41.22-2.8.23-5.62.29-8.44a3.52,3.52,0,0,0-.25-1.91c-1.17-1.76-2.47-3.44-3.77-5.11-1.82-2.33-1.51-4.43.85-6.27,1.21-1,2.18-2,2-3.88-.54-5.27-.82-10.56-1.29-15.83-.35-4-.87-8-1.21-12a5.35,5.35,0,0,1,.66-2c.58-1.56,1.17-3.13,1.75-4.7.29,0,.72.07.86-.09,1.68-2,3.24-3.91,3-6.88a9.8,9.8,0,0,1,1.38-5.05c1-1.76,1.11-2.95-.49-4a1.06,1.06,0,0,0-1,.23c-.51,1.62-.94,3.27-1.38,4.92-.14.51-.21,1.05-.32,1.57C190.94,238.13,190.26,241.23,189.59,244.34ZM194.68,185l-.05-.06a2.86,2.86,0,0,0,1,2.89,25.52,25.52,0,0,1,3.19,4.24c.71.24,2.25.31,2.59,1,1.17,2.33,2.56,4.84,2.7,7.35.28,5,1,10.07-1,14.9-.79,1.95-1.5,4-3.22,5.47-1.12.94-2.28,1.83-3.41,2.76-2.15,1.77.94,2.93.58,4.54-.08.36.55,1.26.85,1.26a29.55,29.55,0,0,0,6-.42c.8-.17,1.24-.41,2,.12a9.14,9.14,0,0,0,3.25,1.49c5.26,1,10.12-.26,14.8-2.67,2.28-1.17,4.61-2.27,7-3.28,1.53-.65,3.16-1.06,4.74-1.6,1.1-.38,2.2-.74,3.26-1.21,1.54-.68,3-1.47,4.56-2.19.85-.41,1.72-.8,2.59-1.17a41.9,41.9,0,0,0,4-1.64c1.92-1,3.75-2.21,5.61-3.35s3.68-2.18,5.42-3.42c2.41-1.72,4.74-3.55,7.05-5.4,1.08-.87,2.59-1.75,2.92-2.9a11.19,11.19,0,0,0-.2-5.13c-.55-2.59-1.53-5.1-2.15-7.68-.57-2.38-.91-4.82-1.37-7.23,0-.16-.18-.3-.25-.47-.7-1.87-1.39-3.76-2.1-5.64a37.07,37.07,0,0,0-1.63-4.14c-1-2-2.26-3.87-3.38-5.8-1-1.75-1.93-3.56-3-5.25-1.7-2.62-4.25-4.51-6-7.2a33.77,33.77,0,0,0-6.1-6.61c-1-.93-.75-1.49-.27-2.83a36.67,36.67,0,0,1,4.1,3.34c2,2.19,3.81,4.56,5.69,6.86s3.71,4.41,5.41,6.74a62.82,62.82,0,0,1,3.55,5.77c.64,1.11,1.11,2.32,1.64,3.49s1.08,2.45,1.64,3.67a30.76,30.76,0,0,1,2,4.31c.68,2.42,1.06,4.93,1.58,7.4.33,1.58.69,3.15,1,4.73a8.34,8.34,0,0,0,.16.87,52.76,52.76,0,0,1,2.18,6.77c.5,2.75,2.16,4.82,3.4,7.15,1,1.83,2.27,3.6,2.74,5.56a45.47,45.47,0,0,1,1.21,9.37,30.08,30.08,0,0,0,1.9,9.11c.74,2.11,2.19,4,2.08,6.39a3.19,3.19,0,0,0,.14,1.06c.72,2.25,1.78,4.45,2.12,6.75a55.51,55.51,0,0,0,2.35,8.65c.89,2.75,1.05,5.75,1.47,8.65a19.73,19.73,0,0,1,0,2.57,16.17,16.17,0,0,0,2.82-.25c2.59-.73,5.15-1.56,7.71-2.36a2,2,0,0,0,.34-.12,34.52,34.52,0,0,1,4.49-2.11c2.17-.66,4.44-1,6.67-1.48.29-.06.66-.08.84-.27.74-.8,2.46-1,1.61-2.8a7.59,7.59,0,0,1-.76-2.78c-.11-2.51.06-5-.06-7.55-.35-7.22-.91-14.44-1.15-21.66-.24-7.73-.21-15.46-.3-23.19a8.13,8.13,0,0,0-.11-1.79c-.72-2.81-1.49-5.6-2.24-8.39-.46-1.72-.88-3.46-1.38-5.17-.4-1.38-.88-2.74-1.37-4.1-.74-2.08-1.51-4.14-2.28-6.2-.47-1.27-.92-2.54-1.45-3.78-.39-.93-.93-1.79-1.32-2.71-.71-1.67-1.45-3.34-2-5.06-.63-1.87-1-3.8-1.62-5.68s-1.47-3.87-2.06-5.85-1-4.14-1.53-6.2c0-.17-.18-.3-.24-.46-.7-1.75-1.41-3.5-2.07-5.26a46,46,0,0,0-1.86-5.09,35.11,35.11,0,0,0-3.41-5.24c-1.51-2-3.23-3.75-4.81-5.64S280,118.13,279,116c-1.31-2.62-1.9-5.6-2.82-8.42a2.81,2.81,0,0,0-.3-.6,27.77,27.77,0,0,1-1.95-3.48c-.92-2.36-1.62-4.8-2.48-7.19s-1.78-4.86-2.73-7.27a30.07,30.07,0,0,0-1.58-3.35c-1.05-2-2.12-3.9-3.28-5.79-1.3-2.13-2.42-4.46-4.15-6.19a16.24,16.24,0,0,0-6.88-3.9,32.67,32.67,0,0,0-8.93-1.55,13.64,13.64,0,0,1-4.69-1.42,15.78,15.78,0,0,1-2.52-1.68c-2.34-1.58-.81-4.45-2.26-6.54a20.87,20.87,0,0,0-3.66-4.18c-.21,1.57-.26,2.74-.53,3.86-.65,2.7-1.69,5.34-2,8.06a24.24,24.24,0,0,1-2.41,7.46c-1,2.13-2.69,3.89-3.12,6.52-.39,2.42-2.09,4.68-2.21,7.34a1.12,1.12,0,0,1-.15.5c-1.56,2.74-3,5.53-4.74,8.18a44.52,44.52,0,0,1-4.05,5.33c-1.85,2.11-3.93,4-5.76,6.14-2.17,2.52-4.23,5.13-6.25,7.78a38.89,38.89,0,0,0-3.64,5.39c-1.12,2.13-1.89,4.45-2.8,6.69-1.13,2.81-2.45,5.56-3.31,8.45a27.53,27.53,0,0,0-1.11,7.1c-.25,9.59-.36,19.18-.45,28.76,0,4.3-.2,8.65,1.9,12.71ZM75.53,239c2.26,1,4.3,1.9,6.41,2.68,1.8.67,3.69,1.12,5.53,1.72a51.94,51.94,0,0,0,6.18,2c3,.58,6,.23,9.11,1.11,4,1.14,8.26,1.17,12.41,1.74.9.12,1.75.69,2.64.73a8.34,8.34,0,0,0,3.89-.36c3.55-1.82,7-3.61,11.2-3a11,11,0,0,1,1.88.45,8.11,8.11,0,0,0,2.06.8,49.35,49.35,0,0,0,7-.25c.79-.1,2-1,2.1-1.71.36-3.59,1.9-7,1.49-10.72-.35-3.2,0-6.48-.32-9.69-.61-6.31-1.47-12.6-2.22-18.9a10.45,10.45,0,0,0-.16-1.79,41.56,41.56,0,0,1-2.31-12,15.85,15.85,0,0,0-.35-3c-.54-2.74-1.15-5.47-1.69-8.21,0-.24.29-.54.3-.82a18.32,18.32,0,0,0,.1-4.43c-.46-2.35-1.35-4.6-2-6.92s-1-4.39-1.55-6.58a1.16,1.16,0,0,0,0-.18c-.76-2.67-1.52-5.33-2.26-8-.49-1.79-.9-3.6-1.42-5.38-.39-1.33-.86-2.64-1.36-3.93-.65-1.73-1.52-3.38-2-5.15-.63-2.26-1-4.61-1.45-6.92a2.25,2.25,0,0,0-.13-.51c-.74-1.91-1.65-3.78-2.21-5.74-.62-2.18-.92-4.46-1.38-6.69-.06-.29-.25-.55-.33-.83-.69-2.19-1.39-4.38-2-6.58-.58-2-1-4-1.6-6.06-.67-2.39-1.42-4.75-2.09-7.14-.56-2-1-4.06-1.59-6.06a11.06,11.06,0,0,0-1.29-3.17A10.2,10.2,0,0,1,114,83.67a2.84,2.84,0,0,0-.18-1.24c-1.12-2.24-2.24-4.49-3.47-6.68a62.37,62.37,0,0,0-4.13-6.86c-1.55-2.08-3.37-1.82-4.72.34a12.38,12.38,0,0,1-1.74,2.63c-1.68,1.57-2.92,3.59-5.28,4.49-2,.77-3.76,2.44-5.82,3-3.15.84-6.48,1-9.71,1.58-1.49.28-3.26.55-4.29,1.49C71.76,85,69.21,88,66.55,90.81c-2.16,2.29-4.29,4.61-6.47,6.88s-4.37,4.21-6.39,6.46c-2.77,3.08-5.37,6.32-8,9.49a62,62,0,0,1-4.76,5.46c-2,1.83-4.23,3.34-6.34,5-1.41,1.13-2.8,2.3-4.17,3.49-3.13,2.73-6.29,5.44-9.36,8.24a53,53,0,0,0-4.36,4.5c-2.3,2.65-4.51,5.39-6.74,8.1-1.51,1.83-3,3.66-4.48,5.55s-3.1,3.63-2.95,6.27c.06,1.08-.09,2.17,0,3.24.35,3.69.72,7.39,1.17,11.08.4,3.27.9,6.54,1.37,9.81a2.78,2.78,0,0,0,.18.48,55.6,55.6,0,0,1,2.12,6c.65,2.84.91,5.77,1.49,8.64a42.89,42.89,0,0,0,1.39,4.34c.74,2.36,1.56,4.69,2.17,7.08.56,2.2.89,4.46,1.33,6.69a2.22,2.22,0,0,0,.18.49c.73,1.83,1.51,3.64,2.2,5.48.53,1.44.81,3,1.45,4.36,1,2.07,2.39,4,3.19,6.09,1.06,2.81,2.14,5.41,4.91,7.06,1.43.85,2.9,1.07,4.1-.09,1.42-1.38,2.81-2.78,4.22-4.17,2.33-2.28,4.68-4.54,7-6.83,1.46-1.44,2.82-3,4.36-4.35a27.6,27.6,0,0,0,6.86-9.93c.79-1.78,2.2-3.29,3.14-5a5.78,5.78,0,0,0,.94-3.33c-.5-2.71-2.42-4.29-5-5.24a11.19,11.19,0,0,1-3-2.08,16.74,16.74,0,0,1-3.08-3,39,39,0,0,1-4.1-6.92,21.21,21.21,0,0,1-1.69-9,10.45,10.45,0,0,0-1.11-3.75,2.39,2.39,0,0,0-1-1,9.2,9.2,0,0,0-9.29-.6c-.85.38-2.11-.11-3.17-.27a6.25,6.25,0,0,1-1.26-.53l-4.08-1.63c2.1-1.37,3.65-1.11,5.05-.22a5.11,5.11,0,0,0,5.09.21,5.72,5.72,0,0,1,5.69-.06,7.21,7.21,0,0,0,2.34.31,17.44,17.44,0,0,0-.56-2.57c-.45-1.12-.76-2.6-1.63-3.17-1.25-.81-.88-1.59-.8-2.81.74.18,1.52.14,1.9.51a15.55,15.55,0,0,1,1.83,2.53,6.53,6.53,0,0,1,1.13,2c.55,2.39,1,4.82,1.48,7.59A28.31,28.31,0,0,0,45.75,176c2.42-1.35,4.6-3.16,7-4.46,2.76-1.46,4.61-3.82,6.67-6,1.74-1.8,3.27-3.79,4.9-5.69.79-.93,1.67-1.81,2.37-2.8,1.82-2.57,3.44-5.29,5.42-7.72.6-.74,1.57-2.32,3.38-1a5.35,5.35,0,0,1-.56,1.6c-2.23,2.81-4.55,5.54-6.79,8.34-2.39,3-4.62,6.09-7.14,8.94a38,38,0,0,1-5.78,5.19c-1.34,1-.82,1.64-.14,2.54a3.29,3.29,0,0,1,.54,1c.57,1.9,1.17,3.8,1.63,5.73a69.25,69.25,0,0,1,2,9.54,94.12,94.12,0,0,1,0,11.14,20.12,20.12,0,0,1-.67,3.19,2.1,2.1,0,0,1-.09,3,3.28,3.28,0,0,0,.24,3.22,25.39,25.39,0,0,0,4.94,2.89,23.9,23.9,0,0,1,3,1.48A51.52,51.52,0,0,1,71.18,220c.76.71,1.91,1.7,1.84,2.46-.17,1.81,1.25,2.77,1.61,4.23.2.84.83,1.63.85,2.45C75.58,232.4,75.53,235.69,75.53,239ZM229.92,481a4.62,4.62,0,0,0,.34-.81,8.66,8.66,0,0,0,.15-1.6c-.19-6.95.57-13.93-1-20.85-.77-3.25-.25-6.64-1.09-10.06-1.22-4.94.09-10.24-1.35-15.39-.67-2.39.58-5.27.7-7.93.25-5.81.3-11.63.52-17.44,0-1,.54-2,.67-3.06a13.17,13.17,0,0,0,0-3c-.1-.92-.48-1.8-.61-2.72-.79-5.81.25-11.67-1.26-17.57-1.22-4.79-.77-10-1.22-15-.73-8.16-.41-16.42-.47-24.63,0-2.07.19-4.14.3-6.21l.58-.32c.5.56,1.37,1.08,1.43,1.68a37.47,37.47,0,0,1-.06,5.4c0,.83-.42,1.65-.38,2.46.19,3.75.47,7.5.72,11.26.42,6.34-.27,12.7,1,19.05,1,4.95,1.06,10.11,1.45,15.18.16,2,0,4.08.12,6.12a13.6,13.6,0,0,0,.31,2.85c.68,2.68,1.49,5.33,2.18,8,.5,2,.83,4,1.35,6,.68,2.62,1.58,5.18,2.19,7.82.45,2,.43,3.95,1.09,6,1,3,1,6.3,1.46,9.47.33,2.2.78,4.38,1.09,6.58.48,3.42.9,6.85,1.31,10.29a52.7,52.7,0,0,0,.57,5.35c.44,2,1.25,3.88,1.87,5.83.56,1.78,1.07,3.57,1.63,5.36.72,2.31,1.62,4.59,2.18,6.94.61,2.61.93,5.29,1.37,7.93a2.19,2.19,0,0,0,.12.52,26.37,26.37,0,0,1,2.06,5,83.55,83.55,0,0,0,2.51,9.47c.62,2,.47,4.22,1.25,6.31a56.33,56.33,0,0,1,1.6,6.36c0,.11.12.2.18.3a30.53,30.53,0,0,1,2,3.82c1,2.76,1.77,5.59,2.58,8.4a3,3,0,0,0,3.23,2.53,61.85,61.85,0,0,0,8.95-.65c3.12-.59,5.7-2.07,8.52-3.1,2.46-.89,4.67-2.41,7.08-3.44,2.17-.93,4.45-1.59,6.06-3.47a1.38,1.38,0,0,1,.47-.23,6.72,6.72,0,0,0,4.09-7.46,31.73,31.73,0,0,0-1.45-4.56c0-.1-.19-.15-.23-.25-1-2.27-2.18-4.49-3-6.83-.75-2.11-1.13-4.36-1.68-6.55,0-.05,0-.1-.07-.16a49.92,49.92,0,0,1-2.07-6.07c-.64-3-.92-6-1.36-9a7.45,7.45,0,0,0-.19-1.05c-.35-1.22-.75-2.42-1-3.65-.17-.69-.11-1.44-.27-2.14q-1.09-4.67-2.26-9.32a24.71,24.71,0,0,0-1.36-4.63,32,32,0,0,1-2.33-8.28c-.37-2.13-.85-4.25-1.39-6.34-.65-2.53-1.74-5-2.05-7.53a79.55,79.55,0,0,0-2.5-10.94,37.86,37.86,0,0,1-1.23-8.54C275,405,275,397.56,275,390.12a10.86,10.86,0,0,1,.27-2.85c.61-2.19,1.55-4.29,2-6.5.49-2.42.39-4.88,1.25-7.33s.45-5,1.14-7.61c.86-3.16.91-6.58,1.29-9.86.64-5.61.86-11.34-.78-17-.9-3.12-.86-6.52-1.18-9.81-.19-2,0-4.1-.42-6.09-.56-3-1.45-5.87-2.22-8.8-.48-1.82-1-3.62-1.59-5.7-5.36,1-10.41,2.3-15.79,1.39,0-3.39,0-6.67,0-10a12.09,12.09,0,0,0-.34-3c-.61-2.24-1.54-4.4-2-6.66-.51-2.62.14-5.37-1.34-7.92-.86-1.48-1-3.37-1.47-5.07a2,2,0,0,0-.25-.45c-.88-1.33-1.77-2.65-2.89-4.33-.4.25-1.39.52-1.55,1.05a24.52,24.52,0,0,0-1.19,5.6c-.27,3.68-.3,7.33-1.24,11-.88,3.43.12,7.11-1.23,10.68-1,2.59-.81,5.61-1.24,8.42-.09.64-.41,1.6-.87,1.76a19.39,19.39,0,0,1-5.18,1.34c-8.77.6-17.48-.41-26.2-1.22a2.08,2.08,0,0,1-.84-.27,21.25,21.25,0,0,0-3.77-2c-2.68-.76-4.62-2.61-6.61-4.29-2.47-2.08-4.6-4.55-7.09-7.08-.54,1.43-1.28,2.59-1.37,3.8-.38,5.26.1,10.58-1.5,15.76a58.59,58.59,0,0,0-1.35,7.27,2.67,2.67,0,0,1-.11.34c-.73,2-1.92,4-2.08,6.07a24.31,24.31,0,0,1-2.45,8.69,3,3,0,0,0,0,2.25c.95,2.06,2.26,4,3.13,6.06,1.09,2.6,1.87,5.34,2.81,8a13.5,13.5,0,0,0,1.52,3.81c2.45,3.17,3,7.1,4.49,10.65.82,2,1.52,4.11,2.34,6.16a68.64,68.64,0,0,1,2.62,8.7c.62,2.44,1,4.95,1.5,7.42,0,.18.11.34.16.51a43.48,43.48,0,0,1,2.1,6.43c.52,3.12.25,6.3,1.11,9.48s0,6.83,1.31,10.17c.52,1.34.19,3,.51,4.44.59,2.66,1.4,5.27,2.09,7.91.52,2,.91,4,1.52,5.89s1.54,3.95,2.17,6,1,4,1.49,5.91c.37,1.42.79,2.84,1.27,4.23.69,2,1.52,4,2.18,6.08.59,1.85,1,3.75,1.53,5.63a4.3,4.3,0,0,0,.24.48c.68,1.59,1.43,3.15,2,4.77s.94,3.33,1.57,4.93a8.05,8.05,0,0,0,1.72,2.74A37.07,37.07,0,0,0,229.92,481ZM190.26,282.78c-.33.41-.45.58-.59.74-2.13,2.37-2.15,3.12-.14,5.6.84,1,1.71,2,2.57,3,1.55,1.81,3,3.71,4.7,5.42,2,2,4.22,3.76,6.18,5.79,2.41,2.51,5.49,3.92,8.57,5.17a23.62,23.62,0,0,0,7.27,1.33c3.82.24,7.67.08,11.5.26a48.89,48.89,0,0,1,5.2.83,1.84,1.84,0,0,0,.84-.06,16,16,0,0,1,2.63-.76c2.44-.2,3.45-1.12,3.72-3.62a53,53,0,0,1,.92-7.62c1.1-4.46,1.14-9.18,1.65-13.8.39-3.56.43-7.24,1.39-10.65.64-2.3,1.41-4.47,1.32-6.89,0-.28.53-.8.87-.85a15.3,15.3,0,0,1,2.45,0c.1,1.27-.1,2.49.35,3.38,1,2,2.42,3.75,3.46,5.73.69,1.32.83,2.93,1.54,4.24a19.08,19.08,0,0,1,2.25,7.52c.26,2.79.86,5.55,1.32,8.33,0,.12.07.22.1.34a23.79,23.79,0,0,1,1,4c.19,2,.08,4.07.09,6.11,0,2.21,1.39,3.34,3.31,2.23s3.55-.71,5.33-1c3-.45,6-.95,9-1.42a2,2,0,0,0,.35-.07c2.14-.75,4.23-1.66,6.42-2.19a1.64,1.64,0,0,0,1.5-1.94c0-2.34,0-4.68,0-7,0-2.09.08-4.19.26-6.28.15-1.74.76-3.47.7-5.19s0-3.35,0-5c-.09-8.41,1.53-16.9-.94-25.22-.58-2-1.05-4-1.58-6-.74-2.77-1.5-5.53-2.22-8.31-.5-1.88-.83-3.8-1.44-5.64s-1.63-3.69-2.22-5.61-.93-4.06-1.41-6.09c-.05-.24-.3-.43-.41-.57-1.57.73-3,1.38-4.44,2.08-.83.4-1.59.94-2.43,1.29-2.35,1-4.77,1.82-7.06,2.91-1.94.93-3.7,2.23-5.61,3.22-2.59,1.35-5.26,2.56-7.88,3.86-.67.33-1.22.91-1.91,1.21-1.4.61-2.87,1.1-4.3,1.67a25.68,25.68,0,0,0-2.7,1.14c-3,1.53-5.88,3.1-8.81,4.65a16.51,16.51,0,0,1-2.25,1.16c-2.74,1-5.51,1.82-8.25,2.77a10.75,10.75,0,0,0-2.63,1.24,4.48,4.48,0,0,0-1.76,2,22.91,22.91,0,0,0-1.07,5.49c-.21,4.12-.32,8.27-.2,12.4.07,2.13,1,4.24,1,6.37a73.18,73.18,0,0,1-.71,13.69c-.76,4.44-.33,9.09-.39,13.64,0,2.84-1.89,4.13-4.66,3.19l-7.77-2.64a18.26,18.26,0,0,1,0-2.09c.38-3.34.89-6.68,1.16-10,.23-2.8.1-5.64.3-8.44.11-1.58.83-3.15.78-4.71-.08-2.4-.6-4.78-.9-7.18a10.21,10.21,0,0,0-.18-2.31,11.66,11.66,0,0,0-1.49-2.22l-.54.29c-.3,2.58-2,4.82-1.34,7.66.56,2.3.67,4.71,1.08,7.05.15.82.73,1.57.88,2.4s.27,1.87-.15,2.32a16.51,16.51,0,0,1-3.59,2.78,20.92,20.92,0,0,1-3.27,1.33l-3.32,1.25ZM145.74,322c-.25-.52-.5-1-.68-1.44-.43-1.12-.83-2.25-1.24-3.38a18.44,18.44,0,0,1-1.3-3.69c-.36-2.68-.47-5.35-.94-8-1.06-6-1.2-12.2-1.72-18.31a8,8,0,0,0-.33-2.82,5.87,5.87,0,0,1-.06-5.29,4.92,4.92,0,0,0,.06-2.42c-.12-.92-.52-1.81-.64-2.73-.17-1.25.05-2.59-.35-3.74-.22-.66-1.54-1.59-2-1.41a4.59,4.59,0,0,1-4-.25,2.56,2.56,0,0,0-2.37.28,33.43,33.43,0,0,0-2.41,4.69c-1.21,2.51-2.37,5-3.6,7.55-.42.85-1,1.62-1.47,2.47-.94,1.78-1.74,3.65-2.79,5.37-1.45,2.38-3,4.71-4.65,7-2.23,3.05-4.56,6-6.93,9-2.66,3.3-6.68,4.85-9.87,7.48a3.17,3.17,0,0,1-4.42-.54c-2.4-3.17-4.88-6.29-7.06-9.6a2.59,2.59,0,0,1,.47-3.66c2.17-1.72,4.07-3.78,6.28-5.43a28.73,28.73,0,0,0,7.82-9.74c.92-1.7,2.21-3.14,2.74-5.12.41-1.52,1.58-2.83,2.41-4.24a23.74,23.74,0,0,1,2.71-4.43c.65-.68,1.11-1.14.59-1.83a3,3,0,0,0-1.72-.89c-2.67-.56-5.37-1-8-1.56A34.59,34.59,0,0,1,96,263.78c-1.83-.66-3.64-1.4-5.47-2.09-1.43-.53-2.91-1-4.32-1.56-2.64-1.07-5.29-2.13-7.86-3.35-2.2-1-4.32-2.29-6.43-3.51-1.35-.77-2.61-1.7-3.94-2.49-.22-.13-.66,0-1,.15-1.48.66-2.9,1.76-4.44,1.95a38.4,38.4,0,0,1-6.62-.28,11.46,11.46,0,0,0-.14,1.49,60.11,60.11,0,0,1-1.34,15.37c-.06.23-.07.48-.15.7-.72,2-1.57,4-2.16,6s-1.05,4.43-1.56,6.64c-.06.23-.17.45-.25.67-.67,1.66-1.36,3.3-2,5q-.64,1.65-1.2,3.33c-.6,1.79-1.09,3.63-1.75,5.4-.54,1.46-1.41,2.81-1.85,4.3-.65,2.17-1,4.42-1.56,6.64a1.06,1.06,0,0,1-.17.49c-1.45,1.51-1,3.27-.85,5,1.66.13,3.25-.06,4.61.41a92.47,92.47,0,0,1,8.56,3.56c1.12.51,2,1.42,3.15,2,1.38.71,2.86,1.24,4.25,1.84,1.15-5.52,1.27-10.91,2.76-16.1.71-2.47,1-5.05,1.53-7.58,0-.18.12-.34.17-.52.71-2.42,1.55-4.81,2.08-7.26.63-2.93,1-5.91,1.46-8.87a1.28,1.28,0,0,1,.07-.35l2.72-5.32c1.62,0,2.53,1,1.64,2-1.22,1.38-.92,2.93-.89,4.37.19,10-1.11,20,1,30,.59,2.77.22,5.73.37,8.61,0,.61.19,1.48.61,1.75,1.28.84,2.46,2,4.28,1.61a4.1,4.1,0,0,1,2,.19c2.11.64,4.15,1.68,6.3,2,5.35.71,10.75,1.06,16.12,1.61,1.14.11,2.25.43,3.38.64a1.94,1.94,0,0,0,.68,0,21,21,0,0,1,3.1-.55c6-.11,12,0,18-.27a28.72,28.72,0,0,0,6.9-1.47c1.65-.49,3.17-1.45,4.79-2.08S144,322.56,145.74,322Zm-3-261.92c1-.49,1.86-1.3,2.8-1.34,2.8-.14,5.78-.55,8.37.23a30.78,30.78,0,0,0,6.81.8c.75.06,1.39.06,1.73-1,.54-1.68,1.75-3.17,2.13-4.86a51.31,51.31,0,0,0,1.25-9.06,31.8,31.8,0,0,0-.71-9.47c-.64-2.51-2.5-4-3.25-6.28-.59-1.78-2.17-3.22-3.17-4.89a15.55,15.55,0,0,0-7.3-6.56c-2.12-.92-4.21-1.9-6.34-2.79-1.76-.73-3.55-1.41-5.36-2a2.92,2.92,0,0,0-1.39.2c-2.89.67-5.77,1.44-8.69,2-1.86.35-3.7.5-5.59,1-3,.8-4.88,3-7.17,4.52-3,2-4.7,5.38-6.48,8.52a8.58,8.58,0,0,0-1.3,3.09c-.32,3.23-.61,6.47-.89,9.69-.58,6.66-.27,13.4-.28,20.11,0,1.72-.39,3.69,1.91,4.49.2.07.25.52.4.78.89,1.52,1.77,3,2.69,4.54.29.46.85.8,1,1.29.61,1.73,5,4.27,6.73,3.84a4.14,4.14,0,0,0,.49-.19c.69-.25,1.36-.53,2.06-.74.5-.15,1.14-.07,1.54-.35,1.55-1,2.11-5.35,1.35-7.12a26.88,26.88,0,0,1-2-6.57c-.19-1.27.73-2.68,1-4.06.38-2.3,3.7-5.38,5.87-4.92a8.61,8.61,0,0,1,5.49,3.9c1.47,2.2.84,4.46,1,6.72a10.52,10.52,0,0,0,.21,2.47c.14.4.85.74,1.35.85.24.05.73-.45.9-.8.48-1,.82-2.1,1.3-3.11S142.18,61,142.71,60.05Zm72.56-14.5a14.44,14.44,0,0,1-.8-1.38,3.33,3.33,0,0,0-5.31-.92,7.26,7.26,0,0,0-2.31,5,2.78,2.78,0,0,1-3.16,2.92c-.71,0-1.43-.11-2.15-.15-2.81-.16-4-2.66-2.72-5.15a4.06,4.06,0,0,0,.13-3.06c-.52-1.27-4.17-1.73-5.6-1.26a39.63,39.63,0,0,1-7.22,1.84,57.33,57.33,0,0,1-7.41.07c-.14.25-.25.35-.25.45a47.52,47.52,0,0,1-2.39,16.79c-.66,1.83-.1,4.1-.1,6.34l3.54.18a2.45,2.45,0,0,1,2.65,2.62,22.5,22.5,0,0,1-.16,3.76,3.49,3.49,0,0,0,1.35,3.23,3.11,3.11,0,0,1,.35,4.66c.7,2.23,1.35,4.5,2.13,6.72a4.39,4.39,0,0,0,1.41,2.26c.9.54,1.69,1.77,3.13,1.06a5.48,5.48,0,0,1,2.76-.83c1.88.21,3.27-.87,4.59-1.68,2.42-1.48,4.41-3.68,6.84-5.13,1.34-.81,2.58-2.65,4.84-1.58-.19.36-.29.8-.56,1-1.68,1.25-3.43,2.4-5.09,3.68-1.91,1.46-3.71,3-3,5.89a21.92,21.92,0,0,1,0,2.69c.4,3.67.86,7.34,1.3,11.06,2.79.65,3.37-1.89,4.7-3.12a33.31,33.31,0,0,0,3.56-4.27c1.4-1.83,2.78-3.67,4.09-5.57.63-.9,1-2,1.6-2.89,1-1.54,2.2-3,2.05-5a2.36,2.36,0,0,1,.14-1.06c.71-1.6,1.93-3.14,2.1-4.79.28-2.88,2.55-4.6,3.41-7.08.59-1.7,1.23-3.39,1.8-5.09.15-.45,0-1.08.23-1.4,1.6-2,.7-4.28.86-6.67-3.38,0-6.54,0-9.7,0a2.33,2.33,0,0,1-1.5-.62,7.71,7.71,0,0,1-2.26-6.42,53.86,53.86,0,0,1,1.39-6.36C214.59,46,215,45.81,215.27,45.55ZM116.46,78.37c.09,1.07-.15,2.18.3,2.76,1.08,1.41.59,3,.89,4.42.43,2.11.94,4.21,1.57,6.27s1.51,3.81,2,5.77c.63,2.32,1,4.71,1.5,7.07a3.15,3.15,0,0,0,.27.63,44.12,44.12,0,0,1,1.94,4.95c.42,1.54.3,3.1,1.09,4.7,1,2,1.13,4.39,1.64,6.62.06.29.14.58.23.87.7,2.18,1.38,4.36,2.11,6.53.41,1.22.9,2.42,1.36,3.62l.6-.13a32,32,0,0,1,2.08-5.44,22,22,0,0,0,3.43-10.65,2.56,2.56,0,0,1,.16-1.23c1.4-2.17,1.09-4.61,1.06-7a4.86,4.86,0,0,0-1-2.59,24.48,24.48,0,0,0-2.8-3.06,1.63,1.63,0,0,0-1.26-.5,1.73,1.73,0,0,0-.86,1.11c-.24.86-.19,1.8-.46,2.64-.74,2.28-1.59,2.67-3.22,1.66a11.16,11.16,0,0,0,.95-2.05c.43-1.74.76-3.5,1.08-5.27,0-.23-.25-.5-.31-.77a10.86,10.86,0,0,1-.53-3.18,2.32,2.32,0,0,1,1.48-1.69c.6,0,1.43.74,1.87,1.37.57.83.77,1.92,1.31,2.79a19,19,0,0,0,2.28,3.06c.77.82,1.81,1.38,2.59,2.2a8.53,8.53,0,0,0,6.4,3c2.23,0,2.64-1.72,3.4-2.88.43-.66-.48-2.11-.62-3.22-.11-.88-.33-2.3.11-2.6a4.26,4.26,0,0,0,2-4.27c-.19-2.21,1.6-3.29,2.94-4.3,1.17-.89,2.92-1,4.41-1.48s2.67-2.14,2.13-3.23c-.64-1.3-1.59-2.6-1.76-4a35.43,35.43,0,0,1,1.13-14,1.21,1.21,0,0,1,.24-.48c1.18-1.26.84-2.72.75-3.85-2.31-.54-4.36-1.2-6.46-1.47a61.26,61.26,0,0,0-7.17-.35c-3.18,0-4.54,1.32-5,4.43a5.63,5.63,0,0,1-1.41,3.07,3.63,3.63,0,0,1-2.92,1c-3-.85-3.29-1.56-3.13-4.8a20.27,20.27,0,0,0,.09-2.69,10.44,10.44,0,0,0-.87-4c-.68-1.42-2-1.39-2.69-2.27-.93-1.17-1.74-.78-2.51-.09a7.92,7.92,0,0,0-2.52,5.88,5.56,5.56,0,0,0,.38,2.25c1.24,3,2.5,6,2,9.31a3.31,3.31,0,0,1-.38,1.51,9.29,9.29,0,0,1-8,4C119.15,78.33,117.91,78.37,116.46,78.37Zm60.16,129.81-.65,0a28.28,28.28,0,0,1,.05-4.32c.19-1.14,3.46-3.49,4.52-2.59s1.91,2,2.9,3c.58.56,1.26,1,1.89,1.53.63-.8,2-1.13,1.66-2.55-.44-1.65-.87-3.32-1.47-4.92-.79-2.1-4-3.42-5.43-2a71.26,71.26,0,0,0-6.58,8.19c-1.56,2.16-2.77,4.47-5.61,5.4a2.84,2.84,0,0,0-2.13,2.82c0,6.78-.37,13.58,1.55,20.21.28,1,.93,2.54,1.6,2.64a8.34,8.34,0,0,0,4.39-.65,37.23,37.23,0,0,0,4.47-2.83c2.76-1.68,5.55-3.3,8.32-4.95,2.3-1.36,4.59-2.75,6.9-4.1a20.56,20.56,0,0,0,2.67-1.43c1.13-.92,2-2.21,3.14-3a7.35,7.35,0,0,0,2.84-5.67c.36-5.7.78-11.5-1.06-17.09a1.49,1.49,0,0,0-2.41-.62c-1.29,1.41-1.29,4.23-.55,6.1a11.65,11.65,0,0,1,.27,7.06,7.18,7.18,0,0,1-2.3-5.65c0-3.08.52-3.19-3.14-3-.09,0-.2-.11-.44-.24,0-2,0-4.09,0-6.18a9.46,9.46,0,0,1,.06-1.07c0-.29.06-.76.22-.83,1.5-.69.74-2,.73-3,0-.36-.69-.93-1.11-1s-.94.42-1.24.8c-1.37,1.71-1.08,3.75-1.09,5.75a5.17,5.17,0,0,1-.53,1.48,14.64,14.64,0,0,1-1.86-4.24,1.43,1.43,0,0,1,.34-1.11,2.72,2.72,0,0,0,.21-3.53c-3.08,1.7-4,3.78-3.24,7a2,2,0,0,0,.42.94c1.64,1.54,3.43,3,3.54,5.5,0,.22.17.44.22.67.21,1,.73,2,.53,2.94-.27,1.25-.79,2.89-1.74,3.45-2,1.22-5.27-.19-6.58-2.23a9.24,9.24,0,0,0-2.09-1.74Zm-35-99.37c-.66,4-1.19,7.22-1.73,10.45a3.6,3.6,0,0,1-.15.87c-.76,1.92-1.54,3.83-2.32,5.74-.53,1.32-1,2.66-1.6,4a75.8,75.8,0,0,0-3.18,7c-.33,1,.39,2.3.66,3.45.09.38.31.73.42,1.1.53,1.82,1,3.65,1.57,5.47.75,2.49,1.6,4.95,2.27,7.47.55,2,.89,4.15,1.32,6.23a2.83,2.83,0,0,0,.14.52,42.94,42.94,0,0,1,2.13,5.31c.65,2.53.95,5.14,1.4,7.71,0,.23.18.44.21.67.21,1.3.89,2.79.48,3.85a7.27,7.27,0,0,0,0,4.87A104.46,104.46,0,0,1,145,194.42c0,.06,0,.13,0,.18l.9,1.42c.44-.46,1.18-.89,1.25-1.4.52-3.8.38-7.62,1.17-11.46s.28-8.23.33-12.37c0-2.93-.51-6,.24-8.76a33,33,0,0,0,.77-7.54c.1-2.22.13-4.44.12-6.65,0-4.49.46-9.07-.26-13.45-.56-3.45-.67-6.86-1-10.29a59.62,59.62,0,0,0-1.37-6.66,1,1,0,0,0-.15-.32c-1.12-2.17-2.19-4.36-3.4-6.47C143.25,110,142.49,109.59,141.62,108.81Zm6.53,138c2.8-.14,3,1.27,3,2.92a24.16,24.16,0,0,0,0,2.69c.07.65.27,1.77.57,1.82a5.06,5.06,0,0,0,2.78-.23c1.26-.51,2.34-1.44,3.58-2,2.86-1.37,5.9-2.42,8.58-4.07a9.75,9.75,0,0,1,2.77-1.19c1-.27,1.11-1.51.54-2.38a38.09,38.09,0,0,1-2.69-4.89,51.67,51.67,0,0,1-1.69-4.91c-.64-1.92-1.73-3.82-1.82-5.77-.33-6.94-.37-13.89-.41-20.83a22.56,22.56,0,0,1,.68-4.52A16.31,16.31,0,0,1,165,201l-17.48,6.53a25.94,25.94,0,0,0,.2,2.71c.23,1.29.74,2.54.85,3.83.17,2.15.05,4.32.2,6.47.09,1.35.6,2.68.63,4,.12,5.19.24,10.38.1,15.56C149.41,242.22,148.66,244.31,148.15,246.78Zm93.47,262.68c3.19.6,6.13-.34,9.14-1.28,1.44-.46,2.12-1.1,1.89-2.48-.37-2.26-.88-4.5-1.4-6.73-.05-.22-.52-.48-.81-.5a26.31,26.31,0,0,1-4.86-1.11A20.14,20.14,0,0,1,238,493c-3.3-2.82-6.07-6.26-9-9.45-1.12-1.21-3.64-2.08-4.41-1.22a41.82,41.82,0,0,0-4,5.41c-1.08,1.69-1.58,3.84-2.91,5.25-2.56,2.73-4.91,5.87-8.94,6.79a22.54,22.54,0,0,0-3.26,1.4,47.15,47.15,0,0,1-5.52,2.17c-1.1.3-1.75.64-1.75,1.81a1.7,1.7,0,0,0,1.85,1.91c.63,0,1.24.34,1.87.43a17.36,17.36,0,0,0,3.43.35c1.14-.07,2.25-.63,3.4-.7,2.39-.16,4.79-.13,7.19-.19.54,0,1.27.12,1.58-.17,1.65-1.53,3.63-.92,5.44-.84A30.82,30.82,0,0,1,228.3,507c1.22.29,2.42.7,3.64,1,2.08.51,4.15,1.05,6.26,1.42A20.51,20.51,0,0,0,241.62,509.46ZM230.85,407.92a6,6,0,0,0-.32,1.18c-.28,5.52-.24,11-1.16,16.55a25.82,25.82,0,0,0,.63,10.73c1.21,4.63.1,9.56,1.38,14.41,1.24,4.69.31,9.76,1.08,14.71.86,5.62.44,11.47.27,17.22A5.1,5.1,0,0,0,234.6,487a83.24,83.24,0,0,0,9.4,7.16c1.68,1,3.66,2.44,6.52,1.37a19.27,19.27,0,0,1-1.4-3.27,25.22,25.22,0,0,0-1.08-4.51c-1-2.33-1.15-5-1.66-7.56-.07-.35-.07-.72-.17-1.06-.7-2.32-1.43-4.63-2.12-7-.53-1.78-.94-3.6-1.55-5.35s-1.74-3.42-2.08-5.22c-.68-3.59-1-7.26-1.42-10.89-.1-.77-.14-1.55-.28-2.31-.67-3.56-1.48-7.09-2-10.67-.65-4.28-1.07-8.6-1.59-12.9a2.23,2.23,0,0,0,0-.36c-.75-3.13-1.53-6.25-2.26-9.38-.54-2.33-1-4.66-1.54-7C231.3,408.05,231.2,408,230.85,407.92Zm-31.7-307-.62-.13a10.48,10.48,0,0,0-1.55,1.94c-.59,1.21-.92,2.54-1.46,3.78-1.08,2.48-2.35,4.88-3.3,7.4-1.06,2.84-1.67,5.86-2.83,8.66-1,2.43-2.25,4.74-2.45,7.42,0,.16-.17.31-.22.48-.71,2.05-1.47,4.08-2.1,6.15a19.64,19.64,0,0,0-1,4.37,40.19,40.19,0,0,1-1.48,8.34,70.59,70.59,0,0,0-1.39,8.12,6.21,6.21,0,0,1-.28.66c-.7,2.44-1.48,4.86-2.07,7.32s-.9,5.1-1.58,7.59a40.55,40.55,0,0,1-2,4.68c-.5,1.22-1,2.46-1.39,3.71-.58,1.75-1.05,3.53-1.64,5.28-.68,2-1.43,4-2.16,6-.14.37-.48.67-.55,1-.28,1.55-1,3.3-.59,4.62.58,1.72,2.15,3.1,3.42,4.79a15.26,15.26,0,0,0,2.53-2.76c1.45-2.51,3.05-4.68,5.87-5.88a2.65,2.65,0,0,0,1.78-2.62c-.17-2.95,2.16-6.14,4.92-7.24a12.5,12.5,0,0,0,0-2.12c-.33-1.89-1-3.76-1.08-5.65-.11-7.31.16-14.63-.08-21.93-.19-5.8,1-11.46,1.29-17.2a5,5,0,0,1,.35-1.16c.65-2,1.33-4,2-6a44.53,44.53,0,0,1,1.62-5c1-2.1,2.18-4.08,3.33-6.09.89-1.53,1.16-3.55,3.22-4.21.21-.07.31-.48.47-.72a14.89,14.89,0,0,0,1.82-2.87,9.18,9.18,0,0,0,.46-3.57c-.05-.93-.71-1.81-.86-2.75C199.27,103.82,199.26,102.35,199.15,100.9ZM67.07,227a3.29,3.29,0,0,0,3.38-4.1c-.06-.22-.1-.53-.26-.63a22.54,22.54,0,0,0-4-2.46,25.56,25.56,0,0,1-7.37-4.7c-.85-.72-2.28-3-3.71-.31-.21.4-.43.8-.6,1.22-.54,1.35-.78,2.91-1.64,4a63.85,63.85,0,0,1-6.27,7.08c-2.54,2.44-2.9,3.38-.43,5.61s4.11,5.31,5.63,8.22c1.74,3.32,3.37,6.63,6.37,9a8.8,8.8,0,0,0,2.84,1.6c.52.15,1.25-.47,1.9-.73a5.85,5.85,0,0,0,.84-.26,12.45,12.45,0,0,0,3.14-1.83A56.87,56.87,0,0,0,71.63,243,5.84,5.84,0,0,0,73,240c.17-3.7.09-7.4.07-11.11,0-1.33-.65-2-2.15-1.65-1,2.76-2.1,5.54-3.2,8.45-.34-.18-.79-.26-.89-.49-.83-2-1.6-4.06-2.39-6.1-.56-1.43-.78-3.2-1.78-4.2s-.64-1.8-.57-2.76C64.67,221.91,66.54,223.71,67.07,227Zm237.24,65.38a2.25,2.25,0,0,1,3.34-.69c1.77,1.82,3,1,4.44-.15a4.31,4.31,0,0,1,1.21-.87c.41-.14,1.23-.12,1.34.1.64,1.26,1.61.74,2.18.27,1.44-1.18,1.92-6.15,1.32-7.93a72.47,72.47,0,0,1-2.21-8.58c-.31-1.57,0-3.25-.3-4.83-.53-3.06-1.36-6.07-1.9-9.13-.18-1-.45-1.7-1.49-1.5a60.54,60.54,0,0,0-7.35,1.63,66,66,0,0,0-6.43,2.8,8.2,8.2,0,0,0-.15,1.32c0,3.82.14,7.65.16,11.47a5.72,5.72,0,0,1-.37,2.09c-1.29,3.41-1.08,6.86-.51,10.71l4.38-.73C302.38,289.69,301.55,291.92,304.31,292.35Zm-263,260.3c2-2.14,2-2.14,2.06-4.77,0-1.74,0-3.48.06-5.22,0-.53-.11-1.27.18-1.57,1.31-1.32.92-3,1-4.5.12-2.46-.72-3.34-3.21-3.6a8.24,8.24,0,0,1-2.3-.31c-2.59-1.08-5.17-2.21-7.68-3.47A26.15,26.15,0,0,1,28.33,527c-1.23-.86-2.47-1.73-3.77-2.5-.21-.12-.92.18-1.06.46-1.25,2.5-2.57,5-3.59,7.58a17.3,17.3,0,0,0-1.09,9c.15,1,.84,2.54,1.51,2.67a7.43,7.43,0,0,1,2.6,1.43,10.64,10.64,0,0,0,2.5.9c.55.16,1.61.13,1.64.32.19,1.16,1.06,1,1.83,1.28,1.65.55,3.22,1.34,4.88,1.85.57.18,1.31-.21,2-.34s1.78-.68,2.2-.37A29.42,29.42,0,0,1,41.31,552.65Zm251.56-31.84c-.8-.12-1.18-.3-1.47-.19-.92.34-1.78.82-2.69,1.17-1.52.6-3.11,1-4.57,1.75-2,1-3.76,2.42-5.82,3.11a34.69,34.69,0,0,1-7.53,1.44,38,38,0,0,1-6.83,0,3.75,3.75,0,0,0-3.48,1.82c-.61.79-1,1.74-1.53,2.58-1.16,1.83-2.44,3.59-3.49,5.48a2.8,2.8,0,0,0,.23,3.46c1.73-.79,3.35-1.47,4.9-2.26,1.72-.88,3-.41,3.56.6,1.73-.06,3.29-.58,4.32,0,1.72.88,2.45,1,4.06,0,.66-.42,2.3-.53,2.53-.17,1.29,2,3.21,1.89,5.11,2,1.7.13,4.06-1.57,4.67-3.14,1.26-3.26,2.58-6.51,4-9.71.5-1.15,1.43-2.1,2-3.23C291.56,524.06,292.14,522.51,292.87,520.81ZM180.53,238.55c-1.63-.4-2.52-2.44-4.61-1.14,0,1.23.11,2.61,0,4a6.65,6.65,0,0,1-3.42,5.5l-2.86,1.54c-2.39,1.28-4.52,3.12-7.36,3.52-.31,0-.6.34-.9.52a47.61,47.61,0,0,1-4.87,2.85c-1.7.76-2.43,2.24-1.45,3.72.7,1.05,1.52,2.05,2.11,3.16,1.4,2.65,2.7,5.35,4.13,8.2,1.08-.79,2-1.13,2.29-1.75a37.72,37.72,0,0,0,1.25-4.64c.08-.32.22-.63.33-.95.28-.76.56-1.53.78-2.16-1.1-.38-2-.42-2.34-.86a21.47,21.47,0,0,1-2.37-3.39c-.42-.71-.19-1.2.76-1.32,1.6-.2,1.72,1.47,2.72,2a3,3,0,0,1,.65.67,3.93,3.93,0,0,0,.57-.95c.14-.52,0-1.13.23-1.59.46-.93,1.07-1.78,1.62-2.66l.53.29a13.75,13.75,0,0,1,.12,2.3c-.29,2.81.56,5.73-1,8.45-.59,1,0,2.48-1.08,3.55-.43.42-.31,1.49-.25,2.25,0,.22.89.64,1,.53a10.45,10.45,0,0,0,2.33-2.16q2.63-3.75,5-7.65a11.94,11.94,0,0,0,1.37-3.25c.57-2.25,1-4.54,1.45-6.81a7.46,7.46,0,0,1,.26-.84,21.74,21.74,0,0,0,.89-2.53c.52-2.4.94-4.82,1.44-7.22A5.27,5.27,0,0,1,180.53,238.55Zm-123.94-36a11,11,0,0,0,.28-1.3c.07-4.51.6-8.94-.82-13.5a47.82,47.82,0,0,1-1.55-8.24c-.24-2-1.8-2.88-2.69-4.3a.69.69,0,0,0-.64-.13c-1,.5-1.87,1.11-2.84,1.58a20.11,20.11,0,0,1-4.43,1.93c-1.5.32-2,.94-1.93,2.36.21,2.62.22,5.16,1.15,7.79a39.75,39.75,0,0,0,3.13,5.81,16,16,0,0,0,4.49,4.71A45.59,45.59,0,0,0,56.59,202.53Zm104.93,95.3c1.72-2,3.55-3.73.85-6-.08-.06,0-.24-.09-.34-1.33-2.46-2.54-5-4-7.34-1.61-2.53-3.5-4.89-5.48-7.6a12.26,12.26,0,0,0-.34,2c0,1.85,0,3.71.13,5.57.13,2.53,0,5.2,3.08,6.35.1,0,.16.17.24.26Zm2.78,10.45.65,0c-.65-1.46-1.28-2.92-1.95-4.37a10.18,10.18,0,0,0-1.11-2.09C160,299.37,158,297,156,294.62a3.75,3.75,0,0,0-.74-.55c-.17.34-.53.72-.47,1,.46,2.4.87,4.82,1.56,7.15.58,1.91,1.62,3.68,2.28,5.57.53,1.5,2.22,2.68,3.26,2C162.7,309.34,163.49,308.8,164.3,308.28Zm23.59-70.11c1.24-3.79,2.41-7.35,3.79-11.55-1.09.65-1.8,1.11-2.55,1.5-1.83.94-3.7,1.79-5.5,2.77-1.65.89-3.25,1.89-5,3V235ZM169.36,492.81l.58.6c2.08-.44,4.42.84,6.28-1.1,3.09.4,2.11-1.8,2.13-3.34,0-.53-.09-1.05-.18-2.16-2.51,1.14-4.86,2-7,3.26C170.33,490.57,170,491.87,169.36,492.81ZM168,201.1c-2,2.25-2,2.25-2.13,5.78,0,.48.1,1.3.34,1.38.58.18,1.55.27,1.85-.06a4,4,0,0,0,1.24-2.53A24.16,24.16,0,0,0,168,201.1Zm5.27,42.09c.15-1.32.32-2.5.39-3.68,0-.73.21-1.73-.18-2.14a2.18,2.18,0,0,0-2.08-.33,3.56,3.56,0,0,0-1.6,2C169.52,240.09,171.82,242.72,173.28,243.19Zm8.69-1.4a32.69,32.69,0,0,0,3.69.93,1.15,1.15,0,0,0,1.22-1.62c-.66-1.2-3-1.95-4.74-1.48Zm12.77-44.54.66,0a8,8,0,0,1,.49-2.45c1.11-1.89,1.06-2.29-1.17-3.76A16.3,16.3,0,0,0,194.74,197.25Z"/><path class="cls-1" d="M47.07,317.35c2.45-.22,4.32,1.09,6.3,2.27,1.8,1.08,3.76,1.88,5.63,2.85.62.32,1.14,1,1.78,1.11,1.23.26,2-.2,2.5-1.59a61.83,61.83,0,0,0,2.52-13.83c.24-2.6,1.29-5.14,2-7.7.07-.29.15-.58.24-.86q.83-2.7,1.66-5.38l.5,0a15.07,15.07,0,0,1,.24,1.62c0,1.32-.07,2.65,0,4,.28,3.83-.2,7.66.92,11.52.79,2.74.37,5.83.5,8.76A5.1,5.1,0,0,0,76,325c2.07.4,4.32.41,6.18,1.27,2.23,1,4.66.57,6.72,1.35,2.75,1.05,5.64.27,8.2,1.12,5.36,1.78,10.77.92,16.17,1,3.83.06,7.66-.07,11.48-.3a80.93,80.93,0,0,0,9.21-1.1,16.56,16.56,0,0,0,3.88-1.75,4.25,4.25,0,0,1,.64-.32c1.87-.5,3.75-1,5.62-1.49a10.35,10.35,0,0,0,1.66-.88c1.2,1.33,2.49,2.89,3.93,4.29a11.86,11.86,0,0,0,3.45,2.57,4.72,4.72,0,0,0,5.17-1.15c2.27-2,4.65-4,6.9-6.06a11.12,11.12,0,0,0,1.46-2.44l-5.79-9.67,3-.23c1.45,2.37,2.73,4.4,3.94,6.47a28.06,28.06,0,0,0,5.2,6.55c.9.85,1.08,2.43,1.72,3.61.78,1.46,1.69,2.85,2.55,4.27,1.15,1.89,2.43,3.71,3.44,5.67s1.73,4.14,2.67,6.18c1.08,2.34,2.31,4.62,3.39,7,.48,1.05.71,2.2,1.11,3.28.9,2.43,1.78,4.88,2.77,7.28.58,1.39,1.36,2.69,2,4.05a23,23,0,0,1,1.47,3.29c.59,1.88.94,3.82,1.51,5.7.47,1.55,1.11,3.05,1.68,4.56.25.67.57,1.32.79,2,.76,2.34,1.48,4.69,2.22,7a3.34,3.34,0,0,1,.18.5c.44,2.35.5,4.86,1.41,7,1.26,3,.63,6.18,1.51,9.05.73,2.43.6,4.79.91,7.17.43,3.42.49,7,1.49,10.2.63,2,.65,4,1.07,6,.48,2.19,1.46,4.27,2.13,6.42.55,1.74.93,3.54,1.48,5.29.69,2.2,1.54,4.34,2.21,6.54.59,1.88,1,3.82,1.54,5.71.65,2.21,1.4,4.39,2.11,6.58.48,1.49.94,3,1.49,4.44.73,1.94,1.55,3.86,2.31,5.8a2.31,2.31,0,0,1,.17.86c0,2.08,1.25,3.67,2.06,5.42a32.33,32.33,0,0,1,1.64,3.48c.56,1.69-.92,2.58-1.88,3.44a20.52,20.52,0,0,0-4.24,5.86c-2,3.7-4.1,7.23-8,9.35a22.28,22.28,0,0,1-6.15,2.55c-1.23.26-2.26,1.37-3.46,2a14.85,14.85,0,0,1-3.69,1.38c-2.93.55-5.75,1.87-8.86,1.2a7.09,7.09,0,0,1-5.77-6.88,23.16,23.16,0,0,0-2.13-8.56,2.24,2.24,0,0,1-.11-.34c-.5-2.31-.9-4.64-1.51-6.92s-1.42-4.55-2.14-6.82a5,5,0,0,1-.2-.49c-.49-2.27-.88-4.56-1.51-6.79-.48-1.71-1.25-3.35-1.9-5,0-.11-.17-.19-.19-.3-.49-2.22-.9-4.46-1.49-6.66-.63-2.36-1.41-4.68-2.15-7-.43-1.36-1-2.67-1.37-4-.55-2-.9-4.11-1.49-6.13s-1.44-4-2.08-6-1-3.9-1.61-5.82c-.46-1.49-1-2.94-1.6-4.4-.66-1.74-1.33-3.49-2.06-5.2s-1.43-3.15-2.15-4.73a2.78,2.78,0,0,1-.2-.68,18.87,18.87,0,0,0-3.42-8.09c-1.18-1.77-1.93-3.83-3-5.71-.88-1.58-1.9-3.09-2.86-4.63-1.07-1.73-2.17-3.44-3.23-5.18s-1.95-3.3-3-4.92a68,68,0,0,0-4.6-6.91c-2.83-3.44-4.52-7.67-8-10.7-1.89-1.64-2.95-4.21-4.48-6.3-.82-1.14-1.86-2.11-2.76-3.2-1.48-1.79-3-3.6-4.39-5.42s-3.08-3.92-4.6-5.9c-.58-.77-1.05-1.62-1.69-2.34a19,19,0,0,0-2.16-1.77c-.64,2.58-1.06,4.6-1.65,6.57s-1.36,3.8-2,5.71c-.55,1.62-1,3.27-1.6,4.87a23.08,23.08,0,0,1-1.24,2.49c-1.09,2.13-2.24,4.24-3.28,6.4a22.22,22.22,0,0,0-1.36,3.62c-.58,2.09-1,4.23-1.55,6.31s-1.26,3.93-1.9,5.89c-.08.23-.27.42-.31.65-.5,2.43-.89,4.89-1.49,7.29-.56,2.24-1.34,4.42-2,6.63-.06.22-.23.41-.27.63-.46,2.7-.88,5.41-1.35,8.12a49.28,49.28,0,0,1-1.48,7.8A58.69,58.69,0,0,0,84,424.15a75.81,75.81,0,0,1-2.5,9.46q-1.11,3.88-2.38,7.74c-.61,1.87-1.35,3.71-2,5.56a3.34,3.34,0,0,0-.14.52c-.5,2.84-.85,5.71-1.53,8.5a48.85,48.85,0,0,1-2.1,5.62c-.45,1.19-1,2.37-1.32,3.59-.55,1.94-.91,3.93-1.48,5.87-.62,2.1-1.38,4.15-2.08,6.22a4.12,4.12,0,0,0-.24.67c-.47,2.39-.87,4.79-1.42,7.16A34.8,34.8,0,0,1,65.52,489c-.7,1.95-1.44,3.89-2.16,5.83a2.36,2.36,0,0,0-.1.53c-.34,3.77-1.25,7.46-1.67,11.24-.38,3.44-.51,7.3-3.13,10.3-.83,1-.92,2.52-1.5,3.73-1.27,2.59-1.82,5.44-3.24,8-.93,1.71-1.18,3.58-3.67,3.64a25.36,25.36,0,0,1-4.08-.44c-2.54-.66-5-1.53-7.52-2.35a27.72,27.72,0,0,1-3.79-1.4c-1.74-.88-3.37-2-5.08-2.91-2.41-1.31-4.07-3.6-6.68-4.8a6,6,0,0,1-3.27-3.78,18.91,18.91,0,0,0-1.49-3.21,8.9,8.9,0,0,1,.08-7.92,4.1,4.1,0,0,0,.21-.87c.48-2.32.84-4.67,1.47-6.95s1.46-4.23,2.21-6.34a1,1,0,0,0,0-.17c.47-2.33.57-4.82,1.52-6.92s.57-4.27,2.11-6.09c.83-1,1-2.56,1.31-3.91.53-2.7.94-5.43,1.35-8.16.52-3.46.49-7.09,1.62-10.33.86-2.5.59-4.88,1-7.29.44-3,.65-6,1.61-8.85a35.24,35.24,0,0,0,.86-4c.64-2.95,1.39-5.89,2.09-8.83.1-.4.2-.8.26-1.21.46-3.08.55-6.27,1.49-9.2.68-2.12.6-4.43,1.41-6.3,1.24-2.86.51-5.69,1-8.48.19-1.17.84-2.26,1-3.43.51-3.67,1-7.36,1.28-11.05a31.39,31.39,0,0,1,2.46-10.39,1.16,1.16,0,0,0,0-.18c.43-2.71.78-5.43,1.31-8.12,2-10.18.57-20.53,1.6-30.72.53-5.31.74-10.57.75-15.86a20.44,20.44,0,0,0-1-4.52ZM38,490l.62.87a6,6,0,0,0,1.75,0c.5-.15.86-.69,1.34-.95,2-1.06,4.06-1.92,5.92-3.13a64.84,64.84,0,0,0,6.24-4.7,28,28,0,0,0,4.22-4.13c1.73-2.2,3.15-4.63,4.75-6.92a2.42,2.42,0,0,0-.34-3.38c-.59.93-1.16,1.87-1.77,2.78-1.53,2.28-2.92,4.67-4.66,6.79C53.76,480,50.7,482,47.6,483.91c-2.49,1.58-4.6,3.74-7.51,4.7A9.94,9.94,0,0,0,38,490ZM137.7,347.83c1.87,1,3.69,1.91,5.49,2.87a39.08,39.08,0,0,1,5.24,2.89c2.77,2.1,5.3,4.51,8,6.67.46.37,1.35.2,2,.27-.25-.7-.3-1.63-.8-2.07-1.24-1.09-2.85-1.79-4-2.95-3.11-3.12-6.21-6.18-10.69-7.28-.24-.06-.43-.35-.64-.52A4.41,4.41,0,0,0,137.7,347.83ZM193,404.28l-.62-.21c-.9,2-2,3.88-2.66,5.91a24.38,24.38,0,0,1-5.47,8.45c-.47.52-1.38.62-2,1-1.8,1.07-3.58,2.18-5.35,3.29a9.29,9.29,0,0,0-.91.75c.33.15.66.44,1,.44a7.54,7.54,0,0,0,5.24-2.05,6.44,6.44,0,0,1,1.87-1.43c2.9-1,4-3.64,5.49-5.86,1.19-1.8,1.61-4.12,2.83-5.9A5.25,5.25,0,0,0,193,404.28ZM47.56,417.43l-.45.53c0,.29-.09.67,0,.85,1.7,2.11,3.31,4.31,5.19,6.25C55,427.79,58,430.19,60.51,433c.83.91,1.6,1.13,2.35.77.41-.2.34-1.38.49-2.13-1-.17-1.8-.07-2.23-.43a35.48,35.48,0,0,1-4-3.89c-2.27-2.68-4.35-5.53-6.66-8.17C49.79,418.33,48.55,418,47.56,417.43ZM31.63,513.8l-.67.34a5,5,0,0,0,.83,1.51c.8.68,1.82,1.1,2.61,1.79,1.32,1.16,2.65,2.12,4.53,2a2.42,2.42,0,0,1,1.69.38c1.22,1.34,2.56.74,3.9.66.21-1.6-.39-2.3-1.85-2.31a7.55,7.55,0,0,1-2.84-.25C37.05,516.66,34.36,515.19,31.63,513.8ZM184.3,378.36c-1.36-.38-1.85.17-2.33,1.32a24.85,24.85,0,0,1-2.62,4.55,16.15,16.15,0,0,1-2.3,2.16C179.87,387.16,184.49,381.77,184.3,378.36Z"/><path class="cls-1" d="M75.53,239c0-3.31,0-6.6,0-9.89,0-.82-.65-1.61-.85-2.45-.36-1.46-1.78-2.42-1.61-4.23.07-.76-1.08-1.75-1.84-2.46a51.52,51.52,0,0,0-4.53-3.83,23.9,23.9,0,0,0-3-1.48,25.39,25.39,0,0,1-4.94-2.89,3.28,3.28,0,0,1-.24-3.22,2.1,2.1,0,0,0,.09-3,20.12,20.12,0,0,0,.67-3.19,94.12,94.12,0,0,0,0-11.14,69.25,69.25,0,0,0-2-9.54c-.46-1.93-1.06-3.83-1.63-5.73a3.29,3.29,0,0,0-.54-1c-.68-.9-1.2-1.55.14-2.54A38,38,0,0,0,61,167.22c2.52-2.85,4.75-6,7.14-8.94,2.24-2.8,4.56-5.53,6.79-8.34a5.35,5.35,0,0,0,.56-1.6c-1.81-1.3-2.78.28-3.38,1-2,2.43-3.6,5.15-5.42,7.72-.7,1-1.58,1.87-2.37,2.8-1.63,1.9-3.16,3.89-4.9,5.69-2.06,2.15-3.91,4.51-6.67,6-2.44,1.3-4.62,3.11-7,4.46A28.31,28.31,0,0,1,41,177.64c-.53-2.77-.93-5.2-1.48-7.59a6.53,6.53,0,0,0-1.13-2,15.55,15.55,0,0,0-1.83-2.53c-.38-.37-1.16-.33-1.9-.51-.08,1.22-.45,2,.8,2.81.87.57,1.18,2.05,1.63,3.17a17.44,17.44,0,0,1,.56,2.57,7.21,7.21,0,0,1-2.34-.31,5.72,5.72,0,0,0-5.69.06,5.11,5.11,0,0,1-5.09-.21c-1.4-.89-2.95-1.15-5.05.22L23.58,175a6.25,6.25,0,0,0,1.26.53c1.06.16,2.32.65,3.17.27a9.2,9.2,0,0,1,9.29.6,2.39,2.39,0,0,1,1,1,10.45,10.45,0,0,1,1.11,3.75,21.21,21.21,0,0,0,1.69,9,39,39,0,0,0,4.1,6.92,16.74,16.74,0,0,0,3.08,3,11.19,11.19,0,0,0,3,2.08c2.58,1,4.5,2.53,5,5.24a5.78,5.78,0,0,1-.94,3.33c-.94,1.73-2.35,3.24-3.14,5a27.6,27.6,0,0,1-6.86,9.93C43.79,227,42.43,228.59,41,230c-2.33,2.29-4.68,4.55-7,6.83-1.41,1.39-2.8,2.79-4.22,4.17-1.2,1.16-2.67.94-4.1.09-2.77-1.65-3.85-4.25-4.91-7.06-.8-2.13-2.22-4-3.19-6.09-.64-1.38-.92-2.92-1.45-4.36-.69-1.84-1.47-3.65-2.2-5.48a2.22,2.22,0,0,1-.18-.49c-.44-2.23-.77-4.49-1.33-6.69-.61-2.39-1.43-4.72-2.17-7.08a42.89,42.89,0,0,1-1.39-4.34c-.58-2.87-.84-5.8-1.49-8.64a55.6,55.6,0,0,0-2.12-6,2.78,2.78,0,0,1-.18-.48c-.47-3.27-1-6.54-1.37-9.81-.45-3.69-.82-7.39-1.17-11.08-.1-1.07,0-2.16,0-3.24-.15-2.64,1.52-4.4,2.95-6.27s3-3.72,4.48-5.55c2.23-2.71,4.44-5.45,6.74-8.1a53,53,0,0,1,4.36-4.5c3.07-2.8,6.23-5.51,9.36-8.24,1.37-1.19,2.76-2.36,4.17-3.49,2.11-1.69,4.38-3.2,6.34-5a62,62,0,0,0,4.76-5.46c2.68-3.17,5.28-6.41,8-9.49,2-2.25,4.28-4.28,6.39-6.46s4.31-4.59,6.47-6.88c2.66-2.83,5.21-5.79,8.07-8.4,1-.94,2.8-1.21,4.29-1.49,3.23-.6,6.56-.74,9.71-1.58,2.06-.55,3.79-2.22,5.82-3,2.36-.9,3.6-2.92,5.28-4.49a12.38,12.38,0,0,0,1.74-2.63c1.35-2.16,3.17-2.42,4.72-.34a62.37,62.37,0,0,1,4.13,6.86c1.23,2.19,2.35,4.44,3.47,6.68a2.84,2.84,0,0,1,.18,1.24,10.2,10.2,0,0,0,2.12,5.82,11.06,11.06,0,0,1,1.29,3.17c.58,2,1,4,1.59,6.06.67,2.39,1.42,4.75,2.09,7.14.57,2,1,4,1.6,6.06.63,2.2,1.33,4.39,2,6.58.08.28.27.54.33.83.46,2.23.76,4.51,1.38,6.69.56,2,1.47,3.83,2.21,5.74a2.25,2.25,0,0,1,.13.51c.47,2.31.82,4.66,1.45,6.92.49,1.77,1.36,3.42,2,5.15.5,1.29,1,2.6,1.36,3.93.52,1.78.93,3.59,1.42,5.38.74,2.68,1.5,5.34,2.26,8a1.16,1.16,0,0,1,0,.18c.51,2.19,1,4.4,1.55,6.58s1.5,4.57,2,6.92a18.32,18.32,0,0,1-.1,4.43c0,.28-.34.58-.3.82.54,2.74,1.15,5.47,1.69,8.21a15.85,15.85,0,0,1,.35,3,41.56,41.56,0,0,0,2.31,12,10.45,10.45,0,0,1,.16,1.79c.75,6.3,1.61,12.59,2.22,18.9.31,3.21,0,6.49.32,9.69.41,3.74-1.13,7.13-1.49,10.72-.07.66-1.31,1.61-2.1,1.71a49.35,49.35,0,0,1-7,.25,8.11,8.11,0,0,1-2.06-.8,11,11,0,0,0-1.88-.45c-4.16-.59-7.65,1.2-11.2,3a8.34,8.34,0,0,1-3.89.36c-.89,0-1.74-.61-2.64-.73-4.15-.57-8.43-.6-12.41-1.74-3.08-.88-6.12-.53-9.11-1.11a51.94,51.94,0,0,1-6.18-2c-1.84-.6-3.73-1.05-5.53-1.72C79.83,240.9,77.79,240,75.53,239Zm27-150.37c.43,1.16.81,2.24,1.23,3.3s1,2.35,1.48,3.54c.75,2,1.47,3.94,2.19,5.92.51,1.39,1.11,2.76,1.48,4.19.61,2.41,1.06,4.86,1.58,7.27h2.41c-.26-1.56-.46-2.94-.75-4.3-.12-.61-.46-1.17-.62-1.78a57.63,57.63,0,0,0-1.5-5.85c-1-2.69-2.28-5.27-3.42-7.9a21.14,21.14,0,0,1-1.18-3.19C105.07,88.53,104.48,87.93,102.5,88.63Zm16.58,45.71c0,.61-.2,1.3,0,1.52,1.37,1.25,1,2.9,1.17,4.42a3.33,3.33,0,0,0,.16.51c.73,2,1.57,3.88,2.14,5.88.64,2.21,1,4.49,1.55,6.73a2.75,2.75,0,0,0,1,1.45c.25.19,1.25-.12,1.25-.18A28.76,28.76,0,0,0,126,149c-.42-1.81-1.66-3.44-2-5.25a54.27,54.27,0,0,0-2.34-8.38C121.05,133.91,120.37,133.9,119.08,134.34ZM84.44,201.25l.09.48c1.82,1,3.68,1.88,5.44,2.94,2.33,1.4,4.57,3,6.86,4.41,1.53,1,3.06,1.94,4.63,2.84.31.18,1.08.16,1.13,0,.19-.45.39-1.2.16-1.46a11.77,11.77,0,0,0-2.33-2c-2.42-1.59-4.83-3.21-7.35-4.62A50.31,50.31,0,0,0,86.7,201C86.07,200.75,85.2,201.15,84.44,201.25Zm.18-73.58-.29-.11a10.67,10.67,0,0,0,0-1.6.92.92,0,0,0-.52-.61.78.78,0,0,0-.7.33c-.89,2.51-1.72,5-2.59,7.55-.66,1.93-1.36,3.86-2,5.8-.11.31-.33.71-.21.93s.56.37.88.4c1.14.13,2.28-1.13,2.52-2.74a14.63,14.63,0,0,1,.3-2.12C82.8,132.88,83.72,130.28,84.62,127.67Zm4.23-29.38c-2.11,2-2,2-2.23,4.1-.13,1.22-.63,2.4-.86,3.62a2.87,2.87,0,0,0,.16,1.7,1.32,1.32,0,0,0,1.27.36A2.78,2.78,0,0,0,88,106.7a15.06,15.06,0,0,1,.56-2.2C89.57,102.48,89.28,100.49,88.85,98.29Z"/><path class="cls-1" d="M194.68,185l-4.62-.34c-2.1-4.06-1.94-8.41-1.9-12.71.09-9.58.2-19.17.45-28.76a27.53,27.53,0,0,1,1.11-7.1c.86-2.89,2.18-5.64,3.31-8.45.91-2.24,1.68-4.56,2.8-6.69a38.89,38.89,0,0,1,3.64-5.39c2-2.65,4.08-5.26,6.25-7.78,1.83-2.12,3.91-4,5.76-6.14a44.52,44.52,0,0,0,4.05-5.33c1.7-2.65,3.18-5.44,4.74-8.18a1.12,1.12,0,0,0,.15-.5c.12-2.66,1.82-4.92,2.21-7.34.43-2.63,2.11-4.39,3.12-6.52a24.24,24.24,0,0,0,2.41-7.46c.35-2.72,1.39-5.36,2-8.06.27-1.12.32-2.29.53-3.86a20.87,20.87,0,0,1,3.66,4.18c1.45,2.09-.08,5,2.26,6.54a15.78,15.78,0,0,0,2.52,1.68,13.64,13.64,0,0,0,4.69,1.42,32.67,32.67,0,0,1,8.93,1.55,16.24,16.24,0,0,1,6.88,3.9c1.73,1.73,2.85,4.06,4.15,6.19,1.16,1.89,2.23,3.84,3.28,5.79A30.07,30.07,0,0,1,268.68,89q1.43,3.62,2.73,7.27c.86,2.39,1.56,4.83,2.48,7.19a27.77,27.77,0,0,0,1.95,3.48,2.81,2.81,0,0,1,.3.6c.92,2.82,1.51,5.8,2.82,8.42,1.07,2.15,3,3.89,4.56,5.78s3.3,3.68,4.81,5.64a35.11,35.11,0,0,1,3.41,5.24,46,46,0,0,1,1.86,5.09c.66,1.76,1.37,3.51,2.07,5.26.06.16.2.29.24.46.5,2.06.92,4.16,1.53,6.2s1.43,3.88,2.06,5.85,1,3.81,1.62,5.68c.57,1.72,1.31,3.39,2,5.06.39.92.93,1.78,1.32,2.71.53,1.24,1,2.51,1.45,3.78.77,2.06,1.54,4.12,2.28,6.2.49,1.36,1,2.72,1.37,4.1.5,1.71.92,3.45,1.38,5.17.75,2.79,1.52,5.58,2.24,8.39a8.13,8.13,0,0,1,.11,1.79c.09,7.73.06,15.46.3,23.19.24,7.22.8,14.44,1.15,21.66.12,2.51-.05,5,.06,7.55a7.59,7.59,0,0,0,.76,2.78c.85,1.79-.87,2-1.61,2.8-.18.19-.55.21-.84.27-2.23.49-4.5.82-6.67,1.48a34.52,34.52,0,0,0-4.49,2.11,2,2,0,0,1-.34.12c-2.56.8-5.12,1.63-7.71,2.36a16.17,16.17,0,0,1-2.82.25,19.73,19.73,0,0,0,0-2.57c-.42-2.9-.58-5.9-1.47-8.65a55.51,55.51,0,0,1-2.35-8.65c-.34-2.3-1.4-4.5-2.12-6.75a3.19,3.19,0,0,1-.14-1.06c.11-2.41-1.34-4.28-2.08-6.39a30.08,30.08,0,0,1-1.9-9.11,45.47,45.47,0,0,0-1.21-9.37c-.47-2-1.76-3.73-2.74-5.56-1.24-2.33-2.9-4.4-3.4-7.15a52.76,52.76,0,0,0-2.18-6.77,8.34,8.34,0,0,1-.16-.87c-.34-1.58-.7-3.15-1-4.73-.52-2.47-.9-5-1.58-7.4a30.76,30.76,0,0,0-2-4.31c-.56-1.22-1.08-2.45-1.64-3.67s-1-2.38-1.64-3.49a62.82,62.82,0,0,0-3.55-5.77c-1.7-2.33-3.59-4.51-5.41-6.74s-3.68-4.67-5.69-6.86a36.67,36.67,0,0,0-4.1-3.34c-.48,1.34-.77,1.9.27,2.83a33.77,33.77,0,0,1,6.1,6.61c1.72,2.69,4.27,4.58,6,7.2,1.1,1.69,2,3.5,3,5.25,1.12,1.93,2.35,3.81,3.38,5.8a37.07,37.07,0,0,1,1.63,4.14c.71,1.88,1.4,3.77,2.1,5.64.07.17.22.31.25.47.46,2.41.8,4.85,1.37,7.23.62,2.58,1.6,5.09,2.15,7.68a11.19,11.19,0,0,1,.2,5.13c-.33,1.15-1.84,2-2.92,2.9-2.31,1.85-4.64,3.68-7.05,5.4-1.74,1.24-3.6,2.3-5.42,3.42s-3.69,2.33-5.61,3.35a41.9,41.9,0,0,1-4,1.64c-.87.37-1.74.76-2.59,1.17-1.53.72-3,1.51-4.56,2.19-1.06.47-2.16.83-3.26,1.21-1.58.54-3.21.95-4.74,1.6-2.37,1-4.7,2.11-7,3.28-4.68,2.41-9.54,3.71-14.8,2.67a9.14,9.14,0,0,1-3.25-1.49c-.77-.53-1.21-.29-2-.12a29.55,29.55,0,0,1-6,.42c-.3,0-.93-.9-.85-1.26.36-1.61-2.73-2.77-.58-4.54,1.13-.93,2.29-1.82,3.41-2.76,1.72-1.44,2.43-3.52,3.22-5.47,2-4.83,1.24-9.94,1-14.9-.14-2.51-1.53-5-2.7-7.35-.34-.67-1.88-.74-2.59-1a25.52,25.52,0,0,0-3.19-4.24,2.86,2.86,0,0,1-1-2.89,2.92,2.92,0,0,0,2.42-2.63,2.5,2.5,0,0,1,.72-1.25c1.27-1.4,2.57-2.77,4-4.26C198.66,176,194.3,181.36,194.68,185ZM234.1,74.64c-1.47-.19-2.29.21-2.43,1.71a5,5,0,0,1-.55,1.79c-.59,1.14-1.38,2.2-1.88,3.38-.66,1.53-.88,3.29-1.72,4.69A24.43,24.43,0,0,0,224,94.76a2.68,2.68,0,0,1-.21.68c-.69,1.35-1.43,2.67-2.07,4-.94,2-1.8,4.06-2.7,6.09-.39.89-.84,1.76-1.14,2.68-.1.3.21.73.33,1.1.41-.15,1-.17,1.2-.47a58.76,58.76,0,0,0,3.42-5.42,53.76,53.76,0,0,0,2.36-5.38,16.26,16.26,0,0,0,1.35-3.86c.39-2.85,2-5.08,3.3-7.49a37.38,37.38,0,0,0,1.72-3.89c.57-1.43.71-3.2,1.67-4.25C234.48,77.27,234,76,234.1,74.64Zm11.43,107.49.53.22c.57-.68,1.4-1.28,1.64-2.06.6-2,.93-4,1.38-6a2.54,2.54,0,0,1,.24-.46c.7-1.54,1.5-3,2.05-4.63a12.68,12.68,0,0,1,3.39-5.52c.38-.35.05-1.48.05-2.25-1.12.34-2.47-.74-3.47.87a6.72,6.72,0,0,1-3,2.6c-1.61.63-3.13,1.85-5.1,1.41-.42-.1-.94.21-1.92.47,2.74,1.69,5.2.43,7.93.76-.65,2.12-1.26,4.12-1.88,6.11-.37,1.16-.5,2.52-1.21,3.41C244.75,178.74,245.42,180.41,245.53,182.13Zm-40-51-.65-.32c-3.36,1.53-4.86,4.71-6.6,7.63-.73,1.24-.93,2.8-1.67,4a21.77,21.77,0,0,0-2.07,6.38,12.29,12.29,0,0,0-.25,3c0,1.67.09,3.34.26,5,0,.21,1,.56,1,.5a5.14,5.14,0,0,0,1.15-2.08c.33-3.31-.32-6.71,1.33-9.9.74-1.45.68-3.37,1.56-4.69,1.56-2.33,2.15-5.25,4.56-7.08C204.88,133.07,205.11,131.93,205.54,131.08Zm87.4,66.29c-.1.06-.26.09-.29.17a3.22,3.22,0,0,0-.27.83c-.41,2.92-.93,5.82-1.15,8.75-.21,2.67,0,5.37-.12,8-.08,1.88.87,2.06,2.42,1.72,0-.38.09-.72.09-1.06,0-3.7,0-7.4.09-11.1a7.76,7.76,0,0,1,.47-2.43C294.91,200.36,294.6,198.94,292.94,197.37Zm-10.81-14.83.68-.52c-.44-1.12-.86-2.25-1.33-3.36a17.2,17.2,0,0,1-1.44-3.32c-.54-3-.84-6-1.24-9a1,1,0,0,0,0-.35c-.15-.29-.34-.56-.51-.84a9.67,9.67,0,0,0-.89.65c-1.33,1.28-.54,2.56-.22,4,.58,2.67-.14,5.57,1.54,8.08.87,1.3,1.49,2.76,2.32,4.1C281.19,182.27,281.74,182.35,282.13,182.54Zm-65.67,27.63c0-.28.1-1.25-.28-1.56a5.34,5.34,0,0,0-2.74-1.23c-2.12-.18-4.26,0-6.38,0-.36,1.46-.14,2,1.49,2C211.1,209.39,213.64,209.86,216.46,210.17Zm-15.88-22c1.68.52,2.07-.19,2.71-1.15a22.35,22.35,0,0,1,4.07-4.56c1.06-.92,1.29-1.25.07-2.51C204.93,182.49,201.77,184.43,200.58,188.21Zm103.85,5-8.41,1.5c.13,1,.21,1.59.26,1.94,1.26-.26,2.3-.54,3.35-.65a25.5,25.5,0,0,1,3,0C304.14,196,305,195.48,304.43,193.25Zm-87.49-2.77c-.44-.27-.83-.69-1.25-.72-3.78-.27-6.56,1.47-9.1,4.78,1.28-.06,2.08.91,3-.58a5.67,5.67,0,0,1,2.62-1.78C213.62,191.54,215.15,191.11,216.94,190.48Zm84.68-3.5c-.73-.4-1.27-.87-1.45-.76a23,23,0,0,0-2.57,2q-1.64,1.38-3.21,2.82a9.07,9.07,0,0,0-.84,1c.51.08,1.17.41,1.51.21,1.6-1,3.13-2.09,4.63-3.22A17.65,17.65,0,0,0,301.62,187Z"/><path class="cls-1" d="M229.92,481a37.07,37.07,0,0,1-3.69-2.88,8.05,8.05,0,0,1-1.72-2.74c-.63-1.6-1-3.31-1.57-4.93s-1.34-3.18-2-4.77a4.3,4.3,0,0,1-.24-.48c-.51-1.88-.94-3.78-1.53-5.63-.66-2.05-1.49-4-2.18-6.08-.48-1.39-.9-2.81-1.27-4.23-.52-2-.89-4-1.49-5.91s-1.54-3.95-2.17-6-1-3.93-1.52-5.89c-.69-2.64-1.5-5.25-2.09-7.91-.32-1.45,0-3.1-.51-4.44-1.3-3.34-.43-6.92-1.31-10.17s-.59-6.36-1.11-9.48a43.48,43.48,0,0,0-2.1-6.43c-.05-.17-.12-.33-.16-.51-.49-2.47-.88-5-1.5-7.42a68.64,68.64,0,0,0-2.62-8.7c-.82-2.05-1.52-4.14-2.34-6.16-1.45-3.55-2-7.48-4.49-10.65a13.5,13.5,0,0,1-1.52-3.81c-.94-2.67-1.72-5.41-2.81-8-.87-2.09-2.18-4-3.13-6.06a3,3,0,0,1,0-2.25,24.31,24.31,0,0,0,2.45-8.69c.16-2.07,1.35-4.05,2.08-6.07a2.67,2.67,0,0,0,.11-.34,58.59,58.59,0,0,1,1.35-7.27c1.6-5.18,1.12-10.5,1.5-15.76.09-1.21.83-2.37,1.37-3.8,2.49,2.53,4.62,5,7.09,7.08,2,1.68,3.93,3.53,6.61,4.29a21.25,21.25,0,0,1,3.77,2,2.08,2.08,0,0,0,.84.27c8.72.81,17.43,1.82,26.2,1.22a19.39,19.39,0,0,0,5.18-1.34c.46-.16.78-1.12.87-1.76.43-2.81.26-5.83,1.24-8.42,1.35-3.57.35-7.25,1.23-10.68.94-3.66,1-7.31,1.24-11a24.52,24.52,0,0,1,1.19-5.6c.16-.53,1.15-.8,1.55-1.05,1.12,1.68,2,3,2.89,4.33a2,2,0,0,1,.25.45c.47,1.7.61,3.59,1.47,5.07,1.48,2.55.83,5.3,1.34,7.92.45,2.26,1.38,4.42,2,6.66a12.09,12.09,0,0,1,.34,3c0,3.29,0,6.57,0,10,5.38.91,10.43-.39,15.79-1.39.58,2.08,1.11,3.88,1.59,5.7.77,2.93,1.66,5.83,2.22,8.8.38,2,.23,4.07.42,6.09.32,3.29.28,6.69,1.18,9.81,1.64,5.67,1.42,11.4.78,17-.38,3.28-.43,6.7-1.29,9.86-.69,2.57-.3,5.25-1.14,7.61s-.76,4.91-1.25,7.33c-.44,2.21-1.38,4.31-2,6.5a10.86,10.86,0,0,0-.27,2.85c0,7.44,0,14.88.22,22.31a37.86,37.86,0,0,0,1.23,8.54,79.55,79.55,0,0,1,2.5,10.94c.31,2.55,1.4,5,2.05,7.53.54,2.09,1,4.21,1.39,6.34a32,32,0,0,0,2.33,8.28,24.71,24.71,0,0,1,1.36,4.63q1.17,4.65,2.26,9.32c.16.7.1,1.45.27,2.14.3,1.23.7,2.43,1,3.65a7.45,7.45,0,0,1,.19,1.05c.44,3,.72,6.08,1.36,9a49.92,49.92,0,0,0,2.07,6.07c0,.06.06.11.07.16.55,2.19.93,4.44,1.68,6.55.83,2.34,2,4.56,3,6.83,0,.1.2.15.23.25a31.73,31.73,0,0,1,1.45,4.56,6.72,6.72,0,0,1-4.09,7.46,1.38,1.38,0,0,0-.47.23c-1.61,1.88-3.89,2.54-6.06,3.47-2.41,1-4.62,2.55-7.08,3.44-2.82,1-5.4,2.51-8.52,3.1a61.85,61.85,0,0,1-8.95.65,3,3,0,0,1-3.23-2.53c-.81-2.81-1.62-5.64-2.58-8.4a30.53,30.53,0,0,0-2-3.82c-.06-.1-.16-.19-.18-.3a56.33,56.33,0,0,0-1.6-6.36c-.78-2.09-.63-4.33-1.25-6.31a83.55,83.55,0,0,1-2.51-9.47,26.37,26.37,0,0,0-2.06-5,2.19,2.19,0,0,1-.12-.52c-.44-2.64-.76-5.32-1.37-7.93-.56-2.35-1.46-4.63-2.18-6.94-.56-1.79-1.07-3.58-1.63-5.36-.62-1.95-1.43-3.85-1.87-5.83a52.7,52.7,0,0,1-.57-5.35c-.41-3.44-.83-6.87-1.31-10.29-.31-2.2-.76-4.38-1.09-6.58-.47-3.17-.48-6.48-1.46-9.47-.66-2-.64-4-1.09-6-.61-2.64-1.51-5.2-2.19-7.82-.52-2-.85-4-1.35-6-.69-2.69-1.5-5.34-2.18-8a13.6,13.6,0,0,1-.31-2.85c-.07-2,0-4.09-.12-6.12-.39-5.07-.43-10.23-1.45-15.18-1.32-6.35-.63-12.71-1-19.05-.25-3.76-.53-7.51-.72-11.26,0-.81.34-1.63.38-2.46a37.47,37.47,0,0,0,.06-5.4c-.06-.6-.93-1.12-1.43-1.68l-.58.32c-.11,2.07-.32,4.14-.3,6.21.06,8.21-.26,16.47.47,24.63.45,5,0,10.25,1.22,15,1.51,5.9.47,11.76,1.26,17.57.13.92.51,1.8.61,2.72a13.17,13.17,0,0,1,0,3c-.13,1-.64,2-.67,3.06-.22,5.81-.27,11.63-.52,17.44-.12,2.66-1.37,5.54-.7,7.93,1.44,5.15.13,10.45,1.35,15.39.84,3.42.32,6.81,1.09,10.06,1.62,6.92.86,13.9,1,20.85a8.66,8.66,0,0,1-.15,1.6A4.62,4.62,0,0,1,229.92,481Zm32.48-69.2c-.22,0-.4-.11-.44-.06-1.48,1.63-2.95,3.27-4.42,4.9-.29.33-.55.88-.89.94-3.3.55-6.62,1-9.94,1.5-.29,0-.75-.05-.86.1s-.33,1-.23,1c.7.42,1.51,1.07,2.21,1a36.67,36.67,0,0,0,8.06-1.41c2.47-.88,4.18-3,5.68-5.24C262.19,413.61,262.73,413,262.4,411.79Zm-50.63-59.44c-2.93-.17-8.8,4.13-9.75,7.2.83-.18,1.68-.13,2.17-.53,1.09-.89,1.91-2.12,3-3a16,16,0,0,1,3.2-1.52c0,1.68,0,2.87,0,4.05,0,.32.42.61.64.91.23-.27.66-.55.66-.83C211.8,356.58,211.77,354.51,211.77,352.35Zm65.15,152.53,1.87-.78c-.12-.25-.18-.62-.37-.71-1.1-.5-2.23-.93-3.34-1.4a17.73,17.73,0,0,1-3.62-1.64c-1.09-.79-1.79-2.1-2.85-3-.47-.39-1.39-.24-2.11-.33,0,.43-.13,1,.09,1.25a29,29,0,0,0,3.15,3.12,11.12,11.12,0,0,0,2.46,1.24C273.76,503.42,275.34,504.15,276.92,504.88Zm-11.51-.73-.32.67a3.63,3.63,0,0,0,2.7,2.14c.67.18,1.65,0,2,.42,1.35,1.5,3,.68,4.48.75a2.55,2.55,0,0,0,.22-1.06,22.12,22.12,0,0,0-2.79-1.2c-.55-.2-1.15-.24-1.71-.4C268.46,505,266.94,504.59,265.41,504.15Zm-47.56-87.26c0-1.28.35-2.42-.07-2.91-1.2-1.41-.87-3-1-4.56-.07-.82-.34-1.7-1.38-1.34a1.86,1.86,0,0,0-.9,1.52c.15,1.17.92,2.3.89,3.44C215.32,414.79,216.39,415.57,217.85,416.89Zm44.37-78.48a3.94,3.94,0,0,0-1.14.77c-.72,1-1.27,2.2-2,3.21-.64.85-1.51,1.55-2.22,2.36a1,1,0,0,0-.26.87.9.9,0,0,0,.82.34,11.27,11.27,0,0,0,2.1-1.29A7.38,7.38,0,0,0,262.22,338.41ZM221,441.49c2-3-.64-5.09-.81-7.54l-2.6.16C218.81,436.66,219.85,438.9,221,441.49Z"/><path class="cls-1" d="M190.26,282.78l3.53,7.66,3.32-1.25a20.92,20.92,0,0,0,3.27-1.33,16.51,16.51,0,0,0,3.59-2.78c.42-.45.28-1.56.15-2.32s-.73-1.58-.88-2.4c-.41-2.34-.52-4.75-1.08-7.05-.69-2.84,1-5.08,1.34-7.66l.54-.29a11.66,11.66,0,0,1,1.49,2.22,10.21,10.21,0,0,1,.18,2.31c.3,2.4.82,4.78.9,7.18,0,1.56-.67,3.13-.78,4.71-.2,2.8-.07,5.64-.3,8.44-.27,3.35-.78,6.69-1.16,10a18.26,18.26,0,0,0,0,2.09l7.77,2.64c2.77.94,4.62-.35,4.66-3.19.06-4.55-.37-9.2.39-13.64a73.18,73.18,0,0,0,.71-13.69c0-2.13-1-4.24-1-6.37-.12-4.13,0-8.28.2-12.4a22.91,22.91,0,0,1,1.07-5.49,4.48,4.48,0,0,1,1.76-2,10.75,10.75,0,0,1,2.63-1.24c2.74-1,5.51-1.81,8.25-2.77a16.51,16.51,0,0,0,2.25-1.16c2.93-1.55,5.86-3.12,8.81-4.65a25.68,25.68,0,0,1,2.7-1.14c1.43-.57,2.9-1.06,4.3-1.67.69-.3,1.24-.88,1.91-1.21,2.62-1.3,5.29-2.51,7.88-3.86,1.91-1,3.67-2.29,5.61-3.22,2.29-1.09,4.71-1.92,7.06-2.91.84-.35,1.6-.89,2.43-1.29,1.42-.7,2.87-1.35,4.44-2.08.11.14.36.33.41.57.48,2,.79,4.11,1.41,6.09s1.6,3.7,2.22,5.61.94,3.76,1.44,5.64c.72,2.78,1.48,5.54,2.22,8.31.53,2,1,4,1.58,6,2.47,8.32.85,16.81.94,25.22,0,1.67-.08,3.34,0,5s-.55,3.45-.7,5.19c-.18,2.09-.22,4.19-.26,6.28-.05,2.34-.07,4.68,0,7a1.64,1.64,0,0,1-1.5,1.94c-2.19.53-4.28,1.44-6.42,2.19a2,2,0,0,1-.35.07c-3,.47-6,1-9,1.42-1.78.26-3.55-.06-5.33,1s-3.3,0-3.31-2.23c0-2,.1-4.09-.09-6.11a23.79,23.79,0,0,0-1-4c0-.12-.08-.22-.1-.34-.46-2.78-1.06-5.54-1.32-8.33a19.08,19.08,0,0,0-2.25-7.52c-.71-1.31-.85-2.92-1.54-4.24-1-2-2.47-3.74-3.46-5.73-.45-.89-.25-2.11-.35-3.38a15.3,15.3,0,0,0-2.45,0c-.34.05-.88.57-.87.85.09,2.42-.68,4.59-1.32,6.89-1,3.41-1,7.09-1.39,10.65-.51,4.62-.55,9.34-1.65,13.8a53,53,0,0,0-.92,7.62c-.27,2.5-1.28,3.42-3.72,3.62a16,16,0,0,0-2.63.76,1.84,1.84,0,0,1-.84.06,48.89,48.89,0,0,0-5.2-.83c-3.83-.18-7.68,0-11.5-.26a23.62,23.62,0,0,1-7.27-1.33c-3.08-1.25-6.16-2.66-8.57-5.17-2-2-4.21-3.78-6.18-5.79-1.68-1.71-3.15-3.61-4.7-5.42-.86-1-1.73-2-2.57-3-2-2.48-2-3.23.14-5.6C189.81,283.36,189.93,283.19,190.26,282.78Z"/><path class="cls-1" d="M145.74,322c-1.78.59-3.53,1.1-5.23,1.75s-3.14,1.59-4.79,2.08a28.72,28.72,0,0,1-6.9,1.47c-6,.26-12,.16-18,.27a21,21,0,0,0-3.1.55,1.94,1.94,0,0,1-.68,0c-1.13-.21-2.24-.53-3.38-.64-5.37-.55-10.77-.9-16.12-1.61-2.15-.28-4.19-1.32-6.3-2a4.1,4.1,0,0,0-2-.19c-1.82.43-3-.77-4.28-1.61-.42-.27-.58-1.14-.61-1.75-.15-2.88.22-5.84-.37-8.61-2.11-10-.81-20-1-30,0-1.44-.33-3,.89-4.37.89-1,0-2-1.64-2l-2.72,5.32a1.28,1.28,0,0,0-.07.35c-.47,3-.83,5.94-1.46,8.87-.53,2.45-1.37,4.84-2.08,7.26,0,.18-.13.34-.17.52-.5,2.53-.82,5.11-1.53,7.58-1.49,5.19-1.61,10.58-2.76,16.1-1.39-.6-2.87-1.13-4.25-1.84-1.1-.57-2-1.48-3.15-2A92.47,92.47,0,0,0,45.54,314c-1.36-.47-2.95-.28-4.61-.41-.11-1.72-.6-3.48.85-5a1.06,1.06,0,0,0,.17-.49c.51-2.22.91-4.47,1.56-6.64.44-1.49,1.31-2.84,1.85-4.3.66-1.77,1.15-3.61,1.75-5.4q.55-1.68,1.2-3.33c.65-1.66,1.34-3.3,2-5,.08-.22.19-.44.25-.67.51-2.21.92-4.46,1.56-6.64s1.44-4,2.16-6c.08-.22.09-.47.15-.7a60.11,60.11,0,0,0,1.34-15.37,11.46,11.46,0,0,1,.14-1.49,38.4,38.4,0,0,0,6.62.28c1.54-.19,3-1.29,4.44-1.95.29-.13.73-.28,1-.15,1.33.79,2.59,1.72,3.94,2.49,2.11,1.22,4.23,2.46,6.43,3.51,2.57,1.22,5.22,2.28,7.86,3.35,1.41.58,2.89,1,4.32,1.56,1.83.69,3.64,1.43,5.47,2.09a34.59,34.59,0,0,0,4.29,1.39c2.67.59,5.37,1,8,1.56a3,3,0,0,1,1.72.89c.52.69.06,1.15-.59,1.83a23.74,23.74,0,0,0-2.71,4.43c-.83,1.41-2,2.72-2.41,4.24-.53,2-1.82,3.42-2.74,5.12A28.73,28.73,0,0,1,93.73,293c-2.21,1.65-4.11,3.71-6.28,5.43a2.59,2.59,0,0,0-.47,3.66c2.18,3.31,4.66,6.43,7.06,9.6a3.17,3.17,0,0,0,4.42.54c3.19-2.63,7.21-4.18,9.87-7.48,2.37-2.94,4.7-5.92,6.93-9,1.65-2.25,3.2-4.58,4.65-7,1-1.72,1.85-3.59,2.79-5.37.45-.85,1-1.62,1.47-2.47,1.23-2.5,2.39-5,3.6-7.55a33.43,33.43,0,0,1,2.41-4.69,2.56,2.56,0,0,1,2.37-.28,4.59,4.59,0,0,0,4,.25c.44-.18,1.76.75,2,1.41.4,1.15.18,2.49.35,3.74.12.92.52,1.81.64,2.73a4.92,4.92,0,0,1-.06,2.42,5.87,5.87,0,0,0,.06,5.29,8,8,0,0,1,.33,2.82c.52,6.11.66,12.29,1.72,18.31.47,2.7.58,5.37.94,8a18.44,18.44,0,0,0,1.3,3.69c.41,1.13.81,2.26,1.24,3.38C145.24,321,145.49,321.45,145.74,322Z"/><path class="cls-1" d="M142.71,60.05c-.53,1-1.11,1.9-1.57,2.89s-.82,2.1-1.3,3.11c-.17.35-.66.85-.9.8-.5-.11-1.21-.45-1.35-.85a10.52,10.52,0,0,1-.21-2.47c-.16-2.26.47-4.52-1-6.72a8.61,8.61,0,0,0-5.49-3.9c-2.17-.46-5.49,2.62-5.87,4.92-.24,1.38-1.16,2.79-1,4.06a26.88,26.88,0,0,0,2,6.57c.76,1.77.2,6.07-1.35,7.12-.4.28-1,.2-1.54.35-.7.21-1.37.49-2.06.74a4.14,4.14,0,0,1-.49.19c-1.77.43-6.12-2.11-6.73-3.84-.18-.49-.74-.83-1-1.29-.92-1.5-1.8-3-2.69-4.54-.15-.26-.2-.71-.4-.78-2.3-.8-1.91-2.77-1.91-4.49,0-6.71-.3-13.45.28-20.11.28-3.22.57-6.46.89-9.69a8.58,8.58,0,0,1,1.3-3.09c1.78-3.14,3.52-6.55,6.48-8.52C119.12,19,121,16.79,124,16c1.89-.51,3.73-.66,5.59-1,2.92-.55,5.8-1.32,8.69-2a2.92,2.92,0,0,1,1.39-.2c1.81.61,3.6,1.29,5.36,2,2.13.89,4.22,1.87,6.34,2.79a15.55,15.55,0,0,1,7.3,6.56c1,1.67,2.58,3.11,3.17,4.89.75,2.28,2.61,3.77,3.25,6.28a31.8,31.8,0,0,1,.71,9.47,51.31,51.31,0,0,1-1.25,9.06c-.38,1.69-1.59,3.18-2.13,4.86-.34,1.08-1,1.08-1.73,1a30.78,30.78,0,0,1-6.81-.8c-2.59-.78-5.57-.37-8.37-.23C144.57,58.75,143.68,59.56,142.71,60.05Z"/><path class="cls-1" d="M215.27,45.55c-.27.26-.68.46-.75.74a53.86,53.86,0,0,0-1.39,6.36,7.71,7.71,0,0,0,2.26,6.42,2.33,2.33,0,0,0,1.5.62c3.16.05,6.32,0,9.7,0-.16,2.39.74,4.63-.86,6.67-.26.32-.08,1-.23,1.4-.57,1.7-1.21,3.39-1.8,5.09-.86,2.48-3.13,4.2-3.41,7.08-.17,1.65-1.39,3.19-2.1,4.79a2.36,2.36,0,0,0-.14,1.06c.15,2-1,3.46-2.05,5-.61.91-1,2-1.6,2.89-1.31,1.9-2.69,3.74-4.09,5.57a33.31,33.31,0,0,1-3.56,4.27c-1.33,1.23-1.91,3.77-4.7,3.12-.44-3.72-.9-7.39-1.3-11.06a21.92,21.92,0,0,0,0-2.69c-.69-2.88,1.11-4.43,3-5.89,1.66-1.28,3.41-2.43,5.09-3.68.27-.2.37-.64.56-1-2.26-1.07-3.5.77-4.84,1.58-2.43,1.45-4.42,3.65-6.84,5.13-1.32.81-2.71,1.89-4.59,1.68a5.48,5.48,0,0,0-2.76.83c-1.44.71-2.23-.52-3.13-1.06a4.39,4.39,0,0,1-1.41-2.26c-.78-2.22-1.43-4.49-2.13-6.72a3.11,3.11,0,0,0-.35-4.66A3.49,3.49,0,0,1,182,73.63a22.5,22.5,0,0,0,.16-3.76,2.45,2.45,0,0,0-2.65-2.62L176,67.07c0-2.24-.56-4.51.1-6.34a47.52,47.52,0,0,0,2.39-16.79c0-.1.11-.2.25-.45a57.33,57.33,0,0,0,7.41-.07,39.63,39.63,0,0,0,7.22-1.84c1.43-.47,5.08,0,5.6,1.26a4.06,4.06,0,0,1-.13,3.06c-1.31,2.49-.09,5,2.72,5.15.72,0,1.44.14,2.15.15a2.78,2.78,0,0,0,3.16-2.92,7.26,7.26,0,0,1,2.31-5,3.33,3.33,0,0,1,5.31.92A14.44,14.44,0,0,0,215.27,45.55Z"/><path class="cls-1" d="M189.53,244.28c-.58,1.57-1.17,3.14-1.75,4.7a5.35,5.35,0,0,0-.66,2c.34,4,.86,8,1.21,12,.47,5.27.75,10.56,1.29,15.83.19,1.88-.78,2.93-2,3.88-2.36,1.84-2.67,3.94-.85,6.27,1.3,1.67,2.6,3.35,3.77,5.11a3.52,3.52,0,0,1,.25,1.91c-.06,2.82-.07,5.64-.29,8.44-.27,3.48-.55,7-1.16,10.41a55,55,0,0,1-2.14,7c0,.06,0,.12,0,.18-.5,2.68-.92,5.38-1.51,8-.43,2-1.08,3.91-1.68,6.06-1.39.8-2.2-.56-2.83-1.53-1.08-1.67-1.72-3.62-2.8-5.29-1.85-2.86-3.25-6-5.75-8.46-1.81-1.81-2.91-4.35-4.32-6.56a16.92,16.92,0,0,1-1.76-2.89c-.26-.69-.35-1.94.06-2.32,1.3-1.24.77-2.36.12-3.49-.95-1.65-2.18-3.15-3-4.86a2.53,2.53,0,0,1,.71-3.27c1.14-1,1.73-2.66,2.35-3.68-1.66-2.72-3.13-5.3-4.77-7.77-1.36-2-3-3.91-4.36-5.95-1-1.54-1.9-3.21-2.84-4.82-.73-1.25-1.49-2.49-2.16-3.77a3.25,3.25,0,0,1-.22-1.4c-.12-2.82-.24-5.63-.28-8.45a12,12,0,0,1,.6-2.42c1.28,2.62,2.22,4.81,3.4,6.87,1,1.83,2.34,3.51,3.53,5.25.07.1.15.22.25.24,1.61.42,3.22.85,4.84,1.23,2.75.64,4.49-1.05,6-2.89,1.76-2.2,3.31-4.56,4.88-6.91a13.18,13.18,0,0,0,1.36-2.83c.55-1.5.65-3.28,1.53-4.51,1.52-2.1.34-4.82,2.07-6.91.72-.87.33-2.66.47-4.4h8.52Z"/><path class="cls-1" d="M116.46,78.37c1.45,0,2.69,0,3.93,0a9.29,9.29,0,0,0,8-4,3.31,3.31,0,0,0,.38-1.51c.47-3.35-.79-6.32-2-9.31a5.56,5.56,0,0,1-.38-2.25,7.92,7.92,0,0,1,2.52-5.88c.77-.69,1.58-1.08,2.51.09.7.88,2,.85,2.69,2.27a10.44,10.44,0,0,1,.87,4,20.27,20.27,0,0,1-.09,2.69c-.16,3.24.16,4,3.13,4.8a3.63,3.63,0,0,0,2.92-1,5.63,5.63,0,0,0,1.41-3.07c.47-3.11,1.83-4.47,5-4.43a61.26,61.26,0,0,1,7.17.35c2.1.27,4.15.93,6.46,1.47.09,1.13.43,2.59-.75,3.85a1.21,1.21,0,0,0-.24.48,35.43,35.43,0,0,0-1.13,14c.17,1.38,1.12,2.68,1.76,4,.54,1.09-.52,2.73-2.13,3.23s-3.24.59-4.41,1.48c-1.34,1-3.13,2.09-2.94,4.3a4.26,4.26,0,0,1-2,4.27c-.44.3-.22,1.72-.11,2.6.14,1.11,1.05,2.56.62,3.22-.76,1.16-1.17,2.91-3.4,2.88a8.53,8.53,0,0,1-6.4-3c-.78-.82-1.82-1.38-2.59-2.2A19,19,0,0,1,135,98.63c-.54-.87-.74-2-1.31-2.79-.44-.63-1.27-1.41-1.87-1.37a2.32,2.32,0,0,0-1.48,1.69,10.86,10.86,0,0,0,.53,3.18c.06.27.35.54.31.77-.32,1.77-.65,3.53-1.08,5.27a11.16,11.16,0,0,1-.95,2.05c1.63,1,2.48.62,3.22-1.66.27-.84.22-1.78.46-2.64a1.73,1.73,0,0,1,.86-1.11,1.63,1.63,0,0,1,1.26.5,24.48,24.48,0,0,1,2.8,3.06,4.86,4.86,0,0,1,1,2.59c0,2.35.34,4.79-1.06,7a2.56,2.56,0,0,0-.16,1.23A22,22,0,0,1,134.09,127a32,32,0,0,0-2.08,5.44l-.6.13c-.46-1.2-.95-2.4-1.36-3.62-.73-2.17-1.41-4.35-2.11-6.53-.09-.29-.17-.58-.23-.87-.51-2.23-.65-4.63-1.64-6.62-.79-1.6-.67-3.16-1.09-4.7a44.12,44.12,0,0,0-1.94-4.95,3.15,3.15,0,0,1-.27-.63c-.5-2.36-.87-4.75-1.5-7.07-.54-2-1.46-3.82-2-5.77s-1.14-4.16-1.57-6.27c-.3-1.46.19-3-.89-4.42C116.31,80.55,116.55,79.44,116.46,78.37Z"/><path class="cls-1" d="M176.62,208.18l2.2-5.09a9.24,9.24,0,0,1,2.09,1.74c1.31,2,4.54,3.45,6.58,2.23.95-.56,1.47-2.2,1.74-3.45.2-.9-.32-2-.53-2.94,0-.23-.22-.45-.22-.67-.11-2.54-1.9-4-3.54-5.5a2,2,0,0,1-.42-.94c-.78-3.24.16-5.32,3.24-7a2.72,2.72,0,0,1-.21,3.53,1.43,1.43,0,0,0-.34,1.11,14.64,14.64,0,0,0,1.86,4.24,5.17,5.17,0,0,0,.53-1.48c0-2-.28-4,1.09-5.75.3-.38.85-.84,1.24-.8s1.1.62,1.11,1c0,1,.77,2.27-.73,3-.16.07-.18.54-.22.83a9.46,9.46,0,0,0-.06,1.07c0,2.09,0,4.17,0,6.18.24.13.35.24.44.24,3.66-.15,3.13,0,3.14,3a7.18,7.18,0,0,0,2.3,5.65,11.65,11.65,0,0,0-.27-7.06c-.74-1.87-.74-4.69.55-6.1a1.49,1.49,0,0,1,2.41.62c1.84,5.59,1.42,11.39,1.06,17.09a7.35,7.35,0,0,1-2.84,5.67c-1.17.82-2,2.11-3.14,3A20.56,20.56,0,0,1,193,223c-2.31,1.35-4.6,2.74-6.9,4.1-2.77,1.65-5.56,3.27-8.32,4.95a37.23,37.23,0,0,1-4.47,2.83,8.34,8.34,0,0,1-4.39.65c-.67-.1-1.32-1.65-1.6-2.64-1.92-6.63-1.54-13.43-1.55-20.21a2.84,2.84,0,0,1,2.13-2.82c2.84-.93,4-3.24,5.61-5.4a71.26,71.26,0,0,1,6.58-8.19c1.43-1.45,4.64-.13,5.43,2,.6,1.6,1,3.27,1.47,4.92.38,1.42-1,1.75-1.66,2.55-.63-.51-1.31-1-1.89-1.53-1-1-1.86-2.07-2.9-3s-4.33,1.45-4.52,2.59a28.28,28.28,0,0,0-.05,4.32Z"/><path class="cls-1" d="M141.62,108.81c.87.78,1.63,1.19,2,1.84,1.21,2.11,2.28,4.3,3.4,6.47a1,1,0,0,1,.15.32,59.62,59.62,0,0,1,1.37,6.66c.34,3.43.45,6.84,1,10.29.72,4.38.26,9,.26,13.45,0,2.21,0,4.43-.12,6.65a33,33,0,0,1-.77,7.54c-.75,2.74-.21,5.83-.24,8.76,0,4.14.48,8.4-.33,12.37s-.65,7.66-1.17,11.46c-.07.51-.81.94-1.25,1.4l-.9-1.42s0-.12,0-.18a104.46,104.46,0,0,0-1.72-10.93,7.27,7.27,0,0,1,0-4.87c.41-1.06-.27-2.55-.48-3.85,0-.23-.16-.44-.21-.67-.45-2.57-.75-5.18-1.4-7.71a42.94,42.94,0,0,0-2.13-5.31,2.83,2.83,0,0,1-.14-.52c-.43-2.08-.77-4.18-1.32-6.23-.67-2.52-1.52-5-2.27-7.47-.54-1.82-1-3.65-1.57-5.47-.11-.37-.33-.72-.42-1.1-.27-1.15-1-2.48-.66-3.45a75.8,75.8,0,0,1,3.18-7c.59-1.3,1.07-2.64,1.6-4,.78-1.91,1.56-3.82,2.32-5.74a3.6,3.6,0,0,0,.15-.87C140.43,116,141,112.8,141.62,108.81Z"/><path class="cls-1" d="M148.15,246.78c.51-2.47,1.26-4.56,1.32-6.67.14-5.18,0-10.37-.1-15.56,0-1.34-.54-2.67-.63-4-.15-2.15,0-4.32-.2-6.47-.11-1.29-.62-2.54-.85-3.83a25.94,25.94,0,0,1-.2-2.71L165,201a16.31,16.31,0,0,0-.93,2.4,22.56,22.56,0,0,0-.68,4.52c0,6.94.08,13.89.41,20.83.09,1.95,1.18,3.85,1.82,5.77a51.67,51.67,0,0,0,1.69,4.91,38.09,38.09,0,0,0,2.69,4.89c.57.87.49,2.11-.54,2.38a9.75,9.75,0,0,0-2.77,1.19c-2.68,1.65-5.72,2.7-8.58,4.07-1.24.59-2.32,1.52-3.58,2a5.06,5.06,0,0,1-2.78.23c-.3-.05-.5-1.17-.57-1.82a24.16,24.16,0,0,1,0-2.69C151.2,248.05,151,246.64,148.15,246.78Z"/><path class="cls-1" d="M241.62,509.46a20.51,20.51,0,0,1-3.42,0c-2.11-.37-4.18-.91-6.26-1.42-1.22-.3-2.42-.71-3.64-1a30.82,30.82,0,0,0-5.41-1.07c-1.81-.08-3.79-.69-5.44.84-.31.29-1,.15-1.58.17-2.4.06-4.8,0-7.19.19-1.15.07-2.26.63-3.4.7a17.36,17.36,0,0,1-3.43-.35c-.63-.09-1.24-.4-1.87-.43a1.7,1.7,0,0,1-1.85-1.91c0-1.17.65-1.51,1.75-1.81a47.15,47.15,0,0,0,5.52-2.17,22.54,22.54,0,0,1,3.26-1.4c4-.92,6.38-4.06,8.94-6.79,1.33-1.41,1.83-3.56,2.91-5.25a41.82,41.82,0,0,1,4-5.41c.77-.86,3.29,0,4.41,1.22,3,3.19,5.75,6.63,9,9.45a20.14,20.14,0,0,0,7.57,4.37,26.31,26.31,0,0,0,4.86,1.11c.29,0,.76.28.81.5.52,2.23,1,4.47,1.4,6.73.23,1.38-.45,2-1.89,2.48C247.75,509.12,244.81,510.06,241.62,509.46Z"/><path class="cls-1" d="M230.85,407.92c.35.12.45.13.46.16.51,2.33,1,4.66,1.54,7,.73,3.13,1.51,6.25,2.26,9.38a2.23,2.23,0,0,1,0,.36c.52,4.3.94,8.62,1.59,12.9.53,3.58,1.34,7.11,2,10.67.14.76.18,1.54.28,2.31.45,3.63.74,7.3,1.42,10.89.34,1.8,1.46,3.45,2.08,5.22s1,3.57,1.55,5.35c.69,2.33,1.42,4.64,2.12,7,.1.34.1.71.17,1.06.51,2.54.67,5.23,1.66,7.56a25.22,25.22,0,0,1,1.08,4.51,19.27,19.27,0,0,0,1.4,3.27c-2.86,1.07-4.84-.33-6.52-1.37a83.24,83.24,0,0,1-9.4-7.16,5.1,5.1,0,0,1-1.87-4.26c.17-5.75.59-11.6-.27-17.22-.77-4.95.16-10-1.08-14.71-1.28-4.85-.17-9.78-1.38-14.41a25.82,25.82,0,0,1-.63-10.73c.92-5.52.88-11,1.16-16.55A6,6,0,0,1,230.85,407.92Z"/><path class="cls-1" d="M199.15,100.9c.11,1.45.12,2.92.35,4.35.15.94.81,1.82.86,2.75a9.18,9.18,0,0,1-.46,3.57,14.89,14.89,0,0,1-1.82,2.87c-.16.24-.26.65-.47.72-2.06.66-2.33,2.68-3.22,4.21-1.15,2-2.37,4-3.33,6.09a44.53,44.53,0,0,0-1.62,5c-.64,2-1.32,4-2,6a5,5,0,0,0-.35,1.16c-.31,5.74-1.48,11.4-1.29,17.2.24,7.3,0,14.62.08,21.93,0,1.89.75,3.76,1.08,5.65a12.5,12.5,0,0,1,0,2.12c-2.76,1.1-5.09,4.29-4.92,7.24a2.65,2.65,0,0,1-1.78,2.62c-2.82,1.2-4.42,3.37-5.87,5.88a15.26,15.26,0,0,1-2.53,2.76c-1.27-1.69-2.84-3.07-3.42-4.79-.45-1.32.31-3.07.59-4.62.07-.37.41-.67.55-1,.73-2,1.48-4,2.16-6,.59-1.75,1.06-3.53,1.64-5.28.42-1.25.89-2.49,1.39-3.71a40.55,40.55,0,0,0,2-4.68c.68-2.49,1-5.08,1.58-7.59s1.37-4.88,2.07-7.32a6.21,6.21,0,0,0,.28-.66,70.59,70.59,0,0,1,1.39-8.12,40.19,40.19,0,0,0,1.48-8.34,19.64,19.64,0,0,1,1-4.37c.63-2.07,1.39-4.1,2.1-6.15.05-.17.2-.32.22-.48.2-2.68,1.44-5,2.45-7.42,1.16-2.8,1.77-5.82,2.83-8.66.95-2.52,2.22-4.92,3.3-7.4.54-1.24.87-2.57,1.46-3.78a10.48,10.48,0,0,1,1.55-1.94Z"/><path class="cls-1" d="M67.07,227c-.53-3.26-2.4-5.06-5-4.83-.07,1-.47,1.72.57,2.76s1.22,2.77,1.78,4.2c.79,2,1.56,4.08,2.39,6.1.1.23.55.31.89.49,1.1-2.91,2.16-5.69,3.2-8.45,1.5-.35,2.14.32,2.15,1.65,0,3.71.1,7.41-.07,11.11a5.84,5.84,0,0,1-1.33,3,56.87,56.87,0,0,1-4.74,5.74,12.45,12.45,0,0,1-3.14,1.83,5.85,5.85,0,0,1-.84.26c-.65.26-1.38.88-1.9.73a8.8,8.8,0,0,1-2.84-1.6c-3-2.37-4.63-5.68-6.37-9-1.52-2.91-3.07-5.9-5.63-8.22s-2.11-3.17.43-5.61A63.85,63.85,0,0,0,52.87,220c.86-1.11,1.1-2.67,1.64-4,.17-.42.39-.82.6-1.22,1.43-2.68,2.86-.41,3.71.31a25.56,25.56,0,0,0,7.37,4.7,22.54,22.54,0,0,1,4,2.46c.16.1.2.41.26.63A3.29,3.29,0,0,1,67.07,227Z"/><path class="cls-1" d="M304.31,292.35c-2.76-.43-1.93-2.66-2.34-4l-4.38.73c-.57-3.85-.78-7.3.51-10.71a5.72,5.72,0,0,0,.37-2.09c0-3.82-.12-7.65-.16-11.47a8.2,8.2,0,0,1,.15-1.32,66,66,0,0,1,6.43-2.8,60.54,60.54,0,0,1,7.35-1.63c1-.2,1.31.48,1.49,1.5.54,3.06,1.37,6.07,1.9,9.13.28,1.58,0,3.26.3,4.83a72.47,72.47,0,0,0,2.21,8.58c.6,1.78.12,6.75-1.32,7.93-.57.47-1.54,1-2.18-.27-.11-.22-.93-.24-1.34-.1a4.31,4.31,0,0,0-1.21.87c-1.43,1.15-2.67,2-4.44.15A2.25,2.25,0,0,0,304.31,292.35Zm11.23-6.15,0-.64h-6.78v.64ZM299,285.58v.61h3v-.61Zm6.57,2.42,1.6-.85c-.32-.24-.63-.67-1-.67a5,5,0,0,0-1.49.47Z"/><path class="cls-1" d="M41.31,552.65A29.42,29.42,0,0,0,38,549.3c-.42-.31-1.45.23-2.2.37s-1.41.52-2,.34c-1.66-.51-3.23-1.3-4.88-1.85-.77-.26-1.64-.12-1.83-1.28,0-.19-1.09-.16-1.64-.32a10.64,10.64,0,0,1-2.5-.9,7.43,7.43,0,0,0-2.6-1.43c-.67-.13-1.36-1.68-1.51-2.67a17.3,17.3,0,0,1,1.09-9c1-2.6,2.34-5.08,3.59-7.58.14-.28.85-.58,1.06-.46,1.3.77,2.54,1.64,3.77,2.5a26.15,26.15,0,0,0,3.09,2.22c2.51,1.26,5.09,2.39,7.68,3.47a8.24,8.24,0,0,0,2.3.31c2.49.26,3.33,1.14,3.21,3.6-.08,1.53.31,3.18-1,4.5-.29.3-.17,1-.18,1.57,0,1.74,0,3.48-.06,5.22C43.34,550.51,43.34,550.51,41.31,552.65Z"/><path class="cls-1" d="M292.87,520.81c-.73,1.7-1.31,3.25-2.05,4.71-.56,1.13-1.49,2.08-2,3.23-1.41,3.2-2.73,6.45-4,9.71-.61,1.57-3,3.27-4.67,3.14-1.9-.13-3.82-.05-5.11-2-.23-.36-1.87-.25-2.53.17-1.61,1-2.34.86-4.06,0-1-.53-2.59,0-4.32,0-.58-1-1.84-1.48-3.56-.6-1.55.79-3.17,1.47-4.9,2.26a2.8,2.8,0,0,1-.23-3.46c1-1.89,2.33-3.65,3.49-5.48.53-.84.92-1.79,1.53-2.58A3.75,3.75,0,0,1,264,528.1a38,38,0,0,0,6.83,0,34.69,34.69,0,0,0,7.53-1.44c2.06-.69,3.84-2.15,5.82-3.11,1.46-.71,3.05-1.15,4.57-1.75.91-.35,1.77-.83,2.69-1.17C291.69,520.51,292.07,520.69,292.87,520.81Z"/><path class="cls-1" d="M180.53,238.55a5.27,5.27,0,0,0-.7,1.15c-.5,2.4-.92,4.82-1.44,7.22a21.74,21.74,0,0,1-.89,2.53,7.46,7.46,0,0,0-.26.84c-.48,2.27-.88,4.56-1.45,6.81a11.94,11.94,0,0,1-1.37,3.25q-2.38,3.9-5,7.65a10.45,10.45,0,0,1-2.33,2.16c-.15.11-1-.31-1-.53-.06-.76-.18-1.83.25-2.25,1.11-1.07.49-2.56,1.08-3.55,1.6-2.72.75-5.64,1-8.45a13.75,13.75,0,0,0-.12-2.3l-.53-.29c-.55.88-1.16,1.73-1.62,2.66-.22.46-.09,1.07-.23,1.59a3.93,3.93,0,0,1-.57.95,3,3,0,0,0-.65-.67c-1-.53-1.12-2.2-2.72-2-.95.12-1.18.61-.76,1.32a21.47,21.47,0,0,0,2.37,3.39c.39.44,1.24.48,2.34.86-.22.63-.5,1.4-.78,2.16-.11.32-.25.63-.33.95a37.72,37.72,0,0,1-1.25,4.64c-.25.62-1.21,1-2.29,1.75-1.43-2.85-2.73-5.55-4.13-8.2-.59-1.11-1.41-2.11-2.11-3.16-1-1.48-.25-3,1.45-3.72a47.61,47.61,0,0,0,4.87-2.85c.3-.18.59-.48.9-.52,2.84-.4,5-2.24,7.36-3.52l2.86-1.54a6.65,6.65,0,0,0,3.42-5.5c.13-1.36,0-2.74,0-4C178,236.11,178.9,238.15,180.53,238.55Z"/><path class="cls-1" d="M56.59,202.53a45.59,45.59,0,0,1-5.85-3.29,16,16,0,0,1-4.49-4.71,39.75,39.75,0,0,1-3.13-5.81c-.93-2.63-.94-5.17-1.15-7.79-.11-1.42.43-2,1.93-2.36a20.11,20.11,0,0,0,4.43-1.93c1-.47,1.88-1.08,2.84-1.58a.69.69,0,0,1,.64.13c.89,1.42,2.45,2.32,2.69,4.3a47.82,47.82,0,0,0,1.55,8.24c1.42,4.56.89,9,.82,13.5A11,11,0,0,1,56.59,202.53Z"/><path class="cls-1" d="M161.52,297.83l-5.65-7c-.08-.09-.14-.22-.24-.26-3-1.15-2.95-3.82-3.08-6.35-.1-1.86-.14-3.72-.13-5.57a12.26,12.26,0,0,1,.34-2c2,2.71,3.87,5.07,5.48,7.6,1.5,2.35,2.71,4.88,4,7.34.06.1,0,.28.09.34C165.07,294.1,163.24,295.79,161.52,297.83Z"/><path class="cls-1" d="M164.3,308.28c-.81.52-1.6,1.06-2.42,1.56-1,.65-2.73-.53-3.26-2-.66-1.89-1.7-3.66-2.28-5.57-.69-2.33-1.1-4.75-1.56-7.15-.06-.3.3-.68.47-1a3.75,3.75,0,0,1,.74.55c2,2.38,4,4.75,5.9,7.17a10.18,10.18,0,0,1,1.11,2.09c.67,1.45,1.3,2.91,1.95,4.37Z"/><path class="cls-1" d="M187.89,238.17,178.58,235v-1.11c1.8-1.07,3.4-2.07,5-3,1.8-1,3.67-1.83,5.5-2.77.75-.39,1.46-.85,2.55-1.5C190.3,230.82,189.13,234.38,187.89,238.17Z"/><path class="cls-1" d="M189.59,244.34c.67-3.11,1.35-6.21,2-9.32.11-.52.18-1.06.32-1.57.44-1.65.87-3.3,1.38-4.92a1.06,1.06,0,0,1,1-.23c1.6,1,1.47,2.2.49,4a9.8,9.8,0,0,0-1.38,5.05c.21,3-1.35,4.9-3,6.88-.14.16-.57.07-.86.09Z"/><path class="cls-1" d="M169.36,492.81c.6-.94,1-2.24,1.82-2.74,2.13-1.24,4.48-2.12,7-3.26.09,1.11.18,1.63.18,2.16,0,1.54,1,3.74-2.13,3.34-1.86,1.94-4.2.66-6.28,1.1Z"/><path class="cls-1" d="M168,201.1a24.16,24.16,0,0,1,1.3,4.57,4,4,0,0,1-1.24,2.53c-.3.33-1.27.24-1.85.06-.24-.08-.35-.9-.34-1.38C166,203.35,166,203.35,168,201.1Z"/><path class="cls-1" d="M173.28,243.19c-1.46-.47-3.76-3.1-3.47-4.14a3.56,3.56,0,0,1,1.6-2,2.18,2.18,0,0,1,2.08.33c.39.41.22,1.41.18,2.14C173.6,240.69,173.43,241.87,173.28,243.19Z"/><path class="cls-1" d="M182,241.79l.17-2.17c1.75-.47,4.08.28,4.74,1.48a1.15,1.15,0,0,1-1.22,1.62A32.69,32.69,0,0,1,182,241.79Z"/><path class="cls-1" d="M194.74,197.25a16.3,16.3,0,0,1,0-6.19c2.23,1.47,2.28,1.87,1.17,3.76a8,8,0,0,0-.49,2.45Z"/><path d="M38,490a9.94,9.94,0,0,1,2.08-1.34c2.91-1,5-3.12,7.51-4.7,3.1-2,6.16-3.94,8.48-6.77,1.74-2.12,3.13-4.51,4.66-6.79.61-.91,1.18-1.85,1.77-2.78a2.42,2.42,0,0,1,.34,3.38c-1.6,2.29-3,4.72-4.75,6.92A28,28,0,0,1,53.88,482a64.84,64.84,0,0,1-6.24,4.7c-1.86,1.21-4,2.07-5.92,3.13-.48.26-.84.8-1.34.95a6,6,0,0,1-1.75,0Z"/><path d="M137.7,347.83a4.41,4.41,0,0,1,4.65-.12c.21.17.4.46.64.52,4.48,1.1,7.58,4.16,10.69,7.28,1.16,1.16,2.77,1.86,4,2.95.5.44.55,1.37.8,2.07-.69-.07-1.58.1-2-.27-2.72-2.16-5.25-4.57-8-6.67a39.08,39.08,0,0,0-5.24-2.89C141.39,349.74,139.57,348.8,137.7,347.83Z"/><path d="M193,404.28a5.25,5.25,0,0,1-.61,4.4c-1.22,1.78-1.64,4.1-2.83,5.9-1.47,2.22-2.59,4.87-5.49,5.86a6.44,6.44,0,0,0-1.87,1.43,7.54,7.54,0,0,1-5.24,2.05c-.34,0-.67-.29-1-.44a9.29,9.29,0,0,1,.91-.75c1.77-1.11,3.55-2.22,5.35-3.29.65-.39,1.56-.49,2-1a24.38,24.38,0,0,0,5.47-8.45c.69-2,1.76-3.94,2.66-5.91Z"/><path d="M47.56,417.43c1,.56,2.23.9,2.94,1.71,2.31,2.64,4.39,5.49,6.66,8.17a35.48,35.48,0,0,0,4,3.89c.43.36,1.25.26,2.23.43-.15.75-.08,1.93-.49,2.13-.75.36-1.52.14-2.35-.77-2.55-2.8-5.53-5.2-8.16-7.93-1.88-1.94-3.49-4.14-5.19-6.25-.14-.18,0-.56,0-.85Z"/><path d="M31.63,513.8c2.73,1.39,5.42,2.86,8.2,4.14a7.55,7.55,0,0,0,2.84.25c1.46,0,2.06.71,1.85,2.31-1.34.08-2.68.68-3.9-.66a2.42,2.42,0,0,0-1.69-.38c-1.88.1-3.21-.86-4.53-2-.79-.69-1.81-1.11-2.61-1.79a5,5,0,0,1-.83-1.51Z"/><path d="M184.3,378.36c.19,3.41-4.43,8.8-7.25,8a16.15,16.15,0,0,0,2.3-2.16,24.85,24.85,0,0,0,2.62-4.55C182.45,378.53,182.94,378,184.3,378.36Z"/><path d="M102.5,88.63c2-.7,2.57-.1,2.9,1.2A21.14,21.14,0,0,0,106.58,93c1.14,2.63,2.43,5.21,3.42,7.9a57.63,57.63,0,0,1,1.5,5.85c.16.61.5,1.17.62,1.78.29,1.36.49,2.74.75,4.3h-2.41c-.52-2.41-1-4.86-1.58-7.27-.37-1.43-1-2.8-1.48-4.19-.72-2-1.44-4-2.19-5.92-.46-1.19-1-2.35-1.48-3.54S102.93,89.79,102.5,88.63Z"/><path d="M119.08,134.34c1.29-.44,2-.43,2.53,1a54.27,54.27,0,0,1,2.34,8.38c.37,1.81,1.61,3.44,2,5.25a28.76,28.76,0,0,1,.35,5.66c0,.06-1,.37-1.25.18a2.75,2.75,0,0,1-1-1.45c-.56-2.24-.91-4.52-1.55-6.73-.57-2-1.41-3.92-2.14-5.88a3.33,3.33,0,0,1-.16-.51c-.19-1.52.2-3.17-1.17-4.42C118.88,135.64,119.08,135,119.08,134.34Z"/><path d="M84.44,201.25c.76-.1,1.63-.5,2.26-.26a50.31,50.31,0,0,1,6.37,2.93c2.52,1.41,4.93,3,7.35,4.62a11.77,11.77,0,0,1,2.33,2c.23.26,0,1-.16,1.46,0,.13-.82.15-1.13,0-1.57-.9-3.1-1.87-4.63-2.84-2.29-1.46-4.53-3-6.86-4.41-1.76-1.06-3.62-2-5.44-2.94Z"/><path d="M84.62,127.67c-.9,2.61-1.82,5.21-2.67,7.83a14.63,14.63,0,0,0-.3,2.12c-.24,1.61-1.38,2.87-2.52,2.74-.32,0-.77-.17-.88-.4s.1-.62.21-.93c.68-1.94,1.38-3.87,2-5.8.87-2.52,1.7-5,2.59-7.55a.78.78,0,0,1,.7-.33.92.92,0,0,1,.52.61,10.67,10.67,0,0,1,0,1.6Z"/><path d="M88.85,98.29c.43,2.2.72,4.19-.31,6.21a15.06,15.06,0,0,0-.56,2.2,2.78,2.78,0,0,1-.79,1.37,1.32,1.32,0,0,1-1.27-.36,2.87,2.87,0,0,1-.16-1.7c.23-1.22.73-2.4.86-3.62C86.83,100.33,86.74,100.32,88.85,98.29Z"/><path d="M234.1,74.64c-.08,1.4.38,2.63-.83,4-1,1.05-1.1,2.82-1.67,4.25a37.38,37.38,0,0,1-1.72,3.89c-1.3,2.41-2.91,4.64-3.3,7.49a16.26,16.26,0,0,1-1.35,3.86,53.76,53.76,0,0,1-2.36,5.38,58.76,58.76,0,0,1-3.42,5.42c-.2.3-.79.32-1.2.47-.12-.37-.43-.8-.33-1.1.3-.92.75-1.79,1.14-2.68.9-2,1.76-4.08,2.7-6.09.64-1.38,1.38-2.7,2.07-4a2.68,2.68,0,0,0,.21-.68,24.43,24.43,0,0,1,3.48-8.55c.84-1.4,1.06-3.16,1.72-4.69.5-1.18,1.29-2.24,1.88-3.38a5,5,0,0,0,.55-1.79C231.81,74.85,232.63,74.45,234.1,74.64Z"/><path d="M245.53,182.13c-.11-1.72-.78-3.39.62-5.11.71-.89.84-2.25,1.21-3.41.62-2,1.23-4,1.88-6.11-2.73-.33-5.19.93-7.93-.76,1-.26,1.5-.57,1.92-.47,2,.44,3.49-.78,5.1-1.41a6.72,6.72,0,0,0,3-2.6c1-1.61,2.35-.53,3.47-.87,0,.77.33,1.9-.05,2.25a12.68,12.68,0,0,0-3.39,5.52c-.55,1.59-1.35,3.09-2.05,4.63a2.54,2.54,0,0,0-.24.46c-.45,2-.78,4.07-1.38,6-.24.78-1.07,1.38-1.64,2.06Z"/><path d="M205.54,131.08c-.43.85-.66,2-1.34,2.5-2.41,1.83-3,4.75-4.56,7.08-.88,1.32-.82,3.24-1.56,4.69-1.65,3.19-1,6.59-1.33,9.9a5.14,5.14,0,0,1-1.15,2.08c0,.06-1-.29-1-.5-.17-1.66-.25-3.33-.26-5a12.29,12.29,0,0,1,.25-3,21.77,21.77,0,0,1,2.07-6.38c.74-1.23.94-2.79,1.67-4,1.74-2.92,3.24-6.1,6.6-7.63Z"/><path d="M292.94,197.37c1.66,1.57,2,3,1.24,4.93a7.76,7.76,0,0,0-.47,2.43c-.07,3.7-.06,7.4-.09,11.1,0,.34-.06.68-.09,1.06-1.55.34-2.5.16-2.42-1.72.1-2.68-.09-5.38.12-8,.22-2.93.74-5.83,1.15-8.75a3.22,3.22,0,0,1,.27-.83C292.68,197.46,292.84,197.43,292.94,197.37Z"/><path d="M282.13,182.54c-.39-.19-.94-.27-1.13-.58-.83-1.34-1.45-2.8-2.32-4.1-1.68-2.51-1-5.41-1.54-8.08-.32-1.45-1.11-2.73.22-4a9.67,9.67,0,0,1,.89-.65c.17.28.36.55.51.84a1,1,0,0,1,0,.35c.4,3,.7,6,1.24,9a17.2,17.2,0,0,0,1.44,3.32c.47,1.11.89,2.24,1.33,3.36Z"/><path d="M216.46,210.17c-2.82-.31-5.36-.78-7.91-.81-1.63,0-1.85-.57-1.49-2,2.12,0,4.26-.13,6.38,0a5.34,5.34,0,0,1,2.74,1.23C216.56,208.92,216.42,209.89,216.46,210.17Z"/><path d="M200.58,188.21c1.19-3.78,4.35-5.72,6.85-8.22,1.22,1.26,1,1.59-.07,2.51a22.35,22.35,0,0,0-4.07,4.56C202.65,188,202.26,188.73,200.58,188.21Z"/><path d="M304.43,193.25c.52,2.23-.29,2.77-1.77,2.75a25.5,25.5,0,0,0-3,0c-1.05.11-2.09.39-3.35.65,0-.35-.13-.95-.26-1.94Z"/><path d="M194.68,185c-.38-3.67,4-9,7.06-8.2-1.4,1.49-2.7,2.86-4,4.26a2.5,2.5,0,0,0-.72,1.25,2.92,2.92,0,0,1-2.42,2.63Z"/><path d="M216.94,190.48c-1.79.63-3.32,1.06-4.76,1.7a5.67,5.67,0,0,0-2.62,1.78c-.89,1.49-1.69.52-3,.58,2.54-3.31,5.32-5,9.1-4.78C216.11,189.79,216.5,190.21,216.94,190.48Z"/><path d="M301.62,187a17.65,17.65,0,0,1-1.93,2c-1.5,1.13-3,2.23-4.63,3.22-.34.2-1-.13-1.51-.21a9.07,9.07,0,0,1,.84-1q1.58-1.44,3.21-2.82a23,23,0,0,1,2.57-2C300.35,186.11,300.89,186.58,301.62,187Z"/><path d="M262.4,411.79c.33,1.19-.21,1.82-.83,2.76-1.5,2.27-3.21,4.36-5.68,5.24a36.67,36.67,0,0,1-8.06,1.41c-.7.07-1.51-.58-2.21-1-.1-.07,0-.75.23-1s.57-.06.86-.1c3.32-.49,6.64-.95,9.94-1.5.34-.06.6-.61.89-.94,1.47-1.63,2.94-3.27,4.42-4.9C262,411.68,262.18,411.76,262.4,411.79Z"/><path d="M211.77,352.35c0,2.16,0,4.23,0,6.3,0,.28-.43.56-.66.83-.22-.3-.62-.59-.64-.91-.08-1.18,0-2.37,0-4.05a16,16,0,0,0-3.2,1.52c-1.11.86-1.93,2.09-3,3-.49.4-1.34.35-2.17.53C203,356.48,208.84,352.18,211.77,352.35Z"/><path d="M276.92,504.88c-1.58-.73-3.16-1.46-4.72-2.2a11.12,11.12,0,0,1-2.46-1.24,29,29,0,0,1-3.15-3.12c-.22-.25-.07-.82-.09-1.25.72.09,1.64-.06,2.11.33,1.06.85,1.76,2.16,2.85,3a17.73,17.73,0,0,0,3.62,1.64c1.11.47,2.24.9,3.34,1.4.19.09.25.46.37.71Z"/><path d="M265.41,504.15c1.53.44,3,.89,4.59,1.32.56.16,1.16.2,1.71.4a22.12,22.12,0,0,1,2.79,1.2,2.55,2.55,0,0,1-.22,1.06c-1.51-.07-3.13.75-4.48-.75-.36-.41-1.34-.24-2-.42a3.63,3.63,0,0,1-2.7-2.14Z"/><path d="M217.85,416.89c-1.46-1.32-2.53-2.1-2.48-3.85,0-1.14-.74-2.27-.89-3.44a1.86,1.86,0,0,1,.9-1.52c1-.36,1.31.52,1.38,1.34.15,1.56-.18,3.15,1,4.56C218.2,414.47,217.85,415.61,217.85,416.89Z"/><path d="M262.22,338.41a7.38,7.38,0,0,1-2.73,6.26,11.27,11.27,0,0,1-2.1,1.29.9.9,0,0,1-.82-.34,1,1,0,0,1,.26-.87c.71-.81,1.58-1.51,2.22-2.36.76-1,1.31-2.17,2-3.21A3.94,3.94,0,0,1,262.22,338.41Z"/><path d="M221,441.49c-1.19-2.59-2.23-4.83-3.41-7.38l2.6-.16C220.4,436.4,223,438.47,221,441.49Z"/><path d="M315.54,286.2h-6.76v-.64h6.78Z"/><path d="M299,285.58h3v.61h-3Z"/><path d="M305.56,288l-.84-1.05a5,5,0,0,1,1.49-.47c.32,0,.63.43,1,.67Z"/></g></g></svg>